<?xml version="1.0" encoding="UTF-8" standalone="no"?>
<!DOCTYPE svg PUBLIC "-//W3C//DTD SVG 1.1//EN"
 "http://www.w3.org/Graphics/SVG/1.1/DTD/svg11.dtd">
<!-- Generated by graphviz version 2.43.0 (0)
 -->
<!-- Title: System.Collections.Generic.NullableComparer&lt; T &gt; Pages: 1 -->
<svg width="288pt" height="729pt"
 viewBox="0.00 0.00 287.50 729.00" xmlns="http://www.w3.org/2000/svg" xmlns:xlink="http://www.w3.org/1999/xlink">
<g id="graph0" class="graph" transform="scale(1 1) rotate(0) translate(4 725)">
<title>System.Collections.Generic.NullableComparer&lt; T &gt;</title>
<!-- Node1 -->
<g id="Node000001" class="node">
<title>Node1</title>
<g id="a_Node000001"><a xlink:title=" ">
<polygon fill="#999999" stroke="transparent" points="182,-127 27,-127 27,0 182,0 182,-127"/>
<text text-anchor="start" x="36" y="-114.5" font-family="Helvetica,sans-Serif" font-size="10.00">System.Collections.Generic.</text>
<text text-anchor="start" x="46" y="-103.5" font-family="Helvetica,sans-Serif" font-size="10.00">NullableComparer&lt; T &gt;</text>
<text text-anchor="start" x="103" y="-88.5" font-family="Helvetica,sans-Serif" font-size="10.00"> </text>
<text text-anchor="start" x="31.5" y="-73.5" font-family="Helvetica,sans-Serif" font-size="10.00">+</text>
<text text-anchor="start" x="44.5" y="-73.5" font-family="Helvetica,sans-Serif" font-size="10.00">override int Compare</text>
<text text-anchor="start" x="44.5" y="-62.5" font-family="Helvetica,sans-Serif" font-size="10.00">(T? x, T? y)</text>
<text text-anchor="start" x="31.5" y="-47.5" font-family="Helvetica,sans-Serif" font-size="10.00">+</text>
<text text-anchor="start" x="44.5" y="-47.5" font-family="Helvetica,sans-Serif" font-size="10.00">override bool Equals</text>
<text text-anchor="start" x="44.5" y="-36.5" font-family="Helvetica,sans-Serif" font-size="10.00">(object obj)</text>
<text text-anchor="start" x="31.5" y="-21.5" font-family="Helvetica,sans-Serif" font-size="10.00">+</text>
<text text-anchor="start" x="44.5" y="-21.5" font-family="Helvetica,sans-Serif" font-size="10.00">override int GetHashCode()</text>
<text text-anchor="start" x="31.5" y="-6.5" font-family="Helvetica,sans-Serif" font-size="10.00">+</text>
<text text-anchor="start" x="44.5" y="-6.5" font-family="Helvetica,sans-Serif" font-size="10.00">NullableComparer()</text>
<polygon fill="#666666" stroke="#666666" points="27.5,-98.5 27.5,-98.5 182.5,-98.5 182.5,-98.5 27.5,-98.5"/>
<polygon fill="#666666" stroke="#666666" points="27.5,-83.5 27.5,-83.5 182.5,-83.5 182.5,-83.5 27.5,-83.5"/>
<polygon fill="none" stroke="#666666" points="27,0 27,-127 182,-127 182,0 27,0"/>
</a>
</g>
</g>
<!-- Node2 -->
<g id="Node000002" class="node">
<title>Node2</title>
<g id="a_Node000002"><a xlink:href="../../df/d9d/classSystem_1_1Collections_1_1Generic_1_1Comparer.html" target="_top" xlink:title=" ">
<polygon fill="white" stroke="transparent" points="198,-317 11,-317 11,-164 198,-164 198,-317"/>
<text text-anchor="start" x="65.5" y="-304.5" font-family="Helvetica,sans-Serif" font-size="10.00">Comparer&lt; T?&gt;</text>
<text text-anchor="start" x="15.5" y="-289.5" font-family="Helvetica,sans-Serif" font-size="10.00">+</text>
<text text-anchor="start" x="28.5" y="-289.5" font-family="Helvetica,sans-Serif" font-size="10.00">static Comparer&lt; T</text>
<text text-anchor="start" x="28.5" y="-278.5" font-family="Helvetica,sans-Serif" font-size="10.00"> &gt; Default</text>
<text text-anchor="start" x="18" y="-263.5" font-family="Helvetica,sans-Serif" font-size="10.00">&#45;</text>
<text text-anchor="start" x="28.5" y="-263.5" font-family="Helvetica,sans-Serif" font-size="10.00">static Comparer&lt; T</text>
<text text-anchor="start" x="28.5" y="-252.5" font-family="Helvetica,sans-Serif" font-size="10.00"> &gt; defaultComparer</text>
<text text-anchor="start" x="15.5" y="-237.5" font-family="Helvetica,sans-Serif" font-size="10.00">+</text>
<text text-anchor="start" x="28.5" y="-237.5" font-family="Helvetica,sans-Serif" font-size="10.00">int Compare(T x, T y)</text>
<text text-anchor="start" x="15.5" y="-222.5" font-family="Helvetica,sans-Serif" font-size="10.00">#</text>
<text text-anchor="start" x="28.5" y="-222.5" font-family="Helvetica,sans-Serif" font-size="10.00">Comparer()</text>
<text text-anchor="start" x="18" y="-207.5" font-family="Helvetica,sans-Serif" font-size="10.00">&#45;</text>
<text text-anchor="start" x="28.5" y="-207.5" font-family="Helvetica,sans-Serif" font-size="10.00">int System.Collections.IComparer.</text>
<text text-anchor="start" x="28.5" y="-196.5" font-family="Helvetica,sans-Serif" font-size="10.00"> Compare(object x, object y)</text>
<text text-anchor="start" x="18" y="-181.5" font-family="Helvetica,sans-Serif" font-size="10.00">&#45;</text>
<text text-anchor="start" x="28.5" y="-181.5" font-family="Helvetica,sans-Serif" font-size="10.00">static Comparer&lt; T</text>
<text text-anchor="start" x="28.5" y="-170.5" font-family="Helvetica,sans-Serif" font-size="10.00"> &gt; CreateComparer()</text>
<polygon fill="#666666" stroke="#666666" points="11.5,-299.5 11.5,-299.5 198.5,-299.5 198.5,-299.5 11.5,-299.5"/>
<polygon fill="#666666" stroke="#666666" points="11.5,-247.5 11.5,-247.5 26.5,-247.5 26.5,-247.5 11.5,-247.5"/>
<polygon fill="#666666" stroke="#666666" points="26.5,-247.5 26.5,-247.5 198.5,-247.5 198.5,-247.5 26.5,-247.5"/>
<polygon fill="none" stroke="#666666" points="11,-164 11,-317 198,-317 198,-164 11,-164"/>
</a>
</g>
</g>
<!-- Node2&#45;&gt;Node1 -->
<g id="edge1_Node000001_Node000002" class="edge">
<title>Node2&#45;&gt;Node1</title>
<g id="a_edge1_Node000001_Node000002"><a xlink:title=" ">
<path fill="none" stroke="#63b8ff" d="M104.5,-153.71C104.5,-144.78 104.5,-135.82 104.5,-127.22"/>
<polygon fill="none" stroke="#63b8ff" points="101,-153.76 104.5,-163.76 108,-153.76 101,-153.76"/>
</a>
</g>
</g>
<!-- Node3 -->
<g id="Node000003" class="node">
<title>Node3</title>
<g id="a_Node000003"><a xlink:href="../../df/d9d/classSystem_1_1Collections_1_1Generic_1_1Comparer.html" target="_top" xlink:title=" ">
<polygon fill="white" stroke="transparent" points="198,-528 11,-528 11,-364 198,-364 198,-528"/>
<text text-anchor="start" x="36" y="-516" font-family="Helvetica,sans-Serif" font-size="10.00">System.Collections.Generic.</text>
<text text-anchor="start" x="66.5" y="-505" font-family="Helvetica,sans-Serif" font-size="10.00">Comparer&lt; T &gt;</text>
<text text-anchor="start" x="15.5" y="-490" font-family="Helvetica,sans-Serif" font-size="10.00">+</text>
<text text-anchor="start" x="28.5" y="-490" font-family="Helvetica,sans-Serif" font-size="10.00">static Comparer&lt; T</text>
<text text-anchor="start" x="28.5" y="-479" font-family="Helvetica,sans-Serif" font-size="10.00"> &gt; Default</text>
<text text-anchor="start" x="18" y="-464" font-family="Helvetica,sans-Serif" font-size="10.00">&#45;</text>
<text text-anchor="start" x="28.5" y="-464" font-family="Helvetica,sans-Serif" font-size="10.00">static Comparer&lt; T</text>
<text text-anchor="start" x="28.5" y="-453" font-family="Helvetica,sans-Serif" font-size="10.00"> &gt; defaultComparer</text>
<text text-anchor="start" x="15.5" y="-438" font-family="Helvetica,sans-Serif" font-size="10.00">+</text>
<text text-anchor="start" x="28.5" y="-438" font-family="Helvetica,sans-Serif" font-size="10.00">int Compare(T x, T y)</text>
<text text-anchor="start" x="15.5" y="-423" font-family="Helvetica,sans-Serif" font-size="10.00">#</text>
<text text-anchor="start" x="28.5" y="-423" font-family="Helvetica,sans-Serif" font-size="10.00">Comparer()</text>
<text text-anchor="start" x="18" y="-408" font-family="Helvetica,sans-Serif" font-size="10.00">&#45;</text>
<text text-anchor="start" x="28.5" y="-408" font-family="Helvetica,sans-Serif" font-size="10.00">int System.Collections.IComparer.</text>
<text text-anchor="start" x="28.5" y="-397" font-family="Helvetica,sans-Serif" font-size="10.00"> Compare(object x, object y)</text>
<text text-anchor="start" x="18" y="-382" font-family="Helvetica,sans-Serif" font-size="10.00">&#45;</text>
<text text-anchor="start" x="28.5" y="-382" font-family="Helvetica,sans-Serif" font-size="10.00">static Comparer&lt; T</text>
<text text-anchor="start" x="28.5" y="-371" font-family="Helvetica,sans-Serif" font-size="10.00"> &gt; CreateComparer()</text>
<polygon fill="#666666" stroke="#666666" points="11.5,-500 11.5,-500 198.5,-500 198.5,-500 11.5,-500"/>
<polygon fill="#666666" stroke="#666666" points="11.5,-448 11.5,-448 26.5,-448 26.5,-448 11.5,-448"/>
<polygon fill="#666666" stroke="#666666" points="26.5,-448 26.5,-448 198.5,-448 198.5,-448 26.5,-448"/>
<polygon fill="none" stroke="#666666" points="11,-364 11,-528 198,-528 198,-364 11,-364"/>
</a>
</g>
</g>
<!-- Node3&#45;&gt;Node2 -->
<g id="edge2_Node000002_Node000003" class="edge">
<title>Node3&#45;&gt;Node2</title>
<g id="a_edge2_Node000002_Node000003"><a xlink:title=" ">
<path fill="none" stroke="orange" d="M104.5,-353.8C104.5,-341.59 104.5,-329.18 104.5,-317.27"/>
<polygon fill="orange" stroke="orange" points="101,-353.99 104.5,-363.99 108,-353.99 101,-353.99"/>
</a>
</g>
<text text-anchor="middle" x="121.5" y="-338" font-family="Helvetica,sans-Serif" font-size="10.00" fill="grey"> &lt; T?&gt;</text>
</g>
<!-- Node4 -->
<g id="Node000004" class="node">
<title>Node4</title>
<g id="a_Node000004"><a xlink:href="../../dd/d58/interfaceSystem_1_1Collections_1_1Generic_1_1IComparer.html" target="_top" xlink:title=" ">
<polygon fill="white" stroke="transparent" points="125,-614 0,-614 0,-565 125,-565 125,-614"/>
<text text-anchor="start" x="37" y="-601.5" font-family="Helvetica,sans-Serif" font-size="10.00">IComparer</text>
<text text-anchor="start" x="61" y="-586.5" font-family="Helvetica,sans-Serif" font-size="10.00"> </text>
<text text-anchor="start" x="4.5" y="-571.5" font-family="Helvetica,sans-Serif" font-size="10.00">+</text>
<text text-anchor="start" x="17.5" y="-571.5" font-family="Helvetica,sans-Serif" font-size="10.00">int Compare(T x, T y)</text>
<polygon fill="#666666" stroke="#666666" points="0.5,-596.5 0.5,-596.5 125.5,-596.5 125.5,-596.5 0.5,-596.5"/>
<polygon fill="#666666" stroke="#666666" points="0.5,-581.5 0.5,-581.5 125.5,-581.5 125.5,-581.5 0.5,-581.5"/>
<polygon fill="none" stroke="#666666" points="0,-565 0,-614 125,-614 125,-565 0,-565"/>
</a>
</g>
</g>
<!-- Node4&#45;&gt;Node3 -->
<g id="edge3_Node000003_Node000004" class="edge">
<title>Node4&#45;&gt;Node3</title>
<g id="a_edge3_Node000003_Node000004"><a xlink:title=" ">
<path fill="none" stroke="#63b8ff" d="M72.45,-554.96C74.89,-546.75 77.61,-537.6 80.4,-528.2"/>
<polygon fill="none" stroke="#63b8ff" points="69.02,-554.23 69.53,-564.82 75.73,-556.23 69.02,-554.23"/>
</a>
</g>
</g>
<!-- Node5 -->
<g id="Node000005" class="node">
<title>Node5</title>
<g id="a_Node000005"><a xlink:href="../../dd/d58/interfaceSystem_1_1Collections_1_1Generic_1_1IComparer.html" target="_top" xlink:title=" ">
<polygon fill="white" stroke="transparent" points="268,-614 143,-614 143,-565 268,-565 268,-614"/>
<text text-anchor="start" x="166" y="-601.5" font-family="Helvetica,sans-Serif" font-size="10.00">IComparer&lt; T &gt;</text>
<text text-anchor="start" x="204" y="-586.5" font-family="Helvetica,sans-Serif" font-size="10.00"> </text>
<text text-anchor="start" x="147.5" y="-571.5" font-family="Helvetica,sans-Serif" font-size="10.00">+</text>
<text text-anchor="start" x="160.5" y="-571.5" font-family="Helvetica,sans-Serif" font-size="10.00">int Compare(T x, T y)</text>
<polygon fill="#666666" stroke="#666666" points="143.5,-596.5 143.5,-596.5 268.5,-596.5 268.5,-596.5 143.5,-596.5"/>
<polygon fill="#666666" stroke="#666666" points="143.5,-581.5 143.5,-581.5 268.5,-581.5 268.5,-581.5 143.5,-581.5"/>
<polygon fill="none" stroke="#666666" points="143,-565 143,-614 268,-614 268,-565 143,-565"/>
</a>
</g>
</g>
<!-- Node5&#45;&gt;Node3 -->
<g id="edge4_Node000003_Node000005" class="edge">
<title>Node5&#45;&gt;Node3</title>
<g id="a_edge4_Node000003_Node000005"><a xlink:title=" ">
<path fill="none" stroke="#63b8ff" d="M182.73,-556.59C176.57,-547.97 169.62,-538.23 162.46,-528.2"/>
<polygon fill="none" stroke="#63b8ff" points="179.94,-558.71 188.59,-564.82 185.63,-554.64 179.94,-558.71"/>
</a>
</g>
</g>
<!-- Node6 -->
<g id="Node000006" class="node">
<title>Node6</title>
<g id="a_Node000006"><a xlink:href="../../dd/d58/interfaceSystem_1_1Collections_1_1Generic_1_1IComparer.html" target="_top" xlink:title=" ">
<polygon fill="white" stroke="transparent" points="279.5,-721 131.5,-721 131.5,-661 279.5,-661 279.5,-721"/>
<text text-anchor="start" x="136.5" y="-709" font-family="Helvetica,sans-Serif" font-size="10.00">System.Collections.Generic.</text>
<text text-anchor="start" x="159.5" y="-698" font-family="Helvetica,sans-Serif" font-size="10.00">IComparer&lt; in T &gt;</text>
<text text-anchor="start" x="203.5" y="-683" font-family="Helvetica,sans-Serif" font-size="10.00"> </text>
<text text-anchor="start" x="141" y="-668" font-family="Helvetica,sans-Serif" font-size="10.00">+</text>
<text text-anchor="start" x="159.5" y="-668" font-family="Helvetica,sans-Serif" font-size="10.00">int Compare(T x, T y)</text>
<polygon fill="#666666" stroke="#666666" points="131.5,-693 131.5,-693 279.5,-693 279.5,-693 131.5,-693"/>
<polygon fill="#666666" stroke="#666666" points="131.5,-678 131.5,-678 279.5,-678 279.5,-678 131.5,-678"/>
<polygon fill="none" stroke="#666666" points="131.5,-661 131.5,-721 279.5,-721 279.5,-661 131.5,-661"/>
</a>
</g>
</g>
<!-- Node6&#45;&gt;Node5 -->
<g id="edge5_Node000005_Node000006" class="edge">
<title>Node6&#45;&gt;Node5</title>
<g id="a_edge5_Node000005_Node000006"><a xlink:title=" ">
<path fill="none" stroke="orange" d="M205.5,-650.8C205.5,-638.38 205.5,-625.03 205.5,-614.06"/>
<polygon fill="orange" stroke="orange" points="202,-650.95 205.5,-660.95 209,-650.95 202,-650.95"/>
</a>
</g>
<text text-anchor="middle" x="221.5" y="-635" font-family="Helvetica,sans-Serif" font-size="10.00" fill="grey"> &lt; T &gt;</text>
</g>
</g>
</svg>
