<?xml version="1.0" encoding="UTF-8" standalone="no"?>
<!DOCTYPE svg PUBLIC "-//W3C//DTD SVG 1.1//EN"
 "http://www.w3.org/Graphics/SVG/1.1/DTD/svg11.dtd">
<!-- Generated by graphviz version 2.43.0 (0)
 -->
<!-- Title: UnityEngine.Rendering.ShaderTagId Pages: 1 -->
<svg width="211pt" height="338pt"
 viewBox="0.00 0.00 210.50 338.00" xmlns="http://www.w3.org/2000/svg" xmlns:xlink="http://www.w3.org/1999/xlink">
<g id="graph0" class="graph" transform="scale(1 1) rotate(0) translate(4 334)">
<title>UnityEngine.Rendering.ShaderTagId</title>
<!-- Node1 -->
<g id="Node000001" class="node">
<title>Node1</title>
<g id="a_Node000001"><a xlink:title=" ">
<polygon fill="#999999" stroke="transparent" points="202.5,-138 43.5,-138 43.5,0 202.5,0 202.5,-138"/>
<text text-anchor="start" x="49" y="-126" font-family="Helvetica,sans-Serif" font-size="10.00">UnityEngine.Rendering.Shader</text>
<text text-anchor="start" x="110.5" y="-115" font-family="Helvetica,sans-Serif" font-size="10.00">TagId</text>
<text text-anchor="start" x="121.5" y="-100" font-family="Helvetica,sans-Serif" font-size="10.00"> </text>
<text text-anchor="start" x="49" y="-85" font-family="Helvetica,sans-Serif" font-size="10.00">+</text>
<text text-anchor="start" x="63" y="-85" font-family="Helvetica,sans-Serif" font-size="10.00">ShaderTagId(string</text>
<text text-anchor="start" x="63" y="-74" font-family="Helvetica,sans-Serif" font-size="10.00"> name)</text>
<text text-anchor="start" x="49" y="-59" font-family="Helvetica,sans-Serif" font-size="10.00">+</text>
<text text-anchor="start" x="63" y="-59" font-family="Helvetica,sans-Serif" font-size="10.00">override bool Equals</text>
<text text-anchor="start" x="63" y="-48" font-family="Helvetica,sans-Serif" font-size="10.00">(object obj)</text>
<text text-anchor="start" x="49" y="-33" font-family="Helvetica,sans-Serif" font-size="10.00">+</text>
<text text-anchor="start" x="63" y="-33" font-family="Helvetica,sans-Serif" font-size="10.00">bool Equals(ShaderTagId</text>
<text text-anchor="start" x="63" y="-22" font-family="Helvetica,sans-Serif" font-size="10.00"> other)</text>
<text text-anchor="start" x="49" y="-7" font-family="Helvetica,sans-Serif" font-size="10.00">+</text>
<text text-anchor="start" x="63" y="-7" font-family="Helvetica,sans-Serif" font-size="10.00">override int GetHashCode()</text>
<polygon fill="#666666" stroke="#666666" points="44,-110 44,-110 203,-110 203,-110 44,-110"/>
<polygon fill="#666666" stroke="#666666" points="44,-95 44,-95 203,-95 203,-95 44,-95"/>
<polygon fill="none" stroke="#666666" points="43.5,0 43.5,-138 202.5,-138 202.5,0 43.5,0"/>
</a>
</g>
</g>
<!-- Node2 -->
<g id="Node000002" class="node">
<title>Node2</title>
<g id="a_Node000002"><a xlink:href="../../d6/d43/interfaceSystem_1_1IEquatable.html" target="_top" xlink:title=" ">
<polygon fill="white" stroke="transparent" points="144,-234 0,-234 0,-185 144,-185 144,-234"/>
<text text-anchor="start" x="5" y="-221.5" font-family="Helvetica,sans-Serif" font-size="10.00">IEquatable&lt; ShaderTagId &gt;</text>
<text text-anchor="start" x="70" y="-206.5" font-family="Helvetica,sans-Serif" font-size="10.00"> </text>
<text text-anchor="start" x="10" y="-191.5" font-family="Helvetica,sans-Serif" font-size="10.00">+</text>
<text text-anchor="start" x="29" y="-191.5" font-family="Helvetica,sans-Serif" font-size="10.00">bool Equals(T other)</text>
<polygon fill="#666666" stroke="#666666" points="0,-216.5 0,-216.5 144,-216.5 144,-216.5 0,-216.5"/>
<polygon fill="#666666" stroke="#666666" points="0,-201.5 0,-201.5 144,-201.5 144,-201.5 0,-201.5"/>
<polygon fill="none" stroke="#666666" points="0,-185 0,-234 144,-234 144,-185 0,-185"/>
</a>
</g>
</g>
<!-- Node2&#45;&gt;Node1 -->
<g id="edge1_Node000001_Node000002" class="edge">
<title>Node2&#45;&gt;Node1</title>
<g id="a_edge1_Node000001_Node000002"><a xlink:title=" ">
<path fill="none" stroke="#63b8ff" d="M84.34,-174.98C88.45,-163.82 93.19,-150.96 97.9,-138.15"/>
<polygon fill="none" stroke="#63b8ff" points="80.94,-174.1 80.77,-184.69 87.51,-176.52 80.94,-174.1"/>
</a>
</g>
</g>
<!-- Node3 -->
<g id="Node000003" class="node">
<title>Node3</title>
<g id="a_Node000003"><a xlink:href="../../d6/d43/interfaceSystem_1_1IEquatable.html" target="_top" xlink:title=" ">
<polygon fill="white" stroke="transparent" points="137.5,-330 6.5,-330 6.5,-281 137.5,-281 137.5,-330"/>
<text text-anchor="start" x="12" y="-317.5" font-family="Helvetica,sans-Serif" font-size="10.00">System.IEquatable&lt; T &gt;</text>
<text text-anchor="start" x="70.5" y="-302.5" font-family="Helvetica,sans-Serif" font-size="10.00"> </text>
<text text-anchor="start" x="13.5" y="-287.5" font-family="Helvetica,sans-Serif" font-size="10.00">+</text>
<text text-anchor="start" x="29" y="-287.5" font-family="Helvetica,sans-Serif" font-size="10.00">bool Equals(T other)</text>
<polygon fill="#666666" stroke="#666666" points="7,-312.5 7,-312.5 138,-312.5 138,-312.5 7,-312.5"/>
<polygon fill="#666666" stroke="#666666" points="7,-297.5 7,-297.5 138,-297.5 138,-297.5 7,-297.5"/>
<polygon fill="none" stroke="#666666" points="6.5,-281 6.5,-330 137.5,-330 137.5,-281 6.5,-281"/>
</a>
</g>
</g>
<!-- Node3&#45;&gt;Node2 -->
<g id="edge2_Node000002_Node000003" class="edge">
<title>Node3&#45;&gt;Node2</title>
<g id="a_edge2_Node000002_Node000003"><a xlink:title=" ">
<path fill="none" stroke="orange" d="M72,-270.6C72,-258.54 72,-245.23 72,-234.21"/>
<polygon fill="orange" stroke="orange" points="68.5,-270.78 72,-280.78 75.5,-270.78 68.5,-270.78"/>
</a>
</g>
<text text-anchor="middle" x="114.5" y="-255" font-family="Helvetica,sans-Serif" font-size="10.00" fill="grey"> &lt; ShaderTagId &gt;</text>
</g>
<!-- Node4 -->
<g id="Node000004" class="node">
<title>Node4</title>
<g id="a_Node000004"><a xlink:title=" ">
<polygon fill="white" stroke="transparent" points="185.5,-234 162.5,-234 162.5,-185 185.5,-185 185.5,-234"/>
<text text-anchor="start" x="168" y="-221.5" font-family="Helvetica,sans-Serif" font-size="10.00">int</text>
<text text-anchor="start" x="172.5" y="-206.5" font-family="Helvetica,sans-Serif" font-size="10.00"> </text>
<text text-anchor="start" x="172.5" y="-191.5" font-family="Helvetica,sans-Serif" font-size="10.00"> </text>
<polygon fill="#666666" stroke="#666666" points="163,-216.5 163,-216.5 186,-216.5 186,-216.5 163,-216.5"/>
<polygon fill="#666666" stroke="#666666" points="163,-201.5 163,-201.5 186,-201.5 186,-201.5 163,-201.5"/>
<polygon fill="none" stroke="#666666" points="162.5,-185 162.5,-234 185.5,-234 185.5,-185 162.5,-185"/>
</a>
</g>
</g>
<!-- Node4&#45;&gt;Node1 -->
<g id="edge3_Node000001_Node000004" class="edge">
<title>Node4&#45;&gt;Node1</title>
<g id="a_edge3_Node000001_Node000004"><a xlink:title=" ">
<path fill="none" stroke="#63b8ff" d="M165.23,-184.69C161.53,-174.64 156.99,-162.31 152.27,-149.49"/>
<polygon fill="none" stroke="#63b8ff" points="152.24,-149.41 146.42,-145.17 148.1,-138.15 153.92,-142.4 152.24,-149.41"/>
</a>
</g>
<text text-anchor="middle" x="172.5" y="-159" font-family="Helvetica,sans-Serif" font-size="10.00" fill="grey"> &#45;m_Id</text>
</g>
</g>
</svg>
