<?xml version="1.0" encoding="UTF-8" standalone="no"?>
<!DOCTYPE svg PUBLIC "-//W3C//DTD SVG 1.1//EN"
 "http://www.w3.org/Graphics/SVG/1.1/DTD/svg11.dtd">
<!-- Generated by graphviz version 2.43.0 (0)
 -->
<!-- Title: System.Xml.Linq.ElementWriter Pages: 1 -->
<svg width="501pt" height="773pt"
 viewBox="0.00 0.00 500.50 773.00" xmlns="http://www.w3.org/2000/svg" xmlns:xlink="http://www.w3.org/1999/xlink">
<g id="graph0" class="graph" transform="scale(1 1) rotate(0) translate(4 769)">
<title>System.Xml.Linq.ElementWriter</title>
<!-- Node1 -->
<g id="Node000001" class="node">
<title>Node1</title>
<g id="a_Node000001"><a xlink:title=" ">
<polygon fill="#999999" stroke="transparent" points="300.5,-209 104.5,-209 104.5,0 300.5,0 300.5,-209"/>
<text text-anchor="start" x="124" y="-196.5" font-family="Helvetica,sans-Serif" font-size="10.00">System.Xml.Linq.ElementWriter</text>
<text text-anchor="start" x="200.5" y="-181.5" font-family="Helvetica,sans-Serif" font-size="10.00"> </text>
<text text-anchor="start" x="108.5" y="-166.5" font-family="Helvetica,sans-Serif" font-size="10.00">+</text>
<text text-anchor="start" x="121.5" y="-166.5" font-family="Helvetica,sans-Serif" font-size="10.00">ElementWriter(XmlWriter</text>
<text text-anchor="start" x="121.5" y="-155.5" font-family="Helvetica,sans-Serif" font-size="10.00"> writer)</text>
<text text-anchor="start" x="108.5" y="-140.5" font-family="Helvetica,sans-Serif" font-size="10.00">+</text>
<text text-anchor="start" x="121.5" y="-140.5" font-family="Helvetica,sans-Serif" font-size="10.00">void WriteElement(XElement e)</text>
<text text-anchor="start" x="111" y="-125.5" font-family="Helvetica,sans-Serif" font-size="10.00">&#45;</text>
<text text-anchor="start" x="121.5" y="-125.5" font-family="Helvetica,sans-Serif" font-size="10.00">string GetPrefixOfNamespace</text>
<text text-anchor="start" x="121.5" y="-114.5" font-family="Helvetica,sans-Serif" font-size="10.00">(XNamespace ns, bool allowDefault</text>
<text text-anchor="start" x="121.5" y="-103.5" font-family="Helvetica,sans-Serif" font-size="10.00">Namespace)</text>
<text text-anchor="start" x="111" y="-88.5" font-family="Helvetica,sans-Serif" font-size="10.00">&#45;</text>
<text text-anchor="start" x="121.5" y="-88.5" font-family="Helvetica,sans-Serif" font-size="10.00">void PushAncestors</text>
<text text-anchor="start" x="121.5" y="-77.5" font-family="Helvetica,sans-Serif" font-size="10.00">(XElement e)</text>
<text text-anchor="start" x="111" y="-62.5" font-family="Helvetica,sans-Serif" font-size="10.00">&#45;</text>
<text text-anchor="start" x="121.5" y="-62.5" font-family="Helvetica,sans-Serif" font-size="10.00">void PushElement(XElement e)</text>
<text text-anchor="start" x="111" y="-47.5" font-family="Helvetica,sans-Serif" font-size="10.00">&#45;</text>
<text text-anchor="start" x="121.5" y="-47.5" font-family="Helvetica,sans-Serif" font-size="10.00">void WriteEndElement()</text>
<text text-anchor="start" x="111" y="-32.5" font-family="Helvetica,sans-Serif" font-size="10.00">&#45;</text>
<text text-anchor="start" x="121.5" y="-32.5" font-family="Helvetica,sans-Serif" font-size="10.00">void WriteFullEndElement()</text>
<text text-anchor="start" x="111" y="-17.5" font-family="Helvetica,sans-Serif" font-size="10.00">&#45;</text>
<text text-anchor="start" x="121.5" y="-17.5" font-family="Helvetica,sans-Serif" font-size="10.00">void WriteStartElement</text>
<text text-anchor="start" x="121.5" y="-6.5" font-family="Helvetica,sans-Serif" font-size="10.00">(XElement e)</text>
<polygon fill="#666666" stroke="#666666" points="104.5,-191.5 104.5,-191.5 300.5,-191.5 300.5,-191.5 104.5,-191.5"/>
<polygon fill="#666666" stroke="#666666" points="104.5,-176.5 104.5,-176.5 300.5,-176.5 300.5,-176.5 104.5,-176.5"/>
<polygon fill="none" stroke="#666666" points="104.5,0 104.5,-209 300.5,-209 300.5,0 104.5,0"/>
</a>
</g>
</g>
<!-- Node2 -->
<g id="Node000002" class="node">
<title>Node2</title>
<g id="a_Node000002"><a xlink:href="../../df/d80/classSystem_1_1Xml_1_1XmlWriter.html" target="_top" xlink:title=" ">
<polygon fill="white" stroke="transparent" points="193,-669 0,-669 0,-256 193,-256 193,-669"/>
<text text-anchor="start" x="41" y="-656.5" font-family="Helvetica,sans-Serif" font-size="10.00">System.Xml.XmlWriter</text>
<text text-anchor="start" x="4.5" y="-641.5" font-family="Helvetica,sans-Serif" font-size="10.00">+</text>
<text text-anchor="start" x="17.5" y="-641.5" font-family="Helvetica,sans-Serif" font-size="10.00">WriteState WriteState</text>
<text text-anchor="start" x="4.5" y="-626.5" font-family="Helvetica,sans-Serif" font-size="10.00">+</text>
<text text-anchor="start" x="17.5" y="-626.5" font-family="Helvetica,sans-Serif" font-size="10.00">void WriteStartDocument()</text>
<text text-anchor="start" x="4.5" y="-611.5" font-family="Helvetica,sans-Serif" font-size="10.00">+</text>
<text text-anchor="start" x="17.5" y="-611.5" font-family="Helvetica,sans-Serif" font-size="10.00">void WriteStartDocument</text>
<text text-anchor="start" x="17.5" y="-600.5" font-family="Helvetica,sans-Serif" font-size="10.00">(bool standalone)</text>
<text text-anchor="start" x="4.5" y="-585.5" font-family="Helvetica,sans-Serif" font-size="10.00">+</text>
<text text-anchor="start" x="17.5" y="-585.5" font-family="Helvetica,sans-Serif" font-size="10.00">void WriteEndDocument()</text>
<text text-anchor="start" x="4.5" y="-570.5" font-family="Helvetica,sans-Serif" font-size="10.00">+</text>
<text text-anchor="start" x="17.5" y="-570.5" font-family="Helvetica,sans-Serif" font-size="10.00">void WriteDocType(string</text>
<text text-anchor="start" x="17.5" y="-559.5" font-family="Helvetica,sans-Serif" font-size="10.00"> name, string pubid, string</text>
<text text-anchor="start" x="17.5" y="-548.5" font-family="Helvetica,sans-Serif" font-size="10.00"> sysid, string subset)</text>
<text text-anchor="start" x="4.5" y="-533.5" font-family="Helvetica,sans-Serif" font-size="10.00">+</text>
<text text-anchor="start" x="17.5" y="-533.5" font-family="Helvetica,sans-Serif" font-size="10.00">void WriteStartElement</text>
<text text-anchor="start" x="17.5" y="-522.5" font-family="Helvetica,sans-Serif" font-size="10.00">(string prefix, string</text>
<text text-anchor="start" x="17.5" y="-511.5" font-family="Helvetica,sans-Serif" font-size="10.00"> localName, string ns)</text>
<text text-anchor="start" x="4.5" y="-496.5" font-family="Helvetica,sans-Serif" font-size="10.00">+</text>
<text text-anchor="start" x="17.5" y="-496.5" font-family="Helvetica,sans-Serif" font-size="10.00">void WriteEndElement()</text>
<text text-anchor="start" x="4.5" y="-481.5" font-family="Helvetica,sans-Serif" font-size="10.00">+</text>
<text text-anchor="start" x="17.5" y="-481.5" font-family="Helvetica,sans-Serif" font-size="10.00">void WriteFullEndElement()</text>
<text text-anchor="start" x="4.5" y="-466.5" font-family="Helvetica,sans-Serif" font-size="10.00">+</text>
<text text-anchor="start" x="17.5" y="-466.5" font-family="Helvetica,sans-Serif" font-size="10.00">void WriteAttributeString</text>
<text text-anchor="start" x="17.5" y="-455.5" font-family="Helvetica,sans-Serif" font-size="10.00">(string prefix, string</text>
<text text-anchor="start" x="17.5" y="-444.5" font-family="Helvetica,sans-Serif" font-size="10.00"> localName, string ns, string value)</text>
<text text-anchor="start" x="4.5" y="-429.5" font-family="Helvetica,sans-Serif" font-size="10.00">+</text>
<text text-anchor="start" x="17.5" y="-429.5" font-family="Helvetica,sans-Serif" font-size="10.00">void WriteStartAttribute</text>
<text text-anchor="start" x="17.5" y="-418.5" font-family="Helvetica,sans-Serif" font-size="10.00">(string prefix, string</text>
<text text-anchor="start" x="17.5" y="-407.5" font-family="Helvetica,sans-Serif" font-size="10.00"> localName, string ns)</text>
<text text-anchor="start" x="4.5" y="-392.5" font-family="Helvetica,sans-Serif" font-size="10.00">+</text>
<text text-anchor="start" x="17.5" y="-392.5" font-family="Helvetica,sans-Serif" font-size="10.00">void WriteEndAttribute()</text>
<text text-anchor="start" x="17.5" y="-377.5" font-family="Helvetica,sans-Serif" font-size="10.00">and 18 more...</text>
<text text-anchor="start" x="4.5" y="-362.5" font-family="Helvetica,sans-Serif" font-size="10.00">+</text>
<text text-anchor="start" x="17.5" y="-362.5" font-family="Helvetica,sans-Serif" font-size="10.00">static XmlWriter Create</text>
<text text-anchor="start" x="17.5" y="-351.5" font-family="Helvetica,sans-Serif" font-size="10.00">(Stream output, XmlWriterSettings</text>
<text text-anchor="start" x="17.5" y="-340.5" font-family="Helvetica,sans-Serif" font-size="10.00"> settings)</text>
<text text-anchor="start" x="4.5" y="-325.5" font-family="Helvetica,sans-Serif" font-size="10.00">+</text>
<text text-anchor="start" x="17.5" y="-325.5" font-family="Helvetica,sans-Serif" font-size="10.00">static XmlWriter Create</text>
<text text-anchor="start" x="17.5" y="-314.5" font-family="Helvetica,sans-Serif" font-size="10.00">(TextWriter output, XmlWriter</text>
<text text-anchor="start" x="17.5" y="-303.5" font-family="Helvetica,sans-Serif" font-size="10.00">Settings settings)</text>
<text text-anchor="start" x="4.5" y="-288.5" font-family="Helvetica,sans-Serif" font-size="10.00">#</text>
<text text-anchor="start" x="17.5" y="-288.5" font-family="Helvetica,sans-Serif" font-size="10.00">virtual void Dispose</text>
<text text-anchor="start" x="17.5" y="-277.5" font-family="Helvetica,sans-Serif" font-size="10.00">(bool disposing)</text>
<text text-anchor="start" x="4.5" y="-262.5" font-family="Helvetica,sans-Serif" font-size="10.00">#</text>
<text text-anchor="start" x="17.5" y="-262.5" font-family="Helvetica,sans-Serif" font-size="10.00">XmlWriter()</text>
<polygon fill="#666666" stroke="#666666" points="0.5,-651.5 0.5,-651.5 193.5,-651.5 193.5,-651.5 0.5,-651.5"/>
<polygon fill="#666666" stroke="#666666" points="0.5,-636.5 0.5,-636.5 15.5,-636.5 15.5,-636.5 0.5,-636.5"/>
<polygon fill="#666666" stroke="#666666" points="15.5,-636.5 15.5,-636.5 193.5,-636.5 193.5,-636.5 15.5,-636.5"/>
<polygon fill="none" stroke="#666666" points="0,-256 0,-669 193,-669 193,-256 0,-256"/>
</a>
</g>
</g>
<!-- Node2&#45;&gt;Node1 -->
<g id="edge1_Node000001_Node000002" class="edge">
<title>Node2&#45;&gt;Node1</title>
<g id="a_edge1_Node000001_Node000002"><a xlink:title=" ">
<path fill="none" stroke="#63b8ff" d="M157.7,-255.96C161.24,-244.06 164.74,-232.33 168.11,-220.99"/>
<polygon fill="none" stroke="#63b8ff" points="168.16,-220.82 166.04,-213.92 171.59,-209.31 173.71,-216.21 168.16,-220.82"/>
</a>
</g>
<text text-anchor="middle" x="186" y="-230" font-family="Helvetica,sans-Serif" font-size="10.00" fill="grey"> &#45;_writer</text>
</g>
<!-- Node3 -->
<g id="Node000003" class="node">
<title>Node3</title>
<g id="a_Node000003"><a xlink:href="../../d6/d32/interfaceSystem_1_1IDisposable.html" target="_top" xlink:title=" ">
<polygon fill="white" stroke="transparent" points="142.5,-765 50.5,-765 50.5,-716 142.5,-716 142.5,-765"/>
<text text-anchor="start" x="67.5" y="-752.5" font-family="Helvetica,sans-Serif" font-size="10.00">IDisposable</text>
<text text-anchor="start" x="94.5" y="-737.5" font-family="Helvetica,sans-Serif" font-size="10.00"> </text>
<text text-anchor="start" x="54.5" y="-722.5" font-family="Helvetica,sans-Serif" font-size="10.00">+</text>
<text text-anchor="start" x="67.5" y="-722.5" font-family="Helvetica,sans-Serif" font-size="10.00">void Dispose()</text>
<polygon fill="#666666" stroke="#666666" points="50.5,-747.5 50.5,-747.5 142.5,-747.5 142.5,-747.5 50.5,-747.5"/>
<polygon fill="#666666" stroke="#666666" points="50.5,-732.5 50.5,-732.5 142.5,-732.5 142.5,-732.5 50.5,-732.5"/>
<polygon fill="none" stroke="#666666" points="50.5,-716 50.5,-765 142.5,-765 142.5,-716 50.5,-716"/>
</a>
</g>
</g>
<!-- Node3&#45;&gt;Node2 -->
<g id="edge2_Node000002_Node000003" class="edge">
<title>Node3&#45;&gt;Node2</title>
<g id="a_edge2_Node000002_Node000003"><a xlink:title=" ">
<path fill="none" stroke="#63b8ff" d="M96.5,-705.72C96.5,-695.19 96.5,-682.71 96.5,-669.06"/>
<polygon fill="none" stroke="#63b8ff" points="93,-705.97 96.5,-715.97 100,-705.97 93,-705.97"/>
</a>
</g>
</g>
<!-- Node4 -->
<g id="Node000004" class="node">
<title>Node4</title>
<g id="a_Node000004"><a xlink:href="../../d3/de6/structSystem_1_1Xml_1_1Linq_1_1NamespaceResolver.html" target="_top" xlink:title=" ">
<polygon fill="white" stroke="transparent" points="407.5,-544.5 211.5,-544.5 211.5,-380.5 407.5,-380.5 407.5,-544.5"/>
<text text-anchor="start" x="237.5" y="-532.5" font-family="Helvetica,sans-Serif" font-size="10.00">System.Xml.Linq.Namespace</text>
<text text-anchor="start" x="288" y="-521.5" font-family="Helvetica,sans-Serif" font-size="10.00">Resolver</text>
<text text-anchor="start" x="307.5" y="-506.5" font-family="Helvetica,sans-Serif" font-size="10.00"> </text>
<text text-anchor="start" x="215.5" y="-491.5" font-family="Helvetica,sans-Serif" font-size="10.00">+</text>
<text text-anchor="start" x="228.5" y="-491.5" font-family="Helvetica,sans-Serif" font-size="10.00">void PushScope()</text>
<text text-anchor="start" x="215.5" y="-476.5" font-family="Helvetica,sans-Serif" font-size="10.00">+</text>
<text text-anchor="start" x="228.5" y="-476.5" font-family="Helvetica,sans-Serif" font-size="10.00">void PopScope()</text>
<text text-anchor="start" x="215.5" y="-461.5" font-family="Helvetica,sans-Serif" font-size="10.00">+</text>
<text text-anchor="start" x="228.5" y="-461.5" font-family="Helvetica,sans-Serif" font-size="10.00">void Add(string prefix,</text>
<text text-anchor="start" x="228.5" y="-450.5" font-family="Helvetica,sans-Serif" font-size="10.00"> XNamespace ns)</text>
<text text-anchor="start" x="215.5" y="-435.5" font-family="Helvetica,sans-Serif" font-size="10.00">+</text>
<text text-anchor="start" x="228.5" y="-435.5" font-family="Helvetica,sans-Serif" font-size="10.00">void AddFirst(string</text>
<text text-anchor="start" x="228.5" y="-424.5" font-family="Helvetica,sans-Serif" font-size="10.00"> prefix, XNamespace ns)</text>
<text text-anchor="start" x="215.5" y="-409.5" font-family="Helvetica,sans-Serif" font-size="10.00">+</text>
<text text-anchor="start" x="228.5" y="-409.5" font-family="Helvetica,sans-Serif" font-size="10.00">string GetPrefixOfNamespace</text>
<text text-anchor="start" x="228.5" y="-398.5" font-family="Helvetica,sans-Serif" font-size="10.00">(XNamespace ns, bool allowDefault</text>
<text text-anchor="start" x="228.5" y="-387.5" font-family="Helvetica,sans-Serif" font-size="10.00">Namespace)</text>
<polygon fill="#666666" stroke="#666666" points="211.5,-516.5 211.5,-516.5 407.5,-516.5 407.5,-516.5 211.5,-516.5"/>
<polygon fill="#666666" stroke="#666666" points="211.5,-501.5 211.5,-501.5 407.5,-501.5 407.5,-501.5 211.5,-501.5"/>
<polygon fill="none" stroke="#666666" points="211.5,-380.5 211.5,-544.5 407.5,-544.5 407.5,-380.5 211.5,-380.5"/>
</a>
</g>
</g>
<!-- Node4&#45;&gt;Node1 -->
<g id="edge3_Node000001_Node000004" class="edge">
<title>Node4&#45;&gt;Node1</title>
<g id="a_edge3_Node000001_Node000004"><a xlink:title=" ">
<path fill="none" stroke="#63b8ff" d="M285.09,-380.27C270.89,-333.05 252.78,-272.78 237.13,-220.72"/>
<polygon fill="none" stroke="#63b8ff" points="237.08,-220.55 231.52,-215.96 233.63,-209.06 239.18,-213.66 237.08,-220.55"/>
</a>
</g>
<text text-anchor="middle" x="266.5" y="-230" font-family="Helvetica,sans-Serif" font-size="10.00" fill="grey"> &#45;_resolver</text>
</g>
<!-- Node4&#45;&gt;Node4 -->
<g id="edge5_Node000004_Node000004" class="edge">
<title>Node4&#45;&gt;Node4</title>
<g id="a_edge5_Node000004_Node000004"><a xlink:title=" ">
<path fill="none" stroke="#63b8ff" d="M407.67,-498.78C418.5,-491.89 425.5,-479.79 425.5,-462.5 425.5,-450.88 422.34,-441.61 416.98,-434.68"/>
<polygon fill="none" stroke="#63b8ff" points="416.55,-434.29 409.42,-433.22 407.67,-426.22 414.8,-427.3 416.55,-434.29"/>
</a>
</g>
<text text-anchor="middle" x="459" y="-465.5" font-family="Helvetica,sans-Serif" font-size="10.00" fill="grey"> &#45;_declaration</text>
<text text-anchor="middle" x="459" y="-454.5" font-family="Helvetica,sans-Serif" font-size="10.00" fill="grey">&#45;_rover</text>
</g>
<!-- Node5 -->
<g id="Node000005" class="node">
<title>Node5</title>
<g id="a_Node000005"><a xlink:title=" ">
<polygon fill="white" stroke="transparent" points="321,-765 298,-765 298,-716 321,-716 321,-765"/>
<text text-anchor="start" x="303.5" y="-752.5" font-family="Helvetica,sans-Serif" font-size="10.00">int</text>
<text text-anchor="start" x="308" y="-737.5" font-family="Helvetica,sans-Serif" font-size="10.00"> </text>
<text text-anchor="start" x="308" y="-722.5" font-family="Helvetica,sans-Serif" font-size="10.00"> </text>
<polygon fill="#666666" stroke="#666666" points="298.5,-747.5 298.5,-747.5 321.5,-747.5 321.5,-747.5 298.5,-747.5"/>
<polygon fill="#666666" stroke="#666666" points="298.5,-732.5 298.5,-732.5 321.5,-732.5 321.5,-732.5 298.5,-732.5"/>
<polygon fill="none" stroke="#666666" points="298,-716 298,-765 321,-765 321,-716 298,-716"/>
</a>
</g>
</g>
<!-- Node5&#45;&gt;Node4 -->
<g id="edge4_Node000004_Node000005" class="edge">
<title>Node5&#45;&gt;Node4</title>
<g id="a_edge4_Node000004_Node000005"><a xlink:title=" ">
<path fill="none" stroke="#63b8ff" d="M309.5,-715.97C309.5,-680.99 309.5,-613.34 309.5,-556.86"/>
<polygon fill="none" stroke="#63b8ff" points="309.5,-556.63 305.5,-550.63 309.5,-544.63 313.5,-550.63 309.5,-556.63"/>
</a>
</g>
<text text-anchor="middle" x="330" y="-690" font-family="Helvetica,sans-Serif" font-size="10.00" fill="grey"> &#45;_scope</text>
</g>
</g>
</svg>
