<?xml version="1.0" encoding="UTF-8" standalone="no"?>
<!DOCTYPE svg PUBLIC "-//W3C//DTD SVG 1.1//EN"
 "http://www.w3.org/Graphics/SVG/1.1/DTD/svg11.dtd">
<!-- Generated by graphviz version 2.43.0 (0)
 -->
<!-- Title: System.Collections.SortedList.SyncSortedList Pages: 1 -->
<svg width="973pt" height="2175pt"
 viewBox="0.00 0.00 973.22 2175.00" xmlns="http://www.w3.org/2000/svg" xmlns:xlink="http://www.w3.org/1999/xlink">
<g id="graph0" class="graph" transform="scale(1 1) rotate(0) translate(4 2171)">
<title>System.Collections.SortedList.SyncSortedList</title>
<!-- Node1 -->
<g id="Node000001" class="node">
<title>Node1</title>
<g id="a_Node000001"><a xlink:title=" ">
<polygon fill="#999999" stroke="transparent" points="875.72,-514 700.72,-514 700.72,0 875.72,0 875.72,-514"/>
<text text-anchor="start" x="724.22" y="-502" font-family="Helvetica,sans-Serif" font-size="10.00">System.Collections.Sorted</text>
<text text-anchor="start" x="742.22" y="-491" font-family="Helvetica,sans-Serif" font-size="10.00">List.SyncSortedList</text>
<text text-anchor="start" x="705.22" y="-476" font-family="Helvetica,sans-Serif" font-size="10.00">+</text>
<text text-anchor="start" x="718.22" y="-476" font-family="Helvetica,sans-Serif" font-size="10.00">override int Count</text>
<text text-anchor="start" x="705.22" y="-461" font-family="Helvetica,sans-Serif" font-size="10.00">+</text>
<text text-anchor="start" x="718.22" y="-461" font-family="Helvetica,sans-Serif" font-size="10.00">override object SyncRoot</text>
<text text-anchor="start" x="705.22" y="-446" font-family="Helvetica,sans-Serif" font-size="10.00">+</text>
<text text-anchor="start" x="718.22" y="-446" font-family="Helvetica,sans-Serif" font-size="10.00">override bool IsReadOnly</text>
<text text-anchor="start" x="705.22" y="-431" font-family="Helvetica,sans-Serif" font-size="10.00">+</text>
<text text-anchor="start" x="718.22" y="-431" font-family="Helvetica,sans-Serif" font-size="10.00">override bool IsFixedSize</text>
<text text-anchor="start" x="705.22" y="-416" font-family="Helvetica,sans-Serif" font-size="10.00">+</text>
<text text-anchor="start" x="718.22" y="-416" font-family="Helvetica,sans-Serif" font-size="10.00">override bool IsSynchronized</text>
<text text-anchor="start" x="705.22" y="-401" font-family="Helvetica,sans-Serif" font-size="10.00">+</text>
<text text-anchor="start" x="718.22" y="-401" font-family="Helvetica,sans-Serif" font-size="10.00">override object this</text>
<text text-anchor="start" x="718.22" y="-390" font-family="Helvetica,sans-Serif" font-size="10.00">[object key]</text>
<text text-anchor="start" x="705.22" y="-375" font-family="Helvetica,sans-Serif" font-size="10.00">+</text>
<text text-anchor="start" x="718.22" y="-375" font-family="Helvetica,sans-Serif" font-size="10.00">override void Add(object</text>
<text text-anchor="start" x="718.22" y="-364" font-family="Helvetica,sans-Serif" font-size="10.00"> key, object value)</text>
<text text-anchor="start" x="705.22" y="-349" font-family="Helvetica,sans-Serif" font-size="10.00">+</text>
<text text-anchor="start" x="718.22" y="-349" font-family="Helvetica,sans-Serif" font-size="10.00">override void Clear()</text>
<text text-anchor="start" x="705.22" y="-334" font-family="Helvetica,sans-Serif" font-size="10.00">+</text>
<text text-anchor="start" x="718.22" y="-334" font-family="Helvetica,sans-Serif" font-size="10.00">override object Clone()</text>
<text text-anchor="start" x="705.22" y="-319" font-family="Helvetica,sans-Serif" font-size="10.00">+</text>
<text text-anchor="start" x="718.22" y="-319" font-family="Helvetica,sans-Serif" font-size="10.00">override bool Contains</text>
<text text-anchor="start" x="718.22" y="-308" font-family="Helvetica,sans-Serif" font-size="10.00">(object key)</text>
<text text-anchor="start" x="705.22" y="-293" font-family="Helvetica,sans-Serif" font-size="10.00">+</text>
<text text-anchor="start" x="718.22" y="-293" font-family="Helvetica,sans-Serif" font-size="10.00">override bool ContainsValue</text>
<text text-anchor="start" x="718.22" y="-282" font-family="Helvetica,sans-Serif" font-size="10.00">(object key)</text>
<text text-anchor="start" x="705.22" y="-267" font-family="Helvetica,sans-Serif" font-size="10.00">+</text>
<text text-anchor="start" x="718.22" y="-267" font-family="Helvetica,sans-Serif" font-size="10.00">override void CopyTo</text>
<text text-anchor="start" x="718.22" y="-256" font-family="Helvetica,sans-Serif" font-size="10.00">(global::System.Array</text>
<text text-anchor="start" x="718.22" y="-245" font-family="Helvetica,sans-Serif" font-size="10.00"> array, int index)</text>
<text text-anchor="start" x="705.22" y="-230" font-family="Helvetica,sans-Serif" font-size="10.00">+</text>
<text text-anchor="start" x="718.22" y="-230" font-family="Helvetica,sans-Serif" font-size="10.00">override object GetByIndex</text>
<text text-anchor="start" x="718.22" y="-219" font-family="Helvetica,sans-Serif" font-size="10.00">(int index)</text>
<text text-anchor="start" x="705.22" y="-204" font-family="Helvetica,sans-Serif" font-size="10.00">+</text>
<text text-anchor="start" x="718.22" y="-204" font-family="Helvetica,sans-Serif" font-size="10.00">override IDictionaryEnumerator</text>
<text text-anchor="start" x="718.22" y="-193" font-family="Helvetica,sans-Serif" font-size="10.00"> GetEnumerator()</text>
<text text-anchor="start" x="705.22" y="-178" font-family="Helvetica,sans-Serif" font-size="10.00">+</text>
<text text-anchor="start" x="718.22" y="-178" font-family="Helvetica,sans-Serif" font-size="10.00">override object GetKey</text>
<text text-anchor="start" x="718.22" y="-167" font-family="Helvetica,sans-Serif" font-size="10.00">(int index)</text>
<text text-anchor="start" x="705.22" y="-152" font-family="Helvetica,sans-Serif" font-size="10.00">+</text>
<text text-anchor="start" x="718.22" y="-152" font-family="Helvetica,sans-Serif" font-size="10.00">override IList GetKeyList()</text>
<text text-anchor="start" x="705.22" y="-137" font-family="Helvetica,sans-Serif" font-size="10.00">+</text>
<text text-anchor="start" x="718.22" y="-137" font-family="Helvetica,sans-Serif" font-size="10.00">override IList GetValueList()</text>
<text text-anchor="start" x="705.22" y="-122" font-family="Helvetica,sans-Serif" font-size="10.00">+</text>
<text text-anchor="start" x="718.22" y="-122" font-family="Helvetica,sans-Serif" font-size="10.00">override int IndexOfKey</text>
<text text-anchor="start" x="718.22" y="-111" font-family="Helvetica,sans-Serif" font-size="10.00">(object key)</text>
<text text-anchor="start" x="705.22" y="-96" font-family="Helvetica,sans-Serif" font-size="10.00">+</text>
<text text-anchor="start" x="718.22" y="-96" font-family="Helvetica,sans-Serif" font-size="10.00">override int IndexOfValue</text>
<text text-anchor="start" x="718.22" y="-85" font-family="Helvetica,sans-Serif" font-size="10.00">(object value)</text>
<text text-anchor="start" x="705.22" y="-70" font-family="Helvetica,sans-Serif" font-size="10.00">+</text>
<text text-anchor="start" x="718.22" y="-70" font-family="Helvetica,sans-Serif" font-size="10.00">override void RemoveAt</text>
<text text-anchor="start" x="718.22" y="-59" font-family="Helvetica,sans-Serif" font-size="10.00">(int index)</text>
<text text-anchor="start" x="705.22" y="-44" font-family="Helvetica,sans-Serif" font-size="10.00">+</text>
<text text-anchor="start" x="718.22" y="-44" font-family="Helvetica,sans-Serif" font-size="10.00">override void Remove</text>
<text text-anchor="start" x="718.22" y="-33" font-family="Helvetica,sans-Serif" font-size="10.00">(object key)</text>
<text text-anchor="start" x="705.22" y="-18" font-family="Helvetica,sans-Serif" font-size="10.00">~</text>
<text text-anchor="start" x="718.22" y="-18" font-family="Helvetica,sans-Serif" font-size="10.00">SyncSortedList(SortedList</text>
<text text-anchor="start" x="718.22" y="-7" font-family="Helvetica,sans-Serif" font-size="10.00"> list)</text>
<polygon fill="#666666" stroke="#666666" points="701.22,-486 701.22,-486 876.22,-486 876.22,-486 701.22,-486"/>
<polygon fill="#666666" stroke="#666666" points="701.22,-385 701.22,-385 716.22,-385 716.22,-385 701.22,-385"/>
<polygon fill="#666666" stroke="#666666" points="716.22,-385 716.22,-385 876.22,-385 876.22,-385 716.22,-385"/>
<polygon fill="none" stroke="#666666" points="700.72,0 700.72,-514 875.72,-514 875.72,0 700.72,0"/>
</a>
</g>
</g>
<!-- Node2 -->
<g id="Node000002" class="node">
<title>Node2</title>
<g id="a_Node000002"><a xlink:href="../../d3/dab/classSystem_1_1Collections_1_1SortedList.html" target="_top" xlink:title=" ">
<polygon fill="white" stroke="transparent" points="541.72,-1088 360.72,-1088 360.72,-551 541.72,-551 541.72,-1088"/>
<text text-anchor="start" x="427.22" y="-1075.5" font-family="Helvetica,sans-Serif" font-size="10.00">SortedList</text>
<text text-anchor="start" x="365.22" y="-1060.5" font-family="Helvetica,sans-Serif" font-size="10.00">+</text>
<text text-anchor="start" x="378.22" y="-1060.5" font-family="Helvetica,sans-Serif" font-size="10.00">virtual int Capacity</text>
<text text-anchor="start" x="365.22" y="-1045.5" font-family="Helvetica,sans-Serif" font-size="10.00">+</text>
<text text-anchor="start" x="378.22" y="-1045.5" font-family="Helvetica,sans-Serif" font-size="10.00">virtual int Count</text>
<text text-anchor="start" x="365.22" y="-1030.5" font-family="Helvetica,sans-Serif" font-size="10.00">+</text>
<text text-anchor="start" x="378.22" y="-1030.5" font-family="Helvetica,sans-Serif" font-size="10.00">virtual ICollection Keys</text>
<text text-anchor="start" x="365.22" y="-1015.5" font-family="Helvetica,sans-Serif" font-size="10.00">+</text>
<text text-anchor="start" x="378.22" y="-1015.5" font-family="Helvetica,sans-Serif" font-size="10.00">virtual ICollection</text>
<text text-anchor="start" x="378.22" y="-1004.5" font-family="Helvetica,sans-Serif" font-size="10.00"> Values</text>
<text text-anchor="start" x="365.22" y="-989.5" font-family="Helvetica,sans-Serif" font-size="10.00">+</text>
<text text-anchor="start" x="378.22" y="-989.5" font-family="Helvetica,sans-Serif" font-size="10.00">virtual bool IsReadOnly</text>
<text text-anchor="start" x="365.22" y="-974.5" font-family="Helvetica,sans-Serif" font-size="10.00">+</text>
<text text-anchor="start" x="378.22" y="-974.5" font-family="Helvetica,sans-Serif" font-size="10.00">virtual bool IsFixedSize</text>
<text text-anchor="start" x="365.22" y="-959.5" font-family="Helvetica,sans-Serif" font-size="10.00">+</text>
<text text-anchor="start" x="378.22" y="-959.5" font-family="Helvetica,sans-Serif" font-size="10.00">virtual bool IsSynchronized</text>
<text text-anchor="start" x="365.22" y="-944.5" font-family="Helvetica,sans-Serif" font-size="10.00">+</text>
<text text-anchor="start" x="378.22" y="-944.5" font-family="Helvetica,sans-Serif" font-size="10.00">virtual object SyncRoot</text>
<text text-anchor="start" x="365.22" y="-929.5" font-family="Helvetica,sans-Serif" font-size="10.00">+</text>
<text text-anchor="start" x="378.22" y="-929.5" font-family="Helvetica,sans-Serif" font-size="10.00">virtual object this</text>
<text text-anchor="start" x="378.22" y="-918.5" font-family="Helvetica,sans-Serif" font-size="10.00">[object key]</text>
<text text-anchor="start" x="365.22" y="-903.5" font-family="Helvetica,sans-Serif" font-size="10.00">+</text>
<text text-anchor="start" x="378.22" y="-903.5" font-family="Helvetica,sans-Serif" font-size="10.00">SortedList()</text>
<text text-anchor="start" x="365.22" y="-888.5" font-family="Helvetica,sans-Serif" font-size="10.00">+</text>
<text text-anchor="start" x="378.22" y="-888.5" font-family="Helvetica,sans-Serif" font-size="10.00">SortedList(int initialCapacity)</text>
<text text-anchor="start" x="365.22" y="-873.5" font-family="Helvetica,sans-Serif" font-size="10.00">+</text>
<text text-anchor="start" x="378.22" y="-873.5" font-family="Helvetica,sans-Serif" font-size="10.00">SortedList(IComparer</text>
<text text-anchor="start" x="378.22" y="-862.5" font-family="Helvetica,sans-Serif" font-size="10.00"> comparer)</text>
<text text-anchor="start" x="365.22" y="-847.5" font-family="Helvetica,sans-Serif" font-size="10.00">+</text>
<text text-anchor="start" x="378.22" y="-847.5" font-family="Helvetica,sans-Serif" font-size="10.00">virtual void Add(object</text>
<text text-anchor="start" x="378.22" y="-836.5" font-family="Helvetica,sans-Serif" font-size="10.00"> key, object value)</text>
<text text-anchor="start" x="365.22" y="-821.5" font-family="Helvetica,sans-Serif" font-size="10.00">+</text>
<text text-anchor="start" x="378.22" y="-821.5" font-family="Helvetica,sans-Serif" font-size="10.00">virtual void Clear()</text>
<text text-anchor="start" x="365.22" y="-806.5" font-family="Helvetica,sans-Serif" font-size="10.00">+</text>
<text text-anchor="start" x="378.22" y="-806.5" font-family="Helvetica,sans-Serif" font-size="10.00">virtual object Clone()</text>
<text text-anchor="start" x="365.22" y="-791.5" font-family="Helvetica,sans-Serif" font-size="10.00">+</text>
<text text-anchor="start" x="378.22" y="-791.5" font-family="Helvetica,sans-Serif" font-size="10.00">virtual bool Contains</text>
<text text-anchor="start" x="378.22" y="-780.5" font-family="Helvetica,sans-Serif" font-size="10.00">(object key)</text>
<text text-anchor="start" x="365.22" y="-765.5" font-family="Helvetica,sans-Serif" font-size="10.00">+</text>
<text text-anchor="start" x="378.22" y="-765.5" font-family="Helvetica,sans-Serif" font-size="10.00">virtual bool ContainsValue</text>
<text text-anchor="start" x="378.22" y="-754.5" font-family="Helvetica,sans-Serif" font-size="10.00">(object value)</text>
<text text-anchor="start" x="365.22" y="-739.5" font-family="Helvetica,sans-Serif" font-size="10.00">+</text>
<text text-anchor="start" x="378.22" y="-739.5" font-family="Helvetica,sans-Serif" font-size="10.00">virtual void CopyTo</text>
<text text-anchor="start" x="378.22" y="-728.5" font-family="Helvetica,sans-Serif" font-size="10.00">(global::System.Array</text>
<text text-anchor="start" x="378.22" y="-717.5" font-family="Helvetica,sans-Serif" font-size="10.00"> array, int arrayIndex)</text>
<text text-anchor="start" x="365.22" y="-702.5" font-family="Helvetica,sans-Serif" font-size="10.00">+</text>
<text text-anchor="start" x="378.22" y="-702.5" font-family="Helvetica,sans-Serif" font-size="10.00">virtual object GetByIndex</text>
<text text-anchor="start" x="378.22" y="-691.5" font-family="Helvetica,sans-Serif" font-size="10.00">(int index)</text>
<text text-anchor="start" x="378.22" y="-676.5" font-family="Helvetica,sans-Serif" font-size="10.00">and 8 more...</text>
<text text-anchor="start" x="365.22" y="-661.5" font-family="Helvetica,sans-Serif" font-size="10.00">+</text>
<text text-anchor="start" x="378.22" y="-661.5" font-family="Helvetica,sans-Serif" font-size="10.00">static SortedList Synchronized</text>
<text text-anchor="start" x="378.22" y="-650.5" font-family="Helvetica,sans-Serif" font-size="10.00">(SortedList list)</text>
<text text-anchor="start" x="367.72" y="-635.5" font-family="Helvetica,sans-Serif" font-size="10.00">&#45;</text>
<text text-anchor="start" x="378.22" y="-635.5" font-family="Helvetica,sans-Serif" font-size="10.00">void Init()</text>
<text text-anchor="start" x="367.72" y="-620.5" font-family="Helvetica,sans-Serif" font-size="10.00">&#45;</text>
<text text-anchor="start" x="378.22" y="-620.5" font-family="Helvetica,sans-Serif" font-size="10.00">void EnsureCapacity</text>
<text text-anchor="start" x="378.22" y="-609.5" font-family="Helvetica,sans-Serif" font-size="10.00">(int min)</text>
<text text-anchor="start" x="367.72" y="-594.5" font-family="Helvetica,sans-Serif" font-size="10.00">&#45;</text>
<text text-anchor="start" x="378.22" y="-594.5" font-family="Helvetica,sans-Serif" font-size="10.00">IEnumerator System.Collections.</text>
<text text-anchor="start" x="378.22" y="-583.5" font-family="Helvetica,sans-Serif" font-size="10.00">IEnumerable. GetEnumerator()</text>
<text text-anchor="start" x="367.72" y="-568.5" font-family="Helvetica,sans-Serif" font-size="10.00">&#45;</text>
<text text-anchor="start" x="378.22" y="-568.5" font-family="Helvetica,sans-Serif" font-size="10.00">void Insert(int index,</text>
<text text-anchor="start" x="378.22" y="-557.5" font-family="Helvetica,sans-Serif" font-size="10.00"> object key, object value)</text>
<polygon fill="#666666" stroke="#666666" points="361.22,-1070.5 361.22,-1070.5 542.22,-1070.5 542.22,-1070.5 361.22,-1070.5"/>
<polygon fill="#666666" stroke="#666666" points="361.22,-913.5 361.22,-913.5 376.22,-913.5 376.22,-913.5 361.22,-913.5"/>
<polygon fill="#666666" stroke="#666666" points="376.22,-913.5 376.22,-913.5 542.22,-913.5 542.22,-913.5 376.22,-913.5"/>
<polygon fill="none" stroke="#666666" points="360.72,-551 360.72,-1088 541.72,-1088 541.72,-551 360.72,-551"/>
</a>
</g>
</g>
<!-- Node2&#45;&gt;Node1 -->
<g id="edge1_Node000001_Node000002" class="edge">
<title>Node2&#45;&gt;Node1</title>
<g id="a_edge1_Node000001_Node000002"><a xlink:title=" ">
<path fill="none" stroke="#63b8ff" d="M547,-659.21C595.33,-578.81 653.55,-481.98 700.69,-403.59"/>
<polygon fill="none" stroke="#63b8ff" points="543.91,-657.55 541.75,-667.93 549.91,-661.16 543.91,-657.55"/>
</a>
</g>
</g>
<!-- Node3 -->
<g id="Node000003" class="node">
<title>Node3</title>
<g id="a_Node000003"><a xlink:href="../../d7/d23/interfaceSystem_1_1Collections_1_1IDictionary.html" target="_top" xlink:title=" ">
<polygon fill="white" stroke="transparent" points="212.22,-1943 66.22,-1943 66.22,-1752 212.22,-1752 212.22,-1943"/>
<text text-anchor="start" x="112.22" y="-1930.5" font-family="Helvetica,sans-Serif" font-size="10.00">IDictionary</text>
<text text-anchor="start" x="70.22" y="-1915.5" font-family="Helvetica,sans-Serif" font-size="10.00">+</text>
<text text-anchor="start" x="83.22" y="-1915.5" font-family="Helvetica,sans-Serif" font-size="10.00">object this[object key]</text>
<text text-anchor="start" x="70.22" y="-1900.5" font-family="Helvetica,sans-Serif" font-size="10.00">+</text>
<text text-anchor="start" x="83.22" y="-1900.5" font-family="Helvetica,sans-Serif" font-size="10.00">ICollection Keys</text>
<text text-anchor="start" x="70.22" y="-1885.5" font-family="Helvetica,sans-Serif" font-size="10.00">+</text>
<text text-anchor="start" x="83.22" y="-1885.5" font-family="Helvetica,sans-Serif" font-size="10.00">ICollection Values</text>
<text text-anchor="start" x="70.22" y="-1870.5" font-family="Helvetica,sans-Serif" font-size="10.00">+</text>
<text text-anchor="start" x="83.22" y="-1870.5" font-family="Helvetica,sans-Serif" font-size="10.00">bool IsReadOnly</text>
<text text-anchor="start" x="70.22" y="-1855.5" font-family="Helvetica,sans-Serif" font-size="10.00">+</text>
<text text-anchor="start" x="83.22" y="-1855.5" font-family="Helvetica,sans-Serif" font-size="10.00">bool IsFixedSize</text>
<text text-anchor="start" x="70.22" y="-1840.5" font-family="Helvetica,sans-Serif" font-size="10.00">+</text>
<text text-anchor="start" x="83.22" y="-1840.5" font-family="Helvetica,sans-Serif" font-size="10.00">bool Contains(object key)</text>
<text text-anchor="start" x="70.22" y="-1825.5" font-family="Helvetica,sans-Serif" font-size="10.00">+</text>
<text text-anchor="start" x="83.22" y="-1825.5" font-family="Helvetica,sans-Serif" font-size="10.00">void Add(object key,</text>
<text text-anchor="start" x="83.22" y="-1814.5" font-family="Helvetica,sans-Serif" font-size="10.00"> object value)</text>
<text text-anchor="start" x="70.22" y="-1799.5" font-family="Helvetica,sans-Serif" font-size="10.00">+</text>
<text text-anchor="start" x="83.22" y="-1799.5" font-family="Helvetica,sans-Serif" font-size="10.00">void Clear()</text>
<text text-anchor="start" x="70.22" y="-1784.5" font-family="Helvetica,sans-Serif" font-size="10.00">+</text>
<text text-anchor="start" x="83.22" y="-1784.5" font-family="Helvetica,sans-Serif" font-size="10.00">IDictionaryEnumerator</text>
<text text-anchor="start" x="83.22" y="-1773.5" font-family="Helvetica,sans-Serif" font-size="10.00"> GetEnumerator()</text>
<text text-anchor="start" x="70.22" y="-1758.5" font-family="Helvetica,sans-Serif" font-size="10.00">+</text>
<text text-anchor="start" x="83.22" y="-1758.5" font-family="Helvetica,sans-Serif" font-size="10.00">void Remove(object key)</text>
<polygon fill="#666666" stroke="#666666" points="66.22,-1925.5 66.22,-1925.5 212.22,-1925.5 212.22,-1925.5 66.22,-1925.5"/>
<polygon fill="#666666" stroke="#666666" points="66.22,-1850.5 66.22,-1850.5 81.22,-1850.5 81.22,-1850.5 66.22,-1850.5"/>
<polygon fill="#666666" stroke="#666666" points="81.22,-1850.5 81.22,-1850.5 212.22,-1850.5 212.22,-1850.5 81.22,-1850.5"/>
<polygon fill="none" stroke="#666666" points="66.22,-1752 66.22,-1943 212.22,-1943 212.22,-1752 66.22,-1752"/>
</a>
</g>
</g>
<!-- Node3&#45;&gt;Node2 -->
<g id="edge2_Node000002_Node000003" class="edge">
<title>Node3&#45;&gt;Node2</title>
<g id="a_edge2_Node000002_Node000003"><a xlink:title=" ">
<path fill="none" stroke="#63b8ff" d="M163.53,-1741.68C196.34,-1603.83 258.52,-1354.64 326.22,-1146 336.68,-1113.76 348.55,-1080.04 360.71,-1047.05"/>
<polygon fill="none" stroke="#63b8ff" points="160.03,-1741.28 161.13,-1751.82 166.84,-1742.9 160.03,-1741.28"/>
</a>
</g>
</g>
<!-- Node10 -->
<g id="Node000010" class="node">
<title>Node10</title>
<g id="a_Node000010"><a xlink:href="../../d3/dab/classSystem_1_1Collections_1_1SortedList.html" target="_top" xlink:title=" ">
<polygon fill="white" stroke="transparent" points="660.72,-1683 479.72,-1683 479.72,-1146 660.72,-1146 660.72,-1683"/>
<text text-anchor="start" x="497.72" y="-1670.5" font-family="Helvetica,sans-Serif" font-size="10.00">System.Collections.SortedList</text>
<text text-anchor="start" x="484.22" y="-1655.5" font-family="Helvetica,sans-Serif" font-size="10.00">+</text>
<text text-anchor="start" x="497.22" y="-1655.5" font-family="Helvetica,sans-Serif" font-size="10.00">virtual int Capacity</text>
<text text-anchor="start" x="484.22" y="-1640.5" font-family="Helvetica,sans-Serif" font-size="10.00">+</text>
<text text-anchor="start" x="497.22" y="-1640.5" font-family="Helvetica,sans-Serif" font-size="10.00">virtual int Count</text>
<text text-anchor="start" x="484.22" y="-1625.5" font-family="Helvetica,sans-Serif" font-size="10.00">+</text>
<text text-anchor="start" x="497.22" y="-1625.5" font-family="Helvetica,sans-Serif" font-size="10.00">virtual ICollection Keys</text>
<text text-anchor="start" x="484.22" y="-1610.5" font-family="Helvetica,sans-Serif" font-size="10.00">+</text>
<text text-anchor="start" x="497.22" y="-1610.5" font-family="Helvetica,sans-Serif" font-size="10.00">virtual ICollection</text>
<text text-anchor="start" x="497.22" y="-1599.5" font-family="Helvetica,sans-Serif" font-size="10.00"> Values</text>
<text text-anchor="start" x="484.22" y="-1584.5" font-family="Helvetica,sans-Serif" font-size="10.00">+</text>
<text text-anchor="start" x="497.22" y="-1584.5" font-family="Helvetica,sans-Serif" font-size="10.00">virtual bool IsReadOnly</text>
<text text-anchor="start" x="484.22" y="-1569.5" font-family="Helvetica,sans-Serif" font-size="10.00">+</text>
<text text-anchor="start" x="497.22" y="-1569.5" font-family="Helvetica,sans-Serif" font-size="10.00">virtual bool IsFixedSize</text>
<text text-anchor="start" x="484.22" y="-1554.5" font-family="Helvetica,sans-Serif" font-size="10.00">+</text>
<text text-anchor="start" x="497.22" y="-1554.5" font-family="Helvetica,sans-Serif" font-size="10.00">virtual bool IsSynchronized</text>
<text text-anchor="start" x="484.22" y="-1539.5" font-family="Helvetica,sans-Serif" font-size="10.00">+</text>
<text text-anchor="start" x="497.22" y="-1539.5" font-family="Helvetica,sans-Serif" font-size="10.00">virtual object SyncRoot</text>
<text text-anchor="start" x="484.22" y="-1524.5" font-family="Helvetica,sans-Serif" font-size="10.00">+</text>
<text text-anchor="start" x="497.22" y="-1524.5" font-family="Helvetica,sans-Serif" font-size="10.00">virtual object this</text>
<text text-anchor="start" x="497.22" y="-1513.5" font-family="Helvetica,sans-Serif" font-size="10.00">[object key]</text>
<text text-anchor="start" x="484.22" y="-1498.5" font-family="Helvetica,sans-Serif" font-size="10.00">+</text>
<text text-anchor="start" x="497.22" y="-1498.5" font-family="Helvetica,sans-Serif" font-size="10.00">SortedList()</text>
<text text-anchor="start" x="484.22" y="-1483.5" font-family="Helvetica,sans-Serif" font-size="10.00">+</text>
<text text-anchor="start" x="497.22" y="-1483.5" font-family="Helvetica,sans-Serif" font-size="10.00">SortedList(int initialCapacity)</text>
<text text-anchor="start" x="484.22" y="-1468.5" font-family="Helvetica,sans-Serif" font-size="10.00">+</text>
<text text-anchor="start" x="497.22" y="-1468.5" font-family="Helvetica,sans-Serif" font-size="10.00">SortedList(IComparer</text>
<text text-anchor="start" x="497.22" y="-1457.5" font-family="Helvetica,sans-Serif" font-size="10.00"> comparer)</text>
<text text-anchor="start" x="484.22" y="-1442.5" font-family="Helvetica,sans-Serif" font-size="10.00">+</text>
<text text-anchor="start" x="497.22" y="-1442.5" font-family="Helvetica,sans-Serif" font-size="10.00">virtual void Add(object</text>
<text text-anchor="start" x="497.22" y="-1431.5" font-family="Helvetica,sans-Serif" font-size="10.00"> key, object value)</text>
<text text-anchor="start" x="484.22" y="-1416.5" font-family="Helvetica,sans-Serif" font-size="10.00">+</text>
<text text-anchor="start" x="497.22" y="-1416.5" font-family="Helvetica,sans-Serif" font-size="10.00">virtual void Clear()</text>
<text text-anchor="start" x="484.22" y="-1401.5" font-family="Helvetica,sans-Serif" font-size="10.00">+</text>
<text text-anchor="start" x="497.22" y="-1401.5" font-family="Helvetica,sans-Serif" font-size="10.00">virtual object Clone()</text>
<text text-anchor="start" x="484.22" y="-1386.5" font-family="Helvetica,sans-Serif" font-size="10.00">+</text>
<text text-anchor="start" x="497.22" y="-1386.5" font-family="Helvetica,sans-Serif" font-size="10.00">virtual bool Contains</text>
<text text-anchor="start" x="497.22" y="-1375.5" font-family="Helvetica,sans-Serif" font-size="10.00">(object key)</text>
<text text-anchor="start" x="484.22" y="-1360.5" font-family="Helvetica,sans-Serif" font-size="10.00">+</text>
<text text-anchor="start" x="497.22" y="-1360.5" font-family="Helvetica,sans-Serif" font-size="10.00">virtual bool ContainsValue</text>
<text text-anchor="start" x="497.22" y="-1349.5" font-family="Helvetica,sans-Serif" font-size="10.00">(object value)</text>
<text text-anchor="start" x="484.22" y="-1334.5" font-family="Helvetica,sans-Serif" font-size="10.00">+</text>
<text text-anchor="start" x="497.22" y="-1334.5" font-family="Helvetica,sans-Serif" font-size="10.00">virtual void CopyTo</text>
<text text-anchor="start" x="497.22" y="-1323.5" font-family="Helvetica,sans-Serif" font-size="10.00">(global::System.Array</text>
<text text-anchor="start" x="497.22" y="-1312.5" font-family="Helvetica,sans-Serif" font-size="10.00"> array, int arrayIndex)</text>
<text text-anchor="start" x="484.22" y="-1297.5" font-family="Helvetica,sans-Serif" font-size="10.00">+</text>
<text text-anchor="start" x="497.22" y="-1297.5" font-family="Helvetica,sans-Serif" font-size="10.00">virtual object GetByIndex</text>
<text text-anchor="start" x="497.22" y="-1286.5" font-family="Helvetica,sans-Serif" font-size="10.00">(int index)</text>
<text text-anchor="start" x="497.22" y="-1271.5" font-family="Helvetica,sans-Serif" font-size="10.00">and 8 more...</text>
<text text-anchor="start" x="484.22" y="-1256.5" font-family="Helvetica,sans-Serif" font-size="10.00">+</text>
<text text-anchor="start" x="497.22" y="-1256.5" font-family="Helvetica,sans-Serif" font-size="10.00">static SortedList Synchronized</text>
<text text-anchor="start" x="497.22" y="-1245.5" font-family="Helvetica,sans-Serif" font-size="10.00">(SortedList list)</text>
<text text-anchor="start" x="486.72" y="-1230.5" font-family="Helvetica,sans-Serif" font-size="10.00">&#45;</text>
<text text-anchor="start" x="497.22" y="-1230.5" font-family="Helvetica,sans-Serif" font-size="10.00">void Init()</text>
<text text-anchor="start" x="486.72" y="-1215.5" font-family="Helvetica,sans-Serif" font-size="10.00">&#45;</text>
<text text-anchor="start" x="497.22" y="-1215.5" font-family="Helvetica,sans-Serif" font-size="10.00">void EnsureCapacity</text>
<text text-anchor="start" x="497.22" y="-1204.5" font-family="Helvetica,sans-Serif" font-size="10.00">(int min)</text>
<text text-anchor="start" x="486.72" y="-1189.5" font-family="Helvetica,sans-Serif" font-size="10.00">&#45;</text>
<text text-anchor="start" x="497.22" y="-1189.5" font-family="Helvetica,sans-Serif" font-size="10.00">IEnumerator System.Collections.</text>
<text text-anchor="start" x="497.22" y="-1178.5" font-family="Helvetica,sans-Serif" font-size="10.00">IEnumerable. GetEnumerator()</text>
<text text-anchor="start" x="486.72" y="-1163.5" font-family="Helvetica,sans-Serif" font-size="10.00">&#45;</text>
<text text-anchor="start" x="497.22" y="-1163.5" font-family="Helvetica,sans-Serif" font-size="10.00">void Insert(int index,</text>
<text text-anchor="start" x="497.22" y="-1152.5" font-family="Helvetica,sans-Serif" font-size="10.00"> object key, object value)</text>
<polygon fill="#666666" stroke="#666666" points="480.22,-1665.5 480.22,-1665.5 661.22,-1665.5 661.22,-1665.5 480.22,-1665.5"/>
<polygon fill="#666666" stroke="#666666" points="480.22,-1508.5 480.22,-1508.5 495.22,-1508.5 495.22,-1508.5 480.22,-1508.5"/>
<polygon fill="#666666" stroke="#666666" points="495.22,-1508.5 495.22,-1508.5 661.22,-1508.5 661.22,-1508.5 495.22,-1508.5"/>
<polygon fill="none" stroke="#666666" points="479.72,-1146 479.72,-1683 660.72,-1683 660.72,-1146 479.72,-1146"/>
</a>
</g>
</g>
<!-- Node3&#45;&gt;Node10 -->
<g id="edge13_Node000010_Node000003" class="edge">
<title>Node3&#45;&gt;Node10</title>
<g id="a_edge13_Node000010_Node000003"><a xlink:title=" ">
<path fill="none" stroke="#63b8ff" d="M220.39,-1752.62C220.66,-1752.41 220.94,-1752.21 221.22,-1752 282.2,-1706.95 318.32,-1730.74 377.22,-1683 415.93,-1651.63 450.61,-1610.69 479.55,-1570.3"/>
<polygon fill="none" stroke="#63b8ff" points="218.08,-1749.98 212.42,-1758.93 222.43,-1755.47 218.08,-1749.98"/>
</a>
</g>
</g>
<!-- Node4 -->
<g id="Node000004" class="node">
<title>Node4</title>
<g id="a_Node000004"><a xlink:href="../../d8/dc8/interfaceSystem_1_1Collections_1_1ICollection.html" target="_top" xlink:title=" ">
<polygon fill="white" stroke="transparent" points="165.72,-2081 40.72,-2081 40.72,-1980 165.72,-1980 165.72,-2081"/>
<text text-anchor="start" x="77.72" y="-2068.5" font-family="Helvetica,sans-Serif" font-size="10.00">ICollection</text>
<text text-anchor="start" x="45.22" y="-2053.5" font-family="Helvetica,sans-Serif" font-size="10.00">+</text>
<text text-anchor="start" x="58.22" y="-2053.5" font-family="Helvetica,sans-Serif" font-size="10.00">int Count</text>
<text text-anchor="start" x="45.22" y="-2038.5" font-family="Helvetica,sans-Serif" font-size="10.00">+</text>
<text text-anchor="start" x="58.22" y="-2038.5" font-family="Helvetica,sans-Serif" font-size="10.00">object SyncRoot</text>
<text text-anchor="start" x="45.22" y="-2023.5" font-family="Helvetica,sans-Serif" font-size="10.00">+</text>
<text text-anchor="start" x="58.22" y="-2023.5" font-family="Helvetica,sans-Serif" font-size="10.00">bool IsSynchronized</text>
<text text-anchor="start" x="45.22" y="-2008.5" font-family="Helvetica,sans-Serif" font-size="10.00">+</text>
<text text-anchor="start" x="58.22" y="-2008.5" font-family="Helvetica,sans-Serif" font-size="10.00">void CopyTo(global</text>
<text text-anchor="start" x="58.22" y="-1997.5" font-family="Helvetica,sans-Serif" font-size="10.00">::System.Array array,</text>
<text text-anchor="start" x="58.22" y="-1986.5" font-family="Helvetica,sans-Serif" font-size="10.00"> int index)</text>
<polygon fill="#666666" stroke="#666666" points="41.22,-2063.5 41.22,-2063.5 166.22,-2063.5 166.22,-2063.5 41.22,-2063.5"/>
<polygon fill="#666666" stroke="#666666" points="41.22,-2018.5 41.22,-2018.5 56.22,-2018.5 56.22,-2018.5 41.22,-2018.5"/>
<polygon fill="#666666" stroke="#666666" points="56.22,-2018.5 56.22,-2018.5 166.22,-2018.5 166.22,-2018.5 56.22,-2018.5"/>
<polygon fill="none" stroke="#666666" points="40.72,-1980 40.72,-2081 165.72,-2081 165.72,-1980 40.72,-1980"/>
</a>
</g>
</g>
<!-- Node4&#45;&gt;Node2 -->
<g id="edge6_Node000002_Node000004" class="edge">
<title>Node4&#45;&gt;Node2</title>
<g id="a_edge6_Node000002_Node000004"><a xlink:title=" ">
<path fill="none" stroke="#63b8ff" d="M67.17,-1970.72C63.07,-1961.72 59.54,-1952.31 57.22,-1943 36.68,-1860.63 49.07,-1836.5 57.22,-1752 83.57,-1478.88 56.41,-1393.34 175.22,-1146 220.21,-1052.33 298.75,-963.6 360.57,-902.51"/>
<polygon fill="none" stroke="#63b8ff" points="64.12,-1972.46 71.62,-1979.95 70.43,-1969.42 64.12,-1972.46"/>
</a>
</g>
</g>
<!-- Node4&#45;&gt;Node3 -->
<g id="edge3_Node000003_Node000004" class="edge">
<title>Node4&#45;&gt;Node3</title>
<g id="a_edge3_Node000003_Node000004"><a xlink:title=" ">
<path fill="none" stroke="#63b8ff" d="M115.11,-1969.7C116.82,-1961.12 118.61,-1952.12 120.41,-1943.07"/>
<polygon fill="none" stroke="#63b8ff" points="111.67,-1969.07 113.15,-1979.56 118.54,-1970.44 111.67,-1969.07"/>
</a>
</g>
</g>
<!-- Node4&#45;&gt;Node10 -->
<g id="edge14_Node000010_Node000004" class="edge">
<title>Node4&#45;&gt;Node10</title>
<g id="a_edge14_Node000010_Node000004"><a xlink:title=" ">
<path fill="none" stroke="#63b8ff" d="M176.19,-2026.09C290.46,-2019.08 503.53,-1998.71 551.22,-1943 569.25,-1921.94 574.48,-1802.94 574.98,-1683.3"/>
<polygon fill="none" stroke="#63b8ff" points="175.9,-2022.6 166.12,-2026.69 176.31,-2029.59 175.9,-2022.6"/>
</a>
</g>
</g>
<!-- Node5 -->
<g id="Node000005" class="node">
<title>Node5</title>
<g id="a_Node000005"><a xlink:href="../../d4/da3/interfaceSystem_1_1Collections_1_1IEnumerable.html" target="_top" xlink:title=" ">
<polygon fill="white" stroke="transparent" points="254.22,-2167 88.22,-2167 88.22,-2118 254.22,-2118 254.22,-2167"/>
<text text-anchor="start" x="140.22" y="-2154.5" font-family="Helvetica,sans-Serif" font-size="10.00">IEnumerable</text>
<text text-anchor="start" x="169.22" y="-2139.5" font-family="Helvetica,sans-Serif" font-size="10.00"> </text>
<text text-anchor="start" x="92.22" y="-2124.5" font-family="Helvetica,sans-Serif" font-size="10.00">+</text>
<text text-anchor="start" x="105.22" y="-2124.5" font-family="Helvetica,sans-Serif" font-size="10.00">IEnumerator GetEnumerator()</text>
<polygon fill="#666666" stroke="#666666" points="88.22,-2149.5 88.22,-2149.5 254.22,-2149.5 254.22,-2149.5 88.22,-2149.5"/>
<polygon fill="#666666" stroke="#666666" points="88.22,-2134.5 88.22,-2134.5 254.22,-2134.5 254.22,-2134.5 88.22,-2134.5"/>
<polygon fill="none" stroke="#666666" points="88.22,-2118 88.22,-2167 254.22,-2167 254.22,-2118 88.22,-2118"/>
</a>
</g>
</g>
<!-- Node5&#45;&gt;Node2 -->
<g id="edge7_Node000002_Node000005" class="edge">
<title>Node5&#45;&gt;Node2</title>
<g id="a_edge7_Node000002_Node000005"><a xlink:title=" ">
<path fill="none" stroke="#63b8ff" d="M78.55,-2117.56C38.32,-2101.05 0.22,-2074.15 0.22,-2031.5 0.22,-2031.5 0.22,-2031.5 0.22,-1413.5 0.22,-1291.66 -3.32,-1249.96 60.22,-1146 134.5,-1024.48 270.33,-926.9 360.71,-871.32"/>
<polygon fill="none" stroke="#63b8ff" points="77.39,-2120.86 87.98,-2121.23 79.93,-2114.34 77.39,-2120.86"/>
</a>
</g>
</g>
<!-- Node5&#45;&gt;Node3 -->
<g id="edge5_Node000003_Node000005" class="edge">
<title>Node5&#45;&gt;Node3</title>
<g id="a_edge5_Node000003_Node000005"><a xlink:title=" ">
<path fill="none" stroke="#63b8ff" d="M173.19,-2107.74C173.62,-2099.03 174.01,-2089.67 174.22,-2081 175.33,-2036.12 180.04,-2024.51 174.22,-1980 172.64,-1967.94 170.28,-1955.4 167.52,-1943.08"/>
<polygon fill="none" stroke="#63b8ff" points="169.69,-2107.78 172.66,-2117.95 176.68,-2108.15 169.69,-2107.78"/>
</a>
</g>
</g>
<!-- Node5&#45;&gt;Node4 -->
<g id="edge4_Node000004_Node000005" class="edge">
<title>Node5&#45;&gt;Node4</title>
<g id="a_edge4_Node000004_Node000005"><a xlink:title=" ">
<path fill="none" stroke="#63b8ff" d="M151.24,-2109.17C145.83,-2100.43 139.85,-2090.75 134,-2081.29"/>
<polygon fill="none" stroke="#63b8ff" points="148.4,-2111.24 156.63,-2117.9 154.35,-2107.56 148.4,-2111.24"/>
</a>
</g>
</g>
<!-- Node5&#45;&gt;Node10 -->
<g id="edge15_Node000010_Node000005" class="edge">
<title>Node5&#45;&gt;Node10</title>
<g id="a_edge15_Node000010_Node000005"><a xlink:title=" ">
<path fill="none" stroke="#63b8ff" d="M264.14,-2125.36C361.2,-2103 508.55,-2052.25 576.22,-1943 603.56,-1898.86 605.51,-1790.36 599.19,-1683.16"/>
<polygon fill="none" stroke="#63b8ff" points="263.32,-2121.96 254.33,-2127.57 264.85,-2128.79 263.32,-2121.96"/>
</a>
</g>
</g>
<!-- Node6 -->
<g id="Node000006" class="node">
<title>Node6</title>
<g id="a_Node000006"><a xlink:title=" ">
<polygon fill="white" stroke="transparent" points="541.72,-1872 406.72,-1872 406.72,-1823 541.72,-1823 541.72,-1872"/>
<text text-anchor="start" x="412.22" y="-1859.5" font-family="Helvetica,sans-Serif" font-size="10.00">global::SystemICloneable</text>
<text text-anchor="start" x="472.72" y="-1844.5" font-family="Helvetica,sans-Serif" font-size="10.00"> </text>
<text text-anchor="start" x="472.72" y="-1829.5" font-family="Helvetica,sans-Serif" font-size="10.00"> </text>
<polygon fill="#666666" stroke="#666666" points="407.22,-1854.5 407.22,-1854.5 542.22,-1854.5 542.22,-1854.5 407.22,-1854.5"/>
<polygon fill="#666666" stroke="#666666" points="407.22,-1839.5 407.22,-1839.5 542.22,-1839.5 542.22,-1839.5 407.22,-1839.5"/>
<polygon fill="none" stroke="#666666" points="406.72,-1823 406.72,-1872 541.72,-1872 541.72,-1823 406.72,-1823"/>
</a>
</g>
</g>
<!-- Node6&#45;&gt;Node2 -->
<g id="edge8_Node000002_Node000006" class="edge">
<title>Node6&#45;&gt;Node2</title>
<g id="a_edge8_Node000002_Node000006"><a xlink:title=" ">
<path fill="none" stroke="#63b8ff" d="M473.46,-1812.38C470.97,-1701.25 462.92,-1342.16 457.22,-1088.1"/>
<polygon fill="none" stroke="#63b8ff" points="469.96,-1812.73 473.69,-1822.65 476.96,-1812.57 469.96,-1812.73"/>
</a>
</g>
</g>
<!-- Node6&#45;&gt;Node10 -->
<g id="edge16_Node000010_Node000006" class="edge">
<title>Node6&#45;&gt;Node10</title>
<g id="a_edge16_Node000010_Node000006"><a xlink:title=" ">
<path fill="none" stroke="#63b8ff" d="M481.74,-1812.75C488.48,-1782.5 499.05,-1735.01 510.59,-1683.24"/>
<polygon fill="none" stroke="#63b8ff" points="478.28,-1812.19 479.52,-1822.71 485.11,-1813.71 478.28,-1812.19"/>
</a>
</g>
</g>
<!-- Node7 -->
<g id="Node000007" class="node">
<title>Node7</title>
<g id="a_Node000007"><a xlink:title=" ">
<polygon fill="white" stroke="transparent" points="859.72,-1872 818.72,-1872 818.72,-1823 859.72,-1823 859.72,-1872"/>
<text text-anchor="start" x="824.22" y="-1859.5" font-family="Helvetica,sans-Serif" font-size="10.00">object</text>
<text text-anchor="start" x="837.72" y="-1844.5" font-family="Helvetica,sans-Serif" font-size="10.00"> </text>
<text text-anchor="start" x="837.72" y="-1829.5" font-family="Helvetica,sans-Serif" font-size="10.00"> </text>
<polygon fill="#666666" stroke="#666666" points="819.22,-1854.5 819.22,-1854.5 860.22,-1854.5 860.22,-1854.5 819.22,-1854.5"/>
<polygon fill="#666666" stroke="#666666" points="819.22,-1839.5 819.22,-1839.5 860.22,-1839.5 860.22,-1839.5 819.22,-1839.5"/>
<polygon fill="none" stroke="#666666" points="818.72,-1823 818.72,-1872 859.72,-1872 859.72,-1823 818.72,-1823"/>
</a>
</g>
</g>
<!-- Node7&#45;&gt;Node1 -->
<g id="edge22_Node000001_Node000007" class="edge">
<title>Node7&#45;&gt;Node1</title>
<g id="a_edge22_Node000001_Node000007"><a xlink:title=" ">
<path fill="none" stroke="#63b8ff" d="M851.88,-1822.99C867.79,-1791.97 894.23,-1735.2 904.22,-1683 980.51,-1284.6 912.13,-814.15 852.69,-525.98"/>
<polygon fill="none" stroke="#63b8ff" points="852.66,-525.86 847.53,-520.79 850.22,-514.11 855.36,-519.17 852.66,-525.86"/>
</a>
</g>
<text text-anchor="middle" x="949.22" y="-1114.5" font-family="Helvetica,sans-Serif" font-size="10.00" fill="grey"> &#45;_root</text>
</g>
<!-- Node7&#45;&gt;Node2 -->
<g id="edge9_Node000002_Node000007" class="edge">
<title>Node7&#45;&gt;Node2</title>
<g id="a_edge9_Node000002_Node000007"><a xlink:title=" ">
<path fill="none" stroke="#63b8ff" d="M839.85,-1822.96C842.72,-1707.19 852.84,-1201.67 812.22,-1146 781.56,-1103.97 752.04,-1120.98 702.22,-1106 669.39,-1096.13 655.28,-1107.7 627.22,-1088 597.36,-1067.03 571.23,-1039.22 548.9,-1009.47"/>
<polygon fill="none" stroke="#63b8ff" points="548.87,-1009.43 542.1,-1006.95 541.78,-999.74 548.55,-1002.22 548.87,-1009.43"/>
</a>
</g>
<text text-anchor="middle" x="871.22" y="-1423" font-family="Helvetica,sans-Serif" font-size="10.00" fill="grey"> &#45;_syncRoot</text>
<text text-anchor="middle" x="871.22" y="-1412" font-family="Helvetica,sans-Serif" font-size="10.00" fill="grey">&#45;keys</text>
<text text-anchor="middle" x="871.22" y="-1401" font-family="Helvetica,sans-Serif" font-size="10.00" fill="grey">&#45;values</text>
</g>
<!-- Node7&#45;&gt;Node10 -->
<g id="edge17_Node000010_Node000007" class="edge">
<title>Node7&#45;&gt;Node10</title>
<g id="a_edge17_Node000010_Node000007"><a xlink:title=" ">
<path fill="none" stroke="#63b8ff" d="M823.95,-1822.86C809.3,-1800.15 786.61,-1764.81 767.22,-1734 734.5,-1682 699.1,-1625 667.45,-1573.77"/>
<polygon fill="none" stroke="#63b8ff" points="667.27,-1573.47 660.71,-1570.47 660.96,-1563.26 667.52,-1566.27 667.27,-1573.47"/>
</a>
</g>
<text text-anchor="middle" x="796.22" y="-1726" font-family="Helvetica,sans-Serif" font-size="10.00" fill="grey"> &#45;_syncRoot</text>
<text text-anchor="middle" x="796.22" y="-1715" font-family="Helvetica,sans-Serif" font-size="10.00" fill="grey">&#45;keys</text>
<text text-anchor="middle" x="796.22" y="-1704" font-family="Helvetica,sans-Serif" font-size="10.00" fill="grey">&#45;values</text>
</g>
<!-- Node8 -->
<g id="Node000008" class="node">
<title>Node8</title>
<g id="a_Node000008"><a xlink:title=" ">
<polygon fill="white" stroke="transparent" points="717.72,-1872 694.72,-1872 694.72,-1823 717.72,-1823 717.72,-1872"/>
<text text-anchor="start" x="700.22" y="-1859.5" font-family="Helvetica,sans-Serif" font-size="10.00">int</text>
<text text-anchor="start" x="704.72" y="-1844.5" font-family="Helvetica,sans-Serif" font-size="10.00"> </text>
<text text-anchor="start" x="704.72" y="-1829.5" font-family="Helvetica,sans-Serif" font-size="10.00"> </text>
<polygon fill="#666666" stroke="#666666" points="695.22,-1854.5 695.22,-1854.5 718.22,-1854.5 718.22,-1854.5 695.22,-1854.5"/>
<polygon fill="#666666" stroke="#666666" points="695.22,-1839.5 695.22,-1839.5 718.22,-1839.5 718.22,-1839.5 695.22,-1839.5"/>
<polygon fill="none" stroke="#666666" points="694.72,-1823 694.72,-1872 717.72,-1872 717.72,-1823 694.72,-1823"/>
</a>
</g>
</g>
<!-- Node8&#45;&gt;Node2 -->
<g id="edge10_Node000002_Node000008" class="edge">
<title>Node8&#45;&gt;Node2</title>
<g id="a_edge10_Node000002_Node000008"><a xlink:title=" ">
<path fill="none" stroke="#63b8ff" d="M717.72,-1824.4C728.56,-1802.23 744.04,-1766.77 750.22,-1734 752.94,-1719.59 750.41,-1715.67 750.22,-1701 748.67,-1577.64 801.07,-1250.95 736.22,-1146 707.37,-1099.32 667.78,-1124.96 627.22,-1088 598.27,-1061.62 571.92,-1029.5 548.93,-996.79"/>
<polygon fill="none" stroke="#63b8ff" points="548.73,-996.5 542.03,-993.84 541.91,-986.63 548.61,-989.29 548.73,-996.5"/>
</a>
</g>
<text text-anchor="middle" x="788.22" y="-1417.5" font-family="Helvetica,sans-Serif" font-size="10.00" fill="grey"> &#45;_size</text>
<text text-anchor="middle" x="788.22" y="-1406.5" font-family="Helvetica,sans-Serif" font-size="10.00" fill="grey">&#45;version</text>
</g>
<!-- Node8&#45;&gt;Node10 -->
<g id="edge18_Node000010_Node000008" class="edge">
<title>Node8&#45;&gt;Node10</title>
<g id="a_edge18_Node000010_Node000008"><a xlink:title=" ">
<path fill="none" stroke="#63b8ff" d="M694.48,-1833.39C677.3,-1813.44 645.58,-1773.59 629.22,-1734 624.03,-1721.44 619.3,-1708.41 614.98,-1695.11"/>
<polygon fill="none" stroke="#63b8ff" points="614.88,-1694.81 609.27,-1690.29 611.29,-1683.36 616.9,-1687.89 614.88,-1694.81"/>
</a>
</g>
<text text-anchor="middle" x="649.22" y="-1720.5" font-family="Helvetica,sans-Serif" font-size="10.00" fill="grey"> &#45;_size</text>
<text text-anchor="middle" x="649.22" y="-1709.5" font-family="Helvetica,sans-Serif" font-size="10.00" fill="grey">&#45;version</text>
</g>
<!-- Node9 -->
<g id="Node000009" class="node">
<title>Node9</title>
<g id="a_Node000009"><a xlink:href="../../da/dff/interfaceSystem_1_1Collections_1_1IComparer.html" target="_top" xlink:title=" ">
<polygon fill="white" stroke="transparent" points="388.22,-1877.5 230.22,-1877.5 230.22,-1817.5 388.22,-1817.5 388.22,-1877.5"/>
<text text-anchor="start" x="235.22" y="-1865.5" font-family="Helvetica,sans-Serif" font-size="10.00">System.Collections.IComparer</text>
<text text-anchor="start" x="307.22" y="-1850.5" font-family="Helvetica,sans-Serif" font-size="10.00"> </text>
<text text-anchor="start" x="244.72" y="-1835.5" font-family="Helvetica,sans-Serif" font-size="10.00">+</text>
<text text-anchor="start" x="268.22" y="-1835.5" font-family="Helvetica,sans-Serif" font-size="10.00">int Compare(object</text>
<text text-anchor="start" x="268.22" y="-1824.5" font-family="Helvetica,sans-Serif" font-size="10.00"> x, object y)</text>
<polygon fill="#666666" stroke="#666666" points="230.22,-1860.5 230.22,-1860.5 388.22,-1860.5 388.22,-1860.5 230.22,-1860.5"/>
<polygon fill="#666666" stroke="#666666" points="230.22,-1845.5 230.22,-1845.5 388.22,-1845.5 388.22,-1845.5 230.22,-1845.5"/>
<polygon fill="none" stroke="#666666" points="230.22,-1817.5 230.22,-1877.5 388.22,-1877.5 388.22,-1817.5 230.22,-1817.5"/>
</a>
</g>
</g>
<!-- Node9&#45;&gt;Node2 -->
<g id="edge11_Node000002_Node000009" class="edge">
<title>Node9&#45;&gt;Node2</title>
<g id="a_edge11_Node000002_Node000009"><a xlink:title=" ">
<path fill="none" stroke="#63b8ff" d="M312.72,-1817.44C324.33,-1721.48 362.96,-1406.09 400.22,-1146 402.37,-1131 404.62,-1115.61 406.93,-1100.09"/>
<polygon fill="none" stroke="#63b8ff" points="406.93,-1100.06 403.86,-1093.54 408.71,-1088.19 411.78,-1094.72 406.93,-1100.06"/>
</a>
</g>
<text text-anchor="middle" x="427.22" y="-1412" font-family="Helvetica,sans-Serif" font-size="10.00" fill="grey"> &#45;comparer</text>
</g>
<!-- Node9&#45;&gt;Node10 -->
<g id="edge19_Node000010_Node000009" class="edge">
<title>Node9&#45;&gt;Node10</title>
<g id="a_edge19_Node000010_Node000009"><a xlink:title=" ">
<path fill="none" stroke="#63b8ff" d="M326.96,-1817.21C356.84,-1767.87 419.27,-1664.77 473.41,-1575.37"/>
<polygon fill="none" stroke="#63b8ff" points="473.41,-1575.37 473.1,-1568.16 479.63,-1565.1 479.94,-1572.31 473.41,-1575.37"/>
</a>
</g>
<text text-anchor="middle" x="420.22" y="-1715" font-family="Helvetica,sans-Serif" font-size="10.00" fill="grey"> &#45;comparer</text>
</g>
<!-- Node10&#45;&gt;Node1 -->
<g id="edge21_Node000001_Node000010" class="edge">
<title>Node10&#45;&gt;Node1</title>
<g id="a_edge21_Node000001_Node000010"><a xlink:title=" ">
<path fill="none" stroke="#63b8ff" d="M620.71,-1145.86C655.84,-959.7 702.48,-712.48 737.62,-526.19"/>
<polygon fill="none" stroke="#63b8ff" points="737.64,-526.08 734.83,-519.44 739.87,-514.29 742.69,-520.93 737.64,-526.08"/>
</a>
</g>
<text text-anchor="middle" x="745.22" y="-817" font-family="Helvetica,sans-Serif" font-size="10.00" fill="grey"> &#45;_list</text>
</g>
<!-- Node10&#45;&gt;Node2 -->
<g id="edge12_Node000002_Node000010" class="edge">
<title>Node10&#45;&gt;Node2</title>
<g id="a_edge12_Node000002_Node000010"><a xlink:title=" ">
<path fill="none" stroke="#63b8ff" d="M516.47,-1145.63C513.45,-1130.61 510.42,-1115.5 507.4,-1100.44"/>
<polygon fill="none" stroke="#63b8ff" points="507.34,-1100.14 502.24,-1095.05 504.98,-1088.38 510.08,-1093.47 507.34,-1100.14"/>
</a>
</g>
<text text-anchor="middle" x="534.22" y="-1120" font-family="Helvetica,sans-Serif" font-size="10.00" fill="grey"> &#45;keyList</text>
<text text-anchor="middle" x="534.22" y="-1109" font-family="Helvetica,sans-Serif" font-size="10.00" fill="grey">&#45;valueList</text>
</g>
<!-- Node10&#45;&gt;Node10 -->
<g id="edge20_Node000010_Node000010" class="edge">
<title>Node10&#45;&gt;Node10</title>
<g id="a_edge20_Node000010_Node000010"><a xlink:title=" ">
<path fill="none" stroke="#63b8ff" d="M660.84,-1462.2C671.66,-1453.52 678.72,-1437.62 678.72,-1414.5 678.72,-1397.88 675.07,-1384.99 669,-1375.84"/>
<polygon fill="none" stroke="#63b8ff" points="668.89,-1375.71 661.9,-1373.94 660.84,-1366.8 667.83,-1368.57 668.89,-1375.71"/>
</a>
</g>
<text text-anchor="middle" x="702.72" y="-1417.5" font-family="Helvetica,sans-Serif" font-size="10.00" fill="grey"> &#45;keyList</text>
<text text-anchor="middle" x="702.72" y="-1406.5" font-family="Helvetica,sans-Serif" font-size="10.00" fill="grey">&#45;valueList</text>
</g>
</g>
</svg>
