<?xml version="1.0" encoding="UTF-8" standalone="no"?>
<!DOCTYPE svg PUBLIC "-//W3C//DTD SVG 1.1//EN"
 "http://www.w3.org/Graphics/SVG/1.1/DTD/svg11.dtd">
<!-- Generated by graphviz version 2.43.0 (0)
 -->
<!-- Title: Terraria.GameContent.Bestiary.FilterProviderInfoElement Pages: 1 -->
<svg width="560pt" height="840pt"
 viewBox="0.00 0.00 560.00 840.00" xmlns="http://www.w3.org/2000/svg" xmlns:xlink="http://www.w3.org/1999/xlink">
<g id="graph0" class="graph" transform="scale(1 1) rotate(0) translate(4 836)">
<title>Terraria.GameContent.Bestiary.FilterProviderInfoElement</title>
<!-- Node1 -->
<g id="Node000001" class="node">
<title>Node1</title>
<g id="a_Node000001"><a xlink:title=" ">
<polygon fill="#999999" stroke="transparent" points="365.5,-695 179.5,-695 179.5,-289 365.5,-289 365.5,-695"/>
<text text-anchor="start" x="196" y="-683" font-family="Helvetica,sans-Serif" font-size="10.00">Terraria.GameContent.Bestiary.</text>
<text text-anchor="start" x="210" y="-672" font-family="Helvetica,sans-Serif" font-size="10.00">FilterProviderInfoElement</text>
<text text-anchor="start" x="183.5" y="-657" font-family="Helvetica,sans-Serif" font-size="10.00">+</text>
<text text-anchor="start" x="196.5" y="-657" font-family="Helvetica,sans-Serif" font-size="10.00">Point _filterIconFrame</text>
<text text-anchor="start" x="183.5" y="-642" font-family="Helvetica,sans-Serif" font-size="10.00">+</text>
<text text-anchor="start" x="196.5" y="-642" font-family="Helvetica,sans-Serif" font-size="10.00">int DisplayTextPriority</text>
<text text-anchor="start" x="183.5" y="-627" font-family="Helvetica,sans-Serif" font-size="10.00">+</text>
<text text-anchor="start" x="196.5" y="-627" font-family="Helvetica,sans-Serif" font-size="10.00">bool HideInPortraitInfo</text>
<text text-anchor="start" x="186" y="-612" font-family="Helvetica,sans-Serif" font-size="10.00">&#45;</text>
<text text-anchor="start" x="196.5" y="-612" font-family="Helvetica,sans-Serif" font-size="10.00">string _key</text>
<text text-anchor="start" x="186" y="-597" font-family="Helvetica,sans-Serif" font-size="10.00">&#45;</text>
<text text-anchor="start" x="196.5" y="-597" font-family="Helvetica,sans-Serif" font-size="10.00">int&lt; DisplayTextPriority</text>
<text text-anchor="start" x="196.5" y="-586" font-family="Helvetica,sans-Serif" font-size="10.00"> &gt; k__BackingField</text>
<text text-anchor="start" x="186" y="-571" font-family="Helvetica,sans-Serif" font-size="10.00">&#45;</text>
<text text-anchor="start" x="196.5" y="-571" font-family="Helvetica,sans-Serif" font-size="10.00">bool&lt; HideInPortraitInfo</text>
<text text-anchor="start" x="196.5" y="-560" font-family="Helvetica,sans-Serif" font-size="10.00"> &gt; k__BackingField</text>
<text text-anchor="start" x="186" y="-545" font-family="Helvetica,sans-Serif" font-size="10.00">&#45;</text>
<text text-anchor="start" x="196.5" y="-545" font-family="Helvetica,sans-Serif" font-size="10.00">const int framesPerRow</text>
<text text-anchor="start" x="186" y="-530" font-family="Helvetica,sans-Serif" font-size="10.00">&#45;</text>
<text text-anchor="start" x="196.5" y="-530" font-family="Helvetica,sans-Serif" font-size="10.00">const int framesPerColumn</text>
<text text-anchor="start" x="183.5" y="-515" font-family="Helvetica,sans-Serif" font-size="10.00">+</text>
<text text-anchor="start" x="196.5" y="-515" font-family="Helvetica,sans-Serif" font-size="10.00">FilterProviderInfoElement</text>
<text text-anchor="start" x="196.5" y="-504" font-family="Helvetica,sans-Serif" font-size="10.00">(string nameLanguageKey,</text>
<text text-anchor="start" x="196.5" y="-493" font-family="Helvetica,sans-Serif" font-size="10.00"> int filterIconFrame)</text>
<text text-anchor="start" x="183.5" y="-478" font-family="Helvetica,sans-Serif" font-size="10.00">+</text>
<text text-anchor="start" x="196.5" y="-478" font-family="Helvetica,sans-Serif" font-size="10.00">UIElement GetFilterImage()</text>
<text text-anchor="start" x="183.5" y="-463" font-family="Helvetica,sans-Serif" font-size="10.00">+</text>
<text text-anchor="start" x="196.5" y="-463" font-family="Helvetica,sans-Serif" font-size="10.00">string GetSearchString</text>
<text text-anchor="start" x="196.5" y="-452" font-family="Helvetica,sans-Serif" font-size="10.00">(ref BestiaryUICollectionInfo info)</text>
<text text-anchor="start" x="183.5" y="-437" font-family="Helvetica,sans-Serif" font-size="10.00">+</text>
<text text-anchor="start" x="196.5" y="-437" font-family="Helvetica,sans-Serif" font-size="10.00">string GetDisplayNameKey()</text>
<text text-anchor="start" x="183.5" y="-422" font-family="Helvetica,sans-Serif" font-size="10.00">+</text>
<text text-anchor="start" x="196.5" y="-422" font-family="Helvetica,sans-Serif" font-size="10.00">UIElement ProvideUIElement</text>
<text text-anchor="start" x="196.5" y="-411" font-family="Helvetica,sans-Serif" font-size="10.00">(BestiaryUICollectionInfo info)</text>
<text text-anchor="start" x="183.5" y="-396" font-family="Helvetica,sans-Serif" font-size="10.00">+</text>
<text text-anchor="start" x="196.5" y="-396" font-family="Helvetica,sans-Serif" font-size="10.00">void GetDisplay(out</text>
<text text-anchor="start" x="196.5" y="-385" font-family="Helvetica,sans-Serif" font-size="10.00"> Texture2D texture,</text>
<text text-anchor="start" x="196.5" y="-374" font-family="Helvetica,sans-Serif" font-size="10.00"> out Rectangle frame)</text>
<text text-anchor="start" x="186" y="-359" font-family="Helvetica,sans-Serif" font-size="10.00">&#45;</text>
<text text-anchor="start" x="196.5" y="-359" font-family="Helvetica,sans-Serif" font-size="10.00">void AddOnHover(UIElement</text>
<text text-anchor="start" x="196.5" y="-348" font-family="Helvetica,sans-Serif" font-size="10.00"> button)</text>
<text text-anchor="start" x="186" y="-333" font-family="Helvetica,sans-Serif" font-size="10.00">&#45;</text>
<text text-anchor="start" x="196.5" y="-333" font-family="Helvetica,sans-Serif" font-size="10.00">void ShowButtonName</text>
<text text-anchor="start" x="196.5" y="-322" font-family="Helvetica,sans-Serif" font-size="10.00">(UIElement element)</text>
<text text-anchor="start" x="186" y="-307" font-family="Helvetica,sans-Serif" font-size="10.00">&#45;</text>
<text text-anchor="start" x="196.5" y="-307" font-family="Helvetica,sans-Serif" font-size="10.00">void&lt; AddOnHover &gt;</text>
<text text-anchor="start" x="196.5" y="-296" font-family="Helvetica,sans-Serif" font-size="10.00"> b__18_0(UIElement e)</text>
<polygon fill="#666666" stroke="#666666" points="179.5,-667 179.5,-667 365.5,-667 365.5,-667 179.5,-667"/>
<polygon fill="#666666" stroke="#666666" points="179.5,-525 179.5,-525 194.5,-525 194.5,-525 179.5,-525"/>
<polygon fill="#666666" stroke="#666666" points="194.5,-525 194.5,-525 365.5,-525 365.5,-525 194.5,-525"/>
<polygon fill="none" stroke="#666666" points="179.5,-289 179.5,-695 365.5,-695 365.5,-289 179.5,-289"/>
</a>
</g>
</g>
<!-- Node5 -->
<g id="Node000005" class="node">
<title>Node5</title>
<g id="a_Node000005"><a xlink:href="../../dc/d5a/classTerraria_1_1GameContent_1_1Bestiary_1_1SpawnConditionBestiaryInfoElement.html" target="_top" xlink:title=" ">
<polygon fill="white" stroke="transparent" points="257,-227 64,-227 64,-26 257,-26 257,-227"/>
<text text-anchor="start" x="71.5" y="-214.5" font-family="Helvetica,sans-Serif" font-size="10.00">Terraria.GameContent.Bestiary.</text>
<text text-anchor="start" x="71.5" y="-203.5" font-family="Helvetica,sans-Serif" font-size="10.00">SpawnConditionBestiaryInfoElement</text>
<text text-anchor="start" x="68.5" y="-188.5" font-family="Helvetica,sans-Serif" font-size="10.00">+</text>
<text text-anchor="start" x="81.5" y="-188.5" font-family="Helvetica,sans-Serif" font-size="10.00">float OrderPriority</text>
<text text-anchor="start" x="71" y="-173.5" font-family="Helvetica,sans-Serif" font-size="10.00">&#45;</text>
<text text-anchor="start" x="81.5" y="-173.5" font-family="Helvetica,sans-Serif" font-size="10.00">string _backgroundImagePath</text>
<text text-anchor="start" x="71" y="-158.5" font-family="Helvetica,sans-Serif" font-size="10.00">&#45;</text>
<text text-anchor="start" x="81.5" y="-158.5" font-family="Helvetica,sans-Serif" font-size="10.00">Color? _backgroundColor</text>
<text text-anchor="start" x="71" y="-143.5" font-family="Helvetica,sans-Serif" font-size="10.00">&#45;</text>
<text text-anchor="start" x="81.5" y="-143.5" font-family="Helvetica,sans-Serif" font-size="10.00">float&lt; OrderPriority</text>
<text text-anchor="start" x="81.5" y="-132.5" font-family="Helvetica,sans-Serif" font-size="10.00"> &gt; k__BackingField</text>
<text text-anchor="start" x="68.5" y="-117.5" font-family="Helvetica,sans-Serif" font-size="10.00">+</text>
<text text-anchor="start" x="81.5" y="-117.5" font-family="Helvetica,sans-Serif" font-size="10.00">SpawnConditionBestiaryInfo</text>
<text text-anchor="start" x="81.5" y="-106.5" font-family="Helvetica,sans-Serif" font-size="10.00">Element(string nameLanguageKey,</text>
<text text-anchor="start" x="81.5" y="-95.5" font-family="Helvetica,sans-Serif" font-size="10.00"> int filterIconFrame, string</text>
<text text-anchor="start" x="81.5" y="-84.5" font-family="Helvetica,sans-Serif" font-size="10.00"> backgroundImagePath=null, Color</text>
<text text-anchor="start" x="81.5" y="-73.5" font-family="Helvetica,sans-Serif" font-size="10.00">? backgroundColor=null)</text>
<text text-anchor="start" x="68.5" y="-58.5" font-family="Helvetica,sans-Serif" font-size="10.00">+</text>
<text text-anchor="start" x="81.5" y="-58.5" font-family="Helvetica,sans-Serif" font-size="10.00">Asset&lt; Texture2D &gt;</text>
<text text-anchor="start" x="81.5" y="-47.5" font-family="Helvetica,sans-Serif" font-size="10.00"> GetBackgroundImage()</text>
<text text-anchor="start" x="68.5" y="-32.5" font-family="Helvetica,sans-Serif" font-size="10.00">+</text>
<text text-anchor="start" x="81.5" y="-32.5" font-family="Helvetica,sans-Serif" font-size="10.00">Color? GetBackgroundColor()</text>
<polygon fill="#666666" stroke="#666666" points="64.5,-198.5 64.5,-198.5 257.5,-198.5 257.5,-198.5 64.5,-198.5"/>
<polygon fill="#666666" stroke="#666666" points="64.5,-127.5 64.5,-127.5 79.5,-127.5 79.5,-127.5 64.5,-127.5"/>
<polygon fill="#666666" stroke="#666666" points="79.5,-127.5 79.5,-127.5 257.5,-127.5 257.5,-127.5 79.5,-127.5"/>
<polygon fill="none" stroke="#666666" points="64,-26 64,-227 257,-227 257,-26 64,-26"/>
</a>
</g>
</g>
<!-- Node1&#45;&gt;Node5 -->
<g id="edge4_Node000001_Node000005" class="edge">
<title>Node1&#45;&gt;Node5</title>
<g id="a_edge4_Node000001_Node000005"><a xlink:title=" ">
<path fill="none" stroke="#63b8ff" d="M207.14,-278.87C201.66,-261.1 196.31,-243.72 191.29,-227.44"/>
<polygon fill="none" stroke="#63b8ff" points="203.91,-280.26 210.2,-288.79 210.6,-278.2 203.91,-280.26"/>
</a>
</g>
</g>
<!-- Node6 -->
<g id="Node000006" class="node">
<title>Node6</title>
<g id="a_Node000006"><a xlink:href="../../d0/d2b/classTerraria_1_1GameContent_1_1Bestiary_1_1SpawnConditionBestiaryOverlayInfoElement.html" target="_top" xlink:title=" ">
<polygon fill="white" stroke="transparent" points="493.5,-253 275.5,-253 275.5,0 493.5,0 493.5,-253"/>
<text text-anchor="start" x="296" y="-240.5" font-family="Helvetica,sans-Serif" font-size="10.00">Terraria.GameContent.Bestiary.</text>
<text text-anchor="start" x="296" y="-229.5" font-family="Helvetica,sans-Serif" font-size="10.00">SpawnConditionBestiaryOverlayInfo</text>
<text text-anchor="start" x="364" y="-218.5" font-family="Helvetica,sans-Serif" font-size="10.00">Element</text>
<text text-anchor="start" x="279.5" y="-203.5" font-family="Helvetica,sans-Serif" font-size="10.00">+</text>
<text text-anchor="start" x="292.5" y="-203.5" font-family="Helvetica,sans-Serif" font-size="10.00">float DisplayPriority</text>
<text text-anchor="start" x="279.5" y="-188.5" font-family="Helvetica,sans-Serif" font-size="10.00">+</text>
<text text-anchor="start" x="292.5" y="-188.5" font-family="Helvetica,sans-Serif" font-size="10.00">float OrderPriority</text>
<text text-anchor="start" x="282" y="-173.5" font-family="Helvetica,sans-Serif" font-size="10.00">&#45;</text>
<text text-anchor="start" x="292.5" y="-173.5" font-family="Helvetica,sans-Serif" font-size="10.00">string _overlayImagePath</text>
<text text-anchor="start" x="282" y="-158.5" font-family="Helvetica,sans-Serif" font-size="10.00">&#45;</text>
<text text-anchor="start" x="292.5" y="-158.5" font-family="Helvetica,sans-Serif" font-size="10.00">Color? _overlayColor</text>
<text text-anchor="start" x="282" y="-143.5" font-family="Helvetica,sans-Serif" font-size="10.00">&#45;</text>
<text text-anchor="start" x="292.5" y="-143.5" font-family="Helvetica,sans-Serif" font-size="10.00">float&lt; DisplayPriority</text>
<text text-anchor="start" x="292.5" y="-132.5" font-family="Helvetica,sans-Serif" font-size="10.00"> &gt; k__BackingField</text>
<text text-anchor="start" x="282" y="-117.5" font-family="Helvetica,sans-Serif" font-size="10.00">&#45;</text>
<text text-anchor="start" x="292.5" y="-117.5" font-family="Helvetica,sans-Serif" font-size="10.00">float&lt; OrderPriority</text>
<text text-anchor="start" x="292.5" y="-106.5" font-family="Helvetica,sans-Serif" font-size="10.00"> &gt; k__BackingField</text>
<text text-anchor="start" x="279.5" y="-91.5" font-family="Helvetica,sans-Serif" font-size="10.00">+</text>
<text text-anchor="start" x="292.5" y="-91.5" font-family="Helvetica,sans-Serif" font-size="10.00">SpawnConditionBestiaryOverlay</text>
<text text-anchor="start" x="292.5" y="-80.5" font-family="Helvetica,sans-Serif" font-size="10.00">InfoElement(string nameLanguageKey,</text>
<text text-anchor="start" x="292.5" y="-69.5" font-family="Helvetica,sans-Serif" font-size="10.00"> int filterIconFrame, string overlayImage</text>
<text text-anchor="start" x="292.5" y="-58.5" font-family="Helvetica,sans-Serif" font-size="10.00">Path=null, Color? overlayColor=null)</text>
<text text-anchor="start" x="279.5" y="-43.5" font-family="Helvetica,sans-Serif" font-size="10.00">+</text>
<text text-anchor="start" x="292.5" y="-43.5" font-family="Helvetica,sans-Serif" font-size="10.00">Asset&lt; Texture2D &gt;</text>
<text text-anchor="start" x="292.5" y="-32.5" font-family="Helvetica,sans-Serif" font-size="10.00"> GetBackgroundOverlayImage()</text>
<text text-anchor="start" x="279.5" y="-17.5" font-family="Helvetica,sans-Serif" font-size="10.00">+</text>
<text text-anchor="start" x="292.5" y="-17.5" font-family="Helvetica,sans-Serif" font-size="10.00">Color? GetBackgroundOverlay</text>
<text text-anchor="start" x="292.5" y="-6.5" font-family="Helvetica,sans-Serif" font-size="10.00">Color()</text>
<polygon fill="#666666" stroke="#666666" points="275.5,-213.5 275.5,-213.5 493.5,-213.5 493.5,-213.5 275.5,-213.5"/>
<polygon fill="#666666" stroke="#666666" points="275.5,-101.5 275.5,-101.5 290.5,-101.5 290.5,-101.5 275.5,-101.5"/>
<polygon fill="#666666" stroke="#666666" points="290.5,-101.5 290.5,-101.5 493.5,-101.5 493.5,-101.5 290.5,-101.5"/>
<polygon fill="none" stroke="#666666" points="275.5,0 275.5,-253 493.5,-253 493.5,0 275.5,0"/>
</a>
</g>
</g>
<!-- Node1&#45;&gt;Node6 -->
<g id="edge5_Node000001_Node000006" class="edge">
<title>Node1&#45;&gt;Node6</title>
<g id="a_edge5_Node000001_Node000006"><a xlink:title=" ">
<path fill="none" stroke="#63b8ff" d="M337.76,-279.19C340.48,-270.38 343.16,-261.67 345.79,-253.14"/>
<polygon fill="none" stroke="#63b8ff" points="334.4,-278.2 334.8,-288.79 341.09,-280.26 334.4,-278.2"/>
</a>
</g>
</g>
<!-- Node2 -->
<g id="Node000002" class="node">
<title>Node2</title>
<g id="a_Node000002"><a xlink:href="../../d0/d1a/interfaceTerraria_1_1GameContent_1_1Bestiary_1_1IFilterInfoProvider.html" target="_top" xlink:title=" ">
<polygon fill="white" stroke="transparent" points="161,-832 0,-832 0,-731 161,-731 161,-832"/>
<text text-anchor="start" x="37" y="-819.5" font-family="Helvetica,sans-Serif" font-size="10.00">IFilterInfoProvider</text>
<text text-anchor="start" x="79" y="-804.5" font-family="Helvetica,sans-Serif" font-size="10.00"> </text>
<text text-anchor="start" x="4.5" y="-789.5" font-family="Helvetica,sans-Serif" font-size="10.00">+</text>
<text text-anchor="start" x="17.5" y="-789.5" font-family="Helvetica,sans-Serif" font-size="10.00">UIElement GetFilterImage()</text>
<text text-anchor="start" x="4.5" y="-774.5" font-family="Helvetica,sans-Serif" font-size="10.00">+</text>
<text text-anchor="start" x="17.5" y="-774.5" font-family="Helvetica,sans-Serif" font-size="10.00">string GetDisplayNameKey()</text>
<text text-anchor="start" x="4.5" y="-759.5" font-family="Helvetica,sans-Serif" font-size="10.00">+</text>
<text text-anchor="start" x="17.5" y="-759.5" font-family="Helvetica,sans-Serif" font-size="10.00">void GetDisplay(out</text>
<text text-anchor="start" x="17.5" y="-748.5" font-family="Helvetica,sans-Serif" font-size="10.00"> Texture2D texture,</text>
<text text-anchor="start" x="17.5" y="-737.5" font-family="Helvetica,sans-Serif" font-size="10.00"> out Rectangle frame)</text>
<polygon fill="#666666" stroke="#666666" points="0.5,-814.5 0.5,-814.5 161.5,-814.5 161.5,-814.5 0.5,-814.5"/>
<polygon fill="#666666" stroke="#666666" points="0.5,-799.5 0.5,-799.5 161.5,-799.5 161.5,-799.5 0.5,-799.5"/>
<polygon fill="none" stroke="#666666" points="0,-731 0,-832 161,-832 161,-731 0,-731"/>
</a>
</g>
</g>
<!-- Node2&#45;&gt;Node1 -->
<g id="edge1_Node000001_Node000002" class="edge">
<title>Node2&#45;&gt;Node1</title>
<g id="a_edge1_Node000001_Node000002"><a xlink:title=" ">
<path fill="none" stroke="#63b8ff" d="M119.48,-722.13C136.91,-696.03 158.28,-664.04 179.45,-632.33"/>
<polygon fill="none" stroke="#63b8ff" points="116.37,-720.49 113.72,-730.75 122.19,-724.38 116.37,-720.49"/>
</a>
</g>
</g>
<!-- Node3 -->
<g id="Node000003" class="node">
<title>Node3</title>
<g id="a_Node000003"><a xlink:href="../../d8/df8/interfaceTerraria_1_1GameContent_1_1Bestiary_1_1IProvideSearchFilterString.html" target="_top" xlink:title=" ">
<polygon fill="white" stroke="transparent" points="365.5,-811.5 179.5,-811.5 179.5,-751.5 365.5,-751.5 365.5,-811.5"/>
<text text-anchor="start" x="209" y="-799.5" font-family="Helvetica,sans-Serif" font-size="10.00">IProvideSearchFilterString</text>
<text text-anchor="start" x="270.5" y="-784.5" font-family="Helvetica,sans-Serif" font-size="10.00"> </text>
<text text-anchor="start" x="183.5" y="-769.5" font-family="Helvetica,sans-Serif" font-size="10.00">+</text>
<text text-anchor="start" x="196.5" y="-769.5" font-family="Helvetica,sans-Serif" font-size="10.00">string GetSearchString</text>
<text text-anchor="start" x="196.5" y="-758.5" font-family="Helvetica,sans-Serif" font-size="10.00">(ref BestiaryUICollectionInfo info)</text>
<polygon fill="#666666" stroke="#666666" points="179.5,-794.5 179.5,-794.5 365.5,-794.5 365.5,-794.5 179.5,-794.5"/>
<polygon fill="#666666" stroke="#666666" points="179.5,-779.5 179.5,-779.5 365.5,-779.5 365.5,-779.5 179.5,-779.5"/>
<polygon fill="none" stroke="#666666" points="179.5,-751.5 179.5,-811.5 365.5,-811.5 365.5,-751.5 179.5,-751.5"/>
</a>
</g>
</g>
<!-- Node3&#45;&gt;Node1 -->
<g id="edge2_Node000001_Node000003" class="edge">
<title>Node3&#45;&gt;Node1</title>
<g id="a_edge2_Node000001_Node000003"><a xlink:title=" ">
<path fill="none" stroke="#63b8ff" d="M272.5,-741.31C272.5,-728.07 272.5,-712.26 272.5,-695.11"/>
<polygon fill="none" stroke="#63b8ff" points="269,-741.35 272.5,-751.35 276,-741.35 269,-741.35"/>
</a>
</g>
</g>
<!-- Node4 -->
<g id="Node000004" class="node">
<title>Node4</title>
<g id="a_Node000004"><a xlink:href="../../d9/d8f/interfaceTerraria_1_1GameContent_1_1Bestiary_1_1IBestiaryInfoElement.html" target="_top" xlink:title=" ">
<polygon fill="white" stroke="transparent" points="552,-811.5 383,-811.5 383,-751.5 552,-751.5 552,-811.5"/>
<text text-anchor="start" x="416.5" y="-799.5" font-family="Helvetica,sans-Serif" font-size="10.00">IBestiaryInfoElement</text>
<text text-anchor="start" x="466" y="-784.5" font-family="Helvetica,sans-Serif" font-size="10.00"> </text>
<text text-anchor="start" x="387.5" y="-769.5" font-family="Helvetica,sans-Serif" font-size="10.00">+</text>
<text text-anchor="start" x="400.5" y="-769.5" font-family="Helvetica,sans-Serif" font-size="10.00">UIElement ProvideUIElement</text>
<text text-anchor="start" x="400.5" y="-758.5" font-family="Helvetica,sans-Serif" font-size="10.00">(BestiaryUICollectionInfo info)</text>
<polygon fill="#666666" stroke="#666666" points="383.5,-794.5 383.5,-794.5 552.5,-794.5 552.5,-794.5 383.5,-794.5"/>
<polygon fill="#666666" stroke="#666666" points="383.5,-779.5 383.5,-779.5 552.5,-779.5 552.5,-779.5 383.5,-779.5"/>
<polygon fill="none" stroke="#666666" points="383,-751.5 383,-811.5 552,-811.5 552,-751.5 383,-751.5"/>
</a>
</g>
</g>
<!-- Node4&#45;&gt;Node1 -->
<g id="edge3_Node000001_Node000004" class="edge">
<title>Node4&#45;&gt;Node1</title>
<g id="a_edge3_Node000001_Node000004"><a xlink:title=" ">
<path fill="none" stroke="#63b8ff" d="M441.91,-742.77C422.22,-713.74 393.71,-671.71 365.69,-630.39"/>
<polygon fill="none" stroke="#63b8ff" points="439.22,-745.04 447.73,-751.35 445.01,-741.11 439.22,-745.04"/>
</a>
</g>
</g>
</g>
</svg>
