<?xml version="1.0" encoding="UTF-8" standalone="no"?>
<!DOCTYPE svg PUBLIC "-//W3C//DTD SVG 1.1//EN"
 "http://www.w3.org/Graphics/SVG/1.1/DTD/svg11.dtd">
<!-- Generated by graphviz version 2.43.0 (0)
 -->
<!-- Title: Terraria.WorldBuilding.Actions.SetTile Pages: 1 -->
<svg width="183pt" height="591pt"
 viewBox="0.00 0.00 183.00 591.00" xmlns="http://www.w3.org/2000/svg" xmlns:xlink="http://www.w3.org/1999/xlink">
<g id="graph0" class="graph" transform="scale(1 1) rotate(0) translate(4 587)">
<title>Terraria.WorldBuilding.Actions.SetTile</title>
<!-- Node1 -->
<g id="Node000001" class="node">
<title>Node1</title>
<g id="a_Node000001"><a xlink:title=" ">
<polygon fill="#999999" stroke="transparent" points="175,-160 0,-160 0,0 175,0 175,-160"/>
<text text-anchor="start" x="13" y="-148" font-family="Helvetica,sans-Serif" font-size="10.00">Terraria.WorldBuilding.Actions.</text>
<text text-anchor="start" x="71" y="-137" font-family="Helvetica,sans-Serif" font-size="10.00">SetTile</text>
<text text-anchor="start" x="7" y="-122" font-family="Helvetica,sans-Serif" font-size="10.00">&#45;</text>
<text text-anchor="start" x="17.5" y="-122" font-family="Helvetica,sans-Serif" font-size="10.00">ushort _type</text>
<text text-anchor="start" x="7" y="-107" font-family="Helvetica,sans-Serif" font-size="10.00">&#45;</text>
<text text-anchor="start" x="17.5" y="-107" font-family="Helvetica,sans-Serif" font-size="10.00">bool _doFraming</text>
<text text-anchor="start" x="7" y="-92" font-family="Helvetica,sans-Serif" font-size="10.00">&#45;</text>
<text text-anchor="start" x="17.5" y="-92" font-family="Helvetica,sans-Serif" font-size="10.00">bool _doNeighborFraming</text>
<text text-anchor="start" x="4.5" y="-77" font-family="Helvetica,sans-Serif" font-size="10.00">+</text>
<text text-anchor="start" x="17.5" y="-77" font-family="Helvetica,sans-Serif" font-size="10.00">SetTile(ushort type,</text>
<text text-anchor="start" x="17.5" y="-66" font-family="Helvetica,sans-Serif" font-size="10.00"> bool setSelfFrames=false,</text>
<text text-anchor="start" x="17.5" y="-55" font-family="Helvetica,sans-Serif" font-size="10.00"> bool setNeighborFrames=true)</text>
<text text-anchor="start" x="4.5" y="-40" font-family="Helvetica,sans-Serif" font-size="10.00">+</text>
<text text-anchor="start" x="17.5" y="-40" font-family="Helvetica,sans-Serif" font-size="10.00">override bool Apply</text>
<text text-anchor="start" x="17.5" y="-29" font-family="Helvetica,sans-Serif" font-size="10.00">(Point origin, int x,</text>
<text text-anchor="start" x="17.5" y="-18" font-family="Helvetica,sans-Serif" font-size="10.00"> int y, params object</text>
<text text-anchor="start" x="17.5" y="-7" font-family="Helvetica,sans-Serif" font-size="10.00">[] args)</text>
<polygon fill="#666666" stroke="#666666" points="0.5,-132 0.5,-132 175.5,-132 175.5,-132 0.5,-132"/>
<polygon fill="#666666" stroke="#666666" points="0.5,-87 0.5,-87 15.5,-87 15.5,-87 0.5,-87"/>
<polygon fill="#666666" stroke="#666666" points="15.5,-87 15.5,-87 175.5,-87 175.5,-87 15.5,-87"/>
<polygon fill="none" stroke="#666666" points="0,0 0,-160 175,-160 175,0 0,0"/>
</a>
</g>
</g>
<!-- Node2 -->
<g id="Node000002" class="node">
<title>Node2</title>
<g id="a_Node000002"><a xlink:href="../../db/d55/classTerraria_1_1WorldBuilding_1_1GenAction.html" target="_top" xlink:title=" ">
<polygon fill="white" stroke="transparent" points="170,-405 5,-405 5,-196 170,-196 170,-405"/>
<text text-anchor="start" x="62.5" y="-392.5" font-family="Helvetica,sans-Serif" font-size="10.00">GenAction</text>
<text text-anchor="start" x="9.5" y="-377.5" font-family="Helvetica,sans-Serif" font-size="10.00">+</text>
<text text-anchor="start" x="22.5" y="-377.5" font-family="Helvetica,sans-Serif" font-size="10.00">GenAction NextAction</text>
<text text-anchor="start" x="9.5" y="-362.5" font-family="Helvetica,sans-Serif" font-size="10.00">+</text>
<text text-anchor="start" x="22.5" y="-362.5" font-family="Helvetica,sans-Serif" font-size="10.00">ShapeData OutputData</text>
<text text-anchor="start" x="12" y="-347.5" font-family="Helvetica,sans-Serif" font-size="10.00">&#45;</text>
<text text-anchor="start" x="22.5" y="-347.5" font-family="Helvetica,sans-Serif" font-size="10.00">bool _returnFalseOnFailure</text>
<text text-anchor="start" x="9.5" y="-332.5" font-family="Helvetica,sans-Serif" font-size="10.00">+</text>
<text text-anchor="start" x="22.5" y="-332.5" font-family="Helvetica,sans-Serif" font-size="10.00">bool Apply(Point origin,</text>
<text text-anchor="start" x="22.5" y="-321.5" font-family="Helvetica,sans-Serif" font-size="10.00"> int x, int y, params</text>
<text text-anchor="start" x="22.5" y="-310.5" font-family="Helvetica,sans-Serif" font-size="10.00"> object[] args)</text>
<text text-anchor="start" x="9.5" y="-295.5" font-family="Helvetica,sans-Serif" font-size="10.00">+</text>
<text text-anchor="start" x="22.5" y="-295.5" font-family="Helvetica,sans-Serif" font-size="10.00">GenAction IgnoreFailures()</text>
<text text-anchor="start" x="9.5" y="-280.5" font-family="Helvetica,sans-Serif" font-size="10.00">+</text>
<text text-anchor="start" x="22.5" y="-280.5" font-family="Helvetica,sans-Serif" font-size="10.00">GenAction Output(ShapeData</text>
<text text-anchor="start" x="22.5" y="-269.5" font-family="Helvetica,sans-Serif" font-size="10.00"> data)</text>
<text text-anchor="start" x="9.5" y="-254.5" font-family="Helvetica,sans-Serif" font-size="10.00">#</text>
<text text-anchor="start" x="22.5" y="-254.5" font-family="Helvetica,sans-Serif" font-size="10.00">bool UnitApply(Point</text>
<text text-anchor="start" x="22.5" y="-243.5" font-family="Helvetica,sans-Serif" font-size="10.00"> origin, int x, int y,</text>
<text text-anchor="start" x="22.5" y="-232.5" font-family="Helvetica,sans-Serif" font-size="10.00"> params object[] args)</text>
<text text-anchor="start" x="9.5" y="-217.5" font-family="Helvetica,sans-Serif" font-size="10.00">#</text>
<text text-anchor="start" x="22.5" y="-217.5" font-family="Helvetica,sans-Serif" font-size="10.00">bool Fail()</text>
<text text-anchor="start" x="9.5" y="-202.5" font-family="Helvetica,sans-Serif" font-size="10.00">#</text>
<text text-anchor="start" x="22.5" y="-202.5" font-family="Helvetica,sans-Serif" font-size="10.00">GenAction()</text>
<polygon fill="#666666" stroke="#666666" points="5.5,-387.5 5.5,-387.5 170.5,-387.5 170.5,-387.5 5.5,-387.5"/>
<polygon fill="#666666" stroke="#666666" points="5.5,-342.5 5.5,-342.5 20.5,-342.5 20.5,-342.5 5.5,-342.5"/>
<polygon fill="#666666" stroke="#666666" points="20.5,-342.5 20.5,-342.5 170.5,-342.5 170.5,-342.5 20.5,-342.5"/>
<polygon fill="none" stroke="#666666" points="5,-196 5,-405 170,-405 170,-196 5,-196"/>
</a>
</g>
</g>
<!-- Node2&#45;&gt;Node1 -->
<g id="edge1_Node000001_Node000002" class="edge">
<title>Node2&#45;&gt;Node1</title>
<g id="a_edge1_Node000001_Node000002"><a xlink:title=" ">
<path fill="none" stroke="#63b8ff" d="M87.5,-185.55C87.5,-176.93 87.5,-168.34 87.5,-160"/>
<polygon fill="none" stroke="#63b8ff" points="84,-185.69 87.5,-195.69 91,-185.69 84,-185.69"/>
</a>
</g>
</g>
<!-- Node3 -->
<g id="Node000003" class="node">
<title>Node3</title>
<g id="a_Node000003"><a xlink:href="../../d4/dd6/classTerraria_1_1WorldBuilding_1_1GenBase.html" target="_top" xlink:title=" ">
<polygon fill="white" stroke="transparent" points="170,-583 5,-583 5,-441 170,-441 170,-583"/>
<text text-anchor="start" x="66" y="-571" font-family="Helvetica,sans-Serif" font-size="10.00">GenBase</text>
<text text-anchor="start" x="9.5" y="-556" font-family="Helvetica,sans-Serif" font-size="10.00">+</text>
<text text-anchor="start" x="22.5" y="-556" font-family="Helvetica,sans-Serif" font-size="10.00">static UnifiedRandom</text>
<text text-anchor="start" x="22.5" y="-545" font-family="Helvetica,sans-Serif" font-size="10.00"> _random</text>
<text text-anchor="start" x="9.5" y="-530" font-family="Helvetica,sans-Serif" font-size="10.00">+</text>
<text text-anchor="start" x="22.5" y="-530" font-family="Helvetica,sans-Serif" font-size="10.00">static TileData _tiles</text>
<text text-anchor="start" x="9.5" y="-515" font-family="Helvetica,sans-Serif" font-size="10.00">+</text>
<text text-anchor="start" x="22.5" y="-515" font-family="Helvetica,sans-Serif" font-size="10.00">static int _worldWidth</text>
<text text-anchor="start" x="9.5" y="-500" font-family="Helvetica,sans-Serif" font-size="10.00">+</text>
<text text-anchor="start" x="22.5" y="-500" font-family="Helvetica,sans-Serif" font-size="10.00">static int _worldHeight</text>
<text text-anchor="start" x="9.5" y="-485" font-family="Helvetica,sans-Serif" font-size="10.00">+</text>
<text text-anchor="start" x="22.5" y="-485" font-family="Helvetica,sans-Serif" font-size="10.00">delegate bool CustomPerUnit</text>
<text text-anchor="start" x="22.5" y="-474" font-family="Helvetica,sans-Serif" font-size="10.00">Action(int x, int y, params</text>
<text text-anchor="start" x="22.5" y="-463" font-family="Helvetica,sans-Serif" font-size="10.00"> object[] args)</text>
<text text-anchor="start" x="9.5" y="-448" font-family="Helvetica,sans-Serif" font-size="10.00">+</text>
<text text-anchor="start" x="22.5" y="-448" font-family="Helvetica,sans-Serif" font-size="10.00">GenBase()</text>
<polygon fill="#666666" stroke="#666666" points="5.5,-566 5.5,-566 170.5,-566 170.5,-566 5.5,-566"/>
<polygon fill="#666666" stroke="#666666" points="5.5,-495 5.5,-495 20.5,-495 20.5,-495 5.5,-495"/>
<polygon fill="#666666" stroke="#666666" points="20.5,-495 20.5,-495 170.5,-495 170.5,-495 20.5,-495"/>
<polygon fill="none" stroke="#666666" points="5,-441 5,-583 170,-583 170,-441 5,-441"/>
</a>
</g>
</g>
<!-- Node3&#45;&gt;Node2 -->
<g id="edge2_Node000002_Node000003" class="edge">
<title>Node3&#45;&gt;Node2</title>
<g id="a_edge2_Node000002_Node000003"><a xlink:title=" ">
<path fill="none" stroke="#63b8ff" d="M87.5,-430.8C87.5,-422.38 87.5,-413.73 87.5,-405.09"/>
<polygon fill="none" stroke="#63b8ff" points="84,-430.95 87.5,-440.95 91,-430.95 84,-430.95"/>
</a>
</g>
</g>
</g>
</svg>
