<?xml version="1.0" encoding="UTF-8" standalone="no"?>
<!DOCTYPE svg PUBLIC "-//W3C//DTD SVG 1.1//EN"
 "http://www.w3.org/Graphics/SVG/1.1/DTD/svg11.dtd">
<!-- Generated by graphviz version 2.43.0 (0)
 -->
<!-- Title: GUISettingEntry Pages: 1 -->
<svg width="546pt" height="594pt"
 viewBox="0.00 0.00 546.00 594.00" xmlns="http://www.w3.org/2000/svg" xmlns:xlink="http://www.w3.org/1999/xlink">
<g id="graph0" class="graph" transform="scale(1 1) rotate(0) translate(4 590)">
<title>GUISettingEntry</title>
<!-- Node1 -->
<g id="Node000001" class="node">
<title>Node1</title>
<g id="a_Node000001"><a xlink:title=" ">
<polygon fill="#999999" stroke="transparent" points="182,-116 26,-116 26,0 182,0 182,-116"/>
<text text-anchor="start" x="64.5" y="-104" font-family="Helvetica,sans-Serif" font-size="10.00">GUISettingEntry</text>
<text text-anchor="start" x="102" y="-89" font-family="Helvetica,sans-Serif" font-size="10.00"> </text>
<text text-anchor="start" x="30" y="-74" font-family="Helvetica,sans-Serif" font-size="10.00">+</text>
<text text-anchor="start" x="43" y="-74" font-family="Helvetica,sans-Serif" font-size="10.00">GUISettingEntry(GUISetting</text>
<text text-anchor="start" x="43" y="-63" font-family="Helvetica,sans-Serif" font-size="10.00">ID id)</text>
<text text-anchor="start" x="30" y="-48" font-family="Helvetica,sans-Serif" font-size="10.00">+</text>
<text text-anchor="start" x="43" y="-48" font-family="Helvetica,sans-Serif" font-size="10.00">virtual void Draw()</text>
<text text-anchor="start" x="30" y="-33" font-family="Helvetica,sans-Serif" font-size="10.00">+</text>
<text text-anchor="start" x="43" y="-33" font-family="Helvetica,sans-Serif" font-size="10.00">virtual float GetElement</text>
<text text-anchor="start" x="43" y="-22" font-family="Helvetica,sans-Serif" font-size="10.00">Height()</text>
<text text-anchor="start" x="30" y="-7" font-family="Helvetica,sans-Serif" font-size="10.00">+</text>
<text text-anchor="start" x="43" y="-7" font-family="Helvetica,sans-Serif" font-size="10.00">virtual void DrawOverlay()</text>
<polygon fill="#666666" stroke="#666666" points="26,-99 26,-99 182,-99 182,-99 26,-99"/>
<polygon fill="#666666" stroke="#666666" points="26,-84 26,-84 182,-84 182,-84 26,-84"/>
<polygon fill="none" stroke="#666666" points="26,0 26,-116 182,-116 182,0 26,0"/>
</a>
</g>
</g>
<!-- Node2 -->
<g id="Node000002" class="node">
<title>Node2</title>
<g id="a_Node000002"><a xlink:title=" ">
<polygon fill="white" stroke="transparent" points="74,-399 0,-399 0,-350 74,-350 74,-399"/>
<text text-anchor="start" x="5" y="-386.5" font-family="Helvetica,sans-Serif" font-size="10.00">GUISettingID</text>
<text text-anchor="start" x="35" y="-371.5" font-family="Helvetica,sans-Serif" font-size="10.00"> </text>
<text text-anchor="start" x="35" y="-356.5" font-family="Helvetica,sans-Serif" font-size="10.00"> </text>
<polygon fill="#666666" stroke="#666666" points="0,-381.5 0,-381.5 74,-381.5 74,-381.5 0,-381.5"/>
<polygon fill="#666666" stroke="#666666" points="0,-366.5 0,-366.5 74,-366.5 74,-366.5 0,-366.5"/>
<polygon fill="none" stroke="#666666" points="0,-350 0,-399 74,-399 74,-350 0,-350"/>
</a>
</g>
</g>
<!-- Node2&#45;&gt;Node1 -->
<g id="edge1_Node000001_Node000002" class="edge">
<title>Node2&#45;&gt;Node1</title>
<g id="a_edge1_Node000001_Node000002"><a xlink:title=" ">
<path fill="none" stroke="#63b8ff" d="M38.88,-349.67C42.69,-306.18 52.86,-211.31 74,-134 74.55,-132 75.13,-129.98 75.74,-127.95"/>
<polygon fill="none" stroke="#63b8ff" points="75.83,-127.69 73.89,-120.74 79.56,-116.28 81.5,-123.23 75.83,-127.69"/>
</a>
</g>
<text text-anchor="middle" x="87" y="-137" font-family="Helvetica,sans-Serif" font-size="10.00" fill="grey"> +_id</text>
</g>
<!-- Node3 -->
<g id="Node000003" class="node">
<title>Node3</title>
<g id="a_Node000003"><a xlink:title=" ">
<polygon fill="white" stroke="transparent" points="115.5,-399 92.5,-399 92.5,-350 115.5,-350 115.5,-399"/>
<text text-anchor="start" x="98" y="-386.5" font-family="Helvetica,sans-Serif" font-size="10.00">int</text>
<text text-anchor="start" x="102.5" y="-371.5" font-family="Helvetica,sans-Serif" font-size="10.00"> </text>
<text text-anchor="start" x="102.5" y="-356.5" font-family="Helvetica,sans-Serif" font-size="10.00"> </text>
<polygon fill="#666666" stroke="#666666" points="93,-381.5 93,-381.5 116,-381.5 116,-381.5 93,-381.5"/>
<polygon fill="#666666" stroke="#666666" points="93,-366.5 93,-366.5 116,-366.5 116,-366.5 93,-366.5"/>
<polygon fill="none" stroke="#666666" points="92.5,-350 92.5,-399 115.5,-399 115.5,-350 92.5,-350"/>
</a>
</g>
</g>
<!-- Node3&#45;&gt;Node1 -->
<g id="edge2_Node000001_Node000003" class="edge">
<title>Node3&#45;&gt;Node1</title>
<g id="a_edge2_Node000001_Node000003"><a xlink:title=" ">
<path fill="none" stroke="#63b8ff" d="M104,-349.86C104,-303.44 104,-198.76 104,-128.49"/>
<polygon fill="none" stroke="#63b8ff" points="104,-128.22 100,-122.22 104,-116.22 108,-122.22 104,-128.22"/>
</a>
</g>
<text text-anchor="middle" x="126.5" y="-137" font-family="Helvetica,sans-Serif" font-size="10.00" fill="grey"> +_sortId</text>
</g>
<!-- Node4 -->
<g id="Node000004" class="node">
<title>Node4</title>
<g id="a_Node000004"><a xlink:href="../../da/d9d/classSettingsOverlayOptionCategories__Layout.html" target="_top" xlink:title=" ">
<polygon fill="white" stroke="transparent" points="384,-586 134,-586 134,-163 384,-163 384,-586"/>
<text text-anchor="start" x="177.5" y="-573.5" font-family="Helvetica,sans-Serif" font-size="10.00">SettingsOverlayOptionCategories</text>
<text text-anchor="start" x="239.5" y="-562.5" font-family="Helvetica,sans-Serif" font-size="10.00">_Layout</text>
<text text-anchor="start" x="138" y="-547.5" font-family="Helvetica,sans-Serif" font-size="10.00">+</text>
<text text-anchor="start" x="151" y="-547.5" font-family="Helvetica,sans-Serif" font-size="10.00">SettingsOverlayOptionCategories</text>
<text text-anchor="start" x="151" y="-536.5" font-family="Helvetica,sans-Serif" font-size="10.00">_Layout.Setting InventoryPageMode</text>
<text text-anchor="start" x="138" y="-521.5" font-family="Helvetica,sans-Serif" font-size="10.00">+</text>
<text text-anchor="start" x="151" y="-521.5" font-family="Helvetica,sans-Serif" font-size="10.00">SettingsOverlayOptionCategories</text>
<text text-anchor="start" x="151" y="-510.5" font-family="Helvetica,sans-Serif" font-size="10.00">_Layout.Setting InterfaceProfile</text>
<text text-anchor="start" x="138" y="-495.5" font-family="Helvetica,sans-Serif" font-size="10.00">+</text>
<text text-anchor="start" x="151" y="-495.5" font-family="Helvetica,sans-Serif" font-size="10.00">SettingsOverlayOptionCategories</text>
<text text-anchor="start" x="151" y="-484.5" font-family="Helvetica,sans-Serif" font-size="10.00">_Layout.Setting ControllerAimSensitivity</text>
<text text-anchor="start" x="138" y="-469.5" font-family="Helvetica,sans-Serif" font-size="10.00">+</text>
<text text-anchor="start" x="151" y="-469.5" font-family="Helvetica,sans-Serif" font-size="10.00">SettingsOverlayOptionCategories</text>
<text text-anchor="start" x="151" y="-458.5" font-family="Helvetica,sans-Serif" font-size="10.00">_Layout.Setting ControllerInterface</text>
<text text-anchor="start" x="151" y="-447.5" font-family="Helvetica,sans-Serif" font-size="10.00">MovementDelay</text>
<text text-anchor="start" x="138" y="-432.5" font-family="Helvetica,sans-Serif" font-size="10.00">+</text>
<text text-anchor="start" x="151" y="-432.5" font-family="Helvetica,sans-Serif" font-size="10.00">SettingsOverlayOptionCategories</text>
<text text-anchor="start" x="151" y="-421.5" font-family="Helvetica,sans-Serif" font-size="10.00">_Layout.Setting ControllerInterface</text>
<text text-anchor="start" x="151" y="-410.5" font-family="Helvetica,sans-Serif" font-size="10.00">MovementRepeatDelay</text>
<text text-anchor="start" x="138" y="-395.5" font-family="Helvetica,sans-Serif" font-size="10.00">+</text>
<text text-anchor="start" x="151" y="-395.5" font-family="Helvetica,sans-Serif" font-size="10.00">SettingsOverlayOptionCategories</text>
<text text-anchor="start" x="151" y="-384.5" font-family="Helvetica,sans-Serif" font-size="10.00">_Layout.Setting ControllerSwapShoulder</text>
<text text-anchor="start" x="151" y="-373.5" font-family="Helvetica,sans-Serif" font-size="10.00">Buttons</text>
<text text-anchor="start" x="138" y="-358.5" font-family="Helvetica,sans-Serif" font-size="10.00">+</text>
<text text-anchor="start" x="151" y="-358.5" font-family="Helvetica,sans-Serif" font-size="10.00">SettingsOverlayOptionCategories</text>
<text text-anchor="start" x="151" y="-347.5" font-family="Helvetica,sans-Serif" font-size="10.00">_Layout.Setting ControllerShowControlsBanner</text>
<text text-anchor="start" x="138" y="-332.5" font-family="Helvetica,sans-Serif" font-size="10.00">+</text>
<text text-anchor="start" x="151" y="-332.5" font-family="Helvetica,sans-Serif" font-size="10.00">SettingsOverlayOptionCategories</text>
<text text-anchor="start" x="151" y="-321.5" font-family="Helvetica,sans-Serif" font-size="10.00">_Layout.Setting ControllerSmartCursorMode</text>
<text text-anchor="start" x="138" y="-306.5" font-family="Helvetica,sans-Serif" font-size="10.00">+</text>
<text text-anchor="start" x="151" y="-306.5" font-family="Helvetica,sans-Serif" font-size="10.00">SettingsOverlayOptionCategories</text>
<text text-anchor="start" x="151" y="-295.5" font-family="Helvetica,sans-Serif" font-size="10.00">_Layout.Setting ControllerAimAndUseMode</text>
<text text-anchor="start" x="138" y="-280.5" font-family="Helvetica,sans-Serif" font-size="10.00">+</text>
<text text-anchor="start" x="151" y="-280.5" font-family="Helvetica,sans-Serif" font-size="10.00">SettingsOverlayOptionCategories</text>
<text text-anchor="start" x="151" y="-269.5" font-family="Helvetica,sans-Serif" font-size="10.00">_Layout.Setting HorizontalInventory</text>
<text text-anchor="start" x="151" y="-254.5" font-family="Helvetica,sans-Serif" font-size="10.00">and 102 more...</text>
<text text-anchor="start" x="138" y="-239.5" font-family="Helvetica,sans-Serif" font-size="10.00">+</text>
<text text-anchor="start" x="151" y="-239.5" font-family="Helvetica,sans-Serif" font-size="10.00">void GetCategorySetup</text>
<text text-anchor="start" x="151" y="-228.5" font-family="Helvetica,sans-Serif" font-size="10.00">(GUISettingID id, out</text>
<text text-anchor="start" x="151" y="-217.5" font-family="Helvetica,sans-Serif" font-size="10.00"> SettingsOverlayOptionCategories</text>
<text text-anchor="start" x="151" y="-206.5" font-family="Helvetica,sans-Serif" font-size="10.00">_Layout.Category category, out</text>
<text text-anchor="start" x="151" y="-195.5" font-family="Helvetica,sans-Serif" font-size="10.00"> int sortOrder)</text>
<text text-anchor="start" x="138" y="-180.5" font-family="Helvetica,sans-Serif" font-size="10.00">+</text>
<text text-anchor="start" x="151" y="-180.5" font-family="Helvetica,sans-Serif" font-size="10.00">SettingsOverlayOptionCategories</text>
<text text-anchor="start" x="151" y="-169.5" font-family="Helvetica,sans-Serif" font-size="10.00">_Layout()</text>
<polygon fill="#666666" stroke="#666666" points="134,-557.5 134,-557.5 384,-557.5 384,-557.5 134,-557.5"/>
<polygon fill="#666666" stroke="#666666" points="134,-249.5 134,-249.5 149,-249.5 149,-249.5 134,-249.5"/>
<polygon fill="#666666" stroke="#666666" points="149,-249.5 149,-249.5 384,-249.5 384,-249.5 149,-249.5"/>
<polygon fill="none" stroke="#666666" points="134,-163 134,-586 384,-586 384,-163 134,-163"/>
</a>
</g>
</g>
<!-- Node4&#45;&gt;Node1 -->
<g id="edge3_Node000001_Node000004" class="edge">
<title>Node4&#45;&gt;Node1</title>
<g id="a_edge3_Node000001_Node000004"><a xlink:title=" ">
<path fill="none" stroke="#63b8ff" d="M168.14,-162.92C163.16,-153.07 158.1,-143.39 153,-134 151.65,-131.52 150.25,-129.02 148.81,-126.5"/>
<polygon fill="none" stroke="#63b8ff" points="148.8,-126.49 142.3,-123.36 142.69,-116.16 149.18,-119.28 148.8,-126.49"/>
</a>
</g>
<text text-anchor="middle" x="186" y="-137" font-family="Helvetica,sans-Serif" font-size="10.00" fill="grey"> +_category</text>
</g>
<!-- Node4&#45;&gt;Node4 -->
<g id="edge4_Node000004_Node000004" class="edge">
<title>Node4&#45;&gt;Node4</title>
<g id="a_edge4_Node000004_Node000004"><a xlink:title=" ">
<path fill="none" stroke="#63b8ff" d="M384.02,-409.05C395.07,-401.79 402,-390.27 402,-374.5 402,-363.66 398.73,-354.83 393.09,-348.01"/>
<polygon fill="none" stroke="#63b8ff" points="392.99,-347.92 385.85,-346.92 384.02,-339.95 391.16,-340.94 392.99,-347.92"/>
</a>
</g>
<text text-anchor="middle" x="470" y="-427" font-family="Helvetica,sans-Serif" font-size="10.00" fill="grey"> +ActiveVCProfile</text>
<text text-anchor="middle" x="470" y="-416" font-family="Helvetica,sans-Serif" font-size="10.00" fill="grey">+Ambient</text>
<text text-anchor="middle" x="470" y="-405" font-family="Helvetica,sans-Serif" font-size="10.00" fill="grey">+AutoPause</text>
<text text-anchor="middle" x="470" y="-394" font-family="Helvetica,sans-Serif" font-size="10.00" fill="grey">+AutoSave</text>
<text text-anchor="middle" x="470" y="-383" font-family="Helvetica,sans-Serif" font-size="10.00" fill="grey">+AutoSaveFrequency</text>
<text text-anchor="middle" x="470" y="-372" font-family="Helvetica,sans-Serif" font-size="10.00" fill="grey">+AutoSelectModeController</text>
<text text-anchor="middle" x="470" y="-361" font-family="Helvetica,sans-Serif" font-size="10.00" fill="grey">+AutoSelectModeKeyboard</text>
<text text-anchor="middle" x="470" y="-350" font-family="Helvetica,sans-Serif" font-size="10.00" fill="grey">+AutoSelectModeTouch</text>
<text text-anchor="middle" x="470" y="-339" font-family="Helvetica,sans-Serif" font-size="10.00" fill="grey">+AutoSwing</text>
<text text-anchor="middle" x="470" y="-328" font-family="Helvetica,sans-Serif" font-size="10.00" fill="grey">+BackgroundEnabled</text>
<text text-anchor="middle" x="470" y="-317" font-family="Helvetica,sans-Serif" font-size="10.00" fill="grey">...</text>
</g>
</g>
</svg>
