<?xml version="1.0" encoding="UTF-8" standalone="no"?>
<!DOCTYPE svg PUBLIC "-//W3C//DTD SVG 1.1//EN"
 "http://www.w3.org/Graphics/SVG/1.1/DTD/svg11.dtd">
<!-- Generated by graphviz version 2.43.0 (0)
 -->
<!-- Title: System.MulticastDelegate Pages: 1 -->
<svg width="600pt" height="641pt"
 viewBox="0.00 0.00 600.00 641.00" xmlns="http://www.w3.org/2000/svg" xmlns:xlink="http://www.w3.org/1999/xlink">
<g id="graph0" class="graph" transform="scale(1 1) rotate(0) translate(4 637)">
<title>System.MulticastDelegate</title>
<!-- Node1 -->
<g id="Node000001" class="node">
<title>Node1</title>
<g id="a_Node000001"><a xlink:title=" ">
<polygon fill="#999999" stroke="transparent" points="458.5,-548 157.5,-548 157.5,-229 458.5,-229 458.5,-548"/>
<text text-anchor="start" x="243.5" y="-535.5" font-family="Helvetica,sans-Serif" font-size="10.00">System.MulticastDelegate</text>
<text text-anchor="start" x="164.5" y="-520.5" font-family="Helvetica,sans-Serif" font-size="10.00">&#45;</text>
<text text-anchor="start" x="175" y="-520.5" font-family="Helvetica,sans-Serif" font-size="10.00">global::System.Delegate</text>
<text text-anchor="start" x="175" y="-509.5" font-family="Helvetica,sans-Serif" font-size="10.00">[] delegates</text>
<text text-anchor="start" x="162" y="-494.5" font-family="Helvetica,sans-Serif" font-size="10.00">+</text>
<text text-anchor="start" x="175" y="-494.5" font-family="Helvetica,sans-Serif" font-size="10.00">override void GetObjectData</text>
<text text-anchor="start" x="175" y="-483.5" font-family="Helvetica,sans-Serif" font-size="10.00">(global::System.Runtime.Serialization.</text>
<text text-anchor="start" x="175" y="-472.5" font-family="Helvetica,sans-Serif" font-size="10.00">SerializationInfo info, global::</text>
<text text-anchor="start" x="175" y="-461.5" font-family="Helvetica,sans-Serif" font-size="10.00">System.Runtime.Serialization.StreamingContext context)</text>
<text text-anchor="start" x="162" y="-446.5" font-family="Helvetica,sans-Serif" font-size="10.00">+</text>
<text text-anchor="start" x="175" y="-446.5" font-family="Helvetica,sans-Serif" font-size="10.00">override bool Equals</text>
<text text-anchor="start" x="175" y="-435.5" font-family="Helvetica,sans-Serif" font-size="10.00">(object obj)</text>
<text text-anchor="start" x="162" y="-420.5" font-family="Helvetica,sans-Serif" font-size="10.00">+</text>
<text text-anchor="start" x="175" y="-420.5" font-family="Helvetica,sans-Serif" font-size="10.00">override int GetHashCode()</text>
<text text-anchor="start" x="162" y="-405.5" font-family="Helvetica,sans-Serif" font-size="10.00">+</text>
<text text-anchor="start" x="175" y="-405.5" font-family="Helvetica,sans-Serif" font-size="10.00">override global::System.</text>
<text text-anchor="start" x="175" y="-394.5" font-family="Helvetica,sans-Serif" font-size="10.00">Delegate[] GetInvocationList()</text>
<text text-anchor="start" x="162" y="-379.5" font-family="Helvetica,sans-Serif" font-size="10.00">#</text>
<text text-anchor="start" x="175" y="-379.5" font-family="Helvetica,sans-Serif" font-size="10.00">override global::System.</text>
<text text-anchor="start" x="175" y="-368.5" font-family="Helvetica,sans-Serif" font-size="10.00">Reflection.MethodInfo</text>
<text text-anchor="start" x="175" y="-357.5" font-family="Helvetica,sans-Serif" font-size="10.00"> GetMethodImpl()</text>
<text text-anchor="start" x="162" y="-342.5" font-family="Helvetica,sans-Serif" font-size="10.00">#</text>
<text text-anchor="start" x="175" y="-342.5" font-family="Helvetica,sans-Serif" font-size="10.00">override global::System.</text>
<text text-anchor="start" x="175" y="-331.5" font-family="Helvetica,sans-Serif" font-size="10.00">Delegate CombineImpl(global</text>
<text text-anchor="start" x="175" y="-320.5" font-family="Helvetica,sans-Serif" font-size="10.00">::System.Delegate follow)</text>
<text text-anchor="start" x="162" y="-305.5" font-family="Helvetica,sans-Serif" font-size="10.00">#</text>
<text text-anchor="start" x="175" y="-305.5" font-family="Helvetica,sans-Serif" font-size="10.00">override global::System.</text>
<text text-anchor="start" x="175" y="-294.5" font-family="Helvetica,sans-Serif" font-size="10.00">Delegate RemoveImpl(global</text>
<text text-anchor="start" x="175" y="-283.5" font-family="Helvetica,sans-Serif" font-size="10.00">::System.Delegate value)</text>
<text text-anchor="start" x="164.5" y="-268.5" font-family="Helvetica,sans-Serif" font-size="10.00">&#45;</text>
<text text-anchor="start" x="175" y="-268.5" font-family="Helvetica,sans-Serif" font-size="10.00">int LastIndexOf(global</text>
<text text-anchor="start" x="175" y="-257.5" font-family="Helvetica,sans-Serif" font-size="10.00">::System.Delegate[] haystack,</text>
<text text-anchor="start" x="175" y="-246.5" font-family="Helvetica,sans-Serif" font-size="10.00"> global::System.Delegate[]</text>
<text text-anchor="start" x="175" y="-235.5" font-family="Helvetica,sans-Serif" font-size="10.00"> needle)</text>
<polygon fill="#666666" stroke="#666666" points="158,-530.5 158,-530.5 459,-530.5 459,-530.5 158,-530.5"/>
<polygon fill="#666666" stroke="#666666" points="158,-504.5 158,-504.5 173,-504.5 173,-504.5 158,-504.5"/>
<polygon fill="#666666" stroke="#666666" points="173,-504.5 173,-504.5 459,-504.5 459,-504.5 173,-504.5"/>
<polygon fill="none" stroke="#666666" points="157.5,-229 157.5,-548 458.5,-548 458.5,-229 157.5,-229"/>
</a>
</g>
</g>
<!-- Node3 -->
<g id="Node000003" class="node">
<title>Node3</title>
<g id="a_Node000003"><a xlink:href="../../d3/dac/classSystem_1_1Configuration_1_1SettingChangingEventHandler.html" target="_top" xlink:title=" ">
<polygon fill="white" stroke="transparent" points="204,-187.5 0,-187.5 0,-5.5 204,-5.5 204,-187.5"/>
<text text-anchor="start" x="30.5" y="-175.5" font-family="Helvetica,sans-Serif" font-size="10.00">System.Configuration.Setting</text>
<text text-anchor="start" x="46" y="-164.5" font-family="Helvetica,sans-Serif" font-size="10.00">ChangingEventHandler</text>
<text text-anchor="start" x="100" y="-149.5" font-family="Helvetica,sans-Serif" font-size="10.00"> </text>
<text text-anchor="start" x="4" y="-134.5" font-family="Helvetica,sans-Serif" font-size="10.00">+</text>
<text text-anchor="start" x="17" y="-134.5" font-family="Helvetica,sans-Serif" font-size="10.00">SettingChangingEventHandler</text>
<text text-anchor="start" x="17" y="-123.5" font-family="Helvetica,sans-Serif" font-size="10.00">(object @object, IntPtr method)</text>
<text text-anchor="start" x="4" y="-108.5" font-family="Helvetica,sans-Serif" font-size="10.00">+</text>
<text text-anchor="start" x="17" y="-108.5" font-family="Helvetica,sans-Serif" font-size="10.00">void Invoke(object</text>
<text text-anchor="start" x="17" y="-97.5" font-family="Helvetica,sans-Serif" font-size="10.00"> sender, SettingChangingEvent</text>
<text text-anchor="start" x="17" y="-86.5" font-family="Helvetica,sans-Serif" font-size="10.00">Args e)</text>
<text text-anchor="start" x="4" y="-71.5" font-family="Helvetica,sans-Serif" font-size="10.00">+</text>
<text text-anchor="start" x="17" y="-71.5" font-family="Helvetica,sans-Serif" font-size="10.00">IAsyncResult BeginInvoke</text>
<text text-anchor="start" x="17" y="-60.5" font-family="Helvetica,sans-Serif" font-size="10.00">(object sender, SettingChanging</text>
<text text-anchor="start" x="17" y="-49.5" font-family="Helvetica,sans-Serif" font-size="10.00">EventArgs e, AsyncCallback callback,</text>
<text text-anchor="start" x="17" y="-38.5" font-family="Helvetica,sans-Serif" font-size="10.00"> object @object)</text>
<text text-anchor="start" x="4" y="-23.5" font-family="Helvetica,sans-Serif" font-size="10.00">+</text>
<text text-anchor="start" x="17" y="-23.5" font-family="Helvetica,sans-Serif" font-size="10.00">void EndInvoke(IAsyncResult</text>
<text text-anchor="start" x="17" y="-12.5" font-family="Helvetica,sans-Serif" font-size="10.00"> result)</text>
<polygon fill="#666666" stroke="#666666" points="0,-159.5 0,-159.5 204,-159.5 204,-159.5 0,-159.5"/>
<polygon fill="#666666" stroke="#666666" points="0,-144.5 0,-144.5 204,-144.5 204,-144.5 0,-144.5"/>
<polygon fill="none" stroke="#666666" points="0,-5.5 0,-187.5 204,-187.5 204,-5.5 0,-5.5"/>
</a>
</g>
</g>
<!-- Node1&#45;&gt;Node3 -->
<g id="edge2_Node000001_Node000003" class="edge">
<title>Node1&#45;&gt;Node3</title>
<g id="a_edge2_Node000001_Node000003"><a xlink:title=" ">
<path fill="none" stroke="#63b8ff" d="M189.48,-220.66C181.45,-209.34 173.54,-198.21 165.96,-187.54"/>
<polygon fill="none" stroke="#63b8ff" points="186.71,-222.8 195.36,-228.92 192.42,-218.74 186.71,-222.8"/>
</a>
</g>
</g>
<!-- Node4 -->
<g id="Node000004" class="node">
<title>Node4</title>
<g id="a_Node000004"><a xlink:href="../../dc/d9e/classSystem_1_1Configuration_1_1SettingsLoadedEventHandler.html" target="_top" xlink:title=" ">
<polygon fill="white" stroke="transparent" points="394,-193 222,-193 222,0 394,0 394,-193"/>
<text text-anchor="start" x="234" y="-180.5" font-family="Helvetica,sans-Serif" font-size="10.00">System.Configuration.Settings</text>
<text text-anchor="start" x="257" y="-169.5" font-family="Helvetica,sans-Serif" font-size="10.00">LoadedEventHandler</text>
<text text-anchor="start" x="306" y="-154.5" font-family="Helvetica,sans-Serif" font-size="10.00"> </text>
<text text-anchor="start" x="226" y="-139.5" font-family="Helvetica,sans-Serif" font-size="10.00">+</text>
<text text-anchor="start" x="239" y="-139.5" font-family="Helvetica,sans-Serif" font-size="10.00">SettingsLoadedEventHandler</text>
<text text-anchor="start" x="239" y="-128.5" font-family="Helvetica,sans-Serif" font-size="10.00">(object @object, IntPtr</text>
<text text-anchor="start" x="239" y="-117.5" font-family="Helvetica,sans-Serif" font-size="10.00"> method)</text>
<text text-anchor="start" x="226" y="-102.5" font-family="Helvetica,sans-Serif" font-size="10.00">+</text>
<text text-anchor="start" x="239" y="-102.5" font-family="Helvetica,sans-Serif" font-size="10.00">void Invoke(object</text>
<text text-anchor="start" x="239" y="-91.5" font-family="Helvetica,sans-Serif" font-size="10.00"> sender, SettingsLoadedEvent</text>
<text text-anchor="start" x="239" y="-80.5" font-family="Helvetica,sans-Serif" font-size="10.00">Args e)</text>
<text text-anchor="start" x="226" y="-65.5" font-family="Helvetica,sans-Serif" font-size="10.00">+</text>
<text text-anchor="start" x="239" y="-65.5" font-family="Helvetica,sans-Serif" font-size="10.00">IAsyncResult BeginInvoke</text>
<text text-anchor="start" x="239" y="-54.5" font-family="Helvetica,sans-Serif" font-size="10.00">(object sender, SettingsLoaded</text>
<text text-anchor="start" x="239" y="-43.5" font-family="Helvetica,sans-Serif" font-size="10.00">EventArgs e, AsyncCallback</text>
<text text-anchor="start" x="239" y="-32.5" font-family="Helvetica,sans-Serif" font-size="10.00"> callback, object @object)</text>
<text text-anchor="start" x="226" y="-17.5" font-family="Helvetica,sans-Serif" font-size="10.00">+</text>
<text text-anchor="start" x="239" y="-17.5" font-family="Helvetica,sans-Serif" font-size="10.00">void EndInvoke(IAsyncResult</text>
<text text-anchor="start" x="239" y="-6.5" font-family="Helvetica,sans-Serif" font-size="10.00"> result)</text>
<polygon fill="#666666" stroke="#666666" points="222,-164.5 222,-164.5 394,-164.5 394,-164.5 222,-164.5"/>
<polygon fill="#666666" stroke="#666666" points="222,-149.5 222,-149.5 394,-149.5 394,-149.5 222,-149.5"/>
<polygon fill="none" stroke="#666666" points="222,0 222,-193 394,-193 394,0 222,0"/>
</a>
</g>
</g>
<!-- Node1&#45;&gt;Node4 -->
<g id="edge3_Node000001_Node000004" class="edge">
<title>Node1&#45;&gt;Node4</title>
<g id="a_edge3_Node000001_Node000004"><a xlink:title=" ">
<path fill="none" stroke="#63b8ff" d="M308,-218.7C308,-210.03 308,-201.47 308,-193.16"/>
<polygon fill="none" stroke="#63b8ff" points="304.5,-218.92 308,-228.92 311.5,-218.92 304.5,-218.92"/>
</a>
</g>
</g>
<!-- Node5 -->
<g id="Node000005" class="node">
<title>Node5</title>
<g id="a_Node000005"><a xlink:href="../../d9/de3/classSystem_1_1Configuration_1_1SettingsSavingEventHandler.html" target="_top" xlink:title=" ">
<polygon fill="white" stroke="transparent" points="592,-187.5 412,-187.5 412,-5.5 592,-5.5 592,-187.5"/>
<text text-anchor="start" x="428" y="-175.5" font-family="Helvetica,sans-Serif" font-size="10.00">System.Configuration.Settings</text>
<text text-anchor="start" x="452" y="-164.5" font-family="Helvetica,sans-Serif" font-size="10.00">SavingEventHandler</text>
<text text-anchor="start" x="500" y="-149.5" font-family="Helvetica,sans-Serif" font-size="10.00"> </text>
<text text-anchor="start" x="416" y="-134.5" font-family="Helvetica,sans-Serif" font-size="10.00">+</text>
<text text-anchor="start" x="429" y="-134.5" font-family="Helvetica,sans-Serif" font-size="10.00">SettingsSavingEventHandler</text>
<text text-anchor="start" x="429" y="-123.5" font-family="Helvetica,sans-Serif" font-size="10.00">(object @object, IntPtr</text>
<text text-anchor="start" x="429" y="-112.5" font-family="Helvetica,sans-Serif" font-size="10.00"> method)</text>
<text text-anchor="start" x="416" y="-97.5" font-family="Helvetica,sans-Serif" font-size="10.00">+</text>
<text text-anchor="start" x="429" y="-97.5" font-family="Helvetica,sans-Serif" font-size="10.00">void Invoke(object</text>
<text text-anchor="start" x="429" y="-86.5" font-family="Helvetica,sans-Serif" font-size="10.00"> sender, CancelEventArgs e)</text>
<text text-anchor="start" x="416" y="-71.5" font-family="Helvetica,sans-Serif" font-size="10.00">+</text>
<text text-anchor="start" x="429" y="-71.5" font-family="Helvetica,sans-Serif" font-size="10.00">IAsyncResult BeginInvoke</text>
<text text-anchor="start" x="429" y="-60.5" font-family="Helvetica,sans-Serif" font-size="10.00">(object sender, CancelEventArgs</text>
<text text-anchor="start" x="429" y="-49.5" font-family="Helvetica,sans-Serif" font-size="10.00"> e, AsyncCallback callback,</text>
<text text-anchor="start" x="429" y="-38.5" font-family="Helvetica,sans-Serif" font-size="10.00"> object @object)</text>
<text text-anchor="start" x="416" y="-23.5" font-family="Helvetica,sans-Serif" font-size="10.00">+</text>
<text text-anchor="start" x="429" y="-23.5" font-family="Helvetica,sans-Serif" font-size="10.00">void EndInvoke(IAsyncResult</text>
<text text-anchor="start" x="429" y="-12.5" font-family="Helvetica,sans-Serif" font-size="10.00"> result)</text>
<polygon fill="#666666" stroke="#666666" points="412,-159.5 412,-159.5 592,-159.5 592,-159.5 412,-159.5"/>
<polygon fill="#666666" stroke="#666666" points="412,-144.5 412,-144.5 592,-144.5 592,-144.5 412,-144.5"/>
<polygon fill="none" stroke="#666666" points="412,-5.5 412,-187.5 592,-187.5 592,-5.5 412,-5.5"/>
</a>
</g>
</g>
<!-- Node1&#45;&gt;Node5 -->
<g id="edge4_Node000001_Node000005" class="edge">
<title>Node1&#45;&gt;Node5</title>
<g id="a_edge4_Node000001_Node000005"><a xlink:title=" ">
<path fill="none" stroke="#63b8ff" d="M419.83,-220.33C427.33,-209.13 434.7,-198.11 441.76,-187.54"/>
<polygon fill="none" stroke="#63b8ff" points="416.73,-218.67 414.08,-228.92 422.55,-222.56 416.73,-218.67"/>
</a>
</g>
</g>
<!-- Node2 -->
<g id="Node000002" class="node">
<title>Node2</title>
<g id="a_Node000002"><a xlink:title=" ">
<polygon fill="white" stroke="transparent" points="372,-633 244,-633 244,-584 372,-584 372,-633"/>
<text text-anchor="start" x="249" y="-620.5" font-family="Helvetica,sans-Serif" font-size="10.00">global::SystemDelegate</text>
<text text-anchor="start" x="306" y="-605.5" font-family="Helvetica,sans-Serif" font-size="10.00"> </text>
<text text-anchor="start" x="306" y="-590.5" font-family="Helvetica,sans-Serif" font-size="10.00"> </text>
<polygon fill="#666666" stroke="#666666" points="244,-615.5 244,-615.5 372,-615.5 372,-615.5 244,-615.5"/>
<polygon fill="#666666" stroke="#666666" points="244,-600.5 244,-600.5 372,-600.5 372,-600.5 244,-600.5"/>
<polygon fill="none" stroke="#666666" points="244,-584 244,-633 372,-633 372,-584 244,-584"/>
</a>
</g>
</g>
<!-- Node2&#45;&gt;Node1 -->
<g id="edge1_Node000001_Node000002" class="edge">
<title>Node2&#45;&gt;Node1</title>
<g id="a_edge1_Node000001_Node000002"><a xlink:title=" ">
<path fill="none" stroke="#63b8ff" d="M308,-573.6C308,-565.94 308,-557.31 308,-548.08"/>
<polygon fill="none" stroke="#63b8ff" points="304.5,-573.76 308,-583.76 311.5,-573.76 304.5,-573.76"/>
</a>
</g>
</g>
</g>
</svg>
