<?xml version="1.0" encoding="UTF-8" standalone="no"?>
<!DOCTYPE svg PUBLIC "-//W3C//DTD SVG 1.1//EN"
 "http://www.w3.org/Graphics/SVG/1.1/DTD/svg11.dtd">
<!-- Generated by graphviz version 2.43.0 (0)
 -->
<!-- Title: System.ComponentModel.Component Pages: 1 -->
<svg width="809pt" height="1097pt"
 viewBox="0.00 0.00 809.12 1097.00" xmlns="http://www.w3.org/2000/svg" xmlns:xlink="http://www.w3.org/1999/xlink">
<g id="graph0" class="graph" transform="scale(1 1) rotate(0) translate(4 1093)">
<title>System.ComponentModel.Component</title>
<!-- Node1 -->
<g id="Node000001" class="node">
<title>Node1</title>
<g id="a_Node000001"><a xlink:title=" ">
<polygon fill="#999999" stroke="transparent" points="427.12,-251 231.12,-251 231.12,0 427.12,0 427.12,-251"/>
<text text-anchor="start" x="236.12" y="-238.5" font-family="Helvetica,sans-Serif" font-size="10.00">System.ComponentModel.Component</text>
<text text-anchor="start" x="243.62" y="-223.5" font-family="Helvetica,sans-Serif" font-size="10.00">+</text>
<text text-anchor="start" x="265.12" y="-223.5" font-family="Helvetica,sans-Serif" font-size="10.00">virtual bool CanRaiseEvents</text>
<text text-anchor="start" x="243.62" y="-208.5" font-family="Helvetica,sans-Serif" font-size="10.00">+</text>
<text text-anchor="start" x="265.12" y="-208.5" font-family="Helvetica,sans-Serif" font-size="10.00">bool CanRaiseEventsInternal</text>
<text text-anchor="start" x="243.62" y="-193.5" font-family="Helvetica,sans-Serif" font-size="10.00">+</text>
<text text-anchor="start" x="265.12" y="-193.5" font-family="Helvetica,sans-Serif" font-size="10.00">EventHandler Disposed</text>
<text text-anchor="start" x="243.62" y="-178.5" font-family="Helvetica,sans-Serif" font-size="10.00">+</text>
<text text-anchor="start" x="265.12" y="-178.5" font-family="Helvetica,sans-Serif" font-size="10.00">EventHandlerList Events</text>
<text text-anchor="start" x="243.62" y="-163.5" font-family="Helvetica,sans-Serif" font-size="10.00">+</text>
<text text-anchor="start" x="265.12" y="-163.5" font-family="Helvetica,sans-Serif" font-size="10.00">virtual ISite Site</text>
<text text-anchor="start" x="243.62" y="-148.5" font-family="Helvetica,sans-Serif" font-size="10.00">+</text>
<text text-anchor="start" x="265.12" y="-148.5" font-family="Helvetica,sans-Serif" font-size="10.00">IContainer Container</text>
<text text-anchor="start" x="243.62" y="-133.5" font-family="Helvetica,sans-Serif" font-size="10.00">+</text>
<text text-anchor="start" x="265.12" y="-133.5" font-family="Helvetica,sans-Serif" font-size="10.00">bool DesignMode</text>
<text text-anchor="start" x="243.62" y="-118.5" font-family="Helvetica,sans-Serif" font-size="10.00">+</text>
<text text-anchor="start" x="265.12" y="-118.5" font-family="Helvetica,sans-Serif" font-size="10.00">void Dispose()</text>
<text text-anchor="start" x="243.62" y="-103.5" font-family="Helvetica,sans-Serif" font-size="10.00">+</text>
<text text-anchor="start" x="265.12" y="-103.5" font-family="Helvetica,sans-Serif" font-size="10.00">override string ToString()</text>
<text text-anchor="start" x="243.62" y="-88.5" font-family="Helvetica,sans-Serif" font-size="10.00">+</text>
<text text-anchor="start" x="265.12" y="-88.5" font-family="Helvetica,sans-Serif" font-size="10.00">Component()</text>
<text text-anchor="start" x="243.62" y="-73.5" font-family="Helvetica,sans-Serif" font-size="10.00">#</text>
<text text-anchor="start" x="265.12" y="-73.5" font-family="Helvetica,sans-Serif" font-size="10.00">override void Finalize()</text>
<text text-anchor="start" x="243.62" y="-58.5" font-family="Helvetica,sans-Serif" font-size="10.00">#</text>
<text text-anchor="start" x="265.12" y="-58.5" font-family="Helvetica,sans-Serif" font-size="10.00">virtual void Dispose</text>
<text text-anchor="start" x="265.12" y="-47.5" font-family="Helvetica,sans-Serif" font-size="10.00">(bool disposing)</text>
<text text-anchor="start" x="243.62" y="-32.5" font-family="Helvetica,sans-Serif" font-size="10.00">#</text>
<text text-anchor="start" x="265.12" y="-32.5" font-family="Helvetica,sans-Serif" font-size="10.00">virtual object GetService</text>
<text text-anchor="start" x="265.12" y="-21.5" font-family="Helvetica,sans-Serif" font-size="10.00">(Type service)</text>
<text text-anchor="start" x="246.12" y="-6.5" font-family="Helvetica,sans-Serif" font-size="10.00">&#45;</text>
<text text-anchor="start" x="265.12" y="-6.5" font-family="Helvetica,sans-Serif" font-size="10.00">static Component()</text>
<polygon fill="#666666" stroke="#666666" points="231.12,-233.5 231.12,-233.5 427.12,-233.5 427.12,-233.5 231.12,-233.5"/>
<polygon fill="#666666" stroke="#666666" points="231.12,-128.5 231.12,-128.5 263.12,-128.5 263.12,-128.5 231.12,-128.5"/>
<polygon fill="#666666" stroke="#666666" points="263.12,-128.5 263.12,-128.5 427.12,-128.5 427.12,-128.5 263.12,-128.5"/>
<polygon fill="none" stroke="#666666" points="231.12,0 231.12,-251 427.12,-251 427.12,0 231.12,0"/>
</a>
</g>
</g>
<!-- Node2 -->
<g id="Node000002" class="node">
<title>Node2</title>
<g id="a_Node000002"><a xlink:href="../../d9/d0e/classSystem_1_1MarshalByRefObject.html" target="_top" xlink:title=" ">
<polygon fill="white" stroke="transparent" points="693.12,-982 491.12,-982 491.12,-859 693.12,-859 693.12,-982"/>
<text text-anchor="start" x="542.12" y="-969.5" font-family="Helvetica,sans-Serif" font-size="10.00">MarshalByRefObject</text>
<text text-anchor="start" x="495.12" y="-954.5" font-family="Helvetica,sans-Serif" font-size="10.00">+</text>
<text text-anchor="start" x="508.12" y="-954.5" font-family="Helvetica,sans-Serif" font-size="10.00">global::System.Runtime.Remoting.</text>
<text text-anchor="start" x="508.12" y="-943.5" font-family="Helvetica,sans-Serif" font-size="10.00">ServerIdentity ObjectIdentity</text>
<text text-anchor="start" x="495.12" y="-928.5" font-family="Helvetica,sans-Serif" font-size="10.00">+</text>
<text text-anchor="start" x="508.12" y="-928.5" font-family="Helvetica,sans-Serif" font-size="10.00">virtual global::System.Runtime.</text>
<text text-anchor="start" x="508.12" y="-917.5" font-family="Helvetica,sans-Serif" font-size="10.00">Remoting.ObjRef CreateObjRef</text>
<text text-anchor="start" x="508.12" y="-906.5" font-family="Helvetica,sans-Serif" font-size="10.00">(global::System.Type requestedType)</text>
<text text-anchor="start" x="495.12" y="-891.5" font-family="Helvetica,sans-Serif" font-size="10.00">+</text>
<text text-anchor="start" x="508.12" y="-891.5" font-family="Helvetica,sans-Serif" font-size="10.00">virtual object Initialize</text>
<text text-anchor="start" x="508.12" y="-880.5" font-family="Helvetica,sans-Serif" font-size="10.00">LifetimeService()</text>
<text text-anchor="start" x="495.12" y="-865.5" font-family="Helvetica,sans-Serif" font-size="10.00">#</text>
<text text-anchor="start" x="508.12" y="-865.5" font-family="Helvetica,sans-Serif" font-size="10.00">MarshalByRefObject()</text>
<polygon fill="#666666" stroke="#666666" points="491.12,-964.5 491.12,-964.5 693.12,-964.5 693.12,-964.5 491.12,-964.5"/>
<polygon fill="#666666" stroke="#666666" points="491.12,-938.5 491.12,-938.5 506.12,-938.5 506.12,-938.5 491.12,-938.5"/>
<polygon fill="#666666" stroke="#666666" points="506.12,-938.5 506.12,-938.5 693.12,-938.5 693.12,-938.5 506.12,-938.5"/>
<polygon fill="none" stroke="#666666" points="491.12,-859 491.12,-982 693.12,-982 693.12,-859 491.12,-859"/>
</a>
</g>
</g>
<!-- Node2&#45;&gt;Node1 -->
<g id="edge1_Node000001_Node000002" class="edge">
<title>Node2&#45;&gt;Node1</title>
<g id="a_edge1_Node000001_Node000002"><a xlink:title=" ">
<path fill="none" stroke="#63b8ff" d="M569.41,-849.21C532.07,-733.92 455.18,-497.52 388.12,-298 383,-282.78 377.58,-266.82 372.19,-251.01"/>
<polygon fill="none" stroke="#63b8ff" points="566.16,-850.54 572.57,-858.97 572.82,-848.38 566.16,-850.54"/>
</a>
</g>
</g>
<!-- Node9 -->
<g id="Node000009" class="node">
<title>Node9</title>
<g id="a_Node000009"><a xlink:href="../../d3/d9f/classSystem_1_1ComponentModel_1_1Component.html" target="_top" xlink:title=" ">
<polygon fill="white" stroke="transparent" points="341.12,-812 145.12,-812 145.12,-561 341.12,-561 341.12,-812"/>
<text text-anchor="start" x="150.12" y="-799.5" font-family="Helvetica,sans-Serif" font-size="10.00">System.ComponentModel.Component</text>
<text text-anchor="start" x="157.62" y="-784.5" font-family="Helvetica,sans-Serif" font-size="10.00">+</text>
<text text-anchor="start" x="179.12" y="-784.5" font-family="Helvetica,sans-Serif" font-size="10.00">virtual bool CanRaiseEvents</text>
<text text-anchor="start" x="157.62" y="-769.5" font-family="Helvetica,sans-Serif" font-size="10.00">+</text>
<text text-anchor="start" x="179.12" y="-769.5" font-family="Helvetica,sans-Serif" font-size="10.00">bool CanRaiseEventsInternal</text>
<text text-anchor="start" x="157.62" y="-754.5" font-family="Helvetica,sans-Serif" font-size="10.00">+</text>
<text text-anchor="start" x="179.12" y="-754.5" font-family="Helvetica,sans-Serif" font-size="10.00">EventHandler Disposed</text>
<text text-anchor="start" x="157.62" y="-739.5" font-family="Helvetica,sans-Serif" font-size="10.00">+</text>
<text text-anchor="start" x="179.12" y="-739.5" font-family="Helvetica,sans-Serif" font-size="10.00">EventHandlerList Events</text>
<text text-anchor="start" x="157.62" y="-724.5" font-family="Helvetica,sans-Serif" font-size="10.00">+</text>
<text text-anchor="start" x="179.12" y="-724.5" font-family="Helvetica,sans-Serif" font-size="10.00">virtual ISite Site</text>
<text text-anchor="start" x="157.62" y="-709.5" font-family="Helvetica,sans-Serif" font-size="10.00">+</text>
<text text-anchor="start" x="179.12" y="-709.5" font-family="Helvetica,sans-Serif" font-size="10.00">IContainer Container</text>
<text text-anchor="start" x="157.62" y="-694.5" font-family="Helvetica,sans-Serif" font-size="10.00">+</text>
<text text-anchor="start" x="179.12" y="-694.5" font-family="Helvetica,sans-Serif" font-size="10.00">bool DesignMode</text>
<text text-anchor="start" x="157.62" y="-679.5" font-family="Helvetica,sans-Serif" font-size="10.00">+</text>
<text text-anchor="start" x="179.12" y="-679.5" font-family="Helvetica,sans-Serif" font-size="10.00">void Dispose()</text>
<text text-anchor="start" x="157.62" y="-664.5" font-family="Helvetica,sans-Serif" font-size="10.00">+</text>
<text text-anchor="start" x="179.12" y="-664.5" font-family="Helvetica,sans-Serif" font-size="10.00">override string ToString()</text>
<text text-anchor="start" x="157.62" y="-649.5" font-family="Helvetica,sans-Serif" font-size="10.00">+</text>
<text text-anchor="start" x="179.12" y="-649.5" font-family="Helvetica,sans-Serif" font-size="10.00">Component()</text>
<text text-anchor="start" x="157.62" y="-634.5" font-family="Helvetica,sans-Serif" font-size="10.00">#</text>
<text text-anchor="start" x="179.12" y="-634.5" font-family="Helvetica,sans-Serif" font-size="10.00">override void Finalize()</text>
<text text-anchor="start" x="157.62" y="-619.5" font-family="Helvetica,sans-Serif" font-size="10.00">#</text>
<text text-anchor="start" x="179.12" y="-619.5" font-family="Helvetica,sans-Serif" font-size="10.00">virtual void Dispose</text>
<text text-anchor="start" x="179.12" y="-608.5" font-family="Helvetica,sans-Serif" font-size="10.00">(bool disposing)</text>
<text text-anchor="start" x="157.62" y="-593.5" font-family="Helvetica,sans-Serif" font-size="10.00">#</text>
<text text-anchor="start" x="179.12" y="-593.5" font-family="Helvetica,sans-Serif" font-size="10.00">virtual object GetService</text>
<text text-anchor="start" x="179.12" y="-582.5" font-family="Helvetica,sans-Serif" font-size="10.00">(Type service)</text>
<text text-anchor="start" x="160.12" y="-567.5" font-family="Helvetica,sans-Serif" font-size="10.00">&#45;</text>
<text text-anchor="start" x="179.12" y="-567.5" font-family="Helvetica,sans-Serif" font-size="10.00">static Component()</text>
<polygon fill="#666666" stroke="#666666" points="145.12,-794.5 145.12,-794.5 341.12,-794.5 341.12,-794.5 145.12,-794.5"/>
<polygon fill="#666666" stroke="#666666" points="145.12,-689.5 145.12,-689.5 177.12,-689.5 177.12,-689.5 145.12,-689.5"/>
<polygon fill="#666666" stroke="#666666" points="177.12,-689.5 177.12,-689.5 341.12,-689.5 341.12,-689.5 177.12,-689.5"/>
<polygon fill="none" stroke="#666666" points="145.12,-561 145.12,-812 341.12,-812 341.12,-561 145.12,-561"/>
</a>
</g>
</g>
<!-- Node2&#45;&gt;Node9 -->
<g id="edge13_Node000009_Node000002" class="edge">
<title>Node2&#45;&gt;Node9</title>
<g id="a_edge13_Node000009_Node000002"><a xlink:title=" ">
<path fill="none" stroke="#63b8ff" d="M492.43,-853.23C444.98,-821.69 388.41,-784.08 341.17,-752.68"/>
<polygon fill="none" stroke="#63b8ff" points="490.61,-856.23 500.88,-858.85 494.49,-850.4 490.61,-856.23"/>
</a>
</g>
</g>
<!-- Node3 -->
<g id="Node000003" class="node">
<title>Node3</title>
<g id="a_Node000003"><a xlink:title=" ">
<polygon fill="white" stroke="transparent" points="612.62,-1083.5 571.62,-1083.5 571.62,-1034.5 612.62,-1034.5 612.62,-1083.5"/>
<text text-anchor="start" x="577.12" y="-1071" font-family="Helvetica,sans-Serif" font-size="10.00">object</text>
<text text-anchor="start" x="590.62" y="-1056" font-family="Helvetica,sans-Serif" font-size="10.00"> </text>
<text text-anchor="start" x="590.62" y="-1041" font-family="Helvetica,sans-Serif" font-size="10.00"> </text>
<polygon fill="#666666" stroke="#666666" points="572.12,-1066 572.12,-1066 613.12,-1066 613.12,-1066 572.12,-1066"/>
<polygon fill="#666666" stroke="#666666" points="572.12,-1051 572.12,-1051 613.12,-1051 613.12,-1051 572.12,-1051"/>
<polygon fill="none" stroke="#666666" points="571.62,-1034.5 571.62,-1083.5 612.62,-1083.5 612.62,-1034.5 571.62,-1034.5"/>
</a>
</g>
</g>
<!-- Node3&#45;&gt;Node1 -->
<g id="edge6_Node000001_Node000003" class="edge">
<title>Node3&#45;&gt;Node1</title>
<g id="a_edge6_Node000001_Node000003"><a xlink:title=" ">
<path fill="none" stroke="#63b8ff" d="M612.66,-1048.99C637.4,-1037.13 678.57,-1013.95 702.12,-982 718.84,-959.31 721.12,-949.68 721.12,-921.5 721.12,-921.5 721.12,-921.5 721.12,-405 721.12,-265.87 555,-189.86 439.04,-153.75"/>
<polygon fill="none" stroke="#63b8ff" points="438.76,-153.67 431.85,-155.75 427.28,-150.17 434.18,-148.09 438.76,-153.67"/>
</a>
</g>
<text text-anchor="middle" x="761.12" y="-684" font-family="Helvetica,sans-Serif" font-size="10.00" fill="grey"> &#45;EventDisposed</text>
</g>
<!-- Node3&#45;&gt;Node2 -->
<g id="edge2_Node000002_Node000003" class="edge">
<title>Node3&#45;&gt;Node2</title>
<g id="a_edge2_Node000002_Node000003"><a xlink:title=" ">
<path fill="none" stroke="#63b8ff" d="M592.12,-1034.22C592.12,-1022.95 592.12,-1008.8 592.12,-994.37"/>
<polygon fill="none" stroke="#63b8ff" points="592.12,-994.25 588.12,-988.25 592.12,-982.25 596.12,-988.25 592.12,-994.25"/>
</a>
</g>
<text text-anchor="middle" x="617.12" y="-1003" font-family="Helvetica,sans-Serif" font-size="10.00" fill="grey"> &#45;_identity</text>
</g>
<!-- Node3&#45;&gt;Node9 -->
<g id="edge16_Node000009_Node000003" class="edge">
<title>Node3&#45;&gt;Node9</title>
<g id="a_edge16_Node000009_Node000003"><a xlink:title=" ">
<path fill="none" stroke="#63b8ff" d="M571.34,-1055.63C532.37,-1050.08 448.11,-1032.62 402.12,-982 363.82,-939.84 391.07,-910.2 366.12,-859 360.22,-846.9 353.49,-834.74 346.27,-822.79"/>
<polygon fill="none" stroke="#63b8ff" points="346.12,-822.55 339.57,-819.55 339.82,-812.34 346.37,-815.34 346.12,-822.55"/>
</a>
</g>
<text text-anchor="middle" x="442.12" y="-918" font-family="Helvetica,sans-Serif" font-size="10.00" fill="grey"> &#45;EventDisposed</text>
</g>
<!-- Node4 -->
<g id="Node000004" class="node">
<title>Node4</title>
<g id="a_Node000004"><a xlink:href="../../d5/dbe/interfaceSystem_1_1ComponentModel_1_1IComponent.html" target="_top" xlink:title=" ">
<polygon fill="white" stroke="transparent" points="98.12,-945 28.12,-945 28.12,-896 98.12,-896 98.12,-945"/>
<text text-anchor="start" x="33.12" y="-932.5" font-family="Helvetica,sans-Serif" font-size="10.00">IComponent</text>
<text text-anchor="start" x="33.12" y="-917.5" font-family="Helvetica,sans-Serif" font-size="10.00">+</text>
<text text-anchor="start" x="47.12" y="-917.5" font-family="Helvetica,sans-Serif" font-size="10.00">ISite Site</text>
<text text-anchor="start" x="61.12" y="-902.5" font-family="Helvetica,sans-Serif" font-size="10.00"> </text>
<polygon fill="#666666" stroke="#666666" points="28.12,-927.5 28.12,-927.5 98.12,-927.5 98.12,-927.5 28.12,-927.5"/>
<polygon fill="#666666" stroke="#666666" points="28.12,-912.5 28.12,-912.5 45.12,-912.5 45.12,-912.5 28.12,-912.5"/>
<polygon fill="#666666" stroke="#666666" points="45.12,-912.5 45.12,-912.5 98.12,-912.5 98.12,-912.5 45.12,-912.5"/>
<polygon fill="none" stroke="#666666" points="28.12,-896 28.12,-945 98.12,-945 98.12,-896 28.12,-896"/>
</a>
</g>
</g>
<!-- Node4&#45;&gt;Node1 -->
<g id="edge3_Node000001_Node000004" class="edge">
<title>Node4&#45;&gt;Node1</title>
<g id="a_edge3_Node000001_Node000004"><a xlink:title=" ">
<path fill="none" stroke="#63b8ff" d="M55.35,-885.98C34.57,-788.22 -13.72,-497.72 94.12,-298 124.12,-242.45 180.85,-200.26 231.05,-171.62"/>
<polygon fill="none" stroke="#63b8ff" points="51.96,-886.86 57.5,-895.89 58.8,-885.37 51.96,-886.86"/>
</a>
</g>
</g>
<!-- Node4&#45;&gt;Node9 -->
<g id="edge14_Node000009_Node000004" class="edge">
<title>Node4&#45;&gt;Node9</title>
<g id="a_edge14_Node000009_Node000004"><a xlink:title=" ">
<path fill="none" stroke="#63b8ff" d="M87.68,-887.84C103.25,-867.77 124.52,-840.37 146.31,-812.27"/>
<polygon fill="none" stroke="#63b8ff" points="84.73,-885.93 81.37,-895.98 90.27,-890.22 84.73,-885.93"/>
</a>
</g>
</g>
<!-- Node5 -->
<g id="Node000005" class="node">
<title>Node5</title>
<g id="a_Node000005"><a xlink:href="../../d6/d32/interfaceSystem_1_1IDisposable.html" target="_top" xlink:title=" ">
<polygon fill="white" stroke="transparent" points="141.12,-1083.5 49.12,-1083.5 49.12,-1034.5 141.12,-1034.5 141.12,-1083.5"/>
<text text-anchor="start" x="66.12" y="-1071" font-family="Helvetica,sans-Serif" font-size="10.00">IDisposable</text>
<text text-anchor="start" x="93.12" y="-1056" font-family="Helvetica,sans-Serif" font-size="10.00"> </text>
<text text-anchor="start" x="53.12" y="-1041" font-family="Helvetica,sans-Serif" font-size="10.00">+</text>
<text text-anchor="start" x="66.12" y="-1041" font-family="Helvetica,sans-Serif" font-size="10.00">void Dispose()</text>
<polygon fill="#666666" stroke="#666666" points="49.12,-1066 49.12,-1066 141.12,-1066 141.12,-1066 49.12,-1066"/>
<polygon fill="#666666" stroke="#666666" points="49.12,-1051 49.12,-1051 141.12,-1051 141.12,-1051 49.12,-1051"/>
<polygon fill="none" stroke="#666666" points="49.12,-1034.5 49.12,-1083.5 141.12,-1083.5 141.12,-1034.5 49.12,-1034.5"/>
</a>
</g>
</g>
<!-- Node5&#45;&gt;Node1 -->
<g id="edge5_Node000001_Node000005" class="edge">
<title>Node5&#45;&gt;Node1</title>
<g id="a_edge5_Node000001_Node000005"><a xlink:title=" ">
<path fill="none" stroke="#63b8ff" d="M57.77,-1027.53C44.02,-1014.69 29.32,-998.83 19.12,-982 4.51,-957.9 0.12,-949.68 0.12,-921.5 0.12,-921.5 0.12,-921.5 0.12,-405 0.12,-355.84 -1.8,-337 28.12,-298 79.28,-231.31 164.29,-186.33 230.94,-159.22"/>
<polygon fill="none" stroke="#63b8ff" points="55.52,-1030.21 65.28,-1034.33 60.22,-1025.03 55.52,-1030.21"/>
</a>
</g>
</g>
<!-- Node5&#45;&gt;Node4 -->
<g id="edge4_Node000004_Node000005" class="edge">
<title>Node5&#45;&gt;Node4</title>
<g id="a_edge4_Node000004_Node000005"><a xlink:title=" ">
<path fill="none" stroke="#63b8ff" d="M87.2,-1024.22C81.43,-999.59 73.75,-966.84 68.63,-945"/>
<polygon fill="none" stroke="#63b8ff" points="83.86,-1025.29 89.55,-1034.22 90.67,-1023.69 83.86,-1025.29"/>
</a>
</g>
</g>
<!-- Node8 -->
<g id="Node000008" class="node">
<title>Node8</title>
<g id="a_Node000008"><a xlink:href="../../d9/da3/classSystem_1_1ComponentModel_1_1EventHandlerList.html" target="_top" xlink:title=" ">
<polygon fill="white" stroke="transparent" points="281.12,-514 103.12,-514 103.12,-298 281.12,-298 281.12,-514"/>
<text text-anchor="start" x="113.62" y="-502" font-family="Helvetica,sans-Serif" font-size="10.00">System.ComponentModel.Event</text>
<text text-anchor="start" x="164.12" y="-491" font-family="Helvetica,sans-Serif" font-size="10.00">HandlerList</text>
<text text-anchor="start" x="107.12" y="-476" font-family="Helvetica,sans-Serif" font-size="10.00">+</text>
<text text-anchor="start" x="120.12" y="-476" font-family="Helvetica,sans-Serif" font-size="10.00">Delegate this[object key]</text>
<text text-anchor="start" x="107.12" y="-461" font-family="Helvetica,sans-Serif" font-size="10.00">+</text>
<text text-anchor="start" x="120.12" y="-461" font-family="Helvetica,sans-Serif" font-size="10.00">EventHandlerList()</text>
<text text-anchor="start" x="107.12" y="-446" font-family="Helvetica,sans-Serif" font-size="10.00">+</text>
<text text-anchor="start" x="120.12" y="-446" font-family="Helvetica,sans-Serif" font-size="10.00">void AddHandler(object</text>
<text text-anchor="start" x="120.12" y="-435" font-family="Helvetica,sans-Serif" font-size="10.00"> key, Delegate value)</text>
<text text-anchor="start" x="107.12" y="-420" font-family="Helvetica,sans-Serif" font-size="10.00">+</text>
<text text-anchor="start" x="120.12" y="-420" font-family="Helvetica,sans-Serif" font-size="10.00">void AddHandlers(EventHandler</text>
<text text-anchor="start" x="120.12" y="-409" font-family="Helvetica,sans-Serif" font-size="10.00">List listToAddFrom)</text>
<text text-anchor="start" x="107.12" y="-394" font-family="Helvetica,sans-Serif" font-size="10.00">+</text>
<text text-anchor="start" x="120.12" y="-394" font-family="Helvetica,sans-Serif" font-size="10.00">void Dispose()</text>
<text text-anchor="start" x="107.12" y="-379" font-family="Helvetica,sans-Serif" font-size="10.00">+</text>
<text text-anchor="start" x="120.12" y="-379" font-family="Helvetica,sans-Serif" font-size="10.00">void RemoveHandler</text>
<text text-anchor="start" x="120.12" y="-368" font-family="Helvetica,sans-Serif" font-size="10.00">(object key, Delegate</text>
<text text-anchor="start" x="120.12" y="-357" font-family="Helvetica,sans-Serif" font-size="10.00"> value)</text>
<text text-anchor="start" x="107.12" y="-342" font-family="Helvetica,sans-Serif" font-size="10.00">~</text>
<text text-anchor="start" x="120.12" y="-342" font-family="Helvetica,sans-Serif" font-size="10.00">EventHandlerList(Component</text>
<text text-anchor="start" x="120.12" y="-331" font-family="Helvetica,sans-Serif" font-size="10.00"> parent)</text>
<text text-anchor="start" x="109.62" y="-316" font-family="Helvetica,sans-Serif" font-size="10.00">&#45;</text>
<text text-anchor="start" x="120.12" y="-316" font-family="Helvetica,sans-Serif" font-size="10.00">EventHandlerList.ListEntry</text>
<text text-anchor="start" x="120.12" y="-305" font-family="Helvetica,sans-Serif" font-size="10.00"> Find(object key)</text>
<polygon fill="#666666" stroke="#666666" points="103.12,-486 103.12,-486 281.12,-486 281.12,-486 103.12,-486"/>
<polygon fill="#666666" stroke="#666666" points="103.12,-471 103.12,-471 118.12,-471 118.12,-471 103.12,-471"/>
<polygon fill="#666666" stroke="#666666" points="118.12,-471 118.12,-471 281.12,-471 281.12,-471 118.12,-471"/>
<polygon fill="none" stroke="#666666" points="103.12,-298 103.12,-514 281.12,-514 281.12,-298 103.12,-298"/>
</a>
</g>
</g>
<!-- Node5&#45;&gt;Node8 -->
<g id="edge10_Node000008_Node000005" class="edge">
<title>Node5&#45;&gt;Node8</title>
<g id="a_edge10_Node000008_Node000005"><a xlink:title=" ">
<path fill="none" stroke="#63b8ff" d="M101.08,-1024.39C103.24,-1011.21 105.54,-995.93 107.12,-982 128.21,-795.64 97.25,-744.48 136.12,-561 139.36,-545.69 143.8,-529.85 148.76,-514.42"/>
<polygon fill="none" stroke="#63b8ff" points="97.59,-1024.01 99.39,-1034.45 104.5,-1025.17 97.59,-1024.01"/>
</a>
</g>
</g>
<!-- Node5&#45;&gt;Node9 -->
<g id="edge15_Node000009_Node000005" class="edge">
<title>Node5&#45;&gt;Node9</title>
<g id="a_edge15_Node000009_Node000005"><a xlink:title=" ">
<path fill="none" stroke="#63b8ff" d="M128.66,-1026.88C132.92,-1021.87 136.9,-1016.5 140.12,-1011 175.73,-950.06 164.77,-926.27 186.12,-859 190.91,-843.9 196.03,-828.08 201.17,-812.42"/>
<polygon fill="none" stroke="#63b8ff" points="125.93,-1024.68 121.81,-1034.45 131.12,-1029.38 125.93,-1024.68"/>
</a>
</g>
</g>
<!-- Node6 -->
<g id="Node000006" class="node">
<title>Node6</title>
<g id="a_Node000006"><a xlink:href="../../d4/d32/interfaceSystem_1_1ComponentModel_1_1ISite.html" target="_top" xlink:title=" ">
<polygon fill="white" stroke="transparent" points="356.62,-967.5 195.62,-967.5 195.62,-873.5 356.62,-873.5 356.62,-967.5"/>
<text text-anchor="start" x="201.12" y="-955.5" font-family="Helvetica,sans-Serif" font-size="10.00">System.ComponentModel.ISite</text>
<text text-anchor="start" x="205.12" y="-940.5" font-family="Helvetica,sans-Serif" font-size="10.00">+</text>
<text text-anchor="start" x="223.12" y="-940.5" font-family="Helvetica,sans-Serif" font-size="10.00">IComponent Component</text>
<text text-anchor="start" x="205.12" y="-925.5" font-family="Helvetica,sans-Serif" font-size="10.00">+</text>
<text text-anchor="start" x="223.12" y="-925.5" font-family="Helvetica,sans-Serif" font-size="10.00">IContainer Container</text>
<text text-anchor="start" x="205.12" y="-910.5" font-family="Helvetica,sans-Serif" font-size="10.00">+</text>
<text text-anchor="start" x="223.12" y="-910.5" font-family="Helvetica,sans-Serif" font-size="10.00">bool DesignMode</text>
<text text-anchor="start" x="205.12" y="-895.5" font-family="Helvetica,sans-Serif" font-size="10.00">+</text>
<text text-anchor="start" x="223.12" y="-895.5" font-family="Helvetica,sans-Serif" font-size="10.00">string Name</text>
<text text-anchor="start" x="274.62" y="-880.5" font-family="Helvetica,sans-Serif" font-size="10.00"> </text>
<polygon fill="#666666" stroke="#666666" points="196.12,-950.5 196.12,-950.5 357.12,-950.5 357.12,-950.5 196.12,-950.5"/>
<polygon fill="#666666" stroke="#666666" points="196.12,-890.5 196.12,-890.5 221.12,-890.5 221.12,-890.5 196.12,-890.5"/>
<polygon fill="#666666" stroke="#666666" points="221.12,-890.5 221.12,-890.5 357.12,-890.5 357.12,-890.5 221.12,-890.5"/>
<polygon fill="none" stroke="#666666" points="195.62,-873.5 195.62,-967.5 356.62,-967.5 356.62,-873.5 195.62,-873.5"/>
</a>
</g>
</g>
<!-- Node6&#45;&gt;Node1 -->
<g id="edge7_Node000001_Node000006" class="edge">
<title>Node6&#45;&gt;Node1</title>
<g id="a_edge7_Node000001_Node000006"><a xlink:title=" ">
<path fill="none" stroke="#63b8ff" d="M316.99,-873.29C330.25,-855.41 343.29,-833.96 350.12,-812 407.14,-628.61 383.97,-404.18 359.02,-263.23"/>
<polygon fill="none" stroke="#63b8ff" points="358.97,-262.93 353.97,-257.74 356.84,-251.12 361.84,-256.32 358.97,-262.93"/>
</a>
</g>
<text text-anchor="middle" x="397.62" y="-535" font-family="Helvetica,sans-Serif" font-size="10.00" fill="grey"> &#45;site</text>
</g>
<!-- Node6&#45;&gt;Node9 -->
<g id="edge17_Node000009_Node000006" class="edge">
<title>Node6&#45;&gt;Node9</title>
<g id="a_edge17_Node000009_Node000006"><a xlink:title=" ">
<path fill="none" stroke="#63b8ff" d="M269.56,-873.39C267.49,-858.82 265.08,-841.91 262.59,-824.35"/>
<polygon fill="none" stroke="#63b8ff" points="262.58,-824.3 257.77,-818.92 260.89,-812.42 265.69,-817.79 262.58,-824.3"/>
</a>
</g>
<text text-anchor="middle" x="277.62" y="-833" font-family="Helvetica,sans-Serif" font-size="10.00" fill="grey"> &#45;site</text>
</g>
<!-- Node7 -->
<g id="Node000007" class="node">
<title>Node7</title>
<g id="a_Node000007"><a xlink:href="../../d7/d65/interfaceSystem_1_1IServiceProvider.html" target="_top" xlink:title=" ">
<polygon fill="white" stroke="transparent" points="353.12,-1089 199.12,-1089 199.12,-1029 353.12,-1029 353.12,-1089"/>
<text text-anchor="start" x="236.12" y="-1077" font-family="Helvetica,sans-Serif" font-size="10.00">IServiceProvider</text>
<text text-anchor="start" x="274.12" y="-1062" font-family="Helvetica,sans-Serif" font-size="10.00"> </text>
<text text-anchor="start" x="203.12" y="-1047" font-family="Helvetica,sans-Serif" font-size="10.00">+</text>
<text text-anchor="start" x="216.12" y="-1047" font-family="Helvetica,sans-Serif" font-size="10.00">object GetService(global</text>
<text text-anchor="start" x="216.12" y="-1036" font-family="Helvetica,sans-Serif" font-size="10.00">::System.Type serviceType)</text>
<polygon fill="#666666" stroke="#666666" points="199.12,-1072 199.12,-1072 353.12,-1072 353.12,-1072 199.12,-1072"/>
<polygon fill="#666666" stroke="#666666" points="199.12,-1057 199.12,-1057 353.12,-1057 353.12,-1057 199.12,-1057"/>
<polygon fill="none" stroke="#666666" points="199.12,-1029 199.12,-1089 353.12,-1089 353.12,-1029 199.12,-1029"/>
</a>
</g>
</g>
<!-- Node7&#45;&gt;Node6 -->
<g id="edge8_Node000006_Node000007" class="edge">
<title>Node7&#45;&gt;Node6</title>
<g id="a_edge8_Node000006_Node000007"><a xlink:title=" ">
<path fill="none" stroke="#63b8ff" d="M276.12,-1018.67C276.12,-1002.73 276.12,-984.22 276.12,-967.65"/>
<polygon fill="none" stroke="#63b8ff" points="272.62,-1018.72 276.12,-1028.72 279.62,-1018.72 272.62,-1018.72"/>
</a>
</g>
</g>
<!-- Node8&#45;&gt;Node1 -->
<g id="edge9_Node000001_Node000008" class="edge">
<title>Node8&#45;&gt;Node1</title>
<g id="a_edge9_Node000001_Node000008"><a xlink:title=" ">
<path fill="none" stroke="#63b8ff" d="M244.89,-297.72C250.61,-286.11 256.47,-274.18 262.32,-262.29"/>
<polygon fill="none" stroke="#63b8ff" points="262.39,-262.15 261.45,-255 267.69,-251.38 268.63,-258.53 262.39,-262.15"/>
</a>
</g>
<text text-anchor="middle" x="277.12" y="-272" font-family="Helvetica,sans-Serif" font-size="10.00" fill="grey"> &#45;events</text>
</g>
<!-- Node8&#45;&gt;Node8 -->
<g id="edge11_Node000008_Node000008" class="edge">
<title>Node8&#45;&gt;Node8</title>
<g id="a_edge11_Node000008_Node000008"><a xlink:title=" ">
<path fill="none" stroke="#63b8ff" d="M281.49,-426.95C292.15,-423.14 299.12,-416.16 299.12,-406 299.12,-399.81 296.53,-394.8 292.1,-390.97"/>
<polygon fill="none" stroke="#63b8ff" points="291.97,-390.9 284.78,-391.47 281.49,-385.05 288.68,-384.48 291.97,-390.9"/>
</a>
</g>
<text text-anchor="middle" x="317.62" y="-403.5" font-family="Helvetica,sans-Serif" font-size="10.00" fill="grey"> &#45;_head</text>
</g>
<!-- Node8&#45;&gt;Node9 -->
<g id="edge18_Node000009_Node000008" class="edge">
<title>Node8&#45;&gt;Node9</title>
<g id="a_edge18_Node000009_Node000008"><a xlink:title=" ">
<path fill="none" stroke="#63b8ff" d="M223.38,-514.11C224.74,-520.14 226,-526.13 227.12,-532 228.18,-537.55 229.17,-543.22 230.1,-548.97"/>
<polygon fill="none" stroke="#63b8ff" points="230.1,-548.97 234.97,-554.29 231.92,-560.83 227.06,-555.51 230.1,-548.97"/>
</a>
</g>
<text text-anchor="middle" x="249.12" y="-535" font-family="Helvetica,sans-Serif" font-size="10.00" fill="grey"> &#45;events</text>
</g>
<!-- Node9&#45;&gt;Node8 -->
<g id="edge12_Node000008_Node000009" class="edge">
<title>Node9&#45;&gt;Node8</title>
<g id="a_edge12_Node000008_Node000009"><a xlink:title=" ">
<path fill="none" stroke="#63b8ff" d="M187.41,-560.88C185.76,-554.9 184.32,-548.92 183.12,-543 182.04,-537.64 181.22,-532.13 180.64,-526.56"/>
<polygon fill="none" stroke="#63b8ff" points="180.61,-526.23 176.17,-520.55 179.71,-514.26 184.15,-519.94 180.61,-526.23"/>
</a>
</g>
<text text-anchor="middle" x="205.12" y="-535" font-family="Helvetica,sans-Serif" font-size="10.00" fill="grey"> &#45;_parent</text>
</g>
</g>
</svg>
