<?xml version="1.0" encoding="UTF-8" standalone="no"?>
<!DOCTYPE svg PUBLIC "-//W3C//DTD SVG 1.1//EN"
 "http://www.w3.org/Graphics/SVG/1.1/DTD/svg11.dtd">
<!-- Generated by graphviz version 2.43.0 (0)
 -->
<!-- Title: System.Runtime.Serialization.SerializationObjectManager Pages: 1 -->
<!--zoomable 460 -->

<svg id="main" version="1.1" xmlns="http://www.w3.org/2000/svg" xmlns:xlink="http://www.w3.org/1999/xlink" xml:space="preserve" onload="init(evt)">
<style type="text/css"><![CDATA[
.node, .edge {opacity: 0.7;}
.node.selected, .edge.selected {opacity: 1;}
.edge:hover path { stroke: red; }
.edge:hover polygon { stroke: red; fill: red; }
]]></style>

<defs>
  <circle id="rim" cx="0" cy="0" r="7"/>
  <circle id="rim2" cx="0" cy="0" r="3.5"/>
  <g id="zoomPlus">
    <use xlink:href="#rim" fill="#404040"><set attributeName="fill" to="#808080" begin="zoomplus.mouseover" end="zoomplus.mouseout"/></use>
    <path d="M-4,0h8M0,-4v8" fill="none" stroke="white" stroke-width="1.5" pointer-events="none"/>
  </g>
  <g id="zoomMin">
    <use xlink:href="#rim" fill="#404040"><set attributeName="fill" to="#808080" begin="zoomminus.mouseover" end="zoomminus.mouseout"/></use>
    <path d="M-4,0h8" fill="none" stroke="white" stroke-width="1.5" pointer-events="none"/>
  </g>
  <g id="arrowUp" transform="translate(30 24)">
    <use xlink:href="#rim"/>
    <path pointer-events="none" fill="none" stroke="white" stroke-width="1.5" d="M0,-3.0v7 M-2.5,-0.5L0,-3.0L2.5,-0.5"/>
  </g>
  <g id="arrowRight" transform="rotate(90) translate(36 -43)">
    <use xlink:href="#rim"/>
    <path pointer-events="none" fill="none" stroke="white" stroke-width="1.5" d="M0,-3.0v7 M-2.5,-0.5L0,-3.0L2.5,-0.5"/>
  </g>
  <g id="arrowDown" transform="rotate(180) translate(-30 -48)">
    <use xlink:href="#rim"/>
    <path pointer-events="none" fill="none" stroke="white" stroke-width="1.5" d="M0,-3.0v7 M-2.5,-0.5L0,-3.0L2.5,-0.5"/>
  </g>
  <g id="arrowLeft" transform="rotate(270) translate(-36 17)">
    <use xlink:href="#rim"/>
    <path pointer-events="none" fill="none" stroke="white" stroke-width="1.5" d="M0,-3.0v7 M-2.5,-0.5L0,-3.0L2.5,-0.5"/>
  </g>
  <g id="resetDef">
    <use xlink:href="#rim2" fill="#404040"><set attributeName="fill" to="#808080" begin="reset.mouseover" end="reset.mouseout"/></use>
  </g>
</defs>
<script type="application/ecmascript">
var viewWidth = 411;
var viewHeight = 460;
var sectionId = 'dynsection-0';
</script>
<script type="application/ecmascript" xlink:href="../../svg.min.js"/>
<svg id="graph" class="graph">
<g id="viewport">
<title>System.Runtime.Serialization.SerializationObjectManager</title>
<!-- Node1 -->
<g id="Node000001" class="node">
<title>Node1</title>
<g id="a_Node000001"><a xlink:title=" ">
<polygon fill="#999999" stroke="transparent" points="250,-138 81,-138 81,0 250,0 250,-138"/>
<text text-anchor="start" x="92" y="-126" font-family="Helvetica,sans-Serif" font-size="10.00">System.Runtime.Serialization.</text>
<text text-anchor="start" x="98" y="-115" font-family="Helvetica,sans-Serif" font-size="10.00">SerializationObjectManager</text>
<text text-anchor="start" x="164" y="-100" font-family="Helvetica,sans-Serif" font-size="10.00"> </text>
<text text-anchor="start" x="85.5" y="-85" font-family="Helvetica,sans-Serif" font-size="10.00">+</text>
<text text-anchor="start" x="98.5" y="-85" font-family="Helvetica,sans-Serif" font-size="10.00">SerializationObjectManager</text>
<text text-anchor="start" x="98.5" y="-74" font-family="Helvetica,sans-Serif" font-size="10.00">(StreamingContext context)</text>
<text text-anchor="start" x="85.5" y="-59" font-family="Helvetica,sans-Serif" font-size="10.00">+</text>
<text text-anchor="start" x="98.5" y="-59" font-family="Helvetica,sans-Serif" font-size="10.00">void RegisterObject</text>
<text text-anchor="start" x="98.5" y="-48" font-family="Helvetica,sans-Serif" font-size="10.00">(object obj)</text>
<text text-anchor="start" x="85.5" y="-33" font-family="Helvetica,sans-Serif" font-size="10.00">+</text>
<text text-anchor="start" x="98.5" y="-33" font-family="Helvetica,sans-Serif" font-size="10.00">void RaiseOnSerializedEvent()</text>
<text text-anchor="start" x="88" y="-18" font-family="Helvetica,sans-Serif" font-size="10.00">&#45;</text>
<text text-anchor="start" x="98.5" y="-18" font-family="Helvetica,sans-Serif" font-size="10.00">void AddOnSerialized</text>
<text text-anchor="start" x="98.5" y="-7" font-family="Helvetica,sans-Serif" font-size="10.00">(object obj)</text>
<polygon fill="#666666" stroke="#666666" points="81.5,-110 81.5,-110 250.5,-110 250.5,-110 81.5,-110"/>
<polygon fill="#666666" stroke="#666666" points="81.5,-95 81.5,-95 250.5,-95 250.5,-95 81.5,-95"/>
<polygon fill="none" stroke="#666666" points="81,0 81,-138 250,-138 250,0 81,0"/>
</a>
</g>
</g>
<!-- Node2 -->
<g id="Node000002" class="node">
<title>Node2</title>
<g id="a_Node000002"><a xlink:title=" ">
<polygon fill="white" stroke="transparent" points="65,-289.5 0,-289.5 0,-240.5 65,-240.5 65,-289.5"/>
<text text-anchor="start" x="5.5" y="-277" font-family="Helvetica,sans-Serif" font-size="10.00">Collections</text>
<text text-anchor="start" x="31" y="-262" font-family="Helvetica,sans-Serif" font-size="10.00"> </text>
<text text-anchor="start" x="31" y="-247" font-family="Helvetica,sans-Serif" font-size="10.00"> </text>
<polygon fill="#666666" stroke="#666666" points="0.5,-272 0.5,-272 65.5,-272 65.5,-272 0.5,-272"/>
<polygon fill="#666666" stroke="#666666" points="0.5,-257 0.5,-257 65.5,-257 65.5,-257 0.5,-257"/>
<polygon fill="none" stroke="#666666" points="0,-240.5 0,-289.5 65,-289.5 65,-240.5 0,-240.5"/>
</a>
</g>
</g>
<!-- Node2&#45;&gt;Node1 -->
<g id="edge1_Node000001_Node000002" class="edge">
<title>Node2&#45;&gt;Node1</title>
<g id="a_edge1_Node000001_Node000002"><a xlink:title=" ">
<path fill="none" stroke="#63b8ff" d="M37.01,-240.11C42.16,-217.13 52.2,-182.1 69.5,-156 71.41,-153.11 73.44,-150.26 75.57,-147.45"/>
<polygon fill="none" stroke="#63b8ff" points="75.62,-147.4 76.28,-140.22 83.16,-138.07 82.5,-145.25 75.62,-147.4"/>
</a>
</g>
<text text-anchor="middle" x="115.5" y="-159" font-family="Helvetica,sans-Serif" font-size="10.00" fill="grey"> &#45;_objectSeenTable</text>
</g>
<!-- Node3 -->
<g id="Node000003" class="node">
<title>Node3</title>
<g id="a_Node000003"><a xlink:href="../../d7/df0/structSystem_1_1Runtime_1_1Serialization_1_1StreamingContext.html" target="_top" xlink:title=" ">
<polygon fill="white" stroke="transparent" points="247.5,-345 83.5,-345 83.5,-185 247.5,-185 247.5,-345"/>
<text text-anchor="start" x="91.5" y="-333" font-family="Helvetica,sans-Serif" font-size="10.00">System.Runtime.Serialization.</text>
<text text-anchor="start" x="121" y="-322" font-family="Helvetica,sans-Serif" font-size="10.00">StreamingContext</text>
<text text-anchor="start" x="87.5" y="-307" font-family="Helvetica,sans-Serif" font-size="10.00">+</text>
<text text-anchor="start" x="100.5" y="-307" font-family="Helvetica,sans-Serif" font-size="10.00">StreamingContextStates</text>
<text text-anchor="start" x="100.5" y="-296" font-family="Helvetica,sans-Serif" font-size="10.00"> State</text>
<text text-anchor="start" x="87.5" y="-281" font-family="Helvetica,sans-Serif" font-size="10.00">+</text>
<text text-anchor="start" x="100.5" y="-281" font-family="Helvetica,sans-Serif" font-size="10.00">StreamingContext(Streaming</text>
<text text-anchor="start" x="100.5" y="-270" font-family="Helvetica,sans-Serif" font-size="10.00">ContextStates state)</text>
<text text-anchor="start" x="87.5" y="-255" font-family="Helvetica,sans-Serif" font-size="10.00">+</text>
<text text-anchor="start" x="100.5" y="-255" font-family="Helvetica,sans-Serif" font-size="10.00">StreamingContext(Streaming</text>
<text text-anchor="start" x="100.5" y="-244" font-family="Helvetica,sans-Serif" font-size="10.00">ContextStates state, object</text>
<text text-anchor="start" x="100.5" y="-233" font-family="Helvetica,sans-Serif" font-size="10.00"> additional)</text>
<text text-anchor="start" x="87.5" y="-218" font-family="Helvetica,sans-Serif" font-size="10.00">+</text>
<text text-anchor="start" x="100.5" y="-218" font-family="Helvetica,sans-Serif" font-size="10.00">override bool Equals</text>
<text text-anchor="start" x="100.5" y="-207" font-family="Helvetica,sans-Serif" font-size="10.00">(object obj)</text>
<text text-anchor="start" x="87.5" y="-192" font-family="Helvetica,sans-Serif" font-size="10.00">+</text>
<text text-anchor="start" x="100.5" y="-192" font-family="Helvetica,sans-Serif" font-size="10.00">override int GetHashCode()</text>
<polygon fill="#666666" stroke="#666666" points="83.5,-317 83.5,-317 247.5,-317 247.5,-317 83.5,-317"/>
<polygon fill="#666666" stroke="#666666" points="83.5,-291 83.5,-291 98.5,-291 98.5,-291 83.5,-291"/>
<polygon fill="#666666" stroke="#666666" points="98.5,-291 98.5,-291 247.5,-291 247.5,-291 98.5,-291"/>
<polygon fill="none" stroke="#666666" points="83.5,-185 83.5,-345 247.5,-345 247.5,-185 83.5,-185"/>
</a>
</g>
</g>
<!-- Node3&#45;&gt;Node1 -->
<g id="edge2_Node000001_Node000003" class="edge">
<title>Node3&#45;&gt;Node1</title>
<g id="a_edge2_Node000001_Node000003"><a xlink:title=" ">
<path fill="none" stroke="#63b8ff" d="M165.5,-184.81C165.5,-173.43 165.5,-161.7 165.5,-150.29"/>
<polygon fill="none" stroke="#63b8ff" points="165.5,-150.07 161.5,-144.07 165.5,-138.07 169.5,-144.07 165.5,-150.07"/>
</a>
</g>
<text text-anchor="middle" x="190" y="-159" font-family="Helvetica,sans-Serif" font-size="10.00" fill="grey"> &#45;_context</text>
</g>
<!-- Node4 -->
<g id="Node000004" class="node">
<title>Node4</title>
<g id="a_Node000004"><a xlink:title=" ">
<polygon fill="white" stroke="transparent" points="117,-446.5 76,-446.5 76,-397.5 117,-397.5 117,-446.5"/>
<text text-anchor="start" x="81.5" y="-434" font-family="Helvetica,sans-Serif" font-size="10.00">object</text>
<text text-anchor="start" x="95" y="-419" font-family="Helvetica,sans-Serif" font-size="10.00"> </text>
<text text-anchor="start" x="95" y="-404" font-family="Helvetica,sans-Serif" font-size="10.00"> </text>
<polygon fill="#666666" stroke="#666666" points="76.5,-429 76.5,-429 117.5,-429 117.5,-429 76.5,-429"/>
<polygon fill="#666666" stroke="#666666" points="76.5,-414 76.5,-414 117.5,-414 117.5,-414 76.5,-414"/>
<polygon fill="none" stroke="#666666" points="76,-397.5 76,-446.5 117,-446.5 117,-397.5 76,-397.5"/>
</a>
</g>
</g>
<!-- Node4&#45;&gt;Node3 -->
<g id="edge3_Node000003_Node000004" class="edge">
<title>Node4&#45;&gt;Node3</title>
<g id="a_edge3_Node000003_Node000004"><a xlink:title=" ">
<path fill="none" stroke="#63b8ff" d="M91.42,-397.33C90.09,-386.61 89.89,-373.91 93.5,-363 94.25,-360.72 95.08,-358.45 95.98,-356.2"/>
<polygon fill="none" stroke="#63b8ff" points="96.07,-356 94.89,-348.89 101,-345.06 102.18,-352.17 96.07,-356"/>
</a>
</g>
<text text-anchor="middle" x="150.5" y="-366" font-family="Helvetica,sans-Serif" font-size="10.00" fill="grey"> ~m_additionalContext</text>
</g>
<!-- Node5 -->
<g id="Node000005" class="node">
<title>Node5</title>
<g id="a_Node000005"><a xlink:title=" ">
<polygon fill="white" stroke="transparent" points="306,-452 161,-452 161,-392 306,-392 306,-452"/>
<text text-anchor="start" x="166.5" y="-440" font-family="Helvetica,sans-Serif" font-size="10.00">readonly StreamingContext</text>
<text text-anchor="start" x="218.5" y="-429" font-family="Helvetica,sans-Serif" font-size="10.00">States</text>
<text text-anchor="start" x="232" y="-414" font-family="Helvetica,sans-Serif" font-size="10.00"> </text>
<text text-anchor="start" x="232" y="-399" font-family="Helvetica,sans-Serif" font-size="10.00"> </text>
<polygon fill="#666666" stroke="#666666" points="161.5,-424 161.5,-424 306.5,-424 306.5,-424 161.5,-424"/>
<polygon fill="#666666" stroke="#666666" points="161.5,-409 161.5,-409 306.5,-409 306.5,-409 161.5,-409"/>
<polygon fill="none" stroke="#666666" points="161,-392 161,-452 306,-452 306,-392 161,-392"/>
</a>
</g>
</g>
<!-- Node5&#45;&gt;Node3 -->
<g id="edge4_Node000003_Node000005" class="edge">
<title>Node5&#45;&gt;Node3</title>
<g id="a_edge4_Node000003_Node000005"><a xlink:title=" ">
<path fill="none" stroke="#63b8ff" d="M222.99,-391.91C219.49,-382.61 215.47,-372.31 211.5,-363 210.57,-360.81 209.62,-358.6 208.65,-356.38"/>
<polygon fill="none" stroke="#63b8ff" points="208.54,-356.14 202.45,-352.27 203.68,-345.17 209.77,-349.03 208.54,-356.14"/>
</a>
</g>
<text text-anchor="middle" x="241.5" y="-366" font-family="Helvetica,sans-Serif" font-size="10.00" fill="grey"> ~m_state</text>
</g>
<!-- Node6 -->
<g id="Node000006" class="node">
<title>Node6</title>
<g id="a_Node000006"><a xlink:title=" ">
<polygon fill="white" stroke="transparent" points="403,-289.5 266,-289.5 266,-240.5 403,-240.5 403,-289.5"/>
<text text-anchor="start" x="271.5" y="-277" font-family="Helvetica,sans-Serif" font-size="10.00">SerializationEventHandler</text>
<text text-anchor="start" x="333" y="-262" font-family="Helvetica,sans-Serif" font-size="10.00"> </text>
<text text-anchor="start" x="333" y="-247" font-family="Helvetica,sans-Serif" font-size="10.00"> </text>
<polygon fill="#666666" stroke="#666666" points="266.5,-272 266.5,-272 403.5,-272 403.5,-272 266.5,-272"/>
<polygon fill="#666666" stroke="#666666" points="266.5,-257 266.5,-257 403.5,-257 403.5,-257 266.5,-257"/>
<polygon fill="none" stroke="#666666" points="266,-240.5 266,-289.5 403,-289.5 403,-240.5 266,-240.5"/>
</a>
</g>
</g>
<!-- Node6&#45;&gt;Node1 -->
<g id="edge5_Node000001_Node000006" class="edge">
<title>Node6&#45;&gt;Node1</title>
<g id="a_edge5_Node000001_Node000006"><a xlink:title=" ">
<path fill="none" stroke="#63b8ff" d="M313.78,-240.21C293.64,-217.09 261.94,-180.7 233.01,-147.49"/>
<polygon fill="none" stroke="#63b8ff" points="232.82,-147.27 225.86,-145.38 224.93,-138.23 231.89,-140.12 232.82,-147.27"/>
</a>
</g>
<text text-anchor="middle" x="305" y="-159" font-family="Helvetica,sans-Serif" font-size="10.00" fill="grey"> &#45;_onSerializedHandler</text>
</g>
</g>
</svg>

<g id="navigator" transform="translate(0 0)" fill="#404254">
  <rect fill="#f2f5e9" fill-opacity="0.5" stroke="#606060" stroke-width=".5" x="0" y="0" width="60" height="60"/>
  <use id="zoomplus" xlink:href="#zoomPlus" x="17" y="9" onmousedown="handleZoom(evt,'in')"/>
  <use id="zoomminus" xlink:href="#zoomMin" x="42" y="9" onmousedown="handleZoom(evt,'out')"/>
  <use id="reset" xlink:href="#resetDef" x="30" y="36" onmousedown="handleReset()"/>
   <use id="arrowup" xlink:href="#arrowUp" x="0" y="0" onmousedown="handlePan(0,-1)"/>
  <use id="arrowright" xlink:href="#arrowRight" x="0" y="0" onmousedown="handlePan(1,0)"/>
  <use id="arrowdown" xlink:href="#arrowDown" x="0" y="0" onmousedown="handlePan(0,1)"/>
  <use id="arrowleft" xlink:href="#arrowLeft" x="0" y="0" onmousedown="handlePan(-1,0)"/>
</g>
<svg viewBox="0 0 15 15" width="100%" height="30px" preserveAspectRatio="xMaxYMin meet">
 <g id="arrow_out" transform="scale(0.3 0.3)">
  <a xlink:href="classSystem_1_1Runtime_1_1Serialization_1_1SerializationObjectManager__coll__graph_org.svg" target="_base">
   <rect id="button" ry="5" rx="5" y="6" x="6" height="38" width="38"
        fill="#f2f5e9" fill-opacity="0.5" stroke="#606060" stroke-width="1.0"/>
   <path id="arrow"
     d="M 11.500037,31.436501 C 11.940474,20.09759 22.043105,11.32322 32.158766,21.979434 L 37.068811,17.246167 C 37.068811,17.246167 37.088388,32 37.088388,32 L 22.160133,31.978069 C 22.160133,31.978069 26.997745,27.140456 26.997745,27.140456 C 18.528582,18.264221 13.291696,25.230495 11.500037,31.436501 z"
     style="fill:#404040;"/>
  </a>
 </g>
</svg>

<style type='text/css'>
<![CDATA[
[data-mouse-over-selected='false'] { opacity: 0.7; }
[data-mouse-over-selected='true']  { opacity: 1.0; }
]]>
</style>
<script type="application/ecmascript"><![CDATA[
document.addEventListener('DOMContentLoaded', (event) => {
  highlightEdges();
  highlightAdjacentNodes();
});
]]></script>
</svg>
