<?xml version="1.0" encoding="UTF-8" standalone="no"?>
<!DOCTYPE svg PUBLIC "-//W3C//DTD SVG 1.1//EN"
 "http://www.w3.org/Graphics/SVG/1.1/DTD/svg11.dtd">
<!-- Generated by graphviz version 2.43.0 (0)
 -->
<!-- Title: TutorialStep_02_CopperPickaxe Pages: 1 -->
<svg width="189pt" height="466pt"
 viewBox="0.00 0.00 189.00 466.00" xmlns="http://www.w3.org/2000/svg" xmlns:xlink="http://www.w3.org/1999/xlink">
<g id="graph0" class="graph" transform="scale(1 1) rotate(0) translate(4 462)">
<title>TutorialStep_02_CopperPickaxe</title>
<!-- Node1 -->
<g id="Node000001" class="node">
<title>Node1</title>
<g id="a_Node000001"><a xlink:title=" ">
<polygon fill="#999999" stroke="transparent" points="181,-157 0,-157 0,0 181,0 181,-157"/>
<text text-anchor="start" x="15" y="-144.5" font-family="Helvetica,sans-Serif" font-size="10.00">TutorialStep_02_CopperPickaxe</text>
<text text-anchor="start" x="7" y="-129.5" font-family="Helvetica,sans-Serif" font-size="10.00">&#45;</text>
<text text-anchor="start" x="17.5" y="-129.5" font-family="Helvetica,sans-Serif" font-size="10.00">bool givenAxe</text>
<text text-anchor="start" x="4.5" y="-114.5" font-family="Helvetica,sans-Serif" font-size="10.00">+</text>
<text text-anchor="start" x="17.5" y="-114.5" font-family="Helvetica,sans-Serif" font-size="10.00">override TutorialStep.Guide</text>
<text text-anchor="start" x="17.5" y="-103.5" font-family="Helvetica,sans-Serif" font-size="10.00">OverLoadState GetGuideState()</text>
<text text-anchor="start" x="4.5" y="-88.5" font-family="Helvetica,sans-Serif" font-size="10.00">+</text>
<text text-anchor="start" x="17.5" y="-88.5" font-family="Helvetica,sans-Serif" font-size="10.00">override string GetGuide</text>
<text text-anchor="start" x="17.5" y="-77.5" font-family="Helvetica,sans-Serif" font-size="10.00">String()</text>
<text text-anchor="start" x="4.5" y="-62.5" font-family="Helvetica,sans-Serif" font-size="10.00">+</text>
<text text-anchor="start" x="17.5" y="-62.5" font-family="Helvetica,sans-Serif" font-size="10.00">override void Reset()</text>
<text text-anchor="start" x="4.5" y="-47.5" font-family="Helvetica,sans-Serif" font-size="10.00">+</text>
<text text-anchor="start" x="17.5" y="-47.5" font-family="Helvetica,sans-Serif" font-size="10.00">override void OnGuideDialogue</text>
<text text-anchor="start" x="17.5" y="-36.5" font-family="Helvetica,sans-Serif" font-size="10.00">Open()</text>
<text text-anchor="start" x="4.5" y="-21.5" font-family="Helvetica,sans-Serif" font-size="10.00">+</text>
<text text-anchor="start" x="17.5" y="-21.5" font-family="Helvetica,sans-Serif" font-size="10.00">override bool Update()</text>
<text text-anchor="start" x="4.5" y="-6.5" font-family="Helvetica,sans-Serif" font-size="10.00">+</text>
<text text-anchor="start" x="17.5" y="-6.5" font-family="Helvetica,sans-Serif" font-size="10.00">TutorialStep_02_CopperPickaxe()</text>
<polygon fill="#666666" stroke="#666666" points="0.5,-139.5 0.5,-139.5 181.5,-139.5 181.5,-139.5 0.5,-139.5"/>
<polygon fill="#666666" stroke="#666666" points="0.5,-124.5 0.5,-124.5 15.5,-124.5 15.5,-124.5 0.5,-124.5"/>
<polygon fill="#666666" stroke="#666666" points="15.5,-124.5 15.5,-124.5 181.5,-124.5 181.5,-124.5 15.5,-124.5"/>
<polygon fill="none" stroke="#666666" points="0,0 0,-157 181,-157 181,0 0,0"/>
</a>
</g>
</g>
<!-- Node2 -->
<g id="Node000002" class="node">
<title>Node2</title>
<g id="a_Node000002"><a xlink:href="../../d9/d7b/classTutorialStep.html" target="_top" xlink:title=" ">
<polygon fill="white" stroke="transparent" points="178,-458 3,-458 3,-193 178,-193 178,-458"/>
<text text-anchor="start" x="62" y="-445.5" font-family="Helvetica,sans-Serif" font-size="10.00">TutorialStep</text>
<text text-anchor="start" x="89" y="-430.5" font-family="Helvetica,sans-Serif" font-size="10.00"> </text>
<text text-anchor="start" x="7.5" y="-415.5" font-family="Helvetica,sans-Serif" font-size="10.00">+</text>
<text text-anchor="start" x="20.5" y="-415.5" font-family="Helvetica,sans-Serif" font-size="10.00">virtual void Reset()</text>
<text text-anchor="start" x="7.5" y="-400.5" font-family="Helvetica,sans-Serif" font-size="10.00">+</text>
<text text-anchor="start" x="20.5" y="-400.5" font-family="Helvetica,sans-Serif" font-size="10.00">virtual void Begin()</text>
<text text-anchor="start" x="7.5" y="-385.5" font-family="Helvetica,sans-Serif" font-size="10.00">+</text>
<text text-anchor="start" x="20.5" y="-385.5" font-family="Helvetica,sans-Serif" font-size="10.00">virtual bool Update()</text>
<text text-anchor="start" x="7.5" y="-370.5" font-family="Helvetica,sans-Serif" font-size="10.00">+</text>
<text text-anchor="start" x="20.5" y="-370.5" font-family="Helvetica,sans-Serif" font-size="10.00">virtual TutorialStep.Guide</text>
<text text-anchor="start" x="20.5" y="-359.5" font-family="Helvetica,sans-Serif" font-size="10.00">OverLoadState GetGuideState()</text>
<text text-anchor="start" x="7.5" y="-344.5" font-family="Helvetica,sans-Serif" font-size="10.00">+</text>
<text text-anchor="start" x="20.5" y="-344.5" font-family="Helvetica,sans-Serif" font-size="10.00">virtual string GetGuideString()</text>
<text text-anchor="start" x="7.5" y="-329.5" font-family="Helvetica,sans-Serif" font-size="10.00">+</text>
<text text-anchor="start" x="20.5" y="-329.5" font-family="Helvetica,sans-Serif" font-size="10.00">virtual void OnGuideDialogue</text>
<text text-anchor="start" x="20.5" y="-318.5" font-family="Helvetica,sans-Serif" font-size="10.00">Open()</text>
<text text-anchor="start" x="7.5" y="-303.5" font-family="Helvetica,sans-Serif" font-size="10.00">+</text>
<text text-anchor="start" x="20.5" y="-303.5" font-family="Helvetica,sans-Serif" font-size="10.00">virtual void OnItemPlaced</text>
<text text-anchor="start" x="20.5" y="-292.5" font-family="Helvetica,sans-Serif" font-size="10.00">(int itemId, int tileType)</text>
<text text-anchor="start" x="7.5" y="-277.5" font-family="Helvetica,sans-Serif" font-size="10.00">+</text>
<text text-anchor="start" x="20.5" y="-277.5" font-family="Helvetica,sans-Serif" font-size="10.00">TutorialStep()</text>
<text text-anchor="start" x="7.5" y="-262.5" font-family="Helvetica,sans-Serif" font-size="10.00">#</text>
<text text-anchor="start" x="20.5" y="-262.5" font-family="Helvetica,sans-Serif" font-size="10.00">void SetTime(int hour,</text>
<text text-anchor="start" x="20.5" y="-251.5" font-family="Helvetica,sans-Serif" font-size="10.00"> int min, bool freeze)</text>
<text text-anchor="start" x="7.5" y="-236.5" font-family="Helvetica,sans-Serif" font-size="10.00">#</text>
<text text-anchor="start" x="20.5" y="-236.5" font-family="Helvetica,sans-Serif" font-size="10.00">void SetSpawnRate(float</text>
<text text-anchor="start" x="20.5" y="-225.5" font-family="Helvetica,sans-Serif" font-size="10.00"> spawnRate)</text>
<text text-anchor="start" x="7.5" y="-210.5" font-family="Helvetica,sans-Serif" font-size="10.00">#</text>
<text text-anchor="start" x="20.5" y="-210.5" font-family="Helvetica,sans-Serif" font-size="10.00">void GiveItem(short</text>
<text text-anchor="start" x="20.5" y="-199.5" font-family="Helvetica,sans-Serif" font-size="10.00"> item, int stackCount)</text>
<polygon fill="#666666" stroke="#666666" points="3.5,-440.5 3.5,-440.5 178.5,-440.5 178.5,-440.5 3.5,-440.5"/>
<polygon fill="#666666" stroke="#666666" points="3.5,-425.5 3.5,-425.5 178.5,-425.5 178.5,-425.5 3.5,-425.5"/>
<polygon fill="none" stroke="#666666" points="3,-193 3,-458 178,-458 178,-193 3,-193"/>
</a>
</g>
</g>
<!-- Node2&#45;&gt;Node1 -->
<g id="edge1_Node000001_Node000002" class="edge">
<title>Node2&#45;&gt;Node1</title>
<g id="a_edge1_Node000001_Node000002"><a xlink:title=" ">
<path fill="none" stroke="#63b8ff" d="M90.5,-182.49C90.5,-173.86 90.5,-165.36 90.5,-157.17"/>
<polygon fill="none" stroke="#63b8ff" points="87,-182.68 90.5,-192.68 94,-182.68 87,-182.68"/>
</a>
</g>
</g>
</g>
</svg>
