<?xml version="1.0" encoding="UTF-8" standalone="no"?>
<!DOCTYPE svg PUBLIC "-//W3C//DTD SVG 1.1//EN"
 "http://www.w3.org/Graphics/SVG/1.1/DTD/svg11.dtd">
<!-- Generated by graphviz version 2.43.0 (0)
 -->
<!-- Title: System.Xml.XmlException Pages: 1 -->
<!--zoomable 1175 -->

<svg id="main" version="1.1" xmlns="http://www.w3.org/2000/svg" xmlns:xlink="http://www.w3.org/1999/xlink" xml:space="preserve" onload="init(evt)">
<style type="text/css"><![CDATA[
.node, .edge {opacity: 0.7;}
.node.selected, .edge.selected {opacity: 1;}
.edge:hover path { stroke: red; }
.edge:hover polygon { stroke: red; fill: red; }
]]></style>

<defs>
  <circle id="rim" cx="0" cy="0" r="7"/>
  <circle id="rim2" cx="0" cy="0" r="3.5"/>
  <g id="zoomPlus">
    <use xlink:href="#rim" fill="#404040"><set attributeName="fill" to="#808080" begin="zoomplus.mouseover" end="zoomplus.mouseout"/></use>
    <path d="M-4,0h8M0,-4v8" fill="none" stroke="white" stroke-width="1.5" pointer-events="none"/>
  </g>
  <g id="zoomMin">
    <use xlink:href="#rim" fill="#404040"><set attributeName="fill" to="#808080" begin="zoomminus.mouseover" end="zoomminus.mouseout"/></use>
    <path d="M-4,0h8" fill="none" stroke="white" stroke-width="1.5" pointer-events="none"/>
  </g>
  <g id="arrowUp" transform="translate(30 24)">
    <use xlink:href="#rim"/>
    <path pointer-events="none" fill="none" stroke="white" stroke-width="1.5" d="M0,-3.0v7 M-2.5,-0.5L0,-3.0L2.5,-0.5"/>
  </g>
  <g id="arrowRight" transform="rotate(90) translate(36 -43)">
    <use xlink:href="#rim"/>
    <path pointer-events="none" fill="none" stroke="white" stroke-width="1.5" d="M0,-3.0v7 M-2.5,-0.5L0,-3.0L2.5,-0.5"/>
  </g>
  <g id="arrowDown" transform="rotate(180) translate(-30 -48)">
    <use xlink:href="#rim"/>
    <path pointer-events="none" fill="none" stroke="white" stroke-width="1.5" d="M0,-3.0v7 M-2.5,-0.5L0,-3.0L2.5,-0.5"/>
  </g>
  <g id="arrowLeft" transform="rotate(270) translate(-36 17)">
    <use xlink:href="#rim"/>
    <path pointer-events="none" fill="none" stroke="white" stroke-width="1.5" d="M0,-3.0v7 M-2.5,-0.5L0,-3.0L2.5,-0.5"/>
  </g>
  <g id="resetDef">
    <use xlink:href="#rim2" fill="#404040"><set attributeName="fill" to="#808080" begin="reset.mouseover" end="reset.mouseout"/></use>
  </g>
</defs>
<script type="application/ecmascript">
var viewWidth = 394;
var viewHeight = 1175;
var sectionId = 'dynsection-1';
</script>
<script type="application/ecmascript" xlink:href="../../svg.min.js"/>
<svg id="graph" class="graph">
<g id="viewport">
<title>System.Xml.XmlException</title>
<!-- Node1 -->
<g id="Node000001" class="node">
<title>Node1</title>
<g id="a_Node000001"><a xlink:title=" ">
<polygon fill="#999999" stroke="transparent" points="364,-830 162,-830 162,0 364,0 364,-830"/>
<text text-anchor="start" x="198" y="-818" font-family="Helvetica,sans-Serif" font-size="10.00">System.Xml.XmlException</text>
<text text-anchor="start" x="166" y="-803" font-family="Helvetica,sans-Serif" font-size="10.00">+</text>
<text text-anchor="start" x="179" y="-803" font-family="Helvetica,sans-Serif" font-size="10.00">int LineNumber</text>
<text text-anchor="start" x="166" y="-788" font-family="Helvetica,sans-Serif" font-size="10.00">+</text>
<text text-anchor="start" x="179" y="-788" font-family="Helvetica,sans-Serif" font-size="10.00">int LinePosition</text>
<text text-anchor="start" x="166" y="-773" font-family="Helvetica,sans-Serif" font-size="10.00">+</text>
<text text-anchor="start" x="179" y="-773" font-family="Helvetica,sans-Serif" font-size="10.00">override string Message</text>
<text text-anchor="start" x="166" y="-758" font-family="Helvetica,sans-Serif" font-size="10.00">+</text>
<text text-anchor="start" x="179" y="-758" font-family="Helvetica,sans-Serif" font-size="10.00">string ResString</text>
<text text-anchor="start" x="166" y="-743" font-family="Helvetica,sans-Serif" font-size="10.00">+</text>
<text text-anchor="start" x="179" y="-743" font-family="Helvetica,sans-Serif" font-size="10.00">override void GetObjectData</text>
<text text-anchor="start" x="179" y="-732" font-family="Helvetica,sans-Serif" font-size="10.00">(SerializationInfo info,</text>
<text text-anchor="start" x="179" y="-721" font-family="Helvetica,sans-Serif" font-size="10.00"> StreamingContext context)</text>
<text text-anchor="start" x="166" y="-706" font-family="Helvetica,sans-Serif" font-size="10.00">+</text>
<text text-anchor="start" x="179" y="-706" font-family="Helvetica,sans-Serif" font-size="10.00">XmlException()</text>
<text text-anchor="start" x="166" y="-691" font-family="Helvetica,sans-Serif" font-size="10.00">+</text>
<text text-anchor="start" x="179" y="-691" font-family="Helvetica,sans-Serif" font-size="10.00">XmlException(string</text>
<text text-anchor="start" x="179" y="-680" font-family="Helvetica,sans-Serif" font-size="10.00"> message)</text>
<text text-anchor="start" x="166" y="-665" font-family="Helvetica,sans-Serif" font-size="10.00">+</text>
<text text-anchor="start" x="179" y="-665" font-family="Helvetica,sans-Serif" font-size="10.00">XmlException(string</text>
<text text-anchor="start" x="179" y="-654" font-family="Helvetica,sans-Serif" font-size="10.00"> message, Exception innerException,</text>
<text text-anchor="start" x="179" y="-643" font-family="Helvetica,sans-Serif" font-size="10.00"> int lineNumber, int linePosition)</text>
<text text-anchor="start" x="166" y="-628" font-family="Helvetica,sans-Serif" font-size="10.00">~</text>
<text text-anchor="start" x="179" y="-628" font-family="Helvetica,sans-Serif" font-size="10.00">XmlException(string</text>
<text text-anchor="start" x="179" y="-617" font-family="Helvetica,sans-Serif" font-size="10.00"> message, Exception innerException,</text>
<text text-anchor="start" x="179" y="-606" font-family="Helvetica,sans-Serif" font-size="10.00"> int lineNumber, int linePosition,</text>
<text text-anchor="start" x="179" y="-595" font-family="Helvetica,sans-Serif" font-size="10.00"> string sourceUri)</text>
<text text-anchor="start" x="166" y="-580" font-family="Helvetica,sans-Serif" font-size="10.00">~</text>
<text text-anchor="start" x="179" y="-580" font-family="Helvetica,sans-Serif" font-size="10.00">XmlException(string</text>
<text text-anchor="start" x="179" y="-569" font-family="Helvetica,sans-Serif" font-size="10.00"> res, string[] args)</text>
<text text-anchor="start" x="166" y="-554" font-family="Helvetica,sans-Serif" font-size="10.00">~</text>
<text text-anchor="start" x="179" y="-554" font-family="Helvetica,sans-Serif" font-size="10.00">unsafe XmlException</text>
<text text-anchor="start" x="179" y="-543" font-family="Helvetica,sans-Serif" font-size="10.00">(string res, string arg)</text>
<text text-anchor="start" x="166" y="-528" font-family="Helvetica,sans-Serif" font-size="10.00">~</text>
<text text-anchor="start" x="179" y="-528" font-family="Helvetica,sans-Serif" font-size="10.00">XmlException(string</text>
<text text-anchor="start" x="179" y="-517" font-family="Helvetica,sans-Serif" font-size="10.00"> res, string arg, string</text>
<text text-anchor="start" x="179" y="-506" font-family="Helvetica,sans-Serif" font-size="10.00"> sourceUri)</text>
<text text-anchor="start" x="166" y="-491" font-family="Helvetica,sans-Serif" font-size="10.00">~</text>
<text text-anchor="start" x="179" y="-491" font-family="Helvetica,sans-Serif" font-size="10.00">XmlException(string</text>
<text text-anchor="start" x="179" y="-480" font-family="Helvetica,sans-Serif" font-size="10.00"> res, string arg, int</text>
<text text-anchor="start" x="179" y="-469" font-family="Helvetica,sans-Serif" font-size="10.00"> lineNumber, int linePosition)</text>
<text text-anchor="start" x="166" y="-454" font-family="Helvetica,sans-Serif" font-size="10.00">~</text>
<text text-anchor="start" x="179" y="-454" font-family="Helvetica,sans-Serif" font-size="10.00">XmlException(string</text>
<text text-anchor="start" x="179" y="-443" font-family="Helvetica,sans-Serif" font-size="10.00"> res, string arg, int</text>
<text text-anchor="start" x="179" y="-432" font-family="Helvetica,sans-Serif" font-size="10.00"> lineNumber, int linePosition,</text>
<text text-anchor="start" x="179" y="-421" font-family="Helvetica,sans-Serif" font-size="10.00"> string sourceUri)</text>
<text text-anchor="start" x="166" y="-406" font-family="Helvetica,sans-Serif" font-size="10.00">~</text>
<text text-anchor="start" x="179" y="-406" font-family="Helvetica,sans-Serif" font-size="10.00">XmlException(string</text>
<text text-anchor="start" x="179" y="-395" font-family="Helvetica,sans-Serif" font-size="10.00"> res, string[] args,</text>
<text text-anchor="start" x="179" y="-384" font-family="Helvetica,sans-Serif" font-size="10.00"> int lineNumber, int linePosition)</text>
<text text-anchor="start" x="166" y="-369" font-family="Helvetica,sans-Serif" font-size="10.00">~</text>
<text text-anchor="start" x="179" y="-369" font-family="Helvetica,sans-Serif" font-size="10.00">XmlException(string</text>
<text text-anchor="start" x="179" y="-358" font-family="Helvetica,sans-Serif" font-size="10.00"> res, string[] args,</text>
<text text-anchor="start" x="179" y="-347" font-family="Helvetica,sans-Serif" font-size="10.00"> int lineNumber, int linePosition,</text>
<text text-anchor="start" x="179" y="-336" font-family="Helvetica,sans-Serif" font-size="10.00"> string sourceUri)</text>
<text text-anchor="start" x="166" y="-321" font-family="Helvetica,sans-Serif" font-size="10.00">~</text>
<text text-anchor="start" x="179" y="-321" font-family="Helvetica,sans-Serif" font-size="10.00">XmlException(string</text>
<text text-anchor="start" x="179" y="-310" font-family="Helvetica,sans-Serif" font-size="10.00"> res, string[] args,</text>
<text text-anchor="start" x="179" y="-299" font-family="Helvetica,sans-Serif" font-size="10.00"> Exception innerException,</text>
<text text-anchor="start" x="179" y="-288" font-family="Helvetica,sans-Serif" font-size="10.00"> int lineNumber, int linePosition)</text>
<text text-anchor="start" x="166" y="-273" font-family="Helvetica,sans-Serif" font-size="10.00">~</text>
<text text-anchor="start" x="179" y="-273" font-family="Helvetica,sans-Serif" font-size="10.00">XmlException(string</text>
<text text-anchor="start" x="179" y="-262" font-family="Helvetica,sans-Serif" font-size="10.00"> res, string[] args,</text>
<text text-anchor="start" x="179" y="-251" font-family="Helvetica,sans-Serif" font-size="10.00"> Exception innerException,</text>
<text text-anchor="start" x="179" y="-240" font-family="Helvetica,sans-Serif" font-size="10.00"> int lineNumber, int linePosition,</text>
<text text-anchor="start" x="179" y="-229" font-family="Helvetica,sans-Serif" font-size="10.00"> string sourceUri)</text>
<text text-anchor="start" x="166" y="-214" font-family="Helvetica,sans-Serif" font-size="10.00">~</text>
<text text-anchor="start" x="179" y="-214" font-family="Helvetica,sans-Serif" font-size="10.00">static string[] BuildChar</text>
<text text-anchor="start" x="179" y="-203" font-family="Helvetica,sans-Serif" font-size="10.00">ExceptionArgs(string data,</text>
<text text-anchor="start" x="179" y="-192" font-family="Helvetica,sans-Serif" font-size="10.00"> int invCharIndex)</text>
<text text-anchor="start" x="166" y="-177" font-family="Helvetica,sans-Serif" font-size="10.00">~</text>
<text text-anchor="start" x="179" y="-177" font-family="Helvetica,sans-Serif" font-size="10.00">static string[] BuildChar</text>
<text text-anchor="start" x="179" y="-166" font-family="Helvetica,sans-Serif" font-size="10.00">ExceptionArgs(char[] data,</text>
<text text-anchor="start" x="179" y="-155" font-family="Helvetica,sans-Serif" font-size="10.00"> int length, int invCharIndex)</text>
<text text-anchor="start" x="166" y="-140" font-family="Helvetica,sans-Serif" font-size="10.00">~</text>
<text text-anchor="start" x="179" y="-140" font-family="Helvetica,sans-Serif" font-size="10.00">static string[] BuildChar</text>
<text text-anchor="start" x="179" y="-129" font-family="Helvetica,sans-Serif" font-size="10.00">ExceptionArgs(char invChar,</text>
<text text-anchor="start" x="179" y="-118" font-family="Helvetica,sans-Serif" font-size="10.00"> char nextChar)</text>
<text text-anchor="start" x="166" y="-103" font-family="Helvetica,sans-Serif" font-size="10.00">#</text>
<text text-anchor="start" x="179" y="-103" font-family="Helvetica,sans-Serif" font-size="10.00">XmlException(Serialization</text>
<text text-anchor="start" x="179" y="-92" font-family="Helvetica,sans-Serif" font-size="10.00">Info info, StreamingContext</text>
<text text-anchor="start" x="179" y="-81" font-family="Helvetica,sans-Serif" font-size="10.00"> context)</text>
<text text-anchor="start" x="168.5" y="-66" font-family="Helvetica,sans-Serif" font-size="10.00">&#45;</text>
<text text-anchor="start" x="179" y="-66" font-family="Helvetica,sans-Serif" font-size="10.00">static string FormatUser</text>
<text text-anchor="start" x="179" y="-55" font-family="Helvetica,sans-Serif" font-size="10.00">Message(string message,</text>
<text text-anchor="start" x="179" y="-44" font-family="Helvetica,sans-Serif" font-size="10.00"> int lineNumber, int linePosition)</text>
<text text-anchor="start" x="168.5" y="-29" font-family="Helvetica,sans-Serif" font-size="10.00">&#45;</text>
<text text-anchor="start" x="179" y="-29" font-family="Helvetica,sans-Serif" font-size="10.00">static string CreateMessage</text>
<text text-anchor="start" x="179" y="-18" font-family="Helvetica,sans-Serif" font-size="10.00">(string res, string[] args,</text>
<text text-anchor="start" x="179" y="-7" font-family="Helvetica,sans-Serif" font-size="10.00"> int lineNumber, int linePosition)</text>
<polygon fill="#666666" stroke="#666666" points="162,-813 162,-813 364,-813 364,-813 162,-813"/>
<polygon fill="#666666" stroke="#666666" points="162,-753 162,-753 177,-753 177,-753 162,-753"/>
<polygon fill="#666666" stroke="#666666" points="177,-753 177,-753 364,-753 364,-753 177,-753"/>
<polygon fill="none" stroke="#666666" points="162,0 162,-830 364,-830 364,0 162,0"/>
</a>
</g>
</g>
<!-- Node2 -->
<g id="Node000002" class="node">
<title>Node2</title>
<g id="a_Node000002"><a xlink:href="../../d8/d7a/classSystem_1_1SystemException.html" target="_top" xlink:title=" ">
<polygon fill="white" stroke="transparent" points="226,-1081 0,-1081 0,-910 226,-910 226,-1081"/>
<text text-anchor="start" x="70.5" y="-1068.5" font-family="Helvetica,sans-Serif" font-size="10.00">SystemException</text>
<text text-anchor="start" x="111" y="-1053.5" font-family="Helvetica,sans-Serif" font-size="10.00"> </text>
<text text-anchor="start" x="4" y="-1038.5" font-family="Helvetica,sans-Serif" font-size="10.00">+</text>
<text text-anchor="start" x="17" y="-1038.5" font-family="Helvetica,sans-Serif" font-size="10.00">SystemException()</text>
<text text-anchor="start" x="4" y="-1023.5" font-family="Helvetica,sans-Serif" font-size="10.00">+</text>
<text text-anchor="start" x="17" y="-1023.5" font-family="Helvetica,sans-Serif" font-size="10.00">SystemException(string</text>
<text text-anchor="start" x="17" y="-1012.5" font-family="Helvetica,sans-Serif" font-size="10.00"> message)</text>
<text text-anchor="start" x="4" y="-997.5" font-family="Helvetica,sans-Serif" font-size="10.00">+</text>
<text text-anchor="start" x="17" y="-997.5" font-family="Helvetica,sans-Serif" font-size="10.00">SystemException(string</text>
<text text-anchor="start" x="17" y="-986.5" font-family="Helvetica,sans-Serif" font-size="10.00"> message, global::System.Exception</text>
<text text-anchor="start" x="17" y="-975.5" font-family="Helvetica,sans-Serif" font-size="10.00"> innerException)</text>
<text text-anchor="start" x="4" y="-960.5" font-family="Helvetica,sans-Serif" font-size="10.00">#</text>
<text text-anchor="start" x="17" y="-960.5" font-family="Helvetica,sans-Serif" font-size="10.00">SystemException(global</text>
<text text-anchor="start" x="17" y="-949.5" font-family="Helvetica,sans-Serif" font-size="10.00">::System.Runtime.Serialization.</text>
<text text-anchor="start" x="17" y="-938.5" font-family="Helvetica,sans-Serif" font-size="10.00">SerializationInfo info, global</text>
<text text-anchor="start" x="17" y="-927.5" font-family="Helvetica,sans-Serif" font-size="10.00">::System.Runtime.Serialization.Streaming</text>
<text text-anchor="start" x="17" y="-916.5" font-family="Helvetica,sans-Serif" font-size="10.00">Context context)</text>
<polygon fill="#666666" stroke="#666666" points="0,-1063.5 0,-1063.5 226,-1063.5 226,-1063.5 0,-1063.5"/>
<polygon fill="#666666" stroke="#666666" points="0,-1048.5 0,-1048.5 226,-1048.5 226,-1048.5 0,-1048.5"/>
<polygon fill="none" stroke="#666666" points="0,-910 0,-1081 226,-1081 226,-910 0,-910"/>
</a>
</g>
</g>
<!-- Node2&#45;&gt;Node1 -->
<g id="edge1_Node000001_Node000002" class="edge">
<title>Node2&#45;&gt;Node1</title>
<g id="a_edge1_Node000001_Node000002"><a xlink:title=" ">
<path fill="none" stroke="#63b8ff" d="M137.56,-899.77C144.74,-872.09 153.06,-839.99 161.94,-805.74"/>
<polygon fill="none" stroke="#63b8ff" points="134.09,-899.2 134.97,-909.76 140.87,-900.96 134.09,-899.2"/>
</a>
</g>
</g>
<!-- Node3 -->
<g id="Node000003" class="node">
<title>Node3</title>
<g id="a_Node000003"><a xlink:title=" ">
<polygon fill="white" stroke="transparent" points="178.5,-1167 47.5,-1167 47.5,-1118 178.5,-1118 178.5,-1167"/>
<text text-anchor="start" x="53" y="-1154.5" font-family="Helvetica,sans-Serif" font-size="10.00">global::SystemException</text>
<text text-anchor="start" x="111.5" y="-1139.5" font-family="Helvetica,sans-Serif" font-size="10.00"> </text>
<text text-anchor="start" x="111.5" y="-1124.5" font-family="Helvetica,sans-Serif" font-size="10.00"> </text>
<polygon fill="#666666" stroke="#666666" points="48,-1149.5 48,-1149.5 179,-1149.5 179,-1149.5 48,-1149.5"/>
<polygon fill="#666666" stroke="#666666" points="48,-1134.5 48,-1134.5 179,-1134.5 179,-1134.5 48,-1134.5"/>
<polygon fill="none" stroke="#666666" points="47.5,-1118 47.5,-1167 178.5,-1167 178.5,-1118 47.5,-1118"/>
</a>
</g>
</g>
<!-- Node3&#45;&gt;Node2 -->
<g id="edge2_Node000002_Node000003" class="edge">
<title>Node3&#45;&gt;Node2</title>
<g id="a_edge2_Node000002_Node000003"><a xlink:title=" ">
<path fill="none" stroke="#63b8ff" d="M113,-1107.78C113,-1099.65 113,-1090.6 113,-1081.27"/>
<polygon fill="none" stroke="#63b8ff" points="109.5,-1107.88 113,-1117.88 116.5,-1107.88 109.5,-1107.88"/>
</a>
</g>
</g>
<!-- Node4 -->
<g id="Node000004" class="node">
<title>Node4</title>
<g id="a_Node000004"><a xlink:title=" ">
<polygon fill="white" stroke="transparent" points="282,-1020 244,-1020 244,-971 282,-971 282,-1020"/>
<text text-anchor="start" x="249" y="-1007.5" font-family="Helvetica,sans-Serif" font-size="10.00">string</text>
<text text-anchor="start" x="261" y="-992.5" font-family="Helvetica,sans-Serif" font-size="10.00"> </text>
<text text-anchor="start" x="261" y="-977.5" font-family="Helvetica,sans-Serif" font-size="10.00"> </text>
<polygon fill="#666666" stroke="#666666" points="244,-1002.5 244,-1002.5 282,-1002.5 282,-1002.5 244,-1002.5"/>
<polygon fill="#666666" stroke="#666666" points="244,-987.5 244,-987.5 282,-987.5 282,-987.5 244,-987.5"/>
<polygon fill="none" stroke="#666666" points="244,-971 244,-1020 282,-1020 282,-971 244,-971"/>
</a>
</g>
</g>
<!-- Node4&#45;&gt;Node1 -->
<g id="edge3_Node000001_Node000004" class="edge">
<title>Node4&#45;&gt;Node1</title>
<g id="a_edge3_Node000001_Node000004"><a xlink:title=" ">
<path fill="none" stroke="#63b8ff" d="M263,-970.74C263,-944.2 263,-897.62 263,-842.35"/>
<polygon fill="none" stroke="#63b8ff" points="263,-842.05 259,-836.05 263,-830.05 267,-836.05 263,-842.05"/>
</a>
</g>
<text text-anchor="middle" x="288.5" y="-884" font-family="Helvetica,sans-Serif" font-size="10.00" fill="grey"> &#45;args</text>
<text text-anchor="middle" x="288.5" y="-873" font-family="Helvetica,sans-Serif" font-size="10.00" fill="grey">&#45;message</text>
<text text-anchor="middle" x="288.5" y="-862" font-family="Helvetica,sans-Serif" font-size="10.00" fill="grey">&#45;res</text>
<text text-anchor="middle" x="288.5" y="-851" font-family="Helvetica,sans-Serif" font-size="10.00" fill="grey">&#45;sourceUri</text>
</g>
<!-- Node5 -->
<g id="Node000005" class="node">
<title>Node5</title>
<g id="a_Node000005"><a xlink:title=" ">
<polygon fill="white" stroke="transparent" points="348.5,-1020 325.5,-1020 325.5,-971 348.5,-971 348.5,-1020"/>
<text text-anchor="start" x="331" y="-1007.5" font-family="Helvetica,sans-Serif" font-size="10.00">int</text>
<text text-anchor="start" x="335.5" y="-992.5" font-family="Helvetica,sans-Serif" font-size="10.00"> </text>
<text text-anchor="start" x="335.5" y="-977.5" font-family="Helvetica,sans-Serif" font-size="10.00"> </text>
<polygon fill="#666666" stroke="#666666" points="326,-1002.5 326,-1002.5 349,-1002.5 349,-1002.5 326,-1002.5"/>
<polygon fill="#666666" stroke="#666666" points="326,-987.5 326,-987.5 349,-987.5 349,-987.5 326,-987.5"/>
<polygon fill="none" stroke="#666666" points="325.5,-971 325.5,-1020 348.5,-1020 348.5,-971 325.5,-971"/>
</a>
</g>
</g>
<!-- Node5&#45;&gt;Node1 -->
<g id="edge4_Node000001_Node000005" class="edge">
<title>Node5&#45;&gt;Node1</title>
<g id="a_edge4_Node000001_Node000005"><a xlink:title=" ">
<path fill="none" stroke="#63b8ff" d="M333.96,-970.74C330.56,-944.15 324.58,-897.43 317.49,-842.01"/>
<polygon fill="none" stroke="#63b8ff" points="317.49,-841.96 312.76,-836.51 315.96,-830.05 320.69,-835.5 317.49,-841.96"/>
</a>
</g>
<text text-anchor="middle" x="354" y="-873" font-family="Helvetica,sans-Serif" font-size="10.00" fill="grey"> &#45;lineNumber</text>
<text text-anchor="middle" x="354" y="-862" font-family="Helvetica,sans-Serif" font-size="10.00" fill="grey">&#45;linePosition</text>
</g>
</g>
</svg>

<g id="navigator" transform="translate(0 0)" fill="#404254">
  <rect fill="#f2f5e9" fill-opacity="0.5" stroke="#606060" stroke-width=".5" x="0" y="0" width="60" height="60"/>
  <use id="zoomplus" xlink:href="#zoomPlus" x="17" y="9" onmousedown="handleZoom(evt,'in')"/>
  <use id="zoomminus" xlink:href="#zoomMin" x="42" y="9" onmousedown="handleZoom(evt,'out')"/>
  <use id="reset" xlink:href="#resetDef" x="30" y="36" onmousedown="handleReset()"/>
   <use id="arrowup" xlink:href="#arrowUp" x="0" y="0" onmousedown="handlePan(0,-1)"/>
  <use id="arrowright" xlink:href="#arrowRight" x="0" y="0" onmousedown="handlePan(1,0)"/>
  <use id="arrowdown" xlink:href="#arrowDown" x="0" y="0" onmousedown="handlePan(0,1)"/>
  <use id="arrowleft" xlink:href="#arrowLeft" x="0" y="0" onmousedown="handlePan(-1,0)"/>
</g>
<svg viewBox="0 0 15 15" width="100%" height="30px" preserveAspectRatio="xMaxYMin meet">
 <g id="arrow_out" transform="scale(0.3 0.3)">
  <a xlink:href="classSystem_1_1Xml_1_1XmlException__coll__graph_org.svg" target="_base">
   <rect id="button" ry="5" rx="5" y="6" x="6" height="38" width="38"
        fill="#f2f5e9" fill-opacity="0.5" stroke="#606060" stroke-width="1.0"/>
   <path id="arrow"
     d="M 11.500037,31.436501 C 11.940474,20.09759 22.043105,11.32322 32.158766,21.979434 L 37.068811,17.246167 C 37.068811,17.246167 37.088388,32 37.088388,32 L 22.160133,31.978069 C 22.160133,31.978069 26.997745,27.140456 26.997745,27.140456 C 18.528582,18.264221 13.291696,25.230495 11.500037,31.436501 z"
     style="fill:#404040;"/>
  </a>
 </g>
</svg>

<style type='text/css'>
<![CDATA[
[data-mouse-over-selected='false'] { opacity: 0.7; }
[data-mouse-over-selected='true']  { opacity: 1.0; }
]]>
</style>
<script type="application/ecmascript"><![CDATA[
document.addEventListener('DOMContentLoaded', (event) => {
  highlightEdges();
  highlightAdjacentNodes();
});
]]></script>
</svg>
