<?xml version="1.0" encoding="UTF-8" standalone="no"?>
<!DOCTYPE svg PUBLIC "-//W3C//DTD SVG 1.1//EN"
 "http://www.w3.org/Graphics/SVG/1.1/DTD/svg11.dtd">
<!-- Generated by graphviz version 2.43.0 (0)
 -->
<!-- Title: Terraria.DataStructures.EntrySorter&lt; TEntryType, TStepType &gt; Pages: 1 -->
<svg width="618pt" height="650pt"
 viewBox="0.00 0.00 617.50 650.00" xmlns="http://www.w3.org/2000/svg" xmlns:xlink="http://www.w3.org/1999/xlink">
<g id="graph0" class="graph" transform="scale(1 1) rotate(0) translate(4 646)">
<title>Terraria.DataStructures.EntrySorter&lt; TEntryType, TStepType &gt;</title>
<!-- Node1 -->
<g id="Node000001" class="node">
<title>Node1</title>
<g id="a_Node000001"><a xlink:title=" ">
<polygon fill="#999999" stroke="transparent" points="413.5,-449 253.5,-449 253.5,-270 413.5,-270 413.5,-449"/>
<text text-anchor="start" x="271.5" y="-436.5" font-family="Helvetica,sans-Serif" font-size="10.00">Terraria.DataStructures.</text>
<text text-anchor="start" x="271.5" y="-425.5" font-family="Helvetica,sans-Serif" font-size="10.00">EntrySorter&lt; TEntryType,</text>
<text text-anchor="start" x="301" y="-414.5" font-family="Helvetica,sans-Serif" font-size="10.00"> TStepType &gt;</text>
<text text-anchor="start" x="257.5" y="-399.5" font-family="Helvetica,sans-Serif" font-size="10.00">+</text>
<text text-anchor="start" x="270.5" y="-399.5" font-family="Helvetica,sans-Serif" font-size="10.00">List&lt; TStepType &gt; Steps</text>
<text text-anchor="start" x="260" y="-384.5" font-family="Helvetica,sans-Serif" font-size="10.00">&#45;</text>
<text text-anchor="start" x="270.5" y="-384.5" font-family="Helvetica,sans-Serif" font-size="10.00">int _prioritizedStep</text>
<text text-anchor="start" x="257.5" y="-369.5" font-family="Helvetica,sans-Serif" font-size="10.00">+</text>
<text text-anchor="start" x="270.5" y="-369.5" font-family="Helvetica,sans-Serif" font-size="10.00">void AddSortSteps(List</text>
<text text-anchor="start" x="270.5" y="-358.5" font-family="Helvetica,sans-Serif" font-size="10.00">&lt; TStepType &gt; sortSteps)</text>
<text text-anchor="start" x="257.5" y="-343.5" font-family="Helvetica,sans-Serif" font-size="10.00">+</text>
<text text-anchor="start" x="270.5" y="-343.5" font-family="Helvetica,sans-Serif" font-size="10.00">int Compare(TEntryType</text>
<text text-anchor="start" x="270.5" y="-332.5" font-family="Helvetica,sans-Serif" font-size="10.00"> x, TEntryType y)</text>
<text text-anchor="start" x="257.5" y="-317.5" font-family="Helvetica,sans-Serif" font-size="10.00">+</text>
<text text-anchor="start" x="270.5" y="-317.5" font-family="Helvetica,sans-Serif" font-size="10.00">void SetPrioritizedStepIndex</text>
<text text-anchor="start" x="270.5" y="-306.5" font-family="Helvetica,sans-Serif" font-size="10.00">(int index)</text>
<text text-anchor="start" x="257.5" y="-291.5" font-family="Helvetica,sans-Serif" font-size="10.00">+</text>
<text text-anchor="start" x="270.5" y="-291.5" font-family="Helvetica,sans-Serif" font-size="10.00">string GetDisplayName()</text>
<text text-anchor="start" x="257.5" y="-276.5" font-family="Helvetica,sans-Serif" font-size="10.00">+</text>
<text text-anchor="start" x="270.5" y="-276.5" font-family="Helvetica,sans-Serif" font-size="10.00">EntrySorter()</text>
<polygon fill="#666666" stroke="#666666" points="253.5,-409.5 253.5,-409.5 413.5,-409.5 413.5,-409.5 253.5,-409.5"/>
<polygon fill="#666666" stroke="#666666" points="253.5,-379.5 253.5,-379.5 268.5,-379.5 268.5,-379.5 253.5,-379.5"/>
<polygon fill="#666666" stroke="#666666" points="268.5,-379.5 268.5,-379.5 413.5,-379.5 413.5,-379.5 268.5,-379.5"/>
<polygon fill="none" stroke="#666666" points="253.5,-270 253.5,-449 413.5,-449 413.5,-270 253.5,-270"/>
</a>
</g>
</g>
<!-- Node4 -->
<g id="Node000004" class="node">
<title>Node4</title>
<g id="a_Node000004"><a xlink:href="../../d2/df8/classTerraria_1_1DataStructures_1_1EntrySorter.html" target="_top" xlink:title=" ">
<polygon fill="white" stroke="transparent" points="235,-190 0,-190 0,0 235,0 235,-190"/>
<text text-anchor="start" x="5.5" y="-178" font-family="Helvetica,sans-Serif" font-size="10.00">Terraria.DataStructures.</text>
<text text-anchor="start" x="5.5" y="-167" font-family="Helvetica,sans-Serif" font-size="10.00">EntrySorter&lt; Terraria.GameContent.</text>
<text text-anchor="start" x="5.5" y="-156" font-family="Helvetica,sans-Serif" font-size="10.00">Bestiary.BestiaryEntry, Terraria.GameContent.</text>
<text text-anchor="start" x="48.5" y="-145" font-family="Helvetica,sans-Serif" font-size="10.00">Bestiary.IBestiarySortStep &gt;</text>
<text text-anchor="start" x="23" y="-130" font-family="Helvetica,sans-Serif" font-size="10.00">+</text>
<text text-anchor="start" x="54.5" y="-130" font-family="Helvetica,sans-Serif" font-size="10.00">List&lt; TStepType &gt; Steps</text>
<text text-anchor="start" x="25.5" y="-115" font-family="Helvetica,sans-Serif" font-size="10.00">&#45;</text>
<text text-anchor="start" x="54.5" y="-115" font-family="Helvetica,sans-Serif" font-size="10.00">int _prioritizedStep</text>
<text text-anchor="start" x="23" y="-100" font-family="Helvetica,sans-Serif" font-size="10.00">+</text>
<text text-anchor="start" x="54.5" y="-100" font-family="Helvetica,sans-Serif" font-size="10.00">void AddSortSteps(List</text>
<text text-anchor="start" x="54.5" y="-89" font-family="Helvetica,sans-Serif" font-size="10.00">&lt; TStepType &gt; sortSteps)</text>
<text text-anchor="start" x="23" y="-74" font-family="Helvetica,sans-Serif" font-size="10.00">+</text>
<text text-anchor="start" x="54.5" y="-74" font-family="Helvetica,sans-Serif" font-size="10.00">int Compare(TEntryType</text>
<text text-anchor="start" x="54.5" y="-63" font-family="Helvetica,sans-Serif" font-size="10.00"> x, TEntryType y)</text>
<text text-anchor="start" x="23" y="-48" font-family="Helvetica,sans-Serif" font-size="10.00">+</text>
<text text-anchor="start" x="54.5" y="-48" font-family="Helvetica,sans-Serif" font-size="10.00">void SetPrioritizedStepIndex</text>
<text text-anchor="start" x="54.5" y="-37" font-family="Helvetica,sans-Serif" font-size="10.00">(int index)</text>
<text text-anchor="start" x="23" y="-22" font-family="Helvetica,sans-Serif" font-size="10.00">+</text>
<text text-anchor="start" x="54.5" y="-22" font-family="Helvetica,sans-Serif" font-size="10.00">string GetDisplayName()</text>
<text text-anchor="start" x="23" y="-7" font-family="Helvetica,sans-Serif" font-size="10.00">+</text>
<text text-anchor="start" x="54.5" y="-7" font-family="Helvetica,sans-Serif" font-size="10.00">EntrySorter()</text>
<polygon fill="#666666" stroke="#666666" points="0.5,-140 0.5,-140 235.5,-140 235.5,-140 0.5,-140"/>
<polygon fill="#666666" stroke="#666666" points="0.5,-110 0.5,-110 52.5,-110 52.5,-110 0.5,-110"/>
<polygon fill="#666666" stroke="#666666" points="52.5,-110 52.5,-110 235.5,-110 235.5,-110 52.5,-110"/>
<polygon fill="none" stroke="#666666" points="0,0 0,-190 235,-190 235,0 0,0"/>
</a>
</g>
</g>
<!-- Node1&#45;&gt;Node4 -->
<g id="edge3_Node000001_Node000004" class="edge">
<title>Node1&#45;&gt;Node4</title>
<g id="a_edge3_Node000001_Node000004"><a xlink:title=" ">
<path fill="none" stroke="orange" d="M244.46,-315.73C217.28,-299.05 189.37,-277.69 169.5,-252 155.53,-233.93 145.21,-211.92 137.63,-190.2"/>
<polygon fill="orange" stroke="orange" points="242.86,-318.85 253.24,-320.98 246.45,-312.84 242.86,-318.85"/>
</a>
</g>
<text text-anchor="start" x="169.5" y="-244" font-family="Helvetica,sans-Serif" font-size="10.00" fill="grey"> &lt; Terraria::GameContent</text>
<text text-anchor="start" x="169.5" y="-233" font-family="Helvetica,sans-Serif" font-size="10.00" fill="grey">::Bestiary::BestiaryEntry,</text>
<text text-anchor="start" x="169.5" y="-222" font-family="Helvetica,sans-Serif" font-size="10.00" fill="grey"> Terraria::GameContent::Bestiary</text>
<text text-anchor="middle" x="249.5" y="-211" font-family="Helvetica,sans-Serif" font-size="10.00" fill="grey">::IBestiarySortStep &gt;</text>
</g>
<!-- Node5 -->
<g id="Node000005" class="node">
<title>Node5</title>
<g id="a_Node000005"><a xlink:href="../../d2/df8/classTerraria_1_1DataStructures_1_1EntrySorter.html" target="_top" xlink:title=" ">
<polygon fill="white" stroke="transparent" points="413.5,-184.5 253.5,-184.5 253.5,-5.5 413.5,-5.5 413.5,-184.5"/>
<text text-anchor="start" x="265.5" y="-172" font-family="Helvetica,sans-Serif" font-size="10.00">Terraria.DataStructures.</text>
<text text-anchor="start" x="265.5" y="-161" font-family="Helvetica,sans-Serif" font-size="10.00">EntrySorter&lt; BestiaryEntry,</text>
<text text-anchor="start" x="283.5" y="-150" font-family="Helvetica,sans-Serif" font-size="10.00"> IBestiarySortStep &gt;</text>
<text text-anchor="start" x="257.5" y="-135" font-family="Helvetica,sans-Serif" font-size="10.00">+</text>
<text text-anchor="start" x="270.5" y="-135" font-family="Helvetica,sans-Serif" font-size="10.00">List&lt; TStepType &gt; Steps</text>
<text text-anchor="start" x="260" y="-120" font-family="Helvetica,sans-Serif" font-size="10.00">&#45;</text>
<text text-anchor="start" x="270.5" y="-120" font-family="Helvetica,sans-Serif" font-size="10.00">int _prioritizedStep</text>
<text text-anchor="start" x="257.5" y="-105" font-family="Helvetica,sans-Serif" font-size="10.00">+</text>
<text text-anchor="start" x="270.5" y="-105" font-family="Helvetica,sans-Serif" font-size="10.00">void AddSortSteps(List</text>
<text text-anchor="start" x="270.5" y="-94" font-family="Helvetica,sans-Serif" font-size="10.00">&lt; TStepType &gt; sortSteps)</text>
<text text-anchor="start" x="257.5" y="-79" font-family="Helvetica,sans-Serif" font-size="10.00">+</text>
<text text-anchor="start" x="270.5" y="-79" font-family="Helvetica,sans-Serif" font-size="10.00">int Compare(TEntryType</text>
<text text-anchor="start" x="270.5" y="-68" font-family="Helvetica,sans-Serif" font-size="10.00"> x, TEntryType y)</text>
<text text-anchor="start" x="257.5" y="-53" font-family="Helvetica,sans-Serif" font-size="10.00">+</text>
<text text-anchor="start" x="270.5" y="-53" font-family="Helvetica,sans-Serif" font-size="10.00">void SetPrioritizedStepIndex</text>
<text text-anchor="start" x="270.5" y="-42" font-family="Helvetica,sans-Serif" font-size="10.00">(int index)</text>
<text text-anchor="start" x="257.5" y="-27" font-family="Helvetica,sans-Serif" font-size="10.00">+</text>
<text text-anchor="start" x="270.5" y="-27" font-family="Helvetica,sans-Serif" font-size="10.00">string GetDisplayName()</text>
<text text-anchor="start" x="257.5" y="-12" font-family="Helvetica,sans-Serif" font-size="10.00">+</text>
<text text-anchor="start" x="270.5" y="-12" font-family="Helvetica,sans-Serif" font-size="10.00">EntrySorter()</text>
<polygon fill="#666666" stroke="#666666" points="253.5,-145 253.5,-145 413.5,-145 413.5,-145 253.5,-145"/>
<polygon fill="#666666" stroke="#666666" points="253.5,-115 253.5,-115 268.5,-115 268.5,-115 253.5,-115"/>
<polygon fill="#666666" stroke="#666666" points="268.5,-115 268.5,-115 413.5,-115 413.5,-115 268.5,-115"/>
<polygon fill="none" stroke="#666666" points="253.5,-5.5 253.5,-184.5 413.5,-184.5 413.5,-5.5 253.5,-5.5"/>
</a>
</g>
</g>
<!-- Node1&#45;&gt;Node5 -->
<g id="edge4_Node000001_Node000005" class="edge">
<title>Node1&#45;&gt;Node5</title>
<g id="a_edge4_Node000001_Node000005"><a xlink:title=" ">
<path fill="none" stroke="orange" d="M333.5,-259.88C333.5,-235.15 333.5,-208.77 333.5,-184.57"/>
<polygon fill="orange" stroke="orange" points="330,-260 333.5,-270 337,-260 330,-260"/>
</a>
</g>
<text text-anchor="start" x="333.5" y="-233" font-family="Helvetica,sans-Serif" font-size="10.00" fill="grey"> &lt; BestiaryEntry, IBestiary</text>
<text text-anchor="middle" x="398.5" y="-222" font-family="Helvetica,sans-Serif" font-size="10.00" fill="grey">SortStep &gt;</text>
</g>
<!-- Node6 -->
<g id="Node000006" class="node">
<title>Node6</title>
<g id="a_Node000006"><a xlink:href="../../d2/df8/classTerraria_1_1DataStructures_1_1EntrySorter.html" target="_top" xlink:title=" ">
<polygon fill="white" stroke="transparent" points="593.5,-184.5 431.5,-184.5 431.5,-5.5 593.5,-5.5 593.5,-184.5"/>
<text text-anchor="start" x="436.5" y="-172" font-family="Helvetica,sans-Serif" font-size="10.00">Terraria.DataStructures.</text>
<text text-anchor="start" x="436.5" y="-161" font-family="Helvetica,sans-Serif" font-size="10.00">EntrySorter&lt; int, ICreativeItem</text>
<text text-anchor="start" x="486" y="-150" font-family="Helvetica,sans-Serif" font-size="10.00">SortStep &gt;</text>
<text text-anchor="start" x="436" y="-135" font-family="Helvetica,sans-Serif" font-size="10.00">+</text>
<text text-anchor="start" x="449.5" y="-135" font-family="Helvetica,sans-Serif" font-size="10.00">List&lt; TStepType &gt; Steps</text>
<text text-anchor="start" x="438.5" y="-120" font-family="Helvetica,sans-Serif" font-size="10.00">&#45;</text>
<text text-anchor="start" x="449.5" y="-120" font-family="Helvetica,sans-Serif" font-size="10.00">int _prioritizedStep</text>
<text text-anchor="start" x="436" y="-105" font-family="Helvetica,sans-Serif" font-size="10.00">+</text>
<text text-anchor="start" x="449.5" y="-105" font-family="Helvetica,sans-Serif" font-size="10.00">void AddSortSteps(List</text>
<text text-anchor="start" x="449.5" y="-94" font-family="Helvetica,sans-Serif" font-size="10.00">&lt; TStepType &gt; sortSteps)</text>
<text text-anchor="start" x="436" y="-79" font-family="Helvetica,sans-Serif" font-size="10.00">+</text>
<text text-anchor="start" x="449.5" y="-79" font-family="Helvetica,sans-Serif" font-size="10.00">int Compare(TEntryType</text>
<text text-anchor="start" x="449.5" y="-68" font-family="Helvetica,sans-Serif" font-size="10.00"> x, TEntryType y)</text>
<text text-anchor="start" x="436" y="-53" font-family="Helvetica,sans-Serif" font-size="10.00">+</text>
<text text-anchor="start" x="449.5" y="-53" font-family="Helvetica,sans-Serif" font-size="10.00">void SetPrioritizedStepIndex</text>
<text text-anchor="start" x="449.5" y="-42" font-family="Helvetica,sans-Serif" font-size="10.00">(int index)</text>
<text text-anchor="start" x="436" y="-27" font-family="Helvetica,sans-Serif" font-size="10.00">+</text>
<text text-anchor="start" x="449.5" y="-27" font-family="Helvetica,sans-Serif" font-size="10.00">string GetDisplayName()</text>
<text text-anchor="start" x="436" y="-12" font-family="Helvetica,sans-Serif" font-size="10.00">+</text>
<text text-anchor="start" x="449.5" y="-12" font-family="Helvetica,sans-Serif" font-size="10.00">EntrySorter()</text>
<polygon fill="#666666" stroke="#666666" points="431.5,-145 431.5,-145 593.5,-145 593.5,-145 431.5,-145"/>
<polygon fill="#666666" stroke="#666666" points="431.5,-115 431.5,-115 447.5,-115 447.5,-115 431.5,-115"/>
<polygon fill="#666666" stroke="#666666" points="447.5,-115 447.5,-115 593.5,-115 593.5,-115 447.5,-115"/>
<polygon fill="none" stroke="#666666" points="431.5,-5.5 431.5,-184.5 593.5,-184.5 593.5,-5.5 431.5,-5.5"/>
</a>
</g>
</g>
<!-- Node1&#45;&gt;Node6 -->
<g id="edge5_Node000001_Node000006" class="edge">
<title>Node1&#45;&gt;Node6</title>
<g id="a_edge5_Node000001_Node000006"><a xlink:title=" ">
<path fill="none" stroke="orange" d="M421.73,-301.34C438.84,-286.94 455.24,-270.31 467.5,-252 480.91,-231.97 490.38,-207.92 497.05,-184.77"/>
<polygon fill="orange" stroke="orange" points="419.36,-298.76 413.83,-307.8 423.79,-304.18 419.36,-298.76"/>
</a>
</g>
<text text-anchor="start" x="489.5" y="-233" font-family="Helvetica,sans-Serif" font-size="10.00" fill="grey"> &lt; int, ICreativeItemSort</text>
<text text-anchor="middle" x="549.5" y="-222" font-family="Helvetica,sans-Serif" font-size="10.00" fill="grey">Step &gt;</text>
</g>
<!-- Node2 -->
<g id="Node000002" class="node">
<title>Node2</title>
<g id="a_Node000002"><a xlink:href="../../dd/d58/interfaceSystem_1_1Collections_1_1Generic_1_1IComparer.html" target="_top" xlink:title=" ">
<polygon fill="white" stroke="transparent" points="402.5,-535 264.5,-535 264.5,-486 402.5,-486 402.5,-535"/>
<text text-anchor="start" x="269.5" y="-522.5" font-family="Helvetica,sans-Serif" font-size="10.00">IComparer&lt; TEntryType &gt;</text>
<text text-anchor="start" x="331.5" y="-507.5" font-family="Helvetica,sans-Serif" font-size="10.00"> </text>
<text text-anchor="start" x="271.5" y="-492.5" font-family="Helvetica,sans-Serif" font-size="10.00">+</text>
<text text-anchor="start" x="287.5" y="-492.5" font-family="Helvetica,sans-Serif" font-size="10.00">int Compare(T x, T y)</text>
<polygon fill="#666666" stroke="#666666" points="264.5,-517.5 264.5,-517.5 402.5,-517.5 402.5,-517.5 264.5,-517.5"/>
<polygon fill="#666666" stroke="#666666" points="264.5,-502.5 264.5,-502.5 402.5,-502.5 402.5,-502.5 264.5,-502.5"/>
<polygon fill="none" stroke="#666666" points="264.5,-486 264.5,-535 402.5,-535 402.5,-486 264.5,-486"/>
</a>
</g>
</g>
<!-- Node2&#45;&gt;Node1 -->
<g id="edge1_Node000001_Node000002" class="edge">
<title>Node2&#45;&gt;Node1</title>
<g id="a_edge1_Node000001_Node000002"><a xlink:title=" ">
<path fill="none" stroke="#63b8ff" d="M333.5,-475.79C333.5,-467.66 333.5,-458.6 333.5,-449.22"/>
<polygon fill="none" stroke="#63b8ff" points="330,-475.89 333.5,-485.89 337,-475.89 330,-475.89"/>
</a>
</g>
</g>
<!-- Node3 -->
<g id="Node000003" class="node">
<title>Node3</title>
<g id="a_Node000003"><a xlink:href="../../dd/d58/interfaceSystem_1_1Collections_1_1Generic_1_1IComparer.html" target="_top" xlink:title=" ">
<polygon fill="white" stroke="transparent" points="407.5,-642 259.5,-642 259.5,-582 407.5,-582 407.5,-642"/>
<text text-anchor="start" x="264.5" y="-630" font-family="Helvetica,sans-Serif" font-size="10.00">System.Collections.Generic.</text>
<text text-anchor="start" x="287.5" y="-619" font-family="Helvetica,sans-Serif" font-size="10.00">IComparer&lt; in T &gt;</text>
<text text-anchor="start" x="331.5" y="-604" font-family="Helvetica,sans-Serif" font-size="10.00"> </text>
<text text-anchor="start" x="269" y="-589" font-family="Helvetica,sans-Serif" font-size="10.00">+</text>
<text text-anchor="start" x="287.5" y="-589" font-family="Helvetica,sans-Serif" font-size="10.00">int Compare(T x, T y)</text>
<polygon fill="#666666" stroke="#666666" points="259.5,-614 259.5,-614 407.5,-614 407.5,-614 259.5,-614"/>
<polygon fill="#666666" stroke="#666666" points="259.5,-599 259.5,-599 407.5,-599 407.5,-599 259.5,-599"/>
<polygon fill="none" stroke="#666666" points="259.5,-582 259.5,-642 407.5,-642 407.5,-582 259.5,-582"/>
</a>
</g>
</g>
<!-- Node3&#45;&gt;Node2 -->
<g id="edge2_Node000002_Node000003" class="edge">
<title>Node3&#45;&gt;Node2</title>
<g id="a_edge2_Node000002_Node000003"><a xlink:title=" ">
<path fill="none" stroke="orange" d="M333.5,-571.8C333.5,-559.38 333.5,-546.03 333.5,-535.06"/>
<polygon fill="orange" stroke="orange" points="330,-571.95 333.5,-581.95 337,-571.95 330,-571.95"/>
</a>
</g>
<text text-anchor="middle" x="373.5" y="-556" font-family="Helvetica,sans-Serif" font-size="10.00" fill="grey"> &lt; TEntryType &gt;</text>
</g>
</g>
</svg>
