<?xml version="1.0" encoding="UTF-8" standalone="no"?>
<!DOCTYPE svg PUBLIC "-//W3C//DTD SVG 1.1//EN"
 "http://www.w3.org/Graphics/SVG/1.1/DTD/svg11.dtd">
<!-- Generated by graphviz version 2.43.0 (0)
 -->
<!-- Title: GUIContollerTransactionButtonList Pages: 1 -->
<!--zoomable 458 -->

<svg id="main" version="1.1" xmlns="http://www.w3.org/2000/svg" xmlns:xlink="http://www.w3.org/1999/xlink" xml:space="preserve" onload="init(evt)">
<style type="text/css"><![CDATA[
.node, .edge {opacity: 0.7;}
.node.selected, .edge.selected {opacity: 1;}
.edge:hover path { stroke: red; }
.edge:hover polygon { stroke: red; fill: red; }
]]></style>

<defs>
  <circle id="rim" cx="0" cy="0" r="7"/>
  <circle id="rim2" cx="0" cy="0" r="3.5"/>
  <g id="zoomPlus">
    <use xlink:href="#rim" fill="#404040"><set attributeName="fill" to="#808080" begin="zoomplus.mouseover" end="zoomplus.mouseout"/></use>
    <path d="M-4,0h8M0,-4v8" fill="none" stroke="white" stroke-width="1.5" pointer-events="none"/>
  </g>
  <g id="zoomMin">
    <use xlink:href="#rim" fill="#404040"><set attributeName="fill" to="#808080" begin="zoomminus.mouseover" end="zoomminus.mouseout"/></use>
    <path d="M-4,0h8" fill="none" stroke="white" stroke-width="1.5" pointer-events="none"/>
  </g>
  <g id="arrowUp" transform="translate(30 24)">
    <use xlink:href="#rim"/>
    <path pointer-events="none" fill="none" stroke="white" stroke-width="1.5" d="M0,-3.0v7 M-2.5,-0.5L0,-3.0L2.5,-0.5"/>
  </g>
  <g id="arrowRight" transform="rotate(90) translate(36 -43)">
    <use xlink:href="#rim"/>
    <path pointer-events="none" fill="none" stroke="white" stroke-width="1.5" d="M0,-3.0v7 M-2.5,-0.5L0,-3.0L2.5,-0.5"/>
  </g>
  <g id="arrowDown" transform="rotate(180) translate(-30 -48)">
    <use xlink:href="#rim"/>
    <path pointer-events="none" fill="none" stroke="white" stroke-width="1.5" d="M0,-3.0v7 M-2.5,-0.5L0,-3.0L2.5,-0.5"/>
  </g>
  <g id="arrowLeft" transform="rotate(270) translate(-36 17)">
    <use xlink:href="#rim"/>
    <path pointer-events="none" fill="none" stroke="white" stroke-width="1.5" d="M0,-3.0v7 M-2.5,-0.5L0,-3.0L2.5,-0.5"/>
  </g>
  <g id="resetDef">
    <use xlink:href="#rim2" fill="#404040"><set attributeName="fill" to="#808080" begin="reset.mouseover" end="reset.mouseout"/></use>
  </g>
</defs>
<script type="application/ecmascript">
var viewWidth = 231;
var viewHeight = 458;
var sectionId = 'dynsection-0';
</script>
<script type="application/ecmascript" xlink:href="../../svg.min.js"/>
<svg id="graph" class="graph">
<g id="viewport">
<title>GUIContollerTransactionButtonList</title>
<!-- Node1 -->
<g id="Node000001" class="node">
<title>Node1</title>
<g id="a_Node000001"><a xlink:title=" ">
<polygon fill="#999999" stroke="transparent" points="223,-298 0,-298 0,0 223,0 223,-298"/>
<text text-anchor="start" x="28" y="-286" font-family="Helvetica,sans-Serif" font-size="10.00">GUIContollerTransactionButtonList</text>
<text text-anchor="start" x="7" y="-271" font-family="Helvetica,sans-Serif" font-size="10.00">&#45;</text>
<text text-anchor="start" x="17.5" y="-271" font-family="Helvetica,sans-Serif" font-size="10.00">bool _vertical</text>
<text text-anchor="start" x="7" y="-256" font-family="Helvetica,sans-Serif" font-size="10.00">&#45;</text>
<text text-anchor="start" x="17.5" y="-256" font-family="Helvetica,sans-Serif" font-size="10.00">bool _wrapAround</text>
<text text-anchor="start" x="7" y="-241" font-family="Helvetica,sans-Serif" font-size="10.00">&#45;</text>
<text text-anchor="start" x="17.5" y="-241" font-family="Helvetica,sans-Serif" font-size="10.00">int _selectedItem</text>
<text text-anchor="start" x="7" y="-226" font-family="Helvetica,sans-Serif" font-size="10.00">&#45;</text>
<text text-anchor="start" x="17.5" y="-226" font-family="Helvetica,sans-Serif" font-size="10.00">TransactionButton_Layout</text>
<text text-anchor="start" x="17.5" y="-215" font-family="Helvetica,sans-Serif" font-size="10.00">[] _items</text>
<text text-anchor="start" x="7" y="-200" font-family="Helvetica,sans-Serif" font-size="10.00">&#45;</text>
<text text-anchor="start" x="17.5" y="-200" font-family="Helvetica,sans-Serif" font-size="10.00">SetupRegions _regionSetup</text>
<text text-anchor="start" x="4.5" y="-185" font-family="Helvetica,sans-Serif" font-size="10.00">+</text>
<text text-anchor="start" x="17.5" y="-185" font-family="Helvetica,sans-Serif" font-size="10.00">delegate void SetupRegions</text>
<text text-anchor="start" x="17.5" y="-174" font-family="Helvetica,sans-Serif" font-size="10.00">(bool setup)</text>
<text text-anchor="start" x="4.5" y="-159" font-family="Helvetica,sans-Serif" font-size="10.00">+</text>
<text text-anchor="start" x="17.5" y="-159" font-family="Helvetica,sans-Serif" font-size="10.00">int GetNavigationOutDirs()</text>
<text text-anchor="start" x="4.5" y="-144" font-family="Helvetica,sans-Serif" font-size="10.00">+</text>
<text text-anchor="start" x="17.5" y="-144" font-family="Helvetica,sans-Serif" font-size="10.00">GUIContollerTransaction</text>
<text text-anchor="start" x="17.5" y="-133" font-family="Helvetica,sans-Serif" font-size="10.00">ButtonList(bool vertical,</text>
<text text-anchor="start" x="17.5" y="-122" font-family="Helvetica,sans-Serif" font-size="10.00"> bool wrapAround, TransactionButton</text>
<text text-anchor="start" x="17.5" y="-111" font-family="Helvetica,sans-Serif" font-size="10.00">_Layout[] items, [Optional] SetupRegions</text>
<text text-anchor="start" x="17.5" y="-100" font-family="Helvetica,sans-Serif" font-size="10.00"> regionSetup)</text>
<text text-anchor="start" x="4.5" y="-85" font-family="Helvetica,sans-Serif" font-size="10.00">+</text>
<text text-anchor="start" x="17.5" y="-85" font-family="Helvetica,sans-Serif" font-size="10.00">void Activate()</text>
<text text-anchor="start" x="4.5" y="-70" font-family="Helvetica,sans-Serif" font-size="10.00">+</text>
<text text-anchor="start" x="17.5" y="-70" font-family="Helvetica,sans-Serif" font-size="10.00">void SelectOption(int</text>
<text text-anchor="start" x="17.5" y="-59" font-family="Helvetica,sans-Serif" font-size="10.00"> option)</text>
<text text-anchor="start" x="4.5" y="-44" font-family="Helvetica,sans-Serif" font-size="10.00">+</text>
<text text-anchor="start" x="17.5" y="-44" font-family="Helvetica,sans-Serif" font-size="10.00">Rectangle GetSelectedItem</text>
<text text-anchor="start" x="17.5" y="-33" font-family="Helvetica,sans-Serif" font-size="10.00">Region()</text>
<text text-anchor="start" x="4.5" y="-18" font-family="Helvetica,sans-Serif" font-size="10.00">+</text>
<text text-anchor="start" x="17.5" y="-18" font-family="Helvetica,sans-Serif" font-size="10.00">GUIControllerItem Navigate</text>
<text text-anchor="start" x="17.5" y="-7" font-family="Helvetica,sans-Serif" font-size="10.00">(Vector2 navigationAxis)</text>
<polygon fill="#666666" stroke="#666666" points="0.5,-281 0.5,-281 223.5,-281 223.5,-281 0.5,-281"/>
<polygon fill="#666666" stroke="#666666" points="0.5,-195 0.5,-195 15.5,-195 15.5,-195 0.5,-195"/>
<polygon fill="#666666" stroke="#666666" points="15.5,-195 15.5,-195 223.5,-195 223.5,-195 15.5,-195"/>
<polygon fill="none" stroke="#666666" points="0,0 0,-298 223,-298 223,0 0,0"/>
</a>
</g>
</g>
<!-- Node2 -->
<g id="Node000002" class="node">
<title>Node2</title>
<g id="a_Node000002"><a xlink:href="../../d1/d1a/interfaceGUIControllerItem.html" target="_top" xlink:title=" ">
<polygon fill="white" stroke="transparent" points="190,-450 33,-450 33,-334 190,-334 190,-450"/>
<text text-anchor="start" x="67.5" y="-438" font-family="Helvetica,sans-Serif" font-size="10.00">GUIControllerItem</text>
<text text-anchor="start" x="110" y="-423" font-family="Helvetica,sans-Serif" font-size="10.00"> </text>
<text text-anchor="start" x="37.5" y="-408" font-family="Helvetica,sans-Serif" font-size="10.00">+</text>
<text text-anchor="start" x="50.5" y="-408" font-family="Helvetica,sans-Serif" font-size="10.00">void Activate()</text>
<text text-anchor="start" x="37.5" y="-393" font-family="Helvetica,sans-Serif" font-size="10.00">+</text>
<text text-anchor="start" x="50.5" y="-393" font-family="Helvetica,sans-Serif" font-size="10.00">GUIControllerItem Navigate</text>
<text text-anchor="start" x="50.5" y="-382" font-family="Helvetica,sans-Serif" font-size="10.00">(Vector2 navigationVector)</text>
<text text-anchor="start" x="37.5" y="-367" font-family="Helvetica,sans-Serif" font-size="10.00">+</text>
<text text-anchor="start" x="50.5" y="-367" font-family="Helvetica,sans-Serif" font-size="10.00">Rectangle GetSelectedItem</text>
<text text-anchor="start" x="50.5" y="-356" font-family="Helvetica,sans-Serif" font-size="10.00">Region()</text>
<text text-anchor="start" x="37.5" y="-341" font-family="Helvetica,sans-Serif" font-size="10.00">+</text>
<text text-anchor="start" x="50.5" y="-341" font-family="Helvetica,sans-Serif" font-size="10.00">int GetNavigationOutDirs()</text>
<polygon fill="#666666" stroke="#666666" points="33.5,-433 33.5,-433 190.5,-433 190.5,-433 33.5,-433"/>
<polygon fill="#666666" stroke="#666666" points="33.5,-418 33.5,-418 190.5,-418 190.5,-418 33.5,-418"/>
<polygon fill="none" stroke="#666666" points="33,-334 33,-450 190,-450 190,-334 33,-334"/>
</a>
</g>
</g>
<!-- Node2&#45;&gt;Node1 -->
<g id="edge1_Node000001_Node000002" class="edge">
<title>Node2&#45;&gt;Node1</title>
<g id="a_edge1_Node000001_Node000002"><a xlink:title=" ">
<path fill="none" stroke="#63b8ff" d="M111.5,-323.72C111.5,-315.5 111.5,-306.87 111.5,-298.04"/>
<polygon fill="none" stroke="#63b8ff" points="108,-323.89 111.5,-333.89 115,-323.89 108,-323.89"/>
</a>
</g>
</g>
</g>
</svg>

<g id="navigator" transform="translate(0 0)" fill="#404254">
  <rect fill="#f2f5e9" fill-opacity="0.5" stroke="#606060" stroke-width=".5" x="0" y="0" width="60" height="60"/>
  <use id="zoomplus" xlink:href="#zoomPlus" x="17" y="9" onmousedown="handleZoom(evt,'in')"/>
  <use id="zoomminus" xlink:href="#zoomMin" x="42" y="9" onmousedown="handleZoom(evt,'out')"/>
  <use id="reset" xlink:href="#resetDef" x="30" y="36" onmousedown="handleReset()"/>
   <use id="arrowup" xlink:href="#arrowUp" x="0" y="0" onmousedown="handlePan(0,-1)"/>
  <use id="arrowright" xlink:href="#arrowRight" x="0" y="0" onmousedown="handlePan(1,0)"/>
  <use id="arrowdown" xlink:href="#arrowDown" x="0" y="0" onmousedown="handlePan(0,1)"/>
  <use id="arrowleft" xlink:href="#arrowLeft" x="0" y="0" onmousedown="handlePan(-1,0)"/>
</g>
<svg viewBox="0 0 15 15" width="100%" height="30px" preserveAspectRatio="xMaxYMin meet">
 <g id="arrow_out" transform="scale(0.3 0.3)">
  <a xlink:href="classGUIContollerTransactionButtonList__inherit__graph_org.svg" target="_base">
   <rect id="button" ry="5" rx="5" y="6" x="6" height="38" width="38"
        fill="#f2f5e9" fill-opacity="0.5" stroke="#606060" stroke-width="1.0"/>
   <path id="arrow"
     d="M 11.500037,31.436501 C 11.940474,20.09759 22.043105,11.32322 32.158766,21.979434 L 37.068811,17.246167 C 37.068811,17.246167 37.088388,32 37.088388,32 L 22.160133,31.978069 C 22.160133,31.978069 26.997745,27.140456 26.997745,27.140456 C 18.528582,18.264221 13.291696,25.230495 11.500037,31.436501 z"
     style="fill:#404040;"/>
  </a>
 </g>
</svg>

<style type='text/css'>
<![CDATA[
[data-mouse-over-selected='false'] { opacity: 0.7; }
[data-mouse-over-selected='true']  { opacity: 1.0; }
]]>
</style>
<script type="application/ecmascript"><![CDATA[
document.addEventListener('DOMContentLoaded', (event) => {
  highlightEdges();
  highlightAdjacentNodes();
});
]]></script>
</svg>
