<?xml version="1.0" encoding="UTF-8" standalone="no"?>
<!DOCTYPE svg PUBLIC "-//W3C//DTD SVG 1.1//EN"
 "http://www.w3.org/Graphics/SVG/1.1/DTD/svg11.dtd">
<!-- Generated by graphviz version 2.43.0 (0)
 -->
<!-- Title: ReLogic.Content.AssetLoadException Pages: 1 -->
<svg width="202pt" height="297pt"
 viewBox="0.00 0.00 202.00 297.00" xmlns="http://www.w3.org/2000/svg" xmlns:xlink="http://www.w3.org/1999/xlink">
<g id="graph0" class="graph" transform="scale(1 1) rotate(0) translate(4 293)">
<title>ReLogic.Content.AssetLoadException</title>
<!-- Node1 -->
<g id="Node000001" class="node">
<title>Node1</title>
<g id="a_Node000001"><a xlink:title=" ">
<polygon fill="#999999" stroke="transparent" points="194,-204 0,-204 0,0 194,0 194,-204"/>
<text text-anchor="start" x="30.5" y="-192" font-family="Helvetica,sans-Serif" font-size="10.00">ReLogic.Content.AssetLoad</text>
<text text-anchor="start" x="72.5" y="-181" font-family="Helvetica,sans-Serif" font-size="10.00">Exception</text>
<text text-anchor="start" x="95" y="-166" font-family="Helvetica,sans-Serif" font-size="10.00"> </text>
<text text-anchor="start" x="4" y="-151" font-family="Helvetica,sans-Serif" font-size="10.00">+</text>
<text text-anchor="start" x="17" y="-151" font-family="Helvetica,sans-Serif" font-size="10.00">static AssetLoadException</text>
<text text-anchor="start" x="17" y="-140" font-family="Helvetica,sans-Serif" font-size="10.00"> FromMissingAsset(string</text>
<text text-anchor="start" x="17" y="-129" font-family="Helvetica,sans-Serif" font-size="10.00"> assetName, [Optional] Exception</text>
<text text-anchor="start" x="17" y="-118" font-family="Helvetica,sans-Serif" font-size="10.00"> innerException)</text>
<text text-anchor="start" x="4" y="-103" font-family="Helvetica,sans-Serif" font-size="10.00">+</text>
<text text-anchor="start" x="17" y="-103" font-family="Helvetica,sans-Serif" font-size="10.00">static AssetLoadException</text>
<text text-anchor="start" x="17" y="-92" font-family="Helvetica,sans-Serif" font-size="10.00"> FromInvalidReader&lt; TReaderType,</text>
<text text-anchor="start" x="17" y="-81" font-family="Helvetica,sans-Serif" font-size="10.00"> TAssetType &gt;()</text>
<text text-anchor="start" x="4" y="-66" font-family="Helvetica,sans-Serif" font-size="10.00">+</text>
<text text-anchor="start" x="17" y="-66" font-family="Helvetica,sans-Serif" font-size="10.00">static AssetLoadException</text>
<text text-anchor="start" x="17" y="-55" font-family="Helvetica,sans-Serif" font-size="10.00"> FromMissingReader(string</text>
<text text-anchor="start" x="17" y="-44" font-family="Helvetica,sans-Serif" font-size="10.00"> extension)</text>
<text text-anchor="start" x="6.5" y="-29" font-family="Helvetica,sans-Serif" font-size="10.00">&#45;</text>
<text text-anchor="start" x="17" y="-29" font-family="Helvetica,sans-Serif" font-size="10.00">AssetLoadException</text>
<text text-anchor="start" x="17" y="-18" font-family="Helvetica,sans-Serif" font-size="10.00">(string text, Exception</text>
<text text-anchor="start" x="17" y="-7" font-family="Helvetica,sans-Serif" font-size="10.00"> innerException)</text>
<polygon fill="#666666" stroke="#666666" points="0,-176 0,-176 194,-176 194,-176 0,-176"/>
<polygon fill="#666666" stroke="#666666" points="0,-161 0,-161 194,-161 194,-161 0,-161"/>
<polygon fill="none" stroke="#666666" points="0,0 0,-204 194,-204 194,0 0,0"/>
</a>
</g>
</g>
<!-- Node2 -->
<g id="Node000002" class="node">
<title>Node2</title>
<g id="a_Node000002"><a xlink:href="../../d4/d67/classException.html" target="_top" xlink:title=" ">
<polygon fill="white" stroke="transparent" points="126.5,-289 67.5,-289 67.5,-240 126.5,-240 126.5,-289"/>
<text text-anchor="start" x="73" y="-276.5" font-family="Helvetica,sans-Serif" font-size="10.00">Exception</text>
<text text-anchor="start" x="95.5" y="-261.5" font-family="Helvetica,sans-Serif" font-size="10.00"> </text>
<text text-anchor="start" x="95.5" y="-246.5" font-family="Helvetica,sans-Serif" font-size="10.00"> </text>
<polygon fill="#666666" stroke="#666666" points="68,-271.5 68,-271.5 127,-271.5 127,-271.5 68,-271.5"/>
<polygon fill="#666666" stroke="#666666" points="68,-256.5 68,-256.5 127,-256.5 127,-256.5 68,-256.5"/>
<polygon fill="none" stroke="#666666" points="67.5,-240 67.5,-289 126.5,-289 126.5,-240 67.5,-240"/>
</a>
</g>
</g>
<!-- Node2&#45;&gt;Node1 -->
<g id="edge1_Node000001_Node000002" class="edge">
<title>Node2&#45;&gt;Node1</title>
<g id="a_edge1_Node000001_Node000002"><a xlink:title=" ">
<path fill="none" stroke="#63b8ff" d="M97,-229.76C97,-221.94 97,-213.23 97,-204.12"/>
<polygon fill="none" stroke="#63b8ff" points="93.5,-229.82 97,-239.82 100.5,-229.82 93.5,-229.82"/>
</a>
</g>
</g>
</g>
</svg>
