<?xml version="1.0" encoding="UTF-8" standalone="no"?>
<!DOCTYPE svg PUBLIC "-//W3C//DTD SVG 1.1//EN"
 "http://www.w3.org/Graphics/SVG/1.1/DTD/svg11.dtd">
<!-- Generated by graphviz version 2.43.0 (0)
 -->
<!-- Title: ReLogic.Utilities.SlotId Pages: 1 -->
<!--zoomable 785 -->

<svg id="main" version="1.1" xmlns="http://www.w3.org/2000/svg" xmlns:xlink="http://www.w3.org/1999/xlink" xml:space="preserve" onload="init(evt)">
<style type="text/css"><![CDATA[
.node, .edge {opacity: 0.7;}
.node.selected, .edge.selected {opacity: 1;}
.edge:hover path { stroke: red; }
.edge:hover polygon { stroke: red; fill: red; }
]]></style>

<defs>
  <circle id="rim" cx="0" cy="0" r="7"/>
  <circle id="rim2" cx="0" cy="0" r="3.5"/>
  <g id="zoomPlus">
    <use xlink:href="#rim" fill="#404040"><set attributeName="fill" to="#808080" begin="zoomplus.mouseover" end="zoomplus.mouseout"/></use>
    <path d="M-4,0h8M0,-4v8" fill="none" stroke="white" stroke-width="1.5" pointer-events="none"/>
  </g>
  <g id="zoomMin">
    <use xlink:href="#rim" fill="#404040"><set attributeName="fill" to="#808080" begin="zoomminus.mouseover" end="zoomminus.mouseout"/></use>
    <path d="M-4,0h8" fill="none" stroke="white" stroke-width="1.5" pointer-events="none"/>
  </g>
  <g id="arrowUp" transform="translate(30 24)">
    <use xlink:href="#rim"/>
    <path pointer-events="none" fill="none" stroke="white" stroke-width="1.5" d="M0,-3.0v7 M-2.5,-0.5L0,-3.0L2.5,-0.5"/>
  </g>
  <g id="arrowRight" transform="rotate(90) translate(36 -43)">
    <use xlink:href="#rim"/>
    <path pointer-events="none" fill="none" stroke="white" stroke-width="1.5" d="M0,-3.0v7 M-2.5,-0.5L0,-3.0L2.5,-0.5"/>
  </g>
  <g id="arrowDown" transform="rotate(180) translate(-30 -48)">
    <use xlink:href="#rim"/>
    <path pointer-events="none" fill="none" stroke="white" stroke-width="1.5" d="M0,-3.0v7 M-2.5,-0.5L0,-3.0L2.5,-0.5"/>
  </g>
  <g id="arrowLeft" transform="rotate(270) translate(-36 17)">
    <use xlink:href="#rim"/>
    <path pointer-events="none" fill="none" stroke="white" stroke-width="1.5" d="M0,-3.0v7 M-2.5,-0.5L0,-3.0L2.5,-0.5"/>
  </g>
  <g id="resetDef">
    <use xlink:href="#rim2" fill="#404040"><set attributeName="fill" to="#808080" begin="reset.mouseover" end="reset.mouseout"/></use>
  </g>
</defs>
<script type="application/ecmascript">
var viewWidth = 345;
var viewHeight = 785;
var sectionId = 'dynsection-0';
</script>
<script type="application/ecmascript" xlink:href="../../svg.min.js"/>
<svg id="graph" class="graph">
<g id="viewport">
<title>ReLogic.Utilities.SlotId</title>
<!-- Node1 -->
<g id="Node000001" class="node">
<title>Node1</title>
<g id="a_Node000001"><a xlink:title=" ">
<polygon fill="#999999" stroke="transparent" points="155,-295 0,-295 0,0 155,0 155,-295"/>
<text text-anchor="start" x="22.5" y="-282.5" font-family="Helvetica,sans-Serif" font-size="10.00">ReLogic.Utilities.SlotId</text>
<text text-anchor="start" x="4.5" y="-267.5" font-family="Helvetica,sans-Serif" font-size="10.00">+</text>
<text text-anchor="start" x="17.5" y="-267.5" font-family="Helvetica,sans-Serif" font-size="10.00">bool IsValid</text>
<text text-anchor="start" x="4.5" y="-252.5" font-family="Helvetica,sans-Serif" font-size="10.00">+</text>
<text text-anchor="start" x="17.5" y="-252.5" font-family="Helvetica,sans-Serif" font-size="10.00">bool IsActive</text>
<text text-anchor="start" x="4.5" y="-237.5" font-family="Helvetica,sans-Serif" font-size="10.00">+</text>
<text text-anchor="start" x="17.5" y="-237.5" font-family="Helvetica,sans-Serif" font-size="10.00">uint Index</text>
<text text-anchor="start" x="4.5" y="-222.5" font-family="Helvetica,sans-Serif" font-size="10.00">+</text>
<text text-anchor="start" x="17.5" y="-222.5" font-family="Helvetica,sans-Serif" font-size="10.00">uint Key</text>
<text text-anchor="start" x="4.5" y="-207.5" font-family="Helvetica,sans-Serif" font-size="10.00">+</text>
<text text-anchor="start" x="17.5" y="-207.5" font-family="Helvetica,sans-Serif" font-size="10.00">SlotId(uint value)</text>
<text text-anchor="start" x="4.5" y="-192.5" font-family="Helvetica,sans-Serif" font-size="10.00">+</text>
<text text-anchor="start" x="17.5" y="-192.5" font-family="Helvetica,sans-Serif" font-size="10.00">override bool Equals</text>
<text text-anchor="start" x="17.5" y="-181.5" font-family="Helvetica,sans-Serif" font-size="10.00">(object obj)</text>
<text text-anchor="start" x="4.5" y="-166.5" font-family="Helvetica,sans-Serif" font-size="10.00">+</text>
<text text-anchor="start" x="17.5" y="-166.5" font-family="Helvetica,sans-Serif" font-size="10.00">override int GetHashCode()</text>
<text text-anchor="start" x="4.5" y="-151.5" font-family="Helvetica,sans-Serif" font-size="10.00">+</text>
<text text-anchor="start" x="17.5" y="-151.5" font-family="Helvetica,sans-Serif" font-size="10.00">float ToFloat()</text>
<text text-anchor="start" x="4.5" y="-136.5" font-family="Helvetica,sans-Serif" font-size="10.00">+</text>
<text text-anchor="start" x="17.5" y="-136.5" font-family="Helvetica,sans-Serif" font-size="10.00">static bool operator</text>
<text text-anchor="start" x="17.5" y="-125.5" font-family="Helvetica,sans-Serif" font-size="10.00">==(SlotId lhs, SlotId rhs)</text>
<text text-anchor="start" x="4.5" y="-110.5" font-family="Helvetica,sans-Serif" font-size="10.00">+</text>
<text text-anchor="start" x="17.5" y="-110.5" font-family="Helvetica,sans-Serif" font-size="10.00">static bool operator!</text>
<text text-anchor="start" x="17.5" y="-99.5" font-family="Helvetica,sans-Serif" font-size="10.00">=(SlotId lhs, SlotId rhs)</text>
<text text-anchor="start" x="4.5" y="-84.5" font-family="Helvetica,sans-Serif" font-size="10.00">+</text>
<text text-anchor="start" x="17.5" y="-84.5" font-family="Helvetica,sans-Serif" font-size="10.00">static SlotId FromFloat</text>
<text text-anchor="start" x="17.5" y="-73.5" font-family="Helvetica,sans-Serif" font-size="10.00">(float value)</text>
<text text-anchor="start" x="4.5" y="-58.5" font-family="Helvetica,sans-Serif" font-size="10.00">+</text>
<text text-anchor="start" x="17.5" y="-58.5" font-family="Helvetica,sans-Serif" font-size="10.00">static SlotId()</text>
<text text-anchor="start" x="4.5" y="-43.5" font-family="Helvetica,sans-Serif" font-size="10.00">~</text>
<text text-anchor="start" x="17.5" y="-43.5" font-family="Helvetica,sans-Serif" font-size="10.00">SlotId ToInactive(uint</text>
<text text-anchor="start" x="17.5" y="-32.5" font-family="Helvetica,sans-Serif" font-size="10.00"> freeHead)</text>
<text text-anchor="start" x="4.5" y="-17.5" font-family="Helvetica,sans-Serif" font-size="10.00">~</text>
<text text-anchor="start" x="17.5" y="-17.5" font-family="Helvetica,sans-Serif" font-size="10.00">SlotId ToActive(uint</text>
<text text-anchor="start" x="17.5" y="-6.5" font-family="Helvetica,sans-Serif" font-size="10.00"> index)</text>
<polygon fill="#666666" stroke="#666666" points="0.5,-277.5 0.5,-277.5 155.5,-277.5 155.5,-277.5 0.5,-277.5"/>
<polygon fill="#666666" stroke="#666666" points="0.5,-217.5 0.5,-217.5 15.5,-217.5 15.5,-217.5 0.5,-217.5"/>
<polygon fill="#666666" stroke="#666666" points="15.5,-217.5 15.5,-217.5 155.5,-217.5 155.5,-217.5 15.5,-217.5"/>
<polygon fill="none" stroke="#666666" points="0,0 0,-295 155,-295 155,0 0,0"/>
</a>
</g>
</g>
<!-- Node2 -->
<g id="Node000002" class="node">
<title>Node2</title>
<g id="a_Node000002"><a xlink:href="../../db/dce/structReLogic_1_1Utilities_1_1SlotId.html" target="_top" xlink:title=" ">
<polygon fill="white" stroke="transparent" points="274,-637 119,-637 119,-342 274,-342 274,-637"/>
<text text-anchor="start" x="141.5" y="-624.5" font-family="Helvetica,sans-Serif" font-size="10.00">ReLogic.Utilities.SlotId</text>
<text text-anchor="start" x="123.5" y="-609.5" font-family="Helvetica,sans-Serif" font-size="10.00">+</text>
<text text-anchor="start" x="136.5" y="-609.5" font-family="Helvetica,sans-Serif" font-size="10.00">bool IsValid</text>
<text text-anchor="start" x="123.5" y="-594.5" font-family="Helvetica,sans-Serif" font-size="10.00">+</text>
<text text-anchor="start" x="136.5" y="-594.5" font-family="Helvetica,sans-Serif" font-size="10.00">bool IsActive</text>
<text text-anchor="start" x="123.5" y="-579.5" font-family="Helvetica,sans-Serif" font-size="10.00">+</text>
<text text-anchor="start" x="136.5" y="-579.5" font-family="Helvetica,sans-Serif" font-size="10.00">uint Index</text>
<text text-anchor="start" x="123.5" y="-564.5" font-family="Helvetica,sans-Serif" font-size="10.00">+</text>
<text text-anchor="start" x="136.5" y="-564.5" font-family="Helvetica,sans-Serif" font-size="10.00">uint Key</text>
<text text-anchor="start" x="123.5" y="-549.5" font-family="Helvetica,sans-Serif" font-size="10.00">+</text>
<text text-anchor="start" x="136.5" y="-549.5" font-family="Helvetica,sans-Serif" font-size="10.00">SlotId(uint value)</text>
<text text-anchor="start" x="123.5" y="-534.5" font-family="Helvetica,sans-Serif" font-size="10.00">+</text>
<text text-anchor="start" x="136.5" y="-534.5" font-family="Helvetica,sans-Serif" font-size="10.00">override bool Equals</text>
<text text-anchor="start" x="136.5" y="-523.5" font-family="Helvetica,sans-Serif" font-size="10.00">(object obj)</text>
<text text-anchor="start" x="123.5" y="-508.5" font-family="Helvetica,sans-Serif" font-size="10.00">+</text>
<text text-anchor="start" x="136.5" y="-508.5" font-family="Helvetica,sans-Serif" font-size="10.00">override int GetHashCode()</text>
<text text-anchor="start" x="123.5" y="-493.5" font-family="Helvetica,sans-Serif" font-size="10.00">+</text>
<text text-anchor="start" x="136.5" y="-493.5" font-family="Helvetica,sans-Serif" font-size="10.00">float ToFloat()</text>
<text text-anchor="start" x="123.5" y="-478.5" font-family="Helvetica,sans-Serif" font-size="10.00">+</text>
<text text-anchor="start" x="136.5" y="-478.5" font-family="Helvetica,sans-Serif" font-size="10.00">static bool operator</text>
<text text-anchor="start" x="136.5" y="-467.5" font-family="Helvetica,sans-Serif" font-size="10.00">==(SlotId lhs, SlotId rhs)</text>
<text text-anchor="start" x="123.5" y="-452.5" font-family="Helvetica,sans-Serif" font-size="10.00">+</text>
<text text-anchor="start" x="136.5" y="-452.5" font-family="Helvetica,sans-Serif" font-size="10.00">static bool operator!</text>
<text text-anchor="start" x="136.5" y="-441.5" font-family="Helvetica,sans-Serif" font-size="10.00">=(SlotId lhs, SlotId rhs)</text>
<text text-anchor="start" x="123.5" y="-426.5" font-family="Helvetica,sans-Serif" font-size="10.00">+</text>
<text text-anchor="start" x="136.5" y="-426.5" font-family="Helvetica,sans-Serif" font-size="10.00">static SlotId FromFloat</text>
<text text-anchor="start" x="136.5" y="-415.5" font-family="Helvetica,sans-Serif" font-size="10.00">(float value)</text>
<text text-anchor="start" x="123.5" y="-400.5" font-family="Helvetica,sans-Serif" font-size="10.00">+</text>
<text text-anchor="start" x="136.5" y="-400.5" font-family="Helvetica,sans-Serif" font-size="10.00">static SlotId()</text>
<text text-anchor="start" x="123.5" y="-385.5" font-family="Helvetica,sans-Serif" font-size="10.00">~</text>
<text text-anchor="start" x="136.5" y="-385.5" font-family="Helvetica,sans-Serif" font-size="10.00">SlotId ToInactive(uint</text>
<text text-anchor="start" x="136.5" y="-374.5" font-family="Helvetica,sans-Serif" font-size="10.00"> freeHead)</text>
<text text-anchor="start" x="123.5" y="-359.5" font-family="Helvetica,sans-Serif" font-size="10.00">~</text>
<text text-anchor="start" x="136.5" y="-359.5" font-family="Helvetica,sans-Serif" font-size="10.00">SlotId ToActive(uint</text>
<text text-anchor="start" x="136.5" y="-348.5" font-family="Helvetica,sans-Serif" font-size="10.00"> index)</text>
<polygon fill="#666666" stroke="#666666" points="119.5,-619.5 119.5,-619.5 274.5,-619.5 274.5,-619.5 119.5,-619.5"/>
<polygon fill="#666666" stroke="#666666" points="119.5,-559.5 119.5,-559.5 134.5,-559.5 134.5,-559.5 119.5,-559.5"/>
<polygon fill="#666666" stroke="#666666" points="134.5,-559.5 134.5,-559.5 274.5,-559.5 274.5,-559.5 134.5,-559.5"/>
<polygon fill="none" stroke="#666666" points="119,-342 119,-637 274,-637 274,-342 119,-342"/>
</a>
</g>
</g>
<!-- Node2&#45;&gt;Node1 -->
<g id="edge1_Node000001_Node000002" class="edge">
<title>Node2&#45;&gt;Node1</title>
<g id="a_edge1_Node000001_Node000002"><a xlink:title=" ">
<path fill="none" stroke="#63b8ff" d="M145.17,-341.84C141.11,-330.25 137,-318.51 132.92,-306.84"/>
<polygon fill="none" stroke="#63b8ff" points="132.81,-306.54 127.06,-302.19 128.85,-295.21 134.61,-299.55 132.81,-306.54"/>
</a>
</g>
<text text-anchor="middle" x="159" y="-316" font-family="Helvetica,sans-Serif" font-size="10.00" fill="grey"> +Invalid</text>
</g>
<!-- Node2&#45;&gt;Node2 -->
<g id="edge2_Node000002_Node000002" class="edge">
<title>Node2&#45;&gt;Node2</title>
<g id="a_edge2_Node000002_Node000002"><a xlink:title=" ">
<path fill="none" stroke="#63b8ff" d="M274.07,-517.94C284.81,-513.26 292,-503.78 292,-489.5 292,-480.35 289.05,-473.18 284.11,-467.97"/>
<polygon fill="none" stroke="#63b8ff" points="283.95,-467.86 276.74,-467.75 274.07,-461.06 281.28,-461.16 283.95,-467.86"/>
</a>
</g>
<text text-anchor="middle" x="314.5" y="-487" font-family="Helvetica,sans-Serif" font-size="10.00" fill="grey"> +Invalid</text>
</g>
<!-- Node3 -->
<g id="Node000003" class="node">
<title>Node3</title>
<g id="a_Node000003"><a xlink:title=" ">
<polygon fill="white" stroke="transparent" points="58,-777 29,-777 29,-728 58,-728 58,-777"/>
<text text-anchor="start" x="34.5" y="-764.5" font-family="Helvetica,sans-Serif" font-size="10.00">uint</text>
<text text-anchor="start" x="42" y="-749.5" font-family="Helvetica,sans-Serif" font-size="10.00"> </text>
<text text-anchor="start" x="42" y="-734.5" font-family="Helvetica,sans-Serif" font-size="10.00"> </text>
<polygon fill="#666666" stroke="#666666" points="29.5,-759.5 29.5,-759.5 58.5,-759.5 58.5,-759.5 29.5,-759.5"/>
<polygon fill="#666666" stroke="#666666" points="29.5,-744.5 29.5,-744.5 58.5,-744.5 58.5,-744.5 29.5,-744.5"/>
<polygon fill="none" stroke="#666666" points="29,-728 29,-777 58,-777 58,-728 29,-728"/>
</a>
</g>
</g>
<!-- Node3&#45;&gt;Node1 -->
<g id="edge4_Node000001_Node000003" class="edge">
<title>Node3&#45;&gt;Node1</title>
<g id="a_edge4_Node000001_Node000003"><a xlink:title=" ">
<path fill="none" stroke="#63b8ff" d="M41.9,-727.83C40.42,-704.69 38.32,-668.44 37.5,-637 34.07,-505.93 24.16,-472.43 37.5,-342 38.66,-330.67 40.19,-319.02 41.98,-307.32"/>
<polygon fill="none" stroke="#63b8ff" points="42.03,-306.98 39.03,-300.42 43.93,-295.13 46.93,-301.69 42.03,-306.98"/>
</a>
</g>
<text text-anchor="middle" x="74" y="-509" font-family="Helvetica,sans-Serif" font-size="10.00" fill="grey"> +Value</text>
<text text-anchor="middle" x="74" y="-498" font-family="Helvetica,sans-Serif" font-size="10.00" fill="grey">&#45;ACTIVE_MASK</text>
<text text-anchor="middle" x="74" y="-487" font-family="Helvetica,sans-Serif" font-size="10.00" fill="grey">&#45;INDEX_MASK</text>
<text text-anchor="middle" x="74" y="-476" font-family="Helvetica,sans-Serif" font-size="10.00" fill="grey">&#45;KEY_INC</text>
<text text-anchor="middle" x="74" y="-465" font-family="Helvetica,sans-Serif" font-size="10.00" fill="grey">&#45;KEY_MASK</text>
</g>
<!-- Node3&#45;&gt;Node2 -->
<g id="edge3_Node000002_Node000003" class="edge">
<title>Node3&#45;&gt;Node2</title>
<g id="a_edge3_Node000002_Node000003"><a xlink:title=" ">
<path fill="none" stroke="#63b8ff" d="M57.35,-727.88C70.43,-705.57 91.2,-670.13 112.75,-633.37"/>
<polygon fill="none" stroke="#63b8ff" points="112.77,-633.33 112.35,-626.13 118.84,-622.98 119.26,-630.18 112.77,-633.33"/>
</a>
</g>
<text text-anchor="middle" x="133" y="-702" font-family="Helvetica,sans-Serif" font-size="10.00" fill="grey"> +Value</text>
<text text-anchor="middle" x="133" y="-691" font-family="Helvetica,sans-Serif" font-size="10.00" fill="grey">&#45;ACTIVE_MASK</text>
<text text-anchor="middle" x="133" y="-680" font-family="Helvetica,sans-Serif" font-size="10.00" fill="grey">&#45;INDEX_MASK</text>
<text text-anchor="middle" x="133" y="-669" font-family="Helvetica,sans-Serif" font-size="10.00" fill="grey">&#45;KEY_INC</text>
<text text-anchor="middle" x="133" y="-658" font-family="Helvetica,sans-Serif" font-size="10.00" fill="grey">&#45;KEY_MASK</text>
</g>
</g>
</svg>

<g id="navigator" transform="translate(0 0)" fill="#404254">
  <rect fill="#f2f5e9" fill-opacity="0.5" stroke="#606060" stroke-width=".5" x="0" y="0" width="60" height="60"/>
  <use id="zoomplus" xlink:href="#zoomPlus" x="17" y="9" onmousedown="handleZoom(evt,'in')"/>
  <use id="zoomminus" xlink:href="#zoomMin" x="42" y="9" onmousedown="handleZoom(evt,'out')"/>
  <use id="reset" xlink:href="#resetDef" x="30" y="36" onmousedown="handleReset()"/>
   <use id="arrowup" xlink:href="#arrowUp" x="0" y="0" onmousedown="handlePan(0,-1)"/>
  <use id="arrowright" xlink:href="#arrowRight" x="0" y="0" onmousedown="handlePan(1,0)"/>
  <use id="arrowdown" xlink:href="#arrowDown" x="0" y="0" onmousedown="handlePan(0,1)"/>
  <use id="arrowleft" xlink:href="#arrowLeft" x="0" y="0" onmousedown="handlePan(-1,0)"/>
</g>
<svg viewBox="0 0 15 15" width="100%" height="30px" preserveAspectRatio="xMaxYMin meet">
 <g id="arrow_out" transform="scale(0.3 0.3)">
  <a xlink:href="structReLogic_1_1Utilities_1_1SlotId__coll__graph_org.svg" target="_base">
   <rect id="button" ry="5" rx="5" y="6" x="6" height="38" width="38"
        fill="#f2f5e9" fill-opacity="0.5" stroke="#606060" stroke-width="1.0"/>
   <path id="arrow"
     d="M 11.500037,31.436501 C 11.940474,20.09759 22.043105,11.32322 32.158766,21.979434 L 37.068811,17.246167 C 37.068811,17.246167 37.088388,32 37.088388,32 L 22.160133,31.978069 C 22.160133,31.978069 26.997745,27.140456 26.997745,27.140456 C 18.528582,18.264221 13.291696,25.230495 11.500037,31.436501 z"
     style="fill:#404040;"/>
  </a>
 </g>
</svg>

<style type='text/css'>
<![CDATA[
[data-mouse-over-selected='false'] { opacity: 0.7; }
[data-mouse-over-selected='true']  { opacity: 1.0; }
]]>
</style>
<script type="application/ecmascript"><![CDATA[
document.addEventListener('DOMContentLoaded', (event) => {
  highlightEdges();
  highlightAdjacentNodes();
});
]]></script>
</svg>
