<?xml version="1.0" encoding="UTF-8" standalone="no"?>
<!DOCTYPE svg PUBLIC "-//W3C//DTD SVG 1.1//EN"
 "http://www.w3.org/Graphics/SVG/1.1/DTD/svg11.dtd">
<!-- Generated by graphviz version 2.43.0 (0)
 -->
<!-- Title: ReLogic.IO.ConsoleOutputMirror.DoubleWriter Pages: 1 -->
<!--zoomable 1512 -->

<svg id="main" version="1.1" xmlns="http://www.w3.org/2000/svg" xmlns:xlink="http://www.w3.org/1999/xlink" xml:space="preserve" onload="init(evt)">
<style type="text/css"><![CDATA[
.node, .edge {opacity: 0.7;}
.node.selected, .edge.selected {opacity: 1;}
.edge:hover path { stroke: red; }
.edge:hover polygon { stroke: red; fill: red; }
]]></style>

<defs>
  <circle id="rim" cx="0" cy="0" r="7"/>
  <circle id="rim2" cx="0" cy="0" r="3.5"/>
  <g id="zoomPlus">
    <use xlink:href="#rim" fill="#404040"><set attributeName="fill" to="#808080" begin="zoomplus.mouseover" end="zoomplus.mouseout"/></use>
    <path d="M-4,0h8M0,-4v8" fill="none" stroke="white" stroke-width="1.5" pointer-events="none"/>
  </g>
  <g id="zoomMin">
    <use xlink:href="#rim" fill="#404040"><set attributeName="fill" to="#808080" begin="zoomminus.mouseover" end="zoomminus.mouseout"/></use>
    <path d="M-4,0h8" fill="none" stroke="white" stroke-width="1.5" pointer-events="none"/>
  </g>
  <g id="arrowUp" transform="translate(30 24)">
    <use xlink:href="#rim"/>
    <path pointer-events="none" fill="none" stroke="white" stroke-width="1.5" d="M0,-3.0v7 M-2.5,-0.5L0,-3.0L2.5,-0.5"/>
  </g>
  <g id="arrowRight" transform="rotate(90) translate(36 -43)">
    <use xlink:href="#rim"/>
    <path pointer-events="none" fill="none" stroke="white" stroke-width="1.5" d="M0,-3.0v7 M-2.5,-0.5L0,-3.0L2.5,-0.5"/>
  </g>
  <g id="arrowDown" transform="rotate(180) translate(-30 -48)">
    <use xlink:href="#rim"/>
    <path pointer-events="none" fill="none" stroke="white" stroke-width="1.5" d="M0,-3.0v7 M-2.5,-0.5L0,-3.0L2.5,-0.5"/>
  </g>
  <g id="arrowLeft" transform="rotate(270) translate(-36 17)">
    <use xlink:href="#rim"/>
    <path pointer-events="none" fill="none" stroke="white" stroke-width="1.5" d="M0,-3.0v7 M-2.5,-0.5L0,-3.0L2.5,-0.5"/>
  </g>
  <g id="resetDef">
    <use xlink:href="#rim2" fill="#404040"><set attributeName="fill" to="#808080" begin="reset.mouseover" end="reset.mouseout"/></use>
  </g>
</defs>
<script type="application/ecmascript">
var viewWidth = 876;
var viewHeight = 1512;
var sectionId = 'dynsection-1';
</script>
<script type="application/ecmascript" xlink:href="../../svg.min.js"/>
<svg id="graph" class="graph">
<g id="viewport">
<title>ReLogic.IO.ConsoleOutputMirror.DoubleWriter</title>
<!-- Node1 -->
<g id="Node000001" class="node">
<title>Node1</title>
<g id="a_Node000001"><a xlink:title=" ">
<polygon fill="#999999" stroke="transparent" points="662.5,-112 505.5,-112 505.5,0 662.5,0 662.5,-112"/>
<text text-anchor="start" x="521" y="-100" font-family="Helvetica,sans-Serif" font-size="10.00">ReLogic.IO.ConsoleOutput</text>
<text text-anchor="start" x="536" y="-89" font-family="Helvetica,sans-Serif" font-size="10.00">Mirror.DoubleWriter</text>
<text text-anchor="start" x="510" y="-74" font-family="Helvetica,sans-Serif" font-size="10.00">+</text>
<text text-anchor="start" x="523" y="-74" font-family="Helvetica,sans-Serif" font-size="10.00">override Encoding Encoding</text>
<text text-anchor="start" x="510" y="-59" font-family="Helvetica,sans-Serif" font-size="10.00">+</text>
<text text-anchor="start" x="523" y="-59" font-family="Helvetica,sans-Serif" font-size="10.00">DoubleWriter(TextWriter</text>
<text text-anchor="start" x="523" y="-48" font-family="Helvetica,sans-Serif" font-size="10.00"> first, TextWriter second)</text>
<text text-anchor="start" x="510" y="-33" font-family="Helvetica,sans-Serif" font-size="10.00">+</text>
<text text-anchor="start" x="523" y="-33" font-family="Helvetica,sans-Serif" font-size="10.00">override void Flush()</text>
<text text-anchor="start" x="510" y="-18" font-family="Helvetica,sans-Serif" font-size="10.00">+</text>
<text text-anchor="start" x="523" y="-18" font-family="Helvetica,sans-Serif" font-size="10.00">override void Write</text>
<text text-anchor="start" x="523" y="-7" font-family="Helvetica,sans-Serif" font-size="10.00">(char value)</text>
<polygon fill="#666666" stroke="#666666" points="506,-84 506,-84 663,-84 663,-84 506,-84"/>
<polygon fill="#666666" stroke="#666666" points="506,-69 506,-69 521,-69 521,-69 506,-69"/>
<polygon fill="#666666" stroke="#666666" points="521,-69 521,-69 663,-69 663,-69 521,-69"/>
<polygon fill="none" stroke="#666666" points="505.5,0 505.5,-112 662.5,-112 662.5,0 505.5,0"/>
</a>
</g>
</g>
<!-- Node2 -->
<g id="Node000002" class="node">
<title>Node2</title>
<g id="a_Node000002"><a xlink:href="../../d8/d05/classSystem_1_1IO_1_1TextWriter.html" target="_top" xlink:title=" ">
<polygon fill="white" stroke="transparent" points="492,-744 320,-744 320,-149 492,-149 492,-744"/>
<text text-anchor="start" x="380.5" y="-731.5" font-family="Helvetica,sans-Serif" font-size="10.00">TextWriter</text>
<text text-anchor="start" x="324" y="-716.5" font-family="Helvetica,sans-Serif" font-size="10.00">+</text>
<text text-anchor="start" x="337" y="-716.5" font-family="Helvetica,sans-Serif" font-size="10.00">virtual global::System.IFormat</text>
<text text-anchor="start" x="337" y="-705.5" font-family="Helvetica,sans-Serif" font-size="10.00">Provider FormatProvider</text>
<text text-anchor="start" x="324" y="-690.5" font-family="Helvetica,sans-Serif" font-size="10.00">+</text>
<text text-anchor="start" x="337" y="-690.5" font-family="Helvetica,sans-Serif" font-size="10.00">global::System.Text.Encoding</text>
<text text-anchor="start" x="337" y="-679.5" font-family="Helvetica,sans-Serif" font-size="10.00"> Encoding</text>
<text text-anchor="start" x="324" y="-664.5" font-family="Helvetica,sans-Serif" font-size="10.00">+</text>
<text text-anchor="start" x="337" y="-664.5" font-family="Helvetica,sans-Serif" font-size="10.00">virtual string NewLine</text>
<text text-anchor="start" x="324" y="-649.5" font-family="Helvetica,sans-Serif" font-size="10.00">+</text>
<text text-anchor="start" x="337" y="-649.5" font-family="Helvetica,sans-Serif" font-size="10.00">virtual void Close()</text>
<text text-anchor="start" x="324" y="-634.5" font-family="Helvetica,sans-Serif" font-size="10.00">+</text>
<text text-anchor="start" x="337" y="-634.5" font-family="Helvetica,sans-Serif" font-size="10.00">void Dispose()</text>
<text text-anchor="start" x="324" y="-619.5" font-family="Helvetica,sans-Serif" font-size="10.00">+</text>
<text text-anchor="start" x="337" y="-619.5" font-family="Helvetica,sans-Serif" font-size="10.00">virtual void Flush()</text>
<text text-anchor="start" x="324" y="-604.5" font-family="Helvetica,sans-Serif" font-size="10.00">+</text>
<text text-anchor="start" x="337" y="-604.5" font-family="Helvetica,sans-Serif" font-size="10.00">virtual void Write</text>
<text text-anchor="start" x="337" y="-593.5" font-family="Helvetica,sans-Serif" font-size="10.00">(char value)</text>
<text text-anchor="start" x="324" y="-578.5" font-family="Helvetica,sans-Serif" font-size="10.00">+</text>
<text text-anchor="start" x="337" y="-578.5" font-family="Helvetica,sans-Serif" font-size="10.00">virtual void Write</text>
<text text-anchor="start" x="337" y="-567.5" font-family="Helvetica,sans-Serif" font-size="10.00">(char[] buffer)</text>
<text text-anchor="start" x="324" y="-552.5" font-family="Helvetica,sans-Serif" font-size="10.00">+</text>
<text text-anchor="start" x="337" y="-552.5" font-family="Helvetica,sans-Serif" font-size="10.00">virtual void Write</text>
<text text-anchor="start" x="337" y="-541.5" font-family="Helvetica,sans-Serif" font-size="10.00">(char[] buffer, int</text>
<text text-anchor="start" x="337" y="-530.5" font-family="Helvetica,sans-Serif" font-size="10.00"> index, int count)</text>
<text text-anchor="start" x="324" y="-515.5" font-family="Helvetica,sans-Serif" font-size="10.00">+</text>
<text text-anchor="start" x="337" y="-515.5" font-family="Helvetica,sans-Serif" font-size="10.00">virtual void Write</text>
<text text-anchor="start" x="337" y="-504.5" font-family="Helvetica,sans-Serif" font-size="10.00">(string value)</text>
<text text-anchor="start" x="324" y="-489.5" font-family="Helvetica,sans-Serif" font-size="10.00">+</text>
<text text-anchor="start" x="337" y="-489.5" font-family="Helvetica,sans-Serif" font-size="10.00">virtual void Write</text>
<text text-anchor="start" x="337" y="-478.5" font-family="Helvetica,sans-Serif" font-size="10.00">(string format, object arg0)</text>
<text text-anchor="start" x="324" y="-463.5" font-family="Helvetica,sans-Serif" font-size="10.00">+</text>
<text text-anchor="start" x="337" y="-463.5" font-family="Helvetica,sans-Serif" font-size="10.00">virtual void Write</text>
<text text-anchor="start" x="337" y="-452.5" font-family="Helvetica,sans-Serif" font-size="10.00">(string format, object</text>
<text text-anchor="start" x="337" y="-441.5" font-family="Helvetica,sans-Serif" font-size="10.00"> arg0, object arg1, object arg2)</text>
<text text-anchor="start" x="324" y="-426.5" font-family="Helvetica,sans-Serif" font-size="10.00">+</text>
<text text-anchor="start" x="337" y="-426.5" font-family="Helvetica,sans-Serif" font-size="10.00">virtual void WriteLine()</text>
<text text-anchor="start" x="324" y="-411.5" font-family="Helvetica,sans-Serif" font-size="10.00">+</text>
<text text-anchor="start" x="337" y="-411.5" font-family="Helvetica,sans-Serif" font-size="10.00">virtual void WriteLine</text>
<text text-anchor="start" x="337" y="-400.5" font-family="Helvetica,sans-Serif" font-size="10.00">(string value)</text>
<text text-anchor="start" x="324" y="-385.5" font-family="Helvetica,sans-Serif" font-size="10.00">+</text>
<text text-anchor="start" x="337" y="-385.5" font-family="Helvetica,sans-Serif" font-size="10.00">virtual void WriteLine</text>
<text text-anchor="start" x="337" y="-374.5" font-family="Helvetica,sans-Serif" font-size="10.00">(object value)</text>
<text text-anchor="start" x="324" y="-359.5" font-family="Helvetica,sans-Serif" font-size="10.00">+</text>
<text text-anchor="start" x="337" y="-359.5" font-family="Helvetica,sans-Serif" font-size="10.00">virtual void WriteLine</text>
<text text-anchor="start" x="337" y="-348.5" font-family="Helvetica,sans-Serif" font-size="10.00">(string format, object arg0)</text>
<text text-anchor="start" x="324" y="-333.5" font-family="Helvetica,sans-Serif" font-size="10.00">+</text>
<text text-anchor="start" x="337" y="-333.5" font-family="Helvetica,sans-Serif" font-size="10.00">virtual void WriteLine</text>
<text text-anchor="start" x="337" y="-322.5" font-family="Helvetica,sans-Serif" font-size="10.00">(string format, object</text>
<text text-anchor="start" x="337" y="-311.5" font-family="Helvetica,sans-Serif" font-size="10.00"> arg0, object arg1)</text>
<text text-anchor="start" x="324" y="-296.5" font-family="Helvetica,sans-Serif" font-size="10.00">+</text>
<text text-anchor="start" x="337" y="-296.5" font-family="Helvetica,sans-Serif" font-size="10.00">virtual void WriteLine</text>
<text text-anchor="start" x="337" y="-285.5" font-family="Helvetica,sans-Serif" font-size="10.00">(string format, params</text>
<text text-anchor="start" x="337" y="-274.5" font-family="Helvetica,sans-Serif" font-size="10.00"> object[] arg)</text>
<text text-anchor="start" x="324" y="-259.5" font-family="Helvetica,sans-Serif" font-size="10.00">+</text>
<text text-anchor="start" x="337" y="-259.5" font-family="Helvetica,sans-Serif" font-size="10.00">static TextWriter Synchronized</text>
<text text-anchor="start" x="337" y="-248.5" font-family="Helvetica,sans-Serif" font-size="10.00">(TextWriter writer)</text>
<text text-anchor="start" x="324" y="-233.5" font-family="Helvetica,sans-Serif" font-size="10.00">#</text>
<text text-anchor="start" x="337" y="-233.5" font-family="Helvetica,sans-Serif" font-size="10.00">TextWriter()</text>
<text text-anchor="start" x="324" y="-218.5" font-family="Helvetica,sans-Serif" font-size="10.00">#</text>
<text text-anchor="start" x="337" y="-218.5" font-family="Helvetica,sans-Serif" font-size="10.00">TextWriter(global</text>
<text text-anchor="start" x="337" y="-207.5" font-family="Helvetica,sans-Serif" font-size="10.00">::System.IFormatProvider</text>
<text text-anchor="start" x="337" y="-196.5" font-family="Helvetica,sans-Serif" font-size="10.00"> formatProvider)</text>
<text text-anchor="start" x="324" y="-181.5" font-family="Helvetica,sans-Serif" font-size="10.00">#</text>
<text text-anchor="start" x="337" y="-181.5" font-family="Helvetica,sans-Serif" font-size="10.00">virtual void Dispose</text>
<text text-anchor="start" x="337" y="-170.5" font-family="Helvetica,sans-Serif" font-size="10.00">(bool disposing)</text>
<text text-anchor="start" x="326.5" y="-155.5" font-family="Helvetica,sans-Serif" font-size="10.00">&#45;</text>
<text text-anchor="start" x="337" y="-155.5" font-family="Helvetica,sans-Serif" font-size="10.00">static TextWriter()</text>
<polygon fill="#666666" stroke="#666666" points="320,-726.5 320,-726.5 492,-726.5 492,-726.5 320,-726.5"/>
<polygon fill="#666666" stroke="#666666" points="320,-659.5 320,-659.5 335,-659.5 335,-659.5 320,-659.5"/>
<polygon fill="#666666" stroke="#666666" points="335,-659.5 335,-659.5 492,-659.5 492,-659.5 335,-659.5"/>
<polygon fill="none" stroke="#666666" points="320,-149 320,-744 492,-744 492,-149 320,-149"/>
</a>
</g>
</g>
<!-- Node2&#45;&gt;Node1 -->
<g id="edge1_Node000001_Node000002" class="edge">
<title>Node2&#45;&gt;Node1</title>
<g id="a_edge1_Node000001_Node000002"><a xlink:title=" ">
<path fill="none" stroke="#63b8ff" d="M496.28,-248.45C519.2,-198.43 542.01,-148.65 558.62,-112.39"/>
<polygon fill="none" stroke="#63b8ff" points="492.99,-247.24 492,-257.79 499.35,-250.16 492.99,-247.24"/>
</a>
</g>
</g>
<!-- Node3 -->
<g id="Node000003" class="node">
<title>Node3</title>
<g id="a_Node000003"><a xlink:title=" ">
<polygon fill="white" stroke="transparent" points="152,-1504 0,-1504 0,-1444 152,-1444 152,-1504"/>
<text text-anchor="start" x="5" y="-1492" font-family="Helvetica,sans-Serif" font-size="10.00">global::SystemMarshalByRef</text>
<text text-anchor="start" x="60" y="-1481" font-family="Helvetica,sans-Serif" font-size="10.00">Object</text>
<text text-anchor="start" x="74" y="-1466" font-family="Helvetica,sans-Serif" font-size="10.00"> </text>
<text text-anchor="start" x="74" y="-1451" font-family="Helvetica,sans-Serif" font-size="10.00"> </text>
<polygon fill="#666666" stroke="#666666" points="0,-1476 0,-1476 152,-1476 152,-1476 0,-1476"/>
<polygon fill="#666666" stroke="#666666" points="0,-1461 0,-1461 152,-1461 152,-1461 0,-1461"/>
<polygon fill="none" stroke="#666666" points="0,-1444 0,-1504 152,-1504 152,-1444 0,-1444"/>
</a>
</g>
</g>
<!-- Node3&#45;&gt;Node2 -->
<g id="edge2_Node000002_Node000003" class="edge">
<title>Node3&#45;&gt;Node2</title>
<g id="a_edge2_Node000002_Node000003"><a xlink:title=" ">
<path fill="none" stroke="#63b8ff" d="M72.27,-1433.69C63.61,-1326.28 49.29,-1020.6 140,-791 179.7,-690.51 258.26,-594.93 319.76,-530.22"/>
<polygon fill="none" stroke="#63b8ff" points="68.79,-1434.07 73.11,-1443.75 75.76,-1433.49 68.79,-1434.07"/>
</a>
</g>
</g>
<!-- Node5 -->
<g id="Node000005" class="node">
<title>Node5</title>
<g id="a_Node000005"><a xlink:href="../../d8/d05/classSystem_1_1IO_1_1TextWriter.html" target="_top" xlink:title=" ">
<polygon fill="white" stroke="transparent" points="492,-1386 320,-1386 320,-791 492,-791 492,-1386"/>
<text text-anchor="start" x="354" y="-1373.5" font-family="Helvetica,sans-Serif" font-size="10.00">System.IO.TextWriter</text>
<text text-anchor="start" x="324" y="-1358.5" font-family="Helvetica,sans-Serif" font-size="10.00">+</text>
<text text-anchor="start" x="337" y="-1358.5" font-family="Helvetica,sans-Serif" font-size="10.00">virtual global::System.IFormat</text>
<text text-anchor="start" x="337" y="-1347.5" font-family="Helvetica,sans-Serif" font-size="10.00">Provider FormatProvider</text>
<text text-anchor="start" x="324" y="-1332.5" font-family="Helvetica,sans-Serif" font-size="10.00">+</text>
<text text-anchor="start" x="337" y="-1332.5" font-family="Helvetica,sans-Serif" font-size="10.00">global::System.Text.Encoding</text>
<text text-anchor="start" x="337" y="-1321.5" font-family="Helvetica,sans-Serif" font-size="10.00"> Encoding</text>
<text text-anchor="start" x="324" y="-1306.5" font-family="Helvetica,sans-Serif" font-size="10.00">+</text>
<text text-anchor="start" x="337" y="-1306.5" font-family="Helvetica,sans-Serif" font-size="10.00">virtual string NewLine</text>
<text text-anchor="start" x="324" y="-1291.5" font-family="Helvetica,sans-Serif" font-size="10.00">+</text>
<text text-anchor="start" x="337" y="-1291.5" font-family="Helvetica,sans-Serif" font-size="10.00">virtual void Close()</text>
<text text-anchor="start" x="324" y="-1276.5" font-family="Helvetica,sans-Serif" font-size="10.00">+</text>
<text text-anchor="start" x="337" y="-1276.5" font-family="Helvetica,sans-Serif" font-size="10.00">void Dispose()</text>
<text text-anchor="start" x="324" y="-1261.5" font-family="Helvetica,sans-Serif" font-size="10.00">+</text>
<text text-anchor="start" x="337" y="-1261.5" font-family="Helvetica,sans-Serif" font-size="10.00">virtual void Flush()</text>
<text text-anchor="start" x="324" y="-1246.5" font-family="Helvetica,sans-Serif" font-size="10.00">+</text>
<text text-anchor="start" x="337" y="-1246.5" font-family="Helvetica,sans-Serif" font-size="10.00">virtual void Write</text>
<text text-anchor="start" x="337" y="-1235.5" font-family="Helvetica,sans-Serif" font-size="10.00">(char value)</text>
<text text-anchor="start" x="324" y="-1220.5" font-family="Helvetica,sans-Serif" font-size="10.00">+</text>
<text text-anchor="start" x="337" y="-1220.5" font-family="Helvetica,sans-Serif" font-size="10.00">virtual void Write</text>
<text text-anchor="start" x="337" y="-1209.5" font-family="Helvetica,sans-Serif" font-size="10.00">(char[] buffer)</text>
<text text-anchor="start" x="324" y="-1194.5" font-family="Helvetica,sans-Serif" font-size="10.00">+</text>
<text text-anchor="start" x="337" y="-1194.5" font-family="Helvetica,sans-Serif" font-size="10.00">virtual void Write</text>
<text text-anchor="start" x="337" y="-1183.5" font-family="Helvetica,sans-Serif" font-size="10.00">(char[] buffer, int</text>
<text text-anchor="start" x="337" y="-1172.5" font-family="Helvetica,sans-Serif" font-size="10.00"> index, int count)</text>
<text text-anchor="start" x="324" y="-1157.5" font-family="Helvetica,sans-Serif" font-size="10.00">+</text>
<text text-anchor="start" x="337" y="-1157.5" font-family="Helvetica,sans-Serif" font-size="10.00">virtual void Write</text>
<text text-anchor="start" x="337" y="-1146.5" font-family="Helvetica,sans-Serif" font-size="10.00">(string value)</text>
<text text-anchor="start" x="324" y="-1131.5" font-family="Helvetica,sans-Serif" font-size="10.00">+</text>
<text text-anchor="start" x="337" y="-1131.5" font-family="Helvetica,sans-Serif" font-size="10.00">virtual void Write</text>
<text text-anchor="start" x="337" y="-1120.5" font-family="Helvetica,sans-Serif" font-size="10.00">(string format, object arg0)</text>
<text text-anchor="start" x="324" y="-1105.5" font-family="Helvetica,sans-Serif" font-size="10.00">+</text>
<text text-anchor="start" x="337" y="-1105.5" font-family="Helvetica,sans-Serif" font-size="10.00">virtual void Write</text>
<text text-anchor="start" x="337" y="-1094.5" font-family="Helvetica,sans-Serif" font-size="10.00">(string format, object</text>
<text text-anchor="start" x="337" y="-1083.5" font-family="Helvetica,sans-Serif" font-size="10.00"> arg0, object arg1, object arg2)</text>
<text text-anchor="start" x="324" y="-1068.5" font-family="Helvetica,sans-Serif" font-size="10.00">+</text>
<text text-anchor="start" x="337" y="-1068.5" font-family="Helvetica,sans-Serif" font-size="10.00">virtual void WriteLine()</text>
<text text-anchor="start" x="324" y="-1053.5" font-family="Helvetica,sans-Serif" font-size="10.00">+</text>
<text text-anchor="start" x="337" y="-1053.5" font-family="Helvetica,sans-Serif" font-size="10.00">virtual void WriteLine</text>
<text text-anchor="start" x="337" y="-1042.5" font-family="Helvetica,sans-Serif" font-size="10.00">(string value)</text>
<text text-anchor="start" x="324" y="-1027.5" font-family="Helvetica,sans-Serif" font-size="10.00">+</text>
<text text-anchor="start" x="337" y="-1027.5" font-family="Helvetica,sans-Serif" font-size="10.00">virtual void WriteLine</text>
<text text-anchor="start" x="337" y="-1016.5" font-family="Helvetica,sans-Serif" font-size="10.00">(object value)</text>
<text text-anchor="start" x="324" y="-1001.5" font-family="Helvetica,sans-Serif" font-size="10.00">+</text>
<text text-anchor="start" x="337" y="-1001.5" font-family="Helvetica,sans-Serif" font-size="10.00">virtual void WriteLine</text>
<text text-anchor="start" x="337" y="-990.5" font-family="Helvetica,sans-Serif" font-size="10.00">(string format, object arg0)</text>
<text text-anchor="start" x="324" y="-975.5" font-family="Helvetica,sans-Serif" font-size="10.00">+</text>
<text text-anchor="start" x="337" y="-975.5" font-family="Helvetica,sans-Serif" font-size="10.00">virtual void WriteLine</text>
<text text-anchor="start" x="337" y="-964.5" font-family="Helvetica,sans-Serif" font-size="10.00">(string format, object</text>
<text text-anchor="start" x="337" y="-953.5" font-family="Helvetica,sans-Serif" font-size="10.00"> arg0, object arg1)</text>
<text text-anchor="start" x="324" y="-938.5" font-family="Helvetica,sans-Serif" font-size="10.00">+</text>
<text text-anchor="start" x="337" y="-938.5" font-family="Helvetica,sans-Serif" font-size="10.00">virtual void WriteLine</text>
<text text-anchor="start" x="337" y="-927.5" font-family="Helvetica,sans-Serif" font-size="10.00">(string format, params</text>
<text text-anchor="start" x="337" y="-916.5" font-family="Helvetica,sans-Serif" font-size="10.00"> object[] arg)</text>
<text text-anchor="start" x="324" y="-901.5" font-family="Helvetica,sans-Serif" font-size="10.00">+</text>
<text text-anchor="start" x="337" y="-901.5" font-family="Helvetica,sans-Serif" font-size="10.00">static TextWriter Synchronized</text>
<text text-anchor="start" x="337" y="-890.5" font-family="Helvetica,sans-Serif" font-size="10.00">(TextWriter writer)</text>
<text text-anchor="start" x="324" y="-875.5" font-family="Helvetica,sans-Serif" font-size="10.00">#</text>
<text text-anchor="start" x="337" y="-875.5" font-family="Helvetica,sans-Serif" font-size="10.00">TextWriter()</text>
<text text-anchor="start" x="324" y="-860.5" font-family="Helvetica,sans-Serif" font-size="10.00">#</text>
<text text-anchor="start" x="337" y="-860.5" font-family="Helvetica,sans-Serif" font-size="10.00">TextWriter(global</text>
<text text-anchor="start" x="337" y="-849.5" font-family="Helvetica,sans-Serif" font-size="10.00">::System.IFormatProvider</text>
<text text-anchor="start" x="337" y="-838.5" font-family="Helvetica,sans-Serif" font-size="10.00"> formatProvider)</text>
<text text-anchor="start" x="324" y="-823.5" font-family="Helvetica,sans-Serif" font-size="10.00">#</text>
<text text-anchor="start" x="337" y="-823.5" font-family="Helvetica,sans-Serif" font-size="10.00">virtual void Dispose</text>
<text text-anchor="start" x="337" y="-812.5" font-family="Helvetica,sans-Serif" font-size="10.00">(bool disposing)</text>
<text text-anchor="start" x="326.5" y="-797.5" font-family="Helvetica,sans-Serif" font-size="10.00">&#45;</text>
<text text-anchor="start" x="337" y="-797.5" font-family="Helvetica,sans-Serif" font-size="10.00">static TextWriter()</text>
<polygon fill="#666666" stroke="#666666" points="320,-1368.5 320,-1368.5 492,-1368.5 492,-1368.5 320,-1368.5"/>
<polygon fill="#666666" stroke="#666666" points="320,-1301.5 320,-1301.5 335,-1301.5 335,-1301.5 320,-1301.5"/>
<polygon fill="#666666" stroke="#666666" points="335,-1301.5 335,-1301.5 492,-1301.5 492,-1301.5 335,-1301.5"/>
<polygon fill="none" stroke="#666666" points="320,-791 320,-1386 492,-1386 492,-791 320,-791"/>
</a>
</g>
</g>
<!-- Node3&#45;&gt;Node5 -->
<g id="edge5_Node000005_Node000003" class="edge">
<title>Node3&#45;&gt;Node5</title>
<g id="a_edge5_Node000005_Node000003"><a xlink:title=" ">
<path fill="none" stroke="#63b8ff" d="M161.76,-1442.5C224.84,-1419.75 300.53,-1391.67 306,-1386 310.9,-1380.92 315.56,-1375.58 320,-1370.04"/>
<polygon fill="none" stroke="#63b8ff" points="160.38,-1439.27 152.16,-1445.95 162.75,-1445.86 160.38,-1439.27"/>
</a>
</g>
</g>
<!-- Node4 -->
<g id="Node000004" class="node">
<title>Node4</title>
<g id="a_Node000004"><a xlink:title=" ">
<polygon fill="white" stroke="transparent" points="310,-1498.5 170,-1498.5 170,-1449.5 310,-1449.5 310,-1498.5"/>
<text text-anchor="start" x="175" y="-1486" font-family="Helvetica,sans-Serif" font-size="10.00">global::SystemIDisposable</text>
<text text-anchor="start" x="238" y="-1471" font-family="Helvetica,sans-Serif" font-size="10.00"> </text>
<text text-anchor="start" x="238" y="-1456" font-family="Helvetica,sans-Serif" font-size="10.00"> </text>
<polygon fill="#666666" stroke="#666666" points="170,-1481 170,-1481 310,-1481 310,-1481 170,-1481"/>
<polygon fill="#666666" stroke="#666666" points="170,-1466 170,-1466 310,-1466 310,-1466 170,-1466"/>
<polygon fill="none" stroke="#666666" points="170,-1449.5 170,-1498.5 310,-1498.5 310,-1449.5 170,-1449.5"/>
</a>
</g>
</g>
<!-- Node4&#45;&gt;Node2 -->
<g id="edge3_Node000002_Node000004" class="edge">
<title>Node4&#45;&gt;Node2</title>
<g id="a_edge3_Node000002_Node000004"><a xlink:title=" ">
<path fill="none" stroke="#63b8ff" d="M217.9,-1440.4C208.56,-1424.69 198.75,-1405.13 194,-1386 130.32,-1129.34 121.82,-1045.4 194,-791 218.72,-703.86 272.52,-617.15 319.74,-552.65"/>
<polygon fill="none" stroke="#63b8ff" points="215.08,-1442.5 223.31,-1449.17 221.04,-1438.82 215.08,-1442.5"/>
</a>
</g>
</g>
<!-- Node4&#45;&gt;Node5 -->
<g id="edge6_Node000005_Node000004" class="edge">
<title>Node4&#45;&gt;Node5</title>
<g id="a_edge6_Node000005_Node000004"><a xlink:title=" ">
<path fill="none" stroke="#63b8ff" d="M267.89,-1441.45C280.81,-1425.63 295.57,-1405.69 306,-1386 310.83,-1376.88 315.5,-1367.48 319.99,-1357.89"/>
<polygon fill="none" stroke="#63b8ff" points="265.04,-1439.4 261.33,-1449.32 270.42,-1443.88 265.04,-1439.4"/>
</a>
</g>
</g>
<!-- Node5&#45;&gt;Node1 -->
<g id="edge14_Node000001_Node000005" class="edge">
<title>Node5&#45;&gt;Node1</title>
<g id="a_edge14_Node000001_Node000005"><a xlink:title=" ">
<path fill="none" stroke="#63b8ff" d="M491.03,-790.72C494.62,-774.97 497.97,-759.33 501,-744 545.4,-519.24 569.71,-248.11 579.22,-124.42"/>
<polygon fill="none" stroke="#63b8ff" points="579.24,-124.17 575.71,-117.89 580.15,-112.21 583.68,-118.49 579.24,-124.17"/>
</a>
</g>
<text text-anchor="middle" x="598" y="-449.5" font-family="Helvetica,sans-Serif" font-size="10.00" fill="grey"> &#45;_first</text>
<text text-anchor="middle" x="598" y="-438.5" font-family="Helvetica,sans-Serif" font-size="10.00" fill="grey">&#45;_second</text>
</g>
<!-- Node5&#45;&gt;Node2 -->
<g id="edge4_Node000002_Node000005" class="edge">
<title>Node5&#45;&gt;Node2</title>
<g id="a_edge4_Node000002_Node000005"><a xlink:title=" ">
<path fill="none" stroke="#63b8ff" d="M406,-790.92C406,-779.39 406,-767.82 406,-756.28"/>
<polygon fill="none" stroke="#63b8ff" points="406,-756.25 402,-750.25 406,-744.25 410,-750.25 406,-756.25"/>
</a>
</g>
<text text-anchor="middle" x="421.5" y="-765" font-family="Helvetica,sans-Serif" font-size="10.00" fill="grey"> +Null</text>
</g>
<!-- Node5&#45;&gt;Node5 -->
<g id="edge7_Node000005_Node000005" class="edge">
<title>Node5&#45;&gt;Node5</title>
<g id="a_edge7_Node000005_Node000005"><a xlink:title=" ">
<path fill="none" stroke="#63b8ff" d="M492.08,-1140.75C502.89,-1131.54 510,-1114.12 510,-1088.5 510,-1069.88 506.24,-1055.6 500.05,-1045.64"/>
<polygon fill="none" stroke="#63b8ff" points="499.84,-1045.4 492.91,-1043.41 492.08,-1036.25 499.01,-1038.24 499.84,-1045.4"/>
</a>
</g>
<text text-anchor="middle" x="525.5" y="-1086" font-family="Helvetica,sans-Serif" font-size="10.00" fill="grey"> +Null</text>
</g>
<!-- Node6 -->
<g id="Node000006" class="node">
<title>Node6</title>
<g id="a_Node000006"><a xlink:title=" ">
<polygon fill="white" stroke="transparent" points="360,-1498.5 328,-1498.5 328,-1449.5 360,-1449.5 360,-1498.5"/>
<text text-anchor="start" x="333" y="-1486" font-family="Helvetica,sans-Serif" font-size="10.00">char</text>
<text text-anchor="start" x="342" y="-1471" font-family="Helvetica,sans-Serif" font-size="10.00"> </text>
<text text-anchor="start" x="342" y="-1456" font-family="Helvetica,sans-Serif" font-size="10.00"> </text>
<polygon fill="#666666" stroke="#666666" points="328,-1481 328,-1481 360,-1481 360,-1481 328,-1481"/>
<polygon fill="#666666" stroke="#666666" points="328,-1466 328,-1466 360,-1466 360,-1466 328,-1466"/>
<polygon fill="none" stroke="#666666" points="328,-1449.5 328,-1498.5 360,-1498.5 360,-1449.5 328,-1449.5"/>
</a>
</g>
</g>
<!-- Node6&#45;&gt;Node2 -->
<g id="edge11_Node000002_Node000006" class="edge">
<title>Node6&#45;&gt;Node2</title>
<g id="a_edge11_Node000002_Node000006"><a xlink:title=" ">
<path fill="none" stroke="#63b8ff" d="M328,-1452.99C325.14,-1449.85 322.08,-1446.74 319,-1444 284.53,-1413.38 254.65,-1426.71 233,-1386 170.92,-1269.26 202.43,-919.64 233,-791 249.31,-722.36 281.62,-651.87 313.96,-592.75"/>
<polygon fill="none" stroke="#63b8ff" points="313.97,-592.72 313.37,-585.54 319.78,-582.22 320.37,-589.41 313.97,-592.72"/>
</a>
</g>
<text text-anchor="middle" x="272" y="-1091.5" font-family="Helvetica,sans-Serif" font-size="10.00" fill="grey"> #CoreNewLine</text>
<text text-anchor="middle" x="272" y="-1080.5" font-family="Helvetica,sans-Serif" font-size="10.00" fill="grey">&#45;s_coreNewLine</text>
</g>
<!-- Node6&#45;&gt;Node5 -->
<g id="edge8_Node000005_Node000006" class="edge">
<title>Node6&#45;&gt;Node5</title>
<g id="a_edge8_Node000005_Node000006"><a xlink:title=" ">
<path fill="none" stroke="#63b8ff" d="M339.15,-1449.36C337.04,-1436.03 335.36,-1419.08 337,-1404 337.2,-1402.18 337.4,-1400.35 337.61,-1398.52"/>
<polygon fill="none" stroke="#63b8ff" points="337.64,-1398.27 334.39,-1391.83 339.08,-1386.36 342.33,-1392.79 337.64,-1398.27"/>
</a>
</g>
<text text-anchor="middle" x="376" y="-1418" font-family="Helvetica,sans-Serif" font-size="10.00" fill="grey"> #CoreNewLine</text>
<text text-anchor="middle" x="376" y="-1407" font-family="Helvetica,sans-Serif" font-size="10.00" fill="grey">&#45;s_coreNewLine</text>
</g>
<!-- Node7 -->
<g id="Node000007" class="node">
<title>Node7</title>
<g id="a_Node000007"><a xlink:title=" ">
<polygon fill="white" stroke="transparent" points="695,-1498.5 657,-1498.5 657,-1449.5 695,-1449.5 695,-1498.5"/>
<text text-anchor="start" x="662" y="-1486" font-family="Helvetica,sans-Serif" font-size="10.00">string</text>
<text text-anchor="start" x="674" y="-1471" font-family="Helvetica,sans-Serif" font-size="10.00"> </text>
<text text-anchor="start" x="674" y="-1456" font-family="Helvetica,sans-Serif" font-size="10.00"> </text>
<polygon fill="#666666" stroke="#666666" points="657,-1481 657,-1481 695,-1481 695,-1481 657,-1481"/>
<polygon fill="#666666" stroke="#666666" points="657,-1466 657,-1466 695,-1466 695,-1466 657,-1466"/>
<polygon fill="none" stroke="#666666" points="657,-1449.5 657,-1498.5 695,-1498.5 695,-1449.5 657,-1449.5"/>
</a>
</g>
</g>
<!-- Node7&#45;&gt;Node2 -->
<g id="edge12_Node000002_Node000007" class="edge">
<title>Node7&#45;&gt;Node2</title>
<g id="a_edge12_Node000002_Node000007"><a xlink:title=" ">
<path fill="none" stroke="#63b8ff" d="M686.9,-1449.38C728.99,-1354.35 870.56,-995.22 707,-791 693.51,-774.16 547.67,-762.66 502.78,-745.16"/>
<polygon fill="none" stroke="#63b8ff" points="502.56,-745.04 495.38,-745.65 492.05,-739.25 499.24,-738.64 502.56,-745.04"/>
</a>
</g>
<text text-anchor="middle" x="825.5" y="-1086" font-family="Helvetica,sans-Serif" font-size="10.00" fill="grey"> &#45;CoreNewLineStr</text>
</g>
<!-- Node7&#45;&gt;Node5 -->
<g id="edge9_Node000005_Node000007" class="edge">
<title>Node7&#45;&gt;Node5</title>
<g id="a_edge9_Node000005_Node000007"><a xlink:title=" ">
<path fill="none" stroke="#63b8ff" d="M656.6,-1462.97C630.67,-1448.77 584.56,-1420.64 555,-1386 534.01,-1361.41 515.07,-1333.36 498.28,-1304.54"/>
<polygon fill="none" stroke="#63b8ff" points="498.15,-1304.31 491.7,-1301.09 492.19,-1293.9 498.64,-1297.12 498.15,-1304.31"/>
</a>
</g>
<text text-anchor="middle" x="638.5" y="-1412.5" font-family="Helvetica,sans-Serif" font-size="10.00" fill="grey"> &#45;CoreNewLineStr</text>
</g>
<!-- Node8 -->
<g id="Node000008" class="node">
<title>Node8</title>
<g id="a_Node000008"><a xlink:href="../../d8/d62/interfaceSystem_1_1IFormatProvider.html" target="_top" xlink:title=" ">
<polygon fill="white" stroke="transparent" points="615,-1504 463,-1504 463,-1444 615,-1444 615,-1504"/>
<text text-anchor="start" x="480" y="-1492" font-family="Helvetica,sans-Serif" font-size="10.00">System.IFormatProvider</text>
<text text-anchor="start" x="537" y="-1477" font-family="Helvetica,sans-Serif" font-size="10.00"> </text>
<text text-anchor="start" x="467" y="-1462" font-family="Helvetica,sans-Serif" font-size="10.00">+</text>
<text text-anchor="start" x="480" y="-1462" font-family="Helvetica,sans-Serif" font-size="10.00">object GetFormat(global</text>
<text text-anchor="start" x="480" y="-1451" font-family="Helvetica,sans-Serif" font-size="10.00">::System.Type formatType)</text>
<polygon fill="#666666" stroke="#666666" points="463,-1487 463,-1487 615,-1487 615,-1487 463,-1487"/>
<polygon fill="#666666" stroke="#666666" points="463,-1472 463,-1472 615,-1472 615,-1472 463,-1472"/>
<polygon fill="none" stroke="#666666" points="463,-1444 463,-1504 615,-1504 615,-1444 463,-1444"/>
</a>
</g>
</g>
<!-- Node8&#45;&gt;Node2 -->
<g id="edge13_Node000002_Node000008" class="edge">
<title>Node8&#45;&gt;Node2</title>
<g id="a_edge13_Node000002_Node000008"><a xlink:title=" ">
<path fill="none" stroke="#63b8ff" d="M556.46,-1443.99C559.17,-1438.21 561.54,-1432.06 563,-1426 565.29,-1416.49 563.1,-1413.78 563,-1404 560.11,-1131.51 606.56,-1057.57 550,-791 538.46,-736.64 518.45,-680.06 496.94,-628.88"/>
<polygon fill="none" stroke="#63b8ff" points="496.88,-628.75 490.85,-624.79 492.18,-617.71 498.21,-621.66 496.88,-628.75"/>
</a>
</g>
<text text-anchor="middle" x="640.5" y="-1086" font-family="Helvetica,sans-Serif" font-size="10.00" fill="grey"> &#45;_internalFormatProvider</text>
</g>
<!-- Node8&#45;&gt;Node5 -->
<g id="edge10_Node000005_Node000008" class="edge">
<title>Node8&#45;&gt;Node5</title>
<g id="a_edge10_Node000005_Node000008"><a xlink:title=" ">
<path fill="none" stroke="#63b8ff" d="M462.82,-1448.59C453.2,-1442.58 444.47,-1435.16 438,-1426 431.53,-1416.85 425.86,-1407.19 420.88,-1397.15"/>
<polygon fill="none" stroke="#63b8ff" points="420.81,-1397 414.66,-1393.24 415.76,-1386.11 421.91,-1389.87 420.81,-1397"/>
</a>
</g>
<text text-anchor="middle" x="500.5" y="-1412.5" font-family="Helvetica,sans-Serif" font-size="10.00" fill="grey"> &#45;_internalFormatProvider</text>
</g>
</g>
</svg>

<g id="navigator" transform="translate(0 0)" fill="#404254">
  <rect fill="#f2f5e9" fill-opacity="0.5" stroke="#606060" stroke-width=".5" x="0" y="0" width="60" height="60"/>
  <use id="zoomplus" xlink:href="#zoomPlus" x="17" y="9" onmousedown="handleZoom(evt,'in')"/>
  <use id="zoomminus" xlink:href="#zoomMin" x="42" y="9" onmousedown="handleZoom(evt,'out')"/>
  <use id="reset" xlink:href="#resetDef" x="30" y="36" onmousedown="handleReset()"/>
   <use id="arrowup" xlink:href="#arrowUp" x="0" y="0" onmousedown="handlePan(0,-1)"/>
  <use id="arrowright" xlink:href="#arrowRight" x="0" y="0" onmousedown="handlePan(1,0)"/>
  <use id="arrowdown" xlink:href="#arrowDown" x="0" y="0" onmousedown="handlePan(0,1)"/>
  <use id="arrowleft" xlink:href="#arrowLeft" x="0" y="0" onmousedown="handlePan(-1,0)"/>
</g>
<svg viewBox="0 0 15 15" width="100%" height="30px" preserveAspectRatio="xMaxYMin meet">
 <g id="arrow_out" transform="scale(0.3 0.3)">
  <a xlink:href="classReLogic_1_1IO_1_1ConsoleOutputMirror_1_1DoubleWriter__coll__graph_org.svg" target="_base">
   <rect id="button" ry="5" rx="5" y="6" x="6" height="38" width="38"
        fill="#f2f5e9" fill-opacity="0.5" stroke="#606060" stroke-width="1.0"/>
   <path id="arrow"
     d="M 11.500037,31.436501 C 11.940474,20.09759 22.043105,11.32322 32.158766,21.979434 L 37.068811,17.246167 C 37.068811,17.246167 37.088388,32 37.088388,32 L 22.160133,31.978069 C 22.160133,31.978069 26.997745,27.140456 26.997745,27.140456 C 18.528582,18.264221 13.291696,25.230495 11.500037,31.436501 z"
     style="fill:#404040;"/>
  </a>
 </g>
</svg>

<style type='text/css'>
<![CDATA[
[data-mouse-over-selected='false'] { opacity: 0.7; }
[data-mouse-over-selected='true']  { opacity: 1.0; }
]]>
</style>
<script type="application/ecmascript"><![CDATA[
document.addEventListener('DOMContentLoaded', (event) => {
  highlightEdges();
  highlightAdjacentNodes();
});
]]></script>
</svg>
