<?xml version="1.0" encoding="UTF-8" standalone="no"?>
<!DOCTYPE svg PUBLIC "-//W3C//DTD SVG 1.1//EN"
 "http://www.w3.org/Graphics/SVG/1.1/DTD/svg11.dtd">
<!-- Generated by graphviz version 2.43.0 (0)
 -->
<!-- Title: Terraria.GameContent.Bestiary.SpawnConditionBestiaryInfoElement Pages: 1 -->
<!--zoomable 673 -->

<svg id="main" version="1.1" xmlns="http://www.w3.org/2000/svg" xmlns:xlink="http://www.w3.org/1999/xlink" xml:space="preserve" onload="init(evt)">
<style type="text/css"><![CDATA[
.node, .edge {opacity: 0.7;}
.node.selected, .edge.selected {opacity: 1;}
.edge:hover path { stroke: red; }
.edge:hover polygon { stroke: red; fill: red; }
]]></style>

<defs>
  <circle id="rim" cx="0" cy="0" r="7"/>
  <circle id="rim2" cx="0" cy="0" r="3.5"/>
  <g id="zoomPlus">
    <use xlink:href="#rim" fill="#404040"><set attributeName="fill" to="#808080" begin="zoomplus.mouseover" end="zoomplus.mouseout"/></use>
    <path d="M-4,0h8M0,-4v8" fill="none" stroke="white" stroke-width="1.5" pointer-events="none"/>
  </g>
  <g id="zoomMin">
    <use xlink:href="#rim" fill="#404040"><set attributeName="fill" to="#808080" begin="zoomminus.mouseover" end="zoomminus.mouseout"/></use>
    <path d="M-4,0h8" fill="none" stroke="white" stroke-width="1.5" pointer-events="none"/>
  </g>
  <g id="arrowUp" transform="translate(30 24)">
    <use xlink:href="#rim"/>
    <path pointer-events="none" fill="none" stroke="white" stroke-width="1.5" d="M0,-3.0v7 M-2.5,-0.5L0,-3.0L2.5,-0.5"/>
  </g>
  <g id="arrowRight" transform="rotate(90) translate(36 -43)">
    <use xlink:href="#rim"/>
    <path pointer-events="none" fill="none" stroke="white" stroke-width="1.5" d="M0,-3.0v7 M-2.5,-0.5L0,-3.0L2.5,-0.5"/>
  </g>
  <g id="arrowDown" transform="rotate(180) translate(-30 -48)">
    <use xlink:href="#rim"/>
    <path pointer-events="none" fill="none" stroke="white" stroke-width="1.5" d="M0,-3.0v7 M-2.5,-0.5L0,-3.0L2.5,-0.5"/>
  </g>
  <g id="arrowLeft" transform="rotate(270) translate(-36 17)">
    <use xlink:href="#rim"/>
    <path pointer-events="none" fill="none" stroke="white" stroke-width="1.5" d="M0,-3.0v7 M-2.5,-0.5L0,-3.0L2.5,-0.5"/>
  </g>
  <g id="resetDef">
    <use xlink:href="#rim2" fill="#404040"><set attributeName="fill" to="#808080" begin="reset.mouseover" end="reset.mouseout"/></use>
  </g>
</defs>
<script type="application/ecmascript">
var viewWidth = 718;
var viewHeight = 673;
var sectionId = 'dynsection-0';
</script>
<script type="application/ecmascript" xlink:href="../../svg.min.js"/>
<svg id="graph" class="graph">
<g id="viewport">
<title>Terraria.GameContent.Bestiary.SpawnConditionBestiaryInfoElement</title>
<!-- Node1 -->
<g id="Node000001" class="node">
<title>Node1</title>
<g id="a_Node000001"><a xlink:title=" ">
<polygon fill="#999999" stroke="transparent" points="575,-175 356,-175 356,0 575,0 575,-175"/>
<text text-anchor="start" x="376.5" y="-162.5" font-family="Helvetica,sans-Serif" font-size="10.00">Terraria.GameContent.Bestiary.</text>
<text text-anchor="start" x="376.5" y="-151.5" font-family="Helvetica,sans-Serif" font-size="10.00">SpawnConditionBestiaryInfoElement</text>
<text text-anchor="start" x="360.5" y="-136.5" font-family="Helvetica,sans-Serif" font-size="10.00">+</text>
<text text-anchor="start" x="373.5" y="-136.5" font-family="Helvetica,sans-Serif" font-size="10.00">float OrderPriority</text>
<text text-anchor="start" x="363" y="-121.5" font-family="Helvetica,sans-Serif" font-size="10.00">&#45;</text>
<text text-anchor="start" x="373.5" y="-121.5" font-family="Helvetica,sans-Serif" font-size="10.00">string _backgroundImagePath</text>
<text text-anchor="start" x="363" y="-106.5" font-family="Helvetica,sans-Serif" font-size="10.00">&#45;</text>
<text text-anchor="start" x="373.5" y="-106.5" font-family="Helvetica,sans-Serif" font-size="10.00">Color? _backgroundColor</text>
<text text-anchor="start" x="360.5" y="-91.5" font-family="Helvetica,sans-Serif" font-size="10.00">+</text>
<text text-anchor="start" x="373.5" y="-91.5" font-family="Helvetica,sans-Serif" font-size="10.00">SpawnConditionBestiaryInfo</text>
<text text-anchor="start" x="373.5" y="-80.5" font-family="Helvetica,sans-Serif" font-size="10.00">Element(string nameLanguageKey,</text>
<text text-anchor="start" x="373.5" y="-69.5" font-family="Helvetica,sans-Serif" font-size="10.00"> int filterIconFrame, [Optional]</text>
<text text-anchor="start" x="373.5" y="-58.5" font-family="Helvetica,sans-Serif" font-size="10.00"> string backgroundImagePath, [Optional]</text>
<text text-anchor="start" x="373.5" y="-47.5" font-family="Helvetica,sans-Serif" font-size="10.00"> Color? backgroundColor)</text>
<text text-anchor="start" x="360.5" y="-32.5" font-family="Helvetica,sans-Serif" font-size="10.00">+</text>
<text text-anchor="start" x="373.5" y="-32.5" font-family="Helvetica,sans-Serif" font-size="10.00">Asset&lt; Texture2D &gt;</text>
<text text-anchor="start" x="373.5" y="-21.5" font-family="Helvetica,sans-Serif" font-size="10.00"> GetBackgroundImage()</text>
<text text-anchor="start" x="360.5" y="-6.5" font-family="Helvetica,sans-Serif" font-size="10.00">+</text>
<text text-anchor="start" x="373.5" y="-6.5" font-family="Helvetica,sans-Serif" font-size="10.00">Color? GetBackgroundColor()</text>
<polygon fill="#666666" stroke="#666666" points="356.5,-146.5 356.5,-146.5 575.5,-146.5 575.5,-146.5 356.5,-146.5"/>
<polygon fill="#666666" stroke="#666666" points="356.5,-101.5 356.5,-101.5 371.5,-101.5 371.5,-101.5 356.5,-101.5"/>
<polygon fill="#666666" stroke="#666666" points="371.5,-101.5 371.5,-101.5 575.5,-101.5 575.5,-101.5 371.5,-101.5"/>
<polygon fill="none" stroke="#666666" points="356,0 356,-175 575,-175 575,0 356,0"/>
</a>
</g>
</g>
<!-- Node2 -->
<g id="Node000002" class="node">
<title>Node2</title>
<g id="a_Node000002"><a xlink:href="../../d4/daa/classTerraria_1_1GameContent_1_1Bestiary_1_1FilterProviderInfoElement.html" target="_top" xlink:title=" ">
<polygon fill="white" stroke="transparent" points="365.5,-528 179.5,-528 179.5,-211 365.5,-211 365.5,-528"/>
<text text-anchor="start" x="210" y="-515.5" font-family="Helvetica,sans-Serif" font-size="10.00">FilterProviderInfoElement</text>
<text text-anchor="start" x="183.5" y="-500.5" font-family="Helvetica,sans-Serif" font-size="10.00">+</text>
<text text-anchor="start" x="196.5" y="-500.5" font-family="Helvetica,sans-Serif" font-size="10.00">Point _filterIconFrame</text>
<text text-anchor="start" x="183.5" y="-485.5" font-family="Helvetica,sans-Serif" font-size="10.00">+</text>
<text text-anchor="start" x="196.5" y="-485.5" font-family="Helvetica,sans-Serif" font-size="10.00">int DisplayTextPriority</text>
<text text-anchor="start" x="183.5" y="-470.5" font-family="Helvetica,sans-Serif" font-size="10.00">+</text>
<text text-anchor="start" x="196.5" y="-470.5" font-family="Helvetica,sans-Serif" font-size="10.00">bool HideInPortraitInfo</text>
<text text-anchor="start" x="186" y="-455.5" font-family="Helvetica,sans-Serif" font-size="10.00">&#45;</text>
<text text-anchor="start" x="196.5" y="-455.5" font-family="Helvetica,sans-Serif" font-size="10.00">string _key</text>
<text text-anchor="start" x="186" y="-440.5" font-family="Helvetica,sans-Serif" font-size="10.00">&#45;</text>
<text text-anchor="start" x="196.5" y="-440.5" font-family="Helvetica,sans-Serif" font-size="10.00">const int framesPerRow</text>
<text text-anchor="start" x="186" y="-425.5" font-family="Helvetica,sans-Serif" font-size="10.00">&#45;</text>
<text text-anchor="start" x="196.5" y="-425.5" font-family="Helvetica,sans-Serif" font-size="10.00">const int framesPerColumn</text>
<text text-anchor="start" x="183.5" y="-410.5" font-family="Helvetica,sans-Serif" font-size="10.00">+</text>
<text text-anchor="start" x="196.5" y="-410.5" font-family="Helvetica,sans-Serif" font-size="10.00">FilterProviderInfoElement</text>
<text text-anchor="start" x="196.5" y="-399.5" font-family="Helvetica,sans-Serif" font-size="10.00">(string nameLanguageKey,</text>
<text text-anchor="start" x="196.5" y="-388.5" font-family="Helvetica,sans-Serif" font-size="10.00"> int filterIconFrame)</text>
<text text-anchor="start" x="183.5" y="-373.5" font-family="Helvetica,sans-Serif" font-size="10.00">+</text>
<text text-anchor="start" x="196.5" y="-373.5" font-family="Helvetica,sans-Serif" font-size="10.00">UIElement GetFilterImage()</text>
<text text-anchor="start" x="183.5" y="-358.5" font-family="Helvetica,sans-Serif" font-size="10.00">+</text>
<text text-anchor="start" x="196.5" y="-358.5" font-family="Helvetica,sans-Serif" font-size="10.00">string GetSearchString</text>
<text text-anchor="start" x="196.5" y="-347.5" font-family="Helvetica,sans-Serif" font-size="10.00">(ref BestiaryUICollectionInfo info)</text>
<text text-anchor="start" x="183.5" y="-332.5" font-family="Helvetica,sans-Serif" font-size="10.00">+</text>
<text text-anchor="start" x="196.5" y="-332.5" font-family="Helvetica,sans-Serif" font-size="10.00">string GetDisplayNameKey()</text>
<text text-anchor="start" x="183.5" y="-317.5" font-family="Helvetica,sans-Serif" font-size="10.00">+</text>
<text text-anchor="start" x="196.5" y="-317.5" font-family="Helvetica,sans-Serif" font-size="10.00">UIElement ProvideUIElement</text>
<text text-anchor="start" x="196.5" y="-306.5" font-family="Helvetica,sans-Serif" font-size="10.00">(BestiaryUICollectionInfo info)</text>
<text text-anchor="start" x="183.5" y="-291.5" font-family="Helvetica,sans-Serif" font-size="10.00">+</text>
<text text-anchor="start" x="196.5" y="-291.5" font-family="Helvetica,sans-Serif" font-size="10.00">void GetDisplay(out</text>
<text text-anchor="start" x="196.5" y="-280.5" font-family="Helvetica,sans-Serif" font-size="10.00"> Texture2D texture,</text>
<text text-anchor="start" x="196.5" y="-269.5" font-family="Helvetica,sans-Serif" font-size="10.00"> out Rectangle frame)</text>
<text text-anchor="start" x="186" y="-254.5" font-family="Helvetica,sans-Serif" font-size="10.00">&#45;</text>
<text text-anchor="start" x="196.5" y="-254.5" font-family="Helvetica,sans-Serif" font-size="10.00">void AddOnHover(UIElement</text>
<text text-anchor="start" x="196.5" y="-243.5" font-family="Helvetica,sans-Serif" font-size="10.00"> button)</text>
<text text-anchor="start" x="186" y="-228.5" font-family="Helvetica,sans-Serif" font-size="10.00">&#45;</text>
<text text-anchor="start" x="196.5" y="-228.5" font-family="Helvetica,sans-Serif" font-size="10.00">void ShowButtonName</text>
<text text-anchor="start" x="196.5" y="-217.5" font-family="Helvetica,sans-Serif" font-size="10.00">(UIElement element)</text>
<polygon fill="#666666" stroke="#666666" points="179.5,-510.5 179.5,-510.5 365.5,-510.5 365.5,-510.5 179.5,-510.5"/>
<polygon fill="#666666" stroke="#666666" points="179.5,-420.5 179.5,-420.5 194.5,-420.5 194.5,-420.5 179.5,-420.5"/>
<polygon fill="#666666" stroke="#666666" points="194.5,-420.5 194.5,-420.5 365.5,-420.5 365.5,-420.5 194.5,-420.5"/>
<polygon fill="none" stroke="#666666" points="179.5,-211 179.5,-528 365.5,-528 365.5,-211 179.5,-211"/>
</a>
</g>
</g>
<!-- Node2&#45;&gt;Node1 -->
<g id="edge1_Node000001_Node000002" class="edge">
<title>Node2&#45;&gt;Node1</title>
<g id="a_edge1_Node000001_Node000002"><a xlink:title=" ">
<path fill="none" stroke="#63b8ff" d="M371.43,-215.44C372.45,-213.95 373.48,-212.47 374.5,-211 382.58,-199.36 391.26,-187.23 399.93,-175.33"/>
<polygon fill="none" stroke="#63b8ff" points="368.29,-213.83 365.52,-224.06 374.06,-217.79 368.29,-213.83"/>
</a>
</g>
</g>
<!-- Node3 -->
<g id="Node000003" class="node">
<title>Node3</title>
<g id="a_Node000003"><a xlink:href="../../d0/d1a/interfaceTerraria_1_1GameContent_1_1Bestiary_1_1IFilterInfoProvider.html" target="_top" xlink:title=" ">
<polygon fill="white" stroke="transparent" points="161,-665 0,-665 0,-564 161,-564 161,-665"/>
<text text-anchor="start" x="37" y="-652.5" font-family="Helvetica,sans-Serif" font-size="10.00">IFilterInfoProvider</text>
<text text-anchor="start" x="79" y="-637.5" font-family="Helvetica,sans-Serif" font-size="10.00"> </text>
<text text-anchor="start" x="4.5" y="-622.5" font-family="Helvetica,sans-Serif" font-size="10.00">+</text>
<text text-anchor="start" x="17.5" y="-622.5" font-family="Helvetica,sans-Serif" font-size="10.00">UIElement GetFilterImage()</text>
<text text-anchor="start" x="4.5" y="-607.5" font-family="Helvetica,sans-Serif" font-size="10.00">+</text>
<text text-anchor="start" x="17.5" y="-607.5" font-family="Helvetica,sans-Serif" font-size="10.00">string GetDisplayNameKey()</text>
<text text-anchor="start" x="4.5" y="-592.5" font-family="Helvetica,sans-Serif" font-size="10.00">+</text>
<text text-anchor="start" x="17.5" y="-592.5" font-family="Helvetica,sans-Serif" font-size="10.00">void GetDisplay(out</text>
<text text-anchor="start" x="17.5" y="-581.5" font-family="Helvetica,sans-Serif" font-size="10.00"> Texture2D texture,</text>
<text text-anchor="start" x="17.5" y="-570.5" font-family="Helvetica,sans-Serif" font-size="10.00"> out Rectangle frame)</text>
<polygon fill="#666666" stroke="#666666" points="0.5,-647.5 0.5,-647.5 161.5,-647.5 161.5,-647.5 0.5,-647.5"/>
<polygon fill="#666666" stroke="#666666" points="0.5,-632.5 0.5,-632.5 161.5,-632.5 161.5,-632.5 0.5,-632.5"/>
<polygon fill="none" stroke="#666666" points="0,-564 0,-665 161,-665 161,-564 0,-564"/>
</a>
</g>
</g>
<!-- Node3&#45;&gt;Node2 -->
<g id="edge2_Node000002_Node000003" class="edge">
<title>Node3&#45;&gt;Node2</title>
<g id="a_edge2_Node000002_Node000003"><a xlink:title=" ">
<path fill="none" stroke="#63b8ff" d="M126.06,-555.83C142.11,-535.52 160.79,-511.89 179.32,-488.43"/>
<polygon fill="none" stroke="#63b8ff" points="123.27,-553.72 119.82,-563.74 128.76,-558.06 123.27,-553.72"/>
</a>
</g>
</g>
<!-- Node4 -->
<g id="Node000004" class="node">
<title>Node4</title>
<g id="a_Node000004"><a xlink:href="../../d8/df8/interfaceTerraria_1_1GameContent_1_1Bestiary_1_1IProvideSearchFilterString.html" target="_top" xlink:title=" ">
<polygon fill="white" stroke="transparent" points="365.5,-644.5 179.5,-644.5 179.5,-584.5 365.5,-584.5 365.5,-644.5"/>
<text text-anchor="start" x="209" y="-632.5" font-family="Helvetica,sans-Serif" font-size="10.00">IProvideSearchFilterString</text>
<text text-anchor="start" x="270.5" y="-617.5" font-family="Helvetica,sans-Serif" font-size="10.00"> </text>
<text text-anchor="start" x="183.5" y="-602.5" font-family="Helvetica,sans-Serif" font-size="10.00">+</text>
<text text-anchor="start" x="196.5" y="-602.5" font-family="Helvetica,sans-Serif" font-size="10.00">string GetSearchString</text>
<text text-anchor="start" x="196.5" y="-591.5" font-family="Helvetica,sans-Serif" font-size="10.00">(ref BestiaryUICollectionInfo info)</text>
<polygon fill="#666666" stroke="#666666" points="179.5,-627.5 179.5,-627.5 365.5,-627.5 365.5,-627.5 179.5,-627.5"/>
<polygon fill="#666666" stroke="#666666" points="179.5,-612.5 179.5,-612.5 365.5,-612.5 365.5,-612.5 179.5,-612.5"/>
<polygon fill="none" stroke="#666666" points="179.5,-584.5 179.5,-644.5 365.5,-644.5 365.5,-584.5 179.5,-584.5"/>
</a>
</g>
</g>
<!-- Node4&#45;&gt;Node2 -->
<g id="edge3_Node000002_Node000004" class="edge">
<title>Node4&#45;&gt;Node2</title>
<g id="a_edge3_Node000002_Node000004"><a xlink:title=" ">
<path fill="none" stroke="#63b8ff" d="M272.5,-574.06C272.5,-560.73 272.5,-544.92 272.5,-528.11"/>
<polygon fill="none" stroke="#63b8ff" points="269,-574.19 272.5,-584.19 276,-574.19 269,-574.19"/>
</a>
</g>
</g>
<!-- Node5 -->
<g id="Node000005" class="node">
<title>Node5</title>
<g id="a_Node000005"><a xlink:href="../../d9/d8f/interfaceTerraria_1_1GameContent_1_1Bestiary_1_1IBestiaryInfoElement.html" target="_top" xlink:title=" ">
<polygon fill="white" stroke="transparent" points="552,-644.5 383,-644.5 383,-584.5 552,-584.5 552,-644.5"/>
<text text-anchor="start" x="416.5" y="-632.5" font-family="Helvetica,sans-Serif" font-size="10.00">IBestiaryInfoElement</text>
<text text-anchor="start" x="466" y="-617.5" font-family="Helvetica,sans-Serif" font-size="10.00"> </text>
<text text-anchor="start" x="387.5" y="-602.5" font-family="Helvetica,sans-Serif" font-size="10.00">+</text>
<text text-anchor="start" x="400.5" y="-602.5" font-family="Helvetica,sans-Serif" font-size="10.00">UIElement ProvideUIElement</text>
<text text-anchor="start" x="400.5" y="-591.5" font-family="Helvetica,sans-Serif" font-size="10.00">(BestiaryUICollectionInfo info)</text>
<polygon fill="#666666" stroke="#666666" points="383.5,-627.5 383.5,-627.5 552.5,-627.5 552.5,-627.5 383.5,-627.5"/>
<polygon fill="#666666" stroke="#666666" points="383.5,-612.5 383.5,-612.5 552.5,-612.5 552.5,-612.5 383.5,-612.5"/>
<polygon fill="none" stroke="#666666" points="383,-584.5 383,-644.5 552,-644.5 552,-584.5 383,-584.5"/>
</a>
</g>
</g>
<!-- Node5&#45;&gt;Node2 -->
<g id="edge4_Node000002_Node000005" class="edge">
<title>Node5&#45;&gt;Node2</title>
<g id="a_edge4_Node000002_Node000005"><a xlink:title=" ">
<path fill="none" stroke="#63b8ff" d="M423.63,-577.3C407.31,-562.8 389.21,-545.43 374.5,-528 371.56,-524.51 368.63,-520.94 365.73,-517.3"/>
<polygon fill="none" stroke="#63b8ff" points="421.64,-580.21 431.47,-584.17 426.25,-574.94 421.64,-580.21"/>
</a>
</g>
</g>
<!-- Node6 -->
<g id="Node000006" class="node">
<title>Node6</title>
<g id="a_Node000006"><a xlink:href="../../d2/dfa/interfaceTerraria_1_1GameContent_1_1Bestiary_1_1IBestiaryBackgroundImagePathAndColorProvider.html" target="_top" xlink:title=" ">
<polygon fill="white" stroke="transparent" points="547,-412.5 384,-412.5 384,-326.5 547,-326.5 547,-412.5"/>
<text text-anchor="start" x="399.5" y="-400.5" font-family="Helvetica,sans-Serif" font-size="10.00">IBestiaryBackgroundImage</text>
<text text-anchor="start" x="413" y="-389.5" font-family="Helvetica,sans-Serif" font-size="10.00">PathAndColorProvider</text>
<text text-anchor="start" x="464" y="-374.5" font-family="Helvetica,sans-Serif" font-size="10.00"> </text>
<text text-anchor="start" x="388.5" y="-359.5" font-family="Helvetica,sans-Serif" font-size="10.00">+</text>
<text text-anchor="start" x="401.5" y="-359.5" font-family="Helvetica,sans-Serif" font-size="10.00">Asset&lt; Texture2D &gt;</text>
<text text-anchor="start" x="401.5" y="-348.5" font-family="Helvetica,sans-Serif" font-size="10.00"> GetBackgroundImage()</text>
<text text-anchor="start" x="388.5" y="-333.5" font-family="Helvetica,sans-Serif" font-size="10.00">+</text>
<text text-anchor="start" x="401.5" y="-333.5" font-family="Helvetica,sans-Serif" font-size="10.00">Color? GetBackgroundColor()</text>
<polygon fill="#666666" stroke="#666666" points="384.5,-384.5 384.5,-384.5 547.5,-384.5 547.5,-384.5 384.5,-384.5"/>
<polygon fill="#666666" stroke="#666666" points="384.5,-369.5 384.5,-369.5 547.5,-369.5 547.5,-369.5 384.5,-369.5"/>
<polygon fill="none" stroke="#666666" points="384,-326.5 384,-412.5 547,-412.5 547,-326.5 384,-326.5"/>
</a>
</g>
</g>
<!-- Node6&#45;&gt;Node1 -->
<g id="edge5_Node000001_Node000006" class="edge">
<title>Node6&#45;&gt;Node1</title>
<g id="a_edge5_Node000001_Node000006"><a xlink:title=" ">
<path fill="none" stroke="#63b8ff" d="M465.5,-316.06C465.5,-276.47 465.5,-221.27 465.5,-175.16"/>
<polygon fill="none" stroke="#63b8ff" points="462,-316.28 465.5,-326.28 469,-316.28 462,-316.28"/>
</a>
</g>
</g>
<!-- Node7 -->
<g id="Node000007" class="node">
<title>Node7</title>
<g id="a_Node000007"><a xlink:href="../../d4/d02/interfaceTerraria_1_1GameContent_1_1Bestiary_1_1IBestiaryPrioritizedElement.html" target="_top" xlink:title=" ">
<polygon fill="white" stroke="transparent" points="709.5,-394 565.5,-394 565.5,-345 709.5,-345 709.5,-394"/>
<text text-anchor="start" x="570.5" y="-381.5" font-family="Helvetica,sans-Serif" font-size="10.00">IBestiaryPrioritizedElement</text>
<text text-anchor="start" x="578" y="-366.5" font-family="Helvetica,sans-Serif" font-size="10.00">+</text>
<text text-anchor="start" x="599.5" y="-366.5" font-family="Helvetica,sans-Serif" font-size="10.00">float OrderPriority</text>
<text text-anchor="start" x="635.5" y="-351.5" font-family="Helvetica,sans-Serif" font-size="10.00"> </text>
<polygon fill="#666666" stroke="#666666" points="565.5,-376.5 565.5,-376.5 709.5,-376.5 709.5,-376.5 565.5,-376.5"/>
<polygon fill="#666666" stroke="#666666" points="565.5,-361.5 565.5,-361.5 597.5,-361.5 597.5,-361.5 565.5,-361.5"/>
<polygon fill="#666666" stroke="#666666" points="597.5,-361.5 597.5,-361.5 709.5,-361.5 709.5,-361.5 597.5,-361.5"/>
<polygon fill="none" stroke="#666666" points="565.5,-345 565.5,-394 709.5,-394 709.5,-345 565.5,-345"/>
</a>
</g>
</g>
<!-- Node7&#45;&gt;Node1 -->
<g id="edge6_Node000001_Node000007" class="edge">
<title>Node7&#45;&gt;Node1</title>
<g id="a_edge6_Node000001_Node000007"><a xlink:title=" ">
<path fill="none" stroke="#63b8ff" d="M622.44,-335.42C607.2,-302.95 582.28,-252.39 556.5,-211 549.15,-199.19 540.98,-187.08 532.65,-175.27"/>
<polygon fill="none" stroke="#63b8ff" points="619.45,-337.3 626.85,-344.89 625.8,-334.35 619.45,-337.3"/>
</a>
</g>
</g>
</g>
</svg>

<g id="navigator" transform="translate(0 0)" fill="#404254">
  <rect fill="#f2f5e9" fill-opacity="0.5" stroke="#606060" stroke-width=".5" x="0" y="0" width="60" height="60"/>
  <use id="zoomplus" xlink:href="#zoomPlus" x="17" y="9" onmousedown="handleZoom(evt,'in')"/>
  <use id="zoomminus" xlink:href="#zoomMin" x="42" y="9" onmousedown="handleZoom(evt,'out')"/>
  <use id="reset" xlink:href="#resetDef" x="30" y="36" onmousedown="handleReset()"/>
   <use id="arrowup" xlink:href="#arrowUp" x="0" y="0" onmousedown="handlePan(0,-1)"/>
  <use id="arrowright" xlink:href="#arrowRight" x="0" y="0" onmousedown="handlePan(1,0)"/>
  <use id="arrowdown" xlink:href="#arrowDown" x="0" y="0" onmousedown="handlePan(0,1)"/>
  <use id="arrowleft" xlink:href="#arrowLeft" x="0" y="0" onmousedown="handlePan(-1,0)"/>
</g>
<svg viewBox="0 0 15 15" width="100%" height="30px" preserveAspectRatio="xMaxYMin meet">
 <g id="arrow_out" transform="scale(0.3 0.3)">
  <a xlink:href="classTerraria_1_1GameContent_1_1Bestiary_1_1SpawnConditionBestiaryInfoElement__inherit__graph_org.svg" target="_base">
   <rect id="button" ry="5" rx="5" y="6" x="6" height="38" width="38"
        fill="#f2f5e9" fill-opacity="0.5" stroke="#606060" stroke-width="1.0"/>
   <path id="arrow"
     d="M 11.500037,31.436501 C 11.940474,20.09759 22.043105,11.32322 32.158766,21.979434 L 37.068811,17.246167 C 37.068811,17.246167 37.088388,32 37.088388,32 L 22.160133,31.978069 C 22.160133,31.978069 26.997745,27.140456 26.997745,27.140456 C 18.528582,18.264221 13.291696,25.230495 11.500037,31.436501 z"
     style="fill:#404040;"/>
  </a>
 </g>
</svg>

<style type='text/css'>
<![CDATA[
[data-mouse-over-selected='false'] { opacity: 0.7; }
[data-mouse-over-selected='true']  { opacity: 1.0; }
]]>
</style>
<script type="application/ecmascript"><![CDATA[
document.addEventListener('DOMContentLoaded', (event) => {
  highlightEdges();
  highlightAdjacentNodes();
});
]]></script>
</svg>
