<?xml version="1.0" encoding="UTF-8" standalone="no"?>
<!DOCTYPE svg PUBLIC "-//W3C//DTD SVG 1.1//EN"
 "http://www.w3.org/Graphics/SVG/1.1/DTD/svg11.dtd">
<!-- Generated by graphviz version 2.43.0 (0)
 -->
<!-- Title: System.Runtime.Remoting.Messaging.MethodReturnDictionary Pages: 1 -->
<svg width="455pt" height="889pt"
 viewBox="0.00 0.00 455.00 889.00" xmlns="http://www.w3.org/2000/svg" xmlns:xlink="http://www.w3.org/1999/xlink">
<g id="graph0" class="graph" transform="scale(1 1) rotate(0) translate(4 885)">
<title>System.Runtime.Remoting.Messaging.MethodReturnDictionary</title>
<!-- Node1 -->
<g id="Node000001" class="node">
<title>Node1</title>
<g id="a_Node000001"><a xlink:title=" ">
<polygon fill="#999999" stroke="transparent" points="316,-134 131,-134 131,0 316,0 316,-134"/>
<text text-anchor="start" x="136.5" y="-122" font-family="Helvetica,sans-Serif" font-size="10.00">System.Runtime.Remoting.</text>
<text text-anchor="start" x="136.5" y="-111" font-family="Helvetica,sans-Serif" font-size="10.00">Messaging.MethodReturnDictionary</text>
<text text-anchor="start" x="137" y="-96" font-family="Helvetica,sans-Serif" font-size="10.00">+</text>
<text text-anchor="start" x="151.5" y="-96" font-family="Helvetica,sans-Serif" font-size="10.00">static string[] Internal</text>
<text text-anchor="start" x="151.5" y="-85" font-family="Helvetica,sans-Serif" font-size="10.00">ReturnKeys</text>
<text text-anchor="start" x="137" y="-70" font-family="Helvetica,sans-Serif" font-size="10.00">+</text>
<text text-anchor="start" x="151.5" y="-70" font-family="Helvetica,sans-Serif" font-size="10.00">static string[] Internal</text>
<text text-anchor="start" x="151.5" y="-59" font-family="Helvetica,sans-Serif" font-size="10.00">ExceptionKeys</text>
<text text-anchor="start" x="137" y="-44" font-family="Helvetica,sans-Serif" font-size="10.00">+</text>
<text text-anchor="start" x="151.5" y="-44" font-family="Helvetica,sans-Serif" font-size="10.00">MethodReturnDictionary</text>
<text text-anchor="start" x="151.5" y="-33" font-family="Helvetica,sans-Serif" font-size="10.00">(IMethodReturnMessage</text>
<text text-anchor="start" x="151.5" y="-22" font-family="Helvetica,sans-Serif" font-size="10.00"> message)</text>
<text text-anchor="start" x="139.5" y="-7" font-family="Helvetica,sans-Serif" font-size="10.00">&#45;</text>
<text text-anchor="start" x="151.5" y="-7" font-family="Helvetica,sans-Serif" font-size="10.00">static MethodReturnDictionary()</text>
<polygon fill="#666666" stroke="#666666" points="131.5,-106 131.5,-106 316.5,-106 316.5,-106 131.5,-106"/>
<polygon fill="#666666" stroke="#666666" points="131.5,-54 131.5,-54 149.5,-54 149.5,-54 131.5,-54"/>
<polygon fill="#666666" stroke="#666666" points="149.5,-54 149.5,-54 316.5,-54 316.5,-54 149.5,-54"/>
<polygon fill="none" stroke="#666666" points="131,0 131,-134 316,-134 316,0 131,0"/>
</a>
</g>
</g>
<!-- Node2 -->
<g id="Node000002" class="node">
<title>Node2</title>
<g id="a_Node000002"><a xlink:href="../../dc/d5d/classSystem_1_1Runtime_1_1Remoting_1_1Messaging_1_1MessageDictionary.html" target="_top" xlink:title=" ">
<polygon fill="white" stroke="transparent" points="332,-785 115,-785 115,-170 332,-170 332,-785"/>
<text text-anchor="start" x="177" y="-772.5" font-family="Helvetica,sans-Serif" font-size="10.00">MessageDictionary</text>
<text text-anchor="start" x="119.5" y="-757.5" font-family="Helvetica,sans-Serif" font-size="10.00">+</text>
<text text-anchor="start" x="132.5" y="-757.5" font-family="Helvetica,sans-Serif" font-size="10.00">global::System.Collections.</text>
<text text-anchor="start" x="132.5" y="-746.5" font-family="Helvetica,sans-Serif" font-size="10.00">IDictionary InternalDictionary</text>
<text text-anchor="start" x="119.5" y="-731.5" font-family="Helvetica,sans-Serif" font-size="10.00">+</text>
<text text-anchor="start" x="132.5" y="-731.5" font-family="Helvetica,sans-Serif" font-size="10.00">string[] MethodKeys</text>
<text text-anchor="start" x="119.5" y="-716.5" font-family="Helvetica,sans-Serif" font-size="10.00">+</text>
<text text-anchor="start" x="132.5" y="-716.5" font-family="Helvetica,sans-Serif" font-size="10.00">bool IsFixedSize</text>
<text text-anchor="start" x="119.5" y="-701.5" font-family="Helvetica,sans-Serif" font-size="10.00">+</text>
<text text-anchor="start" x="132.5" y="-701.5" font-family="Helvetica,sans-Serif" font-size="10.00">bool IsReadOnly</text>
<text text-anchor="start" x="119.5" y="-686.5" font-family="Helvetica,sans-Serif" font-size="10.00">+</text>
<text text-anchor="start" x="132.5" y="-686.5" font-family="Helvetica,sans-Serif" font-size="10.00">object this[object key]</text>
<text text-anchor="start" x="119.5" y="-671.5" font-family="Helvetica,sans-Serif" font-size="10.00">+</text>
<text text-anchor="start" x="132.5" y="-671.5" font-family="Helvetica,sans-Serif" font-size="10.00">global::System.Collections.</text>
<text text-anchor="start" x="132.5" y="-660.5" font-family="Helvetica,sans-Serif" font-size="10.00">ICollection Keys</text>
<text text-anchor="start" x="119.5" y="-645.5" font-family="Helvetica,sans-Serif" font-size="10.00">+</text>
<text text-anchor="start" x="132.5" y="-645.5" font-family="Helvetica,sans-Serif" font-size="10.00">global::System.Collections.</text>
<text text-anchor="start" x="132.5" y="-634.5" font-family="Helvetica,sans-Serif" font-size="10.00">ICollection Values</text>
<text text-anchor="start" x="119.5" y="-619.5" font-family="Helvetica,sans-Serif" font-size="10.00">+</text>
<text text-anchor="start" x="132.5" y="-619.5" font-family="Helvetica,sans-Serif" font-size="10.00">int Count</text>
<text text-anchor="start" x="119.5" y="-604.5" font-family="Helvetica,sans-Serif" font-size="10.00">+</text>
<text text-anchor="start" x="132.5" y="-604.5" font-family="Helvetica,sans-Serif" font-size="10.00">bool IsSynchronized</text>
<text text-anchor="start" x="119.5" y="-589.5" font-family="Helvetica,sans-Serif" font-size="10.00">+</text>
<text text-anchor="start" x="132.5" y="-589.5" font-family="Helvetica,sans-Serif" font-size="10.00">object SyncRoot</text>
<text text-anchor="start" x="119.5" y="-574.5" font-family="Helvetica,sans-Serif" font-size="10.00">#</text>
<text text-anchor="start" x="132.5" y="-574.5" font-family="Helvetica,sans-Serif" font-size="10.00">IMethodMessage _message</text>
<text text-anchor="start" x="122" y="-559.5" font-family="Helvetica,sans-Serif" font-size="10.00">&#45;</text>
<text text-anchor="start" x="132.5" y="-559.5" font-family="Helvetica,sans-Serif" font-size="10.00">global::System.Collections.</text>
<text text-anchor="start" x="132.5" y="-548.5" font-family="Helvetica,sans-Serif" font-size="10.00">IDictionary _internalProperties</text>
<text text-anchor="start" x="122" y="-533.5" font-family="Helvetica,sans-Serif" font-size="10.00">&#45;</text>
<text text-anchor="start" x="132.5" y="-533.5" font-family="Helvetica,sans-Serif" font-size="10.00">string[] _methodKeys</text>
<text text-anchor="start" x="122" y="-518.5" font-family="Helvetica,sans-Serif" font-size="10.00">&#45;</text>
<text text-anchor="start" x="132.5" y="-518.5" font-family="Helvetica,sans-Serif" font-size="10.00">bool _ownProperties</text>
<text text-anchor="start" x="119.5" y="-503.5" font-family="Helvetica,sans-Serif" font-size="10.00">+</text>
<text text-anchor="start" x="132.5" y="-503.5" font-family="Helvetica,sans-Serif" font-size="10.00">MessageDictionary</text>
<text text-anchor="start" x="132.5" y="-492.5" font-family="Helvetica,sans-Serif" font-size="10.00">(IMethodMessage message)</text>
<text text-anchor="start" x="119.5" y="-477.5" font-family="Helvetica,sans-Serif" font-size="10.00">+</text>
<text text-anchor="start" x="132.5" y="-477.5" font-family="Helvetica,sans-Serif" font-size="10.00">global::System.Collections.</text>
<text text-anchor="start" x="132.5" y="-466.5" font-family="Helvetica,sans-Serif" font-size="10.00">IDictionary GetInternalProperties()</text>
<text text-anchor="start" x="119.5" y="-451.5" font-family="Helvetica,sans-Serif" font-size="10.00">+</text>
<text text-anchor="start" x="132.5" y="-451.5" font-family="Helvetica,sans-Serif" font-size="10.00">void Add(object key,</text>
<text text-anchor="start" x="132.5" y="-440.5" font-family="Helvetica,sans-Serif" font-size="10.00"> object value)</text>
<text text-anchor="start" x="119.5" y="-425.5" font-family="Helvetica,sans-Serif" font-size="10.00">+</text>
<text text-anchor="start" x="132.5" y="-425.5" font-family="Helvetica,sans-Serif" font-size="10.00">void Clear()</text>
<text text-anchor="start" x="119.5" y="-410.5" font-family="Helvetica,sans-Serif" font-size="10.00">+</text>
<text text-anchor="start" x="132.5" y="-410.5" font-family="Helvetica,sans-Serif" font-size="10.00">bool Contains(object key)</text>
<text text-anchor="start" x="119.5" y="-395.5" font-family="Helvetica,sans-Serif" font-size="10.00">+</text>
<text text-anchor="start" x="132.5" y="-395.5" font-family="Helvetica,sans-Serif" font-size="10.00">void Remove(object key)</text>
<text text-anchor="start" x="119.5" y="-380.5" font-family="Helvetica,sans-Serif" font-size="10.00">+</text>
<text text-anchor="start" x="132.5" y="-380.5" font-family="Helvetica,sans-Serif" font-size="10.00">void CopyTo(global</text>
<text text-anchor="start" x="132.5" y="-369.5" font-family="Helvetica,sans-Serif" font-size="10.00">::System.Array array,</text>
<text text-anchor="start" x="132.5" y="-358.5" font-family="Helvetica,sans-Serif" font-size="10.00"> int index)</text>
<text text-anchor="start" x="119.5" y="-343.5" font-family="Helvetica,sans-Serif" font-size="10.00">+</text>
<text text-anchor="start" x="132.5" y="-343.5" font-family="Helvetica,sans-Serif" font-size="10.00">global::System.Collections.</text>
<text text-anchor="start" x="132.5" y="-332.5" font-family="Helvetica,sans-Serif" font-size="10.00">IDictionaryEnumerator GetEnumerator()</text>
<text text-anchor="start" x="119.5" y="-317.5" font-family="Helvetica,sans-Serif" font-size="10.00">~</text>
<text text-anchor="start" x="132.5" y="-317.5" font-family="Helvetica,sans-Serif" font-size="10.00">bool HasUserData()</text>
<text text-anchor="start" x="119.5" y="-302.5" font-family="Helvetica,sans-Serif" font-size="10.00">#</text>
<text text-anchor="start" x="132.5" y="-302.5" font-family="Helvetica,sans-Serif" font-size="10.00">virtual global::System.Collections.</text>
<text text-anchor="start" x="132.5" y="-291.5" font-family="Helvetica,sans-Serif" font-size="10.00">IDictionary AllocInternalProperties()</text>
<text text-anchor="start" x="119.5" y="-276.5" font-family="Helvetica,sans-Serif" font-size="10.00">#</text>
<text text-anchor="start" x="132.5" y="-276.5" font-family="Helvetica,sans-Serif" font-size="10.00">virtual object GetMethod</text>
<text text-anchor="start" x="132.5" y="-265.5" font-family="Helvetica,sans-Serif" font-size="10.00">Property(string key)</text>
<text text-anchor="start" x="119.5" y="-250.5" font-family="Helvetica,sans-Serif" font-size="10.00">#</text>
<text text-anchor="start" x="132.5" y="-250.5" font-family="Helvetica,sans-Serif" font-size="10.00">virtual void SetMethodProperty</text>
<text text-anchor="start" x="132.5" y="-239.5" font-family="Helvetica,sans-Serif" font-size="10.00">(string key, object value)</text>
<text text-anchor="start" x="122" y="-224.5" font-family="Helvetica,sans-Serif" font-size="10.00">&#45;</text>
<text text-anchor="start" x="132.5" y="-224.5" font-family="Helvetica,sans-Serif" font-size="10.00">bool IsOverridenKey</text>
<text text-anchor="start" x="132.5" y="-213.5" font-family="Helvetica,sans-Serif" font-size="10.00">(string key)</text>
<text text-anchor="start" x="122" y="-198.5" font-family="Helvetica,sans-Serif" font-size="10.00">&#45;</text>
<text text-anchor="start" x="132.5" y="-198.5" font-family="Helvetica,sans-Serif" font-size="10.00">global::System.Collections.</text>
<text text-anchor="start" x="132.5" y="-187.5" font-family="Helvetica,sans-Serif" font-size="10.00">IEnumerator System.Collections.</text>
<text text-anchor="start" x="132.5" y="-176.5" font-family="Helvetica,sans-Serif" font-size="10.00">IEnumerable. GetEnumerator()</text>
<polygon fill="#666666" stroke="#666666" points="115.5,-767.5 115.5,-767.5 332.5,-767.5 332.5,-767.5 115.5,-767.5"/>
<polygon fill="#666666" stroke="#666666" points="115.5,-513.5 115.5,-513.5 130.5,-513.5 130.5,-513.5 115.5,-513.5"/>
<polygon fill="#666666" stroke="#666666" points="130.5,-513.5 130.5,-513.5 332.5,-513.5 332.5,-513.5 130.5,-513.5"/>
<polygon fill="none" stroke="#666666" points="115,-170 115,-785 332,-785 332,-170 115,-170"/>
</a>
</g>
</g>
<!-- Node2&#45;&gt;Node1 -->
<g id="edge1_Node000001_Node000002" class="edge">
<title>Node2&#45;&gt;Node1</title>
<g id="a_edge1_Node000001_Node000002"><a xlink:title=" ">
<path fill="none" stroke="#63b8ff" d="M223.5,-159.54C223.5,-150.63 223.5,-142.14 223.5,-134.18"/>
<polygon fill="none" stroke="#63b8ff" points="220,-159.77 223.5,-169.77 227,-159.77 220,-159.77"/>
</a>
</g>
</g>
<!-- Node3 -->
<g id="Node000003" class="node">
<title>Node3</title>
<g id="a_Node000003"><a xlink:href="../../d4/d58/classglobal_1_1SystemCollections_1_1IDictionary.html" target="_top" xlink:title=" ">
<polygon fill="white" stroke="transparent" points="137,-881 0,-881 0,-821 137,-821 137,-881"/>
<text text-anchor="start" x="5.5" y="-869" font-family="Helvetica,sans-Serif" font-size="10.00">global::SystemCollections</text>
<text text-anchor="start" x="39" y="-858" font-family="Helvetica,sans-Serif" font-size="10.00">::IDictionary</text>
<text text-anchor="start" x="67" y="-843" font-family="Helvetica,sans-Serif" font-size="10.00"> </text>
<text text-anchor="start" x="67" y="-828" font-family="Helvetica,sans-Serif" font-size="10.00"> </text>
<polygon fill="#666666" stroke="#666666" points="0.5,-853 0.5,-853 137.5,-853 137.5,-853 0.5,-853"/>
<polygon fill="#666666" stroke="#666666" points="0.5,-838 0.5,-838 137.5,-838 137.5,-838 0.5,-838"/>
<polygon fill="none" stroke="#666666" points="0,-821 0,-881 137,-881 137,-821 0,-821"/>
</a>
</g>
</g>
<!-- Node3&#45;&gt;Node2 -->
<g id="edge2_Node000002_Node000003" class="edge">
<title>Node3&#45;&gt;Node2</title>
<g id="a_edge2_Node000002_Node000003"><a xlink:title=" ">
<path fill="none" stroke="#63b8ff" d="M84.54,-811.56C92.62,-792.19 103.19,-766.86 114.89,-738.82"/>
<polygon fill="none" stroke="#63b8ff" points="81.28,-810.27 80.66,-820.85 87.74,-812.97 81.28,-810.27"/>
</a>
</g>
</g>
<!-- Node4 -->
<g id="Node000004" class="node">
<title>Node4</title>
<g id="a_Node000004"><a xlink:href="../../d1/db4/classglobal_1_1SystemCollections_1_1ICollection.html" target="_top" xlink:title=" ">
<polygon fill="white" stroke="transparent" points="292,-881 155,-881 155,-821 292,-821 292,-881"/>
<text text-anchor="start" x="160.5" y="-869" font-family="Helvetica,sans-Serif" font-size="10.00">global::SystemCollections</text>
<text text-anchor="start" x="195" y="-858" font-family="Helvetica,sans-Serif" font-size="10.00">::ICollection</text>
<text text-anchor="start" x="222" y="-843" font-family="Helvetica,sans-Serif" font-size="10.00"> </text>
<text text-anchor="start" x="222" y="-828" font-family="Helvetica,sans-Serif" font-size="10.00"> </text>
<polygon fill="#666666" stroke="#666666" points="155.5,-853 155.5,-853 292.5,-853 292.5,-853 155.5,-853"/>
<polygon fill="#666666" stroke="#666666" points="155.5,-838 155.5,-838 292.5,-838 292.5,-838 155.5,-838"/>
<polygon fill="none" stroke="#666666" points="155,-821 155,-881 292,-881 292,-821 155,-821"/>
</a>
</g>
</g>
<!-- Node4&#45;&gt;Node2 -->
<g id="edge3_Node000002_Node000004" class="edge">
<title>Node4&#45;&gt;Node2</title>
<g id="a_edge3_Node000002_Node000004"><a xlink:title=" ">
<path fill="none" stroke="#63b8ff" d="M223.5,-810.68C223.5,-803.04 223.5,-794.51 223.5,-785.26"/>
<polygon fill="none" stroke="#63b8ff" points="220,-810.85 223.5,-820.85 227,-810.85 220,-810.85"/>
</a>
</g>
</g>
<!-- Node5 -->
<g id="Node000005" class="node">
<title>Node5</title>
<g id="a_Node000005"><a xlink:href="../../da/d15/classglobal_1_1SystemCollections_1_1IEnumerable.html" target="_top" xlink:title=" ">
<polygon fill="white" stroke="transparent" points="447,-881 310,-881 310,-821 447,-821 447,-881"/>
<text text-anchor="start" x="315.5" y="-869" font-family="Helvetica,sans-Serif" font-size="10.00">global::SystemCollections</text>
<text text-anchor="start" x="345" y="-858" font-family="Helvetica,sans-Serif" font-size="10.00">::IEnumerable</text>
<text text-anchor="start" x="377" y="-843" font-family="Helvetica,sans-Serif" font-size="10.00"> </text>
<text text-anchor="start" x="377" y="-828" font-family="Helvetica,sans-Serif" font-size="10.00"> </text>
<polygon fill="#666666" stroke="#666666" points="310.5,-853 310.5,-853 447.5,-853 447.5,-853 310.5,-853"/>
<polygon fill="#666666" stroke="#666666" points="310.5,-838 310.5,-838 447.5,-838 447.5,-838 310.5,-838"/>
<polygon fill="none" stroke="#666666" points="310,-821 310,-881 447,-881 447,-821 310,-821"/>
</a>
</g>
</g>
<!-- Node5&#45;&gt;Node2 -->
<g id="edge4_Node000002_Node000005" class="edge">
<title>Node5&#45;&gt;Node2</title>
<g id="a_edge4_Node000002_Node000005"><a xlink:title=" ">
<path fill="none" stroke="#63b8ff" d="M362.46,-811.56C354.38,-792.19 343.81,-766.86 332.11,-738.82"/>
<polygon fill="none" stroke="#63b8ff" points="359.26,-812.97 366.34,-820.85 365.72,-810.27 359.26,-812.97"/>
</a>
</g>
</g>
</g>
</svg>
