<?xml version="1.0" encoding="UTF-8" standalone="no"?>
<!DOCTYPE svg PUBLIC "-//W3C//DTD SVG 1.1//EN"
 "http://www.w3.org/Graphics/SVG/1.1/DTD/svg11.dtd">
<!-- Generated by graphviz version 2.43.0 (0)
 -->
<!-- Title: System.Configuration.Provider.ProviderCollection Pages: 1 -->
<svg width="169pt" height="212pt"
 viewBox="0.00 0.00 169.00 212.00" xmlns="http://www.w3.org/2000/svg" xmlns:xlink="http://www.w3.org/1999/xlink">
<g id="graph0" class="graph" transform="scale(1 1) rotate(0) translate(4 208)">
<title>System.Configuration.Provider.ProviderCollection</title>
<!-- Node1 -->
<g id="Node000001" class="node">
<title>Node1</title>
<g id="a_Node000001"><a xlink:title=" ">
<polygon fill="#999999" stroke="transparent" points="161,-204 0,-204 0,-133 161,-133 161,-204"/>
<text text-anchor="start" x="5.5" y="-191.5" font-family="Helvetica,sans-Serif" font-size="10.00">System.Configuration.Provider.</text>
<text text-anchor="start" x="36" y="-180.5" font-family="Helvetica,sans-Serif" font-size="10.00">ProviderCollection</text>
<text text-anchor="start" x="79" y="-165.5" font-family="Helvetica,sans-Serif" font-size="10.00"> </text>
<text text-anchor="start" x="9" y="-150.5" font-family="Helvetica,sans-Serif" font-size="10.00">+</text>
<text text-anchor="start" x="26.5" y="-150.5" font-family="Helvetica,sans-Serif" font-size="10.00">virtual void Add(Provider</text>
<text text-anchor="start" x="26.5" y="-139.5" font-family="Helvetica,sans-Serif" font-size="10.00">Base provider)</text>
<polygon fill="#666666" stroke="#666666" points="0.5,-175.5 0.5,-175.5 161.5,-175.5 161.5,-175.5 0.5,-175.5"/>
<polygon fill="#666666" stroke="#666666" points="0.5,-160.5 0.5,-160.5 161.5,-160.5 161.5,-160.5 0.5,-160.5"/>
<polygon fill="none" stroke="#666666" points="0,-133 0,-204 161,-204 161,-133 0,-133"/>
</a>
</g>
</g>
<!-- Node2 -->
<g id="Node000002" class="node">
<title>Node2</title>
<g id="a_Node000002"><a xlink:href="../../d7/d4e/classSystem_1_1Configuration_1_1SettingsProviderCollection.html" target="_top" xlink:title=" ">
<polygon fill="white" stroke="transparent" points="159.5,-97 1.5,-97 1.5,0 159.5,0 159.5,-97"/>
<text text-anchor="start" x="6.5" y="-84.5" font-family="Helvetica,sans-Serif" font-size="10.00">System.Configuration.Settings</text>
<text text-anchor="start" x="35.5" y="-73.5" font-family="Helvetica,sans-Serif" font-size="10.00">ProviderCollection</text>
<text text-anchor="start" x="5.5" y="-58.5" font-family="Helvetica,sans-Serif" font-size="10.00">+</text>
<text text-anchor="start" x="18.5" y="-58.5" font-family="Helvetica,sans-Serif" font-size="10.00">SettingsProvider this</text>
<text text-anchor="start" x="18.5" y="-47.5" font-family="Helvetica,sans-Serif" font-size="10.00">[string name]</text>
<text text-anchor="start" x="5.5" y="-32.5" font-family="Helvetica,sans-Serif" font-size="10.00">+</text>
<text text-anchor="start" x="18.5" y="-32.5" font-family="Helvetica,sans-Serif" font-size="10.00">SettingsProviderCollection()</text>
<text text-anchor="start" x="5.5" y="-17.5" font-family="Helvetica,sans-Serif" font-size="10.00">+</text>
<text text-anchor="start" x="18.5" y="-17.5" font-family="Helvetica,sans-Serif" font-size="10.00">override void Add(Provider</text>
<text text-anchor="start" x="18.5" y="-6.5" font-family="Helvetica,sans-Serif" font-size="10.00">Base provider)</text>
<polygon fill="#666666" stroke="#666666" points="1.5,-68.5 1.5,-68.5 159.5,-68.5 159.5,-68.5 1.5,-68.5"/>
<polygon fill="#666666" stroke="#666666" points="1.5,-42.5 1.5,-42.5 16.5,-42.5 16.5,-42.5 1.5,-42.5"/>
<polygon fill="#666666" stroke="#666666" points="16.5,-42.5 16.5,-42.5 159.5,-42.5 159.5,-42.5 16.5,-42.5"/>
<polygon fill="none" stroke="#666666" points="1.5,0 1.5,-97 159.5,-97 159.5,0 1.5,0"/>
</a>
</g>
</g>
<!-- Node1&#45;&gt;Node2 -->
<g id="edge1_Node000001_Node000002" class="edge">
<title>Node1&#45;&gt;Node2</title>
<g id="a_edge1_Node000001_Node000002"><a xlink:title=" ">
<path fill="none" stroke="#63b8ff" d="M80.5,-122.49C80.5,-114.19 80.5,-105.5 80.5,-97.13"/>
<polygon fill="none" stroke="#63b8ff" points="77,-122.73 80.5,-132.73 84,-122.73 77,-122.73"/>
</a>
</g>
</g>
</g>
</svg>
