<?xml version="1.0" encoding="UTF-8" standalone="no"?>
<!DOCTYPE svg PUBLIC "-//W3C//DTD SVG 1.1//EN"
 "http://www.w3.org/Graphics/SVG/1.1/DTD/svg11.dtd">
<!-- Generated by graphviz version 2.43.0 (0)
 -->
<!-- Title: System.Diagnostics.ConditionalAttribute Pages: 1 -->
<svg width="174pt" height="175pt"
 viewBox="0.00 0.00 174.00 175.00" xmlns="http://www.w3.org/2000/svg" xmlns:xlink="http://www.w3.org/1999/xlink">

<svg id="main" version="1.1" xmlns="http://www.w3.org/2000/svg" xmlns:xlink="http://www.w3.org/1999/xlink" xml:space="preserve" onload="init(evt)">
<style type="text/css"><![CDATA[
.node, .edge {opacity: 0.7;}
.node.selected, .edge.selected {opacity: 1;}
.edge:hover path { stroke: red; }
.edge:hover polygon { stroke: red; fill: red; }
]]></style>
<script type="application/ecmascript" xlink:href="../../svg.min.js"/>
<svg id="graph" class="graph">
<g id="graph0" class="graph" transform="scale(1 1) rotate(0) translate(4 171)">
<title>System.Diagnostics.ConditionalAttribute</title>
<!-- Node1 -->
<g id="Node000001" class="node">
<title>Node1</title>
<g id="a_Node000001"><a xlink:title=" ">
<polygon fill="#999999" stroke="transparent" points="166,-82 0,-82 0,0 166,0 166,-82"/>
<text text-anchor="start" x="5" y="-70" font-family="Helvetica,sans-Serif" font-size="10.00">System.Diagnostics.Conditional</text>
<text text-anchor="start" x="61.5" y="-59" font-family="Helvetica,sans-Serif" font-size="10.00">Attribute</text>
<text text-anchor="start" x="9.5" y="-44" font-family="Helvetica,sans-Serif" font-size="10.00">&#45;</text>
<text text-anchor="start" x="23" y="-44" font-family="Helvetica,sans-Serif" font-size="10.00">readonly string&lt; Condition</text>
<text text-anchor="start" x="23" y="-33" font-family="Helvetica,sans-Serif" font-size="10.00">String &gt; k__BackingField</text>
<text text-anchor="start" x="7" y="-18" font-family="Helvetica,sans-Serif" font-size="10.00">+</text>
<text text-anchor="start" x="23" y="-18" font-family="Helvetica,sans-Serif" font-size="10.00">ConditionalAttribute</text>
<text text-anchor="start" x="23" y="-7" font-family="Helvetica,sans-Serif" font-size="10.00">(string conditionString)</text>
<polygon fill="#666666" stroke="#666666" points="0,-54 0,-54 166,-54 166,-54 0,-54"/>
<polygon fill="#666666" stroke="#666666" points="0,-28 0,-28 21,-28 21,-28 0,-28"/>
<polygon fill="#666666" stroke="#666666" points="21,-28 21,-28 166,-28 166,-28 21,-28"/>
<polygon fill="none" stroke="#666666" points="0,0 0,-82 166,-82 166,0 0,0"/>
</a>
</g>
</g>
<!-- Node2 -->
<g id="Node000002" class="node">
<title>Node2</title>
<g id="a_Node000002"><a xlink:title=" ">
<polygon fill="white" stroke="transparent" points="146,-167 20,-167 20,-118 146,-118 146,-167"/>
<text text-anchor="start" x="25" y="-154.5" font-family="Helvetica,sans-Serif" font-size="10.00">global::SystemAttribute</text>
<text text-anchor="start" x="81" y="-139.5" font-family="Helvetica,sans-Serif" font-size="10.00"> </text>
<text text-anchor="start" x="81" y="-124.5" font-family="Helvetica,sans-Serif" font-size="10.00"> </text>
<polygon fill="#666666" stroke="#666666" points="20,-149.5 20,-149.5 146,-149.5 146,-149.5 20,-149.5"/>
<polygon fill="#666666" stroke="#666666" points="20,-134.5 20,-134.5 146,-134.5 146,-134.5 20,-134.5"/>
<polygon fill="none" stroke="#666666" points="20,-118 20,-167 146,-167 146,-118 20,-118"/>
</a>
</g>
</g>
<!-- Node2&#45;&gt;Node1 -->
<g id="edge1_Node000001_Node000002" class="edge">
<title>Node2&#45;&gt;Node1</title>
<g id="a_edge1_Node000001_Node000002"><a xlink:title=" ">
<path fill="none" stroke="#63b8ff" d="M83,-107.88C83,-99.62 83,-90.68 83,-82.14"/>
<polygon fill="none" stroke="#63b8ff" points="79.5,-107.92 83,-117.92 86.5,-107.92 79.5,-107.92"/>
</a>
</g>
</g>
</g>
</svg>
</svg>

<style type='text/css'>
<![CDATA[
[data-mouse-over-selected='false'] { opacity: 0.7; }
[data-mouse-over-selected='true']  { opacity: 1.0; }
]]>
</style>
<script type="application/ecmascript"><![CDATA[
document.addEventListener('DOMContentLoaded', (event) => {
  highlightEdges();
  highlightAdjacentNodes();
});
]]></script>
</svg>
