<?xml version="1.0" encoding="UTF-8" standalone="no"?>
<!DOCTYPE svg PUBLIC "-//W3C//DTD SVG 1.1//EN"
 "http://www.w3.org/Graphics/SVG/1.1/DTD/svg11.dtd">
<!-- Generated by graphviz version 2.43.0 (0)
 -->
<!-- Title: TrashCan_Layout Pages: 1 -->
<!--zoomable 965 -->

<svg id="main" version="1.1" xmlns="http://www.w3.org/2000/svg" xmlns:xlink="http://www.w3.org/1999/xlink" xml:space="preserve" onload="init(evt)">
<style type="text/css"><![CDATA[
.node, .edge {opacity: 0.7;}
.node.selected, .edge.selected {opacity: 1;}
.edge:hover path { stroke: red; }
.edge:hover polygon { stroke: red; fill: red; }
]]></style>

<defs>
  <circle id="rim" cx="0" cy="0" r="7"/>
  <circle id="rim2" cx="0" cy="0" r="3.5"/>
  <g id="zoomPlus">
    <use xlink:href="#rim" fill="#404040"><set attributeName="fill" to="#808080" begin="zoomplus.mouseover" end="zoomplus.mouseout"/></use>
    <path d="M-4,0h8M0,-4v8" fill="none" stroke="white" stroke-width="1.5" pointer-events="none"/>
  </g>
  <g id="zoomMin">
    <use xlink:href="#rim" fill="#404040"><set attributeName="fill" to="#808080" begin="zoomminus.mouseover" end="zoomminus.mouseout"/></use>
    <path d="M-4,0h8" fill="none" stroke="white" stroke-width="1.5" pointer-events="none"/>
  </g>
  <g id="arrowUp" transform="translate(30 24)">
    <use xlink:href="#rim"/>
    <path pointer-events="none" fill="none" stroke="white" stroke-width="1.5" d="M0,-3.0v7 M-2.5,-0.5L0,-3.0L2.5,-0.5"/>
  </g>
  <g id="arrowRight" transform="rotate(90) translate(36 -43)">
    <use xlink:href="#rim"/>
    <path pointer-events="none" fill="none" stroke="white" stroke-width="1.5" d="M0,-3.0v7 M-2.5,-0.5L0,-3.0L2.5,-0.5"/>
  </g>
  <g id="arrowDown" transform="rotate(180) translate(-30 -48)">
    <use xlink:href="#rim"/>
    <path pointer-events="none" fill="none" stroke="white" stroke-width="1.5" d="M0,-3.0v7 M-2.5,-0.5L0,-3.0L2.5,-0.5"/>
  </g>
  <g id="arrowLeft" transform="rotate(270) translate(-36 17)">
    <use xlink:href="#rim"/>
    <path pointer-events="none" fill="none" stroke="white" stroke-width="1.5" d="M0,-3.0v7 M-2.5,-0.5L0,-3.0L2.5,-0.5"/>
  </g>
  <g id="resetDef">
    <use xlink:href="#rim2" fill="#404040"><set attributeName="fill" to="#808080" begin="reset.mouseover" end="reset.mouseout"/></use>
  </g>
</defs>
<script type="application/ecmascript">
var viewWidth = 217;
var viewHeight = 965;
var sectionId = 'dynsection-0';
</script>
<script type="application/ecmascript" xlink:href="../../svg.min.js"/>
<svg id="graph" class="graph">
<g id="viewport">
<title>TrashCan_Layout</title>
<!-- Node1 -->
<g id="Node000001" class="node">
<title>Node1</title>
<g id="a_Node000001"><a xlink:title=" ">
<polygon fill="#999999" stroke="transparent" points="175,-94 24,-94 24,0 175,0 175,-94"/>
<text text-anchor="start" x="58.5" y="-82" font-family="Helvetica,sans-Serif" font-size="10.00">TrashCan_Layout</text>
<text text-anchor="start" x="28.5" y="-67" font-family="Helvetica,sans-Serif" font-size="10.00">+</text>
<text text-anchor="start" x="41.5" y="-67" font-family="Helvetica,sans-Serif" font-size="10.00">float ItemScale</text>
<text text-anchor="start" x="28.5" y="-52" font-family="Helvetica,sans-Serif" font-size="10.00">+</text>
<text text-anchor="start" x="41.5" y="-52" font-family="Helvetica,sans-Serif" font-size="10.00">ItemGrid_Layout TrashGrid</text>
<text text-anchor="start" x="28.5" y="-37" font-family="Helvetica,sans-Serif" font-size="10.00">+</text>
<text text-anchor="start" x="41.5" y="-37" font-family="Helvetica,sans-Serif" font-size="10.00">float ItemHighlightScale</text>
<text text-anchor="start" x="28.5" y="-22" font-family="Helvetica,sans-Serif" font-size="10.00">+</text>
<text text-anchor="start" x="41.5" y="-22" font-family="Helvetica,sans-Serif" font-size="10.00">Color BackingColour</text>
<text text-anchor="start" x="28.5" y="-7" font-family="Helvetica,sans-Serif" font-size="10.00">+</text>
<text text-anchor="start" x="41.5" y="-7" font-family="Helvetica,sans-Serif" font-size="10.00">TrashCan_Layout()</text>
<polygon fill="#666666" stroke="#666666" points="24.5,-77 24.5,-77 175.5,-77 175.5,-77 24.5,-77"/>
<polygon fill="#666666" stroke="#666666" points="24.5,-17 24.5,-17 39.5,-17 39.5,-17 24.5,-17"/>
<polygon fill="#666666" stroke="#666666" points="39.5,-17 39.5,-17 175.5,-17 175.5,-17 39.5,-17"/>
<polygon fill="none" stroke="#666666" points="24,0 24,-94 175,-94 175,0 24,0"/>
</a>
</g>
</g>
<!-- Node2 -->
<g id="Node000002" class="node">
<title>Node2</title>
<g id="a_Node000002"><a xlink:href="../../dc/d27/classPageControllerLayoutDefinition.html" target="_top" xlink:title=" ">
<polygon fill="white" stroke="transparent" points="190,-292 9,-292 9,-131 190,-131 190,-292"/>
<text text-anchor="start" x="24" y="-279.5" font-family="Helvetica,sans-Serif" font-size="10.00">PageControllerLayoutDefinition</text>
<text text-anchor="start" x="47" y="-268.5" font-family="Helvetica,sans-Serif" font-size="10.00">&lt; TrashCan_Layout &gt;</text>
<text text-anchor="start" x="13.5" y="-253.5" font-family="Helvetica,sans-Serif" font-size="10.00">+</text>
<text text-anchor="start" x="26.5" y="-253.5" font-family="Helvetica,sans-Serif" font-size="10.00">static T InstanceNormal</text>
<text text-anchor="start" x="13.5" y="-238.5" font-family="Helvetica,sans-Serif" font-size="10.00">+</text>
<text text-anchor="start" x="26.5" y="-238.5" font-family="Helvetica,sans-Serif" font-size="10.00">static T InstanceConsoleLeft</text>
<text text-anchor="start" x="13.5" y="-223.5" font-family="Helvetica,sans-Serif" font-size="10.00">+</text>
<text text-anchor="start" x="26.5" y="-223.5" font-family="Helvetica,sans-Serif" font-size="10.00">static T InstanceConsole</text>
<text text-anchor="start" x="26.5" y="-212.5" font-family="Helvetica,sans-Serif" font-size="10.00">Right</text>
<text text-anchor="start" x="13.5" y="-197.5" font-family="Helvetica,sans-Serif" font-size="10.00">+</text>
<text text-anchor="start" x="26.5" y="-197.5" font-family="Helvetica,sans-Serif" font-size="10.00">static T Instance</text>
<text text-anchor="start" x="13.5" y="-182.5" font-family="Helvetica,sans-Serif" font-size="10.00">+</text>
<text text-anchor="start" x="26.5" y="-182.5" font-family="Helvetica,sans-Serif" font-size="10.00">bool RightPageController</text>
<text text-anchor="start" x="16" y="-167.5" font-family="Helvetica,sans-Serif" font-size="10.00">&#45;</text>
<text text-anchor="start" x="26.5" y="-167.5" font-family="Helvetica,sans-Serif" font-size="10.00">bool _rightPageController</text>
<text text-anchor="start" x="13.5" y="-152.5" font-family="Helvetica,sans-Serif" font-size="10.00">+</text>
<text text-anchor="start" x="26.5" y="-152.5" font-family="Helvetica,sans-Serif" font-size="10.00">PageControllerLayoutDefinition()</text>
<text text-anchor="start" x="13.5" y="-137.5" font-family="Helvetica,sans-Serif" font-size="10.00">#</text>
<text text-anchor="start" x="26.5" y="-137.5" font-family="Helvetica,sans-Serif" font-size="10.00">void Awake()</text>
<polygon fill="#666666" stroke="#666666" points="9.5,-263.5 9.5,-263.5 190.5,-263.5 190.5,-263.5 9.5,-263.5"/>
<polygon fill="#666666" stroke="#666666" points="9.5,-162.5 9.5,-162.5 24.5,-162.5 24.5,-162.5 9.5,-162.5"/>
<polygon fill="#666666" stroke="#666666" points="24.5,-162.5 24.5,-162.5 190.5,-162.5 190.5,-162.5 24.5,-162.5"/>
<polygon fill="none" stroke="#666666" points="9,-131 9,-292 190,-292 190,-131 9,-131"/>
</a>
</g>
</g>
<!-- Node2&#45;&gt;Node1 -->
<g id="edge1_Node000001_Node000002" class="edge">
<title>Node2&#45;&gt;Node1</title>
<g id="a_edge1_Node000001_Node000002"><a xlink:title=" ">
<path fill="none" stroke="#63b8ff" d="M99.5,-120.42C99.5,-111.37 99.5,-102.47 99.5,-94.17"/>
<polygon fill="none" stroke="#63b8ff" points="96,-120.68 99.5,-130.68 103,-120.68 96,-120.68"/>
</a>
</g>
</g>
<!-- Node3 -->
<g id="Node000003" class="node">
<title>Node3</title>
<g id="a_Node000003"><a xlink:href="../../dc/d27/classPageControllerLayoutDefinition.html" target="_top" xlink:title=" ">
<polygon fill="white" stroke="transparent" points="195,-489 4,-489 4,-339 195,-339 195,-489"/>
<text text-anchor="start" x="9.5" y="-477" font-family="Helvetica,sans-Serif" font-size="10.00">PageControllerLayoutDefinition&lt; T &gt;</text>
<text text-anchor="start" x="11" y="-462" font-family="Helvetica,sans-Serif" font-size="10.00">+</text>
<text text-anchor="start" x="26.5" y="-462" font-family="Helvetica,sans-Serif" font-size="10.00">static T InstanceNormal</text>
<text text-anchor="start" x="11" y="-447" font-family="Helvetica,sans-Serif" font-size="10.00">+</text>
<text text-anchor="start" x="26.5" y="-447" font-family="Helvetica,sans-Serif" font-size="10.00">static T InstanceConsoleLeft</text>
<text text-anchor="start" x="11" y="-432" font-family="Helvetica,sans-Serif" font-size="10.00">+</text>
<text text-anchor="start" x="26.5" y="-432" font-family="Helvetica,sans-Serif" font-size="10.00">static T InstanceConsole</text>
<text text-anchor="start" x="26.5" y="-421" font-family="Helvetica,sans-Serif" font-size="10.00">Right</text>
<text text-anchor="start" x="11" y="-406" font-family="Helvetica,sans-Serif" font-size="10.00">+</text>
<text text-anchor="start" x="26.5" y="-406" font-family="Helvetica,sans-Serif" font-size="10.00">static T Instance</text>
<text text-anchor="start" x="11" y="-391" font-family="Helvetica,sans-Serif" font-size="10.00">+</text>
<text text-anchor="start" x="26.5" y="-391" font-family="Helvetica,sans-Serif" font-size="10.00">bool RightPageController</text>
<text text-anchor="start" x="13.5" y="-376" font-family="Helvetica,sans-Serif" font-size="10.00">&#45;</text>
<text text-anchor="start" x="26.5" y="-376" font-family="Helvetica,sans-Serif" font-size="10.00">bool _rightPageController</text>
<text text-anchor="start" x="11" y="-361" font-family="Helvetica,sans-Serif" font-size="10.00">+</text>
<text text-anchor="start" x="26.5" y="-361" font-family="Helvetica,sans-Serif" font-size="10.00">PageControllerLayoutDefinition()</text>
<text text-anchor="start" x="11" y="-346" font-family="Helvetica,sans-Serif" font-size="10.00">#</text>
<text text-anchor="start" x="26.5" y="-346" font-family="Helvetica,sans-Serif" font-size="10.00">void Awake()</text>
<polygon fill="#666666" stroke="#666666" points="4.5,-472 4.5,-472 195.5,-472 195.5,-472 4.5,-472"/>
<polygon fill="#666666" stroke="#666666" points="4.5,-371 4.5,-371 24.5,-371 24.5,-371 4.5,-371"/>
<polygon fill="#666666" stroke="#666666" points="24.5,-371 24.5,-371 195.5,-371 195.5,-371 24.5,-371"/>
<polygon fill="none" stroke="#666666" points="4,-339 4,-489 195,-489 195,-339 4,-339"/>
</a>
</g>
</g>
<!-- Node3&#45;&gt;Node2 -->
<g id="edge2_Node000002_Node000003" class="edge">
<title>Node3&#45;&gt;Node2</title>
<g id="a_edge2_Node000002_Node000003"><a xlink:title=" ">
<path fill="none" stroke="orange" d="M99.5,-328.77C99.5,-316.59 99.5,-304.09 99.5,-292.01"/>
<polygon fill="orange" stroke="orange" points="96,-328.91 99.5,-338.91 103,-328.91 96,-328.91"/>
</a>
</g>
<text text-anchor="middle" x="154" y="-313" font-family="Helvetica,sans-Serif" font-size="10.00" fill="grey"> &lt; TrashCan_Layout &gt;</text>
</g>
<!-- Node4 -->
<g id="Node000004" class="node">
<title>Node4</title>
<g id="a_Node000004"><a xlink:href="../../de/d11/classLayoutDefinition.html" target="_top" xlink:title=" ">
<polygon fill="white" stroke="transparent" points="199,-957 0,-957 0,-526 199,-526 199,-957"/>
<text text-anchor="start" x="59.5" y="-944.5" font-family="Helvetica,sans-Serif" font-size="10.00">LayoutDefinition</text>
<text text-anchor="start" x="4.5" y="-929.5" font-family="Helvetica,sans-Serif" font-size="10.00">+</text>
<text text-anchor="start" x="17.5" y="-929.5" font-family="Helvetica,sans-Serif" font-size="10.00">string name</text>
<text text-anchor="start" x="7" y="-914.5" font-family="Helvetica,sans-Serif" font-size="10.00">&#45;</text>
<text text-anchor="start" x="17.5" y="-914.5" font-family="Helvetica,sans-Serif" font-size="10.00">static List&lt; LayoutDefinition</text>
<text text-anchor="start" x="17.5" y="-903.5" font-family="Helvetica,sans-Serif" font-size="10.00"> &gt; UIDefinitions</text>
<text text-anchor="start" x="7" y="-888.5" font-family="Helvetica,sans-Serif" font-size="10.00">&#45;</text>
<text text-anchor="start" x="17.5" y="-888.5" font-family="Helvetica,sans-Serif" font-size="10.00">static Dictionary&lt;</text>
<text text-anchor="start" x="17.5" y="-877.5" font-family="Helvetica,sans-Serif" font-size="10.00"> Type, bool &gt; typesEncountered</text>
<text text-anchor="start" x="7" y="-862.5" font-family="Helvetica,sans-Serif" font-size="10.00">&#45;</text>
<text text-anchor="start" x="17.5" y="-862.5" font-family="Helvetica,sans-Serif" font-size="10.00">static StringBuilder</text>
<text text-anchor="start" x="17.5" y="-851.5" font-family="Helvetica,sans-Serif" font-size="10.00"> output</text>
<text text-anchor="start" x="4.5" y="-836.5" font-family="Helvetica,sans-Serif" font-size="10.00">+</text>
<text text-anchor="start" x="17.5" y="-836.5" font-family="Helvetica,sans-Serif" font-size="10.00">void Save(BinaryWriter</text>
<text text-anchor="start" x="17.5" y="-825.5" font-family="Helvetica,sans-Serif" font-size="10.00"> writer)</text>
<text text-anchor="start" x="4.5" y="-810.5" font-family="Helvetica,sans-Serif" font-size="10.00">+</text>
<text text-anchor="start" x="17.5" y="-810.5" font-family="Helvetica,sans-Serif" font-size="10.00">void Load(BinaryReader</text>
<text text-anchor="start" x="17.5" y="-799.5" font-family="Helvetica,sans-Serif" font-size="10.00"> reader)</text>
<text text-anchor="start" x="4.5" y="-784.5" font-family="Helvetica,sans-Serif" font-size="10.00">+</text>
<text text-anchor="start" x="17.5" y="-784.5" font-family="Helvetica,sans-Serif" font-size="10.00">bool RefreshStyles</text>
<text text-anchor="start" x="17.5" y="-773.5" font-family="Helvetica,sans-Serif" font-size="10.00">([Optional] string specific</text>
<text text-anchor="start" x="17.5" y="-762.5" font-family="Helvetica,sans-Serif" font-size="10.00">Style)</text>
<text text-anchor="start" x="4.5" y="-747.5" font-family="Helvetica,sans-Serif" font-size="10.00">+</text>
<text text-anchor="start" x="17.5" y="-747.5" font-family="Helvetica,sans-Serif" font-size="10.00">LayoutDefinition()</text>
<text text-anchor="start" x="4.5" y="-732.5" font-family="Helvetica,sans-Serif" font-size="10.00">+</text>
<text text-anchor="start" x="17.5" y="-732.5" font-family="Helvetica,sans-Serif" font-size="10.00">static void LoadReleaseLayout()</text>
<text text-anchor="start" x="4.5" y="-717.5" font-family="Helvetica,sans-Serif" font-size="10.00">+</text>
<text text-anchor="start" x="17.5" y="-717.5" font-family="Helvetica,sans-Serif" font-size="10.00">static bool LoadReleaseLayout</text>
<text text-anchor="start" x="17.5" y="-706.5" font-family="Helvetica,sans-Serif" font-size="10.00">(byte[] data)</text>
<text text-anchor="start" x="4.5" y="-691.5" font-family="Helvetica,sans-Serif" font-size="10.00">+</text>
<text text-anchor="start" x="17.5" y="-691.5" font-family="Helvetica,sans-Serif" font-size="10.00">static bool IsList</text>
<text text-anchor="start" x="17.5" y="-680.5" font-family="Helvetica,sans-Serif" font-size="10.00">(Type value)</text>
<text text-anchor="start" x="7" y="-665.5" font-family="Helvetica,sans-Serif" font-size="10.00">&#45;</text>
<text text-anchor="start" x="17.5" y="-665.5" font-family="Helvetica,sans-Serif" font-size="10.00">void SaveFields(BinaryWriter</text>
<text text-anchor="start" x="17.5" y="-654.5" font-family="Helvetica,sans-Serif" font-size="10.00"> writer, Type implementingType,</text>
<text text-anchor="start" x="17.5" y="-643.5" font-family="Helvetica,sans-Serif" font-size="10.00"> object thisObject)</text>
<text text-anchor="start" x="7" y="-628.5" font-family="Helvetica,sans-Serif" font-size="10.00">&#45;</text>
<text text-anchor="start" x="17.5" y="-628.5" font-family="Helvetica,sans-Serif" font-size="10.00">void LoadFields(BinaryReader</text>
<text text-anchor="start" x="17.5" y="-617.5" font-family="Helvetica,sans-Serif" font-size="10.00"> reader, Type implementingType,</text>
<text text-anchor="start" x="17.5" y="-606.5" font-family="Helvetica,sans-Serif" font-size="10.00"> object thisObject)</text>
<text text-anchor="start" x="7" y="-591.5" font-family="Helvetica,sans-Serif" font-size="10.00">&#45;</text>
<text text-anchor="start" x="17.5" y="-591.5" font-family="Helvetica,sans-Serif" font-size="10.00">bool RefreshFields</text>
<text text-anchor="start" x="17.5" y="-580.5" font-family="Helvetica,sans-Serif" font-size="10.00">(Type implementingType,</text>
<text text-anchor="start" x="17.5" y="-569.5" font-family="Helvetica,sans-Serif" font-size="10.00"> object thisObject, [Optional]</text>
<text text-anchor="start" x="17.5" y="-558.5" font-family="Helvetica,sans-Serif" font-size="10.00"> string specificStyle)</text>
<text text-anchor="start" x="7" y="-543.5" font-family="Helvetica,sans-Serif" font-size="10.00">&#45;</text>
<text text-anchor="start" x="17.5" y="-543.5" font-family="Helvetica,sans-Serif" font-size="10.00">static void SerialiseAtPath</text>
<text text-anchor="start" x="17.5" y="-532.5" font-family="Helvetica,sans-Serif" font-size="10.00">(BinaryWriter writer, Transform root)</text>
<polygon fill="#666666" stroke="#666666" points="0.5,-939.5 0.5,-939.5 199.5,-939.5 199.5,-939.5 0.5,-939.5"/>
<polygon fill="#666666" stroke="#666666" points="0.5,-846.5 0.5,-846.5 15.5,-846.5 15.5,-846.5 0.5,-846.5"/>
<polygon fill="#666666" stroke="#666666" points="15.5,-846.5 15.5,-846.5 199.5,-846.5 199.5,-846.5 15.5,-846.5"/>
<polygon fill="none" stroke="#666666" points="0,-526 0,-957 199,-957 199,-526 0,-526"/>
</a>
</g>
</g>
<!-- Node4&#45;&gt;Node3 -->
<g id="edge3_Node000003_Node000004" class="edge">
<title>Node4&#45;&gt;Node3</title>
<g id="a_edge3_Node000003_Node000004"><a xlink:title=" ">
<path fill="none" stroke="#63b8ff" d="M99.5,-515.55C99.5,-506.35 99.5,-497.46 99.5,-489.03"/>
<polygon fill="none" stroke="#63b8ff" points="96,-515.65 99.5,-525.65 103,-515.65 96,-515.65"/>
</a>
</g>
</g>
</g>
</svg>

<g id="navigator" transform="translate(0 0)" fill="#404254">
  <rect fill="#f2f5e9" fill-opacity="0.5" stroke="#606060" stroke-width=".5" x="0" y="0" width="60" height="60"/>
  <use id="zoomplus" xlink:href="#zoomPlus" x="17" y="9" onmousedown="handleZoom(evt,'in')"/>
  <use id="zoomminus" xlink:href="#zoomMin" x="42" y="9" onmousedown="handleZoom(evt,'out')"/>
  <use id="reset" xlink:href="#resetDef" x="30" y="36" onmousedown="handleReset()"/>
   <use id="arrowup" xlink:href="#arrowUp" x="0" y="0" onmousedown="handlePan(0,-1)"/>
  <use id="arrowright" xlink:href="#arrowRight" x="0" y="0" onmousedown="handlePan(1,0)"/>
  <use id="arrowdown" xlink:href="#arrowDown" x="0" y="0" onmousedown="handlePan(0,1)"/>
  <use id="arrowleft" xlink:href="#arrowLeft" x="0" y="0" onmousedown="handlePan(-1,0)"/>
</g>
<svg viewBox="0 0 15 15" width="100%" height="30px" preserveAspectRatio="xMaxYMin meet">
 <g id="arrow_out" transform="scale(0.3 0.3)">
  <a xlink:href="classTrashCan__Layout__inherit__graph_org.svg" target="_base">
   <rect id="button" ry="5" rx="5" y="6" x="6" height="38" width="38"
        fill="#f2f5e9" fill-opacity="0.5" stroke="#606060" stroke-width="1.0"/>
   <path id="arrow"
     d="M 11.500037,31.436501 C 11.940474,20.09759 22.043105,11.32322 32.158766,21.979434 L 37.068811,17.246167 C 37.068811,17.246167 37.088388,32 37.088388,32 L 22.160133,31.978069 C 22.160133,31.978069 26.997745,27.140456 26.997745,27.140456 C 18.528582,18.264221 13.291696,25.230495 11.500037,31.436501 z"
     style="fill:#404040;"/>
  </a>
 </g>
</svg>

<style type='text/css'>
<![CDATA[
[data-mouse-over-selected='false'] { opacity: 0.7; }
[data-mouse-over-selected='true']  { opacity: 1.0; }
]]>
</style>
<script type="application/ecmascript"><![CDATA[
document.addEventListener('DOMContentLoaded', (event) => {
  highlightEdges();
  highlightAdjacentNodes();
});
]]></script>
</svg>
