<?xml version="1.0" encoding="UTF-8" standalone="no"?>
<!DOCTYPE svg PUBLIC "-//W3C//DTD SVG 1.1//EN"
 "http://www.w3.org/Graphics/SVG/1.1/DTD/svg11.dtd">
<!-- Generated by graphviz version 2.43.0 (0)
 -->
<!-- Title: Terraria.GameContent.Biomes.DeadMansChestBiome.BoulderPlacementAttempt Pages: 1 -->
<svg width="337pt" height="438pt"
 viewBox="0.00 0.00 336.50 438.00" xmlns="http://www.w3.org/2000/svg" xmlns:xlink="http://www.w3.org/1999/xlink">
<g id="graph0" class="graph" transform="scale(1 1) rotate(0) translate(4 434)">
<title>Terraria.GameContent.Biomes.DeadMansChestBiome.BoulderPlacementAttempt</title>
<!-- Node1 -->
<g id="Node000001" class="node">
<title>Node1</title>
<g id="a_Node000001"><a xlink:title=" ">
<polygon fill="#999999" stroke="transparent" points="277.5,-93 63.5,-93 63.5,0 277.5,0 277.5,-93"/>
<text text-anchor="start" x="68.5" y="-80.5" font-family="Helvetica,sans-Serif" font-size="10.00">Terraria.GameContent.Biomes.</text>
<text text-anchor="start" x="68.5" y="-69.5" font-family="Helvetica,sans-Serif" font-size="10.00">DeadMansChestBiome.BoulderPlacement</text>
<text text-anchor="start" x="150.5" y="-58.5" font-family="Helvetica,sans-Serif" font-size="10.00">Attempt</text>
<text text-anchor="start" x="168.5" y="-43.5" font-family="Helvetica,sans-Serif" font-size="10.00"> </text>
<text text-anchor="start" x="75.5" y="-28.5" font-family="Helvetica,sans-Serif" font-size="10.00">+</text>
<text text-anchor="start" x="96.5" y="-28.5" font-family="Helvetica,sans-Serif" font-size="10.00">BoulderPlacementAttempt</text>
<text text-anchor="start" x="96.5" y="-17.5" font-family="Helvetica,sans-Serif" font-size="10.00">(Point position, int yPush,</text>
<text text-anchor="start" x="96.5" y="-6.5" font-family="Helvetica,sans-Serif" font-size="10.00"> int requiredHeight, int bestType)</text>
<polygon fill="#666666" stroke="#666666" points="63.5,-53.5 63.5,-53.5 277.5,-53.5 277.5,-53.5 63.5,-53.5"/>
<polygon fill="#666666" stroke="#666666" points="63.5,-38.5 63.5,-38.5 277.5,-38.5 277.5,-38.5 63.5,-38.5"/>
<polygon fill="none" stroke="#666666" points="63.5,0 63.5,-93 277.5,-93 277.5,0 63.5,0"/>
</a>
</g>
</g>
<!-- Node2 -->
<g id="Node000002" class="node">
<title>Node2</title>
<g id="a_Node000002"><a xlink:href="../../d5/d8f/structMicrosoft_1_1Xna_1_1Framework_1_1Point.html" target="_top" xlink:title=" ">
<polygon fill="white" stroke="transparent" points="155,-323 0,-323 0,-140 155,-140 155,-323"/>
<text text-anchor="start" x="14" y="-310.5" font-family="Helvetica,sans-Serif" font-size="10.00">Microsoft.Xna.Framework.</text>
<text text-anchor="start" x="65.5" y="-299.5" font-family="Helvetica,sans-Serif" font-size="10.00">Point</text>
<text text-anchor="start" x="4.5" y="-284.5" font-family="Helvetica,sans-Serif" font-size="10.00">+</text>
<text text-anchor="start" x="17.5" y="-284.5" font-family="Helvetica,sans-Serif" font-size="10.00">static Point Zero</text>
<text text-anchor="start" x="4.5" y="-269.5" font-family="Helvetica,sans-Serif" font-size="10.00">+</text>
<text text-anchor="start" x="17.5" y="-269.5" font-family="Helvetica,sans-Serif" font-size="10.00">Point(int x, int y)</text>
<text text-anchor="start" x="4.5" y="-254.5" font-family="Helvetica,sans-Serif" font-size="10.00">+</text>
<text text-anchor="start" x="17.5" y="-254.5" font-family="Helvetica,sans-Serif" font-size="10.00">bool Equals(Point other)</text>
<text text-anchor="start" x="4.5" y="-239.5" font-family="Helvetica,sans-Serif" font-size="10.00">+</text>
<text text-anchor="start" x="17.5" y="-239.5" font-family="Helvetica,sans-Serif" font-size="10.00">override bool Equals</text>
<text text-anchor="start" x="17.5" y="-228.5" font-family="Helvetica,sans-Serif" font-size="10.00">(object obj)</text>
<text text-anchor="start" x="4.5" y="-213.5" font-family="Helvetica,sans-Serif" font-size="10.00">+</text>
<text text-anchor="start" x="17.5" y="-213.5" font-family="Helvetica,sans-Serif" font-size="10.00">override int GetHashCode()</text>
<text text-anchor="start" x="4.5" y="-198.5" font-family="Helvetica,sans-Serif" font-size="10.00">+</text>
<text text-anchor="start" x="17.5" y="-198.5" font-family="Helvetica,sans-Serif" font-size="10.00">override string ToString()</text>
<text text-anchor="start" x="4.5" y="-183.5" font-family="Helvetica,sans-Serif" font-size="10.00">+</text>
<text text-anchor="start" x="17.5" y="-183.5" font-family="Helvetica,sans-Serif" font-size="10.00">static bool operator</text>
<text text-anchor="start" x="17.5" y="-172.5" font-family="Helvetica,sans-Serif" font-size="10.00">==(Point a, Point b)</text>
<text text-anchor="start" x="4.5" y="-157.5" font-family="Helvetica,sans-Serif" font-size="10.00">+</text>
<text text-anchor="start" x="17.5" y="-157.5" font-family="Helvetica,sans-Serif" font-size="10.00">static bool operator!</text>
<text text-anchor="start" x="17.5" y="-146.5" font-family="Helvetica,sans-Serif" font-size="10.00">=(Point a, Point b)</text>
<polygon fill="#666666" stroke="#666666" points="0.5,-294.5 0.5,-294.5 155.5,-294.5 155.5,-294.5 0.5,-294.5"/>
<polygon fill="#666666" stroke="#666666" points="0.5,-279.5 0.5,-279.5 15.5,-279.5 15.5,-279.5 0.5,-279.5"/>
<polygon fill="#666666" stroke="#666666" points="15.5,-279.5 15.5,-279.5 155.5,-279.5 155.5,-279.5 15.5,-279.5"/>
<polygon fill="none" stroke="#666666" points="0,-140 0,-323 155,-323 155,-140 0,-140"/>
</a>
</g>
</g>
<!-- Node2&#45;&gt;Node1 -->
<g id="edge1_Node000001_Node000002" class="edge">
<title>Node2&#45;&gt;Node1</title>
<g id="a_edge1_Node000001_Node000002"><a xlink:title=" ">
<path fill="none" stroke="#63b8ff" d="M123.59,-139.8C129.76,-127.67 135.93,-115.52 141.68,-104.2"/>
<polygon fill="none" stroke="#63b8ff" points="141.84,-103.89 140.99,-96.73 147.28,-93.19 148.13,-100.35 141.84,-103.89"/>
</a>
</g>
<text text-anchor="middle" x="164" y="-114" font-family="Helvetica,sans-Serif" font-size="10.00" fill="grey"> +position</text>
</g>
<!-- Node2&#45;&gt;Node2 -->
<g id="edge3_Node000002_Node000002" class="edge">
<title>Node2&#45;&gt;Node2</title>
<g id="a_edge3_Node000002_Node000002"><a xlink:title=" ">
<path fill="none" stroke="#63b8ff" d="M155.07,-250.57C165.81,-247.43 173,-241.07 173,-231.5 173,-225.82 170.47,-221.26 166.16,-217.85"/>
<polygon fill="none" stroke="#63b8ff" points="165.85,-217.7 158.7,-218.65 155.07,-212.43 162.21,-211.47 165.85,-217.7"/>
</a>
</g>
<text text-anchor="middle" x="199.5" y="-229" font-family="Helvetica,sans-Serif" font-size="10.00" fill="grey"> &#45;zeroPoint</text>
</g>
<!-- Node3 -->
<g id="Node000003" class="node">
<title>Node3</title>
<g id="a_Node000003"><a xlink:href="../../d9/d1c/classIEquatable.html" target="_top" xlink:title=" ">
<polygon fill="white" stroke="transparent" points="132.5,-430 22.5,-430 22.5,-381 132.5,-381 132.5,-430"/>
<text text-anchor="start" x="27.5" y="-417.5" font-family="Helvetica,sans-Serif" font-size="10.00">IEquatable&lt; Point &gt;</text>
<text text-anchor="start" x="75.5" y="-402.5" font-family="Helvetica,sans-Serif" font-size="10.00"> </text>
<text text-anchor="start" x="75.5" y="-387.5" font-family="Helvetica,sans-Serif" font-size="10.00"> </text>
<polygon fill="#666666" stroke="#666666" points="22.5,-412.5 22.5,-412.5 132.5,-412.5 132.5,-412.5 22.5,-412.5"/>
<polygon fill="#666666" stroke="#666666" points="22.5,-397.5 22.5,-397.5 132.5,-397.5 132.5,-397.5 22.5,-397.5"/>
<polygon fill="none" stroke="#666666" points="22.5,-381 22.5,-430 132.5,-430 132.5,-381 22.5,-381"/>
</a>
</g>
</g>
<!-- Node3&#45;&gt;Node2 -->
<g id="edge2_Node000002_Node000003" class="edge">
<title>Node3&#45;&gt;Node2</title>
<g id="a_edge2_Node000002_Node000003"><a xlink:title=" ">
<path fill="none" stroke="#63b8ff" d="M77.5,-370.57C77.5,-356.81 77.5,-340.19 77.5,-323.33"/>
<polygon fill="none" stroke="#63b8ff" points="74,-370.94 77.5,-380.94 81,-370.94 74,-370.94"/>
</a>
</g>
</g>
<!-- Node4 -->
<g id="Node000004" class="node">
<title>Node4</title>
<g id="a_Node000004"><a xlink:title=" ">
<polygon fill="white" stroke="transparent" points="228,-430 205,-430 205,-381 228,-381 228,-430"/>
<text text-anchor="start" x="210.5" y="-417.5" font-family="Helvetica,sans-Serif" font-size="10.00">int</text>
<text text-anchor="start" x="215" y="-402.5" font-family="Helvetica,sans-Serif" font-size="10.00"> </text>
<text text-anchor="start" x="215" y="-387.5" font-family="Helvetica,sans-Serif" font-size="10.00"> </text>
<polygon fill="#666666" stroke="#666666" points="205.5,-412.5 205.5,-412.5 228.5,-412.5 228.5,-412.5 205.5,-412.5"/>
<polygon fill="#666666" stroke="#666666" points="205.5,-397.5 205.5,-397.5 228.5,-397.5 228.5,-397.5 205.5,-397.5"/>
<polygon fill="none" stroke="#666666" points="205,-381 205,-430 228,-430 228,-381 205,-381"/>
</a>
</g>
</g>
<!-- Node4&#45;&gt;Node1 -->
<g id="edge5_Node000001_Node000004" class="edge">
<title>Node4&#45;&gt;Node1</title>
<g id="a_edge5_Node000001_Node000004"><a xlink:title=" ">
<path fill="none" stroke="#63b8ff" d="M223.74,-380.83C236.93,-333.74 261.18,-225.45 234.5,-140 230.53,-127.3 224.15,-114.8 216.9,-103.31"/>
<polygon fill="none" stroke="#63b8ff" points="216.72,-103.03 210.06,-100.26 210.06,-93.05 216.72,-95.82 216.72,-103.03"/>
</a>
</g>
<text text-anchor="middle" x="287.5" y="-240" font-family="Helvetica,sans-Serif" font-size="10.00" fill="grey"> +bestType</text>
<text text-anchor="middle" x="287.5" y="-229" font-family="Helvetica,sans-Serif" font-size="10.00" fill="grey">+requiredHeight</text>
<text text-anchor="middle" x="287.5" y="-218" font-family="Helvetica,sans-Serif" font-size="10.00" fill="grey">+yPush</text>
</g>
<!-- Node4&#45;&gt;Node2 -->
<g id="edge4_Node000002_Node000004" class="edge">
<title>Node4&#45;&gt;Node2</title>
<g id="a_edge4_Node000002_Node000004"><a xlink:title=" ">
<path fill="none" stroke="#63b8ff" d="M204.89,-390.13C194.05,-376.72 176.83,-355.42 158.52,-332.76"/>
<polygon fill="none" stroke="#63b8ff" points="158.45,-332.66 151.56,-330.51 150.9,-323.33 157.79,-325.48 158.45,-332.66"/>
</a>
</g>
<text text-anchor="middle" x="193" y="-355" font-family="Helvetica,sans-Serif" font-size="10.00" fill="grey"> +X</text>
<text text-anchor="middle" x="193" y="-344" font-family="Helvetica,sans-Serif" font-size="10.00" fill="grey">+Y</text>
</g>
</g>
</svg>
