<?xml version="1.0" encoding="UTF-8" standalone="no"?>
<!DOCTYPE svg PUBLIC "-//W3C//DTD SVG 1.1//EN"
 "http://www.w3.org/Graphics/SVG/1.1/DTD/svg11.dtd">
<!-- Generated by graphviz version 2.43.0 (0)
 -->
<!-- Title: Terraria.GameContent.Achievements.CustomFlagCondition Pages: 1 -->
<!--zoomable 551 -->

<svg id="main" version="1.1" xmlns="http://www.w3.org/2000/svg" xmlns:xlink="http://www.w3.org/1999/xlink" xml:space="preserve" onload="init(evt)">
<style type="text/css"><![CDATA[
.node, .edge {opacity: 0.7;}
.node.selected, .edge.selected {opacity: 1;}
.edge:hover path { stroke: red; }
.edge:hover polygon { stroke: red; fill: red; }
]]></style>

<defs>
  <circle id="rim" cx="0" cy="0" r="7"/>
  <circle id="rim2" cx="0" cy="0" r="3.5"/>
  <g id="zoomPlus">
    <use xlink:href="#rim" fill="#404040"><set attributeName="fill" to="#808080" begin="zoomplus.mouseover" end="zoomplus.mouseout"/></use>
    <path d="M-4,0h8M0,-4v8" fill="none" stroke="white" stroke-width="1.5" pointer-events="none"/>
  </g>
  <g id="zoomMin">
    <use xlink:href="#rim" fill="#404040"><set attributeName="fill" to="#808080" begin="zoomminus.mouseover" end="zoomminus.mouseout"/></use>
    <path d="M-4,0h8" fill="none" stroke="white" stroke-width="1.5" pointer-events="none"/>
  </g>
  <g id="arrowUp" transform="translate(30 24)">
    <use xlink:href="#rim"/>
    <path pointer-events="none" fill="none" stroke="white" stroke-width="1.5" d="M0,-3.0v7 M-2.5,-0.5L0,-3.0L2.5,-0.5"/>
  </g>
  <g id="arrowRight" transform="rotate(90) translate(36 -43)">
    <use xlink:href="#rim"/>
    <path pointer-events="none" fill="none" stroke="white" stroke-width="1.5" d="M0,-3.0v7 M-2.5,-0.5L0,-3.0L2.5,-0.5"/>
  </g>
  <g id="arrowDown" transform="rotate(180) translate(-30 -48)">
    <use xlink:href="#rim"/>
    <path pointer-events="none" fill="none" stroke="white" stroke-width="1.5" d="M0,-3.0v7 M-2.5,-0.5L0,-3.0L2.5,-0.5"/>
  </g>
  <g id="arrowLeft" transform="rotate(270) translate(-36 17)">
    <use xlink:href="#rim"/>
    <path pointer-events="none" fill="none" stroke="white" stroke-width="1.5" d="M0,-3.0v7 M-2.5,-0.5L0,-3.0L2.5,-0.5"/>
  </g>
  <g id="resetDef">
    <use xlink:href="#rim2" fill="#404040"><set attributeName="fill" to="#808080" begin="reset.mouseover" end="reset.mouseout"/></use>
  </g>
</defs>
<script type="application/ecmascript">
var viewWidth = 328;
var viewHeight = 551;
var sectionId = 'dynsection-1';
</script>
<script type="application/ecmascript" xlink:href="../../svg.min.js"/>
<svg id="graph" class="graph">
<g id="viewport">
<title>Terraria.GameContent.Achievements.CustomFlagCondition</title>
<!-- Node1 -->
<g id="Node000001" class="node">
<title>Node1</title>
<g id="a_Node000001"><a xlink:title=" ">
<polygon fill="#999999" stroke="transparent" points="249,-97 55,-97 55,0 249,0 249,-97"/>
<text text-anchor="start" x="60" y="-84.5" font-family="Helvetica,sans-Serif" font-size="10.00">Terraria.GameContent.Achievements.</text>
<text text-anchor="start" x="99" y="-73.5" font-family="Helvetica,sans-Serif" font-size="10.00">CustomFlagCondition</text>
<text text-anchor="start" x="150" y="-58.5" font-family="Helvetica,sans-Serif" font-size="10.00"> </text>
<text text-anchor="start" x="66.5" y="-43.5" font-family="Helvetica,sans-Serif" font-size="10.00">+</text>
<text text-anchor="start" x="87" y="-43.5" font-family="Helvetica,sans-Serif" font-size="10.00">static AchievementCondition</text>
<text text-anchor="start" x="87" y="-32.5" font-family="Helvetica,sans-Serif" font-size="10.00"> Create(string name)</text>
<text text-anchor="start" x="69" y="-17.5" font-family="Helvetica,sans-Serif" font-size="10.00">&#45;</text>
<text text-anchor="start" x="87" y="-17.5" font-family="Helvetica,sans-Serif" font-size="10.00">CustomFlagCondition</text>
<text text-anchor="start" x="87" y="-6.5" font-family="Helvetica,sans-Serif" font-size="10.00">(string name)</text>
<polygon fill="#666666" stroke="#666666" points="55,-68.5 55,-68.5 249,-68.5 249,-68.5 55,-68.5"/>
<polygon fill="#666666" stroke="#666666" points="55,-53.5 55,-53.5 249,-53.5 249,-53.5 55,-53.5"/>
<polygon fill="none" stroke="#666666" points="55,0 55,-97 249,-97 249,0 55,0"/>
</a>
</g>
</g>
<!-- Node2 -->
<g id="Node000002" class="node">
<title>Node2</title>
<g id="a_Node000002"><a xlink:href="../../d5/dfd/classTerraria_1_1Achievements_1_1AchievementCondition.html" target="_top" xlink:title=" ">
<polygon fill="white" stroke="transparent" points="252,-380 52,-380 52,-134 252,-134 252,-380"/>
<text text-anchor="start" x="96" y="-368" font-family="Helvetica,sans-Serif" font-size="10.00">AchievementCondition</text>
<text text-anchor="start" x="56" y="-353" font-family="Helvetica,sans-Serif" font-size="10.00">+</text>
<text text-anchor="start" x="69" y="-353" font-family="Helvetica,sans-Serif" font-size="10.00">AchievementCondition.Achievement</text>
<text text-anchor="start" x="69" y="-342" font-family="Helvetica,sans-Serif" font-size="10.00">Update OnComplete</text>
<text text-anchor="start" x="56" y="-327" font-family="Helvetica,sans-Serif" font-size="10.00">+</text>
<text text-anchor="start" x="69" y="-327" font-family="Helvetica,sans-Serif" font-size="10.00">bool IsCompleted</text>
<text text-anchor="start" x="56" y="-312" font-family="Helvetica,sans-Serif" font-size="10.00">+</text>
<text text-anchor="start" x="69" y="-312" font-family="Helvetica,sans-Serif" font-size="10.00">virtual void Load(JObject</text>
<text text-anchor="start" x="69" y="-301" font-family="Helvetica,sans-Serif" font-size="10.00"> state)</text>
<text text-anchor="start" x="56" y="-286" font-family="Helvetica,sans-Serif" font-size="10.00">+</text>
<text text-anchor="start" x="69" y="-286" font-family="Helvetica,sans-Serif" font-size="10.00">virtual void Shutdown()</text>
<text text-anchor="start" x="56" y="-271" font-family="Helvetica,sans-Serif" font-size="10.00">+</text>
<text text-anchor="start" x="69" y="-271" font-family="Helvetica,sans-Serif" font-size="10.00">virtual void Clear()</text>
<text text-anchor="start" x="56" y="-256" font-family="Helvetica,sans-Serif" font-size="10.00">+</text>
<text text-anchor="start" x="69" y="-256" font-family="Helvetica,sans-Serif" font-size="10.00">virtual void Complete()</text>
<text text-anchor="start" x="56" y="-241" font-family="Helvetica,sans-Serif" font-size="10.00">+</text>
<text text-anchor="start" x="69" y="-241" font-family="Helvetica,sans-Serif" font-size="10.00">IAchievementTracker</text>
<text text-anchor="start" x="69" y="-230" font-family="Helvetica,sans-Serif" font-size="10.00"> GetAchievementTracker()</text>
<text text-anchor="start" x="56" y="-215" font-family="Helvetica,sans-Serif" font-size="10.00">+</text>
<text text-anchor="start" x="69" y="-215" font-family="Helvetica,sans-Serif" font-size="10.00">delegate void Achievement</text>
<text text-anchor="start" x="69" y="-204" font-family="Helvetica,sans-Serif" font-size="10.00">Update(AchievementCondition</text>
<text text-anchor="start" x="69" y="-193" font-family="Helvetica,sans-Serif" font-size="10.00"> condition)</text>
<text text-anchor="start" x="56" y="-178" font-family="Helvetica,sans-Serif" font-size="10.00">#</text>
<text text-anchor="start" x="69" y="-178" font-family="Helvetica,sans-Serif" font-size="10.00">AchievementCondition</text>
<text text-anchor="start" x="69" y="-167" font-family="Helvetica,sans-Serif" font-size="10.00">(string name)</text>
<text text-anchor="start" x="56" y="-152" font-family="Helvetica,sans-Serif" font-size="10.00">#</text>
<text text-anchor="start" x="69" y="-152" font-family="Helvetica,sans-Serif" font-size="10.00">virtual IAchievementTracker</text>
<text text-anchor="start" x="69" y="-141" font-family="Helvetica,sans-Serif" font-size="10.00"> CreateAchievementTracker()</text>
<polygon fill="#666666" stroke="#666666" points="52,-363 52,-363 252,-363 252,-363 52,-363"/>
<polygon fill="#666666" stroke="#666666" points="52,-322 52,-322 67,-322 67,-322 52,-322"/>
<polygon fill="#666666" stroke="#666666" points="67,-322 67,-322 252,-322 252,-322 67,-322"/>
<polygon fill="none" stroke="#666666" points="52,-134 52,-380 252,-380 252,-134 52,-134"/>
</a>
</g>
</g>
<!-- Node2&#45;&gt;Node1 -->
<g id="edge1_Node000001_Node000002" class="edge">
<title>Node2&#45;&gt;Node1</title>
<g id="a_edge1_Node000001_Node000002"><a xlink:title=" ">
<path fill="none" stroke="#63b8ff" d="M152,-123.62C152,-114.36 152,-105.44 152,-97.19"/>
<polygon fill="none" stroke="#63b8ff" points="148.5,-123.79 152,-133.79 155.5,-123.79 148.5,-123.79"/>
</a>
</g>
</g>
<!-- Node3 -->
<g id="Node000003" class="node">
<title>Node3</title>
<g id="a_Node000003"><a xlink:title=" ">
<polygon fill="white" stroke="transparent" points="38,-509.5 0,-509.5 0,-460.5 38,-460.5 38,-509.5"/>
<text text-anchor="start" x="5" y="-497" font-family="Helvetica,sans-Serif" font-size="10.00">string</text>
<text text-anchor="start" x="17" y="-482" font-family="Helvetica,sans-Serif" font-size="10.00"> </text>
<text text-anchor="start" x="17" y="-467" font-family="Helvetica,sans-Serif" font-size="10.00"> </text>
<polygon fill="#666666" stroke="#666666" points="0,-492 0,-492 38,-492 38,-492 0,-492"/>
<polygon fill="#666666" stroke="#666666" points="0,-477 0,-477 38,-477 38,-477 0,-477"/>
<polygon fill="none" stroke="#666666" points="0,-460.5 0,-509.5 38,-509.5 38,-460.5 0,-460.5"/>
</a>
</g>
</g>
<!-- Node3&#45;&gt;Node2 -->
<g id="edge2_Node000002_Node000003" class="edge">
<title>Node3&#45;&gt;Node2</title>
<g id="a_edge2_Node000002_Node000003"><a xlink:title=" ">
<path fill="none" stroke="#63b8ff" d="M29.93,-460.44C34.9,-450.06 41.01,-437.8 47,-427 53.54,-415.2 60.53,-403.07 67.68,-390.98"/>
<polygon fill="none" stroke="#63b8ff" points="67.86,-390.68 67.49,-383.48 74,-380.37 74.36,-387.58 67.86,-390.68"/>
</a>
</g>
<text text-anchor="middle" x="84.5" y="-401" font-family="Helvetica,sans-Serif" font-size="10.00" fill="grey"> +Name</text>
</g>
<!-- Node4 -->
<g id="Node000004" class="node">
<title>Node4</title>
<g id="a_Node000004"><a xlink:href="../../d2/d17/interfaceTerraria_1_1Achievements_1_1IAchievementTracker.html" target="_top" xlink:title=" ">
<polygon fill="white" stroke="transparent" points="247.5,-543 56.5,-543 56.5,-427 247.5,-427 247.5,-543"/>
<text text-anchor="start" x="62" y="-531" font-family="Helvetica,sans-Serif" font-size="10.00">Terraria.Achievements.IAchievement</text>
<text text-anchor="start" x="135" y="-520" font-family="Helvetica,sans-Serif" font-size="10.00">Tracker</text>
<text text-anchor="start" x="150.5" y="-505" font-family="Helvetica,sans-Serif" font-size="10.00"> </text>
<text text-anchor="start" x="68" y="-490" font-family="Helvetica,sans-Serif" font-size="10.00">+</text>
<text text-anchor="start" x="88" y="-490" font-family="Helvetica,sans-Serif" font-size="10.00">void ReportAs(string</text>
<text text-anchor="start" x="88" y="-479" font-family="Helvetica,sans-Serif" font-size="10.00"> name)</text>
<text text-anchor="start" x="68" y="-464" font-family="Helvetica,sans-Serif" font-size="10.00">+</text>
<text text-anchor="start" x="88" y="-464" font-family="Helvetica,sans-Serif" font-size="10.00">TrackerType GetTrackerType()</text>
<text text-anchor="start" x="68" y="-449" font-family="Helvetica,sans-Serif" font-size="10.00">+</text>
<text text-anchor="start" x="88" y="-449" font-family="Helvetica,sans-Serif" font-size="10.00">void Load()</text>
<text text-anchor="start" x="68" y="-434" font-family="Helvetica,sans-Serif" font-size="10.00">+</text>
<text text-anchor="start" x="88" y="-434" font-family="Helvetica,sans-Serif" font-size="10.00">void Clear()</text>
<polygon fill="#666666" stroke="#666666" points="57,-515 57,-515 248,-515 248,-515 57,-515"/>
<polygon fill="#666666" stroke="#666666" points="57,-500 57,-500 248,-500 248,-500 57,-500"/>
<polygon fill="none" stroke="#666666" points="56.5,-427 56.5,-543 247.5,-543 247.5,-427 56.5,-427"/>
</a>
</g>
</g>
<!-- Node4&#45;&gt;Node2 -->
<g id="edge3_Node000002_Node000004" class="edge">
<title>Node4&#45;&gt;Node2</title>
<g id="a_edge3_Node000002_Node000004"><a xlink:title=" ">
<path fill="none" stroke="#63b8ff" d="M152,-426.97C152,-416.18 152,-404.48 152,-392.45"/>
<polygon fill="none" stroke="#63b8ff" points="152,-392.32 148,-386.32 152,-380.32 156,-386.32 152,-392.32"/>
</a>
</g>
<text text-anchor="middle" x="177.5" y="-401" font-family="Helvetica,sans-Serif" font-size="10.00" fill="grey"> #_tracker</text>
</g>
<!-- Node5 -->
<g id="Node000005" class="node">
<title>Node5</title>
<g id="a_Node000005"><a xlink:title=" ">
<polygon fill="white" stroke="transparent" points="298,-509.5 266,-509.5 266,-460.5 298,-460.5 298,-509.5"/>
<text text-anchor="start" x="271" y="-497" font-family="Helvetica,sans-Serif" font-size="10.00">bool</text>
<text text-anchor="start" x="280" y="-482" font-family="Helvetica,sans-Serif" font-size="10.00"> </text>
<text text-anchor="start" x="280" y="-467" font-family="Helvetica,sans-Serif" font-size="10.00"> </text>
<polygon fill="#666666" stroke="#666666" points="266,-492 266,-492 298,-492 298,-492 266,-492"/>
<polygon fill="#666666" stroke="#666666" points="266,-477 266,-477 298,-477 298,-477 266,-477"/>
<polygon fill="none" stroke="#666666" points="266,-460.5 266,-509.5 298,-509.5 298,-460.5 266,-460.5"/>
</a>
</g>
</g>
<!-- Node5&#45;&gt;Node2 -->
<g id="edge4_Node000002_Node000005" class="edge">
<title>Node5&#45;&gt;Node2</title>
<g id="a_edge4_Node000002_Node000005"><a xlink:title=" ">
<path fill="none" stroke="#63b8ff" d="M272.52,-460.35C268.13,-449.96 262.64,-437.71 257,-427 250.71,-415.06 243.9,-402.83 236.87,-390.68"/>
<polygon fill="none" stroke="#63b8ff" points="236.7,-390.39 230.22,-387.23 230.64,-380.03 237.13,-383.19 236.7,-390.39"/>
</a>
</g>
<text text-anchor="middle" x="283" y="-401" font-family="Helvetica,sans-Serif" font-size="10.00" fill="grey"> &#45;_isCompleted</text>
</g>
</g>
</svg>

<g id="navigator" transform="translate(0 0)" fill="#404254">
  <rect fill="#f2f5e9" fill-opacity="0.5" stroke="#606060" stroke-width=".5" x="0" y="0" width="60" height="60"/>
  <use id="zoomplus" xlink:href="#zoomPlus" x="17" y="9" onmousedown="handleZoom(evt,'in')"/>
  <use id="zoomminus" xlink:href="#zoomMin" x="42" y="9" onmousedown="handleZoom(evt,'out')"/>
  <use id="reset" xlink:href="#resetDef" x="30" y="36" onmousedown="handleReset()"/>
   <use id="arrowup" xlink:href="#arrowUp" x="0" y="0" onmousedown="handlePan(0,-1)"/>
  <use id="arrowright" xlink:href="#arrowRight" x="0" y="0" onmousedown="handlePan(1,0)"/>
  <use id="arrowdown" xlink:href="#arrowDown" x="0" y="0" onmousedown="handlePan(0,1)"/>
  <use id="arrowleft" xlink:href="#arrowLeft" x="0" y="0" onmousedown="handlePan(-1,0)"/>
</g>
<svg viewBox="0 0 15 15" width="100%" height="30px" preserveAspectRatio="xMaxYMin meet">
 <g id="arrow_out" transform="scale(0.3 0.3)">
  <a xlink:href="classTerraria_1_1GameContent_1_1Achievements_1_1CustomFlagCondition__coll__graph_org.svg" target="_base">
   <rect id="button" ry="5" rx="5" y="6" x="6" height="38" width="38"
        fill="#f2f5e9" fill-opacity="0.5" stroke="#606060" stroke-width="1.0"/>
   <path id="arrow"
     d="M 11.500037,31.436501 C 11.940474,20.09759 22.043105,11.32322 32.158766,21.979434 L 37.068811,17.246167 C 37.068811,17.246167 37.088388,32 37.088388,32 L 22.160133,31.978069 C 22.160133,31.978069 26.997745,27.140456 26.997745,27.140456 C 18.528582,18.264221 13.291696,25.230495 11.500037,31.436501 z"
     style="fill:#404040;"/>
  </a>
 </g>
</svg>

<style type='text/css'>
<![CDATA[
[data-mouse-over-selected='false'] { opacity: 0.7; }
[data-mouse-over-selected='true']  { opacity: 1.0; }
]]>
</style>
<script type="application/ecmascript"><![CDATA[
document.addEventListener('DOMContentLoaded', (event) => {
  highlightEdges();
  highlightAdjacentNodes();
});
]]></script>
</svg>
