<?xml version="1.0" encoding="UTF-8" standalone="no"?>
<!DOCTYPE svg PUBLIC "-//W3C//DTD SVG 1.1//EN"
 "http://www.w3.org/Graphics/SVG/1.1/DTD/svg11.dtd">
<!-- Generated by graphviz version 2.43.0 (0)
 -->
<!-- Title: System.ComponentModel.DataObjectAttribute Pages: 1 -->
<svg width="528pt" height="1525pt"
 viewBox="0.00 0.00 528.00 1525.00" xmlns="http://www.w3.org/2000/svg" xmlns:xlink="http://www.w3.org/1999/xlink">
<g id="graph0" class="graph" transform="scale(1 1) rotate(0) translate(4 1521)">
<title>System.ComponentModel.DataObjectAttribute</title>
<!-- Node1 -->
<g id="Node000001" class="node">
<title>Node1</title>
<g id="a_Node000001"><a xlink:title=" ">
<polygon fill="#999999" stroke="transparent" points="277,-157 93,-157 93,0 277,0 277,-157"/>
<text text-anchor="start" x="108.5" y="-144.5" font-family="Helvetica,sans-Serif" font-size="10.00">System.ComponentModel.Data</text>
<text text-anchor="start" x="147.5" y="-133.5" font-family="Helvetica,sans-Serif" font-size="10.00">ObjectAttribute</text>
<text text-anchor="start" x="97" y="-118.5" font-family="Helvetica,sans-Serif" font-size="10.00">+</text>
<text text-anchor="start" x="110" y="-118.5" font-family="Helvetica,sans-Serif" font-size="10.00">bool IsDataObject</text>
<text text-anchor="start" x="97" y="-103.5" font-family="Helvetica,sans-Serif" font-size="10.00">+</text>
<text text-anchor="start" x="110" y="-103.5" font-family="Helvetica,sans-Serif" font-size="10.00">DataObjectAttribute()</text>
<text text-anchor="start" x="97" y="-88.5" font-family="Helvetica,sans-Serif" font-size="10.00">+</text>
<text text-anchor="start" x="110" y="-88.5" font-family="Helvetica,sans-Serif" font-size="10.00">DataObjectAttribute</text>
<text text-anchor="start" x="110" y="-77.5" font-family="Helvetica,sans-Serif" font-size="10.00">(bool isDataObject)</text>
<text text-anchor="start" x="97" y="-62.5" font-family="Helvetica,sans-Serif" font-size="10.00">+</text>
<text text-anchor="start" x="110" y="-62.5" font-family="Helvetica,sans-Serif" font-size="10.00">override bool Equals</text>
<text text-anchor="start" x="110" y="-51.5" font-family="Helvetica,sans-Serif" font-size="10.00">(object obj)</text>
<text text-anchor="start" x="97" y="-36.5" font-family="Helvetica,sans-Serif" font-size="10.00">+</text>
<text text-anchor="start" x="110" y="-36.5" font-family="Helvetica,sans-Serif" font-size="10.00">override int GetHashCode()</text>
<text text-anchor="start" x="97" y="-21.5" font-family="Helvetica,sans-Serif" font-size="10.00">+</text>
<text text-anchor="start" x="110" y="-21.5" font-family="Helvetica,sans-Serif" font-size="10.00">override bool IsDefaultAttribute()</text>
<text text-anchor="start" x="99.5" y="-6.5" font-family="Helvetica,sans-Serif" font-size="10.00">&#45;</text>
<text text-anchor="start" x="110" y="-6.5" font-family="Helvetica,sans-Serif" font-size="10.00">static DataObjectAttribute()</text>
<polygon fill="#666666" stroke="#666666" points="93,-128.5 93,-128.5 277,-128.5 277,-128.5 93,-128.5"/>
<polygon fill="#666666" stroke="#666666" points="93,-113.5 93,-113.5 108,-113.5 108,-113.5 93,-113.5"/>
<polygon fill="#666666" stroke="#666666" points="108,-113.5 108,-113.5 277,-113.5 277,-113.5 108,-113.5"/>
<polygon fill="none" stroke="#666666" points="93,0 93,-157 277,-157 277,0 93,0"/>
</a>
</g>
</g>
<!-- Node2 -->
<g id="Node000002" class="node">
<title>Node2</title>
<g id="a_Node000002"><a xlink:href="../../d1/d05/classSystem_1_1Attribute.html" target="_top" xlink:title=" ">
<polygon fill="white" stroke="transparent" points="250,-1421 0,-1421 0,-430 250,-430 250,-1421"/>
<text text-anchor="start" x="103.5" y="-1408.5" font-family="Helvetica,sans-Serif" font-size="10.00">Attribute</text>
<text text-anchor="start" x="4" y="-1393.5" font-family="Helvetica,sans-Serif" font-size="10.00">+</text>
<text text-anchor="start" x="17" y="-1393.5" font-family="Helvetica,sans-Serif" font-size="10.00">virtual object TypeId</text>
<text text-anchor="start" x="4" y="-1378.5" font-family="Helvetica,sans-Serif" font-size="10.00">+</text>
<text text-anchor="start" x="17" y="-1378.5" font-family="Helvetica,sans-Serif" font-size="10.00">override bool Equals</text>
<text text-anchor="start" x="17" y="-1367.5" font-family="Helvetica,sans-Serif" font-size="10.00">(object obj)</text>
<text text-anchor="start" x="4" y="-1352.5" font-family="Helvetica,sans-Serif" font-size="10.00">+</text>
<text text-anchor="start" x="17" y="-1352.5" font-family="Helvetica,sans-Serif" font-size="10.00">override int GetHashCode()</text>
<text text-anchor="start" x="4" y="-1337.5" font-family="Helvetica,sans-Serif" font-size="10.00">+</text>
<text text-anchor="start" x="17" y="-1337.5" font-family="Helvetica,sans-Serif" font-size="10.00">virtual bool Match</text>
<text text-anchor="start" x="17" y="-1326.5" font-family="Helvetica,sans-Serif" font-size="10.00">(object obj)</text>
<text text-anchor="start" x="4" y="-1311.5" font-family="Helvetica,sans-Serif" font-size="10.00">+</text>
<text text-anchor="start" x="17" y="-1311.5" font-family="Helvetica,sans-Serif" font-size="10.00">virtual bool IsDefaultAttribute()</text>
<text text-anchor="start" x="4" y="-1296.5" font-family="Helvetica,sans-Serif" font-size="10.00">+</text>
<text text-anchor="start" x="17" y="-1296.5" font-family="Helvetica,sans-Serif" font-size="10.00">static global::System.Attribute</text>
<text text-anchor="start" x="17" y="-1285.5" font-family="Helvetica,sans-Serif" font-size="10.00">[] GetCustomAttributes(global</text>
<text text-anchor="start" x="17" y="-1274.5" font-family="Helvetica,sans-Serif" font-size="10.00">::System.Reflection.MemberInfo</text>
<text text-anchor="start" x="17" y="-1263.5" font-family="Helvetica,sans-Serif" font-size="10.00"> element, global::System.Type type)</text>
<text text-anchor="start" x="4" y="-1248.5" font-family="Helvetica,sans-Serif" font-size="10.00">+</text>
<text text-anchor="start" x="17" y="-1248.5" font-family="Helvetica,sans-Serif" font-size="10.00">static global::System.Attribute</text>
<text text-anchor="start" x="17" y="-1237.5" font-family="Helvetica,sans-Serif" font-size="10.00">[] GetCustomAttributes(global</text>
<text text-anchor="start" x="17" y="-1226.5" font-family="Helvetica,sans-Serif" font-size="10.00">::System.Reflection.MemberInfo</text>
<text text-anchor="start" x="17" y="-1215.5" font-family="Helvetica,sans-Serif" font-size="10.00"> element, global::System.Type type,</text>
<text text-anchor="start" x="17" y="-1204.5" font-family="Helvetica,sans-Serif" font-size="10.00"> bool inherit)</text>
<text text-anchor="start" x="4" y="-1189.5" font-family="Helvetica,sans-Serif" font-size="10.00">+</text>
<text text-anchor="start" x="17" y="-1189.5" font-family="Helvetica,sans-Serif" font-size="10.00">static global::System.Attribute</text>
<text text-anchor="start" x="17" y="-1178.5" font-family="Helvetica,sans-Serif" font-size="10.00">[] GetCustomAttributes(global</text>
<text text-anchor="start" x="17" y="-1167.5" font-family="Helvetica,sans-Serif" font-size="10.00">::System.Reflection.MemberInfo</text>
<text text-anchor="start" x="17" y="-1156.5" font-family="Helvetica,sans-Serif" font-size="10.00"> element, bool inherit)</text>
<text text-anchor="start" x="4" y="-1141.5" font-family="Helvetica,sans-Serif" font-size="10.00">+</text>
<text text-anchor="start" x="17" y="-1141.5" font-family="Helvetica,sans-Serif" font-size="10.00">static bool IsDefined</text>
<text text-anchor="start" x="17" y="-1130.5" font-family="Helvetica,sans-Serif" font-size="10.00">(global::System.Reflection.</text>
<text text-anchor="start" x="17" y="-1119.5" font-family="Helvetica,sans-Serif" font-size="10.00">MemberInfo element, global</text>
<text text-anchor="start" x="17" y="-1108.5" font-family="Helvetica,sans-Serif" font-size="10.00">::System.Type attributeType)</text>
<text text-anchor="start" x="4" y="-1093.5" font-family="Helvetica,sans-Serif" font-size="10.00">+</text>
<text text-anchor="start" x="17" y="-1093.5" font-family="Helvetica,sans-Serif" font-size="10.00">static bool IsDefined</text>
<text text-anchor="start" x="17" y="-1082.5" font-family="Helvetica,sans-Serif" font-size="10.00">(global::System.Reflection.</text>
<text text-anchor="start" x="17" y="-1071.5" font-family="Helvetica,sans-Serif" font-size="10.00">MemberInfo element, global</text>
<text text-anchor="start" x="17" y="-1060.5" font-family="Helvetica,sans-Serif" font-size="10.00">::System.Type attributeType,</text>
<text text-anchor="start" x="17" y="-1049.5" font-family="Helvetica,sans-Serif" font-size="10.00"> bool inherit)</text>
<text text-anchor="start" x="4" y="-1034.5" font-family="Helvetica,sans-Serif" font-size="10.00">+</text>
<text text-anchor="start" x="17" y="-1034.5" font-family="Helvetica,sans-Serif" font-size="10.00">static global::System.Attribute</text>
<text text-anchor="start" x="17" y="-1023.5" font-family="Helvetica,sans-Serif" font-size="10.00"> GetCustomAttribute(global</text>
<text text-anchor="start" x="17" y="-1012.5" font-family="Helvetica,sans-Serif" font-size="10.00">::System.Reflection.MemberInfo</text>
<text text-anchor="start" x="17" y="-1001.5" font-family="Helvetica,sans-Serif" font-size="10.00"> element, global::System.Type</text>
<text text-anchor="start" x="17" y="-990.5" font-family="Helvetica,sans-Serif" font-size="10.00"> attributeType, bool inherit)</text>
<text text-anchor="start" x="4" y="-975.5" font-family="Helvetica,sans-Serif" font-size="10.00">+</text>
<text text-anchor="start" x="17" y="-975.5" font-family="Helvetica,sans-Serif" font-size="10.00">static global::System.Attribute</text>
<text text-anchor="start" x="17" y="-964.5" font-family="Helvetica,sans-Serif" font-size="10.00">[] GetCustomAttributes(global</text>
<text text-anchor="start" x="17" y="-953.5" font-family="Helvetica,sans-Serif" font-size="10.00">::System.Reflection.ParameterInfo</text>
<text text-anchor="start" x="17" y="-942.5" font-family="Helvetica,sans-Serif" font-size="10.00"> element, global::System.Type attributeType,</text>
<text text-anchor="start" x="17" y="-931.5" font-family="Helvetica,sans-Serif" font-size="10.00"> bool inherit)</text>
<text text-anchor="start" x="4" y="-916.5" font-family="Helvetica,sans-Serif" font-size="10.00">+</text>
<text text-anchor="start" x="17" y="-916.5" font-family="Helvetica,sans-Serif" font-size="10.00">static global::System.Attribute</text>
<text text-anchor="start" x="17" y="-905.5" font-family="Helvetica,sans-Serif" font-size="10.00">[] GetCustomAttributes(global</text>
<text text-anchor="start" x="17" y="-894.5" font-family="Helvetica,sans-Serif" font-size="10.00">::System.Reflection.ParameterInfo</text>
<text text-anchor="start" x="17" y="-883.5" font-family="Helvetica,sans-Serif" font-size="10.00"> element, bool inherit)</text>
<text text-anchor="start" x="4" y="-868.5" font-family="Helvetica,sans-Serif" font-size="10.00">+</text>
<text text-anchor="start" x="17" y="-868.5" font-family="Helvetica,sans-Serif" font-size="10.00">static global::System.Attribute</text>
<text text-anchor="start" x="17" y="-857.5" font-family="Helvetica,sans-Serif" font-size="10.00">[] GetCustomAttributes(global</text>
<text text-anchor="start" x="17" y="-846.5" font-family="Helvetica,sans-Serif" font-size="10.00">::System.Reflection.Module element,</text>
<text text-anchor="start" x="17" y="-835.5" font-family="Helvetica,sans-Serif" font-size="10.00"> bool inherit)</text>
<text text-anchor="start" x="4" y="-820.5" font-family="Helvetica,sans-Serif" font-size="10.00">+</text>
<text text-anchor="start" x="17" y="-820.5" font-family="Helvetica,sans-Serif" font-size="10.00">static global::System.Attribute</text>
<text text-anchor="start" x="17" y="-809.5" font-family="Helvetica,sans-Serif" font-size="10.00">[] GetCustomAttributes(global</text>
<text text-anchor="start" x="17" y="-798.5" font-family="Helvetica,sans-Serif" font-size="10.00">::System.Reflection.Module element,</text>
<text text-anchor="start" x="17" y="-787.5" font-family="Helvetica,sans-Serif" font-size="10.00"> global::System.Type attributeType,</text>
<text text-anchor="start" x="17" y="-776.5" font-family="Helvetica,sans-Serif" font-size="10.00"> bool inherit)</text>
<text text-anchor="start" x="17" y="-761.5" font-family="Helvetica,sans-Serif" font-size="10.00">and 6 more...</text>
<text text-anchor="start" x="4" y="-746.5" font-family="Helvetica,sans-Serif" font-size="10.00">#</text>
<text text-anchor="start" x="17" y="-746.5" font-family="Helvetica,sans-Serif" font-size="10.00">Attribute()</text>
<text text-anchor="start" x="6.5" y="-731.5" font-family="Helvetica,sans-Serif" font-size="10.00">&#45;</text>
<text text-anchor="start" x="17" y="-731.5" font-family="Helvetica,sans-Serif" font-size="10.00">static global::System.Attribute</text>
<text text-anchor="start" x="17" y="-720.5" font-family="Helvetica,sans-Serif" font-size="10.00">[] InternalGetCustomAttributes</text>
<text text-anchor="start" x="17" y="-709.5" font-family="Helvetica,sans-Serif" font-size="10.00">(global::System.Reflection.PropertyInfo</text>
<text text-anchor="start" x="17" y="-698.5" font-family="Helvetica,sans-Serif" font-size="10.00"> element, global::System.Type type,</text>
<text text-anchor="start" x="17" y="-687.5" font-family="Helvetica,sans-Serif" font-size="10.00"> bool inherit)</text>
<text text-anchor="start" x="6.5" y="-672.5" font-family="Helvetica,sans-Serif" font-size="10.00">&#45;</text>
<text text-anchor="start" x="17" y="-672.5" font-family="Helvetica,sans-Serif" font-size="10.00">static global::System.Attribute</text>
<text text-anchor="start" x="17" y="-661.5" font-family="Helvetica,sans-Serif" font-size="10.00">[] InternalGetCustomAttributes</text>
<text text-anchor="start" x="17" y="-650.5" font-family="Helvetica,sans-Serif" font-size="10.00">(global::System.Reflection.EventInfo</text>
<text text-anchor="start" x="17" y="-639.5" font-family="Helvetica,sans-Serif" font-size="10.00"> element, global::System.Type type,</text>
<text text-anchor="start" x="17" y="-628.5" font-family="Helvetica,sans-Serif" font-size="10.00"> bool inherit)</text>
<text text-anchor="start" x="6.5" y="-613.5" font-family="Helvetica,sans-Serif" font-size="10.00">&#45;</text>
<text text-anchor="start" x="17" y="-613.5" font-family="Helvetica,sans-Serif" font-size="10.00">static global::System.Attribute</text>
<text text-anchor="start" x="17" y="-602.5" font-family="Helvetica,sans-Serif" font-size="10.00">[] InternalParamGetCustomAttributes</text>
<text text-anchor="start" x="17" y="-591.5" font-family="Helvetica,sans-Serif" font-size="10.00">(global::System.Reflection.ParameterInfo</text>
<text text-anchor="start" x="17" y="-580.5" font-family="Helvetica,sans-Serif" font-size="10.00"> parameter, global::System.Type attributeType,</text>
<text text-anchor="start" x="17" y="-569.5" font-family="Helvetica,sans-Serif" font-size="10.00"> bool inherit)</text>
<text text-anchor="start" x="6.5" y="-554.5" font-family="Helvetica,sans-Serif" font-size="10.00">&#45;</text>
<text text-anchor="start" x="17" y="-554.5" font-family="Helvetica,sans-Serif" font-size="10.00">static bool InternalIsDefined</text>
<text text-anchor="start" x="17" y="-543.5" font-family="Helvetica,sans-Serif" font-size="10.00">(global::System.Reflection.Property</text>
<text text-anchor="start" x="17" y="-532.5" font-family="Helvetica,sans-Serif" font-size="10.00">Info element, global::System.Type</text>
<text text-anchor="start" x="17" y="-521.5" font-family="Helvetica,sans-Serif" font-size="10.00"> attributeType, bool inherit)</text>
<text text-anchor="start" x="6.5" y="-506.5" font-family="Helvetica,sans-Serif" font-size="10.00">&#45;</text>
<text text-anchor="start" x="17" y="-506.5" font-family="Helvetica,sans-Serif" font-size="10.00">static bool InternalIsDefined</text>
<text text-anchor="start" x="17" y="-495.5" font-family="Helvetica,sans-Serif" font-size="10.00">(global::System.Reflection.Event</text>
<text text-anchor="start" x="17" y="-484.5" font-family="Helvetica,sans-Serif" font-size="10.00">Info element, global::System.Type</text>
<text text-anchor="start" x="17" y="-473.5" font-family="Helvetica,sans-Serif" font-size="10.00"> attributeType, bool inherit)</text>
<text text-anchor="start" x="6.5" y="-458.5" font-family="Helvetica,sans-Serif" font-size="10.00">&#45;</text>
<text text-anchor="start" x="17" y="-458.5" font-family="Helvetica,sans-Serif" font-size="10.00">static bool AreFieldValues</text>
<text text-anchor="start" x="17" y="-447.5" font-family="Helvetica,sans-Serif" font-size="10.00">Equal(object thisValue,</text>
<text text-anchor="start" x="17" y="-436.5" font-family="Helvetica,sans-Serif" font-size="10.00"> object thatValue)</text>
<polygon fill="#666666" stroke="#666666" points="0,-1403.5 0,-1403.5 250,-1403.5 250,-1403.5 0,-1403.5"/>
<polygon fill="#666666" stroke="#666666" points="0,-1388.5 0,-1388.5 15,-1388.5 15,-1388.5 0,-1388.5"/>
<polygon fill="#666666" stroke="#666666" points="15,-1388.5 15,-1388.5 250,-1388.5 250,-1388.5 15,-1388.5"/>
<polygon fill="none" stroke="#666666" points="0,-430 0,-1421 250,-1421 250,-430 0,-430"/>
</a>
</g>
</g>
<!-- Node2&#45;&gt;Node1 -->
<g id="edge1_Node000001_Node000002" class="edge">
<title>Node2&#45;&gt;Node1</title>
<g id="a_edge1_Node000001_Node000002"><a xlink:title=" ">
<path fill="none" stroke="#63b8ff" d="M52.44,-419.49C55.4,-353.5 64.85,-287.5 84,-226 91.53,-201.81 104.6,-178.09 118.88,-157.01"/>
<polygon fill="none" stroke="#63b8ff" points="48.94,-419.52 52.04,-429.65 55.93,-419.79 48.94,-419.52"/>
</a>
</g>
</g>
<!-- Node3 -->
<g id="Node000003" class="node">
<title>Node3</title>
<g id="a_Node000003"><a xlink:href="../../da/d17/classSystem_1_1ComponentModel_1_1DataObjectAttribute.html" target="_top" xlink:title=" ">
<polygon fill="white" stroke="transparent" points="277,-383 93,-383 93,-226 277,-226 277,-383"/>
<text text-anchor="start" x="108.5" y="-370.5" font-family="Helvetica,sans-Serif" font-size="10.00">System.ComponentModel.Data</text>
<text text-anchor="start" x="147.5" y="-359.5" font-family="Helvetica,sans-Serif" font-size="10.00">ObjectAttribute</text>
<text text-anchor="start" x="97" y="-344.5" font-family="Helvetica,sans-Serif" font-size="10.00">+</text>
<text text-anchor="start" x="110" y="-344.5" font-family="Helvetica,sans-Serif" font-size="10.00">bool IsDataObject</text>
<text text-anchor="start" x="97" y="-329.5" font-family="Helvetica,sans-Serif" font-size="10.00">+</text>
<text text-anchor="start" x="110" y="-329.5" font-family="Helvetica,sans-Serif" font-size="10.00">DataObjectAttribute()</text>
<text text-anchor="start" x="97" y="-314.5" font-family="Helvetica,sans-Serif" font-size="10.00">+</text>
<text text-anchor="start" x="110" y="-314.5" font-family="Helvetica,sans-Serif" font-size="10.00">DataObjectAttribute</text>
<text text-anchor="start" x="110" y="-303.5" font-family="Helvetica,sans-Serif" font-size="10.00">(bool isDataObject)</text>
<text text-anchor="start" x="97" y="-288.5" font-family="Helvetica,sans-Serif" font-size="10.00">+</text>
<text text-anchor="start" x="110" y="-288.5" font-family="Helvetica,sans-Serif" font-size="10.00">override bool Equals</text>
<text text-anchor="start" x="110" y="-277.5" font-family="Helvetica,sans-Serif" font-size="10.00">(object obj)</text>
<text text-anchor="start" x="97" y="-262.5" font-family="Helvetica,sans-Serif" font-size="10.00">+</text>
<text text-anchor="start" x="110" y="-262.5" font-family="Helvetica,sans-Serif" font-size="10.00">override int GetHashCode()</text>
<text text-anchor="start" x="97" y="-247.5" font-family="Helvetica,sans-Serif" font-size="10.00">+</text>
<text text-anchor="start" x="110" y="-247.5" font-family="Helvetica,sans-Serif" font-size="10.00">override bool IsDefaultAttribute()</text>
<text text-anchor="start" x="99.5" y="-232.5" font-family="Helvetica,sans-Serif" font-size="10.00">&#45;</text>
<text text-anchor="start" x="110" y="-232.5" font-family="Helvetica,sans-Serif" font-size="10.00">static DataObjectAttribute()</text>
<polygon fill="#666666" stroke="#666666" points="93,-354.5 93,-354.5 277,-354.5 277,-354.5 93,-354.5"/>
<polygon fill="#666666" stroke="#666666" points="93,-339.5 93,-339.5 108,-339.5 108,-339.5 93,-339.5"/>
<polygon fill="#666666" stroke="#666666" points="108,-339.5 108,-339.5 277,-339.5 277,-339.5 108,-339.5"/>
<polygon fill="none" stroke="#666666" points="93,-226 93,-383 277,-383 277,-226 93,-226"/>
</a>
</g>
</g>
<!-- Node2&#45;&gt;Node3 -->
<g id="edge3_Node000003_Node000002" class="edge">
<title>Node2&#45;&gt;Node3</title>
<g id="a_edge3_Node000003_Node000002"><a xlink:title=" ">
<path fill="none" stroke="#63b8ff" d="M173.95,-419.55C175.21,-406.54 176.39,-394.31 177.48,-383.04"/>
<polygon fill="none" stroke="#63b8ff" points="170.45,-419.36 172.97,-429.65 177.41,-420.03 170.45,-419.36"/>
</a>
</g>
</g>
<!-- Node3&#45;&gt;Node1 -->
<g id="edge2_Node000001_Node000003" class="edge">
<title>Node3&#45;&gt;Node1</title>
<g id="a_edge2_Node000001_Node000003"><a xlink:title=" ">
<path fill="none" stroke="#63b8ff" d="M185,-225.78C185,-207.54 185,-187.95 185,-169.23"/>
<polygon fill="none" stroke="#63b8ff" points="185,-169.08 181,-163.08 185,-157.08 189,-163.08 185,-169.08"/>
</a>
</g>
<text text-anchor="middle" x="226.5" y="-200" font-family="Helvetica,sans-Serif" font-size="10.00" fill="grey"> +DataObject</text>
<text text-anchor="middle" x="226.5" y="-189" font-family="Helvetica,sans-Serif" font-size="10.00" fill="grey">+Default</text>
<text text-anchor="middle" x="226.5" y="-178" font-family="Helvetica,sans-Serif" font-size="10.00" fill="grey">+NonDataObject</text>
</g>
<!-- Node3&#45;&gt;Node3 -->
<g id="edge4_Node000003_Node000003" class="edge">
<title>Node3&#45;&gt;Node3</title>
<g id="a_edge4_Node000003_Node000003"><a xlink:title=" ">
<path fill="none" stroke="#63b8ff" d="M277.28,-320.82C288.02,-317.81 295,-312.37 295,-304.5 295,-299.83 292.54,-296.01 288.29,-293.05"/>
<polygon fill="none" stroke="#63b8ff" points="288.25,-293.04 281.15,-294.26 277.28,-288.18 284.39,-286.95 288.25,-293.04"/>
</a>
</g>
<text text-anchor="middle" x="336.5" y="-313" font-family="Helvetica,sans-Serif" font-size="10.00" fill="grey"> +DataObject</text>
<text text-anchor="middle" x="336.5" y="-302" font-family="Helvetica,sans-Serif" font-size="10.00" fill="grey">+Default</text>
<text text-anchor="middle" x="336.5" y="-291" font-family="Helvetica,sans-Serif" font-size="10.00" fill="grey">+NonDataObject</text>
</g>
<!-- Node4 -->
<g id="Node000004" class="node">
<title>Node4</title>
<g id="a_Node000004"><a xlink:title=" ">
<polygon fill="white" stroke="transparent" points="429.5,-950 312.5,-950 312.5,-901 429.5,-901 429.5,-950"/>
<text text-anchor="start" x="318" y="-937.5" font-family="Helvetica,sans-Serif" font-size="10.00">bool&lt; IsDataObject &gt;</text>
<text text-anchor="start" x="369.5" y="-922.5" font-family="Helvetica,sans-Serif" font-size="10.00"> </text>
<text text-anchor="start" x="369.5" y="-907.5" font-family="Helvetica,sans-Serif" font-size="10.00"> </text>
<polygon fill="#666666" stroke="#666666" points="313,-932.5 313,-932.5 430,-932.5 430,-932.5 313,-932.5"/>
<polygon fill="#666666" stroke="#666666" points="313,-917.5 313,-917.5 430,-917.5 430,-917.5 313,-917.5"/>
<polygon fill="none" stroke="#666666" points="312.5,-901 312.5,-950 429.5,-950 429.5,-901 312.5,-901"/>
</a>
</g>
</g>
<!-- Node4&#45;&gt;Node1 -->
<g id="edge7_Node000001_Node000004" class="edge">
<title>Node4&#45;&gt;Node1</title>
<g id="a_edge7_Node000001_Node000004"><a xlink:title=" ">
<path fill="none" stroke="#63b8ff" d="M379.16,-900.73C409.51,-807.94 508.11,-463.45 387,-226 365.59,-184.02 325.9,-151.27 287.33,-127.47"/>
<polygon fill="none" stroke="#63b8ff" points="287.33,-127.47 280.13,-127.83 277.04,-121.31 284.24,-120.96 287.33,-127.47"/>
</a>
</g>
<text text-anchor="middle" x="477" y="-302" font-family="Helvetica,sans-Serif" font-size="10.00" fill="grey"> &#45;k__BackingField</text>
</g>
<!-- Node4&#45;&gt;Node3 -->
<g id="edge5_Node000003_Node000004" class="edge">
<title>Node4&#45;&gt;Node3</title>
<g id="a_edge5_Node000003_Node000004"><a xlink:title=" ">
<path fill="none" stroke="#63b8ff" d="M368.31,-900.8C359.5,-828.18 328.05,-603.13 259,-430 254.22,-418.02 248.39,-405.84 242.11,-394.03"/>
<polygon fill="none" stroke="#63b8ff" points="242,-393.82 235.61,-390.48 236.24,-383.29 242.63,-386.64 242,-393.82"/>
</a>
</g>
<text text-anchor="middle" x="294" y="-404" font-family="Helvetica,sans-Serif" font-size="10.00" fill="grey"> &#45;k__BackingField</text>
</g>
<!-- Node5 -->
<g id="Node000005" class="node">
<title>Node5</title>
<g id="a_Node000005"><a xlink:title=" ">
<polygon fill="white" stroke="transparent" points="387,-1517 355,-1517 355,-1468 387,-1468 387,-1517"/>
<text text-anchor="start" x="360" y="-1504.5" font-family="Helvetica,sans-Serif" font-size="10.00">bool</text>
<text text-anchor="start" x="369" y="-1489.5" font-family="Helvetica,sans-Serif" font-size="10.00"> </text>
<text text-anchor="start" x="369" y="-1474.5" font-family="Helvetica,sans-Serif" font-size="10.00"> </text>
<polygon fill="#666666" stroke="#666666" points="355,-1499.5 355,-1499.5 387,-1499.5 387,-1499.5 355,-1499.5"/>
<polygon fill="#666666" stroke="#666666" points="355,-1484.5 355,-1484.5 387,-1484.5 387,-1484.5 355,-1484.5"/>
<polygon fill="none" stroke="#666666" points="355,-1468 355,-1517 387,-1517 387,-1468 355,-1468"/>
</a>
</g>
</g>
<!-- Node5&#45;&gt;Node4 -->
<g id="edge6_Node000004_Node000005" class="edge">
<title>Node5&#45;&gt;Node4</title>
<g id="a_edge6_Node000004_Node000005"><a xlink:title=" ">
<path fill="none" stroke="orange" d="M371,-1457.69C371,-1353.51 371,-1039.08 371,-950.16"/>
<polygon fill="orange" stroke="orange" points="367.5,-1457.94 371,-1467.94 374.5,-1457.94 367.5,-1457.94"/>
</a>
</g>
<text text-anchor="middle" x="415.5" y="-1442" font-family="Helvetica,sans-Serif" font-size="10.00" fill="grey"> &lt; IsDataObject &gt;</text>
</g>
</g>
</svg>
