<?xml version="1.0" encoding="UTF-8" standalone="no"?>
<!DOCTYPE svg PUBLIC "-//W3C//DTD SVG 1.1//EN"
 "http://www.w3.org/Graphics/SVG/1.1/DTD/svg11.dtd">
<!-- Generated by graphviz version 2.43.0 (0)
 -->
<!-- Title: Microsoft.Xna.Framework.Graphics.SpriteFont.CharComparer Pages: 1 -->
<svg width="187pt" height="216pt"
 viewBox="0.00 0.00 187.00 216.00" xmlns="http://www.w3.org/2000/svg" xmlns:xlink="http://www.w3.org/1999/xlink">
<g id="graph0" class="graph" transform="scale(1 1) rotate(0) translate(4 212)">
<title>Microsoft.Xna.Framework.Graphics.SpriteFont.CharComparer</title>
<!-- Node1 -->
<g id="Node000001" class="node">
<title>Node1</title>
<g id="a_Node000001"><a xlink:title=" ">
<polygon fill="#999999" stroke="transparent" points="179,-112 0,-112 0,0 179,0 179,-112"/>
<text text-anchor="start" x="5.5" y="-100" font-family="Helvetica,sans-Serif" font-size="10.00">Microsoft.Xna.Framework.</text>
<text text-anchor="start" x="5.5" y="-89" font-family="Helvetica,sans-Serif" font-size="10.00">Graphics.SpriteFont.CharComparer</text>
<text text-anchor="start" x="7" y="-74" font-family="Helvetica,sans-Serif" font-size="10.00">+</text>
<text text-anchor="start" x="22.5" y="-74" font-family="Helvetica,sans-Serif" font-size="10.00">static readonly CharComparer</text>
<text text-anchor="start" x="22.5" y="-63" font-family="Helvetica,sans-Serif" font-size="10.00"> Default</text>
<text text-anchor="start" x="7" y="-48" font-family="Helvetica,sans-Serif" font-size="10.00">+</text>
<text text-anchor="start" x="22.5" y="-48" font-family="Helvetica,sans-Serif" font-size="10.00">bool Equals(char x,</text>
<text text-anchor="start" x="22.5" y="-37" font-family="Helvetica,sans-Serif" font-size="10.00"> char y)</text>
<text text-anchor="start" x="7" y="-22" font-family="Helvetica,sans-Serif" font-size="10.00">+</text>
<text text-anchor="start" x="22.5" y="-22" font-family="Helvetica,sans-Serif" font-size="10.00">int GetHashCode(char b)</text>
<text text-anchor="start" x="7" y="-7" font-family="Helvetica,sans-Serif" font-size="10.00">+</text>
<text text-anchor="start" x="22.5" y="-7" font-family="Helvetica,sans-Serif" font-size="10.00">CharComparer()</text>
<polygon fill="#666666" stroke="#666666" points="0.5,-84 0.5,-84 179.5,-84 179.5,-84 0.5,-84"/>
<polygon fill="#666666" stroke="#666666" points="0.5,-58 0.5,-58 20.5,-58 20.5,-58 0.5,-58"/>
<polygon fill="#666666" stroke="#666666" points="20.5,-58 20.5,-58 179.5,-58 179.5,-58 20.5,-58"/>
<polygon fill="none" stroke="#666666" points="0,0 0,-112 179,-112 179,0 0,0"/>
</a>
</g>
</g>
<!-- Node2 -->
<g id="Node000002" class="node">
<title>Node2</title>
<g id="a_Node000002"><a xlink:href="../../d1/db5/classIEqualityComparer.html" target="_top" xlink:title=" ">
<polygon fill="white" stroke="transparent" points="144.5,-208 34.5,-208 34.5,-148 144.5,-148 144.5,-208"/>
<text text-anchor="start" x="39.5" y="-196" font-family="Helvetica,sans-Serif" font-size="10.00">IEqualityComparer&lt;</text>
<text text-anchor="start" x="71.5" y="-185" font-family="Helvetica,sans-Serif" font-size="10.00"> char &gt;</text>
<text text-anchor="start" x="87.5" y="-170" font-family="Helvetica,sans-Serif" font-size="10.00"> </text>
<text text-anchor="start" x="87.5" y="-155" font-family="Helvetica,sans-Serif" font-size="10.00"> </text>
<polygon fill="#666666" stroke="#666666" points="34.5,-180 34.5,-180 144.5,-180 144.5,-180 34.5,-180"/>
<polygon fill="#666666" stroke="#666666" points="34.5,-165 34.5,-165 144.5,-165 144.5,-165 34.5,-165"/>
<polygon fill="none" stroke="#666666" points="34.5,-148 34.5,-208 144.5,-208 144.5,-148 34.5,-148"/>
</a>
</g>
</g>
<!-- Node2&#45;&gt;Node1 -->
<g id="edge1_Node000001_Node000002" class="edge">
<title>Node2&#45;&gt;Node1</title>
<g id="a_edge1_Node000001_Node000002"><a xlink:title=" ">
<path fill="none" stroke="#63b8ff" d="M89.5,-137.88C89.5,-129.63 89.5,-120.78 89.5,-112.07"/>
<polygon fill="none" stroke="#63b8ff" points="86,-137.95 89.5,-147.95 93,-137.95 86,-137.95"/>
</a>
</g>
</g>
</g>
</svg>
