<?xml version="1.0" encoding="UTF-8" standalone="no"?>
<!DOCTYPE svg PUBLIC "-//W3C//DTD SVG 1.1//EN"
 "http://www.w3.org/Graphics/SVG/1.1/DTD/svg11.dtd">
<!-- Generated by graphviz version 2.43.0 (0)
 -->
<!-- Title: System.Threading.ManualResetEvent Pages: 1 -->
<!--zoomable 1332 -->

<svg id="main" version="1.1" xmlns="http://www.w3.org/2000/svg" xmlns:xlink="http://www.w3.org/1999/xlink" xml:space="preserve" onload="init(evt)">
<style type="text/css"><![CDATA[
.node, .edge {opacity: 0.7;}
.node.selected, .edge.selected {opacity: 1;}
.edge:hover path { stroke: red; }
.edge:hover polygon { stroke: red; fill: red; }
]]></style>

<defs>
  <circle id="rim" cx="0" cy="0" r="7"/>
  <circle id="rim2" cx="0" cy="0" r="3.5"/>
  <g id="zoomPlus">
    <use xlink:href="#rim" fill="#404040"><set attributeName="fill" to="#808080" begin="zoomplus.mouseover" end="zoomplus.mouseout"/></use>
    <path d="M-4,0h8M0,-4v8" fill="none" stroke="white" stroke-width="1.5" pointer-events="none"/>
  </g>
  <g id="zoomMin">
    <use xlink:href="#rim" fill="#404040"><set attributeName="fill" to="#808080" begin="zoomminus.mouseover" end="zoomminus.mouseout"/></use>
    <path d="M-4,0h8" fill="none" stroke="white" stroke-width="1.5" pointer-events="none"/>
  </g>
  <g id="arrowUp" transform="translate(30 24)">
    <use xlink:href="#rim"/>
    <path pointer-events="none" fill="none" stroke="white" stroke-width="1.5" d="M0,-3.0v7 M-2.5,-0.5L0,-3.0L2.5,-0.5"/>
  </g>
  <g id="arrowRight" transform="rotate(90) translate(36 -43)">
    <use xlink:href="#rim"/>
    <path pointer-events="none" fill="none" stroke="white" stroke-width="1.5" d="M0,-3.0v7 M-2.5,-0.5L0,-3.0L2.5,-0.5"/>
  </g>
  <g id="arrowDown" transform="rotate(180) translate(-30 -48)">
    <use xlink:href="#rim"/>
    <path pointer-events="none" fill="none" stroke="white" stroke-width="1.5" d="M0,-3.0v7 M-2.5,-0.5L0,-3.0L2.5,-0.5"/>
  </g>
  <g id="arrowLeft" transform="rotate(270) translate(-36 17)">
    <use xlink:href="#rim"/>
    <path pointer-events="none" fill="none" stroke="white" stroke-width="1.5" d="M0,-3.0v7 M-2.5,-0.5L0,-3.0L2.5,-0.5"/>
  </g>
  <g id="resetDef">
    <use xlink:href="#rim2" fill="#404040"><set attributeName="fill" to="#808080" begin="reset.mouseover" end="reset.mouseout"/></use>
  </g>
</defs>
<script type="application/ecmascript">
var viewWidth = 318;
var viewHeight = 1332;
var sectionId = 'dynsection-0';
</script>
<script type="application/ecmascript" xlink:href="../../svg.min.js"/>
<svg id="graph" class="graph">
<g id="viewport">
<title>System.Threading.ManualResetEvent</title>
<!-- Node1 -->
<g id="Node000001" class="node">
<title>Node1</title>
<g id="a_Node000001"><a xlink:title=" ">
<polygon fill="#999999" stroke="transparent" points="241,-71 75,-71 75,0 241,0 241,-71"/>
<text text-anchor="start" x="80" y="-58.5" font-family="Helvetica,sans-Serif" font-size="10.00">System.Threading.ManualReset</text>
<text text-anchor="start" x="144" y="-47.5" font-family="Helvetica,sans-Serif" font-size="10.00">Event</text>
<text text-anchor="start" x="156" y="-32.5" font-family="Helvetica,sans-Serif" font-size="10.00"> </text>
<text text-anchor="start" x="86" y="-17.5" font-family="Helvetica,sans-Serif" font-size="10.00">+</text>
<text text-anchor="start" x="106" y="-17.5" font-family="Helvetica,sans-Serif" font-size="10.00">ManualResetEvent(bool</text>
<text text-anchor="start" x="106" y="-6.5" font-family="Helvetica,sans-Serif" font-size="10.00"> initialState)</text>
<polygon fill="#666666" stroke="#666666" points="75,-42.5 75,-42.5 241,-42.5 241,-42.5 75,-42.5"/>
<polygon fill="#666666" stroke="#666666" points="75,-27.5 75,-27.5 241,-27.5 241,-27.5 75,-27.5"/>
<polygon fill="none" stroke="#666666" points="75,0 75,-71 241,-71 241,0 75,0"/>
</a>
</g>
</g>
<!-- Node2 -->
<g id="Node000002" class="node">
<title>Node2</title>
<g id="a_Node000002"><a xlink:href="../../d7/d8c/classSystem_1_1Threading_1_1EventWaitHandle.html" target="_top" xlink:title=" ">
<polygon fill="white" stroke="transparent" points="258.5,-234 57.5,-234 57.5,-107 258.5,-107 258.5,-234"/>
<text text-anchor="start" x="116" y="-221.5" font-family="Helvetica,sans-Serif" font-size="10.00">EventWaitHandle</text>
<text text-anchor="start" x="156.5" y="-206.5" font-family="Helvetica,sans-Serif" font-size="10.00"> </text>
<text text-anchor="start" x="62" y="-191.5" font-family="Helvetica,sans-Serif" font-size="10.00">+</text>
<text text-anchor="start" x="75" y="-191.5" font-family="Helvetica,sans-Serif" font-size="10.00">EventWaitHandle(bool</text>
<text text-anchor="start" x="75" y="-180.5" font-family="Helvetica,sans-Serif" font-size="10.00"> initialState, EventResetMode mode)</text>
<text text-anchor="start" x="62" y="-165.5" font-family="Helvetica,sans-Serif" font-size="10.00">+</text>
<text text-anchor="start" x="75" y="-165.5" font-family="Helvetica,sans-Serif" font-size="10.00">EventWaitHandle(bool</text>
<text text-anchor="start" x="75" y="-154.5" font-family="Helvetica,sans-Serif" font-size="10.00"> initialState, EventResetMode</text>
<text text-anchor="start" x="75" y="-143.5" font-family="Helvetica,sans-Serif" font-size="10.00"> mode, string name)</text>
<text text-anchor="start" x="62" y="-128.5" font-family="Helvetica,sans-Serif" font-size="10.00">+</text>
<text text-anchor="start" x="75" y="-128.5" font-family="Helvetica,sans-Serif" font-size="10.00">bool Reset()</text>
<text text-anchor="start" x="62" y="-113.5" font-family="Helvetica,sans-Serif" font-size="10.00">+</text>
<text text-anchor="start" x="75" y="-113.5" font-family="Helvetica,sans-Serif" font-size="10.00">bool Set()</text>
<polygon fill="#666666" stroke="#666666" points="58,-216.5 58,-216.5 259,-216.5 259,-216.5 58,-216.5"/>
<polygon fill="#666666" stroke="#666666" points="58,-201.5 58,-201.5 259,-201.5 259,-201.5 58,-201.5"/>
<polygon fill="none" stroke="#666666" points="57.5,-107 57.5,-234 258.5,-234 258.5,-107 57.5,-107"/>
</a>
</g>
</g>
<!-- Node2&#45;&gt;Node1 -->
<g id="edge1_Node000001_Node000002" class="edge">
<title>Node2&#45;&gt;Node1</title>
<g id="a_edge1_Node000001_Node000002"><a xlink:title=" ">
<path fill="none" stroke="#63b8ff" d="M158,-96.83C158,-87.94 158,-79.2 158,-71.25"/>
<polygon fill="none" stroke="#63b8ff" points="154.5,-96.89 158,-106.89 161.5,-96.89 154.5,-96.89"/>
</a>
</g>
</g>
<!-- Node3 -->
<g id="Node000003" class="node">
<title>Node3</title>
<g id="a_Node000003"><a xlink:href="../../db/d04/classSystem_1_1Threading_1_1WaitHandle.html" target="_top" xlink:title=" ">
<polygon fill="white" stroke="transparent" points="293,-1228 23,-1228 23,-270 293,-270 293,-1228"/>
<text text-anchor="start" x="129.5" y="-1216" font-family="Helvetica,sans-Serif" font-size="10.00">WaitHandle</text>
<text text-anchor="start" x="27" y="-1201" font-family="Helvetica,sans-Serif" font-size="10.00">+</text>
<text text-anchor="start" x="40" y="-1201" font-family="Helvetica,sans-Serif" font-size="10.00">const int WaitTimeout</text>
<text text-anchor="start" x="27" y="-1186" font-family="Helvetica,sans-Serif" font-size="10.00">+</text>
<text text-anchor="start" x="40" y="-1186" font-family="Helvetica,sans-Serif" font-size="10.00">virtual global::System.Int</text>
<text text-anchor="start" x="40" y="-1175" font-family="Helvetica,sans-Serif" font-size="10.00">Ptr Handle</text>
<text text-anchor="start" x="27" y="-1160" font-family="Helvetica,sans-Serif" font-size="10.00">+</text>
<text text-anchor="start" x="40" y="-1160" font-family="Helvetica,sans-Serif" font-size="10.00">Microsoft.Win32.SafeHandles.</text>
<text text-anchor="start" x="40" y="-1149" font-family="Helvetica,sans-Serif" font-size="10.00">SafeWaitHandle SafeWaitHandle</text>
<text text-anchor="start" x="27" y="-1134" font-family="Helvetica,sans-Serif" font-size="10.00">~</text>
<text text-anchor="start" x="40" y="-1134" font-family="Helvetica,sans-Serif" font-size="10.00">Microsoft.Win32.SafeHandles.</text>
<text text-anchor="start" x="40" y="-1123" font-family="Helvetica,sans-Serif" font-size="10.00">SafeWaitHandle safeWaitHandle</text>
<text text-anchor="start" x="27" y="-1108" font-family="Helvetica,sans-Serif" font-size="10.00">~</text>
<text text-anchor="start" x="40" y="-1108" font-family="Helvetica,sans-Serif" font-size="10.00">bool hasThreadAffinity</text>
<text text-anchor="start" x="27" y="-1093" font-family="Helvetica,sans-Serif" font-size="10.00">~</text>
<text text-anchor="start" x="40" y="-1093" font-family="Helvetica,sans-Serif" font-size="10.00">const int MaxWaitHandles</text>
<text text-anchor="start" x="27" y="-1078" font-family="Helvetica,sans-Serif" font-size="10.00">#</text>
<text text-anchor="start" x="40" y="-1078" font-family="Helvetica,sans-Serif" font-size="10.00">static readonly global</text>
<text text-anchor="start" x="40" y="-1067" font-family="Helvetica,sans-Serif" font-size="10.00">::System.IntPtr InvalidHandle</text>
<text text-anchor="start" x="29.5" y="-1052" font-family="Helvetica,sans-Serif" font-size="10.00">&#45;</text>
<text text-anchor="start" x="40" y="-1052" font-family="Helvetica,sans-Serif" font-size="10.00">global::System.IntPtr</text>
<text text-anchor="start" x="40" y="-1041" font-family="Helvetica,sans-Serif" font-size="10.00"> waitHandle</text>
<text text-anchor="start" x="29.5" y="-1026" font-family="Helvetica,sans-Serif" font-size="10.00">&#45;</text>
<text text-anchor="start" x="40" y="-1026" font-family="Helvetica,sans-Serif" font-size="10.00">const int MAX_WAITHANDLES</text>
<text text-anchor="start" x="29.5" y="-1011" font-family="Helvetica,sans-Serif" font-size="10.00">&#45;</text>
<text text-anchor="start" x="40" y="-1011" font-family="Helvetica,sans-Serif" font-size="10.00">const int WAIT_OBJECT_0</text>
<text text-anchor="start" x="29.5" y="-996" font-family="Helvetica,sans-Serif" font-size="10.00">&#45;</text>
<text text-anchor="start" x="40" y="-996" font-family="Helvetica,sans-Serif" font-size="10.00">const int WAIT_ABANDONED</text>
<text text-anchor="start" x="29.5" y="-981" font-family="Helvetica,sans-Serif" font-size="10.00">&#45;</text>
<text text-anchor="start" x="40" y="-981" font-family="Helvetica,sans-Serif" font-size="10.00">const int WAIT_FAILED</text>
<text text-anchor="start" x="29.5" y="-966" font-family="Helvetica,sans-Serif" font-size="10.00">&#45;</text>
<text text-anchor="start" x="40" y="-966" font-family="Helvetica,sans-Serif" font-size="10.00">const int ERROR_TOO</text>
<text text-anchor="start" x="40" y="-955" font-family="Helvetica,sans-Serif" font-size="10.00">_MANY_POSTS</text>
<text text-anchor="start" x="29.5" y="-940" font-family="Helvetica,sans-Serif" font-size="10.00">&#45;</text>
<text text-anchor="start" x="40" y="-940" font-family="Helvetica,sans-Serif" font-size="10.00">const int ERROR_NOT</text>
<text text-anchor="start" x="40" y="-929" font-family="Helvetica,sans-Serif" font-size="10.00">_OWNED_BY_CALLER</text>
<text text-anchor="start" x="27" y="-914" font-family="Helvetica,sans-Serif" font-size="10.00">+</text>
<text text-anchor="start" x="40" y="-914" font-family="Helvetica,sans-Serif" font-size="10.00">virtual bool WaitOne</text>
<text text-anchor="start" x="40" y="-903" font-family="Helvetica,sans-Serif" font-size="10.00">(int millisecondsTimeout,</text>
<text text-anchor="start" x="40" y="-892" font-family="Helvetica,sans-Serif" font-size="10.00"> bool exitContext)</text>
<text text-anchor="start" x="27" y="-877" font-family="Helvetica,sans-Serif" font-size="10.00">+</text>
<text text-anchor="start" x="40" y="-877" font-family="Helvetica,sans-Serif" font-size="10.00">virtual bool WaitOne()</text>
<text text-anchor="start" x="27" y="-862" font-family="Helvetica,sans-Serif" font-size="10.00">+</text>
<text text-anchor="start" x="40" y="-862" font-family="Helvetica,sans-Serif" font-size="10.00">virtual bool WaitOne</text>
<text text-anchor="start" x="40" y="-851" font-family="Helvetica,sans-Serif" font-size="10.00">(int millisecondsTimeout)</text>
<text text-anchor="start" x="27" y="-836" font-family="Helvetica,sans-Serif" font-size="10.00">+</text>
<text text-anchor="start" x="40" y="-836" font-family="Helvetica,sans-Serif" font-size="10.00">virtual void Close()</text>
<text text-anchor="start" x="27" y="-821" font-family="Helvetica,sans-Serif" font-size="10.00">+</text>
<text text-anchor="start" x="40" y="-821" font-family="Helvetica,sans-Serif" font-size="10.00">void Dispose()</text>
<text text-anchor="start" x="27" y="-806" font-family="Helvetica,sans-Serif" font-size="10.00">+</text>
<text text-anchor="start" x="40" y="-806" font-family="Helvetica,sans-Serif" font-size="10.00">static int WaitAny</text>
<text text-anchor="start" x="40" y="-795" font-family="Helvetica,sans-Serif" font-size="10.00">(WaitHandle[] waitHandles,</text>
<text text-anchor="start" x="40" y="-784" font-family="Helvetica,sans-Serif" font-size="10.00"> int millisecondsTimeout,</text>
<text text-anchor="start" x="40" y="-773" font-family="Helvetica,sans-Serif" font-size="10.00"> bool exitContext)</text>
<text text-anchor="start" x="27" y="-758" font-family="Helvetica,sans-Serif" font-size="10.00">+</text>
<text text-anchor="start" x="40" y="-758" font-family="Helvetica,sans-Serif" font-size="10.00">static int WaitAny</text>
<text text-anchor="start" x="40" y="-747" font-family="Helvetica,sans-Serif" font-size="10.00">(WaitHandle[] waitHandles,</text>
<text text-anchor="start" x="40" y="-736" font-family="Helvetica,sans-Serif" font-size="10.00"> global::System.TimeSpan</text>
<text text-anchor="start" x="40" y="-725" font-family="Helvetica,sans-Serif" font-size="10.00"> timeout, bool exitContext)</text>
<text text-anchor="start" x="27" y="-710" font-family="Helvetica,sans-Serif" font-size="10.00">+</text>
<text text-anchor="start" x="40" y="-710" font-family="Helvetica,sans-Serif" font-size="10.00">static int WaitAny</text>
<text text-anchor="start" x="40" y="-699" font-family="Helvetica,sans-Serif" font-size="10.00">(WaitHandle[] waitHandles,</text>
<text text-anchor="start" x="40" y="-688" font-family="Helvetica,sans-Serif" font-size="10.00"> int millisecondsTimeout)</text>
<text text-anchor="start" x="27" y="-673" font-family="Helvetica,sans-Serif" font-size="10.00">~</text>
<text text-anchor="start" x="40" y="-673" font-family="Helvetica,sans-Serif" font-size="10.00">void SetHandleInternal</text>
<text text-anchor="start" x="40" y="-662" font-family="Helvetica,sans-Serif" font-size="10.00">(Microsoft.Win32.SafeHandles.</text>
<text text-anchor="start" x="40" y="-651" font-family="Helvetica,sans-Serif" font-size="10.00">SafeWaitHandle handle)</text>
<text text-anchor="start" x="27" y="-636" font-family="Helvetica,sans-Serif" font-size="10.00">~</text>
<text text-anchor="start" x="40" y="-636" font-family="Helvetica,sans-Serif" font-size="10.00">static unsafe int Wait</text>
<text text-anchor="start" x="40" y="-625" font-family="Helvetica,sans-Serif" font-size="10.00">_internal(global::System.Int</text>
<text text-anchor="start" x="40" y="-614" font-family="Helvetica,sans-Serif" font-size="10.00">Ptr *handles, int numHandles,</text>
<text text-anchor="start" x="40" y="-603" font-family="Helvetica,sans-Serif" font-size="10.00"> bool waitAll, int ms)</text>
<text text-anchor="start" x="27" y="-588" font-family="Helvetica,sans-Serif" font-size="10.00">~</text>
<text text-anchor="start" x="40" y="-588" font-family="Helvetica,sans-Serif" font-size="10.00">static bool InternalWait</text>
<text text-anchor="start" x="40" y="-577" font-family="Helvetica,sans-Serif" font-size="10.00">One(global::System.Runtime.Interop</text>
<text text-anchor="start" x="40" y="-566" font-family="Helvetica,sans-Serif" font-size="10.00">Services.SafeHandle waitableSafeHandle,</text>
<text text-anchor="start" x="40" y="-555" font-family="Helvetica,sans-Serif" font-size="10.00"> long millisecondsTimeout, bool hasThreadAffinity,</text>
<text text-anchor="start" x="40" y="-544" font-family="Helvetica,sans-Serif" font-size="10.00"> bool exitContext)</text>
<text text-anchor="start" x="27" y="-529" font-family="Helvetica,sans-Serif" font-size="10.00">#</text>
<text text-anchor="start" x="40" y="-529" font-family="Helvetica,sans-Serif" font-size="10.00">WaitHandle()</text>
<text text-anchor="start" x="27" y="-514" font-family="Helvetica,sans-Serif" font-size="10.00">#</text>
<text text-anchor="start" x="40" y="-514" font-family="Helvetica,sans-Serif" font-size="10.00">virtual void Dispose</text>
<text text-anchor="start" x="40" y="-503" font-family="Helvetica,sans-Serif" font-size="10.00">(bool explicitDisposing)</text>
<text text-anchor="start" x="29.5" y="-488" font-family="Helvetica,sans-Serif" font-size="10.00">&#45;</text>
<text text-anchor="start" x="40" y="-488" font-family="Helvetica,sans-Serif" font-size="10.00">void Init()</text>
<text text-anchor="start" x="29.5" y="-473" font-family="Helvetica,sans-Serif" font-size="10.00">&#45;</text>
<text text-anchor="start" x="40" y="-473" font-family="Helvetica,sans-Serif" font-size="10.00">bool WaitOne(long timeout,</text>
<text text-anchor="start" x="40" y="-462" font-family="Helvetica,sans-Serif" font-size="10.00"> bool exitContext)</text>
<text text-anchor="start" x="29.5" y="-447" font-family="Helvetica,sans-Serif" font-size="10.00">&#45;</text>
<text text-anchor="start" x="40" y="-447" font-family="Helvetica,sans-Serif" font-size="10.00">static void ThrowAbandoned</text>
<text text-anchor="start" x="40" y="-436" font-family="Helvetica,sans-Serif" font-size="10.00">MutexException()</text>
<text text-anchor="start" x="29.5" y="-421" font-family="Helvetica,sans-Serif" font-size="10.00">&#45;</text>
<text text-anchor="start" x="40" y="-421" font-family="Helvetica,sans-Serif" font-size="10.00">static void ThrowAbandoned</text>
<text text-anchor="start" x="40" y="-410" font-family="Helvetica,sans-Serif" font-size="10.00">MutexException(int location,</text>
<text text-anchor="start" x="40" y="-399" font-family="Helvetica,sans-Serif" font-size="10.00"> WaitHandle handle)</text>
<text text-anchor="start" x="29.5" y="-384" font-family="Helvetica,sans-Serif" font-size="10.00">&#45;</text>
<text text-anchor="start" x="40" y="-384" font-family="Helvetica,sans-Serif" font-size="10.00">static int WaitOneNative</text>
<text text-anchor="start" x="40" y="-373" font-family="Helvetica,sans-Serif" font-size="10.00">(global::System.Runtime.Interop</text>
<text text-anchor="start" x="40" y="-362" font-family="Helvetica,sans-Serif" font-size="10.00">Services.SafeHandle waitableSafeHandle,</text>
<text text-anchor="start" x="40" y="-351" font-family="Helvetica,sans-Serif" font-size="10.00"> uint millisecondsTimeout, bool hasThreadAffinity,</text>
<text text-anchor="start" x="40" y="-340" font-family="Helvetica,sans-Serif" font-size="10.00"> bool exitContext)</text>
<text text-anchor="start" x="29.5" y="-325" font-family="Helvetica,sans-Serif" font-size="10.00">&#45;</text>
<text text-anchor="start" x="40" y="-325" font-family="Helvetica,sans-Serif" font-size="10.00">static int WaitMultiple</text>
<text text-anchor="start" x="40" y="-314" font-family="Helvetica,sans-Serif" font-size="10.00">(WaitHandle[] waitHandles,</text>
<text text-anchor="start" x="40" y="-303" font-family="Helvetica,sans-Serif" font-size="10.00"> int millisecondsTimeout,</text>
<text text-anchor="start" x="40" y="-292" font-family="Helvetica,sans-Serif" font-size="10.00"> bool exitContext, bool WaitAll)</text>
<text text-anchor="start" x="29.5" y="-277" font-family="Helvetica,sans-Serif" font-size="10.00">&#45;</text>
<text text-anchor="start" x="40" y="-277" font-family="Helvetica,sans-Serif" font-size="10.00">static WaitHandle()</text>
<polygon fill="#666666" stroke="#666666" points="23,-1211 23,-1211 293,-1211 293,-1211 23,-1211"/>
<polygon fill="#666666" stroke="#666666" points="23,-924 23,-924 38,-924 38,-924 23,-924"/>
<polygon fill="#666666" stroke="#666666" points="38,-924 38,-924 293,-924 293,-924 38,-924"/>
<polygon fill="none" stroke="#666666" points="23,-270 23,-1228 293,-1228 293,-270 23,-270"/>
</a>
</g>
</g>
<!-- Node3&#45;&gt;Node2 -->
<g id="edge2_Node000002_Node000003" class="edge">
<title>Node3&#45;&gt;Node2</title>
<g id="a_edge2_Node000002_Node000003"><a xlink:title=" ">
<path fill="none" stroke="#63b8ff" d="M158,-259.83C158,-250.69 158,-242.08 158,-234.09"/>
<polygon fill="none" stroke="#63b8ff" points="154.5,-259.95 158,-269.95 161.5,-259.95 154.5,-259.95"/>
</a>
</g>
</g>
<!-- Node4 -->
<g id="Node000004" class="node">
<title>Node4</title>
<g id="a_Node000004"><a xlink:title=" ">
<polygon fill="white" stroke="transparent" points="152,-1324 0,-1324 0,-1264 152,-1264 152,-1324"/>
<text text-anchor="start" x="5" y="-1312" font-family="Helvetica,sans-Serif" font-size="10.00">global::SystemMarshalByRef</text>
<text text-anchor="start" x="60" y="-1301" font-family="Helvetica,sans-Serif" font-size="10.00">Object</text>
<text text-anchor="start" x="74" y="-1286" font-family="Helvetica,sans-Serif" font-size="10.00"> </text>
<text text-anchor="start" x="74" y="-1271" font-family="Helvetica,sans-Serif" font-size="10.00"> </text>
<polygon fill="#666666" stroke="#666666" points="0,-1296 0,-1296 152,-1296 152,-1296 0,-1296"/>
<polygon fill="#666666" stroke="#666666" points="0,-1281 0,-1281 152,-1281 152,-1281 0,-1281"/>
<polygon fill="none" stroke="#666666" points="0,-1264 0,-1324 152,-1324 152,-1264 0,-1264"/>
</a>
</g>
</g>
<!-- Node4&#45;&gt;Node3 -->
<g id="edge3_Node000003_Node000004" class="edge">
<title>Node4&#45;&gt;Node3</title>
<g id="a_edge3_Node000003_Node000004"><a xlink:title=" ">
<path fill="none" stroke="#63b8ff" d="M81.93,-1253.73C83.07,-1246.15 84.36,-1237.63 85.77,-1228.32"/>
<polygon fill="none" stroke="#63b8ff" points="78.44,-1253.4 80.41,-1263.81 85.36,-1254.44 78.44,-1253.4"/>
</a>
</g>
</g>
<!-- Node5 -->
<g id="Node000005" class="node">
<title>Node5</title>
<g id="a_Node000005"><a xlink:title=" ">
<polygon fill="white" stroke="transparent" points="310,-1318.5 170,-1318.5 170,-1269.5 310,-1269.5 310,-1318.5"/>
<text text-anchor="start" x="175" y="-1306" font-family="Helvetica,sans-Serif" font-size="10.00">global::SystemIDisposable</text>
<text text-anchor="start" x="238" y="-1291" font-family="Helvetica,sans-Serif" font-size="10.00"> </text>
<text text-anchor="start" x="238" y="-1276" font-family="Helvetica,sans-Serif" font-size="10.00"> </text>
<polygon fill="#666666" stroke="#666666" points="170,-1301 170,-1301 310,-1301 310,-1301 170,-1301"/>
<polygon fill="#666666" stroke="#666666" points="170,-1286 170,-1286 310,-1286 310,-1286 170,-1286"/>
<polygon fill="none" stroke="#666666" points="170,-1269.5 170,-1318.5 310,-1318.5 310,-1269.5 170,-1269.5"/>
</a>
</g>
</g>
<!-- Node5&#45;&gt;Node3 -->
<g id="edge4_Node000003_Node000005" class="edge">
<title>Node5&#45;&gt;Node3</title>
<g id="a_edge4_Node000003_Node000005"><a xlink:title=" ">
<path fill="none" stroke="#63b8ff" d="M234.9,-1259.23C233.55,-1250.31 231.98,-1239.87 230.21,-1228.16"/>
<polygon fill="none" stroke="#63b8ff" points="231.47,-1259.95 236.42,-1269.32 238.39,-1258.91 231.47,-1259.95"/>
</a>
</g>
</g>
</g>
</svg>

<g id="navigator" transform="translate(0 0)" fill="#404254">
  <rect fill="#f2f5e9" fill-opacity="0.5" stroke="#606060" stroke-width=".5" x="0" y="0" width="60" height="60"/>
  <use id="zoomplus" xlink:href="#zoomPlus" x="17" y="9" onmousedown="handleZoom(evt,'in')"/>
  <use id="zoomminus" xlink:href="#zoomMin" x="42" y="9" onmousedown="handleZoom(evt,'out')"/>
  <use id="reset" xlink:href="#resetDef" x="30" y="36" onmousedown="handleReset()"/>
   <use id="arrowup" xlink:href="#arrowUp" x="0" y="0" onmousedown="handlePan(0,-1)"/>
  <use id="arrowright" xlink:href="#arrowRight" x="0" y="0" onmousedown="handlePan(1,0)"/>
  <use id="arrowdown" xlink:href="#arrowDown" x="0" y="0" onmousedown="handlePan(0,1)"/>
  <use id="arrowleft" xlink:href="#arrowLeft" x="0" y="0" onmousedown="handlePan(-1,0)"/>
</g>
<svg viewBox="0 0 15 15" width="100%" height="30px" preserveAspectRatio="xMaxYMin meet">
 <g id="arrow_out" transform="scale(0.3 0.3)">
  <a xlink:href="classSystem_1_1Threading_1_1ManualResetEvent__inherit__graph_org.svg" target="_base">
   <rect id="button" ry="5" rx="5" y="6" x="6" height="38" width="38"
        fill="#f2f5e9" fill-opacity="0.5" stroke="#606060" stroke-width="1.0"/>
   <path id="arrow"
     d="M 11.500037,31.436501 C 11.940474,20.09759 22.043105,11.32322 32.158766,21.979434 L 37.068811,17.246167 C 37.068811,17.246167 37.088388,32 37.088388,32 L 22.160133,31.978069 C 22.160133,31.978069 26.997745,27.140456 26.997745,27.140456 C 18.528582,18.264221 13.291696,25.230495 11.500037,31.436501 z"
     style="fill:#404040;"/>
  </a>
 </g>
</svg>

<style type='text/css'>
<![CDATA[
[data-mouse-over-selected='false'] { opacity: 0.7; }
[data-mouse-over-selected='true']  { opacity: 1.0; }
]]>
</style>
<script type="application/ecmascript"><![CDATA[
document.addEventListener('DOMContentLoaded', (event) => {
  highlightEdges();
  highlightAdjacentNodes();
});
]]></script>
</svg>
