<?xml version="1.0" encoding="UTF-8" standalone="no"?>
<!DOCTYPE svg PUBLIC "-//W3C//DTD SVG 1.1//EN"
 "http://www.w3.org/Graphics/SVG/1.1/DTD/svg11.dtd">
<!-- Generated by graphviz version 2.43.0 (0)
 -->
<!-- Title: System.Net.Security.SSPIHandleCache Pages: 1 -->
<!--zoomable 1721 -->

<svg id="main" version="1.1" xmlns="http://www.w3.org/2000/svg" xmlns:xlink="http://www.w3.org/1999/xlink" xml:space="preserve" onload="init(evt)">
<style type="text/css"><![CDATA[
.node, .edge {opacity: 0.7;}
.node.selected, .edge.selected {opacity: 1;}
.edge:hover path { stroke: red; }
.edge:hover polygon { stroke: red; fill: red; }
]]></style>

<defs>
  <circle id="rim" cx="0" cy="0" r="7"/>
  <circle id="rim2" cx="0" cy="0" r="3.5"/>
  <g id="zoomPlus">
    <use xlink:href="#rim" fill="#404040"><set attributeName="fill" to="#808080" begin="zoomplus.mouseover" end="zoomplus.mouseout"/></use>
    <path d="M-4,0h8M0,-4v8" fill="none" stroke="white" stroke-width="1.5" pointer-events="none"/>
  </g>
  <g id="zoomMin">
    <use xlink:href="#rim" fill="#404040"><set attributeName="fill" to="#808080" begin="zoomminus.mouseover" end="zoomminus.mouseout"/></use>
    <path d="M-4,0h8" fill="none" stroke="white" stroke-width="1.5" pointer-events="none"/>
  </g>
  <g id="arrowUp" transform="translate(30 24)">
    <use xlink:href="#rim"/>
    <path pointer-events="none" fill="none" stroke="white" stroke-width="1.5" d="M0,-3.0v7 M-2.5,-0.5L0,-3.0L2.5,-0.5"/>
  </g>
  <g id="arrowRight" transform="rotate(90) translate(36 -43)">
    <use xlink:href="#rim"/>
    <path pointer-events="none" fill="none" stroke="white" stroke-width="1.5" d="M0,-3.0v7 M-2.5,-0.5L0,-3.0L2.5,-0.5"/>
  </g>
  <g id="arrowDown" transform="rotate(180) translate(-30 -48)">
    <use xlink:href="#rim"/>
    <path pointer-events="none" fill="none" stroke="white" stroke-width="1.5" d="M0,-3.0v7 M-2.5,-0.5L0,-3.0L2.5,-0.5"/>
  </g>
  <g id="arrowLeft" transform="rotate(270) translate(-36 17)">
    <use xlink:href="#rim"/>
    <path pointer-events="none" fill="none" stroke="white" stroke-width="1.5" d="M0,-3.0v7 M-2.5,-0.5L0,-3.0L2.5,-0.5"/>
  </g>
  <g id="resetDef">
    <use xlink:href="#rim2" fill="#404040"><set attributeName="fill" to="#808080" begin="reset.mouseover" end="reset.mouseout"/></use>
  </g>
</defs>
<script type="application/ecmascript">
var viewWidth = 890;
var viewHeight = 1721;
var sectionId = 'dynsection-0';
</script>
<script type="application/ecmascript" xlink:href="../../svg.min.js"/>
<svg id="graph" class="graph">
<g id="viewport">
<title>System.Net.Security.SSPIHandleCache</title>
<!-- Node1 -->
<g id="Node000001" class="node">
<title>Node1</title>
<g id="a_Node000001"><a xlink:title=" ">
<polygon fill="#999999" stroke="transparent" points="847.5,-86 662.5,-86 662.5,0 847.5,0 847.5,-86"/>
<text text-anchor="start" x="677" y="-74" font-family="Helvetica,sans-Serif" font-size="10.00">System.Net.Security.SSPIHandle</text>
<text text-anchor="start" x="740" y="-63" font-family="Helvetica,sans-Serif" font-size="10.00">Cache</text>
<text text-anchor="start" x="753.5" y="-48" font-family="Helvetica,sans-Serif" font-size="10.00"> </text>
<text text-anchor="start" x="667" y="-33" font-family="Helvetica,sans-Serif" font-size="10.00">~</text>
<text text-anchor="start" x="680" y="-33" font-family="Helvetica,sans-Serif" font-size="10.00">static void CacheCredential</text>
<text text-anchor="start" x="680" y="-22" font-family="Helvetica,sans-Serif" font-size="10.00">(SafeFreeCredentials newHandle)</text>
<text text-anchor="start" x="669.5" y="-7" font-family="Helvetica,sans-Serif" font-size="10.00">&#45;</text>
<text text-anchor="start" x="680" y="-7" font-family="Helvetica,sans-Serif" font-size="10.00">static SSPIHandleCache()</text>
<polygon fill="#666666" stroke="#666666" points="663,-58 663,-58 848,-58 848,-58 663,-58"/>
<polygon fill="#666666" stroke="#666666" points="663,-43 663,-43 848,-43 848,-43 663,-43"/>
<polygon fill="none" stroke="#666666" points="662.5,0 662.5,-86 847.5,-86 847.5,0 662.5,0"/>
</a>
</g>
</g>
<!-- Node2 -->
<g id="Node000002" class="node">
<title>Node2</title>
<g id="a_Node000002"><a xlink:href="../../d7/d86/classSystem_1_1Net_1_1Security_1_1SafeCredentialReference.html" target="_top" xlink:title=" ">
<polygon fill="white" stroke="transparent" points="802,-245 558,-245 558,-133 802,-133 802,-245"/>
<text text-anchor="start" x="618" y="-233" font-family="Helvetica,sans-Serif" font-size="10.00">System.Net.Security.Safe</text>
<text text-anchor="start" x="630" y="-222" font-family="Helvetica,sans-Serif" font-size="10.00">CredentialReference</text>
<text text-anchor="start" x="678" y="-207" font-family="Helvetica,sans-Serif" font-size="10.00"> </text>
<text text-anchor="start" x="562" y="-192" font-family="Helvetica,sans-Serif" font-size="10.00">~</text>
<text text-anchor="start" x="575" y="-192" font-family="Helvetica,sans-Serif" font-size="10.00">static SafeCredentialReference</text>
<text text-anchor="start" x="575" y="-181" font-family="Helvetica,sans-Serif" font-size="10.00"> CreateReference(SafeFreeCredentials target)</text>
<text text-anchor="start" x="562" y="-166" font-family="Helvetica,sans-Serif" font-size="10.00">#</text>
<text text-anchor="start" x="575" y="-166" font-family="Helvetica,sans-Serif" font-size="10.00">override bool ReleaseHandle()</text>
<text text-anchor="start" x="564.5" y="-151" font-family="Helvetica,sans-Serif" font-size="10.00">&#45;</text>
<text text-anchor="start" x="575" y="-151" font-family="Helvetica,sans-Serif" font-size="10.00">SafeCredentialReference</text>
<text text-anchor="start" x="575" y="-140" font-family="Helvetica,sans-Serif" font-size="10.00">(SafeFreeCredentials target)</text>
<polygon fill="#666666" stroke="#666666" points="558,-217 558,-217 802,-217 802,-217 558,-217"/>
<polygon fill="#666666" stroke="#666666" points="558,-202 558,-202 802,-202 802,-202 558,-202"/>
<polygon fill="none" stroke="#666666" points="558,-133 558,-245 802,-245 802,-133 558,-133"/>
</a>
</g>
</g>
<!-- Node2&#45;&gt;Node1 -->
<g id="edge1_Node000001_Node000002" class="edge">
<title>Node2&#45;&gt;Node1</title>
<g id="a_edge1_Node000001_Node000002"><a xlink:title=" ">
<path fill="none" stroke="#63b8ff" d="M708.78,-132.74C714.86,-121.08 721.25,-108.8 727.28,-97.21"/>
<polygon fill="none" stroke="#63b8ff" points="727.39,-97.01 726.62,-89.84 732.93,-86.37 733.71,-93.53 727.39,-97.01"/>
</a>
</g>
<text text-anchor="middle" x="756" y="-107" font-family="Helvetica,sans-Serif" font-size="10.00" fill="grey"> &#45;s_cacheSlots</text>
</g>
<!-- Node3 -->
<g id="Node000003" class="node">
<title>Node3</title>
<g id="a_Node000003"><a xlink:href="../../da/d04/classMicrosoft_1_1Win32_1_1SafeHandles_1_1CriticalHandleMinusOneIsInvalid.html" target="_top" xlink:title=" ">
<polygon fill="white" stroke="transparent" points="784,-368.5 636,-368.5 636,-297.5 784,-297.5 784,-368.5"/>
<text text-anchor="start" x="646.5" y="-356" font-family="Helvetica,sans-Serif" font-size="10.00">CriticalHandleMinusOneIs</text>
<text text-anchor="start" x="693" y="-345" font-family="Helvetica,sans-Serif" font-size="10.00">Invalid</text>
<text text-anchor="start" x="640" y="-330" font-family="Helvetica,sans-Serif" font-size="10.00">+</text>
<text text-anchor="start" x="653" y="-330" font-family="Helvetica,sans-Serif" font-size="10.00">override bool IsInvalid</text>
<text text-anchor="start" x="640" y="-315" font-family="Helvetica,sans-Serif" font-size="10.00">#</text>
<text text-anchor="start" x="653" y="-315" font-family="Helvetica,sans-Serif" font-size="10.00">CriticalHandleMinusOneIs</text>
<text text-anchor="start" x="653" y="-304" font-family="Helvetica,sans-Serif" font-size="10.00">Invalid()</text>
<polygon fill="#666666" stroke="#666666" points="636,-340 636,-340 784,-340 784,-340 636,-340"/>
<polygon fill="#666666" stroke="#666666" points="636,-325 636,-325 651,-325 651,-325 636,-325"/>
<polygon fill="#666666" stroke="#666666" points="651,-325 651,-325 784,-325 784,-325 651,-325"/>
<polygon fill="none" stroke="#666666" points="636,-297.5 636,-368.5 784,-368.5 784,-297.5 636,-297.5"/>
</a>
</g>
</g>
<!-- Node3&#45;&gt;Node2 -->
<g id="edge2_Node000002_Node000003" class="edge">
<title>Node3&#45;&gt;Node2</title>
<g id="a_edge2_Node000002_Node000003"><a xlink:title=" ">
<path fill="none" stroke="#63b8ff" d="M700.57,-287.35C697.74,-273.95 694.6,-259.11 691.65,-245.13"/>
<polygon fill="none" stroke="#63b8ff" points="697.17,-288.2 702.66,-297.26 704.02,-286.76 697.17,-288.2"/>
</a>
</g>
</g>
<!-- Node4 -->
<g id="Node000004" class="node">
<title>Node4</title>
<g id="a_Node000004"><a xlink:href="../../da/d44/classglobal_1_1SystemRuntime_1_1InteropServices_1_1CriticalHandle.html" target="_top" xlink:title=" ">
<polygon fill="white" stroke="transparent" points="778.5,-614.5 645.5,-614.5 645.5,-543.5 778.5,-543.5 778.5,-614.5"/>
<text text-anchor="start" x="651" y="-602" font-family="Helvetica,sans-Serif" font-size="10.00">global::SystemRuntime</text>
<text text-anchor="start" x="651" y="-591" font-family="Helvetica,sans-Serif" font-size="10.00">::InteropServices::Critical</text>
<text text-anchor="start" x="695" y="-580" font-family="Helvetica,sans-Serif" font-size="10.00">Handle</text>
<text text-anchor="start" x="710.5" y="-565" font-family="Helvetica,sans-Serif" font-size="10.00"> </text>
<text text-anchor="start" x="710.5" y="-550" font-family="Helvetica,sans-Serif" font-size="10.00"> </text>
<polygon fill="#666666" stroke="#666666" points="646,-575 646,-575 779,-575 779,-575 646,-575"/>
<polygon fill="#666666" stroke="#666666" points="646,-560 646,-560 779,-560 779,-560 646,-560"/>
<polygon fill="none" stroke="#666666" points="645.5,-543.5 645.5,-614.5 778.5,-614.5 778.5,-543.5 645.5,-543.5"/>
</a>
</g>
</g>
<!-- Node4&#45;&gt;Node3 -->
<g id="edge3_Node000003_Node000004" class="edge">
<title>Node4&#45;&gt;Node3</title>
<g id="a_edge3_Node000003_Node000004"><a xlink:title=" ">
<path fill="none" stroke="#63b8ff" d="M711.63,-533C711.24,-485.52 710.64,-411.7 710.28,-368.58"/>
<polygon fill="none" stroke="#63b8ff" points="708.13,-533.33 711.72,-543.3 715.13,-533.27 708.13,-533.33"/>
</a>
</g>
</g>
<!-- Node5 -->
<g id="Node000005" class="node">
<title>Node5</title>
<g id="a_Node000005"><a xlink:href="../../dc/d2a/classSystem_1_1Net_1_1Security_1_1SafeFreeCredentials.html" target="_top" xlink:title=" ">
<polygon fill="white" stroke="transparent" points="616,-374 482,-374 482,-292 616,-292 616,-374"/>
<text text-anchor="start" x="487" y="-362" font-family="Helvetica,sans-Serif" font-size="10.00">System.Net.Security.Safe</text>
<text text-anchor="start" x="510.5" y="-351" font-family="Helvetica,sans-Serif" font-size="10.00">FreeCredentials</text>
<text text-anchor="start" x="547" y="-336" font-family="Helvetica,sans-Serif" font-size="10.00"> </text>
<text text-anchor="start" x="489.5" y="-321" font-family="Helvetica,sans-Serif" font-size="10.00">#</text>
<text text-anchor="start" x="506" y="-321" font-family="Helvetica,sans-Serif" font-size="10.00">SafeFreeCredentials</text>
<text text-anchor="start" x="506" y="-310" font-family="Helvetica,sans-Serif" font-size="10.00">(IntPtr handle, bool</text>
<text text-anchor="start" x="506" y="-299" font-family="Helvetica,sans-Serif" font-size="10.00"> ownsHandle)</text>
<polygon fill="#666666" stroke="#666666" points="482,-346 482,-346 616,-346 616,-346 482,-346"/>
<polygon fill="#666666" stroke="#666666" points="482,-331 482,-331 616,-331 616,-331 482,-331"/>
<polygon fill="none" stroke="#666666" points="482,-292 482,-374 616,-374 616,-292 482,-292"/>
</a>
</g>
</g>
<!-- Node5&#45;&gt;Node2 -->
<g id="edge4_Node000002_Node000005" class="edge">
<title>Node5&#45;&gt;Node2</title>
<g id="a_edge4_Node000002_Node000005"><a xlink:title=" ">
<path fill="none" stroke="#63b8ff" d="M586.19,-291.69C596.9,-280.08 608.87,-267.11 620.57,-254.42"/>
<polygon fill="none" stroke="#63b8ff" points="620.89,-254.08 622.02,-246.95 629.02,-245.26 627.9,-252.38 620.89,-254.08"/>
</a>
</g>
<text text-anchor="middle" x="631" y="-266" font-family="Helvetica,sans-Serif" font-size="10.00" fill="grey"> ~Target</text>
</g>
<!-- Node6 -->
<g id="Node000006" class="node">
<title>Node6</title>
<g id="a_Node000006"><a xlink:href="../../d5/db0/classSystem_1_1Runtime_1_1InteropServices_1_1SafeHandle.html" target="_top" xlink:title=" ">
<polygon fill="white" stroke="transparent" points="627.5,-747 452.5,-747 452.5,-411 627.5,-411 627.5,-747"/>
<text text-anchor="start" x="512" y="-735" font-family="Helvetica,sans-Serif" font-size="10.00">SafeHandle</text>
<text text-anchor="start" x="457" y="-720" font-family="Helvetica,sans-Serif" font-size="10.00">+</text>
<text text-anchor="start" x="470" y="-720" font-family="Helvetica,sans-Serif" font-size="10.00">bool IsClosed</text>
<text text-anchor="start" x="457" y="-705" font-family="Helvetica,sans-Serif" font-size="10.00">+</text>
<text text-anchor="start" x="470" y="-705" font-family="Helvetica,sans-Serif" font-size="10.00">bool IsInvalid</text>
<text text-anchor="start" x="457" y="-690" font-family="Helvetica,sans-Serif" font-size="10.00">+</text>
<text text-anchor="start" x="470" y="-690" font-family="Helvetica,sans-Serif" font-size="10.00">global::System.IntPtr</text>
<text text-anchor="start" x="470" y="-679" font-family="Helvetica,sans-Serif" font-size="10.00"> DangerousGetHandle()</text>
<text text-anchor="start" x="457" y="-664" font-family="Helvetica,sans-Serif" font-size="10.00">+</text>
<text text-anchor="start" x="470" y="-664" font-family="Helvetica,sans-Serif" font-size="10.00">void Close()</text>
<text text-anchor="start" x="457" y="-649" font-family="Helvetica,sans-Serif" font-size="10.00">+</text>
<text text-anchor="start" x="470" y="-649" font-family="Helvetica,sans-Serif" font-size="10.00">void Dispose()</text>
<text text-anchor="start" x="457" y="-634" font-family="Helvetica,sans-Serif" font-size="10.00">+</text>
<text text-anchor="start" x="470" y="-634" font-family="Helvetica,sans-Serif" font-size="10.00">void SetHandleAsInvalid()</text>
<text text-anchor="start" x="457" y="-619" font-family="Helvetica,sans-Serif" font-size="10.00">+</text>
<text text-anchor="start" x="470" y="-619" font-family="Helvetica,sans-Serif" font-size="10.00">unsafe void DangerousAdd</text>
<text text-anchor="start" x="470" y="-608" font-family="Helvetica,sans-Serif" font-size="10.00">Ref(ref bool success)</text>
<text text-anchor="start" x="457" y="-593" font-family="Helvetica,sans-Serif" font-size="10.00">+</text>
<text text-anchor="start" x="470" y="-593" font-family="Helvetica,sans-Serif" font-size="10.00">void DangerousRelease()</text>
<text text-anchor="start" x="457" y="-578" font-family="Helvetica,sans-Serif" font-size="10.00">#</text>
<text text-anchor="start" x="470" y="-578" font-family="Helvetica,sans-Serif" font-size="10.00">SafeHandle(global</text>
<text text-anchor="start" x="470" y="-567" font-family="Helvetica,sans-Serif" font-size="10.00">::System.IntPtr invalidHandle</text>
<text text-anchor="start" x="470" y="-556" font-family="Helvetica,sans-Serif" font-size="10.00">Value, bool ownsHandle)</text>
<text text-anchor="start" x="457" y="-541" font-family="Helvetica,sans-Serif" font-size="10.00">#</text>
<text text-anchor="start" x="470" y="-541" font-family="Helvetica,sans-Serif" font-size="10.00">override void Finalize()</text>
<text text-anchor="start" x="457" y="-526" font-family="Helvetica,sans-Serif" font-size="10.00">#</text>
<text text-anchor="start" x="470" y="-526" font-family="Helvetica,sans-Serif" font-size="10.00">void SetHandle(global</text>
<text text-anchor="start" x="470" y="-515" font-family="Helvetica,sans-Serif" font-size="10.00">::System.IntPtr handle)</text>
<text text-anchor="start" x="457" y="-500" font-family="Helvetica,sans-Serif" font-size="10.00">#</text>
<text text-anchor="start" x="470" y="-500" font-family="Helvetica,sans-Serif" font-size="10.00">virtual void Dispose</text>
<text text-anchor="start" x="470" y="-489" font-family="Helvetica,sans-Serif" font-size="10.00">(bool disposing)</text>
<text text-anchor="start" x="457" y="-474" font-family="Helvetica,sans-Serif" font-size="10.00">#</text>
<text text-anchor="start" x="470" y="-474" font-family="Helvetica,sans-Serif" font-size="10.00">bool ReleaseHandle()</text>
<text text-anchor="start" x="459.5" y="-459" font-family="Helvetica,sans-Serif" font-size="10.00">&#45;</text>
<text text-anchor="start" x="470" y="-459" font-family="Helvetica,sans-Serif" font-size="10.00">void InternalDispose()</text>
<text text-anchor="start" x="459.5" y="-444" font-family="Helvetica,sans-Serif" font-size="10.00">&#45;</text>
<text text-anchor="start" x="470" y="-444" font-family="Helvetica,sans-Serif" font-size="10.00">void InternalFinalize()</text>
<text text-anchor="start" x="459.5" y="-429" font-family="Helvetica,sans-Serif" font-size="10.00">&#45;</text>
<text text-anchor="start" x="470" y="-429" font-family="Helvetica,sans-Serif" font-size="10.00">void DangerousReleaseInternal</text>
<text text-anchor="start" x="470" y="-418" font-family="Helvetica,sans-Serif" font-size="10.00">(bool dispose)</text>
<polygon fill="#666666" stroke="#666666" points="453,-730 453,-730 628,-730 628,-730 453,-730"/>
<polygon fill="#666666" stroke="#666666" points="453,-700 453,-700 468,-700 468,-700 453,-700"/>
<polygon fill="#666666" stroke="#666666" points="468,-700 468,-700 628,-700 628,-700 468,-700"/>
<polygon fill="none" stroke="#666666" points="452.5,-411 452.5,-747 627.5,-747 627.5,-411 452.5,-411"/>
</a>
</g>
</g>
<!-- Node6&#45;&gt;Node5 -->
<g id="edge5_Node000005_Node000006" class="edge">
<title>Node6&#45;&gt;Node5</title>
<g id="a_edge5_Node000005_Node000006"><a xlink:title=" ">
<path fill="none" stroke="#63b8ff" d="M546.54,-400.72C546.89,-391.17 547.22,-382.19 547.52,-374.1"/>
<polygon fill="none" stroke="#63b8ff" points="543.04,-400.75 546.16,-410.87 550.03,-401 543.04,-400.75"/>
</a>
</g>
</g>
<!-- Node7 -->
<g id="Node000007" class="node">
<title>Node7</title>
<g id="a_Node000007"><a xlink:href="../../dc/dcc/classglobal_1_1SystemRuntime_1_1ConstrainedExecution_1_1CriticalFinalizerObject.html" target="_top" xlink:title=" ">
<polygon fill="white" stroke="transparent" points="602.5,-1246.5 477.5,-1246.5 477.5,-1175.5 602.5,-1175.5 602.5,-1246.5"/>
<text text-anchor="start" x="483" y="-1234" font-family="Helvetica,sans-Serif" font-size="10.00">global::SystemRuntime</text>
<text text-anchor="start" x="483" y="-1223" font-family="Helvetica,sans-Serif" font-size="10.00">::ConstrainedExecution</text>
<text text-anchor="start" x="483.5" y="-1212" font-family="Helvetica,sans-Serif" font-size="10.00">::CriticalFinalizerObject</text>
<text text-anchor="start" x="538.5" y="-1197" font-family="Helvetica,sans-Serif" font-size="10.00"> </text>
<text text-anchor="start" x="538.5" y="-1182" font-family="Helvetica,sans-Serif" font-size="10.00"> </text>
<polygon fill="#666666" stroke="#666666" points="478,-1207 478,-1207 603,-1207 603,-1207 478,-1207"/>
<polygon fill="#666666" stroke="#666666" points="478,-1192 478,-1192 603,-1192 603,-1192 478,-1192"/>
<polygon fill="none" stroke="#666666" points="477.5,-1175.5 477.5,-1246.5 602.5,-1246.5 602.5,-1175.5 477.5,-1175.5"/>
</a>
</g>
</g>
<!-- Node7&#45;&gt;Node6 -->
<g id="edge6_Node000006_Node000007" class="edge">
<title>Node7&#45;&gt;Node6</title>
<g id="a_edge6_Node000006_Node000007"><a xlink:title=" ">
<path fill="none" stroke="#63b8ff" d="M540,-1165.04C540,-1079.15 540,-887.74 540,-747.15"/>
<polygon fill="none" stroke="#63b8ff" points="536.5,-1165.23 540,-1175.23 543.5,-1165.23 536.5,-1165.23"/>
</a>
</g>
</g>
<!-- Node8 -->
<g id="Node000008" class="node">
<title>Node8</title>
<g id="a_Node000008"><a xlink:title=" ">
<polygon fill="white" stroke="transparent" points="140,-1235.5 0,-1235.5 0,-1186.5 140,-1186.5 140,-1235.5"/>
<text text-anchor="start" x="5" y="-1223" font-family="Helvetica,sans-Serif" font-size="10.00">global::SystemIDisposable</text>
<text text-anchor="start" x="68" y="-1208" font-family="Helvetica,sans-Serif" font-size="10.00"> </text>
<text text-anchor="start" x="68" y="-1193" font-family="Helvetica,sans-Serif" font-size="10.00"> </text>
<polygon fill="#666666" stroke="#666666" points="0,-1218 0,-1218 140,-1218 140,-1218 0,-1218"/>
<polygon fill="#666666" stroke="#666666" points="0,-1203 0,-1203 140,-1203 140,-1203 0,-1203"/>
<polygon fill="none" stroke="#666666" points="0,-1186.5 0,-1235.5 140,-1235.5 140,-1186.5 0,-1186.5"/>
</a>
</g>
</g>
<!-- Node8&#45;&gt;Node6 -->
<g id="edge7_Node000006_Node000008" class="edge">
<title>Node8&#45;&gt;Node6</title>
<g id="a_edge7_Node000006_Node000008"><a xlink:title=" ">
<path fill="none" stroke="#63b8ff" d="M68.09,-1175.72C65.75,-1102.62 69.61,-928.91 149,-816 223.34,-710.28 361.53,-643.51 452.12,-608.95"/>
<polygon fill="none" stroke="#63b8ff" points="64.61,-1176.3 68.49,-1186.16 71.6,-1176.03 64.61,-1176.3"/>
</a>
</g>
</g>
<!-- Node9 -->
<g id="Node000009" class="node">
<title>Node9</title>
<g id="a_Node000009"><a xlink:href="../../db/db4/structSystem_1_1IntPtr.html" target="_top" xlink:title=" ">
<polygon fill="white" stroke="transparent" points="407.5,-1606 158.5,-1606 158.5,-816 407.5,-816 407.5,-1606"/>
<text text-anchor="start" x="250" y="-1594" font-family="Helvetica,sans-Serif" font-size="10.00">System.IntPtr</text>
<text text-anchor="start" x="163" y="-1579" font-family="Helvetica,sans-Serif" font-size="10.00">+</text>
<text text-anchor="start" x="176" y="-1579" font-family="Helvetica,sans-Serif" font-size="10.00">static unsafe int Size</text>
<text text-anchor="start" x="163" y="-1564" font-family="Helvetica,sans-Serif" font-size="10.00">+</text>
<text text-anchor="start" x="176" y="-1564" font-family="Helvetica,sans-Serif" font-size="10.00">IntPtr(int value)</text>
<text text-anchor="start" x="163" y="-1549" font-family="Helvetica,sans-Serif" font-size="10.00">+</text>
<text text-anchor="start" x="176" y="-1549" font-family="Helvetica,sans-Serif" font-size="10.00">IntPtr(long value)</text>
<text text-anchor="start" x="163" y="-1534" font-family="Helvetica,sans-Serif" font-size="10.00">+</text>
<text text-anchor="start" x="176" y="-1534" font-family="Helvetica,sans-Serif" font-size="10.00">unsafe IntPtr(void</text>
<text text-anchor="start" x="176" y="-1523" font-family="Helvetica,sans-Serif" font-size="10.00"> *value)</text>
<text text-anchor="start" x="163" y="-1508" font-family="Helvetica,sans-Serif" font-size="10.00">+</text>
<text text-anchor="start" x="176" y="-1508" font-family="Helvetica,sans-Serif" font-size="10.00">override bool Equals</text>
<text text-anchor="start" x="176" y="-1497" font-family="Helvetica,sans-Serif" font-size="10.00">(object obj)</text>
<text text-anchor="start" x="163" y="-1482" font-family="Helvetica,sans-Serif" font-size="10.00">+</text>
<text text-anchor="start" x="176" y="-1482" font-family="Helvetica,sans-Serif" font-size="10.00">override int GetHashCode()</text>
<text text-anchor="start" x="163" y="-1467" font-family="Helvetica,sans-Serif" font-size="10.00">+</text>
<text text-anchor="start" x="176" y="-1467" font-family="Helvetica,sans-Serif" font-size="10.00">long ToInt64()</text>
<text text-anchor="start" x="163" y="-1452" font-family="Helvetica,sans-Serif" font-size="10.00">+</text>
<text text-anchor="start" x="176" y="-1452" font-family="Helvetica,sans-Serif" font-size="10.00">unsafe void * ToPointer()</text>
<text text-anchor="start" x="163" y="-1437" font-family="Helvetica,sans-Serif" font-size="10.00">+</text>
<text text-anchor="start" x="176" y="-1437" font-family="Helvetica,sans-Serif" font-size="10.00">override string ToString()</text>
<text text-anchor="start" x="163" y="-1422" font-family="Helvetica,sans-Serif" font-size="10.00">+</text>
<text text-anchor="start" x="176" y="-1422" font-family="Helvetica,sans-Serif" font-size="10.00">string ToString(string</text>
<text text-anchor="start" x="176" y="-1411" font-family="Helvetica,sans-Serif" font-size="10.00"> format)</text>
<text text-anchor="start" x="163" y="-1396" font-family="Helvetica,sans-Serif" font-size="10.00">+</text>
<text text-anchor="start" x="176" y="-1396" font-family="Helvetica,sans-Serif" font-size="10.00">static unsafe bool</text>
<text text-anchor="start" x="176" y="-1385" font-family="Helvetica,sans-Serif" font-size="10.00"> operator==(global::</text>
<text text-anchor="start" x="176" y="-1374" font-family="Helvetica,sans-Serif" font-size="10.00">System.IntPtr value1,</text>
<text text-anchor="start" x="176" y="-1363" font-family="Helvetica,sans-Serif" font-size="10.00"> global::System.IntPtr</text>
<text text-anchor="start" x="176" y="-1352" font-family="Helvetica,sans-Serif" font-size="10.00"> value2)</text>
<text text-anchor="start" x="163" y="-1337" font-family="Helvetica,sans-Serif" font-size="10.00">+</text>
<text text-anchor="start" x="176" y="-1337" font-family="Helvetica,sans-Serif" font-size="10.00">static unsafe bool</text>
<text text-anchor="start" x="176" y="-1326" font-family="Helvetica,sans-Serif" font-size="10.00"> operator!=(global::</text>
<text text-anchor="start" x="176" y="-1315" font-family="Helvetica,sans-Serif" font-size="10.00">System.IntPtr value1,</text>
<text text-anchor="start" x="176" y="-1304" font-family="Helvetica,sans-Serif" font-size="10.00"> global::System.IntPtr</text>
<text text-anchor="start" x="176" y="-1293" font-family="Helvetica,sans-Serif" font-size="10.00"> value2)</text>
<text text-anchor="start" x="163" y="-1278" font-family="Helvetica,sans-Serif" font-size="10.00">+</text>
<text text-anchor="start" x="176" y="-1278" font-family="Helvetica,sans-Serif" font-size="10.00">static operator global</text>
<text text-anchor="start" x="176" y="-1267" font-family="Helvetica,sans-Serif" font-size="10.00">::System.IntPtr(int value)</text>
<text text-anchor="start" x="163" y="-1252" font-family="Helvetica,sans-Serif" font-size="10.00">+</text>
<text text-anchor="start" x="176" y="-1252" font-family="Helvetica,sans-Serif" font-size="10.00">static operator global</text>
<text text-anchor="start" x="176" y="-1241" font-family="Helvetica,sans-Serif" font-size="10.00">::System.IntPtr(long value)</text>
<text text-anchor="start" x="163" y="-1226" font-family="Helvetica,sans-Serif" font-size="10.00">+</text>
<text text-anchor="start" x="176" y="-1226" font-family="Helvetica,sans-Serif" font-size="10.00">static unsafe operator</text>
<text text-anchor="start" x="176" y="-1215" font-family="Helvetica,sans-Serif" font-size="10.00"> global::System.IntPtr</text>
<text text-anchor="start" x="176" y="-1204" font-family="Helvetica,sans-Serif" font-size="10.00">(void *value)</text>
<text text-anchor="start" x="163" y="-1189" font-family="Helvetica,sans-Serif" font-size="10.00">+</text>
<text text-anchor="start" x="176" y="-1189" font-family="Helvetica,sans-Serif" font-size="10.00">static operator int</text>
<text text-anchor="start" x="176" y="-1178" font-family="Helvetica,sans-Serif" font-size="10.00">(global::System.IntPtr</text>
<text text-anchor="start" x="176" y="-1167" font-family="Helvetica,sans-Serif" font-size="10.00"> value)</text>
<text text-anchor="start" x="163" y="-1152" font-family="Helvetica,sans-Serif" font-size="10.00">+</text>
<text text-anchor="start" x="176" y="-1152" font-family="Helvetica,sans-Serif" font-size="10.00">static operator long</text>
<text text-anchor="start" x="176" y="-1141" font-family="Helvetica,sans-Serif" font-size="10.00">(global::System.IntPtr</text>
<text text-anchor="start" x="176" y="-1130" font-family="Helvetica,sans-Serif" font-size="10.00"> value)</text>
<text text-anchor="start" x="163" y="-1115" font-family="Helvetica,sans-Serif" font-size="10.00">+</text>
<text text-anchor="start" x="176" y="-1115" font-family="Helvetica,sans-Serif" font-size="10.00">static unsafe operator</text>
<text text-anchor="start" x="176" y="-1104" font-family="Helvetica,sans-Serif" font-size="10.00"> void *(global::System.IntPtr</text>
<text text-anchor="start" x="176" y="-1093" font-family="Helvetica,sans-Serif" font-size="10.00"> value)</text>
<text text-anchor="start" x="163" y="-1078" font-family="Helvetica,sans-Serif" font-size="10.00">+</text>
<text text-anchor="start" x="176" y="-1078" font-family="Helvetica,sans-Serif" font-size="10.00">static global::System.Int</text>
<text text-anchor="start" x="176" y="-1067" font-family="Helvetica,sans-Serif" font-size="10.00">Ptr Add(global::System.IntPtr</text>
<text text-anchor="start" x="176" y="-1056" font-family="Helvetica,sans-Serif" font-size="10.00"> pointer, int offset)</text>
<text text-anchor="start" x="163" y="-1041" font-family="Helvetica,sans-Serif" font-size="10.00">+</text>
<text text-anchor="start" x="176" y="-1041" font-family="Helvetica,sans-Serif" font-size="10.00">static global::System.Int</text>
<text text-anchor="start" x="176" y="-1030" font-family="Helvetica,sans-Serif" font-size="10.00">Ptr operator+(global::System.Int</text>
<text text-anchor="start" x="176" y="-1019" font-family="Helvetica,sans-Serif" font-size="10.00">Ptr pointer, int offset)</text>
<text text-anchor="start" x="163" y="-1004" font-family="Helvetica,sans-Serif" font-size="10.00">+</text>
<text text-anchor="start" x="176" y="-1004" font-family="Helvetica,sans-Serif" font-size="10.00">static global::System.Int</text>
<text text-anchor="start" x="176" y="-993" font-family="Helvetica,sans-Serif" font-size="10.00">Ptr operator&#45;(global::System.Int</text>
<text text-anchor="start" x="176" y="-982" font-family="Helvetica,sans-Serif" font-size="10.00">Ptr pointer, int offset)</text>
<text text-anchor="start" x="163" y="-967" font-family="Helvetica,sans-Serif" font-size="10.00">~</text>
<text text-anchor="start" x="176" y="-967" font-family="Helvetica,sans-Serif" font-size="10.00">bool IsNull()</text>
<text text-anchor="start" x="165.5" y="-952" font-family="Helvetica,sans-Serif" font-size="10.00">&#45;</text>
<text text-anchor="start" x="176" y="-952" font-family="Helvetica,sans-Serif" font-size="10.00">IntPtr(global::System.Runtime.</text>
<text text-anchor="start" x="176" y="-941" font-family="Helvetica,sans-Serif" font-size="10.00">Serialization.SerializationInfo</text>
<text text-anchor="start" x="176" y="-930" font-family="Helvetica,sans-Serif" font-size="10.00"> info, global::System.Runtime.Serialization.</text>
<text text-anchor="start" x="176" y="-919" font-family="Helvetica,sans-Serif" font-size="10.00">StreamingContext context)</text>
<text text-anchor="start" x="165.5" y="-904" font-family="Helvetica,sans-Serif" font-size="10.00">&#45;</text>
<text text-anchor="start" x="176" y="-904" font-family="Helvetica,sans-Serif" font-size="10.00">void System.Runtime.Serialization.</text>
<text text-anchor="start" x="176" y="-893" font-family="Helvetica,sans-Serif" font-size="10.00">ISerializable. GetObjectData</text>
<text text-anchor="start" x="176" y="-882" font-family="Helvetica,sans-Serif" font-size="10.00">(global::System.Runtime.Serialization.</text>
<text text-anchor="start" x="176" y="-871" font-family="Helvetica,sans-Serif" font-size="10.00">SerializationInfo info, global::System.Runtime.</text>
<text text-anchor="start" x="176" y="-860" font-family="Helvetica,sans-Serif" font-size="10.00">Serialization.StreamingContext context)</text>
<text text-anchor="start" x="165.5" y="-845" font-family="Helvetica,sans-Serif" font-size="10.00">&#45;</text>
<text text-anchor="start" x="176" y="-845" font-family="Helvetica,sans-Serif" font-size="10.00">bool System.IEquatable</text>
<text text-anchor="start" x="176" y="-834" font-family="Helvetica,sans-Serif" font-size="10.00">&lt; System.IntPtr &gt;. Equals</text>
<text text-anchor="start" x="176" y="-823" font-family="Helvetica,sans-Serif" font-size="10.00">(global::System.IntPtr other)</text>
<polygon fill="#666666" stroke="#666666" points="159,-1589 159,-1589 408,-1589 408,-1589 159,-1589"/>
<polygon fill="#666666" stroke="#666666" points="159,-1574 159,-1574 174,-1574 174,-1574 159,-1574"/>
<polygon fill="#666666" stroke="#666666" points="174,-1574 174,-1574 408,-1574 408,-1574 174,-1574"/>
<polygon fill="none" stroke="#666666" points="158.5,-816 158.5,-1606 407.5,-1606 407.5,-816 158.5,-816"/>
</a>
</g>
</g>
<!-- Node9&#45;&gt;Node6 -->
<g id="edge8_Node000006_Node000009" class="edge">
<title>Node9&#45;&gt;Node6</title>
<g id="a_edge8_Node000006_Node000009"><a xlink:title=" ">
<path fill="none" stroke="#63b8ff" d="M407.55,-904.69C428.01,-854.54 448.6,-804.06 467.25,-758.34"/>
<polygon fill="none" stroke="#63b8ff" points="467.29,-758.25 465.85,-751.18 471.82,-747.13 473.26,-754.2 467.29,-758.25"/>
</a>
</g>
<text text-anchor="middle" x="487.5" y="-779" font-family="Helvetica,sans-Serif" font-size="10.00" fill="grey"> #handle</text>
</g>
<!-- Node9&#45;&gt;Node9 -->
<g id="edge12_Node000009_Node000009" class="edge">
<title>Node9&#45;&gt;Node9</title>
<g id="a_edge12_Node000009_Node000009"><a xlink:title=" ">
<path fill="none" stroke="#63b8ff" d="M407.59,-1272.72C418.6,-1259.74 425.5,-1239.17 425.5,-1211 425.5,-1189.22 421.37,-1171.97 414.41,-1159.27"/>
<polygon fill="none" stroke="#63b8ff" points="414.35,-1159.19 407.66,-1156.49 407.59,-1149.28 414.27,-1151.98 414.35,-1159.19"/>
</a>
</g>
<text text-anchor="middle" x="442.5" y="-1208.5" font-family="Helvetica,sans-Serif" font-size="10.00" fill="grey"> +Zero</text>
</g>
<!-- Node10 -->
<g id="Node000010" class="node">
<title>Node10</title>
<g id="a_Node000010"><a xlink:title=" ">
<polygon fill="white" stroke="transparent" points="197.5,-1713 54.5,-1713 54.5,-1653 197.5,-1653 197.5,-1713"/>
<text text-anchor="start" x="60" y="-1701" font-family="Helvetica,sans-Serif" font-size="10.00">global::SystemRuntime</text>
<text text-anchor="start" x="60" y="-1690" font-family="Helvetica,sans-Serif" font-size="10.00">::Serialization::ISerializable</text>
<text text-anchor="start" x="124.5" y="-1675" font-family="Helvetica,sans-Serif" font-size="10.00"> </text>
<text text-anchor="start" x="124.5" y="-1660" font-family="Helvetica,sans-Serif" font-size="10.00"> </text>
<polygon fill="#666666" stroke="#666666" points="55,-1685 55,-1685 198,-1685 198,-1685 55,-1685"/>
<polygon fill="#666666" stroke="#666666" points="55,-1670 55,-1670 198,-1670 198,-1670 55,-1670"/>
<polygon fill="none" stroke="#666666" points="54.5,-1653 54.5,-1713 197.5,-1713 197.5,-1653 54.5,-1653"/>
</a>
</g>
</g>
<!-- Node10&#45;&gt;Node9 -->
<g id="edge9_Node000009_Node000010" class="edge">
<title>Node10&#45;&gt;Node9</title>
<g id="a_edge9_Node000009_Node000010"><a xlink:title=" ">
<path fill="none" stroke="#63b8ff" d="M138.97,-1643.17C144.25,-1627.37 150.88,-1607.5 158.39,-1585.03"/>
<polygon fill="none" stroke="#63b8ff" points="135.55,-1642.36 135.7,-1652.95 142.19,-1644.58 135.55,-1642.36"/>
</a>
</g>
</g>
<!-- Node11 -->
<g id="Node000011" class="node">
<title>Node11</title>
<g id="a_Node000011"><a xlink:title=" ">
<polygon fill="white" stroke="transparent" points="350.5,-1713 215.5,-1713 215.5,-1653 350.5,-1653 350.5,-1713"/>
<text text-anchor="start" x="221" y="-1701" font-family="Helvetica,sans-Serif" font-size="10.00">global::SystemIEquatable</text>
<text text-anchor="start" x="221" y="-1690" font-family="Helvetica,sans-Serif" font-size="10.00">&lt; global::System.IntPtr &gt;</text>
<text text-anchor="start" x="281.5" y="-1675" font-family="Helvetica,sans-Serif" font-size="10.00"> </text>
<text text-anchor="start" x="281.5" y="-1660" font-family="Helvetica,sans-Serif" font-size="10.00"> </text>
<polygon fill="#666666" stroke="#666666" points="216,-1685 216,-1685 351,-1685 351,-1685 216,-1685"/>
<polygon fill="#666666" stroke="#666666" points="216,-1670 216,-1670 351,-1670 351,-1670 216,-1670"/>
<polygon fill="none" stroke="#666666" points="215.5,-1653 215.5,-1713 350.5,-1713 350.5,-1653 215.5,-1653"/>
</a>
</g>
</g>
<!-- Node11&#45;&gt;Node9 -->
<g id="edge10_Node000009_Node000011" class="edge">
<title>Node11&#45;&gt;Node9</title>
<g id="a_edge10_Node000009_Node000011"><a xlink:title=" ">
<path fill="none" stroke="#63b8ff" d="M283,-1642.68C283,-1632.2 283,-1619.96 283,-1606.37"/>
<polygon fill="none" stroke="#63b8ff" points="279.5,-1642.95 283,-1652.95 286.5,-1642.95 279.5,-1642.95"/>
</a>
</g>
</g>
<!-- Node12 -->
<g id="Node000012" class="node">
<title>Node12</title>
<g id="a_Node000012"><a xlink:title=" ">
<polygon fill="white" stroke="transparent" points="491,-1707.5 369,-1707.5 369,-1658.5 491,-1658.5 491,-1707.5"/>
<text text-anchor="start" x="374" y="-1695" font-family="Helvetica,sans-Serif" font-size="10.00">unsafe readonly void *</text>
<text text-anchor="start" x="428" y="-1680" font-family="Helvetica,sans-Serif" font-size="10.00"> </text>
<text text-anchor="start" x="428" y="-1665" font-family="Helvetica,sans-Serif" font-size="10.00"> </text>
<polygon fill="#666666" stroke="#666666" points="369,-1690 369,-1690 491,-1690 491,-1690 369,-1690"/>
<polygon fill="#666666" stroke="#666666" points="369,-1675 369,-1675 491,-1675 491,-1675 369,-1675"/>
<polygon fill="none" stroke="#666666" points="369,-1658.5 369,-1707.5 491,-1707.5 491,-1658.5 369,-1658.5"/>
</a>
</g>
</g>
<!-- Node12&#45;&gt;Node9 -->
<g id="edge11_Node000009_Node000012" class="edge">
<title>Node12&#45;&gt;Node9</title>
<g id="a_edge11_Node000009_Node000012"><a xlink:title=" ">
<path fill="none" stroke="#63b8ff" d="M422.61,-1658.37C419.27,-1647.71 414.94,-1633.84 409.87,-1617.63"/>
<polygon fill="none" stroke="#63b8ff" points="409.82,-1617.49 404.21,-1612.96 406.24,-1606.04 411.85,-1610.57 409.82,-1617.49"/>
</a>
</g>
<text text-anchor="middle" x="439.5" y="-1627" font-family="Helvetica,sans-Serif" font-size="10.00" fill="grey"> &#45;m_value</text>
</g>
<!-- Node13 -->
<g id="Node000013" class="node">
<title>Node13</title>
<g id="a_Node000013"><a xlink:title=" ">
<polygon fill="white" stroke="transparent" points="792.5,-1235.5 769.5,-1235.5 769.5,-1186.5 792.5,-1186.5 792.5,-1235.5"/>
<text text-anchor="start" x="775" y="-1223" font-family="Helvetica,sans-Serif" font-size="10.00">int</text>
<text text-anchor="start" x="779.5" y="-1208" font-family="Helvetica,sans-Serif" font-size="10.00"> </text>
<text text-anchor="start" x="779.5" y="-1193" font-family="Helvetica,sans-Serif" font-size="10.00"> </text>
<polygon fill="#666666" stroke="#666666" points="770,-1218 770,-1218 793,-1218 793,-1218 770,-1218"/>
<polygon fill="#666666" stroke="#666666" points="770,-1203 770,-1203 793,-1203 793,-1203 770,-1203"/>
<polygon fill="none" stroke="#666666" points="769.5,-1186.5 769.5,-1235.5 792.5,-1235.5 792.5,-1186.5 769.5,-1186.5"/>
</a>
</g>
</g>
<!-- Node13&#45;&gt;Node1 -->
<g id="edge15_Node000001_Node000013" class="edge">
<title>Node13&#45;&gt;Node1</title>
<g id="a_edge15_Node000001_Node000013"><a xlink:title=" ">
<path fill="none" stroke="#63b8ff" d="M784.18,-1186.31C795.04,-1103.22 830,-817.24 830,-580 830,-580 830,-580 830,-188 830,-155.03 814.34,-122.12 797.33,-96.11"/>
<polygon fill="none" stroke="#63b8ff" points="797.29,-96.04 790.6,-93.34 790.52,-86.13 797.21,-88.83 797.29,-96.04"/>
</a>
</g>
<text text-anchor="middle" x="856" y="-330.5" font-family="Helvetica,sans-Serif" font-size="10.00" fill="grey"> &#45;s_current</text>
</g>
<!-- Node13&#45;&gt;Node6 -->
<g id="edge13_Node000006_Node000013" class="edge">
<title>Node13&#45;&gt;Node6</title>
<g id="a_edge13_Node000006_Node000013"><a xlink:title=" ">
<path fill="none" stroke="#63b8ff" d="M784,-1186.37C791.85,-1113.49 805.3,-889.62 694,-765 676.3,-745.19 657.74,-763.61 637,-747 636.9,-746.92 636.8,-746.84 636.71,-746.76"/>
<polygon fill="none" stroke="#63b8ff" points="636.9,-746.93 629.74,-746.03 627.82,-739.08 634.98,-739.98 636.9,-746.93"/>
</a>
</g>
<text text-anchor="middle" x="758" y="-790" font-family="Helvetica,sans-Serif" font-size="10.00" fill="grey"> &#45;RefCount_Mask</text>
<text text-anchor="middle" x="758" y="-779" font-family="Helvetica,sans-Serif" font-size="10.00" fill="grey">&#45;RefCount_One</text>
<text text-anchor="middle" x="758" y="-768" font-family="Helvetica,sans-Serif" font-size="10.00" fill="grey">&#45;_state</text>
</g>
<!-- Node14 -->
<g id="Node000014" class="node">
<title>Node14</title>
<g id="a_Node000014"><a xlink:title=" ">
<polygon fill="white" stroke="transparent" points="653,-1235.5 621,-1235.5 621,-1186.5 653,-1186.5 653,-1235.5"/>
<text text-anchor="start" x="626" y="-1223" font-family="Helvetica,sans-Serif" font-size="10.00">bool</text>
<text text-anchor="start" x="635" y="-1208" font-family="Helvetica,sans-Serif" font-size="10.00"> </text>
<text text-anchor="start" x="635" y="-1193" font-family="Helvetica,sans-Serif" font-size="10.00"> </text>
<polygon fill="#666666" stroke="#666666" points="621,-1218 621,-1218 653,-1218 653,-1218 621,-1218"/>
<polygon fill="#666666" stroke="#666666" points="621,-1203 621,-1203 653,-1203 653,-1203 621,-1203"/>
<polygon fill="none" stroke="#666666" points="621,-1186.5 621,-1235.5 653,-1235.5 653,-1186.5 621,-1186.5"/>
</a>
</g>
</g>
<!-- Node14&#45;&gt;Node6 -->
<g id="edge14_Node000006_Node000014" class="edge">
<title>Node14&#45;&gt;Node6</title>
<g id="a_edge14_Node000006_Node000014"><a xlink:title=" ">
<path fill="none" stroke="#63b8ff" d="M637.4,-1186.23C638.04,-1124.56 637.18,-954.58 612,-816 608.61,-797.33 604.23,-778.05 599.32,-758.93"/>
<polygon fill="none" stroke="#63b8ff" points="599.25,-758.67 593.85,-753.88 596.19,-747.06 601.59,-751.84 599.25,-758.67"/>
</a>
</g>
<text text-anchor="middle" x="649" y="-784.5" font-family="Helvetica,sans-Serif" font-size="10.00" fill="grey"> &#45;_fullyInitialized</text>
<text text-anchor="middle" x="649" y="-773.5" font-family="Helvetica,sans-Serif" font-size="10.00" fill="grey">&#45;_ownsHandle</text>
</g>
</g>
</svg>

<g id="navigator" transform="translate(0 0)" fill="#404254">
  <rect fill="#f2f5e9" fill-opacity="0.5" stroke="#606060" stroke-width=".5" x="0" y="0" width="60" height="60"/>
  <use id="zoomplus" xlink:href="#zoomPlus" x="17" y="9" onmousedown="handleZoom(evt,'in')"/>
  <use id="zoomminus" xlink:href="#zoomMin" x="42" y="9" onmousedown="handleZoom(evt,'out')"/>
  <use id="reset" xlink:href="#resetDef" x="30" y="36" onmousedown="handleReset()"/>
   <use id="arrowup" xlink:href="#arrowUp" x="0" y="0" onmousedown="handlePan(0,-1)"/>
  <use id="arrowright" xlink:href="#arrowRight" x="0" y="0" onmousedown="handlePan(1,0)"/>
  <use id="arrowdown" xlink:href="#arrowDown" x="0" y="0" onmousedown="handlePan(0,1)"/>
  <use id="arrowleft" xlink:href="#arrowLeft" x="0" y="0" onmousedown="handlePan(-1,0)"/>
</g>
<svg viewBox="0 0 15 15" width="100%" height="30px" preserveAspectRatio="xMaxYMin meet">
 <g id="arrow_out" transform="scale(0.3 0.3)">
  <a xlink:href="classSystem_1_1Net_1_1Security_1_1SSPIHandleCache__coll__graph_org.svg" target="_base">
   <rect id="button" ry="5" rx="5" y="6" x="6" height="38" width="38"
        fill="#f2f5e9" fill-opacity="0.5" stroke="#606060" stroke-width="1.0"/>
   <path id="arrow"
     d="M 11.500037,31.436501 C 11.940474,20.09759 22.043105,11.32322 32.158766,21.979434 L 37.068811,17.246167 C 37.068811,17.246167 37.088388,32 37.088388,32 L 22.160133,31.978069 C 22.160133,31.978069 26.997745,27.140456 26.997745,27.140456 C 18.528582,18.264221 13.291696,25.230495 11.500037,31.436501 z"
     style="fill:#404040;"/>
  </a>
 </g>
</svg>

<style type='text/css'>
<![CDATA[
[data-mouse-over-selected='false'] { opacity: 0.7; }
[data-mouse-over-selected='true']  { opacity: 1.0; }
]]>
</style>
<script type="application/ecmascript"><![CDATA[
document.addEventListener('DOMContentLoaded', (event) => {
  highlightEdges();
  highlightAdjacentNodes();
});
]]></script>
</svg>
