<?xml version="1.0" encoding="UTF-8" standalone="no"?>
<!DOCTYPE svg PUBLIC "-//W3C//DTD SVG 1.1//EN"
 "http://www.w3.org/Graphics/SVG/1.1/DTD/svg11.dtd">
<!-- Generated by graphviz version 2.43.0 (0)
 -->
<!-- Title: System.Collections.CaseInsensitiveComparer Pages: 1 -->
<svg width="193pt" height="264pt"
 viewBox="0.00 0.00 193.00 264.00" xmlns="http://www.w3.org/2000/svg" xmlns:xlink="http://www.w3.org/1999/xlink">
<g id="graph0" class="graph" transform="scale(1 1) rotate(0) translate(4 260)">
<title>System.Collections.CaseInsensitiveComparer</title>
<!-- Node1 -->
<g id="Node000001" class="node">
<title>Node1</title>
<g id="a_Node000001"><a xlink:title=" ">
<polygon fill="#999999" stroke="transparent" points="185,-160 0,-160 0,0 185,0 185,-160"/>
<text text-anchor="start" x="5.5" y="-148" font-family="Helvetica,sans-Serif" font-size="10.00">System.Collections.CaseInsensitive</text>
<text text-anchor="start" x="68.5" y="-137" font-family="Helvetica,sans-Serif" font-size="10.00">Comparer</text>
<text text-anchor="start" x="6.5" y="-122" font-family="Helvetica,sans-Serif" font-size="10.00">+</text>
<text text-anchor="start" x="21.5" y="-122" font-family="Helvetica,sans-Serif" font-size="10.00">static CaseInsensitiveComparer</text>
<text text-anchor="start" x="21.5" y="-111" font-family="Helvetica,sans-Serif" font-size="10.00"> Default</text>
<text text-anchor="start" x="9" y="-96" font-family="Helvetica,sans-Serif" font-size="10.00">&#45;</text>
<text text-anchor="start" x="21.5" y="-96" font-family="Helvetica,sans-Serif" font-size="10.00">global::System.Globalization.</text>
<text text-anchor="start" x="21.5" y="-85" font-family="Helvetica,sans-Serif" font-size="10.00">CompareInfo _compareInfo</text>
<text text-anchor="start" x="6.5" y="-70" font-family="Helvetica,sans-Serif" font-size="10.00">+</text>
<text text-anchor="start" x="21.5" y="-70" font-family="Helvetica,sans-Serif" font-size="10.00">CaseInsensitiveComparer()</text>
<text text-anchor="start" x="6.5" y="-55" font-family="Helvetica,sans-Serif" font-size="10.00">+</text>
<text text-anchor="start" x="21.5" y="-55" font-family="Helvetica,sans-Serif" font-size="10.00">CaseInsensitiveComparer</text>
<text text-anchor="start" x="21.5" y="-44" font-family="Helvetica,sans-Serif" font-size="10.00">(global::System.Globalization.</text>
<text text-anchor="start" x="21.5" y="-33" font-family="Helvetica,sans-Serif" font-size="10.00">CultureInfo culture)</text>
<text text-anchor="start" x="6.5" y="-18" font-family="Helvetica,sans-Serif" font-size="10.00">+</text>
<text text-anchor="start" x="21.5" y="-18" font-family="Helvetica,sans-Serif" font-size="10.00">int Compare(object</text>
<text text-anchor="start" x="21.5" y="-7" font-family="Helvetica,sans-Serif" font-size="10.00"> a, object b)</text>
<polygon fill="#666666" stroke="#666666" points="0.5,-132 0.5,-132 185.5,-132 185.5,-132 0.5,-132"/>
<polygon fill="#666666" stroke="#666666" points="0.5,-80 0.5,-80 19.5,-80 19.5,-80 0.5,-80"/>
<polygon fill="#666666" stroke="#666666" points="19.5,-80 19.5,-80 185.5,-80 185.5,-80 19.5,-80"/>
<polygon fill="none" stroke="#666666" points="0,0 0,-160 185,-160 185,0 0,0"/>
</a>
</g>
</g>
<!-- Node2 -->
<g id="Node000002" class="node">
<title>Node2</title>
<g id="a_Node000002"><a xlink:href="../../da/dff/interfaceSystem_1_1Collections_1_1IComparer.html" target="_top" xlink:title=" ">
<polygon fill="white" stroke="transparent" points="150,-256 35,-256 35,-196 150,-196 150,-256"/>
<text text-anchor="start" x="67" y="-244" font-family="Helvetica,sans-Serif" font-size="10.00">IComparer</text>
<text text-anchor="start" x="91" y="-229" font-family="Helvetica,sans-Serif" font-size="10.00"> </text>
<text text-anchor="start" x="39.5" y="-214" font-family="Helvetica,sans-Serif" font-size="10.00">+</text>
<text text-anchor="start" x="52.5" y="-214" font-family="Helvetica,sans-Serif" font-size="10.00">int Compare(object</text>
<text text-anchor="start" x="52.5" y="-203" font-family="Helvetica,sans-Serif" font-size="10.00"> x, object y)</text>
<polygon fill="#666666" stroke="#666666" points="35.5,-239 35.5,-239 150.5,-239 150.5,-239 35.5,-239"/>
<polygon fill="#666666" stroke="#666666" points="35.5,-224 35.5,-224 150.5,-224 150.5,-224 35.5,-224"/>
<polygon fill="none" stroke="#666666" points="35,-196 35,-256 150,-256 150,-196 35,-196"/>
</a>
</g>
</g>
<!-- Node2&#45;&gt;Node1 -->
<g id="edge1_Node000001_Node000002" class="edge">
<title>Node2&#45;&gt;Node1</title>
<g id="a_edge1_Node000001_Node000002"><a xlink:title=" ">
<path fill="none" stroke="#63b8ff" d="M92.5,-185.76C92.5,-177.73 92.5,-169.02 92.5,-160.16"/>
<polygon fill="none" stroke="#63b8ff" points="89,-185.86 92.5,-195.86 96,-185.86 89,-185.86"/>
</a>
</g>
</g>
</g>
</svg>
