<?xml version="1.0" encoding="UTF-8" standalone="no"?>
<!DOCTYPE svg PUBLIC "-//W3C//DTD SVG 1.1//EN"
 "http://www.w3.org/Graphics/SVG/1.1/DTD/svg11.dtd">
<!-- Generated by graphviz version 2.43.0 (0)
 -->
<!-- Title: System.IO.TextWriter.SyncTextWriter Pages: 1 -->
<svg width="318pt" height="1360pt"
 viewBox="0.00 0.00 318.00 1360.00" xmlns="http://www.w3.org/2000/svg" xmlns:xlink="http://www.w3.org/1999/xlink">
<g id="graph0" class="graph" transform="scale(1 1) rotate(0) translate(4 1356)">
<title>System.IO.TextWriter.SyncTextWriter</title>
<!-- Node1 -->
<g id="Node000001" class="node">
<title>Node1</title>
<g id="a_Node000001"><a xlink:title=" ">
<polygon fill="#999999" stroke="transparent" points="271,-528 93,-528 93,0 271,0 271,-528"/>
<text text-anchor="start" x="117" y="-516" font-family="Helvetica,sans-Serif" font-size="10.00">System.IO.TextWriter.Sync</text>
<text text-anchor="start" x="156.5" y="-505" font-family="Helvetica,sans-Serif" font-size="10.00">TextWriter</text>
<text text-anchor="start" x="97" y="-490" font-family="Helvetica,sans-Serif" font-size="10.00">+</text>
<text text-anchor="start" x="110" y="-490" font-family="Helvetica,sans-Serif" font-size="10.00">override global::System.</text>
<text text-anchor="start" x="110" y="-479" font-family="Helvetica,sans-Serif" font-size="10.00">Text.Encoding Encoding</text>
<text text-anchor="start" x="97" y="-464" font-family="Helvetica,sans-Serif" font-size="10.00">+</text>
<text text-anchor="start" x="110" y="-464" font-family="Helvetica,sans-Serif" font-size="10.00">override global::System.</text>
<text text-anchor="start" x="110" y="-453" font-family="Helvetica,sans-Serif" font-size="10.00">IFormatProvider FormatProvider</text>
<text text-anchor="start" x="97" y="-438" font-family="Helvetica,sans-Serif" font-size="10.00">+</text>
<text text-anchor="start" x="110" y="-438" font-family="Helvetica,sans-Serif" font-size="10.00">override string NewLine</text>
<text text-anchor="start" x="99.5" y="-423" font-family="Helvetica,sans-Serif" font-size="10.00">&#45;</text>
<text text-anchor="start" x="110" y="-423" font-family="Helvetica,sans-Serif" font-size="10.00">readonly TextWriter _out</text>
<text text-anchor="start" x="97" y="-408" font-family="Helvetica,sans-Serif" font-size="10.00">+</text>
<text text-anchor="start" x="110" y="-408" font-family="Helvetica,sans-Serif" font-size="10.00">override void Close()</text>
<text text-anchor="start" x="97" y="-393" font-family="Helvetica,sans-Serif" font-size="10.00">+</text>
<text text-anchor="start" x="110" y="-393" font-family="Helvetica,sans-Serif" font-size="10.00">override void Flush()</text>
<text text-anchor="start" x="97" y="-378" font-family="Helvetica,sans-Serif" font-size="10.00">+</text>
<text text-anchor="start" x="110" y="-378" font-family="Helvetica,sans-Serif" font-size="10.00">override void Write</text>
<text text-anchor="start" x="110" y="-367" font-family="Helvetica,sans-Serif" font-size="10.00">(char value)</text>
<text text-anchor="start" x="97" y="-352" font-family="Helvetica,sans-Serif" font-size="10.00">+</text>
<text text-anchor="start" x="110" y="-352" font-family="Helvetica,sans-Serif" font-size="10.00">override void Write</text>
<text text-anchor="start" x="110" y="-341" font-family="Helvetica,sans-Serif" font-size="10.00">(char[] buffer)</text>
<text text-anchor="start" x="97" y="-326" font-family="Helvetica,sans-Serif" font-size="10.00">+</text>
<text text-anchor="start" x="110" y="-326" font-family="Helvetica,sans-Serif" font-size="10.00">override void Write</text>
<text text-anchor="start" x="110" y="-315" font-family="Helvetica,sans-Serif" font-size="10.00">(char[] buffer, int</text>
<text text-anchor="start" x="110" y="-304" font-family="Helvetica,sans-Serif" font-size="10.00"> index, int count)</text>
<text text-anchor="start" x="97" y="-289" font-family="Helvetica,sans-Serif" font-size="10.00">+</text>
<text text-anchor="start" x="110" y="-289" font-family="Helvetica,sans-Serif" font-size="10.00">override void Write</text>
<text text-anchor="start" x="110" y="-278" font-family="Helvetica,sans-Serif" font-size="10.00">(string value)</text>
<text text-anchor="start" x="97" y="-263" font-family="Helvetica,sans-Serif" font-size="10.00">+</text>
<text text-anchor="start" x="110" y="-263" font-family="Helvetica,sans-Serif" font-size="10.00">override void Write</text>
<text text-anchor="start" x="110" y="-252" font-family="Helvetica,sans-Serif" font-size="10.00">(string format, object arg0)</text>
<text text-anchor="start" x="97" y="-237" font-family="Helvetica,sans-Serif" font-size="10.00">+</text>
<text text-anchor="start" x="110" y="-237" font-family="Helvetica,sans-Serif" font-size="10.00">override void Write</text>
<text text-anchor="start" x="110" y="-226" font-family="Helvetica,sans-Serif" font-size="10.00">(string format, object</text>
<text text-anchor="start" x="110" y="-215" font-family="Helvetica,sans-Serif" font-size="10.00"> arg0, object arg1, object arg2)</text>
<text text-anchor="start" x="97" y="-200" font-family="Helvetica,sans-Serif" font-size="10.00">+</text>
<text text-anchor="start" x="110" y="-200" font-family="Helvetica,sans-Serif" font-size="10.00">override void WriteLine()</text>
<text text-anchor="start" x="97" y="-185" font-family="Helvetica,sans-Serif" font-size="10.00">+</text>
<text text-anchor="start" x="110" y="-185" font-family="Helvetica,sans-Serif" font-size="10.00">override void WriteLine</text>
<text text-anchor="start" x="110" y="-174" font-family="Helvetica,sans-Serif" font-size="10.00">(string value)</text>
<text text-anchor="start" x="97" y="-159" font-family="Helvetica,sans-Serif" font-size="10.00">+</text>
<text text-anchor="start" x="110" y="-159" font-family="Helvetica,sans-Serif" font-size="10.00">override void WriteLine</text>
<text text-anchor="start" x="110" y="-148" font-family="Helvetica,sans-Serif" font-size="10.00">(object value)</text>
<text text-anchor="start" x="97" y="-133" font-family="Helvetica,sans-Serif" font-size="10.00">+</text>
<text text-anchor="start" x="110" y="-133" font-family="Helvetica,sans-Serif" font-size="10.00">override void WriteLine</text>
<text text-anchor="start" x="110" y="-122" font-family="Helvetica,sans-Serif" font-size="10.00">(string format, object arg0)</text>
<text text-anchor="start" x="97" y="-107" font-family="Helvetica,sans-Serif" font-size="10.00">+</text>
<text text-anchor="start" x="110" y="-107" font-family="Helvetica,sans-Serif" font-size="10.00">override void WriteLine</text>
<text text-anchor="start" x="110" y="-96" font-family="Helvetica,sans-Serif" font-size="10.00">(string format, object</text>
<text text-anchor="start" x="110" y="-85" font-family="Helvetica,sans-Serif" font-size="10.00"> arg0, object arg1)</text>
<text text-anchor="start" x="97" y="-70" font-family="Helvetica,sans-Serif" font-size="10.00">+</text>
<text text-anchor="start" x="110" y="-70" font-family="Helvetica,sans-Serif" font-size="10.00">override void WriteLine</text>
<text text-anchor="start" x="110" y="-59" font-family="Helvetica,sans-Serif" font-size="10.00">(string format, params</text>
<text text-anchor="start" x="110" y="-48" font-family="Helvetica,sans-Serif" font-size="10.00"> object[] arg)</text>
<text text-anchor="start" x="97" y="-33" font-family="Helvetica,sans-Serif" font-size="10.00">~</text>
<text text-anchor="start" x="110" y="-33" font-family="Helvetica,sans-Serif" font-size="10.00">SyncTextWriter(TextWriter t)</text>
<text text-anchor="start" x="97" y="-18" font-family="Helvetica,sans-Serif" font-size="10.00">#</text>
<text text-anchor="start" x="110" y="-18" font-family="Helvetica,sans-Serif" font-size="10.00">override void Dispose</text>
<text text-anchor="start" x="110" y="-7" font-family="Helvetica,sans-Serif" font-size="10.00">(bool disposing)</text>
<polygon fill="#666666" stroke="#666666" points="93,-500 93,-500 271,-500 271,-500 93,-500"/>
<polygon fill="#666666" stroke="#666666" points="93,-418 93,-418 108,-418 108,-418 93,-418"/>
<polygon fill="#666666" stroke="#666666" points="108,-418 108,-418 271,-418 271,-418 108,-418"/>
<polygon fill="none" stroke="#666666" points="93,0 93,-528 271,-528 271,0 93,0"/>
</a>
</g>
</g>
<!-- Node2 -->
<g id="Node000002" class="node">
<title>Node2</title>
<g id="a_Node000002"><a xlink:href="../../d8/d05/classSystem_1_1IO_1_1TextWriter.html" target="_top" xlink:title=" ">
<polygon fill="white" stroke="transparent" points="211.5,-1256 36.5,-1256 36.5,-564 211.5,-564 211.5,-1256"/>
<text text-anchor="start" x="99" y="-1244" font-family="Helvetica,sans-Serif" font-size="10.00">TextWriter</text>
<text text-anchor="start" x="41" y="-1229" font-family="Helvetica,sans-Serif" font-size="10.00">+</text>
<text text-anchor="start" x="54" y="-1229" font-family="Helvetica,sans-Serif" font-size="10.00">static readonly TextWriter Null</text>
<text text-anchor="start" x="41" y="-1214" font-family="Helvetica,sans-Serif" font-size="10.00">+</text>
<text text-anchor="start" x="54" y="-1214" font-family="Helvetica,sans-Serif" font-size="10.00">virtual global::System.IFormat</text>
<text text-anchor="start" x="54" y="-1203" font-family="Helvetica,sans-Serif" font-size="10.00">Provider FormatProvider</text>
<text text-anchor="start" x="41" y="-1188" font-family="Helvetica,sans-Serif" font-size="10.00">+</text>
<text text-anchor="start" x="54" y="-1188" font-family="Helvetica,sans-Serif" font-size="10.00">global::System.Text.Encoding</text>
<text text-anchor="start" x="54" y="-1177" font-family="Helvetica,sans-Serif" font-size="10.00"> Encoding</text>
<text text-anchor="start" x="41" y="-1162" font-family="Helvetica,sans-Serif" font-size="10.00">+</text>
<text text-anchor="start" x="54" y="-1162" font-family="Helvetica,sans-Serif" font-size="10.00">virtual string NewLine</text>
<text text-anchor="start" x="41" y="-1147" font-family="Helvetica,sans-Serif" font-size="10.00">#</text>
<text text-anchor="start" x="54" y="-1147" font-family="Helvetica,sans-Serif" font-size="10.00">char[] CoreNewLine</text>
<text text-anchor="start" x="43.5" y="-1132" font-family="Helvetica,sans-Serif" font-size="10.00">&#45;</text>
<text text-anchor="start" x="54" y="-1132" font-family="Helvetica,sans-Serif" font-size="10.00">string CoreNewLineStr</text>
<text text-anchor="start" x="43.5" y="-1117" font-family="Helvetica,sans-Serif" font-size="10.00">&#45;</text>
<text text-anchor="start" x="54" y="-1117" font-family="Helvetica,sans-Serif" font-size="10.00">global::System.IFormatProvider</text>
<text text-anchor="start" x="54" y="-1106" font-family="Helvetica,sans-Serif" font-size="10.00"> _internalFormatProvider</text>
<text text-anchor="start" x="43.5" y="-1091" font-family="Helvetica,sans-Serif" font-size="10.00">&#45;</text>
<text text-anchor="start" x="54" y="-1091" font-family="Helvetica,sans-Serif" font-size="10.00">static readonly char</text>
<text text-anchor="start" x="54" y="-1080" font-family="Helvetica,sans-Serif" font-size="10.00">[] s_coreNewLine</text>
<text text-anchor="start" x="41" y="-1065" font-family="Helvetica,sans-Serif" font-size="10.00">+</text>
<text text-anchor="start" x="54" y="-1065" font-family="Helvetica,sans-Serif" font-size="10.00">virtual void Close()</text>
<text text-anchor="start" x="41" y="-1050" font-family="Helvetica,sans-Serif" font-size="10.00">+</text>
<text text-anchor="start" x="54" y="-1050" font-family="Helvetica,sans-Serif" font-size="10.00">void Dispose()</text>
<text text-anchor="start" x="41" y="-1035" font-family="Helvetica,sans-Serif" font-size="10.00">+</text>
<text text-anchor="start" x="54" y="-1035" font-family="Helvetica,sans-Serif" font-size="10.00">virtual void Flush()</text>
<text text-anchor="start" x="41" y="-1020" font-family="Helvetica,sans-Serif" font-size="10.00">+</text>
<text text-anchor="start" x="54" y="-1020" font-family="Helvetica,sans-Serif" font-size="10.00">virtual void Write</text>
<text text-anchor="start" x="54" y="-1009" font-family="Helvetica,sans-Serif" font-size="10.00">(char value)</text>
<text text-anchor="start" x="41" y="-994" font-family="Helvetica,sans-Serif" font-size="10.00">+</text>
<text text-anchor="start" x="54" y="-994" font-family="Helvetica,sans-Serif" font-size="10.00">virtual void Write</text>
<text text-anchor="start" x="54" y="-983" font-family="Helvetica,sans-Serif" font-size="10.00">(char[] buffer)</text>
<text text-anchor="start" x="41" y="-968" font-family="Helvetica,sans-Serif" font-size="10.00">+</text>
<text text-anchor="start" x="54" y="-968" font-family="Helvetica,sans-Serif" font-size="10.00">virtual void Write</text>
<text text-anchor="start" x="54" y="-957" font-family="Helvetica,sans-Serif" font-size="10.00">(char[] buffer, int</text>
<text text-anchor="start" x="54" y="-946" font-family="Helvetica,sans-Serif" font-size="10.00"> index, int count)</text>
<text text-anchor="start" x="41" y="-931" font-family="Helvetica,sans-Serif" font-size="10.00">+</text>
<text text-anchor="start" x="54" y="-931" font-family="Helvetica,sans-Serif" font-size="10.00">virtual void Write</text>
<text text-anchor="start" x="54" y="-920" font-family="Helvetica,sans-Serif" font-size="10.00">(string value)</text>
<text text-anchor="start" x="41" y="-905" font-family="Helvetica,sans-Serif" font-size="10.00">+</text>
<text text-anchor="start" x="54" y="-905" font-family="Helvetica,sans-Serif" font-size="10.00">virtual void Write</text>
<text text-anchor="start" x="54" y="-894" font-family="Helvetica,sans-Serif" font-size="10.00">(string format, object arg0)</text>
<text text-anchor="start" x="41" y="-879" font-family="Helvetica,sans-Serif" font-size="10.00">+</text>
<text text-anchor="start" x="54" y="-879" font-family="Helvetica,sans-Serif" font-size="10.00">virtual void Write</text>
<text text-anchor="start" x="54" y="-868" font-family="Helvetica,sans-Serif" font-size="10.00">(string format, object</text>
<text text-anchor="start" x="54" y="-857" font-family="Helvetica,sans-Serif" font-size="10.00"> arg0, object arg1, object arg2)</text>
<text text-anchor="start" x="41" y="-842" font-family="Helvetica,sans-Serif" font-size="10.00">+</text>
<text text-anchor="start" x="54" y="-842" font-family="Helvetica,sans-Serif" font-size="10.00">virtual void WriteLine()</text>
<text text-anchor="start" x="41" y="-827" font-family="Helvetica,sans-Serif" font-size="10.00">+</text>
<text text-anchor="start" x="54" y="-827" font-family="Helvetica,sans-Serif" font-size="10.00">virtual void WriteLine</text>
<text text-anchor="start" x="54" y="-816" font-family="Helvetica,sans-Serif" font-size="10.00">(string value)</text>
<text text-anchor="start" x="41" y="-801" font-family="Helvetica,sans-Serif" font-size="10.00">+</text>
<text text-anchor="start" x="54" y="-801" font-family="Helvetica,sans-Serif" font-size="10.00">virtual void WriteLine</text>
<text text-anchor="start" x="54" y="-790" font-family="Helvetica,sans-Serif" font-size="10.00">(object value)</text>
<text text-anchor="start" x="41" y="-775" font-family="Helvetica,sans-Serif" font-size="10.00">+</text>
<text text-anchor="start" x="54" y="-775" font-family="Helvetica,sans-Serif" font-size="10.00">virtual void WriteLine</text>
<text text-anchor="start" x="54" y="-764" font-family="Helvetica,sans-Serif" font-size="10.00">(string format, object arg0)</text>
<text text-anchor="start" x="41" y="-749" font-family="Helvetica,sans-Serif" font-size="10.00">+</text>
<text text-anchor="start" x="54" y="-749" font-family="Helvetica,sans-Serif" font-size="10.00">virtual void WriteLine</text>
<text text-anchor="start" x="54" y="-738" font-family="Helvetica,sans-Serif" font-size="10.00">(string format, object</text>
<text text-anchor="start" x="54" y="-727" font-family="Helvetica,sans-Serif" font-size="10.00"> arg0, object arg1)</text>
<text text-anchor="start" x="41" y="-712" font-family="Helvetica,sans-Serif" font-size="10.00">+</text>
<text text-anchor="start" x="54" y="-712" font-family="Helvetica,sans-Serif" font-size="10.00">virtual void WriteLine</text>
<text text-anchor="start" x="54" y="-701" font-family="Helvetica,sans-Serif" font-size="10.00">(string format, params</text>
<text text-anchor="start" x="54" y="-690" font-family="Helvetica,sans-Serif" font-size="10.00"> object[] arg)</text>
<text text-anchor="start" x="41" y="-675" font-family="Helvetica,sans-Serif" font-size="10.00">+</text>
<text text-anchor="start" x="54" y="-675" font-family="Helvetica,sans-Serif" font-size="10.00">static TextWriter Synchronized</text>
<text text-anchor="start" x="54" y="-664" font-family="Helvetica,sans-Serif" font-size="10.00">(TextWriter writer)</text>
<text text-anchor="start" x="41" y="-649" font-family="Helvetica,sans-Serif" font-size="10.00">#</text>
<text text-anchor="start" x="54" y="-649" font-family="Helvetica,sans-Serif" font-size="10.00">TextWriter()</text>
<text text-anchor="start" x="41" y="-634" font-family="Helvetica,sans-Serif" font-size="10.00">#</text>
<text text-anchor="start" x="54" y="-634" font-family="Helvetica,sans-Serif" font-size="10.00">TextWriter(global</text>
<text text-anchor="start" x="54" y="-623" font-family="Helvetica,sans-Serif" font-size="10.00">::System.IFormatProvider</text>
<text text-anchor="start" x="54" y="-612" font-family="Helvetica,sans-Serif" font-size="10.00"> formatProvider)</text>
<text text-anchor="start" x="41" y="-597" font-family="Helvetica,sans-Serif" font-size="10.00">#</text>
<text text-anchor="start" x="54" y="-597" font-family="Helvetica,sans-Serif" font-size="10.00">virtual void Dispose</text>
<text text-anchor="start" x="54" y="-586" font-family="Helvetica,sans-Serif" font-size="10.00">(bool disposing)</text>
<text text-anchor="start" x="43.5" y="-571" font-family="Helvetica,sans-Serif" font-size="10.00">&#45;</text>
<text text-anchor="start" x="54" y="-571" font-family="Helvetica,sans-Serif" font-size="10.00">static TextWriter()</text>
<polygon fill="#666666" stroke="#666666" points="37,-1239 37,-1239 212,-1239 212,-1239 37,-1239"/>
<polygon fill="#666666" stroke="#666666" points="37,-1075 37,-1075 52,-1075 52,-1075 37,-1075"/>
<polygon fill="#666666" stroke="#666666" points="52,-1075 52,-1075 212,-1075 212,-1075 52,-1075"/>
<polygon fill="none" stroke="#666666" points="36.5,-564 36.5,-1256 211.5,-1256 211.5,-564 36.5,-564"/>
</a>
</g>
</g>
<!-- Node2&#45;&gt;Node1 -->
<g id="edge1_Node000001_Node000002" class="edge">
<title>Node2&#45;&gt;Node1</title>
<g id="a_edge1_Node000001_Node000002"><a xlink:title=" ">
<path fill="none" stroke="#63b8ff" d="M155.99,-553.84C156.76,-545.27 157.53,-536.73 158.29,-528.25"/>
<polygon fill="none" stroke="#63b8ff" points="152.49,-553.63 155.08,-563.91 159.46,-554.26 152.49,-553.63"/>
</a>
</g>
</g>
<!-- Node3 -->
<g id="Node000003" class="node">
<title>Node3</title>
<g id="a_Node000003"><a xlink:title=" ">
<polygon fill="white" stroke="transparent" points="152,-1352 0,-1352 0,-1292 152,-1292 152,-1352"/>
<text text-anchor="start" x="5" y="-1340" font-family="Helvetica,sans-Serif" font-size="10.00">global::SystemMarshalByRef</text>
<text text-anchor="start" x="60" y="-1329" font-family="Helvetica,sans-Serif" font-size="10.00">Object</text>
<text text-anchor="start" x="74" y="-1314" font-family="Helvetica,sans-Serif" font-size="10.00"> </text>
<text text-anchor="start" x="74" y="-1299" font-family="Helvetica,sans-Serif" font-size="10.00"> </text>
<polygon fill="#666666" stroke="#666666" points="0,-1324 0,-1324 152,-1324 152,-1324 0,-1324"/>
<polygon fill="#666666" stroke="#666666" points="0,-1309 0,-1309 152,-1309 152,-1309 0,-1309"/>
<polygon fill="none" stroke="#666666" points="0,-1292 0,-1352 152,-1352 152,-1292 0,-1292"/>
</a>
</g>
</g>
<!-- Node3&#45;&gt;Node2 -->
<g id="edge2_Node000002_Node000003" class="edge">
<title>Node3&#45;&gt;Node2</title>
<g id="a_edge2_Node000002_Node000003"><a xlink:title=" ">
<path fill="none" stroke="#63b8ff" d="M80.6,-1281.71C81.49,-1274.09 82.49,-1265.57 83.57,-1256.31"/>
<polygon fill="none" stroke="#63b8ff" points="77.1,-1281.5 79.41,-1291.84 84.05,-1282.32 77.1,-1281.5"/>
</a>
</g>
</g>
<!-- Node4 -->
<g id="Node000004" class="node">
<title>Node4</title>
<g id="a_Node000004"><a xlink:title=" ">
<polygon fill="white" stroke="transparent" points="310,-1346.5 170,-1346.5 170,-1297.5 310,-1297.5 310,-1346.5"/>
<text text-anchor="start" x="175" y="-1334" font-family="Helvetica,sans-Serif" font-size="10.00">global::SystemIDisposable</text>
<text text-anchor="start" x="238" y="-1319" font-family="Helvetica,sans-Serif" font-size="10.00"> </text>
<text text-anchor="start" x="238" y="-1304" font-family="Helvetica,sans-Serif" font-size="10.00"> </text>
<polygon fill="#666666" stroke="#666666" points="170,-1329 170,-1329 310,-1329 310,-1329 170,-1329"/>
<polygon fill="#666666" stroke="#666666" points="170,-1314 170,-1314 310,-1314 310,-1314 170,-1314"/>
<polygon fill="none" stroke="#666666" points="170,-1297.5 170,-1346.5 310,-1346.5 310,-1297.5 170,-1297.5"/>
</a>
</g>
</g>
<!-- Node4&#45;&gt;Node1 -->
<g id="edge4_Node000001_Node000004" class="edge">
<title>Node4&#45;&gt;Node1</title>
<g id="a_edge4_Node000001_Node000004"><a xlink:title=" ">
<path fill="none" stroke="#63b8ff" d="M240.31,-1287.28C241.03,-1180.88 241.35,-842.81 220,-564 219.1,-552.26 218.07,-540.28 216.93,-528.18"/>
<polygon fill="none" stroke="#63b8ff" points="236.81,-1287.38 240.23,-1297.41 243.81,-1287.44 236.81,-1287.38"/>
</a>
</g>
</g>
<!-- Node4&#45;&gt;Node2 -->
<g id="edge3_Node000002_Node000004" class="edge">
<title>Node4&#45;&gt;Node2</title>
<g id="a_edge3_Node000002_Node000004"><a xlink:title=" ">
<path fill="none" stroke="#63b8ff" d="M230.49,-1287.4C225.57,-1269.99 219.03,-1246.87 211.6,-1220.62"/>
<polygon fill="none" stroke="#63b8ff" points="227.26,-1288.81 233.35,-1297.48 233.99,-1286.91 227.26,-1288.81"/>
</a>
</g>
</g>
</g>
</svg>
