<?xml version="1.0" encoding="UTF-8" standalone="no"?>
<!DOCTYPE svg PUBLIC "-//W3C//DTD SVG 1.1//EN"
 "http://www.w3.org/Graphics/SVG/1.1/DTD/svg11.dtd">
<!-- Generated by graphviz version 2.43.0 (0)
 -->
<!-- Title: System.MonoAsyncCall Pages: 1 -->
<svg width="445pt" height="1045pt"
 viewBox="0.00 0.00 444.50 1045.00" xmlns="http://www.w3.org/2000/svg" xmlns:xlink="http://www.w3.org/1999/xlink">
<g id="graph0" class="graph" transform="scale(1 1) rotate(0) translate(4 1041)">
<title>System.MonoAsyncCall</title>
<!-- Node1 -->
<g id="Node000001" class="node">
<title>Node1</title>
<g id="a_Node000001"><a xlink:title=" ">
<polygon fill="#999999" stroke="transparent" points="166,-49 41,-49 41,0 166,0 166,-49"/>
<text text-anchor="start" x="46.5" y="-36.5" font-family="Helvetica,sans-Serif" font-size="10.00">System.MonoAsyncCall</text>
<text text-anchor="start" x="102" y="-21.5" font-family="Helvetica,sans-Serif" font-size="10.00"> </text>
<text text-anchor="start" x="50.5" y="-6.5" font-family="Helvetica,sans-Serif" font-size="10.00">+</text>
<text text-anchor="start" x="68.5" y="-6.5" font-family="Helvetica,sans-Serif" font-size="10.00">MonoAsyncCall()</text>
<polygon fill="#666666" stroke="#666666" points="41.5,-31.5 41.5,-31.5 166.5,-31.5 166.5,-31.5 41.5,-31.5"/>
<polygon fill="#666666" stroke="#666666" points="41.5,-16.5 41.5,-16.5 166.5,-16.5 166.5,-16.5 41.5,-16.5"/>
<polygon fill="none" stroke="#666666" points="41,0 41,-49 166,-49 166,0 41,0"/>
</a>
</g>
</g>
<!-- Node2 -->
<g id="Node000002" class="node">
<title>Node2</title>
<g id="a_Node000002"><a xlink:title=" ">
<polygon fill="white" stroke="transparent" points="86,-559.5 45,-559.5 45,-510.5 86,-510.5 86,-559.5"/>
<text text-anchor="start" x="50.5" y="-547" font-family="Helvetica,sans-Serif" font-size="10.00">object</text>
<text text-anchor="start" x="64" y="-532" font-family="Helvetica,sans-Serif" font-size="10.00"> </text>
<text text-anchor="start" x="64" y="-517" font-family="Helvetica,sans-Serif" font-size="10.00"> </text>
<polygon fill="#666666" stroke="#666666" points="45.5,-542 45.5,-542 86.5,-542 86.5,-542 45.5,-542"/>
<polygon fill="#666666" stroke="#666666" points="45.5,-527 45.5,-527 86.5,-527 86.5,-527 45.5,-527"/>
<polygon fill="none" stroke="#666666" points="45,-510.5 45,-559.5 86,-559.5 86,-510.5 45,-510.5"/>
</a>
</g>
</g>
<!-- Node2&#45;&gt;Node1 -->
<g id="edge1_Node000001_Node000002" class="edge">
<title>Node2&#45;&gt;Node1</title>
<g id="a_edge1_Node000001_Node000002"><a xlink:title=" ">
<path fill="none" stroke="#63b8ff" d="M67.19,-510.46C71.59,-449.33 83.8,-280.54 94.5,-140 96.51,-113.62 98.85,-83.82 100.64,-61.24"/>
<polygon fill="none" stroke="#63b8ff" points="100.65,-61.14 97.14,-54.84 101.6,-49.18 105.12,-55.48 100.65,-61.14"/>
</a>
</g>
<text text-anchor="middle" x="127" y="-114" font-family="Helvetica,sans-Serif" font-size="10.00" fill="grey"> &#45;cb_target</text>
<text text-anchor="middle" x="127" y="-103" font-family="Helvetica,sans-Serif" font-size="10.00" fill="grey">&#45;msg</text>
<text text-anchor="middle" x="127" y="-92" font-family="Helvetica,sans-Serif" font-size="10.00" fill="grey">&#45;out_args</text>
<text text-anchor="middle" x="127" y="-81" font-family="Helvetica,sans-Serif" font-size="10.00" fill="grey">&#45;res</text>
<text text-anchor="middle" x="127" y="-70" font-family="Helvetica,sans-Serif" font-size="10.00" fill="grey">&#45;state</text>
</g>
<!-- Node3 -->
<g id="Node000003" class="node">
<title>Node3</title>
<g id="a_Node000003"><a xlink:href="../../db/db4/structSystem_1_1IntPtr.html" target="_top" xlink:title=" ">
<polygon fill="white" stroke="transparent" points="353,-930 104,-930 104,-140 353,-140 353,-930"/>
<text text-anchor="start" x="195.5" y="-918" font-family="Helvetica,sans-Serif" font-size="10.00">System.IntPtr</text>
<text text-anchor="start" x="108.5" y="-903" font-family="Helvetica,sans-Serif" font-size="10.00">+</text>
<text text-anchor="start" x="121.5" y="-903" font-family="Helvetica,sans-Serif" font-size="10.00">static unsafe int Size</text>
<text text-anchor="start" x="108.5" y="-888" font-family="Helvetica,sans-Serif" font-size="10.00">+</text>
<text text-anchor="start" x="121.5" y="-888" font-family="Helvetica,sans-Serif" font-size="10.00">IntPtr(int value)</text>
<text text-anchor="start" x="108.5" y="-873" font-family="Helvetica,sans-Serif" font-size="10.00">+</text>
<text text-anchor="start" x="121.5" y="-873" font-family="Helvetica,sans-Serif" font-size="10.00">IntPtr(long value)</text>
<text text-anchor="start" x="108.5" y="-858" font-family="Helvetica,sans-Serif" font-size="10.00">+</text>
<text text-anchor="start" x="121.5" y="-858" font-family="Helvetica,sans-Serif" font-size="10.00">unsafe IntPtr(void</text>
<text text-anchor="start" x="121.5" y="-847" font-family="Helvetica,sans-Serif" font-size="10.00"> *value)</text>
<text text-anchor="start" x="108.5" y="-832" font-family="Helvetica,sans-Serif" font-size="10.00">+</text>
<text text-anchor="start" x="121.5" y="-832" font-family="Helvetica,sans-Serif" font-size="10.00">override bool Equals</text>
<text text-anchor="start" x="121.5" y="-821" font-family="Helvetica,sans-Serif" font-size="10.00">(object obj)</text>
<text text-anchor="start" x="108.5" y="-806" font-family="Helvetica,sans-Serif" font-size="10.00">+</text>
<text text-anchor="start" x="121.5" y="-806" font-family="Helvetica,sans-Serif" font-size="10.00">override int GetHashCode()</text>
<text text-anchor="start" x="108.5" y="-791" font-family="Helvetica,sans-Serif" font-size="10.00">+</text>
<text text-anchor="start" x="121.5" y="-791" font-family="Helvetica,sans-Serif" font-size="10.00">long ToInt64()</text>
<text text-anchor="start" x="108.5" y="-776" font-family="Helvetica,sans-Serif" font-size="10.00">+</text>
<text text-anchor="start" x="121.5" y="-776" font-family="Helvetica,sans-Serif" font-size="10.00">unsafe void * ToPointer()</text>
<text text-anchor="start" x="108.5" y="-761" font-family="Helvetica,sans-Serif" font-size="10.00">+</text>
<text text-anchor="start" x="121.5" y="-761" font-family="Helvetica,sans-Serif" font-size="10.00">override string ToString()</text>
<text text-anchor="start" x="108.5" y="-746" font-family="Helvetica,sans-Serif" font-size="10.00">+</text>
<text text-anchor="start" x="121.5" y="-746" font-family="Helvetica,sans-Serif" font-size="10.00">string ToString(string</text>
<text text-anchor="start" x="121.5" y="-735" font-family="Helvetica,sans-Serif" font-size="10.00"> format)</text>
<text text-anchor="start" x="108.5" y="-720" font-family="Helvetica,sans-Serif" font-size="10.00">+</text>
<text text-anchor="start" x="121.5" y="-720" font-family="Helvetica,sans-Serif" font-size="10.00">static unsafe bool</text>
<text text-anchor="start" x="121.5" y="-709" font-family="Helvetica,sans-Serif" font-size="10.00"> operator==(global::</text>
<text text-anchor="start" x="121.5" y="-698" font-family="Helvetica,sans-Serif" font-size="10.00">System.IntPtr value1,</text>
<text text-anchor="start" x="121.5" y="-687" font-family="Helvetica,sans-Serif" font-size="10.00"> global::System.IntPtr</text>
<text text-anchor="start" x="121.5" y="-676" font-family="Helvetica,sans-Serif" font-size="10.00"> value2)</text>
<text text-anchor="start" x="108.5" y="-661" font-family="Helvetica,sans-Serif" font-size="10.00">+</text>
<text text-anchor="start" x="121.5" y="-661" font-family="Helvetica,sans-Serif" font-size="10.00">static unsafe bool</text>
<text text-anchor="start" x="121.5" y="-650" font-family="Helvetica,sans-Serif" font-size="10.00"> operator!=(global::</text>
<text text-anchor="start" x="121.5" y="-639" font-family="Helvetica,sans-Serif" font-size="10.00">System.IntPtr value1,</text>
<text text-anchor="start" x="121.5" y="-628" font-family="Helvetica,sans-Serif" font-size="10.00"> global::System.IntPtr</text>
<text text-anchor="start" x="121.5" y="-617" font-family="Helvetica,sans-Serif" font-size="10.00"> value2)</text>
<text text-anchor="start" x="108.5" y="-602" font-family="Helvetica,sans-Serif" font-size="10.00">+</text>
<text text-anchor="start" x="121.5" y="-602" font-family="Helvetica,sans-Serif" font-size="10.00">static operator global</text>
<text text-anchor="start" x="121.5" y="-591" font-family="Helvetica,sans-Serif" font-size="10.00">::System.IntPtr(int value)</text>
<text text-anchor="start" x="108.5" y="-576" font-family="Helvetica,sans-Serif" font-size="10.00">+</text>
<text text-anchor="start" x="121.5" y="-576" font-family="Helvetica,sans-Serif" font-size="10.00">static operator global</text>
<text text-anchor="start" x="121.5" y="-565" font-family="Helvetica,sans-Serif" font-size="10.00">::System.IntPtr(long value)</text>
<text text-anchor="start" x="108.5" y="-550" font-family="Helvetica,sans-Serif" font-size="10.00">+</text>
<text text-anchor="start" x="121.5" y="-550" font-family="Helvetica,sans-Serif" font-size="10.00">static unsafe operator</text>
<text text-anchor="start" x="121.5" y="-539" font-family="Helvetica,sans-Serif" font-size="10.00"> global::System.IntPtr</text>
<text text-anchor="start" x="121.5" y="-528" font-family="Helvetica,sans-Serif" font-size="10.00">(void *value)</text>
<text text-anchor="start" x="108.5" y="-513" font-family="Helvetica,sans-Serif" font-size="10.00">+</text>
<text text-anchor="start" x="121.5" y="-513" font-family="Helvetica,sans-Serif" font-size="10.00">static operator int</text>
<text text-anchor="start" x="121.5" y="-502" font-family="Helvetica,sans-Serif" font-size="10.00">(global::System.IntPtr</text>
<text text-anchor="start" x="121.5" y="-491" font-family="Helvetica,sans-Serif" font-size="10.00"> value)</text>
<text text-anchor="start" x="108.5" y="-476" font-family="Helvetica,sans-Serif" font-size="10.00">+</text>
<text text-anchor="start" x="121.5" y="-476" font-family="Helvetica,sans-Serif" font-size="10.00">static operator long</text>
<text text-anchor="start" x="121.5" y="-465" font-family="Helvetica,sans-Serif" font-size="10.00">(global::System.IntPtr</text>
<text text-anchor="start" x="121.5" y="-454" font-family="Helvetica,sans-Serif" font-size="10.00"> value)</text>
<text text-anchor="start" x="108.5" y="-439" font-family="Helvetica,sans-Serif" font-size="10.00">+</text>
<text text-anchor="start" x="121.5" y="-439" font-family="Helvetica,sans-Serif" font-size="10.00">static unsafe operator</text>
<text text-anchor="start" x="121.5" y="-428" font-family="Helvetica,sans-Serif" font-size="10.00"> void *(global::System.IntPtr</text>
<text text-anchor="start" x="121.5" y="-417" font-family="Helvetica,sans-Serif" font-size="10.00"> value)</text>
<text text-anchor="start" x="108.5" y="-402" font-family="Helvetica,sans-Serif" font-size="10.00">+</text>
<text text-anchor="start" x="121.5" y="-402" font-family="Helvetica,sans-Serif" font-size="10.00">static global::System.Int</text>
<text text-anchor="start" x="121.5" y="-391" font-family="Helvetica,sans-Serif" font-size="10.00">Ptr Add(global::System.IntPtr</text>
<text text-anchor="start" x="121.5" y="-380" font-family="Helvetica,sans-Serif" font-size="10.00"> pointer, int offset)</text>
<text text-anchor="start" x="108.5" y="-365" font-family="Helvetica,sans-Serif" font-size="10.00">+</text>
<text text-anchor="start" x="121.5" y="-365" font-family="Helvetica,sans-Serif" font-size="10.00">static global::System.Int</text>
<text text-anchor="start" x="121.5" y="-354" font-family="Helvetica,sans-Serif" font-size="10.00">Ptr operator+(global::System.Int</text>
<text text-anchor="start" x="121.5" y="-343" font-family="Helvetica,sans-Serif" font-size="10.00">Ptr pointer, int offset)</text>
<text text-anchor="start" x="108.5" y="-328" font-family="Helvetica,sans-Serif" font-size="10.00">+</text>
<text text-anchor="start" x="121.5" y="-328" font-family="Helvetica,sans-Serif" font-size="10.00">static global::System.Int</text>
<text text-anchor="start" x="121.5" y="-317" font-family="Helvetica,sans-Serif" font-size="10.00">Ptr operator&#45;(global::System.Int</text>
<text text-anchor="start" x="121.5" y="-306" font-family="Helvetica,sans-Serif" font-size="10.00">Ptr pointer, int offset)</text>
<text text-anchor="start" x="108.5" y="-291" font-family="Helvetica,sans-Serif" font-size="10.00">~</text>
<text text-anchor="start" x="121.5" y="-291" font-family="Helvetica,sans-Serif" font-size="10.00">bool IsNull()</text>
<text text-anchor="start" x="111" y="-276" font-family="Helvetica,sans-Serif" font-size="10.00">&#45;</text>
<text text-anchor="start" x="121.5" y="-276" font-family="Helvetica,sans-Serif" font-size="10.00">IntPtr(global::System.Runtime.</text>
<text text-anchor="start" x="121.5" y="-265" font-family="Helvetica,sans-Serif" font-size="10.00">Serialization.SerializationInfo</text>
<text text-anchor="start" x="121.5" y="-254" font-family="Helvetica,sans-Serif" font-size="10.00"> info, global::System.Runtime.Serialization.</text>
<text text-anchor="start" x="121.5" y="-243" font-family="Helvetica,sans-Serif" font-size="10.00">StreamingContext context)</text>
<text text-anchor="start" x="111" y="-228" font-family="Helvetica,sans-Serif" font-size="10.00">&#45;</text>
<text text-anchor="start" x="121.5" y="-228" font-family="Helvetica,sans-Serif" font-size="10.00">void System.Runtime.Serialization.</text>
<text text-anchor="start" x="121.5" y="-217" font-family="Helvetica,sans-Serif" font-size="10.00">ISerializable. GetObjectData</text>
<text text-anchor="start" x="121.5" y="-206" font-family="Helvetica,sans-Serif" font-size="10.00">(global::System.Runtime.Serialization.</text>
<text text-anchor="start" x="121.5" y="-195" font-family="Helvetica,sans-Serif" font-size="10.00">SerializationInfo info, global::System.Runtime.</text>
<text text-anchor="start" x="121.5" y="-184" font-family="Helvetica,sans-Serif" font-size="10.00">Serialization.StreamingContext context)</text>
<text text-anchor="start" x="111" y="-169" font-family="Helvetica,sans-Serif" font-size="10.00">&#45;</text>
<text text-anchor="start" x="121.5" y="-169" font-family="Helvetica,sans-Serif" font-size="10.00">bool System.IEquatable</text>
<text text-anchor="start" x="121.5" y="-158" font-family="Helvetica,sans-Serif" font-size="10.00">&lt; System.IntPtr &gt;. Equals</text>
<text text-anchor="start" x="121.5" y="-147" font-family="Helvetica,sans-Serif" font-size="10.00">(global::System.IntPtr other)</text>
<polygon fill="#666666" stroke="#666666" points="104.5,-913 104.5,-913 353.5,-913 353.5,-913 104.5,-913"/>
<polygon fill="#666666" stroke="#666666" points="104.5,-898 104.5,-898 119.5,-898 119.5,-898 104.5,-898"/>
<polygon fill="#666666" stroke="#666666" points="119.5,-898 119.5,-898 353.5,-898 353.5,-898 119.5,-898"/>
<polygon fill="none" stroke="#666666" points="104,-140 104,-930 353,-930 353,-140 104,-140"/>
</a>
</g>
</g>
<!-- Node3&#45;&gt;Node1 -->
<g id="edge2_Node000001_Node000003" class="edge">
<title>Node3&#45;&gt;Node1</title>
<g id="a_edge2_Node000001_Node000003"><a xlink:title=" ">
<path fill="none" stroke="#63b8ff" d="M191.51,-139.86C182.21,-114.41 171,-89.86 157.5,-67 155.58,-63.74 153.3,-60.66 150.77,-57.74"/>
<polygon fill="none" stroke="#63b8ff" points="150.53,-57.51 143.46,-56.11 142.03,-49.04 149.1,-50.44 150.53,-57.51"/>
</a>
</g>
<text text-anchor="middle" x="211" y="-92" font-family="Helvetica,sans-Serif" font-size="10.00" fill="grey"> &#45;cb_method</text>
</g>
<!-- Node3&#45;&gt;Node3 -->
<g id="edge6_Node000003_Node000003" class="edge">
<title>Node3&#45;&gt;Node3</title>
<g id="a_edge6_Node000003_Node000003"><a xlink:title=" ">
<path fill="none" stroke="#63b8ff" d="M353.09,-596.72C364.1,-583.74 371,-563.17 371,-535 371,-513.22 366.87,-495.97 359.91,-483.27"/>
<polygon fill="none" stroke="#63b8ff" points="359.85,-483.19 353.16,-480.49 353.09,-473.28 359.77,-475.98 359.85,-483.19"/>
</a>
</g>
<text text-anchor="middle" x="388" y="-532.5" font-family="Helvetica,sans-Serif" font-size="10.00" fill="grey"> +Zero</text>
</g>
<!-- Node4 -->
<g id="Node000004" class="node">
<title>Node4</title>
<g id="a_Node000004"><a xlink:title=" ">
<polygon fill="white" stroke="transparent" points="143,-1037 0,-1037 0,-977 143,-977 143,-1037"/>
<text text-anchor="start" x="5.5" y="-1025" font-family="Helvetica,sans-Serif" font-size="10.00">global::SystemRuntime</text>
<text text-anchor="start" x="5.5" y="-1014" font-family="Helvetica,sans-Serif" font-size="10.00">::Serialization::ISerializable</text>
<text text-anchor="start" x="70" y="-999" font-family="Helvetica,sans-Serif" font-size="10.00"> </text>
<text text-anchor="start" x="70" y="-984" font-family="Helvetica,sans-Serif" font-size="10.00"> </text>
<polygon fill="#666666" stroke="#666666" points="0.5,-1009 0.5,-1009 143.5,-1009 143.5,-1009 0.5,-1009"/>
<polygon fill="#666666" stroke="#666666" points="0.5,-994 0.5,-994 143.5,-994 143.5,-994 0.5,-994"/>
<polygon fill="none" stroke="#666666" points="0,-977 0,-1037 143,-1037 143,-977 0,-977"/>
</a>
</g>
</g>
<!-- Node4&#45;&gt;Node3 -->
<g id="edge3_Node000003_Node000004" class="edge">
<title>Node4&#45;&gt;Node3</title>
<g id="a_edge3_Node000003_Node000004"><a xlink:title=" ">
<path fill="none" stroke="#63b8ff" d="M84.47,-967.17C89.75,-951.37 96.38,-931.5 103.89,-909.03"/>
<polygon fill="none" stroke="#63b8ff" points="81.05,-966.36 81.2,-976.95 87.69,-968.58 81.05,-966.36"/>
</a>
</g>
</g>
<!-- Node5 -->
<g id="Node000005" class="node">
<title>Node5</title>
<g id="a_Node000005"><a xlink:title=" ">
<polygon fill="white" stroke="transparent" points="296,-1037 161,-1037 161,-977 296,-977 296,-1037"/>
<text text-anchor="start" x="166.5" y="-1025" font-family="Helvetica,sans-Serif" font-size="10.00">global::SystemIEquatable</text>
<text text-anchor="start" x="166.5" y="-1014" font-family="Helvetica,sans-Serif" font-size="10.00">&lt; global::System.IntPtr &gt;</text>
<text text-anchor="start" x="227" y="-999" font-family="Helvetica,sans-Serif" font-size="10.00"> </text>
<text text-anchor="start" x="227" y="-984" font-family="Helvetica,sans-Serif" font-size="10.00"> </text>
<polygon fill="#666666" stroke="#666666" points="161.5,-1009 161.5,-1009 296.5,-1009 296.5,-1009 161.5,-1009"/>
<polygon fill="#666666" stroke="#666666" points="161.5,-994 161.5,-994 296.5,-994 296.5,-994 161.5,-994"/>
<polygon fill="none" stroke="#666666" points="161,-977 161,-1037 296,-1037 296,-977 161,-977"/>
</a>
</g>
</g>
<!-- Node5&#45;&gt;Node3 -->
<g id="edge4_Node000003_Node000005" class="edge">
<title>Node5&#45;&gt;Node3</title>
<g id="a_edge4_Node000003_Node000005"><a xlink:title=" ">
<path fill="none" stroke="#63b8ff" d="M228.5,-966.68C228.5,-956.2 228.5,-943.96 228.5,-930.37"/>
<polygon fill="none" stroke="#63b8ff" points="225,-966.95 228.5,-976.95 232,-966.95 225,-966.95"/>
</a>
</g>
</g>
<!-- Node6 -->
<g id="Node000006" class="node">
<title>Node6</title>
<g id="a_Node000006"><a xlink:title=" ">
<polygon fill="white" stroke="transparent" points="436.5,-1031.5 314.5,-1031.5 314.5,-982.5 436.5,-982.5 436.5,-1031.5"/>
<text text-anchor="start" x="319.5" y="-1019" font-family="Helvetica,sans-Serif" font-size="10.00">unsafe readonly void *</text>
<text text-anchor="start" x="373.5" y="-1004" font-family="Helvetica,sans-Serif" font-size="10.00"> </text>
<text text-anchor="start" x="373.5" y="-989" font-family="Helvetica,sans-Serif" font-size="10.00"> </text>
<polygon fill="#666666" stroke="#666666" points="314.5,-1014 314.5,-1014 436.5,-1014 436.5,-1014 314.5,-1014"/>
<polygon fill="#666666" stroke="#666666" points="314.5,-999 314.5,-999 436.5,-999 436.5,-999 314.5,-999"/>
<polygon fill="none" stroke="#666666" points="314.5,-982.5 314.5,-1031.5 436.5,-1031.5 436.5,-982.5 314.5,-982.5"/>
</a>
</g>
</g>
<!-- Node6&#45;&gt;Node3 -->
<g id="edge5_Node000003_Node000006" class="edge">
<title>Node6&#45;&gt;Node3</title>
<g id="a_edge5_Node000003_Node000006"><a xlink:title=" ">
<path fill="none" stroke="#63b8ff" d="M368.11,-982.37C364.77,-971.71 360.44,-957.84 355.37,-941.63"/>
<polygon fill="none" stroke="#63b8ff" points="355.32,-941.49 349.71,-936.96 351.74,-930.04 357.35,-934.57 355.32,-941.49"/>
</a>
</g>
<text text-anchor="middle" x="384" y="-951" font-family="Helvetica,sans-Serif" font-size="10.00" fill="grey"> &#45;m_value</text>
</g>
</g>
</svg>
