<?xml version="1.0" encoding="UTF-8" standalone="no"?>
<!DOCTYPE svg PUBLIC "-//W3C//DTD SVG 1.1//EN"
 "http://www.w3.org/Graphics/SVG/1.1/DTD/svg11.dtd">
<!-- Generated by graphviz version 2.43.0 (0)
 -->
<!-- Title: System.Enum.ValuesAndNames Pages: 1 -->
<svg width="175pt" height="164pt"
 viewBox="0.00 0.00 175.00 164.00" xmlns="http://www.w3.org/2000/svg" xmlns:xlink="http://www.w3.org/1999/xlink">
<g id="graph0" class="graph" transform="scale(1 1) rotate(0) translate(4 160)">
<title>System.Enum.ValuesAndNames</title>
<!-- Node1 -->
<g id="Node000001" class="node">
<title>Node1</title>
<g id="a_Node000001"><a xlink:title=" ">
<polygon fill="#999999" stroke="transparent" points="167,-60 0,-60 0,0 167,0 167,-60"/>
<text text-anchor="start" x="5.5" y="-48" font-family="Helvetica,sans-Serif" font-size="10.00">System.Enum.ValuesAndNames</text>
<text text-anchor="start" x="82" y="-33" font-family="Helvetica,sans-Serif" font-size="10.00"> </text>
<text text-anchor="start" x="10" y="-18" font-family="Helvetica,sans-Serif" font-size="10.00">+</text>
<text text-anchor="start" x="28.5" y="-18" font-family="Helvetica,sans-Serif" font-size="10.00">ValuesAndNames(ulong</text>
<text text-anchor="start" x="28.5" y="-7" font-family="Helvetica,sans-Serif" font-size="10.00">[] values, string[] names)</text>
<polygon fill="#666666" stroke="#666666" points="0.5,-43 0.5,-43 167.5,-43 167.5,-43 0.5,-43"/>
<polygon fill="#666666" stroke="#666666" points="0.5,-28 0.5,-28 167.5,-28 167.5,-28 0.5,-28"/>
<polygon fill="none" stroke="#666666" points="0,0 0,-60 167,-60 167,0 0,0"/>
</a>
</g>
</g>
<!-- Node2 -->
<g id="Node000002" class="node">
<title>Node2</title>
<g id="a_Node000002"><a xlink:href="../../d7/d2d/classulong.html" target="_top" xlink:title=" ">
<polygon fill="white" stroke="transparent" points="69.5,-156 31.5,-156 31.5,-107 69.5,-107 69.5,-156"/>
<text text-anchor="start" x="36.5" y="-143.5" font-family="Helvetica,sans-Serif" font-size="10.00">ulong</text>
<text text-anchor="start" x="48.5" y="-128.5" font-family="Helvetica,sans-Serif" font-size="10.00"> </text>
<text text-anchor="start" x="48.5" y="-113.5" font-family="Helvetica,sans-Serif" font-size="10.00"> </text>
<polygon fill="#666666" stroke="#666666" points="31.5,-138.5 31.5,-138.5 69.5,-138.5 69.5,-138.5 31.5,-138.5"/>
<polygon fill="#666666" stroke="#666666" points="31.5,-123.5 31.5,-123.5 69.5,-123.5 69.5,-123.5 31.5,-123.5"/>
<polygon fill="none" stroke="#666666" points="31.5,-107 31.5,-156 69.5,-156 69.5,-107 31.5,-107"/>
</a>
</g>
</g>
<!-- Node2&#45;&gt;Node1 -->
<g id="edge1_Node000001_Node000002" class="edge">
<title>Node2&#45;&gt;Node1</title>
<g id="a_edge1_Node000001_Node000002"><a xlink:title=" ">
<path fill="none" stroke="#63b8ff" d="M48.1,-106.77C47.9,-97.59 48.59,-87.12 51.5,-78 52.26,-75.61 53.19,-73.24 54.23,-70.89"/>
<polygon fill="none" stroke="#63b8ff" points="54.26,-70.84 53.55,-63.66 59.89,-60.24 60.61,-67.41 54.26,-70.84"/>
</a>
</g>
<text text-anchor="middle" x="73.5" y="-81" font-family="Helvetica,sans-Serif" font-size="10.00" fill="grey"> +Values</text>
</g>
<!-- Node3 -->
<g id="Node000003" class="node">
<title>Node3</title>
<g id="a_Node000003"><a xlink:title=" ">
<polygon fill="white" stroke="transparent" points="136.5,-156 98.5,-156 98.5,-107 136.5,-107 136.5,-156"/>
<text text-anchor="start" x="103.5" y="-143.5" font-family="Helvetica,sans-Serif" font-size="10.00">string</text>
<text text-anchor="start" x="115.5" y="-128.5" font-family="Helvetica,sans-Serif" font-size="10.00"> </text>
<text text-anchor="start" x="115.5" y="-113.5" font-family="Helvetica,sans-Serif" font-size="10.00"> </text>
<polygon fill="#666666" stroke="#666666" points="98.5,-138.5 98.5,-138.5 136.5,-138.5 136.5,-138.5 98.5,-138.5"/>
<polygon fill="#666666" stroke="#666666" points="98.5,-123.5 98.5,-123.5 136.5,-123.5 136.5,-123.5 98.5,-123.5"/>
<polygon fill="none" stroke="#666666" points="98.5,-107 98.5,-156 136.5,-156 136.5,-107 98.5,-107"/>
</a>
</g>
</g>
<!-- Node3&#45;&gt;Node1 -->
<g id="edge2_Node000001_Node000003" class="edge">
<title>Node3&#45;&gt;Node1</title>
<g id="a_edge2_Node000001_Node000003"><a xlink:title=" ">
<path fill="none" stroke="#63b8ff" d="M109.44,-106.92C105.85,-96.4 101.51,-83.71 97.42,-71.73"/>
<polygon fill="none" stroke="#63b8ff" points="97.32,-71.46 91.6,-67.07 93.44,-60.1 99.17,-64.49 97.32,-71.46"/>
</a>
</g>
<text text-anchor="middle" x="125.5" y="-81" font-family="Helvetica,sans-Serif" font-size="10.00" fill="grey"> +Names</text>
</g>
</g>
</svg>
