<?xml version="1.0" encoding="UTF-8" standalone="no"?>
<!DOCTYPE svg PUBLIC "-//W3C//DTD SVG 1.1//EN"
 "http://www.w3.org/Graphics/SVG/1.1/DTD/svg11.dtd">
<!-- Generated by graphviz version 2.43.0 (0)
 -->
<!-- Title: Terraria.GameContent.UI.GameTipsDisplay.GameTip Pages: 1 -->
<svg width="477pt" height="716pt"
 viewBox="0.00 0.00 477.00 716.00" xmlns="http://www.w3.org/2000/svg" xmlns:xlink="http://www.w3.org/1999/xlink">
<g id="graph0" class="graph" transform="scale(1 1) rotate(0) translate(4 712)">
<title>Terraria.GameContent.UI.GameTipsDisplay.GameTip</title>
<!-- Node1 -->
<g id="Node000001" class="node">
<title>Node1</title>
<g id="a_Node000001"><a xlink:title=" ">
<polygon fill="#999999" stroke="transparent" points="351,-149 205,-149 205,0 351,0 351,-149"/>
<text text-anchor="start" x="211.5" y="-136.5" font-family="Helvetica,sans-Serif" font-size="10.00">Terraria.GameContent.UI.</text>
<text text-anchor="start" x="211.5" y="-125.5" font-family="Helvetica,sans-Serif" font-size="10.00">GameTipsDisplay.GameTip</text>
<text text-anchor="start" x="209" y="-110.5" font-family="Helvetica,sans-Serif" font-size="10.00">+</text>
<text text-anchor="start" x="222" y="-110.5" font-family="Helvetica,sans-Serif" font-size="10.00">string Text</text>
<text text-anchor="start" x="209" y="-95.5" font-family="Helvetica,sans-Serif" font-size="10.00">+</text>
<text text-anchor="start" x="222" y="-95.5" font-family="Helvetica,sans-Serif" font-size="10.00">bool IsExpired(double</text>
<text text-anchor="start" x="222" y="-84.5" font-family="Helvetica,sans-Serif" font-size="10.00"> currentTime)</text>
<text text-anchor="start" x="209" y="-69.5" font-family="Helvetica,sans-Serif" font-size="10.00">+</text>
<text text-anchor="start" x="222" y="-69.5" font-family="Helvetica,sans-Serif" font-size="10.00">bool IsExpiring(double</text>
<text text-anchor="start" x="222" y="-58.5" font-family="Helvetica,sans-Serif" font-size="10.00"> currentTime)</text>
<text text-anchor="start" x="209" y="-43.5" font-family="Helvetica,sans-Serif" font-size="10.00">+</text>
<text text-anchor="start" x="222" y="-43.5" font-family="Helvetica,sans-Serif" font-size="10.00">GameTip(LocalizedText</text>
<text text-anchor="start" x="222" y="-32.5" font-family="Helvetica,sans-Serif" font-size="10.00"> text, double spawnTime)</text>
<text text-anchor="start" x="209" y="-17.5" font-family="Helvetica,sans-Serif" font-size="10.00">+</text>
<text text-anchor="start" x="222" y="-17.5" font-family="Helvetica,sans-Serif" font-size="10.00">void Update(double</text>
<text text-anchor="start" x="222" y="-6.5" font-family="Helvetica,sans-Serif" font-size="10.00"> currentTime)</text>
<polygon fill="#666666" stroke="#666666" points="205,-120.5 205,-120.5 351,-120.5 351,-120.5 205,-120.5"/>
<polygon fill="#666666" stroke="#666666" points="205,-105.5 205,-105.5 220,-105.5 220,-105.5 205,-105.5"/>
<polygon fill="#666666" stroke="#666666" points="220,-105.5 220,-105.5 351,-105.5 351,-105.5 220,-105.5"/>
<polygon fill="none" stroke="#666666" points="205,0 205,-149 351,-149 351,0 205,0"/>
</a>
</g>
</g>
<!-- Node2 -->
<g id="Node000002" class="node">
<title>Node2</title>
<g id="a_Node000002"><a xlink:title=" ">
<polygon fill="white" stroke="transparent" points="32,-467 0,-467 0,-418 32,-418 32,-467"/>
<text text-anchor="start" x="5" y="-454.5" font-family="Helvetica,sans-Serif" font-size="10.00">float</text>
<text text-anchor="start" x="14" y="-439.5" font-family="Helvetica,sans-Serif" font-size="10.00"> </text>
<text text-anchor="start" x="14" y="-424.5" font-family="Helvetica,sans-Serif" font-size="10.00"> </text>
<polygon fill="#666666" stroke="#666666" points="0,-449.5 0,-449.5 32,-449.5 32,-449.5 0,-449.5"/>
<polygon fill="#666666" stroke="#666666" points="0,-434.5 0,-434.5 32,-434.5 32,-434.5 0,-434.5"/>
<polygon fill="none" stroke="#666666" points="0,-418 0,-467 32,-467 32,-418 0,-418"/>
</a>
</g>
</g>
<!-- Node2&#45;&gt;Node1 -->
<g id="edge1_Node000001_Node000002" class="edge">
<title>Node2&#45;&gt;Node1</title>
<g id="a_edge1_Node000001_Node000002"><a xlink:title=" ">
<path fill="none" stroke="#63b8ff" d="M15.92,-417.92C16.58,-384.44 20.74,-321.75 41,-273 63.55,-218.74 76.12,-206.08 120,-167 141.95,-147.45 168.74,-130.05 193.98,-115.82"/>
<polygon fill="none" stroke="#63b8ff" points="194.17,-115.71 197.49,-109.31 204.68,-109.91 201.36,-116.31 194.17,-115.71"/>
</a>
</g>
<text text-anchor="middle" x="164.5" y="-247" font-family="Helvetica,sans-Serif" font-size="10.00" fill="grey"> +Duration</text>
<text text-anchor="middle" x="164.5" y="-236" font-family="Helvetica,sans-Serif" font-size="10.00" fill="grey">+ScreenAnchorX</text>
<text text-anchor="middle" x="164.5" y="-225" font-family="Helvetica,sans-Serif" font-size="10.00" fill="grey">&#45;APPEAR_FROM</text>
<text text-anchor="middle" x="164.5" y="-214" font-family="Helvetica,sans-Serif" font-size="10.00" fill="grey">&#45;APPEAR_TIME</text>
<text text-anchor="middle" x="164.5" y="-203" font-family="Helvetica,sans-Serif" font-size="10.00" fill="grey">&#45;APPEAR_TO</text>
<text text-anchor="middle" x="164.5" y="-192" font-family="Helvetica,sans-Serif" font-size="10.00" fill="grey">&#45;DISAPPEAR_TIME</text>
<text text-anchor="middle" x="164.5" y="-181" font-family="Helvetica,sans-Serif" font-size="10.00" fill="grey">&#45;DISAPPEAR_TO</text>
<text text-anchor="middle" x="164.5" y="-170" font-family="Helvetica,sans-Serif" font-size="10.00" fill="grey">&#45;DURATION</text>
</g>
<!-- Node3 -->
<g id="Node000003" class="node">
<title>Node3</title>
<g id="a_Node000003"><a xlink:href="../../d5/d73/classTerraria_1_1Localization_1_1LocalizedText.html" target="_top" xlink:title=" ">
<polygon fill="white" stroke="transparent" points="228,-612 50,-612 50,-273 228,-273 228,-612"/>
<text text-anchor="start" x="55" y="-599.5" font-family="Helvetica,sans-Serif" font-size="10.00">Terraria.Localization.LocalizedText</text>
<text text-anchor="start" x="55.5" y="-584.5" font-family="Helvetica,sans-Serif" font-size="10.00">+</text>
<text text-anchor="start" x="70" y="-584.5" font-family="Helvetica,sans-Serif" font-size="10.00">string Value</text>
<text text-anchor="start" x="55.5" y="-569.5" font-family="Helvetica,sans-Serif" font-size="10.00">+</text>
<text text-anchor="start" x="70" y="-569.5" font-family="Helvetica,sans-Serif" font-size="10.00">string FormatWith(object obj)</text>
<text text-anchor="start" x="55.5" y="-554.5" font-family="Helvetica,sans-Serif" font-size="10.00">+</text>
<text text-anchor="start" x="70" y="-554.5" font-family="Helvetica,sans-Serif" font-size="10.00">StringBuilder FormatWith</text>
<text text-anchor="start" x="70" y="-543.5" font-family="Helvetica,sans-Serif" font-size="10.00">(object obj, StringBuilder sb)</text>
<text text-anchor="start" x="55.5" y="-528.5" font-family="Helvetica,sans-Serif" font-size="10.00">+</text>
<text text-anchor="start" x="70" y="-528.5" font-family="Helvetica,sans-Serif" font-size="10.00">bool CanFormatWith</text>
<text text-anchor="start" x="70" y="-517.5" font-family="Helvetica,sans-Serif" font-size="10.00">(object obj)</text>
<text text-anchor="start" x="55.5" y="-502.5" font-family="Helvetica,sans-Serif" font-size="10.00">+</text>
<text text-anchor="start" x="70" y="-502.5" font-family="Helvetica,sans-Serif" font-size="10.00">NetworkText ToNetworkText()</text>
<text text-anchor="start" x="55.5" y="-487.5" font-family="Helvetica,sans-Serif" font-size="10.00">+</text>
<text text-anchor="start" x="70" y="-487.5" font-family="Helvetica,sans-Serif" font-size="10.00">NetworkText ToNetworkText</text>
<text text-anchor="start" x="70" y="-476.5" font-family="Helvetica,sans-Serif" font-size="10.00">(params object[] substitutions)</text>
<text text-anchor="start" x="55.5" y="-461.5" font-family="Helvetica,sans-Serif" font-size="10.00">+</text>
<text text-anchor="start" x="70" y="-461.5" font-family="Helvetica,sans-Serif" font-size="10.00">string Format(object</text>
<text text-anchor="start" x="70" y="-450.5" font-family="Helvetica,sans-Serif" font-size="10.00"> arg0)</text>
<text text-anchor="start" x="55.5" y="-435.5" font-family="Helvetica,sans-Serif" font-size="10.00">+</text>
<text text-anchor="start" x="70" y="-435.5" font-family="Helvetica,sans-Serif" font-size="10.00">string Format(object</text>
<text text-anchor="start" x="70" y="-424.5" font-family="Helvetica,sans-Serif" font-size="10.00"> arg0, object arg1)</text>
<text text-anchor="start" x="55.5" y="-409.5" font-family="Helvetica,sans-Serif" font-size="10.00">+</text>
<text text-anchor="start" x="70" y="-409.5" font-family="Helvetica,sans-Serif" font-size="10.00">string Format(object</text>
<text text-anchor="start" x="70" y="-398.5" font-family="Helvetica,sans-Serif" font-size="10.00"> arg0, object arg1, object arg2)</text>
<text text-anchor="start" x="55.5" y="-383.5" font-family="Helvetica,sans-Serif" font-size="10.00">+</text>
<text text-anchor="start" x="70" y="-383.5" font-family="Helvetica,sans-Serif" font-size="10.00">string Format(params</text>
<text text-anchor="start" x="70" y="-372.5" font-family="Helvetica,sans-Serif" font-size="10.00"> object[] args)</text>
<text text-anchor="start" x="55.5" y="-357.5" font-family="Helvetica,sans-Serif" font-size="10.00">+</text>
<text text-anchor="start" x="70" y="-357.5" font-family="Helvetica,sans-Serif" font-size="10.00">override string ToString()</text>
<text text-anchor="start" x="55.5" y="-342.5" font-family="Helvetica,sans-Serif" font-size="10.00">+</text>
<text text-anchor="start" x="70" y="-342.5" font-family="Helvetica,sans-Serif" font-size="10.00">static operator string</text>
<text text-anchor="start" x="70" y="-331.5" font-family="Helvetica,sans-Serif" font-size="10.00">(LocalizedText text)</text>
<text text-anchor="start" x="55.5" y="-316.5" font-family="Helvetica,sans-Serif" font-size="10.00">~</text>
<text text-anchor="start" x="70" y="-316.5" font-family="Helvetica,sans-Serif" font-size="10.00">LocalizedText(string</text>
<text text-anchor="start" x="70" y="-305.5" font-family="Helvetica,sans-Serif" font-size="10.00"> key, string text)</text>
<text text-anchor="start" x="55.5" y="-290.5" font-family="Helvetica,sans-Serif" font-size="10.00">~</text>
<text text-anchor="start" x="70" y="-290.5" font-family="Helvetica,sans-Serif" font-size="10.00">void SetValue(string</text>
<text text-anchor="start" x="70" y="-279.5" font-family="Helvetica,sans-Serif" font-size="10.00"> text)</text>
<polygon fill="#666666" stroke="#666666" points="50,-594.5 50,-594.5 228,-594.5 228,-594.5 50,-594.5"/>
<polygon fill="#666666" stroke="#666666" points="50,-579.5 50,-579.5 68,-579.5 68,-579.5 50,-579.5"/>
<polygon fill="#666666" stroke="#666666" points="68,-579.5 68,-579.5 228,-579.5 228,-579.5 68,-579.5"/>
<polygon fill="none" stroke="#666666" points="50,-273 50,-612 228,-612 228,-273 50,-273"/>
</a>
</g>
</g>
<!-- Node3&#45;&gt;Node1 -->
<g id="edge2_Node000001_Node000003" class="edge">
<title>Node3&#45;&gt;Node1</title>
<g id="a_edge2_Node000001_Node000003"><a xlink:title=" ">
<path fill="none" stroke="#63b8ff" d="M203.01,-272.96C217.79,-234.03 232.92,-194.21 245.67,-160.63"/>
<polygon fill="none" stroke="#63b8ff" points="245.82,-160.24 244.21,-153.21 250.08,-149.02 251.69,-156.05 245.82,-160.24"/>
</a>
</g>
<text text-anchor="middle" x="265" y="-208.5" font-family="Helvetica,sans-Serif" font-size="10.00" fill="grey"> &#45;_textKey</text>
</g>
<!-- Node3&#45;&gt;Node3 -->
<g id="edge3_Node000003_Node000003" class="edge">
<title>Node3&#45;&gt;Node3</title>
<g id="a_edge3_Node000003_Node000003"><a xlink:title=" ">
<path fill="none" stroke="#63b8ff" d="M228.37,-473.44C239.03,-467.81 246,-457.5 246,-442.5 246,-432.66 243,-424.83 237.92,-419.02"/>
<polygon fill="none" stroke="#63b8ff" points="237.82,-418.95 230.63,-418.41 228.37,-411.56 235.56,-412.1 237.82,-418.95"/>
</a>
</g>
<text text-anchor="middle" x="267.5" y="-440" font-family="Helvetica,sans-Serif" font-size="10.00" fill="grey"> +Empty</text>
</g>
<!-- Node4 -->
<g id="Node000004" class="node">
<title>Node4</title>
<g id="a_Node000004"><a xlink:title=" ">
<polygon fill="white" stroke="transparent" points="174.5,-708 103.5,-708 103.5,-659 174.5,-659 174.5,-708"/>
<text text-anchor="start" x="109" y="-695.5" font-family="Helvetica,sans-Serif" font-size="10.00">static Regex</text>
<text text-anchor="start" x="137.5" y="-680.5" font-family="Helvetica,sans-Serif" font-size="10.00"> </text>
<text text-anchor="start" x="137.5" y="-665.5" font-family="Helvetica,sans-Serif" font-size="10.00"> </text>
<polygon fill="#666666" stroke="#666666" points="104,-690.5 104,-690.5 175,-690.5 175,-690.5 104,-690.5"/>
<polygon fill="#666666" stroke="#666666" points="104,-675.5 104,-675.5 175,-675.5 175,-675.5 104,-675.5"/>
<polygon fill="none" stroke="#666666" points="103.5,-659 103.5,-708 174.5,-708 174.5,-659 103.5,-659"/>
</a>
</g>
</g>
<!-- Node4&#45;&gt;Node3 -->
<g id="edge4_Node000003_Node000004" class="edge">
<title>Node4&#45;&gt;Node3</title>
<g id="a_edge4_Node000003_Node000004"><a xlink:title=" ">
<path fill="none" stroke="#63b8ff" d="M139,-658.71C139,-649.26 139,-637.51 139,-624.41"/>
<polygon fill="none" stroke="#63b8ff" points="139,-624.03 135,-618.03 139,-612.03 143,-618.03 139,-624.03"/>
</a>
</g>
<text text-anchor="middle" x="189.5" y="-633" font-family="Helvetica,sans-Serif" font-size="10.00" fill="grey"> &#45;_substitutionRegex</text>
</g>
<!-- Node5 -->
<g id="Node000005" class="node">
<title>Node5</title>
<g id="a_Node000005"><a xlink:title=" ">
<polygon fill="white" stroke="transparent" points="317,-708 279,-708 279,-659 317,-659 317,-708"/>
<text text-anchor="start" x="284" y="-695.5" font-family="Helvetica,sans-Serif" font-size="10.00">string</text>
<text text-anchor="start" x="296" y="-680.5" font-family="Helvetica,sans-Serif" font-size="10.00"> </text>
<text text-anchor="start" x="296" y="-665.5" font-family="Helvetica,sans-Serif" font-size="10.00"> </text>
<polygon fill="#666666" stroke="#666666" points="279,-690.5 279,-690.5 317,-690.5 317,-690.5 279,-690.5"/>
<polygon fill="#666666" stroke="#666666" points="279,-675.5 279,-675.5 317,-675.5 317,-675.5 279,-675.5"/>
<polygon fill="none" stroke="#666666" points="279,-659 279,-708 317,-708 317,-659 279,-659"/>
</a>
</g>
</g>
<!-- Node5&#45;&gt;Node1 -->
<g id="edge6_Node000001_Node000005" class="edge">
<title>Node5&#45;&gt;Node1</title>
<g id="a_edge6_Node000001_Node000005"><a xlink:title=" ">
<path fill="none" stroke="#63b8ff" d="M300.01,-658.81C300.42,-652.99 300.79,-646.78 301,-641 301.18,-636.11 301.02,-634.89 301,-630 300.14,-424.2 315.65,-371.66 294,-167 293.8,-165.11 293.58,-163.19 293.35,-161.26"/>
<polygon fill="none" stroke="#63b8ff" points="293.34,-161.19 288.6,-155.76 291.79,-149.29 296.53,-154.72 293.34,-161.19"/>
</a>
</g>
<text text-anchor="middle" x="346" y="-440" font-family="Helvetica,sans-Serif" font-size="10.00" fill="grey"> &#45;_formattedText</text>
</g>
<!-- Node5&#45;&gt;Node3 -->
<g id="edge5_Node000003_Node000005" class="edge">
<title>Node5&#45;&gt;Node3</title>
<g id="a_edge5_Node000003_Node000005"><a xlink:title=" ">
<path fill="none" stroke="#63b8ff" d="M282.17,-658.71C270.42,-641.04 253.31,-615.32 234.98,-587.77"/>
<polygon fill="none" stroke="#63b8ff" points="234.82,-587.53 228.17,-584.75 228.17,-577.54 234.83,-580.32 234.82,-587.53"/>
</a>
</g>
<text text-anchor="middle" x="282" y="-633" font-family="Helvetica,sans-Serif" font-size="10.00" fill="grey"> +Key</text>
</g>
<!-- Node6 -->
<g id="Node000006" class="node">
<title>Node6</title>
<g id="a_Node000006"><a xlink:title=" ">
<polygon fill="white" stroke="transparent" points="469,-467 425,-467 425,-418 469,-418 469,-467"/>
<text text-anchor="start" x="430" y="-454.5" font-family="Helvetica,sans-Serif" font-size="10.00">double</text>
<text text-anchor="start" x="445" y="-439.5" font-family="Helvetica,sans-Serif" font-size="10.00"> </text>
<text text-anchor="start" x="445" y="-424.5" font-family="Helvetica,sans-Serif" font-size="10.00"> </text>
<polygon fill="#666666" stroke="#666666" points="425,-449.5 425,-449.5 469,-449.5 469,-449.5 425,-449.5"/>
<polygon fill="#666666" stroke="#666666" points="425,-434.5 425,-434.5 469,-434.5 469,-434.5 425,-434.5"/>
<polygon fill="none" stroke="#666666" points="425,-418 425,-467 469,-467 469,-418 425,-418"/>
</a>
</g>
</g>
<!-- Node6&#45;&gt;Node1 -->
<g id="edge7_Node000001_Node000006" class="edge">
<title>Node6&#45;&gt;Node1</title>
<g id="a_edge7_Node000001_Node000006"><a xlink:title=" ">
<path fill="none" stroke="#63b8ff" d="M444.81,-417.75C441.09,-384.33 431.81,-322.01 411,-273 394.09,-233.17 368.77,-192.9 344.75,-159.2"/>
<polygon fill="none" stroke="#63b8ff" points="344.71,-159.15 337.96,-156.63 337.69,-149.42 344.44,-151.94 344.71,-159.15"/>
</a>
</g>
<text text-anchor="middle" x="434.5" y="-208.5" font-family="Helvetica,sans-Serif" font-size="10.00" fill="grey"> +SpawnTime</text>
</g>
</g>
</svg>
