<?xml version="1.0" encoding="UTF-8" standalone="no"?>
<!DOCTYPE svg PUBLIC "-//W3C//DTD SVG 1.1//EN"
 "http://www.w3.org/Graphics/SVG/1.1/DTD/svg11.dtd">
<!-- Generated by graphviz version 2.43.0 (0)
 -->
<!-- Title: System.Runtime.Serialization.SafeSerializationEventArgs Pages: 1 -->
<svg width="459pt" height="415pt"
 viewBox="0.00 0.00 458.50 415.00" xmlns="http://www.w3.org/2000/svg" xmlns:xlink="http://www.w3.org/1999/xlink">
<g id="graph0" class="graph" transform="scale(1 1) rotate(0) translate(4 411)">
<title>System.Runtime.Serialization.SafeSerializationEventArgs</title>
<!-- Node1 -->
<g id="Node000001" class="node">
<title>Node1</title>
<g id="a_Node000001"><a xlink:title=" ">
<polygon fill="#999999" stroke="transparent" points="337.5,-93 129.5,-93 129.5,0 337.5,0 337.5,-93"/>
<text text-anchor="start" x="159.5" y="-80.5" font-family="Helvetica,sans-Serif" font-size="10.00">System.Runtime.Serialization.</text>
<text text-anchor="start" x="167" y="-69.5" font-family="Helvetica,sans-Serif" font-size="10.00">SafeSerializationEventArgs</text>
<text text-anchor="start" x="133.5" y="-54.5" font-family="Helvetica,sans-Serif" font-size="10.00">+</text>
<text text-anchor="start" x="146.5" y="-54.5" font-family="Helvetica,sans-Serif" font-size="10.00">global::System.Collections.</text>
<text text-anchor="start" x="146.5" y="-43.5" font-family="Helvetica,sans-Serif" font-size="10.00">Generic.IList&lt; object &gt;</text>
<text text-anchor="start" x="146.5" y="-32.5" font-family="Helvetica,sans-Serif" font-size="10.00"> SerializedStates</text>
<text text-anchor="start" x="133.5" y="-17.5" font-family="Helvetica,sans-Serif" font-size="10.00">~</text>
<text text-anchor="start" x="146.5" y="-17.5" font-family="Helvetica,sans-Serif" font-size="10.00">SafeSerializationEventArgs</text>
<text text-anchor="start" x="146.5" y="-6.5" font-family="Helvetica,sans-Serif" font-size="10.00">(StreamingContext streamingContext)</text>
<polygon fill="#666666" stroke="#666666" points="129.5,-64.5 129.5,-64.5 337.5,-64.5 337.5,-64.5 129.5,-64.5"/>
<polygon fill="#666666" stroke="#666666" points="129.5,-27.5 129.5,-27.5 144.5,-27.5 144.5,-27.5 129.5,-27.5"/>
<polygon fill="#666666" stroke="#666666" points="144.5,-27.5 144.5,-27.5 337.5,-27.5 337.5,-27.5 144.5,-27.5"/>
<polygon fill="none" stroke="#666666" points="129.5,0 129.5,-93 337.5,-93 337.5,0 129.5,0"/>
</a>
</g>
</g>
<!-- Node2 -->
<g id="Node000002" class="node">
<title>Node2</title>
<g id="a_Node000002"><a xlink:title=" ">
<polygon fill="white" stroke="transparent" points="133,-244.5 0,-244.5 0,-195.5 133,-195.5 133,-244.5"/>
<text text-anchor="start" x="5.5" y="-232" font-family="Helvetica,sans-Serif" font-size="10.00">global::SystemEventArgs</text>
<text text-anchor="start" x="65" y="-217" font-family="Helvetica,sans-Serif" font-size="10.00"> </text>
<text text-anchor="start" x="65" y="-202" font-family="Helvetica,sans-Serif" font-size="10.00"> </text>
<polygon fill="#666666" stroke="#666666" points="0.5,-227 0.5,-227 133.5,-227 133.5,-227 0.5,-227"/>
<polygon fill="#666666" stroke="#666666" points="0.5,-212 0.5,-212 133.5,-212 133.5,-212 0.5,-212"/>
<polygon fill="none" stroke="#666666" points="0,-195.5 0,-244.5 133,-244.5 133,-195.5 0,-195.5"/>
</a>
</g>
</g>
<!-- Node2&#45;&gt;Node1 -->
<g id="edge1_Node000001_Node000002" class="edge">
<title>Node2&#45;&gt;Node1</title>
<g id="a_edge1_Node000001_Node000002"><a xlink:title=" ">
<path fill="none" stroke="#63b8ff" d="M96.08,-188.09C110.11,-173.47 127.13,-155.8 142.5,-140 157.42,-124.66 173.8,-107.97 188.5,-93.04"/>
<polygon fill="none" stroke="#63b8ff" points="93.44,-185.79 89.04,-195.43 98.49,-190.63 93.44,-185.79"/>
</a>
</g>
</g>
<!-- Node3 -->
<g id="Node000003" class="node">
<title>Node3</title>
<g id="a_Node000003"><a xlink:href="../../d7/df0/structSystem_1_1Runtime_1_1Serialization_1_1StreamingContext.html" target="_top" xlink:title=" ">
<polygon fill="white" stroke="transparent" points="315.5,-300 151.5,-300 151.5,-140 315.5,-140 315.5,-300"/>
<text text-anchor="start" x="159.5" y="-288" font-family="Helvetica,sans-Serif" font-size="10.00">System.Runtime.Serialization.</text>
<text text-anchor="start" x="189" y="-277" font-family="Helvetica,sans-Serif" font-size="10.00">StreamingContext</text>
<text text-anchor="start" x="155.5" y="-262" font-family="Helvetica,sans-Serif" font-size="10.00">+</text>
<text text-anchor="start" x="168.5" y="-262" font-family="Helvetica,sans-Serif" font-size="10.00">StreamingContextStates</text>
<text text-anchor="start" x="168.5" y="-251" font-family="Helvetica,sans-Serif" font-size="10.00"> State</text>
<text text-anchor="start" x="155.5" y="-236" font-family="Helvetica,sans-Serif" font-size="10.00">+</text>
<text text-anchor="start" x="168.5" y="-236" font-family="Helvetica,sans-Serif" font-size="10.00">StreamingContext(Streaming</text>
<text text-anchor="start" x="168.5" y="-225" font-family="Helvetica,sans-Serif" font-size="10.00">ContextStates state)</text>
<text text-anchor="start" x="155.5" y="-210" font-family="Helvetica,sans-Serif" font-size="10.00">+</text>
<text text-anchor="start" x="168.5" y="-210" font-family="Helvetica,sans-Serif" font-size="10.00">StreamingContext(Streaming</text>
<text text-anchor="start" x="168.5" y="-199" font-family="Helvetica,sans-Serif" font-size="10.00">ContextStates state, object</text>
<text text-anchor="start" x="168.5" y="-188" font-family="Helvetica,sans-Serif" font-size="10.00"> additional)</text>
<text text-anchor="start" x="155.5" y="-173" font-family="Helvetica,sans-Serif" font-size="10.00">+</text>
<text text-anchor="start" x="168.5" y="-173" font-family="Helvetica,sans-Serif" font-size="10.00">override bool Equals</text>
<text text-anchor="start" x="168.5" y="-162" font-family="Helvetica,sans-Serif" font-size="10.00">(object obj)</text>
<text text-anchor="start" x="155.5" y="-147" font-family="Helvetica,sans-Serif" font-size="10.00">+</text>
<text text-anchor="start" x="168.5" y="-147" font-family="Helvetica,sans-Serif" font-size="10.00">override int GetHashCode()</text>
<polygon fill="#666666" stroke="#666666" points="151.5,-272 151.5,-272 315.5,-272 315.5,-272 151.5,-272"/>
<polygon fill="#666666" stroke="#666666" points="151.5,-246 151.5,-246 166.5,-246 166.5,-246 151.5,-246"/>
<polygon fill="#666666" stroke="#666666" points="166.5,-246 166.5,-246 315.5,-246 315.5,-246 166.5,-246"/>
<polygon fill="none" stroke="#666666" points="151.5,-140 151.5,-300 315.5,-300 315.5,-140 151.5,-140"/>
</a>
</g>
</g>
<!-- Node3&#45;&gt;Node1 -->
<g id="edge2_Node000001_Node000003" class="edge">
<title>Node3&#45;&gt;Node1</title>
<g id="a_edge2_Node000001_Node000003"><a xlink:title=" ">
<path fill="none" stroke="#63b8ff" d="M233.5,-139.78C233.5,-128.17 233.5,-116.4 233.5,-105.34"/>
<polygon fill="none" stroke="#63b8ff" points="233.5,-105.18 229.5,-99.18 233.5,-93.18 237.5,-99.18 233.5,-105.18"/>
</a>
</g>
<text text-anchor="middle" x="288.5" y="-114" font-family="Helvetica,sans-Serif" font-size="10.00" fill="grey"> &#45;m_streamingContext</text>
</g>
<!-- Node4 -->
<g id="Node000004" class="node">
<title>Node4</title>
<g id="a_Node000004"><a xlink:title=" ">
<polygon fill="white" stroke="transparent" points="185,-401.5 144,-401.5 144,-352.5 185,-352.5 185,-401.5"/>
<text text-anchor="start" x="149.5" y="-389" font-family="Helvetica,sans-Serif" font-size="10.00">object</text>
<text text-anchor="start" x="163" y="-374" font-family="Helvetica,sans-Serif" font-size="10.00"> </text>
<text text-anchor="start" x="163" y="-359" font-family="Helvetica,sans-Serif" font-size="10.00"> </text>
<polygon fill="#666666" stroke="#666666" points="144.5,-384 144.5,-384 185.5,-384 185.5,-384 144.5,-384"/>
<polygon fill="#666666" stroke="#666666" points="144.5,-369 144.5,-369 185.5,-369 185.5,-369 144.5,-369"/>
<polygon fill="none" stroke="#666666" points="144,-352.5 144,-401.5 185,-401.5 185,-352.5 144,-352.5"/>
</a>
</g>
</g>
<!-- Node4&#45;&gt;Node3 -->
<g id="edge3_Node000003_Node000004" class="edge">
<title>Node4&#45;&gt;Node3</title>
<g id="a_edge3_Node000003_Node000004"><a xlink:title=" ">
<path fill="none" stroke="#63b8ff" d="M159.42,-352.33C158.09,-341.61 157.89,-328.91 161.5,-318 162.25,-315.72 163.08,-313.45 163.98,-311.2"/>
<polygon fill="none" stroke="#63b8ff" points="164.07,-311 162.89,-303.89 169,-300.06 170.18,-307.17 164.07,-311"/>
</a>
</g>
<text text-anchor="middle" x="218.5" y="-321" font-family="Helvetica,sans-Serif" font-size="10.00" fill="grey"> ~m_additionalContext</text>
</g>
<!-- Node5 -->
<g id="Node000005" class="node">
<title>Node5</title>
<g id="a_Node000005"><a xlink:title=" ">
<polygon fill="white" stroke="transparent" points="374,-407 229,-407 229,-347 374,-347 374,-407"/>
<text text-anchor="start" x="234.5" y="-395" font-family="Helvetica,sans-Serif" font-size="10.00">readonly StreamingContext</text>
<text text-anchor="start" x="286.5" y="-384" font-family="Helvetica,sans-Serif" font-size="10.00">States</text>
<text text-anchor="start" x="300" y="-369" font-family="Helvetica,sans-Serif" font-size="10.00"> </text>
<text text-anchor="start" x="300" y="-354" font-family="Helvetica,sans-Serif" font-size="10.00"> </text>
<polygon fill="#666666" stroke="#666666" points="229.5,-379 229.5,-379 374.5,-379 374.5,-379 229.5,-379"/>
<polygon fill="#666666" stroke="#666666" points="229.5,-364 229.5,-364 374.5,-364 374.5,-364 229.5,-364"/>
<polygon fill="none" stroke="#666666" points="229,-347 229,-407 374,-407 374,-347 229,-347"/>
</a>
</g>
</g>
<!-- Node5&#45;&gt;Node3 -->
<g id="edge4_Node000003_Node000005" class="edge">
<title>Node5&#45;&gt;Node3</title>
<g id="a_edge4_Node000003_Node000005"><a xlink:title=" ">
<path fill="none" stroke="#63b8ff" d="M290.99,-346.91C287.49,-337.61 283.47,-327.31 279.5,-318 278.57,-315.81 277.62,-313.6 276.65,-311.38"/>
<polygon fill="none" stroke="#63b8ff" points="276.54,-311.14 270.45,-307.27 271.68,-300.17 277.77,-304.03 276.54,-311.14"/>
</a>
</g>
<text text-anchor="middle" x="309.5" y="-321" font-family="Helvetica,sans-Serif" font-size="10.00" fill="grey"> ~m_state</text>
</g>
<!-- Node6 -->
<g id="Node000006" class="node">
<title>Node6</title>
<g id="a_Node000006"><a xlink:title=" ">
<polygon fill="white" stroke="transparent" points="399,-244.5 334,-244.5 334,-195.5 399,-195.5 399,-244.5"/>
<text text-anchor="start" x="339.5" y="-232" font-family="Helvetica,sans-Serif" font-size="10.00">Collections</text>
<text text-anchor="start" x="365" y="-217" font-family="Helvetica,sans-Serif" font-size="10.00"> </text>
<text text-anchor="start" x="365" y="-202" font-family="Helvetica,sans-Serif" font-size="10.00"> </text>
<polygon fill="#666666" stroke="#666666" points="334.5,-227 334.5,-227 399.5,-227 399.5,-227 334.5,-227"/>
<polygon fill="#666666" stroke="#666666" points="334.5,-212 334.5,-212 399.5,-212 399.5,-212 334.5,-212"/>
<polygon fill="none" stroke="#666666" points="334,-195.5 334,-244.5 399,-244.5 399,-195.5 334,-195.5"/>
</a>
</g>
</g>
<!-- Node6&#45;&gt;Node1 -->
<g id="edge5_Node000001_Node000006" class="edge">
<title>Node6&#45;&gt;Node1</title>
<g id="a_edge5_Node000001_Node000006"><a xlink:title=" ">
<path fill="none" stroke="#63b8ff" d="M367.11,-195.29C366.55,-171.79 362.44,-135.81 344.5,-111 342.13,-107.72 339.53,-104.58 336.74,-101.58"/>
<polygon fill="none" stroke="#63b8ff" points="336.52,-101.36 329.43,-100.06 327.9,-93.01 334.99,-94.32 336.52,-101.36"/>
</a>
</g>
<text text-anchor="middle" x="400.5" y="-114" font-family="Helvetica,sans-Serif" font-size="10.00" fill="grey"> &#45;m_serializedStates</text>
</g>
</g>
</svg>
