<?xml version="1.0" encoding="UTF-8" standalone="no"?>
<!DOCTYPE svg PUBLIC "-//W3C//DTD SVG 1.1//EN"
 "http://www.w3.org/Graphics/SVG/1.1/DTD/svg11.dtd">
<!-- Generated by graphviz version 2.43.0 (0)
 -->
<!-- Title: Terraria.GameContent.Animations.Segments.EmoteSegment Pages: 1 -->
<svg width="187pt" height="335pt"
 viewBox="0.00 0.00 187.00 335.00" xmlns="http://www.w3.org/2000/svg" xmlns:xlink="http://www.w3.org/1999/xlink">
<g id="graph0" class="graph" transform="scale(1 1) rotate(0) translate(4 331)">
<title>Terraria.GameContent.Animations.Segments.EmoteSegment</title>
<!-- Node1 -->
<g id="Node000001" class="node">
<title>Node1</title>
<g id="a_Node000001"><a xlink:title=" ">
<polygon fill="#999999" stroke="transparent" points="179,-231 0,-231 0,0 179,0 179,-231"/>
<text text-anchor="start" x="5.5" y="-218.5" font-family="Helvetica,sans-Serif" font-size="10.00">Terraria.GameContent.Animations.</text>
<text text-anchor="start" x="26.5" y="-207.5" font-family="Helvetica,sans-Serif" font-size="10.00">Segments.EmoteSegment</text>
<text text-anchor="start" x="6" y="-192.5" font-family="Helvetica,sans-Serif" font-size="10.00">+</text>
<text text-anchor="start" x="20.5" y="-192.5" font-family="Helvetica,sans-Serif" font-size="10.00">float DedicatedTimeNeeded</text>
<text text-anchor="start" x="8.5" y="-177.5" font-family="Helvetica,sans-Serif" font-size="10.00">&#45;</text>
<text text-anchor="start" x="20.5" y="-177.5" font-family="Helvetica,sans-Serif" font-size="10.00">int _targetTime</text>
<text text-anchor="start" x="8.5" y="-162.5" font-family="Helvetica,sans-Serif" font-size="10.00">&#45;</text>
<text text-anchor="start" x="20.5" y="-162.5" font-family="Helvetica,sans-Serif" font-size="10.00">Vector2 _offset</text>
<text text-anchor="start" x="8.5" y="-147.5" font-family="Helvetica,sans-Serif" font-size="10.00">&#45;</text>
<text text-anchor="start" x="20.5" y="-147.5" font-family="Helvetica,sans-Serif" font-size="10.00">SpriteEffects _effect</text>
<text text-anchor="start" x="8.5" y="-132.5" font-family="Helvetica,sans-Serif" font-size="10.00">&#45;</text>
<text text-anchor="start" x="20.5" y="-132.5" font-family="Helvetica,sans-Serif" font-size="10.00">int _emoteId</text>
<text text-anchor="start" x="8.5" y="-117.5" font-family="Helvetica,sans-Serif" font-size="10.00">&#45;</text>
<text text-anchor="start" x="20.5" y="-117.5" font-family="Helvetica,sans-Serif" font-size="10.00">Vector2 _velocity</text>
<text text-anchor="start" x="6" y="-102.5" font-family="Helvetica,sans-Serif" font-size="10.00">+</text>
<text text-anchor="start" x="20.5" y="-102.5" font-family="Helvetica,sans-Serif" font-size="10.00">EmoteSegment(int emoteId,</text>
<text text-anchor="start" x="20.5" y="-91.5" font-family="Helvetica,sans-Serif" font-size="10.00"> int targetTime, int timeToPlay,</text>
<text text-anchor="start" x="20.5" y="-80.5" font-family="Helvetica,sans-Serif" font-size="10.00"> Vector2 position, SpriteEffects</text>
<text text-anchor="start" x="20.5" y="-69.5" font-family="Helvetica,sans-Serif" font-size="10.00"> drawEffect, [Optional] Vector2</text>
<text text-anchor="start" x="20.5" y="-58.5" font-family="Helvetica,sans-Serif" font-size="10.00"> velocity)</text>
<text text-anchor="start" x="6" y="-43.5" font-family="Helvetica,sans-Serif" font-size="10.00">+</text>
<text text-anchor="start" x="20.5" y="-43.5" font-family="Helvetica,sans-Serif" font-size="10.00">void Draw(ref GameAnimation</text>
<text text-anchor="start" x="20.5" y="-32.5" font-family="Helvetica,sans-Serif" font-size="10.00">Segment info)</text>
<text text-anchor="start" x="8.5" y="-17.5" font-family="Helvetica,sans-Serif" font-size="10.00">&#45;</text>
<text text-anchor="start" x="20.5" y="-17.5" font-family="Helvetica,sans-Serif" font-size="10.00">Rectangle GetFrame</text>
<text text-anchor="start" x="20.5" y="-6.5" font-family="Helvetica,sans-Serif" font-size="10.00">(int wrappedTime)</text>
<polygon fill="#666666" stroke="#666666" points="0.5,-202.5 0.5,-202.5 179.5,-202.5 179.5,-202.5 0.5,-202.5"/>
<polygon fill="#666666" stroke="#666666" points="0.5,-112.5 0.5,-112.5 18.5,-112.5 18.5,-112.5 0.5,-112.5"/>
<polygon fill="#666666" stroke="#666666" points="18.5,-112.5 18.5,-112.5 179.5,-112.5 179.5,-112.5 18.5,-112.5"/>
<polygon fill="none" stroke="#666666" points="0,0 0,-231 179,-231 179,0 0,0"/>
</a>
</g>
</g>
<!-- Node2 -->
<g id="Node000002" class="node">
<title>Node2</title>
<g id="a_Node000002"><a xlink:href="../../da/d9c/interfaceTerraria_1_1GameContent_1_1Animations_1_1IAnimationSegment.html" target="_top" xlink:title=" ">
<polygon fill="white" stroke="transparent" points="175,-327 4,-327 4,-267 175,-267 175,-327"/>
<text text-anchor="start" x="41.5" y="-315" font-family="Helvetica,sans-Serif" font-size="10.00">IAnimationSegment</text>
<text text-anchor="start" x="8.5" y="-300" font-family="Helvetica,sans-Serif" font-size="10.00">+</text>
<text text-anchor="start" x="21.5" y="-300" font-family="Helvetica,sans-Serif" font-size="10.00">float DedicatedTimeNeeded</text>
<text text-anchor="start" x="8.5" y="-285" font-family="Helvetica,sans-Serif" font-size="10.00">+</text>
<text text-anchor="start" x="21.5" y="-285" font-family="Helvetica,sans-Serif" font-size="10.00">void Draw(ref GameAnimation</text>
<text text-anchor="start" x="21.5" y="-274" font-family="Helvetica,sans-Serif" font-size="10.00">Segment info)</text>
<polygon fill="#666666" stroke="#666666" points="4.5,-310 4.5,-310 175.5,-310 175.5,-310 4.5,-310"/>
<polygon fill="#666666" stroke="#666666" points="4.5,-295 4.5,-295 19.5,-295 19.5,-295 4.5,-295"/>
<polygon fill="#666666" stroke="#666666" points="19.5,-295 19.5,-295 175.5,-295 175.5,-295 19.5,-295"/>
<polygon fill="none" stroke="#666666" points="4,-267 4,-327 175,-327 175,-267 4,-267"/>
</a>
</g>
</g>
<!-- Node2&#45;&gt;Node1 -->
<g id="edge1_Node000001_Node000002" class="edge">
<title>Node2&#45;&gt;Node1</title>
<g id="a_edge1_Node000001_Node000002"><a xlink:title=" ">
<path fill="none" stroke="#63b8ff" d="M89.5,-256.63C89.5,-248.83 89.5,-240.28 89.5,-231.38"/>
<polygon fill="none" stroke="#63b8ff" points="86,-256.76 89.5,-266.76 93,-256.76 86,-256.76"/>
</a>
</g>
</g>
</g>
</svg>
