<?xml version="1.0" encoding="UTF-8" standalone="no"?>
<!DOCTYPE svg PUBLIC "-//W3C//DTD SVG 1.1//EN"
 "http://www.w3.org/Graphics/SVG/1.1/DTD/svg11.dtd">
<!-- Generated by graphviz version 2.43.0 (0)
 -->
<!-- Title: Terraria.GameContent.Bestiary.IFilterInfoProvider Pages: 1 -->
<svg width="456pt" height="732pt"
 viewBox="0.00 0.00 456.00 732.00" xmlns="http://www.w3.org/2000/svg" xmlns:xlink="http://www.w3.org/1999/xlink">
<g id="graph0" class="graph" transform="scale(1 1) rotate(0) translate(4 728)">
<title>Terraria.GameContent.Bestiary.IFilterInfoProvider</title>
<!-- Node1 -->
<g id="Node000001" class="node">
<title>Node1</title>
<g id="a_Node000001"><a xlink:title=" ">
<polygon fill="#999999" stroke="transparent" points="307,-724 144,-724 144,-612 307,-612 307,-724"/>
<text text-anchor="start" x="149.5" y="-712" font-family="Helvetica,sans-Serif" font-size="10.00">Terraria.GameContent.Bestiary.</text>
<text text-anchor="start" x="182" y="-701" font-family="Helvetica,sans-Serif" font-size="10.00">IFilterInfoProvider</text>
<text text-anchor="start" x="224" y="-686" font-family="Helvetica,sans-Serif" font-size="10.00"> </text>
<text text-anchor="start" x="149" y="-671" font-family="Helvetica,sans-Serif" font-size="10.00">+</text>
<text text-anchor="start" x="162.5" y="-671" font-family="Helvetica,sans-Serif" font-size="10.00">UIElement GetFilterImage()</text>
<text text-anchor="start" x="149" y="-656" font-family="Helvetica,sans-Serif" font-size="10.00">+</text>
<text text-anchor="start" x="162.5" y="-656" font-family="Helvetica,sans-Serif" font-size="10.00">string GetDisplayNameKey()</text>
<text text-anchor="start" x="149" y="-641" font-family="Helvetica,sans-Serif" font-size="10.00">+</text>
<text text-anchor="start" x="162.5" y="-641" font-family="Helvetica,sans-Serif" font-size="10.00">void GetDisplay(out</text>
<text text-anchor="start" x="162.5" y="-630" font-family="Helvetica,sans-Serif" font-size="10.00"> Texture2D texture,</text>
<text text-anchor="start" x="162.5" y="-619" font-family="Helvetica,sans-Serif" font-size="10.00"> out Rectangle frame)</text>
<polygon fill="#666666" stroke="#666666" points="144.5,-696 144.5,-696 307.5,-696 307.5,-696 144.5,-696"/>
<polygon fill="#666666" stroke="#666666" points="144.5,-681 144.5,-681 307.5,-681 307.5,-681 144.5,-681"/>
<polygon fill="none" stroke="#666666" points="144,-612 144,-724 307,-724 307,-612 144,-612"/>
</a>
</g>
</g>
<!-- Node2 -->
<g id="Node000002" class="node">
<title>Node2</title>
<g id="a_Node000002"><a xlink:href="../../d4/daa/classTerraria_1_1GameContent_1_1Bestiary_1_1FilterProviderInfoElement.html" target="_top" xlink:title=" ">
<polygon fill="white" stroke="transparent" points="318.5,-576 132.5,-576 132.5,-248 318.5,-248 318.5,-576"/>
<text text-anchor="start" x="149" y="-564" font-family="Helvetica,sans-Serif" font-size="10.00">Terraria.GameContent.Bestiary.</text>
<text text-anchor="start" x="163" y="-553" font-family="Helvetica,sans-Serif" font-size="10.00">FilterProviderInfoElement</text>
<text text-anchor="start" x="136.5" y="-538" font-family="Helvetica,sans-Serif" font-size="10.00">+</text>
<text text-anchor="start" x="149.5" y="-538" font-family="Helvetica,sans-Serif" font-size="10.00">Point _filterIconFrame</text>
<text text-anchor="start" x="136.5" y="-523" font-family="Helvetica,sans-Serif" font-size="10.00">+</text>
<text text-anchor="start" x="149.5" y="-523" font-family="Helvetica,sans-Serif" font-size="10.00">int DisplayTextPriority</text>
<text text-anchor="start" x="136.5" y="-508" font-family="Helvetica,sans-Serif" font-size="10.00">+</text>
<text text-anchor="start" x="149.5" y="-508" font-family="Helvetica,sans-Serif" font-size="10.00">bool HideInPortraitInfo</text>
<text text-anchor="start" x="139" y="-493" font-family="Helvetica,sans-Serif" font-size="10.00">&#45;</text>
<text text-anchor="start" x="149.5" y="-493" font-family="Helvetica,sans-Serif" font-size="10.00">string _key</text>
<text text-anchor="start" x="139" y="-478" font-family="Helvetica,sans-Serif" font-size="10.00">&#45;</text>
<text text-anchor="start" x="149.5" y="-478" font-family="Helvetica,sans-Serif" font-size="10.00">const int framesPerRow</text>
<text text-anchor="start" x="139" y="-463" font-family="Helvetica,sans-Serif" font-size="10.00">&#45;</text>
<text text-anchor="start" x="149.5" y="-463" font-family="Helvetica,sans-Serif" font-size="10.00">const int framesPerColumn</text>
<text text-anchor="start" x="136.5" y="-448" font-family="Helvetica,sans-Serif" font-size="10.00">+</text>
<text text-anchor="start" x="149.5" y="-448" font-family="Helvetica,sans-Serif" font-size="10.00">FilterProviderInfoElement</text>
<text text-anchor="start" x="149.5" y="-437" font-family="Helvetica,sans-Serif" font-size="10.00">(string nameLanguageKey,</text>
<text text-anchor="start" x="149.5" y="-426" font-family="Helvetica,sans-Serif" font-size="10.00"> int filterIconFrame)</text>
<text text-anchor="start" x="136.5" y="-411" font-family="Helvetica,sans-Serif" font-size="10.00">+</text>
<text text-anchor="start" x="149.5" y="-411" font-family="Helvetica,sans-Serif" font-size="10.00">UIElement GetFilterImage()</text>
<text text-anchor="start" x="136.5" y="-396" font-family="Helvetica,sans-Serif" font-size="10.00">+</text>
<text text-anchor="start" x="149.5" y="-396" font-family="Helvetica,sans-Serif" font-size="10.00">string GetSearchString</text>
<text text-anchor="start" x="149.5" y="-385" font-family="Helvetica,sans-Serif" font-size="10.00">(ref BestiaryUICollectionInfo info)</text>
<text text-anchor="start" x="136.5" y="-370" font-family="Helvetica,sans-Serif" font-size="10.00">+</text>
<text text-anchor="start" x="149.5" y="-370" font-family="Helvetica,sans-Serif" font-size="10.00">string GetDisplayNameKey()</text>
<text text-anchor="start" x="136.5" y="-355" font-family="Helvetica,sans-Serif" font-size="10.00">+</text>
<text text-anchor="start" x="149.5" y="-355" font-family="Helvetica,sans-Serif" font-size="10.00">UIElement ProvideUIElement</text>
<text text-anchor="start" x="149.5" y="-344" font-family="Helvetica,sans-Serif" font-size="10.00">(BestiaryUICollectionInfo info)</text>
<text text-anchor="start" x="136.5" y="-329" font-family="Helvetica,sans-Serif" font-size="10.00">+</text>
<text text-anchor="start" x="149.5" y="-329" font-family="Helvetica,sans-Serif" font-size="10.00">void GetDisplay(out</text>
<text text-anchor="start" x="149.5" y="-318" font-family="Helvetica,sans-Serif" font-size="10.00"> Texture2D texture,</text>
<text text-anchor="start" x="149.5" y="-307" font-family="Helvetica,sans-Serif" font-size="10.00"> out Rectangle frame)</text>
<text text-anchor="start" x="139" y="-292" font-family="Helvetica,sans-Serif" font-size="10.00">&#45;</text>
<text text-anchor="start" x="149.5" y="-292" font-family="Helvetica,sans-Serif" font-size="10.00">void AddOnHover(UIElement</text>
<text text-anchor="start" x="149.5" y="-281" font-family="Helvetica,sans-Serif" font-size="10.00"> button)</text>
<text text-anchor="start" x="139" y="-266" font-family="Helvetica,sans-Serif" font-size="10.00">&#45;</text>
<text text-anchor="start" x="149.5" y="-266" font-family="Helvetica,sans-Serif" font-size="10.00">void ShowButtonName</text>
<text text-anchor="start" x="149.5" y="-255" font-family="Helvetica,sans-Serif" font-size="10.00">(UIElement element)</text>
<polygon fill="#666666" stroke="#666666" points="132.5,-548 132.5,-548 318.5,-548 318.5,-548 132.5,-548"/>
<polygon fill="#666666" stroke="#666666" points="132.5,-458 132.5,-458 147.5,-458 147.5,-458 132.5,-458"/>
<polygon fill="#666666" stroke="#666666" points="147.5,-458 147.5,-458 318.5,-458 318.5,-458 147.5,-458"/>
<polygon fill="none" stroke="#666666" points="132.5,-248 132.5,-576 318.5,-576 318.5,-248 132.5,-248"/>
</a>
</g>
</g>
<!-- Node1&#45;&gt;Node2 -->
<g id="edge1_Node000001_Node000002" class="edge">
<title>Node1&#45;&gt;Node2</title>
<g id="a_edge1_Node000001_Node000002"><a xlink:title=" ">
<path fill="none" stroke="#63b8ff" d="M225.5,-601.8C225.5,-593.64 225.5,-585.03 225.5,-576.17"/>
<polygon fill="none" stroke="#63b8ff" points="222,-601.89 225.5,-611.89 229,-601.89 222,-601.89"/>
</a>
</g>
</g>
<!-- Node3 -->
<g id="Node000003" class="node">
<title>Node3</title>
<g id="a_Node000003"><a xlink:href="../../dc/d5a/classTerraria_1_1GameContent_1_1Bestiary_1_1SpawnConditionBestiaryInfoElement.html" target="_top" xlink:title=" ">
<polygon fill="white" stroke="transparent" points="219,-193.5 0,-193.5 0,-18.5 219,-18.5 219,-193.5"/>
<text text-anchor="start" x="20.5" y="-181" font-family="Helvetica,sans-Serif" font-size="10.00">Terraria.GameContent.Bestiary.</text>
<text text-anchor="start" x="20.5" y="-170" font-family="Helvetica,sans-Serif" font-size="10.00">SpawnConditionBestiaryInfoElement</text>
<text text-anchor="start" x="4.5" y="-155" font-family="Helvetica,sans-Serif" font-size="10.00">+</text>
<text text-anchor="start" x="17.5" y="-155" font-family="Helvetica,sans-Serif" font-size="10.00">float OrderPriority</text>
<text text-anchor="start" x="7" y="-140" font-family="Helvetica,sans-Serif" font-size="10.00">&#45;</text>
<text text-anchor="start" x="17.5" y="-140" font-family="Helvetica,sans-Serif" font-size="10.00">string _backgroundImagePath</text>
<text text-anchor="start" x="7" y="-125" font-family="Helvetica,sans-Serif" font-size="10.00">&#45;</text>
<text text-anchor="start" x="17.5" y="-125" font-family="Helvetica,sans-Serif" font-size="10.00">Color? _backgroundColor</text>
<text text-anchor="start" x="4.5" y="-110" font-family="Helvetica,sans-Serif" font-size="10.00">+</text>
<text text-anchor="start" x="17.5" y="-110" font-family="Helvetica,sans-Serif" font-size="10.00">SpawnConditionBestiaryInfo</text>
<text text-anchor="start" x="17.5" y="-99" font-family="Helvetica,sans-Serif" font-size="10.00">Element(string nameLanguageKey,</text>
<text text-anchor="start" x="17.5" y="-88" font-family="Helvetica,sans-Serif" font-size="10.00"> int filterIconFrame, [Optional]</text>
<text text-anchor="start" x="17.5" y="-77" font-family="Helvetica,sans-Serif" font-size="10.00"> string backgroundImagePath, [Optional]</text>
<text text-anchor="start" x="17.5" y="-66" font-family="Helvetica,sans-Serif" font-size="10.00"> Color? backgroundColor)</text>
<text text-anchor="start" x="4.5" y="-51" font-family="Helvetica,sans-Serif" font-size="10.00">+</text>
<text text-anchor="start" x="17.5" y="-51" font-family="Helvetica,sans-Serif" font-size="10.00">Asset&lt; Texture2D &gt;</text>
<text text-anchor="start" x="17.5" y="-40" font-family="Helvetica,sans-Serif" font-size="10.00"> GetBackgroundImage()</text>
<text text-anchor="start" x="4.5" y="-25" font-family="Helvetica,sans-Serif" font-size="10.00">+</text>
<text text-anchor="start" x="17.5" y="-25" font-family="Helvetica,sans-Serif" font-size="10.00">Color? GetBackgroundColor()</text>
<polygon fill="#666666" stroke="#666666" points="0.5,-165 0.5,-165 219.5,-165 219.5,-165 0.5,-165"/>
<polygon fill="#666666" stroke="#666666" points="0.5,-120 0.5,-120 15.5,-120 15.5,-120 0.5,-120"/>
<polygon fill="#666666" stroke="#666666" points="15.5,-120 15.5,-120 219.5,-120 219.5,-120 15.5,-120"/>
<polygon fill="none" stroke="#666666" points="0,-18.5 0,-193.5 219,-193.5 219,-18.5 0,-18.5"/>
</a>
</g>
</g>
<!-- Node2&#45;&gt;Node3 -->
<g id="edge2_Node000002_Node000003" class="edge">
<title>Node2&#45;&gt;Node3</title>
<g id="a_edge2_Node000002_Node000003"><a xlink:title=" ">
<path fill="none" stroke="#63b8ff" d="M159.58,-238.24C153.7,-222.82 147.92,-207.69 142.51,-193.5"/>
<polygon fill="none" stroke="#63b8ff" points="156.42,-239.78 163.26,-247.88 162.96,-237.29 156.42,-239.78"/>
</a>
</g>
</g>
<!-- Node4 -->
<g id="Node000004" class="node">
<title>Node4</title>
<g id="a_Node000004"><a xlink:href="../../d0/d2b/classTerraria_1_1GameContent_1_1Bestiary_1_1SpawnConditionBestiaryOverlayInfoElement.html" target="_top" xlink:title=" ">
<polygon fill="white" stroke="transparent" points="448,-212 237,-212 237,0 448,0 448,-212"/>
<text text-anchor="start" x="254.5" y="-200" font-family="Helvetica,sans-Serif" font-size="10.00">Terraria.GameContent.Bestiary.</text>
<text text-anchor="start" x="254.5" y="-189" font-family="Helvetica,sans-Serif" font-size="10.00">SpawnConditionBestiaryOverlayInfo</text>
<text text-anchor="start" x="322.5" y="-178" font-family="Helvetica,sans-Serif" font-size="10.00">Element</text>
<text text-anchor="start" x="241.5" y="-163" font-family="Helvetica,sans-Serif" font-size="10.00">+</text>
<text text-anchor="start" x="254.5" y="-163" font-family="Helvetica,sans-Serif" font-size="10.00">float DisplayPriority</text>
<text text-anchor="start" x="241.5" y="-148" font-family="Helvetica,sans-Serif" font-size="10.00">+</text>
<text text-anchor="start" x="254.5" y="-148" font-family="Helvetica,sans-Serif" font-size="10.00">float OrderPriority</text>
<text text-anchor="start" x="244" y="-133" font-family="Helvetica,sans-Serif" font-size="10.00">&#45;</text>
<text text-anchor="start" x="254.5" y="-133" font-family="Helvetica,sans-Serif" font-size="10.00">string _overlayImagePath</text>
<text text-anchor="start" x="244" y="-118" font-family="Helvetica,sans-Serif" font-size="10.00">&#45;</text>
<text text-anchor="start" x="254.5" y="-118" font-family="Helvetica,sans-Serif" font-size="10.00">Color? _overlayColor</text>
<text text-anchor="start" x="241.5" y="-103" font-family="Helvetica,sans-Serif" font-size="10.00">+</text>
<text text-anchor="start" x="254.5" y="-103" font-family="Helvetica,sans-Serif" font-size="10.00">SpawnConditionBestiaryOverlay</text>
<text text-anchor="start" x="254.5" y="-92" font-family="Helvetica,sans-Serif" font-size="10.00">InfoElement(string nameLanguageKey,</text>
<text text-anchor="start" x="254.5" y="-81" font-family="Helvetica,sans-Serif" font-size="10.00"> int filterIconFrame, [Optional]</text>
<text text-anchor="start" x="254.5" y="-70" font-family="Helvetica,sans-Serif" font-size="10.00"> string overlayImagePath, [Optional]</text>
<text text-anchor="start" x="254.5" y="-59" font-family="Helvetica,sans-Serif" font-size="10.00"> Color? overlayColor)</text>
<text text-anchor="start" x="241.5" y="-44" font-family="Helvetica,sans-Serif" font-size="10.00">+</text>
<text text-anchor="start" x="254.5" y="-44" font-family="Helvetica,sans-Serif" font-size="10.00">Asset&lt; Texture2D &gt;</text>
<text text-anchor="start" x="254.5" y="-33" font-family="Helvetica,sans-Serif" font-size="10.00"> GetBackgroundOverlayImage()</text>
<text text-anchor="start" x="241.5" y="-18" font-family="Helvetica,sans-Serif" font-size="10.00">+</text>
<text text-anchor="start" x="254.5" y="-18" font-family="Helvetica,sans-Serif" font-size="10.00">Color? GetBackgroundOverlay</text>
<text text-anchor="start" x="254.5" y="-7" font-family="Helvetica,sans-Serif" font-size="10.00">Color()</text>
<polygon fill="#666666" stroke="#666666" points="237.5,-173 237.5,-173 448.5,-173 448.5,-173 237.5,-173"/>
<polygon fill="#666666" stroke="#666666" points="237.5,-113 237.5,-113 252.5,-113 252.5,-113 237.5,-113"/>
<polygon fill="#666666" stroke="#666666" points="252.5,-113 252.5,-113 448.5,-113 448.5,-113 252.5,-113"/>
<polygon fill="none" stroke="#666666" points="237,0 237,-212 448,-212 448,0 237,0"/>
</a>
</g>
</g>
<!-- Node2&#45;&gt;Node4 -->
<g id="edge3_Node000002_Node000004" class="edge">
<title>Node2&#45;&gt;Node4</title>
<g id="a_edge3_Node000002_Node000004"><a xlink:title=" ">
<path fill="none" stroke="#63b8ff" d="M291.88,-238.53C295.32,-229.59 298.72,-220.75 302.04,-212.13"/>
<polygon fill="none" stroke="#63b8ff" points="288.61,-237.29 288.28,-247.88 295.14,-239.8 288.61,-237.29"/>
</a>
</g>
</g>
</g>
</svg>
