<?xml version="1.0" encoding="UTF-8" standalone="no"?>
<!DOCTYPE svg PUBLIC "-//W3C//DTD SVG 1.1//EN"
 "http://www.w3.org/Graphics/SVG/1.1/DTD/svg11.dtd">
<!-- Generated by graphviz version 2.43.0 (0)
 -->
<!-- Title: PlatformControllerDisplay Pages: 1 -->
<svg width="306pt" height="737pt"
 viewBox="0.00 0.00 305.50 737.00" xmlns="http://www.w3.org/2000/svg" xmlns:xlink="http://www.w3.org/1999/xlink">
<g id="graph0" class="graph" transform="scale(1 1) rotate(0) translate(4 733)">
<title>PlatformControllerDisplay</title>
<!-- Node1 -->
<g id="Node000001" class="node">
<title>Node1</title>
<g id="a_Node000001"><a xlink:title=" ">
<polygon fill="#999999" stroke="transparent" points="268.5,-75 112.5,-75 112.5,0 268.5,0 268.5,-75"/>
<text text-anchor="start" x="127" y="-62.5" font-family="Helvetica,sans-Serif" font-size="10.00">PlatformControllerDisplay</text>
<text text-anchor="start" x="188.5" y="-47.5" font-family="Helvetica,sans-Serif" font-size="10.00"> </text>
<text text-anchor="start" x="116.5" y="-32.5" font-family="Helvetica,sans-Serif" font-size="10.00">+</text>
<text text-anchor="start" x="129.5" y="-32.5" font-family="Helvetica,sans-Serif" font-size="10.00">ControllerDisplayState</text>
<text text-anchor="start" x="129.5" y="-21.5" font-family="Helvetica,sans-Serif" font-size="10.00"> DisplayedController()</text>
<text text-anchor="start" x="116.5" y="-6.5" font-family="Helvetica,sans-Serif" font-size="10.00">+</text>
<text text-anchor="start" x="129.5" y="-6.5" font-family="Helvetica,sans-Serif" font-size="10.00">PlatformControllerDisplay()</text>
<polygon fill="#666666" stroke="#666666" points="112.5,-57.5 112.5,-57.5 268.5,-57.5 268.5,-57.5 112.5,-57.5"/>
<polygon fill="#666666" stroke="#666666" points="112.5,-42.5 112.5,-42.5 268.5,-42.5 268.5,-42.5 112.5,-42.5"/>
<polygon fill="none" stroke="#666666" points="112.5,0 112.5,-75 268.5,-75 268.5,0 112.5,0"/>
</a>
</g>
</g>
<!-- Node2 -->
<g id="Node000002" class="node">
<title>Node2</title>
<g id="a_Node000002"><a xlink:href="../../de/d69/classSingleton.html" target="_top" xlink:title=" ">
<polygon fill="white" stroke="transparent" points="211.5,-380 53.5,-380 53.5,-133 211.5,-133 211.5,-380"/>
<text text-anchor="start" x="58.5" y="-367.5" font-family="Helvetica,sans-Serif" font-size="10.00">Singleton&lt; PlatformController</text>
<text text-anchor="start" x="108" y="-356.5" font-family="Helvetica,sans-Serif" font-size="10.00">Display &gt;</text>
<text text-anchor="start" x="60" y="-341.5" font-family="Helvetica,sans-Serif" font-size="10.00">+</text>
<text text-anchor="start" x="75.5" y="-341.5" font-family="Helvetica,sans-Serif" font-size="10.00">static T Instance</text>
<text text-anchor="start" x="62.5" y="-326.5" font-family="Helvetica,sans-Serif" font-size="10.00">&#45;</text>
<text text-anchor="start" x="75.5" y="-326.5" font-family="Helvetica,sans-Serif" font-size="10.00">static T _instance</text>
<text text-anchor="start" x="62.5" y="-311.5" font-family="Helvetica,sans-Serif" font-size="10.00">&#45;</text>
<text text-anchor="start" x="75.5" y="-311.5" font-family="Helvetica,sans-Serif" font-size="10.00">static bool _initialised</text>
<text text-anchor="start" x="60" y="-296.5" font-family="Helvetica,sans-Serif" font-size="10.00">+</text>
<text text-anchor="start" x="75.5" y="-296.5" font-family="Helvetica,sans-Serif" font-size="10.00">Singleton()</text>
<text text-anchor="start" x="60" y="-281.5" font-family="Helvetica,sans-Serif" font-size="10.00">+</text>
<text text-anchor="start" x="75.5" y="-281.5" font-family="Helvetica,sans-Serif" font-size="10.00">virtual void Init()</text>
<text text-anchor="start" x="60" y="-266.5" font-family="Helvetica,sans-Serif" font-size="10.00">+</text>
<text text-anchor="start" x="75.5" y="-266.5" font-family="Helvetica,sans-Serif" font-size="10.00">virtual void Shutdown()</text>
<text text-anchor="start" x="60" y="-251.5" font-family="Helvetica,sans-Serif" font-size="10.00">+</text>
<text text-anchor="start" x="75.5" y="-251.5" font-family="Helvetica,sans-Serif" font-size="10.00">static void Create()</text>
<text text-anchor="start" x="60" y="-236.5" font-family="Helvetica,sans-Serif" font-size="10.00">+</text>
<text text-anchor="start" x="75.5" y="-236.5" font-family="Helvetica,sans-Serif" font-size="10.00">static void Create</text>
<text text-anchor="start" x="75.5" y="-225.5" font-family="Helvetica,sans-Serif" font-size="10.00">(string resourceId)</text>
<text text-anchor="start" x="60" y="-210.5" font-family="Helvetica,sans-Serif" font-size="10.00">+</text>
<text text-anchor="start" x="75.5" y="-210.5" font-family="Helvetica,sans-Serif" font-size="10.00">static void Destroy()</text>
<text text-anchor="start" x="62.5" y="-195.5" font-family="Helvetica,sans-Serif" font-size="10.00">&#45;</text>
<text text-anchor="start" x="75.5" y="-195.5" font-family="Helvetica,sans-Serif" font-size="10.00">void OnEnable()</text>
<text text-anchor="start" x="62.5" y="-180.5" font-family="Helvetica,sans-Serif" font-size="10.00">&#45;</text>
<text text-anchor="start" x="75.5" y="-180.5" font-family="Helvetica,sans-Serif" font-size="10.00">void OnDisable()</text>
<text text-anchor="start" x="62.5" y="-165.5" font-family="Helvetica,sans-Serif" font-size="10.00">&#45;</text>
<text text-anchor="start" x="75.5" y="-165.5" font-family="Helvetica,sans-Serif" font-size="10.00">static void CreateOnMain</text>
<text text-anchor="start" x="75.5" y="-154.5" font-family="Helvetica,sans-Serif" font-size="10.00">Thread(object resourceId)</text>
<text text-anchor="start" x="62.5" y="-139.5" font-family="Helvetica,sans-Serif" font-size="10.00">&#45;</text>
<text text-anchor="start" x="75.5" y="-139.5" font-family="Helvetica,sans-Serif" font-size="10.00">static void Cleanup()</text>
<polygon fill="#666666" stroke="#666666" points="53.5,-351.5 53.5,-351.5 211.5,-351.5 211.5,-351.5 53.5,-351.5"/>
<polygon fill="#666666" stroke="#666666" points="53.5,-306.5 53.5,-306.5 73.5,-306.5 73.5,-306.5 53.5,-306.5"/>
<polygon fill="#666666" stroke="#666666" points="73.5,-306.5 73.5,-306.5 211.5,-306.5 211.5,-306.5 73.5,-306.5"/>
<polygon fill="none" stroke="#666666" points="53.5,-133 53.5,-380 211.5,-380 211.5,-133 53.5,-133"/>
</a>
</g>
</g>
<!-- Node2&#45;&gt;Node1 -->
<g id="edge1_Node000001_Node000002" class="edge">
<title>Node2&#45;&gt;Node1</title>
<g id="a_edge1_Node000001_Node000002"><a xlink:title=" ">
<path fill="none" stroke="#63b8ff" d="M167.92,-123C172.56,-105.61 176.98,-89.1 180.65,-75.35"/>
<polygon fill="none" stroke="#63b8ff" points="164.51,-122.17 165.31,-132.73 171.28,-123.98 164.51,-122.17"/>
</a>
</g>
</g>
<!-- Node3 -->
<g id="Node000003" class="node">
<title>Node3</title>
<g id="a_Node000003"><a xlink:href="../../de/d69/classSingleton.html" target="_top" xlink:title=" ">
<polygon fill="white" stroke="transparent" points="206,-633 59,-633 59,-427 206,-427 206,-633"/>
<text text-anchor="start" x="95.5" y="-621" font-family="Helvetica,sans-Serif" font-size="10.00">Singleton&lt; T &gt;</text>
<text text-anchor="start" x="63.5" y="-606" font-family="Helvetica,sans-Serif" font-size="10.00">+</text>
<text text-anchor="start" x="76.5" y="-606" font-family="Helvetica,sans-Serif" font-size="10.00">static T Instance</text>
<text text-anchor="start" x="63.5" y="-591" font-family="Helvetica,sans-Serif" font-size="10.00">+</text>
<text text-anchor="start" x="76.5" y="-591" font-family="Helvetica,sans-Serif" font-size="10.00">Singleton()</text>
<text text-anchor="start" x="63.5" y="-576" font-family="Helvetica,sans-Serif" font-size="10.00">+</text>
<text text-anchor="start" x="76.5" y="-576" font-family="Helvetica,sans-Serif" font-size="10.00">virtual void Init()</text>
<text text-anchor="start" x="63.5" y="-561" font-family="Helvetica,sans-Serif" font-size="10.00">+</text>
<text text-anchor="start" x="76.5" y="-561" font-family="Helvetica,sans-Serif" font-size="10.00">virtual void Shutdown()</text>
<text text-anchor="start" x="63.5" y="-546" font-family="Helvetica,sans-Serif" font-size="10.00">+</text>
<text text-anchor="start" x="76.5" y="-546" font-family="Helvetica,sans-Serif" font-size="10.00">static void Create()</text>
<text text-anchor="start" x="63.5" y="-531" font-family="Helvetica,sans-Serif" font-size="10.00">+</text>
<text text-anchor="start" x="76.5" y="-531" font-family="Helvetica,sans-Serif" font-size="10.00">static void Create</text>
<text text-anchor="start" x="76.5" y="-520" font-family="Helvetica,sans-Serif" font-size="10.00">(string resourceId)</text>
<text text-anchor="start" x="63.5" y="-505" font-family="Helvetica,sans-Serif" font-size="10.00">+</text>
<text text-anchor="start" x="76.5" y="-505" font-family="Helvetica,sans-Serif" font-size="10.00">static void Destroy()</text>
<text text-anchor="start" x="66" y="-490" font-family="Helvetica,sans-Serif" font-size="10.00">&#45;</text>
<text text-anchor="start" x="76.5" y="-490" font-family="Helvetica,sans-Serif" font-size="10.00">void OnEnable()</text>
<text text-anchor="start" x="66" y="-475" font-family="Helvetica,sans-Serif" font-size="10.00">&#45;</text>
<text text-anchor="start" x="76.5" y="-475" font-family="Helvetica,sans-Serif" font-size="10.00">void OnDisable()</text>
<text text-anchor="start" x="66" y="-460" font-family="Helvetica,sans-Serif" font-size="10.00">&#45;</text>
<text text-anchor="start" x="76.5" y="-460" font-family="Helvetica,sans-Serif" font-size="10.00">static void CreateOnMain</text>
<text text-anchor="start" x="76.5" y="-449" font-family="Helvetica,sans-Serif" font-size="10.00">Thread(object resourceId)</text>
<text text-anchor="start" x="66" y="-434" font-family="Helvetica,sans-Serif" font-size="10.00">&#45;</text>
<text text-anchor="start" x="76.5" y="-434" font-family="Helvetica,sans-Serif" font-size="10.00">static void Cleanup()</text>
<polygon fill="#666666" stroke="#666666" points="59.5,-616 59.5,-616 206.5,-616 206.5,-616 59.5,-616"/>
<polygon fill="#666666" stroke="#666666" points="59.5,-601 59.5,-601 74.5,-601 74.5,-601 59.5,-601"/>
<polygon fill="#666666" stroke="#666666" points="74.5,-601 74.5,-601 206.5,-601 206.5,-601 74.5,-601"/>
<polygon fill="none" stroke="#666666" points="59,-427 59,-633 206,-633 206,-427 59,-427"/>
</a>
</g>
</g>
<!-- Node3&#45;&gt;Node2 -->
<g id="edge2_Node000002_Node000003" class="edge">
<title>Node3&#45;&gt;Node2</title>
<g id="a_edge2_Node000002_Node000003"><a xlink:title=" ">
<path fill="none" stroke="orange" d="M132.5,-416.7C132.5,-404.67 132.5,-392.38 132.5,-380.24"/>
<polygon fill="orange" stroke="orange" points="129,-416.74 132.5,-426.74 136,-416.74 129,-416.74"/>
</a>
</g>
<text text-anchor="middle" x="209" y="-401" font-family="Helvetica,sans-Serif" font-size="10.00" fill="grey"> &lt; PlatformControllerDisplay &gt;</text>
</g>
<!-- Node4 -->
<g id="Node000004" class="node">
<title>Node4</title>
<g id="a_Node000004"><a xlink:href="../../de/de5/classScriptableObject.html" target="_top" xlink:title=" ">
<polygon fill="white" stroke="transparent" points="91,-729 0,-729 0,-680 91,-680 91,-729"/>
<text text-anchor="start" x="5.5" y="-716.5" font-family="Helvetica,sans-Serif" font-size="10.00">ScriptableObject</text>
<text text-anchor="start" x="44" y="-701.5" font-family="Helvetica,sans-Serif" font-size="10.00"> </text>
<text text-anchor="start" x="44" y="-686.5" font-family="Helvetica,sans-Serif" font-size="10.00"> </text>
<polygon fill="#666666" stroke="#666666" points="0.5,-711.5 0.5,-711.5 91.5,-711.5 91.5,-711.5 0.5,-711.5"/>
<polygon fill="#666666" stroke="#666666" points="0.5,-696.5 0.5,-696.5 91.5,-696.5 91.5,-696.5 0.5,-696.5"/>
<polygon fill="none" stroke="#666666" points="0,-680 0,-729 91,-729 91,-680 0,-680"/>
</a>
</g>
</g>
<!-- Node4&#45;&gt;Node3 -->
<g id="edge3_Node000003_Node000004" class="edge">
<title>Node4&#45;&gt;Node3</title>
<g id="a_edge3_Node000003_Node000004"><a xlink:title=" ">
<path fill="none" stroke="#63b8ff" d="M62.03,-670.72C67.59,-659.7 74.12,-646.75 80.93,-633.26"/>
<polygon fill="none" stroke="#63b8ff" points="58.79,-669.37 57.41,-679.88 65.04,-672.52 58.79,-669.37"/>
</a>
</g>
</g>
<!-- Node5 -->
<g id="Node000005" class="node">
<title>Node5</title>
<g id="a_Node000005"><a xlink:title=" ">
<polygon fill="white" stroke="transparent" points="156,-729 109,-729 109,-680 156,-680 156,-729"/>
<text text-anchor="start" x="114.5" y="-716.5" font-family="Helvetica,sans-Serif" font-size="10.00">static T</text>
<text text-anchor="start" x="131" y="-701.5" font-family="Helvetica,sans-Serif" font-size="10.00"> </text>
<text text-anchor="start" x="131" y="-686.5" font-family="Helvetica,sans-Serif" font-size="10.00"> </text>
<polygon fill="#666666" stroke="#666666" points="109.5,-711.5 109.5,-711.5 156.5,-711.5 156.5,-711.5 109.5,-711.5"/>
<polygon fill="#666666" stroke="#666666" points="109.5,-696.5 109.5,-696.5 156.5,-696.5 156.5,-696.5 109.5,-696.5"/>
<polygon fill="none" stroke="#666666" points="109,-680 109,-729 156,-729 156,-680 109,-680"/>
</a>
</g>
</g>
<!-- Node5&#45;&gt;Node3 -->
<g id="edge4_Node000003_Node000005" class="edge">
<title>Node5&#45;&gt;Node3</title>
<g id="a_edge4_Node000003_Node000005"><a xlink:title=" ">
<path fill="none" stroke="#63b8ff" d="M132.5,-679.88C132.5,-670.2 132.5,-658.24 132.5,-645.33"/>
<polygon fill="none" stroke="#63b8ff" points="132.5,-645.26 128.5,-639.26 132.5,-633.26 136.5,-639.26 132.5,-645.26"/>
</a>
</g>
<text text-anchor="middle" x="159.5" y="-654" font-family="Helvetica,sans-Serif" font-size="10.00" fill="grey"> &#45;_instance</text>
</g>
<!-- Node6 -->
<g id="Node000006" class="node">
<title>Node6</title>
<g id="a_Node000006"><a xlink:title=" ">
<polygon fill="white" stroke="transparent" points="225.5,-729 193.5,-729 193.5,-680 225.5,-680 225.5,-729"/>
<text text-anchor="start" x="198.5" y="-716.5" font-family="Helvetica,sans-Serif" font-size="10.00">bool</text>
<text text-anchor="start" x="207.5" y="-701.5" font-family="Helvetica,sans-Serif" font-size="10.00"> </text>
<text text-anchor="start" x="207.5" y="-686.5" font-family="Helvetica,sans-Serif" font-size="10.00"> </text>
<polygon fill="#666666" stroke="#666666" points="193.5,-711.5 193.5,-711.5 225.5,-711.5 225.5,-711.5 193.5,-711.5"/>
<polygon fill="#666666" stroke="#666666" points="193.5,-696.5 193.5,-696.5 225.5,-696.5 225.5,-696.5 193.5,-696.5"/>
<polygon fill="none" stroke="#666666" points="193.5,-680 193.5,-729 225.5,-729 225.5,-680 193.5,-680"/>
</a>
</g>
</g>
<!-- Node6&#45;&gt;Node3 -->
<g id="edge5_Node000003_Node000006" class="edge">
<title>Node6&#45;&gt;Node3</title>
<g id="a_edge5_Node000003_Node000006"><a xlink:title=" ">
<path fill="none" stroke="#63b8ff" d="M199.81,-679.91C196.03,-670.84 191.63,-660.41 187.5,-651 186.49,-648.7 185.47,-646.39 184.44,-644.05"/>
<polygon fill="none" stroke="#63b8ff" points="184.41,-643.99 178.32,-640.13 179.54,-633.02 185.63,-636.88 184.41,-643.99"/>
</a>
</g>
<text text-anchor="middle" x="223" y="-654" font-family="Helvetica,sans-Serif" font-size="10.00" fill="grey"> &#45;_initialised</text>
</g>
<!-- Node7 -->
<g id="Node000007" class="node">
<title>Node7</title>
<g id="a_Node000007"><a xlink:title=" ">
<polygon fill="white" stroke="transparent" points="267.5,-281 229.5,-281 229.5,-232 267.5,-232 267.5,-281"/>
<text text-anchor="start" x="234.5" y="-268.5" font-family="Helvetica,sans-Serif" font-size="10.00">string</text>
<text text-anchor="start" x="246.5" y="-253.5" font-family="Helvetica,sans-Serif" font-size="10.00"> </text>
<text text-anchor="start" x="246.5" y="-238.5" font-family="Helvetica,sans-Serif" font-size="10.00"> </text>
<polygon fill="#666666" stroke="#666666" points="229.5,-263.5 229.5,-263.5 267.5,-263.5 267.5,-263.5 229.5,-263.5"/>
<polygon fill="#666666" stroke="#666666" points="229.5,-248.5 229.5,-248.5 267.5,-248.5 267.5,-248.5 229.5,-248.5"/>
<polygon fill="none" stroke="#666666" points="229.5,-232 229.5,-281 267.5,-281 267.5,-232 229.5,-232"/>
</a>
</g>
</g>
<!-- Node7&#45;&gt;Node1 -->
<g id="edge6_Node000001_Node000007" class="edge">
<title>Node7&#45;&gt;Node1</title>
<g id="a_edge6_Node000001_Node000007"><a xlink:title=" ">
<path fill="none" stroke="#63b8ff" d="M243.71,-231.87C238.54,-207.1 229.79,-167.1 220.5,-133 216.36,-117.8 211.34,-101.39 206.61,-86.57"/>
<polygon fill="none" stroke="#63b8ff" points="206.59,-86.51 200.93,-82.03 202.89,-75.09 208.55,-79.57 206.59,-86.51"/>
</a>
</g>
<text text-anchor="middle" x="256" y="-107" font-family="Helvetica,sans-Serif" font-size="10.00" fill="grey"> +Controller_PS4</text>
<text text-anchor="middle" x="256" y="-96" font-family="Helvetica,sans-Serif" font-size="10.00" fill="grey">+Controller_XBO</text>
</g>
</g>
</svg>
