<?xml version="1.0" encoding="UTF-8" standalone="no"?>
<!DOCTYPE svg PUBLIC "-//W3C//DTD SVG 1.1//EN"
 "http://www.w3.org/Graphics/SVG/1.1/DTD/svg11.dtd">
<!-- Generated by graphviz version 2.43.0 (0)
 -->
<!-- Title: System.ComponentModel.CollectionChangeEventArgs Pages: 1 -->
<svg width="196pt" height="279pt"
 viewBox="0.00 0.00 196.00 279.00" xmlns="http://www.w3.org/2000/svg" xmlns:xlink="http://www.w3.org/1999/xlink">
<g id="graph0" class="graph" transform="scale(1 1) rotate(0) translate(4 275)">
<title>System.ComponentModel.CollectionChangeEventArgs</title>
<!-- Node1 -->
<g id="Node000001" class="node">
<title>Node1</title>
<g id="a_Node000001"><a xlink:title=" ">
<polygon fill="#999999" stroke="transparent" points="188,-160 0,-160 0,0 188,0 188,-160"/>
<text text-anchor="start" x="5" y="-148" font-family="Helvetica,sans-Serif" font-size="10.00">System.ComponentModel.Collection</text>
<text text-anchor="start" x="50.5" y="-137" font-family="Helvetica,sans-Serif" font-size="10.00">ChangeEventArgs</text>
<text text-anchor="start" x="4" y="-122" font-family="Helvetica,sans-Serif" font-size="10.00">+</text>
<text text-anchor="start" x="17" y="-122" font-family="Helvetica,sans-Serif" font-size="10.00">virtual CollectionChange</text>
<text text-anchor="start" x="17" y="-111" font-family="Helvetica,sans-Serif" font-size="10.00">Action Action</text>
<text text-anchor="start" x="4" y="-96" font-family="Helvetica,sans-Serif" font-size="10.00">+</text>
<text text-anchor="start" x="17" y="-96" font-family="Helvetica,sans-Serif" font-size="10.00">virtual object Element</text>
<text text-anchor="start" x="6.5" y="-81" font-family="Helvetica,sans-Serif" font-size="10.00">&#45;</text>
<text text-anchor="start" x="17" y="-81" font-family="Helvetica,sans-Serif" font-size="10.00">readonly CollectionChange</text>
<text text-anchor="start" x="17" y="-70" font-family="Helvetica,sans-Serif" font-size="10.00">Action&lt; Action &gt; k__BackingField</text>
<text text-anchor="start" x="6.5" y="-55" font-family="Helvetica,sans-Serif" font-size="10.00">&#45;</text>
<text text-anchor="start" x="17" y="-55" font-family="Helvetica,sans-Serif" font-size="10.00">readonly object&lt; Element</text>
<text text-anchor="start" x="17" y="-44" font-family="Helvetica,sans-Serif" font-size="10.00"> &gt; k__BackingField</text>
<text text-anchor="start" x="4" y="-29" font-family="Helvetica,sans-Serif" font-size="10.00">+</text>
<text text-anchor="start" x="17" y="-29" font-family="Helvetica,sans-Serif" font-size="10.00">CollectionChangeEventArgs</text>
<text text-anchor="start" x="17" y="-18" font-family="Helvetica,sans-Serif" font-size="10.00">(CollectionChangeAction</text>
<text text-anchor="start" x="17" y="-7" font-family="Helvetica,sans-Serif" font-size="10.00"> action, object element)</text>
<polygon fill="#666666" stroke="#666666" points="0,-132 0,-132 188,-132 188,-132 0,-132"/>
<polygon fill="#666666" stroke="#666666" points="0,-39 0,-39 15,-39 15,-39 0,-39"/>
<polygon fill="#666666" stroke="#666666" points="15,-39 15,-39 188,-39 188,-39 15,-39"/>
<polygon fill="none" stroke="#666666" points="0,0 0,-160 188,-160 188,0 0,0"/>
</a>
</g>
</g>
<!-- Node2 -->
<g id="Node000002" class="node">
<title>Node2</title>
<g id="a_Node000002"><a xlink:href="../../d2/d76/classSystem_1_1EventArgs.html" target="_top" xlink:title=" ">
<polygon fill="white" stroke="transparent" points="169.5,-271 18.5,-271 18.5,-196 169.5,-196 169.5,-271"/>
<text text-anchor="start" x="69.5" y="-258.5" font-family="Helvetica,sans-Serif" font-size="10.00">EventArgs</text>
<text text-anchor="start" x="23" y="-243.5" font-family="Helvetica,sans-Serif" font-size="10.00">+</text>
<text text-anchor="start" x="36" y="-243.5" font-family="Helvetica,sans-Serif" font-size="10.00">static readonly global</text>
<text text-anchor="start" x="36" y="-232.5" font-family="Helvetica,sans-Serif" font-size="10.00">::System.EventArgs Empty</text>
<text text-anchor="start" x="23" y="-217.5" font-family="Helvetica,sans-Serif" font-size="10.00">+</text>
<text text-anchor="start" x="36" y="-217.5" font-family="Helvetica,sans-Serif" font-size="10.00">EventArgs()</text>
<text text-anchor="start" x="25.5" y="-202.5" font-family="Helvetica,sans-Serif" font-size="10.00">&#45;</text>
<text text-anchor="start" x="36" y="-202.5" font-family="Helvetica,sans-Serif" font-size="10.00">static EventArgs()</text>
<polygon fill="#666666" stroke="#666666" points="19,-253.5 19,-253.5 170,-253.5 170,-253.5 19,-253.5"/>
<polygon fill="#666666" stroke="#666666" points="19,-227.5 19,-227.5 34,-227.5 34,-227.5 19,-227.5"/>
<polygon fill="#666666" stroke="#666666" points="34,-227.5 34,-227.5 170,-227.5 170,-227.5 34,-227.5"/>
<polygon fill="none" stroke="#666666" points="18.5,-196 18.5,-271 169.5,-271 169.5,-196 18.5,-196"/>
</a>
</g>
</g>
<!-- Node2&#45;&gt;Node1 -->
<g id="edge1_Node000001_Node000002" class="edge">
<title>Node2&#45;&gt;Node1</title>
<g id="a_edge1_Node000001_Node000002"><a xlink:title=" ">
<path fill="none" stroke="#63b8ff" d="M94,-185.8C94,-177.63 94,-168.93 94,-160.17"/>
<polygon fill="none" stroke="#63b8ff" points="90.5,-185.83 94,-195.83 97.5,-185.83 90.5,-185.83"/>
</a>
</g>
</g>
</g>
</svg>
