<?xml version="1.0" encoding="UTF-8" standalone="no"?>
<!DOCTYPE svg PUBLIC "-//W3C//DTD SVG 1.1//EN"
 "http://www.w3.org/Graphics/SVG/1.1/DTD/svg11.dtd">
<!-- Generated by graphviz version 2.43.0 (0)
 -->
<!-- Title: System.Net.NetworkInformation.sockaddr_ll Pages: 1 -->
<svg width="261pt" height="175pt"
 viewBox="0.00 0.00 260.50 175.00" xmlns="http://www.w3.org/2000/svg" xmlns:xlink="http://www.w3.org/1999/xlink">
<g id="graph0" class="graph" transform="scale(1 1) rotate(0) translate(4 171)">
<title>System.Net.NetworkInformation.sockaddr_ll</title>
<!-- Node1 -->
<g id="Node000001" class="node">
<title>Node1</title>
<g id="a_Node000001"><a xlink:title=" ">
<polygon fill="#999999" stroke="transparent" points="227,-49 0,-49 0,0 227,0 227,-49"/>
<text text-anchor="start" x="5.5" y="-36.5" font-family="Helvetica,sans-Serif" font-size="10.00">System.Net.NetworkInformation.sockaddr_ll</text>
<text text-anchor="start" x="112" y="-21.5" font-family="Helvetica,sans-Serif" font-size="10.00"> </text>
<text text-anchor="start" x="112" y="-6.5" font-family="Helvetica,sans-Serif" font-size="10.00"> </text>
<polygon fill="#666666" stroke="#666666" points="0.5,-31.5 0.5,-31.5 227.5,-31.5 227.5,-31.5 0.5,-31.5"/>
<polygon fill="#666666" stroke="#666666" points="0.5,-16.5 0.5,-16.5 227.5,-16.5 227.5,-16.5 0.5,-16.5"/>
<polygon fill="none" stroke="#666666" points="0,0 0,-49 227,-49 227,0 0,0"/>
</a>
</g>
</g>
<!-- Node2 -->
<g id="Node000002" class="node">
<title>Node2</title>
<g id="a_Node000002"><a xlink:title=" ">
<polygon fill="white" stroke="transparent" points="46,-167 5,-167 5,-118 46,-118 46,-167"/>
<text text-anchor="start" x="10.5" y="-154.5" font-family="Helvetica,sans-Serif" font-size="10.00">ushort</text>
<text text-anchor="start" x="24" y="-139.5" font-family="Helvetica,sans-Serif" font-size="10.00"> </text>
<text text-anchor="start" x="24" y="-124.5" font-family="Helvetica,sans-Serif" font-size="10.00"> </text>
<polygon fill="#666666" stroke="#666666" points="5.5,-149.5 5.5,-149.5 46.5,-149.5 46.5,-149.5 5.5,-149.5"/>
<polygon fill="#666666" stroke="#666666" points="5.5,-134.5 5.5,-134.5 46.5,-134.5 46.5,-134.5 5.5,-134.5"/>
<polygon fill="none" stroke="#666666" points="5,-118 5,-167 46,-167 46,-118 5,-118"/>
</a>
</g>
</g>
<!-- Node2&#45;&gt;Node1 -->
<g id="edge1_Node000001_Node000002" class="edge">
<title>Node2&#45;&gt;Node1</title>
<g id="a_edge1_Node000001_Node000002"><a xlink:title=" ">
<path fill="none" stroke="#63b8ff" d="M26.93,-117.68C28.91,-101.98 33.59,-81.67 44.5,-67 47.2,-63.37 50.33,-59.99 53.72,-56.85"/>
<polygon fill="none" stroke="#63b8ff" points="53.92,-56.7 56.06,-49.81 63.24,-49.14 61.1,-56.03 53.92,-56.7"/>
</a>
</g>
<text text-anchor="middle" x="77" y="-92" font-family="Helvetica,sans-Serif" font-size="10.00" fill="grey"> +sll_family</text>
<text text-anchor="middle" x="77" y="-81" font-family="Helvetica,sans-Serif" font-size="10.00" fill="grey">+sll_hatype</text>
<text text-anchor="middle" x="77" y="-70" font-family="Helvetica,sans-Serif" font-size="10.00" fill="grey">+sll_protocol</text>
</g>
<!-- Node3 -->
<g id="Node000003" class="node">
<title>Node3</title>
<g id="a_Node000003"><a xlink:title=" ">
<polygon fill="white" stroke="transparent" points="125,-167 102,-167 102,-118 125,-118 125,-167"/>
<text text-anchor="start" x="107.5" y="-154.5" font-family="Helvetica,sans-Serif" font-size="10.00">int</text>
<text text-anchor="start" x="112" y="-139.5" font-family="Helvetica,sans-Serif" font-size="10.00"> </text>
<text text-anchor="start" x="112" y="-124.5" font-family="Helvetica,sans-Serif" font-size="10.00"> </text>
<polygon fill="#666666" stroke="#666666" points="102.5,-149.5 102.5,-149.5 125.5,-149.5 125.5,-149.5 102.5,-149.5"/>
<polygon fill="#666666" stroke="#666666" points="102.5,-134.5 102.5,-134.5 125.5,-134.5 125.5,-134.5 102.5,-134.5"/>
<polygon fill="none" stroke="#666666" points="102,-118 102,-167 125,-167 125,-118 102,-118"/>
</a>
</g>
</g>
<!-- Node3&#45;&gt;Node1 -->
<g id="edge2_Node000001_Node000003" class="edge">
<title>Node3&#45;&gt;Node1</title>
<g id="a_edge2_Node000001_Node000003"><a xlink:title=" ">
<path fill="none" stroke="#63b8ff" d="M113.5,-117.75C113.5,-101.48 113.5,-79.62 113.5,-61.26"/>
<polygon fill="none" stroke="#63b8ff" points="113.5,-61.22 109.5,-55.22 113.5,-49.22 117.5,-55.22 113.5,-61.22"/>
</a>
</g>
<text text-anchor="middle" x="144" y="-81" font-family="Helvetica,sans-Serif" font-size="10.00" fill="grey"> +sll_ifindex</text>
</g>
<!-- Node4 -->
<g id="Node000004" class="node">
<title>Node4</title>
<g id="a_Node000004"><a xlink:title=" ">
<polygon fill="white" stroke="transparent" points="213.5,-167 181.5,-167 181.5,-118 213.5,-118 213.5,-167"/>
<text text-anchor="start" x="186.5" y="-154.5" font-family="Helvetica,sans-Serif" font-size="10.00">byte</text>
<text text-anchor="start" x="195.5" y="-139.5" font-family="Helvetica,sans-Serif" font-size="10.00"> </text>
<text text-anchor="start" x="195.5" y="-124.5" font-family="Helvetica,sans-Serif" font-size="10.00"> </text>
<polygon fill="#666666" stroke="#666666" points="181.5,-149.5 181.5,-149.5 213.5,-149.5 213.5,-149.5 181.5,-149.5"/>
<polygon fill="#666666" stroke="#666666" points="181.5,-134.5 181.5,-134.5 213.5,-134.5 213.5,-134.5 181.5,-134.5"/>
<polygon fill="none" stroke="#666666" points="181.5,-118 181.5,-167 213.5,-167 213.5,-118 181.5,-118"/>
</a>
</g>
</g>
<!-- Node4&#45;&gt;Node1 -->
<g id="edge3_Node000001_Node000004" class="edge">
<title>Node4&#45;&gt;Node1</title>
<g id="a_edge3_Node000001_Node000004"><a xlink:title=" ">
<path fill="none" stroke="#63b8ff" d="M194.75,-117.82C191.98,-102.17 186.45,-81.89 175.5,-67 172.85,-63.4 169.79,-60.01 166.47,-56.85"/>
<polygon fill="none" stroke="#63b8ff" points="166.37,-56.76 159.2,-55.94 157.21,-49.01 164.37,-49.83 166.37,-56.76"/>
</a>
</g>
<text text-anchor="middle" x="221" y="-92" font-family="Helvetica,sans-Serif" font-size="10.00" fill="grey"> +sll_addr</text>
<text text-anchor="middle" x="221" y="-81" font-family="Helvetica,sans-Serif" font-size="10.00" fill="grey">+sll_halen</text>
<text text-anchor="middle" x="221" y="-70" font-family="Helvetica,sans-Serif" font-size="10.00" fill="grey">+sll_pkttype</text>
</g>
</g>
</svg>
