<?xml version="1.0" encoding="UTF-8" standalone="no"?>
<!DOCTYPE svg PUBLIC "-//W3C//DTD SVG 1.1//EN"
 "http://www.w3.org/Graphics/SVG/1.1/DTD/svg11.dtd">
<!-- Generated by graphviz version 2.43.0 (0)
 -->
<!-- Title: Terraria.GameContent.Creative.CreativePowersHelper Pages: 1 -->
<!--zoomable 1495 -->

<svg id="main" version="1.1" xmlns="http://www.w3.org/2000/svg" xmlns:xlink="http://www.w3.org/1999/xlink" xml:space="preserve" onload="init(evt)">
<style type="text/css"><![CDATA[
.node, .edge {opacity: 0.7;}
.node.selected, .edge.selected {opacity: 1;}
.edge:hover path { stroke: red; }
.edge:hover polygon { stroke: red; fill: red; }
]]></style>

<defs>
  <circle id="rim" cx="0" cy="0" r="7"/>
  <circle id="rim2" cx="0" cy="0" r="3.5"/>
  <g id="zoomPlus">
    <use xlink:href="#rim" fill="#404040"><set attributeName="fill" to="#808080" begin="zoomplus.mouseover" end="zoomplus.mouseout"/></use>
    <path d="M-4,0h8M0,-4v8" fill="none" stroke="white" stroke-width="1.5" pointer-events="none"/>
  </g>
  <g id="zoomMin">
    <use xlink:href="#rim" fill="#404040"><set attributeName="fill" to="#808080" begin="zoomminus.mouseover" end="zoomminus.mouseout"/></use>
    <path d="M-4,0h8" fill="none" stroke="white" stroke-width="1.5" pointer-events="none"/>
  </g>
  <g id="arrowUp" transform="translate(30 24)">
    <use xlink:href="#rim"/>
    <path pointer-events="none" fill="none" stroke="white" stroke-width="1.5" d="M0,-3.0v7 M-2.5,-0.5L0,-3.0L2.5,-0.5"/>
  </g>
  <g id="arrowRight" transform="rotate(90) translate(36 -43)">
    <use xlink:href="#rim"/>
    <path pointer-events="none" fill="none" stroke="white" stroke-width="1.5" d="M0,-3.0v7 M-2.5,-0.5L0,-3.0L2.5,-0.5"/>
  </g>
  <g id="arrowDown" transform="rotate(180) translate(-30 -48)">
    <use xlink:href="#rim"/>
    <path pointer-events="none" fill="none" stroke="white" stroke-width="1.5" d="M0,-3.0v7 M-2.5,-0.5L0,-3.0L2.5,-0.5"/>
  </g>
  <g id="arrowLeft" transform="rotate(270) translate(-36 17)">
    <use xlink:href="#rim"/>
    <path pointer-events="none" fill="none" stroke="white" stroke-width="1.5" d="M0,-3.0v7 M-2.5,-0.5L0,-3.0L2.5,-0.5"/>
  </g>
  <g id="resetDef">
    <use xlink:href="#rim2" fill="#404040"><set attributeName="fill" to="#808080" begin="reset.mouseover" end="reset.mouseout"/></use>
  </g>
</defs>
<script type="application/ecmascript">
var viewWidth = 369;
var viewHeight = 1495;
var sectionId = 'dynsection-0';
</script>
<script type="application/ecmascript" xlink:href="../../svg.min.js"/>
<svg id="graph" class="graph">
<g id="viewport">
<title>Terraria.GameContent.Creative.CreativePowersHelper</title>
<!-- Node1 -->
<g id="Node000001" class="node">
<title>Node1</title>
<g id="a_Node000001"><a xlink:title=" ">
<polygon fill="#999999" stroke="transparent" points="232,-563 0,-563 0,0 232,0 232,-563"/>
<text text-anchor="start" x="38.5" y="-550.5" font-family="Helvetica,sans-Serif" font-size="10.00">Terraria.GameContent.Creative.</text>
<text text-anchor="start" x="61.5" y="-539.5" font-family="Helvetica,sans-Serif" font-size="10.00">CreativePowersHelper</text>
<text text-anchor="start" x="114" y="-524.5" font-family="Helvetica,sans-Serif" font-size="10.00"> </text>
<text text-anchor="start" x="4" y="-509.5" font-family="Helvetica,sans-Serif" font-size="10.00">+</text>
<text text-anchor="start" x="17" y="-509.5" font-family="Helvetica,sans-Serif" font-size="10.00">CreativePowersHelper()</text>
<text text-anchor="start" x="4" y="-494.5" font-family="Helvetica,sans-Serif" font-size="10.00">+</text>
<text text-anchor="start" x="17" y="-494.5" font-family="Helvetica,sans-Serif" font-size="10.00">static UIImageFramed</text>
<text text-anchor="start" x="17" y="-483.5" font-family="Helvetica,sans-Serif" font-size="10.00"> GetIconImage(Point iconLocation)</text>
<text text-anchor="start" x="4" y="-468.5" font-family="Helvetica,sans-Serif" font-size="10.00">+</text>
<text text-anchor="start" x="17" y="-468.5" font-family="Helvetica,sans-Serif" font-size="10.00">static GroupOptionButton</text>
<text text-anchor="start" x="17" y="-457.5" font-family="Helvetica,sans-Serif" font-size="10.00">&lt; bool &gt; CreateToggleButton</text>
<text text-anchor="start" x="17" y="-446.5" font-family="Helvetica,sans-Serif" font-size="10.00">(CreativePowerUIElementRequestInfo info)</text>
<text text-anchor="start" x="4" y="-431.5" font-family="Helvetica,sans-Serif" font-size="10.00">+</text>
<text text-anchor="start" x="17" y="-431.5" font-family="Helvetica,sans-Serif" font-size="10.00">static GroupOptionButton</text>
<text text-anchor="start" x="17" y="-420.5" font-family="Helvetica,sans-Serif" font-size="10.00">&lt; bool &gt; CreateSimpleButton</text>
<text text-anchor="start" x="17" y="-409.5" font-family="Helvetica,sans-Serif" font-size="10.00">(CreativePowerUIElementRequestInfo info)</text>
<text text-anchor="start" x="4" y="-394.5" font-family="Helvetica,sans-Serif" font-size="10.00">+</text>
<text text-anchor="start" x="17" y="-394.5" font-family="Helvetica,sans-Serif" font-size="10.00">static GroupOptionButton</text>
<text text-anchor="start" x="17" y="-383.5" font-family="Helvetica,sans-Serif" font-size="10.00">&lt; T &gt; CreateCategoryButton</text>
<text text-anchor="start" x="17" y="-372.5" font-family="Helvetica,sans-Serif" font-size="10.00">&lt; T &gt;(CreativePowerUIElementRequest</text>
<text text-anchor="start" x="17" y="-361.5" font-family="Helvetica,sans-Serif" font-size="10.00">Info info, T option, T currentOption)</text>
<text text-anchor="start" x="4" y="-346.5" font-family="Helvetica,sans-Serif" font-size="10.00">+</text>
<text text-anchor="start" x="17" y="-346.5" font-family="Helvetica,sans-Serif" font-size="10.00">static void AddPermission</text>
<text text-anchor="start" x="17" y="-335.5" font-family="Helvetica,sans-Serif" font-size="10.00">TextIfNeeded(ICreativePower</text>
<text text-anchor="start" x="17" y="-324.5" font-family="Helvetica,sans-Serif" font-size="10.00"> power, ref string originalText)</text>
<text text-anchor="start" x="4" y="-309.5" font-family="Helvetica,sans-Serif" font-size="10.00">+</text>
<text text-anchor="start" x="17" y="-309.5" font-family="Helvetica,sans-Serif" font-size="10.00">static void AddDescription</text>
<text text-anchor="start" x="17" y="-298.5" font-family="Helvetica,sans-Serif" font-size="10.00">IfNeeded(ref string originalText,</text>
<text text-anchor="start" x="17" y="-287.5" font-family="Helvetica,sans-Serif" font-size="10.00"> string descriptionKey)</text>
<text text-anchor="start" x="4" y="-272.5" font-family="Helvetica,sans-Serif" font-size="10.00">+</text>
<text text-anchor="start" x="17" y="-272.5" font-family="Helvetica,sans-Serif" font-size="10.00">static void AddUnlockText</text>
<text text-anchor="start" x="17" y="-261.5" font-family="Helvetica,sans-Serif" font-size="10.00">IfNeeded(ref string originalText,</text>
<text text-anchor="start" x="17" y="-250.5" font-family="Helvetica,sans-Serif" font-size="10.00"> bool needed, string descriptionKey)</text>
<text text-anchor="start" x="4" y="-235.5" font-family="Helvetica,sans-Serif" font-size="10.00">+</text>
<text text-anchor="start" x="17" y="-235.5" font-family="Helvetica,sans-Serif" font-size="10.00">static UIVerticalSlider</text>
<text text-anchor="start" x="17" y="-224.5" font-family="Helvetica,sans-Serif" font-size="10.00"> CreateSlider(Func&lt; float</text>
<text text-anchor="start" x="17" y="-213.5" font-family="Helvetica,sans-Serif" font-size="10.00"> &gt; GetSliderValueMethod,</text>
<text text-anchor="start" x="17" y="-202.5" font-family="Helvetica,sans-Serif" font-size="10.00"> Action&lt; float &gt; SetValueKeyboardMethod,</text>
<text text-anchor="start" x="17" y="-191.5" font-family="Helvetica,sans-Serif" font-size="10.00"> Action SetValueGamepadMethod)</text>
<text text-anchor="start" x="4" y="-176.5" font-family="Helvetica,sans-Serif" font-size="10.00">+</text>
<text text-anchor="start" x="17" y="-176.5" font-family="Helvetica,sans-Serif" font-size="10.00">static void UpdateUseMouse</text>
<text text-anchor="start" x="17" y="-165.5" font-family="Helvetica,sans-Serif" font-size="10.00">Interface(UIElement affectedElement)</text>
<text text-anchor="start" x="4" y="-150.5" font-family="Helvetica,sans-Serif" font-size="10.00">+</text>
<text text-anchor="start" x="17" y="-150.5" font-family="Helvetica,sans-Serif" font-size="10.00">static void UpdateUnlock</text>
<text text-anchor="start" x="17" y="-139.5" font-family="Helvetica,sans-Serif" font-size="10.00">StateByPower(ICreativePower</text>
<text text-anchor="start" x="17" y="-128.5" font-family="Helvetica,sans-Serif" font-size="10.00"> power, UIElement button,</text>
<text text-anchor="start" x="17" y="-117.5" font-family="Helvetica,sans-Serif" font-size="10.00"> Color colorWhenSelected)</text>
<text text-anchor="start" x="4" y="-102.5" font-family="Helvetica,sans-Serif" font-size="10.00">+</text>
<text text-anchor="start" x="17" y="-102.5" font-family="Helvetica,sans-Serif" font-size="10.00">static bool IsAvailableFor</text>
<text text-anchor="start" x="17" y="-91.5" font-family="Helvetica,sans-Serif" font-size="10.00">Player(ICreativePower power,</text>
<text text-anchor="start" x="17" y="-80.5" font-family="Helvetica,sans-Serif" font-size="10.00"> int playerIndex)</text>
<text text-anchor="start" x="6.5" y="-65.5" font-family="Helvetica,sans-Serif" font-size="10.00">&#45;</text>
<text text-anchor="start" x="17" y="-65.5" font-family="Helvetica,sans-Serif" font-size="10.00">static Asset&lt; Texture2D</text>
<text text-anchor="start" x="17" y="-54.5" font-family="Helvetica,sans-Serif" font-size="10.00"> &gt; GetPowerIconAsset(string path)</text>
<text text-anchor="start" x="6.5" y="-39.5" font-family="Helvetica,sans-Serif" font-size="10.00">&#45;</text>
<text text-anchor="start" x="17" y="-39.5" font-family="Helvetica,sans-Serif" font-size="10.00">static void UpdateUnlock</text>
<text text-anchor="start" x="17" y="-28.5" font-family="Helvetica,sans-Serif" font-size="10.00">StateByPowerInternal(ICreative</text>
<text text-anchor="start" x="17" y="-17.5" font-family="Helvetica,sans-Serif" font-size="10.00">Power power, Color colorWhenSelected,</text>
<text text-anchor="start" x="17" y="-6.5" font-family="Helvetica,sans-Serif" font-size="10.00"> IGroupOptionButton asButton)</text>
<polygon fill="#666666" stroke="#666666" points="0,-534.5 0,-534.5 232,-534.5 232,-534.5 0,-534.5"/>
<polygon fill="#666666" stroke="#666666" points="0,-519.5 0,-519.5 232,-519.5 232,-519.5 0,-519.5"/>
<polygon fill="none" stroke="#666666" points="0,0 0,-563 232,-563 232,0 0,0"/>
</a>
</g>
</g>
<!-- Node2 -->
<g id="Node000002" class="node">
<title>Node2</title>
<g id="a_Node000002"><a xlink:title=" ">
<polygon fill="white" stroke="transparent" points="60.5,-1014 37.5,-1014 37.5,-965 60.5,-965 60.5,-1014"/>
<text text-anchor="start" x="43" y="-1001.5" font-family="Helvetica,sans-Serif" font-size="10.00">int</text>
<text text-anchor="start" x="47.5" y="-986.5" font-family="Helvetica,sans-Serif" font-size="10.00"> </text>
<text text-anchor="start" x="47.5" y="-971.5" font-family="Helvetica,sans-Serif" font-size="10.00"> </text>
<polygon fill="#666666" stroke="#666666" points="38,-996.5 38,-996.5 61,-996.5 61,-996.5 38,-996.5"/>
<polygon fill="#666666" stroke="#666666" points="38,-981.5 38,-981.5 61,-981.5 61,-981.5 38,-981.5"/>
<polygon fill="none" stroke="#666666" points="37.5,-965 37.5,-1014 60.5,-1014 60.5,-965 37.5,-965"/>
</a>
</g>
</g>
<!-- Node2&#45;&gt;Node1 -->
<g id="edge1_Node000001_Node000002" class="edge">
<title>Node2&#45;&gt;Node1</title>
<g id="a_edge1_Node000001_Node000002"><a xlink:title=" ">
<path fill="none" stroke="#63b8ff" d="M47.3,-964.97C43.15,-902.3 33.96,-726.21 50,-581 50.22,-579.05 50.44,-577.1 50.67,-575.14"/>
<polygon fill="none" stroke="#63b8ff" points="50.69,-574.96 47.46,-568.51 52.17,-563.05 55.4,-569.49 50.69,-574.96"/>
</a>
</g>
<text text-anchor="middle" x="105.5" y="-595" font-family="Helvetica,sans-Serif" font-size="10.00" fill="grey"> +TextureIconColumns</text>
<text text-anchor="middle" x="105.5" y="-584" font-family="Helvetica,sans-Serif" font-size="10.00" fill="grey">+TextureIconRows</text>
</g>
<!-- Node3 -->
<g id="Node000003" class="node">
<title>Node3</title>
<g id="a_Node000003"><a xlink:href="../../d0/dc1/structMicrosoft_1_1Xna_1_1Framework_1_1Graphics_1_1Color.html" target="_top" xlink:title=" ">
<polygon fill="white" stroke="transparent" points="252,-1358 114,-1358 114,-621 252,-621 252,-1358"/>
<text text-anchor="start" x="119" y="-1345.5" font-family="Helvetica,sans-Serif" font-size="10.00">Microsoft.Xna.Framework.</text>
<text text-anchor="start" x="147" y="-1334.5" font-family="Helvetica,sans-Serif" font-size="10.00">Graphics.Color</text>
<text text-anchor="start" x="118.5" y="-1319.5" font-family="Helvetica,sans-Serif" font-size="10.00">+</text>
<text text-anchor="start" x="132" y="-1319.5" font-family="Helvetica,sans-Serif" font-size="10.00">static readonly Color</text>
<text text-anchor="start" x="132" y="-1308.5" font-family="Helvetica,sans-Serif" font-size="10.00"> Transparent</text>
<text text-anchor="start" x="118.5" y="-1293.5" font-family="Helvetica,sans-Serif" font-size="10.00">+</text>
<text text-anchor="start" x="132" y="-1293.5" font-family="Helvetica,sans-Serif" font-size="10.00">static readonly Color</text>
<text text-anchor="start" x="132" y="-1282.5" font-family="Helvetica,sans-Serif" font-size="10.00"> TransparentBlack</text>
<text text-anchor="start" x="118.5" y="-1267.5" font-family="Helvetica,sans-Serif" font-size="10.00">+</text>
<text text-anchor="start" x="132" y="-1267.5" font-family="Helvetica,sans-Serif" font-size="10.00">static readonly Color</text>
<text text-anchor="start" x="132" y="-1256.5" font-family="Helvetica,sans-Serif" font-size="10.00"> TransparentWhite</text>
<text text-anchor="start" x="118.5" y="-1241.5" font-family="Helvetica,sans-Serif" font-size="10.00">+</text>
<text text-anchor="start" x="132" y="-1241.5" font-family="Helvetica,sans-Serif" font-size="10.00">static readonly Color</text>
<text text-anchor="start" x="132" y="-1230.5" font-family="Helvetica,sans-Serif" font-size="10.00"> BlueViolet</text>
<text text-anchor="start" x="118.5" y="-1215.5" font-family="Helvetica,sans-Serif" font-size="10.00">+</text>
<text text-anchor="start" x="132" y="-1215.5" font-family="Helvetica,sans-Serif" font-size="10.00">static readonly Color</text>
<text text-anchor="start" x="132" y="-1204.5" font-family="Helvetica,sans-Serif" font-size="10.00"> Brown</text>
<text text-anchor="start" x="118.5" y="-1189.5" font-family="Helvetica,sans-Serif" font-size="10.00">+</text>
<text text-anchor="start" x="132" y="-1189.5" font-family="Helvetica,sans-Serif" font-size="10.00">static readonly Color</text>
<text text-anchor="start" x="132" y="-1178.5" font-family="Helvetica,sans-Serif" font-size="10.00"> BurlyWood</text>
<text text-anchor="start" x="118.5" y="-1163.5" font-family="Helvetica,sans-Serif" font-size="10.00">+</text>
<text text-anchor="start" x="132" y="-1163.5" font-family="Helvetica,sans-Serif" font-size="10.00">static readonly Color</text>
<text text-anchor="start" x="132" y="-1152.5" font-family="Helvetica,sans-Serif" font-size="10.00"> CadetBlue</text>
<text text-anchor="start" x="118.5" y="-1137.5" font-family="Helvetica,sans-Serif" font-size="10.00">+</text>
<text text-anchor="start" x="132" y="-1137.5" font-family="Helvetica,sans-Serif" font-size="10.00">static readonly Color</text>
<text text-anchor="start" x="132" y="-1126.5" font-family="Helvetica,sans-Serif" font-size="10.00"> Chartreuse</text>
<text text-anchor="start" x="118.5" y="-1111.5" font-family="Helvetica,sans-Serif" font-size="10.00">+</text>
<text text-anchor="start" x="132" y="-1111.5" font-family="Helvetica,sans-Serif" font-size="10.00">static readonly Color</text>
<text text-anchor="start" x="132" y="-1100.5" font-family="Helvetica,sans-Serif" font-size="10.00"> Chocolate</text>
<text text-anchor="start" x="118.5" y="-1085.5" font-family="Helvetica,sans-Serif" font-size="10.00">+</text>
<text text-anchor="start" x="132" y="-1085.5" font-family="Helvetica,sans-Serif" font-size="10.00">static readonly Color</text>
<text text-anchor="start" x="132" y="-1074.5" font-family="Helvetica,sans-Serif" font-size="10.00"> Coral</text>
<text text-anchor="start" x="132" y="-1059.5" font-family="Helvetica,sans-Serif" font-size="10.00">and 123 more...</text>
<text text-anchor="start" x="118.5" y="-1044.5" font-family="Helvetica,sans-Serif" font-size="10.00">+</text>
<text text-anchor="start" x="132" y="-1044.5" font-family="Helvetica,sans-Serif" font-size="10.00">uint PackedValue</text>
<text text-anchor="start" x="118.5" y="-1029.5" font-family="Helvetica,sans-Serif" font-size="10.00">+</text>
<text text-anchor="start" x="132" y="-1029.5" font-family="Helvetica,sans-Serif" font-size="10.00">Color(Vector3 vector)</text>
<text text-anchor="start" x="118.5" y="-1014.5" font-family="Helvetica,sans-Serif" font-size="10.00">+</text>
<text text-anchor="start" x="132" y="-1014.5" font-family="Helvetica,sans-Serif" font-size="10.00">Color(Vector4 vector)</text>
<text text-anchor="start" x="118.5" y="-999.5" font-family="Helvetica,sans-Serif" font-size="10.00">+</text>
<text text-anchor="start" x="132" y="-999.5" font-family="Helvetica,sans-Serif" font-size="10.00">Color(int r, int g,</text>
<text text-anchor="start" x="132" y="-988.5" font-family="Helvetica,sans-Serif" font-size="10.00"> int b)</text>
<text text-anchor="start" x="118.5" y="-973.5" font-family="Helvetica,sans-Serif" font-size="10.00">+</text>
<text text-anchor="start" x="132" y="-973.5" font-family="Helvetica,sans-Serif" font-size="10.00">Color(int r, int g,</text>
<text text-anchor="start" x="132" y="-962.5" font-family="Helvetica,sans-Serif" font-size="10.00"> int b, int a)</text>
<text text-anchor="start" x="118.5" y="-947.5" font-family="Helvetica,sans-Serif" font-size="10.00">+</text>
<text text-anchor="start" x="132" y="-947.5" font-family="Helvetica,sans-Serif" font-size="10.00">Color(float r, float</text>
<text text-anchor="start" x="132" y="-936.5" font-family="Helvetica,sans-Serif" font-size="10.00"> g, float b)</text>
<text text-anchor="start" x="118.5" y="-921.5" font-family="Helvetica,sans-Serif" font-size="10.00">+</text>
<text text-anchor="start" x="132" y="-921.5" font-family="Helvetica,sans-Serif" font-size="10.00">Color(float r, float</text>
<text text-anchor="start" x="132" y="-910.5" font-family="Helvetica,sans-Serif" font-size="10.00"> g, float b, float a)</text>
<text text-anchor="start" x="118.5" y="-895.5" font-family="Helvetica,sans-Serif" font-size="10.00">+</text>
<text text-anchor="start" x="132" y="-895.5" font-family="Helvetica,sans-Serif" font-size="10.00">Color(Color rgb, int a)</text>
<text text-anchor="start" x="118.5" y="-880.5" font-family="Helvetica,sans-Serif" font-size="10.00">+</text>
<text text-anchor="start" x="132" y="-880.5" font-family="Helvetica,sans-Serif" font-size="10.00">Color(Color rgb, float a)</text>
<text text-anchor="start" x="118.5" y="-865.5" font-family="Helvetica,sans-Serif" font-size="10.00">+</text>
<text text-anchor="start" x="132" y="-865.5" font-family="Helvetica,sans-Serif" font-size="10.00">ushort RGB565()</text>
<text text-anchor="start" x="118.5" y="-850.5" font-family="Helvetica,sans-Serif" font-size="10.00">+</text>
<text text-anchor="start" x="132" y="-850.5" font-family="Helvetica,sans-Serif" font-size="10.00">ushort ARGB4444()</text>
<text text-anchor="start" x="132" y="-835.5" font-family="Helvetica,sans-Serif" font-size="10.00">and 7 more...</text>
<text text-anchor="start" x="118.5" y="-820.5" font-family="Helvetica,sans-Serif" font-size="10.00">+</text>
<text text-anchor="start" x="132" y="-820.5" font-family="Helvetica,sans-Serif" font-size="10.00">static bool operator</text>
<text text-anchor="start" x="132" y="-809.5" font-family="Helvetica,sans-Serif" font-size="10.00">==(Color colorA, Color</text>
<text text-anchor="start" x="132" y="-798.5" font-family="Helvetica,sans-Serif" font-size="10.00"> colorB)</text>
<text text-anchor="start" x="118.5" y="-783.5" font-family="Helvetica,sans-Serif" font-size="10.00">+</text>
<text text-anchor="start" x="132" y="-783.5" font-family="Helvetica,sans-Serif" font-size="10.00">static bool operator!</text>
<text text-anchor="start" x="132" y="-772.5" font-family="Helvetica,sans-Serif" font-size="10.00">=(Color colorA, Color</text>
<text text-anchor="start" x="132" y="-761.5" font-family="Helvetica,sans-Serif" font-size="10.00"> colorB)</text>
<text text-anchor="start" x="118.5" y="-746.5" font-family="Helvetica,sans-Serif" font-size="10.00">+</text>
<text text-anchor="start" x="132" y="-746.5" font-family="Helvetica,sans-Serif" font-size="10.00">static Color operator*</text>
<text text-anchor="start" x="132" y="-735.5" font-family="Helvetica,sans-Serif" font-size="10.00">(Color a, float amount)</text>
<text text-anchor="start" x="118.5" y="-720.5" font-family="Helvetica,sans-Serif" font-size="10.00">+</text>
<text text-anchor="start" x="132" y="-720.5" font-family="Helvetica,sans-Serif" font-size="10.00">static Color Multiply</text>
<text text-anchor="start" x="132" y="-709.5" font-family="Helvetica,sans-Serif" font-size="10.00">(Color a, float amount)</text>
<text text-anchor="start" x="118.5" y="-694.5" font-family="Helvetica,sans-Serif" font-size="10.00">+</text>
<text text-anchor="start" x="132" y="-694.5" font-family="Helvetica,sans-Serif" font-size="10.00">static Color Lerp(Color</text>
<text text-anchor="start" x="132" y="-683.5" font-family="Helvetica,sans-Serif" font-size="10.00"> value1, Color value2,</text>
<text text-anchor="start" x="132" y="-672.5" font-family="Helvetica,sans-Serif" font-size="10.00"> float amount)</text>
<text text-anchor="start" x="118.5" y="-657.5" font-family="Helvetica,sans-Serif" font-size="10.00">~</text>
<text text-anchor="start" x="132" y="-657.5" font-family="Helvetica,sans-Serif" font-size="10.00">float GetBrightness()</text>
<text text-anchor="start" x="118.5" y="-642.5" font-family="Helvetica,sans-Serif" font-size="10.00">~</text>
<text text-anchor="start" x="132" y="-642.5" font-family="Helvetica,sans-Serif" font-size="10.00">float GetSaturation()</text>
<text text-anchor="start" x="118.5" y="-627.5" font-family="Helvetica,sans-Serif" font-size="10.00">~</text>
<text text-anchor="start" x="132" y="-627.5" font-family="Helvetica,sans-Serif" font-size="10.00">float GetHue()</text>
<polygon fill="#666666" stroke="#666666" points="114,-1329.5 114,-1329.5 252,-1329.5 252,-1329.5 114,-1329.5"/>
<polygon fill="#666666" stroke="#666666" points="114,-1039.5 114,-1039.5 130,-1039.5 130,-1039.5 114,-1039.5"/>
<polygon fill="#666666" stroke="#666666" points="130,-1039.5 130,-1039.5 252,-1039.5 252,-1039.5 130,-1039.5"/>
<polygon fill="none" stroke="#666666" points="114,-621 114,-1358 252,-1358 252,-621 114,-621"/>
</a>
</g>
</g>
<!-- Node3&#45;&gt;Node1 -->
<g id="edge2_Node000001_Node000003" class="edge">
<title>Node3&#45;&gt;Node1</title>
<g id="a_edge2_Node000001_Node000003"><a xlink:title=" ">
<path fill="none" stroke="#63b8ff" d="M164.77,-620.75C163.59,-607.32 162.33,-594.04 161,-581 160.8,-579.08 160.6,-577.14 160.4,-575.21"/>
<polygon fill="none" stroke="#63b8ff" points="160.4,-575.17 155.77,-569.63 159.1,-563.24 163.73,-568.77 160.4,-575.17"/>
</a>
</g>
<text text-anchor="middle" x="226" y="-589.5" font-family="Helvetica,sans-Serif" font-size="10.00" fill="grey"> +CommonSelectedColor</text>
</g>
<!-- Node3&#45;&gt;Node3 -->
<g id="edge5_Node000003_Node000003" class="edge">
<title>Node3&#45;&gt;Node3</title>
<g id="a_edge5_Node000003_Node000003"><a xlink:title=" ">
<path fill="none" stroke="#63b8ff" d="M252.27,-1057.21C262.83,-1046.87 270,-1024.3 270,-989.5 270,-963.4 265.97,-944.18 259.5,-931.84"/>
<polygon fill="none" stroke="#63b8ff" points="259.28,-931.54 252.53,-929 252.27,-921.79 259.03,-924.33 259.28,-931.54"/>
</a>
</g>
<text text-anchor="middle" x="315.5" y="-1042" font-family="Helvetica,sans-Serif" font-size="10.00" fill="grey"> +AliceBlue</text>
<text text-anchor="middle" x="315.5" y="-1031" font-family="Helvetica,sans-Serif" font-size="10.00" fill="grey">+AntiqueWhite</text>
<text text-anchor="middle" x="315.5" y="-1020" font-family="Helvetica,sans-Serif" font-size="10.00" fill="grey">+Aqua</text>
<text text-anchor="middle" x="315.5" y="-1009" font-family="Helvetica,sans-Serif" font-size="10.00" fill="grey">+Aquamarine</text>
<text text-anchor="middle" x="315.5" y="-998" font-family="Helvetica,sans-Serif" font-size="10.00" fill="grey">+Azure</text>
<text text-anchor="middle" x="315.5" y="-987" font-family="Helvetica,sans-Serif" font-size="10.00" fill="grey">+Beige</text>
<text text-anchor="middle" x="315.5" y="-976" font-family="Helvetica,sans-Serif" font-size="10.00" fill="grey">+Bisque</text>
<text text-anchor="middle" x="315.5" y="-965" font-family="Helvetica,sans-Serif" font-size="10.00" fill="grey">+Black</text>
<text text-anchor="middle" x="315.5" y="-954" font-family="Helvetica,sans-Serif" font-size="10.00" fill="grey">+BlanchedAlmond</text>
<text text-anchor="middle" x="315.5" y="-943" font-family="Helvetica,sans-Serif" font-size="10.00" fill="grey">+Blue</text>
<text text-anchor="middle" x="315.5" y="-932" font-family="Helvetica,sans-Serif" font-size="10.00" fill="grey">...</text>
</g>
<!-- Node4 -->
<g id="Node000004" class="node">
<title>Node4</title>
<g id="a_Node000004"><a xlink:href="../../d9/d1c/classIEquatable.html" target="_top" xlink:title=" ">
<polygon fill="white" stroke="transparent" points="194,-1487 84,-1487 84,-1438 194,-1438 194,-1487"/>
<text text-anchor="start" x="89" y="-1474.5" font-family="Helvetica,sans-Serif" font-size="10.00">IEquatable&lt; Color &gt;</text>
<text text-anchor="start" x="137" y="-1459.5" font-family="Helvetica,sans-Serif" font-size="10.00"> </text>
<text text-anchor="start" x="137" y="-1444.5" font-family="Helvetica,sans-Serif" font-size="10.00"> </text>
<polygon fill="#666666" stroke="#666666" points="84,-1469.5 84,-1469.5 194,-1469.5 194,-1469.5 84,-1469.5"/>
<polygon fill="#666666" stroke="#666666" points="84,-1454.5 84,-1454.5 194,-1454.5 194,-1454.5 84,-1454.5"/>
<polygon fill="none" stroke="#666666" points="84,-1438 84,-1487 194,-1487 194,-1438 84,-1438"/>
</a>
</g>
</g>
<!-- Node4&#45;&gt;Node3 -->
<g id="edge3_Node000003_Node000004" class="edge">
<title>Node4&#45;&gt;Node3</title>
<g id="a_edge3_Node000003_Node000004"><a xlink:title=" ">
<path fill="none" stroke="#63b8ff" d="M142.16,-1427.72C143.83,-1409.78 146.08,-1385.72 148.66,-1358.07"/>
<polygon fill="none" stroke="#63b8ff" points="138.66,-1427.54 141.21,-1437.82 145.63,-1428.19 138.66,-1427.54"/>
</a>
</g>
</g>
<!-- Node5 -->
<g id="Node000005" class="node">
<title>Node5</title>
<g id="a_Node000005"><a xlink:title=" ">
<polygon fill="white" stroke="transparent" points="244,-1487 212,-1487 212,-1438 244,-1438 244,-1487"/>
<text text-anchor="start" x="217" y="-1474.5" font-family="Helvetica,sans-Serif" font-size="10.00">byte</text>
<text text-anchor="start" x="226" y="-1459.5" font-family="Helvetica,sans-Serif" font-size="10.00"> </text>
<text text-anchor="start" x="226" y="-1444.5" font-family="Helvetica,sans-Serif" font-size="10.00"> </text>
<polygon fill="#666666" stroke="#666666" points="212,-1469.5 212,-1469.5 244,-1469.5 244,-1469.5 212,-1469.5"/>
<polygon fill="#666666" stroke="#666666" points="212,-1454.5 212,-1454.5 244,-1454.5 244,-1454.5 212,-1454.5"/>
<polygon fill="none" stroke="#666666" points="212,-1438 212,-1487 244,-1487 244,-1438 212,-1438"/>
</a>
</g>
</g>
<!-- Node5&#45;&gt;Node3 -->
<g id="edge4_Node000003_Node000005" class="edge">
<title>Node5&#45;&gt;Node3</title>
<g id="a_edge4_Node000003_Node000005"><a xlink:title=" ">
<path fill="none" stroke="#63b8ff" d="M225.74,-1437.82C224.19,-1421.66 221.95,-1398.16 219.28,-1370.28"/>
<polygon fill="none" stroke="#63b8ff" points="219.26,-1370.01 214.71,-1364.42 218.12,-1358.07 222.67,-1363.66 219.26,-1370.01"/>
</a>
</g>
<text text-anchor="middle" x="232.5" y="-1412" font-family="Helvetica,sans-Serif" font-size="10.00" fill="grey"> +A</text>
<text text-anchor="middle" x="232.5" y="-1401" font-family="Helvetica,sans-Serif" font-size="10.00" fill="grey">+B</text>
<text text-anchor="middle" x="232.5" y="-1390" font-family="Helvetica,sans-Serif" font-size="10.00" fill="grey">+G</text>
<text text-anchor="middle" x="232.5" y="-1379" font-family="Helvetica,sans-Serif" font-size="10.00" fill="grey">+R</text>
</g>
</g>
</svg>

<g id="navigator" transform="translate(0 0)" fill="#404254">
  <rect fill="#f2f5e9" fill-opacity="0.5" stroke="#606060" stroke-width=".5" x="0" y="0" width="60" height="60"/>
  <use id="zoomplus" xlink:href="#zoomPlus" x="17" y="9" onmousedown="handleZoom(evt,'in')"/>
  <use id="zoomminus" xlink:href="#zoomMin" x="42" y="9" onmousedown="handleZoom(evt,'out')"/>
  <use id="reset" xlink:href="#resetDef" x="30" y="36" onmousedown="handleReset()"/>
   <use id="arrowup" xlink:href="#arrowUp" x="0" y="0" onmousedown="handlePan(0,-1)"/>
  <use id="arrowright" xlink:href="#arrowRight" x="0" y="0" onmousedown="handlePan(1,0)"/>
  <use id="arrowdown" xlink:href="#arrowDown" x="0" y="0" onmousedown="handlePan(0,1)"/>
  <use id="arrowleft" xlink:href="#arrowLeft" x="0" y="0" onmousedown="handlePan(-1,0)"/>
</g>
<svg viewBox="0 0 15 15" width="100%" height="30px" preserveAspectRatio="xMaxYMin meet">
 <g id="arrow_out" transform="scale(0.3 0.3)">
  <a xlink:href="classTerraria_1_1GameContent_1_1Creative_1_1CreativePowersHelper__coll__graph_org.svg" target="_base">
   <rect id="button" ry="5" rx="5" y="6" x="6" height="38" width="38"
        fill="#f2f5e9" fill-opacity="0.5" stroke="#606060" stroke-width="1.0"/>
   <path id="arrow"
     d="M 11.500037,31.436501 C 11.940474,20.09759 22.043105,11.32322 32.158766,21.979434 L 37.068811,17.246167 C 37.068811,17.246167 37.088388,32 37.088388,32 L 22.160133,31.978069 C 22.160133,31.978069 26.997745,27.140456 26.997745,27.140456 C 18.528582,18.264221 13.291696,25.230495 11.500037,31.436501 z"
     style="fill:#404040;"/>
  </a>
 </g>
</svg>

<style type='text/css'>
<![CDATA[
[data-mouse-over-selected='false'] { opacity: 0.7; }
[data-mouse-over-selected='true']  { opacity: 1.0; }
]]>
</style>
<script type="application/ecmascript"><![CDATA[
document.addEventListener('DOMContentLoaded', (event) => {
  highlightEdges();
  highlightAdjacentNodes();
});
]]></script>
</svg>
