<?xml version="1.0" encoding="UTF-8" standalone="no"?>
<!DOCTYPE svg PUBLIC "-//W3C//DTD SVG 1.1//EN"
 "http://www.w3.org/Graphics/SVG/1.1/DTD/svg11.dtd">
<!-- Generated by graphviz version 2.43.0 (0)
 -->
<!-- Title: System.Diagnostics.TraceListener Pages: 1 -->
<!--zoomable 1116 -->

<svg id="main" version="1.1" xmlns="http://www.w3.org/2000/svg" xmlns:xlink="http://www.w3.org/1999/xlink" xml:space="preserve" onload="init(evt)">
<style type="text/css"><![CDATA[
.node, .edge {opacity: 0.7;}
.node.selected, .edge.selected {opacity: 1;}
.edge:hover path { stroke: red; }
.edge:hover polygon { stroke: red; fill: red; }
]]></style>

<defs>
  <circle id="rim" cx="0" cy="0" r="7"/>
  <circle id="rim2" cx="0" cy="0" r="3.5"/>
  <g id="zoomPlus">
    <use xlink:href="#rim" fill="#404040"><set attributeName="fill" to="#808080" begin="zoomplus.mouseover" end="zoomplus.mouseout"/></use>
    <path d="M-4,0h8M0,-4v8" fill="none" stroke="white" stroke-width="1.5" pointer-events="none"/>
  </g>
  <g id="zoomMin">
    <use xlink:href="#rim" fill="#404040"><set attributeName="fill" to="#808080" begin="zoomminus.mouseover" end="zoomminus.mouseout"/></use>
    <path d="M-4,0h8" fill="none" stroke="white" stroke-width="1.5" pointer-events="none"/>
  </g>
  <g id="arrowUp" transform="translate(30 24)">
    <use xlink:href="#rim"/>
    <path pointer-events="none" fill="none" stroke="white" stroke-width="1.5" d="M0,-3.0v7 M-2.5,-0.5L0,-3.0L2.5,-0.5"/>
  </g>
  <g id="arrowRight" transform="rotate(90) translate(36 -43)">
    <use xlink:href="#rim"/>
    <path pointer-events="none" fill="none" stroke="white" stroke-width="1.5" d="M0,-3.0v7 M-2.5,-0.5L0,-3.0L2.5,-0.5"/>
  </g>
  <g id="arrowDown" transform="rotate(180) translate(-30 -48)">
    <use xlink:href="#rim"/>
    <path pointer-events="none" fill="none" stroke="white" stroke-width="1.5" d="M0,-3.0v7 M-2.5,-0.5L0,-3.0L2.5,-0.5"/>
  </g>
  <g id="arrowLeft" transform="rotate(270) translate(-36 17)">
    <use xlink:href="#rim"/>
    <path pointer-events="none" fill="none" stroke="white" stroke-width="1.5" d="M0,-3.0v7 M-2.5,-0.5L0,-3.0L2.5,-0.5"/>
  </g>
  <g id="resetDef">
    <use xlink:href="#rim2" fill="#404040"><set attributeName="fill" to="#808080" begin="reset.mouseover" end="reset.mouseout"/></use>
  </g>
</defs>
<script type="application/ecmascript">
var viewWidth = 320;
var viewHeight = 1116;
var sectionId = 'dynsection-0';
</script>
<script type="application/ecmascript" xlink:href="../../svg.min.js"/>
<svg id="graph" class="graph">
<g id="viewport">
<title>System.Diagnostics.TraceListener</title>
<!-- Node1 -->
<g id="Node000001" class="node">
<title>Node1</title>
<g id="a_Node000001"><a xlink:title=" ">
<polygon fill="#999999" stroke="transparent" points="278,-934 88,-934 88,-438 278,-438 278,-934"/>
<text text-anchor="start" x="120" y="-922" font-family="Helvetica,sans-Serif" font-size="10.00">System.Diagnostics.Trace</text>
<text text-anchor="start" x="163" y="-911" font-family="Helvetica,sans-Serif" font-size="10.00">Listener</text>
<text text-anchor="start" x="92" y="-896" font-family="Helvetica,sans-Serif" font-size="10.00">+</text>
<text text-anchor="start" x="105" y="-896" font-family="Helvetica,sans-Serif" font-size="10.00">virtual bool IsThreadSafe</text>
<text text-anchor="start" x="92" y="-881" font-family="Helvetica,sans-Serif" font-size="10.00">+</text>
<text text-anchor="start" x="105" y="-881" font-family="Helvetica,sans-Serif" font-size="10.00">int IndentLevel</text>
<text text-anchor="start" x="92" y="-866" font-family="Helvetica,sans-Serif" font-size="10.00">+</text>
<text text-anchor="start" x="105" y="-866" font-family="Helvetica,sans-Serif" font-size="10.00">int IndentSize</text>
<text text-anchor="start" x="92" y="-851" font-family="Helvetica,sans-Serif" font-size="10.00">+</text>
<text text-anchor="start" x="105" y="-851" font-family="Helvetica,sans-Serif" font-size="10.00">TraceFilter Filter</text>
<text text-anchor="start" x="92" y="-836" font-family="Helvetica,sans-Serif" font-size="10.00">+</text>
<text text-anchor="start" x="105" y="-836" font-family="Helvetica,sans-Serif" font-size="10.00">bool NeedIndent</text>
<text text-anchor="start" x="92" y="-821" font-family="Helvetica,sans-Serif" font-size="10.00">+</text>
<text text-anchor="start" x="105" y="-821" font-family="Helvetica,sans-Serif" font-size="10.00">TraceOptions TraceOutput</text>
<text text-anchor="start" x="105" y="-810" font-family="Helvetica,sans-Serif" font-size="10.00">Options</text>
<text text-anchor="start" x="94.5" y="-795" font-family="Helvetica,sans-Serif" font-size="10.00">&#45;</text>
<text text-anchor="start" x="105" y="-795" font-family="Helvetica,sans-Serif" font-size="10.00">int indentLevel</text>
<text text-anchor="start" x="94.5" y="-780" font-family="Helvetica,sans-Serif" font-size="10.00">&#45;</text>
<text text-anchor="start" x="105" y="-780" font-family="Helvetica,sans-Serif" font-size="10.00">int indentSize</text>
<text text-anchor="start" x="94.5" y="-765" font-family="Helvetica,sans-Serif" font-size="10.00">&#45;</text>
<text text-anchor="start" x="105" y="-765" font-family="Helvetica,sans-Serif" font-size="10.00">TraceOptions traceOptions</text>
<text text-anchor="start" x="94.5" y="-750" font-family="Helvetica,sans-Serif" font-size="10.00">&#45;</text>
<text text-anchor="start" x="105" y="-750" font-family="Helvetica,sans-Serif" font-size="10.00">bool needIndent</text>
<text text-anchor="start" x="94.5" y="-735" font-family="Helvetica,sans-Serif" font-size="10.00">&#45;</text>
<text text-anchor="start" x="105" y="-735" font-family="Helvetica,sans-Serif" font-size="10.00">string listenerName</text>
<text text-anchor="start" x="94.5" y="-720" font-family="Helvetica,sans-Serif" font-size="10.00">&#45;</text>
<text text-anchor="start" x="105" y="-720" font-family="Helvetica,sans-Serif" font-size="10.00">TraceFilter filter</text>
<text text-anchor="start" x="92" y="-705" font-family="Helvetica,sans-Serif" font-size="10.00">+</text>
<text text-anchor="start" x="105" y="-705" font-family="Helvetica,sans-Serif" font-size="10.00">void Dispose()</text>
<text text-anchor="start" x="92" y="-690" font-family="Helvetica,sans-Serif" font-size="10.00">+</text>
<text text-anchor="start" x="105" y="-690" font-family="Helvetica,sans-Serif" font-size="10.00">virtual void Flush()</text>
<text text-anchor="start" x="92" y="-675" font-family="Helvetica,sans-Serif" font-size="10.00">+</text>
<text text-anchor="start" x="105" y="-675" font-family="Helvetica,sans-Serif" font-size="10.00">void Write(string message)</text>
<text text-anchor="start" x="92" y="-660" font-family="Helvetica,sans-Serif" font-size="10.00">+</text>
<text text-anchor="start" x="105" y="-660" font-family="Helvetica,sans-Serif" font-size="10.00">void WriteLine(string</text>
<text text-anchor="start" x="105" y="-649" font-family="Helvetica,sans-Serif" font-size="10.00"> message)</text>
<text text-anchor="start" x="92" y="-634" font-family="Helvetica,sans-Serif" font-size="10.00">+</text>
<text text-anchor="start" x="105" y="-634" font-family="Helvetica,sans-Serif" font-size="10.00">virtual void TraceEvent</text>
<text text-anchor="start" x="105" y="-623" font-family="Helvetica,sans-Serif" font-size="10.00">(TraceEventCache eventCache,</text>
<text text-anchor="start" x="105" y="-612" font-family="Helvetica,sans-Serif" font-size="10.00"> string source, TraceEventType</text>
<text text-anchor="start" x="105" y="-601" font-family="Helvetica,sans-Serif" font-size="10.00"> eventType, int id, string message)</text>
<text text-anchor="start" x="92" y="-586" font-family="Helvetica,sans-Serif" font-size="10.00">~</text>
<text text-anchor="start" x="105" y="-586" font-family="Helvetica,sans-Serif" font-size="10.00">bool IsEnabled(TraceOptions</text>
<text text-anchor="start" x="105" y="-575" font-family="Helvetica,sans-Serif" font-size="10.00"> opts)</text>
<text text-anchor="start" x="92" y="-560" font-family="Helvetica,sans-Serif" font-size="10.00">#</text>
<text text-anchor="start" x="105" y="-560" font-family="Helvetica,sans-Serif" font-size="10.00">TraceListener(string</text>
<text text-anchor="start" x="105" y="-549" font-family="Helvetica,sans-Serif" font-size="10.00"> name)</text>
<text text-anchor="start" x="92" y="-534" font-family="Helvetica,sans-Serif" font-size="10.00">#</text>
<text text-anchor="start" x="105" y="-534" font-family="Helvetica,sans-Serif" font-size="10.00">virtual void Dispose</text>
<text text-anchor="start" x="105" y="-523" font-family="Helvetica,sans-Serif" font-size="10.00">(bool disposing)</text>
<text text-anchor="start" x="92" y="-508" font-family="Helvetica,sans-Serif" font-size="10.00">#</text>
<text text-anchor="start" x="105" y="-508" font-family="Helvetica,sans-Serif" font-size="10.00">virtual void WriteIndent()</text>
<text text-anchor="start" x="94.5" y="-493" font-family="Helvetica,sans-Serif" font-size="10.00">&#45;</text>
<text text-anchor="start" x="105" y="-493" font-family="Helvetica,sans-Serif" font-size="10.00">void WriteHeader(string</text>
<text text-anchor="start" x="105" y="-482" font-family="Helvetica,sans-Serif" font-size="10.00"> source, TraceEventType</text>
<text text-anchor="start" x="105" y="-471" font-family="Helvetica,sans-Serif" font-size="10.00"> eventType, int id)</text>
<text text-anchor="start" x="94.5" y="-456" font-family="Helvetica,sans-Serif" font-size="10.00">&#45;</text>
<text text-anchor="start" x="105" y="-456" font-family="Helvetica,sans-Serif" font-size="10.00">void WriteFooter(TraceEvent</text>
<text text-anchor="start" x="105" y="-445" font-family="Helvetica,sans-Serif" font-size="10.00">Cache eventCache)</text>
<polygon fill="#666666" stroke="#666666" points="88,-906 88,-906 278,-906 278,-906 88,-906"/>
<polygon fill="#666666" stroke="#666666" points="88,-715 88,-715 103,-715 103,-715 88,-715"/>
<polygon fill="#666666" stroke="#666666" points="103,-715 103,-715 278,-715 278,-715 103,-715"/>
<polygon fill="none" stroke="#666666" points="88,-438 88,-934 278,-934 278,-438 88,-438"/>
</a>
</g>
</g>
<!-- Node4 -->
<g id="Node000004" class="node">
<title>Node4</title>
<g id="a_Node000004"><a xlink:href="../../d5/d98/classSystem_1_1Diagnostics_1_1DefaultTraceListener.html" target="_top" xlink:title=" ">
<polygon fill="white" stroke="transparent" points="263,-402 103,-402 103,0 263,0 263,-402"/>
<text text-anchor="start" x="115" y="-390" font-family="Helvetica,sans-Serif" font-size="10.00">System.Diagnostics.Default</text>
<text text-anchor="start" x="150.5" y="-379" font-family="Helvetica,sans-Serif" font-size="10.00">TraceListener</text>
<text text-anchor="start" x="107" y="-364" font-family="Helvetica,sans-Serif" font-size="10.00">+</text>
<text text-anchor="start" x="120" y="-364" font-family="Helvetica,sans-Serif" font-size="10.00">string LogFileName</text>
<text text-anchor="start" x="109.5" y="-349" font-family="Helvetica,sans-Serif" font-size="10.00">&#45;</text>
<text text-anchor="start" x="120" y="-349" font-family="Helvetica,sans-Serif" font-size="10.00">string logFileName</text>
<text text-anchor="start" x="109.5" y="-334" font-family="Helvetica,sans-Serif" font-size="10.00">&#45;</text>
<text text-anchor="start" x="120" y="-334" font-family="Helvetica,sans-Serif" font-size="10.00">static readonly bool</text>
<text text-anchor="start" x="120" y="-323" font-family="Helvetica,sans-Serif" font-size="10.00"> OnWin32</text>
<text text-anchor="start" x="109.5" y="-308" font-family="Helvetica,sans-Serif" font-size="10.00">&#45;</text>
<text text-anchor="start" x="120" y="-308" font-family="Helvetica,sans-Serif" font-size="10.00">static readonly string</text>
<text text-anchor="start" x="120" y="-297" font-family="Helvetica,sans-Serif" font-size="10.00"> MonoTracePrefix</text>
<text text-anchor="start" x="109.5" y="-282" font-family="Helvetica,sans-Serif" font-size="10.00">&#45;</text>
<text text-anchor="start" x="120" y="-282" font-family="Helvetica,sans-Serif" font-size="10.00">static readonly string</text>
<text text-anchor="start" x="120" y="-271" font-family="Helvetica,sans-Serif" font-size="10.00"> MonoTraceFile</text>
<text text-anchor="start" x="107" y="-256" font-family="Helvetica,sans-Serif" font-size="10.00">+</text>
<text text-anchor="start" x="120" y="-256" font-family="Helvetica,sans-Serif" font-size="10.00">DefaultTraceListener()</text>
<text text-anchor="start" x="107" y="-241" font-family="Helvetica,sans-Serif" font-size="10.00">+</text>
<text text-anchor="start" x="120" y="-241" font-family="Helvetica,sans-Serif" font-size="10.00">override void Write</text>
<text text-anchor="start" x="120" y="-230" font-family="Helvetica,sans-Serif" font-size="10.00">(string message)</text>
<text text-anchor="start" x="107" y="-215" font-family="Helvetica,sans-Serif" font-size="10.00">+</text>
<text text-anchor="start" x="120" y="-215" font-family="Helvetica,sans-Serif" font-size="10.00">override void WriteLine</text>
<text text-anchor="start" x="120" y="-204" font-family="Helvetica,sans-Serif" font-size="10.00">(string message)</text>
<text text-anchor="start" x="109.5" y="-189" font-family="Helvetica,sans-Serif" font-size="10.00">&#45;</text>
<text text-anchor="start" x="120" y="-189" font-family="Helvetica,sans-Serif" font-size="10.00">static unsafe void</text>
<text text-anchor="start" x="120" y="-178" font-family="Helvetica,sans-Serif" font-size="10.00"> WriteWindowsDebugString</text>
<text text-anchor="start" x="120" y="-167" font-family="Helvetica,sans-Serif" font-size="10.00">(char *message)</text>
<text text-anchor="start" x="109.5" y="-152" font-family="Helvetica,sans-Serif" font-size="10.00">&#45;</text>
<text text-anchor="start" x="120" y="-152" font-family="Helvetica,sans-Serif" font-size="10.00">void WriteDebugString</text>
<text text-anchor="start" x="120" y="-141" font-family="Helvetica,sans-Serif" font-size="10.00">(string message)</text>
<text text-anchor="start" x="109.5" y="-126" font-family="Helvetica,sans-Serif" font-size="10.00">&#45;</text>
<text text-anchor="start" x="120" y="-126" font-family="Helvetica,sans-Serif" font-size="10.00">void WriteMonoTrace</text>
<text text-anchor="start" x="120" y="-115" font-family="Helvetica,sans-Serif" font-size="10.00">(string message)</text>
<text text-anchor="start" x="109.5" y="-100" font-family="Helvetica,sans-Serif" font-size="10.00">&#45;</text>
<text text-anchor="start" x="120" y="-100" font-family="Helvetica,sans-Serif" font-size="10.00">void WritePrefix()</text>
<text text-anchor="start" x="109.5" y="-85" font-family="Helvetica,sans-Serif" font-size="10.00">&#45;</text>
<text text-anchor="start" x="120" y="-85" font-family="Helvetica,sans-Serif" font-size="10.00">void WriteImpl(string</text>
<text text-anchor="start" x="120" y="-74" font-family="Helvetica,sans-Serif" font-size="10.00"> message)</text>
<text text-anchor="start" x="109.5" y="-59" font-family="Helvetica,sans-Serif" font-size="10.00">&#45;</text>
<text text-anchor="start" x="120" y="-59" font-family="Helvetica,sans-Serif" font-size="10.00">void WriteLogFile(string</text>
<text text-anchor="start" x="120" y="-48" font-family="Helvetica,sans-Serif" font-size="10.00"> message, string logFile)</text>
<text text-anchor="start" x="109.5" y="-33" font-family="Helvetica,sans-Serif" font-size="10.00">&#45;</text>
<text text-anchor="start" x="120" y="-33" font-family="Helvetica,sans-Serif" font-size="10.00">static DefaultTraceListener()</text>
<text text-anchor="start" x="109.5" y="-18" font-family="Helvetica,sans-Serif" font-size="10.00">&#45;</text>
<text text-anchor="start" x="120" y="-18" font-family="Helvetica,sans-Serif" font-size="10.00">static string GetPrefix</text>
<text text-anchor="start" x="120" y="-7" font-family="Helvetica,sans-Serif" font-size="10.00">(string var, string target)</text>
<polygon fill="#666666" stroke="#666666" points="103,-374 103,-374 263,-374 263,-374 103,-374"/>
<polygon fill="#666666" stroke="#666666" points="103,-266 103,-266 118,-266 118,-266 103,-266"/>
<polygon fill="#666666" stroke="#666666" points="118,-266 118,-266 263,-266 263,-266 118,-266"/>
<polygon fill="none" stroke="#666666" points="103,0 103,-402 263,-402 263,0 103,0"/>
</a>
</g>
</g>
<!-- Node1&#45;&gt;Node4 -->
<g id="edge3_Node000001_Node000004" class="edge">
<title>Node1&#45;&gt;Node4</title>
<g id="a_edge3_Node000001_Node000004"><a xlink:title=" ">
<path fill="none" stroke="#63b8ff" d="M183,-427.76C183,-419.18 183,-410.63 183,-402.15"/>
<polygon fill="none" stroke="#63b8ff" points="179.5,-427.84 183,-437.84 186.5,-427.84 179.5,-427.84"/>
</a>
</g>
</g>
<!-- Node2 -->
<g id="Node000002" class="node">
<title>Node2</title>
<g id="a_Node000002"><a xlink:href="../../d9/d0e/classSystem_1_1MarshalByRefObject.html" target="_top" xlink:title=" ">
<polygon fill="white" stroke="transparent" points="202,-1108 0,-1108 0,-970 202,-970 202,-1108"/>
<text text-anchor="start" x="51" y="-1096" font-family="Helvetica,sans-Serif" font-size="10.00">MarshalByRefObject</text>
<text text-anchor="start" x="4" y="-1081" font-family="Helvetica,sans-Serif" font-size="10.00">+</text>
<text text-anchor="start" x="17" y="-1081" font-family="Helvetica,sans-Serif" font-size="10.00">global::System.Runtime.Remoting.</text>
<text text-anchor="start" x="17" y="-1070" font-family="Helvetica,sans-Serif" font-size="10.00">ServerIdentity ObjectIdentity</text>
<text text-anchor="start" x="6.5" y="-1055" font-family="Helvetica,sans-Serif" font-size="10.00">&#45;</text>
<text text-anchor="start" x="17" y="-1055" font-family="Helvetica,sans-Serif" font-size="10.00">object _identity</text>
<text text-anchor="start" x="4" y="-1040" font-family="Helvetica,sans-Serif" font-size="10.00">+</text>
<text text-anchor="start" x="17" y="-1040" font-family="Helvetica,sans-Serif" font-size="10.00">virtual global::System.Runtime.</text>
<text text-anchor="start" x="17" y="-1029" font-family="Helvetica,sans-Serif" font-size="10.00">Remoting.ObjRef CreateObjRef</text>
<text text-anchor="start" x="17" y="-1018" font-family="Helvetica,sans-Serif" font-size="10.00">(global::System.Type requestedType)</text>
<text text-anchor="start" x="4" y="-1003" font-family="Helvetica,sans-Serif" font-size="10.00">+</text>
<text text-anchor="start" x="17" y="-1003" font-family="Helvetica,sans-Serif" font-size="10.00">virtual object Initialize</text>
<text text-anchor="start" x="17" y="-992" font-family="Helvetica,sans-Serif" font-size="10.00">LifetimeService()</text>
<text text-anchor="start" x="4" y="-977" font-family="Helvetica,sans-Serif" font-size="10.00">#</text>
<text text-anchor="start" x="17" y="-977" font-family="Helvetica,sans-Serif" font-size="10.00">unsafe MarshalByRefObject()</text>
<polygon fill="#666666" stroke="#666666" points="0,-1091 0,-1091 202,-1091 202,-1091 0,-1091"/>
<polygon fill="#666666" stroke="#666666" points="0,-1050 0,-1050 15,-1050 15,-1050 0,-1050"/>
<polygon fill="#666666" stroke="#666666" points="15,-1050 15,-1050 202,-1050 202,-1050 15,-1050"/>
<polygon fill="none" stroke="#666666" points="0,-970 0,-1108 202,-1108 202,-970 0,-970"/>
</a>
</g>
</g>
<!-- Node2&#45;&gt;Node1 -->
<g id="edge1_Node000001_Node000002" class="edge">
<title>Node2&#45;&gt;Node1</title>
<g id="a_edge1_Node000001_Node000002"><a xlink:title=" ">
<path fill="none" stroke="#63b8ff" d="M119.2,-960.09C121.12,-951.86 123.14,-943.22 125.23,-934.27"/>
<polygon fill="none" stroke="#63b8ff" points="115.77,-959.37 116.91,-969.91 122.59,-960.97 115.77,-959.37"/>
</a>
</g>
</g>
<!-- Node3 -->
<g id="Node000003" class="node">
<title>Node3</title>
<g id="a_Node000003"><a xlink:href="../../d6/d32/interfaceSystem_1_1IDisposable.html" target="_top" xlink:title=" ">
<polygon fill="white" stroke="transparent" points="312,-1063.5 220,-1063.5 220,-1014.5 312,-1014.5 312,-1063.5"/>
<text text-anchor="start" x="237" y="-1051" font-family="Helvetica,sans-Serif" font-size="10.00">IDisposable</text>
<text text-anchor="start" x="264" y="-1036" font-family="Helvetica,sans-Serif" font-size="10.00"> </text>
<text text-anchor="start" x="224" y="-1021" font-family="Helvetica,sans-Serif" font-size="10.00">+</text>
<text text-anchor="start" x="237" y="-1021" font-family="Helvetica,sans-Serif" font-size="10.00">void Dispose()</text>
<polygon fill="#666666" stroke="#666666" points="220,-1046 220,-1046 312,-1046 312,-1046 220,-1046"/>
<polygon fill="#666666" stroke="#666666" points="220,-1031 220,-1031 312,-1031 312,-1031 220,-1031"/>
<polygon fill="none" stroke="#666666" points="220,-1014.5 220,-1063.5 312,-1063.5 312,-1014.5 220,-1014.5"/>
</a>
</g>
</g>
<!-- Node3&#45;&gt;Node1 -->
<g id="edge2_Node000001_Node000003" class="edge">
<title>Node3&#45;&gt;Node1</title>
<g id="a_edge2_Node000001_Node000003"><a xlink:title=" ">
<path fill="none" stroke="#63b8ff" d="M258.1,-1004.61C253.76,-986.22 247.92,-961.56 241.42,-934.07"/>
<polygon fill="none" stroke="#63b8ff" points="254.72,-1005.5 260.43,-1014.42 261.53,-1003.89 254.72,-1005.5"/>
</a>
</g>
</g>
</g>
</svg>

<g id="navigator" transform="translate(0 0)" fill="#404254">
  <rect fill="#f2f5e9" fill-opacity="0.5" stroke="#606060" stroke-width=".5" x="0" y="0" width="60" height="60"/>
  <use id="zoomplus" xlink:href="#zoomPlus" x="17" y="9" onmousedown="handleZoom(evt,'in')"/>
  <use id="zoomminus" xlink:href="#zoomMin" x="42" y="9" onmousedown="handleZoom(evt,'out')"/>
  <use id="reset" xlink:href="#resetDef" x="30" y="36" onmousedown="handleReset()"/>
   <use id="arrowup" xlink:href="#arrowUp" x="0" y="0" onmousedown="handlePan(0,-1)"/>
  <use id="arrowright" xlink:href="#arrowRight" x="0" y="0" onmousedown="handlePan(1,0)"/>
  <use id="arrowdown" xlink:href="#arrowDown" x="0" y="0" onmousedown="handlePan(0,1)"/>
  <use id="arrowleft" xlink:href="#arrowLeft" x="0" y="0" onmousedown="handlePan(-1,0)"/>
</g>
<svg viewBox="0 0 15 15" width="100%" height="30px" preserveAspectRatio="xMaxYMin meet">
 <g id="arrow_out" transform="scale(0.3 0.3)">
  <a xlink:href="classSystem_1_1Diagnostics_1_1TraceListener__inherit__graph_org.svg" target="_base">
   <rect id="button" ry="5" rx="5" y="6" x="6" height="38" width="38"
        fill="#f2f5e9" fill-opacity="0.5" stroke="#606060" stroke-width="1.0"/>
   <path id="arrow"
     d="M 11.500037,31.436501 C 11.940474,20.09759 22.043105,11.32322 32.158766,21.979434 L 37.068811,17.246167 C 37.068811,17.246167 37.088388,32 37.088388,32 L 22.160133,31.978069 C 22.160133,31.978069 26.997745,27.140456 26.997745,27.140456 C 18.528582,18.264221 13.291696,25.230495 11.500037,31.436501 z"
     style="fill:#404040;"/>
  </a>
 </g>
</svg>

<style type='text/css'>
<![CDATA[
[data-mouse-over-selected='false'] { opacity: 0.7; }
[data-mouse-over-selected='true']  { opacity: 1.0; }
]]>
</style>
<script type="application/ecmascript"><![CDATA[
document.addEventListener('DOMContentLoaded', (event) => {
  highlightEdges();
  highlightAdjacentNodes();
});
]]></script>
</svg>
