<?xml version="1.0" encoding="UTF-8" standalone="no"?>
<!DOCTYPE svg PUBLIC "-//W3C//DTD SVG 1.1//EN"
 "http://www.w3.org/Graphics/SVG/1.1/DTD/svg11.dtd">
<!-- Generated by graphviz version 2.43.0 (0)
 -->
<!-- Title: Terraria.GameContent.Skies.SandstormSky Pages: 1 -->
<svg width="468pt" height="948pt"
 viewBox="0.00 0.00 468.35 948.00" xmlns="http://www.w3.org/2000/svg" xmlns:xlink="http://www.w3.org/1999/xlink">
<g id="graph0" class="graph" transform="scale(1 1) rotate(0) translate(4 944)">
<title>Terraria.GameContent.Skies.SandstormSky</title>
<!-- Node1 -->
<g id="Node000001" class="node">
<title>Node1</title>
<g id="a_Node000001"><a xlink:title=" ">
<polygon fill="#999999" stroke="transparent" points="316.35,-242 166.35,-242 166.35,0 316.35,0 316.35,-242"/>
<text text-anchor="start" x="171.35" y="-230" font-family="Helvetica,sans-Serif" font-size="10.00">Terraria.GameContent.Skies.</text>
<text text-anchor="start" x="206.35" y="-219" font-family="Helvetica,sans-Serif" font-size="10.00">SandstormSky</text>
<text text-anchor="start" x="239.35" y="-204" font-family="Helvetica,sans-Serif" font-size="10.00"> </text>
<text text-anchor="start" x="170.85" y="-189" font-family="Helvetica,sans-Serif" font-size="10.00">+</text>
<text text-anchor="start" x="184.35" y="-189" font-family="Helvetica,sans-Serif" font-size="10.00">override void OnLoad()</text>
<text text-anchor="start" x="170.85" y="-174" font-family="Helvetica,sans-Serif" font-size="10.00">+</text>
<text text-anchor="start" x="184.35" y="-174" font-family="Helvetica,sans-Serif" font-size="10.00">override void Update</text>
<text text-anchor="start" x="184.35" y="-163" font-family="Helvetica,sans-Serif" font-size="10.00">(GameTime gameTime)</text>
<text text-anchor="start" x="170.85" y="-148" font-family="Helvetica,sans-Serif" font-size="10.00">+</text>
<text text-anchor="start" x="184.35" y="-148" font-family="Helvetica,sans-Serif" font-size="10.00">override void Draw</text>
<text text-anchor="start" x="184.35" y="-137" font-family="Helvetica,sans-Serif" font-size="10.00">(SpriteBatch spriteBatch,</text>
<text text-anchor="start" x="184.35" y="-126" font-family="Helvetica,sans-Serif" font-size="10.00"> float minDepth, float</text>
<text text-anchor="start" x="184.35" y="-115" font-family="Helvetica,sans-Serif" font-size="10.00"> maxDepth)</text>
<text text-anchor="start" x="170.85" y="-100" font-family="Helvetica,sans-Serif" font-size="10.00">+</text>
<text text-anchor="start" x="184.35" y="-100" font-family="Helvetica,sans-Serif" font-size="10.00">override void Activate</text>
<text text-anchor="start" x="184.35" y="-89" font-family="Helvetica,sans-Serif" font-size="10.00">(Vector2 position, params</text>
<text text-anchor="start" x="184.35" y="-78" font-family="Helvetica,sans-Serif" font-size="10.00"> object[] args)</text>
<text text-anchor="start" x="170.85" y="-63" font-family="Helvetica,sans-Serif" font-size="10.00">+</text>
<text text-anchor="start" x="184.35" y="-63" font-family="Helvetica,sans-Serif" font-size="10.00">override void Deactivate</text>
<text text-anchor="start" x="184.35" y="-52" font-family="Helvetica,sans-Serif" font-size="10.00">(params object[] args)</text>
<text text-anchor="start" x="170.85" y="-37" font-family="Helvetica,sans-Serif" font-size="10.00">+</text>
<text text-anchor="start" x="184.35" y="-37" font-family="Helvetica,sans-Serif" font-size="10.00">override void Reset()</text>
<text text-anchor="start" x="170.85" y="-22" font-family="Helvetica,sans-Serif" font-size="10.00">+</text>
<text text-anchor="start" x="184.35" y="-22" font-family="Helvetica,sans-Serif" font-size="10.00">override bool IsActive()</text>
<text text-anchor="start" x="170.85" y="-7" font-family="Helvetica,sans-Serif" font-size="10.00">+</text>
<text text-anchor="start" x="184.35" y="-7" font-family="Helvetica,sans-Serif" font-size="10.00">SandstormSky()</text>
<polygon fill="#666666" stroke="#666666" points="166.35,-214 166.35,-214 316.35,-214 316.35,-214 166.35,-214"/>
<polygon fill="#666666" stroke="#666666" points="166.35,-199 166.35,-199 316.35,-199 316.35,-199 166.35,-199"/>
<polygon fill="none" stroke="#666666" points="166.35,0 166.35,-242 316.35,-242 316.35,0 166.35,0"/>
</a>
</g>
</g>
<!-- Node2 -->
<g id="Node000002" class="node">
<title>Node2</title>
<g id="a_Node000002"><a xlink:href="../../d7/da8/classTerraria_1_1Graphics_1_1Effects_1_1CustomSky.html" target="_top" xlink:title=" ">
<polygon fill="white" stroke="transparent" points="231.35,-477 69.35,-477 69.35,-279 231.35,-279 231.35,-477"/>
<text text-anchor="start" x="122.85" y="-465" font-family="Helvetica,sans-Serif" font-size="10.00">CustomSky</text>
<text text-anchor="start" x="148.35" y="-450" font-family="Helvetica,sans-Serif" font-size="10.00"> </text>
<text text-anchor="start" x="73.35" y="-435" font-family="Helvetica,sans-Serif" font-size="10.00">+</text>
<text text-anchor="start" x="86.35" y="-435" font-family="Helvetica,sans-Serif" font-size="10.00">void Update(GameTime</text>
<text text-anchor="start" x="86.35" y="-424" font-family="Helvetica,sans-Serif" font-size="10.00"> gameTime)</text>
<text text-anchor="start" x="73.35" y="-409" font-family="Helvetica,sans-Serif" font-size="10.00">+</text>
<text text-anchor="start" x="86.35" y="-409" font-family="Helvetica,sans-Serif" font-size="10.00">void Draw(SpriteBatch</text>
<text text-anchor="start" x="86.35" y="-398" font-family="Helvetica,sans-Serif" font-size="10.00"> spriteBatch, float minDepth,</text>
<text text-anchor="start" x="86.35" y="-387" font-family="Helvetica,sans-Serif" font-size="10.00"> float maxDepth)</text>
<text text-anchor="start" x="73.35" y="-372" font-family="Helvetica,sans-Serif" font-size="10.00">+</text>
<text text-anchor="start" x="86.35" y="-372" font-family="Helvetica,sans-Serif" font-size="10.00">bool IsActive()</text>
<text text-anchor="start" x="73.35" y="-357" font-family="Helvetica,sans-Serif" font-size="10.00">+</text>
<text text-anchor="start" x="86.35" y="-357" font-family="Helvetica,sans-Serif" font-size="10.00">void Reset()</text>
<text text-anchor="start" x="73.35" y="-342" font-family="Helvetica,sans-Serif" font-size="10.00">+</text>
<text text-anchor="start" x="86.35" y="-342" font-family="Helvetica,sans-Serif" font-size="10.00">virtual Color OnTileColor</text>
<text text-anchor="start" x="86.35" y="-331" font-family="Helvetica,sans-Serif" font-size="10.00">(Color inColor)</text>
<text text-anchor="start" x="73.35" y="-316" font-family="Helvetica,sans-Serif" font-size="10.00">+</text>
<text text-anchor="start" x="86.35" y="-316" font-family="Helvetica,sans-Serif" font-size="10.00">virtual float GetCloudAlpha()</text>
<text text-anchor="start" x="73.35" y="-301" font-family="Helvetica,sans-Serif" font-size="10.00">+</text>
<text text-anchor="start" x="86.35" y="-301" font-family="Helvetica,sans-Serif" font-size="10.00">override bool IsVisible()</text>
<text text-anchor="start" x="73.35" y="-286" font-family="Helvetica,sans-Serif" font-size="10.00">#</text>
<text text-anchor="start" x="86.35" y="-286" font-family="Helvetica,sans-Serif" font-size="10.00">CustomSky()</text>
<polygon fill="#666666" stroke="#666666" points="69.35,-460 69.35,-460 231.35,-460 231.35,-460 69.35,-460"/>
<polygon fill="#666666" stroke="#666666" points="69.35,-445 69.35,-445 231.35,-445 231.35,-445 69.35,-445"/>
<polygon fill="none" stroke="#666666" points="69.35,-279 69.35,-477 231.35,-477 231.35,-279 69.35,-279"/>
</a>
</g>
</g>
<!-- Node2&#45;&gt;Node1 -->
<g id="edge1_Node000001_Node000002" class="edge">
<title>Node2&#45;&gt;Node1</title>
<g id="a_edge1_Node000001_Node000002"><a xlink:title=" ">
<path fill="none" stroke="#63b8ff" d="M188.82,-269.2C191.98,-260.33 195.2,-251.32 198.4,-242.36"/>
<polygon fill="none" stroke="#63b8ff" points="185.47,-268.18 185.4,-278.78 192.06,-270.53 185.47,-268.18"/>
</a>
</g>
</g>
<!-- Node3 -->
<g id="Node000003" class="node">
<title>Node3</title>
<g id="a_Node000003"><a xlink:href="../../d1/d23/classTerraria_1_1Graphics_1_1Effects_1_1GameEffect.html" target="_top" xlink:title=" ">
<polygon fill="white" stroke="transparent" points="202.85,-748 63.85,-748 63.85,-576 202.85,-576 202.85,-748"/>
<text text-anchor="start" x="104.85" y="-736" font-family="Helvetica,sans-Serif" font-size="10.00">GameEffect</text>
<text text-anchor="start" x="68.35" y="-721" font-family="Helvetica,sans-Serif" font-size="10.00">+</text>
<text text-anchor="start" x="81.35" y="-721" font-family="Helvetica,sans-Serif" font-size="10.00">bool IsLoaded</text>
<text text-anchor="start" x="68.35" y="-706" font-family="Helvetica,sans-Serif" font-size="10.00">+</text>
<text text-anchor="start" x="81.35" y="-706" font-family="Helvetica,sans-Serif" font-size="10.00">EffectPriority Priority</text>
<text text-anchor="start" x="68.35" y="-691" font-family="Helvetica,sans-Serif" font-size="10.00">+</text>
<text text-anchor="start" x="81.35" y="-691" font-family="Helvetica,sans-Serif" font-size="10.00">void Load()</text>
<text text-anchor="start" x="68.35" y="-676" font-family="Helvetica,sans-Serif" font-size="10.00">+</text>
<text text-anchor="start" x="81.35" y="-676" font-family="Helvetica,sans-Serif" font-size="10.00">virtual void OnLoad()</text>
<text text-anchor="start" x="68.35" y="-661" font-family="Helvetica,sans-Serif" font-size="10.00">+</text>
<text text-anchor="start" x="81.35" y="-661" font-family="Helvetica,sans-Serif" font-size="10.00">bool IsVisible()</text>
<text text-anchor="start" x="68.35" y="-646" font-family="Helvetica,sans-Serif" font-size="10.00">+</text>
<text text-anchor="start" x="81.35" y="-646" font-family="Helvetica,sans-Serif" font-size="10.00">void Activate(Vector2</text>
<text text-anchor="start" x="81.35" y="-635" font-family="Helvetica,sans-Serif" font-size="10.00"> position, params object</text>
<text text-anchor="start" x="81.35" y="-624" font-family="Helvetica,sans-Serif" font-size="10.00">[] args)</text>
<text text-anchor="start" x="68.35" y="-609" font-family="Helvetica,sans-Serif" font-size="10.00">+</text>
<text text-anchor="start" x="81.35" y="-609" font-family="Helvetica,sans-Serif" font-size="10.00">void Deactivate(params</text>
<text text-anchor="start" x="81.35" y="-598" font-family="Helvetica,sans-Serif" font-size="10.00"> object[] args)</text>
<text text-anchor="start" x="68.35" y="-583" font-family="Helvetica,sans-Serif" font-size="10.00">#</text>
<text text-anchor="start" x="81.35" y="-583" font-family="Helvetica,sans-Serif" font-size="10.00">GameEffect()</text>
<polygon fill="#666666" stroke="#666666" points="64.35,-731 64.35,-731 203.35,-731 203.35,-731 64.35,-731"/>
<polygon fill="#666666" stroke="#666666" points="64.35,-701 64.35,-701 79.35,-701 79.35,-701 64.35,-701"/>
<polygon fill="#666666" stroke="#666666" points="79.35,-701 79.35,-701 203.35,-701 203.35,-701 79.35,-701"/>
<polygon fill="none" stroke="#666666" points="63.85,-576 63.85,-748 202.85,-748 202.85,-576 63.85,-576"/>
</a>
</g>
</g>
<!-- Node3&#45;&gt;Node2 -->
<g id="edge2_Node000002_Node000003" class="edge">
<title>Node3&#45;&gt;Node2</title>
<g id="a_edge2_Node000002_Node000003"><a xlink:title=" ">
<path fill="none" stroke="#63b8ff" d="M139.12,-565.3C140.83,-536.89 142.71,-505.75 144.43,-477.19"/>
<polygon fill="none" stroke="#63b8ff" points="135.6,-565.43 138.49,-575.63 142.59,-565.85 135.6,-565.43"/>
</a>
</g>
</g>
<!-- Node4 -->
<g id="Node000004" class="node">
<title>Node4</title>
<g id="a_Node000004"><a xlink:title=" ">
<polygon fill="white" stroke="transparent" points="55.35,-940 23.35,-940 23.35,-891 55.35,-891 55.35,-940"/>
<text text-anchor="start" x="28.35" y="-927.5" font-family="Helvetica,sans-Serif" font-size="10.00">float</text>
<text text-anchor="start" x="37.35" y="-912.5" font-family="Helvetica,sans-Serif" font-size="10.00"> </text>
<text text-anchor="start" x="37.35" y="-897.5" font-family="Helvetica,sans-Serif" font-size="10.00"> </text>
<polygon fill="#666666" stroke="#666666" points="23.35,-922.5 23.35,-922.5 55.35,-922.5 55.35,-922.5 23.35,-922.5"/>
<polygon fill="#666666" stroke="#666666" points="23.35,-907.5 23.35,-907.5 55.35,-907.5 55.35,-907.5 23.35,-907.5"/>
<polygon fill="none" stroke="#666666" points="23.35,-891 23.35,-940 55.35,-940 55.35,-891 23.35,-891"/>
</a>
</g>
</g>
<!-- Node4&#45;&gt;Node1 -->
<g id="edge10_Node000001_Node000004" class="edge">
<title>Node4&#45;&gt;Node1</title>
<g id="a_edge10_Node000001_Node000004"><a xlink:title=" ">
<path fill="none" stroke="#63b8ff" d="M33.69,-890.71C14.26,-803.63 -43.05,-496 60.35,-279 80.96,-235.75 119.66,-199.64 156,-173"/>
<polygon fill="none" stroke="#63b8ff" points="156.4,-172.71 158.96,-165.97 166.17,-165.73 163.61,-172.48 156.4,-172.71"/>
</a>
</g>
<text text-anchor="middle" x="29.85" y="-503.5" font-family="Helvetica,sans-Serif" font-size="10.00" fill="grey"> &#45;_opacity</text>
</g>
<!-- Node4&#45;&gt;Node3 -->
<g id="edge3_Node000003_Node000004" class="edge">
<title>Node4&#45;&gt;Node3</title>
<g id="a_edge3_Node000003_Node000004"><a xlink:title=" ">
<path fill="none" stroke="#63b8ff" d="M46.81,-890.87C53.83,-869 64.8,-835.63 75.35,-807 81.01,-791.64 87.25,-775.45 93.48,-759.71"/>
<polygon fill="none" stroke="#63b8ff" points="93.56,-759.49 92.06,-752.43 98,-748.34 99.5,-755.39 93.56,-759.49"/>
</a>
</g>
<text text-anchor="middle" x="99.85" y="-837.5" font-family="Helvetica,sans-Serif" font-size="10.00" fill="grey"> +Opacity</text>
</g>
<!-- Node5 -->
<g id="Node000005" class="node">
<title>Node5</title>
<g id="a_Node000005"><a xlink:title=" ">
<polygon fill="white" stroke="transparent" points="294.35,-940 262.35,-940 262.35,-891 294.35,-891 294.35,-940"/>
<text text-anchor="start" x="267.35" y="-927.5" font-family="Helvetica,sans-Serif" font-size="10.00">bool</text>
<text text-anchor="start" x="276.35" y="-912.5" font-family="Helvetica,sans-Serif" font-size="10.00"> </text>
<text text-anchor="start" x="276.35" y="-897.5" font-family="Helvetica,sans-Serif" font-size="10.00"> </text>
<polygon fill="#666666" stroke="#666666" points="262.35,-922.5 262.35,-922.5 294.35,-922.5 294.35,-922.5 262.35,-922.5"/>
<polygon fill="#666666" stroke="#666666" points="262.35,-907.5 262.35,-907.5 294.35,-907.5 294.35,-907.5 262.35,-907.5"/>
<polygon fill="none" stroke="#666666" points="262.35,-891 262.35,-940 294.35,-940 294.35,-891 262.35,-891"/>
</a>
</g>
</g>
<!-- Node5&#45;&gt;Node1 -->
<g id="edge9_Node000001_Node000005" class="edge">
<title>Node5&#45;&gt;Node1</title>
<g id="a_edge9_Node000001_Node000005"><a xlink:title=" ">
<path fill="none" stroke="#63b8ff" d="M277.24,-890.78C272.87,-797.11 256.6,-448.59 247.54,-254.56"/>
<polygon fill="none" stroke="#63b8ff" points="247.52,-254.27 243.25,-248.47 246.96,-242.29 251.24,-248.09 247.52,-254.27"/>
</a>
</g>
<text text-anchor="middle" x="287.35" y="-509" font-family="Helvetica,sans-Serif" font-size="10.00" fill="grey"> &#45;_isActive</text>
<text text-anchor="middle" x="287.35" y="-498" font-family="Helvetica,sans-Serif" font-size="10.00" fill="grey">&#45;_isLeaving</text>
</g>
<!-- Node5&#45;&gt;Node3 -->
<g id="edge4_Node000003_Node000005" class="edge">
<title>Node5&#45;&gt;Node3</title>
<g id="a_edge4_Node000003_Node000005"><a xlink:title=" ">
<path fill="none" stroke="#63b8ff" d="M262.3,-909.54C245.34,-903.52 218.95,-891.77 203.35,-873 202.32,-871.76 183.2,-814.31 165.2,-759.82"/>
<polygon fill="none" stroke="#63b8ff" points="165.14,-759.65 159.47,-755.2 161.38,-748.25 167.06,-752.7 165.14,-759.65"/>
</a>
</g>
<text text-anchor="middle" x="233.85" y="-837.5" font-family="Helvetica,sans-Serif" font-size="10.00" fill="grey"> #_isLoaded</text>
</g>
<!-- Node7 -->
<g id="Node000007" class="node">
<title>Node7</title>
<g id="a_Node000007"><a xlink:href="../../d9/db1/classTerraria_1_1Utilities_1_1UnifiedRandom.html" target="_top" xlink:title=" ">
<polygon fill="white" stroke="transparent" points="460.35,-789 306.35,-789 306.35,-535 460.35,-535 460.35,-789"/>
<text text-anchor="start" x="325.35" y="-777" font-family="Helvetica,sans-Serif" font-size="10.00">Terraria.Utilities.Unified</text>
<text text-anchor="start" x="362.85" y="-766" font-family="Helvetica,sans-Serif" font-size="10.00">Random</text>
<text text-anchor="start" x="381.35" y="-751" font-family="Helvetica,sans-Serif" font-size="10.00"> </text>
<text text-anchor="start" x="310.35" y="-736" font-family="Helvetica,sans-Serif" font-size="10.00">+</text>
<text text-anchor="start" x="323.35" y="-736" font-family="Helvetica,sans-Serif" font-size="10.00">UnifiedRandom()</text>
<text text-anchor="start" x="310.35" y="-721" font-family="Helvetica,sans-Serif" font-size="10.00">+</text>
<text text-anchor="start" x="323.35" y="-721" font-family="Helvetica,sans-Serif" font-size="10.00">UnifiedRandom(int</text>
<text text-anchor="start" x="323.35" y="-710" font-family="Helvetica,sans-Serif" font-size="10.00"> Seed)</text>
<text text-anchor="start" x="310.35" y="-695" font-family="Helvetica,sans-Serif" font-size="10.00">+</text>
<text text-anchor="start" x="323.35" y="-695" font-family="Helvetica,sans-Serif" font-size="10.00">void SetSeed(int Seed)</text>
<text text-anchor="start" x="310.35" y="-680" font-family="Helvetica,sans-Serif" font-size="10.00">+</text>
<text text-anchor="start" x="323.35" y="-680" font-family="Helvetica,sans-Serif" font-size="10.00">int Next()</text>
<text text-anchor="start" x="310.35" y="-665" font-family="Helvetica,sans-Serif" font-size="10.00">+</text>
<text text-anchor="start" x="323.35" y="-665" font-family="Helvetica,sans-Serif" font-size="10.00">int Next(int minValue,</text>
<text text-anchor="start" x="323.35" y="-654" font-family="Helvetica,sans-Serif" font-size="10.00"> int maxValue)</text>
<text text-anchor="start" x="310.35" y="-639" font-family="Helvetica,sans-Serif" font-size="10.00">+</text>
<text text-anchor="start" x="323.35" y="-639" font-family="Helvetica,sans-Serif" font-size="10.00">int Next(int maxValue)</text>
<text text-anchor="start" x="310.35" y="-624" font-family="Helvetica,sans-Serif" font-size="10.00">+</text>
<text text-anchor="start" x="323.35" y="-624" font-family="Helvetica,sans-Serif" font-size="10.00">double NextDouble()</text>
<text text-anchor="start" x="310.35" y="-609" font-family="Helvetica,sans-Serif" font-size="10.00">+</text>
<text text-anchor="start" x="323.35" y="-609" font-family="Helvetica,sans-Serif" font-size="10.00">void NextBytes(byte</text>
<text text-anchor="start" x="323.35" y="-598" font-family="Helvetica,sans-Serif" font-size="10.00">[] buffer)</text>
<text text-anchor="start" x="310.35" y="-583" font-family="Helvetica,sans-Serif" font-size="10.00">#</text>
<text text-anchor="start" x="323.35" y="-583" font-family="Helvetica,sans-Serif" font-size="10.00">double Sample()</text>
<text text-anchor="start" x="312.85" y="-568" font-family="Helvetica,sans-Serif" font-size="10.00">&#45;</text>
<text text-anchor="start" x="323.35" y="-568" font-family="Helvetica,sans-Serif" font-size="10.00">int InternalSample()</text>
<text text-anchor="start" x="312.85" y="-553" font-family="Helvetica,sans-Serif" font-size="10.00">&#45;</text>
<text text-anchor="start" x="323.35" y="-553" font-family="Helvetica,sans-Serif" font-size="10.00">double GetSampleForLarge</text>
<text text-anchor="start" x="323.35" y="-542" font-family="Helvetica,sans-Serif" font-size="10.00">Range()</text>
<polygon fill="#666666" stroke="#666666" points="306.35,-761 306.35,-761 460.35,-761 460.35,-761 306.35,-761"/>
<polygon fill="#666666" stroke="#666666" points="306.35,-746 306.35,-746 460.35,-746 460.35,-746 306.35,-746"/>
<polygon fill="none" stroke="#666666" points="306.35,-535 306.35,-789 460.35,-789 460.35,-535 306.35,-535"/>
</a>
</g>
</g>
<!-- Node5&#45;&gt;Node7 -->
<g id="edge8_Node000007_Node000005" class="edge">
<title>Node5&#45;&gt;Node7</title>
<g id="a_edge8_Node000007_Node000005"><a xlink:title=" ">
<path fill="none" stroke="#63b8ff" d="M288.23,-890.84C297.23,-869.27 311.32,-835.51 325.93,-800.53"/>
<polygon fill="none" stroke="#63b8ff" points="326.06,-800.22 324.68,-793.14 330.68,-789.15 332.06,-796.22 326.06,-800.22"/>
</a>
</g>
<text text-anchor="middle" x="342.35" y="-837.5" font-family="Helvetica,sans-Serif" font-size="10.00" fill="grey"> +debug</text>
</g>
<!-- Node6 -->
<g id="Node000006" class="node">
<title>Node6</title>
<g id="a_Node000006"><a xlink:title=" ">
<polygon fill="white" stroke="transparent" points="164.35,-940 90.35,-940 90.35,-891 164.35,-891 164.35,-940"/>
<text text-anchor="start" x="95.35" y="-927.5" font-family="Helvetica,sans-Serif" font-size="10.00">EffectPriority</text>
<text text-anchor="start" x="125.35" y="-912.5" font-family="Helvetica,sans-Serif" font-size="10.00"> </text>
<text text-anchor="start" x="125.35" y="-897.5" font-family="Helvetica,sans-Serif" font-size="10.00"> </text>
<polygon fill="#666666" stroke="#666666" points="90.35,-922.5 90.35,-922.5 164.35,-922.5 164.35,-922.5 90.35,-922.5"/>
<polygon fill="#666666" stroke="#666666" points="90.35,-907.5 90.35,-907.5 164.35,-907.5 164.35,-907.5 90.35,-907.5"/>
<polygon fill="none" stroke="#666666" points="90.35,-891 90.35,-940 164.35,-940 164.35,-891 90.35,-891"/>
</a>
</g>
</g>
<!-- Node6&#45;&gt;Node3 -->
<g id="edge5_Node000003_Node000006" class="edge">
<title>Node6&#45;&gt;Node3</title>
<g id="a_edge5_Node000003_Node000006"><a xlink:title=" ">
<path fill="none" stroke="#63b8ff" d="M127.4,-890.59C127.48,-868.8 127.72,-835.74 128.35,-807 128.68,-792 129.13,-776.13 129.62,-760.61"/>
<polygon fill="none" stroke="#63b8ff" points="129.63,-760.26 125.83,-754.14 130.03,-748.27 133.83,-754.4 129.63,-760.26"/>
</a>
</g>
<text text-anchor="middle" x="154.35" y="-837.5" font-family="Helvetica,sans-Serif" font-size="10.00" fill="grey"> #_priority</text>
</g>
<!-- Node7&#45;&gt;Node1 -->
<g id="edge6_Node000001_Node000007" class="edge">
<title>Node7&#45;&gt;Node1</title>
<g id="a_edge6_Node000001_Node000007"><a xlink:title=" ">
<path fill="none" stroke="#63b8ff" d="M359.13,-534.83C342.79,-455.31 319.32,-350.85 292.35,-260 291.72,-257.89 291.08,-255.76 290.42,-253.62"/>
<polygon fill="none" stroke="#63b8ff" points="290.4,-253.55 284.78,-249.04 286.79,-242.11 292.41,-246.63 290.4,-253.55"/>
</a>
</g>
<text text-anchor="middle" x="371.35" y="-375.5" font-family="Helvetica,sans-Serif" font-size="10.00" fill="grey"> &#45;_random</text>
</g>
<!-- Node8 -->
<g id="Node000008" class="node">
<title>Node8</title>
<g id="a_Node000008"><a xlink:title=" ">
<polygon fill="white" stroke="transparent" points="394.85,-940 371.85,-940 371.85,-891 394.85,-891 394.85,-940"/>
<text text-anchor="start" x="377.35" y="-927.5" font-family="Helvetica,sans-Serif" font-size="10.00">int</text>
<text text-anchor="start" x="381.85" y="-912.5" font-family="Helvetica,sans-Serif" font-size="10.00"> </text>
<text text-anchor="start" x="381.85" y="-897.5" font-family="Helvetica,sans-Serif" font-size="10.00"> </text>
<polygon fill="#666666" stroke="#666666" points="372.35,-922.5 372.35,-922.5 395.35,-922.5 395.35,-922.5 372.35,-922.5"/>
<polygon fill="#666666" stroke="#666666" points="372.35,-907.5 372.35,-907.5 395.35,-907.5 395.35,-907.5 372.35,-907.5"/>
<polygon fill="none" stroke="#666666" points="371.85,-891 371.85,-940 394.85,-940 394.85,-891 371.85,-891"/>
</a>
</g>
</g>
<!-- Node8&#45;&gt;Node7 -->
<g id="edge7_Node000007_Node000008" class="edge">
<title>Node8&#45;&gt;Node7</title>
<g id="a_edge7_Node000007_Node000008"><a xlink:title=" ">
<path fill="none" stroke="#63b8ff" d="M383.35,-890.84C383.35,-869.46 383.35,-836.1 383.35,-801.44"/>
<polygon fill="none" stroke="#63b8ff" points="383.35,-801.15 379.35,-795.15 383.35,-789.15 387.35,-795.15 383.35,-801.15"/>
</a>
</g>
<text text-anchor="middle" x="410.85" y="-865" font-family="Helvetica,sans-Serif" font-size="10.00" fill="grey"> &#45;MBIG</text>
<text text-anchor="middle" x="410.85" y="-854" font-family="Helvetica,sans-Serif" font-size="10.00" fill="grey">&#45;MSEED</text>
<text text-anchor="middle" x="410.85" y="-843" font-family="Helvetica,sans-Serif" font-size="10.00" fill="grey">&#45;MZ</text>
<text text-anchor="middle" x="410.85" y="-832" font-family="Helvetica,sans-Serif" font-size="10.00" fill="grey">&#45;SeedArray</text>
<text text-anchor="middle" x="410.85" y="-821" font-family="Helvetica,sans-Serif" font-size="10.00" fill="grey">&#45;inext</text>
<text text-anchor="middle" x="410.85" y="-810" font-family="Helvetica,sans-Serif" font-size="10.00" fill="grey">&#45;inextp</text>
</g>
</g>
</svg>
