<?xml version="1.0" encoding="UTF-8" standalone="no"?>
<!DOCTYPE svg PUBLIC "-//W3C//DTD SVG 1.1//EN"
 "http://www.w3.org/Graphics/SVG/1.1/DTD/svg11.dtd">
<!-- Generated by graphviz version 2.43.0 (0)
 -->
<!-- Title: ulong Pages: 1 -->
<!--zoomable 153 -->

<svg id="main" version="1.1" xmlns="http://www.w3.org/2000/svg" xmlns:xlink="http://www.w3.org/1999/xlink" xml:space="preserve" onload="init(evt)">
<style type="text/css"><![CDATA[
.node, .edge {opacity: 0.7;}
.node.selected, .edge.selected {opacity: 1;}
.edge:hover path { stroke: red; }
.edge:hover polygon { stroke: red; fill: red; }
]]></style>

<defs>
  <circle id="rim" cx="0" cy="0" r="7"/>
  <circle id="rim2" cx="0" cy="0" r="3.5"/>
  <g id="zoomPlus">
    <use xlink:href="#rim" fill="#404040"><set attributeName="fill" to="#808080" begin="zoomplus.mouseover" end="zoomplus.mouseout"/></use>
    <path d="M-4,0h8M0,-4v8" fill="none" stroke="white" stroke-width="1.5" pointer-events="none"/>
  </g>
  <g id="zoomMin">
    <use xlink:href="#rim" fill="#404040"><set attributeName="fill" to="#808080" begin="zoomminus.mouseover" end="zoomminus.mouseout"/></use>
    <path d="M-4,0h8" fill="none" stroke="white" stroke-width="1.5" pointer-events="none"/>
  </g>
  <g id="arrowUp" transform="translate(30 24)">
    <use xlink:href="#rim"/>
    <path pointer-events="none" fill="none" stroke="white" stroke-width="1.5" d="M0,-3.0v7 M-2.5,-0.5L0,-3.0L2.5,-0.5"/>
  </g>
  <g id="arrowRight" transform="rotate(90) translate(36 -43)">
    <use xlink:href="#rim"/>
    <path pointer-events="none" fill="none" stroke="white" stroke-width="1.5" d="M0,-3.0v7 M-2.5,-0.5L0,-3.0L2.5,-0.5"/>
  </g>
  <g id="arrowDown" transform="rotate(180) translate(-30 -48)">
    <use xlink:href="#rim"/>
    <path pointer-events="none" fill="none" stroke="white" stroke-width="1.5" d="M0,-3.0v7 M-2.5,-0.5L0,-3.0L2.5,-0.5"/>
  </g>
  <g id="arrowLeft" transform="rotate(270) translate(-36 17)">
    <use xlink:href="#rim"/>
    <path pointer-events="none" fill="none" stroke="white" stroke-width="1.5" d="M0,-3.0v7 M-2.5,-0.5L0,-3.0L2.5,-0.5"/>
  </g>
  <g id="resetDef">
    <use xlink:href="#rim2" fill="#404040"><set attributeName="fill" to="#808080" begin="reset.mouseover" end="reset.mouseout"/></use>
  </g>
</defs>
<script type="application/ecmascript">
var viewWidth = 1247;
var viewHeight = 153;
var sectionId = 'dynsection-0';
</script>
<script type="application/ecmascript" xlink:href="../../svg.min.js"/>
<svg id="graph" class="graph">
<g id="viewport">
<title>ulong</title>
<!-- Node1 -->
<g id="Node000001" class="node">
<title>Node1</title>
<g id="a_Node000001"><a xlink:title=" ">
<polygon fill="#999999" stroke="transparent" points="635,-145 597,-145 597,-96 635,-96 635,-145"/>
<text text-anchor="start" x="602" y="-132.5" font-family="Helvetica,sans-Serif" font-size="10.00">ulong</text>
<text text-anchor="start" x="614" y="-117.5" font-family="Helvetica,sans-Serif" font-size="10.00"> </text>
<text text-anchor="start" x="614" y="-102.5" font-family="Helvetica,sans-Serif" font-size="10.00"> </text>
<polygon fill="#666666" stroke="#666666" points="597,-127.5 597,-127.5 635,-127.5 635,-127.5 597,-127.5"/>
<polygon fill="#666666" stroke="#666666" points="597,-112.5 597,-112.5 635,-112.5 635,-112.5 597,-112.5"/>
<polygon fill="none" stroke="#666666" points="597,-96 597,-145 635,-145 635,-96 597,-96"/>
</a>
</g>
</g>
<!-- Node2 -->
<g id="Node000002" class="node">
<title>Node2</title>
<g id="a_Node000002"><a xlink:href="../../d7/d2d/classulong.html" target="_top" xlink:title=" ">
<polygon fill="white" stroke="transparent" points="120,-49 0,-49 0,0 120,0 120,-49"/>
<text text-anchor="start" x="5" y="-36.5" font-family="Helvetica,sans-Serif" font-size="10.00">ulong&lt; DefaultSeed &gt;</text>
<text text-anchor="start" x="58" y="-21.5" font-family="Helvetica,sans-Serif" font-size="10.00"> </text>
<text text-anchor="start" x="58" y="-6.5" font-family="Helvetica,sans-Serif" font-size="10.00"> </text>
<polygon fill="#666666" stroke="#666666" points="0,-31.5 0,-31.5 120,-31.5 120,-31.5 0,-31.5"/>
<polygon fill="#666666" stroke="#666666" points="0,-16.5 0,-16.5 120,-16.5 120,-16.5 0,-16.5"/>
<polygon fill="none" stroke="#666666" points="0,0 0,-49 120,-49 120,0 0,0"/>
</a>
</g>
</g>
<!-- Node1&#45;&gt;Node2 -->
<g id="edge1_Node000001_Node000002" class="edge">
<title>Node1&#45;&gt;Node2</title>
<g id="a_edge1_Node000001_Node000002"><a xlink:title=" ">
<path fill="none" stroke="orange" d="M586.52,-119.4C516.98,-118.58 337.68,-112.93 193,-78 164.77,-71.18 134.56,-59.63 110.08,-49.1"/>
<polygon fill="orange" stroke="orange" points="586.68,-122.91 596.71,-119.5 586.75,-115.91 586.68,-122.91"/>
</a>
</g>
<text text-anchor="middle" x="236" y="-70" font-family="Helvetica,sans-Serif" font-size="10.00" fill="grey"> &lt; DefaultSeed &gt;</text>
</g>
<!-- Node3 -->
<g id="Node000003" class="node">
<title>Node3</title>
<g id="a_Node000003"><a xlink:href="../../d7/d2d/classulong.html" target="_top" xlink:title=" ">
<polygon fill="white" stroke="transparent" points="306,-49 138,-49 138,0 306,0 306,-49"/>
<text text-anchor="start" x="143" y="-36.5" font-family="Helvetica,sans-Serif" font-size="10.00">ulong&lt; UnpausedUpdateSeed &gt;</text>
<text text-anchor="start" x="220" y="-21.5" font-family="Helvetica,sans-Serif" font-size="10.00"> </text>
<text text-anchor="start" x="220" y="-6.5" font-family="Helvetica,sans-Serif" font-size="10.00"> </text>
<polygon fill="#666666" stroke="#666666" points="138,-31.5 138,-31.5 306,-31.5 306,-31.5 138,-31.5"/>
<polygon fill="#666666" stroke="#666666" points="138,-16.5 138,-16.5 306,-16.5 306,-16.5 138,-16.5"/>
<polygon fill="none" stroke="#666666" points="138,0 138,-49 306,-49 306,0 138,0"/>
</a>
</g>
</g>
<!-- Node1&#45;&gt;Node3 -->
<g id="edge2_Node000001_Node000003" class="edge">
<title>Node1&#45;&gt;Node3</title>
<g id="a_edge2_Node000001_Node000003"><a xlink:title=" ">
<path fill="none" stroke="orange" d="M586.66,-119.78C530.15,-119.43 403.07,-114.26 304,-78 285.43,-71.2 266.7,-59.65 251.85,-49.11"/>
<polygon fill="orange" stroke="orange" points="586.67,-123.28 596.68,-119.8 586.68,-116.28 586.67,-123.28"/>
</a>
</g>
<text text-anchor="middle" x="371" y="-70" font-family="Helvetica,sans-Serif" font-size="10.00" fill="grey"> &lt; UnpausedUpdateSeed &gt;</text>
</g>
<!-- Node4 -->
<g id="Node000004" class="node">
<title>Node4</title>
<g id="a_Node000004"><a xlink:href="../../d7/d2d/classulong.html" target="_top" xlink:title=" ">
<polygon fill="white" stroke="transparent" points="408,-49 324,-49 324,0 408,0 408,-49"/>
<text text-anchor="start" x="329" y="-36.5" font-family="Helvetica,sans-Serif" font-size="10.00">ulong&lt; Seed &gt;</text>
<text text-anchor="start" x="364" y="-21.5" font-family="Helvetica,sans-Serif" font-size="10.00"> </text>
<text text-anchor="start" x="364" y="-6.5" font-family="Helvetica,sans-Serif" font-size="10.00"> </text>
<polygon fill="#666666" stroke="#666666" points="324,-31.5 324,-31.5 408,-31.5 408,-31.5 324,-31.5"/>
<polygon fill="#666666" stroke="#666666" points="324,-16.5 324,-16.5 408,-16.5 408,-16.5 324,-16.5"/>
<polygon fill="none" stroke="#666666" points="324,0 324,-49 408,-49 408,0 324,0"/>
</a>
</g>
</g>
<!-- Node1&#45;&gt;Node4 -->
<g id="edge3_Node000001_Node000004" class="edge">
<title>Node1&#45;&gt;Node4</title>
<g id="a_edge3_Node000001_Node000004"><a xlink:title=" ">
<path fill="none" stroke="orange" d="M586.68,-113.56C555.6,-106.79 505.37,-94.48 464,-78 443.92,-70 422.65,-58.95 405.08,-49.05"/>
<polygon fill="orange" stroke="orange" points="586.32,-117.06 596.83,-115.72 587.78,-110.21 586.32,-117.06"/>
</a>
</g>
<text text-anchor="middle" x="489" y="-70" font-family="Helvetica,sans-Serif" font-size="10.00" fill="grey"> &lt; Seed &gt;</text>
</g>
<!-- Node5 -->
<g id="Node000005" class="node">
<title>Node5</title>
<g id="a_Node000005"><a xlink:href="../../d7/d2d/classulong.html" target="_top" xlink:title=" ">
<polygon fill="white" stroke="transparent" points="543.5,-49 426.5,-49 426.5,0 543.5,0 543.5,-49"/>
<text text-anchor="start" x="432" y="-36.5" font-family="Helvetica,sans-Serif" font-size="10.00">ulong&lt; OffsetBytes &gt;</text>
<text text-anchor="start" x="483.5" y="-21.5" font-family="Helvetica,sans-Serif" font-size="10.00"> </text>
<text text-anchor="start" x="483.5" y="-6.5" font-family="Helvetica,sans-Serif" font-size="10.00"> </text>
<polygon fill="#666666" stroke="#666666" points="427,-31.5 427,-31.5 544,-31.5 544,-31.5 427,-31.5"/>
<polygon fill="#666666" stroke="#666666" points="427,-16.5 427,-16.5 544,-16.5 544,-16.5 427,-16.5"/>
<polygon fill="none" stroke="#666666" points="426.5,0 426.5,-49 543.5,-49 543.5,0 426.5,0"/>
</a>
</g>
</g>
<!-- Node1&#45;&gt;Node5 -->
<g id="edge4_Node000001_Node000005" class="edge">
<title>Node1&#45;&gt;Node5</title>
<g id="a_edge4_Node000001_Node000005"><a xlink:title=" ">
<path fill="none" stroke="orange" d="M587.36,-109.46C569.5,-102.35 546.64,-91.66 529,-78 518.56,-69.92 508.91,-58.97 501.31,-49.17"/>
<polygon fill="orange" stroke="orange" points="586.11,-112.73 596.7,-113.03 588.61,-106.19 586.11,-112.73"/>
</a>
</g>
<text text-anchor="middle" x="570.5" y="-70" font-family="Helvetica,sans-Serif" font-size="10.00" fill="grey"> &lt; OffsetBytes &gt;</text>
</g>
<!-- Node6 -->
<g id="Node000006" class="node">
<title>Node6</title>
<g id="a_Node000006"><a xlink:href="../../d7/d2d/classulong.html" target="_top" xlink:title=" ">
<polygon fill="white" stroke="transparent" points="670,-49 562,-49 562,0 670,0 670,-49"/>
<text text-anchor="start" x="567" y="-36.5" font-family="Helvetica,sans-Serif" font-size="10.00">ulong&lt; SizeBytes &gt;</text>
<text text-anchor="start" x="614" y="-21.5" font-family="Helvetica,sans-Serif" font-size="10.00"> </text>
<text text-anchor="start" x="614" y="-6.5" font-family="Helvetica,sans-Serif" font-size="10.00"> </text>
<polygon fill="#666666" stroke="#666666" points="562,-31.5 562,-31.5 670,-31.5 670,-31.5 562,-31.5"/>
<polygon fill="#666666" stroke="#666666" points="562,-16.5 562,-16.5 670,-16.5 670,-16.5 562,-16.5"/>
<polygon fill="none" stroke="#666666" points="562,0 562,-49 670,-49 670,0 562,0"/>
</a>
</g>
</g>
<!-- Node1&#45;&gt;Node6 -->
<g id="edge5_Node000001_Node000006" class="edge">
<title>Node1&#45;&gt;Node6</title>
<g id="a_edge5_Node000001_Node000006"><a xlink:title=" ">
<path fill="none" stroke="orange" d="M616,-85.6C616,-73.54 616,-60.23 616,-49.21"/>
<polygon fill="orange" stroke="orange" points="612.5,-85.78 616,-95.78 619.5,-85.78 612.5,-85.78"/>
</a>
</g>
<text text-anchor="middle" x="653" y="-70" font-family="Helvetica,sans-Serif" font-size="10.00" fill="grey"> &lt; SizeBytes &gt;</text>
</g>
<!-- Node7 -->
<g id="Node000007" class="node">
<title>Node7</title>
<g id="a_Node000007"><a xlink:href="../../d7/d2d/classulong.html" target="_top" xlink:title=" ">
<polygon fill="white" stroke="transparent" points="807.5,-49 688.5,-49 688.5,0 807.5,0 807.5,-49"/>
<text text-anchor="start" x="694" y="-36.5" font-family="Helvetica,sans-Serif" font-size="10.00">ulong&lt; AssetTypeId &gt;</text>
<text text-anchor="start" x="746.5" y="-21.5" font-family="Helvetica,sans-Serif" font-size="10.00"> </text>
<text text-anchor="start" x="746.5" y="-6.5" font-family="Helvetica,sans-Serif" font-size="10.00"> </text>
<polygon fill="#666666" stroke="#666666" points="689,-31.5 689,-31.5 808,-31.5 808,-31.5 689,-31.5"/>
<polygon fill="#666666" stroke="#666666" points="689,-16.5 689,-16.5 808,-16.5 808,-16.5 689,-16.5"/>
<polygon fill="none" stroke="#666666" points="688.5,0 688.5,-49 807.5,-49 807.5,0 688.5,0"/>
</a>
</g>
</g>
<!-- Node1&#45;&gt;Node7 -->
<g id="edge6_Node000001_Node000007" class="edge">
<title>Node1&#45;&gt;Node7</title>
<g id="a_edge6_Node000001_Node000007"><a xlink:title=" ">
<path fill="none" stroke="orange" d="M644.62,-106.69C659.89,-99.27 678.65,-89.2 694,-78 705.52,-69.6 717.01,-58.84 726.42,-49.24"/>
<polygon fill="orange" stroke="orange" points="642.7,-103.73 635.16,-111.17 645.69,-110.06 642.7,-103.73"/>
</a>
</g>
<text text-anchor="middle" x="749.5" y="-70" font-family="Helvetica,sans-Serif" font-size="10.00" fill="grey"> &lt; AssetTypeId &gt;</text>
</g>
<!-- Node8 -->
<g id="Node000008" class="node">
<title>Node8</title>
<g id="a_Node000008"><a xlink:href="../../d7/d2d/classulong.html" target="_top" xlink:title=" ">
<polygon fill="white" stroke="transparent" points="974.5,-49 825.5,-49 825.5,0 974.5,0 974.5,-49"/>
<text text-anchor="start" x="831" y="-36.5" font-family="Helvetica,sans-Serif" font-size="10.00">ulong&lt; CurrentBytesRead &gt;</text>
<text text-anchor="start" x="898.5" y="-21.5" font-family="Helvetica,sans-Serif" font-size="10.00"> </text>
<text text-anchor="start" x="898.5" y="-6.5" font-family="Helvetica,sans-Serif" font-size="10.00"> </text>
<polygon fill="#666666" stroke="#666666" points="826,-31.5 826,-31.5 975,-31.5 975,-31.5 826,-31.5"/>
<polygon fill="#666666" stroke="#666666" points="826,-16.5 826,-16.5 975,-16.5 975,-16.5 826,-16.5"/>
<polygon fill="none" stroke="#666666" points="825.5,0 825.5,-49 974.5,-49 974.5,0 825.5,0"/>
</a>
</g>
</g>
<!-- Node1&#45;&gt;Node8 -->
<g id="edge7_Node000001_Node000008" class="edge">
<title>Node1&#45;&gt;Node8</title>
<g id="a_edge7_Node000001_Node000008"><a xlink:title=" ">
<path fill="none" stroke="orange" d="M645.41,-114.96C681.57,-108.88 744.48,-96.63 796,-78 817.49,-70.23 840.27,-59.09 859.02,-49.07"/>
<polygon fill="orange" stroke="orange" points="644.39,-111.58 635.09,-116.65 645.52,-118.49 644.39,-111.58"/>
</a>
</g>
<text text-anchor="middle" x="880.5" y="-70" font-family="Helvetica,sans-Serif" font-size="10.00" fill="grey"> &lt; CurrentBytesRead &gt;</text>
</g>
<!-- Node9 -->
<g id="Node000009" class="node">
<title>Node9</title>
<g id="a_Node000009"><a xlink:href="../../d7/d2d/classulong.html" target="_top" xlink:title=" ">
<polygon fill="white" stroke="transparent" points="1073,-49 993,-49 993,0 1073,0 1073,-49"/>
<text text-anchor="start" x="998" y="-36.5" font-family="Helvetica,sans-Serif" font-size="10.00">ulong&lt; size &gt;</text>
<text text-anchor="start" x="1031" y="-21.5" font-family="Helvetica,sans-Serif" font-size="10.00"> </text>
<text text-anchor="start" x="1031" y="-6.5" font-family="Helvetica,sans-Serif" font-size="10.00"> </text>
<polygon fill="#666666" stroke="#666666" points="993,-31.5 993,-31.5 1073,-31.5 1073,-31.5 993,-31.5"/>
<polygon fill="#666666" stroke="#666666" points="993,-16.5 993,-16.5 1073,-16.5 1073,-16.5 993,-16.5"/>
<polygon fill="none" stroke="#666666" points="993,0 993,-49 1073,-49 1073,0 993,0"/>
</a>
</g>
</g>
<!-- Node1&#45;&gt;Node9 -->
<g id="edge8_Node000001_Node000009" class="edge">
<title>Node1&#45;&gt;Node9</title>
<g id="a_edge8_Node000001_Node000009"><a xlink:title=" ">
<path fill="none" stroke="orange" d="M645.65,-119.59C703.98,-118.95 837.11,-113.34 942,-78 962.22,-71.19 982.97,-59.64 999.54,-49.1"/>
<polygon fill="orange" stroke="orange" points="645.3,-116.1 635.33,-119.66 645.35,-123.1 645.3,-116.1"/>
</a>
</g>
<text text-anchor="middle" x="989" y="-70" font-family="Helvetica,sans-Serif" font-size="10.00" fill="grey"> &lt; size &gt;</text>
</g>
<!-- Node10 -->
<g id="Node000010" class="node">
<title>Node10</title>
<g id="a_Node000010"><a xlink:href="../../d7/d2d/classulong.html" target="_top" xlink:title=" ">
<polygon fill="white" stroke="transparent" points="1239,-49 1091,-49 1091,0 1239,0 1239,-49"/>
<text text-anchor="start" x="1096" y="-36.5" font-family="Helvetica,sans-Serif" font-size="10.00">ulong&lt; bytesDownloaded &gt;</text>
<text text-anchor="start" x="1163" y="-21.5" font-family="Helvetica,sans-Serif" font-size="10.00"> </text>
<text text-anchor="start" x="1163" y="-6.5" font-family="Helvetica,sans-Serif" font-size="10.00"> </text>
<polygon fill="#666666" stroke="#666666" points="1091,-31.5 1091,-31.5 1239,-31.5 1239,-31.5 1091,-31.5"/>
<polygon fill="#666666" stroke="#666666" points="1091,-16.5 1091,-16.5 1239,-16.5 1239,-16.5 1091,-16.5"/>
<polygon fill="none" stroke="#666666" points="1091,0 1091,-49 1239,-49 1239,0 1091,0"/>
</a>
</g>
</g>
<!-- Node1&#45;&gt;Node10 -->
<g id="edge9_Node000001_Node000010" class="edge">
<title>Node1&#45;&gt;Node10</title>
<g id="a_edge9_Node000001_Node000010"><a xlink:title=" ">
<path fill="none" stroke="orange" d="M645.62,-118.8C712.47,-116.71 879.85,-108.6 1016,-78 1047.17,-70.99 1080.83,-59.49 1108.26,-49.04"/>
<polygon fill="orange" stroke="orange" points="645.3,-115.31 635.41,-119.1 645.51,-122.31 645.3,-115.31"/>
</a>
</g>
<text text-anchor="middle" x="1111" y="-70" font-family="Helvetica,sans-Serif" font-size="10.00" fill="grey"> &lt; bytesDownloaded &gt;</text>
</g>
</g>
</svg>

<g id="navigator" transform="translate(0 0)" fill="#404254">
  <rect fill="#f2f5e9" fill-opacity="0.5" stroke="#606060" stroke-width=".5" x="0" y="0" width="60" height="60"/>
  <use id="zoomplus" xlink:href="#zoomPlus" x="17" y="9" onmousedown="handleZoom(evt,'in')"/>
  <use id="zoomminus" xlink:href="#zoomMin" x="42" y="9" onmousedown="handleZoom(evt,'out')"/>
  <use id="reset" xlink:href="#resetDef" x="30" y="36" onmousedown="handleReset()"/>
   <use id="arrowup" xlink:href="#arrowUp" x="0" y="0" onmousedown="handlePan(0,-1)"/>
  <use id="arrowright" xlink:href="#arrowRight" x="0" y="0" onmousedown="handlePan(1,0)"/>
  <use id="arrowdown" xlink:href="#arrowDown" x="0" y="0" onmousedown="handlePan(0,1)"/>
  <use id="arrowleft" xlink:href="#arrowLeft" x="0" y="0" onmousedown="handlePan(-1,0)"/>
</g>
<svg viewBox="0 0 15 15" width="100%" height="30px" preserveAspectRatio="xMaxYMin meet">
 <g id="arrow_out" transform="scale(0.3 0.3)">
  <a xlink:href="classulong__inherit__graph_org.svg" target="_base">
   <rect id="button" ry="5" rx="5" y="6" x="6" height="38" width="38"
        fill="#f2f5e9" fill-opacity="0.5" stroke="#606060" stroke-width="1.0"/>
   <path id="arrow"
     d="M 11.500037,31.436501 C 11.940474,20.09759 22.043105,11.32322 32.158766,21.979434 L 37.068811,17.246167 C 37.068811,17.246167 37.088388,32 37.088388,32 L 22.160133,31.978069 C 22.160133,31.978069 26.997745,27.140456 26.997745,27.140456 C 18.528582,18.264221 13.291696,25.230495 11.500037,31.436501 z"
     style="fill:#404040;"/>
  </a>
 </g>
</svg>

<style type='text/css'>
<![CDATA[
[data-mouse-over-selected='false'] { opacity: 0.7; }
[data-mouse-over-selected='true']  { opacity: 1.0; }
]]>
</style>
<script type="application/ecmascript"><![CDATA[
document.addEventListener('DOMContentLoaded', (event) => {
  highlightEdges();
  highlightAdjacentNodes();
});
]]></script>
</svg>
