<?xml version="1.0" encoding="UTF-8" standalone="no"?>
<!DOCTYPE svg PUBLIC "-//W3C//DTD SVG 1.1//EN"
 "http://www.w3.org/Graphics/SVG/1.1/DTD/svg11.dtd">
<!-- Generated by graphviz version 2.43.0 (0)
 -->
<!-- Title: Terraria.WorldBuilding.Shapes.HalfCircle Pages: 1 -->
<!--zoomable 764 -->

<svg id="main" version="1.1" xmlns="http://www.w3.org/2000/svg" xmlns:xlink="http://www.w3.org/1999/xlink" xml:space="preserve" onload="init(evt)">
<style type="text/css"><![CDATA[
.node, .edge {opacity: 0.7;}
.node.selected, .edge.selected {opacity: 1;}
.edge:hover path { stroke: red; }
.edge:hover polygon { stroke: red; fill: red; }
]]></style>

<defs>
  <circle id="rim" cx="0" cy="0" r="7"/>
  <circle id="rim2" cx="0" cy="0" r="3.5"/>
  <g id="zoomPlus">
    <use xlink:href="#rim" fill="#404040"><set attributeName="fill" to="#808080" begin="zoomplus.mouseover" end="zoomplus.mouseout"/></use>
    <path d="M-4,0h8M0,-4v8" fill="none" stroke="white" stroke-width="1.5" pointer-events="none"/>
  </g>
  <g id="zoomMin">
    <use xlink:href="#rim" fill="#404040"><set attributeName="fill" to="#808080" begin="zoomminus.mouseover" end="zoomminus.mouseout"/></use>
    <path d="M-4,0h8" fill="none" stroke="white" stroke-width="1.5" pointer-events="none"/>
  </g>
  <g id="arrowUp" transform="translate(30 24)">
    <use xlink:href="#rim"/>
    <path pointer-events="none" fill="none" stroke="white" stroke-width="1.5" d="M0,-3.0v7 M-2.5,-0.5L0,-3.0L2.5,-0.5"/>
  </g>
  <g id="arrowRight" transform="rotate(90) translate(36 -43)">
    <use xlink:href="#rim"/>
    <path pointer-events="none" fill="none" stroke="white" stroke-width="1.5" d="M0,-3.0v7 M-2.5,-0.5L0,-3.0L2.5,-0.5"/>
  </g>
  <g id="arrowDown" transform="rotate(180) translate(-30 -48)">
    <use xlink:href="#rim"/>
    <path pointer-events="none" fill="none" stroke="white" stroke-width="1.5" d="M0,-3.0v7 M-2.5,-0.5L0,-3.0L2.5,-0.5"/>
  </g>
  <g id="arrowLeft" transform="rotate(270) translate(-36 17)">
    <use xlink:href="#rim"/>
    <path pointer-events="none" fill="none" stroke="white" stroke-width="1.5" d="M0,-3.0v7 M-2.5,-0.5L0,-3.0L2.5,-0.5"/>
  </g>
  <g id="resetDef">
    <use xlink:href="#rim2" fill="#404040"><set attributeName="fill" to="#808080" begin="reset.mouseover" end="reset.mouseout"/></use>
  </g>
</defs>
<script type="application/ecmascript">
var viewWidth = 438;
var viewHeight = 764;
var sectionId = 'dynsection-1';
</script>
<script type="application/ecmascript" xlink:href="../../svg.min.js"/>
<svg id="graph" class="graph">
<g id="viewport">
<title>Terraria.WorldBuilding.Shapes.HalfCircle</title>
<!-- Node1 -->
<g id="Node000001" class="node">
<title>Node1</title>
<g id="a_Node000001"><a xlink:title=" ">
<polygon fill="#999999" stroke="transparent" points="409,-97 250,-97 250,0 409,0 409,-97"/>
<text text-anchor="start" x="255.5" y="-84.5" font-family="Helvetica,sans-Serif" font-size="10.00">Terraria.WorldBuilding.Shapes.</text>
<text text-anchor="start" x="305.5" y="-73.5" font-family="Helvetica,sans-Serif" font-size="10.00">HalfCircle</text>
<text text-anchor="start" x="328" y="-58.5" font-family="Helvetica,sans-Serif" font-size="10.00"> </text>
<text text-anchor="start" x="260" y="-43.5" font-family="Helvetica,sans-Serif" font-size="10.00">+</text>
<text text-anchor="start" x="278.5" y="-43.5" font-family="Helvetica,sans-Serif" font-size="10.00">HalfCircle(int radius)</text>
<text text-anchor="start" x="260" y="-28.5" font-family="Helvetica,sans-Serif" font-size="10.00">+</text>
<text text-anchor="start" x="278.5" y="-28.5" font-family="Helvetica,sans-Serif" font-size="10.00">override bool Perform</text>
<text text-anchor="start" x="278.5" y="-17.5" font-family="Helvetica,sans-Serif" font-size="10.00">(Point origin, GenAction</text>
<text text-anchor="start" x="278.5" y="-6.5" font-family="Helvetica,sans-Serif" font-size="10.00"> action)</text>
<polygon fill="#666666" stroke="#666666" points="250.5,-68.5 250.5,-68.5 409.5,-68.5 409.5,-68.5 250.5,-68.5"/>
<polygon fill="#666666" stroke="#666666" points="250.5,-53.5 250.5,-53.5 409.5,-53.5 409.5,-53.5 250.5,-53.5"/>
<polygon fill="none" stroke="#666666" points="250,0 250,-97 409,-97 409,0 250,0"/>
</a>
</g>
</g>
<!-- Node2 -->
<g id="Node000002" class="node">
<title>Node2</title>
<g id="a_Node000002"><a xlink:href="../../da/d11/classTerraria_1_1WorldBuilding_1_1GenShape.html" target="_top" xlink:title=" ">
<polygon fill="white" stroke="transparent" points="355.5,-319 191.5,-319 191.5,-144 355.5,-144 355.5,-319"/>
<text text-anchor="start" x="248.5" y="-306.5" font-family="Helvetica,sans-Serif" font-size="10.00">GenShape</text>
<text text-anchor="start" x="271.5" y="-291.5" font-family="Helvetica,sans-Serif" font-size="10.00"> </text>
<text text-anchor="start" x="195.5" y="-276.5" font-family="Helvetica,sans-Serif" font-size="10.00">+</text>
<text text-anchor="start" x="208.5" y="-276.5" font-family="Helvetica,sans-Serif" font-size="10.00">bool Perform(Point</text>
<text text-anchor="start" x="208.5" y="-265.5" font-family="Helvetica,sans-Serif" font-size="10.00"> origin, GenAction action)</text>
<text text-anchor="start" x="195.5" y="-250.5" font-family="Helvetica,sans-Serif" font-size="10.00">+</text>
<text text-anchor="start" x="208.5" y="-250.5" font-family="Helvetica,sans-Serif" font-size="10.00">GenShape Output(ShapeData</text>
<text text-anchor="start" x="208.5" y="-239.5" font-family="Helvetica,sans-Serif" font-size="10.00"> outputData)</text>
<text text-anchor="start" x="195.5" y="-224.5" font-family="Helvetica,sans-Serif" font-size="10.00">+</text>
<text text-anchor="start" x="208.5" y="-224.5" font-family="Helvetica,sans-Serif" font-size="10.00">GenShape QuitOnFail</text>
<text text-anchor="start" x="208.5" y="-213.5" font-family="Helvetica,sans-Serif" font-size="10.00">(bool value=true)</text>
<text text-anchor="start" x="195.5" y="-198.5" font-family="Helvetica,sans-Serif" font-size="10.00">#</text>
<text text-anchor="start" x="208.5" y="-198.5" font-family="Helvetica,sans-Serif" font-size="10.00">bool UnitApply(GenAction</text>
<text text-anchor="start" x="208.5" y="-187.5" font-family="Helvetica,sans-Serif" font-size="10.00"> action, Point origin,</text>
<text text-anchor="start" x="208.5" y="-176.5" font-family="Helvetica,sans-Serif" font-size="10.00"> int x, int y, params object</text>
<text text-anchor="start" x="208.5" y="-165.5" font-family="Helvetica,sans-Serif" font-size="10.00">[] args)</text>
<text text-anchor="start" x="195.5" y="-150.5" font-family="Helvetica,sans-Serif" font-size="10.00">#</text>
<text text-anchor="start" x="208.5" y="-150.5" font-family="Helvetica,sans-Serif" font-size="10.00">GenShape()</text>
<polygon fill="#666666" stroke="#666666" points="191.5,-301.5 191.5,-301.5 355.5,-301.5 355.5,-301.5 191.5,-301.5"/>
<polygon fill="#666666" stroke="#666666" points="191.5,-286.5 191.5,-286.5 355.5,-286.5 355.5,-286.5 191.5,-286.5"/>
<polygon fill="none" stroke="#666666" points="191.5,-144 191.5,-319 355.5,-319 355.5,-144 191.5,-144"/>
</a>
</g>
</g>
<!-- Node2&#45;&gt;Node1 -->
<g id="edge1_Node000001_Node000002" class="edge">
<title>Node2&#45;&gt;Node1</title>
<g id="a_edge1_Node000001_Node000002"><a xlink:title=" ">
<path fill="none" stroke="#63b8ff" d="M303.32,-134.11C307.31,-121.23 311.24,-108.52 314.8,-97"/>
<polygon fill="none" stroke="#63b8ff" points="299.88,-133.39 300.27,-143.98 306.57,-135.46 299.88,-133.39"/>
</a>
</g>
</g>
<!-- Node3 -->
<g id="Node000003" class="node">
<title>Node3</title>
<g id="a_Node000003"><a xlink:href="../../d4/dd6/classTerraria_1_1WorldBuilding_1_1GenBase.html" target="_top" xlink:title=" ">
<polygon fill="white" stroke="transparent" points="165,-584 0,-584 0,-442 165,-442 165,-584"/>
<text text-anchor="start" x="61" y="-572" font-family="Helvetica,sans-Serif" font-size="10.00">GenBase</text>
<text text-anchor="start" x="4.5" y="-557" font-family="Helvetica,sans-Serif" font-size="10.00">+</text>
<text text-anchor="start" x="17.5" y="-557" font-family="Helvetica,sans-Serif" font-size="10.00">static UnifiedRandom</text>
<text text-anchor="start" x="17.5" y="-546" font-family="Helvetica,sans-Serif" font-size="10.00"> _random</text>
<text text-anchor="start" x="4.5" y="-531" font-family="Helvetica,sans-Serif" font-size="10.00">+</text>
<text text-anchor="start" x="17.5" y="-531" font-family="Helvetica,sans-Serif" font-size="10.00">static TileData _tiles</text>
<text text-anchor="start" x="4.5" y="-516" font-family="Helvetica,sans-Serif" font-size="10.00">+</text>
<text text-anchor="start" x="17.5" y="-516" font-family="Helvetica,sans-Serif" font-size="10.00">static int _worldWidth</text>
<text text-anchor="start" x="4.5" y="-501" font-family="Helvetica,sans-Serif" font-size="10.00">+</text>
<text text-anchor="start" x="17.5" y="-501" font-family="Helvetica,sans-Serif" font-size="10.00">static int _worldHeight</text>
<text text-anchor="start" x="4.5" y="-486" font-family="Helvetica,sans-Serif" font-size="10.00">+</text>
<text text-anchor="start" x="17.5" y="-486" font-family="Helvetica,sans-Serif" font-size="10.00">delegate bool CustomPerUnit</text>
<text text-anchor="start" x="17.5" y="-475" font-family="Helvetica,sans-Serif" font-size="10.00">Action(int x, int y, params</text>
<text text-anchor="start" x="17.5" y="-464" font-family="Helvetica,sans-Serif" font-size="10.00"> object[] args)</text>
<text text-anchor="start" x="4.5" y="-449" font-family="Helvetica,sans-Serif" font-size="10.00">+</text>
<text text-anchor="start" x="17.5" y="-449" font-family="Helvetica,sans-Serif" font-size="10.00">GenBase()</text>
<polygon fill="#666666" stroke="#666666" points="0.5,-567 0.5,-567 165.5,-567 165.5,-567 0.5,-567"/>
<polygon fill="#666666" stroke="#666666" points="0.5,-496 0.5,-496 15.5,-496 15.5,-496 0.5,-496"/>
<polygon fill="#666666" stroke="#666666" points="15.5,-496 15.5,-496 165.5,-496 165.5,-496 15.5,-496"/>
<polygon fill="none" stroke="#666666" points="0,-442 0,-584 165,-584 165,-442 0,-442"/>
</a>
</g>
</g>
<!-- Node3&#45;&gt;Node2 -->
<g id="edge2_Node000002_Node000003" class="edge">
<title>Node3&#45;&gt;Node2</title>
<g id="a_edge2_Node000002_Node000003"><a xlink:title=" ">
<path fill="none" stroke="#63b8ff" d="M130.62,-433.21C144.45,-411.24 159.79,-387.5 174.5,-366 185.01,-350.64 196.51,-334.55 207.83,-319.06"/>
<polygon fill="none" stroke="#63b8ff" points="127.54,-431.53 125.19,-441.86 133.47,-435.25 127.54,-431.53"/>
</a>
</g>
</g>
<!-- Node4 -->
<g id="Node000004" class="node">
<title>Node4</title>
<g id="a_Node000004"><a xlink:href="../../d3/d09/classTerraria_1_1WorldBuilding_1_1ShapeData.html" target="_top" xlink:title=" ">
<polygon fill="white" stroke="transparent" points="363.5,-660 183.5,-660 183.5,-366 363.5,-366 363.5,-660"/>
<text text-anchor="start" x="191.5" y="-648" font-family="Helvetica,sans-Serif" font-size="10.00">Terraria.WorldBuilding.ShapeData</text>
<text text-anchor="start" x="187.5" y="-633" font-family="Helvetica,sans-Serif" font-size="10.00">+</text>
<text text-anchor="start" x="200.5" y="-633" font-family="Helvetica,sans-Serif" font-size="10.00">int Count</text>
<text text-anchor="start" x="187.5" y="-618" font-family="Helvetica,sans-Serif" font-size="10.00">+</text>
<text text-anchor="start" x="200.5" y="-618" font-family="Helvetica,sans-Serif" font-size="10.00">ShapeData()</text>
<text text-anchor="start" x="187.5" y="-603" font-family="Helvetica,sans-Serif" font-size="10.00">+</text>
<text text-anchor="start" x="200.5" y="-603" font-family="Helvetica,sans-Serif" font-size="10.00">ShapeData(ShapeData</text>
<text text-anchor="start" x="200.5" y="-592" font-family="Helvetica,sans-Serif" font-size="10.00"> original)</text>
<text text-anchor="start" x="187.5" y="-577" font-family="Helvetica,sans-Serif" font-size="10.00">+</text>
<text text-anchor="start" x="200.5" y="-577" font-family="Helvetica,sans-Serif" font-size="10.00">void Add(int x, int y)</text>
<text text-anchor="start" x="187.5" y="-562" font-family="Helvetica,sans-Serif" font-size="10.00">+</text>
<text text-anchor="start" x="200.5" y="-562" font-family="Helvetica,sans-Serif" font-size="10.00">void Remove(int x,</text>
<text text-anchor="start" x="200.5" y="-551" font-family="Helvetica,sans-Serif" font-size="10.00"> int y)</text>
<text text-anchor="start" x="187.5" y="-536" font-family="Helvetica,sans-Serif" font-size="10.00">+</text>
<text text-anchor="start" x="200.5" y="-536" font-family="Helvetica,sans-Serif" font-size="10.00">HashSet&lt; Point16 &gt;</text>
<text text-anchor="start" x="200.5" y="-525" font-family="Helvetica,sans-Serif" font-size="10.00"> GetData()</text>
<text text-anchor="start" x="187.5" y="-510" font-family="Helvetica,sans-Serif" font-size="10.00">+</text>
<text text-anchor="start" x="200.5" y="-510" font-family="Helvetica,sans-Serif" font-size="10.00">void Clear()</text>
<text text-anchor="start" x="187.5" y="-495" font-family="Helvetica,sans-Serif" font-size="10.00">+</text>
<text text-anchor="start" x="200.5" y="-495" font-family="Helvetica,sans-Serif" font-size="10.00">bool Contains(int x,</text>
<text text-anchor="start" x="200.5" y="-484" font-family="Helvetica,sans-Serif" font-size="10.00"> int y)</text>
<text text-anchor="start" x="187.5" y="-469" font-family="Helvetica,sans-Serif" font-size="10.00">+</text>
<text text-anchor="start" x="200.5" y="-469" font-family="Helvetica,sans-Serif" font-size="10.00">void Add(ShapeData</text>
<text text-anchor="start" x="200.5" y="-458" font-family="Helvetica,sans-Serif" font-size="10.00"> shapeData, Point localOrigin,</text>
<text text-anchor="start" x="200.5" y="-447" font-family="Helvetica,sans-Serif" font-size="10.00"> Point remoteOrigin)</text>
<text text-anchor="start" x="187.5" y="-432" font-family="Helvetica,sans-Serif" font-size="10.00">+</text>
<text text-anchor="start" x="200.5" y="-432" font-family="Helvetica,sans-Serif" font-size="10.00">void Subtract(ShapeData</text>
<text text-anchor="start" x="200.5" y="-421" font-family="Helvetica,sans-Serif" font-size="10.00"> shapeData, Point localOrigin,</text>
<text text-anchor="start" x="200.5" y="-410" font-family="Helvetica,sans-Serif" font-size="10.00"> Point remoteOrigin)</text>
<text text-anchor="start" x="187.5" y="-395" font-family="Helvetica,sans-Serif" font-size="10.00">+</text>
<text text-anchor="start" x="200.5" y="-395" font-family="Helvetica,sans-Serif" font-size="10.00">static Rectangle GetBounds</text>
<text text-anchor="start" x="200.5" y="-384" font-family="Helvetica,sans-Serif" font-size="10.00">(Point origin, params ShapeData</text>
<text text-anchor="start" x="200.5" y="-373" font-family="Helvetica,sans-Serif" font-size="10.00">[] shapes)</text>
<polygon fill="#666666" stroke="#666666" points="183.5,-643 183.5,-643 363.5,-643 363.5,-643 183.5,-643"/>
<polygon fill="#666666" stroke="#666666" points="183.5,-628 183.5,-628 198.5,-628 198.5,-628 183.5,-628"/>
<polygon fill="#666666" stroke="#666666" points="198.5,-628 198.5,-628 363.5,-628 363.5,-628 198.5,-628"/>
<polygon fill="none" stroke="#666666" points="183.5,-366 183.5,-660 363.5,-660 363.5,-366 183.5,-366"/>
</a>
</g>
</g>
<!-- Node4&#45;&gt;Node2 -->
<g id="edge3_Node000002_Node000004" class="edge">
<title>Node4&#45;&gt;Node2</title>
<g id="a_edge3_Node000002_Node000004"><a xlink:title=" ">
<path fill="none" stroke="#63b8ff" d="M273.5,-365.7C273.5,-354.19 273.5,-342.73 273.5,-331.65"/>
<polygon fill="none" stroke="#63b8ff" points="273.5,-331.31 269.5,-325.31 273.5,-319.31 277.5,-325.31 273.5,-331.31"/>
</a>
</g>
<text text-anchor="middle" x="307" y="-340" font-family="Helvetica,sans-Serif" font-size="10.00" fill="grey"> &#45;_outputData</text>
</g>
<!-- Node5 -->
<g id="Node000005" class="node">
<title>Node5</title>
<g id="a_Node000005"><a xlink:title=" ">
<polygon fill="white" stroke="transparent" points="328.5,-756 218.5,-756 218.5,-707 328.5,-707 328.5,-756"/>
<text text-anchor="start" x="223.5" y="-743.5" font-family="Helvetica,sans-Serif" font-size="10.00">HashSet&lt; Point16 &gt;</text>
<text text-anchor="start" x="271.5" y="-728.5" font-family="Helvetica,sans-Serif" font-size="10.00"> </text>
<text text-anchor="start" x="271.5" y="-713.5" font-family="Helvetica,sans-Serif" font-size="10.00"> </text>
<polygon fill="#666666" stroke="#666666" points="218.5,-738.5 218.5,-738.5 328.5,-738.5 328.5,-738.5 218.5,-738.5"/>
<polygon fill="#666666" stroke="#666666" points="218.5,-723.5 218.5,-723.5 328.5,-723.5 328.5,-723.5 218.5,-723.5"/>
<polygon fill="none" stroke="#666666" points="218.5,-707 218.5,-756 328.5,-756 328.5,-707 218.5,-707"/>
</a>
</g>
</g>
<!-- Node5&#45;&gt;Node4 -->
<g id="edge4_Node000004_Node000005" class="edge">
<title>Node5&#45;&gt;Node4</title>
<g id="a_edge4_Node000004_Node000005"><a xlink:title=" ">
<path fill="none" stroke="#63b8ff" d="M273.5,-706.92C273.5,-697.44 273.5,-685.65 273.5,-672.61"/>
<polygon fill="none" stroke="#63b8ff" points="273.5,-672.31 269.5,-666.31 273.5,-660.31 277.5,-666.31 273.5,-672.31"/>
</a>
</g>
<text text-anchor="middle" x="295" y="-681" font-family="Helvetica,sans-Serif" font-size="10.00" fill="grey"> &#45;_points</text>
</g>
<!-- Node6 -->
<g id="Node000006" class="node">
<title>Node6</title>
<g id="a_Node000006"><a xlink:title=" ">
<polygon fill="white" stroke="transparent" points="413.5,-537.5 381.5,-537.5 381.5,-488.5 413.5,-488.5 413.5,-537.5"/>
<text text-anchor="start" x="386.5" y="-525" font-family="Helvetica,sans-Serif" font-size="10.00">bool</text>
<text text-anchor="start" x="395.5" y="-510" font-family="Helvetica,sans-Serif" font-size="10.00"> </text>
<text text-anchor="start" x="395.5" y="-495" font-family="Helvetica,sans-Serif" font-size="10.00"> </text>
<polygon fill="#666666" stroke="#666666" points="381.5,-520 381.5,-520 413.5,-520 413.5,-520 381.5,-520"/>
<polygon fill="#666666" stroke="#666666" points="381.5,-505 381.5,-505 413.5,-505 413.5,-505 381.5,-505"/>
<polygon fill="none" stroke="#666666" points="381.5,-488.5 381.5,-537.5 413.5,-537.5 413.5,-488.5 381.5,-488.5"/>
</a>
</g>
</g>
<!-- Node6&#45;&gt;Node2 -->
<g id="edge5_Node000002_Node000006" class="edge">
<title>Node6&#45;&gt;Node2</title>
<g id="a_edge5_Node000002_Node000006"><a xlink:title=" ">
<path fill="none" stroke="#63b8ff" d="M396.81,-488.3C395.19,-458.6 389.88,-406.67 372.5,-366 367.19,-353.58 360.52,-341.25 353.16,-329.37"/>
<polygon fill="none" stroke="#63b8ff" points="353.02,-329.16 346.41,-326.28 346.52,-319.07 353.13,-321.95 353.02,-329.16"/>
</a>
</g>
<text text-anchor="middle" x="396.5" y="-340" font-family="Helvetica,sans-Serif" font-size="10.00" fill="grey"> #_quitOnFail</text>
</g>
<!-- Node7 -->
<g id="Node000007" class="node">
<title>Node7</title>
<g id="a_Node000007"><a xlink:title=" ">
<polygon fill="white" stroke="transparent" points="397,-256 374,-256 374,-207 397,-207 397,-256"/>
<text text-anchor="start" x="379.5" y="-243.5" font-family="Helvetica,sans-Serif" font-size="10.00">int</text>
<text text-anchor="start" x="384" y="-228.5" font-family="Helvetica,sans-Serif" font-size="10.00"> </text>
<text text-anchor="start" x="384" y="-213.5" font-family="Helvetica,sans-Serif" font-size="10.00"> </text>
<polygon fill="#666666" stroke="#666666" points="374.5,-238.5 374.5,-238.5 397.5,-238.5 397.5,-238.5 374.5,-238.5"/>
<polygon fill="#666666" stroke="#666666" points="374.5,-223.5 374.5,-223.5 397.5,-223.5 397.5,-223.5 374.5,-223.5"/>
<polygon fill="none" stroke="#666666" points="374,-207 374,-256 397,-256 397,-207 374,-207"/>
</a>
</g>
</g>
<!-- Node7&#45;&gt;Node1 -->
<g id="edge6_Node000001_Node000007" class="edge">
<title>Node7&#45;&gt;Node1</title>
<g id="a_edge6_Node000001_Node000007"><a xlink:title=" ">
<path fill="none" stroke="#63b8ff" d="M380.53,-206.8C376.67,-189.31 370.91,-164.99 364.5,-144 360.97,-132.45 356.81,-120.27 352.6,-108.62"/>
<polygon fill="none" stroke="#63b8ff" points="352.54,-108.47 346.72,-104.22 348.4,-97.21 354.22,-101.46 352.54,-108.47"/>
</a>
</g>
<text text-anchor="middle" x="381" y="-118" font-family="Helvetica,sans-Serif" font-size="10.00" fill="grey"> &#45;_radius</text>
</g>
</g>
</svg>

<g id="navigator" transform="translate(0 0)" fill="#404254">
  <rect fill="#f2f5e9" fill-opacity="0.5" stroke="#606060" stroke-width=".5" x="0" y="0" width="60" height="60"/>
  <use id="zoomplus" xlink:href="#zoomPlus" x="17" y="9" onmousedown="handleZoom(evt,'in')"/>
  <use id="zoomminus" xlink:href="#zoomMin" x="42" y="9" onmousedown="handleZoom(evt,'out')"/>
  <use id="reset" xlink:href="#resetDef" x="30" y="36" onmousedown="handleReset()"/>
   <use id="arrowup" xlink:href="#arrowUp" x="0" y="0" onmousedown="handlePan(0,-1)"/>
  <use id="arrowright" xlink:href="#arrowRight" x="0" y="0" onmousedown="handlePan(1,0)"/>
  <use id="arrowdown" xlink:href="#arrowDown" x="0" y="0" onmousedown="handlePan(0,1)"/>
  <use id="arrowleft" xlink:href="#arrowLeft" x="0" y="0" onmousedown="handlePan(-1,0)"/>
</g>
<svg viewBox="0 0 15 15" width="100%" height="30px" preserveAspectRatio="xMaxYMin meet">
 <g id="arrow_out" transform="scale(0.3 0.3)">
  <a xlink:href="classTerraria_1_1WorldBuilding_1_1Shapes_1_1HalfCircle__coll__graph_org.svg" target="_base">
   <rect id="button" ry="5" rx="5" y="6" x="6" height="38" width="38"
        fill="#f2f5e9" fill-opacity="0.5" stroke="#606060" stroke-width="1.0"/>
   <path id="arrow"
     d="M 11.500037,31.436501 C 11.940474,20.09759 22.043105,11.32322 32.158766,21.979434 L 37.068811,17.246167 C 37.068811,17.246167 37.088388,32 37.088388,32 L 22.160133,31.978069 C 22.160133,31.978069 26.997745,27.140456 26.997745,27.140456 C 18.528582,18.264221 13.291696,25.230495 11.500037,31.436501 z"
     style="fill:#404040;"/>
  </a>
 </g>
</svg>

<style type='text/css'>
<![CDATA[
[data-mouse-over-selected='false'] { opacity: 0.7; }
[data-mouse-over-selected='true']  { opacity: 1.0; }
]]>
</style>
<script type="application/ecmascript"><![CDATA[
document.addEventListener('DOMContentLoaded', (event) => {
  highlightEdges();
  highlightAdjacentNodes();
});
]]></script>
</svg>
