<?xml version="1.0" encoding="UTF-8" standalone="no"?>
<!DOCTYPE svg PUBLIC "-//W3C//DTD SVG 1.1//EN"
 "http://www.w3.org/Graphics/SVG/1.1/DTD/svg11.dtd">
<!-- Generated by graphviz version 2.43.0 (0)
 -->
<!-- Title: WaterRenderTargetManager Pages: 1 -->
<svg width="414pt" height="194pt"
 viewBox="0.00 0.00 413.50 194.00" xmlns="http://www.w3.org/2000/svg" xmlns:xlink="http://www.w3.org/1999/xlink">

<svg id="main" version="1.1" xmlns="http://www.w3.org/2000/svg" xmlns:xlink="http://www.w3.org/1999/xlink" xml:space="preserve" onload="init(evt)">
<style type="text/css"><![CDATA[
.node, .edge {opacity: 0.7;}
.node.selected, .edge.selected {opacity: 1;}
.edge:hover path { stroke: red; }
.edge:hover polygon { stroke: red; fill: red; }
]]></style>
<script type="application/ecmascript" xlink:href="../../svg.min.js"/>
<svg id="graph" class="graph">
<g id="graph0" class="graph" transform="scale(1 1) rotate(0) translate(4 190)">
<title>WaterRenderTargetManager</title>
<!-- Node1 -->
<g id="Node000001" class="node">
<title>Node1</title>
<g id="a_Node000001"><a xlink:title=" ">
<polygon fill="#999999" stroke="transparent" points="261,-90 96,-90 96,0 261,0 261,-90"/>
<text text-anchor="start" x="111" y="-78" font-family="Helvetica,sans-Serif" font-size="10.00">WaterRenderTargetManager</text>
<text text-anchor="start" x="100.5" y="-63" font-family="Helvetica,sans-Serif" font-size="10.00">+</text>
<text text-anchor="start" x="113.5" y="-63" font-family="Helvetica,sans-Serif" font-size="10.00">static WaterRenderTarget</text>
<text text-anchor="start" x="113.5" y="-52" font-family="Helvetica,sans-Serif" font-size="10.00">Manager Instance</text>
<text text-anchor="start" x="100.5" y="-37" font-family="Helvetica,sans-Serif" font-size="10.00">+</text>
<text text-anchor="start" x="113.5" y="-37" font-family="Helvetica,sans-Serif" font-size="10.00">void UpdateRenderTarget()</text>
<text text-anchor="start" x="100.5" y="-22" font-family="Helvetica,sans-Serif" font-size="10.00">+</text>
<text text-anchor="start" x="113.5" y="-22" font-family="Helvetica,sans-Serif" font-size="10.00">WaterRenderTargetManager()</text>
<text text-anchor="start" x="103" y="-7" font-family="Helvetica,sans-Serif" font-size="10.00">&#45;</text>
<text text-anchor="start" x="113.5" y="-7" font-family="Helvetica,sans-Serif" font-size="10.00">void InitialiseCamera()</text>
<polygon fill="#666666" stroke="#666666" points="96.5,-73 96.5,-73 261.5,-73 261.5,-73 96.5,-73"/>
<polygon fill="#666666" stroke="#666666" points="96.5,-47 96.5,-47 111.5,-47 111.5,-47 96.5,-47"/>
<polygon fill="#666666" stroke="#666666" points="111.5,-47 111.5,-47 261.5,-47 261.5,-47 111.5,-47"/>
<polygon fill="none" stroke="#666666" points="96,0 96,-90 261,-90 261,0 96,0"/>
</a>
</g>
</g>
<!-- Node1&#45;&gt;Node1 -->
<g id="edge2_Node000001_Node000001" class="edge">
<title>Node1&#45;&gt;Node1</title>
<g id="a_edge2_Node000001_Node000001"><a xlink:title=" ">
<path fill="none" stroke="#63b8ff" d="M261.3,-56.17C271.96,-54.24 279,-50.51 279,-45 279,-41.9 276.77,-39.36 272.92,-37.4"/>
<polygon fill="none" stroke="#63b8ff" points="272.77,-37.35 265.86,-39.41 261.3,-33.83 268.21,-31.76 272.77,-37.35"/>
</a>
</g>
<text text-anchor="middle" x="308" y="-42.5" font-family="Helvetica,sans-Serif" font-size="10.00" fill="grey"> +_instance</text>
</g>
<!-- Node2 -->
<g id="Node000002" class="node">
<title>Node2</title>
<g id="a_Node000002"><a xlink:href="../../d3/d52/classMonoBehaviour.html" target="_top" xlink:title=" ">
<polygon fill="white" stroke="transparent" points="87,-186 0,-186 0,-137 87,-137 87,-186"/>
<text text-anchor="start" x="5.5" y="-173.5" font-family="Helvetica,sans-Serif" font-size="10.00">MonoBehaviour</text>
<text text-anchor="start" x="42" y="-158.5" font-family="Helvetica,sans-Serif" font-size="10.00"> </text>
<text text-anchor="start" x="42" y="-143.5" font-family="Helvetica,sans-Serif" font-size="10.00"> </text>
<polygon fill="#666666" stroke="#666666" points="0.5,-168.5 0.5,-168.5 87.5,-168.5 87.5,-168.5 0.5,-168.5"/>
<polygon fill="#666666" stroke="#666666" points="0.5,-153.5 0.5,-153.5 87.5,-153.5 87.5,-153.5 0.5,-153.5"/>
<polygon fill="none" stroke="#666666" points="0,-137 0,-186 87,-186 87,-137 0,-137"/>
</a>
</g>
</g>
<!-- Node2&#45;&gt;Node1 -->
<g id="edge1_Node000001_Node000002" class="edge">
<title>Node2&#45;&gt;Node1</title>
<g id="a_edge1_Node000001_Node000002"><a xlink:title=" ">
<path fill="none" stroke="#63b8ff" d="M79.24,-130.19C93.73,-117.9 110.74,-103.47 126.56,-90.06"/>
<polygon fill="none" stroke="#63b8ff" points="76.83,-127.64 71.47,-136.78 81.36,-132.98 76.83,-127.64"/>
</a>
</g>
</g>
<!-- Node3 -->
<g id="Node000003" class="node">
<title>Node3</title>
<g id="a_Node000003"><a xlink:title=" ">
<polygon fill="white" stroke="transparent" points="154,-186 105,-186 105,-137 154,-137 154,-186"/>
<text text-anchor="start" x="110.5" y="-173.5" font-family="Helvetica,sans-Serif" font-size="10.00">Camera</text>
<text text-anchor="start" x="128" y="-158.5" font-family="Helvetica,sans-Serif" font-size="10.00"> </text>
<text text-anchor="start" x="128" y="-143.5" font-family="Helvetica,sans-Serif" font-size="10.00"> </text>
<polygon fill="#666666" stroke="#666666" points="105.5,-168.5 105.5,-168.5 154.5,-168.5 154.5,-168.5 105.5,-168.5"/>
<polygon fill="#666666" stroke="#666666" points="105.5,-153.5 105.5,-153.5 154.5,-153.5 154.5,-153.5 105.5,-153.5"/>
<polygon fill="none" stroke="#666666" points="105,-137 105,-186 154,-186 154,-137 105,-137"/>
</a>
</g>
</g>
<!-- Node3&#45;&gt;Node1 -->
<g id="edge3_Node000001_Node000003" class="edge">
<title>Node3&#45;&gt;Node1</title>
<g id="a_edge3_Node000001_Node000003"><a xlink:title=" ">
<path fill="none" stroke="#63b8ff" d="M126.82,-136.94C126.56,-127.68 127.29,-117.11 130.5,-108 131.35,-105.59 132.33,-103.21 133.42,-100.85"/>
<polygon fill="none" stroke="#63b8ff" points="133.54,-100.64 132.86,-93.46 139.23,-90.07 139.9,-97.25 133.54,-100.64"/>
</a>
</g>
<text text-anchor="middle" x="168.5" y="-111" font-family="Helvetica,sans-Serif" font-size="10.00" fill="grey"> &#45;cameraObject</text>
</g>
<!-- Node4 -->
<g id="Node000004" class="node">
<title>Node4</title>
<g id="a_Node000004"><a xlink:title=" ">
<polygon fill="white" stroke="transparent" points="269,-186 188,-186 188,-137 269,-137 269,-186"/>
<text text-anchor="start" x="193.5" y="-173.5" font-family="Helvetica,sans-Serif" font-size="10.00">RenderTexture</text>
<text text-anchor="start" x="227" y="-158.5" font-family="Helvetica,sans-Serif" font-size="10.00"> </text>
<text text-anchor="start" x="227" y="-143.5" font-family="Helvetica,sans-Serif" font-size="10.00"> </text>
<polygon fill="#666666" stroke="#666666" points="188.5,-168.5 188.5,-168.5 269.5,-168.5 269.5,-168.5 188.5,-168.5"/>
<polygon fill="#666666" stroke="#666666" points="188.5,-153.5 188.5,-153.5 269.5,-153.5 269.5,-153.5 188.5,-153.5"/>
<polygon fill="none" stroke="#666666" points="188,-137 188,-186 269,-186 269,-137 188,-137"/>
</a>
</g>
</g>
<!-- Node4&#45;&gt;Node1 -->
<g id="edge4_Node000001_Node000004" class="edge">
<title>Node4&#45;&gt;Node1</title>
<g id="a_edge4_Node000001_Node000004"><a xlink:title=" ">
<path fill="none" stroke="#63b8ff" d="M218.78,-136.92C215,-127.86 210.6,-117.42 206.5,-108 205.56,-105.85 204.6,-103.66 203.63,-101.44"/>
<polygon fill="none" stroke="#63b8ff" points="203.55,-101.27 197.46,-97.41 198.68,-90.3 204.77,-94.16 203.55,-101.27"/>
</a>
</g>
<text text-anchor="middle" x="248.5" y="-111" font-family="Helvetica,sans-Serif" font-size="10.00" fill="grey"> +RenderTarget</text>
</g>
<!-- Node5 -->
<g id="Node000005" class="node">
<title>Node5</title>
<g id="a_Node000005"><a xlink:title=" ">
<polygon fill="white" stroke="transparent" points="360,-186 295,-186 295,-137 360,-137 360,-186"/>
<text text-anchor="start" x="300.5" y="-173.5" font-family="Helvetica,sans-Serif" font-size="10.00">Framework</text>
<text text-anchor="start" x="326" y="-158.5" font-family="Helvetica,sans-Serif" font-size="10.00"> </text>
<text text-anchor="start" x="326" y="-143.5" font-family="Helvetica,sans-Serif" font-size="10.00"> </text>
<polygon fill="#666666" stroke="#666666" points="295.5,-168.5 295.5,-168.5 360.5,-168.5 360.5,-168.5 295.5,-168.5"/>
<polygon fill="#666666" stroke="#666666" points="295.5,-153.5 295.5,-153.5 360.5,-153.5 360.5,-153.5 295.5,-153.5"/>
<polygon fill="none" stroke="#666666" points="295,-137 295,-186 360,-186 360,-137 295,-137"/>
</a>
</g>
</g>
<!-- Node5&#45;&gt;Node1 -->
<g id="edge5_Node000001_Node000005" class="edge">
<title>Node5&#45;&gt;Node1</title>
<g id="a_edge5_Node000001_Node000005"><a xlink:title=" ">
<path fill="none" stroke="#63b8ff" d="M314.03,-136.74C307.75,-127.04 299.63,-116.19 290.5,-108 284.55,-102.67 278.07,-97.61 271.31,-92.85"/>
<polygon fill="none" stroke="#63b8ff" points="271.22,-92.79 264.01,-92.77 261.26,-86.1 268.47,-86.12 271.22,-92.79"/>
</a>
</g>
<text text-anchor="middle" x="352.5" y="-111" font-family="Helvetica,sans-Serif" font-size="10.00" fill="grey"> +GameRenderTarget</text>
</g>
</g>
</svg>
</svg>

<style type='text/css'>
<![CDATA[
[data-mouse-over-selected='false'] { opacity: 0.7; }
[data-mouse-over-selected='true']  { opacity: 1.0; }
]]>
</style>
<script type="application/ecmascript"><![CDATA[
document.addEventListener('DOMContentLoaded', (event) => {
  highlightEdges();
  highlightAdjacentNodes();
});
]]></script>
</svg>
