<?xml version="1.0" encoding="UTF-8" standalone="no"?>
<!DOCTYPE svg PUBLIC "-//W3C//DTD SVG 1.1//EN"
 "http://www.w3.org/Graphics/SVG/1.1/DTD/svg11.dtd">
<!-- Generated by graphviz version 2.43.0 (0)
 -->
<!-- Title: System.Resources.ResourceFallbackManager Pages: 1 -->
<svg width="328pt" height="467pt"
 viewBox="0.00 0.00 328.00 467.00" xmlns="http://www.w3.org/2000/svg" xmlns:xlink="http://www.w3.org/1999/xlink">
<g id="graph0" class="graph" transform="scale(1 1) rotate(0) translate(4 463)">
<title>System.Resources.ResourceFallbackManager</title>
<!-- Node1 -->
<g id="Node000001" class="node">
<title>Node1</title>
<g id="a_Node000001"><a xlink:title=" ">
<polygon fill="#999999" stroke="transparent" points="273.5,-341 59.5,-341 59.5,0 273.5,0 273.5,-341"/>
<text text-anchor="start" x="97" y="-328.5" font-family="Helvetica,sans-Serif" font-size="10.00">System.Resources.Resource</text>
<text text-anchor="start" x="125" y="-317.5" font-family="Helvetica,sans-Serif" font-size="10.00">FallbackManager</text>
<text text-anchor="start" x="63.5" y="-302.5" font-family="Helvetica,sans-Serif" font-size="10.00">+</text>
<text text-anchor="start" x="76.5" y="-302.5" font-family="Helvetica,sans-Serif" font-size="10.00">class&lt; GetEnumerator</text>
<text text-anchor="start" x="76.5" y="-291.5" font-family="Helvetica,sans-Serif" font-size="10.00"> &gt; global::System.global</text>
<text text-anchor="start" x="76.5" y="-280.5" font-family="Helvetica,sans-Serif" font-size="10.00">::System.Collections. IEnumerator</text>
<text text-anchor="start" x="66" y="-265.5" font-family="Helvetica,sans-Serif" font-size="10.00">&#45;</text>
<text text-anchor="start" x="76.5" y="-265.5" font-family="Helvetica,sans-Serif" font-size="10.00">global::System.Globalization.</text>
<text text-anchor="start" x="76.5" y="-254.5" font-family="Helvetica,sans-Serif" font-size="10.00">CultureInfo m_startingCulture</text>
<text text-anchor="start" x="66" y="-239.5" font-family="Helvetica,sans-Serif" font-size="10.00">&#45;</text>
<text text-anchor="start" x="76.5" y="-239.5" font-family="Helvetica,sans-Serif" font-size="10.00">global::System.Globalization.</text>
<text text-anchor="start" x="76.5" y="-228.5" font-family="Helvetica,sans-Serif" font-size="10.00">CultureInfo m_neutralResourcesCulture</text>
<text text-anchor="start" x="66" y="-213.5" font-family="Helvetica,sans-Serif" font-size="10.00">&#45;</text>
<text text-anchor="start" x="76.5" y="-213.5" font-family="Helvetica,sans-Serif" font-size="10.00">bool m_useParents</text>
<text text-anchor="start" x="66" y="-198.5" font-family="Helvetica,sans-Serif" font-size="10.00">&#45;</text>
<text text-anchor="start" x="76.5" y="-198.5" font-family="Helvetica,sans-Serif" font-size="10.00">class&lt; GetEnumerator</text>
<text text-anchor="start" x="76.5" y="-187.5" font-family="Helvetica,sans-Serif" font-size="10.00"> &gt; d__5</text>
<text text-anchor="start" x="66" y="-172.5" font-family="Helvetica,sans-Serif" font-size="10.00">&#45;</text>
<text text-anchor="start" x="76.5" y="-172.5" font-family="Helvetica,sans-Serif" font-size="10.00">class&lt; GetEnumerator</text>
<text text-anchor="start" x="76.5" y="-161.5" font-family="Helvetica,sans-Serif" font-size="10.00"> &gt; global::System. IDisposable</text>
<text text-anchor="start" x="63.5" y="-146.5" font-family="Helvetica,sans-Serif" font-size="10.00">+</text>
<text text-anchor="start" x="76.5" y="-146.5" font-family="Helvetica,sans-Serif" font-size="10.00">global::System.Collections.</text>
<text text-anchor="start" x="76.5" y="-135.5" font-family="Helvetica,sans-Serif" font-size="10.00">Generic.IEnumerator&lt; global</text>
<text text-anchor="start" x="76.5" y="-124.5" font-family="Helvetica,sans-Serif" font-size="10.00">::System.Globalization.CultureInfo</text>
<text text-anchor="start" x="76.5" y="-113.5" font-family="Helvetica,sans-Serif" font-size="10.00"> &gt; GetEnumerator()</text>
<text text-anchor="start" x="63.5" y="-98.5" font-family="Helvetica,sans-Serif" font-size="10.00">~</text>
<text text-anchor="start" x="76.5" y="-98.5" font-family="Helvetica,sans-Serif" font-size="10.00">ResourceFallbackManager</text>
<text text-anchor="start" x="76.5" y="-87.5" font-family="Helvetica,sans-Serif" font-size="10.00">(global::System.Globalization.</text>
<text text-anchor="start" x="76.5" y="-76.5" font-family="Helvetica,sans-Serif" font-size="10.00">CultureInfo startingCulture,</text>
<text text-anchor="start" x="76.5" y="-65.5" font-family="Helvetica,sans-Serif" font-size="10.00"> global::System.Globalization.Culture</text>
<text text-anchor="start" x="76.5" y="-54.5" font-family="Helvetica,sans-Serif" font-size="10.00">Info neutralResourcesCulture, bool</text>
<text text-anchor="start" x="76.5" y="-43.5" font-family="Helvetica,sans-Serif" font-size="10.00"> useParents)</text>
<text text-anchor="start" x="66" y="-28.5" font-family="Helvetica,sans-Serif" font-size="10.00">&#45;</text>
<text text-anchor="start" x="76.5" y="-28.5" font-family="Helvetica,sans-Serif" font-size="10.00">global::System.Collections.</text>
<text text-anchor="start" x="76.5" y="-17.5" font-family="Helvetica,sans-Serif" font-size="10.00">IEnumerator System.Collections.</text>
<text text-anchor="start" x="76.5" y="-6.5" font-family="Helvetica,sans-Serif" font-size="10.00">IEnumerable. GetEnumerator()</text>
<polygon fill="#666666" stroke="#666666" points="59.5,-312.5 59.5,-312.5 273.5,-312.5 273.5,-312.5 59.5,-312.5"/>
<polygon fill="#666666" stroke="#666666" points="59.5,-156.5 59.5,-156.5 74.5,-156.5 74.5,-156.5 59.5,-156.5"/>
<polygon fill="#666666" stroke="#666666" points="74.5,-156.5 74.5,-156.5 273.5,-156.5 273.5,-156.5 74.5,-156.5"/>
<polygon fill="none" stroke="#666666" points="59.5,0 59.5,-341 273.5,-341 273.5,0 59.5,0"/>
</a>
</g>
</g>
<!-- Node2 -->
<g id="Node000002" class="node">
<title>Node2</title>
<g id="a_Node000002"><a xlink:href="../../dc/d8b/classglobal_1_1SystemCollections_1_1Generic_1_1IEnumerable.html" target="_top" xlink:title=" ">
<polygon fill="white" stroke="transparent" points="165,-459 0,-459 0,-377 165,-377 165,-459"/>
<text text-anchor="start" x="5.5" y="-447" font-family="Helvetica,sans-Serif" font-size="10.00">global::SystemCollections</text>
<text text-anchor="start" x="5.5" y="-436" font-family="Helvetica,sans-Serif" font-size="10.00">::Generic::IEnumerable</text>
<text text-anchor="start" x="5.5" y="-425" font-family="Helvetica,sans-Serif" font-size="10.00">&lt; global::System.Globalization.</text>
<text text-anchor="start" x="50" y="-414" font-family="Helvetica,sans-Serif" font-size="10.00">CultureInfo &gt;</text>
<text text-anchor="start" x="81" y="-399" font-family="Helvetica,sans-Serif" font-size="10.00"> </text>
<text text-anchor="start" x="81" y="-384" font-family="Helvetica,sans-Serif" font-size="10.00"> </text>
<polygon fill="#666666" stroke="#666666" points="0.5,-409 0.5,-409 165.5,-409 165.5,-409 0.5,-409"/>
<polygon fill="#666666" stroke="#666666" points="0.5,-394 0.5,-394 165.5,-394 165.5,-394 0.5,-394"/>
<polygon fill="none" stroke="#666666" points="0,-377 0,-459 165,-459 165,-377 0,-377"/>
</a>
</g>
</g>
<!-- Node2&#45;&gt;Node1 -->
<g id="edge1_Node000001_Node000002" class="edge">
<title>Node2&#45;&gt;Node1</title>
<g id="a_edge1_Node000001_Node000002"><a xlink:title=" ">
<path fill="none" stroke="#63b8ff" d="M99.55,-367.17C102.33,-359.04 105.34,-350.24 108.5,-341.03"/>
<polygon fill="none" stroke="#63b8ff" points="96.2,-366.14 96.28,-376.74 102.83,-368.41 96.2,-366.14"/>
</a>
</g>
</g>
<!-- Node3 -->
<g id="Node000003" class="node">
<title>Node3</title>
<g id="a_Node000003"><a xlink:href="../../da/d15/classglobal_1_1SystemCollections_1_1IEnumerable.html" target="_top" xlink:title=" ">
<polygon fill="white" stroke="transparent" points="320,-448 183,-448 183,-388 320,-388 320,-448"/>
<text text-anchor="start" x="188.5" y="-436" font-family="Helvetica,sans-Serif" font-size="10.00">global::SystemCollections</text>
<text text-anchor="start" x="218" y="-425" font-family="Helvetica,sans-Serif" font-size="10.00">::IEnumerable</text>
<text text-anchor="start" x="250" y="-410" font-family="Helvetica,sans-Serif" font-size="10.00"> </text>
<text text-anchor="start" x="250" y="-395" font-family="Helvetica,sans-Serif" font-size="10.00"> </text>
<polygon fill="#666666" stroke="#666666" points="183.5,-420 183.5,-420 320.5,-420 320.5,-420 183.5,-420"/>
<polygon fill="#666666" stroke="#666666" points="183.5,-405 183.5,-405 320.5,-405 320.5,-405 183.5,-405"/>
<polygon fill="none" stroke="#666666" points="183,-388 183,-448 320,-448 320,-388 183,-388"/>
</a>
</g>
</g>
<!-- Node3&#45;&gt;Node1 -->
<g id="edge2_Node000001_Node000003" class="edge">
<title>Node3&#45;&gt;Node1</title>
<g id="a_edge2_Node000001_Node000003"><a xlink:title=" ">
<path fill="none" stroke="#63b8ff" d="M238.11,-378.32C234.32,-367.37 229.93,-354.71 225.23,-341.14"/>
<polygon fill="none" stroke="#63b8ff" points="234.84,-379.57 241.42,-387.87 241.45,-377.28 234.84,-379.57"/>
</a>
</g>
</g>
</g>
</svg>
