<?xml version="1.0" encoding="UTF-8" standalone="no"?>
<!DOCTYPE svg PUBLIC "-//W3C//DTD SVG 1.1//EN"
 "http://www.w3.org/Graphics/SVG/1.1/DTD/svg11.dtd">
<!-- Generated by graphviz version 2.43.0 (0)
 -->
<!-- Title: Terraria.WorldBuilding.Searches.Left Pages: 1 -->
<svg width="194pt" height="469pt"
 viewBox="0.00 0.00 194.00 469.00" xmlns="http://www.w3.org/2000/svg" xmlns:xlink="http://www.w3.org/1999/xlink">
<g id="graph0" class="graph" transform="scale(1 1) rotate(0) translate(4 465)">
<title>Terraria.WorldBuilding.Searches.Left</title>
<!-- Node1 -->
<g id="Node000001" class="node">
<title>Node1</title>
<g id="a_Node000001"><a xlink:title=" ">
<polygon fill="#999999" stroke="transparent" points="186,-75 0,-75 0,0 186,0 186,-75"/>
<text text-anchor="start" x="5" y="-62.5" font-family="Helvetica,sans-Serif" font-size="10.00">Terraria.WorldBuilding.Searches.Left</text>
<text text-anchor="start" x="21" y="-47.5" font-family="Helvetica,sans-Serif" font-size="10.00">&#45;</text>
<text text-anchor="start" x="46" y="-47.5" font-family="Helvetica,sans-Serif" font-size="10.00">int _maxDistance</text>
<text text-anchor="start" x="18.5" y="-32.5" font-family="Helvetica,sans-Serif" font-size="10.00">+</text>
<text text-anchor="start" x="46" y="-32.5" font-family="Helvetica,sans-Serif" font-size="10.00">Left(int maxDistance)</text>
<text text-anchor="start" x="18.5" y="-17.5" font-family="Helvetica,sans-Serif" font-size="10.00">+</text>
<text text-anchor="start" x="46" y="-17.5" font-family="Helvetica,sans-Serif" font-size="10.00">override Point Find</text>
<text text-anchor="start" x="46" y="-6.5" font-family="Helvetica,sans-Serif" font-size="10.00">(Point origin)</text>
<polygon fill="#666666" stroke="#666666" points="0,-57.5 0,-57.5 186,-57.5 186,-57.5 0,-57.5"/>
<polygon fill="#666666" stroke="#666666" points="0,-42.5 0,-42.5 44,-42.5 44,-42.5 0,-42.5"/>
<polygon fill="#666666" stroke="#666666" points="44,-42.5 44,-42.5 186,-42.5 186,-42.5 44,-42.5"/>
<polygon fill="none" stroke="#666666" points="0,0 0,-75 186,-75 186,0 0,0"/>
</a>
</g>
</g>
<!-- Node2 -->
<g id="Node000002" class="node">
<title>Node2</title>
<g id="a_Node000002"><a xlink:href="../../df/d08/classTerraria_1_1WorldBuilding_1_1GenSearch.html" target="_top" xlink:title=" ">
<polygon fill="white" stroke="transparent" points="170,-283 16,-283 16,-111 170,-111 170,-283"/>
<text text-anchor="start" x="66.5" y="-271" font-family="Helvetica,sans-Serif" font-size="10.00">GenSearch</text>
<text text-anchor="start" x="20" y="-256" font-family="Helvetica,sans-Serif" font-size="10.00">+</text>
<text text-anchor="start" x="33" y="-256" font-family="Helvetica,sans-Serif" font-size="10.00">static Point NOT_FOUND</text>
<text text-anchor="start" x="22.5" y="-241" font-family="Helvetica,sans-Serif" font-size="10.00">&#45;</text>
<text text-anchor="start" x="33" y="-241" font-family="Helvetica,sans-Serif" font-size="10.00">bool _requireAll</text>
<text text-anchor="start" x="22.5" y="-226" font-family="Helvetica,sans-Serif" font-size="10.00">&#45;</text>
<text text-anchor="start" x="33" y="-226" font-family="Helvetica,sans-Serif" font-size="10.00">GenCondition[] _conditions</text>
<text text-anchor="start" x="20" y="-211" font-family="Helvetica,sans-Serif" font-size="10.00">+</text>
<text text-anchor="start" x="33" y="-211" font-family="Helvetica,sans-Serif" font-size="10.00">GenSearch Conditions</text>
<text text-anchor="start" x="33" y="-200" font-family="Helvetica,sans-Serif" font-size="10.00">(params GenCondition</text>
<text text-anchor="start" x="33" y="-189" font-family="Helvetica,sans-Serif" font-size="10.00">[] conditions)</text>
<text text-anchor="start" x="20" y="-174" font-family="Helvetica,sans-Serif" font-size="10.00">+</text>
<text text-anchor="start" x="33" y="-174" font-family="Helvetica,sans-Serif" font-size="10.00">Point Find(Point origin)</text>
<text text-anchor="start" x="20" y="-159" font-family="Helvetica,sans-Serif" font-size="10.00">+</text>
<text text-anchor="start" x="33" y="-159" font-family="Helvetica,sans-Serif" font-size="10.00">GenSearch RequireAll</text>
<text text-anchor="start" x="33" y="-148" font-family="Helvetica,sans-Serif" font-size="10.00">(bool mode)</text>
<text text-anchor="start" x="20" y="-133" font-family="Helvetica,sans-Serif" font-size="10.00">#</text>
<text text-anchor="start" x="33" y="-133" font-family="Helvetica,sans-Serif" font-size="10.00">bool Check(int x, int y)</text>
<text text-anchor="start" x="20" y="-118" font-family="Helvetica,sans-Serif" font-size="10.00">#</text>
<text text-anchor="start" x="33" y="-118" font-family="Helvetica,sans-Serif" font-size="10.00">GenSearch()</text>
<polygon fill="#666666" stroke="#666666" points="16,-266 16,-266 170,-266 170,-266 16,-266"/>
<polygon fill="#666666" stroke="#666666" points="16,-221 16,-221 31,-221 31,-221 16,-221"/>
<polygon fill="#666666" stroke="#666666" points="31,-221 31,-221 170,-221 170,-221 31,-221"/>
<polygon fill="none" stroke="#666666" points="16,-111 16,-283 170,-283 170,-111 16,-111"/>
</a>
</g>
</g>
<!-- Node2&#45;&gt;Node1 -->
<g id="edge1_Node000001_Node000002" class="edge">
<title>Node2&#45;&gt;Node1</title>
<g id="a_edge1_Node000001_Node000002"><a xlink:title=" ">
<path fill="none" stroke="#63b8ff" d="M93,-100.64C93,-91.74 93,-83.13 93,-75.31"/>
<polygon fill="none" stroke="#63b8ff" points="89.5,-100.8 93,-110.8 96.5,-100.8 89.5,-100.8"/>
</a>
</g>
</g>
<!-- Node3 -->
<g id="Node000003" class="node">
<title>Node3</title>
<g id="a_Node000003"><a xlink:href="../../d4/dd6/classTerraria_1_1WorldBuilding_1_1GenBase.html" target="_top" xlink:title=" ">
<polygon fill="white" stroke="transparent" points="175.5,-461 10.5,-461 10.5,-319 175.5,-319 175.5,-461"/>
<text text-anchor="start" x="71.5" y="-449" font-family="Helvetica,sans-Serif" font-size="10.00">GenBase</text>
<text text-anchor="start" x="15" y="-434" font-family="Helvetica,sans-Serif" font-size="10.00">+</text>
<text text-anchor="start" x="28" y="-434" font-family="Helvetica,sans-Serif" font-size="10.00">static UnifiedRandom</text>
<text text-anchor="start" x="28" y="-423" font-family="Helvetica,sans-Serif" font-size="10.00"> _random</text>
<text text-anchor="start" x="15" y="-408" font-family="Helvetica,sans-Serif" font-size="10.00">+</text>
<text text-anchor="start" x="28" y="-408" font-family="Helvetica,sans-Serif" font-size="10.00">static TileData _tiles</text>
<text text-anchor="start" x="15" y="-393" font-family="Helvetica,sans-Serif" font-size="10.00">+</text>
<text text-anchor="start" x="28" y="-393" font-family="Helvetica,sans-Serif" font-size="10.00">static int _worldWidth</text>
<text text-anchor="start" x="15" y="-378" font-family="Helvetica,sans-Serif" font-size="10.00">+</text>
<text text-anchor="start" x="28" y="-378" font-family="Helvetica,sans-Serif" font-size="10.00">static int _worldHeight</text>
<text text-anchor="start" x="15" y="-363" font-family="Helvetica,sans-Serif" font-size="10.00">+</text>
<text text-anchor="start" x="28" y="-363" font-family="Helvetica,sans-Serif" font-size="10.00">delegate bool CustomPerUnit</text>
<text text-anchor="start" x="28" y="-352" font-family="Helvetica,sans-Serif" font-size="10.00">Action(int x, int y, params</text>
<text text-anchor="start" x="28" y="-341" font-family="Helvetica,sans-Serif" font-size="10.00"> object[] args)</text>
<text text-anchor="start" x="15" y="-326" font-family="Helvetica,sans-Serif" font-size="10.00">+</text>
<text text-anchor="start" x="28" y="-326" font-family="Helvetica,sans-Serif" font-size="10.00">GenBase()</text>
<polygon fill="#666666" stroke="#666666" points="11,-444 11,-444 176,-444 176,-444 11,-444"/>
<polygon fill="#666666" stroke="#666666" points="11,-373 11,-373 26,-373 26,-373 11,-373"/>
<polygon fill="#666666" stroke="#666666" points="26,-373 26,-373 176,-373 176,-373 26,-373"/>
<polygon fill="none" stroke="#666666" points="10.5,-319 10.5,-461 175.5,-461 175.5,-319 10.5,-319"/>
</a>
</g>
</g>
<!-- Node3&#45;&gt;Node2 -->
<g id="edge2_Node000002_Node000003" class="edge">
<title>Node3&#45;&gt;Node2</title>
<g id="a_edge2_Node000002_Node000003"><a xlink:title=" ">
<path fill="none" stroke="#63b8ff" d="M93,-308.78C93,-300.35 93,-291.76 93,-283.28"/>
<polygon fill="none" stroke="#63b8ff" points="89.5,-308.96 93,-318.96 96.5,-308.96 89.5,-308.96"/>
</a>
</g>
</g>
</g>
</svg>
