<?xml version="1.0" encoding="UTF-8" standalone="no"?>
<!DOCTYPE svg PUBLIC "-//W3C//DTD SVG 1.1//EN"
 "http://www.w3.org/Graphics/SVG/1.1/DTD/svg11.dtd">
<!-- Generated by graphviz version 2.43.0 (0)
 -->
<!-- Title: GUIAmmo Pages: 1 -->
<!--zoomable 1830 -->

<svg id="main" version="1.1" xmlns="http://www.w3.org/2000/svg" xmlns:xlink="http://www.w3.org/1999/xlink" xml:space="preserve" onload="init(evt)">
<style type="text/css"><![CDATA[
.node, .edge {opacity: 0.7;}
.node.selected, .edge.selected {opacity: 1;}
.edge:hover path { stroke: red; }
.edge:hover polygon { stroke: red; fill: red; }
]]></style>

<defs>
  <circle id="rim" cx="0" cy="0" r="7"/>
  <circle id="rim2" cx="0" cy="0" r="3.5"/>
  <g id="zoomPlus">
    <use xlink:href="#rim" fill="#404040"><set attributeName="fill" to="#808080" begin="zoomplus.mouseover" end="zoomplus.mouseout"/></use>
    <path d="M-4,0h8M0,-4v8" fill="none" stroke="white" stroke-width="1.5" pointer-events="none"/>
  </g>
  <g id="zoomMin">
    <use xlink:href="#rim" fill="#404040"><set attributeName="fill" to="#808080" begin="zoomminus.mouseover" end="zoomminus.mouseout"/></use>
    <path d="M-4,0h8" fill="none" stroke="white" stroke-width="1.5" pointer-events="none"/>
  </g>
  <g id="arrowUp" transform="translate(30 24)">
    <use xlink:href="#rim"/>
    <path pointer-events="none" fill="none" stroke="white" stroke-width="1.5" d="M0,-3.0v7 M-2.5,-0.5L0,-3.0L2.5,-0.5"/>
  </g>
  <g id="arrowRight" transform="rotate(90) translate(36 -43)">
    <use xlink:href="#rim"/>
    <path pointer-events="none" fill="none" stroke="white" stroke-width="1.5" d="M0,-3.0v7 M-2.5,-0.5L0,-3.0L2.5,-0.5"/>
  </g>
  <g id="arrowDown" transform="rotate(180) translate(-30 -48)">
    <use xlink:href="#rim"/>
    <path pointer-events="none" fill="none" stroke="white" stroke-width="1.5" d="M0,-3.0v7 M-2.5,-0.5L0,-3.0L2.5,-0.5"/>
  </g>
  <g id="arrowLeft" transform="rotate(270) translate(-36 17)">
    <use xlink:href="#rim"/>
    <path pointer-events="none" fill="none" stroke="white" stroke-width="1.5" d="M0,-3.0v7 M-2.5,-0.5L0,-3.0L2.5,-0.5"/>
  </g>
  <g id="resetDef">
    <use xlink:href="#rim2" fill="#404040"><set attributeName="fill" to="#808080" begin="reset.mouseover" end="reset.mouseout"/></use>
  </g>
</defs>
<script type="application/ecmascript">
var viewWidth = 780;
var viewHeight = 1830;
var sectionId = 'dynsection-0';
</script>
<script type="application/ecmascript" xlink:href="../../svg.min.js"/>
<svg id="graph" class="graph">
<g id="viewport">
<title>GUIAmmo</title>
<!-- Node1 -->
<g id="Node000001" class="node">
<title>Node1</title>
<g id="a_Node000001"><a xlink:title=" ">
<polygon fill="#999999" stroke="transparent" points="633.85,-194 448.85,-194 448.85,0 633.85,0 633.85,-194"/>
<text text-anchor="start" x="516.35" y="-182" font-family="Helvetica,sans-Serif" font-size="10.00">GUIAmmo</text>
<text text-anchor="start" x="539.85" y="-167" font-family="Helvetica,sans-Serif" font-size="10.00"> </text>
<text text-anchor="start" x="453.35" y="-152" font-family="Helvetica,sans-Serif" font-size="10.00">+</text>
<text text-anchor="start" x="466.35" y="-152" font-family="Helvetica,sans-Serif" font-size="10.00">GUIAmmo()</text>
<text text-anchor="start" x="453.35" y="-137" font-family="Helvetica,sans-Serif" font-size="10.00">+</text>
<text text-anchor="start" x="466.35" y="-137" font-family="Helvetica,sans-Serif" font-size="10.00">Rectangle GetRegion()</text>
<text text-anchor="start" x="453.35" y="-122" font-family="Helvetica,sans-Serif" font-size="10.00">+</text>
<text text-anchor="start" x="466.35" y="-122" font-family="Helvetica,sans-Serif" font-size="10.00">float ItemScale(int</text>
<text text-anchor="start" x="466.35" y="-111" font-family="Helvetica,sans-Serif" font-size="10.00"> index)</text>
<text text-anchor="start" x="453.35" y="-96" font-family="Helvetica,sans-Serif" font-size="10.00">+</text>
<text text-anchor="start" x="466.35" y="-96" font-family="Helvetica,sans-Serif" font-size="10.00">void ItemOver(int index)</text>
<text text-anchor="start" x="453.35" y="-81" font-family="Helvetica,sans-Serif" font-size="10.00">+</text>
<text text-anchor="start" x="466.35" y="-81" font-family="Helvetica,sans-Serif" font-size="10.00">void ItemDraw(ItemGrid</text>
<text text-anchor="start" x="466.35" y="-70" font-family="Helvetica,sans-Serif" font-size="10.00">_Layout gridLayout, int</text>
<text text-anchor="start" x="466.35" y="-59" font-family="Helvetica,sans-Serif" font-size="10.00"> index, Microsoft.Xna.Framework.</text>
<text text-anchor="start" x="466.35" y="-48" font-family="Helvetica,sans-Serif" font-size="10.00">Vector2 position, float scale)</text>
<text text-anchor="start" x="453.35" y="-33" font-family="Helvetica,sans-Serif" font-size="10.00">+</text>
<text text-anchor="start" x="466.35" y="-33" font-family="Helvetica,sans-Serif" font-size="10.00">void Draw()</text>
<text text-anchor="start" x="455.85" y="-18" font-family="Helvetica,sans-Serif" font-size="10.00">&#45;</text>
<text text-anchor="start" x="466.35" y="-18" font-family="Helvetica,sans-Serif" font-size="10.00">bool CanBeStored(Item</text>
<text text-anchor="start" x="466.35" y="-7" font-family="Helvetica,sans-Serif" font-size="10.00"> checkItem)</text>
<polygon fill="#666666" stroke="#666666" points="449.35,-177 449.35,-177 634.35,-177 634.35,-177 449.35,-177"/>
<polygon fill="#666666" stroke="#666666" points="449.35,-162 449.35,-162 634.35,-162 634.35,-162 449.35,-162"/>
<polygon fill="none" stroke="#666666" points="448.85,0 448.85,-194 633.85,-194 633.85,0 448.85,0"/>
</a>
</g>
</g>
<!-- Node2 -->
<g id="Node000002" class="node">
<title>Node2</title>
<g id="a_Node000002"><a xlink:title=" ">
<polygon fill="white" stroke="transparent" points="197.85,-1822 174.85,-1822 174.85,-1773 197.85,-1773 197.85,-1822"/>
<text text-anchor="start" x="180.35" y="-1809.5" font-family="Helvetica,sans-Serif" font-size="10.00">int</text>
<text text-anchor="start" x="184.85" y="-1794.5" font-family="Helvetica,sans-Serif" font-size="10.00"> </text>
<text text-anchor="start" x="184.85" y="-1779.5" font-family="Helvetica,sans-Serif" font-size="10.00"> </text>
<polygon fill="#666666" stroke="#666666" points="175.35,-1804.5 175.35,-1804.5 198.35,-1804.5 198.35,-1804.5 175.35,-1804.5"/>
<polygon fill="#666666" stroke="#666666" points="175.35,-1789.5 175.35,-1789.5 198.35,-1789.5 198.35,-1789.5 175.35,-1789.5"/>
<polygon fill="none" stroke="#666666" points="174.85,-1773 174.85,-1822 197.85,-1822 197.85,-1773 174.85,-1773"/>
</a>
</g>
</g>
<!-- Node2&#45;&gt;Node1 -->
<g id="edge1_Node000001_Node000002" class="edge">
<title>Node2&#45;&gt;Node1</title>
<g id="a_edge1_Node000001_Node000002"><a xlink:title=" ">
<path fill="none" stroke="#63b8ff" d="M176.94,-1772.83C117.95,-1620.31 -186.82,-766.44 173.35,-263 234.73,-177.21 351.33,-135.25 436.89,-115.24"/>
<polygon fill="none" stroke="#63b8ff" points="437.04,-115.21 442.01,-109.98 448.75,-112.56 443.77,-117.79 437.04,-115.21"/>
</a>
</g>
<text text-anchor="middle" x="41.35" y="-912" font-family="Helvetica,sans-Serif" font-size="10.00" fill="grey"> &#45;cursorOver</text>
<text text-anchor="middle" x="41.35" y="-901" font-family="Helvetica,sans-Serif" font-size="10.00" fill="grey">&#45;itemDragStart</text>
<text text-anchor="middle" x="41.35" y="-890" font-family="Helvetica,sans-Serif" font-size="10.00" fill="grey">&#45;itemOver</text>
<text text-anchor="middle" x="41.35" y="-879" font-family="Helvetica,sans-Serif" font-size="10.00" fill="grey">&#45;lastItemClicked</text>
</g>
<!-- Node5 -->
<g id="Node000005" class="node">
<title>Node5</title>
<g id="a_Node000005"><a xlink:href="../../d7/d5f/classGUIItemGrid.html" target="_top" xlink:title=" ">
<polygon fill="white" stroke="transparent" points="486.35,-858 182.35,-858 182.35,-263 486.35,-263 486.35,-858"/>
<text text-anchor="start" x="303.85" y="-845.5" font-family="Helvetica,sans-Serif" font-size="10.00">GUIItemGrid</text>
<text text-anchor="start" x="332.35" y="-830.5" font-family="Helvetica,sans-Serif" font-size="10.00"> </text>
<text text-anchor="start" x="186.35" y="-815.5" font-family="Helvetica,sans-Serif" font-size="10.00">+</text>
<text text-anchor="start" x="199.35" y="-815.5" font-family="Helvetica,sans-Serif" font-size="10.00">delegate void CursorOver</text>
<text text-anchor="start" x="199.35" y="-804.5" font-family="Helvetica,sans-Serif" font-size="10.00">(int itemIndex)</text>
<text text-anchor="start" x="186.35" y="-789.5" font-family="Helvetica,sans-Serif" font-size="10.00">+</text>
<text text-anchor="start" x="199.35" y="-789.5" font-family="Helvetica,sans-Serif" font-size="10.00">delegate float GetItemScale</text>
<text text-anchor="start" x="199.35" y="-778.5" font-family="Helvetica,sans-Serif" font-size="10.00">Handler(int itemIndex)</text>
<text text-anchor="start" x="186.35" y="-763.5" font-family="Helvetica,sans-Serif" font-size="10.00">+</text>
<text text-anchor="start" x="199.35" y="-763.5" font-family="Helvetica,sans-Serif" font-size="10.00">delegate void DrawItemHandler</text>
<text text-anchor="start" x="199.35" y="-752.5" font-family="Helvetica,sans-Serif" font-size="10.00">(ItemGrid_Layout gridLayout,</text>
<text text-anchor="start" x="199.35" y="-741.5" font-family="Helvetica,sans-Serif" font-size="10.00"> int itemIndex, Vector2 position,</text>
<text text-anchor="start" x="199.35" y="-730.5" font-family="Helvetica,sans-Serif" font-size="10.00"> float scale)</text>
<text text-anchor="start" x="186.35" y="-715.5" font-family="Helvetica,sans-Serif" font-size="10.00">+</text>
<text text-anchor="start" x="199.35" y="-715.5" font-family="Helvetica,sans-Serif" font-size="10.00">delegate Vector2 GetItem</text>
<text text-anchor="start" x="199.35" y="-704.5" font-family="Helvetica,sans-Serif" font-size="10.00">SizeHandler(int itemIndex)</text>
<text text-anchor="start" x="186.35" y="-689.5" font-family="Helvetica,sans-Serif" font-size="10.00">+</text>
<text text-anchor="start" x="199.35" y="-689.5" font-family="Helvetica,sans-Serif" font-size="10.00">static Rectangle Calculate</text>
<text text-anchor="start" x="199.35" y="-678.5" font-family="Helvetica,sans-Serif" font-size="10.00">Region(ItemGrid_Layout</text>
<text text-anchor="start" x="199.35" y="-667.5" font-family="Helvetica,sans-Serif" font-size="10.00"> gridLayout, GUIItemGrid.GetItem</text>
<text text-anchor="start" x="199.35" y="-656.5" font-family="Helvetica,sans-Serif" font-size="10.00">ScaleHandler scaleHandler, Vector2</text>
<text text-anchor="start" x="199.35" y="-645.5" font-family="Helvetica,sans-Serif" font-size="10.00"> itemSize, int overloadedItemCount=&#45;1)</text>
<text text-anchor="start" x="186.35" y="-630.5" font-family="Helvetica,sans-Serif" font-size="10.00">+</text>
<text text-anchor="start" x="199.35" y="-630.5" font-family="Helvetica,sans-Serif" font-size="10.00">static Rectangle Calculate</text>
<text text-anchor="start" x="199.35" y="-619.5" font-family="Helvetica,sans-Serif" font-size="10.00">Region(ItemGrid_Layout</text>
<text text-anchor="start" x="199.35" y="-608.5" font-family="Helvetica,sans-Serif" font-size="10.00"> gridLayout, GUIItemGrid.GetItem</text>
<text text-anchor="start" x="199.35" y="-597.5" font-family="Helvetica,sans-Serif" font-size="10.00">ScaleHandler scaleHandler, int</text>
<text text-anchor="start" x="199.35" y="-586.5" font-family="Helvetica,sans-Serif" font-size="10.00"> overloadedItemCount=&#45;1, Texture2D</text>
<text text-anchor="start" x="199.35" y="-575.5" font-family="Helvetica,sans-Serif" font-size="10.00"> overloadBackingTexture=null)</text>
<text text-anchor="start" x="186.35" y="-560.5" font-family="Helvetica,sans-Serif" font-size="10.00">+</text>
<text text-anchor="start" x="199.35" y="-560.5" font-family="Helvetica,sans-Serif" font-size="10.00">static void Draw(ItemGrid</text>
<text text-anchor="start" x="199.35" y="-549.5" font-family="Helvetica,sans-Serif" font-size="10.00">_Layout gridLayout, GUIItemGrid.</text>
<text text-anchor="start" x="199.35" y="-538.5" font-family="Helvetica,sans-Serif" font-size="10.00">GetItemScaleHandler scaleHandler,</text>
<text text-anchor="start" x="199.35" y="-527.5" font-family="Helvetica,sans-Serif" font-size="10.00"> GUIItemGrid.CursorOver cursorOverHandler,</text>
<text text-anchor="start" x="199.35" y="-516.5" font-family="Helvetica,sans-Serif" font-size="10.00"> GUIItemGrid.DrawItemHandler drawhandler,</text>
<text text-anchor="start" x="199.35" y="-505.5" font-family="Helvetica,sans-Serif" font-size="10.00"> int overloadedItemCount=&#45;1, Texture2D overloadBacking</text>
<text text-anchor="start" x="199.35" y="-494.5" font-family="Helvetica,sans-Serif" font-size="10.00">Texture=null)</text>
<text text-anchor="start" x="186.35" y="-479.5" font-family="Helvetica,sans-Serif" font-size="10.00">+</text>
<text text-anchor="start" x="199.35" y="-479.5" font-family="Helvetica,sans-Serif" font-size="10.00">static void Draw(ItemGrid</text>
<text text-anchor="start" x="199.35" y="-468.5" font-family="Helvetica,sans-Serif" font-size="10.00">_Layout gridLayout, GUIItemGrid.</text>
<text text-anchor="start" x="199.35" y="-457.5" font-family="Helvetica,sans-Serif" font-size="10.00">GetItemScaleHandler scaleHandler,</text>
<text text-anchor="start" x="199.35" y="-446.5" font-family="Helvetica,sans-Serif" font-size="10.00"> GUIItemGrid.CursorOver cursorOverHandler,</text>
<text text-anchor="start" x="199.35" y="-435.5" font-family="Helvetica,sans-Serif" font-size="10.00"> GUIItemGrid.DrawItemHandler drawhandler,</text>
<text text-anchor="start" x="199.35" y="-424.5" font-family="Helvetica,sans-Serif" font-size="10.00"> GUIItemGrid.GetItemSizeHandler itemSizeHandler,</text>
<text text-anchor="start" x="199.35" y="-413.5" font-family="Helvetica,sans-Serif" font-size="10.00"> int overloadedItemCount=&#45;1, int reverseOrverOffset</text>
<text text-anchor="start" x="199.35" y="-402.5" font-family="Helvetica,sans-Serif" font-size="10.00">=0, int maxRowSize=&#45;1, int maxRowSizeLineCount=1)</text>
<text text-anchor="start" x="186.35" y="-387.5" font-family="Helvetica,sans-Serif" font-size="10.00">+</text>
<text text-anchor="start" x="199.35" y="-387.5" font-family="Helvetica,sans-Serif" font-size="10.00">static void Draw(ItemGrid</text>
<text text-anchor="start" x="199.35" y="-376.5" font-family="Helvetica,sans-Serif" font-size="10.00">_Layout gridLayout, GUIItemGrid.</text>
<text text-anchor="start" x="199.35" y="-365.5" font-family="Helvetica,sans-Serif" font-size="10.00">GetItemScaleHandler scaleHandler,</text>
<text text-anchor="start" x="199.35" y="-354.5" font-family="Helvetica,sans-Serif" font-size="10.00"> GUIItemGrid.CursorOver cursorOverHandler,</text>
<text text-anchor="start" x="199.35" y="-343.5" font-family="Helvetica,sans-Serif" font-size="10.00"> GUIItemGrid.DrawItemHandler drawhandler,</text>
<text text-anchor="start" x="199.35" y="-332.5" font-family="Helvetica,sans-Serif" font-size="10.00"> Vector2 itemSize, int overloadedItemCount=&#45;1)</text>
<text text-anchor="start" x="188.85" y="-317.5" font-family="Helvetica,sans-Serif" font-size="10.00">&#45;</text>
<text text-anchor="start" x="199.35" y="-317.5" font-family="Helvetica,sans-Serif" font-size="10.00">static void DummyDraw</text>
<text text-anchor="start" x="199.35" y="-306.5" font-family="Helvetica,sans-Serif" font-size="10.00">(ItemGrid_Layout gridLayout,</text>
<text text-anchor="start" x="199.35" y="-295.5" font-family="Helvetica,sans-Serif" font-size="10.00"> int itemIndex, Vector2 position,</text>
<text text-anchor="start" x="199.35" y="-284.5" font-family="Helvetica,sans-Serif" font-size="10.00"> float scale)</text>
<text text-anchor="start" x="188.85" y="-269.5" font-family="Helvetica,sans-Serif" font-size="10.00">&#45;</text>
<text text-anchor="start" x="199.35" y="-269.5" font-family="Helvetica,sans-Serif" font-size="10.00">static GUIItemGrid()</text>
<polygon fill="#666666" stroke="#666666" points="182.35,-840.5 182.35,-840.5 486.35,-840.5 486.35,-840.5 182.35,-840.5"/>
<polygon fill="#666666" stroke="#666666" points="182.35,-825.5 182.35,-825.5 486.35,-825.5 486.35,-825.5 182.35,-825.5"/>
<polygon fill="none" stroke="#666666" points="182.35,-263 182.35,-858 486.35,-858 486.35,-263 182.35,-263"/>
</a>
</g>
</g>
<!-- Node2&#45;&gt;Node5 -->
<g id="edge9_Node000005_Node000002" class="edge">
<title>Node2&#45;&gt;Node5</title>
<g id="a_edge9_Node000005_Node000002"><a xlink:title=" ">
<path fill="none" stroke="#63b8ff" d="M183.69,-1773C172.84,-1671.88 135.3,-1264.16 195.35,-938 199.5,-915.5 204.86,-892.59 211.07,-869.73"/>
<polygon fill="none" stroke="#63b8ff" points="211.07,-869.71 208.82,-862.86 214.28,-858.14 216.53,-865 211.07,-869.71"/>
</a>
</g>
<text text-anchor="middle" x="244.35" y="-1318.5" font-family="Helvetica,sans-Serif" font-size="10.00" fill="grey"> &#45;calcBackingHeight</text>
<text text-anchor="middle" x="244.35" y="-1307.5" font-family="Helvetica,sans-Serif" font-size="10.00" fill="grey">&#45;calcBackingWidth</text>
</g>
<!-- Node6 -->
<g id="Node000006" class="node">
<title>Node6</title>
<g id="a_Node000006"><a xlink:href="../../d3/dd6/structMicrosoft_1_1Xna_1_1Framework_1_1Rectangle.html" target="_top" xlink:title=" ">
<polygon fill="white" stroke="transparent" points="469.85,-1693 302.85,-1693 302.85,-938 469.85,-938 469.85,-1693"/>
<text text-anchor="start" x="322.85" y="-1680.5" font-family="Helvetica,sans-Serif" font-size="10.00">Microsoft.Xna.Framework.</text>
<text text-anchor="start" x="362.35" y="-1669.5" font-family="Helvetica,sans-Serif" font-size="10.00">Rectangle</text>
<text text-anchor="start" x="307.35" y="-1654.5" font-family="Helvetica,sans-Serif" font-size="10.00">+</text>
<text text-anchor="start" x="320.35" y="-1654.5" font-family="Helvetica,sans-Serif" font-size="10.00">Point Center</text>
<text text-anchor="start" x="307.35" y="-1639.5" font-family="Helvetica,sans-Serif" font-size="10.00">+</text>
<text text-anchor="start" x="320.35" y="-1639.5" font-family="Helvetica,sans-Serif" font-size="10.00">Point Location</text>
<text text-anchor="start" x="307.35" y="-1624.5" font-family="Helvetica,sans-Serif" font-size="10.00">+</text>
<text text-anchor="start" x="320.35" y="-1624.5" font-family="Helvetica,sans-Serif" font-size="10.00">bool IsEmpty</text>
<text text-anchor="start" x="307.35" y="-1609.5" font-family="Helvetica,sans-Serif" font-size="10.00">+</text>
<text text-anchor="start" x="320.35" y="-1609.5" font-family="Helvetica,sans-Serif" font-size="10.00">static Rectangle Empty</text>
<text text-anchor="start" x="307.35" y="-1594.5" font-family="Helvetica,sans-Serif" font-size="10.00">+</text>
<text text-anchor="start" x="320.35" y="-1594.5" font-family="Helvetica,sans-Serif" font-size="10.00">int Left</text>
<text text-anchor="start" x="307.35" y="-1579.5" font-family="Helvetica,sans-Serif" font-size="10.00">+</text>
<text text-anchor="start" x="320.35" y="-1579.5" font-family="Helvetica,sans-Serif" font-size="10.00">int Right</text>
<text text-anchor="start" x="307.35" y="-1564.5" font-family="Helvetica,sans-Serif" font-size="10.00">+</text>
<text text-anchor="start" x="320.35" y="-1564.5" font-family="Helvetica,sans-Serif" font-size="10.00">int Top</text>
<text text-anchor="start" x="307.35" y="-1549.5" font-family="Helvetica,sans-Serif" font-size="10.00">+</text>
<text text-anchor="start" x="320.35" y="-1549.5" font-family="Helvetica,sans-Serif" font-size="10.00">int Bottom</text>
<text text-anchor="start" x="307.35" y="-1534.5" font-family="Helvetica,sans-Serif" font-size="10.00">+</text>
<text text-anchor="start" x="320.35" y="-1534.5" font-family="Helvetica,sans-Serif" font-size="10.00">Rectangle(int x, int</text>
<text text-anchor="start" x="320.35" y="-1523.5" font-family="Helvetica,sans-Serif" font-size="10.00"> y, int width, int height)</text>
<text text-anchor="start" x="307.35" y="-1508.5" font-family="Helvetica,sans-Serif" font-size="10.00">+</text>
<text text-anchor="start" x="320.35" y="-1508.5" font-family="Helvetica,sans-Serif" font-size="10.00">void Intersects(ref</text>
<text text-anchor="start" x="320.35" y="-1497.5" font-family="Helvetica,sans-Serif" font-size="10.00"> Rectangle value, out</text>
<text text-anchor="start" x="320.35" y="-1486.5" font-family="Helvetica,sans-Serif" font-size="10.00"> bool result)</text>
<text text-anchor="start" x="307.35" y="-1471.5" font-family="Helvetica,sans-Serif" font-size="10.00">+</text>
<text text-anchor="start" x="320.35" y="-1471.5" font-family="Helvetica,sans-Serif" font-size="10.00">bool Contains(Point</text>
<text text-anchor="start" x="320.35" y="-1460.5" font-family="Helvetica,sans-Serif" font-size="10.00"> value)</text>
<text text-anchor="start" x="307.35" y="-1445.5" font-family="Helvetica,sans-Serif" font-size="10.00">+</text>
<text text-anchor="start" x="320.35" y="-1445.5" font-family="Helvetica,sans-Serif" font-size="10.00">bool Contains(Rectangle</text>
<text text-anchor="start" x="320.35" y="-1434.5" font-family="Helvetica,sans-Serif" font-size="10.00"> value)</text>
<text text-anchor="start" x="307.35" y="-1419.5" font-family="Helvetica,sans-Serif" font-size="10.00">+</text>
<text text-anchor="start" x="320.35" y="-1419.5" font-family="Helvetica,sans-Serif" font-size="10.00">void Contains(ref Rectangle</text>
<text text-anchor="start" x="320.35" y="-1408.5" font-family="Helvetica,sans-Serif" font-size="10.00"> value, out bool result)</text>
<text text-anchor="start" x="307.35" y="-1393.5" font-family="Helvetica,sans-Serif" font-size="10.00">+</text>
<text text-anchor="start" x="320.35" y="-1393.5" font-family="Helvetica,sans-Serif" font-size="10.00">bool Contains(int x,</text>
<text text-anchor="start" x="320.35" y="-1382.5" font-family="Helvetica,sans-Serif" font-size="10.00"> int y)</text>
<text text-anchor="start" x="307.35" y="-1367.5" font-family="Helvetica,sans-Serif" font-size="10.00">+</text>
<text text-anchor="start" x="320.35" y="-1367.5" font-family="Helvetica,sans-Serif" font-size="10.00">void Contains(ref Point</text>
<text text-anchor="start" x="320.35" y="-1356.5" font-family="Helvetica,sans-Serif" font-size="10.00"> value, out bool result)</text>
<text text-anchor="start" x="307.35" y="-1341.5" font-family="Helvetica,sans-Serif" font-size="10.00">+</text>
<text text-anchor="start" x="320.35" y="-1341.5" font-family="Helvetica,sans-Serif" font-size="10.00">void Offset(Point offset)</text>
<text text-anchor="start" x="307.35" y="-1326.5" font-family="Helvetica,sans-Serif" font-size="10.00">+</text>
<text text-anchor="start" x="320.35" y="-1326.5" font-family="Helvetica,sans-Serif" font-size="10.00">void Offset(int offsetX,</text>
<text text-anchor="start" x="320.35" y="-1315.5" font-family="Helvetica,sans-Serif" font-size="10.00"> int offsetY)</text>
<text text-anchor="start" x="307.35" y="-1300.5" font-family="Helvetica,sans-Serif" font-size="10.00">+</text>
<text text-anchor="start" x="320.35" y="-1300.5" font-family="Helvetica,sans-Serif" font-size="10.00">void Inflate(int horizontal</text>
<text text-anchor="start" x="320.35" y="-1289.5" font-family="Helvetica,sans-Serif" font-size="10.00">Value, int verticalValue)</text>
<text text-anchor="start" x="307.35" y="-1274.5" font-family="Helvetica,sans-Serif" font-size="10.00">+</text>
<text text-anchor="start" x="320.35" y="-1274.5" font-family="Helvetica,sans-Serif" font-size="10.00">bool Intersects(Rectangle</text>
<text text-anchor="start" x="320.35" y="-1263.5" font-family="Helvetica,sans-Serif" font-size="10.00"> rect)</text>
<text text-anchor="start" x="307.35" y="-1248.5" font-family="Helvetica,sans-Serif" font-size="10.00">+</text>
<text text-anchor="start" x="320.35" y="-1248.5" font-family="Helvetica,sans-Serif" font-size="10.00">bool Equals(Rectangle</text>
<text text-anchor="start" x="320.35" y="-1237.5" font-family="Helvetica,sans-Serif" font-size="10.00"> other)</text>
<text text-anchor="start" x="307.35" y="-1222.5" font-family="Helvetica,sans-Serif" font-size="10.00">+</text>
<text text-anchor="start" x="320.35" y="-1222.5" font-family="Helvetica,sans-Serif" font-size="10.00">override bool Equals</text>
<text text-anchor="start" x="320.35" y="-1211.5" font-family="Helvetica,sans-Serif" font-size="10.00">(object obj)</text>
<text text-anchor="start" x="307.35" y="-1196.5" font-family="Helvetica,sans-Serif" font-size="10.00">+</text>
<text text-anchor="start" x="320.35" y="-1196.5" font-family="Helvetica,sans-Serif" font-size="10.00">override string ToString()</text>
<text text-anchor="start" x="307.35" y="-1181.5" font-family="Helvetica,sans-Serif" font-size="10.00">+</text>
<text text-anchor="start" x="320.35" y="-1181.5" font-family="Helvetica,sans-Serif" font-size="10.00">override int GetHashCode()</text>
<text text-anchor="start" x="307.35" y="-1166.5" font-family="Helvetica,sans-Serif" font-size="10.00">+</text>
<text text-anchor="start" x="320.35" y="-1166.5" font-family="Helvetica,sans-Serif" font-size="10.00">static Rectangle Union</text>
<text text-anchor="start" x="320.35" y="-1155.5" font-family="Helvetica,sans-Serif" font-size="10.00">(Rectangle value1, Rectangle</text>
<text text-anchor="start" x="320.35" y="-1144.5" font-family="Helvetica,sans-Serif" font-size="10.00"> value2)</text>
<text text-anchor="start" x="307.35" y="-1129.5" font-family="Helvetica,sans-Serif" font-size="10.00">+</text>
<text text-anchor="start" x="320.35" y="-1129.5" font-family="Helvetica,sans-Serif" font-size="10.00">static void Union(ref</text>
<text text-anchor="start" x="320.35" y="-1118.5" font-family="Helvetica,sans-Serif" font-size="10.00"> Rectangle value1, ref</text>
<text text-anchor="start" x="320.35" y="-1107.5" font-family="Helvetica,sans-Serif" font-size="10.00"> Rectangle value2, out</text>
<text text-anchor="start" x="320.35" y="-1096.5" font-family="Helvetica,sans-Serif" font-size="10.00"> Rectangle result)</text>
<text text-anchor="start" x="307.35" y="-1081.5" font-family="Helvetica,sans-Serif" font-size="10.00">+</text>
<text text-anchor="start" x="320.35" y="-1081.5" font-family="Helvetica,sans-Serif" font-size="10.00">static Rectangle Intersect</text>
<text text-anchor="start" x="320.35" y="-1070.5" font-family="Helvetica,sans-Serif" font-size="10.00">(Rectangle value1, Rectangle</text>
<text text-anchor="start" x="320.35" y="-1059.5" font-family="Helvetica,sans-Serif" font-size="10.00"> value2)</text>
<text text-anchor="start" x="307.35" y="-1044.5" font-family="Helvetica,sans-Serif" font-size="10.00">+</text>
<text text-anchor="start" x="320.35" y="-1044.5" font-family="Helvetica,sans-Serif" font-size="10.00">static void Intersect</text>
<text text-anchor="start" x="320.35" y="-1033.5" font-family="Helvetica,sans-Serif" font-size="10.00">(ref Rectangle value1,</text>
<text text-anchor="start" x="320.35" y="-1022.5" font-family="Helvetica,sans-Serif" font-size="10.00"> ref Rectangle value2,</text>
<text text-anchor="start" x="320.35" y="-1011.5" font-family="Helvetica,sans-Serif" font-size="10.00"> out Rectangle result)</text>
<text text-anchor="start" x="307.35" y="-996.5" font-family="Helvetica,sans-Serif" font-size="10.00">+</text>
<text text-anchor="start" x="320.35" y="-996.5" font-family="Helvetica,sans-Serif" font-size="10.00">static bool operator</text>
<text text-anchor="start" x="320.35" y="-985.5" font-family="Helvetica,sans-Serif" font-size="10.00">==(Rectangle a, Rectangle b)</text>
<text text-anchor="start" x="307.35" y="-970.5" font-family="Helvetica,sans-Serif" font-size="10.00">+</text>
<text text-anchor="start" x="320.35" y="-970.5" font-family="Helvetica,sans-Serif" font-size="10.00">static bool operator!</text>
<text text-anchor="start" x="320.35" y="-959.5" font-family="Helvetica,sans-Serif" font-size="10.00">=(Rectangle a, Rectangle b)</text>
<text text-anchor="start" x="307.35" y="-944.5" font-family="Helvetica,sans-Serif" font-size="10.00">+</text>
<text text-anchor="start" x="320.35" y="-944.5" font-family="Helvetica,sans-Serif" font-size="10.00">static Rectangle()</text>
<polygon fill="#666666" stroke="#666666" points="303.35,-1664.5 303.35,-1664.5 470.35,-1664.5 470.35,-1664.5 303.35,-1664.5"/>
<polygon fill="#666666" stroke="#666666" points="303.35,-1544.5 303.35,-1544.5 318.35,-1544.5 318.35,-1544.5 303.35,-1544.5"/>
<polygon fill="#666666" stroke="#666666" points="318.35,-1544.5 318.35,-1544.5 470.35,-1544.5 470.35,-1544.5 318.35,-1544.5"/>
<polygon fill="none" stroke="#666666" points="302.85,-938 302.85,-1693 469.85,-1693 469.85,-938 302.85,-938"/>
</a>
</g>
</g>
<!-- Node2&#45;&gt;Node6 -->
<g id="edge8_Node000006_Node000002" class="edge">
<title>Node2&#45;&gt;Node6</title>
<g id="a_edge8_Node000006_Node000002"><a xlink:title=" ">
<path fill="none" stroke="#63b8ff" d="M198.14,-1787.98C219.49,-1771.89 264.56,-1734.9 288.35,-1693 291.45,-1687.54 294.46,-1681.98 297.37,-1676.34"/>
<polygon fill="none" stroke="#63b8ff" points="297.48,-1676.12 296.59,-1668.96 302.85,-1665.39 303.74,-1672.54 297.48,-1676.12"/>
</a>
</g>
<text text-anchor="middle" x="298.35" y="-1747" font-family="Helvetica,sans-Serif" font-size="10.00" fill="grey"> +Height</text>
<text text-anchor="middle" x="298.35" y="-1736" font-family="Helvetica,sans-Serif" font-size="10.00" fill="grey">+Width</text>
<text text-anchor="middle" x="298.35" y="-1725" font-family="Helvetica,sans-Serif" font-size="10.00" fill="grey">+X</text>
<text text-anchor="middle" x="298.35" y="-1714" font-family="Helvetica,sans-Serif" font-size="10.00" fill="grey">+Y</text>
</g>
<!-- Node3 -->
<g id="Node000003" class="node">
<title>Node3</title>
<g id="a_Node000003"><a xlink:title=" ">
<polygon fill="white" stroke="transparent" points="736.35,-585 704.35,-585 704.35,-536 736.35,-536 736.35,-585"/>
<text text-anchor="start" x="709.35" y="-572.5" font-family="Helvetica,sans-Serif" font-size="10.00">float</text>
<text text-anchor="start" x="718.35" y="-557.5" font-family="Helvetica,sans-Serif" font-size="10.00"> </text>
<text text-anchor="start" x="718.35" y="-542.5" font-family="Helvetica,sans-Serif" font-size="10.00"> </text>
<polygon fill="#666666" stroke="#666666" points="704.35,-567.5 704.35,-567.5 736.35,-567.5 736.35,-567.5 704.35,-567.5"/>
<polygon fill="#666666" stroke="#666666" points="704.35,-552.5 704.35,-552.5 736.35,-552.5 736.35,-552.5 704.35,-552.5"/>
<polygon fill="none" stroke="#666666" points="704.35,-536 704.35,-585 736.35,-585 736.35,-536 704.35,-536"/>
</a>
</g>
</g>
<!-- Node3&#45;&gt;Node1 -->
<g id="edge2_Node000001_Node000003" class="edge">
<title>Node3&#45;&gt;Node1</title>
<g id="a_edge2_Node000001_Node000003"><a xlink:title=" ">
<path fill="none" stroke="#63b8ff" d="M722.77,-535.94C727.08,-484.07 732.12,-357.11 690.35,-263 678.66,-236.64 661.1,-211.62 642.1,-189.39"/>
<polygon fill="none" stroke="#63b8ff" points="642.09,-189.38 635.12,-187.52 634.17,-180.37 641.13,-182.24 642.09,-189.38"/>
</a>
</g>
<text text-anchor="middle" x="725.85" y="-226" font-family="Helvetica,sans-Serif" font-size="10.00" fill="grey"> &#45;doubleClickTimer</text>
</g>
<!-- Node4 -->
<g id="Node000004" class="node">
<title>Node4</title>
<g id="a_Node000004"><a xlink:title=" ">
<polygon fill="white" stroke="transparent" points="626.35,-1340 594.35,-1340 594.35,-1291 626.35,-1291 626.35,-1340"/>
<text text-anchor="start" x="599.35" y="-1327.5" font-family="Helvetica,sans-Serif" font-size="10.00">bool</text>
<text text-anchor="start" x="608.35" y="-1312.5" font-family="Helvetica,sans-Serif" font-size="10.00"> </text>
<text text-anchor="start" x="608.35" y="-1297.5" font-family="Helvetica,sans-Serif" font-size="10.00"> </text>
<polygon fill="#666666" stroke="#666666" points="594.35,-1322.5 594.35,-1322.5 626.35,-1322.5 626.35,-1322.5 594.35,-1322.5"/>
<polygon fill="#666666" stroke="#666666" points="594.35,-1307.5 594.35,-1307.5 626.35,-1307.5 626.35,-1307.5 594.35,-1307.5"/>
<polygon fill="none" stroke="#666666" points="594.35,-1291 594.35,-1340 626.35,-1340 626.35,-1291 594.35,-1291"/>
</a>
</g>
</g>
<!-- Node4&#45;&gt;Node1 -->
<g id="edge3_Node000001_Node000004" class="edge">
<title>Node4&#45;&gt;Node1</title>
<g id="a_edge3_Node000001_Node000004"><a xlink:title=" ">
<path fill="none" stroke="#63b8ff" d="M610.64,-1290.59C612.36,-1139.51 620.47,-320.27 595.35,-212 594.89,-209.98 594.38,-207.96 593.84,-205.93"/>
<polygon fill="none" stroke="#63b8ff" points="593.8,-205.81 588.25,-201.21 590.36,-194.31 595.92,-198.92 593.8,-205.81"/>
</a>
</g>
<text text-anchor="middle" x="650.35" y="-558" font-family="Helvetica,sans-Serif" font-size="10.00" fill="grey"> &#45;rightClickHeld</text>
</g>
<!-- Node4&#45;&gt;Node5 -->
<g id="edge5_Node000005_Node000004" class="edge">
<title>Node4&#45;&gt;Node5</title>
<g id="a_edge5_Node000005_Node000004"><a xlink:title=" ">
<path fill="none" stroke="#63b8ff" d="M617.64,-1290.81C636.24,-1225.06 677.8,-1038.54 585.35,-938 549.15,-898.63 507.81,-953.8 466.35,-920 459.52,-914.43 449.83,-895.7 438.77,-869.53"/>
<polygon fill="none" stroke="#63b8ff" points="438.71,-869.39 432.72,-865.38 434.12,-858.3 440.11,-862.32 438.71,-869.39"/>
</a>
</g>
<text text-anchor="middle" x="531.35" y="-901" font-family="Helvetica,sans-Serif" font-size="10.00" fill="grey"> +disablePickingCallbacks</text>
<text text-anchor="middle" x="531.35" y="-890" font-family="Helvetica,sans-Serif" font-size="10.00" fill="grey">&#45;calcRegionInitialised</text>
</g>
<!-- Node5&#45;&gt;Node1 -->
<g id="edge4_Node000001_Node000005" class="edge">
<title>Node5&#45;&gt;Node1</title>
<g id="a_edge4_Node000001_Node000005"><a xlink:title=" ">
<path fill="none" stroke="#63b8ff" d="M467.35,-262.98C476.4,-242.81 485.12,-223.37 493.2,-205.35"/>
<polygon fill="none" stroke="#63b8ff" points="493.24,-205.27 492.05,-198.16 498.15,-194.32 499.35,-201.43 493.24,-205.27"/>
</a>
</g>
<text text-anchor="middle" x="538.85" y="-237" font-family="Helvetica,sans-Serif" font-size="10.00" fill="grey"> +ItemScaleDelegate</text>
<text text-anchor="middle" x="538.85" y="-226" font-family="Helvetica,sans-Serif" font-size="10.00" fill="grey">&#45;ItemOverDelegate</text>
<text text-anchor="middle" x="538.85" y="-215" font-family="Helvetica,sans-Serif" font-size="10.00" fill="grey">&#45;itemDrawDelegate</text>
</g>
<!-- Node5&#45;&gt;Node5 -->
<g id="edge10_Node000005_Node000005" class="edge">
<title>Node5&#45;&gt;Node5</title>
<g id="a_edge10_Node000005_Node000005"><a xlink:title=" ">
<path fill="none" stroke="#63b8ff" d="M486.56,-606.45C497.6,-596.08 504.35,-580.76 504.35,-560.5 504.35,-545.62 500.71,-533.41 494.4,-523.86"/>
<polygon fill="none" stroke="#63b8ff" points="494.29,-523.73 487.37,-521.72 486.56,-514.55 493.49,-516.56 494.29,-523.73"/>
</a>
</g>
<text text-anchor="middle" x="539.35" y="-558" font-family="Helvetica,sans-Serif" font-size="10.00" fill="grey"> &#45;dummyDraw</text>
</g>
<!-- Node6&#45;&gt;Node5 -->
<g id="edge6_Node000005_Node000006" class="edge">
<title>Node6&#45;&gt;Node5</title>
<g id="a_edge6_Node000005_Node000006"><a xlink:title=" ">
<path fill="none" stroke="#63b8ff" d="M345.61,-937.92C345.17,-931.9 344.75,-925.93 344.35,-920 343.27,-903.88 342.31,-887.34 341.45,-870.64"/>
<polygon fill="none" stroke="#63b8ff" points="341.44,-870.43 337.14,-864.64 340.84,-858.45 345.13,-864.24 341.44,-870.43"/>
</a>
</g>
<text text-anchor="middle" x="389.85" y="-895.5" font-family="Helvetica,sans-Serif" font-size="10.00" fill="grey"> &#45;calculatedRegion</text>
</g>
<!-- Node6&#45;&gt;Node6 -->
<g id="edge7_Node000006_Node000006" class="edge">
<title>Node6&#45;&gt;Node6</title>
<g id="a_edge7_Node000006_Node000006"><a xlink:title=" ">
<path fill="none" stroke="#63b8ff" d="M469.97,-1383.86C480.74,-1372.01 487.85,-1349.22 487.85,-1315.5 487.85,-1289.68 483.68,-1270.28 476.9,-1257.28"/>
<polygon fill="none" stroke="#63b8ff" points="476.74,-1257.05 470.06,-1254.35 469.97,-1247.14 476.66,-1249.84 476.74,-1257.05"/>
</a>
</g>
<text text-anchor="middle" x="531.85" y="-1313" font-family="Helvetica,sans-Serif" font-size="10.00" fill="grey"> &#45;emptyRectangle</text>
</g>
</g>
</svg>

<g id="navigator" transform="translate(0 0)" fill="#404254">
  <rect fill="#f2f5e9" fill-opacity="0.5" stroke="#606060" stroke-width=".5" x="0" y="0" width="60" height="60"/>
  <use id="zoomplus" xlink:href="#zoomPlus" x="17" y="9" onmousedown="handleZoom(evt,'in')"/>
  <use id="zoomminus" xlink:href="#zoomMin" x="42" y="9" onmousedown="handleZoom(evt,'out')"/>
  <use id="reset" xlink:href="#resetDef" x="30" y="36" onmousedown="handleReset()"/>
   <use id="arrowup" xlink:href="#arrowUp" x="0" y="0" onmousedown="handlePan(0,-1)"/>
  <use id="arrowright" xlink:href="#arrowRight" x="0" y="0" onmousedown="handlePan(1,0)"/>
  <use id="arrowdown" xlink:href="#arrowDown" x="0" y="0" onmousedown="handlePan(0,1)"/>
  <use id="arrowleft" xlink:href="#arrowLeft" x="0" y="0" onmousedown="handlePan(-1,0)"/>
</g>
<svg viewBox="0 0 15 15" width="100%" height="30px" preserveAspectRatio="xMaxYMin meet">
 <g id="arrow_out" transform="scale(0.3 0.3)">
  <a xlink:href="classGUIAmmo__coll__graph_org.svg" target="_base">
   <rect id="button" ry="5" rx="5" y="6" x="6" height="38" width="38"
        fill="#f2f5e9" fill-opacity="0.5" stroke="#606060" stroke-width="1.0"/>
   <path id="arrow"
     d="M 11.500037,31.436501 C 11.940474,20.09759 22.043105,11.32322 32.158766,21.979434 L 37.068811,17.246167 C 37.068811,17.246167 37.088388,32 37.088388,32 L 22.160133,31.978069 C 22.160133,31.978069 26.997745,27.140456 26.997745,27.140456 C 18.528582,18.264221 13.291696,25.230495 11.500037,31.436501 z"
     style="fill:#404040;"/>
  </a>
 </g>
</svg>

<style type='text/css'>
<![CDATA[
[data-mouse-over-selected='false'] { opacity: 0.7; }
[data-mouse-over-selected='true']  { opacity: 1.0; }
]]>
</style>
<script type="application/ecmascript"><![CDATA[
document.addEventListener('DOMContentLoaded', (event) => {
  highlightEdges();
  highlightAdjacentNodes();
});
]]></script>
</svg>
