<?xml version="1.0" encoding="UTF-8" standalone="no"?>
<!DOCTYPE svg PUBLIC "-//W3C//DTD SVG 1.1//EN"
 "http://www.w3.org/Graphics/SVG/1.1/DTD/svg11.dtd">
<!-- Generated by graphviz version 2.43.0 (0)
 -->
<!-- Title: System.Security.Cryptography.SHA1Managed Pages: 1 -->
<svg width="256pt" height="1552pt"
 viewBox="0.00 0.00 256.00 1552.00" xmlns="http://www.w3.org/2000/svg" xmlns:xlink="http://www.w3.org/1999/xlink">
<g id="graph0" class="graph" transform="scale(1 1) rotate(0) translate(4 1548)">
<title>System.Security.Cryptography.SHA1Managed</title>
<!-- Node1 -->
<g id="Node000001" class="node">
<title>Node1</title>
<g id="a_Node000001"><a xlink:title=" ">
<polygon fill="#999999" stroke="transparent" points="185,-313 13,-313 13,0 185,0 185,-313"/>
<text text-anchor="start" x="24.5" y="-300.5" font-family="Helvetica,sans-Serif" font-size="10.00">System.Security.Cryptography.</text>
<text text-anchor="start" x="63" y="-289.5" font-family="Helvetica,sans-Serif" font-size="10.00">SHA1Managed</text>
<text text-anchor="start" x="19.5" y="-274.5" font-family="Helvetica,sans-Serif" font-size="10.00">&#45;</text>
<text text-anchor="start" x="30" y="-274.5" font-family="Helvetica,sans-Serif" font-size="10.00">byte[] _buffer</text>
<text text-anchor="start" x="19.5" y="-259.5" font-family="Helvetica,sans-Serif" font-size="10.00">&#45;</text>
<text text-anchor="start" x="30" y="-259.5" font-family="Helvetica,sans-Serif" font-size="10.00">long _count</text>
<text text-anchor="start" x="19.5" y="-244.5" font-family="Helvetica,sans-Serif" font-size="10.00">&#45;</text>
<text text-anchor="start" x="30" y="-244.5" font-family="Helvetica,sans-Serif" font-size="10.00">uint[] _stateSHA1</text>
<text text-anchor="start" x="19.5" y="-229.5" font-family="Helvetica,sans-Serif" font-size="10.00">&#45;</text>
<text text-anchor="start" x="30" y="-229.5" font-family="Helvetica,sans-Serif" font-size="10.00">uint[] _expandedBuffer</text>
<text text-anchor="start" x="17" y="-214.5" font-family="Helvetica,sans-Serif" font-size="10.00">+</text>
<text text-anchor="start" x="30" y="-214.5" font-family="Helvetica,sans-Serif" font-size="10.00">SHA1Managed()</text>
<text text-anchor="start" x="17" y="-199.5" font-family="Helvetica,sans-Serif" font-size="10.00">+</text>
<text text-anchor="start" x="30" y="-199.5" font-family="Helvetica,sans-Serif" font-size="10.00">override void Initialize()</text>
<text text-anchor="start" x="17" y="-184.5" font-family="Helvetica,sans-Serif" font-size="10.00">#</text>
<text text-anchor="start" x="30" y="-184.5" font-family="Helvetica,sans-Serif" font-size="10.00">override void HashCore</text>
<text text-anchor="start" x="30" y="-173.5" font-family="Helvetica,sans-Serif" font-size="10.00">(byte[] rgb, int ibStart,</text>
<text text-anchor="start" x="30" y="-162.5" font-family="Helvetica,sans-Serif" font-size="10.00"> int cbSize)</text>
<text text-anchor="start" x="17" y="-147.5" font-family="Helvetica,sans-Serif" font-size="10.00">#</text>
<text text-anchor="start" x="30" y="-147.5" font-family="Helvetica,sans-Serif" font-size="10.00">override byte[] HashFinal()</text>
<text text-anchor="start" x="19.5" y="-132.5" font-family="Helvetica,sans-Serif" font-size="10.00">&#45;</text>
<text text-anchor="start" x="30" y="-132.5" font-family="Helvetica,sans-Serif" font-size="10.00">void InitializeState()</text>
<text text-anchor="start" x="19.5" y="-117.5" font-family="Helvetica,sans-Serif" font-size="10.00">&#45;</text>
<text text-anchor="start" x="30" y="-117.5" font-family="Helvetica,sans-Serif" font-size="10.00">unsafe void _HashData</text>
<text text-anchor="start" x="30" y="-106.5" font-family="Helvetica,sans-Serif" font-size="10.00">(byte[] partIn, int ibStart,</text>
<text text-anchor="start" x="30" y="-95.5" font-family="Helvetica,sans-Serif" font-size="10.00"> int cbSize)</text>
<text text-anchor="start" x="19.5" y="-80.5" font-family="Helvetica,sans-Serif" font-size="10.00">&#45;</text>
<text text-anchor="start" x="30" y="-80.5" font-family="Helvetica,sans-Serif" font-size="10.00">byte[] _EndHash()</text>
<text text-anchor="start" x="19.5" y="-65.5" font-family="Helvetica,sans-Serif" font-size="10.00">&#45;</text>
<text text-anchor="start" x="30" y="-65.5" font-family="Helvetica,sans-Serif" font-size="10.00">static unsafe void</text>
<text text-anchor="start" x="30" y="-54.5" font-family="Helvetica,sans-Serif" font-size="10.00"> SHATransform(uint *expanded</text>
<text text-anchor="start" x="30" y="-43.5" font-family="Helvetica,sans-Serif" font-size="10.00">Buffer, uint *state, byte</text>
<text text-anchor="start" x="30" y="-32.5" font-family="Helvetica,sans-Serif" font-size="10.00"> *block)</text>
<text text-anchor="start" x="19.5" y="-17.5" font-family="Helvetica,sans-Serif" font-size="10.00">&#45;</text>
<text text-anchor="start" x="30" y="-17.5" font-family="Helvetica,sans-Serif" font-size="10.00">static unsafe void</text>
<text text-anchor="start" x="30" y="-6.5" font-family="Helvetica,sans-Serif" font-size="10.00"> SHAExpand(uint *x)</text>
<polygon fill="#666666" stroke="#666666" points="13,-284.5 13,-284.5 185,-284.5 185,-284.5 13,-284.5"/>
<polygon fill="#666666" stroke="#666666" points="13,-224.5 13,-224.5 28,-224.5 28,-224.5 13,-224.5"/>
<polygon fill="#666666" stroke="#666666" points="28,-224.5 28,-224.5 185,-224.5 185,-224.5 28,-224.5"/>
<polygon fill="none" stroke="#666666" points="13,0 13,-313 185,-313 185,0 13,0"/>
</a>
</g>
</g>
<!-- Node2 -->
<g id="Node000002" class="node">
<title>Node2</title>
<g id="a_Node000002"><a xlink:href="../../d9/d8d/classSystem_1_1Security_1_1Cryptography_1_1SHA1.html" target="_top" xlink:title=" ">
<polygon fill="white" stroke="transparent" points="171,-439 27,-439 27,-349 171,-349 171,-439"/>
<text text-anchor="start" x="85.5" y="-427" font-family="Helvetica,sans-Serif" font-size="10.00">SHA1</text>
<text text-anchor="start" x="97" y="-412" font-family="Helvetica,sans-Serif" font-size="10.00"> </text>
<text text-anchor="start" x="31" y="-397" font-family="Helvetica,sans-Serif" font-size="10.00">+</text>
<text text-anchor="start" x="44" y="-397" font-family="Helvetica,sans-Serif" font-size="10.00">static new SHA1 Create()</text>
<text text-anchor="start" x="31" y="-382" font-family="Helvetica,sans-Serif" font-size="10.00">+</text>
<text text-anchor="start" x="44" y="-382" font-family="Helvetica,sans-Serif" font-size="10.00">static new SHA1 Create</text>
<text text-anchor="start" x="44" y="-371" font-family="Helvetica,sans-Serif" font-size="10.00">(string hashName)</text>
<text text-anchor="start" x="31" y="-356" font-family="Helvetica,sans-Serif" font-size="10.00">#</text>
<text text-anchor="start" x="44" y="-356" font-family="Helvetica,sans-Serif" font-size="10.00">SHA1()</text>
<polygon fill="#666666" stroke="#666666" points="27,-422 27,-422 171,-422 171,-422 27,-422"/>
<polygon fill="#666666" stroke="#666666" points="27,-407 27,-407 171,-407 171,-407 27,-407"/>
<polygon fill="none" stroke="#666666" points="27,-349 27,-439 171,-439 171,-349 27,-349"/>
</a>
</g>
</g>
<!-- Node2&#45;&gt;Node1 -->
<g id="edge1_Node000001_Node000002" class="edge">
<title>Node2&#45;&gt;Node1</title>
<g id="a_edge1_Node000001_Node000002"><a xlink:title=" ">
<path fill="none" stroke="#63b8ff" d="M99,-338.76C99,-330.72 99,-322.12 99,-313.2"/>
<polygon fill="none" stroke="#63b8ff" points="95.5,-338.98 99,-348.98 102.5,-338.98 95.5,-338.98"/>
</a>
</g>
</g>
<!-- Node3 -->
<g id="Node000003" class="node">
<title>Node3</title>
<g id="a_Node000003"><a xlink:href="../../d2/d1c/classSystem_1_1Security_1_1Cryptography_1_1HashAlgorithm.html" target="_top" xlink:title=" ">
<polygon fill="white" stroke="transparent" points="198,-1237 0,-1237 0,-475 198,-475 198,-1237"/>
<text text-anchor="start" x="62.5" y="-1225" font-family="Helvetica,sans-Serif" font-size="10.00">HashAlgorithm</text>
<text text-anchor="start" x="4" y="-1210" font-family="Helvetica,sans-Serif" font-size="10.00">+</text>
<text text-anchor="start" x="17" y="-1210" font-family="Helvetica,sans-Serif" font-size="10.00">virtual int HashSize</text>
<text text-anchor="start" x="4" y="-1195" font-family="Helvetica,sans-Serif" font-size="10.00">+</text>
<text text-anchor="start" x="17" y="-1195" font-family="Helvetica,sans-Serif" font-size="10.00">virtual byte[] Hash</text>
<text text-anchor="start" x="4" y="-1180" font-family="Helvetica,sans-Serif" font-size="10.00">+</text>
<text text-anchor="start" x="17" y="-1180" font-family="Helvetica,sans-Serif" font-size="10.00">virtual int InputBlockSize</text>
<text text-anchor="start" x="4" y="-1165" font-family="Helvetica,sans-Serif" font-size="10.00">+</text>
<text text-anchor="start" x="17" y="-1165" font-family="Helvetica,sans-Serif" font-size="10.00">virtual int OutputBlockSize</text>
<text text-anchor="start" x="4" y="-1150" font-family="Helvetica,sans-Serif" font-size="10.00">+</text>
<text text-anchor="start" x="17" y="-1150" font-family="Helvetica,sans-Serif" font-size="10.00">virtual bool CanTransform</text>
<text text-anchor="start" x="17" y="-1139" font-family="Helvetica,sans-Serif" font-size="10.00">MultipleBlocks</text>
<text text-anchor="start" x="4" y="-1124" font-family="Helvetica,sans-Serif" font-size="10.00">+</text>
<text text-anchor="start" x="17" y="-1124" font-family="Helvetica,sans-Serif" font-size="10.00">virtual bool CanReuseTransform</text>
<text text-anchor="start" x="4" y="-1109" font-family="Helvetica,sans-Serif" font-size="10.00">~</text>
<text text-anchor="start" x="17" y="-1109" font-family="Helvetica,sans-Serif" font-size="10.00">byte[] HashValue</text>
<text text-anchor="start" x="4" y="-1094" font-family="Helvetica,sans-Serif" font-size="10.00">#</text>
<text text-anchor="start" x="17" y="-1094" font-family="Helvetica,sans-Serif" font-size="10.00">int HashSizeValue</text>
<text text-anchor="start" x="4" y="-1079" font-family="Helvetica,sans-Serif" font-size="10.00">#</text>
<text text-anchor="start" x="17" y="-1079" font-family="Helvetica,sans-Serif" font-size="10.00">int State</text>
<text text-anchor="start" x="6.5" y="-1064" font-family="Helvetica,sans-Serif" font-size="10.00">&#45;</text>
<text text-anchor="start" x="17" y="-1064" font-family="Helvetica,sans-Serif" font-size="10.00">bool _disposed</text>
<text text-anchor="start" x="4" y="-1049" font-family="Helvetica,sans-Serif" font-size="10.00">+</text>
<text text-anchor="start" x="17" y="-1049" font-family="Helvetica,sans-Serif" font-size="10.00">byte[] ComputeHash</text>
<text text-anchor="start" x="17" y="-1038" font-family="Helvetica,sans-Serif" font-size="10.00">(byte[] buffer)</text>
<text text-anchor="start" x="4" y="-1023" font-family="Helvetica,sans-Serif" font-size="10.00">+</text>
<text text-anchor="start" x="17" y="-1023" font-family="Helvetica,sans-Serif" font-size="10.00">bool TryComputeHash</text>
<text text-anchor="start" x="17" y="-1012" font-family="Helvetica,sans-Serif" font-size="10.00">(global::System.ReadOnlySpan</text>
<text text-anchor="start" x="17" y="-1001" font-family="Helvetica,sans-Serif" font-size="10.00">&lt; byte &gt; source, global::</text>
<text text-anchor="start" x="17" y="-990" font-family="Helvetica,sans-Serif" font-size="10.00">System.Span&lt; byte &gt; destination,</text>
<text text-anchor="start" x="17" y="-979" font-family="Helvetica,sans-Serif" font-size="10.00"> out int bytesWritten)</text>
<text text-anchor="start" x="4" y="-964" font-family="Helvetica,sans-Serif" font-size="10.00">+</text>
<text text-anchor="start" x="17" y="-964" font-family="Helvetica,sans-Serif" font-size="10.00">byte[] ComputeHash</text>
<text text-anchor="start" x="17" y="-953" font-family="Helvetica,sans-Serif" font-size="10.00">(byte[] buffer, int</text>
<text text-anchor="start" x="17" y="-942" font-family="Helvetica,sans-Serif" font-size="10.00"> offset, int count)</text>
<text text-anchor="start" x="4" y="-927" font-family="Helvetica,sans-Serif" font-size="10.00">+</text>
<text text-anchor="start" x="17" y="-927" font-family="Helvetica,sans-Serif" font-size="10.00">byte[] ComputeHash</text>
<text text-anchor="start" x="17" y="-916" font-family="Helvetica,sans-Serif" font-size="10.00">(global::System.IO.Stream</text>
<text text-anchor="start" x="17" y="-905" font-family="Helvetica,sans-Serif" font-size="10.00"> inputStream)</text>
<text text-anchor="start" x="4" y="-890" font-family="Helvetica,sans-Serif" font-size="10.00">+</text>
<text text-anchor="start" x="17" y="-890" font-family="Helvetica,sans-Serif" font-size="10.00">void Dispose()</text>
<text text-anchor="start" x="4" y="-875" font-family="Helvetica,sans-Serif" font-size="10.00">+</text>
<text text-anchor="start" x="17" y="-875" font-family="Helvetica,sans-Serif" font-size="10.00">void Clear()</text>
<text text-anchor="start" x="4" y="-860" font-family="Helvetica,sans-Serif" font-size="10.00">+</text>
<text text-anchor="start" x="17" y="-860" font-family="Helvetica,sans-Serif" font-size="10.00">int TransformBlock</text>
<text text-anchor="start" x="17" y="-849" font-family="Helvetica,sans-Serif" font-size="10.00">(byte[] inputBuffer,</text>
<text text-anchor="start" x="17" y="-838" font-family="Helvetica,sans-Serif" font-size="10.00"> int inputOffset, int</text>
<text text-anchor="start" x="17" y="-827" font-family="Helvetica,sans-Serif" font-size="10.00"> inputCount, byte[] outputBuffer,</text>
<text text-anchor="start" x="17" y="-816" font-family="Helvetica,sans-Serif" font-size="10.00"> int outputOffset)</text>
<text text-anchor="start" x="4" y="-801" font-family="Helvetica,sans-Serif" font-size="10.00">+</text>
<text text-anchor="start" x="17" y="-801" font-family="Helvetica,sans-Serif" font-size="10.00">byte[] TransformFinalBlock</text>
<text text-anchor="start" x="17" y="-790" font-family="Helvetica,sans-Serif" font-size="10.00">(byte[] inputBuffer, int</text>
<text text-anchor="start" x="17" y="-779" font-family="Helvetica,sans-Serif" font-size="10.00"> inputOffset, int inputCount)</text>
<text text-anchor="start" x="4" y="-764" font-family="Helvetica,sans-Serif" font-size="10.00">+</text>
<text text-anchor="start" x="17" y="-764" font-family="Helvetica,sans-Serif" font-size="10.00">void Initialize()</text>
<text text-anchor="start" x="4" y="-749" font-family="Helvetica,sans-Serif" font-size="10.00">+</text>
<text text-anchor="start" x="17" y="-749" font-family="Helvetica,sans-Serif" font-size="10.00">static HashAlgorithm</text>
<text text-anchor="start" x="17" y="-738" font-family="Helvetica,sans-Serif" font-size="10.00"> Create()</text>
<text text-anchor="start" x="4" y="-723" font-family="Helvetica,sans-Serif" font-size="10.00">+</text>
<text text-anchor="start" x="17" y="-723" font-family="Helvetica,sans-Serif" font-size="10.00">static HashAlgorithm</text>
<text text-anchor="start" x="17" y="-712" font-family="Helvetica,sans-Serif" font-size="10.00"> Create(string hashName)</text>
<text text-anchor="start" x="4" y="-697" font-family="Helvetica,sans-Serif" font-size="10.00">#</text>
<text text-anchor="start" x="17" y="-697" font-family="Helvetica,sans-Serif" font-size="10.00">HashAlgorithm()</text>
<text text-anchor="start" x="4" y="-682" font-family="Helvetica,sans-Serif" font-size="10.00">#</text>
<text text-anchor="start" x="17" y="-682" font-family="Helvetica,sans-Serif" font-size="10.00">virtual void Dispose</text>
<text text-anchor="start" x="17" y="-671" font-family="Helvetica,sans-Serif" font-size="10.00">(bool disposing)</text>
<text text-anchor="start" x="4" y="-656" font-family="Helvetica,sans-Serif" font-size="10.00">#</text>
<text text-anchor="start" x="17" y="-656" font-family="Helvetica,sans-Serif" font-size="10.00">void HashCore(byte</text>
<text text-anchor="start" x="17" y="-645" font-family="Helvetica,sans-Serif" font-size="10.00">[] array, int ibStart,</text>
<text text-anchor="start" x="17" y="-634" font-family="Helvetica,sans-Serif" font-size="10.00"> int cbSize)</text>
<text text-anchor="start" x="4" y="-619" font-family="Helvetica,sans-Serif" font-size="10.00">#</text>
<text text-anchor="start" x="17" y="-619" font-family="Helvetica,sans-Serif" font-size="10.00">byte[] HashFinal()</text>
<text text-anchor="start" x="4" y="-604" font-family="Helvetica,sans-Serif" font-size="10.00">#</text>
<text text-anchor="start" x="17" y="-604" font-family="Helvetica,sans-Serif" font-size="10.00">virtual void HashCore</text>
<text text-anchor="start" x="17" y="-593" font-family="Helvetica,sans-Serif" font-size="10.00">(global::System.ReadOnlySpan</text>
<text text-anchor="start" x="17" y="-582" font-family="Helvetica,sans-Serif" font-size="10.00">&lt; byte &gt; source)</text>
<text text-anchor="start" x="4" y="-567" font-family="Helvetica,sans-Serif" font-size="10.00">#</text>
<text text-anchor="start" x="17" y="-567" font-family="Helvetica,sans-Serif" font-size="10.00">virtual bool TryHashFinal</text>
<text text-anchor="start" x="17" y="-556" font-family="Helvetica,sans-Serif" font-size="10.00">(global::System.Span&lt; byte</text>
<text text-anchor="start" x="17" y="-545" font-family="Helvetica,sans-Serif" font-size="10.00"> &gt; destination, out int bytesWritten)</text>
<text text-anchor="start" x="6.5" y="-530" font-family="Helvetica,sans-Serif" font-size="10.00">&#45;</text>
<text text-anchor="start" x="17" y="-530" font-family="Helvetica,sans-Serif" font-size="10.00">byte[] CaptureHashCodeAnd</text>
<text text-anchor="start" x="17" y="-519" font-family="Helvetica,sans-Serif" font-size="10.00">Reinitialize()</text>
<text text-anchor="start" x="6.5" y="-504" font-family="Helvetica,sans-Serif" font-size="10.00">&#45;</text>
<text text-anchor="start" x="17" y="-504" font-family="Helvetica,sans-Serif" font-size="10.00">void ValidateTransformBlock</text>
<text text-anchor="start" x="17" y="-493" font-family="Helvetica,sans-Serif" font-size="10.00">(byte[] inputBuffer, int</text>
<text text-anchor="start" x="17" y="-482" font-family="Helvetica,sans-Serif" font-size="10.00"> inputOffset, int inputCount)</text>
<polygon fill="#666666" stroke="#666666" points="0,-1220 0,-1220 198,-1220 198,-1220 0,-1220"/>
<polygon fill="#666666" stroke="#666666" points="0,-1059 0,-1059 15,-1059 15,-1059 0,-1059"/>
<polygon fill="#666666" stroke="#666666" points="15,-1059 15,-1059 198,-1059 198,-1059 15,-1059"/>
<polygon fill="none" stroke="#666666" points="0,-475 0,-1237 198,-1237 198,-475 0,-475"/>
</a>
</g>
</g>
<!-- Node3&#45;&gt;Node2 -->
<g id="edge2_Node000002_Node000003" class="edge">
<title>Node3&#45;&gt;Node2</title>
<g id="a_edge2_Node000002_Node000003"><a xlink:title=" ">
<path fill="none" stroke="#63b8ff" d="M99,-464.61C99,-455.41 99,-446.89 99,-439.19"/>
<polygon fill="none" stroke="#63b8ff" points="95.5,-464.86 99,-474.86 102.5,-464.86 95.5,-464.86"/>
</a>
</g>
</g>
<!-- Node4 -->
<g id="Node000004" class="node">
<title>Node4</title>
<g id="a_Node000004"><a xlink:title=" ">
<polygon fill="white" stroke="transparent" points="169,-1544 29,-1544 29,-1495 169,-1495 169,-1544"/>
<text text-anchor="start" x="34" y="-1531.5" font-family="Helvetica,sans-Serif" font-size="10.00">global::SystemIDisposable</text>
<text text-anchor="start" x="97" y="-1516.5" font-family="Helvetica,sans-Serif" font-size="10.00"> </text>
<text text-anchor="start" x="97" y="-1501.5" font-family="Helvetica,sans-Serif" font-size="10.00"> </text>
<polygon fill="#666666" stroke="#666666" points="29,-1526.5 29,-1526.5 169,-1526.5 169,-1526.5 29,-1526.5"/>
<polygon fill="#666666" stroke="#666666" points="29,-1511.5 29,-1511.5 169,-1511.5 169,-1511.5 29,-1511.5"/>
<polygon fill="none" stroke="#666666" points="29,-1495 29,-1544 169,-1544 169,-1495 29,-1495"/>
</a>
</g>
</g>
<!-- Node4&#45;&gt;Node3 -->
<g id="edge3_Node000003_Node000004" class="edge">
<title>Node4&#45;&gt;Node3</title>
<g id="a_edge3_Node000003_Node000004"><a xlink:title=" ">
<path fill="none" stroke="#63b8ff" d="M72.43,-1486.36C66.92,-1477.94 61.91,-1468.54 59,-1459 37.58,-1388.74 30.89,-1311.8 32.48,-1237.12"/>
<polygon fill="none" stroke="#63b8ff" points="69.68,-1488.54 78.28,-1494.73 75.42,-1484.53 69.68,-1488.54"/>
</a>
</g>
</g>
<!-- Node5 -->
<g id="Node000005" class="node">
<title>Node5</title>
<g id="a_Node000005"><a xlink:href="../../d3/dac/interfaceSystem_1_1Security_1_1Cryptography_1_1ICryptoTransform.html" target="_top" xlink:title=" ">
<polygon fill="white" stroke="transparent" points="248,-1459 68,-1459 68,-1273 248,-1273 248,-1459"/>
<text text-anchor="start" x="115.5" y="-1447" font-family="Helvetica,sans-Serif" font-size="10.00">ICryptoTransform</text>
<text text-anchor="start" x="72" y="-1432" font-family="Helvetica,sans-Serif" font-size="10.00">+</text>
<text text-anchor="start" x="85" y="-1432" font-family="Helvetica,sans-Serif" font-size="10.00">int InputBlockSize</text>
<text text-anchor="start" x="72" y="-1417" font-family="Helvetica,sans-Serif" font-size="10.00">+</text>
<text text-anchor="start" x="85" y="-1417" font-family="Helvetica,sans-Serif" font-size="10.00">int OutputBlockSize</text>
<text text-anchor="start" x="72" y="-1402" font-family="Helvetica,sans-Serif" font-size="10.00">+</text>
<text text-anchor="start" x="85" y="-1402" font-family="Helvetica,sans-Serif" font-size="10.00">bool CanTransformMultiple</text>
<text text-anchor="start" x="85" y="-1391" font-family="Helvetica,sans-Serif" font-size="10.00">Blocks</text>
<text text-anchor="start" x="72" y="-1376" font-family="Helvetica,sans-Serif" font-size="10.00">+</text>
<text text-anchor="start" x="85" y="-1376" font-family="Helvetica,sans-Serif" font-size="10.00">bool CanReuseTransform</text>
<text text-anchor="start" x="72" y="-1361" font-family="Helvetica,sans-Serif" font-size="10.00">+</text>
<text text-anchor="start" x="85" y="-1361" font-family="Helvetica,sans-Serif" font-size="10.00">int TransformBlock</text>
<text text-anchor="start" x="85" y="-1350" font-family="Helvetica,sans-Serif" font-size="10.00">(byte[] inputBuffer,</text>
<text text-anchor="start" x="85" y="-1339" font-family="Helvetica,sans-Serif" font-size="10.00"> int inputOffset, int</text>
<text text-anchor="start" x="85" y="-1328" font-family="Helvetica,sans-Serif" font-size="10.00"> inputCount, byte[] outputBuffer,</text>
<text text-anchor="start" x="85" y="-1317" font-family="Helvetica,sans-Serif" font-size="10.00"> int outputOffset)</text>
<text text-anchor="start" x="72" y="-1302" font-family="Helvetica,sans-Serif" font-size="10.00">+</text>
<text text-anchor="start" x="85" y="-1302" font-family="Helvetica,sans-Serif" font-size="10.00">byte[] TransformFinalBlock</text>
<text text-anchor="start" x="85" y="-1291" font-family="Helvetica,sans-Serif" font-size="10.00">(byte[] inputBuffer, int</text>
<text text-anchor="start" x="85" y="-1280" font-family="Helvetica,sans-Serif" font-size="10.00"> inputOffset, int inputCount)</text>
<polygon fill="#666666" stroke="#666666" points="68,-1442 68,-1442 248,-1442 248,-1442 68,-1442"/>
<polygon fill="#666666" stroke="#666666" points="68,-1371 68,-1371 83,-1371 83,-1371 68,-1371"/>
<polygon fill="#666666" stroke="#666666" points="83,-1371 83,-1371 248,-1371 248,-1371 83,-1371"/>
<polygon fill="none" stroke="#666666" points="68,-1273 68,-1459 248,-1459 248,-1273 68,-1273"/>
</a>
</g>
</g>
<!-- Node4&#45;&gt;Node5 -->
<g id="edge5_Node000005_Node000004" class="edge">
<title>Node4&#45;&gt;Node5</title>
<g id="a_edge5_Node000005_Node000004"><a xlink:title=" ">
<path fill="none" stroke="#63b8ff" d="M111.94,-1485.27C115.04,-1477.31 118.51,-1468.41 122.11,-1459.17"/>
<polygon fill="none" stroke="#63b8ff" points="108.59,-1484.24 108.22,-1494.83 115.11,-1486.78 108.59,-1484.24"/>
</a>
</g>
</g>
<!-- Node5&#45;&gt;Node3 -->
<g id="edge4_Node000003_Node000005" class="edge">
<title>Node5&#45;&gt;Node3</title>
<g id="a_edge4_Node000003_Node000005"><a xlink:title=" ">
<path fill="none" stroke="#63b8ff" d="M146.11,-1262.59C145.16,-1254.46 144.18,-1246 143.17,-1237.28"/>
<polygon fill="none" stroke="#63b8ff" points="142.65,-1263.18 147.28,-1272.71 149.6,-1262.37 142.65,-1263.18"/>
</a>
</g>
</g>
</g>
</svg>
