<?xml version="1.0" encoding="UTF-8" standalone="no"?>
<!DOCTYPE svg PUBLIC "-//W3C//DTD SVG 1.1//EN"
 "http://www.w3.org/Graphics/SVG/1.1/DTD/svg11.dtd">
<!-- Generated by graphviz version 2.43.0 (0)
 -->
<!-- Title: System.ComponentModel.WeakHashtable.EqualityWeakReference Pages: 1 -->
<svg width="309pt" height="828pt"
 viewBox="0.00 0.00 309.00 828.00" xmlns="http://www.w3.org/2000/svg" xmlns:xlink="http://www.w3.org/1999/xlink">
<g id="graph0" class="graph" transform="scale(1 1) rotate(0) translate(4 824)">
<title>System.ComponentModel.WeakHashtable.EqualityWeakReference</title>
<!-- Node1 -->
<g id="Node000001" class="node">
<title>Node1</title>
<g id="a_Node000001"><a xlink:title=" ">
<polygon fill="#999999" stroke="transparent" points="240,-112 61,-112 61,0 240,0 240,-112"/>
<text text-anchor="start" x="66.5" y="-100" font-family="Helvetica,sans-Serif" font-size="10.00">System.ComponentModel.Weak</text>
<text text-anchor="start" x="66.5" y="-89" font-family="Helvetica,sans-Serif" font-size="10.00">Hashtable.EqualityWeakReference</text>
<text text-anchor="start" x="74" y="-74" font-family="Helvetica,sans-Serif" font-size="10.00">&#45;</text>
<text text-anchor="start" x="90.5" y="-74" font-family="Helvetica,sans-Serif" font-size="10.00">int _hashCode</text>
<text text-anchor="start" x="71.5" y="-59" font-family="Helvetica,sans-Serif" font-size="10.00">+</text>
<text text-anchor="start" x="90.5" y="-59" font-family="Helvetica,sans-Serif" font-size="10.00">override bool Equals</text>
<text text-anchor="start" x="90.5" y="-48" font-family="Helvetica,sans-Serif" font-size="10.00">(object o)</text>
<text text-anchor="start" x="71.5" y="-33" font-family="Helvetica,sans-Serif" font-size="10.00">+</text>
<text text-anchor="start" x="90.5" y="-33" font-family="Helvetica,sans-Serif" font-size="10.00">override int GetHashCode()</text>
<text text-anchor="start" x="71.5" y="-18" font-family="Helvetica,sans-Serif" font-size="10.00">~</text>
<text text-anchor="start" x="90.5" y="-18" font-family="Helvetica,sans-Serif" font-size="10.00">EqualityWeakReference</text>
<text text-anchor="start" x="90.5" y="-7" font-family="Helvetica,sans-Serif" font-size="10.00">(object o)</text>
<polygon fill="#666666" stroke="#666666" points="61.5,-84 61.5,-84 240.5,-84 240.5,-84 61.5,-84"/>
<polygon fill="#666666" stroke="#666666" points="61.5,-69 61.5,-69 88.5,-69 88.5,-69 61.5,-69"/>
<polygon fill="#666666" stroke="#666666" points="88.5,-69 88.5,-69 240.5,-69 240.5,-69 88.5,-69"/>
<polygon fill="none" stroke="#666666" points="61,0 61,-112 240,-112 240,0 61,0"/>
</a>
</g>
</g>
<!-- Node2 -->
<g id="Node000002" class="node">
<title>Node2</title>
<g id="a_Node000002"><a xlink:href="../../d1/d3a/classSystem_1_1WeakReference.html" target="_top" xlink:title=" ">
<polygon fill="white" stroke="transparent" points="301,-724 0,-724 0,-148 301,-148 301,-724"/>
<text text-anchor="start" x="112.5" y="-712" font-family="Helvetica,sans-Serif" font-size="10.00">WeakReference</text>
<text text-anchor="start" x="4.5" y="-697" font-family="Helvetica,sans-Serif" font-size="10.00">+</text>
<text text-anchor="start" x="17.5" y="-697" font-family="Helvetica,sans-Serif" font-size="10.00">virtual bool IsAlive</text>
<text text-anchor="start" x="4.5" y="-682" font-family="Helvetica,sans-Serif" font-size="10.00">+</text>
<text text-anchor="start" x="17.5" y="-682" font-family="Helvetica,sans-Serif" font-size="10.00">virtual object Target</text>
<text text-anchor="start" x="4.5" y="-667" font-family="Helvetica,sans-Serif" font-size="10.00">+</text>
<text text-anchor="start" x="17.5" y="-667" font-family="Helvetica,sans-Serif" font-size="10.00">virtual bool TrackResurrection</text>
<text text-anchor="start" x="7" y="-652" font-family="Helvetica,sans-Serif" font-size="10.00">&#45;</text>
<text text-anchor="start" x="17.5" y="-652" font-family="Helvetica,sans-Serif" font-size="10.00">global::System.Runtime.Interop</text>
<text text-anchor="start" x="17.5" y="-641" font-family="Helvetica,sans-Serif" font-size="10.00">Services.GCHandle handle</text>
<text text-anchor="start" x="7" y="-626" font-family="Helvetica,sans-Serif" font-size="10.00">&#45;</text>
<text text-anchor="start" x="17.5" y="-626" font-family="Helvetica,sans-Serif" font-size="10.00">bool trackResurrection</text>
<text text-anchor="start" x="7" y="-611" font-family="Helvetica,sans-Serif" font-size="10.00">&#45;</text>
<text text-anchor="start" x="17.5" y="-611" font-family="Helvetica,sans-Serif" font-size="10.00">bool isLongReference</text>
<text text-anchor="start" x="7" y="-596" font-family="Helvetica,sans-Serif" font-size="10.00">&#45;</text>
<text text-anchor="start" x="17.5" y="-596" font-family="Helvetica,sans-Serif" font-size="10.00">global::System.Runtime.Interop</text>
<text text-anchor="start" x="17.5" y="-585" font-family="Helvetica,sans-Serif" font-size="10.00">Services.GCHandle gcHandle</text>
<text text-anchor="start" x="4.5" y="-570" font-family="Helvetica,sans-Serif" font-size="10.00">+</text>
<text text-anchor="start" x="17.5" y="-570" font-family="Helvetica,sans-Serif" font-size="10.00">WeakReference(T target)</text>
<text text-anchor="start" x="4.5" y="-555" font-family="Helvetica,sans-Serif" font-size="10.00">+</text>
<text text-anchor="start" x="17.5" y="-555" font-family="Helvetica,sans-Serif" font-size="10.00">WeakReference(T target,</text>
<text text-anchor="start" x="17.5" y="-544" font-family="Helvetica,sans-Serif" font-size="10.00"> bool trackResurrection)</text>
<text text-anchor="start" x="4.5" y="-529" font-family="Helvetica,sans-Serif" font-size="10.00">+</text>
<text text-anchor="start" x="17.5" y="-529" font-family="Helvetica,sans-Serif" font-size="10.00">void GetObjectData</text>
<text text-anchor="start" x="17.5" y="-518" font-family="Helvetica,sans-Serif" font-size="10.00">(global::System.Runtime.Serialization.</text>
<text text-anchor="start" x="17.5" y="-507" font-family="Helvetica,sans-Serif" font-size="10.00">SerializationInfo info, global</text>
<text text-anchor="start" x="17.5" y="-496" font-family="Helvetica,sans-Serif" font-size="10.00">::System.Runtime.Serialization.Streaming</text>
<text text-anchor="start" x="17.5" y="-485" font-family="Helvetica,sans-Serif" font-size="10.00">Context context)</text>
<text text-anchor="start" x="4.5" y="-470" font-family="Helvetica,sans-Serif" font-size="10.00">+</text>
<text text-anchor="start" x="17.5" y="-470" font-family="Helvetica,sans-Serif" font-size="10.00">void SetTarget(T target)</text>
<text text-anchor="start" x="4.5" y="-455" font-family="Helvetica,sans-Serif" font-size="10.00">+</text>
<text text-anchor="start" x="17.5" y="-455" font-family="Helvetica,sans-Serif" font-size="10.00">bool TryGetTarget(out</text>
<text text-anchor="start" x="17.5" y="-444" font-family="Helvetica,sans-Serif" font-size="10.00"> T target)</text>
<text text-anchor="start" x="4.5" y="-429" font-family="Helvetica,sans-Serif" font-size="10.00">+</text>
<text text-anchor="start" x="17.5" y="-429" font-family="Helvetica,sans-Serif" font-size="10.00">WeakReference(object</text>
<text text-anchor="start" x="17.5" y="-418" font-family="Helvetica,sans-Serif" font-size="10.00"> target)</text>
<text text-anchor="start" x="4.5" y="-403" font-family="Helvetica,sans-Serif" font-size="10.00">+</text>
<text text-anchor="start" x="17.5" y="-403" font-family="Helvetica,sans-Serif" font-size="10.00">WeakReference(object</text>
<text text-anchor="start" x="17.5" y="-392" font-family="Helvetica,sans-Serif" font-size="10.00"> target, bool trackResurrection)</text>
<text text-anchor="start" x="4.5" y="-377" font-family="Helvetica,sans-Serif" font-size="10.00">+</text>
<text text-anchor="start" x="17.5" y="-377" font-family="Helvetica,sans-Serif" font-size="10.00">virtual void GetObjectData</text>
<text text-anchor="start" x="17.5" y="-366" font-family="Helvetica,sans-Serif" font-size="10.00">(global::System.Runtime.Serialization.</text>
<text text-anchor="start" x="17.5" y="-355" font-family="Helvetica,sans-Serif" font-size="10.00">SerializationInfo info, global::</text>
<text text-anchor="start" x="17.5" y="-344" font-family="Helvetica,sans-Serif" font-size="10.00">System.Runtime.Serialization.StreamingContext context)</text>
<text text-anchor="start" x="4.5" y="-329" font-family="Helvetica,sans-Serif" font-size="10.00">#</text>
<text text-anchor="start" x="17.5" y="-329" font-family="Helvetica,sans-Serif" font-size="10.00">override void Finalize()</text>
<text text-anchor="start" x="4.5" y="-314" font-family="Helvetica,sans-Serif" font-size="10.00">#</text>
<text text-anchor="start" x="17.5" y="-314" font-family="Helvetica,sans-Serif" font-size="10.00">WeakReference()</text>
<text text-anchor="start" x="4.5" y="-299" font-family="Helvetica,sans-Serif" font-size="10.00">#</text>
<text text-anchor="start" x="17.5" y="-299" font-family="Helvetica,sans-Serif" font-size="10.00">WeakReference(global</text>
<text text-anchor="start" x="17.5" y="-288" font-family="Helvetica,sans-Serif" font-size="10.00">::System.Runtime.Serialization.</text>
<text text-anchor="start" x="17.5" y="-277" font-family="Helvetica,sans-Serif" font-size="10.00">SerializationInfo info, global</text>
<text text-anchor="start" x="17.5" y="-266" font-family="Helvetica,sans-Serif" font-size="10.00">::System.Runtime.Serialization.Streaming</text>
<text text-anchor="start" x="17.5" y="-255" font-family="Helvetica,sans-Serif" font-size="10.00">Context context)</text>
<text text-anchor="start" x="4.5" y="-240" font-family="Helvetica,sans-Serif" font-size="10.00">#</text>
<text text-anchor="start" x="17.5" y="-240" font-family="Helvetica,sans-Serif" font-size="10.00">override void Finalize()</text>
<text text-anchor="start" x="7" y="-225" font-family="Helvetica,sans-Serif" font-size="10.00">&#45;</text>
<text text-anchor="start" x="17.5" y="-225" font-family="Helvetica,sans-Serif" font-size="10.00">WeakReference(global</text>
<text text-anchor="start" x="17.5" y="-214" font-family="Helvetica,sans-Serif" font-size="10.00">::System.Runtime.Serialization.</text>
<text text-anchor="start" x="17.5" y="-203" font-family="Helvetica,sans-Serif" font-size="10.00">SerializationInfo info, global</text>
<text text-anchor="start" x="17.5" y="-192" font-family="Helvetica,sans-Serif" font-size="10.00">::System.Runtime.Serialization.Streaming</text>
<text text-anchor="start" x="17.5" y="-181" font-family="Helvetica,sans-Serif" font-size="10.00">Context context)</text>
<text text-anchor="start" x="7" y="-166" font-family="Helvetica,sans-Serif" font-size="10.00">&#45;</text>
<text text-anchor="start" x="17.5" y="-166" font-family="Helvetica,sans-Serif" font-size="10.00">void AllocateHandle</text>
<text text-anchor="start" x="17.5" y="-155" font-family="Helvetica,sans-Serif" font-size="10.00">(object target)</text>
<polygon fill="#666666" stroke="#666666" points="0.5,-707 0.5,-707 301.5,-707 301.5,-707 0.5,-707"/>
<polygon fill="#666666" stroke="#666666" points="0.5,-580 0.5,-580 15.5,-580 15.5,-580 0.5,-580"/>
<polygon fill="#666666" stroke="#666666" points="15.5,-580 15.5,-580 301.5,-580 301.5,-580 15.5,-580"/>
<polygon fill="none" stroke="#666666" points="0,-148 0,-724 301,-724 301,-148 0,-148"/>
</a>
</g>
</g>
<!-- Node2&#45;&gt;Node1 -->
<g id="edge1_Node000001_Node000002" class="edge">
<title>Node2&#45;&gt;Node1</title>
<g id="a_edge1_Node000001_Node000002"><a xlink:title=" ">
<path fill="none" stroke="#63b8ff" d="M150.5,-137.27C150.5,-128.36 150.5,-119.93 150.5,-112.13"/>
<polygon fill="none" stroke="#63b8ff" points="147,-137.54 150.5,-147.54 154,-137.54 147,-137.54"/>
</a>
</g>
</g>
<!-- Node3 -->
<g id="Node000003" class="node">
<title>Node3</title>
<g id="a_Node000003"><a xlink:title=" ">
<polygon fill="white" stroke="transparent" points="222,-820 79,-820 79,-760 222,-760 222,-820"/>
<text text-anchor="start" x="84.5" y="-808" font-family="Helvetica,sans-Serif" font-size="10.00">global::SystemRuntime</text>
<text text-anchor="start" x="84.5" y="-797" font-family="Helvetica,sans-Serif" font-size="10.00">::Serialization::ISerializable</text>
<text text-anchor="start" x="149" y="-782" font-family="Helvetica,sans-Serif" font-size="10.00"> </text>
<text text-anchor="start" x="149" y="-767" font-family="Helvetica,sans-Serif" font-size="10.00"> </text>
<polygon fill="#666666" stroke="#666666" points="79.5,-792 79.5,-792 222.5,-792 222.5,-792 79.5,-792"/>
<polygon fill="#666666" stroke="#666666" points="79.5,-777 79.5,-777 222.5,-777 222.5,-777 79.5,-777"/>
<polygon fill="none" stroke="#666666" points="79,-760 79,-820 222,-820 222,-760 79,-760"/>
</a>
</g>
</g>
<!-- Node3&#45;&gt;Node2 -->
<g id="edge2_Node000002_Node000003" class="edge">
<title>Node3&#45;&gt;Node2</title>
<g id="a_edge2_Node000002_Node000003"><a xlink:title=" ">
<path fill="none" stroke="#63b8ff" d="M146.05,-749.68C145.71,-742.01 145.4,-733.45 145.13,-724.19"/>
<polygon fill="none" stroke="#63b8ff" points="142.57,-750.08 146.57,-759.89 149.56,-749.73 142.57,-750.08"/>
</a>
</g>
</g>
<!-- Node3&#45;&gt;Node2 -->
<g id="edge3_Node000002_Node000003" class="edge">
<title>Node3&#45;&gt;Node2</title>
<g id="a_edge3_Node000002_Node000003"><a xlink:title=" ">
<path fill="none" stroke="#63b8ff" d="M154.95,-749.68C155.29,-742.01 155.6,-733.45 155.87,-724.19"/>
<polygon fill="none" stroke="#63b8ff" points="151.44,-749.73 154.43,-759.89 158.43,-750.08 151.44,-749.73"/>
</a>
</g>
</g>
</g>
</svg>
