<?xml version="1.0" encoding="UTF-8" standalone="no"?>
<!DOCTYPE svg PUBLIC "-//W3C//DTD SVG 1.1//EN"
 "http://www.w3.org/Graphics/SVG/1.1/DTD/svg11.dtd">
<!-- Generated by graphviz version 2.43.0 (0)
 -->
<!-- Title: System.Net.PathList.PathListComparer Pages: 1 -->
<svg width="195pt" height="216pt"
 viewBox="0.00 0.00 195.00 216.00" xmlns="http://www.w3.org/2000/svg" xmlns:xlink="http://www.w3.org/1999/xlink">
<g id="graph0" class="graph" transform="scale(1 1) rotate(0) translate(4 212)">
<title>System.Net.PathList.PathListComparer</title>
<!-- Node1 -->
<g id="Node000001" class="node">
<title>Node1</title>
<g id="a_Node000001"><a xlink:title=" ">
<polygon fill="#999999" stroke="transparent" points="187,-112 0,-112 0,0 187,0 187,-112"/>
<text text-anchor="start" x="32.5" y="-100" font-family="Helvetica,sans-Serif" font-size="10.00">System.Net.PathList.Path</text>
<text text-anchor="start" x="61" y="-89" font-family="Helvetica,sans-Serif" font-size="10.00">ListComparer</text>
<text text-anchor="start" x="4.5" y="-74" font-family="Helvetica,sans-Serif" font-size="10.00">~</text>
<text text-anchor="start" x="17.5" y="-74" font-family="Helvetica,sans-Serif" font-size="10.00">static readonly PathList.</text>
<text text-anchor="start" x="17.5" y="-63" font-family="Helvetica,sans-Serif" font-size="10.00">PathListComparer StaticInstance</text>
<text text-anchor="start" x="4.5" y="-48" font-family="Helvetica,sans-Serif" font-size="10.00">+</text>
<text text-anchor="start" x="17.5" y="-48" font-family="Helvetica,sans-Serif" font-size="10.00">PathListComparer()</text>
<text text-anchor="start" x="7" y="-33" font-family="Helvetica,sans-Serif" font-size="10.00">&#45;</text>
<text text-anchor="start" x="17.5" y="-33" font-family="Helvetica,sans-Serif" font-size="10.00">int System.Collections.IComparer.</text>
<text text-anchor="start" x="17.5" y="-22" font-family="Helvetica,sans-Serif" font-size="10.00"> Compare(object ol, object or)</text>
<text text-anchor="start" x="7" y="-7" font-family="Helvetica,sans-Serif" font-size="10.00">&#45;</text>
<text text-anchor="start" x="17.5" y="-7" font-family="Helvetica,sans-Serif" font-size="10.00">static PathListComparer()</text>
<polygon fill="#666666" stroke="#666666" points="0.5,-84 0.5,-84 187.5,-84 187.5,-84 0.5,-84"/>
<polygon fill="#666666" stroke="#666666" points="0.5,-58 0.5,-58 15.5,-58 15.5,-58 0.5,-58"/>
<polygon fill="#666666" stroke="#666666" points="15.5,-58 15.5,-58 187.5,-58 187.5,-58 15.5,-58"/>
<polygon fill="none" stroke="#666666" points="0,0 0,-112 187,-112 187,0 0,0"/>
</a>
</g>
</g>
<!-- Node2 -->
<g id="Node000002" class="node">
<title>Node2</title>
<g id="a_Node000002"><a xlink:href="../../da/dff/interfaceSystem_1_1Collections_1_1IComparer.html" target="_top" xlink:title=" ">
<polygon fill="white" stroke="transparent" points="151,-208 36,-208 36,-148 151,-148 151,-208"/>
<text text-anchor="start" x="68" y="-196" font-family="Helvetica,sans-Serif" font-size="10.00">IComparer</text>
<text text-anchor="start" x="92" y="-181" font-family="Helvetica,sans-Serif" font-size="10.00"> </text>
<text text-anchor="start" x="40.5" y="-166" font-family="Helvetica,sans-Serif" font-size="10.00">+</text>
<text text-anchor="start" x="53.5" y="-166" font-family="Helvetica,sans-Serif" font-size="10.00">int Compare(object</text>
<text text-anchor="start" x="53.5" y="-155" font-family="Helvetica,sans-Serif" font-size="10.00"> x, object y)</text>
<polygon fill="#666666" stroke="#666666" points="36.5,-191 36.5,-191 151.5,-191 151.5,-191 36.5,-191"/>
<polygon fill="#666666" stroke="#666666" points="36.5,-176 36.5,-176 151.5,-176 151.5,-176 36.5,-176"/>
<polygon fill="none" stroke="#666666" points="36,-148 36,-208 151,-208 151,-148 36,-148"/>
</a>
</g>
</g>
<!-- Node2&#45;&gt;Node1 -->
<g id="edge1_Node000001_Node000002" class="edge">
<title>Node2&#45;&gt;Node1</title>
<g id="a_edge1_Node000001_Node000002"><a xlink:title=" ">
<path fill="none" stroke="#63b8ff" d="M93.5,-137.88C93.5,-129.63 93.5,-120.78 93.5,-112.07"/>
<polygon fill="none" stroke="#63b8ff" points="90,-137.95 93.5,-147.95 97,-137.95 90,-137.95"/>
</a>
</g>
</g>
</g>
</svg>
