<?xml version="1.0" encoding="UTF-8" standalone="no"?>
<!DOCTYPE svg PUBLIC "-//W3C//DTD SVG 1.1//EN"
 "http://www.w3.org/Graphics/SVG/1.1/DTD/svg11.dtd">
<!-- Generated by graphviz version 2.43.0 (0)
 -->
<!-- Title: DrKeyboard_Base Pages: 1 -->
<!--zoomable 606 -->

<svg id="main" version="1.1" xmlns="http://www.w3.org/2000/svg" xmlns:xlink="http://www.w3.org/1999/xlink" xml:space="preserve" onload="init(evt)">
<style type="text/css"><![CDATA[
.node, .edge {opacity: 0.7;}
.node.selected, .edge.selected {opacity: 1;}
.edge:hover path { stroke: red; }
.edge:hover polygon { stroke: red; fill: red; }
]]></style>

<defs>
  <circle id="rim" cx="0" cy="0" r="7"/>
  <circle id="rim2" cx="0" cy="0" r="3.5"/>
  <g id="zoomPlus">
    <use xlink:href="#rim" fill="#404040"><set attributeName="fill" to="#808080" begin="zoomplus.mouseover" end="zoomplus.mouseout"/></use>
    <path d="M-4,0h8M0,-4v8" fill="none" stroke="white" stroke-width="1.5" pointer-events="none"/>
  </g>
  <g id="zoomMin">
    <use xlink:href="#rim" fill="#404040"><set attributeName="fill" to="#808080" begin="zoomminus.mouseover" end="zoomminus.mouseout"/></use>
    <path d="M-4,0h8" fill="none" stroke="white" stroke-width="1.5" pointer-events="none"/>
  </g>
  <g id="arrowUp" transform="translate(30 24)">
    <use xlink:href="#rim"/>
    <path pointer-events="none" fill="none" stroke="white" stroke-width="1.5" d="M0,-3.0v7 M-2.5,-0.5L0,-3.0L2.5,-0.5"/>
  </g>
  <g id="arrowRight" transform="rotate(90) translate(36 -43)">
    <use xlink:href="#rim"/>
    <path pointer-events="none" fill="none" stroke="white" stroke-width="1.5" d="M0,-3.0v7 M-2.5,-0.5L0,-3.0L2.5,-0.5"/>
  </g>
  <g id="arrowDown" transform="rotate(180) translate(-30 -48)">
    <use xlink:href="#rim"/>
    <path pointer-events="none" fill="none" stroke="white" stroke-width="1.5" d="M0,-3.0v7 M-2.5,-0.5L0,-3.0L2.5,-0.5"/>
  </g>
  <g id="arrowLeft" transform="rotate(270) translate(-36 17)">
    <use xlink:href="#rim"/>
    <path pointer-events="none" fill="none" stroke="white" stroke-width="1.5" d="M0,-3.0v7 M-2.5,-0.5L0,-3.0L2.5,-0.5"/>
  </g>
  <g id="resetDef">
    <use xlink:href="#rim2" fill="#404040"><set attributeName="fill" to="#808080" begin="reset.mouseover" end="reset.mouseout"/></use>
  </g>
</defs>
<script type="application/ecmascript">
var viewWidth = 735;
var viewHeight = 606;
var sectionId = 'dynsection-0';
</script>
<script type="application/ecmascript" xlink:href="../../svg.min.js"/>
<svg id="graph" class="graph">
<g id="viewport">
<title>DrKeyboard_Base</title>
<!-- Node1 -->
<g id="Node000001" class="node">
<title>Node1</title>
<g id="a_Node000001"><a xlink:title=" ">
<polygon fill="#999999" stroke="transparent" points="357.5,-598 152.5,-598 152.5,-404 357.5,-404 357.5,-598"/>
<text text-anchor="start" x="212" y="-586" font-family="Helvetica,sans-Serif" font-size="10.00">DrKeyboard_Base</text>
<text text-anchor="start" x="157" y="-571" font-family="Helvetica,sans-Serif" font-size="10.00">+</text>
<text text-anchor="start" x="170" y="-571" font-family="Helvetica,sans-Serif" font-size="10.00">static bool isSupported</text>
<text text-anchor="start" x="157" y="-556" font-family="Helvetica,sans-Serif" font-size="10.00">+</text>
<text text-anchor="start" x="170" y="-556" font-family="Helvetica,sans-Serif" font-size="10.00">bool active</text>
<text text-anchor="start" x="157" y="-541" font-family="Helvetica,sans-Serif" font-size="10.00">+</text>
<text text-anchor="start" x="170" y="-541" font-family="Helvetica,sans-Serif" font-size="10.00">bool wasCanceled</text>
<text text-anchor="start" x="157" y="-526" font-family="Helvetica,sans-Serif" font-size="10.00">+</text>
<text text-anchor="start" x="170" y="-526" font-family="Helvetica,sans-Serif" font-size="10.00">bool done</text>
<text text-anchor="start" x="157" y="-511" font-family="Helvetica,sans-Serif" font-size="10.00">+</text>
<text text-anchor="start" x="170" y="-511" font-family="Helvetica,sans-Serif" font-size="10.00">string text</text>
<text text-anchor="start" x="157" y="-496" font-family="Helvetica,sans-Serif" font-size="10.00">+</text>
<text text-anchor="start" x="170" y="-496" font-family="Helvetica,sans-Serif" font-size="10.00">virtual void Update()</text>
<text text-anchor="start" x="157" y="-481" font-family="Helvetica,sans-Serif" font-size="10.00">+</text>
<text text-anchor="start" x="170" y="-481" font-family="Helvetica,sans-Serif" font-size="10.00">static DrKeyboard_Base</text>
<text text-anchor="start" x="170" y="-470" font-family="Helvetica,sans-Serif" font-size="10.00"> Create(TouchScreenKeyboardType</text>
<text text-anchor="start" x="170" y="-459" font-family="Helvetica,sans-Serif" font-size="10.00"> type, string initialText, int</text>
<text text-anchor="start" x="170" y="-448" font-family="Helvetica,sans-Serif" font-size="10.00"> maxChars, string title, string</text>
<text text-anchor="start" x="170" y="-437" font-family="Helvetica,sans-Serif" font-size="10.00"> prompt, bool password=false, bool</text>
<text text-anchor="start" x="170" y="-426" font-family="Helvetica,sans-Serif" font-size="10.00"> multiline=false, bool filterText=true)</text>
<text text-anchor="start" x="157" y="-411" font-family="Helvetica,sans-Serif" font-size="10.00">#</text>
<text text-anchor="start" x="170" y="-411" font-family="Helvetica,sans-Serif" font-size="10.00">DrKeyboard_Base()</text>
<polygon fill="#666666" stroke="#666666" points="153,-581 153,-581 358,-581 358,-581 153,-581"/>
<polygon fill="#666666" stroke="#666666" points="153,-506 153,-506 168,-506 168,-506 153,-506"/>
<polygon fill="#666666" stroke="#666666" points="168,-506 168,-506 358,-506 358,-506 168,-506"/>
<polygon fill="none" stroke="#666666" points="152.5,-404 152.5,-598 357.5,-598 357.5,-404 152.5,-404"/>
</a>
</g>
</g>
<!-- Node2 -->
<g id="Node000002" class="node">
<title>Node2</title>
<g id="a_Node000002"><a xlink:href="../../dd/d0b/classDrKeyboard__IME.html" target="_top" xlink:title=" ">
<polygon fill="white" stroke="transparent" points="225,-368 71,-368 71,-151 225,-151 225,-368"/>
<text text-anchor="start" x="107.5" y="-355.5" font-family="Helvetica,sans-Serif" font-size="10.00">DrKeyboard_IME</text>
<text text-anchor="start" x="75" y="-340.5" font-family="Helvetica,sans-Serif" font-size="10.00">+</text>
<text text-anchor="start" x="88" y="-340.5" font-family="Helvetica,sans-Serif" font-size="10.00">override bool active</text>
<text text-anchor="start" x="75" y="-325.5" font-family="Helvetica,sans-Serif" font-size="10.00">+</text>
<text text-anchor="start" x="88" y="-325.5" font-family="Helvetica,sans-Serif" font-size="10.00">override bool done</text>
<text text-anchor="start" x="75" y="-310.5" font-family="Helvetica,sans-Serif" font-size="10.00">+</text>
<text text-anchor="start" x="88" y="-310.5" font-family="Helvetica,sans-Serif" font-size="10.00">override string text</text>
<text text-anchor="start" x="75" y="-295.5" font-family="Helvetica,sans-Serif" font-size="10.00">+</text>
<text text-anchor="start" x="88" y="-295.5" font-family="Helvetica,sans-Serif" font-size="10.00">override bool wasCanceled</text>
<text text-anchor="start" x="77.5" y="-280.5" font-family="Helvetica,sans-Serif" font-size="10.00">&#45;</text>
<text text-anchor="start" x="88" y="-280.5" font-family="Helvetica,sans-Serif" font-size="10.00">int _lastFrame</text>
<text text-anchor="start" x="77.5" y="-265.5" font-family="Helvetica,sans-Serif" font-size="10.00">&#45;</text>
<text text-anchor="start" x="88" y="-265.5" font-family="Helvetica,sans-Serif" font-size="10.00">string _lastIME</text>
<text text-anchor="start" x="77.5" y="-250.5" font-family="Helvetica,sans-Serif" font-size="10.00">&#45;</text>
<text text-anchor="start" x="88" y="-250.5" font-family="Helvetica,sans-Serif" font-size="10.00">string _text</text>
<text text-anchor="start" x="77.5" y="-235.5" font-family="Helvetica,sans-Serif" font-size="10.00">&#45;</text>
<text text-anchor="start" x="88" y="-235.5" font-family="Helvetica,sans-Serif" font-size="10.00">bool _wasCanceled</text>
<text text-anchor="start" x="75" y="-220.5" font-family="Helvetica,sans-Serif" font-size="10.00">+</text>
<text text-anchor="start" x="88" y="-220.5" font-family="Helvetica,sans-Serif" font-size="10.00">DrKeyboard_IME(string</text>
<text text-anchor="start" x="88" y="-209.5" font-family="Helvetica,sans-Serif" font-size="10.00"> initialText, int maxChars,</text>
<text text-anchor="start" x="88" y="-198.5" font-family="Helvetica,sans-Serif" font-size="10.00"> string title, string prompt)</text>
<text text-anchor="start" x="75" y="-183.5" font-family="Helvetica,sans-Serif" font-size="10.00">+</text>
<text text-anchor="start" x="88" y="-183.5" font-family="Helvetica,sans-Serif" font-size="10.00">override void Update()</text>
<text text-anchor="start" x="77.5" y="-168.5" font-family="Helvetica,sans-Serif" font-size="10.00">&#45;</text>
<text text-anchor="start" x="88" y="-168.5" font-family="Helvetica,sans-Serif" font-size="10.00">void Append(string</text>
<text text-anchor="start" x="88" y="-157.5" font-family="Helvetica,sans-Serif" font-size="10.00"> input)</text>
<polygon fill="#666666" stroke="#666666" points="71,-350.5 71,-350.5 225,-350.5 225,-350.5 71,-350.5"/>
<polygon fill="#666666" stroke="#666666" points="71,-230.5 71,-230.5 86,-230.5 86,-230.5 71,-230.5"/>
<polygon fill="#666666" stroke="#666666" points="86,-230.5 86,-230.5 225,-230.5 225,-230.5 86,-230.5"/>
<polygon fill="none" stroke="#666666" points="71,-151 71,-368 225,-368 225,-151 71,-151"/>
</a>
</g>
</g>
<!-- Node1&#45;&gt;Node2 -->
<g id="edge1_Node000001_Node000002" class="edge">
<title>Node1&#45;&gt;Node2</title>
<g id="a_edge1_Node000001_Node000002"><a xlink:title=" ">
<path fill="none" stroke="#63b8ff" d="M207.9,-394.57C204.01,-385.88 200.08,-377.07 196.19,-368.36"/>
<polygon fill="none" stroke="#63b8ff" points="204.82,-396.26 212.1,-403.97 211.21,-393.41 204.82,-396.26"/>
</a>
</g>
</g>
<!-- Node3 -->
<g id="Node000003" class="node">
<title>Node3</title>
<g id="a_Node000003"><a xlink:href="../../d0/d4e/classDrKeyboard__Touch.html" target="_top" xlink:title=" ">
<polygon fill="white" stroke="transparent" points="480.5,-356.5 243.5,-356.5 243.5,-162.5 480.5,-162.5 480.5,-356.5"/>
<text text-anchor="start" x="317" y="-344.5" font-family="Helvetica,sans-Serif" font-size="10.00">DrKeyboard_Touch</text>
<text text-anchor="start" x="248" y="-329.5" font-family="Helvetica,sans-Serif" font-size="10.00">+</text>
<text text-anchor="start" x="261" y="-329.5" font-family="Helvetica,sans-Serif" font-size="10.00">override bool active</text>
<text text-anchor="start" x="248" y="-314.5" font-family="Helvetica,sans-Serif" font-size="10.00">+</text>
<text text-anchor="start" x="261" y="-314.5" font-family="Helvetica,sans-Serif" font-size="10.00">override bool done</text>
<text text-anchor="start" x="248" y="-299.5" font-family="Helvetica,sans-Serif" font-size="10.00">+</text>
<text text-anchor="start" x="261" y="-299.5" font-family="Helvetica,sans-Serif" font-size="10.00">override string text</text>
<text text-anchor="start" x="248" y="-284.5" font-family="Helvetica,sans-Serif" font-size="10.00">+</text>
<text text-anchor="start" x="261" y="-284.5" font-family="Helvetica,sans-Serif" font-size="10.00">override bool wasCanceled</text>
<text text-anchor="start" x="250.5" y="-269.5" font-family="Helvetica,sans-Serif" font-size="10.00">&#45;</text>
<text text-anchor="start" x="261" y="-269.5" font-family="Helvetica,sans-Serif" font-size="10.00">TouchScreenKeyboard</text>
<text text-anchor="start" x="261" y="-258.5" font-family="Helvetica,sans-Serif" font-size="10.00"> _keyboard</text>
<text text-anchor="start" x="250.5" y="-243.5" font-family="Helvetica,sans-Serif" font-size="10.00">&#45;</text>
<text text-anchor="start" x="261" y="-243.5" font-family="Helvetica,sans-Serif" font-size="10.00">static bool appGainedFocus</text>
<text text-anchor="start" x="248" y="-228.5" font-family="Helvetica,sans-Serif" font-size="10.00">+</text>
<text text-anchor="start" x="261" y="-228.5" font-family="Helvetica,sans-Serif" font-size="10.00">DrKeyboard_Touch(TouchScreen</text>
<text text-anchor="start" x="261" y="-217.5" font-family="Helvetica,sans-Serif" font-size="10.00">KeyboardType type, string</text>
<text text-anchor="start" x="261" y="-206.5" font-family="Helvetica,sans-Serif" font-size="10.00"> initialText, int maxChars,</text>
<text text-anchor="start" x="261" y="-195.5" font-family="Helvetica,sans-Serif" font-size="10.00"> string title, string prompt,</text>
<text text-anchor="start" x="261" y="-184.5" font-family="Helvetica,sans-Serif" font-size="10.00"> bool password=false, bool multiline=false)</text>
<text text-anchor="start" x="248" y="-169.5" font-family="Helvetica,sans-Serif" font-size="10.00">+</text>
<text text-anchor="start" x="261" y="-169.5" font-family="Helvetica,sans-Serif" font-size="10.00">static void AppFocusGained()</text>
<polygon fill="#666666" stroke="#666666" points="244,-339.5 244,-339.5 481,-339.5 481,-339.5 244,-339.5"/>
<polygon fill="#666666" stroke="#666666" points="244,-238.5 244,-238.5 259,-238.5 259,-238.5 244,-238.5"/>
<polygon fill="#666666" stroke="#666666" points="259,-238.5 259,-238.5 481,-238.5 481,-238.5 259,-238.5"/>
<polygon fill="none" stroke="#666666" points="243.5,-162.5 243.5,-356.5 480.5,-356.5 480.5,-162.5 243.5,-162.5"/>
</a>
</g>
</g>
<!-- Node1&#45;&gt;Node3 -->
<g id="edge2_Node000001_Node000003" class="edge">
<title>Node1&#45;&gt;Node3</title>
<g id="a_edge2_Node000001_Node000003"><a xlink:title=" ">
<path fill="none" stroke="#63b8ff" d="M302.02,-394.76C307.7,-382.05 313.47,-369.12 319.09,-356.56"/>
<polygon fill="none" stroke="#63b8ff" points="298.79,-393.41 297.9,-403.97 305.18,-396.26 298.79,-393.41"/>
</a>
</g>
</g>
<!-- Node4 -->
<g id="Node000004" class="node">
<title>Node4</title>
<g id="a_Node000004"><a xlink:href="../../d7/d09/classDrKeyboard__PS4.html" target="_top" xlink:title=" ">
<polygon fill="white" stroke="transparent" points="166,-104 0,-104 0,-11 166,-11 166,-104"/>
<text text-anchor="start" x="42.5" y="-91.5" font-family="Helvetica,sans-Serif" font-size="10.00">DrKeyboard_PS4</text>
<text text-anchor="start" x="81" y="-76.5" font-family="Helvetica,sans-Serif" font-size="10.00"> </text>
<text text-anchor="start" x="4" y="-61.5" font-family="Helvetica,sans-Serif" font-size="10.00">+</text>
<text text-anchor="start" x="17" y="-61.5" font-family="Helvetica,sans-Serif" font-size="10.00">DrKeyboard_PS4(TouchScreen</text>
<text text-anchor="start" x="17" y="-50.5" font-family="Helvetica,sans-Serif" font-size="10.00">KeyboardType type, string</text>
<text text-anchor="start" x="17" y="-39.5" font-family="Helvetica,sans-Serif" font-size="10.00"> initialText, int maxChars,</text>
<text text-anchor="start" x="17" y="-28.5" font-family="Helvetica,sans-Serif" font-size="10.00"> string title, string prompt,</text>
<text text-anchor="start" x="17" y="-17.5" font-family="Helvetica,sans-Serif" font-size="10.00"> bool multiline)</text>
<polygon fill="#666666" stroke="#666666" points="0,-86.5 0,-86.5 166,-86.5 166,-86.5 0,-86.5"/>
<polygon fill="#666666" stroke="#666666" points="0,-71.5 0,-71.5 166,-71.5 166,-71.5 0,-71.5"/>
<polygon fill="none" stroke="#666666" points="0,-11 0,-104 166,-104 166,-11 0,-11"/>
</a>
</g>
</g>
<!-- Node3&#45;&gt;Node4 -->
<g id="edge3_Node000003_Node000004" class="edge">
<title>Node3&#45;&gt;Node4</title>
<g id="a_edge3_Node000003_Node000004"><a xlink:title=" ">
<path fill="none" stroke="#63b8ff" d="M241.15,-156.21C238.76,-154.45 236.37,-152.71 234,-151 209.06,-133.07 201.2,-131.04 175,-115 169.24,-111.48 163.29,-107.83 157.3,-104.16"/>
<polygon fill="none" stroke="#63b8ff" points="239.21,-159.13 249.31,-162.31 243.4,-153.52 239.21,-159.13"/>
</a>
</g>
</g>
<!-- Node5 -->
<g id="Node000005" class="node">
<title>Node5</title>
<g id="a_Node000005"><a xlink:href="../../d2/dca/classDrKeyboard__Stadia.html" target="_top" xlink:title=" ">
<polygon fill="white" stroke="transparent" points="354,-109.5 184,-109.5 184,-5.5 354,-5.5 354,-109.5"/>
<text text-anchor="start" x="222" y="-97.5" font-family="Helvetica,sans-Serif" font-size="10.00">DrKeyboard_Stadia</text>
<text text-anchor="start" x="267" y="-82.5" font-family="Helvetica,sans-Serif" font-size="10.00"> </text>
<text text-anchor="start" x="188" y="-67.5" font-family="Helvetica,sans-Serif" font-size="10.00">+</text>
<text text-anchor="start" x="201" y="-67.5" font-family="Helvetica,sans-Serif" font-size="10.00">DrKeyboard_Stadia</text>
<text text-anchor="start" x="201" y="-56.5" font-family="Helvetica,sans-Serif" font-size="10.00">(TouchScreenKeyboardType</text>
<text text-anchor="start" x="201" y="-45.5" font-family="Helvetica,sans-Serif" font-size="10.00"> type, string initialText,</text>
<text text-anchor="start" x="201" y="-34.5" font-family="Helvetica,sans-Serif" font-size="10.00"> int maxChars, string title,</text>
<text text-anchor="start" x="201" y="-23.5" font-family="Helvetica,sans-Serif" font-size="10.00"> string prompt, bool password,</text>
<text text-anchor="start" x="201" y="-12.5" font-family="Helvetica,sans-Serif" font-size="10.00"> bool multiline)</text>
<polygon fill="#666666" stroke="#666666" points="184,-92.5 184,-92.5 354,-92.5 354,-92.5 184,-92.5"/>
<polygon fill="#666666" stroke="#666666" points="184,-77.5 184,-77.5 354,-77.5 354,-77.5 184,-77.5"/>
<polygon fill="none" stroke="#666666" points="184,-5.5 184,-109.5 354,-109.5 354,-5.5 184,-5.5"/>
</a>
</g>
</g>
<!-- Node3&#45;&gt;Node5 -->
<g id="edge4_Node000003_Node000005" class="edge">
<title>Node3&#45;&gt;Node5</title>
<g id="a_edge4_Node000003_Node000005"><a xlink:title=" ">
<path fill="none" stroke="#63b8ff" d="M312.9,-152.91C305.89,-137.84 298.97,-122.94 292.75,-109.58"/>
<polygon fill="none" stroke="#63b8ff" points="309.88,-154.72 317.27,-162.31 316.23,-151.76 309.88,-154.72"/>
</a>
</g>
</g>
<!-- Node6 -->
<g id="Node000006" class="node">
<title>Node6</title>
<g id="a_Node000006"><a xlink:href="../../d2/d04/classDrKeyboard__Switch.html" target="_top" xlink:title=" ">
<polygon fill="white" stroke="transparent" points="539.5,-115 372.5,-115 372.5,0 539.5,0 539.5,-115"/>
<text text-anchor="start" x="409" y="-102.5" font-family="Helvetica,sans-Serif" font-size="10.00">DrKeyboard_Switch</text>
<text text-anchor="start" x="377" y="-87.5" font-family="Helvetica,sans-Serif" font-size="10.00">+</text>
<text text-anchor="start" x="390" y="-87.5" font-family="Helvetica,sans-Serif" font-size="10.00">static DrKeyboard_Switch</text>
<text text-anchor="start" x="390" y="-76.5" font-family="Helvetica,sans-Serif" font-size="10.00"> LastKeyboard</text>
<text text-anchor="start" x="377" y="-61.5" font-family="Helvetica,sans-Serif" font-size="10.00">+</text>
<text text-anchor="start" x="390" y="-61.5" font-family="Helvetica,sans-Serif" font-size="10.00">DrKeyboard_Switch</text>
<text text-anchor="start" x="390" y="-50.5" font-family="Helvetica,sans-Serif" font-size="10.00">(TouchScreenKeyboardType</text>
<text text-anchor="start" x="390" y="-39.5" font-family="Helvetica,sans-Serif" font-size="10.00"> type, string initialText,</text>
<text text-anchor="start" x="390" y="-28.5" font-family="Helvetica,sans-Serif" font-size="10.00"> int maxChars, string title,</text>
<text text-anchor="start" x="390" y="-17.5" font-family="Helvetica,sans-Serif" font-size="10.00"> string prompt, bool multiline,</text>
<text text-anchor="start" x="390" y="-6.5" font-family="Helvetica,sans-Serif" font-size="10.00"> bool filterText)</text>
<polygon fill="#666666" stroke="#666666" points="373,-97.5 373,-97.5 540,-97.5 540,-97.5 373,-97.5"/>
<polygon fill="#666666" stroke="#666666" points="373,-71.5 373,-71.5 388,-71.5 388,-71.5 373,-71.5"/>
<polygon fill="#666666" stroke="#666666" points="388,-71.5 388,-71.5 540,-71.5 540,-71.5 388,-71.5"/>
<polygon fill="none" stroke="#666666" points="372.5,0 372.5,-115 539.5,-115 539.5,0 372.5,0"/>
</a>
</g>
</g>
<!-- Node3&#45;&gt;Node6 -->
<g id="edge5_Node000003_Node000006" class="edge">
<title>Node3&#45;&gt;Node6</title>
<g id="a_edge5_Node000003_Node000006"><a xlink:title=" ">
<path fill="none" stroke="#63b8ff" d="M411.47,-153.24C417.62,-140.16 423.71,-127.2 429.33,-115.25"/>
<polygon fill="none" stroke="#63b8ff" points="408.3,-151.77 407.21,-162.31 414.63,-154.75 408.3,-151.77"/>
</a>
</g>
</g>
<!-- Node7 -->
<g id="Node000007" class="node">
<title>Node7</title>
<g id="a_Node000007"><a xlink:href="../../df/d01/classDrKeyboard__XBO.html" target="_top" xlink:title=" ">
<polygon fill="white" stroke="transparent" points="726.5,-104 557.5,-104 557.5,-11 726.5,-11 726.5,-104"/>
<text text-anchor="start" x="600.5" y="-91.5" font-family="Helvetica,sans-Serif" font-size="10.00">DrKeyboard_XBO</text>
<text text-anchor="start" x="562" y="-76.5" font-family="Helvetica,sans-Serif" font-size="10.00">+</text>
<text text-anchor="start" x="575" y="-76.5" font-family="Helvetica,sans-Serif" font-size="10.00">static DrKeyboard_XBO</text>
<text text-anchor="start" x="575" y="-65.5" font-family="Helvetica,sans-Serif" font-size="10.00"> LastKeyboard</text>
<text text-anchor="start" x="562" y="-50.5" font-family="Helvetica,sans-Serif" font-size="10.00">+</text>
<text text-anchor="start" x="575" y="-50.5" font-family="Helvetica,sans-Serif" font-size="10.00">DrKeyboard_XBO(TouchScreen</text>
<text text-anchor="start" x="575" y="-39.5" font-family="Helvetica,sans-Serif" font-size="10.00">KeyboardType type, string</text>
<text text-anchor="start" x="575" y="-28.5" font-family="Helvetica,sans-Serif" font-size="10.00"> initialText, int maxChars,</text>
<text text-anchor="start" x="575" y="-17.5" font-family="Helvetica,sans-Serif" font-size="10.00"> string title, string prompt)</text>
<polygon fill="#666666" stroke="#666666" points="558,-86.5 558,-86.5 727,-86.5 727,-86.5 558,-86.5"/>
<polygon fill="#666666" stroke="#666666" points="558,-60.5 558,-60.5 573,-60.5 573,-60.5 558,-60.5"/>
<polygon fill="#666666" stroke="#666666" points="573,-60.5 573,-60.5 727,-60.5 727,-60.5 573,-60.5"/>
<polygon fill="none" stroke="#666666" points="557.5,-11 557.5,-104 726.5,-104 726.5,-11 557.5,-11"/>
</a>
</g>
</g>
<!-- Node3&#45;&gt;Node7 -->
<g id="edge6_Node000003_Node000007" class="edge">
<title>Node3&#45;&gt;Node7</title>
<g id="a_edge6_Node000003_Node000007"><a xlink:title=" ">
<path fill="none" stroke="#63b8ff" d="M488.99,-167.79C519.84,-145.76 551.54,-123.12 578.03,-104.2"/>
<polygon fill="none" stroke="#63b8ff" points="486.85,-165.02 480.75,-173.68 490.92,-170.72 486.85,-165.02"/>
</a>
</g>
</g>
</g>
</svg>

<g id="navigator" transform="translate(0 0)" fill="#404254">
  <rect fill="#f2f5e9" fill-opacity="0.5" stroke="#606060" stroke-width=".5" x="0" y="0" width="60" height="60"/>
  <use id="zoomplus" xlink:href="#zoomPlus" x="17" y="9" onmousedown="handleZoom(evt,'in')"/>
  <use id="zoomminus" xlink:href="#zoomMin" x="42" y="9" onmousedown="handleZoom(evt,'out')"/>
  <use id="reset" xlink:href="#resetDef" x="30" y="36" onmousedown="handleReset()"/>
   <use id="arrowup" xlink:href="#arrowUp" x="0" y="0" onmousedown="handlePan(0,-1)"/>
  <use id="arrowright" xlink:href="#arrowRight" x="0" y="0" onmousedown="handlePan(1,0)"/>
  <use id="arrowdown" xlink:href="#arrowDown" x="0" y="0" onmousedown="handlePan(0,1)"/>
  <use id="arrowleft" xlink:href="#arrowLeft" x="0" y="0" onmousedown="handlePan(-1,0)"/>
</g>
<svg viewBox="0 0 15 15" width="100%" height="30px" preserveAspectRatio="xMaxYMin meet">
 <g id="arrow_out" transform="scale(0.3 0.3)">
  <a xlink:href="classDrKeyboard__Base__inherit__graph_org.svg" target="_base">
   <rect id="button" ry="5" rx="5" y="6" x="6" height="38" width="38"
        fill="#f2f5e9" fill-opacity="0.5" stroke="#606060" stroke-width="1.0"/>
   <path id="arrow"
     d="M 11.500037,31.436501 C 11.940474,20.09759 22.043105,11.32322 32.158766,21.979434 L 37.068811,17.246167 C 37.068811,17.246167 37.088388,32 37.088388,32 L 22.160133,31.978069 C 22.160133,31.978069 26.997745,27.140456 26.997745,27.140456 C 18.528582,18.264221 13.291696,25.230495 11.500037,31.436501 z"
     style="fill:#404040;"/>
  </a>
 </g>
</svg>

<style type='text/css'>
<![CDATA[
[data-mouse-over-selected='false'] { opacity: 0.7; }
[data-mouse-over-selected='true']  { opacity: 1.0; }
]]>
</style>
<script type="application/ecmascript"><![CDATA[
document.addEventListener('DOMContentLoaded', (event) => {
  highlightEdges();
  highlightAdjacentNodes();
});
]]></script>
</svg>
