<?xml version="1.0" encoding="UTF-8" standalone="no"?>
<!DOCTYPE svg PUBLIC "-//W3C//DTD SVG 1.1//EN"
 "http://www.w3.org/Graphics/SVG/1.1/DTD/svg11.dtd">
<!-- Generated by graphviz version 2.43.0 (0)
 -->
<!-- Title: Terraria.WorldBuilding.Actions.SetTile Pages: 1 -->
<svg width="744pt" height="1049pt"
 viewBox="0.00 0.00 744.00 1049.00" xmlns="http://www.w3.org/2000/svg" xmlns:xlink="http://www.w3.org/1999/xlink">
<g id="graph0" class="graph" transform="scale(1 1) rotate(0) translate(4 1045)">
<title>Terraria.WorldBuilding.Actions.SetTile</title>
<!-- Node1 -->
<g id="Node000001" class="node">
<title>Node1</title>
<g id="a_Node000001"><a xlink:title=" ">
<polygon fill="#999999" stroke="transparent" points="719.5,-130 544.5,-130 544.5,0 719.5,0 719.5,-130"/>
<text text-anchor="start" x="557.5" y="-118" font-family="Helvetica,sans-Serif" font-size="10.00">Terraria.WorldBuilding.Actions.</text>
<text text-anchor="start" x="615.5" y="-107" font-family="Helvetica,sans-Serif" font-size="10.00">SetTile</text>
<text text-anchor="start" x="630.5" y="-92" font-family="Helvetica,sans-Serif" font-size="10.00"> </text>
<text text-anchor="start" x="549" y="-77" font-family="Helvetica,sans-Serif" font-size="10.00">+</text>
<text text-anchor="start" x="562" y="-77" font-family="Helvetica,sans-Serif" font-size="10.00">SetTile(ushort type,</text>
<text text-anchor="start" x="562" y="-66" font-family="Helvetica,sans-Serif" font-size="10.00"> bool setSelfFrames=false,</text>
<text text-anchor="start" x="562" y="-55" font-family="Helvetica,sans-Serif" font-size="10.00"> bool setNeighborFrames=true)</text>
<text text-anchor="start" x="549" y="-40" font-family="Helvetica,sans-Serif" font-size="10.00">+</text>
<text text-anchor="start" x="562" y="-40" font-family="Helvetica,sans-Serif" font-size="10.00">override bool Apply</text>
<text text-anchor="start" x="562" y="-29" font-family="Helvetica,sans-Serif" font-size="10.00">(Point origin, int x,</text>
<text text-anchor="start" x="562" y="-18" font-family="Helvetica,sans-Serif" font-size="10.00"> int y, params object</text>
<text text-anchor="start" x="562" y="-7" font-family="Helvetica,sans-Serif" font-size="10.00">[] args)</text>
<polygon fill="#666666" stroke="#666666" points="545,-102 545,-102 720,-102 720,-102 545,-102"/>
<polygon fill="#666666" stroke="#666666" points="545,-87 545,-87 720,-87 720,-87 545,-87"/>
<polygon fill="none" stroke="#666666" points="544.5,0 544.5,-130 719.5,-130 719.5,0 544.5,0"/>
</a>
</g>
</g>
<!-- Node2 -->
<g id="Node000002" class="node">
<title>Node2</title>
<g id="a_Node000002"><a xlink:href="../../db/d55/classTerraria_1_1WorldBuilding_1_1GenAction.html" target="_top" xlink:title=" ">
<polygon fill="white" stroke="transparent" points="513.5,-356 348.5,-356 348.5,-177 513.5,-177 513.5,-356"/>
<text text-anchor="start" x="406" y="-343.5" font-family="Helvetica,sans-Serif" font-size="10.00">GenAction</text>
<text text-anchor="start" x="429.5" y="-328.5" font-family="Helvetica,sans-Serif" font-size="10.00"> </text>
<text text-anchor="start" x="353" y="-313.5" font-family="Helvetica,sans-Serif" font-size="10.00">+</text>
<text text-anchor="start" x="366" y="-313.5" font-family="Helvetica,sans-Serif" font-size="10.00">bool Apply(Point origin,</text>
<text text-anchor="start" x="366" y="-302.5" font-family="Helvetica,sans-Serif" font-size="10.00"> int x, int y, params</text>
<text text-anchor="start" x="366" y="-291.5" font-family="Helvetica,sans-Serif" font-size="10.00"> object[] args)</text>
<text text-anchor="start" x="353" y="-276.5" font-family="Helvetica,sans-Serif" font-size="10.00">+</text>
<text text-anchor="start" x="366" y="-276.5" font-family="Helvetica,sans-Serif" font-size="10.00">GenAction IgnoreFailures()</text>
<text text-anchor="start" x="353" y="-261.5" font-family="Helvetica,sans-Serif" font-size="10.00">+</text>
<text text-anchor="start" x="366" y="-261.5" font-family="Helvetica,sans-Serif" font-size="10.00">GenAction Output(ShapeData</text>
<text text-anchor="start" x="366" y="-250.5" font-family="Helvetica,sans-Serif" font-size="10.00"> data)</text>
<text text-anchor="start" x="353" y="-235.5" font-family="Helvetica,sans-Serif" font-size="10.00">#</text>
<text text-anchor="start" x="366" y="-235.5" font-family="Helvetica,sans-Serif" font-size="10.00">bool UnitApply(Point</text>
<text text-anchor="start" x="366" y="-224.5" font-family="Helvetica,sans-Serif" font-size="10.00"> origin, int x, int y,</text>
<text text-anchor="start" x="366" y="-213.5" font-family="Helvetica,sans-Serif" font-size="10.00"> params object[] args)</text>
<text text-anchor="start" x="353" y="-198.5" font-family="Helvetica,sans-Serif" font-size="10.00">#</text>
<text text-anchor="start" x="366" y="-198.5" font-family="Helvetica,sans-Serif" font-size="10.00">bool Fail()</text>
<text text-anchor="start" x="353" y="-183.5" font-family="Helvetica,sans-Serif" font-size="10.00">#</text>
<text text-anchor="start" x="366" y="-183.5" font-family="Helvetica,sans-Serif" font-size="10.00">GenAction()</text>
<polygon fill="#666666" stroke="#666666" points="349,-338.5 349,-338.5 514,-338.5 514,-338.5 349,-338.5"/>
<polygon fill="#666666" stroke="#666666" points="349,-323.5 349,-323.5 514,-323.5 514,-323.5 349,-323.5"/>
<polygon fill="none" stroke="#666666" points="348.5,-177 348.5,-356 513.5,-356 513.5,-177 348.5,-177"/>
</a>
</g>
</g>
<!-- Node2&#45;&gt;Node1 -->
<g id="edge1_Node000001_Node000002" class="edge">
<title>Node2&#45;&gt;Node1</title>
<g id="a_edge1_Node000001_Node000002"><a xlink:title=" ">
<path fill="none" stroke="#63b8ff" d="M520.82,-176.35C536.55,-160.73 552.64,-144.77 567.51,-130.01"/>
<polygon fill="none" stroke="#63b8ff" points="518.26,-173.96 513.62,-183.49 523.19,-178.93 518.26,-173.96"/>
</a>
</g>
</g>
<!-- Node3 -->
<g id="Node000003" class="node">
<title>Node3</title>
<g id="a_Node000003"><a xlink:href="../../d4/dd6/classTerraria_1_1WorldBuilding_1_1GenBase.html" target="_top" xlink:title=" ">
<polygon fill="white" stroke="transparent" points="392.5,-869 227.5,-869 227.5,-727 392.5,-727 392.5,-869"/>
<text text-anchor="start" x="288.5" y="-857" font-family="Helvetica,sans-Serif" font-size="10.00">GenBase</text>
<text text-anchor="start" x="232" y="-842" font-family="Helvetica,sans-Serif" font-size="10.00">+</text>
<text text-anchor="start" x="245" y="-842" font-family="Helvetica,sans-Serif" font-size="10.00">static UnifiedRandom</text>
<text text-anchor="start" x="245" y="-831" font-family="Helvetica,sans-Serif" font-size="10.00"> _random</text>
<text text-anchor="start" x="232" y="-816" font-family="Helvetica,sans-Serif" font-size="10.00">+</text>
<text text-anchor="start" x="245" y="-816" font-family="Helvetica,sans-Serif" font-size="10.00">static TileData _tiles</text>
<text text-anchor="start" x="232" y="-801" font-family="Helvetica,sans-Serif" font-size="10.00">+</text>
<text text-anchor="start" x="245" y="-801" font-family="Helvetica,sans-Serif" font-size="10.00">static int _worldWidth</text>
<text text-anchor="start" x="232" y="-786" font-family="Helvetica,sans-Serif" font-size="10.00">+</text>
<text text-anchor="start" x="245" y="-786" font-family="Helvetica,sans-Serif" font-size="10.00">static int _worldHeight</text>
<text text-anchor="start" x="232" y="-771" font-family="Helvetica,sans-Serif" font-size="10.00">+</text>
<text text-anchor="start" x="245" y="-771" font-family="Helvetica,sans-Serif" font-size="10.00">delegate bool CustomPerUnit</text>
<text text-anchor="start" x="245" y="-760" font-family="Helvetica,sans-Serif" font-size="10.00">Action(int x, int y, params</text>
<text text-anchor="start" x="245" y="-749" font-family="Helvetica,sans-Serif" font-size="10.00"> object[] args)</text>
<text text-anchor="start" x="232" y="-734" font-family="Helvetica,sans-Serif" font-size="10.00">+</text>
<text text-anchor="start" x="245" y="-734" font-family="Helvetica,sans-Serif" font-size="10.00">GenBase()</text>
<polygon fill="#666666" stroke="#666666" points="228,-852 228,-852 393,-852 393,-852 228,-852"/>
<polygon fill="#666666" stroke="#666666" points="228,-781 228,-781 243,-781 243,-781 228,-781"/>
<polygon fill="#666666" stroke="#666666" points="243,-781 243,-781 393,-781 393,-781 243,-781"/>
<polygon fill="none" stroke="#666666" points="227.5,-727 227.5,-869 392.5,-869 392.5,-727 227.5,-727"/>
</a>
</g>
</g>
<!-- Node3&#45;&gt;Node2 -->
<g id="edge2_Node000002_Node000003" class="edge">
<title>Node3&#45;&gt;Node2</title>
<g id="a_edge2_Node000002_Node000003"><a xlink:title=" ">
<path fill="none" stroke="#63b8ff" d="M311.72,-716.47C316.41,-683.49 327.27,-647.24 351,-622 370.07,-601.72 393.73,-625.83 411,-604 440.32,-566.94 440.61,-442.72 436.82,-356.06"/>
<polygon fill="none" stroke="#63b8ff" points="308.22,-716.22 310.46,-726.58 315.17,-717.09 308.22,-716.22"/>
</a>
</g>
</g>
<!-- Node4 -->
<g id="Node000004" class="node">
<title>Node4</title>
<g id="a_Node000004"><a xlink:href="../../db/d55/classTerraria_1_1WorldBuilding_1_1GenAction.html" target="_top" xlink:title=" ">
<polygon fill="white" stroke="transparent" points="318.5,-604 153.5,-604 153.5,-414 318.5,-414 318.5,-604"/>
<text text-anchor="start" x="171.5" y="-592" font-family="Helvetica,sans-Serif" font-size="10.00">Terraria.WorldBuilding.Gen</text>
<text text-anchor="start" x="221" y="-581" font-family="Helvetica,sans-Serif" font-size="10.00">Action</text>
<text text-anchor="start" x="234.5" y="-566" font-family="Helvetica,sans-Serif" font-size="10.00"> </text>
<text text-anchor="start" x="158" y="-551" font-family="Helvetica,sans-Serif" font-size="10.00">+</text>
<text text-anchor="start" x="171" y="-551" font-family="Helvetica,sans-Serif" font-size="10.00">bool Apply(Point origin,</text>
<text text-anchor="start" x="171" y="-540" font-family="Helvetica,sans-Serif" font-size="10.00"> int x, int y, params</text>
<text text-anchor="start" x="171" y="-529" font-family="Helvetica,sans-Serif" font-size="10.00"> object[] args)</text>
<text text-anchor="start" x="158" y="-514" font-family="Helvetica,sans-Serif" font-size="10.00">+</text>
<text text-anchor="start" x="171" y="-514" font-family="Helvetica,sans-Serif" font-size="10.00">GenAction IgnoreFailures()</text>
<text text-anchor="start" x="158" y="-499" font-family="Helvetica,sans-Serif" font-size="10.00">+</text>
<text text-anchor="start" x="171" y="-499" font-family="Helvetica,sans-Serif" font-size="10.00">GenAction Output(ShapeData</text>
<text text-anchor="start" x="171" y="-488" font-family="Helvetica,sans-Serif" font-size="10.00"> data)</text>
<text text-anchor="start" x="158" y="-473" font-family="Helvetica,sans-Serif" font-size="10.00">#</text>
<text text-anchor="start" x="171" y="-473" font-family="Helvetica,sans-Serif" font-size="10.00">bool UnitApply(Point</text>
<text text-anchor="start" x="171" y="-462" font-family="Helvetica,sans-Serif" font-size="10.00"> origin, int x, int y,</text>
<text text-anchor="start" x="171" y="-451" font-family="Helvetica,sans-Serif" font-size="10.00"> params object[] args)</text>
<text text-anchor="start" x="158" y="-436" font-family="Helvetica,sans-Serif" font-size="10.00">#</text>
<text text-anchor="start" x="171" y="-436" font-family="Helvetica,sans-Serif" font-size="10.00">bool Fail()</text>
<text text-anchor="start" x="158" y="-421" font-family="Helvetica,sans-Serif" font-size="10.00">#</text>
<text text-anchor="start" x="171" y="-421" font-family="Helvetica,sans-Serif" font-size="10.00">GenAction()</text>
<polygon fill="#666666" stroke="#666666" points="154,-576 154,-576 319,-576 319,-576 154,-576"/>
<polygon fill="#666666" stroke="#666666" points="154,-561 154,-561 319,-561 319,-561 154,-561"/>
<polygon fill="none" stroke="#666666" points="153.5,-414 153.5,-604 318.5,-604 318.5,-414 153.5,-414"/>
</a>
</g>
</g>
<!-- Node3&#45;&gt;Node4 -->
<g id="edge4_Node000004_Node000003" class="edge">
<title>Node3&#45;&gt;Node4</title>
<g id="a_edge4_Node000004_Node000003"><a xlink:title=" ">
<path fill="none" stroke="#63b8ff" d="M289.39,-717.09C280.36,-682.04 269.69,-640.66 260.27,-604.14"/>
<polygon fill="none" stroke="#63b8ff" points="286.01,-717.98 291.9,-726.79 292.79,-716.23 286.01,-717.98"/>
</a>
</g>
</g>
<!-- Node4&#45;&gt;Node2 -->
<g id="edge3_Node000002_Node000004" class="edge">
<title>Node4&#45;&gt;Node2</title>
<g id="a_edge3_Node000002_Node000004"><a xlink:title=" ">
<path fill="none" stroke="#63b8ff" d="M312.23,-413.98C325.09,-398.12 338.47,-381.63 351.41,-365.66"/>
<polygon fill="none" stroke="#63b8ff" points="351.41,-365.66 352.08,-358.48 358.97,-356.34 358.3,-363.52 351.41,-365.66"/>
</a>
</g>
<text text-anchor="middle" x="373" y="-382.5" font-family="Helvetica,sans-Serif" font-size="10.00" fill="grey"> +NextAction</text>
</g>
<!-- Node4&#45;&gt;Node4 -->
<g id="edge5_Node000004_Node000004" class="edge">
<title>Node4&#45;&gt;Node4</title>
<g id="a_edge5_Node000004_Node000004"><a xlink:title=" ">
<path fill="none" stroke="#63b8ff" d="M318.8,-528.39C329.46,-525.03 336.5,-518.56 336.5,-509 336.5,-503.32 334.02,-498.74 329.77,-495.24"/>
<polygon fill="none" stroke="#63b8ff" points="329.47,-495.09 322.31,-495.91 318.8,-489.61 325.96,-488.79 329.47,-495.09"/>
</a>
</g>
<text text-anchor="middle" x="369.5" y="-506.5" font-family="Helvetica,sans-Serif" font-size="10.00" fill="grey"> +NextAction</text>
</g>
<!-- Node5 -->
<g id="Node000005" class="node">
<title>Node5</title>
<g id="a_Node000005"><a xlink:href="../../d3/d09/classTerraria_1_1WorldBuilding_1_1ShapeData.html" target="_top" xlink:title=" ">
<polygon fill="white" stroke="transparent" points="180,-945 0,-945 0,-651 180,-651 180,-945"/>
<text text-anchor="start" x="8" y="-933" font-family="Helvetica,sans-Serif" font-size="10.00">Terraria.WorldBuilding.ShapeData</text>
<text text-anchor="start" x="4" y="-918" font-family="Helvetica,sans-Serif" font-size="10.00">+</text>
<text text-anchor="start" x="17" y="-918" font-family="Helvetica,sans-Serif" font-size="10.00">int Count</text>
<text text-anchor="start" x="4" y="-903" font-family="Helvetica,sans-Serif" font-size="10.00">+</text>
<text text-anchor="start" x="17" y="-903" font-family="Helvetica,sans-Serif" font-size="10.00">ShapeData()</text>
<text text-anchor="start" x="4" y="-888" font-family="Helvetica,sans-Serif" font-size="10.00">+</text>
<text text-anchor="start" x="17" y="-888" font-family="Helvetica,sans-Serif" font-size="10.00">ShapeData(ShapeData</text>
<text text-anchor="start" x="17" y="-877" font-family="Helvetica,sans-Serif" font-size="10.00"> original)</text>
<text text-anchor="start" x="4" y="-862" font-family="Helvetica,sans-Serif" font-size="10.00">+</text>
<text text-anchor="start" x="17" y="-862" font-family="Helvetica,sans-Serif" font-size="10.00">void Add(int x, int y)</text>
<text text-anchor="start" x="4" y="-847" font-family="Helvetica,sans-Serif" font-size="10.00">+</text>
<text text-anchor="start" x="17" y="-847" font-family="Helvetica,sans-Serif" font-size="10.00">void Remove(int x,</text>
<text text-anchor="start" x="17" y="-836" font-family="Helvetica,sans-Serif" font-size="10.00"> int y)</text>
<text text-anchor="start" x="4" y="-821" font-family="Helvetica,sans-Serif" font-size="10.00">+</text>
<text text-anchor="start" x="17" y="-821" font-family="Helvetica,sans-Serif" font-size="10.00">HashSet&lt; Point16 &gt;</text>
<text text-anchor="start" x="17" y="-810" font-family="Helvetica,sans-Serif" font-size="10.00"> GetData()</text>
<text text-anchor="start" x="4" y="-795" font-family="Helvetica,sans-Serif" font-size="10.00">+</text>
<text text-anchor="start" x="17" y="-795" font-family="Helvetica,sans-Serif" font-size="10.00">void Clear()</text>
<text text-anchor="start" x="4" y="-780" font-family="Helvetica,sans-Serif" font-size="10.00">+</text>
<text text-anchor="start" x="17" y="-780" font-family="Helvetica,sans-Serif" font-size="10.00">bool Contains(int x,</text>
<text text-anchor="start" x="17" y="-769" font-family="Helvetica,sans-Serif" font-size="10.00"> int y)</text>
<text text-anchor="start" x="4" y="-754" font-family="Helvetica,sans-Serif" font-size="10.00">+</text>
<text text-anchor="start" x="17" y="-754" font-family="Helvetica,sans-Serif" font-size="10.00">void Add(ShapeData</text>
<text text-anchor="start" x="17" y="-743" font-family="Helvetica,sans-Serif" font-size="10.00"> shapeData, Point localOrigin,</text>
<text text-anchor="start" x="17" y="-732" font-family="Helvetica,sans-Serif" font-size="10.00"> Point remoteOrigin)</text>
<text text-anchor="start" x="4" y="-717" font-family="Helvetica,sans-Serif" font-size="10.00">+</text>
<text text-anchor="start" x="17" y="-717" font-family="Helvetica,sans-Serif" font-size="10.00">void Subtract(ShapeData</text>
<text text-anchor="start" x="17" y="-706" font-family="Helvetica,sans-Serif" font-size="10.00"> shapeData, Point localOrigin,</text>
<text text-anchor="start" x="17" y="-695" font-family="Helvetica,sans-Serif" font-size="10.00"> Point remoteOrigin)</text>
<text text-anchor="start" x="4" y="-680" font-family="Helvetica,sans-Serif" font-size="10.00">+</text>
<text text-anchor="start" x="17" y="-680" font-family="Helvetica,sans-Serif" font-size="10.00">static Rectangle GetBounds</text>
<text text-anchor="start" x="17" y="-669" font-family="Helvetica,sans-Serif" font-size="10.00">(Point origin, params ShapeData</text>
<text text-anchor="start" x="17" y="-658" font-family="Helvetica,sans-Serif" font-size="10.00">[] shapes)</text>
<polygon fill="#666666" stroke="#666666" points="0,-928 0,-928 180,-928 180,-928 0,-928"/>
<polygon fill="#666666" stroke="#666666" points="0,-913 0,-913 15,-913 15,-913 0,-913"/>
<polygon fill="#666666" stroke="#666666" points="15,-913 15,-913 180,-913 180,-913 15,-913"/>
<polygon fill="none" stroke="#666666" points="0,-651 0,-945 180,-945 180,-651 0,-651"/>
</a>
</g>
</g>
<!-- Node5&#45;&gt;Node2 -->
<g id="edge9_Node000002_Node000005" class="edge">
<title>Node5&#45;&gt;Node2</title>
<g id="a_edge9_Node000002_Node000005"><a xlink:title=" ">
<path fill="none" stroke="#63b8ff" d="M45.99,-650.76C31.96,-574.2 30.21,-482.43 76,-414 133.66,-327.82 252.28,-292.28 336.51,-277.66"/>
<polygon fill="none" stroke="#63b8ff" points="336.58,-277.65 341.84,-272.73 348.42,-275.69 343.15,-280.62 336.58,-277.65"/>
</a>
</g>
<text text-anchor="middle" x="110" y="-506.5" font-family="Helvetica,sans-Serif" font-size="10.00" fill="grey"> +OutputData</text>
</g>
<!-- Node5&#45;&gt;Node4 -->
<g id="edge6_Node000004_Node000005" class="edge">
<title>Node5&#45;&gt;Node4</title>
<g id="a_edge6_Node000004_Node000005"><a xlink:title=" ">
<path fill="none" stroke="#63b8ff" d="M164.28,-650.98C170.49,-638.79 176.68,-626.62 182.67,-614.83"/>
<polygon fill="none" stroke="#63b8ff" points="182.68,-614.81 181.84,-607.65 188.12,-604.11 188.97,-611.27 182.68,-614.81"/>
</a>
</g>
<text text-anchor="middle" x="211" y="-625" font-family="Helvetica,sans-Serif" font-size="10.00" fill="grey"> +OutputData</text>
</g>
<!-- Node6 -->
<g id="Node000006" class="node">
<title>Node6</title>
<g id="a_Node000006"><a xlink:title=" ">
<polygon fill="white" stroke="transparent" points="145,-1041 35,-1041 35,-992 145,-992 145,-1041"/>
<text text-anchor="start" x="40" y="-1028.5" font-family="Helvetica,sans-Serif" font-size="10.00">HashSet&lt; Point16 &gt;</text>
<text text-anchor="start" x="88" y="-1013.5" font-family="Helvetica,sans-Serif" font-size="10.00"> </text>
<text text-anchor="start" x="88" y="-998.5" font-family="Helvetica,sans-Serif" font-size="10.00"> </text>
<polygon fill="#666666" stroke="#666666" points="35,-1023.5 35,-1023.5 145,-1023.5 145,-1023.5 35,-1023.5"/>
<polygon fill="#666666" stroke="#666666" points="35,-1008.5 35,-1008.5 145,-1008.5 145,-1008.5 35,-1008.5"/>
<polygon fill="none" stroke="#666666" points="35,-992 35,-1041 145,-1041 145,-992 35,-992"/>
</a>
</g>
</g>
<!-- Node6&#45;&gt;Node5 -->
<g id="edge7_Node000005_Node000006" class="edge">
<title>Node6&#45;&gt;Node5</title>
<g id="a_edge7_Node000005_Node000006"><a xlink:title=" ">
<path fill="none" stroke="#63b8ff" d="M90,-991.92C90,-982.44 90,-970.65 90,-957.61"/>
<polygon fill="none" stroke="#63b8ff" points="90,-957.31 86,-951.31 90,-945.31 94,-951.31 90,-957.31"/>
</a>
</g>
<text text-anchor="middle" x="111.5" y="-966" font-family="Helvetica,sans-Serif" font-size="10.00" fill="grey"> &#45;_points</text>
</g>
<!-- Node7 -->
<g id="Node000007" class="node">
<title>Node7</title>
<g id="a_Node000007"><a xlink:title=" ">
<polygon fill="white" stroke="transparent" points="508,-822.5 476,-822.5 476,-773.5 508,-773.5 508,-822.5"/>
<text text-anchor="start" x="481" y="-810" font-family="Helvetica,sans-Serif" font-size="10.00">bool</text>
<text text-anchor="start" x="490" y="-795" font-family="Helvetica,sans-Serif" font-size="10.00"> </text>
<text text-anchor="start" x="490" y="-780" font-family="Helvetica,sans-Serif" font-size="10.00"> </text>
<polygon fill="#666666" stroke="#666666" points="476,-805 476,-805 508,-805 508,-805 476,-805"/>
<polygon fill="#666666" stroke="#666666" points="476,-790 476,-790 508,-790 508,-790 476,-790"/>
<polygon fill="none" stroke="#666666" points="476,-773.5 476,-822.5 508,-822.5 508,-773.5 476,-773.5"/>
</a>
</g>
</g>
<!-- Node7&#45;&gt;Node1 -->
<g id="edge12_Node000001_Node000007" class="edge">
<title>Node7&#45;&gt;Node1</title>
<g id="a_edge12_Node000001_Node000007"><a xlink:title=" ">
<path fill="none" stroke="#63b8ff" d="M508.12,-773.64C531.33,-738.6 573.43,-669.54 592,-604 637.2,-444.51 639.02,-248.39 635.84,-142.53"/>
<polygon fill="none" stroke="#63b8ff" points="635.83,-142.38 631.64,-136.51 635.44,-130.39 639.63,-136.25 635.83,-142.38"/>
</a>
</g>
<text text-anchor="middle" x="683" y="-388" font-family="Helvetica,sans-Serif" font-size="10.00" fill="grey"> &#45;_doFraming</text>
<text text-anchor="middle" x="683" y="-377" font-family="Helvetica,sans-Serif" font-size="10.00" fill="grey">&#45;_doNeighborFraming</text>
</g>
<!-- Node7&#45;&gt;Node2 -->
<g id="edge10_Node000002_Node000007" class="edge">
<title>Node7&#45;&gt;Node2</title>
<g id="a_edge10_Node000002_Node000007"><a xlink:title=" ">
<path fill="none" stroke="#63b8ff" d="M490.51,-773.47C488.29,-739.84 483.75,-676.1 478,-622 468.89,-536.21 455.82,-439.1 445.77,-368.24"/>
<polygon fill="none" stroke="#63b8ff" points="445.75,-368.1 440.95,-362.72 444.06,-356.22 448.87,-361.59 445.75,-368.1"/>
</a>
</g>
<text text-anchor="middle" x="532" y="-506.5" font-family="Helvetica,sans-Serif" font-size="10.00" fill="grey"> &#45;_returnFalseOnFailure</text>
</g>
<!-- Node7&#45;&gt;Node4 -->
<g id="edge8_Node000004_Node000007" class="edge">
<title>Node7&#45;&gt;Node4</title>
<g id="a_edge8_Node000004_Node000007"><a xlink:title=" ">
<path fill="none" stroke="#63b8ff" d="M482.1,-773.3C468.02,-741.95 439.56,-686.51 401,-651 388.13,-639.15 380.27,-643.11 366,-633 353.17,-623.91 340.33,-613.61 327.99,-602.93"/>
<polygon fill="none" stroke="#63b8ff" points="327.66,-602.64 320.52,-601.67 318.66,-594.7 325.81,-595.67 327.66,-602.64"/>
</a>
</g>
<text text-anchor="middle" x="422" y="-625" font-family="Helvetica,sans-Serif" font-size="10.00" fill="grey"> &#45;_returnFalseOnFailure</text>
</g>
<!-- Node8 -->
<g id="Node000008" class="node">
<title>Node8</title>
<g id="a_Node000008"><a xlink:title=" ">
<polygon fill="white" stroke="transparent" points="701.5,-291 660.5,-291 660.5,-242 701.5,-242 701.5,-291"/>
<text text-anchor="start" x="666" y="-278.5" font-family="Helvetica,sans-Serif" font-size="10.00">ushort</text>
<text text-anchor="start" x="679.5" y="-263.5" font-family="Helvetica,sans-Serif" font-size="10.00"> </text>
<text text-anchor="start" x="679.5" y="-248.5" font-family="Helvetica,sans-Serif" font-size="10.00"> </text>
<polygon fill="#666666" stroke="#666666" points="661,-273.5 661,-273.5 702,-273.5 702,-273.5 661,-273.5"/>
<polygon fill="#666666" stroke="#666666" points="661,-258.5 661,-258.5 702,-258.5 702,-258.5 661,-258.5"/>
<polygon fill="none" stroke="#666666" points="660.5,-242 660.5,-291 701.5,-291 701.5,-242 660.5,-242"/>
</a>
</g>
</g>
<!-- Node8&#45;&gt;Node1 -->
<g id="edge11_Node000001_Node000008" class="edge">
<title>Node8&#45;&gt;Node1</title>
<g id="a_edge11_Node000001_Node000008"><a xlink:title=" ">
<path fill="none" stroke="#63b8ff" d="M675.19,-241.83C669.15,-217.26 659.39,-177.52 650.67,-142.03"/>
<polygon fill="none" stroke="#63b8ff" points="650.63,-141.84 645.31,-136.97 647.76,-130.18 653.08,-135.06 650.63,-141.84"/>
</a>
</g>
<text text-anchor="middle" x="670" y="-151" font-family="Helvetica,sans-Serif" font-size="10.00" fill="grey"> &#45;_type</text>
</g>
</g>
</svg>
