<?xml version="1.0" encoding="UTF-8" standalone="no"?>
<!DOCTYPE svg PUBLIC "-//W3C//DTD SVG 1.1//EN"
 "http://www.w3.org/Graphics/SVG/1.1/DTD/svg11.dtd">
<!-- Generated by graphviz version 2.43.0 (0)
 -->
<!-- Title: Terraria.GameContent.FontAssets Pages: 1 -->
<svg width="997pt" height="1423pt"
 viewBox="0.00 0.00 997.20 1423.00" xmlns="http://www.w3.org/2000/svg" xmlns:xlink="http://www.w3.org/1999/xlink">
<g id="graph0" class="graph" transform="scale(1 1) rotate(0) translate(4 1419)">
<title>Terraria.GameContent.FontAssets</title>
<!-- Node1 -->
<g id="Node000001" class="node">
<title>Node1</title>
<g id="a_Node000001"><a xlink:title=" ">
<polygon fill="#999999" stroke="transparent" points="538.2,-60 396.2,-60 396.2,0 538.2,0 538.2,-60"/>
<text text-anchor="start" x="401.2" y="-48" font-family="Helvetica,sans-Serif" font-size="10.00">Terraria.GameContent.Font</text>
<text text-anchor="start" x="450.7" y="-37" font-family="Helvetica,sans-Serif" font-size="10.00">Assets</text>
<text text-anchor="start" x="465.2" y="-22" font-family="Helvetica,sans-Serif" font-size="10.00"> </text>
<text text-anchor="start" x="408.7" y="-7" font-family="Helvetica,sans-Serif" font-size="10.00">&#45;</text>
<text text-anchor="start" x="425.2" y="-7" font-family="Helvetica,sans-Serif" font-size="10.00">static FontAssets()</text>
<polygon fill="#666666" stroke="#666666" points="396.2,-32 396.2,-32 538.2,-32 538.2,-32 396.2,-32"/>
<polygon fill="#666666" stroke="#666666" points="396.2,-17 396.2,-17 538.2,-17 538.2,-17 396.2,-17"/>
<polygon fill="none" stroke="#666666" points="396.2,0 396.2,-60 538.2,-60 538.2,0 396.2,0"/>
</a>
</g>
</g>
<!-- Node2 -->
<g id="Node000002" class="node">
<title>Node2</title>
<g id="a_Node000002"><a xlink:href="../../da/d68/classReLogic_1_1Content_1_1Asset.html" target="_top" xlink:title=" ">
<polygon fill="white" stroke="transparent" points="548.7,-573 385.7,-573 385.7,-140 548.7,-140 548.7,-573"/>
<text text-anchor="start" x="412.7" y="-560.5" font-family="Helvetica,sans-Serif" font-size="10.00">ReLogic.Content.Asset</text>
<text text-anchor="start" x="431.2" y="-549.5" font-family="Helvetica,sans-Serif" font-size="10.00">&lt; SpriteFont &gt;</text>
<text text-anchor="start" x="390.2" y="-534.5" font-family="Helvetica,sans-Serif" font-size="10.00">+</text>
<text text-anchor="start" x="403.2" y="-534.5" font-family="Helvetica,sans-Serif" font-size="10.00">static readonly Asset</text>
<text text-anchor="start" x="403.2" y="-523.5" font-family="Helvetica,sans-Serif" font-size="10.00">&lt; T &gt; Empty</text>
<text text-anchor="start" x="390.2" y="-508.5" font-family="Helvetica,sans-Serif" font-size="10.00">+</text>
<text text-anchor="start" x="403.2" y="-508.5" font-family="Helvetica,sans-Serif" font-size="10.00">string Name</text>
<text text-anchor="start" x="390.2" y="-493.5" font-family="Helvetica,sans-Serif" font-size="10.00">+</text>
<text text-anchor="start" x="403.2" y="-493.5" font-family="Helvetica,sans-Serif" font-size="10.00">bool IsLoaded</text>
<text text-anchor="start" x="390.2" y="-478.5" font-family="Helvetica,sans-Serif" font-size="10.00">+</text>
<text text-anchor="start" x="403.2" y="-478.5" font-family="Helvetica,sans-Serif" font-size="10.00">AssetState State</text>
<text text-anchor="start" x="390.2" y="-463.5" font-family="Helvetica,sans-Serif" font-size="10.00">+</text>
<text text-anchor="start" x="403.2" y="-463.5" font-family="Helvetica,sans-Serif" font-size="10.00">bool IsDisposed</text>
<text text-anchor="start" x="390.2" y="-448.5" font-family="Helvetica,sans-Serif" font-size="10.00">+</text>
<text text-anchor="start" x="403.2" y="-448.5" font-family="Helvetica,sans-Serif" font-size="10.00">IContentSource Source</text>
<text text-anchor="start" x="390.2" y="-433.5" font-family="Helvetica,sans-Serif" font-size="10.00">+</text>
<text text-anchor="start" x="403.2" y="-433.5" font-family="Helvetica,sans-Serif" font-size="10.00">T Value</text>
<text text-anchor="start" x="392.7" y="-418.5" font-family="Helvetica,sans-Serif" font-size="10.00">&#45;</text>
<text text-anchor="start" x="403.2" y="-418.5" font-family="Helvetica,sans-Serif" font-size="10.00">string&lt; Name &gt; k__Backing</text>
<text text-anchor="start" x="403.2" y="-407.5" font-family="Helvetica,sans-Serif" font-size="10.00">Field</text>
<text text-anchor="start" x="392.7" y="-392.5" font-family="Helvetica,sans-Serif" font-size="10.00">&#45;</text>
<text text-anchor="start" x="403.2" y="-392.5" font-family="Helvetica,sans-Serif" font-size="10.00">AssetState&lt; State &gt;</text>
<text text-anchor="start" x="403.2" y="-381.5" font-family="Helvetica,sans-Serif" font-size="10.00"> k__BackingField</text>
<text text-anchor="start" x="392.7" y="-366.5" font-family="Helvetica,sans-Serif" font-size="10.00">&#45;</text>
<text text-anchor="start" x="403.2" y="-366.5" font-family="Helvetica,sans-Serif" font-size="10.00">bool&lt; IsDisposed &gt;</text>
<text text-anchor="start" x="403.2" y="-355.5" font-family="Helvetica,sans-Serif" font-size="10.00"> k__BackingField</text>
<text text-anchor="start" x="392.7" y="-340.5" font-family="Helvetica,sans-Serif" font-size="10.00">&#45;</text>
<text text-anchor="start" x="403.2" y="-340.5" font-family="Helvetica,sans-Serif" font-size="10.00">IContentSource&lt; Source</text>
<text text-anchor="start" x="403.2" y="-329.5" font-family="Helvetica,sans-Serif" font-size="10.00"> &gt; k__BackingField</text>
<text text-anchor="start" x="392.7" y="-314.5" font-family="Helvetica,sans-Serif" font-size="10.00">&#45;</text>
<text text-anchor="start" x="403.2" y="-314.5" font-family="Helvetica,sans-Serif" font-size="10.00">T&lt; Value &gt; k__BackingField</text>
<text text-anchor="start" x="390.2" y="-299.5" font-family="Helvetica,sans-Serif" font-size="10.00">+</text>
<text text-anchor="start" x="403.2" y="-299.5" font-family="Helvetica,sans-Serif" font-size="10.00">void ActionUnityLoad()</text>
<text text-anchor="start" x="390.2" y="-284.5" font-family="Helvetica,sans-Serif" font-size="10.00">+</text>
<text text-anchor="start" x="403.2" y="-284.5" font-family="Helvetica,sans-Serif" font-size="10.00">void Dispose()</text>
<text text-anchor="start" x="390.2" y="-269.5" font-family="Helvetica,sans-Serif" font-size="10.00">+</text>
<text text-anchor="start" x="403.2" y="-269.5" font-family="Helvetica,sans-Serif" font-size="10.00">static operator T(Asset</text>
<text text-anchor="start" x="403.2" y="-258.5" font-family="Helvetica,sans-Serif" font-size="10.00">&lt; T &gt; asset)</text>
<text text-anchor="start" x="390.2" y="-243.5" font-family="Helvetica,sans-Serif" font-size="10.00">~</text>
<text text-anchor="start" x="403.2" y="-243.5" font-family="Helvetica,sans-Serif" font-size="10.00">Asset(string name)</text>
<text text-anchor="start" x="390.2" y="-228.5" font-family="Helvetica,sans-Serif" font-size="10.00">~</text>
<text text-anchor="start" x="403.2" y="-228.5" font-family="Helvetica,sans-Serif" font-size="10.00">void Unload()</text>
<text text-anchor="start" x="390.2" y="-213.5" font-family="Helvetica,sans-Serif" font-size="10.00">~</text>
<text text-anchor="start" x="403.2" y="-213.5" font-family="Helvetica,sans-Serif" font-size="10.00">void SubmitLoadedContent</text>
<text text-anchor="start" x="403.2" y="-202.5" font-family="Helvetica,sans-Serif" font-size="10.00">(T value, IContentSource</text>
<text text-anchor="start" x="403.2" y="-191.5" font-family="Helvetica,sans-Serif" font-size="10.00"> source)</text>
<text text-anchor="start" x="390.2" y="-176.5" font-family="Helvetica,sans-Serif" font-size="10.00">~</text>
<text text-anchor="start" x="403.2" y="-176.5" font-family="Helvetica,sans-Serif" font-size="10.00">void SetToLoadingState()</text>
<text text-anchor="start" x="392.7" y="-161.5" font-family="Helvetica,sans-Serif" font-size="10.00">&#45;</text>
<text text-anchor="start" x="403.2" y="-161.5" font-family="Helvetica,sans-Serif" font-size="10.00">void Dispose(bool disposing)</text>
<text text-anchor="start" x="392.7" y="-146.5" font-family="Helvetica,sans-Serif" font-size="10.00">&#45;</text>
<text text-anchor="start" x="403.2" y="-146.5" font-family="Helvetica,sans-Serif" font-size="10.00">static Asset()</text>
<polygon fill="#666666" stroke="#666666" points="386.2,-544.5 386.2,-544.5 549.2,-544.5 549.2,-544.5 386.2,-544.5"/>
<polygon fill="#666666" stroke="#666666" points="386.2,-309.5 386.2,-309.5 401.2,-309.5 401.2,-309.5 386.2,-309.5"/>
<polygon fill="#666666" stroke="#666666" points="401.2,-309.5 401.2,-309.5 549.2,-309.5 549.2,-309.5 401.2,-309.5"/>
<polygon fill="none" stroke="#666666" points="385.7,-140 385.7,-573 548.7,-573 548.7,-140 385.7,-140"/>
</a>
</g>
</g>
<!-- Node2&#45;&gt;Node1 -->
<g id="edge1_Node000001_Node000002" class="edge">
<title>Node2&#45;&gt;Node1</title>
<g id="a_edge1_Node000001_Node000002"><a xlink:title=" ">
<path fill="none" stroke="#63b8ff" d="M467.2,-139.96C467.2,-114.47 467.2,-90.95 467.2,-72.34"/>
<polygon fill="none" stroke="#63b8ff" points="467.2,-72.28 463.2,-66.28 467.2,-60.28 471.2,-66.28 467.2,-72.28"/>
</a>
</g>
<text text-anchor="middle" x="502.2" y="-114" font-family="Helvetica,sans-Serif" font-size="10.00" fill="grey"> +CombatText</text>
<text text-anchor="middle" x="502.2" y="-103" font-family="Helvetica,sans-Serif" font-size="10.00" fill="grey">+DeathText</text>
<text text-anchor="middle" x="502.2" y="-92" font-family="Helvetica,sans-Serif" font-size="10.00" fill="grey">+ItemStack</text>
<text text-anchor="middle" x="502.2" y="-81" font-family="Helvetica,sans-Serif" font-size="10.00" fill="grey">+MouseText</text>
</g>
<!-- Node3 -->
<g id="Node000003" class="node">
<title>Node3</title>
<g id="a_Node000003"><a xlink:href="../../da/d68/classReLogic_1_1Content_1_1Asset.html" target="_top" xlink:title=" ">
<polygon fill="white" stroke="transparent" points="548.7,-897 385.7,-897 385.7,-620 548.7,-620 548.7,-897"/>
<text text-anchor="start" x="398.2" y="-884.5" font-family="Helvetica,sans-Serif" font-size="10.00">ReLogic.Content.Asset&lt; T &gt;</text>
<text text-anchor="start" x="390.2" y="-869.5" font-family="Helvetica,sans-Serif" font-size="10.00">+</text>
<text text-anchor="start" x="403.2" y="-869.5" font-family="Helvetica,sans-Serif" font-size="10.00">string Name</text>
<text text-anchor="start" x="390.2" y="-854.5" font-family="Helvetica,sans-Serif" font-size="10.00">+</text>
<text text-anchor="start" x="403.2" y="-854.5" font-family="Helvetica,sans-Serif" font-size="10.00">bool IsLoaded</text>
<text text-anchor="start" x="390.2" y="-839.5" font-family="Helvetica,sans-Serif" font-size="10.00">+</text>
<text text-anchor="start" x="403.2" y="-839.5" font-family="Helvetica,sans-Serif" font-size="10.00">AssetState State</text>
<text text-anchor="start" x="390.2" y="-824.5" font-family="Helvetica,sans-Serif" font-size="10.00">+</text>
<text text-anchor="start" x="403.2" y="-824.5" font-family="Helvetica,sans-Serif" font-size="10.00">bool IsDisposed</text>
<text text-anchor="start" x="390.2" y="-809.5" font-family="Helvetica,sans-Serif" font-size="10.00">+</text>
<text text-anchor="start" x="403.2" y="-809.5" font-family="Helvetica,sans-Serif" font-size="10.00">IContentSource Source</text>
<text text-anchor="start" x="390.2" y="-794.5" font-family="Helvetica,sans-Serif" font-size="10.00">+</text>
<text text-anchor="start" x="403.2" y="-794.5" font-family="Helvetica,sans-Serif" font-size="10.00">T Value</text>
<text text-anchor="start" x="390.2" y="-779.5" font-family="Helvetica,sans-Serif" font-size="10.00">+</text>
<text text-anchor="start" x="403.2" y="-779.5" font-family="Helvetica,sans-Serif" font-size="10.00">void ActionUnityLoad()</text>
<text text-anchor="start" x="390.2" y="-764.5" font-family="Helvetica,sans-Serif" font-size="10.00">+</text>
<text text-anchor="start" x="403.2" y="-764.5" font-family="Helvetica,sans-Serif" font-size="10.00">void Dispose()</text>
<text text-anchor="start" x="390.2" y="-749.5" font-family="Helvetica,sans-Serif" font-size="10.00">+</text>
<text text-anchor="start" x="403.2" y="-749.5" font-family="Helvetica,sans-Serif" font-size="10.00">static operator T(Asset</text>
<text text-anchor="start" x="403.2" y="-738.5" font-family="Helvetica,sans-Serif" font-size="10.00">&lt; T &gt; asset)</text>
<text text-anchor="start" x="390.2" y="-723.5" font-family="Helvetica,sans-Serif" font-size="10.00">~</text>
<text text-anchor="start" x="403.2" y="-723.5" font-family="Helvetica,sans-Serif" font-size="10.00">Asset(string name)</text>
<text text-anchor="start" x="390.2" y="-708.5" font-family="Helvetica,sans-Serif" font-size="10.00">~</text>
<text text-anchor="start" x="403.2" y="-708.5" font-family="Helvetica,sans-Serif" font-size="10.00">void Unload()</text>
<text text-anchor="start" x="390.2" y="-693.5" font-family="Helvetica,sans-Serif" font-size="10.00">~</text>
<text text-anchor="start" x="403.2" y="-693.5" font-family="Helvetica,sans-Serif" font-size="10.00">void SubmitLoadedContent</text>
<text text-anchor="start" x="403.2" y="-682.5" font-family="Helvetica,sans-Serif" font-size="10.00">(T value, IContentSource</text>
<text text-anchor="start" x="403.2" y="-671.5" font-family="Helvetica,sans-Serif" font-size="10.00"> source)</text>
<text text-anchor="start" x="390.2" y="-656.5" font-family="Helvetica,sans-Serif" font-size="10.00">~</text>
<text text-anchor="start" x="403.2" y="-656.5" font-family="Helvetica,sans-Serif" font-size="10.00">void SetToLoadingState()</text>
<text text-anchor="start" x="392.7" y="-641.5" font-family="Helvetica,sans-Serif" font-size="10.00">&#45;</text>
<text text-anchor="start" x="403.2" y="-641.5" font-family="Helvetica,sans-Serif" font-size="10.00">void Dispose(bool disposing)</text>
<text text-anchor="start" x="392.7" y="-626.5" font-family="Helvetica,sans-Serif" font-size="10.00">&#45;</text>
<text text-anchor="start" x="403.2" y="-626.5" font-family="Helvetica,sans-Serif" font-size="10.00">static Asset()</text>
<polygon fill="#666666" stroke="#666666" points="386.2,-879.5 386.2,-879.5 549.2,-879.5 549.2,-879.5 386.2,-879.5"/>
<polygon fill="#666666" stroke="#666666" points="386.2,-789.5 386.2,-789.5 401.2,-789.5 401.2,-789.5 386.2,-789.5"/>
<polygon fill="#666666" stroke="#666666" points="401.2,-789.5 401.2,-789.5 549.2,-789.5 549.2,-789.5 401.2,-789.5"/>
<polygon fill="none" stroke="#666666" points="385.7,-620 385.7,-897 548.7,-897 548.7,-620 385.7,-620"/>
</a>
</g>
</g>
<!-- Node3&#45;&gt;Node2 -->
<g id="edge2_Node000002_Node000003" class="edge">
<title>Node3&#45;&gt;Node2</title>
<g id="a_edge2_Node000002_Node000003"><a xlink:title=" ">
<path fill="none" stroke="orange" d="M467.2,-609.83C467.2,-597.84 467.2,-585.57 467.2,-573.23"/>
<polygon fill="orange" stroke="orange" points="463.7,-609.84 467.2,-619.84 470.7,-609.84 463.7,-609.84"/>
</a>
</g>
<text text-anchor="middle" x="505.2" y="-594" font-family="Helvetica,sans-Serif" font-size="10.00" fill="grey"> &lt; SpriteFont &gt;</text>
</g>
<!-- Node4 -->
<g id="Node000004" class="node">
<title>Node4</title>
<g id="a_Node000004"><a xlink:href="../../d1/d01/interfaceReLogic_1_1Content_1_1IAsset.html" target="_top" xlink:title=" ">
<polygon fill="white" stroke="transparent" points="179.7,-1104.5 46.7,-1104.5 46.7,-995.5 179.7,-995.5 179.7,-1104.5"/>
<text text-anchor="start" x="98.2" y="-1092" font-family="Helvetica,sans-Serif" font-size="10.00">IAsset</text>
<text text-anchor="start" x="51.2" y="-1077" font-family="Helvetica,sans-Serif" font-size="10.00">+</text>
<text text-anchor="start" x="64.2" y="-1077" font-family="Helvetica,sans-Serif" font-size="10.00">AssetState State</text>
<text text-anchor="start" x="51.2" y="-1062" font-family="Helvetica,sans-Serif" font-size="10.00">+</text>
<text text-anchor="start" x="64.2" y="-1062" font-family="Helvetica,sans-Serif" font-size="10.00">IContentSource Source</text>
<text text-anchor="start" x="51.2" y="-1047" font-family="Helvetica,sans-Serif" font-size="10.00">+</text>
<text text-anchor="start" x="64.2" y="-1047" font-family="Helvetica,sans-Serif" font-size="10.00">string Name</text>
<text text-anchor="start" x="51.2" y="-1032" font-family="Helvetica,sans-Serif" font-size="10.00">+</text>
<text text-anchor="start" x="64.2" y="-1032" font-family="Helvetica,sans-Serif" font-size="10.00">bool IsLoaded</text>
<text text-anchor="start" x="51.2" y="-1017" font-family="Helvetica,sans-Serif" font-size="10.00">+</text>
<text text-anchor="start" x="64.2" y="-1017" font-family="Helvetica,sans-Serif" font-size="10.00">bool IsDisposed</text>
<text text-anchor="start" x="51.2" y="-1002" font-family="Helvetica,sans-Serif" font-size="10.00">+</text>
<text text-anchor="start" x="64.2" y="-1002" font-family="Helvetica,sans-Serif" font-size="10.00">void ActionUnityLoad()</text>
<polygon fill="#666666" stroke="#666666" points="47.2,-1087 47.2,-1087 180.2,-1087 180.2,-1087 47.2,-1087"/>
<polygon fill="#666666" stroke="#666666" points="47.2,-1012 47.2,-1012 62.2,-1012 62.2,-1012 47.2,-1012"/>
<polygon fill="#666666" stroke="#666666" points="62.2,-1012 62.2,-1012 180.2,-1012 180.2,-1012 62.2,-1012"/>
<polygon fill="none" stroke="#666666" points="46.7,-995.5 46.7,-1104.5 179.7,-1104.5 179.7,-995.5 46.7,-995.5"/>
</a>
</g>
</g>
<!-- Node4&#45;&gt;Node3 -->
<g id="edge3_Node000003_Node000004" class="edge">
<title>Node4&#45;&gt;Node3</title>
<g id="a_edge3_Node000003_Node000004"><a xlink:title=" ">
<path fill="none" stroke="#63b8ff" d="M152.42,-987.04C163.36,-972.09 175.92,-956.76 189.2,-944 248.32,-887.23 327.02,-836.85 385.59,-803.14"/>
<polygon fill="none" stroke="#63b8ff" points="149.49,-985.13 146.52,-995.3 155.18,-989.2 149.49,-985.13"/>
</a>
</g>
</g>
<!-- Node5 -->
<g id="Node000005" class="node">
<title>Node5</title>
<g id="a_Node000005"><a xlink:href="../../d6/d32/interfaceSystem_1_1IDisposable.html" target="_top" xlink:title=" ">
<polygon fill="white" stroke="transparent" points="94.2,-1333.5 2.2,-1333.5 2.2,-1284.5 94.2,-1284.5 94.2,-1333.5"/>
<text text-anchor="start" x="19.2" y="-1321" font-family="Helvetica,sans-Serif" font-size="10.00">IDisposable</text>
<text text-anchor="start" x="46.2" y="-1306" font-family="Helvetica,sans-Serif" font-size="10.00"> </text>
<text text-anchor="start" x="6.2" y="-1291" font-family="Helvetica,sans-Serif" font-size="10.00">+</text>
<text text-anchor="start" x="19.2" y="-1291" font-family="Helvetica,sans-Serif" font-size="10.00">void Dispose()</text>
<polygon fill="#666666" stroke="#666666" points="2.2,-1316 2.2,-1316 94.2,-1316 94.2,-1316 2.2,-1316"/>
<polygon fill="#666666" stroke="#666666" points="2.2,-1301 2.2,-1301 94.2,-1301 94.2,-1301 2.2,-1301"/>
<polygon fill="none" stroke="#666666" points="2.2,-1284.5 2.2,-1333.5 94.2,-1333.5 94.2,-1284.5 2.2,-1284.5"/>
</a>
</g>
</g>
<!-- Node5&#45;&gt;Node3 -->
<g id="edge5_Node000003_Node000005" class="edge">
<title>Node5&#45;&gt;Node3</title>
<g id="a_edge5_Node000003_Node000005"><a xlink:title=" ">
<path fill="none" stroke="#63b8ff" d="M35.41,-1274.38C11.66,-1205.78 -30.97,-1047.43 37.2,-944 114.54,-826.66 283.72,-783.65 385.3,-768.1"/>
<polygon fill="none" stroke="#63b8ff" points="32.26,-1275.96 38.9,-1284.21 38.86,-1273.62 32.26,-1275.96"/>
</a>
</g>
</g>
<!-- Node5&#45;&gt;Node4 -->
<g id="edge4_Node000004_Node000005" class="edge">
<title>Node5&#45;&gt;Node4</title>
<g id="a_edge4_Node000004_Node000005"><a xlink:title=" ">
<path fill="none" stroke="#63b8ff" d="M56.66,-1274.57C67.56,-1231.44 86.67,-1155.91 99.62,-1104.7"/>
<polygon fill="none" stroke="#63b8ff" points="53.26,-1273.73 54.2,-1284.28 60.05,-1275.45 53.26,-1273.73"/>
</a>
</g>
</g>
<!-- Node6 -->
<g id="Node000006" class="node">
<title>Node6</title>
<g id="a_Node000006"><a xlink:title=" ">
<polygon fill="white" stroke="transparent" points="340.2,-1074.5 198.2,-1074.5 198.2,-1025.5 340.2,-1025.5 340.2,-1074.5"/>
<text text-anchor="start" x="203.2" y="-1062" font-family="Helvetica,sans-Serif" font-size="10.00">static readonly Asset&lt; T &gt;</text>
<text text-anchor="start" x="267.2" y="-1047" font-family="Helvetica,sans-Serif" font-size="10.00"> </text>
<text text-anchor="start" x="267.2" y="-1032" font-family="Helvetica,sans-Serif" font-size="10.00"> </text>
<polygon fill="#666666" stroke="#666666" points="198.2,-1057 198.2,-1057 340.2,-1057 340.2,-1057 198.2,-1057"/>
<polygon fill="#666666" stroke="#666666" points="198.2,-1042 198.2,-1042 340.2,-1042 340.2,-1042 198.2,-1042"/>
<polygon fill="none" stroke="#666666" points="198.2,-1025.5 198.2,-1074.5 340.2,-1074.5 340.2,-1025.5 198.2,-1025.5"/>
</a>
</g>
</g>
<!-- Node6&#45;&gt;Node3 -->
<g id="edge6_Node000003_Node000006" class="edge">
<title>Node6&#45;&gt;Node3</title>
<g id="a_edge6_Node000003_Node000006"><a xlink:title=" ">
<path fill="none" stroke="#63b8ff" d="M285.02,-1025.2C302.91,-998.35 332.96,-953.41 359.2,-915 365.53,-905.73 372.09,-896.17 378.71,-886.56"/>
<polygon fill="none" stroke="#63b8ff" points="378.81,-886.42 378.93,-879.21 385.63,-876.54 385.51,-883.75 378.81,-886.42"/>
</a>
</g>
<text text-anchor="middle" x="380.7" y="-918" font-family="Helvetica,sans-Serif" font-size="10.00" fill="grey"> +Empty</text>
</g>
<!-- Node7 -->
<g id="Node000007" class="node">
<title>Node7</title>
<g id="a_Node000007"><a xlink:title=" ">
<polygon fill="white" stroke="transparent" points="448.2,-1074.5 358.2,-1074.5 358.2,-1025.5 448.2,-1025.5 448.2,-1074.5"/>
<text text-anchor="start" x="363.2" y="-1062" font-family="Helvetica,sans-Serif" font-size="10.00">string&lt; Name &gt;</text>
<text text-anchor="start" x="401.2" y="-1047" font-family="Helvetica,sans-Serif" font-size="10.00"> </text>
<text text-anchor="start" x="401.2" y="-1032" font-family="Helvetica,sans-Serif" font-size="10.00"> </text>
<polygon fill="#666666" stroke="#666666" points="358.2,-1057 358.2,-1057 448.2,-1057 448.2,-1057 358.2,-1057"/>
<polygon fill="#666666" stroke="#666666" points="358.2,-1042 358.2,-1042 448.2,-1042 448.2,-1042 358.2,-1042"/>
<polygon fill="none" stroke="#666666" points="358.2,-1025.5 358.2,-1074.5 448.2,-1074.5 448.2,-1025.5 358.2,-1025.5"/>
</a>
</g>
</g>
<!-- Node7&#45;&gt;Node3 -->
<g id="edge7_Node000003_Node000007" class="edge">
<title>Node7&#45;&gt;Node3</title>
<g id="a_edge7_Node000003_Node000007"><a xlink:title=" ">
<path fill="none" stroke="#63b8ff" d="M401.79,-1025.49C400.7,-998.52 400.48,-953.1 408.2,-915 408.62,-912.96 409.05,-910.91 409.51,-908.85"/>
<polygon fill="none" stroke="#63b8ff" points="409.56,-908.67 407.08,-901.9 412.37,-897.01 414.85,-903.78 409.56,-908.67"/>
</a>
</g>
<text text-anchor="middle" x="451.2" y="-918" font-family="Helvetica,sans-Serif" font-size="10.00" fill="grey"> &#45;k__BackingField</text>
</g>
<!-- Node8 -->
<g id="Node000008" class="node">
<title>Node8</title>
<g id="a_Node000008"><a xlink:title=" ">
<polygon fill="white" stroke="transparent" points="422.2,-1333.5 384.2,-1333.5 384.2,-1284.5 422.2,-1284.5 422.2,-1333.5"/>
<text text-anchor="start" x="389.2" y="-1321" font-family="Helvetica,sans-Serif" font-size="10.00">string</text>
<text text-anchor="start" x="401.2" y="-1306" font-family="Helvetica,sans-Serif" font-size="10.00"> </text>
<text text-anchor="start" x="401.2" y="-1291" font-family="Helvetica,sans-Serif" font-size="10.00"> </text>
<polygon fill="#666666" stroke="#666666" points="384.2,-1316 384.2,-1316 422.2,-1316 422.2,-1316 384.2,-1316"/>
<polygon fill="#666666" stroke="#666666" points="384.2,-1301 384.2,-1301 422.2,-1301 422.2,-1301 384.2,-1301"/>
<polygon fill="none" stroke="#666666" points="384.2,-1284.5 384.2,-1333.5 422.2,-1333.5 422.2,-1284.5 384.2,-1284.5"/>
</a>
</g>
</g>
<!-- Node8&#45;&gt;Node7 -->
<g id="edge8_Node000007_Node000008" class="edge">
<title>Node8&#45;&gt;Node7</title>
<g id="a_edge8_Node000007_Node000008"><a xlink:title=" ">
<path fill="none" stroke="orange" d="M403.2,-1274.07C403.2,-1221.18 403.2,-1120.42 403.2,-1074.66"/>
<polygon fill="orange" stroke="orange" points="399.7,-1274.28 403.2,-1284.28 406.7,-1274.28 399.7,-1274.28"/>
</a>
</g>
<text text-anchor="middle" x="430.7" y="-1177" font-family="Helvetica,sans-Serif" font-size="10.00" fill="grey"> &lt; Name &gt;</text>
</g>
<!-- Node9 -->
<g id="Node000009" class="node">
<title>Node9</title>
<g id="a_Node000009"><a xlink:title=" ">
<polygon fill="white" stroke="transparent" points="577.7,-1074.5 466.7,-1074.5 466.7,-1025.5 577.7,-1025.5 577.7,-1074.5"/>
<text text-anchor="start" x="472.2" y="-1062" font-family="Helvetica,sans-Serif" font-size="10.00">AssetState&lt; State &gt;</text>
<text text-anchor="start" x="520.7" y="-1047" font-family="Helvetica,sans-Serif" font-size="10.00"> </text>
<text text-anchor="start" x="520.7" y="-1032" font-family="Helvetica,sans-Serif" font-size="10.00"> </text>
<polygon fill="#666666" stroke="#666666" points="467.2,-1057 467.2,-1057 578.2,-1057 578.2,-1057 467.2,-1057"/>
<polygon fill="#666666" stroke="#666666" points="467.2,-1042 467.2,-1042 578.2,-1042 578.2,-1042 467.2,-1042"/>
<polygon fill="none" stroke="#666666" points="466.7,-1025.5 466.7,-1074.5 577.7,-1074.5 577.7,-1025.5 466.7,-1025.5"/>
</a>
</g>
</g>
<!-- Node9&#45;&gt;Node3 -->
<g id="edge9_Node000003_Node000009" class="edge">
<title>Node9&#45;&gt;Node3</title>
<g id="a_edge9_Node000003_Node000009"><a xlink:title=" ">
<path fill="none" stroke="#63b8ff" d="M518.09,-1025.25C513.42,-998.45 505.5,-953.55 498.2,-915 497.84,-913.09 497.48,-911.17 497.11,-909.24"/>
<polygon fill="none" stroke="#63b8ff" points="497.07,-909.04 492.01,-903.9 494.81,-897.26 499.87,-902.4 497.07,-909.04"/>
</a>
</g>
<text text-anchor="middle" x="543.2" y="-918" font-family="Helvetica,sans-Serif" font-size="10.00" fill="grey"> &#45;k__BackingField</text>
</g>
<!-- Node10 -->
<g id="Node000010" class="node">
<title>Node10</title>
<g id="a_Node000010"><a xlink:title=" ">
<polygon fill="white" stroke="transparent" points="702.7,-1074.5 595.7,-1074.5 595.7,-1025.5 702.7,-1025.5 702.7,-1074.5"/>
<text text-anchor="start" x="601.2" y="-1062" font-family="Helvetica,sans-Serif" font-size="10.00">bool&lt; IsDisposed &gt;</text>
<text text-anchor="start" x="647.7" y="-1047" font-family="Helvetica,sans-Serif" font-size="10.00"> </text>
<text text-anchor="start" x="647.7" y="-1032" font-family="Helvetica,sans-Serif" font-size="10.00"> </text>
<polygon fill="#666666" stroke="#666666" points="596.2,-1057 596.2,-1057 703.2,-1057 703.2,-1057 596.2,-1057"/>
<polygon fill="#666666" stroke="#666666" points="596.2,-1042 596.2,-1042 703.2,-1042 703.2,-1042 596.2,-1042"/>
<polygon fill="none" stroke="#666666" points="595.7,-1025.5 595.7,-1074.5 702.7,-1074.5 702.7,-1025.5 595.7,-1025.5"/>
</a>
</g>
</g>
<!-- Node10&#45;&gt;Node3 -->
<g id="edge10_Node000003_Node000010" class="edge">
<title>Node10&#45;&gt;Node3</title>
<g id="a_edge10_Node000003_Node000010"><a xlink:title=" ">
<path fill="none" stroke="#63b8ff" d="M640.89,-1025.35C630.76,-997.86 612.23,-951.58 590.2,-915 580.13,-898.27 568.48,-881.32 556.45,-865.07"/>
<polygon fill="none" stroke="#63b8ff" points="556.13,-864.64 549.33,-862.25 548.92,-855.05 555.72,-857.44 556.13,-864.64"/>
</a>
</g>
<text text-anchor="middle" x="638.2" y="-918" font-family="Helvetica,sans-Serif" font-size="10.00" fill="grey"> &#45;k__BackingField</text>
</g>
<!-- Node11 -->
<g id="Node000011" class="node">
<title>Node11</title>
<g id="a_Node000011"><a xlink:title=" ">
<polygon fill="white" stroke="transparent" points="665.2,-1333.5 633.2,-1333.5 633.2,-1284.5 665.2,-1284.5 665.2,-1333.5"/>
<text text-anchor="start" x="638.2" y="-1321" font-family="Helvetica,sans-Serif" font-size="10.00">bool</text>
<text text-anchor="start" x="647.2" y="-1306" font-family="Helvetica,sans-Serif" font-size="10.00"> </text>
<text text-anchor="start" x="647.2" y="-1291" font-family="Helvetica,sans-Serif" font-size="10.00"> </text>
<polygon fill="#666666" stroke="#666666" points="633.2,-1316 633.2,-1316 665.2,-1316 665.2,-1316 633.2,-1316"/>
<polygon fill="#666666" stroke="#666666" points="633.2,-1301 633.2,-1301 665.2,-1301 665.2,-1301 633.2,-1301"/>
<polygon fill="none" stroke="#666666" points="633.2,-1284.5 633.2,-1333.5 665.2,-1333.5 665.2,-1284.5 633.2,-1284.5"/>
</a>
</g>
</g>
<!-- Node11&#45;&gt;Node10 -->
<g id="edge11_Node000010_Node000011" class="edge">
<title>Node11&#45;&gt;Node10</title>
<g id="a_edge11_Node000010_Node000011"><a xlink:title=" ">
<path fill="none" stroke="orange" d="M649.2,-1274.07C649.2,-1221.18 649.2,-1120.42 649.2,-1074.66"/>
<polygon fill="orange" stroke="orange" points="645.7,-1274.28 649.2,-1284.28 652.7,-1274.28 645.7,-1274.28"/>
</a>
</g>
<text text-anchor="middle" x="688.7" y="-1177" font-family="Helvetica,sans-Serif" font-size="10.00" fill="grey"> &lt; IsDisposed &gt;</text>
</g>
<!-- Node12 -->
<g id="Node000012" class="node">
<title>Node12</title>
<g id="a_Node000012"><a xlink:href="../../de/d36/interfaceReLogic_1_1Content_1_1Sources_1_1IContentSource.html" target="_top" xlink:title=" ">
<polygon fill="white" stroke="transparent" points="905.2,-1156 721.2,-1156 721.2,-944 905.2,-944 905.2,-1156"/>
<text text-anchor="start" x="748.2" y="-1144" font-family="Helvetica,sans-Serif" font-size="10.00">ReLogic.Content.Sources.</text>
<text text-anchor="start" x="748.2" y="-1133" font-family="Helvetica,sans-Serif" font-size="10.00">IContentSource&lt; Source &gt;</text>
<text text-anchor="start" x="725.2" y="-1118" font-family="Helvetica,sans-Serif" font-size="10.00">+</text>
<text text-anchor="start" x="738.2" y="-1118" font-family="Helvetica,sans-Serif" font-size="10.00">IContentValidator Content</text>
<text text-anchor="start" x="738.2" y="-1107" font-family="Helvetica,sans-Serif" font-size="10.00">Validator</text>
<text text-anchor="start" x="725.2" y="-1092" font-family="Helvetica,sans-Serif" font-size="10.00">+</text>
<text text-anchor="start" x="738.2" y="-1092" font-family="Helvetica,sans-Serif" font-size="10.00">bool HasAsset(string</text>
<text text-anchor="start" x="738.2" y="-1081" font-family="Helvetica,sans-Serif" font-size="10.00"> assetName)</text>
<text text-anchor="start" x="725.2" y="-1066" font-family="Helvetica,sans-Serif" font-size="10.00">+</text>
<text text-anchor="start" x="738.2" y="-1066" font-family="Helvetica,sans-Serif" font-size="10.00">string GetExtension</text>
<text text-anchor="start" x="738.2" y="-1055" font-family="Helvetica,sans-Serif" font-size="10.00">(string assetName)</text>
<text text-anchor="start" x="725.2" y="-1040" font-family="Helvetica,sans-Serif" font-size="10.00">+</text>
<text text-anchor="start" x="738.2" y="-1040" font-family="Helvetica,sans-Serif" font-size="10.00">Stream OpenStream(string</text>
<text text-anchor="start" x="738.2" y="-1029" font-family="Helvetica,sans-Serif" font-size="10.00"> assetName)</text>
<text text-anchor="start" x="725.2" y="-1014" font-family="Helvetica,sans-Serif" font-size="10.00">+</text>
<text text-anchor="start" x="738.2" y="-1014" font-family="Helvetica,sans-Serif" font-size="10.00">void RejectAsset(string</text>
<text text-anchor="start" x="738.2" y="-1003" font-family="Helvetica,sans-Serif" font-size="10.00"> assetName, IRejectionReason</text>
<text text-anchor="start" x="738.2" y="-992" font-family="Helvetica,sans-Serif" font-size="10.00"> reason)</text>
<text text-anchor="start" x="725.2" y="-977" font-family="Helvetica,sans-Serif" font-size="10.00">+</text>
<text text-anchor="start" x="738.2" y="-977" font-family="Helvetica,sans-Serif" font-size="10.00">void ClearRejections()</text>
<text text-anchor="start" x="725.2" y="-962" font-family="Helvetica,sans-Serif" font-size="10.00">+</text>
<text text-anchor="start" x="738.2" y="-962" font-family="Helvetica,sans-Serif" font-size="10.00">bool TryGetRejections</text>
<text text-anchor="start" x="738.2" y="-951" font-family="Helvetica,sans-Serif" font-size="10.00">(List&lt; string &gt; rejectionReasons)</text>
<polygon fill="#666666" stroke="#666666" points="721.2,-1128 721.2,-1128 905.2,-1128 905.2,-1128 721.2,-1128"/>
<polygon fill="#666666" stroke="#666666" points="721.2,-1102 721.2,-1102 736.2,-1102 736.2,-1102 721.2,-1102"/>
<polygon fill="#666666" stroke="#666666" points="736.2,-1102 736.2,-1102 905.2,-1102 905.2,-1102 736.2,-1102"/>
<polygon fill="none" stroke="#666666" points="721.2,-944 721.2,-1156 905.2,-1156 905.2,-944 721.2,-944"/>
</a>
</g>
</g>
<!-- Node12&#45;&gt;Node3 -->
<g id="edge12_Node000003_Node000012" class="edge">
<title>Node12&#45;&gt;Node3</title>
<g id="a_edge12_Node000003_Node000012"><a xlink:title=" ">
<path fill="none" stroke="#63b8ff" d="M720.84,-948.1C709.16,-936.6 697.12,-925.32 685.2,-915 645.77,-880.83 599.01,-846.73 558.92,-819.21"/>
<polygon fill="none" stroke="#63b8ff" points="558.8,-819.13 551.59,-819.05 548.89,-812.36 556.1,-812.44 558.8,-819.13"/>
</a>
</g>
<text text-anchor="middle" x="739.2" y="-918" font-family="Helvetica,sans-Serif" font-size="10.00" fill="grey"> &#45;k__BackingField</text>
</g>
<!-- Node13 -->
<g id="Node000013" class="node">
<title>Node13</title>
<g id="a_Node000013"><a xlink:href="../../de/d36/interfaceReLogic_1_1Content_1_1Sources_1_1IContentSource.html" target="_top" xlink:title=" ">
<polygon fill="white" stroke="transparent" points="905.2,-1415 721.2,-1415 721.2,-1203 905.2,-1203 905.2,-1415"/>
<text text-anchor="start" x="751.2" y="-1403" font-family="Helvetica,sans-Serif" font-size="10.00">ReLogic.Content.Sources.</text>
<text text-anchor="start" x="775.7" y="-1392" font-family="Helvetica,sans-Serif" font-size="10.00">IContentSource</text>
<text text-anchor="start" x="725.2" y="-1377" font-family="Helvetica,sans-Serif" font-size="10.00">+</text>
<text text-anchor="start" x="738.2" y="-1377" font-family="Helvetica,sans-Serif" font-size="10.00">IContentValidator Content</text>
<text text-anchor="start" x="738.2" y="-1366" font-family="Helvetica,sans-Serif" font-size="10.00">Validator</text>
<text text-anchor="start" x="725.2" y="-1351" font-family="Helvetica,sans-Serif" font-size="10.00">+</text>
<text text-anchor="start" x="738.2" y="-1351" font-family="Helvetica,sans-Serif" font-size="10.00">bool HasAsset(string</text>
<text text-anchor="start" x="738.2" y="-1340" font-family="Helvetica,sans-Serif" font-size="10.00"> assetName)</text>
<text text-anchor="start" x="725.2" y="-1325" font-family="Helvetica,sans-Serif" font-size="10.00">+</text>
<text text-anchor="start" x="738.2" y="-1325" font-family="Helvetica,sans-Serif" font-size="10.00">string GetExtension</text>
<text text-anchor="start" x="738.2" y="-1314" font-family="Helvetica,sans-Serif" font-size="10.00">(string assetName)</text>
<text text-anchor="start" x="725.2" y="-1299" font-family="Helvetica,sans-Serif" font-size="10.00">+</text>
<text text-anchor="start" x="738.2" y="-1299" font-family="Helvetica,sans-Serif" font-size="10.00">Stream OpenStream(string</text>
<text text-anchor="start" x="738.2" y="-1288" font-family="Helvetica,sans-Serif" font-size="10.00"> assetName)</text>
<text text-anchor="start" x="725.2" y="-1273" font-family="Helvetica,sans-Serif" font-size="10.00">+</text>
<text text-anchor="start" x="738.2" y="-1273" font-family="Helvetica,sans-Serif" font-size="10.00">void RejectAsset(string</text>
<text text-anchor="start" x="738.2" y="-1262" font-family="Helvetica,sans-Serif" font-size="10.00"> assetName, IRejectionReason</text>
<text text-anchor="start" x="738.2" y="-1251" font-family="Helvetica,sans-Serif" font-size="10.00"> reason)</text>
<text text-anchor="start" x="725.2" y="-1236" font-family="Helvetica,sans-Serif" font-size="10.00">+</text>
<text text-anchor="start" x="738.2" y="-1236" font-family="Helvetica,sans-Serif" font-size="10.00">void ClearRejections()</text>
<text text-anchor="start" x="725.2" y="-1221" font-family="Helvetica,sans-Serif" font-size="10.00">+</text>
<text text-anchor="start" x="738.2" y="-1221" font-family="Helvetica,sans-Serif" font-size="10.00">bool TryGetRejections</text>
<text text-anchor="start" x="738.2" y="-1210" font-family="Helvetica,sans-Serif" font-size="10.00">(List&lt; string &gt; rejectionReasons)</text>
<polygon fill="#666666" stroke="#666666" points="721.2,-1387 721.2,-1387 905.2,-1387 905.2,-1387 721.2,-1387"/>
<polygon fill="#666666" stroke="#666666" points="721.2,-1361 721.2,-1361 736.2,-1361 736.2,-1361 721.2,-1361"/>
<polygon fill="#666666" stroke="#666666" points="736.2,-1361 736.2,-1361 905.2,-1361 905.2,-1361 736.2,-1361"/>
<polygon fill="none" stroke="#666666" points="721.2,-1203 721.2,-1415 905.2,-1415 905.2,-1203 721.2,-1203"/>
</a>
</g>
</g>
<!-- Node13&#45;&gt;Node12 -->
<g id="edge13_Node000012_Node000013" class="edge">
<title>Node13&#45;&gt;Node12</title>
<g id="a_edge13_Node000012_Node000013"><a xlink:title=" ">
<path fill="none" stroke="orange" d="M813.2,-1192.57C813.2,-1180.43 813.2,-1168.13 813.2,-1156.11"/>
<polygon fill="orange" stroke="orange" points="809.7,-1192.73 813.2,-1202.73 816.7,-1192.73 809.7,-1192.73"/>
</a>
</g>
<text text-anchor="middle" x="842.7" y="-1177" font-family="Helvetica,sans-Serif" font-size="10.00" fill="grey"> &lt; Source &gt;</text>
</g>
<!-- Node14 -->
<g id="Node000014" class="node">
<title>Node14</title>
<g id="a_Node000014"><a xlink:title=" ">
<polygon fill="white" stroke="transparent" points="989.2,-1074.5 923.2,-1074.5 923.2,-1025.5 989.2,-1025.5 989.2,-1074.5"/>
<text text-anchor="start" x="928.2" y="-1062" font-family="Helvetica,sans-Serif" font-size="10.00">T&lt; Value &gt;</text>
<text text-anchor="start" x="954.2" y="-1047" font-family="Helvetica,sans-Serif" font-size="10.00"> </text>
<text text-anchor="start" x="954.2" y="-1032" font-family="Helvetica,sans-Serif" font-size="10.00"> </text>
<polygon fill="#666666" stroke="#666666" points="923.2,-1057 923.2,-1057 989.2,-1057 989.2,-1057 923.2,-1057"/>
<polygon fill="#666666" stroke="#666666" points="923.2,-1042 923.2,-1042 989.2,-1042 989.2,-1042 923.2,-1042"/>
<polygon fill="none" stroke="#666666" points="923.2,-1025.5 923.2,-1074.5 989.2,-1074.5 989.2,-1025.5 923.2,-1025.5"/>
</a>
</g>
</g>
<!-- Node14&#45;&gt;Node3 -->
<g id="edge14_Node000003_Node000014" class="edge">
<title>Node14&#45;&gt;Node3</title>
<g id="a_edge14_Node000003_Node000014"><a xlink:title=" ">
<path fill="none" stroke="#63b8ff" d="M952.23,-1025.2C947.18,-1001.77 936.29,-966.33 914.2,-944 817.19,-845.92 660.55,-797.73 560.8,-775.8"/>
<polygon fill="none" stroke="#63b8ff" points="560.66,-775.77 553.95,-778.42 548.93,-773.26 555.63,-770.6 560.66,-775.77"/>
</a>
</g>
<text text-anchor="middle" x="928.2" y="-918" font-family="Helvetica,sans-Serif" font-size="10.00" fill="grey"> &#45;k__BackingField</text>
</g>
</g>
</svg>
