<?xml version="1.0" encoding="UTF-8" standalone="no"?>
<!DOCTYPE svg PUBLIC "-//W3C//DTD SVG 1.1//EN"
 "http://www.w3.org/Graphics/SVG/1.1/DTD/svg11.dtd">
<!-- Generated by graphviz version 2.43.0 (0)
 -->
<!-- Title: Telepathy.Common Pages: 1 -->
<svg width="464pt" height="415pt"
 viewBox="0.00 0.00 463.50 415.00" xmlns="http://www.w3.org/2000/svg" xmlns:xlink="http://www.w3.org/1999/xlink">
<g id="graph0" class="graph" transform="scale(1 1) rotate(0) translate(4 411)">
<title>Telepathy.Common</title>
<!-- Node1 -->
<g id="Node000001" class="node">
<title>Node1</title>
<g id="a_Node000001"><a xlink:title=" ">
<polygon fill="#999999" stroke="transparent" points="361.5,-278 175.5,-278 175.5,0 361.5,0 361.5,-278"/>
<text text-anchor="start" x="221.5" y="-266" font-family="Helvetica,sans-Serif" font-size="10.00">Telepathy.Common</text>
<text text-anchor="start" x="179.5" y="-251" font-family="Helvetica,sans-Serif" font-size="10.00">+</text>
<text text-anchor="start" x="192.5" y="-251" font-family="Helvetica,sans-Serif" font-size="10.00">int ReceiveQueueCount</text>
<text text-anchor="start" x="179.5" y="-236" font-family="Helvetica,sans-Serif" font-size="10.00">+</text>
<text text-anchor="start" x="192.5" y="-236" font-family="Helvetica,sans-Serif" font-size="10.00">bool GetNextMessage</text>
<text text-anchor="start" x="192.5" y="-225" font-family="Helvetica,sans-Serif" font-size="10.00">(out Message message)</text>
<text text-anchor="start" x="179.5" y="-210" font-family="Helvetica,sans-Serif" font-size="10.00">#</text>
<text text-anchor="start" x="192.5" y="-210" font-family="Helvetica,sans-Serif" font-size="10.00">Common()</text>
<text text-anchor="start" x="179.5" y="-195" font-family="Helvetica,sans-Serif" font-size="10.00">#</text>
<text text-anchor="start" x="192.5" y="-195" font-family="Helvetica,sans-Serif" font-size="10.00">static bool SendMessages</text>
<text text-anchor="start" x="192.5" y="-184" font-family="Helvetica,sans-Serif" font-size="10.00">Blocking(NetworkStream</text>
<text text-anchor="start" x="192.5" y="-173" font-family="Helvetica,sans-Serif" font-size="10.00"> stream, byte[][] messages)</text>
<text text-anchor="start" x="179.5" y="-158" font-family="Helvetica,sans-Serif" font-size="10.00">#</text>
<text text-anchor="start" x="192.5" y="-158" font-family="Helvetica,sans-Serif" font-size="10.00">static bool ReadMessageBlocking</text>
<text text-anchor="start" x="192.5" y="-147" font-family="Helvetica,sans-Serif" font-size="10.00">(NetworkStream stream, int</text>
<text text-anchor="start" x="192.5" y="-136" font-family="Helvetica,sans-Serif" font-size="10.00"> MaxMessageSize, out byte[]</text>
<text text-anchor="start" x="192.5" y="-125" font-family="Helvetica,sans-Serif" font-size="10.00"> content)</text>
<text text-anchor="start" x="179.5" y="-110" font-family="Helvetica,sans-Serif" font-size="10.00">#</text>
<text text-anchor="start" x="192.5" y="-110" font-family="Helvetica,sans-Serif" font-size="10.00">static void ReceiveLoop</text>
<text text-anchor="start" x="192.5" y="-99" font-family="Helvetica,sans-Serif" font-size="10.00">(int connectionId, TcpClient</text>
<text text-anchor="start" x="192.5" y="-88" font-family="Helvetica,sans-Serif" font-size="10.00"> client, ConcurrentQueue&lt;</text>
<text text-anchor="start" x="192.5" y="-77" font-family="Helvetica,sans-Serif" font-size="10.00"> Message &gt; receiveQueue, int</text>
<text text-anchor="start" x="192.5" y="-66" font-family="Helvetica,sans-Serif" font-size="10.00"> MaxMessageSize)</text>
<text text-anchor="start" x="179.5" y="-51" font-family="Helvetica,sans-Serif" font-size="10.00">#</text>
<text text-anchor="start" x="192.5" y="-51" font-family="Helvetica,sans-Serif" font-size="10.00">static void SendLoop</text>
<text text-anchor="start" x="192.5" y="-40" font-family="Helvetica,sans-Serif" font-size="10.00">(int connectionId, TcpClient</text>
<text text-anchor="start" x="192.5" y="-29" font-family="Helvetica,sans-Serif" font-size="10.00"> client, SafeQueue&lt; byte[]</text>
<text text-anchor="start" x="192.5" y="-18" font-family="Helvetica,sans-Serif" font-size="10.00">&gt; sendQueue, ManualResetEvent</text>
<text text-anchor="start" x="192.5" y="-7" font-family="Helvetica,sans-Serif" font-size="10.00"> sendPending)</text>
<polygon fill="#666666" stroke="#666666" points="175.5,-261 175.5,-261 361.5,-261 361.5,-261 175.5,-261"/>
<polygon fill="#666666" stroke="#666666" points="175.5,-246 175.5,-246 190.5,-246 190.5,-246 175.5,-246"/>
<polygon fill="#666666" stroke="#666666" points="190.5,-246 190.5,-246 361.5,-246 361.5,-246 190.5,-246"/>
<polygon fill="none" stroke="#666666" points="175.5,0 175.5,-278 361.5,-278 361.5,0 175.5,0"/>
</a>
</g>
</g>
<!-- Node2 -->
<g id="Node000002" class="node">
<title>Node2</title>
<g id="a_Node000002"><a xlink:title=" ">
<polygon fill="white" stroke="transparent" points="155,-407 0,-407 0,-347 155,-347 155,-407"/>
<text text-anchor="start" x="5.5" y="-395" font-family="Helvetica,sans-Serif" font-size="10.00">ConcurrentQueue&lt; Telepathy.</text>
<text text-anchor="start" x="50.5" y="-384" font-family="Helvetica,sans-Serif" font-size="10.00">Message &gt;</text>
<text text-anchor="start" x="76" y="-369" font-family="Helvetica,sans-Serif" font-size="10.00"> </text>
<text text-anchor="start" x="76" y="-354" font-family="Helvetica,sans-Serif" font-size="10.00"> </text>
<polygon fill="#666666" stroke="#666666" points="0.5,-379 0.5,-379 155.5,-379 155.5,-379 0.5,-379"/>
<polygon fill="#666666" stroke="#666666" points="0.5,-364 0.5,-364 155.5,-364 155.5,-364 0.5,-364"/>
<polygon fill="none" stroke="#666666" points="0,-347 0,-407 155,-407 155,-347 0,-347"/>
</a>
</g>
</g>
<!-- Node2&#45;&gt;Node1 -->
<g id="edge1_Node000001_Node000002" class="edge">
<title>Node2&#45;&gt;Node1</title>
<g id="a_edge1_Node000001_Node000002"><a xlink:title=" ">
<path fill="none" stroke="#63b8ff" d="M81.09,-346.67C84.01,-330.81 89.23,-311.37 98.5,-296 116.09,-266.82 140.76,-239.81 165.86,-216.75"/>
<polygon fill="none" stroke="#63b8ff" points="166.19,-216.46 167.98,-209.47 175.11,-208.44 173.32,-215.42 166.19,-216.46"/>
</a>
</g>
<text text-anchor="middle" x="138" y="-310" font-family="Helvetica,sans-Serif" font-size="10.00" fill="grey"> #receiveQueue</text>
</g>
<!-- Node3 -->
<g id="Node000003" class="node">
<title>Node3</title>
<g id="a_Node000003"><a xlink:title=" ">
<polygon fill="white" stroke="transparent" points="196,-401.5 173,-401.5 173,-352.5 196,-352.5 196,-401.5"/>
<text text-anchor="start" x="178.5" y="-389" font-family="Helvetica,sans-Serif" font-size="10.00">int</text>
<text text-anchor="start" x="183" y="-374" font-family="Helvetica,sans-Serif" font-size="10.00"> </text>
<text text-anchor="start" x="183" y="-359" font-family="Helvetica,sans-Serif" font-size="10.00"> </text>
<polygon fill="#666666" stroke="#666666" points="173.5,-384 173.5,-384 196.5,-384 196.5,-384 173.5,-384"/>
<polygon fill="#666666" stroke="#666666" points="173.5,-369 173.5,-369 196.5,-369 196.5,-369 173.5,-369"/>
<polygon fill="none" stroke="#666666" points="173,-352.5 173,-401.5 196,-401.5 196,-352.5 173,-352.5"/>
</a>
</g>
</g>
<!-- Node3&#45;&gt;Node1 -->
<g id="edge2_Node000001_Node000003" class="edge">
<title>Node3&#45;&gt;Node1</title>
<g id="a_edge2_Node000001_Node000003"><a xlink:title=" ">
<path fill="none" stroke="#63b8ff" d="M181.89,-352.16C180.82,-336.05 180.78,-314.43 185.5,-296 186.02,-293.96 186.58,-291.91 187.16,-289.86"/>
<polygon fill="none" stroke="#63b8ff" points="187.25,-289.59 185.22,-282.67 190.82,-278.14 192.85,-285.06 187.25,-289.59"/>
</a>
</g>
<text text-anchor="middle" x="258" y="-321" font-family="Helvetica,sans-Serif" font-size="10.00" fill="grey"> +MaxMessageSize</text>
<text text-anchor="middle" x="258" y="-310" font-family="Helvetica,sans-Serif" font-size="10.00" fill="grey">+SendTimeout</text>
<text text-anchor="middle" x="258" y="-299" font-family="Helvetica,sans-Serif" font-size="10.00" fill="grey">+messageQueueSizeWarning</text>
</g>
<!-- Node4 -->
<g id="Node000004" class="node">
<title>Node4</title>
<g id="a_Node000004"><a xlink:title=" ">
<polygon fill="white" stroke="transparent" points="368.5,-401.5 336.5,-401.5 336.5,-352.5 368.5,-352.5 368.5,-401.5"/>
<text text-anchor="start" x="341.5" y="-389" font-family="Helvetica,sans-Serif" font-size="10.00">bool</text>
<text text-anchor="start" x="350.5" y="-374" font-family="Helvetica,sans-Serif" font-size="10.00"> </text>
<text text-anchor="start" x="350.5" y="-359" font-family="Helvetica,sans-Serif" font-size="10.00"> </text>
<polygon fill="#666666" stroke="#666666" points="336.5,-384 336.5,-384 368.5,-384 368.5,-384 336.5,-384"/>
<polygon fill="#666666" stroke="#666666" points="336.5,-369 336.5,-369 368.5,-369 368.5,-369 336.5,-369"/>
<polygon fill="none" stroke="#666666" points="336.5,-352.5 336.5,-401.5 368.5,-401.5 368.5,-352.5 336.5,-352.5"/>
</a>
</g>
</g>
<!-- Node4&#45;&gt;Node1 -->
<g id="edge3_Node000001_Node000004" class="edge">
<title>Node4&#45;&gt;Node1</title>
<g id="a_edge3_Node000001_Node000004"><a xlink:title=" ">
<path fill="none" stroke="#63b8ff" d="M346.72,-352.34C342.63,-336.31 336.77,-314.71 330.5,-296 329.8,-293.91 329.09,-291.82 328.37,-289.71"/>
<polygon fill="none" stroke="#63b8ff" points="328.36,-289.68 322.6,-285.34 324.4,-278.35 330.16,-282.7 328.36,-289.68"/>
</a>
</g>
<text text-anchor="middle" x="366.5" y="-310" font-family="Helvetica,sans-Serif" font-size="10.00" fill="grey"> +NoDelay</text>
</g>
<!-- Node5 -->
<g id="Node000005" class="node">
<title>Node5</title>
<g id="a_Node000005"><a xlink:title=" ">
<polygon fill="white" stroke="transparent" points="445.5,-401.5 413.5,-401.5 413.5,-352.5 445.5,-352.5 445.5,-401.5"/>
<text text-anchor="start" x="418.5" y="-389" font-family="Helvetica,sans-Serif" font-size="10.00">byte</text>
<text text-anchor="start" x="427.5" y="-374" font-family="Helvetica,sans-Serif" font-size="10.00"> </text>
<text text-anchor="start" x="427.5" y="-359" font-family="Helvetica,sans-Serif" font-size="10.00"> </text>
<polygon fill="#666666" stroke="#666666" points="413.5,-384 413.5,-384 445.5,-384 445.5,-384 413.5,-384"/>
<polygon fill="#666666" stroke="#666666" points="413.5,-369 413.5,-369 445.5,-369 445.5,-369 413.5,-369"/>
<polygon fill="none" stroke="#666666" points="413.5,-352.5 413.5,-401.5 445.5,-401.5 445.5,-352.5 413.5,-352.5"/>
</a>
</g>
</g>
<!-- Node5&#45;&gt;Node1 -->
<g id="edge4_Node000001_Node000005" class="edge">
<title>Node5&#45;&gt;Node1</title>
<g id="a_edge4_Node000001_Node000005"><a xlink:title=" ">
<path fill="none" stroke="#63b8ff" d="M422.21,-352.35C416.64,-335.93 408.11,-313.88 397.5,-296 389.06,-281.77 379.35,-267.51 369.14,-253.69"/>
<polygon fill="none" stroke="#63b8ff" points="368.85,-253.3 362.05,-250.92 361.63,-243.72 368.44,-246.1 368.85,-253.3"/>
</a>
</g>
<text text-anchor="middle" x="434" y="-315.5" font-family="Helvetica,sans-Serif" font-size="10.00" fill="grey"> &#45;header</text>
<text text-anchor="middle" x="434" y="-304.5" font-family="Helvetica,sans-Serif" font-size="10.00" fill="grey">&#45;payload</text>
</g>
</g>
</svg>
