<?xml version="1.0" encoding="UTF-8" standalone="no"?>
<!DOCTYPE svg PUBLIC "-//W3C//DTD SVG 1.1//EN"
 "http://www.w3.org/Graphics/SVG/1.1/DTD/svg11.dtd">
<!-- Generated by graphviz version 2.43.0 (0)
 -->
<!-- Title: Terraria.GameContent.Creative.ItemFilters.Tools Pages: 1 -->
<svg width="354pt" height="584pt"
 viewBox="0.00 0.00 353.50 584.00" xmlns="http://www.w3.org/2000/svg" xmlns:xlink="http://www.w3.org/1999/xlink">
<g id="graph0" class="graph" transform="scale(1 1) rotate(0) translate(4 580)">
<title>Terraria.GameContent.Creative.ItemFilters.Tools</title>
<!-- Node1 -->
<g id="Node000001" class="node">
<title>Node1</title>
<g id="a_Node000001"><a xlink:title=" ">
<polygon fill="#999999" stroke="transparent" points="222,-153 57,-153 57,0 222,0 222,-153"/>
<text text-anchor="start" x="62.5" y="-140.5" font-family="Helvetica,sans-Serif" font-size="10.00">Terraria.GameContent.Creative.</text>
<text text-anchor="start" x="99.5" y="-129.5" font-family="Helvetica,sans-Serif" font-size="10.00">ItemFilters.Tools</text>
<text text-anchor="start" x="138" y="-114.5" font-family="Helvetica,sans-Serif" font-size="10.00"> </text>
<text text-anchor="start" x="62.5" y="-99.5" font-family="Helvetica,sans-Serif" font-size="10.00">+</text>
<text text-anchor="start" x="76.5" y="-99.5" font-family="Helvetica,sans-Serif" font-size="10.00">bool FitsFilter(Item</text>
<text text-anchor="start" x="76.5" y="-88.5" font-family="Helvetica,sans-Serif" font-size="10.00"> entry)</text>
<text text-anchor="start" x="62.5" y="-73.5" font-family="Helvetica,sans-Serif" font-size="10.00">+</text>
<text text-anchor="start" x="76.5" y="-73.5" font-family="Helvetica,sans-Serif" font-size="10.00">string GetDisplayNameKey()</text>
<text text-anchor="start" x="62.5" y="-58.5" font-family="Helvetica,sans-Serif" font-size="10.00">+</text>
<text text-anchor="start" x="76.5" y="-58.5" font-family="Helvetica,sans-Serif" font-size="10.00">UIElement GetImage()</text>
<text text-anchor="start" x="62.5" y="-43.5" font-family="Helvetica,sans-Serif" font-size="10.00">+</text>
<text text-anchor="start" x="76.5" y="-43.5" font-family="Helvetica,sans-Serif" font-size="10.00">void GetDisplay(out</text>
<text text-anchor="start" x="76.5" y="-32.5" font-family="Helvetica,sans-Serif" font-size="10.00"> Texture2D texture,</text>
<text text-anchor="start" x="76.5" y="-21.5" font-family="Helvetica,sans-Serif" font-size="10.00"> out Rectangle frame)</text>
<text text-anchor="start" x="62.5" y="-6.5" font-family="Helvetica,sans-Serif" font-size="10.00">+</text>
<text text-anchor="start" x="76.5" y="-6.5" font-family="Helvetica,sans-Serif" font-size="10.00">Tools()</text>
<polygon fill="#666666" stroke="#666666" points="57.5,-124.5 57.5,-124.5 222.5,-124.5 222.5,-124.5 57.5,-124.5"/>
<polygon fill="#666666" stroke="#666666" points="57.5,-109.5 57.5,-109.5 222.5,-109.5 222.5,-109.5 57.5,-109.5"/>
<polygon fill="none" stroke="#666666" points="57,0 57,-153 222,-153 222,0 57,0"/>
</a>
</g>
</g>
<!-- Node2 -->
<g id="Node000002" class="node">
<title>Node2</title>
<g id="a_Node000002"><a xlink:href="../../d4/df1/interfaceTerraria_1_1GameContent_1_1Creative_1_1IItemEntryFilter.html" target="_top" xlink:title=" ">
<polygon fill="white" stroke="transparent" points="182.5,-249 96.5,-249 96.5,-200 182.5,-200 182.5,-249"/>
<text text-anchor="start" x="101.5" y="-236.5" font-family="Helvetica,sans-Serif" font-size="10.00">IItemEntryFilter</text>
<text text-anchor="start" x="137.5" y="-221.5" font-family="Helvetica,sans-Serif" font-size="10.00"> </text>
<text text-anchor="start" x="137.5" y="-206.5" font-family="Helvetica,sans-Serif" font-size="10.00"> </text>
<polygon fill="#666666" stroke="#666666" points="96.5,-231.5 96.5,-231.5 182.5,-231.5 182.5,-231.5 96.5,-231.5"/>
<polygon fill="#666666" stroke="#666666" points="96.5,-216.5 96.5,-216.5 182.5,-216.5 182.5,-216.5 96.5,-216.5"/>
<polygon fill="none" stroke="#666666" points="96.5,-200 96.5,-249 182.5,-249 182.5,-200 96.5,-200"/>
</a>
</g>
</g>
<!-- Node2&#45;&gt;Node1 -->
<g id="edge1_Node000001_Node000002" class="edge">
<title>Node2&#45;&gt;Node1</title>
<g id="a_edge1_Node000001_Node000002"><a xlink:title=" ">
<path fill="none" stroke="#63b8ff" d="M139.5,-189.7C139.5,-178.65 139.5,-165.9 139.5,-153.04"/>
<polygon fill="none" stroke="#63b8ff" points="136,-189.72 139.5,-199.72 143,-189.72 136,-189.72"/>
</a>
</g>
</g>
<!-- Node3 -->
<g id="Node000003" class="node">
<title>Node3</title>
<g id="a_Node000003"><a xlink:href="../../d1/dfd/interfaceTerraria_1_1DataStructures_1_1IEntryFilter.html" target="_top" xlink:title=" ">
<polygon fill="white" stroke="transparent" points="161,-402 0,-402 0,-286 161,-286 161,-402"/>
<text text-anchor="start" x="31.5" y="-390" font-family="Helvetica,sans-Serif" font-size="10.00">IEntryFilter&lt; Item &gt;</text>
<text text-anchor="start" x="79" y="-375" font-family="Helvetica,sans-Serif" font-size="10.00"> </text>
<text text-anchor="start" x="4.5" y="-360" font-family="Helvetica,sans-Serif" font-size="10.00">+</text>
<text text-anchor="start" x="17.5" y="-360" font-family="Helvetica,sans-Serif" font-size="10.00">bool FitsFilter(T entry)</text>
<text text-anchor="start" x="4.5" y="-345" font-family="Helvetica,sans-Serif" font-size="10.00">+</text>
<text text-anchor="start" x="17.5" y="-345" font-family="Helvetica,sans-Serif" font-size="10.00">string GetDisplayNameKey()</text>
<text text-anchor="start" x="4.5" y="-330" font-family="Helvetica,sans-Serif" font-size="10.00">+</text>
<text text-anchor="start" x="17.5" y="-330" font-family="Helvetica,sans-Serif" font-size="10.00">UIElement GetImage()</text>
<text text-anchor="start" x="4.5" y="-315" font-family="Helvetica,sans-Serif" font-size="10.00">+</text>
<text text-anchor="start" x="17.5" y="-315" font-family="Helvetica,sans-Serif" font-size="10.00">void GetDisplay(out</text>
<text text-anchor="start" x="17.5" y="-304" font-family="Helvetica,sans-Serif" font-size="10.00"> Texture2D texture,</text>
<text text-anchor="start" x="17.5" y="-293" font-family="Helvetica,sans-Serif" font-size="10.00"> out Rectangle frame)</text>
<polygon fill="#666666" stroke="#666666" points="0.5,-385 0.5,-385 161.5,-385 161.5,-385 0.5,-385"/>
<polygon fill="#666666" stroke="#666666" points="0.5,-370 0.5,-370 161.5,-370 161.5,-370 0.5,-370"/>
<polygon fill="none" stroke="#666666" points="0,-286 0,-402 161,-402 161,-286 0,-286"/>
</a>
</g>
</g>
<!-- Node3&#45;&gt;Node1 -->
<g id="edge4_Node000001_Node000003" class="edge">
<title>Node3&#45;&gt;Node1</title>
<g id="a_edge4_Node000001_Node000003"><a xlink:title=" ">
<path fill="none" stroke="#63b8ff" d="M78.94,-275.54C79.66,-251.45 81.94,-224.27 87.5,-200 91.06,-184.46 96.48,-168.4 102.49,-153.22"/>
<polygon fill="none" stroke="#63b8ff" points="75.44,-275.58 78.73,-285.66 82.44,-275.73 75.44,-275.58"/>
</a>
</g>
</g>
<!-- Node3&#45;&gt;Node2 -->
<g id="edge2_Node000002_Node000003" class="edge">
<title>Node3&#45;&gt;Node2</title>
<g id="a_edge2_Node000002_Node000003"><a xlink:title=" ">
<path fill="none" stroke="#63b8ff" d="M113.71,-276.86C118.67,-266.99 123.48,-257.4 127.58,-249.23"/>
<polygon fill="none" stroke="#63b8ff" points="110.5,-275.46 109.14,-285.97 116.75,-278.6 110.5,-275.46"/>
</a>
</g>
</g>
<!-- Node4 -->
<g id="Node000004" class="node">
<title>Node4</title>
<g id="a_Node000004"><a xlink:href="../../d1/dfd/interfaceTerraria_1_1DataStructures_1_1IEntryFilter.html" target="_top" xlink:title=" ">
<polygon fill="white" stroke="transparent" points="161,-576 0,-576 0,-449 161,-449 161,-576"/>
<text text-anchor="start" x="23" y="-563.5" font-family="Helvetica,sans-Serif" font-size="10.00">Terraria.DataStructures.</text>
<text text-anchor="start" x="40" y="-552.5" font-family="Helvetica,sans-Serif" font-size="10.00">IEntryFilter&lt; T &gt;</text>
<text text-anchor="start" x="79" y="-537.5" font-family="Helvetica,sans-Serif" font-size="10.00"> </text>
<text text-anchor="start" x="4.5" y="-522.5" font-family="Helvetica,sans-Serif" font-size="10.00">+</text>
<text text-anchor="start" x="17.5" y="-522.5" font-family="Helvetica,sans-Serif" font-size="10.00">bool FitsFilter(T entry)</text>
<text text-anchor="start" x="4.5" y="-507.5" font-family="Helvetica,sans-Serif" font-size="10.00">+</text>
<text text-anchor="start" x="17.5" y="-507.5" font-family="Helvetica,sans-Serif" font-size="10.00">string GetDisplayNameKey()</text>
<text text-anchor="start" x="4.5" y="-492.5" font-family="Helvetica,sans-Serif" font-size="10.00">+</text>
<text text-anchor="start" x="17.5" y="-492.5" font-family="Helvetica,sans-Serif" font-size="10.00">UIElement GetImage()</text>
<text text-anchor="start" x="4.5" y="-477.5" font-family="Helvetica,sans-Serif" font-size="10.00">+</text>
<text text-anchor="start" x="17.5" y="-477.5" font-family="Helvetica,sans-Serif" font-size="10.00">void GetDisplay(out</text>
<text text-anchor="start" x="17.5" y="-466.5" font-family="Helvetica,sans-Serif" font-size="10.00"> Texture2D texture,</text>
<text text-anchor="start" x="17.5" y="-455.5" font-family="Helvetica,sans-Serif" font-size="10.00"> out Rectangle frame)</text>
<polygon fill="#666666" stroke="#666666" points="0.5,-547.5 0.5,-547.5 161.5,-547.5 161.5,-547.5 0.5,-547.5"/>
<polygon fill="#666666" stroke="#666666" points="0.5,-532.5 0.5,-532.5 161.5,-532.5 161.5,-532.5 0.5,-532.5"/>
<polygon fill="none" stroke="#666666" points="0,-449 0,-576 161,-576 161,-449 0,-449"/>
</a>
</g>
</g>
<!-- Node4&#45;&gt;Node3 -->
<g id="edge3_Node000003_Node000004" class="edge">
<title>Node4&#45;&gt;Node3</title>
<g id="a_edge3_Node000003_Node000004"><a xlink:title=" ">
<path fill="none" stroke="orange" d="M80.5,-438.41C80.5,-426.21 80.5,-413.73 80.5,-402.01"/>
<polygon fill="orange" stroke="orange" points="77,-438.55 80.5,-448.55 84,-438.55 77,-438.55"/>
</a>
</g>
<text text-anchor="middle" x="105" y="-423" font-family="Helvetica,sans-Serif" font-size="10.00" fill="grey"> &lt; Item &gt;</text>
</g>
<!-- Node5 -->
<g id="Node000005" class="node">
<title>Node5</title>
<g id="a_Node000005"><a xlink:title=" ">
<polygon fill="white" stroke="transparent" points="286.5,-249 200.5,-249 200.5,-200 286.5,-200 286.5,-249"/>
<text text-anchor="start" x="205.5" y="-236.5" font-family="Helvetica,sans-Serif" font-size="10.00">HashSet&lt; int &gt;</text>
<text text-anchor="start" x="241.5" y="-221.5" font-family="Helvetica,sans-Serif" font-size="10.00"> </text>
<text text-anchor="start" x="241.5" y="-206.5" font-family="Helvetica,sans-Serif" font-size="10.00"> </text>
<polygon fill="#666666" stroke="#666666" points="200.5,-231.5 200.5,-231.5 286.5,-231.5 286.5,-231.5 200.5,-231.5"/>
<polygon fill="#666666" stroke="#666666" points="200.5,-216.5 200.5,-216.5 286.5,-216.5 286.5,-216.5 200.5,-216.5"/>
<polygon fill="none" stroke="#666666" points="200.5,-200 200.5,-249 286.5,-249 286.5,-200 200.5,-200"/>
</a>
</g>
</g>
<!-- Node5&#45;&gt;Node1 -->
<g id="edge5_Node000001_Node000005" class="edge">
<title>Node5&#45;&gt;Node1</title>
<g id="a_edge5_Node000001_Node000005"><a xlink:title=" ">
<path fill="none" stroke="#63b8ff" d="M226.56,-199.72C219.15,-189.31 209.96,-176.41 200.36,-162.93"/>
<polygon fill="none" stroke="#63b8ff" points="200.27,-162.81 193.53,-160.25 193.31,-153.04 200.05,-155.61 200.27,-162.81"/>
</a>
</g>
<text text-anchor="middle" x="279" y="-174" font-family="Helvetica,sans-Serif" font-size="10.00" fill="grey"> &#45;_itemIdsThatAreAccepted</text>
</g>
</g>
</svg>
