<?xml version="1.0" encoding="UTF-8" standalone="no"?>
<!DOCTYPE svg PUBLIC "-//W3C//DTD SVG 1.1//EN"
 "http://www.w3.org/Graphics/SVG/1.1/DTD/svg11.dtd">
<!-- Generated by graphviz version 2.43.0 (0)
 -->
<!-- Title: Terraria.WorldBuilding.Modifiers.Blotches Pages: 1 -->
<!--zoomable 673 -->

<svg id="main" version="1.1" xmlns="http://www.w3.org/2000/svg" xmlns:xlink="http://www.w3.org/1999/xlink" xml:space="preserve" onload="init(evt)">
<style type="text/css"><![CDATA[
.node, .edge {opacity: 0.7;}
.node.selected, .edge.selected {opacity: 1;}
.edge:hover path { stroke: red; }
.edge:hover polygon { stroke: red; fill: red; }
]]></style>

<defs>
  <circle id="rim" cx="0" cy="0" r="7"/>
  <circle id="rim2" cx="0" cy="0" r="3.5"/>
  <g id="zoomPlus">
    <use xlink:href="#rim" fill="#404040"><set attributeName="fill" to="#808080" begin="zoomplus.mouseover" end="zoomplus.mouseout"/></use>
    <path d="M-4,0h8M0,-4v8" fill="none" stroke="white" stroke-width="1.5" pointer-events="none"/>
  </g>
  <g id="zoomMin">
    <use xlink:href="#rim" fill="#404040"><set attributeName="fill" to="#808080" begin="zoomminus.mouseover" end="zoomminus.mouseout"/></use>
    <path d="M-4,0h8" fill="none" stroke="white" stroke-width="1.5" pointer-events="none"/>
  </g>
  <g id="arrowUp" transform="translate(30 24)">
    <use xlink:href="#rim"/>
    <path pointer-events="none" fill="none" stroke="white" stroke-width="1.5" d="M0,-3.0v7 M-2.5,-0.5L0,-3.0L2.5,-0.5"/>
  </g>
  <g id="arrowRight" transform="rotate(90) translate(36 -43)">
    <use xlink:href="#rim"/>
    <path pointer-events="none" fill="none" stroke="white" stroke-width="1.5" d="M0,-3.0v7 M-2.5,-0.5L0,-3.0L2.5,-0.5"/>
  </g>
  <g id="arrowDown" transform="rotate(180) translate(-30 -48)">
    <use xlink:href="#rim"/>
    <path pointer-events="none" fill="none" stroke="white" stroke-width="1.5" d="M0,-3.0v7 M-2.5,-0.5L0,-3.0L2.5,-0.5"/>
  </g>
  <g id="arrowLeft" transform="rotate(270) translate(-36 17)">
    <use xlink:href="#rim"/>
    <path pointer-events="none" fill="none" stroke="white" stroke-width="1.5" d="M0,-3.0v7 M-2.5,-0.5L0,-3.0L2.5,-0.5"/>
  </g>
  <g id="resetDef">
    <use xlink:href="#rim2" fill="#404040"><set attributeName="fill" to="#808080" begin="reset.mouseover" end="reset.mouseout"/></use>
  </g>
</defs>
<script type="application/ecmascript">
var viewWidth = 204;
var viewHeight = 673;
var sectionId = 'dynsection-0';
</script>
<script type="application/ecmascript" xlink:href="../../svg.min.js"/>
<svg id="graph" class="graph">
<g id="viewport">
<title>Terraria.WorldBuilding.Modifiers.Blotches</title>
<!-- Node1 -->
<g id="Node000001" class="node">
<title>Node1</title>
<g id="a_Node000001"><a xlink:title=" ">
<polygon fill="#999999" stroke="transparent" points="196,-242 0,-242 0,0 196,0 196,-242"/>
<text text-anchor="start" x="18.5" y="-230" font-family="Helvetica,sans-Serif" font-size="10.00">Terraria.WorldBuilding.Modifiers.</text>
<text text-anchor="start" x="76.5" y="-219" font-family="Helvetica,sans-Serif" font-size="10.00">Blotches</text>
<text text-anchor="start" x="6.5" y="-204" font-family="Helvetica,sans-Serif" font-size="10.00">&#45;</text>
<text text-anchor="start" x="17" y="-204" font-family="Helvetica,sans-Serif" font-size="10.00">int _minX</text>
<text text-anchor="start" x="6.5" y="-189" font-family="Helvetica,sans-Serif" font-size="10.00">&#45;</text>
<text text-anchor="start" x="17" y="-189" font-family="Helvetica,sans-Serif" font-size="10.00">int _minY</text>
<text text-anchor="start" x="6.5" y="-174" font-family="Helvetica,sans-Serif" font-size="10.00">&#45;</text>
<text text-anchor="start" x="17" y="-174" font-family="Helvetica,sans-Serif" font-size="10.00">int _maxX</text>
<text text-anchor="start" x="6.5" y="-159" font-family="Helvetica,sans-Serif" font-size="10.00">&#45;</text>
<text text-anchor="start" x="17" y="-159" font-family="Helvetica,sans-Serif" font-size="10.00">int _maxY</text>
<text text-anchor="start" x="6.5" y="-144" font-family="Helvetica,sans-Serif" font-size="10.00">&#45;</text>
<text text-anchor="start" x="17" y="-144" font-family="Helvetica,sans-Serif" font-size="10.00">double _chance</text>
<text text-anchor="start" x="4" y="-129" font-family="Helvetica,sans-Serif" font-size="10.00">+</text>
<text text-anchor="start" x="17" y="-129" font-family="Helvetica,sans-Serif" font-size="10.00">Blotches(int scale</text>
<text text-anchor="start" x="17" y="-118" font-family="Helvetica,sans-Serif" font-size="10.00">=2, double chance=0.3)</text>
<text text-anchor="start" x="4" y="-103" font-family="Helvetica,sans-Serif" font-size="10.00">+</text>
<text text-anchor="start" x="17" y="-103" font-family="Helvetica,sans-Serif" font-size="10.00">Blotches(int xScale,</text>
<text text-anchor="start" x="17" y="-92" font-family="Helvetica,sans-Serif" font-size="10.00"> int yScale, double chance=0.3)</text>
<text text-anchor="start" x="4" y="-77" font-family="Helvetica,sans-Serif" font-size="10.00">+</text>
<text text-anchor="start" x="17" y="-77" font-family="Helvetica,sans-Serif" font-size="10.00">Blotches(int leftScale,</text>
<text text-anchor="start" x="17" y="-66" font-family="Helvetica,sans-Serif" font-size="10.00"> int upScale, int rightScale,</text>
<text text-anchor="start" x="17" y="-55" font-family="Helvetica,sans-Serif" font-size="10.00"> int downScale, double chance=0.3)</text>
<text text-anchor="start" x="4" y="-40" font-family="Helvetica,sans-Serif" font-size="10.00">+</text>
<text text-anchor="start" x="17" y="-40" font-family="Helvetica,sans-Serif" font-size="10.00">override bool Apply</text>
<text text-anchor="start" x="17" y="-29" font-family="Helvetica,sans-Serif" font-size="10.00">(Point origin, int x,</text>
<text text-anchor="start" x="17" y="-18" font-family="Helvetica,sans-Serif" font-size="10.00"> int y, params object</text>
<text text-anchor="start" x="17" y="-7" font-family="Helvetica,sans-Serif" font-size="10.00">[] args)</text>
<polygon fill="#666666" stroke="#666666" points="0,-214 0,-214 196,-214 196,-214 0,-214"/>
<polygon fill="#666666" stroke="#666666" points="0,-139 0,-139 15,-139 15,-139 0,-139"/>
<polygon fill="#666666" stroke="#666666" points="15,-139 15,-139 196,-139 196,-139 15,-139"/>
<polygon fill="none" stroke="#666666" points="0,0 0,-242 196,-242 196,0 0,0"/>
</a>
</g>
</g>
<!-- Node2 -->
<g id="Node000002" class="node">
<title>Node2</title>
<g id="a_Node000002"><a xlink:href="../../db/d55/classTerraria_1_1WorldBuilding_1_1GenAction.html" target="_top" xlink:title=" ">
<polygon fill="white" stroke="transparent" points="180.5,-487 15.5,-487 15.5,-278 180.5,-278 180.5,-487"/>
<text text-anchor="start" x="73" y="-474.5" font-family="Helvetica,sans-Serif" font-size="10.00">GenAction</text>
<text text-anchor="start" x="20" y="-459.5" font-family="Helvetica,sans-Serif" font-size="10.00">+</text>
<text text-anchor="start" x="33" y="-459.5" font-family="Helvetica,sans-Serif" font-size="10.00">GenAction NextAction</text>
<text text-anchor="start" x="20" y="-444.5" font-family="Helvetica,sans-Serif" font-size="10.00">+</text>
<text text-anchor="start" x="33" y="-444.5" font-family="Helvetica,sans-Serif" font-size="10.00">ShapeData OutputData</text>
<text text-anchor="start" x="22.5" y="-429.5" font-family="Helvetica,sans-Serif" font-size="10.00">&#45;</text>
<text text-anchor="start" x="33" y="-429.5" font-family="Helvetica,sans-Serif" font-size="10.00">bool _returnFalseOnFailure</text>
<text text-anchor="start" x="20" y="-414.5" font-family="Helvetica,sans-Serif" font-size="10.00">+</text>
<text text-anchor="start" x="33" y="-414.5" font-family="Helvetica,sans-Serif" font-size="10.00">bool Apply(Point origin,</text>
<text text-anchor="start" x="33" y="-403.5" font-family="Helvetica,sans-Serif" font-size="10.00"> int x, int y, params</text>
<text text-anchor="start" x="33" y="-392.5" font-family="Helvetica,sans-Serif" font-size="10.00"> object[] args)</text>
<text text-anchor="start" x="20" y="-377.5" font-family="Helvetica,sans-Serif" font-size="10.00">+</text>
<text text-anchor="start" x="33" y="-377.5" font-family="Helvetica,sans-Serif" font-size="10.00">GenAction IgnoreFailures()</text>
<text text-anchor="start" x="20" y="-362.5" font-family="Helvetica,sans-Serif" font-size="10.00">+</text>
<text text-anchor="start" x="33" y="-362.5" font-family="Helvetica,sans-Serif" font-size="10.00">GenAction Output(ShapeData</text>
<text text-anchor="start" x="33" y="-351.5" font-family="Helvetica,sans-Serif" font-size="10.00"> data)</text>
<text text-anchor="start" x="20" y="-336.5" font-family="Helvetica,sans-Serif" font-size="10.00">#</text>
<text text-anchor="start" x="33" y="-336.5" font-family="Helvetica,sans-Serif" font-size="10.00">bool UnitApply(Point</text>
<text text-anchor="start" x="33" y="-325.5" font-family="Helvetica,sans-Serif" font-size="10.00"> origin, int x, int y,</text>
<text text-anchor="start" x="33" y="-314.5" font-family="Helvetica,sans-Serif" font-size="10.00"> params object[] args)</text>
<text text-anchor="start" x="20" y="-299.5" font-family="Helvetica,sans-Serif" font-size="10.00">#</text>
<text text-anchor="start" x="33" y="-299.5" font-family="Helvetica,sans-Serif" font-size="10.00">bool Fail()</text>
<text text-anchor="start" x="20" y="-284.5" font-family="Helvetica,sans-Serif" font-size="10.00">#</text>
<text text-anchor="start" x="33" y="-284.5" font-family="Helvetica,sans-Serif" font-size="10.00">GenAction()</text>
<polygon fill="#666666" stroke="#666666" points="16,-469.5 16,-469.5 181,-469.5 181,-469.5 16,-469.5"/>
<polygon fill="#666666" stroke="#666666" points="16,-424.5 16,-424.5 31,-424.5 31,-424.5 16,-424.5"/>
<polygon fill="#666666" stroke="#666666" points="31,-424.5 31,-424.5 181,-424.5 181,-424.5 31,-424.5"/>
<polygon fill="none" stroke="#666666" points="15.5,-278 15.5,-487 180.5,-487 180.5,-278 15.5,-278"/>
</a>
</g>
</g>
<!-- Node2&#45;&gt;Node1 -->
<g id="edge1_Node000001_Node000002" class="edge">
<title>Node2&#45;&gt;Node1</title>
<g id="a_edge1_Node000001_Node000002"><a xlink:title=" ">
<path fill="none" stroke="#63b8ff" d="M98,-267.59C98,-259.17 98,-250.65 98,-242.18"/>
<polygon fill="none" stroke="#63b8ff" points="94.5,-267.82 98,-277.82 101.5,-267.82 94.5,-267.82"/>
</a>
</g>
</g>
<!-- Node3 -->
<g id="Node000003" class="node">
<title>Node3</title>
<g id="a_Node000003"><a xlink:href="../../d4/dd6/classTerraria_1_1WorldBuilding_1_1GenBase.html" target="_top" xlink:title=" ">
<polygon fill="white" stroke="transparent" points="180.5,-665 15.5,-665 15.5,-523 180.5,-523 180.5,-665"/>
<text text-anchor="start" x="76.5" y="-653" font-family="Helvetica,sans-Serif" font-size="10.00">GenBase</text>
<text text-anchor="start" x="20" y="-638" font-family="Helvetica,sans-Serif" font-size="10.00">+</text>
<text text-anchor="start" x="33" y="-638" font-family="Helvetica,sans-Serif" font-size="10.00">static UnifiedRandom</text>
<text text-anchor="start" x="33" y="-627" font-family="Helvetica,sans-Serif" font-size="10.00"> _random</text>
<text text-anchor="start" x="20" y="-612" font-family="Helvetica,sans-Serif" font-size="10.00">+</text>
<text text-anchor="start" x="33" y="-612" font-family="Helvetica,sans-Serif" font-size="10.00">static TileData _tiles</text>
<text text-anchor="start" x="20" y="-597" font-family="Helvetica,sans-Serif" font-size="10.00">+</text>
<text text-anchor="start" x="33" y="-597" font-family="Helvetica,sans-Serif" font-size="10.00">static int _worldWidth</text>
<text text-anchor="start" x="20" y="-582" font-family="Helvetica,sans-Serif" font-size="10.00">+</text>
<text text-anchor="start" x="33" y="-582" font-family="Helvetica,sans-Serif" font-size="10.00">static int _worldHeight</text>
<text text-anchor="start" x="20" y="-567" font-family="Helvetica,sans-Serif" font-size="10.00">+</text>
<text text-anchor="start" x="33" y="-567" font-family="Helvetica,sans-Serif" font-size="10.00">GenBase()</text>
<text text-anchor="start" x="20" y="-552" font-family="Helvetica,sans-Serif" font-size="10.00">+</text>
<text text-anchor="start" x="33" y="-552" font-family="Helvetica,sans-Serif" font-size="10.00">delegate bool CustomPerUnit</text>
<text text-anchor="start" x="33" y="-541" font-family="Helvetica,sans-Serif" font-size="10.00">Action(int x, int y, params</text>
<text text-anchor="start" x="33" y="-530" font-family="Helvetica,sans-Serif" font-size="10.00"> object[] args)</text>
<polygon fill="#666666" stroke="#666666" points="16,-648 16,-648 181,-648 181,-648 16,-648"/>
<polygon fill="#666666" stroke="#666666" points="16,-577 16,-577 31,-577 31,-577 16,-577"/>
<polygon fill="#666666" stroke="#666666" points="31,-577 31,-577 181,-577 181,-577 31,-577"/>
<polygon fill="none" stroke="#666666" points="15.5,-523 15.5,-665 180.5,-665 180.5,-523 15.5,-523"/>
</a>
</g>
</g>
<!-- Node3&#45;&gt;Node2 -->
<g id="edge2_Node000002_Node000003" class="edge">
<title>Node3&#45;&gt;Node2</title>
<g id="a_edge2_Node000002_Node000003"><a xlink:title=" ">
<path fill="none" stroke="#63b8ff" d="M98,-512.8C98,-504.38 98,-495.73 98,-487.09"/>
<polygon fill="none" stroke="#63b8ff" points="94.5,-512.95 98,-522.95 101.5,-512.95 94.5,-512.95"/>
</a>
</g>
</g>
</g>
</svg>

<g id="navigator" transform="translate(0 0)" fill="#404254">
  <rect fill="#f2f5e9" fill-opacity="0.5" stroke="#606060" stroke-width=".5" x="0" y="0" width="60" height="60"/>
  <use id="zoomplus" xlink:href="#zoomPlus" x="17" y="9" onmousedown="handleZoom(evt,'in')"/>
  <use id="zoomminus" xlink:href="#zoomMin" x="42" y="9" onmousedown="handleZoom(evt,'out')"/>
  <use id="reset" xlink:href="#resetDef" x="30" y="36" onmousedown="handleReset()"/>
   <use id="arrowup" xlink:href="#arrowUp" x="0" y="0" onmousedown="handlePan(0,-1)"/>
  <use id="arrowright" xlink:href="#arrowRight" x="0" y="0" onmousedown="handlePan(1,0)"/>
  <use id="arrowdown" xlink:href="#arrowDown" x="0" y="0" onmousedown="handlePan(0,1)"/>
  <use id="arrowleft" xlink:href="#arrowLeft" x="0" y="0" onmousedown="handlePan(-1,0)"/>
</g>
<svg viewBox="0 0 15 15" width="100%" height="30px" preserveAspectRatio="xMaxYMin meet">
 <g id="arrow_out" transform="scale(0.3 0.3)">
  <a xlink:href="classTerraria_1_1WorldBuilding_1_1Modifiers_1_1Blotches__inherit__graph_org.svg" target="_base">
   <rect id="button" ry="5" rx="5" y="6" x="6" height="38" width="38"
        fill="#f2f5e9" fill-opacity="0.5" stroke="#606060" stroke-width="1.0"/>
   <path id="arrow"
     d="M 11.500037,31.436501 C 11.940474,20.09759 22.043105,11.32322 32.158766,21.979434 L 37.068811,17.246167 C 37.068811,17.246167 37.088388,32 37.088388,32 L 22.160133,31.978069 C 22.160133,31.978069 26.997745,27.140456 26.997745,27.140456 C 18.528582,18.264221 13.291696,25.230495 11.500037,31.436501 z"
     style="fill:#404040;"/>
  </a>
 </g>
</svg>

<style type='text/css'>
<![CDATA[
[data-mouse-over-selected='false'] { opacity: 0.7; }
[data-mouse-over-selected='true']  { opacity: 1.0; }
]]>
</style>
<script type="application/ecmascript"><![CDATA[
document.addEventListener('DOMContentLoaded', (event) => {
  highlightEdges();
  highlightAdjacentNodes();
});
]]></script>
</svg>
