<?xml version="1.0" encoding="UTF-8" standalone="no"?>
<!DOCTYPE svg PUBLIC "-//W3C//DTD SVG 1.1//EN"
 "http://www.w3.org/Graphics/SVG/1.1/DTD/svg11.dtd">
<!-- Generated by graphviz version 2.43.0 (0)
 -->
<!-- Title: System.Collections.Hashtable.bucket Pages: 1 -->
<svg width="200pt" height="164pt"
 viewBox="0.00 0.00 200.00 164.00" xmlns="http://www.w3.org/2000/svg" xmlns:xlink="http://www.w3.org/1999/xlink">

<svg id="main" version="1.1" xmlns="http://www.w3.org/2000/svg" xmlns:xlink="http://www.w3.org/1999/xlink" xml:space="preserve" onload="init(evt)">
<style type="text/css"><![CDATA[
.node, .edge {opacity: 0.7;}
.node.selected, .edge.selected {opacity: 1;}
.edge:hover path { stroke: red; }
.edge:hover polygon { stroke: red; fill: red; }
]]></style>
<script type="application/ecmascript" xlink:href="../../svg.min.js"/>
<svg id="graph" class="graph">
<g id="graph0" class="graph" transform="scale(1 1) rotate(0) translate(4 160)">
<title>System.Collections.Hashtable.bucket</title>
<!-- Node1 -->
<g id="Node000001" class="node">
<title>Node1</title>
<g id="a_Node000001"><a xlink:title=" ">
<polygon fill="#999999" stroke="transparent" points="192,-49 0,-49 0,0 192,0 192,-49"/>
<text text-anchor="start" x="5" y="-36.5" font-family="Helvetica,sans-Serif" font-size="10.00">System.Collections.Hashtable.bucket</text>
<text text-anchor="start" x="94" y="-21.5" font-family="Helvetica,sans-Serif" font-size="10.00"> </text>
<text text-anchor="start" x="94" y="-6.5" font-family="Helvetica,sans-Serif" font-size="10.00"> </text>
<polygon fill="#666666" stroke="#666666" points="0,-31.5 0,-31.5 192,-31.5 192,-31.5 0,-31.5"/>
<polygon fill="#666666" stroke="#666666" points="0,-16.5 0,-16.5 192,-16.5 192,-16.5 0,-16.5"/>
<polygon fill="none" stroke="#666666" points="0,0 0,-49 192,-49 192,0 0,0"/>
</a>
</g>
</g>
<!-- Node2 -->
<g id="Node000002" class="node">
<title>Node2</title>
<g id="a_Node000002"><a xlink:title=" ">
<polygon fill="white" stroke="transparent" points="90.5,-156 49.5,-156 49.5,-107 90.5,-107 90.5,-156"/>
<text text-anchor="start" x="55" y="-143.5" font-family="Helvetica,sans-Serif" font-size="10.00">object</text>
<text text-anchor="start" x="68.5" y="-128.5" font-family="Helvetica,sans-Serif" font-size="10.00"> </text>
<text text-anchor="start" x="68.5" y="-113.5" font-family="Helvetica,sans-Serif" font-size="10.00"> </text>
<polygon fill="#666666" stroke="#666666" points="50,-138.5 50,-138.5 91,-138.5 91,-138.5 50,-138.5"/>
<polygon fill="#666666" stroke="#666666" points="50,-123.5 50,-123.5 91,-123.5 91,-123.5 50,-123.5"/>
<polygon fill="none" stroke="#666666" points="49.5,-107 49.5,-156 90.5,-156 90.5,-107 49.5,-107"/>
</a>
</g>
</g>
<!-- Node2&#45;&gt;Node1 -->
<g id="edge1_Node000001_Node000002" class="edge">
<title>Node2&#45;&gt;Node1</title>
<g id="a_edge1_Node000001_Node000002"><a xlink:title=" ">
<path fill="none" stroke="#63b8ff" d="M67.48,-106.85C66.9,-94.71 67.33,-79.83 71,-67 71.69,-64.6 72.55,-62.2 73.54,-59.83"/>
<polygon fill="none" stroke="#63b8ff" points="73.55,-59.82 72.65,-52.66 78.91,-49.08 79.81,-56.24 73.55,-59.82"/>
</a>
</g>
<text text-anchor="middle" x="85.5" y="-81" font-family="Helvetica,sans-Serif" font-size="10.00" fill="grey"> +key</text>
<text text-anchor="middle" x="85.5" y="-70" font-family="Helvetica,sans-Serif" font-size="10.00" fill="grey">+val</text>
</g>
<!-- Node3 -->
<g id="Node000003" class="node">
<title>Node3</title>
<g id="a_Node000003"><a xlink:title=" ">
<polygon fill="white" stroke="transparent" points="133.5,-156 110.5,-156 110.5,-107 133.5,-107 133.5,-156"/>
<text text-anchor="start" x="116" y="-143.5" font-family="Helvetica,sans-Serif" font-size="10.00">int</text>
<text text-anchor="start" x="120.5" y="-128.5" font-family="Helvetica,sans-Serif" font-size="10.00"> </text>
<text text-anchor="start" x="120.5" y="-113.5" font-family="Helvetica,sans-Serif" font-size="10.00"> </text>
<polygon fill="#666666" stroke="#666666" points="111,-138.5 111,-138.5 134,-138.5 134,-138.5 111,-138.5"/>
<polygon fill="#666666" stroke="#666666" points="111,-123.5 111,-123.5 134,-123.5 134,-123.5 111,-123.5"/>
<polygon fill="none" stroke="#666666" points="110.5,-107 110.5,-156 133.5,-156 133.5,-107 110.5,-107"/>
</a>
</g>
</g>
<!-- Node3&#45;&gt;Node1 -->
<g id="edge2_Node000001_Node000003" class="edge">
<title>Node3&#45;&gt;Node1</title>
<g id="a_edge2_Node000001_Node000003"><a xlink:title=" ">
<path fill="none" stroke="#63b8ff" d="M116.17,-106.94C112.84,-93.52 108.61,-76.44 104.89,-61.39"/>
<polygon fill="none" stroke="#63b8ff" points="104.79,-61 99.46,-56.13 101.91,-49.35 107.23,-54.21 104.79,-61"/>
</a>
</g>
<text text-anchor="middle" x="140" y="-75.5" font-family="Helvetica,sans-Serif" font-size="10.00" fill="grey"> +hash_coll</text>
</g>
</g>
</svg>
</svg>

<style type='text/css'>
<![CDATA[
[data-mouse-over-selected='false'] { opacity: 0.7; }
[data-mouse-over-selected='true']  { opacity: 1.0; }
]]>
</style>
<script type="application/ecmascript"><![CDATA[
document.addEventListener('DOMContentLoaded', (event) => {
  highlightEdges();
  highlightAdjacentNodes();
});
]]></script>
</svg>
