<?xml version="1.0" encoding="UTF-8" standalone="no"?>
<!DOCTYPE svg PUBLIC "-//W3C//DTD SVG 1.1//EN"
 "http://www.w3.org/Graphics/SVG/1.1/DTD/svg11.dtd">
<!-- Generated by graphviz version 2.43.0 (0)
 -->
<!-- Title: Cpp2ILInjected.AddressAttribute Pages: 1 -->
<svg width="473pt" height="1264pt"
 viewBox="0.00 0.00 473.27 1264.00" xmlns="http://www.w3.org/2000/svg" xmlns:xlink="http://www.w3.org/1999/xlink">
<g id="graph0" class="graph" transform="scale(1 1) rotate(0) translate(4 1260)">
<title>Cpp2ILInjected.AddressAttribute</title>
<!-- Node1 -->
<g id="Node000001" class="node">
<title>Node1</title>
<g id="a_Node000001"><a xlink:title=" ">
<polygon fill="#999999" stroke="transparent" points="279.77,-229 112.77,-229 112.77,0 279.77,0 279.77,-229"/>
<text text-anchor="start" x="118.27" y="-216.5" font-family="Helvetica,sans-Serif" font-size="10.00">Cpp2ILInjected.AddressAttribute</text>
<text text-anchor="start" x="131.27" y="-201.5" font-family="Helvetica,sans-Serif" font-size="10.00">+</text>
<text text-anchor="start" x="158.27" y="-201.5" font-family="Helvetica,sans-Serif" font-size="10.00">string RVA</text>
<text text-anchor="start" x="131.27" y="-186.5" font-family="Helvetica,sans-Serif" font-size="10.00">+</text>
<text text-anchor="start" x="158.27" y="-186.5" font-family="Helvetica,sans-Serif" font-size="10.00">string Offset</text>
<text text-anchor="start" x="131.27" y="-171.5" font-family="Helvetica,sans-Serif" font-size="10.00">+</text>
<text text-anchor="start" x="158.27" y="-171.5" font-family="Helvetica,sans-Serif" font-size="10.00">string Length</text>
<text text-anchor="start" x="131.27" y="-156.5" font-family="Helvetica,sans-Serif" font-size="10.00">+</text>
<text text-anchor="start" x="158.27" y="-156.5" font-family="Helvetica,sans-Serif" font-size="10.00">AddressAttribute()</text>
<text text-anchor="start" x="131.27" y="-141.5" font-family="Helvetica,sans-Serif" font-size="10.00">+</text>
<text text-anchor="start" x="158.27" y="-141.5" font-family="Helvetica,sans-Serif" font-size="10.00">AddressAttribute()</text>
<text text-anchor="start" x="131.27" y="-126.5" font-family="Helvetica,sans-Serif" font-size="10.00">+</text>
<text text-anchor="start" x="158.27" y="-126.5" font-family="Helvetica,sans-Serif" font-size="10.00">AddressAttribute()</text>
<text text-anchor="start" x="131.27" y="-111.5" font-family="Helvetica,sans-Serif" font-size="10.00">+</text>
<text text-anchor="start" x="158.27" y="-111.5" font-family="Helvetica,sans-Serif" font-size="10.00">AddressAttribute()</text>
<text text-anchor="start" x="131.27" y="-96.5" font-family="Helvetica,sans-Serif" font-size="10.00">+</text>
<text text-anchor="start" x="158.27" y="-96.5" font-family="Helvetica,sans-Serif" font-size="10.00">AddressAttribute()</text>
<text text-anchor="start" x="131.27" y="-81.5" font-family="Helvetica,sans-Serif" font-size="10.00">+</text>
<text text-anchor="start" x="158.27" y="-81.5" font-family="Helvetica,sans-Serif" font-size="10.00">AddressAttribute()</text>
<text text-anchor="start" x="131.27" y="-66.5" font-family="Helvetica,sans-Serif" font-size="10.00">+</text>
<text text-anchor="start" x="158.27" y="-66.5" font-family="Helvetica,sans-Serif" font-size="10.00">AddressAttribute()</text>
<text text-anchor="start" x="131.27" y="-51.5" font-family="Helvetica,sans-Serif" font-size="10.00">+</text>
<text text-anchor="start" x="158.27" y="-51.5" font-family="Helvetica,sans-Serif" font-size="10.00">AddressAttribute()</text>
<text text-anchor="start" x="131.27" y="-36.5" font-family="Helvetica,sans-Serif" font-size="10.00">+</text>
<text text-anchor="start" x="158.27" y="-36.5" font-family="Helvetica,sans-Serif" font-size="10.00">AddressAttribute()</text>
<text text-anchor="start" x="131.27" y="-21.5" font-family="Helvetica,sans-Serif" font-size="10.00">+</text>
<text text-anchor="start" x="158.27" y="-21.5" font-family="Helvetica,sans-Serif" font-size="10.00">AddressAttribute()</text>
<text text-anchor="start" x="158.27" y="-6.5" font-family="Helvetica,sans-Serif" font-size="10.00">and 21 more...</text>
<polygon fill="#666666" stroke="#666666" points="113.27,-211.5 113.27,-211.5 280.27,-211.5 280.27,-211.5 113.27,-211.5"/>
<polygon fill="#666666" stroke="#666666" points="113.27,-166.5 113.27,-166.5 156.27,-166.5 156.27,-166.5 113.27,-166.5"/>
<polygon fill="#666666" stroke="#666666" points="156.27,-166.5 156.27,-166.5 280.27,-166.5 280.27,-166.5 156.27,-166.5"/>
<polygon fill="none" stroke="#666666" points="112.77,0 112.77,-229 279.77,-229 279.77,0 112.77,0"/>
</a>
</g>
</g>
<!-- Node2 -->
<g id="Node000002" class="node">
<title>Node2</title>
<g id="a_Node000002"><a xlink:href="../../d1/d05/classSystem_1_1Attribute.html" target="_top" xlink:title=" ">
<polygon fill="white" stroke="transparent" points="321.27,-1256 71.27,-1256 71.27,-265 321.27,-265 321.27,-1256"/>
<text text-anchor="start" x="174.77" y="-1243.5" font-family="Helvetica,sans-Serif" font-size="10.00">Attribute</text>
<text text-anchor="start" x="75.27" y="-1228.5" font-family="Helvetica,sans-Serif" font-size="10.00">+</text>
<text text-anchor="start" x="88.27" y="-1228.5" font-family="Helvetica,sans-Serif" font-size="10.00">virtual object TypeId</text>
<text text-anchor="start" x="75.27" y="-1213.5" font-family="Helvetica,sans-Serif" font-size="10.00">+</text>
<text text-anchor="start" x="88.27" y="-1213.5" font-family="Helvetica,sans-Serif" font-size="10.00">override bool Equals</text>
<text text-anchor="start" x="88.27" y="-1202.5" font-family="Helvetica,sans-Serif" font-size="10.00">(object obj)</text>
<text text-anchor="start" x="75.27" y="-1187.5" font-family="Helvetica,sans-Serif" font-size="10.00">+</text>
<text text-anchor="start" x="88.27" y="-1187.5" font-family="Helvetica,sans-Serif" font-size="10.00">override int GetHashCode()</text>
<text text-anchor="start" x="75.27" y="-1172.5" font-family="Helvetica,sans-Serif" font-size="10.00">+</text>
<text text-anchor="start" x="88.27" y="-1172.5" font-family="Helvetica,sans-Serif" font-size="10.00">virtual bool Match</text>
<text text-anchor="start" x="88.27" y="-1161.5" font-family="Helvetica,sans-Serif" font-size="10.00">(object obj)</text>
<text text-anchor="start" x="75.27" y="-1146.5" font-family="Helvetica,sans-Serif" font-size="10.00">+</text>
<text text-anchor="start" x="88.27" y="-1146.5" font-family="Helvetica,sans-Serif" font-size="10.00">virtual bool IsDefaultAttribute()</text>
<text text-anchor="start" x="75.27" y="-1131.5" font-family="Helvetica,sans-Serif" font-size="10.00">+</text>
<text text-anchor="start" x="88.27" y="-1131.5" font-family="Helvetica,sans-Serif" font-size="10.00">static global::System.Attribute</text>
<text text-anchor="start" x="88.27" y="-1120.5" font-family="Helvetica,sans-Serif" font-size="10.00">[] GetCustomAttributes(global</text>
<text text-anchor="start" x="88.27" y="-1109.5" font-family="Helvetica,sans-Serif" font-size="10.00">::System.Reflection.MemberInfo</text>
<text text-anchor="start" x="88.27" y="-1098.5" font-family="Helvetica,sans-Serif" font-size="10.00"> element, global::System.Type type)</text>
<text text-anchor="start" x="75.27" y="-1083.5" font-family="Helvetica,sans-Serif" font-size="10.00">+</text>
<text text-anchor="start" x="88.27" y="-1083.5" font-family="Helvetica,sans-Serif" font-size="10.00">static global::System.Attribute</text>
<text text-anchor="start" x="88.27" y="-1072.5" font-family="Helvetica,sans-Serif" font-size="10.00">[] GetCustomAttributes(global</text>
<text text-anchor="start" x="88.27" y="-1061.5" font-family="Helvetica,sans-Serif" font-size="10.00">::System.Reflection.MemberInfo</text>
<text text-anchor="start" x="88.27" y="-1050.5" font-family="Helvetica,sans-Serif" font-size="10.00"> element, global::System.Type type,</text>
<text text-anchor="start" x="88.27" y="-1039.5" font-family="Helvetica,sans-Serif" font-size="10.00"> bool inherit)</text>
<text text-anchor="start" x="75.27" y="-1024.5" font-family="Helvetica,sans-Serif" font-size="10.00">+</text>
<text text-anchor="start" x="88.27" y="-1024.5" font-family="Helvetica,sans-Serif" font-size="10.00">static global::System.Attribute</text>
<text text-anchor="start" x="88.27" y="-1013.5" font-family="Helvetica,sans-Serif" font-size="10.00">[] GetCustomAttributes(global</text>
<text text-anchor="start" x="88.27" y="-1002.5" font-family="Helvetica,sans-Serif" font-size="10.00">::System.Reflection.MemberInfo</text>
<text text-anchor="start" x="88.27" y="-991.5" font-family="Helvetica,sans-Serif" font-size="10.00"> element, bool inherit)</text>
<text text-anchor="start" x="75.27" y="-976.5" font-family="Helvetica,sans-Serif" font-size="10.00">+</text>
<text text-anchor="start" x="88.27" y="-976.5" font-family="Helvetica,sans-Serif" font-size="10.00">static bool IsDefined</text>
<text text-anchor="start" x="88.27" y="-965.5" font-family="Helvetica,sans-Serif" font-size="10.00">(global::System.Reflection.</text>
<text text-anchor="start" x="88.27" y="-954.5" font-family="Helvetica,sans-Serif" font-size="10.00">MemberInfo element, global</text>
<text text-anchor="start" x="88.27" y="-943.5" font-family="Helvetica,sans-Serif" font-size="10.00">::System.Type attributeType)</text>
<text text-anchor="start" x="75.27" y="-928.5" font-family="Helvetica,sans-Serif" font-size="10.00">+</text>
<text text-anchor="start" x="88.27" y="-928.5" font-family="Helvetica,sans-Serif" font-size="10.00">static bool IsDefined</text>
<text text-anchor="start" x="88.27" y="-917.5" font-family="Helvetica,sans-Serif" font-size="10.00">(global::System.Reflection.</text>
<text text-anchor="start" x="88.27" y="-906.5" font-family="Helvetica,sans-Serif" font-size="10.00">MemberInfo element, global</text>
<text text-anchor="start" x="88.27" y="-895.5" font-family="Helvetica,sans-Serif" font-size="10.00">::System.Type attributeType,</text>
<text text-anchor="start" x="88.27" y="-884.5" font-family="Helvetica,sans-Serif" font-size="10.00"> bool inherit)</text>
<text text-anchor="start" x="75.27" y="-869.5" font-family="Helvetica,sans-Serif" font-size="10.00">+</text>
<text text-anchor="start" x="88.27" y="-869.5" font-family="Helvetica,sans-Serif" font-size="10.00">static global::System.Attribute</text>
<text text-anchor="start" x="88.27" y="-858.5" font-family="Helvetica,sans-Serif" font-size="10.00"> GetCustomAttribute(global</text>
<text text-anchor="start" x="88.27" y="-847.5" font-family="Helvetica,sans-Serif" font-size="10.00">::System.Reflection.MemberInfo</text>
<text text-anchor="start" x="88.27" y="-836.5" font-family="Helvetica,sans-Serif" font-size="10.00"> element, global::System.Type</text>
<text text-anchor="start" x="88.27" y="-825.5" font-family="Helvetica,sans-Serif" font-size="10.00"> attributeType, bool inherit)</text>
<text text-anchor="start" x="75.27" y="-810.5" font-family="Helvetica,sans-Serif" font-size="10.00">+</text>
<text text-anchor="start" x="88.27" y="-810.5" font-family="Helvetica,sans-Serif" font-size="10.00">static global::System.Attribute</text>
<text text-anchor="start" x="88.27" y="-799.5" font-family="Helvetica,sans-Serif" font-size="10.00">[] GetCustomAttributes(global</text>
<text text-anchor="start" x="88.27" y="-788.5" font-family="Helvetica,sans-Serif" font-size="10.00">::System.Reflection.ParameterInfo</text>
<text text-anchor="start" x="88.27" y="-777.5" font-family="Helvetica,sans-Serif" font-size="10.00"> element, global::System.Type attributeType,</text>
<text text-anchor="start" x="88.27" y="-766.5" font-family="Helvetica,sans-Serif" font-size="10.00"> bool inherit)</text>
<text text-anchor="start" x="75.27" y="-751.5" font-family="Helvetica,sans-Serif" font-size="10.00">+</text>
<text text-anchor="start" x="88.27" y="-751.5" font-family="Helvetica,sans-Serif" font-size="10.00">static global::System.Attribute</text>
<text text-anchor="start" x="88.27" y="-740.5" font-family="Helvetica,sans-Serif" font-size="10.00">[] GetCustomAttributes(global</text>
<text text-anchor="start" x="88.27" y="-729.5" font-family="Helvetica,sans-Serif" font-size="10.00">::System.Reflection.ParameterInfo</text>
<text text-anchor="start" x="88.27" y="-718.5" font-family="Helvetica,sans-Serif" font-size="10.00"> element, bool inherit)</text>
<text text-anchor="start" x="75.27" y="-703.5" font-family="Helvetica,sans-Serif" font-size="10.00">+</text>
<text text-anchor="start" x="88.27" y="-703.5" font-family="Helvetica,sans-Serif" font-size="10.00">static global::System.Attribute</text>
<text text-anchor="start" x="88.27" y="-692.5" font-family="Helvetica,sans-Serif" font-size="10.00">[] GetCustomAttributes(global</text>
<text text-anchor="start" x="88.27" y="-681.5" font-family="Helvetica,sans-Serif" font-size="10.00">::System.Reflection.Module element,</text>
<text text-anchor="start" x="88.27" y="-670.5" font-family="Helvetica,sans-Serif" font-size="10.00"> bool inherit)</text>
<text text-anchor="start" x="75.27" y="-655.5" font-family="Helvetica,sans-Serif" font-size="10.00">+</text>
<text text-anchor="start" x="88.27" y="-655.5" font-family="Helvetica,sans-Serif" font-size="10.00">static global::System.Attribute</text>
<text text-anchor="start" x="88.27" y="-644.5" font-family="Helvetica,sans-Serif" font-size="10.00">[] GetCustomAttributes(global</text>
<text text-anchor="start" x="88.27" y="-633.5" font-family="Helvetica,sans-Serif" font-size="10.00">::System.Reflection.Module element,</text>
<text text-anchor="start" x="88.27" y="-622.5" font-family="Helvetica,sans-Serif" font-size="10.00"> global::System.Type attributeType,</text>
<text text-anchor="start" x="88.27" y="-611.5" font-family="Helvetica,sans-Serif" font-size="10.00"> bool inherit)</text>
<text text-anchor="start" x="88.27" y="-596.5" font-family="Helvetica,sans-Serif" font-size="10.00">and 6 more...</text>
<text text-anchor="start" x="75.27" y="-581.5" font-family="Helvetica,sans-Serif" font-size="10.00">#</text>
<text text-anchor="start" x="88.27" y="-581.5" font-family="Helvetica,sans-Serif" font-size="10.00">Attribute()</text>
<text text-anchor="start" x="77.77" y="-566.5" font-family="Helvetica,sans-Serif" font-size="10.00">&#45;</text>
<text text-anchor="start" x="88.27" y="-566.5" font-family="Helvetica,sans-Serif" font-size="10.00">static global::System.Attribute</text>
<text text-anchor="start" x="88.27" y="-555.5" font-family="Helvetica,sans-Serif" font-size="10.00">[] InternalGetCustomAttributes</text>
<text text-anchor="start" x="88.27" y="-544.5" font-family="Helvetica,sans-Serif" font-size="10.00">(global::System.Reflection.PropertyInfo</text>
<text text-anchor="start" x="88.27" y="-533.5" font-family="Helvetica,sans-Serif" font-size="10.00"> element, global::System.Type type,</text>
<text text-anchor="start" x="88.27" y="-522.5" font-family="Helvetica,sans-Serif" font-size="10.00"> bool inherit)</text>
<text text-anchor="start" x="77.77" y="-507.5" font-family="Helvetica,sans-Serif" font-size="10.00">&#45;</text>
<text text-anchor="start" x="88.27" y="-507.5" font-family="Helvetica,sans-Serif" font-size="10.00">static global::System.Attribute</text>
<text text-anchor="start" x="88.27" y="-496.5" font-family="Helvetica,sans-Serif" font-size="10.00">[] InternalGetCustomAttributes</text>
<text text-anchor="start" x="88.27" y="-485.5" font-family="Helvetica,sans-Serif" font-size="10.00">(global::System.Reflection.EventInfo</text>
<text text-anchor="start" x="88.27" y="-474.5" font-family="Helvetica,sans-Serif" font-size="10.00"> element, global::System.Type type,</text>
<text text-anchor="start" x="88.27" y="-463.5" font-family="Helvetica,sans-Serif" font-size="10.00"> bool inherit)</text>
<text text-anchor="start" x="77.77" y="-448.5" font-family="Helvetica,sans-Serif" font-size="10.00">&#45;</text>
<text text-anchor="start" x="88.27" y="-448.5" font-family="Helvetica,sans-Serif" font-size="10.00">static global::System.Attribute</text>
<text text-anchor="start" x="88.27" y="-437.5" font-family="Helvetica,sans-Serif" font-size="10.00">[] InternalParamGetCustomAttributes</text>
<text text-anchor="start" x="88.27" y="-426.5" font-family="Helvetica,sans-Serif" font-size="10.00">(global::System.Reflection.ParameterInfo</text>
<text text-anchor="start" x="88.27" y="-415.5" font-family="Helvetica,sans-Serif" font-size="10.00"> parameter, global::System.Type attributeType,</text>
<text text-anchor="start" x="88.27" y="-404.5" font-family="Helvetica,sans-Serif" font-size="10.00"> bool inherit)</text>
<text text-anchor="start" x="77.77" y="-389.5" font-family="Helvetica,sans-Serif" font-size="10.00">&#45;</text>
<text text-anchor="start" x="88.27" y="-389.5" font-family="Helvetica,sans-Serif" font-size="10.00">static bool InternalIsDefined</text>
<text text-anchor="start" x="88.27" y="-378.5" font-family="Helvetica,sans-Serif" font-size="10.00">(global::System.Reflection.Property</text>
<text text-anchor="start" x="88.27" y="-367.5" font-family="Helvetica,sans-Serif" font-size="10.00">Info element, global::System.Type</text>
<text text-anchor="start" x="88.27" y="-356.5" font-family="Helvetica,sans-Serif" font-size="10.00"> attributeType, bool inherit)</text>
<text text-anchor="start" x="77.77" y="-341.5" font-family="Helvetica,sans-Serif" font-size="10.00">&#45;</text>
<text text-anchor="start" x="88.27" y="-341.5" font-family="Helvetica,sans-Serif" font-size="10.00">static bool InternalIsDefined</text>
<text text-anchor="start" x="88.27" y="-330.5" font-family="Helvetica,sans-Serif" font-size="10.00">(global::System.Reflection.Event</text>
<text text-anchor="start" x="88.27" y="-319.5" font-family="Helvetica,sans-Serif" font-size="10.00">Info element, global::System.Type</text>
<text text-anchor="start" x="88.27" y="-308.5" font-family="Helvetica,sans-Serif" font-size="10.00"> attributeType, bool inherit)</text>
<text text-anchor="start" x="77.77" y="-293.5" font-family="Helvetica,sans-Serif" font-size="10.00">&#45;</text>
<text text-anchor="start" x="88.27" y="-293.5" font-family="Helvetica,sans-Serif" font-size="10.00">static bool AreFieldValues</text>
<text text-anchor="start" x="88.27" y="-282.5" font-family="Helvetica,sans-Serif" font-size="10.00">Equal(object thisValue,</text>
<text text-anchor="start" x="88.27" y="-271.5" font-family="Helvetica,sans-Serif" font-size="10.00"> object thatValue)</text>
<polygon fill="#666666" stroke="#666666" points="71.27,-1238.5 71.27,-1238.5 321.27,-1238.5 321.27,-1238.5 71.27,-1238.5"/>
<polygon fill="#666666" stroke="#666666" points="71.27,-1223.5 71.27,-1223.5 86.27,-1223.5 86.27,-1223.5 71.27,-1223.5"/>
<polygon fill="#666666" stroke="#666666" points="86.27,-1223.5 86.27,-1223.5 321.27,-1223.5 321.27,-1223.5 86.27,-1223.5"/>
<polygon fill="none" stroke="#666666" points="71.27,-265 71.27,-1256 321.27,-1256 321.27,-265 71.27,-265"/>
</a>
</g>
</g>
<!-- Node2&#45;&gt;Node1 -->
<g id="edge1_Node000001_Node000002" class="edge">
<title>Node2&#45;&gt;Node1</title>
<g id="a_edge1_Node000001_Node000002"><a xlink:title=" ">
<path fill="none" stroke="#63b8ff" d="M65.04,-684.32C-34.62,-540.74 -18.82,-233.6 112.45,-141.88"/>
<polygon fill="none" stroke="#63b8ff" points="62.42,-686.67 71.13,-692.71 68.08,-682.56 62.42,-686.67"/>
</a>
</g>
</g>
<!-- Node2&#45;&gt;Node1 -->
<g id="edge2_Node000001_Node000002" class="edge">
<title>Node2&#45;&gt;Node1</title>
<g id="a_edge2_Node000001_Node000002"><a xlink:title=" ">
<path fill="none" stroke="#63b8ff" d="M65.8,-670.57C-16.32,-524.42 -0.76,-240.29 112.48,-146.42"/>
<polygon fill="none" stroke="#63b8ff" points="63.01,-672.72 71.09,-679.56 69.04,-669.17 63.01,-672.72"/>
</a>
</g>
</g>
<!-- Node2&#45;&gt;Node1 -->
<g id="edge3_Node000001_Node000002" class="edge">
<title>Node2&#45;&gt;Node1</title>
<g id="a_edge3_Node000001_Node000002"><a xlink:title=" ">
<path fill="none" stroke="#63b8ff" d="M67.02,-652.94C2.06,-505.76 17.23,-247.62 112.53,-152.26"/>
<polygon fill="none" stroke="#63b8ff" points="63.85,-654.42 71.21,-662.04 70.21,-651.49 63.85,-654.42"/>
</a>
</g>
</g>
<!-- Node2&#45;&gt;Node1 -->
<g id="edge4_Node000001_Node000002" class="edge">
<title>Node2&#45;&gt;Node1</title>
<g id="a_edge4_Node000001_Node000002"><a xlink:title=" ">
<path fill="none" stroke="#63b8ff" d="M68.06,-627.37C20.71,-481.59 35.56,-255.05 112.61,-159.93"/>
<polygon fill="none" stroke="#63b8ff" points="64.75,-628.5 71.27,-636.85 71.38,-626.26 64.75,-628.5"/>
</a>
</g>
</g>
<!-- Node2&#45;&gt;Node1 -->
<g id="edge5_Node000001_Node000002" class="edge">
<title>Node2&#45;&gt;Node1</title>
<g id="a_edge5_Node000001_Node000002"><a xlink:title=" ">
<path fill="none" stroke="#63b8ff" d="M69.1,-587.08C39.98,-448.25 54.5,-261.73 112.67,-170.46"/>
<polygon fill="none" stroke="#63b8ff" points="65.71,-587.97 71.27,-596.99 72.55,-586.47 65.71,-587.97"/>
</a>
</g>
</g>
<!-- Node2&#45;&gt;Node1 -->
<g id="edge6_Node000001_Node000002" class="edge">
<title>Node2&#45;&gt;Node1</title>
<g id="a_edge6_Node000001_Node000002"><a xlink:title=" ">
<path fill="none" stroke="#63b8ff" d="M70.47,-503.71C61.88,-388.71 75.95,-261.93 112.7,-185.53"/>
<polygon fill="none" stroke="#63b8ff" points="66.98,-504.05 71.27,-513.73 73.96,-503.49 66.98,-504.05"/>
</a>
</g>
</g>
<!-- Node2&#45;&gt;Node1 -->
<g id="edge8_Node000001_Node000002" class="edge">
<title>Node2&#45;&gt;Node1</title>
<g id="a_edge8_Node000001_Node000002"><a xlink:title=" ">
<path fill="none" stroke="#63b8ff" d="M99.8,-255C103.53,-238.42 107.85,-222.81 112.73,-208.46"/>
<polygon fill="none" stroke="#63b8ff" points="96.35,-254.35 97.66,-264.87 103.2,-255.83 96.35,-254.35"/>
</a>
</g>
</g>
<!-- Node2&#45;&gt;Node1 -->
<g id="edge9_Node000001_Node000002" class="edge">
<title>Node2&#45;&gt;Node1</title>
<g id="a_edge9_Node000001_Node000002"><a xlink:title=" ">
<path fill="none" stroke="#63b8ff" d="M111.17,-254.86C112.92,-246.1 114.81,-237.61 116.83,-229.43"/>
<polygon fill="none" stroke="#63b8ff" points="107.7,-254.39 109.26,-264.87 114.58,-255.7 107.7,-254.39"/>
</a>
</g>
</g>
<!-- Node2&#45;&gt;Node1 -->
<g id="edge10_Node000001_Node000002" class="edge">
<title>Node2&#45;&gt;Node1</title>
<g id="a_edge10_Node000001_Node000002"><a xlink:title=" ">
<path fill="none" stroke="#63b8ff" d="M122.52,-254.86C124.03,-246.1 125.67,-237.61 127.43,-229.43"/>
<polygon fill="none" stroke="#63b8ff" points="119.04,-254.43 120.86,-264.87 125.95,-255.57 119.04,-254.43"/>
</a>
</g>
</g>
<!-- Node2&#45;&gt;Node1 -->
<g id="edge11_Node000001_Node000002" class="edge">
<title>Node2&#45;&gt;Node1</title>
<g id="a_edge11_Node000001_Node000002"><a xlink:title=" ">
<path fill="none" stroke="#63b8ff" d="M133.87,-254.86C135.15,-246.1 136.53,-237.61 138.02,-229.43"/>
<polygon fill="none" stroke="#63b8ff" points="130.39,-254.48 132.47,-264.87 137.32,-255.45 130.39,-254.48"/>
</a>
</g>
</g>
<!-- Node2&#45;&gt;Node1 -->
<g id="edge12_Node000001_Node000002" class="edge">
<title>Node2&#45;&gt;Node1</title>
<g id="a_edge12_Node000001_Node000002"><a xlink:title=" ">
<path fill="none" stroke="#63b8ff" d="M145.21,-254.86C146.26,-246.1 147.39,-237.61 148.61,-229.43"/>
<polygon fill="none" stroke="#63b8ff" points="141.73,-254.53 144.07,-264.87 148.68,-255.33 141.73,-254.53"/>
</a>
</g>
</g>
<!-- Node2&#45;&gt;Node1 -->
<g id="edge13_Node000001_Node000002" class="edge">
<title>Node2&#45;&gt;Node1</title>
<g id="a_edge13_Node000001_Node000002"><a xlink:title=" ">
<path fill="none" stroke="#63b8ff" d="M156.56,-254.86C157.38,-246.1 158.26,-237.61 159.2,-229.43"/>
<polygon fill="none" stroke="#63b8ff" points="153.07,-254.59 155.67,-264.87 160.04,-255.22 153.07,-254.59"/>
</a>
</g>
</g>
<!-- Node2&#45;&gt;Node1 -->
<g id="edge14_Node000001_Node000002" class="edge">
<title>Node2&#45;&gt;Node1</title>
<g id="a_edge14_Node000001_Node000002"><a xlink:title=" ">
<path fill="none" stroke="#63b8ff" d="M167.91,-254.86C168.49,-246.1 169.12,-237.61 169.79,-229.43"/>
<polygon fill="none" stroke="#63b8ff" points="164.41,-254.66 167.27,-264.87 171.4,-255.11 164.41,-254.66"/>
</a>
</g>
</g>
<!-- Node2&#45;&gt;Node1 -->
<g id="edge15_Node000001_Node000002" class="edge">
<title>Node2&#45;&gt;Node1</title>
<g id="a_edge15_Node000001_Node000002"><a xlink:title=" ">
<path fill="none" stroke="#63b8ff" d="M179.25,-254.86C179.6,-246.1 179.98,-237.61 180.39,-229.43"/>
<polygon fill="none" stroke="#63b8ff" points="175.76,-254.74 178.87,-264.87 182.75,-255.01 175.76,-254.74"/>
</a>
</g>
</g>
<!-- Node2&#45;&gt;Node1 -->
<g id="edge16_Node000001_Node000002" class="edge">
<title>Node2&#45;&gt;Node1</title>
<g id="a_edge16_Node000001_Node000002"><a xlink:title=" ">
<path fill="none" stroke="#63b8ff" d="M190.6,-254.86C190.72,-246.1 190.84,-237.61 190.98,-229.43"/>
<polygon fill="none" stroke="#63b8ff" points="187.1,-254.82 190.47,-264.87 194.1,-254.91 187.1,-254.82"/>
</a>
</g>
</g>
<!-- Node2&#45;&gt;Node1 -->
<g id="edge17_Node000001_Node000002" class="edge">
<title>Node2&#45;&gt;Node1</title>
<g id="a_edge17_Node000001_Node000002"><a xlink:title=" ">
<path fill="none" stroke="#63b8ff" d="M201.95,-254.86C201.83,-246.1 201.71,-237.61 201.57,-229.43"/>
<polygon fill="none" stroke="#63b8ff" points="198.45,-254.91 202.08,-264.87 205.45,-254.82 198.45,-254.91"/>
</a>
</g>
</g>
<!-- Node2&#45;&gt;Node1 -->
<g id="edge18_Node000001_Node000002" class="edge">
<title>Node2&#45;&gt;Node1</title>
<g id="a_edge18_Node000001_Node000002"><a xlink:title=" ">
<path fill="none" stroke="#63b8ff" d="M213.29,-254.86C212.95,-246.1 212.57,-237.61 212.16,-229.43"/>
<polygon fill="none" stroke="#63b8ff" points="209.8,-255.01 213.68,-264.87 216.79,-254.74 209.8,-255.01"/>
</a>
</g>
</g>
<!-- Node2&#45;&gt;Node1 -->
<g id="edge19_Node000001_Node000002" class="edge">
<title>Node2&#45;&gt;Node1</title>
<g id="a_edge19_Node000001_Node000002"><a xlink:title=" ">
<path fill="none" stroke="#63b8ff" d="M224.64,-254.86C224.06,-246.1 223.43,-237.61 222.75,-229.43"/>
<polygon fill="none" stroke="#63b8ff" points="221.15,-255.11 225.28,-264.87 228.14,-254.66 221.15,-255.11"/>
</a>
</g>
</g>
<!-- Node2&#45;&gt;Node1 -->
<g id="edge20_Node000001_Node000002" class="edge">
<title>Node2&#45;&gt;Node1</title>
<g id="a_edge20_Node000001_Node000002"><a xlink:title=" ">
<path fill="none" stroke="#63b8ff" d="M235.99,-254.86C235.17,-246.1 234.29,-237.61 233.35,-229.43"/>
<polygon fill="none" stroke="#63b8ff" points="232.51,-255.22 236.88,-264.87 239.48,-254.59 232.51,-255.22"/>
</a>
</g>
</g>
<!-- Node2&#45;&gt;Node1 -->
<g id="edge21_Node000001_Node000002" class="edge">
<title>Node2&#45;&gt;Node1</title>
<g id="a_edge21_Node000001_Node000002"><a xlink:title=" ">
<path fill="none" stroke="#63b8ff" d="M247.34,-254.86C246.29,-246.1 245.16,-237.61 243.94,-229.43"/>
<polygon fill="none" stroke="#63b8ff" points="243.87,-255.33 248.48,-264.87 250.82,-254.53 243.87,-255.33"/>
</a>
</g>
</g>
<!-- Node2&#45;&gt;Node1 -->
<g id="edge22_Node000001_Node000002" class="edge">
<title>Node2&#45;&gt;Node1</title>
<g id="a_edge22_Node000001_Node000002"><a xlink:title=" ">
<path fill="none" stroke="#63b8ff" d="M258.68,-254.86C257.4,-246.1 256.02,-237.61 254.53,-229.43"/>
<polygon fill="none" stroke="#63b8ff" points="255.23,-255.45 260.08,-264.87 262.16,-254.48 255.23,-255.45"/>
</a>
</g>
</g>
<!-- Node2&#45;&gt;Node1 -->
<g id="edge23_Node000001_Node000002" class="edge">
<title>Node2&#45;&gt;Node1</title>
<g id="a_edge23_Node000001_Node000002"><a xlink:title=" ">
<path fill="none" stroke="#63b8ff" d="M270.03,-254.86C268.52,-246.1 266.88,-237.61 265.12,-229.43"/>
<polygon fill="none" stroke="#63b8ff" points="266.6,-255.57 271.68,-264.87 273.5,-254.43 266.6,-255.57"/>
</a>
</g>
</g>
<!-- Node2&#45;&gt;Node1 -->
<g id="edge24_Node000001_Node000002" class="edge">
<title>Node2&#45;&gt;Node1</title>
<g id="a_edge24_Node000001_Node000002"><a xlink:title=" ">
<path fill="none" stroke="#63b8ff" d="M281.38,-254.86C279.63,-246.1 277.74,-237.61 275.72,-229.43"/>
<polygon fill="none" stroke="#63b8ff" points="277.97,-255.7 283.29,-264.87 284.85,-254.39 277.97,-255.7"/>
</a>
</g>
</g>
<!-- Node2&#45;&gt;Node1 -->
<g id="edge25_Node000001_Node000002" class="edge">
<title>Node2&#45;&gt;Node1</title>
<g id="a_edge25_Node000001_Node000002"><a xlink:title=" ">
<path fill="none" stroke="#63b8ff" d="M292.75,-255C289.02,-238.42 284.7,-222.81 279.82,-208.46"/>
<polygon fill="none" stroke="#63b8ff" points="289.35,-255.83 294.89,-264.87 296.19,-254.35 289.35,-255.83"/>
</a>
</g>
</g>
<!-- Node2&#45;&gt;Node1 -->
<g id="edge26_Node000001_Node000002" class="edge">
<title>Node2&#45;&gt;Node1</title>
<g id="a_edge26_Node000001_Node000002"><a xlink:title=" ">
<path fill="none" stroke="#63b8ff" d="M322.08,-503.71C330.67,-388.71 316.59,-261.93 279.85,-185.53"/>
<polygon fill="none" stroke="#63b8ff" points="318.59,-503.49 321.27,-513.73 325.57,-504.05 318.59,-503.49"/>
</a>
</g>
</g>
<!-- Node2&#45;&gt;Node1 -->
<g id="edge27_Node000001_Node000002" class="edge">
<title>Node2&#45;&gt;Node1</title>
<g id="a_edge27_Node000001_Node000002"><a xlink:title=" ">
<path fill="none" stroke="#63b8ff" d="M323.45,-587.08C352.57,-448.25 338.05,-261.73 279.88,-170.46"/>
<polygon fill="none" stroke="#63b8ff" points="320,-586.47 321.27,-596.99 326.83,-587.97 320,-586.47"/>
</a>
</g>
</g>
<!-- Node2&#45;&gt;Node1 -->
<g id="edge28_Node000001_Node000002" class="edge">
<title>Node2&#45;&gt;Node1</title>
<g id="a_edge28_Node000001_Node000002"><a xlink:title=" ">
<path fill="none" stroke="#63b8ff" d="M324.49,-627.37C371.84,-481.59 356.99,-255.05 279.93,-159.93"/>
<polygon fill="none" stroke="#63b8ff" points="321.17,-626.26 321.28,-636.85 327.8,-628.5 321.17,-626.26"/>
</a>
</g>
</g>
<!-- Node2&#45;&gt;Node1 -->
<g id="edge29_Node000001_Node000002" class="edge">
<title>Node2&#45;&gt;Node1</title>
<g id="a_edge29_Node000001_Node000002"><a xlink:title=" ">
<path fill="none" stroke="#63b8ff" d="M325.53,-652.94C390.49,-505.76 375.32,-247.62 280.02,-152.26"/>
<polygon fill="none" stroke="#63b8ff" points="322.34,-651.49 321.34,-662.04 328.7,-654.42 322.34,-651.49"/>
</a>
</g>
</g>
<!-- Node2&#45;&gt;Node1 -->
<g id="edge30_Node000001_Node000002" class="edge">
<title>Node2&#45;&gt;Node1</title>
<g id="a_edge30_Node000001_Node000002"><a xlink:title=" ">
<path fill="none" stroke="#63b8ff" d="M326.75,-670.57C408.86,-524.42 393.31,-240.29 280.07,-146.42"/>
<polygon fill="none" stroke="#63b8ff" points="323.51,-669.17 321.46,-679.56 329.54,-672.72 323.51,-669.17"/>
</a>
</g>
</g>
<!-- Node2&#45;&gt;Node1 -->
<g id="edge31_Node000001_Node000002" class="edge">
<title>Node2&#45;&gt;Node1</title>
<g id="a_edge31_Node000001_Node000002"><a xlink:title=" ">
<path fill="none" stroke="#63b8ff" d="M327.51,-684.32C427.17,-540.74 411.37,-233.6 280.1,-141.88"/>
<polygon fill="none" stroke="#63b8ff" points="324.47,-682.56 321.42,-692.71 330.13,-686.67 324.47,-682.56"/>
</a>
</g>
</g>
<!-- Node3 -->
<g id="Node000003" class="node">
<title>Node3</title>
<g id="a_Node000003"><a xlink:title=" ">
<polygon fill="white" stroke="transparent" points="465.27,-785 339.27,-785 339.27,-736 465.27,-736 465.27,-785"/>
<text text-anchor="start" x="344.27" y="-772.5" font-family="Helvetica,sans-Serif" font-size="10.00">global::SystemAttribute</text>
<text text-anchor="start" x="400.27" y="-757.5" font-family="Helvetica,sans-Serif" font-size="10.00"> </text>
<text text-anchor="start" x="400.27" y="-742.5" font-family="Helvetica,sans-Serif" font-size="10.00"> </text>
<polygon fill="#666666" stroke="#666666" points="339.27,-767.5 339.27,-767.5 465.27,-767.5 465.27,-767.5 339.27,-767.5"/>
<polygon fill="#666666" stroke="#666666" points="339.27,-752.5 339.27,-752.5 465.27,-752.5 465.27,-752.5 339.27,-752.5"/>
<polygon fill="none" stroke="#666666" points="339.27,-736 339.27,-785 465.27,-785 465.27,-736 339.27,-736"/>
</a>
</g>
</g>
<!-- Node3&#45;&gt;Node1 -->
<g id="edge7_Node000001_Node000003" class="edge">
<title>Node3&#45;&gt;Node1</title>
<g id="a_edge7_Node000001_Node000003"><a xlink:title=" ">
<path fill="none" stroke="#63b8ff" d="M403.87,-725.91C406.46,-643.23 405.13,-424.97 330.27,-265 317.94,-238.64 299.39,-213.57 280,-191.75"/>
<polygon fill="none" stroke="#63b8ff" points="400.37,-725.86 403.51,-735.98 407.37,-726.11 400.37,-725.86"/>
</a>
</g>
</g>
</g>
</svg>
