<?xml version="1.0" encoding="UTF-8" standalone="no"?>
<!DOCTYPE svg PUBLIC "-//W3C//DTD SVG 1.1//EN"
 "http://www.w3.org/Graphics/SVG/1.1/DTD/svg11.dtd">
<!-- Generated by graphviz version 2.43.0 (0)
 -->
<!-- Title: Microsoft.Xna.Framework.Graphics.EffectTechniqueCollection Pages: 1 -->
<svg width="451pt" height="364pt"
 viewBox="0.00 0.00 451.00 364.00" xmlns="http://www.w3.org/2000/svg" xmlns:xlink="http://www.w3.org/1999/xlink">

<svg id="main" version="1.1" xmlns="http://www.w3.org/2000/svg" xmlns:xlink="http://www.w3.org/1999/xlink" xml:space="preserve" onload="init(evt)">
<style type="text/css"><![CDATA[
.node, .edge {opacity: 0.7;}
.node.selected, .edge.selected {opacity: 1;}
.edge:hover path { stroke: red; }
.edge:hover polygon { stroke: red; fill: red; }
]]></style>
<script type="application/ecmascript" xlink:href="../../svg.min.js"/>
<svg id="graph" class="graph">
<g id="graph0" class="graph" transform="scale(1 1) rotate(0) translate(4 360)">
<title>Microsoft.Xna.Framework.Graphics.EffectTechniqueCollection</title>
<!-- Node1 -->
<g id="Node000001" class="node">
<title>Node1</title>
<g id="a_Node000001"><a xlink:title=" ">
<polygon fill="#999999" stroke="transparent" points="316.5,-164 134.5,-164 134.5,0 316.5,0 316.5,-164"/>
<text text-anchor="start" x="139.5" y="-152" font-family="Helvetica,sans-Serif" font-size="10.00">Microsoft.Xna.Framework.</text>
<text text-anchor="start" x="139.5" y="-141" font-family="Helvetica,sans-Serif" font-size="10.00">Graphics.EffectTechniqueCollection</text>
<text text-anchor="start" x="141.5" y="-126" font-family="Helvetica,sans-Serif" font-size="10.00">+</text>
<text text-anchor="start" x="157.5" y="-126" font-family="Helvetica,sans-Serif" font-size="10.00">int Count</text>
<text text-anchor="start" x="141.5" y="-111" font-family="Helvetica,sans-Serif" font-size="10.00">+</text>
<text text-anchor="start" x="157.5" y="-111" font-family="Helvetica,sans-Serif" font-size="10.00">EffectTechnique Item</text>
<text text-anchor="start" x="141.5" y="-96" font-family="Helvetica,sans-Serif" font-size="10.00">+</text>
<text text-anchor="start" x="157.5" y="-96" font-family="Helvetica,sans-Serif" font-size="10.00">IEnumerator&lt; EffectTechnique</text>
<text text-anchor="start" x="157.5" y="-85" font-family="Helvetica,sans-Serif" font-size="10.00"> &gt; GetEnumerator()</text>
<text text-anchor="start" x="141.5" y="-70" font-family="Helvetica,sans-Serif" font-size="10.00">~</text>
<text text-anchor="start" x="157.5" y="-70" font-family="Helvetica,sans-Serif" font-size="10.00">EffectTechniqueCollection</text>
<text text-anchor="start" x="157.5" y="-59" font-family="Helvetica,sans-Serif" font-size="10.00">(EffectTechnique[] techniques)</text>
<text text-anchor="start" x="141.5" y="-44" font-family="Helvetica,sans-Serif" font-size="10.00">~</text>
<text text-anchor="start" x="157.5" y="-44" font-family="Helvetica,sans-Serif" font-size="10.00">EffectTechniqueCollection</text>
<text text-anchor="start" x="157.5" y="-33" font-family="Helvetica,sans-Serif" font-size="10.00"> Clone(Effect effect)</text>
<text text-anchor="start" x="144" y="-18" font-family="Helvetica,sans-Serif" font-size="10.00">&#45;</text>
<text text-anchor="start" x="157.5" y="-18" font-family="Helvetica,sans-Serif" font-size="10.00">IEnumerator IEnumerable.</text>
<text text-anchor="start" x="157.5" y="-7" font-family="Helvetica,sans-Serif" font-size="10.00"> GetEnumerator()</text>
<polygon fill="#666666" stroke="#666666" points="134.5,-136 134.5,-136 316.5,-136 316.5,-136 134.5,-136"/>
<polygon fill="#666666" stroke="#666666" points="134.5,-106 134.5,-106 155.5,-106 155.5,-106 134.5,-106"/>
<polygon fill="#666666" stroke="#666666" points="155.5,-106 155.5,-106 316.5,-106 316.5,-106 155.5,-106"/>
<polygon fill="none" stroke="#666666" points="134.5,0 134.5,-164 316.5,-164 316.5,0 134.5,0"/>
</a>
</g>
</g>
<!-- Node2 -->
<g id="Node000002" class="node">
<title>Node2</title>
<g id="a_Node000002"><a xlink:href="../../d5/ddf/classIEnumerable.html" target="_top" xlink:title=" ">
<polygon fill="white" stroke="transparent" points="171,-308 0,-308 0,-259 171,-259 171,-308"/>
<text text-anchor="start" x="5.5" y="-295.5" font-family="Helvetica,sans-Serif" font-size="10.00">IEnumerable&lt; EffectTechnique &gt;</text>
<text text-anchor="start" x="84" y="-280.5" font-family="Helvetica,sans-Serif" font-size="10.00"> </text>
<text text-anchor="start" x="84" y="-265.5" font-family="Helvetica,sans-Serif" font-size="10.00"> </text>
<polygon fill="#666666" stroke="#666666" points="0.5,-290.5 0.5,-290.5 171.5,-290.5 171.5,-290.5 0.5,-290.5"/>
<polygon fill="#666666" stroke="#666666" points="0.5,-275.5 0.5,-275.5 171.5,-275.5 171.5,-275.5 0.5,-275.5"/>
<polygon fill="none" stroke="#666666" points="0,-259 0,-308 171,-308 171,-259 0,-259"/>
</a>
</g>
</g>
<!-- Node2&#45;&gt;Node1 -->
<g id="edge1_Node000001_Node000002" class="edge">
<title>Node2&#45;&gt;Node1</title>
<g id="a_edge1_Node000001_Node000002"><a xlink:title=" ">
<path fill="none" stroke="#63b8ff" d="M108.05,-250.36C124.44,-227.01 147.39,-194.31 168.65,-164.01"/>
<polygon fill="none" stroke="#63b8ff" points="104.99,-248.64 102.11,-258.83 110.72,-252.66 104.99,-248.64"/>
</a>
</g>
</g>
<!-- Node3 -->
<g id="Node000003" class="node">
<title>Node3</title>
<g id="a_Node000003"><a xlink:href="../../d5/ddf/classIEnumerable.html" target="_top" xlink:title=" ">
<polygon fill="white" stroke="transparent" points="261.5,-308 189.5,-308 189.5,-259 261.5,-259 261.5,-308"/>
<text text-anchor="start" x="194.5" y="-295.5" font-family="Helvetica,sans-Serif" font-size="10.00">IEnumerable</text>
<text text-anchor="start" x="223.5" y="-280.5" font-family="Helvetica,sans-Serif" font-size="10.00"> </text>
<text text-anchor="start" x="223.5" y="-265.5" font-family="Helvetica,sans-Serif" font-size="10.00"> </text>
<polygon fill="#666666" stroke="#666666" points="189.5,-290.5 189.5,-290.5 261.5,-290.5 261.5,-290.5 189.5,-290.5"/>
<polygon fill="#666666" stroke="#666666" points="189.5,-275.5 189.5,-275.5 261.5,-275.5 261.5,-275.5 189.5,-275.5"/>
<polygon fill="none" stroke="#666666" points="189.5,-259 189.5,-308 261.5,-308 261.5,-259 189.5,-259"/>
</a>
</g>
</g>
<!-- Node3&#45;&gt;Node1 -->
<g id="edge2_Node000001_Node000003" class="edge">
<title>Node3&#45;&gt;Node1</title>
<g id="a_edge2_Node000001_Node000003"><a xlink:title=" ">
<path fill="none" stroke="#63b8ff" d="M225.5,-248.81C225.5,-225.57 225.5,-193.65 225.5,-164.01"/>
<polygon fill="none" stroke="#63b8ff" points="222,-248.83 225.5,-258.83 229,-248.83 222,-248.83"/>
</a>
</g>
</g>
<!-- Node4 -->
<g id="Node000004" class="node">
<title>Node4</title>
<g id="a_Node000004"><a xlink:href="../../de/dbd/classMicrosoft_1_1Xna_1_1Framework_1_1Graphics_1_1EffectTechnique.html" target="_top" xlink:title=" ">
<polygon fill="white" stroke="transparent" points="443,-356 280,-356 280,-211 443,-211 443,-356"/>
<text text-anchor="start" x="298" y="-343.5" font-family="Helvetica,sans-Serif" font-size="10.00">Microsoft.Xna.Framework.</text>
<text text-anchor="start" x="300.5" y="-332.5" font-family="Helvetica,sans-Serif" font-size="10.00">Graphics.EffectTechnique</text>
<text text-anchor="start" x="284.5" y="-317.5" font-family="Helvetica,sans-Serif" font-size="10.00">+</text>
<text text-anchor="start" x="297.5" y="-317.5" font-family="Helvetica,sans-Serif" font-size="10.00">EffectPassCollection</text>
<text text-anchor="start" x="297.5" y="-306.5" font-family="Helvetica,sans-Serif" font-size="10.00"> Passes</text>
<text text-anchor="start" x="284.5" y="-291.5" font-family="Helvetica,sans-Serif" font-size="10.00">+</text>
<text text-anchor="start" x="297.5" y="-291.5" font-family="Helvetica,sans-Serif" font-size="10.00">string Name</text>
<text text-anchor="start" x="284.5" y="-276.5" font-family="Helvetica,sans-Serif" font-size="10.00">~</text>
<text text-anchor="start" x="297.5" y="-276.5" font-family="Helvetica,sans-Serif" font-size="10.00">EffectTechnique(Effect</text>
<text text-anchor="start" x="297.5" y="-265.5" font-family="Helvetica,sans-Serif" font-size="10.00"> effect, EffectTechnique</text>
<text text-anchor="start" x="297.5" y="-254.5" font-family="Helvetica,sans-Serif" font-size="10.00"> cloneSource)</text>
<text text-anchor="start" x="284.5" y="-239.5" font-family="Helvetica,sans-Serif" font-size="10.00">~</text>
<text text-anchor="start" x="297.5" y="-239.5" font-family="Helvetica,sans-Serif" font-size="10.00">EffectTechnique(Effect</text>
<text text-anchor="start" x="297.5" y="-228.5" font-family="Helvetica,sans-Serif" font-size="10.00"> effect, string name,</text>
<text text-anchor="start" x="297.5" y="-217.5" font-family="Helvetica,sans-Serif" font-size="10.00"> EffectPassCollection passes)</text>
<polygon fill="#666666" stroke="#666666" points="280.5,-327.5 280.5,-327.5 443.5,-327.5 443.5,-327.5 280.5,-327.5"/>
<polygon fill="#666666" stroke="#666666" points="280.5,-286.5 280.5,-286.5 295.5,-286.5 295.5,-286.5 280.5,-286.5"/>
<polygon fill="#666666" stroke="#666666" points="295.5,-286.5 295.5,-286.5 443.5,-286.5 443.5,-286.5 295.5,-286.5"/>
<polygon fill="none" stroke="#666666" points="280,-211 280,-356 443,-356 443,-211 280,-211"/>
</a>
</g>
</g>
<!-- Node4&#45;&gt;Node1 -->
<g id="edge3_Node000001_Node000004" class="edge">
<title>Node4&#45;&gt;Node1</title>
<g id="a_edge3_Node000001_Node000004"><a xlink:title=" ">
<path fill="none" stroke="#63b8ff" d="M312.59,-210.76C304.56,-198.98 296.14,-186.63 287.84,-174.44"/>
<polygon fill="none" stroke="#63b8ff" points="287.66,-174.18 280.97,-171.48 280.9,-164.27 287.58,-166.97 287.66,-174.18"/>
</a>
</g>
<text text-anchor="middle" x="331.5" y="-185" font-family="Helvetica,sans-Serif" font-size="10.00" fill="grey"> &#45;_techniques</text>
</g>
</g>
</svg>
</svg>

<style type='text/css'>
<![CDATA[
[data-mouse-over-selected='false'] { opacity: 0.7; }
[data-mouse-over-selected='true']  { opacity: 1.0; }
]]>
</style>
<script type="application/ecmascript"><![CDATA[
document.addEventListener('DOMContentLoaded', (event) => {
  highlightEdges();
  highlightAdjacentNodes();
});
]]></script>
</svg>
