<?xml version="1.0" encoding="UTF-8" standalone="no"?>
<!DOCTYPE svg PUBLIC "-//W3C//DTD SVG 1.1//EN"
 "http://www.w3.org/Graphics/SVG/1.1/DTD/svg11.dtd">
<!-- Generated by graphviz version 2.43.0 (0)
 -->
<!-- Title: Terraria.GameContent.Animations.Actions.Sprites.AScale Pages: 1 -->
<svg width="634pt" height="1338pt"
 viewBox="0.00 0.00 633.50 1338.00" xmlns="http://www.w3.org/2000/svg" xmlns:xlink="http://www.w3.org/1999/xlink">
<g id="graph0" class="graph" transform="scale(1 1) rotate(0) translate(4 1334)">
<title>Terraria.GameContent.Animations.Actions.Sprites.AScale</title>
<!-- Node1 -->
<g id="Node000001" class="node">
<title>Node1</title>
<g id="a_Node000001"><a xlink:title=" ">
<polygon fill="#999999" stroke="transparent" points="333.5,-201 151.5,-201 151.5,0 333.5,0 333.5,-201"/>
<text text-anchor="start" x="158" y="-188.5" font-family="Helvetica,sans-Serif" font-size="10.00">Terraria.GameContent.Animations.</text>
<text text-anchor="start" x="188" y="-177.5" font-family="Helvetica,sans-Serif" font-size="10.00">Actions.Sprites.AScale</text>
<text text-anchor="start" x="155.5" y="-162.5" font-family="Helvetica,sans-Serif" font-size="10.00">+</text>
<text text-anchor="start" x="168.5" y="-162.5" font-family="Helvetica,sans-Serif" font-size="10.00">int ExpectedLengthOfAction</text>
<text text-anchor="start" x="168.5" y="-151.5" font-family="Helvetica,sans-Serif" font-size="10.00">InFrames</text>
<text text-anchor="start" x="155.5" y="-136.5" font-family="Helvetica,sans-Serif" font-size="10.00">+</text>
<text text-anchor="start" x="168.5" y="-136.5" font-family="Helvetica,sans-Serif" font-size="10.00">AScale(Vector2 scaleTarget)</text>
<text text-anchor="start" x="155.5" y="-121.5" font-family="Helvetica,sans-Serif" font-size="10.00">+</text>
<text text-anchor="start" x="168.5" y="-121.5" font-family="Helvetica,sans-Serif" font-size="10.00">AScale(Vector2 scaleTarget,</text>
<text text-anchor="start" x="168.5" y="-110.5" font-family="Helvetica,sans-Serif" font-size="10.00"> int duration)</text>
<text text-anchor="start" x="155.5" y="-95.5" font-family="Helvetica,sans-Serif" font-size="10.00">+</text>
<text text-anchor="start" x="168.5" y="-95.5" font-family="Helvetica,sans-Serif" font-size="10.00">void BindTo(Segments.Loose</text>
<text text-anchor="start" x="168.5" y="-84.5" font-family="Helvetica,sans-Serif" font-size="10.00">Sprite obj)</text>
<text text-anchor="start" x="155.5" y="-69.5" font-family="Helvetica,sans-Serif" font-size="10.00">+</text>
<text text-anchor="start" x="168.5" y="-69.5" font-family="Helvetica,sans-Serif" font-size="10.00">void SetDelay(float</text>
<text text-anchor="start" x="168.5" y="-58.5" font-family="Helvetica,sans-Serif" font-size="10.00"> delay)</text>
<text text-anchor="start" x="155.5" y="-43.5" font-family="Helvetica,sans-Serif" font-size="10.00">+</text>
<text text-anchor="start" x="168.5" y="-43.5" font-family="Helvetica,sans-Serif" font-size="10.00">void ApplyTo(Segments.Loose</text>
<text text-anchor="start" x="168.5" y="-32.5" font-family="Helvetica,sans-Serif" font-size="10.00">Sprite obj, float localTimeForObj)</text>
<text text-anchor="start" x="155.5" y="-17.5" font-family="Helvetica,sans-Serif" font-size="10.00">#</text>
<text text-anchor="start" x="168.5" y="-17.5" font-family="Helvetica,sans-Serif" font-size="10.00">float GetProgress(float</text>
<text text-anchor="start" x="168.5" y="-6.5" font-family="Helvetica,sans-Serif" font-size="10.00"> durationInFramesToApply)</text>
<polygon fill="#666666" stroke="#666666" points="151.5,-172.5 151.5,-172.5 333.5,-172.5 333.5,-172.5 151.5,-172.5"/>
<polygon fill="#666666" stroke="#666666" points="151.5,-146.5 151.5,-146.5 166.5,-146.5 166.5,-146.5 151.5,-146.5"/>
<polygon fill="#666666" stroke="#666666" points="166.5,-146.5 166.5,-146.5 333.5,-146.5 333.5,-146.5 166.5,-146.5"/>
<polygon fill="none" stroke="#666666" points="151.5,0 151.5,-201 333.5,-201 333.5,0 151.5,0"/>
</a>
</g>
</g>
<!-- Node2 -->
<g id="Node000002" class="node">
<title>Node2</title>
<g id="a_Node000002"><a xlink:href="../../d5/d50/interfaceTerraria_1_1GameContent_1_1Animations_1_1Actions_1_1Sprites_1_1ISpriteAction.html" target="_top" xlink:title=" ">
<polygon fill="white" stroke="transparent" points="212.5,-643.5 88.5,-643.5 88.5,-583.5 212.5,-583.5 212.5,-643.5"/>
<text text-anchor="start" x="93.5" y="-631.5" font-family="Helvetica,sans-Serif" font-size="10.00">Actions::Sprites::ISprite</text>
<text text-anchor="start" x="135" y="-620.5" font-family="Helvetica,sans-Serif" font-size="10.00">Action</text>
<text text-anchor="start" x="148.5" y="-605.5" font-family="Helvetica,sans-Serif" font-size="10.00"> </text>
<text text-anchor="start" x="148.5" y="-590.5" font-family="Helvetica,sans-Serif" font-size="10.00"> </text>
<polygon fill="#666666" stroke="#666666" points="88.5,-615.5 88.5,-615.5 212.5,-615.5 212.5,-615.5 88.5,-615.5"/>
<polygon fill="#666666" stroke="#666666" points="88.5,-600.5 88.5,-600.5 212.5,-600.5 212.5,-600.5 88.5,-600.5"/>
<polygon fill="none" stroke="#666666" points="88.5,-583.5 88.5,-643.5 212.5,-643.5 212.5,-583.5 88.5,-583.5"/>
</a>
</g>
</g>
<!-- Node2&#45;&gt;Node1 -->
<g id="edge1_Node000001_Node000002" class="edge">
<title>Node2&#45;&gt;Node1</title>
<g id="a_edge1_Node000001_Node000002"><a xlink:title=" ">
<path fill="none" stroke="#63b8ff" d="M157.58,-573.19C171.79,-494.28 204.16,-314.46 224.58,-201.04"/>
<polygon fill="none" stroke="#63b8ff" points="154.1,-572.73 155.78,-583.19 160.99,-573.97 154.1,-572.73"/>
</a>
</g>
</g>
<!-- Node3 -->
<g id="Node000003" class="node">
<title>Node3</title>
<g id="a_Node000003"><a xlink:href="../../d1/d86/interfaceTerraria_1_1GameContent_1_1Animations_1_1IAnimationSegmentAction.html" target="_top" xlink:title=" ">
<polygon fill="white" stroke="transparent" points="168,-1160 11,-1160 11,-1037 168,-1037 168,-1160"/>
<text text-anchor="start" x="24" y="-1147.5" font-family="Helvetica,sans-Serif" font-size="10.00">IAnimationSegmentAction</text>
<text text-anchor="start" x="24" y="-1136.5" font-family="Helvetica,sans-Serif" font-size="10.00">&lt; Segments.LooseSprite &gt;</text>
<text text-anchor="start" x="15.5" y="-1121.5" font-family="Helvetica,sans-Serif" font-size="10.00">+</text>
<text text-anchor="start" x="28.5" y="-1121.5" font-family="Helvetica,sans-Serif" font-size="10.00">int ExpectedLengthOfAction</text>
<text text-anchor="start" x="28.5" y="-1110.5" font-family="Helvetica,sans-Serif" font-size="10.00">InFrames</text>
<text text-anchor="start" x="15.5" y="-1095.5" font-family="Helvetica,sans-Serif" font-size="10.00">+</text>
<text text-anchor="start" x="28.5" y="-1095.5" font-family="Helvetica,sans-Serif" font-size="10.00">void BindTo(T obj)</text>
<text text-anchor="start" x="15.5" y="-1080.5" font-family="Helvetica,sans-Serif" font-size="10.00">+</text>
<text text-anchor="start" x="28.5" y="-1080.5" font-family="Helvetica,sans-Serif" font-size="10.00">void ApplyTo(T obj,</text>
<text text-anchor="start" x="28.5" y="-1069.5" font-family="Helvetica,sans-Serif" font-size="10.00"> float localTimeForObj)</text>
<text text-anchor="start" x="15.5" y="-1054.5" font-family="Helvetica,sans-Serif" font-size="10.00">+</text>
<text text-anchor="start" x="28.5" y="-1054.5" font-family="Helvetica,sans-Serif" font-size="10.00">void SetDelay(float</text>
<text text-anchor="start" x="28.5" y="-1043.5" font-family="Helvetica,sans-Serif" font-size="10.00"> delay)</text>
<polygon fill="#666666" stroke="#666666" points="11.5,-1131.5 11.5,-1131.5 168.5,-1131.5 168.5,-1131.5 11.5,-1131.5"/>
<polygon fill="#666666" stroke="#666666" points="11.5,-1105.5 11.5,-1105.5 26.5,-1105.5 26.5,-1105.5 11.5,-1105.5"/>
<polygon fill="#666666" stroke="#666666" points="26.5,-1105.5 26.5,-1105.5 168.5,-1105.5 168.5,-1105.5 26.5,-1105.5"/>
<polygon fill="none" stroke="#666666" points="11,-1037 11,-1160 168,-1160 168,-1037 11,-1037"/>
</a>
</g>
</g>
<!-- Node3&#45;&gt;Node1 -->
<g id="edge4_Node000001_Node000003" class="edge">
<title>Node3&#45;&gt;Node1</title>
<g id="a_edge4_Node000001_Node000003"><a xlink:title=" ">
<path fill="none" stroke="#63b8ff" d="M69.71,-1026.85C31.4,-875.97 -39.23,-514.34 79.5,-248 94.84,-213.6 122.69,-183.89 151.08,-160.4"/>
<polygon fill="none" stroke="#63b8ff" points="66.42,-1028.1 72.3,-1036.91 73.2,-1026.36 66.42,-1028.1"/>
</a>
</g>
</g>
<!-- Node3&#45;&gt;Node2 -->
<g id="edge2_Node000002_Node000003" class="edge">
<title>Node3&#45;&gt;Node2</title>
<g id="a_edge2_Node000002_Node000003"><a xlink:title=" ">
<path fill="none" stroke="#63b8ff" d="M98.44,-1026.69C112.04,-918.99 137.35,-718.64 146.81,-643.74"/>
<polygon fill="none" stroke="#63b8ff" points="94.94,-1026.46 97.16,-1036.82 101.89,-1027.33 94.94,-1026.46"/>
</a>
</g>
</g>
<!-- Node4 -->
<g id="Node000004" class="node">
<title>Node4</title>
<g id="a_Node000004"><a xlink:href="../../d1/d86/interfaceTerraria_1_1GameContent_1_1Animations_1_1IAnimationSegmentAction.html" target="_top" xlink:title=" ">
<polygon fill="white" stroke="transparent" points="179,-1330 0,-1330 0,-1207 179,-1207 179,-1330"/>
<text text-anchor="start" x="5.5" y="-1317.5" font-family="Helvetica,sans-Serif" font-size="10.00">Terraria.GameContent.Animations.</text>
<text text-anchor="start" x="11.5" y="-1306.5" font-family="Helvetica,sans-Serif" font-size="10.00">IAnimationSegmentAction&lt; T &gt;</text>
<text text-anchor="start" x="10" y="-1291.5" font-family="Helvetica,sans-Serif" font-size="10.00">+</text>
<text text-anchor="start" x="28.5" y="-1291.5" font-family="Helvetica,sans-Serif" font-size="10.00">int ExpectedLengthOfAction</text>
<text text-anchor="start" x="28.5" y="-1280.5" font-family="Helvetica,sans-Serif" font-size="10.00">InFrames</text>
<text text-anchor="start" x="10" y="-1265.5" font-family="Helvetica,sans-Serif" font-size="10.00">+</text>
<text text-anchor="start" x="28.5" y="-1265.5" font-family="Helvetica,sans-Serif" font-size="10.00">void BindTo(T obj)</text>
<text text-anchor="start" x="10" y="-1250.5" font-family="Helvetica,sans-Serif" font-size="10.00">+</text>
<text text-anchor="start" x="28.5" y="-1250.5" font-family="Helvetica,sans-Serif" font-size="10.00">void ApplyTo(T obj,</text>
<text text-anchor="start" x="28.5" y="-1239.5" font-family="Helvetica,sans-Serif" font-size="10.00"> float localTimeForObj)</text>
<text text-anchor="start" x="10" y="-1224.5" font-family="Helvetica,sans-Serif" font-size="10.00">+</text>
<text text-anchor="start" x="28.5" y="-1224.5" font-family="Helvetica,sans-Serif" font-size="10.00">void SetDelay(float</text>
<text text-anchor="start" x="28.5" y="-1213.5" font-family="Helvetica,sans-Serif" font-size="10.00"> delay)</text>
<polygon fill="#666666" stroke="#666666" points="0.5,-1301.5 0.5,-1301.5 179.5,-1301.5 179.5,-1301.5 0.5,-1301.5"/>
<polygon fill="#666666" stroke="#666666" points="0.5,-1275.5 0.5,-1275.5 26.5,-1275.5 26.5,-1275.5 0.5,-1275.5"/>
<polygon fill="#666666" stroke="#666666" points="26.5,-1275.5 26.5,-1275.5 179.5,-1275.5 179.5,-1275.5 26.5,-1275.5"/>
<polygon fill="none" stroke="#666666" points="0,-1207 0,-1330 179,-1330 179,-1207 0,-1207"/>
</a>
</g>
</g>
<!-- Node4&#45;&gt;Node3 -->
<g id="edge3_Node000003_Node000004" class="edge">
<title>Node4&#45;&gt;Node3</title>
<g id="a_edge3_Node000003_Node000004"><a xlink:title=" ">
<path fill="none" stroke="orange" d="M89.5,-1196.72C89.5,-1184.53 89.5,-1171.95 89.5,-1160.06"/>
<polygon fill="orange" stroke="orange" points="86,-1196.85 89.5,-1206.85 93,-1196.85 86,-1196.85"/>
</a>
</g>
<text text-anchor="middle" x="157" y="-1181" font-family="Helvetica,sans-Serif" font-size="10.00" fill="grey"> &lt; Segments.LooseSprite &gt;</text>
</g>
<!-- Node5 -->
<g id="Node000005" class="node">
<title>Node5</title>
<g id="a_Node000005"><a xlink:title=" ">
<polygon fill="white" stroke="transparent" points="254,-638 231,-638 231,-589 254,-589 254,-638"/>
<text text-anchor="start" x="236.5" y="-625.5" font-family="Helvetica,sans-Serif" font-size="10.00">int</text>
<text text-anchor="start" x="241" y="-610.5" font-family="Helvetica,sans-Serif" font-size="10.00"> </text>
<text text-anchor="start" x="241" y="-595.5" font-family="Helvetica,sans-Serif" font-size="10.00"> </text>
<polygon fill="#666666" stroke="#666666" points="231.5,-620.5 231.5,-620.5 254.5,-620.5 254.5,-620.5 231.5,-620.5"/>
<polygon fill="#666666" stroke="#666666" points="231.5,-605.5 231.5,-605.5 254.5,-605.5 254.5,-605.5 231.5,-605.5"/>
<polygon fill="none" stroke="#666666" points="231,-589 231,-638 254,-638 254,-589 231,-589"/>
</a>
</g>
</g>
<!-- Node5&#45;&gt;Node1 -->
<g id="edge5_Node000001_Node000005" class="edge">
<title>Node5&#45;&gt;Node1</title>
<g id="a_edge5_Node000001_Node000005"><a xlink:title=" ">
<path fill="none" stroke="#63b8ff" d="M242.5,-588.88C242.5,-523.25 242.5,-335.48 242.5,-213.09"/>
<polygon fill="none" stroke="#63b8ff" points="242.5,-213.09 238.5,-207.09 242.5,-201.09 246.5,-207.09 242.5,-213.09"/>
</a>
</g>
<text text-anchor="middle" x="269.5" y="-222" font-family="Helvetica,sans-Serif" font-size="10.00" fill="grey"> #Duration</text>
</g>
<!-- Node6 -->
<g id="Node000006" class="node">
<title>Node6</title>
<g id="a_Node000006"><a xlink:href="../../dd/da4/structMicrosoft_1_1Xna_1_1Framework_1_1Vector2.html" target="_top" xlink:title=" ">
<polygon fill="white" stroke="transparent" points="455,-979 272,-979 272,-248 455,-248 455,-979"/>
<text text-anchor="start" x="300" y="-966.5" font-family="Helvetica,sans-Serif" font-size="10.00">Microsoft.Xna.Framework.</text>
<text text-anchor="start" x="345.5" y="-955.5" font-family="Helvetica,sans-Serif" font-size="10.00">Vector2</text>
<text text-anchor="start" x="276.5" y="-940.5" font-family="Helvetica,sans-Serif" font-size="10.00">+</text>
<text text-anchor="start" x="289.5" y="-940.5" font-family="Helvetica,sans-Serif" font-size="10.00">static Vector2 Zero</text>
<text text-anchor="start" x="276.5" y="-925.5" font-family="Helvetica,sans-Serif" font-size="10.00">+</text>
<text text-anchor="start" x="289.5" y="-925.5" font-family="Helvetica,sans-Serif" font-size="10.00">static Vector2 One</text>
<text text-anchor="start" x="276.5" y="-910.5" font-family="Helvetica,sans-Serif" font-size="10.00">+</text>
<text text-anchor="start" x="289.5" y="-910.5" font-family="Helvetica,sans-Serif" font-size="10.00">static Vector2 UnitX</text>
<text text-anchor="start" x="276.5" y="-895.5" font-family="Helvetica,sans-Serif" font-size="10.00">+</text>
<text text-anchor="start" x="289.5" y="-895.5" font-family="Helvetica,sans-Serif" font-size="10.00">static Vector2 UnitY</text>
<text text-anchor="start" x="276.5" y="-880.5" font-family="Helvetica,sans-Serif" font-size="10.00">+</text>
<text text-anchor="start" x="289.5" y="-880.5" font-family="Helvetica,sans-Serif" font-size="10.00">Vector2(float x, float y)</text>
<text text-anchor="start" x="276.5" y="-865.5" font-family="Helvetica,sans-Serif" font-size="10.00">+</text>
<text text-anchor="start" x="289.5" y="-865.5" font-family="Helvetica,sans-Serif" font-size="10.00">Vector2(float value)</text>
<text text-anchor="start" x="276.5" y="-850.5" font-family="Helvetica,sans-Serif" font-size="10.00">+</text>
<text text-anchor="start" x="289.5" y="-850.5" font-family="Helvetica,sans-Serif" font-size="10.00">override bool Equals</text>
<text text-anchor="start" x="289.5" y="-839.5" font-family="Helvetica,sans-Serif" font-size="10.00">(object obj)</text>
<text text-anchor="start" x="276.5" y="-824.5" font-family="Helvetica,sans-Serif" font-size="10.00">+</text>
<text text-anchor="start" x="289.5" y="-824.5" font-family="Helvetica,sans-Serif" font-size="10.00">bool Equals(Vector2</text>
<text text-anchor="start" x="289.5" y="-813.5" font-family="Helvetica,sans-Serif" font-size="10.00"> other)</text>
<text text-anchor="start" x="276.5" y="-798.5" font-family="Helvetica,sans-Serif" font-size="10.00">+</text>
<text text-anchor="start" x="289.5" y="-798.5" font-family="Helvetica,sans-Serif" font-size="10.00">override int GetHashCode()</text>
<text text-anchor="start" x="276.5" y="-783.5" font-family="Helvetica,sans-Serif" font-size="10.00">+</text>
<text text-anchor="start" x="289.5" y="-783.5" font-family="Helvetica,sans-Serif" font-size="10.00">float Length()</text>
<text text-anchor="start" x="276.5" y="-768.5" font-family="Helvetica,sans-Serif" font-size="10.00">+</text>
<text text-anchor="start" x="289.5" y="-768.5" font-family="Helvetica,sans-Serif" font-size="10.00">float LengthSquared()</text>
<text text-anchor="start" x="276.5" y="-753.5" font-family="Helvetica,sans-Serif" font-size="10.00">+</text>
<text text-anchor="start" x="289.5" y="-753.5" font-family="Helvetica,sans-Serif" font-size="10.00">void Normalize()</text>
<text text-anchor="start" x="276.5" y="-738.5" font-family="Helvetica,sans-Serif" font-size="10.00">+</text>
<text text-anchor="start" x="289.5" y="-738.5" font-family="Helvetica,sans-Serif" font-size="10.00">override string ToString()</text>
<text text-anchor="start" x="276.5" y="-723.5" font-family="Helvetica,sans-Serif" font-size="10.00">+</text>
<text text-anchor="start" x="289.5" y="-723.5" font-family="Helvetica,sans-Serif" font-size="10.00">static void Reflect</text>
<text text-anchor="start" x="289.5" y="-712.5" font-family="Helvetica,sans-Serif" font-size="10.00">(ref Vector2 vector,</text>
<text text-anchor="start" x="289.5" y="-701.5" font-family="Helvetica,sans-Serif" font-size="10.00"> ref Vector2 normal,</text>
<text text-anchor="start" x="289.5" y="-690.5" font-family="Helvetica,sans-Serif" font-size="10.00"> out Vector2 result)</text>
<text text-anchor="start" x="276.5" y="-675.5" font-family="Helvetica,sans-Serif" font-size="10.00">+</text>
<text text-anchor="start" x="289.5" y="-675.5" font-family="Helvetica,sans-Serif" font-size="10.00">static Vector2 Reflect</text>
<text text-anchor="start" x="289.5" y="-664.5" font-family="Helvetica,sans-Serif" font-size="10.00">(Vector2 vector, Vector2</text>
<text text-anchor="start" x="289.5" y="-653.5" font-family="Helvetica,sans-Serif" font-size="10.00"> normal)</text>
<text text-anchor="start" x="276.5" y="-638.5" font-family="Helvetica,sans-Serif" font-size="10.00">+</text>
<text text-anchor="start" x="289.5" y="-638.5" font-family="Helvetica,sans-Serif" font-size="10.00">static Vector2 Add</text>
<text text-anchor="start" x="289.5" y="-627.5" font-family="Helvetica,sans-Serif" font-size="10.00">(Vector2 value1, Vector2</text>
<text text-anchor="start" x="289.5" y="-616.5" font-family="Helvetica,sans-Serif" font-size="10.00"> value2)</text>
<text text-anchor="start" x="276.5" y="-601.5" font-family="Helvetica,sans-Serif" font-size="10.00">+</text>
<text text-anchor="start" x="289.5" y="-601.5" font-family="Helvetica,sans-Serif" font-size="10.00">static void Add(ref</text>
<text text-anchor="start" x="289.5" y="-590.5" font-family="Helvetica,sans-Serif" font-size="10.00"> Vector2 value1, ref</text>
<text text-anchor="start" x="289.5" y="-579.5" font-family="Helvetica,sans-Serif" font-size="10.00"> Vector2 value2, out</text>
<text text-anchor="start" x="289.5" y="-568.5" font-family="Helvetica,sans-Serif" font-size="10.00"> Vector2 result)</text>
<text text-anchor="start" x="276.5" y="-553.5" font-family="Helvetica,sans-Serif" font-size="10.00">+</text>
<text text-anchor="start" x="289.5" y="-553.5" font-family="Helvetica,sans-Serif" font-size="10.00">static Vector2 Barycentric</text>
<text text-anchor="start" x="289.5" y="-542.5" font-family="Helvetica,sans-Serif" font-size="10.00">(Vector2 value1, Vector2</text>
<text text-anchor="start" x="289.5" y="-531.5" font-family="Helvetica,sans-Serif" font-size="10.00"> value2, Vector2 value3,</text>
<text text-anchor="start" x="289.5" y="-520.5" font-family="Helvetica,sans-Serif" font-size="10.00"> float amount1, float amount2)</text>
<text text-anchor="start" x="276.5" y="-505.5" font-family="Helvetica,sans-Serif" font-size="10.00">+</text>
<text text-anchor="start" x="289.5" y="-505.5" font-family="Helvetica,sans-Serif" font-size="10.00">static void Barycentric</text>
<text text-anchor="start" x="289.5" y="-494.5" font-family="Helvetica,sans-Serif" font-size="10.00">(ref Vector2 value1, ref</text>
<text text-anchor="start" x="289.5" y="-483.5" font-family="Helvetica,sans-Serif" font-size="10.00"> Vector2 value2, ref Vector2</text>
<text text-anchor="start" x="289.5" y="-472.5" font-family="Helvetica,sans-Serif" font-size="10.00"> value3, float amount1, float</text>
<text text-anchor="start" x="289.5" y="-461.5" font-family="Helvetica,sans-Serif" font-size="10.00"> amount2, out Vector2 result)</text>
<text text-anchor="start" x="276.5" y="-446.5" font-family="Helvetica,sans-Serif" font-size="10.00">+</text>
<text text-anchor="start" x="289.5" y="-446.5" font-family="Helvetica,sans-Serif" font-size="10.00">static Vector2 CatmullRom</text>
<text text-anchor="start" x="289.5" y="-435.5" font-family="Helvetica,sans-Serif" font-size="10.00">(Vector2 value1, Vector2</text>
<text text-anchor="start" x="289.5" y="-424.5" font-family="Helvetica,sans-Serif" font-size="10.00"> value2, Vector2 value3,</text>
<text text-anchor="start" x="289.5" y="-413.5" font-family="Helvetica,sans-Serif" font-size="10.00"> Vector2 value4, float amount)</text>
<text text-anchor="start" x="276.5" y="-398.5" font-family="Helvetica,sans-Serif" font-size="10.00">+</text>
<text text-anchor="start" x="289.5" y="-398.5" font-family="Helvetica,sans-Serif" font-size="10.00">static void CatmullRom</text>
<text text-anchor="start" x="289.5" y="-387.5" font-family="Helvetica,sans-Serif" font-size="10.00">(ref Vector2 value1, ref</text>
<text text-anchor="start" x="289.5" y="-376.5" font-family="Helvetica,sans-Serif" font-size="10.00"> Vector2 value2, ref Vector2</text>
<text text-anchor="start" x="289.5" y="-365.5" font-family="Helvetica,sans-Serif" font-size="10.00"> value3, ref Vector2 value4,</text>
<text text-anchor="start" x="289.5" y="-354.5" font-family="Helvetica,sans-Serif" font-size="10.00"> float amount, out Vector2 result)</text>
<text text-anchor="start" x="276.5" y="-339.5" font-family="Helvetica,sans-Serif" font-size="10.00">+</text>
<text text-anchor="start" x="289.5" y="-339.5" font-family="Helvetica,sans-Serif" font-size="10.00">static Vector2 Clamp</text>
<text text-anchor="start" x="289.5" y="-328.5" font-family="Helvetica,sans-Serif" font-size="10.00">(Vector2 value1, Vector2</text>
<text text-anchor="start" x="289.5" y="-317.5" font-family="Helvetica,sans-Serif" font-size="10.00"> min, Vector2 max)</text>
<text text-anchor="start" x="276.5" y="-302.5" font-family="Helvetica,sans-Serif" font-size="10.00">+</text>
<text text-anchor="start" x="289.5" y="-302.5" font-family="Helvetica,sans-Serif" font-size="10.00">static void Clamp(ref</text>
<text text-anchor="start" x="289.5" y="-291.5" font-family="Helvetica,sans-Serif" font-size="10.00"> Vector2 value1, ref</text>
<text text-anchor="start" x="289.5" y="-280.5" font-family="Helvetica,sans-Serif" font-size="10.00"> Vector2 min, ref Vector2</text>
<text text-anchor="start" x="289.5" y="-269.5" font-family="Helvetica,sans-Serif" font-size="10.00"> max, out Vector2 result)</text>
<text text-anchor="start" x="289.5" y="-254.5" font-family="Helvetica,sans-Serif" font-size="10.00">and 53 more...</text>
<polygon fill="#666666" stroke="#666666" points="272.5,-950.5 272.5,-950.5 455.5,-950.5 455.5,-950.5 272.5,-950.5"/>
<polygon fill="#666666" stroke="#666666" points="272.5,-890.5 272.5,-890.5 287.5,-890.5 287.5,-890.5 272.5,-890.5"/>
<polygon fill="#666666" stroke="#666666" points="287.5,-890.5 287.5,-890.5 455.5,-890.5 455.5,-890.5 287.5,-890.5"/>
<polygon fill="none" stroke="#666666" points="272,-248 272,-979 455,-979 455,-248 272,-248"/>
</a>
</g>
</g>
<!-- Node6&#45;&gt;Node1 -->
<g id="edge6_Node000001_Node000006" class="edge">
<title>Node6&#45;&gt;Node1</title>
<g id="a_edge6_Node000001_Node000006"><a xlink:title=" ">
<path fill="none" stroke="#63b8ff" d="M309.15,-247.91C306.4,-238.13 303.52,-228.48 300.5,-219 299.83,-216.9 299.13,-214.78 298.39,-212.67"/>
<polygon fill="none" stroke="#63b8ff" points="298.36,-212.57 292.54,-208.32 294.22,-201.31 300.05,-205.56 298.36,-212.57"/>
</a>
</g>
<text text-anchor="middle" x="338.5" y="-222" font-family="Helvetica,sans-Serif" font-size="10.00" fill="grey"> &#45;_scaleTarget</text>
</g>
<!-- Node6&#45;&gt;Node6 -->
<g id="edge9_Node000006_Node000006" class="edge">
<title>Node6&#45;&gt;Node6</title>
<g id="a_edge9_Node000006_Node000006"><a xlink:title=" ">
<path fill="none" stroke="#63b8ff" d="M455.36,-675.59C466.05,-664.13 473,-643.43 473,-613.5 473,-590.82 469.01,-573.44 462.42,-561.36"/>
<polygon fill="none" stroke="#63b8ff" points="462.31,-561.2 455.57,-558.62 455.36,-551.41 462.1,-553.99 462.31,-561.2"/>
</a>
</g>
<text text-anchor="middle" x="503.5" y="-627.5" font-family="Helvetica,sans-Serif" font-size="10.00" fill="grey"> &#45;unitVector</text>
<text text-anchor="middle" x="503.5" y="-616.5" font-family="Helvetica,sans-Serif" font-size="10.00" fill="grey">&#45;unitXVector</text>
<text text-anchor="middle" x="503.5" y="-605.5" font-family="Helvetica,sans-Serif" font-size="10.00" fill="grey">&#45;unitYVector</text>
<text text-anchor="middle" x="503.5" y="-594.5" font-family="Helvetica,sans-Serif" font-size="10.00" fill="grey">&#45;zeroVector</text>
</g>
<!-- Node7 -->
<g id="Node000007" class="node">
<title>Node7</title>
<g id="a_Node000007"><a xlink:href="../../d6/d43/interfaceSystem_1_1IEquatable.html" target="_top" xlink:title=" ">
<polygon fill="white" stroke="transparent" points="424.5,-1123 302.5,-1123 302.5,-1074 424.5,-1074 424.5,-1123"/>
<text text-anchor="start" x="307.5" y="-1110.5" font-family="Helvetica,sans-Serif" font-size="10.00">IEquatable&lt; Vector2 &gt;</text>
<text text-anchor="start" x="361.5" y="-1095.5" font-family="Helvetica,sans-Serif" font-size="10.00"> </text>
<text text-anchor="start" x="307" y="-1080.5" font-family="Helvetica,sans-Serif" font-size="10.00">+</text>
<text text-anchor="start" x="320.5" y="-1080.5" font-family="Helvetica,sans-Serif" font-size="10.00">bool Equals(T other)</text>
<polygon fill="#666666" stroke="#666666" points="302.5,-1105.5 302.5,-1105.5 424.5,-1105.5 424.5,-1105.5 302.5,-1105.5"/>
<polygon fill="#666666" stroke="#666666" points="302.5,-1090.5 302.5,-1090.5 424.5,-1090.5 424.5,-1090.5 302.5,-1090.5"/>
<polygon fill="none" stroke="#666666" points="302.5,-1074 302.5,-1123 424.5,-1123 424.5,-1074 302.5,-1074"/>
</a>
</g>
</g>
<!-- Node7&#45;&gt;Node6 -->
<g id="edge7_Node000006_Node000007" class="edge">
<title>Node7&#45;&gt;Node6</title>
<g id="a_edge7_Node000006_Node000007"><a xlink:title=" ">
<path fill="none" stroke="#63b8ff" d="M363.5,-1063.66C363.5,-1042.62 363.5,-1013.14 363.5,-979.24"/>
<polygon fill="none" stroke="#63b8ff" points="360,-1063.88 363.5,-1073.88 367,-1063.88 360,-1063.88"/>
</a>
</g>
</g>
<!-- Node8 -->
<g id="Node000008" class="node">
<title>Node8</title>
<g id="a_Node000008"><a xlink:href="../../d6/d43/interfaceSystem_1_1IEquatable.html" target="_top" xlink:title=" ">
<polygon fill="white" stroke="transparent" points="429,-1293 298,-1293 298,-1244 429,-1244 429,-1293"/>
<text text-anchor="start" x="303.5" y="-1280.5" font-family="Helvetica,sans-Serif" font-size="10.00">System.IEquatable&lt; T &gt;</text>
<text text-anchor="start" x="362" y="-1265.5" font-family="Helvetica,sans-Serif" font-size="10.00"> </text>
<text text-anchor="start" x="305" y="-1250.5" font-family="Helvetica,sans-Serif" font-size="10.00">+</text>
<text text-anchor="start" x="320.5" y="-1250.5" font-family="Helvetica,sans-Serif" font-size="10.00">bool Equals(T other)</text>
<polygon fill="#666666" stroke="#666666" points="298.5,-1275.5 298.5,-1275.5 429.5,-1275.5 429.5,-1275.5 298.5,-1275.5"/>
<polygon fill="#666666" stroke="#666666" points="298.5,-1260.5 298.5,-1260.5 429.5,-1260.5 429.5,-1260.5 298.5,-1260.5"/>
<polygon fill="none" stroke="#666666" points="298,-1244 298,-1293 429,-1293 429,-1244 298,-1244"/>
</a>
</g>
</g>
<!-- Node8&#45;&gt;Node7 -->
<g id="edge8_Node000007_Node000008" class="edge">
<title>Node8&#45;&gt;Node7</title>
<g id="a_edge8_Node000007_Node000008"><a xlink:title=" ">
<path fill="none" stroke="orange" d="M363.5,-1233.75C363.5,-1200.93 363.5,-1151.93 363.5,-1123.09"/>
<polygon fill="orange" stroke="orange" points="360,-1233.79 363.5,-1243.79 367,-1233.79 360,-1233.79"/>
</a>
</g>
<text text-anchor="middle" x="395" y="-1181" font-family="Helvetica,sans-Serif" font-size="10.00" fill="grey"> &lt; Vector2 &gt;</text>
</g>
<!-- Node9 -->
<g id="Node000009" class="node">
<title>Node9</title>
<g id="a_Node000009"><a xlink:title=" ">
<polygon fill="white" stroke="transparent" points="534.5,-1123 502.5,-1123 502.5,-1074 534.5,-1074 534.5,-1123"/>
<text text-anchor="start" x="507.5" y="-1110.5" font-family="Helvetica,sans-Serif" font-size="10.00">float</text>
<text text-anchor="start" x="516.5" y="-1095.5" font-family="Helvetica,sans-Serif" font-size="10.00"> </text>
<text text-anchor="start" x="516.5" y="-1080.5" font-family="Helvetica,sans-Serif" font-size="10.00"> </text>
<polygon fill="#666666" stroke="#666666" points="502.5,-1105.5 502.5,-1105.5 534.5,-1105.5 534.5,-1105.5 502.5,-1105.5"/>
<polygon fill="#666666" stroke="#666666" points="502.5,-1090.5 502.5,-1090.5 534.5,-1090.5 534.5,-1090.5 502.5,-1090.5"/>
<polygon fill="none" stroke="#666666" points="502.5,-1074 502.5,-1123 534.5,-1123 534.5,-1074 502.5,-1074"/>
</a>
</g>
</g>
<!-- Node9&#45;&gt;Node1 -->
<g id="edge11_Node000001_Node000009" class="edge">
<title>Node9&#45;&gt;Node1</title>
<g id="a_edge11_Node000001_Node000009"><a xlink:title=" ">
<path fill="none" stroke="#63b8ff" d="M525.05,-1073.67C531.23,-1049.91 540.03,-1012.25 543.5,-979 560.36,-817.43 629.64,-385.73 543.5,-248 500.38,-179.06 414.49,-141.72 345.46,-122.03"/>
<polygon fill="none" stroke="#63b8ff" points="345.23,-121.96 338.39,-124.23 333.66,-118.78 340.51,-116.52 345.23,-121.96"/>
</a>
</g>
<text text-anchor="middle" x="605.5" y="-611" font-family="Helvetica,sans-Serif" font-size="10.00" fill="grey"> &#45;_delay</text>
</g>
<!-- Node9&#45;&gt;Node6 -->
<g id="edge10_Node000006_Node000009" class="edge">
<title>Node9&#45;&gt;Node6</title>
<g id="a_edge10_Node000006_Node000009"><a xlink:title=" ">
<path fill="none" stroke="#63b8ff" d="M510.92,-1073.88C500.53,-1041.49 480.64,-979.51 458.75,-911.3"/>
<polygon fill="none" stroke="#63b8ff" points="458.74,-911.29 453.1,-906.79 455.07,-899.86 460.72,-904.35 458.74,-911.29"/>
</a>
</g>
<text text-anchor="middle" x="502" y="-1011" font-family="Helvetica,sans-Serif" font-size="10.00" fill="grey"> +X</text>
<text text-anchor="middle" x="502" y="-1000" font-family="Helvetica,sans-Serif" font-size="10.00" fill="grey">+Y</text>
</g>
</g>
</svg>
