<?xml version="1.0" encoding="UTF-8" standalone="no"?>
<!DOCTYPE svg PUBLIC "-//W3C//DTD SVG 1.1//EN"
 "http://www.w3.org/Graphics/SVG/1.1/DTD/svg11.dtd">
<!-- Generated by graphviz version 2.43.0 (0)
 -->
<!-- Title: Terraria.GameContent.Liquid.LiquidRenderer.LiquidCache Pages: 1 -->
<svg width="485pt" height="515pt"
 viewBox="0.00 0.00 484.81 515.00" xmlns="http://www.w3.org/2000/svg" xmlns:xlink="http://www.w3.org/1999/xlink">
<g id="graph0" class="graph" transform="scale(1 1) rotate(0) translate(4 511)">
<title>Terraria.GameContent.Liquid.LiquidRenderer.LiquidCache</title>
<!-- Node1 -->
<g id="Node000001" class="node">
<title>Node1</title>
<g id="a_Node000001"><a xlink:title=" ">
<polygon fill="#999999" stroke="transparent" points="279.31,-60 126.31,-60 126.31,0 279.31,0 279.31,-60"/>
<text text-anchor="start" x="131.81" y="-48" font-family="Helvetica,sans-Serif" font-size="10.00">Terraria.GameContent.Liquid.</text>
<text text-anchor="start" x="135.31" y="-37" font-family="Helvetica,sans-Serif" font-size="10.00">LiquidRenderer.LiquidCache</text>
<text text-anchor="start" x="139.81" y="-22" font-family="Helvetica,sans-Serif" font-size="10.00">+</text>
<text text-anchor="start" x="161.81" y="-22" font-family="Helvetica,sans-Serif" font-size="10.00">float VisibleTopWall</text>
<text text-anchor="start" x="201.31" y="-7" font-family="Helvetica,sans-Serif" font-size="10.00"> </text>
<polygon fill="#666666" stroke="#666666" points="126.81,-32 126.81,-32 279.81,-32 279.81,-32 126.81,-32"/>
<polygon fill="#666666" stroke="#666666" points="126.81,-17 126.81,-17 159.81,-17 159.81,-17 126.81,-17"/>
<polygon fill="#666666" stroke="#666666" points="159.81,-17 159.81,-17 279.81,-17 279.81,-17 159.81,-17"/>
<polygon fill="none" stroke="#666666" points="126.31,0 126.31,-60 279.31,-60 279.31,0 126.31,0"/>
</a>
</g>
</g>
<!-- Node2 -->
<g id="Node000002" class="node">
<title>Node2</title>
<g id="a_Node000002"><a xlink:title=" ">
<polygon fill="white" stroke="transparent" points="39.81,-333 7.81,-333 7.81,-284 39.81,-284 39.81,-333"/>
<text text-anchor="start" x="12.81" y="-320.5" font-family="Helvetica,sans-Serif" font-size="10.00">float</text>
<text text-anchor="start" x="21.81" y="-305.5" font-family="Helvetica,sans-Serif" font-size="10.00"> </text>
<text text-anchor="start" x="21.81" y="-290.5" font-family="Helvetica,sans-Serif" font-size="10.00"> </text>
<polygon fill="#666666" stroke="#666666" points="7.81,-315.5 7.81,-315.5 39.81,-315.5 39.81,-315.5 7.81,-315.5"/>
<polygon fill="#666666" stroke="#666666" points="7.81,-300.5 7.81,-300.5 39.81,-300.5 39.81,-300.5 7.81,-300.5"/>
<polygon fill="none" stroke="#666666" points="7.81,-284 7.81,-333 39.81,-333 39.81,-284 7.81,-284"/>
</a>
</g>
</g>
<!-- Node2&#45;&gt;Node1 -->
<g id="edge1_Node000001_Node000002" class="edge">
<title>Node2&#45;&gt;Node1</title>
<g id="a_edge1_Node000001_Node000002"><a xlink:title=" ">
<path fill="none" stroke="#63b8ff" d="M16.18,-283.99C3.12,-238.73 -17.83,-138.65 29.81,-78 40.95,-63.81 77.49,-52.83 114.14,-45.07"/>
<polygon fill="none" stroke="#63b8ff" points="114.24,-45.05 119.33,-39.93 126,-42.66 120.92,-47.77 114.24,-45.05"/>
</a>
</g>
<text text-anchor="middle" x="79.31" y="-191" font-family="Helvetica,sans-Serif" font-size="10.00" fill="grey"> +BottomWall</text>
<text text-anchor="middle" x="79.31" y="-180" font-family="Helvetica,sans-Serif" font-size="10.00" fill="grey">+LeftWall</text>
<text text-anchor="middle" x="79.31" y="-169" font-family="Helvetica,sans-Serif" font-size="10.00" fill="grey">+LiquidLevel</text>
<text text-anchor="middle" x="79.31" y="-158" font-family="Helvetica,sans-Serif" font-size="10.00" fill="grey">+Opacity</text>
<text text-anchor="middle" x="79.31" y="-147" font-family="Helvetica,sans-Serif" font-size="10.00" fill="grey">+RightWall</text>
<text text-anchor="middle" x="79.31" y="-136" font-family="Helvetica,sans-Serif" font-size="10.00" fill="grey">+TopWall</text>
<text text-anchor="middle" x="79.31" y="-125" font-family="Helvetica,sans-Serif" font-size="10.00" fill="grey">+VisibleBottomWall</text>
<text text-anchor="middle" x="79.31" y="-114" font-family="Helvetica,sans-Serif" font-size="10.00" fill="grey">+VisibleLeftWall</text>
<text text-anchor="middle" x="79.31" y="-103" font-family="Helvetica,sans-Serif" font-size="10.00" fill="grey">+VisibleLiquidLevel</text>
<text text-anchor="middle" x="79.31" y="-92" font-family="Helvetica,sans-Serif" font-size="10.00" fill="grey">+VisibleRightWall</text>
<text text-anchor="middle" x="79.31" y="-81" font-family="Helvetica,sans-Serif" font-size="10.00" fill="grey">...</text>
</g>
<!-- Node3 -->
<g id="Node000003" class="node">
<title>Node3</title>
<g id="a_Node000003"><a xlink:title=" ">
<polygon fill="white" stroke="transparent" points="161.81,-333 129.81,-333 129.81,-284 161.81,-284 161.81,-333"/>
<text text-anchor="start" x="134.81" y="-320.5" font-family="Helvetica,sans-Serif" font-size="10.00">bool</text>
<text text-anchor="start" x="143.81" y="-305.5" font-family="Helvetica,sans-Serif" font-size="10.00"> </text>
<text text-anchor="start" x="143.81" y="-290.5" font-family="Helvetica,sans-Serif" font-size="10.00"> </text>
<polygon fill="#666666" stroke="#666666" points="129.81,-315.5 129.81,-315.5 161.81,-315.5 161.81,-315.5 129.81,-315.5"/>
<polygon fill="#666666" stroke="#666666" points="129.81,-300.5 129.81,-300.5 161.81,-300.5 161.81,-300.5 129.81,-300.5"/>
<polygon fill="none" stroke="#666666" points="129.81,-284 129.81,-333 161.81,-333 161.81,-284 129.81,-284"/>
</a>
</g>
</g>
<!-- Node3&#45;&gt;Node1 -->
<g id="edge2_Node000001_Node000003" class="edge">
<title>Node3&#45;&gt;Node1</title>
<g id="a_edge2_Node000001_Node000003"><a xlink:title=" ">
<path fill="none" stroke="#63b8ff" d="M142.84,-283.74C136.89,-232.55 125.45,-113.65 142.81,-78 144.28,-74.98 146.04,-72.1 148.04,-69.36"/>
<polygon fill="none" stroke="#63b8ff" points="148.25,-69.11 149.15,-61.96 156.1,-60.04 155.2,-67.19 148.25,-69.11"/>
</a>
</g>
<text text-anchor="middle" x="188.31" y="-180" font-family="Helvetica,sans-Serif" font-size="10.00" fill="grey"> +HasBottomEdge</text>
<text text-anchor="middle" x="188.31" y="-169" font-family="Helvetica,sans-Serif" font-size="10.00" fill="grey">+HasLeftEdge</text>
<text text-anchor="middle" x="188.31" y="-158" font-family="Helvetica,sans-Serif" font-size="10.00" fill="grey">+HasLiquid</text>
<text text-anchor="middle" x="188.31" y="-147" font-family="Helvetica,sans-Serif" font-size="10.00" fill="grey">+HasRightEdge</text>
<text text-anchor="middle" x="188.31" y="-136" font-family="Helvetica,sans-Serif" font-size="10.00" fill="grey">+HasTopEdge</text>
<text text-anchor="middle" x="188.31" y="-125" font-family="Helvetica,sans-Serif" font-size="10.00" fill="grey">+HasVisibleLiquid</text>
<text text-anchor="middle" x="188.31" y="-114" font-family="Helvetica,sans-Serif" font-size="10.00" fill="grey">+HasWall</text>
<text text-anchor="middle" x="188.31" y="-103" font-family="Helvetica,sans-Serif" font-size="10.00" fill="grey">+IsHalfBrick</text>
<text text-anchor="middle" x="188.31" y="-92" font-family="Helvetica,sans-Serif" font-size="10.00" fill="grey">+IsSolid</text>
</g>
<!-- Node4 -->
<g id="Node000004" class="node">
<title>Node4</title>
<g id="a_Node000004"><a xlink:href="../../d5/d8f/structMicrosoft_1_1Xna_1_1Framework_1_1Point.html" target="_top" xlink:title=" ">
<polygon fill="white" stroke="transparent" points="336.31,-400 181.31,-400 181.31,-217 336.31,-217 336.31,-400"/>
<text text-anchor="start" x="195.31" y="-387.5" font-family="Helvetica,sans-Serif" font-size="10.00">Microsoft.Xna.Framework.</text>
<text text-anchor="start" x="246.81" y="-376.5" font-family="Helvetica,sans-Serif" font-size="10.00">Point</text>
<text text-anchor="start" x="185.81" y="-361.5" font-family="Helvetica,sans-Serif" font-size="10.00">+</text>
<text text-anchor="start" x="198.81" y="-361.5" font-family="Helvetica,sans-Serif" font-size="10.00">static Point Zero</text>
<text text-anchor="start" x="185.81" y="-346.5" font-family="Helvetica,sans-Serif" font-size="10.00">+</text>
<text text-anchor="start" x="198.81" y="-346.5" font-family="Helvetica,sans-Serif" font-size="10.00">Point(int x, int y)</text>
<text text-anchor="start" x="185.81" y="-331.5" font-family="Helvetica,sans-Serif" font-size="10.00">+</text>
<text text-anchor="start" x="198.81" y="-331.5" font-family="Helvetica,sans-Serif" font-size="10.00">bool Equals(Point other)</text>
<text text-anchor="start" x="185.81" y="-316.5" font-family="Helvetica,sans-Serif" font-size="10.00">+</text>
<text text-anchor="start" x="198.81" y="-316.5" font-family="Helvetica,sans-Serif" font-size="10.00">override bool Equals</text>
<text text-anchor="start" x="198.81" y="-305.5" font-family="Helvetica,sans-Serif" font-size="10.00">(object obj)</text>
<text text-anchor="start" x="185.81" y="-290.5" font-family="Helvetica,sans-Serif" font-size="10.00">+</text>
<text text-anchor="start" x="198.81" y="-290.5" font-family="Helvetica,sans-Serif" font-size="10.00">override int GetHashCode()</text>
<text text-anchor="start" x="185.81" y="-275.5" font-family="Helvetica,sans-Serif" font-size="10.00">+</text>
<text text-anchor="start" x="198.81" y="-275.5" font-family="Helvetica,sans-Serif" font-size="10.00">override string ToString()</text>
<text text-anchor="start" x="185.81" y="-260.5" font-family="Helvetica,sans-Serif" font-size="10.00">+</text>
<text text-anchor="start" x="198.81" y="-260.5" font-family="Helvetica,sans-Serif" font-size="10.00">static bool operator</text>
<text text-anchor="start" x="198.81" y="-249.5" font-family="Helvetica,sans-Serif" font-size="10.00">==(Point a, Point b)</text>
<text text-anchor="start" x="185.81" y="-234.5" font-family="Helvetica,sans-Serif" font-size="10.00">+</text>
<text text-anchor="start" x="198.81" y="-234.5" font-family="Helvetica,sans-Serif" font-size="10.00">static bool operator!</text>
<text text-anchor="start" x="198.81" y="-223.5" font-family="Helvetica,sans-Serif" font-size="10.00">=(Point a, Point b)</text>
<polygon fill="#666666" stroke="#666666" points="181.81,-371.5 181.81,-371.5 336.81,-371.5 336.81,-371.5 181.81,-371.5"/>
<polygon fill="#666666" stroke="#666666" points="181.81,-356.5 181.81,-356.5 196.81,-356.5 196.81,-356.5 181.81,-356.5"/>
<polygon fill="#666666" stroke="#666666" points="196.81,-356.5 196.81,-356.5 336.81,-356.5 336.81,-356.5 196.81,-356.5"/>
<polygon fill="none" stroke="#666666" points="181.31,-217 181.31,-400 336.31,-400 336.31,-217 181.31,-217"/>
</a>
</g>
</g>
<!-- Node4&#45;&gt;Node1 -->
<g id="edge3_Node000001_Node000004" class="edge">
<title>Node4&#45;&gt;Node1</title>
<g id="a_edge3_Node000001_Node000004"><a xlink:title=" ">
<path fill="none" stroke="#63b8ff" d="M261.77,-216.94C260.39,-173.63 254.58,-121.81 237.81,-78 236.84,-75.49 235.71,-73 234.45,-70.55"/>
<polygon fill="none" stroke="#63b8ff" points="234.38,-70.44 227.87,-67.34 228.23,-60.14 234.74,-63.24 234.38,-70.44"/>
</a>
</g>
<text text-anchor="middle" x="295.81" y="-136" font-family="Helvetica,sans-Serif" font-size="10.00" fill="grey"> +FrameOffset</text>
</g>
<!-- Node4&#45;&gt;Node4 -->
<g id="edge5_Node000004_Node000004" class="edge">
<title>Node4&#45;&gt;Node4</title>
<g id="a_edge5_Node000004_Node000004"><a xlink:title=" ">
<path fill="none" stroke="#63b8ff" d="M336.37,-328.58C347.12,-325.27 354.31,-318.58 354.31,-308.5 354.31,-302.36 351.64,-297.47 347.12,-293.85"/>
<polygon fill="none" stroke="#63b8ff" points="347.08,-293.83 339.93,-294.7 336.37,-288.42 343.53,-287.55 347.08,-293.83"/>
</a>
</g>
<text text-anchor="middle" x="380.81" y="-306" font-family="Helvetica,sans-Serif" font-size="10.00" fill="grey"> &#45;zeroPoint</text>
</g>
<!-- Node5 -->
<g id="Node000005" class="node">
<title>Node5</title>
<g id="a_Node000005"><a xlink:href="../../d9/d1c/classIEquatable.html" target="_top" xlink:title=" ">
<polygon fill="white" stroke="transparent" points="270.81,-507 160.81,-507 160.81,-458 270.81,-458 270.81,-507"/>
<text text-anchor="start" x="165.81" y="-494.5" font-family="Helvetica,sans-Serif" font-size="10.00">IEquatable&lt; Point &gt;</text>
<text text-anchor="start" x="213.81" y="-479.5" font-family="Helvetica,sans-Serif" font-size="10.00"> </text>
<text text-anchor="start" x="213.81" y="-464.5" font-family="Helvetica,sans-Serif" font-size="10.00"> </text>
<polygon fill="#666666" stroke="#666666" points="160.81,-489.5 160.81,-489.5 270.81,-489.5 270.81,-489.5 160.81,-489.5"/>
<polygon fill="#666666" stroke="#666666" points="160.81,-474.5 160.81,-474.5 270.81,-474.5 270.81,-474.5 160.81,-474.5"/>
<polygon fill="none" stroke="#666666" points="160.81,-458 160.81,-507 270.81,-507 270.81,-458 160.81,-458"/>
</a>
</g>
</g>
<!-- Node5&#45;&gt;Node4 -->
<g id="edge4_Node000004_Node000005" class="edge">
<title>Node5&#45;&gt;Node4</title>
<g id="a_edge4_Node000004_Node000005"><a xlink:title=" ">
<path fill="none" stroke="#63b8ff" d="M224.19,-447.98C227.65,-434.14 231.84,-417.36 236.1,-400.33"/>
<polygon fill="none" stroke="#63b8ff" points="220.72,-447.39 221.69,-457.94 227.52,-449.09 220.72,-447.39"/>
</a>
</g>
</g>
<!-- Node6 -->
<g id="Node000006" class="node">
<title>Node6</title>
<g id="a_Node000006"><a xlink:title=" ">
<polygon fill="white" stroke="transparent" points="312.31,-507 289.31,-507 289.31,-458 312.31,-458 312.31,-507"/>
<text text-anchor="start" x="294.81" y="-494.5" font-family="Helvetica,sans-Serif" font-size="10.00">int</text>
<text text-anchor="start" x="299.31" y="-479.5" font-family="Helvetica,sans-Serif" font-size="10.00"> </text>
<text text-anchor="start" x="299.31" y="-464.5" font-family="Helvetica,sans-Serif" font-size="10.00"> </text>
<polygon fill="#666666" stroke="#666666" points="289.81,-489.5 289.81,-489.5 312.81,-489.5 312.81,-489.5 289.81,-489.5"/>
<polygon fill="#666666" stroke="#666666" points="289.81,-474.5 289.81,-474.5 312.81,-474.5 312.81,-474.5 289.81,-474.5"/>
<polygon fill="none" stroke="#666666" points="289.31,-458 289.31,-507 312.31,-507 312.31,-458 289.31,-458"/>
</a>
</g>
</g>
<!-- Node6&#45;&gt;Node4 -->
<g id="edge6_Node000004_Node000006" class="edge">
<title>Node6&#45;&gt;Node4</title>
<g id="a_edge6_Node000004_Node000006"><a xlink:title=" ">
<path fill="none" stroke="#63b8ff" d="M295.05,-457.94C292.02,-445.54 288.07,-429.36 283.9,-412.27"/>
<polygon fill="none" stroke="#63b8ff" points="283.83,-411.98 278.52,-407.1 280.98,-400.33 286.29,-405.21 283.83,-411.98"/>
</a>
</g>
<text text-anchor="middle" x="299.31" y="-432" font-family="Helvetica,sans-Serif" font-size="10.00" fill="grey"> +X</text>
<text text-anchor="middle" x="299.31" y="-421" font-family="Helvetica,sans-Serif" font-size="10.00" fill="grey">+Y</text>
</g>
<!-- Node7 -->
<g id="Node000007" class="node">
<title>Node7</title>
<g id="a_Node000007"><a xlink:title=" ">
<polygon fill="white" stroke="transparent" points="457.81,-333 425.81,-333 425.81,-284 457.81,-284 457.81,-333"/>
<text text-anchor="start" x="430.81" y="-320.5" font-family="Helvetica,sans-Serif" font-size="10.00">byte</text>
<text text-anchor="start" x="439.81" y="-305.5" font-family="Helvetica,sans-Serif" font-size="10.00"> </text>
<text text-anchor="start" x="439.81" y="-290.5" font-family="Helvetica,sans-Serif" font-size="10.00"> </text>
<polygon fill="#666666" stroke="#666666" points="425.81,-315.5 425.81,-315.5 457.81,-315.5 457.81,-315.5 425.81,-315.5"/>
<polygon fill="#666666" stroke="#666666" points="425.81,-300.5 425.81,-300.5 457.81,-300.5 457.81,-300.5 425.81,-300.5"/>
<polygon fill="none" stroke="#666666" points="425.81,-284 425.81,-333 457.81,-333 457.81,-284 425.81,-284"/>
</a>
</g>
</g>
<!-- Node7&#45;&gt;Node1 -->
<g id="edge7_Node000001_Node000007" class="edge">
<title>Node7&#45;&gt;Node1</title>
<g id="a_edge7_Node000001_Node000007"><a xlink:title=" ">
<path fill="none" stroke="#63b8ff" d="M437.85,-283.91C428.73,-237.17 401.73,-132.57 335.81,-78 322.75,-67.19 307.03,-58.8 291.05,-52.29"/>
<polygon fill="none" stroke="#63b8ff" points="290.62,-52.13 283.59,-53.75 279.4,-47.89 286.42,-46.27 290.62,-52.13"/>
</a>
</g>
<text text-anchor="middle" x="444.81" y="-141.5" font-family="Helvetica,sans-Serif" font-size="10.00" fill="grey"> +Type</text>
<text text-anchor="middle" x="444.81" y="-130.5" font-family="Helvetica,sans-Serif" font-size="10.00" fill="grey">+VisibleType</text>
</g>
</g>
</svg>
