<?xml version="1.0" encoding="UTF-8" standalone="no"?>
<!DOCTYPE svg PUBLIC "-//W3C//DTD SVG 1.1//EN"
 "http://www.w3.org/Graphics/SVG/1.1/DTD/svg11.dtd">
<!-- Generated by graphviz version 2.43.0 (0)
 -->
<!-- Title: Microsoft.Xna.Framework.Input.GamePadThumbSticks Pages: 1 -->
<svg width="577pt" height="1456pt"
 viewBox="0.00 0.00 576.70 1456.00" xmlns="http://www.w3.org/2000/svg" xmlns:xlink="http://www.w3.org/1999/xlink">
<g id="graph0" class="graph" transform="scale(1 1) rotate(0) translate(4 1452)">
<title>Microsoft.Xna.Framework.Input.GamePadThumbSticks</title>
<!-- Node1 -->
<g id="Node000001" class="node">
<title>Node1</title>
<g id="a_Node000001"><a xlink:title=" ">
<polygon fill="#999999" stroke="transparent" points="399.7,-456 171.7,-456 171.7,0 399.7,0 399.7,-456"/>
<text text-anchor="start" x="216.7" y="-444" font-family="Helvetica,sans-Serif" font-size="10.00">Microsoft.Xna.Framework.</text>
<text text-anchor="start" x="216.7" y="-433" font-family="Helvetica,sans-Serif" font-size="10.00">Input.GamePadThumbSticks</text>
<text text-anchor="start" x="175.7" y="-418" font-family="Helvetica,sans-Serif" font-size="10.00">+</text>
<text text-anchor="start" x="188.7" y="-418" font-family="Helvetica,sans-Serif" font-size="10.00">Vector2 Left</text>
<text text-anchor="start" x="175.7" y="-403" font-family="Helvetica,sans-Serif" font-size="10.00">+</text>
<text text-anchor="start" x="188.7" y="-403" font-family="Helvetica,sans-Serif" font-size="10.00">Vector2 Right</text>
<text text-anchor="start" x="175.7" y="-388" font-family="Helvetica,sans-Serif" font-size="10.00">+</text>
<text text-anchor="start" x="188.7" y="-388" font-family="Helvetica,sans-Serif" font-size="10.00">GamePadThumbSticks</text>
<text text-anchor="start" x="188.7" y="-377" font-family="Helvetica,sans-Serif" font-size="10.00">(Vector2 leftPosition,</text>
<text text-anchor="start" x="188.7" y="-366" font-family="Helvetica,sans-Serif" font-size="10.00"> Vector2 rightPosition)</text>
<text text-anchor="start" x="175.7" y="-351" font-family="Helvetica,sans-Serif" font-size="10.00">+</text>
<text text-anchor="start" x="188.7" y="-351" font-family="Helvetica,sans-Serif" font-size="10.00">override bool Equals</text>
<text text-anchor="start" x="188.7" y="-340" font-family="Helvetica,sans-Serif" font-size="10.00">(object obj)</text>
<text text-anchor="start" x="175.7" y="-325" font-family="Helvetica,sans-Serif" font-size="10.00">+</text>
<text text-anchor="start" x="188.7" y="-325" font-family="Helvetica,sans-Serif" font-size="10.00">override int GetHashCode()</text>
<text text-anchor="start" x="175.7" y="-310" font-family="Helvetica,sans-Serif" font-size="10.00">+</text>
<text text-anchor="start" x="188.7" y="-310" font-family="Helvetica,sans-Serif" font-size="10.00">override string ToString()</text>
<text text-anchor="start" x="175.7" y="-295" font-family="Helvetica,sans-Serif" font-size="10.00">+</text>
<text text-anchor="start" x="188.7" y="-295" font-family="Helvetica,sans-Serif" font-size="10.00">static bool operator</text>
<text text-anchor="start" x="188.7" y="-284" font-family="Helvetica,sans-Serif" font-size="10.00">==(GamePadThumbSticks</text>
<text text-anchor="start" x="188.7" y="-273" font-family="Helvetica,sans-Serif" font-size="10.00"> left, GamePadThumbSticks</text>
<text text-anchor="start" x="188.7" y="-262" font-family="Helvetica,sans-Serif" font-size="10.00"> right)</text>
<text text-anchor="start" x="175.7" y="-247" font-family="Helvetica,sans-Serif" font-size="10.00">+</text>
<text text-anchor="start" x="188.7" y="-247" font-family="Helvetica,sans-Serif" font-size="10.00">static bool operator!</text>
<text text-anchor="start" x="188.7" y="-236" font-family="Helvetica,sans-Serif" font-size="10.00">=(GamePadThumbSticks</text>
<text text-anchor="start" x="188.7" y="-225" font-family="Helvetica,sans-Serif" font-size="10.00"> left, GamePadThumbSticks</text>
<text text-anchor="start" x="188.7" y="-214" font-family="Helvetica,sans-Serif" font-size="10.00"> right)</text>
<text text-anchor="start" x="175.7" y="-199" font-family="Helvetica,sans-Serif" font-size="10.00">~</text>
<text text-anchor="start" x="188.7" y="-199" font-family="Helvetica,sans-Serif" font-size="10.00">GamePadThumbSticks</text>
<text text-anchor="start" x="188.7" y="-188" font-family="Helvetica,sans-Serif" font-size="10.00">(Vector2 leftPosition,</text>
<text text-anchor="start" x="188.7" y="-177" font-family="Helvetica,sans-Serif" font-size="10.00"> Vector2 rightPosition,</text>
<text text-anchor="start" x="188.7" y="-166" font-family="Helvetica,sans-Serif" font-size="10.00"> GamePadDeadZone leftDeadZoneMode,</text>
<text text-anchor="start" x="188.7" y="-155" font-family="Helvetica,sans-Serif" font-size="10.00"> GamePadDeadZone rightDeadZoneMode)</text>
<text text-anchor="start" x="178.2" y="-140" font-family="Helvetica,sans-Serif" font-size="10.00">&#45;</text>
<text text-anchor="start" x="188.7" y="-140" font-family="Helvetica,sans-Serif" font-size="10.00">Vector2 ApplyDeadZone</text>
<text text-anchor="start" x="188.7" y="-129" font-family="Helvetica,sans-Serif" font-size="10.00">(GamePadDeadZone deadZoneMode,</text>
<text text-anchor="start" x="188.7" y="-118" font-family="Helvetica,sans-Serif" font-size="10.00"> float deadZone, Vector2 thumbstick</text>
<text text-anchor="start" x="188.7" y="-107" font-family="Helvetica,sans-Serif" font-size="10.00">Position)</text>
<text text-anchor="start" x="178.2" y="-92" font-family="Helvetica,sans-Serif" font-size="10.00">&#45;</text>
<text text-anchor="start" x="188.7" y="-92" font-family="Helvetica,sans-Serif" font-size="10.00">Vector2 ExcludeIndependent</text>
<text text-anchor="start" x="188.7" y="-81" font-family="Helvetica,sans-Serif" font-size="10.00">AxesDeadZone(Vector2 value,</text>
<text text-anchor="start" x="188.7" y="-70" font-family="Helvetica,sans-Serif" font-size="10.00"> float deadZone)</text>
<text text-anchor="start" x="178.2" y="-55" font-family="Helvetica,sans-Serif" font-size="10.00">&#45;</text>
<text text-anchor="start" x="188.7" y="-55" font-family="Helvetica,sans-Serif" font-size="10.00">float ExcludeAxisDeadZone</text>
<text text-anchor="start" x="188.7" y="-44" font-family="Helvetica,sans-Serif" font-size="10.00">(float value, float deadZone)</text>
<text text-anchor="start" x="178.2" y="-29" font-family="Helvetica,sans-Serif" font-size="10.00">&#45;</text>
<text text-anchor="start" x="188.7" y="-29" font-family="Helvetica,sans-Serif" font-size="10.00">Vector2 ExcludeCircularDead</text>
<text text-anchor="start" x="188.7" y="-18" font-family="Helvetica,sans-Serif" font-size="10.00">Zone(Vector2 value, float</text>
<text text-anchor="start" x="188.7" y="-7" font-family="Helvetica,sans-Serif" font-size="10.00"> deadZone)</text>
<polygon fill="#666666" stroke="#666666" points="171.7,-428 171.7,-428 399.7,-428 399.7,-428 171.7,-428"/>
<polygon fill="#666666" stroke="#666666" points="171.7,-398 171.7,-398 186.7,-398 186.7,-398 171.7,-398"/>
<polygon fill="#666666" stroke="#666666" points="186.7,-398 186.7,-398 399.7,-398 399.7,-398 186.7,-398"/>
<polygon fill="none" stroke="#666666" points="171.7,0 171.7,-456 399.7,-456 399.7,0 171.7,0"/>
</a>
</g>
</g>
<!-- Node2 -->
<g id="Node000002" class="node">
<title>Node2</title>
<g id="a_Node000002"><a xlink:title=" ">
<polygon fill="white" stroke="transparent" points="143.7,-1352 111.7,-1352 111.7,-1303 143.7,-1303 143.7,-1352"/>
<text text-anchor="start" x="116.7" y="-1339.5" font-family="Helvetica,sans-Serif" font-size="10.00">float</text>
<text text-anchor="start" x="125.7" y="-1324.5" font-family="Helvetica,sans-Serif" font-size="10.00"> </text>
<text text-anchor="start" x="125.7" y="-1309.5" font-family="Helvetica,sans-Serif" font-size="10.00"> </text>
<polygon fill="#666666" stroke="#666666" points="111.7,-1334.5 111.7,-1334.5 143.7,-1334.5 143.7,-1334.5 111.7,-1334.5"/>
<polygon fill="#666666" stroke="#666666" points="111.7,-1319.5 111.7,-1319.5 143.7,-1319.5 143.7,-1319.5 111.7,-1319.5"/>
<polygon fill="none" stroke="#666666" points="111.7,-1303 111.7,-1352 143.7,-1352 143.7,-1303 111.7,-1303"/>
</a>
</g>
</g>
<!-- Node2&#45;&gt;Node1 -->
<g id="edge1_Node000001_Node000002" class="edge">
<title>Node2&#45;&gt;Node1</title>
<g id="a_edge1_Node000001_Node000002"><a xlink:title=" ">
<path fill="none" stroke="#63b8ff" d="M111.63,-1309C98.55,-1293.49 81.09,-1269.54 73.7,-1245 -20,-933.92 -28.43,-822.42 73.7,-514 92.56,-457.04 127.71,-402.21 164.04,-356.12"/>
<polygon fill="none" stroke="#63b8ff" points="164.07,-356.09 164.69,-348.9 171.56,-346.72 170.94,-353.9 164.07,-356.09"/>
</a>
</g>
<text text-anchor="middle" x="129.2" y="-882.5" font-family="Helvetica,sans-Serif" font-size="10.00" fill="grey"> &#45;leftThumbDeadZone</text>
<text text-anchor="middle" x="129.2" y="-871.5" font-family="Helvetica,sans-Serif" font-size="10.00" fill="grey">&#45;rightThumbDeadZone</text>
</g>
<!-- Node4 -->
<g id="Node000004" class="node">
<title>Node4</title>
<g id="a_Node000004"><a xlink:href="../../dd/da4/structMicrosoft_1_1Xna_1_1Framework_1_1Vector2.html" target="_top" xlink:title=" ">
<polygon fill="white" stroke="transparent" points="377.2,-1245 194.2,-1245 194.2,-514 377.2,-514 377.2,-1245"/>
<text text-anchor="start" x="222.2" y="-1232.5" font-family="Helvetica,sans-Serif" font-size="10.00">Microsoft.Xna.Framework.</text>
<text text-anchor="start" x="267.7" y="-1221.5" font-family="Helvetica,sans-Serif" font-size="10.00">Vector2</text>
<text text-anchor="start" x="198.7" y="-1206.5" font-family="Helvetica,sans-Serif" font-size="10.00">+</text>
<text text-anchor="start" x="211.7" y="-1206.5" font-family="Helvetica,sans-Serif" font-size="10.00">static Vector2 Zero</text>
<text text-anchor="start" x="198.7" y="-1191.5" font-family="Helvetica,sans-Serif" font-size="10.00">+</text>
<text text-anchor="start" x="211.7" y="-1191.5" font-family="Helvetica,sans-Serif" font-size="10.00">static Vector2 One</text>
<text text-anchor="start" x="198.7" y="-1176.5" font-family="Helvetica,sans-Serif" font-size="10.00">+</text>
<text text-anchor="start" x="211.7" y="-1176.5" font-family="Helvetica,sans-Serif" font-size="10.00">static Vector2 UnitX</text>
<text text-anchor="start" x="198.7" y="-1161.5" font-family="Helvetica,sans-Serif" font-size="10.00">+</text>
<text text-anchor="start" x="211.7" y="-1161.5" font-family="Helvetica,sans-Serif" font-size="10.00">static Vector2 UnitY</text>
<text text-anchor="start" x="198.7" y="-1146.5" font-family="Helvetica,sans-Serif" font-size="10.00">+</text>
<text text-anchor="start" x="211.7" y="-1146.5" font-family="Helvetica,sans-Serif" font-size="10.00">Vector2(float x, float y)</text>
<text text-anchor="start" x="198.7" y="-1131.5" font-family="Helvetica,sans-Serif" font-size="10.00">+</text>
<text text-anchor="start" x="211.7" y="-1131.5" font-family="Helvetica,sans-Serif" font-size="10.00">Vector2(float value)</text>
<text text-anchor="start" x="198.7" y="-1116.5" font-family="Helvetica,sans-Serif" font-size="10.00">+</text>
<text text-anchor="start" x="211.7" y="-1116.5" font-family="Helvetica,sans-Serif" font-size="10.00">override bool Equals</text>
<text text-anchor="start" x="211.7" y="-1105.5" font-family="Helvetica,sans-Serif" font-size="10.00">(object obj)</text>
<text text-anchor="start" x="198.7" y="-1090.5" font-family="Helvetica,sans-Serif" font-size="10.00">+</text>
<text text-anchor="start" x="211.7" y="-1090.5" font-family="Helvetica,sans-Serif" font-size="10.00">bool Equals(Vector2</text>
<text text-anchor="start" x="211.7" y="-1079.5" font-family="Helvetica,sans-Serif" font-size="10.00"> other)</text>
<text text-anchor="start" x="198.7" y="-1064.5" font-family="Helvetica,sans-Serif" font-size="10.00">+</text>
<text text-anchor="start" x="211.7" y="-1064.5" font-family="Helvetica,sans-Serif" font-size="10.00">override int GetHashCode()</text>
<text text-anchor="start" x="198.7" y="-1049.5" font-family="Helvetica,sans-Serif" font-size="10.00">+</text>
<text text-anchor="start" x="211.7" y="-1049.5" font-family="Helvetica,sans-Serif" font-size="10.00">float Length()</text>
<text text-anchor="start" x="198.7" y="-1034.5" font-family="Helvetica,sans-Serif" font-size="10.00">+</text>
<text text-anchor="start" x="211.7" y="-1034.5" font-family="Helvetica,sans-Serif" font-size="10.00">float LengthSquared()</text>
<text text-anchor="start" x="198.7" y="-1019.5" font-family="Helvetica,sans-Serif" font-size="10.00">+</text>
<text text-anchor="start" x="211.7" y="-1019.5" font-family="Helvetica,sans-Serif" font-size="10.00">void Normalize()</text>
<text text-anchor="start" x="198.7" y="-1004.5" font-family="Helvetica,sans-Serif" font-size="10.00">+</text>
<text text-anchor="start" x="211.7" y="-1004.5" font-family="Helvetica,sans-Serif" font-size="10.00">override string ToString()</text>
<text text-anchor="start" x="198.7" y="-989.5" font-family="Helvetica,sans-Serif" font-size="10.00">+</text>
<text text-anchor="start" x="211.7" y="-989.5" font-family="Helvetica,sans-Serif" font-size="10.00">static void Reflect</text>
<text text-anchor="start" x="211.7" y="-978.5" font-family="Helvetica,sans-Serif" font-size="10.00">(ref Vector2 vector,</text>
<text text-anchor="start" x="211.7" y="-967.5" font-family="Helvetica,sans-Serif" font-size="10.00"> ref Vector2 normal,</text>
<text text-anchor="start" x="211.7" y="-956.5" font-family="Helvetica,sans-Serif" font-size="10.00"> out Vector2 result)</text>
<text text-anchor="start" x="198.7" y="-941.5" font-family="Helvetica,sans-Serif" font-size="10.00">+</text>
<text text-anchor="start" x="211.7" y="-941.5" font-family="Helvetica,sans-Serif" font-size="10.00">static Vector2 Reflect</text>
<text text-anchor="start" x="211.7" y="-930.5" font-family="Helvetica,sans-Serif" font-size="10.00">(Vector2 vector, Vector2</text>
<text text-anchor="start" x="211.7" y="-919.5" font-family="Helvetica,sans-Serif" font-size="10.00"> normal)</text>
<text text-anchor="start" x="198.7" y="-904.5" font-family="Helvetica,sans-Serif" font-size="10.00">+</text>
<text text-anchor="start" x="211.7" y="-904.5" font-family="Helvetica,sans-Serif" font-size="10.00">static Vector2 Add</text>
<text text-anchor="start" x="211.7" y="-893.5" font-family="Helvetica,sans-Serif" font-size="10.00">(Vector2 value1, Vector2</text>
<text text-anchor="start" x="211.7" y="-882.5" font-family="Helvetica,sans-Serif" font-size="10.00"> value2)</text>
<text text-anchor="start" x="198.7" y="-867.5" font-family="Helvetica,sans-Serif" font-size="10.00">+</text>
<text text-anchor="start" x="211.7" y="-867.5" font-family="Helvetica,sans-Serif" font-size="10.00">static void Add(ref</text>
<text text-anchor="start" x="211.7" y="-856.5" font-family="Helvetica,sans-Serif" font-size="10.00"> Vector2 value1, ref</text>
<text text-anchor="start" x="211.7" y="-845.5" font-family="Helvetica,sans-Serif" font-size="10.00"> Vector2 value2, out</text>
<text text-anchor="start" x="211.7" y="-834.5" font-family="Helvetica,sans-Serif" font-size="10.00"> Vector2 result)</text>
<text text-anchor="start" x="198.7" y="-819.5" font-family="Helvetica,sans-Serif" font-size="10.00">+</text>
<text text-anchor="start" x="211.7" y="-819.5" font-family="Helvetica,sans-Serif" font-size="10.00">static Vector2 Barycentric</text>
<text text-anchor="start" x="211.7" y="-808.5" font-family="Helvetica,sans-Serif" font-size="10.00">(Vector2 value1, Vector2</text>
<text text-anchor="start" x="211.7" y="-797.5" font-family="Helvetica,sans-Serif" font-size="10.00"> value2, Vector2 value3,</text>
<text text-anchor="start" x="211.7" y="-786.5" font-family="Helvetica,sans-Serif" font-size="10.00"> float amount1, float amount2)</text>
<text text-anchor="start" x="198.7" y="-771.5" font-family="Helvetica,sans-Serif" font-size="10.00">+</text>
<text text-anchor="start" x="211.7" y="-771.5" font-family="Helvetica,sans-Serif" font-size="10.00">static void Barycentric</text>
<text text-anchor="start" x="211.7" y="-760.5" font-family="Helvetica,sans-Serif" font-size="10.00">(ref Vector2 value1, ref</text>
<text text-anchor="start" x="211.7" y="-749.5" font-family="Helvetica,sans-Serif" font-size="10.00"> Vector2 value2, ref Vector2</text>
<text text-anchor="start" x="211.7" y="-738.5" font-family="Helvetica,sans-Serif" font-size="10.00"> value3, float amount1, float</text>
<text text-anchor="start" x="211.7" y="-727.5" font-family="Helvetica,sans-Serif" font-size="10.00"> amount2, out Vector2 result)</text>
<text text-anchor="start" x="198.7" y="-712.5" font-family="Helvetica,sans-Serif" font-size="10.00">+</text>
<text text-anchor="start" x="211.7" y="-712.5" font-family="Helvetica,sans-Serif" font-size="10.00">static Vector2 CatmullRom</text>
<text text-anchor="start" x="211.7" y="-701.5" font-family="Helvetica,sans-Serif" font-size="10.00">(Vector2 value1, Vector2</text>
<text text-anchor="start" x="211.7" y="-690.5" font-family="Helvetica,sans-Serif" font-size="10.00"> value2, Vector2 value3,</text>
<text text-anchor="start" x="211.7" y="-679.5" font-family="Helvetica,sans-Serif" font-size="10.00"> Vector2 value4, float amount)</text>
<text text-anchor="start" x="198.7" y="-664.5" font-family="Helvetica,sans-Serif" font-size="10.00">+</text>
<text text-anchor="start" x="211.7" y="-664.5" font-family="Helvetica,sans-Serif" font-size="10.00">static void CatmullRom</text>
<text text-anchor="start" x="211.7" y="-653.5" font-family="Helvetica,sans-Serif" font-size="10.00">(ref Vector2 value1, ref</text>
<text text-anchor="start" x="211.7" y="-642.5" font-family="Helvetica,sans-Serif" font-size="10.00"> Vector2 value2, ref Vector2</text>
<text text-anchor="start" x="211.7" y="-631.5" font-family="Helvetica,sans-Serif" font-size="10.00"> value3, ref Vector2 value4,</text>
<text text-anchor="start" x="211.7" y="-620.5" font-family="Helvetica,sans-Serif" font-size="10.00"> float amount, out Vector2 result)</text>
<text text-anchor="start" x="198.7" y="-605.5" font-family="Helvetica,sans-Serif" font-size="10.00">+</text>
<text text-anchor="start" x="211.7" y="-605.5" font-family="Helvetica,sans-Serif" font-size="10.00">static Vector2 Clamp</text>
<text text-anchor="start" x="211.7" y="-594.5" font-family="Helvetica,sans-Serif" font-size="10.00">(Vector2 value1, Vector2</text>
<text text-anchor="start" x="211.7" y="-583.5" font-family="Helvetica,sans-Serif" font-size="10.00"> min, Vector2 max)</text>
<text text-anchor="start" x="198.7" y="-568.5" font-family="Helvetica,sans-Serif" font-size="10.00">+</text>
<text text-anchor="start" x="211.7" y="-568.5" font-family="Helvetica,sans-Serif" font-size="10.00">static void Clamp(ref</text>
<text text-anchor="start" x="211.7" y="-557.5" font-family="Helvetica,sans-Serif" font-size="10.00"> Vector2 value1, ref</text>
<text text-anchor="start" x="211.7" y="-546.5" font-family="Helvetica,sans-Serif" font-size="10.00"> Vector2 min, ref Vector2</text>
<text text-anchor="start" x="211.7" y="-535.5" font-family="Helvetica,sans-Serif" font-size="10.00"> max, out Vector2 result)</text>
<text text-anchor="start" x="211.7" y="-520.5" font-family="Helvetica,sans-Serif" font-size="10.00">and 53 more...</text>
<polygon fill="#666666" stroke="#666666" points="194.7,-1216.5 194.7,-1216.5 377.7,-1216.5 377.7,-1216.5 194.7,-1216.5"/>
<polygon fill="#666666" stroke="#666666" points="194.7,-1156.5 194.7,-1156.5 209.7,-1156.5 209.7,-1156.5 194.7,-1156.5"/>
<polygon fill="#666666" stroke="#666666" points="209.7,-1156.5 209.7,-1156.5 377.7,-1156.5 377.7,-1156.5 209.7,-1156.5"/>
<polygon fill="none" stroke="#666666" points="194.2,-514 194.2,-1245 377.2,-1245 377.2,-514 194.2,-514"/>
</a>
</g>
</g>
<!-- Node2&#45;&gt;Node4 -->
<g id="edge7_Node000004_Node000002" class="edge">
<title>Node2&#45;&gt;Node4</title>
<g id="a_edge7_Node000004_Node000002"><a xlink:title=" ">
<path fill="none" stroke="#63b8ff" d="M143.84,-1304.99C155.15,-1289.09 169.93,-1266.56 179.7,-1245 183.04,-1237.64 186.3,-1230.15 189.48,-1222.55"/>
<polygon fill="none" stroke="#63b8ff" points="189.52,-1222.46 188.1,-1215.39 194.09,-1211.36 195.5,-1218.43 189.52,-1222.46"/>
</a>
</g>
<text text-anchor="middle" x="180.2" y="-1277" font-family="Helvetica,sans-Serif" font-size="10.00" fill="grey"> +X</text>
<text text-anchor="middle" x="180.2" y="-1266" font-family="Helvetica,sans-Serif" font-size="10.00" fill="grey">+Y</text>
</g>
<!-- Node3 -->
<g id="Node000003" class="node">
<title>Node3</title>
<g id="a_Node000003"><a xlink:title=" ">
<polygon fill="white" stroke="transparent" points="568.7,-904 474.7,-904 474.7,-855 568.7,-855 568.7,-904"/>
<text text-anchor="start" x="479.7" y="-891.5" font-family="Helvetica,sans-Serif" font-size="10.00">readonly Buttons</text>
<text text-anchor="start" x="519.7" y="-876.5" font-family="Helvetica,sans-Serif" font-size="10.00"> </text>
<text text-anchor="start" x="519.7" y="-861.5" font-family="Helvetica,sans-Serif" font-size="10.00"> </text>
<polygon fill="#666666" stroke="#666666" points="474.7,-886.5 474.7,-886.5 568.7,-886.5 568.7,-886.5 474.7,-886.5"/>
<polygon fill="#666666" stroke="#666666" points="474.7,-871.5 474.7,-871.5 568.7,-871.5 568.7,-871.5 474.7,-871.5"/>
<polygon fill="none" stroke="#666666" points="474.7,-855 474.7,-904 568.7,-904 568.7,-855 474.7,-855"/>
</a>
</g>
</g>
<!-- Node3&#45;&gt;Node1 -->
<g id="edge2_Node000001_Node000003" class="edge">
<title>Node3&#45;&gt;Node1</title>
<g id="a_edge2_Node000001_Node000003"><a xlink:title=" ">
<path fill="none" stroke="#63b8ff" d="M521.37,-854.63C519.85,-795.16 511.45,-636.33 465.7,-514 450.52,-473.42 429.07,-432.47 406.24,-394.76"/>
<polygon fill="none" stroke="#63b8ff" points="406.04,-394.44 399.5,-391.42 399.77,-384.22 406.31,-387.24 406.04,-394.44"/>
</a>
</g>
<text text-anchor="middle" x="497.7" y="-482.5" font-family="Helvetica,sans-Serif" font-size="10.00" fill="grey"> ~_virtualButtons</text>
</g>
<!-- Node4&#45;&gt;Node1 -->
<g id="edge3_Node000001_Node000004" class="edge">
<title>Node4&#45;&gt;Node1</title>
<g id="a_edge3_Node000001_Node000004"><a xlink:title=" ">
<path fill="none" stroke="#63b8ff" d="M285.7,-513.88C285.7,-498.63 285.7,-483.5 285.7,-468.63"/>
<polygon fill="none" stroke="#63b8ff" points="285.7,-468.2 281.7,-462.2 285.7,-456.2 289.7,-462.2 285.7,-468.2"/>
</a>
</g>
<text text-anchor="middle" x="301.7" y="-488" font-family="Helvetica,sans-Serif" font-size="10.00" fill="grey"> &#45;_left</text>
<text text-anchor="middle" x="301.7" y="-477" font-family="Helvetica,sans-Serif" font-size="10.00" fill="grey">&#45;_right</text>
</g>
<!-- Node4&#45;&gt;Node4 -->
<g id="edge6_Node000004_Node000004" class="edge">
<title>Node4&#45;&gt;Node4</title>
<g id="a_edge6_Node000004_Node000004"><a xlink:title=" ">
<path fill="none" stroke="#63b8ff" d="M377.56,-942.55C388.25,-930.91 395.2,-909.9 395.2,-879.5 395.2,-856.47 391.21,-838.82 384.63,-826.56"/>
<polygon fill="none" stroke="#63b8ff" points="384.44,-826.29 377.72,-823.66 377.56,-816.45 384.28,-819.08 384.44,-826.29"/>
</a>
</g>
<text text-anchor="middle" x="425.7" y="-893.5" font-family="Helvetica,sans-Serif" font-size="10.00" fill="grey"> &#45;unitVector</text>
<text text-anchor="middle" x="425.7" y="-882.5" font-family="Helvetica,sans-Serif" font-size="10.00" fill="grey">&#45;unitXVector</text>
<text text-anchor="middle" x="425.7" y="-871.5" font-family="Helvetica,sans-Serif" font-size="10.00" fill="grey">&#45;unitYVector</text>
<text text-anchor="middle" x="425.7" y="-860.5" font-family="Helvetica,sans-Serif" font-size="10.00" fill="grey">&#45;zeroVector</text>
</g>
<!-- Node5 -->
<g id="Node000005" class="node">
<title>Node5</title>
<g id="a_Node000005"><a xlink:href="../../d6/d43/interfaceSystem_1_1IEquatable.html" target="_top" xlink:title=" ">
<polygon fill="white" stroke="transparent" points="346.7,-1352 224.7,-1352 224.7,-1303 346.7,-1303 346.7,-1352"/>
<text text-anchor="start" x="229.7" y="-1339.5" font-family="Helvetica,sans-Serif" font-size="10.00">IEquatable&lt; Vector2 &gt;</text>
<text text-anchor="start" x="283.7" y="-1324.5" font-family="Helvetica,sans-Serif" font-size="10.00"> </text>
<text text-anchor="start" x="229.2" y="-1309.5" font-family="Helvetica,sans-Serif" font-size="10.00">+</text>
<text text-anchor="start" x="242.7" y="-1309.5" font-family="Helvetica,sans-Serif" font-size="10.00">bool Equals(T other)</text>
<polygon fill="#666666" stroke="#666666" points="224.7,-1334.5 224.7,-1334.5 346.7,-1334.5 346.7,-1334.5 224.7,-1334.5"/>
<polygon fill="#666666" stroke="#666666" points="224.7,-1319.5 224.7,-1319.5 346.7,-1319.5 346.7,-1319.5 224.7,-1319.5"/>
<polygon fill="none" stroke="#666666" points="224.7,-1303 224.7,-1352 346.7,-1352 346.7,-1303 224.7,-1303"/>
</a>
</g>
</g>
<!-- Node5&#45;&gt;Node4 -->
<g id="edge4_Node000004_Node000005" class="edge">
<title>Node5&#45;&gt;Node4</title>
<g id="a_edge4_Node000004_Node000005"><a xlink:title=" ">
<path fill="none" stroke="#63b8ff" d="M285.7,-1292.71C285.7,-1279.74 285.7,-1263.58 285.7,-1245.25"/>
<polygon fill="none" stroke="#63b8ff" points="282.2,-1292.84 285.7,-1302.84 289.2,-1292.84 282.2,-1292.84"/>
</a>
</g>
</g>
<!-- Node6 -->
<g id="Node000006" class="node">
<title>Node6</title>
<g id="a_Node000006"><a xlink:href="../../d6/d43/interfaceSystem_1_1IEquatable.html" target="_top" xlink:title=" ">
<polygon fill="white" stroke="transparent" points="351.2,-1448 220.2,-1448 220.2,-1399 351.2,-1399 351.2,-1448"/>
<text text-anchor="start" x="225.7" y="-1435.5" font-family="Helvetica,sans-Serif" font-size="10.00">System.IEquatable&lt; T &gt;</text>
<text text-anchor="start" x="284.2" y="-1420.5" font-family="Helvetica,sans-Serif" font-size="10.00"> </text>
<text text-anchor="start" x="227.2" y="-1405.5" font-family="Helvetica,sans-Serif" font-size="10.00">+</text>
<text text-anchor="start" x="242.7" y="-1405.5" font-family="Helvetica,sans-Serif" font-size="10.00">bool Equals(T other)</text>
<polygon fill="#666666" stroke="#666666" points="220.7,-1430.5 220.7,-1430.5 351.7,-1430.5 351.7,-1430.5 220.7,-1430.5"/>
<polygon fill="#666666" stroke="#666666" points="220.7,-1415.5 220.7,-1415.5 351.7,-1415.5 351.7,-1415.5 220.7,-1415.5"/>
<polygon fill="none" stroke="#666666" points="220.2,-1399 220.2,-1448 351.2,-1448 351.2,-1399 220.2,-1399"/>
</a>
</g>
</g>
<!-- Node6&#45;&gt;Node5 -->
<g id="edge5_Node000005_Node000006" class="edge">
<title>Node6&#45;&gt;Node5</title>
<g id="a_edge5_Node000005_Node000006"><a xlink:title=" ">
<path fill="none" stroke="orange" d="M285.7,-1388.6C285.7,-1376.54 285.7,-1363.23 285.7,-1352.21"/>
<polygon fill="orange" stroke="orange" points="282.2,-1388.78 285.7,-1398.78 289.2,-1388.78 282.2,-1388.78"/>
</a>
</g>
<text text-anchor="middle" x="317.2" y="-1373" font-family="Helvetica,sans-Serif" font-size="10.00" fill="grey"> &lt; Vector2 &gt;</text>
</g>
</g>
</svg>
