<?xml version="1.0" encoding="UTF-8" standalone="no"?>
<!DOCTYPE svg PUBLIC "-//W3C//DTD SVG 1.1//EN"
 "http://www.w3.org/Graphics/SVG/1.1/DTD/svg11.dtd">
<!-- Generated by graphviz version 2.43.0 (0)
 -->
<!-- Title: System.Net.IAutoWebProxy Pages: 1 -->
<!--zoomable 1635 -->

<svg id="main" version="1.1" xmlns="http://www.w3.org/2000/svg" xmlns:xlink="http://www.w3.org/1999/xlink" xml:space="preserve" onload="init(evt)">
<style type="text/css"><![CDATA[
.node, .edge {opacity: 0.7;}
.node.selected, .edge.selected {opacity: 1;}
.edge:hover path { stroke: red; }
.edge:hover polygon { stroke: red; fill: red; }
]]></style>

<defs>
  <circle id="rim" cx="0" cy="0" r="7"/>
  <circle id="rim2" cx="0" cy="0" r="3.5"/>
  <g id="zoomPlus">
    <use xlink:href="#rim" fill="#404040"><set attributeName="fill" to="#808080" begin="zoomplus.mouseover" end="zoomplus.mouseout"/></use>
    <path d="M-4,0h8M0,-4v8" fill="none" stroke="white" stroke-width="1.5" pointer-events="none"/>
  </g>
  <g id="zoomMin">
    <use xlink:href="#rim" fill="#404040"><set attributeName="fill" to="#808080" begin="zoomminus.mouseover" end="zoomminus.mouseout"/></use>
    <path d="M-4,0h8" fill="none" stroke="white" stroke-width="1.5" pointer-events="none"/>
  </g>
  <g id="arrowUp" transform="translate(30 24)">
    <use xlink:href="#rim"/>
    <path pointer-events="none" fill="none" stroke="white" stroke-width="1.5" d="M0,-3.0v7 M-2.5,-0.5L0,-3.0L2.5,-0.5"/>
  </g>
  <g id="arrowRight" transform="rotate(90) translate(36 -43)">
    <use xlink:href="#rim"/>
    <path pointer-events="none" fill="none" stroke="white" stroke-width="1.5" d="M0,-3.0v7 M-2.5,-0.5L0,-3.0L2.5,-0.5"/>
  </g>
  <g id="arrowDown" transform="rotate(180) translate(-30 -48)">
    <use xlink:href="#rim"/>
    <path pointer-events="none" fill="none" stroke="white" stroke-width="1.5" d="M0,-3.0v7 M-2.5,-0.5L0,-3.0L2.5,-0.5"/>
  </g>
  <g id="arrowLeft" transform="rotate(270) translate(-36 17)">
    <use xlink:href="#rim"/>
    <path pointer-events="none" fill="none" stroke="white" stroke-width="1.5" d="M0,-3.0v7 M-2.5,-0.5L0,-3.0L2.5,-0.5"/>
  </g>
  <g id="resetDef">
    <use xlink:href="#rim2" fill="#404040"><set attributeName="fill" to="#808080" begin="reset.mouseover" end="reset.mouseout"/></use>
  </g>
</defs>
<script type="application/ecmascript">
var viewWidth = 607;
var viewHeight = 1635;
var sectionId = 'dynsection-0';
</script>
<script type="application/ecmascript" xlink:href="../../svg.min.js"/>
<svg id="graph" class="graph">
<g id="viewport">
<title>System.Net.IAutoWebProxy</title>
<!-- Node1 -->
<g id="Node000001" class="node">
<title>Node1</title>
<g id="a_Node000001"><a xlink:title=" ">
<polygon fill="#999999" stroke="transparent" points="371.5,-1516 226.5,-1516 226.5,-1456 371.5,-1456 371.5,-1516"/>
<text text-anchor="start" x="232" y="-1504" font-family="Helvetica,sans-Serif" font-size="10.00">System.Net.IAutoWebProxy</text>
<text text-anchor="start" x="297.5" y="-1489" font-family="Helvetica,sans-Serif" font-size="10.00"> </text>
<text text-anchor="start" x="234" y="-1474" font-family="Helvetica,sans-Serif" font-size="10.00">+</text>
<text text-anchor="start" x="250" y="-1474" font-family="Helvetica,sans-Serif" font-size="10.00">ProxyChain GetProxies</text>
<text text-anchor="start" x="250" y="-1463" font-family="Helvetica,sans-Serif" font-size="10.00">(Uri destination)</text>
<polygon fill="#666666" stroke="#666666" points="227,-1499 227,-1499 372,-1499 372,-1499 227,-1499"/>
<polygon fill="#666666" stroke="#666666" points="227,-1484 227,-1484 372,-1484 372,-1484 227,-1484"/>
<polygon fill="none" stroke="#666666" points="226.5,-1456 226.5,-1516 371.5,-1516 371.5,-1456 226.5,-1456"/>
</a>
</g>
</g>
<!-- Node3 -->
<g id="Node000003" class="node">
<title>Node3</title>
<g id="a_Node000003"><a xlink:href="../../da/d8c/classSystem_1_1Net_1_1EmptyWebProxy.html" target="_top" xlink:title=" ">
<polygon fill="white" stroke="transparent" points="166,-829 0,-829 0,-698 166,-698 166,-829"/>
<text text-anchor="start" x="12.5" y="-816.5" font-family="Helvetica,sans-Serif" font-size="10.00">System.Net.EmptyWebProxy</text>
<text text-anchor="start" x="4" y="-801.5" font-family="Helvetica,sans-Serif" font-size="10.00">+</text>
<text text-anchor="start" x="17" y="-801.5" font-family="Helvetica,sans-Serif" font-size="10.00">ICredentials Credentials</text>
<text text-anchor="start" x="6.5" y="-786.5" font-family="Helvetica,sans-Serif" font-size="10.00">&#45;</text>
<text text-anchor="start" x="17" y="-786.5" font-family="Helvetica,sans-Serif" font-size="10.00">ICredentials m_credentials</text>
<text text-anchor="start" x="4" y="-771.5" font-family="Helvetica,sans-Serif" font-size="10.00">+</text>
<text text-anchor="start" x="17" y="-771.5" font-family="Helvetica,sans-Serif" font-size="10.00">EmptyWebProxy()</text>
<text text-anchor="start" x="4" y="-756.5" font-family="Helvetica,sans-Serif" font-size="10.00">+</text>
<text text-anchor="start" x="17" y="-756.5" font-family="Helvetica,sans-Serif" font-size="10.00">Uri GetProxy(Uri uri)</text>
<text text-anchor="start" x="4" y="-741.5" font-family="Helvetica,sans-Serif" font-size="10.00">+</text>
<text text-anchor="start" x="17" y="-741.5" font-family="Helvetica,sans-Serif" font-size="10.00">bool IsBypassed(Uri uri)</text>
<text text-anchor="start" x="6.5" y="-726.5" font-family="Helvetica,sans-Serif" font-size="10.00">&#45;</text>
<text text-anchor="start" x="17" y="-726.5" font-family="Helvetica,sans-Serif" font-size="10.00">ProxyChain System.Net.IAuto</text>
<text text-anchor="start" x="17" y="-715.5" font-family="Helvetica,sans-Serif" font-size="10.00">WebProxy. GetProxies(Uri</text>
<text text-anchor="start" x="17" y="-704.5" font-family="Helvetica,sans-Serif" font-size="10.00"> destination)</text>
<polygon fill="#666666" stroke="#666666" points="0,-811.5 0,-811.5 166,-811.5 166,-811.5 0,-811.5"/>
<polygon fill="#666666" stroke="#666666" points="0,-781.5 0,-781.5 15,-781.5 15,-781.5 0,-781.5"/>
<polygon fill="#666666" stroke="#666666" points="15,-781.5 15,-781.5 166,-781.5 166,-781.5 15,-781.5"/>
<polygon fill="none" stroke="#666666" points="0,-698 0,-829 166,-829 166,-698 0,-698"/>
</a>
</g>
</g>
<!-- Node1&#45;&gt;Node3 -->
<g id="edge2_Node000001_Node000003" class="edge">
<title>Node1&#45;&gt;Node3</title>
<g id="a_edge2_Node000001_Node000003"><a xlink:title=" ">
<path fill="none" stroke="#63b8ff" d="M217.31,-1456.31C201.03,-1447.08 185.69,-1435.17 175,-1420 46.61,-1237.74 59.98,-955.28 73.98,-829.15"/>
<polygon fill="none" stroke="#63b8ff" points="215.95,-1459.56 226.42,-1461.17 219.24,-1453.38 215.95,-1459.56"/>
</a>
</g>
</g>
<!-- Node4 -->
<g id="Node000004" class="node">
<title>Node4</title>
<g id="a_Node000004"><a xlink:href="../../da/dee/classSystem_1_1Net_1_1WebProxy.html" target="_top" xlink:title=" ">
<polygon fill="white" stroke="transparent" points="413.5,-1420 184.5,-1420 184.5,-107 413.5,-107 413.5,-1420"/>
<text text-anchor="start" x="245" y="-1407.5" font-family="Helvetica,sans-Serif" font-size="10.00">System.Net.WebProxy</text>
<text text-anchor="start" x="189" y="-1392.5" font-family="Helvetica,sans-Serif" font-size="10.00">+</text>
<text text-anchor="start" x="202" y="-1392.5" font-family="Helvetica,sans-Serif" font-size="10.00">Uri Address</text>
<text text-anchor="start" x="189" y="-1377.5" font-family="Helvetica,sans-Serif" font-size="10.00">+</text>
<text text-anchor="start" x="202" y="-1377.5" font-family="Helvetica,sans-Serif" font-size="10.00">bool AutoDetect</text>
<text text-anchor="start" x="189" y="-1362.5" font-family="Helvetica,sans-Serif" font-size="10.00">+</text>
<text text-anchor="start" x="202" y="-1362.5" font-family="Helvetica,sans-Serif" font-size="10.00">Uri ScriptLocation</text>
<text text-anchor="start" x="189" y="-1347.5" font-family="Helvetica,sans-Serif" font-size="10.00">+</text>
<text text-anchor="start" x="202" y="-1347.5" font-family="Helvetica,sans-Serif" font-size="10.00">bool BypassProxyOnLocal</text>
<text text-anchor="start" x="189" y="-1332.5" font-family="Helvetica,sans-Serif" font-size="10.00">+</text>
<text text-anchor="start" x="202" y="-1332.5" font-family="Helvetica,sans-Serif" font-size="10.00">string[] BypassList</text>
<text text-anchor="start" x="189" y="-1317.5" font-family="Helvetica,sans-Serif" font-size="10.00">+</text>
<text text-anchor="start" x="202" y="-1317.5" font-family="Helvetica,sans-Serif" font-size="10.00">ICredentials Credentials</text>
<text text-anchor="start" x="189" y="-1302.5" font-family="Helvetica,sans-Serif" font-size="10.00">+</text>
<text text-anchor="start" x="202" y="-1302.5" font-family="Helvetica,sans-Serif" font-size="10.00">bool UseDefaultCredentials</text>
<text text-anchor="start" x="189" y="-1287.5" font-family="Helvetica,sans-Serif" font-size="10.00">+</text>
<text text-anchor="start" x="202" y="-1287.5" font-family="Helvetica,sans-Serif" font-size="10.00">ArrayList BypassArrayList</text>
<text text-anchor="start" x="189" y="-1272.5" font-family="Helvetica,sans-Serif" font-size="10.00">+</text>
<text text-anchor="start" x="202" y="-1272.5" font-family="Helvetica,sans-Serif" font-size="10.00">AutoWebProxyScriptEngine</text>
<text text-anchor="start" x="202" y="-1261.5" font-family="Helvetica,sans-Serif" font-size="10.00"> ScriptEngine</text>
<text text-anchor="start" x="191.5" y="-1246.5" font-family="Helvetica,sans-Serif" font-size="10.00">&#45;</text>
<text text-anchor="start" x="202" y="-1246.5" font-family="Helvetica,sans-Serif" font-size="10.00">bool _UseRegistry</text>
<text text-anchor="start" x="191.5" y="-1231.5" font-family="Helvetica,sans-Serif" font-size="10.00">&#45;</text>
<text text-anchor="start" x="202" y="-1231.5" font-family="Helvetica,sans-Serif" font-size="10.00">bool _BypassOnLocal</text>
<text text-anchor="start" x="191.5" y="-1216.5" font-family="Helvetica,sans-Serif" font-size="10.00">&#45;</text>
<text text-anchor="start" x="202" y="-1216.5" font-family="Helvetica,sans-Serif" font-size="10.00">bool m_EnableAutoproxy</text>
<text text-anchor="start" x="191.5" y="-1201.5" font-family="Helvetica,sans-Serif" font-size="10.00">&#45;</text>
<text text-anchor="start" x="202" y="-1201.5" font-family="Helvetica,sans-Serif" font-size="10.00">Uri _ProxyAddress</text>
<text text-anchor="start" x="191.5" y="-1186.5" font-family="Helvetica,sans-Serif" font-size="10.00">&#45;</text>
<text text-anchor="start" x="202" y="-1186.5" font-family="Helvetica,sans-Serif" font-size="10.00">ArrayList _BypassList</text>
<text text-anchor="start" x="191.5" y="-1171.5" font-family="Helvetica,sans-Serif" font-size="10.00">&#45;</text>
<text text-anchor="start" x="202" y="-1171.5" font-family="Helvetica,sans-Serif" font-size="10.00">ICredentials _Credentials</text>
<text text-anchor="start" x="191.5" y="-1156.5" font-family="Helvetica,sans-Serif" font-size="10.00">&#45;</text>
<text text-anchor="start" x="202" y="-1156.5" font-family="Helvetica,sans-Serif" font-size="10.00">Regex[] _RegExBypassList</text>
<text text-anchor="start" x="191.5" y="-1141.5" font-family="Helvetica,sans-Serif" font-size="10.00">&#45;</text>
<text text-anchor="start" x="202" y="-1141.5" font-family="Helvetica,sans-Serif" font-size="10.00">Hashtable _ProxyHostAddresses</text>
<text text-anchor="start" x="191.5" y="-1126.5" font-family="Helvetica,sans-Serif" font-size="10.00">&#45;</text>
<text text-anchor="start" x="202" y="-1126.5" font-family="Helvetica,sans-Serif" font-size="10.00">AutoWebProxyScriptEngine</text>
<text text-anchor="start" x="202" y="-1115.5" font-family="Helvetica,sans-Serif" font-size="10.00"> m_ScriptEngine</text>
<text text-anchor="start" x="189" y="-1100.5" font-family="Helvetica,sans-Serif" font-size="10.00">+</text>
<text text-anchor="start" x="202" y="-1100.5" font-family="Helvetica,sans-Serif" font-size="10.00">WebProxy()</text>
<text text-anchor="start" x="189" y="-1085.5" font-family="Helvetica,sans-Serif" font-size="10.00">+</text>
<text text-anchor="start" x="202" y="-1085.5" font-family="Helvetica,sans-Serif" font-size="10.00">WebProxy(Uri Address)</text>
<text text-anchor="start" x="189" y="-1070.5" font-family="Helvetica,sans-Serif" font-size="10.00">+</text>
<text text-anchor="start" x="202" y="-1070.5" font-family="Helvetica,sans-Serif" font-size="10.00">WebProxy(Uri Address,</text>
<text text-anchor="start" x="202" y="-1059.5" font-family="Helvetica,sans-Serif" font-size="10.00"> bool BypassOnLocal)</text>
<text text-anchor="start" x="189" y="-1044.5" font-family="Helvetica,sans-Serif" font-size="10.00">+</text>
<text text-anchor="start" x="202" y="-1044.5" font-family="Helvetica,sans-Serif" font-size="10.00">WebProxy(Uri Address,</text>
<text text-anchor="start" x="202" y="-1033.5" font-family="Helvetica,sans-Serif" font-size="10.00"> bool BypassOnLocal,</text>
<text text-anchor="start" x="202" y="-1022.5" font-family="Helvetica,sans-Serif" font-size="10.00"> string[] BypassList)</text>
<text text-anchor="start" x="189" y="-1007.5" font-family="Helvetica,sans-Serif" font-size="10.00">+</text>
<text text-anchor="start" x="202" y="-1007.5" font-family="Helvetica,sans-Serif" font-size="10.00">WebProxy(Uri Address,</text>
<text text-anchor="start" x="202" y="-996.5" font-family="Helvetica,sans-Serif" font-size="10.00"> bool BypassOnLocal,</text>
<text text-anchor="start" x="202" y="-985.5" font-family="Helvetica,sans-Serif" font-size="10.00"> string[] BypassList,</text>
<text text-anchor="start" x="202" y="-974.5" font-family="Helvetica,sans-Serif" font-size="10.00"> ICredentials Credentials)</text>
<text text-anchor="start" x="189" y="-959.5" font-family="Helvetica,sans-Serif" font-size="10.00">+</text>
<text text-anchor="start" x="202" y="-959.5" font-family="Helvetica,sans-Serif" font-size="10.00">WebProxy(string Host,</text>
<text text-anchor="start" x="202" y="-948.5" font-family="Helvetica,sans-Serif" font-size="10.00"> int Port)</text>
<text text-anchor="start" x="189" y="-933.5" font-family="Helvetica,sans-Serif" font-size="10.00">+</text>
<text text-anchor="start" x="202" y="-933.5" font-family="Helvetica,sans-Serif" font-size="10.00">WebProxy(string Address)</text>
<text text-anchor="start" x="189" y="-918.5" font-family="Helvetica,sans-Serif" font-size="10.00">+</text>
<text text-anchor="start" x="202" y="-918.5" font-family="Helvetica,sans-Serif" font-size="10.00">WebProxy(string Address,</text>
<text text-anchor="start" x="202" y="-907.5" font-family="Helvetica,sans-Serif" font-size="10.00"> bool BypassOnLocal)</text>
<text text-anchor="start" x="189" y="-892.5" font-family="Helvetica,sans-Serif" font-size="10.00">+</text>
<text text-anchor="start" x="202" y="-892.5" font-family="Helvetica,sans-Serif" font-size="10.00">WebProxy(string Address,</text>
<text text-anchor="start" x="202" y="-881.5" font-family="Helvetica,sans-Serif" font-size="10.00"> bool BypassOnLocal, string</text>
<text text-anchor="start" x="202" y="-870.5" font-family="Helvetica,sans-Serif" font-size="10.00">[] BypassList)</text>
<text text-anchor="start" x="189" y="-855.5" font-family="Helvetica,sans-Serif" font-size="10.00">+</text>
<text text-anchor="start" x="202" y="-855.5" font-family="Helvetica,sans-Serif" font-size="10.00">WebProxy(string Address,</text>
<text text-anchor="start" x="202" y="-844.5" font-family="Helvetica,sans-Serif" font-size="10.00"> bool BypassOnLocal, string</text>
<text text-anchor="start" x="202" y="-833.5" font-family="Helvetica,sans-Serif" font-size="10.00">[] BypassList, ICredentials</text>
<text text-anchor="start" x="202" y="-822.5" font-family="Helvetica,sans-Serif" font-size="10.00"> Credentials)</text>
<text text-anchor="start" x="189" y="-807.5" font-family="Helvetica,sans-Serif" font-size="10.00">+</text>
<text text-anchor="start" x="202" y="-807.5" font-family="Helvetica,sans-Serif" font-size="10.00">Uri GetProxy(Uri destination)</text>
<text text-anchor="start" x="189" y="-792.5" font-family="Helvetica,sans-Serif" font-size="10.00">+</text>
<text text-anchor="start" x="202" y="-792.5" font-family="Helvetica,sans-Serif" font-size="10.00">bool IsBypassed(Uri</text>
<text text-anchor="start" x="202" y="-781.5" font-family="Helvetica,sans-Serif" font-size="10.00"> host)</text>
<text text-anchor="start" x="189" y="-766.5" font-family="Helvetica,sans-Serif" font-size="10.00">+</text>
<text text-anchor="start" x="202" y="-766.5" font-family="Helvetica,sans-Serif" font-size="10.00">static WebProxy GetDefault</text>
<text text-anchor="start" x="202" y="-755.5" font-family="Helvetica,sans-Serif" font-size="10.00">Proxy()</text>
<text text-anchor="start" x="189" y="-740.5" font-family="Helvetica,sans-Serif" font-size="10.00">+</text>
<text text-anchor="start" x="202" y="-740.5" font-family="Helvetica,sans-Serif" font-size="10.00">static IWebProxy CreateDefault</text>
<text text-anchor="start" x="202" y="-729.5" font-family="Helvetica,sans-Serif" font-size="10.00">Proxy()</text>
<text text-anchor="start" x="189" y="-714.5" font-family="Helvetica,sans-Serif" font-size="10.00">~</text>
<text text-anchor="start" x="202" y="-714.5" font-family="Helvetica,sans-Serif" font-size="10.00">void CheckForChanges()</text>
<text text-anchor="start" x="189" y="-699.5" font-family="Helvetica,sans-Serif" font-size="10.00">~</text>
<text text-anchor="start" x="202" y="-699.5" font-family="Helvetica,sans-Serif" font-size="10.00">WebProxy(bool enableAutoproxy)</text>
<text text-anchor="start" x="189" y="-684.5" font-family="Helvetica,sans-Serif" font-size="10.00">~</text>
<text text-anchor="start" x="202" y="-684.5" font-family="Helvetica,sans-Serif" font-size="10.00">void DeleteScriptEngine()</text>
<text text-anchor="start" x="189" y="-669.5" font-family="Helvetica,sans-Serif" font-size="10.00">~</text>
<text text-anchor="start" x="202" y="-669.5" font-family="Helvetica,sans-Serif" font-size="10.00">void UnsafeUpdateFromRegistry()</text>
<text text-anchor="start" x="189" y="-654.5" font-family="Helvetica,sans-Serif" font-size="10.00">~</text>
<text text-anchor="start" x="202" y="-654.5" font-family="Helvetica,sans-Serif" font-size="10.00">void Update(WebProxyData</text>
<text text-anchor="start" x="202" y="-643.5" font-family="Helvetica,sans-Serif" font-size="10.00"> webProxyData)</text>
<text text-anchor="start" x="189" y="-628.5" font-family="Helvetica,sans-Serif" font-size="10.00">~</text>
<text text-anchor="start" x="202" y="-628.5" font-family="Helvetica,sans-Serif" font-size="10.00">Uri[] GetProxiesAuto</text>
<text text-anchor="start" x="202" y="-617.5" font-family="Helvetica,sans-Serif" font-size="10.00">(Uri destination, ref</text>
<text text-anchor="start" x="202" y="-606.5" font-family="Helvetica,sans-Serif" font-size="10.00"> int syncStatus)</text>
<text text-anchor="start" x="189" y="-591.5" font-family="Helvetica,sans-Serif" font-size="10.00">~</text>
<text text-anchor="start" x="202" y="-591.5" font-family="Helvetica,sans-Serif" font-size="10.00">void AbortGetProxiesAuto</text>
<text text-anchor="start" x="202" y="-580.5" font-family="Helvetica,sans-Serif" font-size="10.00">(ref int syncStatus)</text>
<text text-anchor="start" x="189" y="-565.5" font-family="Helvetica,sans-Serif" font-size="10.00">~</text>
<text text-anchor="start" x="202" y="-565.5" font-family="Helvetica,sans-Serif" font-size="10.00">Uri GetProxyAutoFailover</text>
<text text-anchor="start" x="202" y="-554.5" font-family="Helvetica,sans-Serif" font-size="10.00">(Uri destination)</text>
<text text-anchor="start" x="189" y="-539.5" font-family="Helvetica,sans-Serif" font-size="10.00">#</text>
<text text-anchor="start" x="202" y="-539.5" font-family="Helvetica,sans-Serif" font-size="10.00">WebProxy(SerializationInfo</text>
<text text-anchor="start" x="202" y="-528.5" font-family="Helvetica,sans-Serif" font-size="10.00"> serializationInfo, StreamingContext</text>
<text text-anchor="start" x="202" y="-517.5" font-family="Helvetica,sans-Serif" font-size="10.00"> streamingContext)</text>
<text text-anchor="start" x="189" y="-502.5" font-family="Helvetica,sans-Serif" font-size="10.00">#</text>
<text text-anchor="start" x="202" y="-502.5" font-family="Helvetica,sans-Serif" font-size="10.00">virtual void GetObjectData</text>
<text text-anchor="start" x="202" y="-491.5" font-family="Helvetica,sans-Serif" font-size="10.00">(SerializationInfo serialization</text>
<text text-anchor="start" x="202" y="-480.5" font-family="Helvetica,sans-Serif" font-size="10.00">Info, StreamingContext streamingContext)</text>
<text text-anchor="start" x="191.5" y="-465.5" font-family="Helvetica,sans-Serif" font-size="10.00">&#45;</text>
<text text-anchor="start" x="202" y="-465.5" font-family="Helvetica,sans-Serif" font-size="10.00">void UpdateRegExList</text>
<text text-anchor="start" x="202" y="-454.5" font-family="Helvetica,sans-Serif" font-size="10.00">(bool canThrow)</text>
<text text-anchor="start" x="191.5" y="-439.5" font-family="Helvetica,sans-Serif" font-size="10.00">&#45;</text>
<text text-anchor="start" x="202" y="-439.5" font-family="Helvetica,sans-Serif" font-size="10.00">bool IsMatchInBypassList</text>
<text text-anchor="start" x="202" y="-428.5" font-family="Helvetica,sans-Serif" font-size="10.00">(Uri input)</text>
<text text-anchor="start" x="191.5" y="-413.5" font-family="Helvetica,sans-Serif" font-size="10.00">&#45;</text>
<text text-anchor="start" x="202" y="-413.5" font-family="Helvetica,sans-Serif" font-size="10.00">bool IsLocal(Uri host)</text>
<text text-anchor="start" x="191.5" y="-398.5" font-family="Helvetica,sans-Serif" font-size="10.00">&#45;</text>
<text text-anchor="start" x="202" y="-398.5" font-family="Helvetica,sans-Serif" font-size="10.00">bool IsLocalInProxyHash</text>
<text text-anchor="start" x="202" y="-387.5" font-family="Helvetica,sans-Serif" font-size="10.00">(Uri host)</text>
<text text-anchor="start" x="191.5" y="-372.5" font-family="Helvetica,sans-Serif" font-size="10.00">&#45;</text>
<text text-anchor="start" x="202" y="-372.5" font-family="Helvetica,sans-Serif" font-size="10.00">bool IsBypassedManual</text>
<text text-anchor="start" x="202" y="-361.5" font-family="Helvetica,sans-Serif" font-size="10.00">(Uri host)</text>
<text text-anchor="start" x="191.5" y="-346.5" font-family="Helvetica,sans-Serif" font-size="10.00">&#45;</text>
<text text-anchor="start" x="202" y="-346.5" font-family="Helvetica,sans-Serif" font-size="10.00">void System.Runtime.Serialization.</text>
<text text-anchor="start" x="202" y="-335.5" font-family="Helvetica,sans-Serif" font-size="10.00">ISerializable. GetObjectData</text>
<text text-anchor="start" x="202" y="-324.5" font-family="Helvetica,sans-Serif" font-size="10.00">(SerializationInfo serializationInfo,</text>
<text text-anchor="start" x="202" y="-313.5" font-family="Helvetica,sans-Serif" font-size="10.00"> StreamingContext streamingContext)</text>
<text text-anchor="start" x="191.5" y="-298.5" font-family="Helvetica,sans-Serif" font-size="10.00">&#45;</text>
<text text-anchor="start" x="202" y="-298.5" font-family="Helvetica,sans-Serif" font-size="10.00">ProxyChain System.Net.IAuto</text>
<text text-anchor="start" x="202" y="-287.5" font-family="Helvetica,sans-Serif" font-size="10.00">WebProxy. GetProxies(Uri</text>
<text text-anchor="start" x="202" y="-276.5" font-family="Helvetica,sans-Serif" font-size="10.00"> destination)</text>
<text text-anchor="start" x="191.5" y="-261.5" font-family="Helvetica,sans-Serif" font-size="10.00">&#45;</text>
<text text-anchor="start" x="202" y="-261.5" font-family="Helvetica,sans-Serif" font-size="10.00">bool GetProxyAuto(Uri</text>
<text text-anchor="start" x="202" y="-250.5" font-family="Helvetica,sans-Serif" font-size="10.00"> destination, out Uri</text>
<text text-anchor="start" x="202" y="-239.5" font-family="Helvetica,sans-Serif" font-size="10.00"> proxyUri)</text>
<text text-anchor="start" x="191.5" y="-224.5" font-family="Helvetica,sans-Serif" font-size="10.00">&#45;</text>
<text text-anchor="start" x="202" y="-224.5" font-family="Helvetica,sans-Serif" font-size="10.00">bool IsBypassedAuto</text>
<text text-anchor="start" x="202" y="-213.5" font-family="Helvetica,sans-Serif" font-size="10.00">(Uri destination, out</text>
<text text-anchor="start" x="202" y="-202.5" font-family="Helvetica,sans-Serif" font-size="10.00"> bool isBypassed)</text>
<text text-anchor="start" x="191.5" y="-187.5" font-family="Helvetica,sans-Serif" font-size="10.00">&#45;</text>
<text text-anchor="start" x="202" y="-187.5" font-family="Helvetica,sans-Serif" font-size="10.00">static Uri CreateProxyUri</text>
<text text-anchor="start" x="202" y="-176.5" font-family="Helvetica,sans-Serif" font-size="10.00">(string address)</text>
<text text-anchor="start" x="191.5" y="-161.5" font-family="Helvetica,sans-Serif" font-size="10.00">&#45;</text>
<text text-anchor="start" x="202" y="-161.5" font-family="Helvetica,sans-Serif" font-size="10.00">static bool AreAllBypassed</text>
<text text-anchor="start" x="202" y="-150.5" font-family="Helvetica,sans-Serif" font-size="10.00">(IEnumerable&lt; string &gt; proxies,</text>
<text text-anchor="start" x="202" y="-139.5" font-family="Helvetica,sans-Serif" font-size="10.00"> bool checkFirstOnly)</text>
<text text-anchor="start" x="191.5" y="-124.5" font-family="Helvetica,sans-Serif" font-size="10.00">&#45;</text>
<text text-anchor="start" x="202" y="-124.5" font-family="Helvetica,sans-Serif" font-size="10.00">static Uri ProxyUri</text>
<text text-anchor="start" x="202" y="-113.5" font-family="Helvetica,sans-Serif" font-size="10.00">(string proxyName)</text>
<polygon fill="#666666" stroke="#666666" points="185,-1402.5 185,-1402.5 414,-1402.5 414,-1402.5 185,-1402.5"/>
<polygon fill="#666666" stroke="#666666" points="185,-1110.5 185,-1110.5 200,-1110.5 200,-1110.5 185,-1110.5"/>
<polygon fill="#666666" stroke="#666666" points="200,-1110.5 200,-1110.5 414,-1110.5 414,-1110.5 200,-1110.5"/>
<polygon fill="none" stroke="#666666" points="184.5,-107 184.5,-1420 413.5,-1420 413.5,-107 184.5,-107"/>
</a>
</g>
</g>
<!-- Node1&#45;&gt;Node4 -->
<g id="edge3_Node000001_Node000004" class="edge">
<title>Node1&#45;&gt;Node4</title>
<g id="a_edge3_Node000001_Node000004"><a xlink:title=" ">
<path fill="none" stroke="#63b8ff" d="M299,-1445.76C299,-1438.15 299,-1429.57 299,-1420.12"/>
<polygon fill="none" stroke="#63b8ff" points="295.5,-1445.86 299,-1455.86 302.5,-1445.86 295.5,-1445.86"/>
</a>
</g>
</g>
<!-- Node5 -->
<g id="Node000005" class="node">
<title>Node5</title>
<g id="a_Node000005"><a xlink:href="../../d3/d5f/classSystem_1_1Net_1_1WebRequest_1_1WebProxyWrapperOpaque.html" target="_top" xlink:title=" ">
<polygon fill="white" stroke="transparent" points="598.5,-840 431.5,-840 431.5,-687 598.5,-687 598.5,-840"/>
<text text-anchor="start" x="443" y="-827.5" font-family="Helvetica,sans-Serif" font-size="10.00">System.Net.WebRequest.Web</text>
<text text-anchor="start" x="462" y="-816.5" font-family="Helvetica,sans-Serif" font-size="10.00">ProxyWrapperOpaque</text>
<text text-anchor="start" x="436" y="-801.5" font-family="Helvetica,sans-Serif" font-size="10.00">+</text>
<text text-anchor="start" x="449" y="-801.5" font-family="Helvetica,sans-Serif" font-size="10.00">ICredentials Credentials</text>
<text text-anchor="start" x="436" y="-786.5" font-family="Helvetica,sans-Serif" font-size="10.00">#</text>
<text text-anchor="start" x="449" y="-786.5" font-family="Helvetica,sans-Serif" font-size="10.00">readonly WebProxy webProxy</text>
<text text-anchor="start" x="436" y="-771.5" font-family="Helvetica,sans-Serif" font-size="10.00">+</text>
<text text-anchor="start" x="449" y="-771.5" font-family="Helvetica,sans-Serif" font-size="10.00">Uri GetProxy(Uri destination)</text>
<text text-anchor="start" x="436" y="-756.5" font-family="Helvetica,sans-Serif" font-size="10.00">+</text>
<text text-anchor="start" x="449" y="-756.5" font-family="Helvetica,sans-Serif" font-size="10.00">bool IsBypassed(Uri</text>
<text text-anchor="start" x="449" y="-745.5" font-family="Helvetica,sans-Serif" font-size="10.00"> host)</text>
<text text-anchor="start" x="436" y="-730.5" font-family="Helvetica,sans-Serif" font-size="10.00">+</text>
<text text-anchor="start" x="449" y="-730.5" font-family="Helvetica,sans-Serif" font-size="10.00">ProxyChain GetProxies</text>
<text text-anchor="start" x="449" y="-719.5" font-family="Helvetica,sans-Serif" font-size="10.00">(Uri destination)</text>
<text text-anchor="start" x="436" y="-704.5" font-family="Helvetica,sans-Serif" font-size="10.00">~</text>
<text text-anchor="start" x="449" y="-704.5" font-family="Helvetica,sans-Serif" font-size="10.00">WebProxyWrapperOpaque</text>
<text text-anchor="start" x="449" y="-693.5" font-family="Helvetica,sans-Serif" font-size="10.00">(WebProxy webProxy)</text>
<polygon fill="#666666" stroke="#666666" points="432,-811.5 432,-811.5 599,-811.5 599,-811.5 432,-811.5"/>
<polygon fill="#666666" stroke="#666666" points="432,-781.5 432,-781.5 447,-781.5 447,-781.5 432,-781.5"/>
<polygon fill="#666666" stroke="#666666" points="447,-781.5 447,-781.5 599,-781.5 599,-781.5 447,-781.5"/>
<polygon fill="none" stroke="#666666" points="431.5,-687 431.5,-840 598.5,-840 598.5,-687 431.5,-687"/>
</a>
</g>
</g>
<!-- Node1&#45;&gt;Node5 -->
<g id="edge4_Node000001_Node000005" class="edge">
<title>Node1&#45;&gt;Node5</title>
<g id="a_edge4_Node000001_Node000005"><a xlink:title=" ">
<path fill="none" stroke="#63b8ff" d="M380.56,-1455.88C396.51,-1446.69 411.51,-1434.92 422,-1420 546.62,-1242.76 538.14,-971.13 525,-840.22"/>
<polygon fill="none" stroke="#63b8ff" points="378.76,-1452.88 371.63,-1460.72 382.09,-1459.03 378.76,-1452.88"/>
</a>
</g>
</g>
<!-- Node2 -->
<g id="Node000002" class="node">
<title>Node2</title>
<g id="a_Node000002"><a xlink:href="../../df/d67/interfaceSystem_1_1Net_1_1IWebProxy.html" target="_top" xlink:title=" ">
<polygon fill="white" stroke="transparent" points="380.5,-1627 217.5,-1627 217.5,-1552 380.5,-1552 380.5,-1627"/>
<text text-anchor="start" x="273.5" y="-1614.5" font-family="Helvetica,sans-Serif" font-size="10.00">IWebProxy</text>
<text text-anchor="start" x="222" y="-1599.5" font-family="Helvetica,sans-Serif" font-size="10.00">+</text>
<text text-anchor="start" x="235" y="-1599.5" font-family="Helvetica,sans-Serif" font-size="10.00">ICredentials Credentials</text>
<text text-anchor="start" x="222" y="-1584.5" font-family="Helvetica,sans-Serif" font-size="10.00">+</text>
<text text-anchor="start" x="235" y="-1584.5" font-family="Helvetica,sans-Serif" font-size="10.00">Uri GetProxy(Uri destination)</text>
<text text-anchor="start" x="222" y="-1569.5" font-family="Helvetica,sans-Serif" font-size="10.00">+</text>
<text text-anchor="start" x="235" y="-1569.5" font-family="Helvetica,sans-Serif" font-size="10.00">bool IsBypassed(Uri</text>
<text text-anchor="start" x="235" y="-1558.5" font-family="Helvetica,sans-Serif" font-size="10.00"> host)</text>
<polygon fill="#666666" stroke="#666666" points="218,-1609.5 218,-1609.5 381,-1609.5 381,-1609.5 218,-1609.5"/>
<polygon fill="#666666" stroke="#666666" points="218,-1594.5 218,-1594.5 233,-1594.5 233,-1594.5 218,-1594.5"/>
<polygon fill="#666666" stroke="#666666" points="233,-1594.5 233,-1594.5 381,-1594.5 381,-1594.5 233,-1594.5"/>
<polygon fill="none" stroke="#666666" points="217.5,-1552 217.5,-1627 380.5,-1627 380.5,-1552 217.5,-1552"/>
</a>
</g>
</g>
<!-- Node2&#45;&gt;Node1 -->
<g id="edge1_Node000001_Node000002" class="edge">
<title>Node2&#45;&gt;Node1</title>
<g id="a_edge1_Node000001_Node000002"><a xlink:title=" ">
<path fill="none" stroke="#63b8ff" d="M299,-1541.79C299,-1533.1 299,-1524.25 299,-1516.27"/>
<polygon fill="none" stroke="#63b8ff" points="295.5,-1541.86 299,-1551.86 302.5,-1541.86 295.5,-1541.86"/>
</a>
</g>
</g>
<!-- Node6 -->
<g id="Node000006" class="node">
<title>Node6</title>
<g id="a_Node000006"><a xlink:href="../../d0/daa/classSystem_1_1Net_1_1WebRequest_1_1WebProxyWrapper.html" target="_top" xlink:title=" ">
<polygon fill="white" stroke="transparent" points="597,-71 433,-71 433,0 597,0 597,-71"/>
<text text-anchor="start" x="442.5" y="-58.5" font-family="Helvetica,sans-Serif" font-size="10.00">System.Net.WebRequest.Web</text>
<text text-anchor="start" x="480" y="-47.5" font-family="Helvetica,sans-Serif" font-size="10.00">ProxyWrapper</text>
<text text-anchor="start" x="437" y="-32.5" font-family="Helvetica,sans-Serif" font-size="10.00">+</text>
<text text-anchor="start" x="450" y="-32.5" font-family="Helvetica,sans-Serif" font-size="10.00">WebProxy WebProxy</text>
<text text-anchor="start" x="437" y="-17.5" font-family="Helvetica,sans-Serif" font-size="10.00">~</text>
<text text-anchor="start" x="450" y="-17.5" font-family="Helvetica,sans-Serif" font-size="10.00">WebProxyWrapper(WebProxy</text>
<text text-anchor="start" x="450" y="-6.5" font-family="Helvetica,sans-Serif" font-size="10.00"> webProxy)</text>
<polygon fill="#666666" stroke="#666666" points="433,-42.5 433,-42.5 597,-42.5 597,-42.5 433,-42.5"/>
<polygon fill="#666666" stroke="#666666" points="433,-27.5 433,-27.5 448,-27.5 448,-27.5 433,-27.5"/>
<polygon fill="#666666" stroke="#666666" points="448,-27.5 448,-27.5 597,-27.5 597,-27.5 448,-27.5"/>
<polygon fill="none" stroke="#666666" points="433,0 433,-71 597,-71 597,0 433,0"/>
</a>
</g>
</g>
<!-- Node5&#45;&gt;Node6 -->
<g id="edge5_Node000005_Node000006" class="edge">
<title>Node5&#45;&gt;Node6</title>
<g id="a_edge5_Node000005_Node000006"><a xlink:title=" ">
<path fill="none" stroke="#63b8ff" d="M515,-676.59C515,-516.7 515,-179.82 515,-71.11"/>
<polygon fill="none" stroke="#63b8ff" points="511.5,-676.86 515,-686.86 518.5,-676.86 511.5,-676.86"/>
</a>
</g>
</g>
</g>
</svg>

<g id="navigator" transform="translate(0 0)" fill="#404254">
  <rect fill="#f2f5e9" fill-opacity="0.5" stroke="#606060" stroke-width=".5" x="0" y="0" width="60" height="60"/>
  <use id="zoomplus" xlink:href="#zoomPlus" x="17" y="9" onmousedown="handleZoom(evt,'in')"/>
  <use id="zoomminus" xlink:href="#zoomMin" x="42" y="9" onmousedown="handleZoom(evt,'out')"/>
  <use id="reset" xlink:href="#resetDef" x="30" y="36" onmousedown="handleReset()"/>
   <use id="arrowup" xlink:href="#arrowUp" x="0" y="0" onmousedown="handlePan(0,-1)"/>
  <use id="arrowright" xlink:href="#arrowRight" x="0" y="0" onmousedown="handlePan(1,0)"/>
  <use id="arrowdown" xlink:href="#arrowDown" x="0" y="0" onmousedown="handlePan(0,1)"/>
  <use id="arrowleft" xlink:href="#arrowLeft" x="0" y="0" onmousedown="handlePan(-1,0)"/>
</g>
<svg viewBox="0 0 15 15" width="100%" height="30px" preserveAspectRatio="xMaxYMin meet">
 <g id="arrow_out" transform="scale(0.3 0.3)">
  <a xlink:href="interfaceSystem_1_1Net_1_1IAutoWebProxy__inherit__graph_org.svg" target="_base">
   <rect id="button" ry="5" rx="5" y="6" x="6" height="38" width="38"
        fill="#f2f5e9" fill-opacity="0.5" stroke="#606060" stroke-width="1.0"/>
   <path id="arrow"
     d="M 11.500037,31.436501 C 11.940474,20.09759 22.043105,11.32322 32.158766,21.979434 L 37.068811,17.246167 C 37.068811,17.246167 37.088388,32 37.088388,32 L 22.160133,31.978069 C 22.160133,31.978069 26.997745,27.140456 26.997745,27.140456 C 18.528582,18.264221 13.291696,25.230495 11.500037,31.436501 z"
     style="fill:#404040;"/>
  </a>
 </g>
</svg>

<style type='text/css'>
<![CDATA[
[data-mouse-over-selected='false'] { opacity: 0.7; }
[data-mouse-over-selected='true']  { opacity: 1.0; }
]]>
</style>
<script type="application/ecmascript"><![CDATA[
document.addEventListener('DOMContentLoaded', (event) => {
  highlightEdges();
  highlightAdjacentNodes();
});
]]></script>
</svg>
