<?xml version="1.0" encoding="UTF-8" standalone="no"?>
<!DOCTYPE svg PUBLIC "-//W3C//DTD SVG 1.1//EN"
 "http://www.w3.org/Graphics/SVG/1.1/DTD/svg11.dtd">
<!-- Generated by graphviz version 2.43.0 (0)
 -->
<!-- Title: Terraria.GameContent.Skies.MartianSky.ZipBehavior Pages: 1 -->
<svg width="165pt" height="287pt"
 viewBox="0.00 0.00 165.00 287.00" xmlns="http://www.w3.org/2000/svg" xmlns:xlink="http://www.w3.org/1999/xlink">

<svg id="main" version="1.1" xmlns="http://www.w3.org/2000/svg" xmlns:xlink="http://www.w3.org/1999/xlink" xml:space="preserve" onload="init(evt)">
<style type="text/css"><![CDATA[
.node, .edge {opacity: 0.7;}
.node.selected, .edge.selected {opacity: 1;}
.edge:hover path { stroke: red; }
.edge:hover polygon { stroke: red; fill: red; }
]]></style>
<script type="application/ecmascript" xlink:href="../../svg.min.js"/>
<svg id="graph" class="graph">
<g id="graph0" class="graph" transform="scale(1 1) rotate(0) translate(4 283)">
<title>Terraria.GameContent.Skies.MartianSky.ZipBehavior</title>
<!-- Node1 -->
<g id="Node000001" class="node">
<title>Node1</title>
<g id="a_Node000001"><a xlink:title=" ">
<polygon fill="#999999" stroke="transparent" points="156,-142 1,-142 1,0 156,0 156,-142"/>
<text text-anchor="start" x="9" y="-130" font-family="Helvetica,sans-Serif" font-size="10.00">Terraria.GameContent.Skies.</text>
<text text-anchor="start" x="21" y="-119" font-family="Helvetica,sans-Serif" font-size="10.00">MartianSky.ZipBehavior</text>
<text text-anchor="start" x="8" y="-104" font-family="Helvetica,sans-Serif" font-size="10.00">&#45;</text>
<text text-anchor="start" x="18.5" y="-104" font-family="Helvetica,sans-Serif" font-size="10.00">Vector2 _speed</text>
<text text-anchor="start" x="8" y="-89" font-family="Helvetica,sans-Serif" font-size="10.00">&#45;</text>
<text text-anchor="start" x="18.5" y="-89" font-family="Helvetica,sans-Serif" font-size="10.00">int _ticks</text>
<text text-anchor="start" x="8" y="-74" font-family="Helvetica,sans-Serif" font-size="10.00">&#45;</text>
<text text-anchor="start" x="18.5" y="-74" font-family="Helvetica,sans-Serif" font-size="10.00">int _maxTicks</text>
<text text-anchor="start" x="5.5" y="-59" font-family="Helvetica,sans-Serif" font-size="10.00">+</text>
<text text-anchor="start" x="18.5" y="-59" font-family="Helvetica,sans-Serif" font-size="10.00">override void Initialize</text>
<text text-anchor="start" x="18.5" y="-48" font-family="Helvetica,sans-Serif" font-size="10.00">Ufo(ref MartianSky.Ufo ufo)</text>
<text text-anchor="start" x="5.5" y="-33" font-family="Helvetica,sans-Serif" font-size="10.00">+</text>
<text text-anchor="start" x="18.5" y="-33" font-family="Helvetica,sans-Serif" font-size="10.00">override bool Update</text>
<text text-anchor="start" x="18.5" y="-22" font-family="Helvetica,sans-Serif" font-size="10.00">(ref MartianSky.Ufo ufo)</text>
<text text-anchor="start" x="5.5" y="-7" font-family="Helvetica,sans-Serif" font-size="10.00">+</text>
<text text-anchor="start" x="18.5" y="-7" font-family="Helvetica,sans-Serif" font-size="10.00">ZipBehavior()</text>
<polygon fill="#666666" stroke="#666666" points="1.5,-114 1.5,-114 156.5,-114 156.5,-114 1.5,-114"/>
<polygon fill="#666666" stroke="#666666" points="1.5,-69 1.5,-69 16.5,-69 16.5,-69 1.5,-69"/>
<polygon fill="#666666" stroke="#666666" points="16.5,-69 16.5,-69 156.5,-69 156.5,-69 16.5,-69"/>
<polygon fill="none" stroke="#666666" points="1,0 1,-142 156,-142 156,0 1,0"/>
</a>
</g>
</g>
<!-- Node2 -->
<g id="Node000002" class="node">
<title>Node2</title>
<g id="a_Node000002"><a xlink:href="../../d8/d22/classTerraria_1_1GameContent_1_1Skies_1_1MartianSky_1_1IUfoController.html" target="_top" xlink:title=" ">
<polygon fill="white" stroke="transparent" points="157,-279 0,-279 0,-178 157,-178 157,-279"/>
<text text-anchor="start" x="14.5" y="-266.5" font-family="Helvetica,sans-Serif" font-size="10.00">MartianSky::IUfoController</text>
<text text-anchor="start" x="77" y="-251.5" font-family="Helvetica,sans-Serif" font-size="10.00"> </text>
<text text-anchor="start" x="4.5" y="-236.5" font-family="Helvetica,sans-Serif" font-size="10.00">+</text>
<text text-anchor="start" x="17.5" y="-236.5" font-family="Helvetica,sans-Serif" font-size="10.00">void InitializeUfo</text>
<text text-anchor="start" x="17.5" y="-225.5" font-family="Helvetica,sans-Serif" font-size="10.00">(ref MartianSky.Ufo ufo)</text>
<text text-anchor="start" x="4.5" y="-210.5" font-family="Helvetica,sans-Serif" font-size="10.00">+</text>
<text text-anchor="start" x="17.5" y="-210.5" font-family="Helvetica,sans-Serif" font-size="10.00">bool Update(ref MartianSky.</text>
<text text-anchor="start" x="17.5" y="-199.5" font-family="Helvetica,sans-Serif" font-size="10.00">Ufo ufo)</text>
<text text-anchor="start" x="4.5" y="-184.5" font-family="Helvetica,sans-Serif" font-size="10.00">#</text>
<text text-anchor="start" x="17.5" y="-184.5" font-family="Helvetica,sans-Serif" font-size="10.00">IUfoController()</text>
<polygon fill="#666666" stroke="#666666" points="0.5,-261.5 0.5,-261.5 157.5,-261.5 157.5,-261.5 0.5,-261.5"/>
<polygon fill="#666666" stroke="#666666" points="0.5,-246.5 0.5,-246.5 157.5,-246.5 157.5,-246.5 0.5,-246.5"/>
<polygon fill="none" stroke="#666666" points="0,-178 0,-279 157,-279 157,-178 0,-178"/>
</a>
</g>
</g>
<!-- Node2&#45;&gt;Node1 -->
<g id="edge1_Node000001_Node000002" class="edge">
<title>Node2&#45;&gt;Node1</title>
<g id="a_edge1_Node000001_Node000002"><a xlink:title=" ">
<path fill="none" stroke="#63b8ff" d="M78.5,-167.8C78.5,-159.4 78.5,-150.7 78.5,-142.13"/>
<polygon fill="none" stroke="#63b8ff" points="75,-167.87 78.5,-177.87 82,-167.87 75,-167.87"/>
</a>
</g>
</g>
</g>
</svg>
</svg>

<style type='text/css'>
<![CDATA[
[data-mouse-over-selected='false'] { opacity: 0.7; }
[data-mouse-over-selected='true']  { opacity: 1.0; }
]]>
</style>
<script type="application/ecmascript"><![CDATA[
document.addEventListener('DOMContentLoaded', (event) => {
  highlightEdges();
  highlightAdjacentNodes();
});
]]></script>
</svg>
