<?xml version="1.0" encoding="UTF-8" standalone="no"?>
<!DOCTYPE svg PUBLIC "-//W3C//DTD SVG 1.1//EN"
 "http://www.w3.org/Graphics/SVG/1.1/DTD/svg11.dtd">
<!-- Generated by graphviz version 2.43.0 (0)
 -->
<!-- Title: System.Xml.BinaryCompatibility Pages: 1 -->
<svg width="178pt" height="68pt"
 viewBox="0.00 0.00 178.00 68.00" xmlns="http://www.w3.org/2000/svg" xmlns:xlink="http://www.w3.org/1999/xlink">
<g id="graph0" class="graph" transform="scale(1 1) rotate(0) translate(4 64)">
<title>System.Xml.BinaryCompatibility</title>
<!-- Node1 -->
<g id="Node000001" class="node">
<title>Node1</title>
<g id="a_Node000001"><a xlink:title=" ">
<polygon fill="#999999" stroke="transparent" points="170,-60 0,-60 0,0 170,0 170,-60"/>
<text text-anchor="start" x="5" y="-48" font-family="Helvetica,sans-Serif" font-size="10.00">System.Xml.BinaryCompatibility</text>
<text text-anchor="start" x="9.5" y="-33" font-family="Helvetica,sans-Serif" font-size="10.00">+</text>
<text text-anchor="start" x="28" y="-33" font-family="Helvetica,sans-Serif" font-size="10.00">static bool TargetsAtLeast</text>
<text text-anchor="start" x="28" y="-22" font-family="Helvetica,sans-Serif" font-size="10.00">_Desktop_V4_5_2</text>
<text text-anchor="start" x="83" y="-7" font-family="Helvetica,sans-Serif" font-size="10.00"> </text>
<polygon fill="#666666" stroke="#666666" points="0,-43 0,-43 170,-43 170,-43 0,-43"/>
<polygon fill="#666666" stroke="#666666" points="0,-17 0,-17 26,-17 26,-17 0,-17"/>
<polygon fill="#666666" stroke="#666666" points="26,-17 26,-17 170,-17 170,-17 26,-17"/>
<polygon fill="none" stroke="#666666" points="0,0 0,-60 170,-60 170,0 0,0"/>
</a>
</g>
</g>
</g>
</svg>
