<?xml version="1.0" encoding="UTF-8" standalone="no"?>
<!DOCTYPE svg PUBLIC "-//W3C//DTD SVG 1.1//EN"
 "http://www.w3.org/Graphics/SVG/1.1/DTD/svg11.dtd">
<!-- Generated by graphviz version 2.43.0 (0)
 -->
<!-- Title: System.Collections.Generic.Stack&lt; T &gt; Pages: 1 -->
<!--zoomable 885 -->

<svg id="main" version="1.1" xmlns="http://www.w3.org/2000/svg" xmlns:xlink="http://www.w3.org/1999/xlink" xml:space="preserve" onload="init(evt)">
<style type="text/css"><![CDATA[
.node, .edge {opacity: 0.7;}
.node.selected, .edge.selected {opacity: 1;}
.edge:hover path { stroke: red; }
.edge:hover polygon { stroke: red; fill: red; }
]]></style>

<defs>
  <circle id="rim" cx="0" cy="0" r="7"/>
  <circle id="rim2" cx="0" cy="0" r="3.5"/>
  <g id="zoomPlus">
    <use xlink:href="#rim" fill="#404040"><set attributeName="fill" to="#808080" begin="zoomplus.mouseover" end="zoomplus.mouseout"/></use>
    <path d="M-4,0h8M0,-4v8" fill="none" stroke="white" stroke-width="1.5" pointer-events="none"/>
  </g>
  <g id="zoomMin">
    <use xlink:href="#rim" fill="#404040"><set attributeName="fill" to="#808080" begin="zoomminus.mouseover" end="zoomminus.mouseout"/></use>
    <path d="M-4,0h8" fill="none" stroke="white" stroke-width="1.5" pointer-events="none"/>
  </g>
  <g id="arrowUp" transform="translate(30 24)">
    <use xlink:href="#rim"/>
    <path pointer-events="none" fill="none" stroke="white" stroke-width="1.5" d="M0,-3.0v7 M-2.5,-0.5L0,-3.0L2.5,-0.5"/>
  </g>
  <g id="arrowRight" transform="rotate(90) translate(36 -43)">
    <use xlink:href="#rim"/>
    <path pointer-events="none" fill="none" stroke="white" stroke-width="1.5" d="M0,-3.0v7 M-2.5,-0.5L0,-3.0L2.5,-0.5"/>
  </g>
  <g id="arrowDown" transform="rotate(180) translate(-30 -48)">
    <use xlink:href="#rim"/>
    <path pointer-events="none" fill="none" stroke="white" stroke-width="1.5" d="M0,-3.0v7 M-2.5,-0.5L0,-3.0L2.5,-0.5"/>
  </g>
  <g id="arrowLeft" transform="rotate(270) translate(-36 17)">
    <use xlink:href="#rim"/>
    <path pointer-events="none" fill="none" stroke="white" stroke-width="1.5" d="M0,-3.0v7 M-2.5,-0.5L0,-3.0L2.5,-0.5"/>
  </g>
  <g id="resetDef">
    <use xlink:href="#rim2" fill="#404040"><set attributeName="fill" to="#808080" begin="reset.mouseover" end="reset.mouseout"/></use>
  </g>
</defs>
<script type="application/ecmascript">
var viewWidth = 582;
var viewHeight = 885;
var sectionId = 'dynsection-1';
</script>
<script type="application/ecmascript" xlink:href="../../svg.min.js"/>
<svg id="graph" class="graph">
<g id="viewport">
<title>System.Collections.Generic.Stack&lt; T &gt;</title>
<!-- Node1 -->
<g id="Node000001" class="node">
<title>Node1</title>
<g id="a_Node000001"><a xlink:title=" ">
<polygon fill="#999999" stroke="transparent" points="466.74,-309 285.74,-309 285.74,0 466.74,0 466.74,-309"/>
<text text-anchor="start" x="307.74" y="-296.5" font-family="Helvetica,sans-Serif" font-size="10.00">System.Collections.Generic.</text>
<text text-anchor="start" x="348.74" y="-285.5" font-family="Helvetica,sans-Serif" font-size="10.00">Stack&lt; T &gt;</text>
<text text-anchor="start" x="290.24" y="-270.5" font-family="Helvetica,sans-Serif" font-size="10.00">+</text>
<text text-anchor="start" x="303.24" y="-270.5" font-family="Helvetica,sans-Serif" font-size="10.00">int Count</text>
<text text-anchor="start" x="290.24" y="-255.5" font-family="Helvetica,sans-Serif" font-size="10.00">+</text>
<text text-anchor="start" x="303.24" y="-255.5" font-family="Helvetica,sans-Serif" font-size="10.00">bool System.Collections.</text>
<text text-anchor="start" x="303.24" y="-244.5" font-family="Helvetica,sans-Serif" font-size="10.00">ICollection. IsSynchronized</text>
<text text-anchor="start" x="290.24" y="-229.5" font-family="Helvetica,sans-Serif" font-size="10.00">+</text>
<text text-anchor="start" x="303.24" y="-229.5" font-family="Helvetica,sans-Serif" font-size="10.00">object System.Collections.</text>
<text text-anchor="start" x="303.24" y="-218.5" font-family="Helvetica,sans-Serif" font-size="10.00">ICollection. SyncRoot</text>
<text text-anchor="start" x="290.24" y="-203.5" font-family="Helvetica,sans-Serif" font-size="10.00">+</text>
<text text-anchor="start" x="303.24" y="-203.5" font-family="Helvetica,sans-Serif" font-size="10.00">Stack()</text>
<text text-anchor="start" x="290.24" y="-188.5" font-family="Helvetica,sans-Serif" font-size="10.00">+</text>
<text text-anchor="start" x="303.24" y="-188.5" font-family="Helvetica,sans-Serif" font-size="10.00">T Peek()</text>
<text text-anchor="start" x="290.24" y="-173.5" font-family="Helvetica,sans-Serif" font-size="10.00">+</text>
<text text-anchor="start" x="303.24" y="-173.5" font-family="Helvetica,sans-Serif" font-size="10.00">T Pop()</text>
<text text-anchor="start" x="290.24" y="-158.5" font-family="Helvetica,sans-Serif" font-size="10.00">+</text>
<text text-anchor="start" x="303.24" y="-158.5" font-family="Helvetica,sans-Serif" font-size="10.00">void Push(T item)</text>
<text text-anchor="start" x="292.74" y="-143.5" font-family="Helvetica,sans-Serif" font-size="10.00">&#45;</text>
<text text-anchor="start" x="303.24" y="-143.5" font-family="Helvetica,sans-Serif" font-size="10.00">void System.Collections.</text>
<text text-anchor="start" x="303.24" y="-132.5" font-family="Helvetica,sans-Serif" font-size="10.00">ICollection. CopyTo(global</text>
<text text-anchor="start" x="303.24" y="-121.5" font-family="Helvetica,sans-Serif" font-size="10.00">::System.Array array, int</text>
<text text-anchor="start" x="303.24" y="-110.5" font-family="Helvetica,sans-Serif" font-size="10.00"> arrayIndex)</text>
<text text-anchor="start" x="292.74" y="-95.5" font-family="Helvetica,sans-Serif" font-size="10.00">&#45;</text>
<text text-anchor="start" x="303.24" y="-95.5" font-family="Helvetica,sans-Serif" font-size="10.00">IEnumerator&lt; T &gt; System.</text>
<text text-anchor="start" x="303.24" y="-84.5" font-family="Helvetica,sans-Serif" font-size="10.00">Collections.Generic.IEnumerable</text>
<text text-anchor="start" x="303.24" y="-73.5" font-family="Helvetica,sans-Serif" font-size="10.00">&lt; T &gt;. GetEnumerator()</text>
<text text-anchor="start" x="292.74" y="-58.5" font-family="Helvetica,sans-Serif" font-size="10.00">&#45;</text>
<text text-anchor="start" x="303.24" y="-58.5" font-family="Helvetica,sans-Serif" font-size="10.00">IEnumerator System.Collections.</text>
<text text-anchor="start" x="303.24" y="-47.5" font-family="Helvetica,sans-Serif" font-size="10.00">IEnumerable. GetEnumerator()</text>
<text text-anchor="start" x="292.74" y="-32.5" font-family="Helvetica,sans-Serif" font-size="10.00">&#45;</text>
<text text-anchor="start" x="303.24" y="-32.5" font-family="Helvetica,sans-Serif" font-size="10.00">void PushWithResize</text>
<text text-anchor="start" x="303.24" y="-21.5" font-family="Helvetica,sans-Serif" font-size="10.00">(T item)</text>
<text text-anchor="start" x="292.74" y="-6.5" font-family="Helvetica,sans-Serif" font-size="10.00">&#45;</text>
<text text-anchor="start" x="303.24" y="-6.5" font-family="Helvetica,sans-Serif" font-size="10.00">void ThrowForEmptyStack()</text>
<polygon fill="#666666" stroke="#666666" points="286.24,-280.5 286.24,-280.5 467.24,-280.5 467.24,-280.5 286.24,-280.5"/>
<polygon fill="#666666" stroke="#666666" points="286.24,-213.5 286.24,-213.5 301.24,-213.5 301.24,-213.5 286.24,-213.5"/>
<polygon fill="#666666" stroke="#666666" points="301.24,-213.5 301.24,-213.5 467.24,-213.5 467.24,-213.5 301.24,-213.5"/>
<polygon fill="none" stroke="#666666" points="285.74,0 285.74,-309 466.74,-309 466.74,0 285.74,0"/>
</a>
</g>
</g>
<!-- Node2 -->
<g id="Node000002" class="node">
<title>Node2</title>
<g id="a_Node000002"><a xlink:href="../../d2/d2c/interfaceSystem_1_1Collections_1_1Generic_1_1IEnumerable.html" target="_top" xlink:title=" ">
<polygon fill="white" stroke="transparent" points="226.74,-684 31.74,-684 31.74,-635 226.74,-635 226.74,-684"/>
<text text-anchor="start" x="84.24" y="-671.5" font-family="Helvetica,sans-Serif" font-size="10.00">IEnumerable&lt; T &gt;</text>
<text text-anchor="start" x="127.74" y="-656.5" font-family="Helvetica,sans-Serif" font-size="10.00"> </text>
<text text-anchor="start" x="36.24" y="-641.5" font-family="Helvetica,sans-Serif" font-size="10.00">+</text>
<text text-anchor="start" x="49.24" y="-641.5" font-family="Helvetica,sans-Serif" font-size="10.00">IEnumerator&lt; T &gt; GetEnumerator()</text>
<polygon fill="#666666" stroke="#666666" points="32.24,-666.5 32.24,-666.5 227.24,-666.5 227.24,-666.5 32.24,-666.5"/>
<polygon fill="#666666" stroke="#666666" points="32.24,-651.5 32.24,-651.5 227.24,-651.5 227.24,-651.5 32.24,-651.5"/>
<polygon fill="none" stroke="#666666" points="31.74,-635 31.74,-684 226.74,-684 226.74,-635 31.74,-635"/>
</a>
</g>
</g>
<!-- Node2&#45;&gt;Node1 -->
<g id="edge1_Node000001_Node000002" class="edge">
<title>Node2&#45;&gt;Node1</title>
<g id="a_edge1_Node000001_Node000002"><a xlink:title=" ">
<path fill="none" stroke="#63b8ff" d="M63.12,-629.44C51.13,-621.07 40.24,-610.68 33.24,-598 4.25,-545.47 8.77,-517.79 33.24,-463 84.51,-348.17 202.21,-258.38 285.39,-206.21"/>
<polygon fill="none" stroke="#63b8ff" points="61.25,-632.4 71.55,-634.91 65.06,-626.53 61.25,-632.4"/>
</a>
</g>
</g>
<!-- Node5 -->
<g id="Node000005" class="node">
<title>Node5</title>
<g id="a_Node000005"><a xlink:href="../../dd/d3b/interfaceSystem_1_1Collections_1_1Generic_1_1ICollection.html" target="_top" xlink:title=" ">
<polygon fill="white" stroke="transparent" points="172.24,-598 42.24,-598 42.24,-463 172.24,-463 172.24,-598"/>
<text text-anchor="start" x="81.24" y="-585.5" font-family="Helvetica,sans-Serif" font-size="10.00">ICollection</text>
<text text-anchor="start" x="46.24" y="-570.5" font-family="Helvetica,sans-Serif" font-size="10.00">+</text>
<text text-anchor="start" x="59.24" y="-570.5" font-family="Helvetica,sans-Serif" font-size="10.00">int Count</text>
<text text-anchor="start" x="46.24" y="-555.5" font-family="Helvetica,sans-Serif" font-size="10.00">+</text>
<text text-anchor="start" x="59.24" y="-555.5" font-family="Helvetica,sans-Serif" font-size="10.00">bool IsReadOnly</text>
<text text-anchor="start" x="46.24" y="-540.5" font-family="Helvetica,sans-Serif" font-size="10.00">+</text>
<text text-anchor="start" x="59.24" y="-540.5" font-family="Helvetica,sans-Serif" font-size="10.00">void Add(T item)</text>
<text text-anchor="start" x="46.24" y="-525.5" font-family="Helvetica,sans-Serif" font-size="10.00">+</text>
<text text-anchor="start" x="59.24" y="-525.5" font-family="Helvetica,sans-Serif" font-size="10.00">void Clear()</text>
<text text-anchor="start" x="46.24" y="-510.5" font-family="Helvetica,sans-Serif" font-size="10.00">+</text>
<text text-anchor="start" x="59.24" y="-510.5" font-family="Helvetica,sans-Serif" font-size="10.00">bool Contains(T item)</text>
<text text-anchor="start" x="46.24" y="-495.5" font-family="Helvetica,sans-Serif" font-size="10.00">+</text>
<text text-anchor="start" x="59.24" y="-495.5" font-family="Helvetica,sans-Serif" font-size="10.00">void CopyTo(T[] array,</text>
<text text-anchor="start" x="59.24" y="-484.5" font-family="Helvetica,sans-Serif" font-size="10.00"> int arrayIndex)</text>
<text text-anchor="start" x="46.24" y="-469.5" font-family="Helvetica,sans-Serif" font-size="10.00">+</text>
<text text-anchor="start" x="59.24" y="-469.5" font-family="Helvetica,sans-Serif" font-size="10.00">bool Remove(T item)</text>
<polygon fill="#666666" stroke="#666666" points="42.24,-580.5 42.24,-580.5 172.24,-580.5 172.24,-580.5 42.24,-580.5"/>
<polygon fill="#666666" stroke="#666666" points="42.24,-550.5 42.24,-550.5 57.24,-550.5 57.24,-550.5 42.24,-550.5"/>
<polygon fill="#666666" stroke="#666666" points="57.24,-550.5 57.24,-550.5 172.24,-550.5 172.24,-550.5 57.24,-550.5"/>
<polygon fill="none" stroke="#666666" points="42.24,-463 42.24,-598 172.24,-598 172.24,-463 42.24,-463"/>
</a>
</g>
</g>
<!-- Node2&#45;&gt;Node5 -->
<g id="edge6_Node000005_Node000002" class="edge">
<title>Node2&#45;&gt;Node5</title>
<g id="a_edge6_Node000005_Node000002"><a xlink:title=" ">
<path fill="none" stroke="#63b8ff" d="M123.42,-624.93C121.98,-616.62 120.39,-607.43 118.78,-598.15"/>
<polygon fill="none" stroke="#63b8ff" points="120,-625.65 125.15,-634.91 126.89,-624.46 120,-625.65"/>
</a>
</g>
</g>
<!-- Node7 -->
<g id="Node000007" class="node">
<title>Node7</title>
<g id="a_Node000007"><a xlink:href="../../d0/d3a/interfaceSystem_1_1Collections_1_1Generic_1_1IReadOnlyCollection.html" target="_top" xlink:title=" ">
<polygon fill="white" stroke="transparent" points="347.74,-560.5 190.74,-560.5 190.74,-500.5 347.74,-500.5 347.74,-560.5"/>
<text text-anchor="start" x="196.24" y="-548.5" font-family="Helvetica,sans-Serif" font-size="10.00">System.Collections.Generic.</text>
<text text-anchor="start" x="196.24" y="-537.5" font-family="Helvetica,sans-Serif" font-size="10.00">IReadOnlyCollection&lt; out T &gt;</text>
<text text-anchor="start" x="217.74" y="-522.5" font-family="Helvetica,sans-Serif" font-size="10.00">+</text>
<text text-anchor="start" x="253.24" y="-522.5" font-family="Helvetica,sans-Serif" font-size="10.00">int Count</text>
<text text-anchor="start" x="267.74" y="-507.5" font-family="Helvetica,sans-Serif" font-size="10.00"> </text>
<polygon fill="#666666" stroke="#666666" points="191.24,-532.5 191.24,-532.5 348.24,-532.5 348.24,-532.5 191.24,-532.5"/>
<polygon fill="#666666" stroke="#666666" points="191.24,-517.5 191.24,-517.5 251.24,-517.5 251.24,-517.5 191.24,-517.5"/>
<polygon fill="#666666" stroke="#666666" points="251.24,-517.5 251.24,-517.5 348.24,-517.5 348.24,-517.5 251.24,-517.5"/>
<polygon fill="none" stroke="#666666" points="190.74,-500.5 190.74,-560.5 347.74,-560.5 347.74,-500.5 190.74,-500.5"/>
</a>
</g>
</g>
<!-- Node2&#45;&gt;Node7 -->
<g id="edge10_Node000007_Node000002" class="edge">
<title>Node2&#45;&gt;Node7</title>
<g id="a_edge10_Node000007_Node000002"><a xlink:title=" ">
<path fill="none" stroke="#63b8ff" d="M162.91,-627.95C185.48,-607.48 215.01,-580.69 237.23,-560.54"/>
<polygon fill="none" stroke="#63b8ff" points="160.3,-625.6 155.24,-634.91 165,-630.78 160.3,-625.6"/>
</a>
</g>
</g>
<!-- Node3 -->
<g id="Node000003" class="node">
<title>Node3</title>
<g id="a_Node000003"><a xlink:href="../../d2/d2c/interfaceSystem_1_1Collections_1_1Generic_1_1IEnumerable.html" target="_top" xlink:title=" ">
<polygon fill="white" stroke="transparent" points="232.74,-791 37.74,-791 37.74,-731 232.74,-731 232.74,-791"/>
<text text-anchor="start" x="66.74" y="-779" font-family="Helvetica,sans-Serif" font-size="10.00">System.Collections.Generic.</text>
<text text-anchor="start" x="81.24" y="-768" font-family="Helvetica,sans-Serif" font-size="10.00">IEnumerable&lt; out T &gt;</text>
<text text-anchor="start" x="133.74" y="-753" font-family="Helvetica,sans-Serif" font-size="10.00"> </text>
<text text-anchor="start" x="42.24" y="-738" font-family="Helvetica,sans-Serif" font-size="10.00">+</text>
<text text-anchor="start" x="55.24" y="-738" font-family="Helvetica,sans-Serif" font-size="10.00">IEnumerator&lt; T &gt; GetEnumerator()</text>
<polygon fill="#666666" stroke="#666666" points="38.24,-763 38.24,-763 233.24,-763 233.24,-763 38.24,-763"/>
<polygon fill="#666666" stroke="#666666" points="38.24,-748 38.24,-748 233.24,-748 233.24,-748 38.24,-748"/>
<polygon fill="none" stroke="#666666" points="37.74,-731 37.74,-791 232.74,-791 232.74,-731 37.74,-731"/>
</a>
</g>
</g>
<!-- Node3&#45;&gt;Node2 -->
<g id="edge2_Node000002_Node000003" class="edge">
<title>Node3&#45;&gt;Node2</title>
<g id="a_edge2_Node000002_Node000003"><a xlink:title=" ">
<path fill="none" stroke="orange" d="M132.87,-720.8C132.12,-708.38 131.32,-695.03 130.66,-684.06"/>
<polygon fill="orange" stroke="orange" points="129.39,-721.18 133.49,-730.95 136.38,-720.76 129.39,-721.18"/>
</a>
</g>
<text text-anchor="middle" x="148.24" y="-705" font-family="Helvetica,sans-Serif" font-size="10.00" fill="grey"> &lt; T &gt;</text>
</g>
<!-- Node4 -->
<g id="Node000004" class="node">
<title>Node4</title>
<g id="a_Node000004"><a xlink:href="../../d4/da3/interfaceSystem_1_1Collections_1_1IEnumerable.html" target="_top" xlink:title=" ">
<polygon fill="white" stroke="transparent" points="321.24,-877 155.24,-877 155.24,-828 321.24,-828 321.24,-877"/>
<text text-anchor="start" x="207.24" y="-864.5" font-family="Helvetica,sans-Serif" font-size="10.00">IEnumerable</text>
<text text-anchor="start" x="236.24" y="-849.5" font-family="Helvetica,sans-Serif" font-size="10.00"> </text>
<text text-anchor="start" x="159.24" y="-834.5" font-family="Helvetica,sans-Serif" font-size="10.00">+</text>
<text text-anchor="start" x="172.24" y="-834.5" font-family="Helvetica,sans-Serif" font-size="10.00">IEnumerator GetEnumerator()</text>
<polygon fill="#666666" stroke="#666666" points="155.24,-859.5 155.24,-859.5 321.24,-859.5 321.24,-859.5 155.24,-859.5"/>
<polygon fill="#666666" stroke="#666666" points="155.24,-844.5 155.24,-844.5 321.24,-844.5 321.24,-844.5 155.24,-844.5"/>
<polygon fill="none" stroke="#666666" points="155.24,-828 155.24,-877 321.24,-877 321.24,-828 155.24,-828"/>
</a>
</g>
</g>
<!-- Node4&#45;&gt;Node1 -->
<g id="edge4_Node000001_Node000004" class="edge">
<title>Node4&#45;&gt;Node1</title>
<g id="a_edge4_Node000001_Node000004"><a xlink:title=" ">
<path fill="none" stroke="#63b8ff" d="M330.4,-823.64C355.66,-810 376.24,-790.23 376.24,-762 376.24,-762 376.24,-762 376.24,-390.5 376.24,-364.18 376.24,-336.21 376.24,-309.09"/>
<polygon fill="none" stroke="#63b8ff" points="328.67,-820.59 321.3,-828.21 331.81,-826.85 328.67,-820.59"/>
</a>
</g>
</g>
<!-- Node4&#45;&gt;Node3 -->
<g id="edge3_Node000003_Node000004" class="edge">
<title>Node4&#45;&gt;Node3</title>
<g id="a_edge3_Node000003_Node000004"><a xlink:title=" ">
<path fill="none" stroke="#63b8ff" d="M203.61,-821.41C192.36,-811.64 179.91,-800.82 168.75,-791.12"/>
<polygon fill="none" stroke="#63b8ff" points="201.33,-824.07 211.18,-827.98 205.92,-818.78 201.33,-824.07"/>
</a>
</g>
</g>
<!-- Node4&#45;&gt;Node5 -->
<g id="edge7_Node000005_Node000004" class="edge">
<title>Node4&#45;&gt;Node5</title>
<g id="a_edge7_Node000005_Node000004"><a xlink:title=" ">
<path fill="none" stroke="#63b8ff" d="M145.05,-835.59C96.21,-825.21 43.42,-810.05 28.24,-791 -15.02,-736.75 -1.15,-700.32 22.24,-635 26.9,-621.97 33.99,-609.41 42.12,-597.8"/>
<polygon fill="none" stroke="#63b8ff" points="144.58,-839.06 155.08,-837.66 146,-832.21 144.58,-839.06"/>
</a>
</g>
</g>
<!-- Node4&#45;&gt;Node7 -->
<g id="edge11_Node000007_Node000004" class="edge">
<title>Node4&#45;&gt;Node7</title>
<g id="a_edge11_Node000007_Node000004"><a xlink:title=" ">
<path fill="none" stroke="#63b8ff" d="M241.51,-817.77C247.62,-754.67 260.68,-619.81 266.43,-560.5"/>
<polygon fill="none" stroke="#63b8ff" points="238,-817.68 240.52,-827.97 244.97,-818.35 238,-817.68"/>
</a>
</g>
</g>
<!-- Node5&#45;&gt;Node1 -->
<g id="edge5_Node000001_Node000005" class="edge">
<title>Node5&#45;&gt;Node1</title>
<g id="a_edge5_Node000001_Node000005"><a xlink:title=" ">
<path fill="none" stroke="#63b8ff" d="M146.43,-453.68C161.82,-425.75 180.33,-394.29 199.24,-367 225.35,-329.32 256.69,-290.24 285.7,-256.07"/>
<polygon fill="none" stroke="#63b8ff" points="143.27,-452.16 141.54,-462.62 149.41,-455.52 143.27,-452.16"/>
</a>
</g>
</g>
<!-- Node6 -->
<g id="Node000006" class="node">
<title>Node6</title>
<g id="a_Node000006"><a xlink:href="../../d0/d3a/interfaceSystem_1_1Collections_1_1Generic_1_1IReadOnlyCollection.html" target="_top" xlink:title=" ">
<polygon fill="white" stroke="transparent" points="346.24,-416 208.24,-416 208.24,-367 346.24,-367 346.24,-416"/>
<text text-anchor="start" x="213.24" y="-403.5" font-family="Helvetica,sans-Serif" font-size="10.00">IReadOnlyCollection&lt; T &gt;</text>
<text text-anchor="start" x="230.24" y="-388.5" font-family="Helvetica,sans-Serif" font-size="10.00">+</text>
<text text-anchor="start" x="261.24" y="-388.5" font-family="Helvetica,sans-Serif" font-size="10.00">int Count</text>
<text text-anchor="start" x="275.24" y="-373.5" font-family="Helvetica,sans-Serif" font-size="10.00"> </text>
<polygon fill="#666666" stroke="#666666" points="208.24,-398.5 208.24,-398.5 346.24,-398.5 346.24,-398.5 208.24,-398.5"/>
<polygon fill="#666666" stroke="#666666" points="208.24,-383.5 208.24,-383.5 259.24,-383.5 259.24,-383.5 208.24,-383.5"/>
<polygon fill="#666666" stroke="#666666" points="259.24,-383.5 259.24,-383.5 346.24,-383.5 346.24,-383.5 259.24,-383.5"/>
<polygon fill="none" stroke="#666666" points="208.24,-367 208.24,-416 346.24,-416 346.24,-367 208.24,-367"/>
</a>
</g>
</g>
<!-- Node6&#45;&gt;Node1 -->
<g id="edge8_Node000001_Node000006" class="edge">
<title>Node6&#45;&gt;Node1</title>
<g id="a_edge8_Node000001_Node000006"><a xlink:title=" ">
<path fill="none" stroke="#63b8ff" d="M291.19,-357.37C296.92,-343.79 303.98,-327.02 311.57,-309"/>
<polygon fill="none" stroke="#63b8ff" points="287.93,-356.1 287.28,-366.67 294.38,-358.82 287.93,-356.1"/>
</a>
</g>
</g>
<!-- Node7&#45;&gt;Node6 -->
<g id="edge9_Node000006_Node000007" class="edge">
<title>Node7&#45;&gt;Node6</title>
<g id="a_edge9_Node000006_Node000007"><a xlink:title=" ">
<path fill="none" stroke="orange" d="M271.53,-490.24C272.93,-466.27 274.67,-436.42 275.86,-416.05"/>
<polygon fill="orange" stroke="orange" points="268.02,-490.26 270.93,-500.45 275.01,-490.67 268.02,-490.26"/>
</a>
</g>
<text text-anchor="middle" x="291.24" y="-437" font-family="Helvetica,sans-Serif" font-size="10.00" fill="grey"> &lt; T &gt;</text>
</g>
<!-- Node8 -->
<g id="Node000008" class="node">
<title>Node8</title>
<g id="a_Node000008"><a xlink:title=" ">
<polygon fill="white" stroke="transparent" points="421.74,-416 404.74,-416 404.74,-367 421.74,-367 421.74,-416"/>
<text text-anchor="start" x="410.24" y="-403.5" font-family="Helvetica,sans-Serif" font-size="10.00">T</text>
<text text-anchor="start" x="411.74" y="-388.5" font-family="Helvetica,sans-Serif" font-size="10.00"> </text>
<text text-anchor="start" x="411.74" y="-373.5" font-family="Helvetica,sans-Serif" font-size="10.00"> </text>
<polygon fill="#666666" stroke="#666666" points="405.24,-398.5 405.24,-398.5 422.24,-398.5 422.24,-398.5 405.24,-398.5"/>
<polygon fill="#666666" stroke="#666666" points="405.24,-383.5 405.24,-383.5 422.24,-383.5 422.24,-383.5 405.24,-383.5"/>
<polygon fill="none" stroke="#666666" points="404.74,-367 404.74,-416 421.74,-416 421.74,-367 404.74,-367"/>
</a>
</g>
</g>
<!-- Node8&#45;&gt;Node1 -->
<g id="edge12_Node000001_Node000008" class="edge">
<title>Node8&#45;&gt;Node1</title>
<g id="a_edge12_Node000001_Node000008"><a xlink:title=" ">
<path fill="none" stroke="#63b8ff" d="M409.49,-366.67C407.57,-354.52 405.06,-338.56 402.27,-320.86"/>
<polygon fill="none" stroke="#63b8ff" points="402.27,-320.86 397.39,-315.55 400.41,-309 405.29,-314.31 402.27,-320.86"/>
</a>
</g>
<text text-anchor="middle" x="424.24" y="-335.5" font-family="Helvetica,sans-Serif" font-size="10.00" fill="grey"> &#45;_array</text>
</g>
<!-- Node9 -->
<g id="Node000009" class="node">
<title>Node9</title>
<g id="a_Node000009"><a xlink:title=" ">
<polygon fill="white" stroke="transparent" points="481.74,-416 458.74,-416 458.74,-367 481.74,-367 481.74,-416"/>
<text text-anchor="start" x="464.24" y="-403.5" font-family="Helvetica,sans-Serif" font-size="10.00">int</text>
<text text-anchor="start" x="468.74" y="-388.5" font-family="Helvetica,sans-Serif" font-size="10.00"> </text>
<text text-anchor="start" x="468.74" y="-373.5" font-family="Helvetica,sans-Serif" font-size="10.00"> </text>
<polygon fill="#666666" stroke="#666666" points="459.24,-398.5 459.24,-398.5 482.24,-398.5 482.24,-398.5 459.24,-398.5"/>
<polygon fill="#666666" stroke="#666666" points="459.24,-383.5 459.24,-383.5 482.24,-383.5 482.24,-383.5 459.24,-383.5"/>
<polygon fill="none" stroke="#666666" points="458.74,-367 458.74,-416 481.74,-416 481.74,-367 458.74,-367"/>
</a>
</g>
</g>
<!-- Node9&#45;&gt;Node1 -->
<g id="edge13_Node000001_Node000009" class="edge">
<title>Node9&#45;&gt;Node1</title>
<g id="a_edge13_Node000001_Node000009"><a xlink:title=" ">
<path fill="none" stroke="#63b8ff" d="M461.97,-366.88C457.7,-354.89 452.33,-340.12 447.24,-327 446.39,-324.8 445.52,-322.59 444.65,-320.37"/>
<polygon fill="none" stroke="#63b8ff" points="444.64,-320.33 438.72,-316.21 440.25,-309.17 446.17,-313.28 444.64,-320.33"/>
</a>
</g>
<text text-anchor="middle" x="477.24" y="-341" font-family="Helvetica,sans-Serif" font-size="10.00" fill="grey"> &#45;_size</text>
<text text-anchor="middle" x="477.24" y="-330" font-family="Helvetica,sans-Serif" font-size="10.00" fill="grey">&#45;_version</text>
</g>
<!-- Node10 -->
<g id="Node000010" class="node">
<title>Node10</title>
<g id="a_Node000010"><a xlink:title=" ">
<polygon fill="white" stroke="transparent" points="559.74,-416 518.74,-416 518.74,-367 559.74,-367 559.74,-416"/>
<text text-anchor="start" x="524.24" y="-403.5" font-family="Helvetica,sans-Serif" font-size="10.00">object</text>
<text text-anchor="start" x="537.74" y="-388.5" font-family="Helvetica,sans-Serif" font-size="10.00"> </text>
<text text-anchor="start" x="537.74" y="-373.5" font-family="Helvetica,sans-Serif" font-size="10.00"> </text>
<polygon fill="#666666" stroke="#666666" points="519.24,-398.5 519.24,-398.5 560.24,-398.5 560.24,-398.5 519.24,-398.5"/>
<polygon fill="#666666" stroke="#666666" points="519.24,-383.5 519.24,-383.5 560.24,-383.5 560.24,-383.5 519.24,-383.5"/>
<polygon fill="none" stroke="#666666" points="518.74,-367 518.74,-416 559.74,-416 559.74,-367 518.74,-367"/>
</a>
</g>
</g>
<!-- Node10&#45;&gt;Node1 -->
<g id="edge14_Node000001_Node000010" class="edge">
<title>Node10&#45;&gt;Node1</title>
<g id="a_edge14_Node000001_Node000010"><a xlink:title=" ">
<path fill="none" stroke="#63b8ff" d="M527.19,-366.83C520.76,-354.69 512.49,-339.8 504.24,-327 494.84,-312.41 484.6,-297.43 474.15,-282.7"/>
<polygon fill="none" stroke="#63b8ff" points="473.87,-282.3 467.13,-279.75 466.89,-272.54 473.64,-275.1 473.87,-282.3"/>
</a>
</g>
<text text-anchor="middle" x="545.24" y="-335.5" font-family="Helvetica,sans-Serif" font-size="10.00" fill="grey"> &#45;_syncRoot</text>
</g>
</g>
</svg>

<g id="navigator" transform="translate(0 0)" fill="#404254">
  <rect fill="#f2f5e9" fill-opacity="0.5" stroke="#606060" stroke-width=".5" x="0" y="0" width="60" height="60"/>
  <use id="zoomplus" xlink:href="#zoomPlus" x="17" y="9" onmousedown="handleZoom(evt,'in')"/>
  <use id="zoomminus" xlink:href="#zoomMin" x="42" y="9" onmousedown="handleZoom(evt,'out')"/>
  <use id="reset" xlink:href="#resetDef" x="30" y="36" onmousedown="handleReset()"/>
   <use id="arrowup" xlink:href="#arrowUp" x="0" y="0" onmousedown="handlePan(0,-1)"/>
  <use id="arrowright" xlink:href="#arrowRight" x="0" y="0" onmousedown="handlePan(1,0)"/>
  <use id="arrowdown" xlink:href="#arrowDown" x="0" y="0" onmousedown="handlePan(0,1)"/>
  <use id="arrowleft" xlink:href="#arrowLeft" x="0" y="0" onmousedown="handlePan(-1,0)"/>
</g>
<svg viewBox="0 0 15 15" width="100%" height="30px" preserveAspectRatio="xMaxYMin meet">
 <g id="arrow_out" transform="scale(0.3 0.3)">
  <a xlink:href="classSystem_1_1Collections_1_1Generic_1_1Stack__coll__graph_org.svg" target="_base">
   <rect id="button" ry="5" rx="5" y="6" x="6" height="38" width="38"
        fill="#f2f5e9" fill-opacity="0.5" stroke="#606060" stroke-width="1.0"/>
   <path id="arrow"
     d="M 11.500037,31.436501 C 11.940474,20.09759 22.043105,11.32322 32.158766,21.979434 L 37.068811,17.246167 C 37.068811,17.246167 37.088388,32 37.088388,32 L 22.160133,31.978069 C 22.160133,31.978069 26.997745,27.140456 26.997745,27.140456 C 18.528582,18.264221 13.291696,25.230495 11.500037,31.436501 z"
     style="fill:#404040;"/>
  </a>
 </g>
</svg>

<style type='text/css'>
<![CDATA[
[data-mouse-over-selected='false'] { opacity: 0.7; }
[data-mouse-over-selected='true']  { opacity: 1.0; }
]]>
</style>
<script type="application/ecmascript"><![CDATA[
document.addEventListener('DOMContentLoaded', (event) => {
  highlightEdges();
  highlightAdjacentNodes();
});
]]></script>
</svg>
