<?xml version="1.0" encoding="UTF-8" standalone="no"?>
<!DOCTYPE svg PUBLIC "-//W3C//DTD SVG 1.1//EN"
 "http://www.w3.org/Graphics/SVG/1.1/DTD/svg11.dtd">
<!-- Generated by graphviz version 2.43.0 (0)
 -->
<!-- Title: GUIControllerPulldownEntry Pages: 1 -->
<svg width="192pt" height="565pt"
 viewBox="0.00 0.00 192.00 565.00" xmlns="http://www.w3.org/2000/svg" xmlns:xlink="http://www.w3.org/1999/xlink">
<g id="graph0" class="graph" transform="scale(1 1) rotate(0) translate(4 561)">
<title>GUIControllerPulldownEntry</title>
<!-- Node1 -->
<g id="Node000001" class="node">
<title>Node1</title>
<g id="a_Node000001"><a xlink:title=" ">
<polygon fill="#999999" stroke="transparent" points="181.5,-242 2.5,-242 2.5,0 181.5,0 181.5,-242"/>
<text text-anchor="start" x="24.5" y="-230" font-family="Helvetica,sans-Serif" font-size="10.00">GUIControllerPulldownEntry</text>
<text text-anchor="start" x="9.5" y="-215" font-family="Helvetica,sans-Serif" font-size="10.00">&#45;</text>
<text text-anchor="start" x="20" y="-215" font-family="Helvetica,sans-Serif" font-size="10.00">GUIPulldownSetting</text>
<text text-anchor="start" x="20" y="-204" font-family="Helvetica,sans-Serif" font-size="10.00"> Worker</text>
<text text-anchor="start" x="7" y="-189" font-family="Helvetica,sans-Serif" font-size="10.00">+</text>
<text text-anchor="start" x="20" y="-189" font-family="Helvetica,sans-Serif" font-size="10.00">GUIControllerPulldownEntry</text>
<text text-anchor="start" x="20" y="-178" font-family="Helvetica,sans-Serif" font-size="10.00">(GUISettingID id)</text>
<text text-anchor="start" x="7" y="-163" font-family="Helvetica,sans-Serif" font-size="10.00">+</text>
<text text-anchor="start" x="20" y="-163" font-family="Helvetica,sans-Serif" font-size="10.00">override void Draw()</text>
<text text-anchor="start" x="7" y="-148" font-family="Helvetica,sans-Serif" font-size="10.00">+</text>
<text text-anchor="start" x="20" y="-148" font-family="Helvetica,sans-Serif" font-size="10.00">override float GetElement</text>
<text text-anchor="start" x="20" y="-137" font-family="Helvetica,sans-Serif" font-size="10.00">Height()</text>
<text text-anchor="start" x="7" y="-122" font-family="Helvetica,sans-Serif" font-size="10.00">+</text>
<text text-anchor="start" x="20" y="-122" font-family="Helvetica,sans-Serif" font-size="10.00">override void DrawOverlay()</text>
<text text-anchor="start" x="7" y="-107" font-family="Helvetica,sans-Serif" font-size="10.00">+</text>
<text text-anchor="start" x="20" y="-107" font-family="Helvetica,sans-Serif" font-size="10.00">int GetNumberOfOptions()</text>
<text text-anchor="start" x="9.5" y="-92" font-family="Helvetica,sans-Serif" font-size="10.00">&#45;</text>
<text text-anchor="start" x="20" y="-92" font-family="Helvetica,sans-Serif" font-size="10.00">void ActivateOverlay</text>
<text text-anchor="start" x="20" y="-81" font-family="Helvetica,sans-Serif" font-size="10.00">(GUIPulldownSetting overlay</text>
<text text-anchor="start" x="20" y="-70" font-family="Helvetica,sans-Serif" font-size="10.00">Entry, Rectangle overlayRegion,</text>
<text text-anchor="start" x="20" y="-59" font-family="Helvetica,sans-Serif" font-size="10.00"> int selectedOption, float offset)</text>
<text text-anchor="start" x="9.5" y="-44" font-family="Helvetica,sans-Serif" font-size="10.00">&#45;</text>
<text text-anchor="start" x="20" y="-44" font-family="Helvetica,sans-Serif" font-size="10.00">void DeactivateOverlay()</text>
<text text-anchor="start" x="9.5" y="-29" font-family="Helvetica,sans-Serif" font-size="10.00">&#45;</text>
<text text-anchor="start" x="20" y="-29" font-family="Helvetica,sans-Serif" font-size="10.00">void RegisterOverlay</text>
<text text-anchor="start" x="20" y="-18" font-family="Helvetica,sans-Serif" font-size="10.00">(GUIPulldownSetting overlay</text>
<text text-anchor="start" x="20" y="-7" font-family="Helvetica,sans-Serif" font-size="10.00">Entry, Rectangle overlayRegion)</text>
<polygon fill="#666666" stroke="#666666" points="3,-225 3,-225 182,-225 182,-225 3,-225"/>
<polygon fill="#666666" stroke="#666666" points="3,-199 3,-199 18,-199 18,-199 3,-199"/>
<polygon fill="#666666" stroke="#666666" points="18,-199 18,-199 182,-199 182,-199 18,-199"/>
<polygon fill="none" stroke="#666666" points="2.5,0 2.5,-242 181.5,-242 181.5,0 2.5,0"/>
</a>
</g>
</g>
<!-- Node2 -->
<g id="Node000002" class="node">
<title>Node2</title>
<g id="a_Node000002"><a xlink:href="../../d6/d48/classGUIControllerMappingEntryBase.html" target="_top" xlink:title=" ">
<polygon fill="white" stroke="transparent" points="176.5,-364 7.5,-364 7.5,-278 176.5,-278 176.5,-364"/>
<text text-anchor="start" x="13.5" y="-352" font-family="Helvetica,sans-Serif" font-size="10.00">GUIControllerMappingEntryBase</text>
<text text-anchor="start" x="12" y="-337" font-family="Helvetica,sans-Serif" font-size="10.00">+</text>
<text text-anchor="start" x="25" y="-337" font-family="Helvetica,sans-Serif" font-size="10.00">ControllerMappingsCategories</text>
<text text-anchor="start" x="25" y="-326" font-family="Helvetica,sans-Serif" font-size="10.00">_Layout.Category Category</text>
<text text-anchor="start" x="12" y="-311" font-family="Helvetica,sans-Serif" font-size="10.00">+</text>
<text text-anchor="start" x="25" y="-311" font-family="Helvetica,sans-Serif" font-size="10.00">int SortOrder</text>
<text text-anchor="start" x="12" y="-296" font-family="Helvetica,sans-Serif" font-size="10.00">+</text>
<text text-anchor="start" x="25" y="-296" font-family="Helvetica,sans-Serif" font-size="10.00">GUIControllerMappingEntry</text>
<text text-anchor="start" x="25" y="-285" font-family="Helvetica,sans-Serif" font-size="10.00">Base(GUISettingID id)</text>
<polygon fill="#666666" stroke="#666666" points="8,-347 8,-347 177,-347 177,-347 8,-347"/>
<polygon fill="#666666" stroke="#666666" points="8,-306 8,-306 23,-306 23,-306 8,-306"/>
<polygon fill="#666666" stroke="#666666" points="23,-306 23,-306 177,-306 177,-306 23,-306"/>
<polygon fill="none" stroke="#666666" points="7.5,-278 7.5,-364 176.5,-364 176.5,-278 7.5,-278"/>
</a>
</g>
</g>
<!-- Node2&#45;&gt;Node1 -->
<g id="edge1_Node000001_Node000002" class="edge">
<title>Node2&#45;&gt;Node1</title>
<g id="a_edge1_Node000001_Node000002"><a xlink:title=" ">
<path fill="none" stroke="#63b8ff" d="M92,-267.42C92,-259.49 92,-251.04 92,-242.36"/>
<polygon fill="none" stroke="#63b8ff" points="88.5,-267.52 92,-277.52 95.5,-267.52 88.5,-267.52"/>
</a>
</g>
</g>
<!-- Node3 -->
<g id="Node000003" class="node">
<title>Node3</title>
<g id="a_Node000003"><a xlink:href="../../d9/dcf/classGUISettingEntry.html" target="_top" xlink:title=" ">
<polygon fill="white" stroke="transparent" points="184,-557 0,-557 0,-400 184,-400 184,-557"/>
<text text-anchor="start" x="52.5" y="-544.5" font-family="Helvetica,sans-Serif" font-size="10.00">GUISettingEntry</text>
<text text-anchor="start" x="4" y="-529.5" font-family="Helvetica,sans-Serif" font-size="10.00">+</text>
<text text-anchor="start" x="17" y="-529.5" font-family="Helvetica,sans-Serif" font-size="10.00">GUISettingID _id</text>
<text text-anchor="start" x="4" y="-514.5" font-family="Helvetica,sans-Serif" font-size="10.00">+</text>
<text text-anchor="start" x="17" y="-514.5" font-family="Helvetica,sans-Serif" font-size="10.00">int _sortId</text>
<text text-anchor="start" x="4" y="-499.5" font-family="Helvetica,sans-Serif" font-size="10.00">+</text>
<text text-anchor="start" x="17" y="-499.5" font-family="Helvetica,sans-Serif" font-size="10.00">SettingsOverlayOptionCategories</text>
<text text-anchor="start" x="17" y="-488.5" font-family="Helvetica,sans-Serif" font-size="10.00">_Layout.Category _category</text>
<text text-anchor="start" x="4" y="-473.5" font-family="Helvetica,sans-Serif" font-size="10.00">+</text>
<text text-anchor="start" x="17" y="-473.5" font-family="Helvetica,sans-Serif" font-size="10.00">GUISettingEntry(GUISetting</text>
<text text-anchor="start" x="17" y="-462.5" font-family="Helvetica,sans-Serif" font-size="10.00">ID id)</text>
<text text-anchor="start" x="4" y="-447.5" font-family="Helvetica,sans-Serif" font-size="10.00">+</text>
<text text-anchor="start" x="17" y="-447.5" font-family="Helvetica,sans-Serif" font-size="10.00">virtual void Draw()</text>
<text text-anchor="start" x="4" y="-432.5" font-family="Helvetica,sans-Serif" font-size="10.00">+</text>
<text text-anchor="start" x="17" y="-432.5" font-family="Helvetica,sans-Serif" font-size="10.00">virtual float GetElement</text>
<text text-anchor="start" x="17" y="-421.5" font-family="Helvetica,sans-Serif" font-size="10.00">Height()</text>
<text text-anchor="start" x="4" y="-406.5" font-family="Helvetica,sans-Serif" font-size="10.00">+</text>
<text text-anchor="start" x="17" y="-406.5" font-family="Helvetica,sans-Serif" font-size="10.00">virtual void DrawOverlay()</text>
<polygon fill="#666666" stroke="#666666" points="0,-539.5 0,-539.5 184,-539.5 184,-539.5 0,-539.5"/>
<polygon fill="#666666" stroke="#666666" points="0,-483.5 0,-483.5 15,-483.5 15,-483.5 0,-483.5"/>
<polygon fill="#666666" stroke="#666666" points="15,-483.5 15,-483.5 184,-483.5 184,-483.5 15,-483.5"/>
<polygon fill="none" stroke="#666666" points="0,-400 0,-557 184,-557 184,-400 0,-400"/>
</a>
</g>
</g>
<!-- Node3&#45;&gt;Node2 -->
<g id="edge2_Node000002_Node000003" class="edge">
<title>Node3&#45;&gt;Node2</title>
<g id="a_edge2_Node000002_Node000003"><a xlink:title=" ">
<path fill="none" stroke="#63b8ff" d="M92,-389.69C92,-380.82 92,-372.12 92,-364.08"/>
<polygon fill="none" stroke="#63b8ff" points="88.5,-389.75 92,-399.75 95.5,-389.75 88.5,-389.75"/>
</a>
</g>
</g>
</g>
</svg>
