<?xml version="1.0" encoding="UTF-8" standalone="no"?>
<!DOCTYPE svg PUBLIC "-//W3C//DTD SVG 1.1//EN"
 "http://www.w3.org/Graphics/SVG/1.1/DTD/svg11.dtd">
<!-- Generated by graphviz version 2.43.0 (0)
 -->
<!-- Title: UnityEngine.AudioClip Pages: 1 -->
<!--zoomable 2292 -->

<svg id="main" version="1.1" xmlns="http://www.w3.org/2000/svg" xmlns:xlink="http://www.w3.org/1999/xlink" xml:space="preserve" onload="init(evt)">
<style type="text/css"><![CDATA[
.node, .edge {opacity: 0.7;}
.node.selected, .edge.selected {opacity: 1;}
.edge:hover path { stroke: red; }
.edge:hover polygon { stroke: red; fill: red; }
]]></style>

<defs>
  <circle id="rim" cx="0" cy="0" r="7"/>
  <circle id="rim2" cx="0" cy="0" r="3.5"/>
  <g id="zoomPlus">
    <use xlink:href="#rim" fill="#404040"><set attributeName="fill" to="#808080" begin="zoomplus.mouseover" end="zoomplus.mouseout"/></use>
    <path d="M-4,0h8M0,-4v8" fill="none" stroke="white" stroke-width="1.5" pointer-events="none"/>
  </g>
  <g id="zoomMin">
    <use xlink:href="#rim" fill="#404040"><set attributeName="fill" to="#808080" begin="zoomminus.mouseover" end="zoomminus.mouseout"/></use>
    <path d="M-4,0h8" fill="none" stroke="white" stroke-width="1.5" pointer-events="none"/>
  </g>
  <g id="arrowUp" transform="translate(30 24)">
    <use xlink:href="#rim"/>
    <path pointer-events="none" fill="none" stroke="white" stroke-width="1.5" d="M0,-3.0v7 M-2.5,-0.5L0,-3.0L2.5,-0.5"/>
  </g>
  <g id="arrowRight" transform="rotate(90) translate(36 -43)">
    <use xlink:href="#rim"/>
    <path pointer-events="none" fill="none" stroke="white" stroke-width="1.5" d="M0,-3.0v7 M-2.5,-0.5L0,-3.0L2.5,-0.5"/>
  </g>
  <g id="arrowDown" transform="rotate(180) translate(-30 -48)">
    <use xlink:href="#rim"/>
    <path pointer-events="none" fill="none" stroke="white" stroke-width="1.5" d="M0,-3.0v7 M-2.5,-0.5L0,-3.0L2.5,-0.5"/>
  </g>
  <g id="arrowLeft" transform="rotate(270) translate(-36 17)">
    <use xlink:href="#rim"/>
    <path pointer-events="none" fill="none" stroke="white" stroke-width="1.5" d="M0,-3.0v7 M-2.5,-0.5L0,-3.0L2.5,-0.5"/>
  </g>
  <g id="resetDef">
    <use xlink:href="#rim2" fill="#404040"><set attributeName="fill" to="#808080" begin="reset.mouseover" end="reset.mouseout"/></use>
  </g>
</defs>
<script type="application/ecmascript">
var viewWidth = 805;
var viewHeight = 2292;
var sectionId = 'dynsection-1';
</script>
<script type="application/ecmascript" xlink:href="../../svg.min.js"/>
<svg id="graph" class="graph">
<g id="viewport">
<title>UnityEngine.AudioClip</title>
<!-- Node1 -->
<g id="Node000001" class="node">
<title>Node1</title>
<g id="a_Node000001"><a xlink:title=" ">
<polygon fill="#999999" stroke="transparent" points="533.5,-138 343.5,-138 343.5,0 533.5,0 533.5,-138"/>
<text text-anchor="start" x="384" y="-126" font-family="Helvetica,sans-Serif" font-size="10.00">UnityEngine.AudioClip</text>
<text text-anchor="start" x="347.5" y="-111" font-family="Helvetica,sans-Serif" font-size="10.00">+</text>
<text text-anchor="start" x="360.5" y="-111" font-family="Helvetica,sans-Serif" font-size="10.00">float length</text>
<text text-anchor="start" x="347.5" y="-96" font-family="Helvetica,sans-Serif" font-size="10.00">+</text>
<text text-anchor="start" x="360.5" y="-96" font-family="Helvetica,sans-Serif" font-size="10.00">delegate void PCMReaderCallback</text>
<text text-anchor="start" x="360.5" y="-85" font-family="Helvetica,sans-Serif" font-size="10.00">(float[] data)</text>
<text text-anchor="start" x="347.5" y="-70" font-family="Helvetica,sans-Serif" font-size="10.00">+</text>
<text text-anchor="start" x="360.5" y="-70" font-family="Helvetica,sans-Serif" font-size="10.00">delegate void PCMSetPosition</text>
<text text-anchor="start" x="360.5" y="-59" font-family="Helvetica,sans-Serif" font-size="10.00">Callback(int position)</text>
<text text-anchor="start" x="350" y="-44" font-family="Helvetica,sans-Serif" font-size="10.00">&#45;</text>
<text text-anchor="start" x="360.5" y="-44" font-family="Helvetica,sans-Serif" font-size="10.00">void InvokePCMReaderCallback</text>
<text text-anchor="start" x="360.5" y="-33" font-family="Helvetica,sans-Serif" font-size="10.00">_Internal(float[] data)</text>
<text text-anchor="start" x="350" y="-18" font-family="Helvetica,sans-Serif" font-size="10.00">&#45;</text>
<text text-anchor="start" x="360.5" y="-18" font-family="Helvetica,sans-Serif" font-size="10.00">void InvokePCMSetPosition</text>
<text text-anchor="start" x="360.5" y="-7" font-family="Helvetica,sans-Serif" font-size="10.00">Callback_Internal(int position)</text>
<polygon fill="#666666" stroke="#666666" points="343.5,-121 343.5,-121 533.5,-121 533.5,-121 343.5,-121"/>
<polygon fill="#666666" stroke="#666666" points="343.5,-106 343.5,-106 358.5,-106 358.5,-106 343.5,-106"/>
<polygon fill="#666666" stroke="#666666" points="358.5,-106 358.5,-106 533.5,-106 533.5,-106 358.5,-106"/>
<polygon fill="none" stroke="#666666" points="343.5,0 343.5,-138 533.5,-138 533.5,0 343.5,0"/>
</a>
</g>
</g>
<!-- Node2 -->
<g id="Node000002" class="node">
<title>Node2</title>
<g id="a_Node000002"><a xlink:href="../../d6/d8b/classUnityEngine_1_1Object.html" target="_top" xlink:title=" ">
<polygon fill="white" stroke="transparent" points="541.5,-1329 327.5,-1329 327.5,-371 541.5,-371 541.5,-1329"/>
<text text-anchor="start" x="418.5" y="-1317" font-family="Helvetica,sans-Serif" font-size="10.00">Object</text>
<text text-anchor="start" x="331.5" y="-1302" font-family="Helvetica,sans-Serif" font-size="10.00">+</text>
<text text-anchor="start" x="344.5" y="-1302" font-family="Helvetica,sans-Serif" font-size="10.00">string name</text>
<text text-anchor="start" x="331.5" y="-1287" font-family="Helvetica,sans-Serif" font-size="10.00">+</text>
<text text-anchor="start" x="344.5" y="-1287" font-family="Helvetica,sans-Serif" font-size="10.00">HideFlags hideFlags</text>
<text text-anchor="start" x="331.5" y="-1272" font-family="Helvetica,sans-Serif" font-size="10.00">+</text>
<text text-anchor="start" x="344.5" y="-1272" font-family="Helvetica,sans-Serif" font-size="10.00">unsafe int GetInstanceID()</text>
<text text-anchor="start" x="331.5" y="-1257" font-family="Helvetica,sans-Serif" font-size="10.00">+</text>
<text text-anchor="start" x="344.5" y="-1257" font-family="Helvetica,sans-Serif" font-size="10.00">override int GetHashCode()</text>
<text text-anchor="start" x="331.5" y="-1242" font-family="Helvetica,sans-Serif" font-size="10.00">+</text>
<text text-anchor="start" x="344.5" y="-1242" font-family="Helvetica,sans-Serif" font-size="10.00">override bool Equals</text>
<text text-anchor="start" x="344.5" y="-1231" font-family="Helvetica,sans-Serif" font-size="10.00">(object other)</text>
<text text-anchor="start" x="331.5" y="-1216" font-family="Helvetica,sans-Serif" font-size="10.00">+</text>
<text text-anchor="start" x="344.5" y="-1216" font-family="Helvetica,sans-Serif" font-size="10.00">static void Destroy</text>
<text text-anchor="start" x="344.5" y="-1205" font-family="Helvetica,sans-Serif" font-size="10.00">(Object obj, [DefaultValue</text>
<text text-anchor="start" x="344.5" y="-1194" font-family="Helvetica,sans-Serif" font-size="10.00">(&quot;0.0F&quot;)] float t)</text>
<text text-anchor="start" x="331.5" y="-1179" font-family="Helvetica,sans-Serif" font-size="10.00">+</text>
<text text-anchor="start" x="344.5" y="-1179" font-family="Helvetica,sans-Serif" font-size="10.00">static void DestroyImmediate</text>
<text text-anchor="start" x="344.5" y="-1168" font-family="Helvetica,sans-Serif" font-size="10.00">(Object obj, [DefaultValue</text>
<text text-anchor="start" x="344.5" y="-1157" font-family="Helvetica,sans-Serif" font-size="10.00">(&quot;false&quot;)] bool allowDestroyingAssets)</text>
<text text-anchor="start" x="331.5" y="-1142" font-family="Helvetica,sans-Serif" font-size="10.00">+</text>
<text text-anchor="start" x="344.5" y="-1142" font-family="Helvetica,sans-Serif" font-size="10.00">static Object[] FindObjects</text>
<text text-anchor="start" x="344.5" y="-1131" font-family="Helvetica,sans-Serif" font-size="10.00">OfType(Type type, bool includeInactive)</text>
<text text-anchor="start" x="331.5" y="-1116" font-family="Helvetica,sans-Serif" font-size="10.00">+</text>
<text text-anchor="start" x="344.5" y="-1116" font-family="Helvetica,sans-Serif" font-size="10.00">static void DontDestroyOn</text>
<text text-anchor="start" x="344.5" y="-1105" font-family="Helvetica,sans-Serif" font-size="10.00">Load([NotNull(&quot;NullExceptionObject&quot;)</text>
<text text-anchor="start" x="344.5" y="-1094" font-family="Helvetica,sans-Serif" font-size="10.00">] Object target)</text>
<text text-anchor="start" x="331.5" y="-1079" font-family="Helvetica,sans-Serif" font-size="10.00">+</text>
<text text-anchor="start" x="344.5" y="-1079" font-family="Helvetica,sans-Serif" font-size="10.00">override string ToString()</text>
<text text-anchor="start" x="331.5" y="-1064" font-family="Helvetica,sans-Serif" font-size="10.00">+</text>
<text text-anchor="start" x="344.5" y="-1064" font-family="Helvetica,sans-Serif" font-size="10.00">Object()</text>
<text text-anchor="start" x="331.5" y="-1049" font-family="Helvetica,sans-Serif" font-size="10.00">+</text>
<text text-anchor="start" x="344.5" y="-1049" font-family="Helvetica,sans-Serif" font-size="10.00">static implicit operator</text>
<text text-anchor="start" x="344.5" y="-1038" font-family="Helvetica,sans-Serif" font-size="10.00"> bool(Object exists)</text>
<text text-anchor="start" x="331.5" y="-1023" font-family="Helvetica,sans-Serif" font-size="10.00">+</text>
<text text-anchor="start" x="344.5" y="-1023" font-family="Helvetica,sans-Serif" font-size="10.00">static Object Instantiate</text>
<text text-anchor="start" x="344.5" y="-1012" font-family="Helvetica,sans-Serif" font-size="10.00">(Object original, Vector3</text>
<text text-anchor="start" x="344.5" y="-1001" font-family="Helvetica,sans-Serif" font-size="10.00"> position, Quaternion rotation)</text>
<text text-anchor="start" x="331.5" y="-986" font-family="Helvetica,sans-Serif" font-size="10.00">+</text>
<text text-anchor="start" x="344.5" y="-986" font-family="Helvetica,sans-Serif" font-size="10.00">static Object Instantiate</text>
<text text-anchor="start" x="344.5" y="-975" font-family="Helvetica,sans-Serif" font-size="10.00">(Object original)</text>
<text text-anchor="start" x="331.5" y="-960" font-family="Helvetica,sans-Serif" font-size="10.00">+</text>
<text text-anchor="start" x="344.5" y="-960" font-family="Helvetica,sans-Serif" font-size="10.00">static T Instantiate</text>
<text text-anchor="start" x="344.5" y="-949" font-family="Helvetica,sans-Serif" font-size="10.00">&lt; T &gt;(T original)</text>
<text text-anchor="start" x="331.5" y="-934" font-family="Helvetica,sans-Serif" font-size="10.00">+</text>
<text text-anchor="start" x="344.5" y="-934" font-family="Helvetica,sans-Serif" font-size="10.00">static T Instantiate</text>
<text text-anchor="start" x="344.5" y="-923" font-family="Helvetica,sans-Serif" font-size="10.00">&lt; T &gt;(T original, Vector3</text>
<text text-anchor="start" x="344.5" y="-912" font-family="Helvetica,sans-Serif" font-size="10.00"> position, Quaternion rotation)</text>
<text text-anchor="start" x="331.5" y="-897" font-family="Helvetica,sans-Serif" font-size="10.00">+</text>
<text text-anchor="start" x="344.5" y="-897" font-family="Helvetica,sans-Serif" font-size="10.00">static void Destroy</text>
<text text-anchor="start" x="344.5" y="-886" font-family="Helvetica,sans-Serif" font-size="10.00">(Object obj)</text>
<text text-anchor="start" x="331.5" y="-871" font-family="Helvetica,sans-Serif" font-size="10.00">+</text>
<text text-anchor="start" x="344.5" y="-871" font-family="Helvetica,sans-Serif" font-size="10.00">static void DestroyImmediate</text>
<text text-anchor="start" x="344.5" y="-860" font-family="Helvetica,sans-Serif" font-size="10.00">(Object obj)</text>
<text text-anchor="start" x="331.5" y="-845" font-family="Helvetica,sans-Serif" font-size="10.00">+</text>
<text text-anchor="start" x="344.5" y="-845" font-family="Helvetica,sans-Serif" font-size="10.00">static T[] FindObjectsOf</text>
<text text-anchor="start" x="344.5" y="-834" font-family="Helvetica,sans-Serif" font-size="10.00">Type&lt; T &gt;()</text>
<text text-anchor="start" x="331.5" y="-819" font-family="Helvetica,sans-Serif" font-size="10.00">+</text>
<text text-anchor="start" x="344.5" y="-819" font-family="Helvetica,sans-Serif" font-size="10.00">static bool operator</text>
<text text-anchor="start" x="344.5" y="-808" font-family="Helvetica,sans-Serif" font-size="10.00">==(Object x, Object y)</text>
<text text-anchor="start" x="331.5" y="-793" font-family="Helvetica,sans-Serif" font-size="10.00">+</text>
<text text-anchor="start" x="344.5" y="-793" font-family="Helvetica,sans-Serif" font-size="10.00">static bool operator!</text>
<text text-anchor="start" x="344.5" y="-782" font-family="Helvetica,sans-Serif" font-size="10.00">=(Object x, Object y)</text>
<text text-anchor="start" x="331.5" y="-767" font-family="Helvetica,sans-Serif" font-size="10.00">~</text>
<text text-anchor="start" x="344.5" y="-767" font-family="Helvetica,sans-Serif" font-size="10.00">static Object FindObject</text>
<text text-anchor="start" x="344.5" y="-756" font-family="Helvetica,sans-Serif" font-size="10.00">FromInstanceID(int instanceID)</text>
<text text-anchor="start" x="334" y="-741" font-family="Helvetica,sans-Serif" font-size="10.00">&#45;</text>
<text text-anchor="start" x="344.5" y="-741" font-family="Helvetica,sans-Serif" font-size="10.00">IntPtr GetCachedPtr()</text>
<text text-anchor="start" x="334" y="-726" font-family="Helvetica,sans-Serif" font-size="10.00">&#45;</text>
<text text-anchor="start" x="344.5" y="-726" font-family="Helvetica,sans-Serif" font-size="10.00">static int GetOffsetOfInstance</text>
<text text-anchor="start" x="344.5" y="-715" font-family="Helvetica,sans-Serif" font-size="10.00">IDInCPlusPlusObject()</text>
<text text-anchor="start" x="334" y="-700" font-family="Helvetica,sans-Serif" font-size="10.00">&#45;</text>
<text text-anchor="start" x="344.5" y="-700" font-family="Helvetica,sans-Serif" font-size="10.00">static Object Internal</text>
<text text-anchor="start" x="344.5" y="-689" font-family="Helvetica,sans-Serif" font-size="10.00">_CloneSingle([NotNull</text>
<text text-anchor="start" x="344.5" y="-678" font-family="Helvetica,sans-Serif" font-size="10.00">(&quot;NullExceptionObject&quot;)</text>
<text text-anchor="start" x="344.5" y="-667" font-family="Helvetica,sans-Serif" font-size="10.00">] Object data)</text>
<text text-anchor="start" x="334" y="-652" font-family="Helvetica,sans-Serif" font-size="10.00">&#45;</text>
<text text-anchor="start" x="344.5" y="-652" font-family="Helvetica,sans-Serif" font-size="10.00">static string ToString</text>
<text text-anchor="start" x="344.5" y="-641" font-family="Helvetica,sans-Serif" font-size="10.00">(Object obj)</text>
<text text-anchor="start" x="334" y="-626" font-family="Helvetica,sans-Serif" font-size="10.00">&#45;</text>
<text text-anchor="start" x="344.5" y="-626" font-family="Helvetica,sans-Serif" font-size="10.00">static string GetName</text>
<text text-anchor="start" x="344.5" y="-615" font-family="Helvetica,sans-Serif" font-size="10.00">([NotNull(&quot;NullExceptionObject&quot;)</text>
<text text-anchor="start" x="344.5" y="-604" font-family="Helvetica,sans-Serif" font-size="10.00">] Object obj)</text>
<text text-anchor="start" x="334" y="-589" font-family="Helvetica,sans-Serif" font-size="10.00">&#45;</text>
<text text-anchor="start" x="344.5" y="-589" font-family="Helvetica,sans-Serif" font-size="10.00">static void SetName</text>
<text text-anchor="start" x="344.5" y="-578" font-family="Helvetica,sans-Serif" font-size="10.00">([NotNull(&quot;NullExceptionObject&quot;)</text>
<text text-anchor="start" x="344.5" y="-567" font-family="Helvetica,sans-Serif" font-size="10.00">] Object obj, string name)</text>
<text text-anchor="start" x="334" y="-552" font-family="Helvetica,sans-Serif" font-size="10.00">&#45;</text>
<text text-anchor="start" x="344.5" y="-552" font-family="Helvetica,sans-Serif" font-size="10.00">static Object Internal</text>
<text text-anchor="start" x="344.5" y="-541" font-family="Helvetica,sans-Serif" font-size="10.00">_InstantiateSingle_Injected</text>
<text text-anchor="start" x="344.5" y="-530" font-family="Helvetica,sans-Serif" font-size="10.00">(Object data, ref Vector3</text>
<text text-anchor="start" x="344.5" y="-519" font-family="Helvetica,sans-Serif" font-size="10.00"> pos, ref Quaternion rot)</text>
<text text-anchor="start" x="334" y="-504" font-family="Helvetica,sans-Serif" font-size="10.00">&#45;</text>
<text text-anchor="start" x="344.5" y="-504" font-family="Helvetica,sans-Serif" font-size="10.00">static bool CompareBaseObjects</text>
<text text-anchor="start" x="344.5" y="-493" font-family="Helvetica,sans-Serif" font-size="10.00">(Object lhs, Object rhs)</text>
<text text-anchor="start" x="334" y="-478" font-family="Helvetica,sans-Serif" font-size="10.00">&#45;</text>
<text text-anchor="start" x="344.5" y="-478" font-family="Helvetica,sans-Serif" font-size="10.00">static bool IsNativeObject</text>
<text text-anchor="start" x="344.5" y="-467" font-family="Helvetica,sans-Serif" font-size="10.00">Alive(Object o)</text>
<text text-anchor="start" x="334" y="-452" font-family="Helvetica,sans-Serif" font-size="10.00">&#45;</text>
<text text-anchor="start" x="344.5" y="-452" font-family="Helvetica,sans-Serif" font-size="10.00">static void CheckNullArgument</text>
<text text-anchor="start" x="344.5" y="-441" font-family="Helvetica,sans-Serif" font-size="10.00">(object arg, string message)</text>
<text text-anchor="start" x="334" y="-426" font-family="Helvetica,sans-Serif" font-size="10.00">&#45;</text>
<text text-anchor="start" x="344.5" y="-426" font-family="Helvetica,sans-Serif" font-size="10.00">static Object Internal</text>
<text text-anchor="start" x="344.5" y="-415" font-family="Helvetica,sans-Serif" font-size="10.00">_InstantiateSingle([NotNull</text>
<text text-anchor="start" x="344.5" y="-404" font-family="Helvetica,sans-Serif" font-size="10.00">(&quot;NullExceptionObject&quot;)] Object</text>
<text text-anchor="start" x="344.5" y="-393" font-family="Helvetica,sans-Serif" font-size="10.00"> data, Vector3 pos, Quaternion rot)</text>
<text text-anchor="start" x="334" y="-378" font-family="Helvetica,sans-Serif" font-size="10.00">&#45;</text>
<text text-anchor="start" x="344.5" y="-378" font-family="Helvetica,sans-Serif" font-size="10.00">static Object()</text>
<polygon fill="#666666" stroke="#666666" points="327.5,-1312 327.5,-1312 541.5,-1312 541.5,-1312 327.5,-1312"/>
<polygon fill="#666666" stroke="#666666" points="327.5,-1282 327.5,-1282 342.5,-1282 342.5,-1282 327.5,-1282"/>
<polygon fill="#666666" stroke="#666666" points="342.5,-1282 342.5,-1282 541.5,-1282 541.5,-1282 342.5,-1282"/>
<polygon fill="none" stroke="#666666" points="327.5,-371 327.5,-1329 541.5,-1329 541.5,-371 327.5,-371"/>
</a>
</g>
</g>
<!-- Node2&#45;&gt;Node1 -->
<g id="edge1_Node000001_Node000002" class="edge">
<title>Node2&#45;&gt;Node1</title>
<g id="a_edge1_Node000001_Node000002"><a xlink:title=" ">
<path fill="none" stroke="#63b8ff" d="M437.01,-360.7C437.46,-272.74 437.87,-191.98 438.15,-138.02"/>
<polygon fill="none" stroke="#63b8ff" points="433.51,-360.89 436.95,-370.9 440.51,-360.92 433.51,-360.89"/>
</a>
</g>
</g>
<!-- Node9 -->
<g id="Node000009" class="node">
<title>Node9</title>
<g id="a_Node000009"><a xlink:href="../../d5/d14/classUnityEngine_1_1AudioClip.html" target="_top" xlink:title=" ">
<polygon fill="white" stroke="transparent" points="640.5,-334 450.5,-334 450.5,-196 640.5,-196 640.5,-334"/>
<text text-anchor="start" x="491" y="-322" font-family="Helvetica,sans-Serif" font-size="10.00">UnityEngine.AudioClip</text>
<text text-anchor="start" x="454.5" y="-307" font-family="Helvetica,sans-Serif" font-size="10.00">+</text>
<text text-anchor="start" x="467.5" y="-307" font-family="Helvetica,sans-Serif" font-size="10.00">float length</text>
<text text-anchor="start" x="454.5" y="-292" font-family="Helvetica,sans-Serif" font-size="10.00">+</text>
<text text-anchor="start" x="467.5" y="-292" font-family="Helvetica,sans-Serif" font-size="10.00">delegate void PCMReaderCallback</text>
<text text-anchor="start" x="467.5" y="-281" font-family="Helvetica,sans-Serif" font-size="10.00">(float[] data)</text>
<text text-anchor="start" x="454.5" y="-266" font-family="Helvetica,sans-Serif" font-size="10.00">+</text>
<text text-anchor="start" x="467.5" y="-266" font-family="Helvetica,sans-Serif" font-size="10.00">delegate void PCMSetPosition</text>
<text text-anchor="start" x="467.5" y="-255" font-family="Helvetica,sans-Serif" font-size="10.00">Callback(int position)</text>
<text text-anchor="start" x="457" y="-240" font-family="Helvetica,sans-Serif" font-size="10.00">&#45;</text>
<text text-anchor="start" x="467.5" y="-240" font-family="Helvetica,sans-Serif" font-size="10.00">void InvokePCMReaderCallback</text>
<text text-anchor="start" x="467.5" y="-229" font-family="Helvetica,sans-Serif" font-size="10.00">_Internal(float[] data)</text>
<text text-anchor="start" x="457" y="-214" font-family="Helvetica,sans-Serif" font-size="10.00">&#45;</text>
<text text-anchor="start" x="467.5" y="-214" font-family="Helvetica,sans-Serif" font-size="10.00">void InvokePCMSetPosition</text>
<text text-anchor="start" x="467.5" y="-203" font-family="Helvetica,sans-Serif" font-size="10.00">Callback_Internal(int position)</text>
<polygon fill="#666666" stroke="#666666" points="450.5,-317 450.5,-317 640.5,-317 640.5,-317 450.5,-317"/>
<polygon fill="#666666" stroke="#666666" points="450.5,-302 450.5,-302 465.5,-302 465.5,-302 450.5,-302"/>
<polygon fill="#666666" stroke="#666666" points="465.5,-302 465.5,-302 640.5,-302 640.5,-302 465.5,-302"/>
<polygon fill="none" stroke="#666666" points="450.5,-196 450.5,-334 640.5,-334 640.5,-196 450.5,-196"/>
</a>
</g>
</g>
<!-- Node2&#45;&gt;Node9 -->
<g id="edge10_Node000009_Node000002" class="edge">
<title>Node2&#45;&gt;Node9</title>
<g id="a_edge10_Node000009_Node000002"><a xlink:title=" ">
<path fill="none" stroke="#63b8ff" d="M527.44,-360.83C529.25,-351.35 530.96,-342.39 532.55,-334.04"/>
<polygon fill="none" stroke="#63b8ff" points="523.96,-360.42 525.53,-370.9 530.84,-361.73 523.96,-360.42"/>
</a>
</g>
</g>
<!-- Node3 -->
<g id="Node000003" class="node">
<title>Node3</title>
<g id="a_Node000003"><a xlink:href="../../db/db4/structSystem_1_1IntPtr.html" target="_top" xlink:title=" ">
<polygon fill="white" stroke="transparent" points="353,-2177 104,-2177 104,-1387 353,-1387 353,-2177"/>
<text text-anchor="start" x="195.5" y="-2165" font-family="Helvetica,sans-Serif" font-size="10.00">System.IntPtr</text>
<text text-anchor="start" x="108.5" y="-2150" font-family="Helvetica,sans-Serif" font-size="10.00">+</text>
<text text-anchor="start" x="121.5" y="-2150" font-family="Helvetica,sans-Serif" font-size="10.00">static unsafe int Size</text>
<text text-anchor="start" x="108.5" y="-2135" font-family="Helvetica,sans-Serif" font-size="10.00">+</text>
<text text-anchor="start" x="121.5" y="-2135" font-family="Helvetica,sans-Serif" font-size="10.00">IntPtr(int value)</text>
<text text-anchor="start" x="108.5" y="-2120" font-family="Helvetica,sans-Serif" font-size="10.00">+</text>
<text text-anchor="start" x="121.5" y="-2120" font-family="Helvetica,sans-Serif" font-size="10.00">IntPtr(long value)</text>
<text text-anchor="start" x="108.5" y="-2105" font-family="Helvetica,sans-Serif" font-size="10.00">+</text>
<text text-anchor="start" x="121.5" y="-2105" font-family="Helvetica,sans-Serif" font-size="10.00">unsafe IntPtr(void</text>
<text text-anchor="start" x="121.5" y="-2094" font-family="Helvetica,sans-Serif" font-size="10.00"> *value)</text>
<text text-anchor="start" x="108.5" y="-2079" font-family="Helvetica,sans-Serif" font-size="10.00">+</text>
<text text-anchor="start" x="121.5" y="-2079" font-family="Helvetica,sans-Serif" font-size="10.00">override bool Equals</text>
<text text-anchor="start" x="121.5" y="-2068" font-family="Helvetica,sans-Serif" font-size="10.00">(object obj)</text>
<text text-anchor="start" x="108.5" y="-2053" font-family="Helvetica,sans-Serif" font-size="10.00">+</text>
<text text-anchor="start" x="121.5" y="-2053" font-family="Helvetica,sans-Serif" font-size="10.00">override int GetHashCode()</text>
<text text-anchor="start" x="108.5" y="-2038" font-family="Helvetica,sans-Serif" font-size="10.00">+</text>
<text text-anchor="start" x="121.5" y="-2038" font-family="Helvetica,sans-Serif" font-size="10.00">long ToInt64()</text>
<text text-anchor="start" x="108.5" y="-2023" font-family="Helvetica,sans-Serif" font-size="10.00">+</text>
<text text-anchor="start" x="121.5" y="-2023" font-family="Helvetica,sans-Serif" font-size="10.00">unsafe void * ToPointer()</text>
<text text-anchor="start" x="108.5" y="-2008" font-family="Helvetica,sans-Serif" font-size="10.00">+</text>
<text text-anchor="start" x="121.5" y="-2008" font-family="Helvetica,sans-Serif" font-size="10.00">override string ToString()</text>
<text text-anchor="start" x="108.5" y="-1993" font-family="Helvetica,sans-Serif" font-size="10.00">+</text>
<text text-anchor="start" x="121.5" y="-1993" font-family="Helvetica,sans-Serif" font-size="10.00">string ToString(string</text>
<text text-anchor="start" x="121.5" y="-1982" font-family="Helvetica,sans-Serif" font-size="10.00"> format)</text>
<text text-anchor="start" x="108.5" y="-1967" font-family="Helvetica,sans-Serif" font-size="10.00">+</text>
<text text-anchor="start" x="121.5" y="-1967" font-family="Helvetica,sans-Serif" font-size="10.00">static unsafe bool</text>
<text text-anchor="start" x="121.5" y="-1956" font-family="Helvetica,sans-Serif" font-size="10.00"> operator==(global::</text>
<text text-anchor="start" x="121.5" y="-1945" font-family="Helvetica,sans-Serif" font-size="10.00">System.IntPtr value1,</text>
<text text-anchor="start" x="121.5" y="-1934" font-family="Helvetica,sans-Serif" font-size="10.00"> global::System.IntPtr</text>
<text text-anchor="start" x="121.5" y="-1923" font-family="Helvetica,sans-Serif" font-size="10.00"> value2)</text>
<text text-anchor="start" x="108.5" y="-1908" font-family="Helvetica,sans-Serif" font-size="10.00">+</text>
<text text-anchor="start" x="121.5" y="-1908" font-family="Helvetica,sans-Serif" font-size="10.00">static unsafe bool</text>
<text text-anchor="start" x="121.5" y="-1897" font-family="Helvetica,sans-Serif" font-size="10.00"> operator!=(global::</text>
<text text-anchor="start" x="121.5" y="-1886" font-family="Helvetica,sans-Serif" font-size="10.00">System.IntPtr value1,</text>
<text text-anchor="start" x="121.5" y="-1875" font-family="Helvetica,sans-Serif" font-size="10.00"> global::System.IntPtr</text>
<text text-anchor="start" x="121.5" y="-1864" font-family="Helvetica,sans-Serif" font-size="10.00"> value2)</text>
<text text-anchor="start" x="108.5" y="-1849" font-family="Helvetica,sans-Serif" font-size="10.00">+</text>
<text text-anchor="start" x="121.5" y="-1849" font-family="Helvetica,sans-Serif" font-size="10.00">static operator global</text>
<text text-anchor="start" x="121.5" y="-1838" font-family="Helvetica,sans-Serif" font-size="10.00">::System.IntPtr(int value)</text>
<text text-anchor="start" x="108.5" y="-1823" font-family="Helvetica,sans-Serif" font-size="10.00">+</text>
<text text-anchor="start" x="121.5" y="-1823" font-family="Helvetica,sans-Serif" font-size="10.00">static operator global</text>
<text text-anchor="start" x="121.5" y="-1812" font-family="Helvetica,sans-Serif" font-size="10.00">::System.IntPtr(long value)</text>
<text text-anchor="start" x="108.5" y="-1797" font-family="Helvetica,sans-Serif" font-size="10.00">+</text>
<text text-anchor="start" x="121.5" y="-1797" font-family="Helvetica,sans-Serif" font-size="10.00">static unsafe operator</text>
<text text-anchor="start" x="121.5" y="-1786" font-family="Helvetica,sans-Serif" font-size="10.00"> global::System.IntPtr</text>
<text text-anchor="start" x="121.5" y="-1775" font-family="Helvetica,sans-Serif" font-size="10.00">(void *value)</text>
<text text-anchor="start" x="108.5" y="-1760" font-family="Helvetica,sans-Serif" font-size="10.00">+</text>
<text text-anchor="start" x="121.5" y="-1760" font-family="Helvetica,sans-Serif" font-size="10.00">static operator int</text>
<text text-anchor="start" x="121.5" y="-1749" font-family="Helvetica,sans-Serif" font-size="10.00">(global::System.IntPtr</text>
<text text-anchor="start" x="121.5" y="-1738" font-family="Helvetica,sans-Serif" font-size="10.00"> value)</text>
<text text-anchor="start" x="108.5" y="-1723" font-family="Helvetica,sans-Serif" font-size="10.00">+</text>
<text text-anchor="start" x="121.5" y="-1723" font-family="Helvetica,sans-Serif" font-size="10.00">static operator long</text>
<text text-anchor="start" x="121.5" y="-1712" font-family="Helvetica,sans-Serif" font-size="10.00">(global::System.IntPtr</text>
<text text-anchor="start" x="121.5" y="-1701" font-family="Helvetica,sans-Serif" font-size="10.00"> value)</text>
<text text-anchor="start" x="108.5" y="-1686" font-family="Helvetica,sans-Serif" font-size="10.00">+</text>
<text text-anchor="start" x="121.5" y="-1686" font-family="Helvetica,sans-Serif" font-size="10.00">static unsafe operator</text>
<text text-anchor="start" x="121.5" y="-1675" font-family="Helvetica,sans-Serif" font-size="10.00"> void *(global::System.IntPtr</text>
<text text-anchor="start" x="121.5" y="-1664" font-family="Helvetica,sans-Serif" font-size="10.00"> value)</text>
<text text-anchor="start" x="108.5" y="-1649" font-family="Helvetica,sans-Serif" font-size="10.00">+</text>
<text text-anchor="start" x="121.5" y="-1649" font-family="Helvetica,sans-Serif" font-size="10.00">static global::System.Int</text>
<text text-anchor="start" x="121.5" y="-1638" font-family="Helvetica,sans-Serif" font-size="10.00">Ptr Add(global::System.IntPtr</text>
<text text-anchor="start" x="121.5" y="-1627" font-family="Helvetica,sans-Serif" font-size="10.00"> pointer, int offset)</text>
<text text-anchor="start" x="108.5" y="-1612" font-family="Helvetica,sans-Serif" font-size="10.00">+</text>
<text text-anchor="start" x="121.5" y="-1612" font-family="Helvetica,sans-Serif" font-size="10.00">static global::System.Int</text>
<text text-anchor="start" x="121.5" y="-1601" font-family="Helvetica,sans-Serif" font-size="10.00">Ptr operator+(global::System.Int</text>
<text text-anchor="start" x="121.5" y="-1590" font-family="Helvetica,sans-Serif" font-size="10.00">Ptr pointer, int offset)</text>
<text text-anchor="start" x="108.5" y="-1575" font-family="Helvetica,sans-Serif" font-size="10.00">+</text>
<text text-anchor="start" x="121.5" y="-1575" font-family="Helvetica,sans-Serif" font-size="10.00">static global::System.Int</text>
<text text-anchor="start" x="121.5" y="-1564" font-family="Helvetica,sans-Serif" font-size="10.00">Ptr operator&#45;(global::System.Int</text>
<text text-anchor="start" x="121.5" y="-1553" font-family="Helvetica,sans-Serif" font-size="10.00">Ptr pointer, int offset)</text>
<text text-anchor="start" x="108.5" y="-1538" font-family="Helvetica,sans-Serif" font-size="10.00">~</text>
<text text-anchor="start" x="121.5" y="-1538" font-family="Helvetica,sans-Serif" font-size="10.00">bool IsNull()</text>
<text text-anchor="start" x="111" y="-1523" font-family="Helvetica,sans-Serif" font-size="10.00">&#45;</text>
<text text-anchor="start" x="121.5" y="-1523" font-family="Helvetica,sans-Serif" font-size="10.00">IntPtr(global::System.Runtime.</text>
<text text-anchor="start" x="121.5" y="-1512" font-family="Helvetica,sans-Serif" font-size="10.00">Serialization.SerializationInfo</text>
<text text-anchor="start" x="121.5" y="-1501" font-family="Helvetica,sans-Serif" font-size="10.00"> info, global::System.Runtime.Serialization.</text>
<text text-anchor="start" x="121.5" y="-1490" font-family="Helvetica,sans-Serif" font-size="10.00">StreamingContext context)</text>
<text text-anchor="start" x="111" y="-1475" font-family="Helvetica,sans-Serif" font-size="10.00">&#45;</text>
<text text-anchor="start" x="121.5" y="-1475" font-family="Helvetica,sans-Serif" font-size="10.00">void System.Runtime.Serialization.</text>
<text text-anchor="start" x="121.5" y="-1464" font-family="Helvetica,sans-Serif" font-size="10.00">ISerializable. GetObjectData</text>
<text text-anchor="start" x="121.5" y="-1453" font-family="Helvetica,sans-Serif" font-size="10.00">(global::System.Runtime.Serialization.</text>
<text text-anchor="start" x="121.5" y="-1442" font-family="Helvetica,sans-Serif" font-size="10.00">SerializationInfo info, global::System.Runtime.</text>
<text text-anchor="start" x="121.5" y="-1431" font-family="Helvetica,sans-Serif" font-size="10.00">Serialization.StreamingContext context)</text>
<text text-anchor="start" x="111" y="-1416" font-family="Helvetica,sans-Serif" font-size="10.00">&#45;</text>
<text text-anchor="start" x="121.5" y="-1416" font-family="Helvetica,sans-Serif" font-size="10.00">bool System.IEquatable</text>
<text text-anchor="start" x="121.5" y="-1405" font-family="Helvetica,sans-Serif" font-size="10.00">&lt; System.IntPtr &gt;. Equals</text>
<text text-anchor="start" x="121.5" y="-1394" font-family="Helvetica,sans-Serif" font-size="10.00">(global::System.IntPtr other)</text>
<polygon fill="#666666" stroke="#666666" points="104.5,-2160 104.5,-2160 353.5,-2160 353.5,-2160 104.5,-2160"/>
<polygon fill="#666666" stroke="#666666" points="104.5,-2145 104.5,-2145 119.5,-2145 119.5,-2145 104.5,-2145"/>
<polygon fill="#666666" stroke="#666666" points="119.5,-2145 119.5,-2145 353.5,-2145 353.5,-2145 119.5,-2145"/>
<polygon fill="none" stroke="#666666" points="104,-1387 104,-2177 353,-2177 353,-1387 104,-1387"/>
</a>
</g>
</g>
<!-- Node3&#45;&gt;Node2 -->
<g id="edge2_Node000002_Node000003" class="edge">
<title>Node3&#45;&gt;Node2</title>
<g id="a_edge2_Node000002_Node000003"><a xlink:title=" ">
<path fill="none" stroke="#63b8ff" d="M315.79,-1386.93C319.18,-1371.64 322.59,-1356.24 326,-1340.81"/>
<polygon fill="none" stroke="#63b8ff" points="326.02,-1340.72 323.42,-1334 328.62,-1329 331.23,-1335.73 326.02,-1340.72"/>
</a>
</g>
<text text-anchor="middle" x="358.5" y="-1355.5" font-family="Helvetica,sans-Serif" font-size="10.00" fill="grey"> &#45;m_CachedPtr</text>
</g>
<!-- Node3&#45;&gt;Node3 -->
<g id="edge6_Node000003_Node000003" class="edge">
<title>Node3&#45;&gt;Node3</title>
<g id="a_edge6_Node000003_Node000003"><a xlink:title=" ">
<path fill="none" stroke="#63b8ff" d="M353.09,-1843.72C364.1,-1830.74 371,-1810.17 371,-1782 371,-1760.22 366.87,-1742.97 359.91,-1730.27"/>
<polygon fill="none" stroke="#63b8ff" points="359.85,-1730.19 353.16,-1727.49 353.09,-1720.28 359.77,-1722.98 359.85,-1730.19"/>
</a>
</g>
<text text-anchor="middle" x="388" y="-1779.5" font-family="Helvetica,sans-Serif" font-size="10.00" fill="grey"> +Zero</text>
</g>
<!-- Node4 -->
<g id="Node000004" class="node">
<title>Node4</title>
<g id="a_Node000004"><a xlink:title=" ">
<polygon fill="white" stroke="transparent" points="143,-2284 0,-2284 0,-2224 143,-2224 143,-2284"/>
<text text-anchor="start" x="5.5" y="-2272" font-family="Helvetica,sans-Serif" font-size="10.00">global::SystemRuntime</text>
<text text-anchor="start" x="5.5" y="-2261" font-family="Helvetica,sans-Serif" font-size="10.00">::Serialization::ISerializable</text>
<text text-anchor="start" x="70" y="-2246" font-family="Helvetica,sans-Serif" font-size="10.00"> </text>
<text text-anchor="start" x="70" y="-2231" font-family="Helvetica,sans-Serif" font-size="10.00"> </text>
<polygon fill="#666666" stroke="#666666" points="0.5,-2256 0.5,-2256 143.5,-2256 143.5,-2256 0.5,-2256"/>
<polygon fill="#666666" stroke="#666666" points="0.5,-2241 0.5,-2241 143.5,-2241 143.5,-2241 0.5,-2241"/>
<polygon fill="none" stroke="#666666" points="0,-2224 0,-2284 143,-2284 143,-2224 0,-2224"/>
</a>
</g>
</g>
<!-- Node4&#45;&gt;Node3 -->
<g id="edge3_Node000003_Node000004" class="edge">
<title>Node4&#45;&gt;Node3</title>
<g id="a_edge3_Node000003_Node000004"><a xlink:title=" ">
<path fill="none" stroke="#63b8ff" d="M84.47,-2214.17C89.75,-2198.37 96.38,-2178.5 103.89,-2156.03"/>
<polygon fill="none" stroke="#63b8ff" points="81.05,-2213.36 81.2,-2223.95 87.69,-2215.58 81.05,-2213.36"/>
</a>
</g>
</g>
<!-- Node5 -->
<g id="Node000005" class="node">
<title>Node5</title>
<g id="a_Node000005"><a xlink:title=" ">
<polygon fill="white" stroke="transparent" points="296,-2284 161,-2284 161,-2224 296,-2224 296,-2284"/>
<text text-anchor="start" x="166.5" y="-2272" font-family="Helvetica,sans-Serif" font-size="10.00">global::SystemIEquatable</text>
<text text-anchor="start" x="166.5" y="-2261" font-family="Helvetica,sans-Serif" font-size="10.00">&lt; global::System.IntPtr &gt;</text>
<text text-anchor="start" x="227" y="-2246" font-family="Helvetica,sans-Serif" font-size="10.00"> </text>
<text text-anchor="start" x="227" y="-2231" font-family="Helvetica,sans-Serif" font-size="10.00"> </text>
<polygon fill="#666666" stroke="#666666" points="161.5,-2256 161.5,-2256 296.5,-2256 296.5,-2256 161.5,-2256"/>
<polygon fill="#666666" stroke="#666666" points="161.5,-2241 161.5,-2241 296.5,-2241 296.5,-2241 161.5,-2241"/>
<polygon fill="none" stroke="#666666" points="161,-2224 161,-2284 296,-2284 296,-2224 161,-2224"/>
</a>
</g>
</g>
<!-- Node5&#45;&gt;Node3 -->
<g id="edge4_Node000003_Node000005" class="edge">
<title>Node5&#45;&gt;Node3</title>
<g id="a_edge4_Node000003_Node000005"><a xlink:title=" ">
<path fill="none" stroke="#63b8ff" d="M228.5,-2213.68C228.5,-2203.2 228.5,-2190.96 228.5,-2177.37"/>
<polygon fill="none" stroke="#63b8ff" points="225,-2213.95 228.5,-2223.95 232,-2213.95 225,-2213.95"/>
</a>
</g>
</g>
<!-- Node6 -->
<g id="Node000006" class="node">
<title>Node6</title>
<g id="a_Node000006"><a xlink:title=" ">
<polygon fill="white" stroke="transparent" points="436.5,-2278.5 314.5,-2278.5 314.5,-2229.5 436.5,-2229.5 436.5,-2278.5"/>
<text text-anchor="start" x="319.5" y="-2266" font-family="Helvetica,sans-Serif" font-size="10.00">unsafe readonly void *</text>
<text text-anchor="start" x="373.5" y="-2251" font-family="Helvetica,sans-Serif" font-size="10.00"> </text>
<text text-anchor="start" x="373.5" y="-2236" font-family="Helvetica,sans-Serif" font-size="10.00"> </text>
<polygon fill="#666666" stroke="#666666" points="314.5,-2261 314.5,-2261 436.5,-2261 436.5,-2261 314.5,-2261"/>
<polygon fill="#666666" stroke="#666666" points="314.5,-2246 314.5,-2246 436.5,-2246 436.5,-2246 314.5,-2246"/>
<polygon fill="none" stroke="#666666" points="314.5,-2229.5 314.5,-2278.5 436.5,-2278.5 436.5,-2229.5 314.5,-2229.5"/>
</a>
</g>
</g>
<!-- Node6&#45;&gt;Node3 -->
<g id="edge5_Node000003_Node000006" class="edge">
<title>Node6&#45;&gt;Node3</title>
<g id="a_edge5_Node000003_Node000006"><a xlink:title=" ">
<path fill="none" stroke="#63b8ff" d="M368.11,-2229.37C364.77,-2218.71 360.44,-2204.84 355.37,-2188.63"/>
<polygon fill="none" stroke="#63b8ff" points="355.32,-2188.49 349.71,-2183.96 351.74,-2177.04 357.35,-2181.57 355.32,-2188.49"/>
</a>
</g>
<text text-anchor="middle" x="384" y="-2198" font-family="Helvetica,sans-Serif" font-size="10.00" fill="grey"> &#45;m_value</text>
</g>
<!-- Node7 -->
<g id="Node000007" class="node">
<title>Node7</title>
<g id="a_Node000007"><a xlink:title=" ">
<polygon fill="white" stroke="transparent" points="446,-1806.5 423,-1806.5 423,-1757.5 446,-1757.5 446,-1806.5"/>
<text text-anchor="start" x="428.5" y="-1794" font-family="Helvetica,sans-Serif" font-size="10.00">int</text>
<text text-anchor="start" x="433" y="-1779" font-family="Helvetica,sans-Serif" font-size="10.00"> </text>
<text text-anchor="start" x="433" y="-1764" font-family="Helvetica,sans-Serif" font-size="10.00"> </text>
<polygon fill="#666666" stroke="#666666" points="423.5,-1789 423.5,-1789 446.5,-1789 446.5,-1789 423.5,-1789"/>
<polygon fill="#666666" stroke="#666666" points="423.5,-1774 423.5,-1774 446.5,-1774 446.5,-1774 423.5,-1774"/>
<polygon fill="none" stroke="#666666" points="423,-1757.5 423,-1806.5 446,-1806.5 446,-1757.5 423,-1757.5"/>
</a>
</g>
</g>
<!-- Node7&#45;&gt;Node2 -->
<g id="edge7_Node000002_Node000007" class="edge">
<title>Node7&#45;&gt;Node2</title>
<g id="a_edge7_Node000002_Node000007"><a xlink:title=" ">
<path fill="none" stroke="#63b8ff" d="M434.5,-1757.08C434.5,-1694.89 434.5,-1520.5 434.5,-1341.11"/>
<polygon fill="none" stroke="#63b8ff" points="434.5,-1341.01 430.5,-1335.01 434.5,-1329.01 438.5,-1335.01 434.5,-1341.01"/>
</a>
</g>
<text text-anchor="start" x="434.5" y="-1361" font-family="Helvetica,sans-Serif" font-size="10.00" fill="grey"> ~OffsetOfInstanceIDInCPlus</text>
<text text-anchor="middle" x="504.5" y="-1350" font-family="Helvetica,sans-Serif" font-size="10.00" fill="grey">PlusObject</text>
</g>
<!-- Node8 -->
<g id="Node000008" class="node">
<title>Node8</title>
<g id="a_Node000008"><a xlink:title=" ">
<polygon fill="white" stroke="transparent" points="616.5,-1806.5 578.5,-1806.5 578.5,-1757.5 616.5,-1757.5 616.5,-1806.5"/>
<text text-anchor="start" x="583.5" y="-1794" font-family="Helvetica,sans-Serif" font-size="10.00">string</text>
<text text-anchor="start" x="595.5" y="-1779" font-family="Helvetica,sans-Serif" font-size="10.00"> </text>
<text text-anchor="start" x="595.5" y="-1764" font-family="Helvetica,sans-Serif" font-size="10.00"> </text>
<polygon fill="#666666" stroke="#666666" points="578.5,-1789 578.5,-1789 616.5,-1789 616.5,-1789 578.5,-1789"/>
<polygon fill="#666666" stroke="#666666" points="578.5,-1774 578.5,-1774 616.5,-1774 616.5,-1774 578.5,-1774"/>
<polygon fill="none" stroke="#666666" points="578.5,-1757.5 578.5,-1806.5 616.5,-1806.5 616.5,-1757.5 578.5,-1757.5"/>
</a>
</g>
</g>
<!-- Node8&#45;&gt;Node2 -->
<g id="edge8_Node000002_Node000008" class="edge">
<title>Node8&#45;&gt;Node2</title>
<g id="a_edge8_Node000002_Node000008"><a xlink:title=" ">
<path fill="none" stroke="#63b8ff" d="M598.17,-1757.28C599.62,-1691.57 601.09,-1501.82 575.5,-1347 567.59,-1299.17 556.72,-1249.37 544.49,-1200.59"/>
<polygon fill="none" stroke="#63b8ff" points="544.47,-1200.51 539.12,-1195.67 541.53,-1188.88 546.88,-1193.71 544.47,-1200.51"/>
</a>
</g>
<text text-anchor="middle" x="640" y="-1361" font-family="Helvetica,sans-Serif" font-size="10.00" fill="grey"> &#45;cloneDestroyedMessage</text>
<text text-anchor="middle" x="640" y="-1350" font-family="Helvetica,sans-Serif" font-size="10.00" fill="grey">&#45;objectIsNullMessage</text>
</g>
<!-- Node9&#45;&gt;Node1 -->
<g id="edge9_Node000001_Node000009" class="edge">
<title>Node9&#45;&gt;Node1</title>
<g id="a_edge9_Node000001_Node000009"><a xlink:title=" ">
<path fill="none" stroke="#63b8ff" d="M507.93,-195.88C499.56,-180.71 490.62,-164.5 482.04,-148.94"/>
<polygon fill="none" stroke="#63b8ff" points="481.96,-148.8 475.56,-145.47 476.16,-138.29 482.56,-141.61 481.96,-148.8"/>
</a>
</g>
<text text-anchor="middle" x="563.5" y="-170" font-family="Helvetica,sans-Serif" font-size="10.00" fill="grey"> &#45;m_PCMReaderCallback</text>
<text text-anchor="middle" x="563.5" y="-159" font-family="Helvetica,sans-Serif" font-size="10.00" fill="grey">&#45;m_PCMSetPositionCallback</text>
</g>
<!-- Node9&#45;&gt;Node9 -->
<g id="edge11_Node000009_Node000009" class="edge">
<title>Node9&#45;&gt;Node9</title>
<g id="a_edge11_Node000009_Node000009"><a xlink:title=" ">
<path fill="none" stroke="#63b8ff" d="M640.72,-278.66C651.51,-276.11 658.5,-271.55 658.5,-265 658.5,-261.21 656.16,-258.09 652.11,-255.64"/>
<polygon fill="none" stroke="#63b8ff" points="651.94,-255.58 644.91,-257.2 640.72,-251.34 647.74,-249.71 651.94,-255.58"/>
</a>
</g>
<text text-anchor="middle" x="727.5" y="-268" font-family="Helvetica,sans-Serif" font-size="10.00" fill="grey"> &#45;m_PCMReaderCallback</text>
<text text-anchor="middle" x="727.5" y="-257" font-family="Helvetica,sans-Serif" font-size="10.00" fill="grey">&#45;m_PCMSetPositionCallback</text>
</g>
</g>
</svg>

<g id="navigator" transform="translate(0 0)" fill="#404254">
  <rect fill="#f2f5e9" fill-opacity="0.5" stroke="#606060" stroke-width=".5" x="0" y="0" width="60" height="60"/>
  <use id="zoomplus" xlink:href="#zoomPlus" x="17" y="9" onmousedown="handleZoom(evt,'in')"/>
  <use id="zoomminus" xlink:href="#zoomMin" x="42" y="9" onmousedown="handleZoom(evt,'out')"/>
  <use id="reset" xlink:href="#resetDef" x="30" y="36" onmousedown="handleReset()"/>
   <use id="arrowup" xlink:href="#arrowUp" x="0" y="0" onmousedown="handlePan(0,-1)"/>
  <use id="arrowright" xlink:href="#arrowRight" x="0" y="0" onmousedown="handlePan(1,0)"/>
  <use id="arrowdown" xlink:href="#arrowDown" x="0" y="0" onmousedown="handlePan(0,1)"/>
  <use id="arrowleft" xlink:href="#arrowLeft" x="0" y="0" onmousedown="handlePan(-1,0)"/>
</g>
<svg viewBox="0 0 15 15" width="100%" height="30px" preserveAspectRatio="xMaxYMin meet">
 <g id="arrow_out" transform="scale(0.3 0.3)">
  <a xlink:href="classUnityEngine_1_1AudioClip__coll__graph_org.svg" target="_base">
   <rect id="button" ry="5" rx="5" y="6" x="6" height="38" width="38"
        fill="#f2f5e9" fill-opacity="0.5" stroke="#606060" stroke-width="1.0"/>
   <path id="arrow"
     d="M 11.500037,31.436501 C 11.940474,20.09759 22.043105,11.32322 32.158766,21.979434 L 37.068811,17.246167 C 37.068811,17.246167 37.088388,32 37.088388,32 L 22.160133,31.978069 C 22.160133,31.978069 26.997745,27.140456 26.997745,27.140456 C 18.528582,18.264221 13.291696,25.230495 11.500037,31.436501 z"
     style="fill:#404040;"/>
  </a>
 </g>
</svg>

<style type='text/css'>
<![CDATA[
[data-mouse-over-selected='false'] { opacity: 0.7; }
[data-mouse-over-selected='true']  { opacity: 1.0; }
]]>
</style>
<script type="application/ecmascript"><![CDATA[
document.addEventListener('DOMContentLoaded', (event) => {
  highlightEdges();
  highlightAdjacentNodes();
});
]]></script>
</svg>
