<?xml version="1.0" encoding="UTF-8" standalone="no"?>
<!DOCTYPE svg PUBLIC "-//W3C//DTD SVG 1.1//EN"
 "http://www.w3.org/Graphics/SVG/1.1/DTD/svg11.dtd">
<!-- Generated by graphviz version 2.43.0 (0)
 -->
<!-- Title: Terraria.GameContent.NetModules.NetCreativeUnlocksPlayerReportModule Pages: 1 -->
<svg width="309pt" height="312pt"
 viewBox="0.00 0.00 309.00 312.00" xmlns="http://www.w3.org/2000/svg" xmlns:xlink="http://www.w3.org/1999/xlink">

<svg id="main" version="1.1" xmlns="http://www.w3.org/2000/svg" xmlns:xlink="http://www.w3.org/1999/xlink" xml:space="preserve" onload="init(evt)">
<style type="text/css"><![CDATA[
.node, .edge {opacity: 0.7;}
.node.selected, .edge.selected {opacity: 1;}
.edge:hover path { stroke: red; }
.edge:hover polygon { stroke: red; fill: red; }
]]></style>
<script type="application/ecmascript" xlink:href="../../svg.min.js"/>
<svg id="graph" class="graph">
<g id="graph0" class="graph" transform="scale(1 1) rotate(0) translate(4 308)">
<title>Terraria.GameContent.NetModules.NetCreativeUnlocksPlayerReportModule</title>
<!-- Node1 -->
<g id="Node000001" class="node">
<title>Node1</title>
<g id="a_Node000001"><a xlink:title=" ">
<polygon fill="#999999" stroke="transparent" points="235.5,-156 52.5,-156 52.5,0 235.5,0 235.5,-156"/>
<text text-anchor="start" x="58" y="-144" font-family="Helvetica,sans-Serif" font-size="10.00">Terraria.GameContent.Net</text>
<text text-anchor="start" x="58" y="-133" font-family="Helvetica,sans-Serif" font-size="10.00">Modules.NetCreativeUnlocksPlayer</text>
<text text-anchor="start" x="110" y="-122" font-family="Helvetica,sans-Serif" font-size="10.00">ReportModule</text>
<text text-anchor="start" x="142.5" y="-107" font-family="Helvetica,sans-Serif" font-size="10.00"> </text>
<text text-anchor="start" x="63.5" y="-92" font-family="Helvetica,sans-Serif" font-size="10.00">+</text>
<text text-anchor="start" x="83" y="-92" font-family="Helvetica,sans-Serif" font-size="10.00">override bool Deserialize</text>
<text text-anchor="start" x="83" y="-81" font-family="Helvetica,sans-Serif" font-size="10.00">(BinaryReader reader, int</text>
<text text-anchor="start" x="83" y="-70" font-family="Helvetica,sans-Serif" font-size="10.00"> userId)</text>
<text text-anchor="start" x="63.5" y="-55" font-family="Helvetica,sans-Serif" font-size="10.00">+</text>
<text text-anchor="start" x="83" y="-55" font-family="Helvetica,sans-Serif" font-size="10.00">NetCreativeUnlocksPlayer</text>
<text text-anchor="start" x="83" y="-44" font-family="Helvetica,sans-Serif" font-size="10.00">ReportModule()</text>
<text text-anchor="start" x="63.5" y="-29" font-family="Helvetica,sans-Serif" font-size="10.00">+</text>
<text text-anchor="start" x="83" y="-29" font-family="Helvetica,sans-Serif" font-size="10.00">static NetPacket Serialize</text>
<text text-anchor="start" x="83" y="-18" font-family="Helvetica,sans-Serif" font-size="10.00">SacrificeRequest(int itemId,</text>
<text text-anchor="start" x="83" y="-7" font-family="Helvetica,sans-Serif" font-size="10.00"> int amount)</text>
<polygon fill="#666666" stroke="#666666" points="53,-117 53,-117 236,-117 236,-117 53,-117"/>
<polygon fill="#666666" stroke="#666666" points="53,-102 53,-102 236,-102 236,-102 53,-102"/>
<polygon fill="none" stroke="#666666" points="52.5,0 52.5,-156 235.5,-156 235.5,0 52.5,0"/>
</a>
</g>
</g>
<!-- Node2 -->
<g id="Node000002" class="node">
<title>Node2</title>
<g id="a_Node000002"><a xlink:href="../../d6/da4/classTerraria_1_1Net_1_1NetModule.html" target="_top" xlink:title=" ">
<polygon fill="white" stroke="transparent" points="170,-304 0,-304 0,-203 170,-203 170,-304"/>
<text text-anchor="start" x="58" y="-291.5" font-family="Helvetica,sans-Serif" font-size="10.00">NetModule</text>
<text text-anchor="start" x="83" y="-276.5" font-family="Helvetica,sans-Serif" font-size="10.00"> </text>
<text text-anchor="start" x="4" y="-261.5" font-family="Helvetica,sans-Serif" font-size="10.00">+</text>
<text text-anchor="start" x="17" y="-261.5" font-family="Helvetica,sans-Serif" font-size="10.00">bool Deserialize(BinaryReader</text>
<text text-anchor="start" x="17" y="-250.5" font-family="Helvetica,sans-Serif" font-size="10.00"> reader, int userId)</text>
<text text-anchor="start" x="4" y="-235.5" font-family="Helvetica,sans-Serif" font-size="10.00">#</text>
<text text-anchor="start" x="17" y="-235.5" font-family="Helvetica,sans-Serif" font-size="10.00">NetModule()</text>
<text text-anchor="start" x="4" y="-220.5" font-family="Helvetica,sans-Serif" font-size="10.00">#</text>
<text text-anchor="start" x="17" y="-220.5" font-family="Helvetica,sans-Serif" font-size="10.00">static NetPacket CreatePacket</text>
<text text-anchor="start" x="17" y="-209.5" font-family="Helvetica,sans-Serif" font-size="10.00">&lt; T &gt;(int maxSize)</text>
<polygon fill="#666666" stroke="#666666" points="0,-286.5 0,-286.5 170,-286.5 170,-286.5 0,-286.5"/>
<polygon fill="#666666" stroke="#666666" points="0,-271.5 0,-271.5 170,-271.5 170,-271.5 0,-271.5"/>
<polygon fill="none" stroke="#666666" points="0,-203 0,-304 170,-304 170,-203 0,-203"/>
</a>
</g>
</g>
<!-- Node2&#45;&gt;Node1 -->
<g id="edge1_Node000001_Node000002" class="edge">
<title>Node2&#45;&gt;Node1</title>
<g id="a_edge1_Node000001_Node000002"><a xlink:title=" ">
<path fill="none" stroke="#63b8ff" d="M105.22,-193.03C109.25,-181.18 113.54,-168.58 117.73,-156.24"/>
<polygon fill="none" stroke="#63b8ff" points="101.81,-192.19 101.91,-202.78 108.44,-194.44 101.81,-192.19"/>
</a>
</g>
</g>
<!-- Node3 -->
<g id="Node000003" class="node">
<title>Node3</title>
<g id="a_Node000003"><a xlink:title=" ">
<polygon fill="white" stroke="transparent" points="220,-278 188,-278 188,-229 220,-229 220,-278"/>
<text text-anchor="start" x="193" y="-265.5" font-family="Helvetica,sans-Serif" font-size="10.00">byte</text>
<text text-anchor="start" x="202" y="-250.5" font-family="Helvetica,sans-Serif" font-size="10.00"> </text>
<text text-anchor="start" x="202" y="-235.5" font-family="Helvetica,sans-Serif" font-size="10.00"> </text>
<polygon fill="#666666" stroke="#666666" points="188,-260.5 188,-260.5 220,-260.5 220,-260.5 188,-260.5"/>
<polygon fill="#666666" stroke="#666666" points="188,-245.5 188,-245.5 220,-245.5 220,-245.5 188,-245.5"/>
<polygon fill="none" stroke="#666666" points="188,-229 188,-278 220,-278 220,-229 188,-229"/>
</a>
</g>
</g>
<!-- Node3&#45;&gt;Node1 -->
<g id="edge2_Node000001_Node000003" class="edge">
<title>Node3&#45;&gt;Node1</title>
<g id="a_edge2_Node000001_Node000003"><a xlink:title=" ">
<path fill="none" stroke="#63b8ff" d="M195.78,-228.74C190.21,-212.62 182.46,-190.21 174.65,-167.63"/>
<polygon fill="none" stroke="#63b8ff" points="174.62,-167.54 168.88,-163.18 170.7,-156.2 176.44,-160.57 174.62,-167.54"/>
</a>
</g>
<text text-anchor="middle" x="240" y="-177" font-family="Helvetica,sans-Serif" font-size="10.00" fill="grey"> &#45;_requestItemSacrificeId</text>
</g>
</g>
</svg>
</svg>

<style type='text/css'>
<![CDATA[
[data-mouse-over-selected='false'] { opacity: 0.7; }
[data-mouse-over-selected='true']  { opacity: 1.0; }
]]>
</style>
<script type="application/ecmascript"><![CDATA[
document.addEventListener('DOMContentLoaded', (event) => {
  highlightEdges();
  highlightAdjacentNodes();
});
]]></script>
</svg>
