<?xml version="1.0" encoding="UTF-8" standalone="no"?>
<!DOCTYPE svg PUBLIC "-//W3C//DTD SVG 1.1//EN"
 "http://www.w3.org/Graphics/SVG/1.1/DTD/svg11.dtd">
<!-- Generated by graphviz version 2.43.0 (0)
 -->
<!-- Title: System.Security.Cryptography.AesCryptoServiceProvider Pages: 1 -->
<!--zoomable 1262 -->

<svg id="main" version="1.1" xmlns="http://www.w3.org/2000/svg" xmlns:xlink="http://www.w3.org/1999/xlink" xml:space="preserve" onload="init(evt)">
<style type="text/css"><![CDATA[
.node, .edge {opacity: 0.7;}
.node.selected, .edge.selected {opacity: 1;}
.edge:hover path { stroke: red; }
.edge:hover polygon { stroke: red; fill: red; }
]]></style>

<defs>
  <circle id="rim" cx="0" cy="0" r="7"/>
  <circle id="rim2" cx="0" cy="0" r="3.5"/>
  <g id="zoomPlus">
    <use xlink:href="#rim" fill="#404040"><set attributeName="fill" to="#808080" begin="zoomplus.mouseover" end="zoomplus.mouseout"/></use>
    <path d="M-4,0h8M0,-4v8" fill="none" stroke="white" stroke-width="1.5" pointer-events="none"/>
  </g>
  <g id="zoomMin">
    <use xlink:href="#rim" fill="#404040"><set attributeName="fill" to="#808080" begin="zoomminus.mouseover" end="zoomminus.mouseout"/></use>
    <path d="M-4,0h8" fill="none" stroke="white" stroke-width="1.5" pointer-events="none"/>
  </g>
  <g id="arrowUp" transform="translate(30 24)">
    <use xlink:href="#rim"/>
    <path pointer-events="none" fill="none" stroke="white" stroke-width="1.5" d="M0,-3.0v7 M-2.5,-0.5L0,-3.0L2.5,-0.5"/>
  </g>
  <g id="arrowRight" transform="rotate(90) translate(36 -43)">
    <use xlink:href="#rim"/>
    <path pointer-events="none" fill="none" stroke="white" stroke-width="1.5" d="M0,-3.0v7 M-2.5,-0.5L0,-3.0L2.5,-0.5"/>
  </g>
  <g id="arrowDown" transform="rotate(180) translate(-30 -48)">
    <use xlink:href="#rim"/>
    <path pointer-events="none" fill="none" stroke="white" stroke-width="1.5" d="M0,-3.0v7 M-2.5,-0.5L0,-3.0L2.5,-0.5"/>
  </g>
  <g id="arrowLeft" transform="rotate(270) translate(-36 17)">
    <use xlink:href="#rim"/>
    <path pointer-events="none" fill="none" stroke="white" stroke-width="1.5" d="M0,-3.0v7 M-2.5,-0.5L0,-3.0L2.5,-0.5"/>
  </g>
  <g id="resetDef">
    <use xlink:href="#rim2" fill="#404040"><set attributeName="fill" to="#808080" begin="reset.mouseover" end="reset.mouseout"/></use>
  </g>
</defs>
<script type="application/ecmascript">
var viewWidth = 197;
var viewHeight = 1262;
var sectionId = 'dynsection-0';
</script>
<script type="application/ecmascript" xlink:href="../../svg.min.js"/>
<svg id="graph" class="graph">
<g id="viewport">
<title>System.Security.Cryptography.AesCryptoServiceProvider</title>
<!-- Node1 -->
<g id="Node000001" class="node">
<title>Node1</title>
<g id="a_Node000001"><a xlink:title=" ">
<polygon fill="#999999" stroke="transparent" points="174.5,-328 14.5,-328 14.5,0 174.5,0 174.5,-328"/>
<text text-anchor="start" x="20" y="-316" font-family="Helvetica,sans-Serif" font-size="10.00">System.Security.Cryptography.</text>
<text text-anchor="start" x="31" y="-305" font-family="Helvetica,sans-Serif" font-size="10.00">AesCryptoServiceProvider</text>
<text text-anchor="start" x="18.5" y="-290" font-family="Helvetica,sans-Serif" font-size="10.00">+</text>
<text text-anchor="start" x="31.5" y="-290" font-family="Helvetica,sans-Serif" font-size="10.00">override byte[] IV</text>
<text text-anchor="start" x="18.5" y="-275" font-family="Helvetica,sans-Serif" font-size="10.00">+</text>
<text text-anchor="start" x="31.5" y="-275" font-family="Helvetica,sans-Serif" font-size="10.00">override byte[] Key</text>
<text text-anchor="start" x="18.5" y="-260" font-family="Helvetica,sans-Serif" font-size="10.00">+</text>
<text text-anchor="start" x="31.5" y="-260" font-family="Helvetica,sans-Serif" font-size="10.00">override int KeySize</text>
<text text-anchor="start" x="18.5" y="-245" font-family="Helvetica,sans-Serif" font-size="10.00">+</text>
<text text-anchor="start" x="31.5" y="-245" font-family="Helvetica,sans-Serif" font-size="10.00">override int FeedbackSize</text>
<text text-anchor="start" x="18.5" y="-230" font-family="Helvetica,sans-Serif" font-size="10.00">+</text>
<text text-anchor="start" x="31.5" y="-230" font-family="Helvetica,sans-Serif" font-size="10.00">override CipherMode Mode</text>
<text text-anchor="start" x="18.5" y="-215" font-family="Helvetica,sans-Serif" font-size="10.00">+</text>
<text text-anchor="start" x="31.5" y="-215" font-family="Helvetica,sans-Serif" font-size="10.00">override PaddingMode</text>
<text text-anchor="start" x="31.5" y="-204" font-family="Helvetica,sans-Serif" font-size="10.00"> Padding</text>
<text text-anchor="start" x="18.5" y="-189" font-family="Helvetica,sans-Serif" font-size="10.00">+</text>
<text text-anchor="start" x="31.5" y="-189" font-family="Helvetica,sans-Serif" font-size="10.00">AesCryptoServiceProvider()</text>
<text text-anchor="start" x="18.5" y="-174" font-family="Helvetica,sans-Serif" font-size="10.00">+</text>
<text text-anchor="start" x="31.5" y="-174" font-family="Helvetica,sans-Serif" font-size="10.00">override void GenerateIV()</text>
<text text-anchor="start" x="18.5" y="-159" font-family="Helvetica,sans-Serif" font-size="10.00">+</text>
<text text-anchor="start" x="31.5" y="-159" font-family="Helvetica,sans-Serif" font-size="10.00">override void GenerateKey()</text>
<text text-anchor="start" x="18.5" y="-144" font-family="Helvetica,sans-Serif" font-size="10.00">+</text>
<text text-anchor="start" x="31.5" y="-144" font-family="Helvetica,sans-Serif" font-size="10.00">override ICryptoTransform</text>
<text text-anchor="start" x="31.5" y="-133" font-family="Helvetica,sans-Serif" font-size="10.00"> CreateDecryptor(byte[]</text>
<text text-anchor="start" x="31.5" y="-122" font-family="Helvetica,sans-Serif" font-size="10.00"> key, byte[] iv)</text>
<text text-anchor="start" x="18.5" y="-107" font-family="Helvetica,sans-Serif" font-size="10.00">+</text>
<text text-anchor="start" x="31.5" y="-107" font-family="Helvetica,sans-Serif" font-size="10.00">override ICryptoTransform</text>
<text text-anchor="start" x="31.5" y="-96" font-family="Helvetica,sans-Serif" font-size="10.00"> CreateEncryptor(byte[]</text>
<text text-anchor="start" x="31.5" y="-85" font-family="Helvetica,sans-Serif" font-size="10.00"> key, byte[] iv)</text>
<text text-anchor="start" x="18.5" y="-70" font-family="Helvetica,sans-Serif" font-size="10.00">+</text>
<text text-anchor="start" x="31.5" y="-70" font-family="Helvetica,sans-Serif" font-size="10.00">override ICryptoTransform</text>
<text text-anchor="start" x="31.5" y="-59" font-family="Helvetica,sans-Serif" font-size="10.00"> CreateDecryptor()</text>
<text text-anchor="start" x="18.5" y="-44" font-family="Helvetica,sans-Serif" font-size="10.00">+</text>
<text text-anchor="start" x="31.5" y="-44" font-family="Helvetica,sans-Serif" font-size="10.00">override ICryptoTransform</text>
<text text-anchor="start" x="31.5" y="-33" font-family="Helvetica,sans-Serif" font-size="10.00"> CreateEncryptor()</text>
<text text-anchor="start" x="18.5" y="-18" font-family="Helvetica,sans-Serif" font-size="10.00">#</text>
<text text-anchor="start" x="31.5" y="-18" font-family="Helvetica,sans-Serif" font-size="10.00">override void Dispose</text>
<text text-anchor="start" x="31.5" y="-7" font-family="Helvetica,sans-Serif" font-size="10.00">(bool disposing)</text>
<polygon fill="#666666" stroke="#666666" points="14.5,-300 14.5,-300 174.5,-300 174.5,-300 14.5,-300"/>
<polygon fill="#666666" stroke="#666666" points="14.5,-199 14.5,-199 29.5,-199 29.5,-199 14.5,-199"/>
<polygon fill="#666666" stroke="#666666" points="29.5,-199 29.5,-199 174.5,-199 174.5,-199 29.5,-199"/>
<polygon fill="none" stroke="#666666" points="14.5,0 14.5,-328 174.5,-328 174.5,0 14.5,0"/>
</a>
</g>
</g>
<!-- Node2 -->
<g id="Node000002" class="node">
<title>Node2</title>
<g id="a_Node000002"><a xlink:href="../../db/da7/classSystem_1_1Security_1_1Cryptography_1_1Aes.html" target="_top" xlink:title=" ">
<polygon fill="white" stroke="transparent" points="162.5,-506 26.5,-506 26.5,-364 162.5,-364 162.5,-506"/>
<text text-anchor="start" x="85" y="-494" font-family="Helvetica,sans-Serif" font-size="10.00">Aes</text>
<text text-anchor="start" x="33" y="-479" font-family="Helvetica,sans-Serif" font-size="10.00">&#45;</text>
<text text-anchor="start" x="43.5" y="-479" font-family="Helvetica,sans-Serif" font-size="10.00">static KeySizes[] s</text>
<text text-anchor="start" x="43.5" y="-468" font-family="Helvetica,sans-Serif" font-size="10.00">_legalBlockSizes</text>
<text text-anchor="start" x="33" y="-453" font-family="Helvetica,sans-Serif" font-size="10.00">&#45;</text>
<text text-anchor="start" x="43.5" y="-453" font-family="Helvetica,sans-Serif" font-size="10.00">static KeySizes[] s</text>
<text text-anchor="start" x="43.5" y="-442" font-family="Helvetica,sans-Serif" font-size="10.00">_legalKeySizes</text>
<text text-anchor="start" x="30.5" y="-427" font-family="Helvetica,sans-Serif" font-size="10.00">+</text>
<text text-anchor="start" x="43.5" y="-427" font-family="Helvetica,sans-Serif" font-size="10.00">static new Aes Create()</text>
<text text-anchor="start" x="30.5" y="-412" font-family="Helvetica,sans-Serif" font-size="10.00">+</text>
<text text-anchor="start" x="43.5" y="-412" font-family="Helvetica,sans-Serif" font-size="10.00">static new Aes Create</text>
<text text-anchor="start" x="43.5" y="-401" font-family="Helvetica,sans-Serif" font-size="10.00">(string algorithmName)</text>
<text text-anchor="start" x="30.5" y="-386" font-family="Helvetica,sans-Serif" font-size="10.00">#</text>
<text text-anchor="start" x="43.5" y="-386" font-family="Helvetica,sans-Serif" font-size="10.00">Aes()</text>
<text text-anchor="start" x="33" y="-371" font-family="Helvetica,sans-Serif" font-size="10.00">&#45;</text>
<text text-anchor="start" x="43.5" y="-371" font-family="Helvetica,sans-Serif" font-size="10.00">static Aes()</text>
<polygon fill="#666666" stroke="#666666" points="26.5,-489 26.5,-489 162.5,-489 162.5,-489 26.5,-489"/>
<polygon fill="#666666" stroke="#666666" points="26.5,-437 26.5,-437 41.5,-437 41.5,-437 26.5,-437"/>
<polygon fill="#666666" stroke="#666666" points="41.5,-437 41.5,-437 162.5,-437 162.5,-437 41.5,-437"/>
<polygon fill="none" stroke="#666666" points="26.5,-364 26.5,-506 162.5,-506 162.5,-364 26.5,-364"/>
</a>
</g>
</g>
<!-- Node2&#45;&gt;Node1 -->
<g id="edge1_Node000001_Node000002" class="edge">
<title>Node2&#45;&gt;Node1</title>
<g id="a_edge1_Node000001_Node000002"><a xlink:title=" ">
<path fill="none" stroke="#63b8ff" d="M94.5,-353.5C94.5,-345.32 94.5,-336.82 94.5,-328.16"/>
<polygon fill="none" stroke="#63b8ff" points="91,-353.67 94.5,-363.67 98,-353.67 91,-353.67"/>
</a>
</g>
</g>
<!-- Node3 -->
<g id="Node000003" class="node">
<title>Node3</title>
<g id="a_Node000003"><a xlink:href="../../d7/d9e/classSystem_1_1Security_1_1Cryptography_1_1SymmetricAlgorithm.html" target="_top" xlink:title=" ">
<polygon fill="white" stroke="transparent" points="189,-1169 0,-1169 0,-542 189,-542 189,-1169"/>
<text text-anchor="start" x="44" y="-1156.5" font-family="Helvetica,sans-Serif" font-size="10.00">SymmetricAlgorithm</text>
<text text-anchor="start" x="4.5" y="-1141.5" font-family="Helvetica,sans-Serif" font-size="10.00">+</text>
<text text-anchor="start" x="17.5" y="-1141.5" font-family="Helvetica,sans-Serif" font-size="10.00">virtual int BlockSize</text>
<text text-anchor="start" x="4.5" y="-1126.5" font-family="Helvetica,sans-Serif" font-size="10.00">+</text>
<text text-anchor="start" x="17.5" y="-1126.5" font-family="Helvetica,sans-Serif" font-size="10.00">virtual int FeedbackSize</text>
<text text-anchor="start" x="4.5" y="-1111.5" font-family="Helvetica,sans-Serif" font-size="10.00">+</text>
<text text-anchor="start" x="17.5" y="-1111.5" font-family="Helvetica,sans-Serif" font-size="10.00">virtual byte[] IV</text>
<text text-anchor="start" x="4.5" y="-1096.5" font-family="Helvetica,sans-Serif" font-size="10.00">+</text>
<text text-anchor="start" x="17.5" y="-1096.5" font-family="Helvetica,sans-Serif" font-size="10.00">virtual byte[] Key</text>
<text text-anchor="start" x="4.5" y="-1081.5" font-family="Helvetica,sans-Serif" font-size="10.00">+</text>
<text text-anchor="start" x="17.5" y="-1081.5" font-family="Helvetica,sans-Serif" font-size="10.00">virtual KeySizes[]</text>
<text text-anchor="start" x="17.5" y="-1070.5" font-family="Helvetica,sans-Serif" font-size="10.00"> LegalBlockSizes</text>
<text text-anchor="start" x="4.5" y="-1055.5" font-family="Helvetica,sans-Serif" font-size="10.00">+</text>
<text text-anchor="start" x="17.5" y="-1055.5" font-family="Helvetica,sans-Serif" font-size="10.00">virtual KeySizes[]</text>
<text text-anchor="start" x="17.5" y="-1044.5" font-family="Helvetica,sans-Serif" font-size="10.00"> LegalKeySizes</text>
<text text-anchor="start" x="4.5" y="-1029.5" font-family="Helvetica,sans-Serif" font-size="10.00">+</text>
<text text-anchor="start" x="17.5" y="-1029.5" font-family="Helvetica,sans-Serif" font-size="10.00">virtual int KeySize</text>
<text text-anchor="start" x="4.5" y="-1014.5" font-family="Helvetica,sans-Serif" font-size="10.00">+</text>
<text text-anchor="start" x="17.5" y="-1014.5" font-family="Helvetica,sans-Serif" font-size="10.00">virtual CipherMode Mode</text>
<text text-anchor="start" x="4.5" y="-999.5" font-family="Helvetica,sans-Serif" font-size="10.00">+</text>
<text text-anchor="start" x="17.5" y="-999.5" font-family="Helvetica,sans-Serif" font-size="10.00">virtual PaddingMode</text>
<text text-anchor="start" x="17.5" y="-988.5" font-family="Helvetica,sans-Serif" font-size="10.00"> Padding</text>
<text text-anchor="start" x="4.5" y="-973.5" font-family="Helvetica,sans-Serif" font-size="10.00">#</text>
<text text-anchor="start" x="17.5" y="-973.5" font-family="Helvetica,sans-Serif" font-size="10.00">int BlockSizeValue</text>
<text text-anchor="start" x="4.5" y="-958.5" font-family="Helvetica,sans-Serif" font-size="10.00">#</text>
<text text-anchor="start" x="17.5" y="-958.5" font-family="Helvetica,sans-Serif" font-size="10.00">int FeedbackSizeValue</text>
<text text-anchor="start" x="4.5" y="-943.5" font-family="Helvetica,sans-Serif" font-size="10.00">#</text>
<text text-anchor="start" x="17.5" y="-943.5" font-family="Helvetica,sans-Serif" font-size="10.00">byte[] IVValue</text>
<text text-anchor="start" x="4.5" y="-928.5" font-family="Helvetica,sans-Serif" font-size="10.00">#</text>
<text text-anchor="start" x="17.5" y="-928.5" font-family="Helvetica,sans-Serif" font-size="10.00">byte[] KeyValue</text>
<text text-anchor="start" x="4.5" y="-913.5" font-family="Helvetica,sans-Serif" font-size="10.00">#</text>
<text text-anchor="start" x="17.5" y="-913.5" font-family="Helvetica,sans-Serif" font-size="10.00">KeySizes[] LegalBlockSizes</text>
<text text-anchor="start" x="17.5" y="-902.5" font-family="Helvetica,sans-Serif" font-size="10.00">Value</text>
<text text-anchor="start" x="4.5" y="-887.5" font-family="Helvetica,sans-Serif" font-size="10.00">#</text>
<text text-anchor="start" x="17.5" y="-887.5" font-family="Helvetica,sans-Serif" font-size="10.00">KeySizes[] LegalKeySizes</text>
<text text-anchor="start" x="17.5" y="-876.5" font-family="Helvetica,sans-Serif" font-size="10.00">Value</text>
<text text-anchor="start" x="4.5" y="-861.5" font-family="Helvetica,sans-Serif" font-size="10.00">#</text>
<text text-anchor="start" x="17.5" y="-861.5" font-family="Helvetica,sans-Serif" font-size="10.00">int KeySizeValue</text>
<text text-anchor="start" x="4.5" y="-846.5" font-family="Helvetica,sans-Serif" font-size="10.00">#</text>
<text text-anchor="start" x="17.5" y="-846.5" font-family="Helvetica,sans-Serif" font-size="10.00">CipherMode ModeValue</text>
<text text-anchor="start" x="4.5" y="-831.5" font-family="Helvetica,sans-Serif" font-size="10.00">#</text>
<text text-anchor="start" x="17.5" y="-831.5" font-family="Helvetica,sans-Serif" font-size="10.00">PaddingMode PaddingValue</text>
<text text-anchor="start" x="4.5" y="-816.5" font-family="Helvetica,sans-Serif" font-size="10.00">+</text>
<text text-anchor="start" x="17.5" y="-816.5" font-family="Helvetica,sans-Serif" font-size="10.00">void Dispose()</text>
<text text-anchor="start" x="4.5" y="-801.5" font-family="Helvetica,sans-Serif" font-size="10.00">+</text>
<text text-anchor="start" x="17.5" y="-801.5" font-family="Helvetica,sans-Serif" font-size="10.00">void Clear()</text>
<text text-anchor="start" x="4.5" y="-786.5" font-family="Helvetica,sans-Serif" font-size="10.00">+</text>
<text text-anchor="start" x="17.5" y="-786.5" font-family="Helvetica,sans-Serif" font-size="10.00">bool ValidKeySize(int</text>
<text text-anchor="start" x="17.5" y="-775.5" font-family="Helvetica,sans-Serif" font-size="10.00"> bitLength)</text>
<text text-anchor="start" x="4.5" y="-760.5" font-family="Helvetica,sans-Serif" font-size="10.00">+</text>
<text text-anchor="start" x="17.5" y="-760.5" font-family="Helvetica,sans-Serif" font-size="10.00">virtual ICryptoTransform</text>
<text text-anchor="start" x="17.5" y="-749.5" font-family="Helvetica,sans-Serif" font-size="10.00"> CreateEncryptor()</text>
<text text-anchor="start" x="4.5" y="-734.5" font-family="Helvetica,sans-Serif" font-size="10.00">+</text>
<text text-anchor="start" x="17.5" y="-734.5" font-family="Helvetica,sans-Serif" font-size="10.00">ICryptoTransform CreateEncryptor</text>
<text text-anchor="start" x="17.5" y="-723.5" font-family="Helvetica,sans-Serif" font-size="10.00">(byte[] rgbKey, byte[] rgbIV)</text>
<text text-anchor="start" x="4.5" y="-708.5" font-family="Helvetica,sans-Serif" font-size="10.00">+</text>
<text text-anchor="start" x="17.5" y="-708.5" font-family="Helvetica,sans-Serif" font-size="10.00">virtual ICryptoTransform</text>
<text text-anchor="start" x="17.5" y="-697.5" font-family="Helvetica,sans-Serif" font-size="10.00"> CreateDecryptor()</text>
<text text-anchor="start" x="4.5" y="-682.5" font-family="Helvetica,sans-Serif" font-size="10.00">+</text>
<text text-anchor="start" x="17.5" y="-682.5" font-family="Helvetica,sans-Serif" font-size="10.00">ICryptoTransform CreateDecryptor</text>
<text text-anchor="start" x="17.5" y="-671.5" font-family="Helvetica,sans-Serif" font-size="10.00">(byte[] rgbKey, byte[] rgbIV)</text>
<text text-anchor="start" x="4.5" y="-656.5" font-family="Helvetica,sans-Serif" font-size="10.00">+</text>
<text text-anchor="start" x="17.5" y="-656.5" font-family="Helvetica,sans-Serif" font-size="10.00">void GenerateKey()</text>
<text text-anchor="start" x="4.5" y="-641.5" font-family="Helvetica,sans-Serif" font-size="10.00">+</text>
<text text-anchor="start" x="17.5" y="-641.5" font-family="Helvetica,sans-Serif" font-size="10.00">void GenerateIV()</text>
<text text-anchor="start" x="4.5" y="-626.5" font-family="Helvetica,sans-Serif" font-size="10.00">+</text>
<text text-anchor="start" x="17.5" y="-626.5" font-family="Helvetica,sans-Serif" font-size="10.00">static SymmetricAlgorithm</text>
<text text-anchor="start" x="17.5" y="-615.5" font-family="Helvetica,sans-Serif" font-size="10.00"> Create()</text>
<text text-anchor="start" x="4.5" y="-600.5" font-family="Helvetica,sans-Serif" font-size="10.00">+</text>
<text text-anchor="start" x="17.5" y="-600.5" font-family="Helvetica,sans-Serif" font-size="10.00">static SymmetricAlgorithm</text>
<text text-anchor="start" x="17.5" y="-589.5" font-family="Helvetica,sans-Serif" font-size="10.00"> Create(string algName)</text>
<text text-anchor="start" x="4.5" y="-574.5" font-family="Helvetica,sans-Serif" font-size="10.00">#</text>
<text text-anchor="start" x="17.5" y="-574.5" font-family="Helvetica,sans-Serif" font-size="10.00">SymmetricAlgorithm()</text>
<text text-anchor="start" x="4.5" y="-559.5" font-family="Helvetica,sans-Serif" font-size="10.00">#</text>
<text text-anchor="start" x="17.5" y="-559.5" font-family="Helvetica,sans-Serif" font-size="10.00">virtual void Dispose</text>
<text text-anchor="start" x="17.5" y="-548.5" font-family="Helvetica,sans-Serif" font-size="10.00">(bool disposing)</text>
<polygon fill="#666666" stroke="#666666" points="0.5,-1151.5 0.5,-1151.5 189.5,-1151.5 189.5,-1151.5 0.5,-1151.5"/>
<polygon fill="#666666" stroke="#666666" points="0.5,-826.5 0.5,-826.5 15.5,-826.5 15.5,-826.5 0.5,-826.5"/>
<polygon fill="#666666" stroke="#666666" points="15.5,-826.5 15.5,-826.5 189.5,-826.5 189.5,-826.5 15.5,-826.5"/>
<polygon fill="none" stroke="#666666" points="0,-542 0,-1169 189,-1169 189,-542 0,-542"/>
</a>
</g>
</g>
<!-- Node3&#45;&gt;Node2 -->
<g id="edge2_Node000002_Node000003" class="edge">
<title>Node3&#45;&gt;Node2</title>
<g id="a_edge2_Node000002_Node000003"><a xlink:title=" ">
<path fill="none" stroke="#63b8ff" d="M94.5,-531.63C94.5,-522.7 94.5,-514.16 94.5,-506.13"/>
<polygon fill="none" stroke="#63b8ff" points="91,-531.88 94.5,-541.88 98,-531.88 91,-531.88"/>
</a>
</g>
</g>
<!-- Node4 -->
<g id="Node000004" class="node">
<title>Node4</title>
<g id="a_Node000004"><a xlink:title=" ">
<polygon fill="white" stroke="transparent" points="164.5,-1254 24.5,-1254 24.5,-1205 164.5,-1205 164.5,-1254"/>
<text text-anchor="start" x="29.5" y="-1241.5" font-family="Helvetica,sans-Serif" font-size="10.00">global::SystemIDisposable</text>
<text text-anchor="start" x="92.5" y="-1226.5" font-family="Helvetica,sans-Serif" font-size="10.00"> </text>
<text text-anchor="start" x="92.5" y="-1211.5" font-family="Helvetica,sans-Serif" font-size="10.00"> </text>
<polygon fill="#666666" stroke="#666666" points="24.5,-1236.5 24.5,-1236.5 164.5,-1236.5 164.5,-1236.5 24.5,-1236.5"/>
<polygon fill="#666666" stroke="#666666" points="24.5,-1221.5 24.5,-1221.5 164.5,-1221.5 164.5,-1221.5 24.5,-1221.5"/>
<polygon fill="none" stroke="#666666" points="24.5,-1205 24.5,-1254 164.5,-1254 164.5,-1205 24.5,-1205"/>
</a>
</g>
</g>
<!-- Node4&#45;&gt;Node3 -->
<g id="edge3_Node000003_Node000004" class="edge">
<title>Node4&#45;&gt;Node3</title>
<g id="a_edge3_Node000003_Node000004"><a xlink:title=" ">
<path fill="none" stroke="#63b8ff" d="M94.5,-1194.72C94.5,-1187.21 94.5,-1178.67 94.5,-1169.31"/>
<polygon fill="none" stroke="#63b8ff" points="91,-1194.95 94.5,-1204.95 98,-1194.95 91,-1194.95"/>
</a>
</g>
</g>
</g>
</svg>

<g id="navigator" transform="translate(0 0)" fill="#404254">
  <rect fill="#f2f5e9" fill-opacity="0.5" stroke="#606060" stroke-width=".5" x="0" y="0" width="60" height="60"/>
  <use id="zoomplus" xlink:href="#zoomPlus" x="17" y="9" onmousedown="handleZoom(evt,'in')"/>
  <use id="zoomminus" xlink:href="#zoomMin" x="42" y="9" onmousedown="handleZoom(evt,'out')"/>
  <use id="reset" xlink:href="#resetDef" x="30" y="36" onmousedown="handleReset()"/>
   <use id="arrowup" xlink:href="#arrowUp" x="0" y="0" onmousedown="handlePan(0,-1)"/>
  <use id="arrowright" xlink:href="#arrowRight" x="0" y="0" onmousedown="handlePan(1,0)"/>
  <use id="arrowdown" xlink:href="#arrowDown" x="0" y="0" onmousedown="handlePan(0,1)"/>
  <use id="arrowleft" xlink:href="#arrowLeft" x="0" y="0" onmousedown="handlePan(-1,0)"/>
</g>
<svg viewBox="0 0 15 15" width="100%" height="30px" preserveAspectRatio="xMaxYMin meet">
 <g id="arrow_out" transform="scale(0.3 0.3)">
  <a xlink:href="classSystem_1_1Security_1_1Cryptography_1_1AesCryptoServiceProvider__inherit__graph_org.svg" target="_base">
   <rect id="button" ry="5" rx="5" y="6" x="6" height="38" width="38"
        fill="#f2f5e9" fill-opacity="0.5" stroke="#606060" stroke-width="1.0"/>
   <path id="arrow"
     d="M 11.500037,31.436501 C 11.940474,20.09759 22.043105,11.32322 32.158766,21.979434 L 37.068811,17.246167 C 37.068811,17.246167 37.088388,32 37.088388,32 L 22.160133,31.978069 C 22.160133,31.978069 26.997745,27.140456 26.997745,27.140456 C 18.528582,18.264221 13.291696,25.230495 11.500037,31.436501 z"
     style="fill:#404040;"/>
  </a>
 </g>
</svg>

<style type='text/css'>
<![CDATA[
[data-mouse-over-selected='false'] { opacity: 0.7; }
[data-mouse-over-selected='true']  { opacity: 1.0; }
]]>
</style>
<script type="application/ecmascript"><![CDATA[
document.addEventListener('DOMContentLoaded', (event) => {
  highlightEdges();
  highlightAdjacentNodes();
});
]]></script>
</svg>
