<?xml version="1.0" encoding="UTF-8" standalone="no"?>
<!DOCTYPE svg PUBLIC "-//W3C//DTD SVG 1.1//EN"
 "http://www.w3.org/Graphics/SVG/1.1/DTD/svg11.dtd">
<!-- Generated by graphviz version 2.43.0 (0)
 -->
<!-- Title: InControl.UnityInputDeviceProfileList Pages: 1 -->
<!--zoomable 2255 -->

<svg id="main" version="1.1" xmlns="http://www.w3.org/2000/svg" xmlns:xlink="http://www.w3.org/1999/xlink" xml:space="preserve" onload="init(evt)">
<style type="text/css"><![CDATA[
.node, .edge {opacity: 0.7;}
.node.selected, .edge.selected {opacity: 1;}
.edge:hover path { stroke: red; }
.edge:hover polygon { stroke: red; fill: red; }
]]></style>

<defs>
  <circle id="rim" cx="0" cy="0" r="7"/>
  <circle id="rim2" cx="0" cy="0" r="3.5"/>
  <g id="zoomPlus">
    <use xlink:href="#rim" fill="#404040"><set attributeName="fill" to="#808080" begin="zoomplus.mouseover" end="zoomplus.mouseout"/></use>
    <path d="M-4,0h8M0,-4v8" fill="none" stroke="white" stroke-width="1.5" pointer-events="none"/>
  </g>
  <g id="zoomMin">
    <use xlink:href="#rim" fill="#404040"><set attributeName="fill" to="#808080" begin="zoomminus.mouseover" end="zoomminus.mouseout"/></use>
    <path d="M-4,0h8" fill="none" stroke="white" stroke-width="1.5" pointer-events="none"/>
  </g>
  <g id="arrowUp" transform="translate(30 24)">
    <use xlink:href="#rim"/>
    <path pointer-events="none" fill="none" stroke="white" stroke-width="1.5" d="M0,-3.0v7 M-2.5,-0.5L0,-3.0L2.5,-0.5"/>
  </g>
  <g id="arrowRight" transform="rotate(90) translate(36 -43)">
    <use xlink:href="#rim"/>
    <path pointer-events="none" fill="none" stroke="white" stroke-width="1.5" d="M0,-3.0v7 M-2.5,-0.5L0,-3.0L2.5,-0.5"/>
  </g>
  <g id="arrowDown" transform="rotate(180) translate(-30 -48)">
    <use xlink:href="#rim"/>
    <path pointer-events="none" fill="none" stroke="white" stroke-width="1.5" d="M0,-3.0v7 M-2.5,-0.5L0,-3.0L2.5,-0.5"/>
  </g>
  <g id="arrowLeft" transform="rotate(270) translate(-36 17)">
    <use xlink:href="#rim"/>
    <path pointer-events="none" fill="none" stroke="white" stroke-width="1.5" d="M0,-3.0v7 M-2.5,-0.5L0,-3.0L2.5,-0.5"/>
  </g>
  <g id="resetDef">
    <use xlink:href="#rim2" fill="#404040"><set attributeName="fill" to="#808080" begin="reset.mouseover" end="reset.mouseout"/></use>
  </g>
</defs>
<script type="application/ecmascript">
var viewWidth = 795;
var viewHeight = 2255;
var sectionId = 'dynsection-1';
</script>
<script type="application/ecmascript" xlink:href="../../svg.min.js"/>
<svg id="graph" class="graph">
<g id="viewport">
<title>InControl.UnityInputDeviceProfileList</title>
<!-- Node1 -->
<g id="Node000001" class="node">
<title>Node1</title>
<g id="a_Node000001"><a xlink:title=" ">
<polygon fill="#999999" stroke="transparent" points="744,-97 577,-97 577,0 744,0 744,-97"/>
<text text-anchor="start" x="594.5" y="-84.5" font-family="Helvetica,sans-Serif" font-size="10.00">InControl.UnityInputDevice</text>
<text text-anchor="start" x="636.5" y="-73.5" font-family="Helvetica,sans-Serif" font-size="10.00">ProfileList</text>
<text text-anchor="start" x="659" y="-58.5" font-family="Helvetica,sans-Serif" font-size="10.00"> </text>
<text text-anchor="start" x="581.5" y="-43.5" font-family="Helvetica,sans-Serif" font-size="10.00">+</text>
<text text-anchor="start" x="594.5" y="-43.5" font-family="Helvetica,sans-Serif" font-size="10.00">UnityInputDeviceProfile</text>
<text text-anchor="start" x="594.5" y="-32.5" font-family="Helvetica,sans-Serif" font-size="10.00">List()</text>
<text text-anchor="start" x="584" y="-17.5" font-family="Helvetica,sans-Serif" font-size="10.00">&#45;</text>
<text text-anchor="start" x="594.5" y="-17.5" font-family="Helvetica,sans-Serif" font-size="10.00">static UnityInputDeviceProfile</text>
<text text-anchor="start" x="594.5" y="-6.5" font-family="Helvetica,sans-Serif" font-size="10.00">List()</text>
<polygon fill="#666666" stroke="#666666" points="577.5,-68.5 577.5,-68.5 744.5,-68.5 744.5,-68.5 577.5,-68.5"/>
<polygon fill="#666666" stroke="#666666" points="577.5,-53.5 577.5,-53.5 744.5,-53.5 744.5,-53.5 577.5,-53.5"/>
<polygon fill="none" stroke="#666666" points="577,0 577,-97 744,-97 744,0 577,0"/>
</a>
</g>
</g>
<!-- Node2 -->
<g id="Node000002" class="node">
<title>Node2</title>
<g id="a_Node000002"><a xlink:href="../../da/d87/classUnityEngine_1_1ScriptableObject.html" target="_top" xlink:title=" ">
<polygon fill="white" stroke="transparent" points="690.5,-309 472.5,-309 472.5,-134 690.5,-134 690.5,-309"/>
<text text-anchor="start" x="541" y="-296.5" font-family="Helvetica,sans-Serif" font-size="10.00">ScriptableObject</text>
<text text-anchor="start" x="579.5" y="-281.5" font-family="Helvetica,sans-Serif" font-size="10.00"> </text>
<text text-anchor="start" x="476.5" y="-266.5" font-family="Helvetica,sans-Serif" font-size="10.00">+</text>
<text text-anchor="start" x="489.5" y="-266.5" font-family="Helvetica,sans-Serif" font-size="10.00">ScriptableObject()</text>
<text text-anchor="start" x="476.5" y="-251.5" font-family="Helvetica,sans-Serif" font-size="10.00">+</text>
<text text-anchor="start" x="489.5" y="-251.5" font-family="Helvetica,sans-Serif" font-size="10.00">static ScriptableObject</text>
<text text-anchor="start" x="489.5" y="-240.5" font-family="Helvetica,sans-Serif" font-size="10.00"> CreateInstance(Type type)</text>
<text text-anchor="start" x="476.5" y="-225.5" font-family="Helvetica,sans-Serif" font-size="10.00">+</text>
<text text-anchor="start" x="489.5" y="-225.5" font-family="Helvetica,sans-Serif" font-size="10.00">static T CreateInstance</text>
<text text-anchor="start" x="489.5" y="-214.5" font-family="Helvetica,sans-Serif" font-size="10.00">&lt; T &gt;()</text>
<text text-anchor="start" x="476.5" y="-199.5" font-family="Helvetica,sans-Serif" font-size="10.00">~</text>
<text text-anchor="start" x="489.5" y="-199.5" font-family="Helvetica,sans-Serif" font-size="10.00">static ScriptableObject</text>
<text text-anchor="start" x="489.5" y="-188.5" font-family="Helvetica,sans-Serif" font-size="10.00"> CreateScriptableObjectInstance</text>
<text text-anchor="start" x="489.5" y="-177.5" font-family="Helvetica,sans-Serif" font-size="10.00">FromType(Type type, bool applyDefaults</text>
<text text-anchor="start" x="489.5" y="-166.5" font-family="Helvetica,sans-Serif" font-size="10.00">AndReset)</text>
<text text-anchor="start" x="479" y="-151.5" font-family="Helvetica,sans-Serif" font-size="10.00">&#45;</text>
<text text-anchor="start" x="489.5" y="-151.5" font-family="Helvetica,sans-Serif" font-size="10.00">static void CreateScriptable</text>
<text text-anchor="start" x="489.5" y="-140.5" font-family="Helvetica,sans-Serif" font-size="10.00">Object([Writable] ScriptableObject self)</text>
<polygon fill="#666666" stroke="#666666" points="472.5,-291.5 472.5,-291.5 690.5,-291.5 690.5,-291.5 472.5,-291.5"/>
<polygon fill="#666666" stroke="#666666" points="472.5,-276.5 472.5,-276.5 690.5,-276.5 690.5,-276.5 472.5,-276.5"/>
<polygon fill="none" stroke="#666666" points="472.5,-134 472.5,-309 690.5,-309 690.5,-134 472.5,-134"/>
</a>
</g>
</g>
<!-- Node2&#45;&gt;Node1 -->
<g id="edge1_Node000001_Node000002" class="edge">
<title>Node2&#45;&gt;Node1</title>
<g id="a_edge1_Node000001_Node000002"><a xlink:title=" ">
<path fill="none" stroke="#63b8ff" d="M625.68,-124.87C630.06,-115.39 634.36,-106.07 638.37,-97.4"/>
<polygon fill="none" stroke="#63b8ff" points="622.48,-123.45 621.46,-134 628.83,-126.39 622.48,-123.45"/>
</a>
</g>
</g>
<!-- Node3 -->
<g id="Node000003" class="node">
<title>Node3</title>
<g id="a_Node000003"><a xlink:href="../../d6/d8b/classUnityEngine_1_1Object.html" target="_top" xlink:title=" ">
<polygon fill="white" stroke="transparent" points="583.5,-1314 369.5,-1314 369.5,-356 583.5,-356 583.5,-1314"/>
<text text-anchor="start" x="460.5" y="-1302" font-family="Helvetica,sans-Serif" font-size="10.00">Object</text>
<text text-anchor="start" x="373.5" y="-1287" font-family="Helvetica,sans-Serif" font-size="10.00">+</text>
<text text-anchor="start" x="386.5" y="-1287" font-family="Helvetica,sans-Serif" font-size="10.00">string name</text>
<text text-anchor="start" x="373.5" y="-1272" font-family="Helvetica,sans-Serif" font-size="10.00">+</text>
<text text-anchor="start" x="386.5" y="-1272" font-family="Helvetica,sans-Serif" font-size="10.00">HideFlags hideFlags</text>
<text text-anchor="start" x="373.5" y="-1257" font-family="Helvetica,sans-Serif" font-size="10.00">+</text>
<text text-anchor="start" x="386.5" y="-1257" font-family="Helvetica,sans-Serif" font-size="10.00">unsafe int GetInstanceID()</text>
<text text-anchor="start" x="373.5" y="-1242" font-family="Helvetica,sans-Serif" font-size="10.00">+</text>
<text text-anchor="start" x="386.5" y="-1242" font-family="Helvetica,sans-Serif" font-size="10.00">override int GetHashCode()</text>
<text text-anchor="start" x="373.5" y="-1227" font-family="Helvetica,sans-Serif" font-size="10.00">+</text>
<text text-anchor="start" x="386.5" y="-1227" font-family="Helvetica,sans-Serif" font-size="10.00">override bool Equals</text>
<text text-anchor="start" x="386.5" y="-1216" font-family="Helvetica,sans-Serif" font-size="10.00">(object other)</text>
<text text-anchor="start" x="373.5" y="-1201" font-family="Helvetica,sans-Serif" font-size="10.00">+</text>
<text text-anchor="start" x="386.5" y="-1201" font-family="Helvetica,sans-Serif" font-size="10.00">static void Destroy</text>
<text text-anchor="start" x="386.5" y="-1190" font-family="Helvetica,sans-Serif" font-size="10.00">(Object obj, [DefaultValue</text>
<text text-anchor="start" x="386.5" y="-1179" font-family="Helvetica,sans-Serif" font-size="10.00">(&quot;0.0F&quot;)] float t)</text>
<text text-anchor="start" x="373.5" y="-1164" font-family="Helvetica,sans-Serif" font-size="10.00">+</text>
<text text-anchor="start" x="386.5" y="-1164" font-family="Helvetica,sans-Serif" font-size="10.00">static void DestroyImmediate</text>
<text text-anchor="start" x="386.5" y="-1153" font-family="Helvetica,sans-Serif" font-size="10.00">(Object obj, [DefaultValue</text>
<text text-anchor="start" x="386.5" y="-1142" font-family="Helvetica,sans-Serif" font-size="10.00">(&quot;false&quot;)] bool allowDestroyingAssets)</text>
<text text-anchor="start" x="373.5" y="-1127" font-family="Helvetica,sans-Serif" font-size="10.00">+</text>
<text text-anchor="start" x="386.5" y="-1127" font-family="Helvetica,sans-Serif" font-size="10.00">static Object[] FindObjects</text>
<text text-anchor="start" x="386.5" y="-1116" font-family="Helvetica,sans-Serif" font-size="10.00">OfType(Type type, bool includeInactive)</text>
<text text-anchor="start" x="373.5" y="-1101" font-family="Helvetica,sans-Serif" font-size="10.00">+</text>
<text text-anchor="start" x="386.5" y="-1101" font-family="Helvetica,sans-Serif" font-size="10.00">static void DontDestroyOn</text>
<text text-anchor="start" x="386.5" y="-1090" font-family="Helvetica,sans-Serif" font-size="10.00">Load([NotNull(&quot;NullExceptionObject&quot;)</text>
<text text-anchor="start" x="386.5" y="-1079" font-family="Helvetica,sans-Serif" font-size="10.00">] Object target)</text>
<text text-anchor="start" x="373.5" y="-1064" font-family="Helvetica,sans-Serif" font-size="10.00">+</text>
<text text-anchor="start" x="386.5" y="-1064" font-family="Helvetica,sans-Serif" font-size="10.00">override string ToString()</text>
<text text-anchor="start" x="373.5" y="-1049" font-family="Helvetica,sans-Serif" font-size="10.00">+</text>
<text text-anchor="start" x="386.5" y="-1049" font-family="Helvetica,sans-Serif" font-size="10.00">Object()</text>
<text text-anchor="start" x="373.5" y="-1034" font-family="Helvetica,sans-Serif" font-size="10.00">+</text>
<text text-anchor="start" x="386.5" y="-1034" font-family="Helvetica,sans-Serif" font-size="10.00">static implicit operator</text>
<text text-anchor="start" x="386.5" y="-1023" font-family="Helvetica,sans-Serif" font-size="10.00"> bool(Object exists)</text>
<text text-anchor="start" x="373.5" y="-1008" font-family="Helvetica,sans-Serif" font-size="10.00">+</text>
<text text-anchor="start" x="386.5" y="-1008" font-family="Helvetica,sans-Serif" font-size="10.00">static Object Instantiate</text>
<text text-anchor="start" x="386.5" y="-997" font-family="Helvetica,sans-Serif" font-size="10.00">(Object original, Vector3</text>
<text text-anchor="start" x="386.5" y="-986" font-family="Helvetica,sans-Serif" font-size="10.00"> position, Quaternion rotation)</text>
<text text-anchor="start" x="373.5" y="-971" font-family="Helvetica,sans-Serif" font-size="10.00">+</text>
<text text-anchor="start" x="386.5" y="-971" font-family="Helvetica,sans-Serif" font-size="10.00">static Object Instantiate</text>
<text text-anchor="start" x="386.5" y="-960" font-family="Helvetica,sans-Serif" font-size="10.00">(Object original)</text>
<text text-anchor="start" x="373.5" y="-945" font-family="Helvetica,sans-Serif" font-size="10.00">+</text>
<text text-anchor="start" x="386.5" y="-945" font-family="Helvetica,sans-Serif" font-size="10.00">static T Instantiate</text>
<text text-anchor="start" x="386.5" y="-934" font-family="Helvetica,sans-Serif" font-size="10.00">&lt; T &gt;(T original)</text>
<text text-anchor="start" x="373.5" y="-919" font-family="Helvetica,sans-Serif" font-size="10.00">+</text>
<text text-anchor="start" x="386.5" y="-919" font-family="Helvetica,sans-Serif" font-size="10.00">static T Instantiate</text>
<text text-anchor="start" x="386.5" y="-908" font-family="Helvetica,sans-Serif" font-size="10.00">&lt; T &gt;(T original, Vector3</text>
<text text-anchor="start" x="386.5" y="-897" font-family="Helvetica,sans-Serif" font-size="10.00"> position, Quaternion rotation)</text>
<text text-anchor="start" x="373.5" y="-882" font-family="Helvetica,sans-Serif" font-size="10.00">+</text>
<text text-anchor="start" x="386.5" y="-882" font-family="Helvetica,sans-Serif" font-size="10.00">static void Destroy</text>
<text text-anchor="start" x="386.5" y="-871" font-family="Helvetica,sans-Serif" font-size="10.00">(Object obj)</text>
<text text-anchor="start" x="373.5" y="-856" font-family="Helvetica,sans-Serif" font-size="10.00">+</text>
<text text-anchor="start" x="386.5" y="-856" font-family="Helvetica,sans-Serif" font-size="10.00">static void DestroyImmediate</text>
<text text-anchor="start" x="386.5" y="-845" font-family="Helvetica,sans-Serif" font-size="10.00">(Object obj)</text>
<text text-anchor="start" x="373.5" y="-830" font-family="Helvetica,sans-Serif" font-size="10.00">+</text>
<text text-anchor="start" x="386.5" y="-830" font-family="Helvetica,sans-Serif" font-size="10.00">static T[] FindObjectsOf</text>
<text text-anchor="start" x="386.5" y="-819" font-family="Helvetica,sans-Serif" font-size="10.00">Type&lt; T &gt;()</text>
<text text-anchor="start" x="373.5" y="-804" font-family="Helvetica,sans-Serif" font-size="10.00">+</text>
<text text-anchor="start" x="386.5" y="-804" font-family="Helvetica,sans-Serif" font-size="10.00">static bool operator</text>
<text text-anchor="start" x="386.5" y="-793" font-family="Helvetica,sans-Serif" font-size="10.00">==(Object x, Object y)</text>
<text text-anchor="start" x="373.5" y="-778" font-family="Helvetica,sans-Serif" font-size="10.00">+</text>
<text text-anchor="start" x="386.5" y="-778" font-family="Helvetica,sans-Serif" font-size="10.00">static bool operator!</text>
<text text-anchor="start" x="386.5" y="-767" font-family="Helvetica,sans-Serif" font-size="10.00">=(Object x, Object y)</text>
<text text-anchor="start" x="373.5" y="-752" font-family="Helvetica,sans-Serif" font-size="10.00">~</text>
<text text-anchor="start" x="386.5" y="-752" font-family="Helvetica,sans-Serif" font-size="10.00">static Object FindObject</text>
<text text-anchor="start" x="386.5" y="-741" font-family="Helvetica,sans-Serif" font-size="10.00">FromInstanceID(int instanceID)</text>
<text text-anchor="start" x="376" y="-726" font-family="Helvetica,sans-Serif" font-size="10.00">&#45;</text>
<text text-anchor="start" x="386.5" y="-726" font-family="Helvetica,sans-Serif" font-size="10.00">IntPtr GetCachedPtr()</text>
<text text-anchor="start" x="376" y="-711" font-family="Helvetica,sans-Serif" font-size="10.00">&#45;</text>
<text text-anchor="start" x="386.5" y="-711" font-family="Helvetica,sans-Serif" font-size="10.00">static int GetOffsetOfInstance</text>
<text text-anchor="start" x="386.5" y="-700" font-family="Helvetica,sans-Serif" font-size="10.00">IDInCPlusPlusObject()</text>
<text text-anchor="start" x="376" y="-685" font-family="Helvetica,sans-Serif" font-size="10.00">&#45;</text>
<text text-anchor="start" x="386.5" y="-685" font-family="Helvetica,sans-Serif" font-size="10.00">static Object Internal</text>
<text text-anchor="start" x="386.5" y="-674" font-family="Helvetica,sans-Serif" font-size="10.00">_CloneSingle([NotNull</text>
<text text-anchor="start" x="386.5" y="-663" font-family="Helvetica,sans-Serif" font-size="10.00">(&quot;NullExceptionObject&quot;)</text>
<text text-anchor="start" x="386.5" y="-652" font-family="Helvetica,sans-Serif" font-size="10.00">] Object data)</text>
<text text-anchor="start" x="376" y="-637" font-family="Helvetica,sans-Serif" font-size="10.00">&#45;</text>
<text text-anchor="start" x="386.5" y="-637" font-family="Helvetica,sans-Serif" font-size="10.00">static string ToString</text>
<text text-anchor="start" x="386.5" y="-626" font-family="Helvetica,sans-Serif" font-size="10.00">(Object obj)</text>
<text text-anchor="start" x="376" y="-611" font-family="Helvetica,sans-Serif" font-size="10.00">&#45;</text>
<text text-anchor="start" x="386.5" y="-611" font-family="Helvetica,sans-Serif" font-size="10.00">static string GetName</text>
<text text-anchor="start" x="386.5" y="-600" font-family="Helvetica,sans-Serif" font-size="10.00">([NotNull(&quot;NullExceptionObject&quot;)</text>
<text text-anchor="start" x="386.5" y="-589" font-family="Helvetica,sans-Serif" font-size="10.00">] Object obj)</text>
<text text-anchor="start" x="376" y="-574" font-family="Helvetica,sans-Serif" font-size="10.00">&#45;</text>
<text text-anchor="start" x="386.5" y="-574" font-family="Helvetica,sans-Serif" font-size="10.00">static void SetName</text>
<text text-anchor="start" x="386.5" y="-563" font-family="Helvetica,sans-Serif" font-size="10.00">([NotNull(&quot;NullExceptionObject&quot;)</text>
<text text-anchor="start" x="386.5" y="-552" font-family="Helvetica,sans-Serif" font-size="10.00">] Object obj, string name)</text>
<text text-anchor="start" x="376" y="-537" font-family="Helvetica,sans-Serif" font-size="10.00">&#45;</text>
<text text-anchor="start" x="386.5" y="-537" font-family="Helvetica,sans-Serif" font-size="10.00">static Object Internal</text>
<text text-anchor="start" x="386.5" y="-526" font-family="Helvetica,sans-Serif" font-size="10.00">_InstantiateSingle_Injected</text>
<text text-anchor="start" x="386.5" y="-515" font-family="Helvetica,sans-Serif" font-size="10.00">(Object data, ref Vector3</text>
<text text-anchor="start" x="386.5" y="-504" font-family="Helvetica,sans-Serif" font-size="10.00"> pos, ref Quaternion rot)</text>
<text text-anchor="start" x="376" y="-489" font-family="Helvetica,sans-Serif" font-size="10.00">&#45;</text>
<text text-anchor="start" x="386.5" y="-489" font-family="Helvetica,sans-Serif" font-size="10.00">static bool CompareBaseObjects</text>
<text text-anchor="start" x="386.5" y="-478" font-family="Helvetica,sans-Serif" font-size="10.00">(Object lhs, Object rhs)</text>
<text text-anchor="start" x="376" y="-463" font-family="Helvetica,sans-Serif" font-size="10.00">&#45;</text>
<text text-anchor="start" x="386.5" y="-463" font-family="Helvetica,sans-Serif" font-size="10.00">static bool IsNativeObject</text>
<text text-anchor="start" x="386.5" y="-452" font-family="Helvetica,sans-Serif" font-size="10.00">Alive(Object o)</text>
<text text-anchor="start" x="376" y="-437" font-family="Helvetica,sans-Serif" font-size="10.00">&#45;</text>
<text text-anchor="start" x="386.5" y="-437" font-family="Helvetica,sans-Serif" font-size="10.00">static void CheckNullArgument</text>
<text text-anchor="start" x="386.5" y="-426" font-family="Helvetica,sans-Serif" font-size="10.00">(object arg, string message)</text>
<text text-anchor="start" x="376" y="-411" font-family="Helvetica,sans-Serif" font-size="10.00">&#45;</text>
<text text-anchor="start" x="386.5" y="-411" font-family="Helvetica,sans-Serif" font-size="10.00">static Object Internal</text>
<text text-anchor="start" x="386.5" y="-400" font-family="Helvetica,sans-Serif" font-size="10.00">_InstantiateSingle([NotNull</text>
<text text-anchor="start" x="386.5" y="-389" font-family="Helvetica,sans-Serif" font-size="10.00">(&quot;NullExceptionObject&quot;)] Object</text>
<text text-anchor="start" x="386.5" y="-378" font-family="Helvetica,sans-Serif" font-size="10.00"> data, Vector3 pos, Quaternion rot)</text>
<text text-anchor="start" x="376" y="-363" font-family="Helvetica,sans-Serif" font-size="10.00">&#45;</text>
<text text-anchor="start" x="386.5" y="-363" font-family="Helvetica,sans-Serif" font-size="10.00">static Object()</text>
<polygon fill="#666666" stroke="#666666" points="369.5,-1297 369.5,-1297 583.5,-1297 583.5,-1297 369.5,-1297"/>
<polygon fill="#666666" stroke="#666666" points="369.5,-1267 369.5,-1267 384.5,-1267 384.5,-1267 369.5,-1267"/>
<polygon fill="#666666" stroke="#666666" points="384.5,-1267 384.5,-1267 583.5,-1267 583.5,-1267 384.5,-1267"/>
<polygon fill="none" stroke="#666666" points="369.5,-356 369.5,-1314 583.5,-1314 583.5,-356 369.5,-356"/>
</a>
</g>
</g>
<!-- Node3&#45;&gt;Node2 -->
<g id="edge2_Node000002_Node000003" class="edge">
<title>Node3&#45;&gt;Node2</title>
<g id="a_edge2_Node000002_Node000003"><a xlink:title=" ">
<path fill="none" stroke="#63b8ff" d="M560.31,-345.89C562.54,-332.92 564.65,-320.64 566.61,-309.21"/>
<polygon fill="none" stroke="#63b8ff" points="556.83,-345.49 558.59,-355.94 563.73,-346.68 556.83,-345.49"/>
</a>
</g>
</g>
<!-- Node4 -->
<g id="Node000004" class="node">
<title>Node4</title>
<g id="a_Node000004"><a xlink:href="../../db/db4/structSystem_1_1IntPtr.html" target="_top" xlink:title=" ">
<polygon fill="white" stroke="transparent" points="353,-2140 104,-2140 104,-1372 353,-1372 353,-2140"/>
<text text-anchor="start" x="195.5" y="-2128" font-family="Helvetica,sans-Serif" font-size="10.00">System.IntPtr</text>
<text text-anchor="start" x="108.5" y="-2113" font-family="Helvetica,sans-Serif" font-size="10.00">+</text>
<text text-anchor="start" x="121.5" y="-2113" font-family="Helvetica,sans-Serif" font-size="10.00">static unsafe int Size</text>
<text text-anchor="start" x="108.5" y="-2098" font-family="Helvetica,sans-Serif" font-size="10.00">+</text>
<text text-anchor="start" x="121.5" y="-2098" font-family="Helvetica,sans-Serif" font-size="10.00">IntPtr(int value)</text>
<text text-anchor="start" x="108.5" y="-2083" font-family="Helvetica,sans-Serif" font-size="10.00">+</text>
<text text-anchor="start" x="121.5" y="-2083" font-family="Helvetica,sans-Serif" font-size="10.00">IntPtr(long value)</text>
<text text-anchor="start" x="108.5" y="-2068" font-family="Helvetica,sans-Serif" font-size="10.00">+</text>
<text text-anchor="start" x="121.5" y="-2068" font-family="Helvetica,sans-Serif" font-size="10.00">unsafe IntPtr(void</text>
<text text-anchor="start" x="121.5" y="-2057" font-family="Helvetica,sans-Serif" font-size="10.00"> *value)</text>
<text text-anchor="start" x="108.5" y="-2042" font-family="Helvetica,sans-Serif" font-size="10.00">+</text>
<text text-anchor="start" x="121.5" y="-2042" font-family="Helvetica,sans-Serif" font-size="10.00">override bool Equals</text>
<text text-anchor="start" x="121.5" y="-2031" font-family="Helvetica,sans-Serif" font-size="10.00">(object obj)</text>
<text text-anchor="start" x="108.5" y="-2016" font-family="Helvetica,sans-Serif" font-size="10.00">+</text>
<text text-anchor="start" x="121.5" y="-2016" font-family="Helvetica,sans-Serif" font-size="10.00">override int GetHashCode()</text>
<text text-anchor="start" x="108.5" y="-2001" font-family="Helvetica,sans-Serif" font-size="10.00">+</text>
<text text-anchor="start" x="121.5" y="-2001" font-family="Helvetica,sans-Serif" font-size="10.00">long ToInt64()</text>
<text text-anchor="start" x="108.5" y="-1986" font-family="Helvetica,sans-Serif" font-size="10.00">+</text>
<text text-anchor="start" x="121.5" y="-1986" font-family="Helvetica,sans-Serif" font-size="10.00">unsafe void * ToPointer()</text>
<text text-anchor="start" x="108.5" y="-1971" font-family="Helvetica,sans-Serif" font-size="10.00">+</text>
<text text-anchor="start" x="121.5" y="-1971" font-family="Helvetica,sans-Serif" font-size="10.00">override string ToString()</text>
<text text-anchor="start" x="108.5" y="-1956" font-family="Helvetica,sans-Serif" font-size="10.00">+</text>
<text text-anchor="start" x="121.5" y="-1956" font-family="Helvetica,sans-Serif" font-size="10.00">string ToString(string</text>
<text text-anchor="start" x="121.5" y="-1945" font-family="Helvetica,sans-Serif" font-size="10.00"> format)</text>
<text text-anchor="start" x="108.5" y="-1930" font-family="Helvetica,sans-Serif" font-size="10.00">+</text>
<text text-anchor="start" x="121.5" y="-1930" font-family="Helvetica,sans-Serif" font-size="10.00">static bool operator</text>
<text text-anchor="start" x="121.5" y="-1919" font-family="Helvetica,sans-Serif" font-size="10.00">==(global::System.IntPtr</text>
<text text-anchor="start" x="121.5" y="-1908" font-family="Helvetica,sans-Serif" font-size="10.00"> value1, global::System.IntPtr</text>
<text text-anchor="start" x="121.5" y="-1897" font-family="Helvetica,sans-Serif" font-size="10.00"> value2)</text>
<text text-anchor="start" x="108.5" y="-1882" font-family="Helvetica,sans-Serif" font-size="10.00">+</text>
<text text-anchor="start" x="121.5" y="-1882" font-family="Helvetica,sans-Serif" font-size="10.00">static bool operator!</text>
<text text-anchor="start" x="121.5" y="-1871" font-family="Helvetica,sans-Serif" font-size="10.00">=(global::System.IntPtr</text>
<text text-anchor="start" x="121.5" y="-1860" font-family="Helvetica,sans-Serif" font-size="10.00"> value1, global::System.IntPtr</text>
<text text-anchor="start" x="121.5" y="-1849" font-family="Helvetica,sans-Serif" font-size="10.00"> value2)</text>
<text text-anchor="start" x="108.5" y="-1834" font-family="Helvetica,sans-Serif" font-size="10.00">+</text>
<text text-anchor="start" x="121.5" y="-1834" font-family="Helvetica,sans-Serif" font-size="10.00">static operator global</text>
<text text-anchor="start" x="121.5" y="-1823" font-family="Helvetica,sans-Serif" font-size="10.00">::System.IntPtr(int value)</text>
<text text-anchor="start" x="108.5" y="-1808" font-family="Helvetica,sans-Serif" font-size="10.00">+</text>
<text text-anchor="start" x="121.5" y="-1808" font-family="Helvetica,sans-Serif" font-size="10.00">static operator global</text>
<text text-anchor="start" x="121.5" y="-1797" font-family="Helvetica,sans-Serif" font-size="10.00">::System.IntPtr(long value)</text>
<text text-anchor="start" x="108.5" y="-1782" font-family="Helvetica,sans-Serif" font-size="10.00">+</text>
<text text-anchor="start" x="121.5" y="-1782" font-family="Helvetica,sans-Serif" font-size="10.00">static unsafe operator</text>
<text text-anchor="start" x="121.5" y="-1771" font-family="Helvetica,sans-Serif" font-size="10.00"> global::System.IntPtr</text>
<text text-anchor="start" x="121.5" y="-1760" font-family="Helvetica,sans-Serif" font-size="10.00">(void *value)</text>
<text text-anchor="start" x="108.5" y="-1745" font-family="Helvetica,sans-Serif" font-size="10.00">+</text>
<text text-anchor="start" x="121.5" y="-1745" font-family="Helvetica,sans-Serif" font-size="10.00">static operator int</text>
<text text-anchor="start" x="121.5" y="-1734" font-family="Helvetica,sans-Serif" font-size="10.00">(global::System.IntPtr</text>
<text text-anchor="start" x="121.5" y="-1723" font-family="Helvetica,sans-Serif" font-size="10.00"> value)</text>
<text text-anchor="start" x="108.5" y="-1708" font-family="Helvetica,sans-Serif" font-size="10.00">+</text>
<text text-anchor="start" x="121.5" y="-1708" font-family="Helvetica,sans-Serif" font-size="10.00">static operator long</text>
<text text-anchor="start" x="121.5" y="-1697" font-family="Helvetica,sans-Serif" font-size="10.00">(global::System.IntPtr</text>
<text text-anchor="start" x="121.5" y="-1686" font-family="Helvetica,sans-Serif" font-size="10.00"> value)</text>
<text text-anchor="start" x="108.5" y="-1671" font-family="Helvetica,sans-Serif" font-size="10.00">+</text>
<text text-anchor="start" x="121.5" y="-1671" font-family="Helvetica,sans-Serif" font-size="10.00">static unsafe operator</text>
<text text-anchor="start" x="121.5" y="-1660" font-family="Helvetica,sans-Serif" font-size="10.00"> void *(global::System.IntPtr</text>
<text text-anchor="start" x="121.5" y="-1649" font-family="Helvetica,sans-Serif" font-size="10.00"> value)</text>
<text text-anchor="start" x="108.5" y="-1634" font-family="Helvetica,sans-Serif" font-size="10.00">+</text>
<text text-anchor="start" x="121.5" y="-1634" font-family="Helvetica,sans-Serif" font-size="10.00">static global::System.Int</text>
<text text-anchor="start" x="121.5" y="-1623" font-family="Helvetica,sans-Serif" font-size="10.00">Ptr Add(global::System.IntPtr</text>
<text text-anchor="start" x="121.5" y="-1612" font-family="Helvetica,sans-Serif" font-size="10.00"> pointer, int offset)</text>
<text text-anchor="start" x="108.5" y="-1597" font-family="Helvetica,sans-Serif" font-size="10.00">+</text>
<text text-anchor="start" x="121.5" y="-1597" font-family="Helvetica,sans-Serif" font-size="10.00">static global::System.Int</text>
<text text-anchor="start" x="121.5" y="-1586" font-family="Helvetica,sans-Serif" font-size="10.00">Ptr operator+(global::System.Int</text>
<text text-anchor="start" x="121.5" y="-1575" font-family="Helvetica,sans-Serif" font-size="10.00">Ptr pointer, int offset)</text>
<text text-anchor="start" x="108.5" y="-1560" font-family="Helvetica,sans-Serif" font-size="10.00">+</text>
<text text-anchor="start" x="121.5" y="-1560" font-family="Helvetica,sans-Serif" font-size="10.00">static global::System.Int</text>
<text text-anchor="start" x="121.5" y="-1549" font-family="Helvetica,sans-Serif" font-size="10.00">Ptr operator&#45;(global::System.Int</text>
<text text-anchor="start" x="121.5" y="-1538" font-family="Helvetica,sans-Serif" font-size="10.00">Ptr pointer, int offset)</text>
<text text-anchor="start" x="108.5" y="-1523" font-family="Helvetica,sans-Serif" font-size="10.00">~</text>
<text text-anchor="start" x="121.5" y="-1523" font-family="Helvetica,sans-Serif" font-size="10.00">bool IsNull()</text>
<text text-anchor="start" x="111" y="-1508" font-family="Helvetica,sans-Serif" font-size="10.00">&#45;</text>
<text text-anchor="start" x="121.5" y="-1508" font-family="Helvetica,sans-Serif" font-size="10.00">IntPtr(global::System.Runtime.</text>
<text text-anchor="start" x="121.5" y="-1497" font-family="Helvetica,sans-Serif" font-size="10.00">Serialization.SerializationInfo</text>
<text text-anchor="start" x="121.5" y="-1486" font-family="Helvetica,sans-Serif" font-size="10.00"> info, global::System.Runtime.Serialization.</text>
<text text-anchor="start" x="121.5" y="-1475" font-family="Helvetica,sans-Serif" font-size="10.00">StreamingContext context)</text>
<text text-anchor="start" x="111" y="-1460" font-family="Helvetica,sans-Serif" font-size="10.00">&#45;</text>
<text text-anchor="start" x="121.5" y="-1460" font-family="Helvetica,sans-Serif" font-size="10.00">void System.Runtime.Serialization.</text>
<text text-anchor="start" x="121.5" y="-1449" font-family="Helvetica,sans-Serif" font-size="10.00">ISerializable. GetObjectData</text>
<text text-anchor="start" x="121.5" y="-1438" font-family="Helvetica,sans-Serif" font-size="10.00">(global::System.Runtime.Serialization.</text>
<text text-anchor="start" x="121.5" y="-1427" font-family="Helvetica,sans-Serif" font-size="10.00">SerializationInfo info, global::System.Runtime.</text>
<text text-anchor="start" x="121.5" y="-1416" font-family="Helvetica,sans-Serif" font-size="10.00">Serialization.StreamingContext context)</text>
<text text-anchor="start" x="111" y="-1401" font-family="Helvetica,sans-Serif" font-size="10.00">&#45;</text>
<text text-anchor="start" x="121.5" y="-1401" font-family="Helvetica,sans-Serif" font-size="10.00">bool System.IEquatable</text>
<text text-anchor="start" x="121.5" y="-1390" font-family="Helvetica,sans-Serif" font-size="10.00">&lt; System.IntPtr &gt;. Equals</text>
<text text-anchor="start" x="121.5" y="-1379" font-family="Helvetica,sans-Serif" font-size="10.00">(global::System.IntPtr other)</text>
<polygon fill="#666666" stroke="#666666" points="104.5,-2123 104.5,-2123 353.5,-2123 353.5,-2123 104.5,-2123"/>
<polygon fill="#666666" stroke="#666666" points="104.5,-2108 104.5,-2108 119.5,-2108 119.5,-2108 104.5,-2108"/>
<polygon fill="#666666" stroke="#666666" points="119.5,-2108 119.5,-2108 353.5,-2108 353.5,-2108 119.5,-2108"/>
<polygon fill="none" stroke="#666666" points="104,-1372 104,-2140 353,-2140 353,-1372 104,-1372"/>
</a>
</g>
</g>
<!-- Node4&#45;&gt;Node3 -->
<g id="edge3_Node000003_Node000004" class="edge">
<title>Node4&#45;&gt;Node3</title>
<g id="a_edge3_Node000003_Node000004"><a xlink:title=" ">
<path fill="none" stroke="#63b8ff" d="M331.88,-1371.92C343.26,-1329.73 354.88,-1286.67 366.35,-1244.19"/>
<polygon fill="none" stroke="#63b8ff" points="366.37,-1244.11 364.07,-1237.28 369.49,-1232.53 371.79,-1239.36 366.37,-1244.11"/>
</a>
</g>
<text text-anchor="middle" x="377.5" y="-1340.5" font-family="Helvetica,sans-Serif" font-size="10.00" fill="grey"> &#45;m_CachedPtr</text>
</g>
<!-- Node4&#45;&gt;Node4 -->
<g id="edge7_Node000004_Node000004" class="edge">
<title>Node4&#45;&gt;Node4</title>
<g id="a_edge7_Node000004_Node000004"><a xlink:title=" ">
<path fill="none" stroke="#63b8ff" d="M353.09,-1815.95C364.1,-1803.34 371,-1783.36 371,-1756 371,-1735.05 366.95,-1718.43 360.12,-1706.13"/>
<polygon fill="none" stroke="#63b8ff" points="359.95,-1705.89 353.24,-1703.26 353.09,-1696.05 359.8,-1698.68 359.95,-1705.89"/>
</a>
</g>
<text text-anchor="middle" x="388" y="-1753.5" font-family="Helvetica,sans-Serif" font-size="10.00" fill="grey"> +Zero</text>
</g>
<!-- Node5 -->
<g id="Node000005" class="node">
<title>Node5</title>
<g id="a_Node000005"><a xlink:title=" ">
<polygon fill="white" stroke="transparent" points="143,-2247 0,-2247 0,-2187 143,-2187 143,-2247"/>
<text text-anchor="start" x="5.5" y="-2235" font-family="Helvetica,sans-Serif" font-size="10.00">global::SystemRuntime</text>
<text text-anchor="start" x="5.5" y="-2224" font-family="Helvetica,sans-Serif" font-size="10.00">::Serialization::ISerializable</text>
<text text-anchor="start" x="70" y="-2209" font-family="Helvetica,sans-Serif" font-size="10.00"> </text>
<text text-anchor="start" x="70" y="-2194" font-family="Helvetica,sans-Serif" font-size="10.00"> </text>
<polygon fill="#666666" stroke="#666666" points="0.5,-2219 0.5,-2219 143.5,-2219 143.5,-2219 0.5,-2219"/>
<polygon fill="#666666" stroke="#666666" points="0.5,-2204 0.5,-2204 143.5,-2204 143.5,-2204 0.5,-2204"/>
<polygon fill="none" stroke="#666666" points="0,-2187 0,-2247 143,-2247 143,-2187 0,-2187"/>
</a>
</g>
</g>
<!-- Node5&#45;&gt;Node4 -->
<g id="edge4_Node000004_Node000005" class="edge">
<title>Node5&#45;&gt;Node4</title>
<g id="a_edge4_Node000004_Node000005"><a xlink:title=" ">
<path fill="none" stroke="#63b8ff" d="M84.69,-2177.44C89.93,-2162.11 96.49,-2142.95 103.89,-2121.32"/>
<polygon fill="none" stroke="#63b8ff" points="81.36,-2176.34 81.44,-2186.94 87.99,-2178.61 81.36,-2176.34"/>
</a>
</g>
</g>
<!-- Node6 -->
<g id="Node000006" class="node">
<title>Node6</title>
<g id="a_Node000006"><a xlink:title=" ">
<polygon fill="white" stroke="transparent" points="296,-2247 161,-2247 161,-2187 296,-2187 296,-2247"/>
<text text-anchor="start" x="166.5" y="-2235" font-family="Helvetica,sans-Serif" font-size="10.00">global::SystemIEquatable</text>
<text text-anchor="start" x="166.5" y="-2224" font-family="Helvetica,sans-Serif" font-size="10.00">&lt; global::System.IntPtr &gt;</text>
<text text-anchor="start" x="227" y="-2209" font-family="Helvetica,sans-Serif" font-size="10.00"> </text>
<text text-anchor="start" x="227" y="-2194" font-family="Helvetica,sans-Serif" font-size="10.00"> </text>
<polygon fill="#666666" stroke="#666666" points="161.5,-2219 161.5,-2219 296.5,-2219 296.5,-2219 161.5,-2219"/>
<polygon fill="#666666" stroke="#666666" points="161.5,-2204 161.5,-2204 296.5,-2204 296.5,-2204 161.5,-2204"/>
<polygon fill="none" stroke="#666666" points="161,-2187 161,-2247 296,-2247 296,-2187 161,-2187"/>
</a>
</g>
</g>
<!-- Node6&#45;&gt;Node4 -->
<g id="edge5_Node000004_Node000006" class="edge">
<title>Node6&#45;&gt;Node4</title>
<g id="a_edge5_Node000004_Node000006"><a xlink:title=" ">
<path fill="none" stroke="#63b8ff" d="M228.5,-2176.67C228.5,-2166.18 228.5,-2153.94 228.5,-2140.37"/>
<polygon fill="none" stroke="#63b8ff" points="225,-2176.94 228.5,-2186.94 232,-2176.94 225,-2176.94"/>
</a>
</g>
</g>
<!-- Node7 -->
<g id="Node000007" class="node">
<title>Node7</title>
<g id="a_Node000007"><a xlink:title=" ">
<polygon fill="white" stroke="transparent" points="436.5,-2241.5 314.5,-2241.5 314.5,-2192.5 436.5,-2192.5 436.5,-2241.5"/>
<text text-anchor="start" x="319.5" y="-2229" font-family="Helvetica,sans-Serif" font-size="10.00">unsafe readonly void *</text>
<text text-anchor="start" x="373.5" y="-2214" font-family="Helvetica,sans-Serif" font-size="10.00"> </text>
<text text-anchor="start" x="373.5" y="-2199" font-family="Helvetica,sans-Serif" font-size="10.00"> </text>
<polygon fill="#666666" stroke="#666666" points="314.5,-2224 314.5,-2224 436.5,-2224 436.5,-2224 314.5,-2224"/>
<polygon fill="#666666" stroke="#666666" points="314.5,-2209 314.5,-2209 436.5,-2209 436.5,-2209 314.5,-2209"/>
<polygon fill="none" stroke="#666666" points="314.5,-2192.5 314.5,-2241.5 436.5,-2241.5 436.5,-2192.5 314.5,-2192.5"/>
</a>
</g>
</g>
<!-- Node7&#45;&gt;Node4 -->
<g id="edge6_Node000004_Node000007" class="edge">
<title>Node7&#45;&gt;Node4</title>
<g id="a_edge6_Node000004_Node000007"><a xlink:title=" ">
<path fill="none" stroke="#63b8ff" d="M367.91,-2192.29C364.49,-2181.62 360.06,-2167.78 354.88,-2151.6"/>
<polygon fill="none" stroke="#63b8ff" points="354.83,-2151.47 349.2,-2146.98 351.17,-2140.05 356.81,-2144.54 354.83,-2151.47"/>
</a>
</g>
<text text-anchor="middle" x="385" y="-2161" font-family="Helvetica,sans-Serif" font-size="10.00" fill="grey"> &#45;m_value</text>
</g>
<!-- Node8 -->
<g id="Node000008" class="node">
<title>Node8</title>
<g id="a_Node000008"><a xlink:title=" ">
<polygon fill="white" stroke="transparent" points="446,-1780.5 423,-1780.5 423,-1731.5 446,-1731.5 446,-1780.5"/>
<text text-anchor="start" x="428.5" y="-1768" font-family="Helvetica,sans-Serif" font-size="10.00">int</text>
<text text-anchor="start" x="433" y="-1753" font-family="Helvetica,sans-Serif" font-size="10.00"> </text>
<text text-anchor="start" x="433" y="-1738" font-family="Helvetica,sans-Serif" font-size="10.00"> </text>
<polygon fill="#666666" stroke="#666666" points="423.5,-1763 423.5,-1763 446.5,-1763 446.5,-1763 423.5,-1763"/>
<polygon fill="#666666" stroke="#666666" points="423.5,-1748 423.5,-1748 446.5,-1748 446.5,-1748 423.5,-1748"/>
<polygon fill="none" stroke="#666666" points="423,-1731.5 423,-1780.5 446,-1780.5 446,-1731.5 423,-1731.5"/>
</a>
</g>
</g>
<!-- Node8&#45;&gt;Node3 -->
<g id="edge8_Node000003_Node000008" class="edge">
<title>Node8&#45;&gt;Node3</title>
<g id="a_edge8_Node000003_Node000008"><a xlink:title=" ">
<path fill="none" stroke="#63b8ff" d="M433.89,-1731.13C432.38,-1666.71 429.05,-1483.88 435.5,-1332 435.58,-1330.05 435.67,-1328.1 435.75,-1326.15"/>
<polygon fill="none" stroke="#63b8ff" points="435.76,-1326.07 432.03,-1319.9 436.3,-1314.08 440.03,-1320.26 435.76,-1326.07"/>
</a>
</g>
<text text-anchor="start" x="435.5" y="-1346" font-family="Helvetica,sans-Serif" font-size="10.00" fill="grey"> ~OffsetOfInstanceIDInCPlus</text>
<text text-anchor="middle" x="505.5" y="-1335" font-family="Helvetica,sans-Serif" font-size="10.00" fill="grey">PlusObject</text>
</g>
<!-- Node9 -->
<g id="Node000009" class="node">
<title>Node9</title>
<g id="a_Node000009"><a xlink:title=" ">
<polygon fill="white" stroke="transparent" points="687.5,-1780.5 649.5,-1780.5 649.5,-1731.5 687.5,-1731.5 687.5,-1780.5"/>
<text text-anchor="start" x="654.5" y="-1768" font-family="Helvetica,sans-Serif" font-size="10.00">string</text>
<text text-anchor="start" x="666.5" y="-1753" font-family="Helvetica,sans-Serif" font-size="10.00"> </text>
<text text-anchor="start" x="666.5" y="-1738" font-family="Helvetica,sans-Serif" font-size="10.00"> </text>
<polygon fill="#666666" stroke="#666666" points="649.5,-1763 649.5,-1763 687.5,-1763 687.5,-1763 649.5,-1763"/>
<polygon fill="#666666" stroke="#666666" points="649.5,-1748 649.5,-1748 687.5,-1748 687.5,-1748 649.5,-1748"/>
<polygon fill="none" stroke="#666666" points="649.5,-1731.5 649.5,-1780.5 687.5,-1780.5 687.5,-1731.5 649.5,-1731.5"/>
</a>
</g>
</g>
<!-- Node9&#45;&gt;Node1 -->
<g id="edge10_Node000001_Node000009" class="edge">
<title>Node9&#45;&gt;Node1</title>
<g id="a_edge10_Node000001_Node000009"><a xlink:title=" ">
<path fill="none" stroke="#63b8ff" d="M672.28,-1731.13C681.9,-1669.13 707.1,-1497.8 715.5,-1354 747.12,-812.65 819.36,-662.86 699.5,-134 697.58,-125.55 694.76,-116.93 691.49,-108.59"/>
<polygon fill="none" stroke="#63b8ff" points="691.45,-108.48 685.44,-104.5 686.8,-97.42 692.81,-101.4 691.45,-108.48"/>
</a>
</g>
<text text-anchor="middle" x="762.5" y="-330" font-family="Helvetica,sans-Serif" font-size="10.00" fill="grey"> +Profiles</text>
</g>
<!-- Node9&#45;&gt;Node3 -->
<g id="edge9_Node000003_Node000009" class="edge">
<title>Node9&#45;&gt;Node3</title>
<g id="a_edge9_Node000003_Node000009"><a xlink:title=" ">
<path fill="none" stroke="#63b8ff" d="M663.56,-1731.36C650.86,-1670.57 615.48,-1501.23 578.86,-1325.96"/>
<polygon fill="none" stroke="#63b8ff" points="578.85,-1325.88 573.71,-1320.83 576.39,-1314.14 581.54,-1319.19 578.85,-1325.88"/>
</a>
</g>
<text text-anchor="middle" x="648" y="-1346" font-family="Helvetica,sans-Serif" font-size="10.00" fill="grey"> &#45;cloneDestroyedMessage</text>
<text text-anchor="middle" x="648" y="-1335" font-family="Helvetica,sans-Serif" font-size="10.00" fill="grey">&#45;objectIsNullMessage</text>
</g>
</g>
</svg>

<g id="navigator" transform="translate(0 0)" fill="#404254">
  <rect fill="#f2f5e9" fill-opacity="0.5" stroke="#606060" stroke-width=".5" x="0" y="0" width="60" height="60"/>
  <use id="zoomplus" xlink:href="#zoomPlus" x="17" y="9" onmousedown="handleZoom(evt,'in')"/>
  <use id="zoomminus" xlink:href="#zoomMin" x="42" y="9" onmousedown="handleZoom(evt,'out')"/>
  <use id="reset" xlink:href="#resetDef" x="30" y="36" onmousedown="handleReset()"/>
   <use id="arrowup" xlink:href="#arrowUp" x="0" y="0" onmousedown="handlePan(0,-1)"/>
  <use id="arrowright" xlink:href="#arrowRight" x="0" y="0" onmousedown="handlePan(1,0)"/>
  <use id="arrowdown" xlink:href="#arrowDown" x="0" y="0" onmousedown="handlePan(0,1)"/>
  <use id="arrowleft" xlink:href="#arrowLeft" x="0" y="0" onmousedown="handlePan(-1,0)"/>
</g>
<svg viewBox="0 0 15 15" width="100%" height="30px" preserveAspectRatio="xMaxYMin meet">
 <g id="arrow_out" transform="scale(0.3 0.3)">
  <a xlink:href="classInControl_1_1UnityInputDeviceProfileList__coll__graph_org.svg" target="_base">
   <rect id="button" ry="5" rx="5" y="6" x="6" height="38" width="38"
        fill="#f2f5e9" fill-opacity="0.5" stroke="#606060" stroke-width="1.0"/>
   <path id="arrow"
     d="M 11.500037,31.436501 C 11.940474,20.09759 22.043105,11.32322 32.158766,21.979434 L 37.068811,17.246167 C 37.068811,17.246167 37.088388,32 37.088388,32 L 22.160133,31.978069 C 22.160133,31.978069 26.997745,27.140456 26.997745,27.140456 C 18.528582,18.264221 13.291696,25.230495 11.500037,31.436501 z"
     style="fill:#404040;"/>
  </a>
 </g>
</svg>

<style type='text/css'>
<![CDATA[
[data-mouse-over-selected='false'] { opacity: 0.7; }
[data-mouse-over-selected='true']  { opacity: 1.0; }
]]>
</style>
<script type="application/ecmascript"><![CDATA[
document.addEventListener('DOMContentLoaded', (event) => {
  highlightEdges();
  highlightAdjacentNodes();
});
]]></script>
</svg>
