<?xml version="1.0" encoding="UTF-8" standalone="no"?>
<!DOCTYPE svg PUBLIC "-//W3C//DTD SVG 1.1//EN"
 "http://www.w3.org/Graphics/SVG/1.1/DTD/svg11.dtd">
<!-- Generated by graphviz version 2.43.0 (0)
 -->
<!-- Title: Terraria.GameContent.TreePaintSystemData Pages: 1 -->
<!--zoomable 996 -->

<svg id="main" version="1.1" xmlns="http://www.w3.org/2000/svg" xmlns:xlink="http://www.w3.org/1999/xlink" xml:space="preserve" onload="init(evt)">
<style type="text/css"><![CDATA[
.node, .edge {opacity: 0.7;}
.node.selected, .edge.selected {opacity: 1;}
.edge:hover path { stroke: red; }
.edge:hover polygon { stroke: red; fill: red; }
]]></style>

<defs>
  <circle id="rim" cx="0" cy="0" r="7"/>
  <circle id="rim2" cx="0" cy="0" r="3.5"/>
  <g id="zoomPlus">
    <use xlink:href="#rim" fill="#404040"><set attributeName="fill" to="#808080" begin="zoomplus.mouseover" end="zoomplus.mouseout"/></use>
    <path d="M-4,0h8M0,-4v8" fill="none" stroke="white" stroke-width="1.5" pointer-events="none"/>
  </g>
  <g id="zoomMin">
    <use xlink:href="#rim" fill="#404040"><set attributeName="fill" to="#808080" begin="zoomminus.mouseover" end="zoomminus.mouseout"/></use>
    <path d="M-4,0h8" fill="none" stroke="white" stroke-width="1.5" pointer-events="none"/>
  </g>
  <g id="arrowUp" transform="translate(30 24)">
    <use xlink:href="#rim"/>
    <path pointer-events="none" fill="none" stroke="white" stroke-width="1.5" d="M0,-3.0v7 M-2.5,-0.5L0,-3.0L2.5,-0.5"/>
  </g>
  <g id="arrowRight" transform="rotate(90) translate(36 -43)">
    <use xlink:href="#rim"/>
    <path pointer-events="none" fill="none" stroke="white" stroke-width="1.5" d="M0,-3.0v7 M-2.5,-0.5L0,-3.0L2.5,-0.5"/>
  </g>
  <g id="arrowDown" transform="rotate(180) translate(-30 -48)">
    <use xlink:href="#rim"/>
    <path pointer-events="none" fill="none" stroke="white" stroke-width="1.5" d="M0,-3.0v7 M-2.5,-0.5L0,-3.0L2.5,-0.5"/>
  </g>
  <g id="arrowLeft" transform="rotate(270) translate(-36 17)">
    <use xlink:href="#rim"/>
    <path pointer-events="none" fill="none" stroke="white" stroke-width="1.5" d="M0,-3.0v7 M-2.5,-0.5L0,-3.0L2.5,-0.5"/>
  </g>
  <g id="resetDef">
    <use xlink:href="#rim2" fill="#404040"><set attributeName="fill" to="#808080" begin="reset.mouseover" end="reset.mouseout"/></use>
  </g>
</defs>
<script type="application/ecmascript">
var viewWidth = 380;
var viewHeight = 996;
var sectionId = 'dynsection-0';
</script>
<script type="application/ecmascript" xlink:href="../../svg.min.js"/>
<svg id="graph" class="graph">
<g id="viewport">
<title>Terraria.GameContent.TreePaintSystemData</title>
<!-- Node1 -->
<g id="Node000001" class="node">
<title>Node1</title>
<g id="a_Node000001"><a xlink:title=" ">
<polygon fill="#999999" stroke="transparent" points="207.5,-598 44.5,-598 44.5,0 207.5,0 207.5,-598"/>
<text text-anchor="start" x="61" y="-586" font-family="Helvetica,sans-Serif" font-size="10.00">Terraria.GameContent.Tree</text>
<text text-anchor="start" x="84" y="-575" font-family="Helvetica,sans-Serif" font-size="10.00">PaintSystemData</text>
<text text-anchor="start" x="49" y="-560" font-family="Helvetica,sans-Serif" font-size="10.00">+</text>
<text text-anchor="start" x="62" y="-560" font-family="Helvetica,sans-Serif" font-size="10.00">TreePaintingSettings</text>
<text text-anchor="start" x="62" y="-549" font-family="Helvetica,sans-Serif" font-size="10.00"> WoodPurity</text>
<text text-anchor="start" x="49" y="-534" font-family="Helvetica,sans-Serif" font-size="10.00">+</text>
<text text-anchor="start" x="62" y="-534" font-family="Helvetica,sans-Serif" font-size="10.00">TreePaintingSettings</text>
<text text-anchor="start" x="62" y="-523" font-family="Helvetica,sans-Serif" font-size="10.00"> WoodCorruption</text>
<text text-anchor="start" x="49" y="-508" font-family="Helvetica,sans-Serif" font-size="10.00">+</text>
<text text-anchor="start" x="62" y="-508" font-family="Helvetica,sans-Serif" font-size="10.00">TreePaintingSettings</text>
<text text-anchor="start" x="62" y="-497" font-family="Helvetica,sans-Serif" font-size="10.00"> WoodJungle</text>
<text text-anchor="start" x="49" y="-482" font-family="Helvetica,sans-Serif" font-size="10.00">+</text>
<text text-anchor="start" x="62" y="-482" font-family="Helvetica,sans-Serif" font-size="10.00">TreePaintingSettings</text>
<text text-anchor="start" x="62" y="-471" font-family="Helvetica,sans-Serif" font-size="10.00"> WoodHallow</text>
<text text-anchor="start" x="49" y="-456" font-family="Helvetica,sans-Serif" font-size="10.00">+</text>
<text text-anchor="start" x="62" y="-456" font-family="Helvetica,sans-Serif" font-size="10.00">TreePaintingSettings</text>
<text text-anchor="start" x="62" y="-445" font-family="Helvetica,sans-Serif" font-size="10.00"> WoodSnow</text>
<text text-anchor="start" x="49" y="-430" font-family="Helvetica,sans-Serif" font-size="10.00">+</text>
<text text-anchor="start" x="62" y="-430" font-family="Helvetica,sans-Serif" font-size="10.00">TreePaintingSettings</text>
<text text-anchor="start" x="62" y="-419" font-family="Helvetica,sans-Serif" font-size="10.00"> WoodCrimson</text>
<text text-anchor="start" x="49" y="-404" font-family="Helvetica,sans-Serif" font-size="10.00">+</text>
<text text-anchor="start" x="62" y="-404" font-family="Helvetica,sans-Serif" font-size="10.00">TreePaintingSettings</text>
<text text-anchor="start" x="62" y="-393" font-family="Helvetica,sans-Serif" font-size="10.00"> WoodJungleUnderground</text>
<text text-anchor="start" x="49" y="-378" font-family="Helvetica,sans-Serif" font-size="10.00">+</text>
<text text-anchor="start" x="62" y="-378" font-family="Helvetica,sans-Serif" font-size="10.00">TreePaintingSettings</text>
<text text-anchor="start" x="62" y="-367" font-family="Helvetica,sans-Serif" font-size="10.00"> WoodGlowingMushroom</text>
<text text-anchor="start" x="49" y="-352" font-family="Helvetica,sans-Serif" font-size="10.00">+</text>
<text text-anchor="start" x="62" y="-352" font-family="Helvetica,sans-Serif" font-size="10.00">TreePaintingSettings</text>
<text text-anchor="start" x="62" y="-341" font-family="Helvetica,sans-Serif" font-size="10.00"> VanityYellowWillow</text>
<text text-anchor="start" x="51.5" y="-326" font-family="Helvetica,sans-Serif" font-size="10.00">&#45;</text>
<text text-anchor="start" x="62" y="-326" font-family="Helvetica,sans-Serif" font-size="10.00">TreePaintingSettings</text>
<text text-anchor="start" x="62" y="-315" font-family="Helvetica,sans-Serif" font-size="10.00"> GemTreeAmber</text>
<text text-anchor="start" x="51.5" y="-300" font-family="Helvetica,sans-Serif" font-size="10.00">&#45;</text>
<text text-anchor="start" x="62" y="-300" font-family="Helvetica,sans-Serif" font-size="10.00">TreePaintingSettings</text>
<text text-anchor="start" x="62" y="-289" font-family="Helvetica,sans-Serif" font-size="10.00"> GemTreeSapphire</text>
<text text-anchor="start" x="51.5" y="-274" font-family="Helvetica,sans-Serif" font-size="10.00">&#45;</text>
<text text-anchor="start" x="62" y="-274" font-family="Helvetica,sans-Serif" font-size="10.00">TreePaintingSettings</text>
<text text-anchor="start" x="62" y="-263" font-family="Helvetica,sans-Serif" font-size="10.00"> GemTreeEmerald</text>
<text text-anchor="start" x="51.5" y="-248" font-family="Helvetica,sans-Serif" font-size="10.00">&#45;</text>
<text text-anchor="start" x="62" y="-248" font-family="Helvetica,sans-Serif" font-size="10.00">TreePaintingSettings</text>
<text text-anchor="start" x="62" y="-237" font-family="Helvetica,sans-Serif" font-size="10.00"> GemTreeAmethyst</text>
<text text-anchor="start" x="51.5" y="-222" font-family="Helvetica,sans-Serif" font-size="10.00">&#45;</text>
<text text-anchor="start" x="62" y="-222" font-family="Helvetica,sans-Serif" font-size="10.00">TreePaintingSettings</text>
<text text-anchor="start" x="62" y="-211" font-family="Helvetica,sans-Serif" font-size="10.00"> GemTreeTopaz</text>
<text text-anchor="start" x="51.5" y="-196" font-family="Helvetica,sans-Serif" font-size="10.00">&#45;</text>
<text text-anchor="start" x="62" y="-196" font-family="Helvetica,sans-Serif" font-size="10.00">TreePaintingSettings</text>
<text text-anchor="start" x="62" y="-185" font-family="Helvetica,sans-Serif" font-size="10.00"> GemTreeDiamond</text>
<text text-anchor="start" x="51.5" y="-170" font-family="Helvetica,sans-Serif" font-size="10.00">&#45;</text>
<text text-anchor="start" x="62" y="-170" font-family="Helvetica,sans-Serif" font-size="10.00">static TreePaintingSettings</text>
<text text-anchor="start" x="62" y="-159" font-family="Helvetica,sans-Serif" font-size="10.00"> TreeAsh</text>
<text text-anchor="start" x="49" y="-144" font-family="Helvetica,sans-Serif" font-size="10.00">+</text>
<text text-anchor="start" x="62" y="-144" font-family="Helvetica,sans-Serif" font-size="10.00">TreePaintingSettings</text>
<text text-anchor="start" x="62" y="-133" font-family="Helvetica,sans-Serif" font-size="10.00"> GetTileSettings(int</text>
<text text-anchor="start" x="62" y="-122" font-family="Helvetica,sans-Serif" font-size="10.00"> tileType, int tileStyle)</text>
<text text-anchor="start" x="49" y="-107" font-family="Helvetica,sans-Serif" font-size="10.00">+</text>
<text text-anchor="start" x="62" y="-107" font-family="Helvetica,sans-Serif" font-size="10.00">TreePaintingSettings</text>
<text text-anchor="start" x="62" y="-96" font-family="Helvetica,sans-Serif" font-size="10.00"> GetTreeFoliageSettings</text>
<text text-anchor="start" x="62" y="-85" font-family="Helvetica,sans-Serif" font-size="10.00">(int foliageIndex, int</text>
<text text-anchor="start" x="62" y="-74" font-family="Helvetica,sans-Serif" font-size="10.00"> foliageStyle)</text>
<text text-anchor="start" x="49" y="-59" font-family="Helvetica,sans-Serif" font-size="10.00">+</text>
<text text-anchor="start" x="62" y="-59" font-family="Helvetica,sans-Serif" font-size="10.00">TreePaintingSettings</text>
<text text-anchor="start" x="62" y="-48" font-family="Helvetica,sans-Serif" font-size="10.00"> GetWallSettings(int</text>
<text text-anchor="start" x="62" y="-37" font-family="Helvetica,sans-Serif" font-size="10.00"> wallType)</text>
<text text-anchor="start" x="49" y="-22" font-family="Helvetica,sans-Serif" font-size="10.00">+</text>
<text text-anchor="start" x="62" y="-22" font-family="Helvetica,sans-Serif" font-size="10.00">TreePaintSystemData()</text>
<text text-anchor="start" x="51.5" y="-7" font-family="Helvetica,sans-Serif" font-size="10.00">&#45;</text>
<text text-anchor="start" x="62" y="-7" font-family="Helvetica,sans-Serif" font-size="10.00">static TreePaintSystemData()</text>
<polygon fill="#666666" stroke="#666666" points="45,-570 45,-570 208,-570 208,-570 45,-570"/>
<polygon fill="#666666" stroke="#666666" points="45,-154 45,-154 60,-154 60,-154 45,-154"/>
<polygon fill="#666666" stroke="#666666" points="60,-154 60,-154 208,-154 208,-154 60,-154"/>
<polygon fill="none" stroke="#666666" points="44.5,0 44.5,-598 207.5,-598 207.5,0 44.5,0"/>
</a>
</g>
</g>
<!-- Node2 -->
<g id="Node000002" class="node">
<title>Node2</title>
<g id="a_Node000002"><a xlink:href="../../da/ddc/classTerraria_1_1GameContent_1_1TreePaintingSettings.html" target="_top" xlink:title=" ">
<polygon fill="white" stroke="transparent" points="196.5,-826 55.5,-826 55.5,-766 196.5,-766 196.5,-826"/>
<text text-anchor="start" x="61" y="-814" font-family="Helvetica,sans-Serif" font-size="10.00">Terraria.GameContent.Tree</text>
<text text-anchor="start" x="87" y="-803" font-family="Helvetica,sans-Serif" font-size="10.00">PaintingSettings</text>
<text text-anchor="start" x="124.5" y="-788" font-family="Helvetica,sans-Serif" font-size="10.00"> </text>
<text text-anchor="start" x="63" y="-773" font-family="Helvetica,sans-Serif" font-size="10.00">+</text>
<text text-anchor="start" x="79" y="-773" font-family="Helvetica,sans-Serif" font-size="10.00">TreePaintingSettings()</text>
<polygon fill="#666666" stroke="#666666" points="56,-798 56,-798 197,-798 197,-798 56,-798"/>
<polygon fill="#666666" stroke="#666666" points="56,-783 56,-783 197,-783 197,-783 56,-783"/>
<polygon fill="none" stroke="#666666" points="55.5,-766 55.5,-826 196.5,-826 196.5,-766 55.5,-766"/>
</a>
</g>
</g>
<!-- Node2&#45;&gt;Node1 -->
<g id="edge1_Node000001_Node000002" class="edge">
<title>Node2&#45;&gt;Node1</title>
<g id="a_edge1_Node000001_Node000002"><a xlink:title=" ">
<path fill="none" stroke="#63b8ff" d="M126,-765.88C126,-732.62 126,-674.43 126,-610.2"/>
<polygon fill="none" stroke="#63b8ff" points="126,-610.14 122,-604.14 126,-598.14 130,-604.14 126,-610.14"/>
</a>
</g>
<text text-anchor="middle" x="190" y="-740" font-family="Helvetica,sans-Serif" font-size="10.00" fill="grey"> +CullMud</text>
<text text-anchor="middle" x="190" y="-729" font-family="Helvetica,sans-Serif" font-size="10.00" fill="grey">+DefaultDirt</text>
<text text-anchor="middle" x="190" y="-718" font-family="Helvetica,sans-Serif" font-size="10.00" fill="grey">+DefaultNoSpecialGroups</text>
<text text-anchor="start" x="126" y="-707" font-family="Helvetica,sans-Serif" font-size="10.00" fill="grey">+DefaultNoSpecialGroups</text>
<text text-anchor="middle" x="190" y="-696" font-family="Helvetica,sans-Serif" font-size="10.00" fill="grey">_ForWalls</text>
<text text-anchor="middle" x="190" y="-685" font-family="Helvetica,sans-Serif" font-size="10.00" fill="grey">+GemTreeRuby</text>
<text text-anchor="middle" x="190" y="-674" font-family="Helvetica,sans-Serif" font-size="10.00" fill="grey">+PalmTreeCorruption</text>
<text text-anchor="middle" x="190" y="-663" font-family="Helvetica,sans-Serif" font-size="10.00" fill="grey">+PalmTreeCrimson</text>
<text text-anchor="middle" x="190" y="-652" font-family="Helvetica,sans-Serif" font-size="10.00" fill="grey">+PalmTreeHallow</text>
<text text-anchor="middle" x="190" y="-641" font-family="Helvetica,sans-Serif" font-size="10.00" fill="grey">+PalmTreePurity</text>
<text text-anchor="middle" x="190" y="-630" font-family="Helvetica,sans-Serif" font-size="10.00" fill="grey">+VanityCherry</text>
<text text-anchor="middle" x="190" y="-619" font-family="Helvetica,sans-Serif" font-size="10.00" fill="grey">...</text>
</g>
<!-- Node2&#45;&gt;Node2 -->
<g id="edge2_Node000002_Node000002" class="edge">
<title>Node2&#45;&gt;Node2</title>
<g id="a_edge2_Node000002_Node000002"><a xlink:title=" ">
<path fill="none" stroke="#63b8ff" d="M196.83,-810.63C207.37,-808.35 214.5,-803.47 214.5,-796 214.5,-791.68 212.12,-788.23 208.07,-785.64"/>
<polygon fill="none" stroke="#63b8ff" points="208.04,-785.63 201.01,-787.24 196.83,-781.37 203.85,-779.76 208.04,-785.63"/>
</a>
</g>
<text text-anchor="middle" x="225" y="-793.5" font-family="Helvetica,sans-Serif" font-size="10.00" fill="grey"> +Id</text>
</g>
<!-- Node3 -->
<g id="Node000003" class="node">
<title>Node3</title>
<g id="a_Node000003"><a xlink:title=" ">
<polygon fill="white" stroke="transparent" points="32,-988 0,-988 0,-939 32,-939 32,-988"/>
<text text-anchor="start" x="5" y="-975.5" font-family="Helvetica,sans-Serif" font-size="10.00">float</text>
<text text-anchor="start" x="14" y="-960.5" font-family="Helvetica,sans-Serif" font-size="10.00"> </text>
<text text-anchor="start" x="14" y="-945.5" font-family="Helvetica,sans-Serif" font-size="10.00"> </text>
<polygon fill="#666666" stroke="#666666" points="0,-970.5 0,-970.5 32,-970.5 32,-970.5 0,-970.5"/>
<polygon fill="#666666" stroke="#666666" points="0,-955.5 0,-955.5 32,-955.5 32,-955.5 0,-955.5"/>
<polygon fill="none" stroke="#666666" points="0,-939 0,-988 32,-988 32,-939 0,-939"/>
</a>
</g>
</g>
<!-- Node3&#45;&gt;Node2 -->
<g id="edge3_Node000002_Node000003" class="edge">
<title>Node3&#45;&gt;Node2</title>
<g id="a_edge3_Node000002_Node000003"><a xlink:title=" ">
<path fill="none" stroke="#63b8ff" d="M9.17,-938.95C3.24,-913.33 -1.78,-872.28 17,-844 23.95,-833.53 33.78,-825.38 44.72,-819.03"/>
<polygon fill="none" stroke="#63b8ff" points="44.82,-818.98 48.33,-812.68 55.49,-813.49 51.99,-819.8 44.82,-818.98"/>
</a>
</g>
<text text-anchor="middle" x="115.5" y="-913" font-family="Helvetica,sans-Serif" font-size="10.00" fill="grey"> +HueTestOffset</text>
<text text-anchor="start" x="17" y="-902" font-family="Helvetica,sans-Serif" font-size="10.00" fill="grey">+SpecialGroupMaximumHue</text>
<text text-anchor="middle" x="115.5" y="-891" font-family="Helvetica,sans-Serif" font-size="10.00" fill="grey">Value</text>
<text text-anchor="start" x="17" y="-880" font-family="Helvetica,sans-Serif" font-size="10.00" fill="grey">+SpecialGroupMaximumSaturation</text>
<text text-anchor="middle" x="115.5" y="-869" font-family="Helvetica,sans-Serif" font-size="10.00" fill="grey">Value</text>
<text text-anchor="middle" x="115.5" y="-858" font-family="Helvetica,sans-Serif" font-size="10.00" fill="grey">+SpecialGroupMinimalHueValue</text>
<text text-anchor="middle" x="115.5" y="-847" font-family="Helvetica,sans-Serif" font-size="10.00" fill="grey">+SpecialGroupMinimumSaturationValue</text>
</g>
<!-- Node4 -->
<g id="Node000004" class="node">
<title>Node4</title>
<g id="a_Node000004"><a xlink:title=" ">
<polygon fill="white" stroke="transparent" points="252,-988 220,-988 220,-939 252,-939 252,-988"/>
<text text-anchor="start" x="225" y="-975.5" font-family="Helvetica,sans-Serif" font-size="10.00">bool</text>
<text text-anchor="start" x="234" y="-960.5" font-family="Helvetica,sans-Serif" font-size="10.00"> </text>
<text text-anchor="start" x="234" y="-945.5" font-family="Helvetica,sans-Serif" font-size="10.00"> </text>
<polygon fill="#666666" stroke="#666666" points="220,-970.5 220,-970.5 252,-970.5 252,-970.5 220,-970.5"/>
<polygon fill="#666666" stroke="#666666" points="220,-955.5 220,-955.5 252,-955.5 252,-955.5 220,-955.5"/>
<polygon fill="none" stroke="#666666" points="220,-939 220,-988 252,-988 252,-939 220,-939"/>
</a>
</g>
</g>
<!-- Node4&#45;&gt;Node2 -->
<g id="edge4_Node000002_Node000004" class="edge">
<title>Node4&#45;&gt;Node2</title>
<g id="a_edge4_Node000002_Node000004"><a xlink:title=" ">
<path fill="none" stroke="#63b8ff" d="M237.37,-938.79C237.64,-913.03 234.39,-871.86 214,-844 211.34,-840.36 208.31,-836.98 205.01,-833.83"/>
<polygon fill="none" stroke="#63b8ff" points="204.93,-833.77 197.76,-832.98 195.73,-826.06 202.9,-826.85 204.93,-833.77"/>
</a>
</g>
<text text-anchor="middle" x="304" y="-891" font-family="Helvetica,sans-Serif" font-size="10.00" fill="grey"> +InvertSpecialGroupResult</text>
<text text-anchor="middle" x="304" y="-880" font-family="Helvetica,sans-Serif" font-size="10.00" fill="grey">+UseSpecialGroups</text>
<text text-anchor="middle" x="304" y="-869" font-family="Helvetica,sans-Serif" font-size="10.00" fill="grey">+UseWallShaderHacks</text>
</g>
</g>
</svg>

<g id="navigator" transform="translate(0 0)" fill="#404254">
  <rect fill="#f2f5e9" fill-opacity="0.5" stroke="#606060" stroke-width=".5" x="0" y="0" width="60" height="60"/>
  <use id="zoomplus" xlink:href="#zoomPlus" x="17" y="9" onmousedown="handleZoom(evt,'in')"/>
  <use id="zoomminus" xlink:href="#zoomMin" x="42" y="9" onmousedown="handleZoom(evt,'out')"/>
  <use id="reset" xlink:href="#resetDef" x="30" y="36" onmousedown="handleReset()"/>
   <use id="arrowup" xlink:href="#arrowUp" x="0" y="0" onmousedown="handlePan(0,-1)"/>
  <use id="arrowright" xlink:href="#arrowRight" x="0" y="0" onmousedown="handlePan(1,0)"/>
  <use id="arrowdown" xlink:href="#arrowDown" x="0" y="0" onmousedown="handlePan(0,1)"/>
  <use id="arrowleft" xlink:href="#arrowLeft" x="0" y="0" onmousedown="handlePan(-1,0)"/>
</g>
<svg viewBox="0 0 15 15" width="100%" height="30px" preserveAspectRatio="xMaxYMin meet">
 <g id="arrow_out" transform="scale(0.3 0.3)">
  <a xlink:href="classTerraria_1_1GameContent_1_1TreePaintSystemData__coll__graph_org.svg" target="_base">
   <rect id="button" ry="5" rx="5" y="6" x="6" height="38" width="38"
        fill="#f2f5e9" fill-opacity="0.5" stroke="#606060" stroke-width="1.0"/>
   <path id="arrow"
     d="M 11.500037,31.436501 C 11.940474,20.09759 22.043105,11.32322 32.158766,21.979434 L 37.068811,17.246167 C 37.068811,17.246167 37.088388,32 37.088388,32 L 22.160133,31.978069 C 22.160133,31.978069 26.997745,27.140456 26.997745,27.140456 C 18.528582,18.264221 13.291696,25.230495 11.500037,31.436501 z"
     style="fill:#404040;"/>
  </a>
 </g>
</svg>

<style type='text/css'>
<![CDATA[
[data-mouse-over-selected='false'] { opacity: 0.7; }
[data-mouse-over-selected='true']  { opacity: 1.0; }
]]>
</style>
<script type="application/ecmascript"><![CDATA[
document.addEventListener('DOMContentLoaded', (event) => {
  highlightEdges();
  highlightAdjacentNodes();
});
]]></script>
</svg>
