<?xml version="1.0" encoding="UTF-8" standalone="no"?>
<!DOCTYPE svg PUBLIC "-//W3C//DTD SVG 1.1//EN"
 "http://www.w3.org/Graphics/SVG/1.1/DTD/svg11.dtd">
<!-- Generated by graphviz version 2.43.0 (0)
 -->
<!-- Title: System.MissingMemberException Pages: 1 -->
<svg width="315pt" height="346pt"
 viewBox="0.00 0.00 315.00 346.00" xmlns="http://www.w3.org/2000/svg" xmlns:xlink="http://www.w3.org/1999/xlink">

<svg id="main" version="1.1" xmlns="http://www.w3.org/2000/svg" xmlns:xlink="http://www.w3.org/1999/xlink" xml:space="preserve" onload="init(evt)">
<style type="text/css"><![CDATA[
.node, .edge {opacity: 0.7;}
.node.selected, .edge.selected {opacity: 1;}
.edge:hover path { stroke: red; }
.edge:hover polygon { stroke: red; fill: red; }
]]></style>
<script type="application/ecmascript" xlink:href="../../svg.min.js"/>
<svg id="graph" class="graph">
<g id="graph0" class="graph" transform="scale(1 1) rotate(0) translate(4 342)">
<title>System.MissingMemberException</title>
<!-- Node1 -->
<g id="Node000001" class="node">
<title>Node1</title>
<g id="a_Node000001"><a xlink:title=" ">
<polygon fill="#999999" stroke="transparent" points="307,-242 0,-242 0,0 307,0 307,-242"/>
<text text-anchor="start" x="71" y="-230" font-family="Helvetica,sans-Serif" font-size="10.00">System.MissingMemberException</text>
<text text-anchor="start" x="4.5" y="-215" font-family="Helvetica,sans-Serif" font-size="10.00">+</text>
<text text-anchor="start" x="17.5" y="-215" font-family="Helvetica,sans-Serif" font-size="10.00">override string Message</text>
<text text-anchor="start" x="4.5" y="-200" font-family="Helvetica,sans-Serif" font-size="10.00">#</text>
<text text-anchor="start" x="17.5" y="-200" font-family="Helvetica,sans-Serif" font-size="10.00">string ClassName</text>
<text text-anchor="start" x="4.5" y="-185" font-family="Helvetica,sans-Serif" font-size="10.00">#</text>
<text text-anchor="start" x="17.5" y="-185" font-family="Helvetica,sans-Serif" font-size="10.00">string MemberName</text>
<text text-anchor="start" x="4.5" y="-170" font-family="Helvetica,sans-Serif" font-size="10.00">#</text>
<text text-anchor="start" x="17.5" y="-170" font-family="Helvetica,sans-Serif" font-size="10.00">byte[] Signature</text>
<text text-anchor="start" x="4.5" y="-155" font-family="Helvetica,sans-Serif" font-size="10.00">+</text>
<text text-anchor="start" x="17.5" y="-155" font-family="Helvetica,sans-Serif" font-size="10.00">MissingMemberException()</text>
<text text-anchor="start" x="4.5" y="-140" font-family="Helvetica,sans-Serif" font-size="10.00">+</text>
<text text-anchor="start" x="17.5" y="-140" font-family="Helvetica,sans-Serif" font-size="10.00">MissingMemberException</text>
<text text-anchor="start" x="17.5" y="-129" font-family="Helvetica,sans-Serif" font-size="10.00">(string message)</text>
<text text-anchor="start" x="4.5" y="-114" font-family="Helvetica,sans-Serif" font-size="10.00">+</text>
<text text-anchor="start" x="17.5" y="-114" font-family="Helvetica,sans-Serif" font-size="10.00">override void GetObjectData</text>
<text text-anchor="start" x="17.5" y="-103" font-family="Helvetica,sans-Serif" font-size="10.00">(global::System.Runtime.Serialization.</text>
<text text-anchor="start" x="17.5" y="-92" font-family="Helvetica,sans-Serif" font-size="10.00">SerializationInfo info, global::</text>
<text text-anchor="start" x="17.5" y="-81" font-family="Helvetica,sans-Serif" font-size="10.00">System.Runtime.Serialization.StreamingContext context)</text>
<text text-anchor="start" x="4.5" y="-66" font-family="Helvetica,sans-Serif" font-size="10.00">~</text>
<text text-anchor="start" x="17.5" y="-66" font-family="Helvetica,sans-Serif" font-size="10.00">static string FormatSignature</text>
<text text-anchor="start" x="17.5" y="-55" font-family="Helvetica,sans-Serif" font-size="10.00">(byte[] signature)</text>
<text text-anchor="start" x="4.5" y="-40" font-family="Helvetica,sans-Serif" font-size="10.00">#</text>
<text text-anchor="start" x="17.5" y="-40" font-family="Helvetica,sans-Serif" font-size="10.00">MissingMemberException</text>
<text text-anchor="start" x="17.5" y="-29" font-family="Helvetica,sans-Serif" font-size="10.00">(global::System.Runtime.Serialization.</text>
<text text-anchor="start" x="17.5" y="-18" font-family="Helvetica,sans-Serif" font-size="10.00">SerializationInfo info, global</text>
<text text-anchor="start" x="17.5" y="-7" font-family="Helvetica,sans-Serif" font-size="10.00">::System.Runtime.Serialization.StreamingContext context)</text>
<polygon fill="#666666" stroke="#666666" points="0.5,-225 0.5,-225 307.5,-225 307.5,-225 0.5,-225"/>
<polygon fill="#666666" stroke="#666666" points="0.5,-165 0.5,-165 15.5,-165 15.5,-165 0.5,-165"/>
<polygon fill="#666666" stroke="#666666" points="15.5,-165 15.5,-165 307.5,-165 307.5,-165 15.5,-165"/>
<polygon fill="none" stroke="#666666" points="0,0 0,-242 307,-242 307,0 0,0"/>
</a>
</g>
</g>
<!-- Node2 -->
<g id="Node000002" class="node">
<title>Node2</title>
<g id="a_Node000002"><a xlink:title=" ">
<polygon fill="white" stroke="transparent" points="232.5,-338 74.5,-338 74.5,-278 232.5,-278 232.5,-338"/>
<text text-anchor="start" x="79.5" y="-326" font-family="Helvetica,sans-Serif" font-size="10.00">global::SystemMemberAccess</text>
<text text-anchor="start" x="129" y="-315" font-family="Helvetica,sans-Serif" font-size="10.00">Exception</text>
<text text-anchor="start" x="151.5" y="-300" font-family="Helvetica,sans-Serif" font-size="10.00"> </text>
<text text-anchor="start" x="151.5" y="-285" font-family="Helvetica,sans-Serif" font-size="10.00"> </text>
<polygon fill="#666666" stroke="#666666" points="74.5,-310 74.5,-310 232.5,-310 232.5,-310 74.5,-310"/>
<polygon fill="#666666" stroke="#666666" points="74.5,-295 74.5,-295 232.5,-295 232.5,-295 74.5,-295"/>
<polygon fill="none" stroke="#666666" points="74.5,-278 74.5,-338 232.5,-338 232.5,-278 74.5,-278"/>
</a>
</g>
</g>
<!-- Node2&#45;&gt;Node1 -->
<g id="edge1_Node000001_Node000002" class="edge">
<title>Node2&#45;&gt;Node1</title>
<g id="a_edge1_Node000001_Node000002"><a xlink:title=" ">
<path fill="none" stroke="#63b8ff" d="M153.5,-267.49C153.5,-259.64 153.5,-251.01 153.5,-242.01"/>
<polygon fill="none" stroke="#63b8ff" points="150,-267.69 153.5,-277.69 157,-267.69 150,-267.69"/>
</a>
</g>
</g>
</g>
</svg>
</svg>

<style type='text/css'>
<![CDATA[
[data-mouse-over-selected='false'] { opacity: 0.7; }
[data-mouse-over-selected='true']  { opacity: 1.0; }
]]>
</style>
<script type="application/ecmascript"><![CDATA[
document.addEventListener('DOMContentLoaded', (event) => {
  highlightEdges();
  highlightAdjacentNodes();
});
]]></script>
</svg>
