<?xml version="1.0" encoding="UTF-8" standalone="no"?>
<!DOCTYPE svg PUBLIC "-//W3C//DTD SVG 1.1//EN"
 "http://www.w3.org/Graphics/SVG/1.1/DTD/svg11.dtd">
<!-- Generated by graphviz version 2.43.0 (0)
 -->
<!-- Title: ThreadManager Pages: 1 -->
<svg width="401pt" height="542pt"
 viewBox="0.00 0.00 401.00 542.00" xmlns="http://www.w3.org/2000/svg" xmlns:xlink="http://www.w3.org/1999/xlink">
<g id="graph0" class="graph" transform="scale(1 1) rotate(0) translate(4 538)">
<title>ThreadManager</title>
<!-- Node1 -->
<g id="Node000001" class="node">
<title>Node1</title>
<g id="a_Node000001"><a xlink:title=" ">
<polygon fill="#999999" stroke="transparent" points="237,-416 38,-416 38,0 237,0 237,-416"/>
<text text-anchor="start" x="99.5" y="-404" font-family="Helvetica,sans-Serif" font-size="10.00">ThreadManager</text>
<text text-anchor="start" x="136" y="-389" font-family="Helvetica,sans-Serif" font-size="10.00"> </text>
<text text-anchor="start" x="42.5" y="-374" font-family="Helvetica,sans-Serif" font-size="10.00">+</text>
<text text-anchor="start" x="55.5" y="-374" font-family="Helvetica,sans-Serif" font-size="10.00">static ManagedThread</text>
<text text-anchor="start" x="55.5" y="-363" font-family="Helvetica,sans-Serif" font-size="10.00"> Run(ParameterizedThreadStart</text>
<text text-anchor="start" x="55.5" y="-352" font-family="Helvetica,sans-Serif" font-size="10.00"> callBack, object state)</text>
<text text-anchor="start" x="42.5" y="-337" font-family="Helvetica,sans-Serif" font-size="10.00">+</text>
<text text-anchor="start" x="55.5" y="-337" font-family="Helvetica,sans-Serif" font-size="10.00">static ManagedThread</text>
<text text-anchor="start" x="55.5" y="-326" font-family="Helvetica,sans-Serif" font-size="10.00"> Run(ThreadStart callBack)</text>
<text text-anchor="start" x="42.5" y="-311" font-family="Helvetica,sans-Serif" font-size="10.00">+</text>
<text text-anchor="start" x="55.5" y="-311" font-family="Helvetica,sans-Serif" font-size="10.00">static ManagedThread</text>
<text text-anchor="start" x="55.5" y="-300" font-family="Helvetica,sans-Serif" font-size="10.00"> RunForUser(ParameterizedThread</text>
<text text-anchor="start" x="55.5" y="-289" font-family="Helvetica,sans-Serif" font-size="10.00">Start callBack, object state,</text>
<text text-anchor="start" x="55.5" y="-278" font-family="Helvetica,sans-Serif" font-size="10.00"> LocalUser user)</text>
<text text-anchor="start" x="42.5" y="-263" font-family="Helvetica,sans-Serif" font-size="10.00">+</text>
<text text-anchor="start" x="55.5" y="-263" font-family="Helvetica,sans-Serif" font-size="10.00">static ManagedThread</text>
<text text-anchor="start" x="55.5" y="-252" font-family="Helvetica,sans-Serif" font-size="10.00"> RunForUser(ThreadStart</text>
<text text-anchor="start" x="55.5" y="-241" font-family="Helvetica,sans-Serif" font-size="10.00"> callBack, LocalUser user)</text>
<text text-anchor="start" x="42.5" y="-226" font-family="Helvetica,sans-Serif" font-size="10.00">+</text>
<text text-anchor="start" x="55.5" y="-226" font-family="Helvetica,sans-Serif" font-size="10.00">static ManagedThread</text>
<text text-anchor="start" x="55.5" y="-215" font-family="Helvetica,sans-Serif" font-size="10.00"> RunForUserCritical(Parameterized</text>
<text text-anchor="start" x="55.5" y="-204" font-family="Helvetica,sans-Serif" font-size="10.00">ThreadStart callBack, object</text>
<text text-anchor="start" x="55.5" y="-193" font-family="Helvetica,sans-Serif" font-size="10.00"> state, LocalUser user)</text>
<text text-anchor="start" x="42.5" y="-178" font-family="Helvetica,sans-Serif" font-size="10.00">+</text>
<text text-anchor="start" x="55.5" y="-178" font-family="Helvetica,sans-Serif" font-size="10.00">static ManagedThread</text>
<text text-anchor="start" x="55.5" y="-167" font-family="Helvetica,sans-Serif" font-size="10.00"> RunCritical(ThreadStart</text>
<text text-anchor="start" x="55.5" y="-156" font-family="Helvetica,sans-Serif" font-size="10.00"> callBack)</text>
<text text-anchor="start" x="42.5" y="-141" font-family="Helvetica,sans-Serif" font-size="10.00">+</text>
<text text-anchor="start" x="55.5" y="-141" font-family="Helvetica,sans-Serif" font-size="10.00">static void Update()</text>
<text text-anchor="start" x="42.5" y="-126" font-family="Helvetica,sans-Serif" font-size="10.00">+</text>
<text text-anchor="start" x="55.5" y="-126" font-family="Helvetica,sans-Serif" font-size="10.00">static void TerminateUser</text>
<text text-anchor="start" x="55.5" y="-115" font-family="Helvetica,sans-Serif" font-size="10.00">Threads(LocalUser user)</text>
<text text-anchor="start" x="42.5" y="-100" font-family="Helvetica,sans-Serif" font-size="10.00">+</text>
<text text-anchor="start" x="55.5" y="-100" font-family="Helvetica,sans-Serif" font-size="10.00">static void TerminateThread</text>
<text text-anchor="start" x="55.5" y="-89" font-family="Helvetica,sans-Serif" font-size="10.00">(ManagedThread thread)</text>
<text text-anchor="start" x="42.5" y="-74" font-family="Helvetica,sans-Serif" font-size="10.00">+</text>
<text text-anchor="start" x="55.5" y="-74" font-family="Helvetica,sans-Serif" font-size="10.00">static void TerminateThread</text>
<text text-anchor="start" x="55.5" y="-63" font-family="Helvetica,sans-Serif" font-size="10.00">AndWait(ManagedThread thread)</text>
<text text-anchor="start" x="42.5" y="-48" font-family="Helvetica,sans-Serif" font-size="10.00">+</text>
<text text-anchor="start" x="55.5" y="-48" font-family="Helvetica,sans-Serif" font-size="10.00">static void TerminateAll()</text>
<text text-anchor="start" x="42.5" y="-33" font-family="Helvetica,sans-Serif" font-size="10.00">+</text>
<text text-anchor="start" x="55.5" y="-33" font-family="Helvetica,sans-Serif" font-size="10.00">static bool IsThreadRunning</text>
<text text-anchor="start" x="55.5" y="-22" font-family="Helvetica,sans-Serif" font-size="10.00">(ManagedThread thread)</text>
<text text-anchor="start" x="42.5" y="-7" font-family="Helvetica,sans-Serif" font-size="10.00">+</text>
<text text-anchor="start" x="55.5" y="-7" font-family="Helvetica,sans-Serif" font-size="10.00">static void CheckThreadTerminiate()</text>
<polygon fill="#666666" stroke="#666666" points="38.5,-399 38.5,-399 237.5,-399 237.5,-399 38.5,-399"/>
<polygon fill="#666666" stroke="#666666" points="38.5,-384 38.5,-384 237.5,-384 237.5,-384 38.5,-384"/>
<polygon fill="none" stroke="#666666" points="38,0 38,-416 237,-416 237,0 38,0"/>
</a>
</g>
</g>
<!-- Node2 -->
<g id="Node000002" class="node">
<title>Node2</title>
<g id="a_Node000002"><a xlink:title=" ">
<polygon fill="white" stroke="transparent" points="41,-528.5 0,-528.5 0,-479.5 41,-479.5 41,-528.5"/>
<text text-anchor="start" x="5.5" y="-516" font-family="Helvetica,sans-Serif" font-size="10.00">object</text>
<text text-anchor="start" x="19" y="-501" font-family="Helvetica,sans-Serif" font-size="10.00"> </text>
<text text-anchor="start" x="19" y="-486" font-family="Helvetica,sans-Serif" font-size="10.00"> </text>
<polygon fill="#666666" stroke="#666666" points="0.5,-511 0.5,-511 41.5,-511 41.5,-511 0.5,-511"/>
<polygon fill="#666666" stroke="#666666" points="0.5,-496 0.5,-496 41.5,-496 41.5,-496 0.5,-496"/>
<polygon fill="none" stroke="#666666" points="0,-479.5 0,-528.5 41,-528.5 41,-479.5 0,-479.5"/>
</a>
</g>
</g>
<!-- Node2&#45;&gt;Node1 -->
<g id="edge1_Node000001_Node000002" class="edge">
<title>Node2&#45;&gt;Node1</title>
<g id="a_edge1_Node000001_Node000002"><a xlink:title=" ">
<path fill="none" stroke="#63b8ff" d="M29.88,-479.44C35.19,-466.1 42.4,-447.97 50.6,-427.37"/>
<polygon fill="none" stroke="#63b8ff" points="50.67,-427.19 49.17,-420.14 55.1,-416.04 56.6,-423.1 50.67,-427.19"/>
</a>
</g>
<text text-anchor="middle" x="77" y="-442.5" font-family="Helvetica,sans-Serif" font-size="10.00" fill="grey"> &#45;LockObject</text>
</g>
<!-- Node3 -->
<g id="Node000003" class="node">
<title>Node3</title>
<g id="a_Node000003"><a xlink:title=" ">
<polygon fill="white" stroke="transparent" points="216.5,-534 58.5,-534 58.5,-474 216.5,-474 216.5,-534"/>
<text text-anchor="start" x="63.5" y="-522" font-family="Helvetica,sans-Serif" font-size="10.00">static Dictionary&lt;</text>
<text text-anchor="start" x="63.5" y="-511" font-family="Helvetica,sans-Serif" font-size="10.00"> ManagedThread, LocalUser &gt;</text>
<text text-anchor="start" x="135.5" y="-496" font-family="Helvetica,sans-Serif" font-size="10.00"> </text>
<text text-anchor="start" x="135.5" y="-481" font-family="Helvetica,sans-Serif" font-size="10.00"> </text>
<polygon fill="#666666" stroke="#666666" points="58.5,-506 58.5,-506 216.5,-506 216.5,-506 58.5,-506"/>
<polygon fill="#666666" stroke="#666666" points="58.5,-491 58.5,-491 216.5,-491 216.5,-491 58.5,-491"/>
<polygon fill="none" stroke="#666666" points="58.5,-474 58.5,-534 216.5,-534 216.5,-474 58.5,-474"/>
</a>
</g>
</g>
<!-- Node3&#45;&gt;Node1 -->
<g id="edge2_Node000001_Node000003" class="edge">
<title>Node3&#45;&gt;Node1</title>
<g id="a_edge2_Node000001_Node000003"><a xlink:title=" ">
<path fill="none" stroke="#63b8ff" d="M137.5,-473.74C137.5,-461.34 137.5,-445.73 137.5,-428.32"/>
<polygon fill="none" stroke="#63b8ff" points="137.5,-428.31 133.5,-422.31 137.5,-416.31 141.5,-422.31 137.5,-428.31"/>
</a>
</g>
<text text-anchor="middle" x="169" y="-442.5" font-family="Helvetica,sans-Serif" font-size="10.00" fill="grey"> &#45;ThreadUser</text>
</g>
<!-- Node4 -->
<g id="Node000004" class="node">
<title>Node4</title>
<g id="a_Node000004"><a xlink:title=" ">
<polygon fill="white" stroke="transparent" points="393,-528.5 234,-528.5 234,-479.5 393,-479.5 393,-528.5"/>
<text text-anchor="start" x="239.5" y="-516" font-family="Helvetica,sans-Serif" font-size="10.00">static List&lt; ManagedThread &gt;</text>
<text text-anchor="start" x="312" y="-501" font-family="Helvetica,sans-Serif" font-size="10.00"> </text>
<text text-anchor="start" x="312" y="-486" font-family="Helvetica,sans-Serif" font-size="10.00"> </text>
<polygon fill="#666666" stroke="#666666" points="234.5,-511 234.5,-511 393.5,-511 393.5,-511 234.5,-511"/>
<polygon fill="#666666" stroke="#666666" points="234.5,-496 234.5,-496 393.5,-496 393.5,-496 234.5,-496"/>
<polygon fill="none" stroke="#666666" points="234,-479.5 234,-528.5 393,-528.5 393,-479.5 234,-479.5"/>
</a>
</g>
</g>
<!-- Node4&#45;&gt;Node1 -->
<g id="edge3_Node000001_Node000004" class="edge">
<title>Node4&#45;&gt;Node1</title>
<g id="a_edge3_Node000001_Node000004"><a xlink:title=" ">
<path fill="none" stroke="#63b8ff" d="M299.39,-479.44C286.35,-457.64 265.65,-423.07 243.36,-385.83"/>
<polygon fill="none" stroke="#63b8ff" points="243.19,-385.56 236.68,-382.46 237.03,-375.26 243.54,-378.36 243.19,-385.56"/>
</a>
</g>
<text text-anchor="middle" x="334" y="-448" font-family="Helvetica,sans-Serif" font-size="10.00" fill="grey"> &#45;ActiveThreads</text>
<text text-anchor="middle" x="334" y="-437" font-family="Helvetica,sans-Serif" font-size="10.00" fill="grey">&#45;ThreadsToShutdown</text>
</g>
</g>
</svg>
