<?xml version="1.0" encoding="UTF-8" standalone="no"?>
<!DOCTYPE svg PUBLIC "-//W3C//DTD SVG 1.1//EN"
 "http://www.w3.org/Graphics/SVG/1.1/DTD/svg11.dtd">
<!-- Generated by graphviz version 2.43.0 (0)
 -->
<!-- Title: System.Runtime.CompilerServices.StateMachineAttribute Pages: 1 -->
<svg width="464pt" height="319pt"
 viewBox="0.00 0.00 464.00 319.00" xmlns="http://www.w3.org/2000/svg" xmlns:xlink="http://www.w3.org/1999/xlink">
<g id="graph0" class="graph" transform="scale(1 1) rotate(0) translate(4 315)">
<title>System.Runtime.CompilerServices.StateMachineAttribute</title>
<!-- Node1 -->
<g id="Node000001" class="node">
<title>Node1</title>
<g id="a_Node000001"><a xlink:title=" ">
<polygon fill="#999999" stroke="transparent" points="337,-226 118,-226 118,-107 337,-107 337,-226"/>
<text text-anchor="start" x="141.5" y="-213.5" font-family="Helvetica,sans-Serif" font-size="10.00">System.Runtime.CompilerServices.</text>
<text text-anchor="start" x="173" y="-202.5" font-family="Helvetica,sans-Serif" font-size="10.00">StateMachineAttribute</text>
<text text-anchor="start" x="122.5" y="-187.5" font-family="Helvetica,sans-Serif" font-size="10.00">+</text>
<text text-anchor="start" x="135.5" y="-187.5" font-family="Helvetica,sans-Serif" font-size="10.00">global::System.Type</text>
<text text-anchor="start" x="135.5" y="-176.5" font-family="Helvetica,sans-Serif" font-size="10.00"> StateMachineType</text>
<text text-anchor="start" x="125" y="-161.5" font-family="Helvetica,sans-Serif" font-size="10.00">&#45;</text>
<text text-anchor="start" x="135.5" y="-161.5" font-family="Helvetica,sans-Serif" font-size="10.00">readonly global::System.</text>
<text text-anchor="start" x="135.5" y="-150.5" font-family="Helvetica,sans-Serif" font-size="10.00">Type&lt; StateMachineType</text>
<text text-anchor="start" x="135.5" y="-139.5" font-family="Helvetica,sans-Serif" font-size="10.00"> &gt; k__BackingField</text>
<text text-anchor="start" x="122.5" y="-124.5" font-family="Helvetica,sans-Serif" font-size="10.00">+</text>
<text text-anchor="start" x="135.5" y="-124.5" font-family="Helvetica,sans-Serif" font-size="10.00">StateMachineAttribute</text>
<text text-anchor="start" x="135.5" y="-113.5" font-family="Helvetica,sans-Serif" font-size="10.00">(global::System.Type stateMachineType)</text>
<polygon fill="#666666" stroke="#666666" points="118.5,-197.5 118.5,-197.5 337.5,-197.5 337.5,-197.5 118.5,-197.5"/>
<polygon fill="#666666" stroke="#666666" points="118.5,-134.5 118.5,-134.5 133.5,-134.5 133.5,-134.5 118.5,-134.5"/>
<polygon fill="#666666" stroke="#666666" points="133.5,-134.5 133.5,-134.5 337.5,-134.5 337.5,-134.5 133.5,-134.5"/>
<polygon fill="none" stroke="#666666" points="118,-107 118,-226 337,-226 337,-107 118,-107"/>
</a>
</g>
</g>
<!-- Node3 -->
<g id="Node000003" class="node">
<title>Node3</title>
<g id="a_Node000003"><a xlink:href="../../da/dcf/classSystem_1_1Runtime_1_1CompilerServices_1_1AsyncStateMachineAttribute.html" target="_top" xlink:title=" ">
<polygon fill="white" stroke="transparent" points="219,-71 0,-71 0,0 219,0 219,-71"/>
<text text-anchor="start" x="23.5" y="-58.5" font-family="Helvetica,sans-Serif" font-size="10.00">System.Runtime.CompilerServices.</text>
<text text-anchor="start" x="40.5" y="-47.5" font-family="Helvetica,sans-Serif" font-size="10.00">AsyncStateMachineAttribute</text>
<text text-anchor="start" x="108" y="-32.5" font-family="Helvetica,sans-Serif" font-size="10.00"> </text>
<text text-anchor="start" x="4.5" y="-17.5" font-family="Helvetica,sans-Serif" font-size="10.00">+</text>
<text text-anchor="start" x="17.5" y="-17.5" font-family="Helvetica,sans-Serif" font-size="10.00">AsyncStateMachineAttribute</text>
<text text-anchor="start" x="17.5" y="-6.5" font-family="Helvetica,sans-Serif" font-size="10.00">(global::System.Type stateMachineType)</text>
<polygon fill="#666666" stroke="#666666" points="0.5,-42.5 0.5,-42.5 219.5,-42.5 219.5,-42.5 0.5,-42.5"/>
<polygon fill="#666666" stroke="#666666" points="0.5,-27.5 0.5,-27.5 219.5,-27.5 219.5,-27.5 0.5,-27.5"/>
<polygon fill="none" stroke="#666666" points="0,0 0,-71 219,-71 219,0 0,0"/>
</a>
</g>
</g>
<!-- Node1&#45;&gt;Node3 -->
<g id="edge2_Node000001_Node000003" class="edge">
<title>Node1&#45;&gt;Node3</title>
<g id="a_edge2_Node000001_Node000003"><a xlink:title=" ">
<path fill="none" stroke="#63b8ff" d="M166.92,-99.27C158.08,-89.61 149.28,-79.99 141.33,-71.3"/>
<polygon fill="none" stroke="#63b8ff" points="164.35,-101.65 173.68,-106.66 169.51,-96.92 164.35,-101.65"/>
</a>
</g>
</g>
<!-- Node4 -->
<g id="Node000004" class="node">
<title>Node4</title>
<g id="a_Node000004"><a xlink:href="../../dc/d06/classSystem_1_1Runtime_1_1CompilerServices_1_1IteratorStateMachineAttribute.html" target="_top" xlink:title=" ">
<polygon fill="white" stroke="transparent" points="456,-71 237,-71 237,0 456,0 456,-71"/>
<text text-anchor="start" x="260.5" y="-58.5" font-family="Helvetica,sans-Serif" font-size="10.00">System.Runtime.CompilerServices.</text>
<text text-anchor="start" x="274" y="-47.5" font-family="Helvetica,sans-Serif" font-size="10.00">IteratorStateMachineAttribute</text>
<text text-anchor="start" x="345" y="-32.5" font-family="Helvetica,sans-Serif" font-size="10.00"> </text>
<text text-anchor="start" x="241.5" y="-17.5" font-family="Helvetica,sans-Serif" font-size="10.00">+</text>
<text text-anchor="start" x="254.5" y="-17.5" font-family="Helvetica,sans-Serif" font-size="10.00">IteratorStateMachineAttribute</text>
<text text-anchor="start" x="254.5" y="-6.5" font-family="Helvetica,sans-Serif" font-size="10.00">(global::System.Type stateMachineType)</text>
<polygon fill="#666666" stroke="#666666" points="237.5,-42.5 237.5,-42.5 456.5,-42.5 456.5,-42.5 237.5,-42.5"/>
<polygon fill="#666666" stroke="#666666" points="237.5,-27.5 237.5,-27.5 456.5,-27.5 456.5,-27.5 237.5,-27.5"/>
<polygon fill="none" stroke="#666666" points="237,0 237,-71 456,-71 456,0 237,0"/>
</a>
</g>
</g>
<!-- Node1&#45;&gt;Node4 -->
<g id="edge3_Node000001_Node000004" class="edge">
<title>Node1&#45;&gt;Node4</title>
<g id="a_edge3_Node000001_Node000004"><a xlink:title=" ">
<path fill="none" stroke="#63b8ff" d="M288.59,-99.27C297.51,-89.61 306.38,-79.99 314.4,-71.3"/>
<polygon fill="none" stroke="#63b8ff" points="285.98,-96.94 281.78,-106.66 291.13,-101.69 285.98,-96.94"/>
</a>
</g>
</g>
<!-- Node2 -->
<g id="Node000002" class="node">
<title>Node2</title>
<g id="a_Node000002"><a xlink:title=" ">
<polygon fill="white" stroke="transparent" points="290.5,-311 164.5,-311 164.5,-262 290.5,-262 290.5,-311"/>
<text text-anchor="start" x="169.5" y="-298.5" font-family="Helvetica,sans-Serif" font-size="10.00">global::SystemAttribute</text>
<text text-anchor="start" x="225.5" y="-283.5" font-family="Helvetica,sans-Serif" font-size="10.00"> </text>
<text text-anchor="start" x="225.5" y="-268.5" font-family="Helvetica,sans-Serif" font-size="10.00"> </text>
<polygon fill="#666666" stroke="#666666" points="164.5,-293.5 164.5,-293.5 290.5,-293.5 290.5,-293.5 164.5,-293.5"/>
<polygon fill="#666666" stroke="#666666" points="164.5,-278.5 164.5,-278.5 290.5,-278.5 290.5,-278.5 164.5,-278.5"/>
<polygon fill="none" stroke="#666666" points="164.5,-262 164.5,-311 290.5,-311 290.5,-262 164.5,-262"/>
</a>
</g>
</g>
<!-- Node2&#45;&gt;Node1 -->
<g id="edge1_Node000001_Node000002" class="edge">
<title>Node2&#45;&gt;Node1</title>
<g id="a_edge1_Node000001_Node000002"><a xlink:title=" ">
<path fill="none" stroke="#63b8ff" d="M227.5,-251.86C227.5,-243.83 227.5,-235.02 227.5,-226.23"/>
<polygon fill="none" stroke="#63b8ff" points="224,-251.9 227.5,-261.9 231,-251.9 224,-251.9"/>
</a>
</g>
</g>
</g>
</svg>
