<?xml version="1.0" encoding="UTF-8" standalone="no"?>
<!DOCTYPE svg PUBLIC "-//W3C//DTD SVG 1.1//EN"
 "http://www.w3.org/Graphics/SVG/1.1/DTD/svg11.dtd">
<!-- Generated by graphviz version 2.43.0 (0)
 -->
<!-- Title: System.ArraySegment&lt; T &gt; Pages: 1 -->
<svg width="1008pt" height="910pt"
 viewBox="0.00 0.00 1007.50 910.00" xmlns="http://www.w3.org/2000/svg" xmlns:xlink="http://www.w3.org/1999/xlink">
<g id="graph0" class="graph" transform="scale(1 1) rotate(0) translate(4 906)">
<title>System.ArraySegment&lt; T &gt;</title>
<!-- Node1 -->
<g id="Node000001" class="node">
<title>Node1</title>
<g id="a_Node000001"><a xlink:title=" ">
<polygon fill="#999999" stroke="transparent" points="581,-806 358,-806 358,0 581,0 581,-806"/>
<text text-anchor="start" x="400.5" y="-794" font-family="Helvetica,sans-Serif" font-size="10.00">System.ArraySegment&lt; T &gt;</text>
<text text-anchor="start" x="362.5" y="-779" font-family="Helvetica,sans-Serif" font-size="10.00">+</text>
<text text-anchor="start" x="375.5" y="-779" font-family="Helvetica,sans-Serif" font-size="10.00">static global::System.Array</text>
<text text-anchor="start" x="375.5" y="-768" font-family="Helvetica,sans-Serif" font-size="10.00">Segment&lt; T &gt; Empty</text>
<text text-anchor="start" x="362.5" y="-753" font-family="Helvetica,sans-Serif" font-size="10.00">+</text>
<text text-anchor="start" x="375.5" y="-753" font-family="Helvetica,sans-Serif" font-size="10.00">T[] Array</text>
<text text-anchor="start" x="362.5" y="-738" font-family="Helvetica,sans-Serif" font-size="10.00">+</text>
<text text-anchor="start" x="375.5" y="-738" font-family="Helvetica,sans-Serif" font-size="10.00">int Offset</text>
<text text-anchor="start" x="362.5" y="-723" font-family="Helvetica,sans-Serif" font-size="10.00">+</text>
<text text-anchor="start" x="375.5" y="-723" font-family="Helvetica,sans-Serif" font-size="10.00">int Count</text>
<text text-anchor="start" x="362.5" y="-708" font-family="Helvetica,sans-Serif" font-size="10.00">+</text>
<text text-anchor="start" x="375.5" y="-708" font-family="Helvetica,sans-Serif" font-size="10.00">T System.Collections.Generic.</text>
<text text-anchor="start" x="375.5" y="-697" font-family="Helvetica,sans-Serif" font-size="10.00">IList&lt; T &gt;. Item</text>
<text text-anchor="start" x="362.5" y="-682" font-family="Helvetica,sans-Serif" font-size="10.00">+</text>
<text text-anchor="start" x="375.5" y="-682" font-family="Helvetica,sans-Serif" font-size="10.00">T System.Collections.Generic.</text>
<text text-anchor="start" x="375.5" y="-671" font-family="Helvetica,sans-Serif" font-size="10.00">IReadOnlyList&lt; T &gt;. Item</text>
<text text-anchor="start" x="362.5" y="-656" font-family="Helvetica,sans-Serif" font-size="10.00">+</text>
<text text-anchor="start" x="375.5" y="-656" font-family="Helvetica,sans-Serif" font-size="10.00">bool System.Collections.</text>
<text text-anchor="start" x="375.5" y="-645" font-family="Helvetica,sans-Serif" font-size="10.00">Generic.ICollection&lt; T</text>
<text text-anchor="start" x="375.5" y="-634" font-family="Helvetica,sans-Serif" font-size="10.00"> &gt;. IsReadOnly</text>
<text text-anchor="start" x="365" y="-619" font-family="Helvetica,sans-Serif" font-size="10.00">&#45;</text>
<text text-anchor="start" x="375.5" y="-619" font-family="Helvetica,sans-Serif" font-size="10.00">readonly T[] _array</text>
<text text-anchor="start" x="365" y="-604" font-family="Helvetica,sans-Serif" font-size="10.00">&#45;</text>
<text text-anchor="start" x="375.5" y="-604" font-family="Helvetica,sans-Serif" font-size="10.00">readonly int _offset</text>
<text text-anchor="start" x="365" y="-589" font-family="Helvetica,sans-Serif" font-size="10.00">&#45;</text>
<text text-anchor="start" x="375.5" y="-589" font-family="Helvetica,sans-Serif" font-size="10.00">readonly int _count</text>
<text text-anchor="start" x="365" y="-574" font-family="Helvetica,sans-Serif" font-size="10.00">&#45;</text>
<text text-anchor="start" x="375.5" y="-574" font-family="Helvetica,sans-Serif" font-size="10.00">static readonly global</text>
<text text-anchor="start" x="375.5" y="-563" font-family="Helvetica,sans-Serif" font-size="10.00">::System.ArraySegment</text>
<text text-anchor="start" x="375.5" y="-552" font-family="Helvetica,sans-Serif" font-size="10.00">&lt; T &gt;&lt; Empty &gt; k__BackingField</text>
<text text-anchor="start" x="362.5" y="-537" font-family="Helvetica,sans-Serif" font-size="10.00">+</text>
<text text-anchor="start" x="375.5" y="-537" font-family="Helvetica,sans-Serif" font-size="10.00">ArraySegment(T[] array)</text>
<text text-anchor="start" x="362.5" y="-522" font-family="Helvetica,sans-Serif" font-size="10.00">+</text>
<text text-anchor="start" x="375.5" y="-522" font-family="Helvetica,sans-Serif" font-size="10.00">ArraySegment(T[] array,</text>
<text text-anchor="start" x="375.5" y="-511" font-family="Helvetica,sans-Serif" font-size="10.00"> int offset, int count)</text>
<text text-anchor="start" x="362.5" y="-496" font-family="Helvetica,sans-Serif" font-size="10.00">+</text>
<text text-anchor="start" x="375.5" y="-496" font-family="Helvetica,sans-Serif" font-size="10.00">global::System.ArraySegment</text>
<text text-anchor="start" x="375.5" y="-485" font-family="Helvetica,sans-Serif" font-size="10.00">&lt; T &gt;.Enumerator GetEnumerator()</text>
<text text-anchor="start" x="362.5" y="-470" font-family="Helvetica,sans-Serif" font-size="10.00">+</text>
<text text-anchor="start" x="375.5" y="-470" font-family="Helvetica,sans-Serif" font-size="10.00">override int GetHashCode()</text>
<text text-anchor="start" x="362.5" y="-455" font-family="Helvetica,sans-Serif" font-size="10.00">+</text>
<text text-anchor="start" x="375.5" y="-455" font-family="Helvetica,sans-Serif" font-size="10.00">void CopyTo(T[] destination,</text>
<text text-anchor="start" x="375.5" y="-444" font-family="Helvetica,sans-Serif" font-size="10.00"> int destinationIndex)</text>
<text text-anchor="start" x="362.5" y="-429" font-family="Helvetica,sans-Serif" font-size="10.00">+</text>
<text text-anchor="start" x="375.5" y="-429" font-family="Helvetica,sans-Serif" font-size="10.00">override bool Equals</text>
<text text-anchor="start" x="375.5" y="-418" font-family="Helvetica,sans-Serif" font-size="10.00">(object obj)</text>
<text text-anchor="start" x="362.5" y="-403" font-family="Helvetica,sans-Serif" font-size="10.00">+</text>
<text text-anchor="start" x="375.5" y="-403" font-family="Helvetica,sans-Serif" font-size="10.00">bool Equals(global</text>
<text text-anchor="start" x="375.5" y="-392" font-family="Helvetica,sans-Serif" font-size="10.00">::System.ArraySegment</text>
<text text-anchor="start" x="375.5" y="-381" font-family="Helvetica,sans-Serif" font-size="10.00">&lt; T &gt; obj)</text>
<text text-anchor="start" x="362.5" y="-366" font-family="Helvetica,sans-Serif" font-size="10.00">+</text>
<text text-anchor="start" x="375.5" y="-366" font-family="Helvetica,sans-Serif" font-size="10.00">static ArraySegment()</text>
<text text-anchor="start" x="365" y="-351" font-family="Helvetica,sans-Serif" font-size="10.00">&#45;</text>
<text text-anchor="start" x="375.5" y="-351" font-family="Helvetica,sans-Serif" font-size="10.00">int System.Collections.Generic.</text>
<text text-anchor="start" x="375.5" y="-340" font-family="Helvetica,sans-Serif" font-size="10.00">IList&lt; T &gt;. IndexOf(T item)</text>
<text text-anchor="start" x="365" y="-325" font-family="Helvetica,sans-Serif" font-size="10.00">&#45;</text>
<text text-anchor="start" x="375.5" y="-325" font-family="Helvetica,sans-Serif" font-size="10.00">void System.Collections.</text>
<text text-anchor="start" x="375.5" y="-314" font-family="Helvetica,sans-Serif" font-size="10.00">Generic.IList&lt; T &gt;. Insert</text>
<text text-anchor="start" x="375.5" y="-303" font-family="Helvetica,sans-Serif" font-size="10.00">(int index, T item)</text>
<text text-anchor="start" x="365" y="-288" font-family="Helvetica,sans-Serif" font-size="10.00">&#45;</text>
<text text-anchor="start" x="375.5" y="-288" font-family="Helvetica,sans-Serif" font-size="10.00">void System.Collections.</text>
<text text-anchor="start" x="375.5" y="-277" font-family="Helvetica,sans-Serif" font-size="10.00">Generic.IList&lt; T &gt;. RemoveAt</text>
<text text-anchor="start" x="375.5" y="-266" font-family="Helvetica,sans-Serif" font-size="10.00">(int index)</text>
<text text-anchor="start" x="365" y="-251" font-family="Helvetica,sans-Serif" font-size="10.00">&#45;</text>
<text text-anchor="start" x="375.5" y="-251" font-family="Helvetica,sans-Serif" font-size="10.00">void System.Collections.</text>
<text text-anchor="start" x="375.5" y="-240" font-family="Helvetica,sans-Serif" font-size="10.00">Generic.ICollection&lt; T</text>
<text text-anchor="start" x="375.5" y="-229" font-family="Helvetica,sans-Serif" font-size="10.00"> &gt;. Add(T item)</text>
<text text-anchor="start" x="365" y="-214" font-family="Helvetica,sans-Serif" font-size="10.00">&#45;</text>
<text text-anchor="start" x="375.5" y="-214" font-family="Helvetica,sans-Serif" font-size="10.00">void System.Collections.</text>
<text text-anchor="start" x="375.5" y="-203" font-family="Helvetica,sans-Serif" font-size="10.00">Generic.ICollection&lt; T</text>
<text text-anchor="start" x="375.5" y="-192" font-family="Helvetica,sans-Serif" font-size="10.00"> &gt;. Clear()</text>
<text text-anchor="start" x="365" y="-177" font-family="Helvetica,sans-Serif" font-size="10.00">&#45;</text>
<text text-anchor="start" x="375.5" y="-177" font-family="Helvetica,sans-Serif" font-size="10.00">bool System.Collections.</text>
<text text-anchor="start" x="375.5" y="-166" font-family="Helvetica,sans-Serif" font-size="10.00">Generic.ICollection&lt; T</text>
<text text-anchor="start" x="375.5" y="-155" font-family="Helvetica,sans-Serif" font-size="10.00"> &gt;. Contains(T item)</text>
<text text-anchor="start" x="365" y="-140" font-family="Helvetica,sans-Serif" font-size="10.00">&#45;</text>
<text text-anchor="start" x="375.5" y="-140" font-family="Helvetica,sans-Serif" font-size="10.00">bool System.Collections.</text>
<text text-anchor="start" x="375.5" y="-129" font-family="Helvetica,sans-Serif" font-size="10.00">Generic.ICollection&lt; T</text>
<text text-anchor="start" x="375.5" y="-118" font-family="Helvetica,sans-Serif" font-size="10.00"> &gt;. Remove(T item)</text>
<text text-anchor="start" x="365" y="-103" font-family="Helvetica,sans-Serif" font-size="10.00">&#45;</text>
<text text-anchor="start" x="375.5" y="-103" font-family="Helvetica,sans-Serif" font-size="10.00">global::System.Collections.</text>
<text text-anchor="start" x="375.5" y="-92" font-family="Helvetica,sans-Serif" font-size="10.00">Generic.IEnumerator&lt; T &gt;</text>
<text text-anchor="start" x="375.5" y="-81" font-family="Helvetica,sans-Serif" font-size="10.00"> System.Collections.Generic.IEnumerable</text>
<text text-anchor="start" x="375.5" y="-70" font-family="Helvetica,sans-Serif" font-size="10.00">&lt; T &gt;. GetEnumerator()</text>
<text text-anchor="start" x="365" y="-55" font-family="Helvetica,sans-Serif" font-size="10.00">&#45;</text>
<text text-anchor="start" x="375.5" y="-55" font-family="Helvetica,sans-Serif" font-size="10.00">global::System.Collections.</text>
<text text-anchor="start" x="375.5" y="-44" font-family="Helvetica,sans-Serif" font-size="10.00">IEnumerator System.Collections.</text>
<text text-anchor="start" x="375.5" y="-33" font-family="Helvetica,sans-Serif" font-size="10.00">IEnumerable. GetEnumerator()</text>
<text text-anchor="start" x="365" y="-18" font-family="Helvetica,sans-Serif" font-size="10.00">&#45;</text>
<text text-anchor="start" x="375.5" y="-18" font-family="Helvetica,sans-Serif" font-size="10.00">void ThrowInvalidOperation</text>
<text text-anchor="start" x="375.5" y="-7" font-family="Helvetica,sans-Serif" font-size="10.00">IfDefault()</text>
<polygon fill="#666666" stroke="#666666" points="358.5,-789 358.5,-789 581.5,-789 581.5,-789 358.5,-789"/>
<polygon fill="#666666" stroke="#666666" points="358.5,-547 358.5,-547 373.5,-547 373.5,-547 358.5,-547"/>
<polygon fill="#666666" stroke="#666666" points="373.5,-547 373.5,-547 581.5,-547 581.5,-547 373.5,-547"/>
<polygon fill="none" stroke="#666666" points="358,0 358,-806 581,-806 581,0 358,0"/>
</a>
</g>
</g>
<!-- Node2 -->
<g id="Node000002" class="node">
<title>Node2</title>
<g id="a_Node000002"><a xlink:href="../../df/d68/classglobal_1_1SystemCollections_1_1Generic_1_1IList.html" target="_top" xlink:title=" ">
<polygon fill="white" stroke="transparent" points="137,-902 0,-902 0,-842 137,-842 137,-902"/>
<text text-anchor="start" x="5.5" y="-890" font-family="Helvetica,sans-Serif" font-size="10.00">global::SystemCollections</text>
<text text-anchor="start" x="19.5" y="-879" font-family="Helvetica,sans-Serif" font-size="10.00">::Generic::IList&lt; T &gt;</text>
<text text-anchor="start" x="67" y="-864" font-family="Helvetica,sans-Serif" font-size="10.00"> </text>
<text text-anchor="start" x="67" y="-849" font-family="Helvetica,sans-Serif" font-size="10.00"> </text>
<polygon fill="#666666" stroke="#666666" points="0.5,-874 0.5,-874 137.5,-874 137.5,-874 0.5,-874"/>
<polygon fill="#666666" stroke="#666666" points="0.5,-859 0.5,-859 137.5,-859 137.5,-859 0.5,-859"/>
<polygon fill="none" stroke="#666666" points="0,-842 0,-902 137,-902 137,-842 0,-842"/>
</a>
</g>
</g>
<!-- Node2&#45;&gt;Node1 -->
<g id="edge1_Node000001_Node000002" class="edge">
<title>Node2&#45;&gt;Node1</title>
<g id="a_edge1_Node000001_Node000002"><a xlink:title=" ">
<path fill="none" stroke="#63b8ff" d="M100.3,-833.97C155.28,-769.94 270.58,-635.66 357.79,-534.1"/>
<polygon fill="none" stroke="#63b8ff" points="97.44,-831.92 93.58,-841.79 102.75,-836.48 97.44,-831.92"/>
</a>
</g>
</g>
<!-- Node3 -->
<g id="Node000003" class="node">
<title>Node3</title>
<g id="a_Node000003"><a xlink:href="../../d1/d03/classglobal_1_1SystemCollections_1_1Generic_1_1ICollection.html" target="_top" xlink:title=" ">
<polygon fill="white" stroke="transparent" points="295.5,-902 155.5,-902 155.5,-842 295.5,-842 295.5,-902"/>
<text text-anchor="start" x="160.5" y="-890" font-family="Helvetica,sans-Serif" font-size="10.00">global::SystemCollections</text>
<text text-anchor="start" x="160.5" y="-879" font-family="Helvetica,sans-Serif" font-size="10.00">::Generic::ICollection&lt; T &gt;</text>
<text text-anchor="start" x="223.5" y="-864" font-family="Helvetica,sans-Serif" font-size="10.00"> </text>
<text text-anchor="start" x="223.5" y="-849" font-family="Helvetica,sans-Serif" font-size="10.00"> </text>
<polygon fill="#666666" stroke="#666666" points="155.5,-874 155.5,-874 295.5,-874 295.5,-874 155.5,-874"/>
<polygon fill="#666666" stroke="#666666" points="155.5,-859 155.5,-859 295.5,-859 295.5,-859 155.5,-859"/>
<polygon fill="none" stroke="#666666" points="155.5,-842 155.5,-902 295.5,-902 295.5,-842 155.5,-842"/>
</a>
</g>
</g>
<!-- Node3&#45;&gt;Node1 -->
<g id="edge2_Node000001_Node000003" class="edge">
<title>Node3&#45;&gt;Node1</title>
<g id="a_edge2_Node000001_Node000003"><a xlink:title=" ">
<path fill="none" stroke="#63b8ff" d="M245.48,-832.75C270.43,-785.01 315.06,-699.6 357.95,-617.51"/>
<polygon fill="none" stroke="#63b8ff" points="242.29,-831.3 240.76,-841.79 248.5,-834.54 242.29,-831.3"/>
</a>
</g>
</g>
<!-- Node4 -->
<g id="Node000004" class="node">
<title>Node4</title>
<g id="a_Node000004"><a xlink:href="../../dc/d8b/classglobal_1_1SystemCollections_1_1Generic_1_1IEnumerable.html" target="_top" xlink:title=" ">
<polygon fill="white" stroke="transparent" points="463.5,-902 313.5,-902 313.5,-842 463.5,-842 463.5,-902"/>
<text text-anchor="start" x="318.5" y="-890" font-family="Helvetica,sans-Serif" font-size="10.00">global::SystemCollections</text>
<text text-anchor="start" x="318.5" y="-879" font-family="Helvetica,sans-Serif" font-size="10.00">::Generic::IEnumerable&lt; T &gt;</text>
<text text-anchor="start" x="386.5" y="-864" font-family="Helvetica,sans-Serif" font-size="10.00"> </text>
<text text-anchor="start" x="386.5" y="-849" font-family="Helvetica,sans-Serif" font-size="10.00"> </text>
<polygon fill="#666666" stroke="#666666" points="313.5,-874 313.5,-874 463.5,-874 463.5,-874 313.5,-874"/>
<polygon fill="#666666" stroke="#666666" points="313.5,-859 313.5,-859 463.5,-859 463.5,-859 313.5,-859"/>
<polygon fill="none" stroke="#666666" points="313.5,-842 313.5,-902 463.5,-902 463.5,-842 313.5,-842"/>
</a>
</g>
</g>
<!-- Node4&#45;&gt;Node1 -->
<g id="edge3_Node000001_Node000004" class="edge">
<title>Node4&#45;&gt;Node1</title>
<g id="a_edge3_Node000001_Node000004"><a xlink:title=" ">
<path fill="none" stroke="#63b8ff" d="M395.28,-831.9C396.62,-824.2 398.12,-815.55 399.76,-806.11"/>
<polygon fill="none" stroke="#63b8ff" points="391.83,-831.34 393.57,-841.79 398.72,-832.53 391.83,-831.34"/>
</a>
</g>
</g>
<!-- Node5 -->
<g id="Node000005" class="node">
<title>Node5</title>
<g id="a_Node000005"><a xlink:href="../../da/d15/classglobal_1_1SystemCollections_1_1IEnumerable.html" target="_top" xlink:title=" ">
<polygon fill="white" stroke="transparent" points="619,-902 482,-902 482,-842 619,-842 619,-902"/>
<text text-anchor="start" x="487.5" y="-890" font-family="Helvetica,sans-Serif" font-size="10.00">global::SystemCollections</text>
<text text-anchor="start" x="517" y="-879" font-family="Helvetica,sans-Serif" font-size="10.00">::IEnumerable</text>
<text text-anchor="start" x="549" y="-864" font-family="Helvetica,sans-Serif" font-size="10.00"> </text>
<text text-anchor="start" x="549" y="-849" font-family="Helvetica,sans-Serif" font-size="10.00"> </text>
<polygon fill="#666666" stroke="#666666" points="482.5,-874 482.5,-874 619.5,-874 619.5,-874 482.5,-874"/>
<polygon fill="#666666" stroke="#666666" points="482.5,-859 482.5,-859 619.5,-859 619.5,-859 482.5,-859"/>
<polygon fill="none" stroke="#666666" points="482,-842 482,-902 619,-902 619,-842 482,-842"/>
</a>
</g>
</g>
<!-- Node5&#45;&gt;Node1 -->
<g id="edge4_Node000001_Node000005" class="edge">
<title>Node5&#45;&gt;Node1</title>
<g id="a_edge4_Node000001_Node000005"><a xlink:title=" ">
<path fill="none" stroke="#63b8ff" d="M543.72,-831.9C542.38,-824.2 540.88,-815.55 539.24,-806.11"/>
<polygon fill="none" stroke="#63b8ff" points="540.28,-832.53 545.43,-841.79 547.17,-831.34 540.28,-832.53"/>
</a>
</g>
</g>
<!-- Node6 -->
<g id="Node000006" class="node">
<title>Node6</title>
<g id="a_Node000006"><a xlink:href="../../d8/d07/classglobal_1_1SystemCollections_1_1Generic_1_1IReadOnlyList.html" target="_top" xlink:title=" ">
<polygon fill="white" stroke="transparent" points="793.5,-902 637.5,-902 637.5,-842 793.5,-842 793.5,-902"/>
<text text-anchor="start" x="642.5" y="-890" font-family="Helvetica,sans-Serif" font-size="10.00">global::SystemCollections</text>
<text text-anchor="start" x="642.5" y="-879" font-family="Helvetica,sans-Serif" font-size="10.00">::Generic::IReadOnlyList&lt; T &gt;</text>
<text text-anchor="start" x="713.5" y="-864" font-family="Helvetica,sans-Serif" font-size="10.00"> </text>
<text text-anchor="start" x="713.5" y="-849" font-family="Helvetica,sans-Serif" font-size="10.00"> </text>
<polygon fill="#666666" stroke="#666666" points="637.5,-874 637.5,-874 793.5,-874 793.5,-874 637.5,-874"/>
<polygon fill="#666666" stroke="#666666" points="637.5,-859 637.5,-859 793.5,-859 793.5,-859 637.5,-859"/>
<polygon fill="none" stroke="#666666" points="637.5,-842 637.5,-902 793.5,-902 793.5,-842 637.5,-842"/>
</a>
</g>
</g>
<!-- Node6&#45;&gt;Node1 -->
<g id="edge5_Node000001_Node000006" class="edge">
<title>Node6&#45;&gt;Node1</title>
<g id="a_edge5_Node000001_Node000006"><a xlink:title=" ">
<path fill="none" stroke="#63b8ff" d="M695.32,-832.69C669.98,-784.59 624.56,-698.36 581.05,-615.77"/>
<polygon fill="none" stroke="#63b8ff" points="692.35,-834.57 700.11,-841.79 698.55,-831.31 692.35,-834.57"/>
</a>
</g>
</g>
<!-- Node7 -->
<g id="Node000007" class="node">
<title>Node7</title>
<g id="a_Node000007"><a xlink:href="../../d1/d20/classglobal_1_1SystemCollections_1_1Generic_1_1IReadOnlyCollection.html" target="_top" xlink:title=" ">
<polygon fill="white" stroke="transparent" points="999.5,-902 811.5,-902 811.5,-842 999.5,-842 999.5,-902"/>
<text text-anchor="start" x="816.5" y="-890" font-family="Helvetica,sans-Serif" font-size="10.00">global::SystemCollections</text>
<text text-anchor="start" x="816.5" y="-879" font-family="Helvetica,sans-Serif" font-size="10.00">::Generic::IReadOnlyCollection&lt; T &gt;</text>
<text text-anchor="start" x="903.5" y="-864" font-family="Helvetica,sans-Serif" font-size="10.00"> </text>
<text text-anchor="start" x="903.5" y="-849" font-family="Helvetica,sans-Serif" font-size="10.00"> </text>
<polygon fill="#666666" stroke="#666666" points="811.5,-874 811.5,-874 999.5,-874 999.5,-874 811.5,-874"/>
<polygon fill="#666666" stroke="#666666" points="811.5,-859 811.5,-859 999.5,-859 999.5,-859 811.5,-859"/>
<polygon fill="none" stroke="#666666" points="811.5,-842 811.5,-902 999.5,-902 999.5,-842 811.5,-842"/>
</a>
</g>
</g>
<!-- Node7&#45;&gt;Node1 -->
<g id="edge6_Node000001_Node000007" class="edge">
<title>Node7&#45;&gt;Node1</title>
<g id="a_edge6_Node000001_Node000007"><a xlink:title=" ">
<path fill="none" stroke="#63b8ff" d="M871.04,-834.09C809.2,-767.85 676.89,-626.13 581.01,-523.44"/>
<polygon fill="none" stroke="#63b8ff" points="868.84,-836.87 878.23,-841.79 873.96,-832.09 868.84,-836.87"/>
</a>
</g>
</g>
</g>
</svg>
