<?xml version="1.0" encoding="UTF-8" standalone="no"?>
<!DOCTYPE svg PUBLIC "-//W3C//DTD SVG 1.1//EN"
 "http://www.w3.org/Graphics/SVG/1.1/DTD/svg11.dtd">
<!-- Generated by graphviz version 2.43.0 (0)
 -->
<!-- Title: Terraria.FrameSkipTest Pages: 1 -->
<!--zoomable 427 -->

<svg id="main" version="1.1" xmlns="http://www.w3.org/2000/svg" xmlns:xlink="http://www.w3.org/1999/xlink" xml:space="preserve" onload="init(evt)">
<style type="text/css"><![CDATA[
.node, .edge {opacity: 0.7;}
.node.selected, .edge.selected {opacity: 1;}
.edge:hover path { stroke: red; }
.edge:hover polygon { stroke: red; fill: red; }
]]></style>

<defs>
  <circle id="rim" cx="0" cy="0" r="7"/>
  <circle id="rim2" cx="0" cy="0" r="3.5"/>
  <g id="zoomPlus">
    <use xlink:href="#rim" fill="#404040"><set attributeName="fill" to="#808080" begin="zoomplus.mouseover" end="zoomplus.mouseout"/></use>
    <path d="M-4,0h8M0,-4v8" fill="none" stroke="white" stroke-width="1.5" pointer-events="none"/>
  </g>
  <g id="zoomMin">
    <use xlink:href="#rim" fill="#404040"><set attributeName="fill" to="#808080" begin="zoomminus.mouseover" end="zoomminus.mouseout"/></use>
    <path d="M-4,0h8" fill="none" stroke="white" stroke-width="1.5" pointer-events="none"/>
  </g>
  <g id="arrowUp" transform="translate(30 24)">
    <use xlink:href="#rim"/>
    <path pointer-events="none" fill="none" stroke="white" stroke-width="1.5" d="M0,-3.0v7 M-2.5,-0.5L0,-3.0L2.5,-0.5"/>
  </g>
  <g id="arrowRight" transform="rotate(90) translate(36 -43)">
    <use xlink:href="#rim"/>
    <path pointer-events="none" fill="none" stroke="white" stroke-width="1.5" d="M0,-3.0v7 M-2.5,-0.5L0,-3.0L2.5,-0.5"/>
  </g>
  <g id="arrowDown" transform="rotate(180) translate(-30 -48)">
    <use xlink:href="#rim"/>
    <path pointer-events="none" fill="none" stroke="white" stroke-width="1.5" d="M0,-3.0v7 M-2.5,-0.5L0,-3.0L2.5,-0.5"/>
  </g>
  <g id="arrowLeft" transform="rotate(270) translate(-36 17)">
    <use xlink:href="#rim"/>
    <path pointer-events="none" fill="none" stroke="white" stroke-width="1.5" d="M0,-3.0v7 M-2.5,-0.5L0,-3.0L2.5,-0.5"/>
  </g>
  <g id="resetDef">
    <use xlink:href="#rim2" fill="#404040"><set attributeName="fill" to="#808080" begin="reset.mouseover" end="reset.mouseout"/></use>
  </g>
</defs>
<script type="application/ecmascript">
var viewWidth = 550;
var viewHeight = 427;
var sectionId = 'dynsection-0';
</script>
<script type="application/ecmascript" xlink:href="../../svg.min.js"/>
<svg id="graph" class="graph">
<g id="viewport">
<title>Terraria.FrameSkipTest</title>
<!-- Node1 -->
<g id="Node000001" class="node">
<title>Node1</title>
<g id="a_Node000001"><a xlink:title=" ">
<polygon fill="#999999" stroke="transparent" points="378.46,-127 236.46,-127 236.46,0 378.46,0 378.46,-127"/>
<text text-anchor="start" x="251.46" y="-114.5" font-family="Helvetica,sans-Serif" font-size="10.00">Terraria.FrameSkipTest</text>
<text text-anchor="start" x="305.46" y="-99.5" font-family="Helvetica,sans-Serif" font-size="10.00"> </text>
<text text-anchor="start" x="240.46" y="-84.5" font-family="Helvetica,sans-Serif" font-size="10.00">+</text>
<text text-anchor="start" x="253.46" y="-84.5" font-family="Helvetica,sans-Serif" font-size="10.00">FrameSkipTest()</text>
<text text-anchor="start" x="240.46" y="-69.5" font-family="Helvetica,sans-Serif" font-size="10.00">+</text>
<text text-anchor="start" x="253.46" y="-69.5" font-family="Helvetica,sans-Serif" font-size="10.00">static void Update</text>
<text text-anchor="start" x="253.46" y="-58.5" font-family="Helvetica,sans-Serif" font-size="10.00">(GameTime gameTime)</text>
<text text-anchor="start" x="240.46" y="-43.5" font-family="Helvetica,sans-Serif" font-size="10.00">+</text>
<text text-anchor="start" x="253.46" y="-43.5" font-family="Helvetica,sans-Serif" font-size="10.00">static void CheckReset</text>
<text text-anchor="start" x="253.46" y="-32.5" font-family="Helvetica,sans-Serif" font-size="10.00">(GameTime gameTime)</text>
<text text-anchor="start" x="240.46" y="-17.5" font-family="Helvetica,sans-Serif" font-size="10.00">+</text>
<text text-anchor="start" x="253.46" y="-17.5" font-family="Helvetica,sans-Serif" font-size="10.00">static void UpdateServer</text>
<text text-anchor="start" x="253.46" y="-6.5" font-family="Helvetica,sans-Serif" font-size="10.00">Test()</text>
<polygon fill="#666666" stroke="#666666" points="236.46,-109.5 236.46,-109.5 378.46,-109.5 378.46,-109.5 236.46,-109.5"/>
<polygon fill="#666666" stroke="#666666" points="236.46,-94.5 236.46,-94.5 378.46,-94.5 378.46,-94.5 236.46,-94.5"/>
<polygon fill="none" stroke="#666666" points="236.46,0 236.46,-127 378.46,-127 378.46,0 236.46,0"/>
</a>
</g>
</g>
<!-- Node2 -->
<g id="Node000002" class="node">
<title>Node2</title>
<g id="a_Node000002"><a xlink:title=" ">
<polygon fill="white" stroke="transparent" points="73.96,-408 50.96,-408 50.96,-359 73.96,-359 73.96,-408"/>
<text text-anchor="start" x="56.46" y="-395.5" font-family="Helvetica,sans-Serif" font-size="10.00">int</text>
<text text-anchor="start" x="60.96" y="-380.5" font-family="Helvetica,sans-Serif" font-size="10.00"> </text>
<text text-anchor="start" x="60.96" y="-365.5" font-family="Helvetica,sans-Serif" font-size="10.00"> </text>
<polygon fill="#666666" stroke="#666666" points="51.46,-390.5 51.46,-390.5 74.46,-390.5 74.46,-390.5 51.46,-390.5"/>
<polygon fill="#666666" stroke="#666666" points="51.46,-375.5 51.46,-375.5 74.46,-375.5 74.46,-375.5 51.46,-375.5"/>
<polygon fill="none" stroke="#666666" points="50.96,-359 50.96,-408 73.96,-408 73.96,-359 50.96,-359"/>
</a>
</g>
</g>
<!-- Node2&#45;&gt;Node1 -->
<g id="edge1_Node000001_Node000002" class="edge">
<title>Node2&#45;&gt;Node1</title>
<g id="a_edge1_Node000001_Node000002"><a xlink:title=" ">
<path fill="none" stroke="#63b8ff" d="M50.94,-366.7C26.57,-331.19 -24.82,-243.63 14.46,-185 60.89,-115.71 155.12,-86.22 224.24,-73.7"/>
<polygon fill="none" stroke="#63b8ff" points="224.57,-73.65 229.81,-68.69 236.4,-71.63 231.16,-76.58 224.57,-73.65"/>
</a>
</g>
<text text-anchor="middle" x="88.46" y="-240.5" font-family="Helvetica,sans-Serif" font-size="10.00" fill="grey"> &#45;LastRecordedSecondNumber</text>
<text text-anchor="middle" x="88.46" y="-229.5" font-family="Helvetica,sans-Serif" font-size="10.00" fill="grey">&#45;SamplesCount</text>
</g>
<!-- Node5 -->
<g id="Node000005" class="node">
<title>Node5</title>
<g id="a_Node000005"><a xlink:href="../../db/dd3/classReLogic_1_1Utilities_1_1MultiTimer.html" target="_top" xlink:title=" ">
<polygon fill="white" stroke="transparent" points="331.46,-290 171.46,-290 171.46,-185 331.46,-185 331.46,-290"/>
<text text-anchor="start" x="183.46" y="-277.5" font-family="Helvetica,sans-Serif" font-size="10.00">ReLogic.Utilities.MultiTimer</text>
<text text-anchor="start" x="249.46" y="-262.5" font-family="Helvetica,sans-Serif" font-size="10.00"> </text>
<text text-anchor="start" x="175.46" y="-247.5" font-family="Helvetica,sans-Serif" font-size="10.00">+</text>
<text text-anchor="start" x="188.46" y="-247.5" font-family="Helvetica,sans-Serif" font-size="10.00">MultiTimer(int ticksBetween</text>
<text text-anchor="start" x="188.46" y="-236.5" font-family="Helvetica,sans-Serif" font-size="10.00">Print=100)</text>
<text text-anchor="start" x="175.46" y="-221.5" font-family="Helvetica,sans-Serif" font-size="10.00">+</text>
<text text-anchor="start" x="188.46" y="-221.5" font-family="Helvetica,sans-Serif" font-size="10.00">void Start()</text>
<text text-anchor="start" x="175.46" y="-206.5" font-family="Helvetica,sans-Serif" font-size="10.00">+</text>
<text text-anchor="start" x="188.46" y="-206.5" font-family="Helvetica,sans-Serif" font-size="10.00">void Record(string key)</text>
<text text-anchor="start" x="175.46" y="-191.5" font-family="Helvetica,sans-Serif" font-size="10.00">+</text>
<text text-anchor="start" x="188.46" y="-191.5" font-family="Helvetica,sans-Serif" font-size="10.00">bool StopAndPrint()</text>
<polygon fill="#666666" stroke="#666666" points="171.46,-272.5 171.46,-272.5 331.46,-272.5 331.46,-272.5 171.46,-272.5"/>
<polygon fill="#666666" stroke="#666666" points="171.46,-257.5 171.46,-257.5 331.46,-257.5 331.46,-257.5 171.46,-257.5"/>
<polygon fill="none" stroke="#666666" points="171.46,-185 171.46,-290 331.46,-290 331.46,-185 171.46,-185"/>
</a>
</g>
</g>
<!-- Node2&#45;&gt;Node5 -->
<g id="edge5_Node000005_Node000002" class="edge">
<title>Node2&#45;&gt;Node5</title>
<g id="a_edge5_Node000005_Node000002"><a xlink:title=" ">
<path fill="none" stroke="#63b8ff" d="M73.99,-365.56C85.61,-349.37 104.76,-324.96 125.46,-308 125.99,-307.56 141.09,-299.19 160.67,-288.4"/>
<polygon fill="none" stroke="#63b8ff" points="160.75,-288.35 164.07,-281.95 171.26,-282.56 167.94,-288.96 160.75,-288.35"/>
</a>
</g>
<text text-anchor="middle" x="179.96" y="-322" font-family="Helvetica,sans-Serif" font-size="10.00" fill="grey"> &#45;_ticksBetweenPrint</text>
<text text-anchor="middle" x="179.96" y="-311" font-family="Helvetica,sans-Serif" font-size="10.00" fill="grey">&#45;_ticksElapsedForPrint</text>
</g>
<!-- Node3 -->
<g id="Node000003" class="node">
<title>Node3</title>
<g id="a_Node000003"><a xlink:title=" ">
<polygon fill="white" stroke="transparent" points="389.46,-262 357.46,-262 357.46,-213 389.46,-213 389.46,-262"/>
<text text-anchor="start" x="362.46" y="-249.5" font-family="Helvetica,sans-Serif" font-size="10.00">float</text>
<text text-anchor="start" x="371.46" y="-234.5" font-family="Helvetica,sans-Serif" font-size="10.00"> </text>
<text text-anchor="start" x="371.46" y="-219.5" font-family="Helvetica,sans-Serif" font-size="10.00"> </text>
<polygon fill="#666666" stroke="#666666" points="357.46,-244.5 357.46,-244.5 389.46,-244.5 389.46,-244.5 357.46,-244.5"/>
<polygon fill="#666666" stroke="#666666" points="357.46,-229.5 357.46,-229.5 389.46,-229.5 389.46,-229.5 357.46,-229.5"/>
<polygon fill="none" stroke="#666666" points="357.46,-213 357.46,-262 389.46,-262 389.46,-213 357.46,-213"/>
</a>
</g>
</g>
<!-- Node3&#45;&gt;Node1 -->
<g id="edge2_Node000001_Node000003" class="edge">
<title>Node3&#45;&gt;Node1</title>
<g id="a_edge2_Node000001_Node000003"><a xlink:title=" ">
<path fill="none" stroke="#63b8ff" d="M369.52,-212.66C365.99,-193.89 360.04,-167.26 351.46,-145 350.57,-142.68 349.62,-140.34 348.62,-138"/>
<polygon fill="none" stroke="#63b8ff" points="348.61,-137.96 342.5,-134.14 343.68,-127.02 349.79,-130.85 348.61,-137.96"/>
</a>
</g>
<text text-anchor="middle" x="403.96" y="-159" font-family="Helvetica,sans-Serif" font-size="10.00" fill="grey"> &#45;CallsThisSecond</text>
<text text-anchor="middle" x="403.96" y="-148" font-family="Helvetica,sans-Serif" font-size="10.00" fill="grey">&#45;DeltasThisSecond</text>
</g>
<!-- Node4 -->
<g id="Node000004" class="node">
<title>Node4</title>
<g id="a_Node000004"><a xlink:title=" ">
<polygon fill="white" stroke="transparent" points="538.46,-262 436.46,-262 436.46,-213 538.46,-213 538.46,-262"/>
<text text-anchor="start" x="441.46" y="-249.5" font-family="Helvetica,sans-Serif" font-size="10.00">static List&lt; float &gt;</text>
<text text-anchor="start" x="485.46" y="-234.5" font-family="Helvetica,sans-Serif" font-size="10.00"> </text>
<text text-anchor="start" x="485.46" y="-219.5" font-family="Helvetica,sans-Serif" font-size="10.00"> </text>
<polygon fill="#666666" stroke="#666666" points="436.46,-244.5 436.46,-244.5 538.46,-244.5 538.46,-244.5 436.46,-244.5"/>
<polygon fill="#666666" stroke="#666666" points="436.46,-229.5 436.46,-229.5 538.46,-229.5 538.46,-229.5 436.46,-229.5"/>
<polygon fill="none" stroke="#666666" points="436.46,-213 436.46,-262 538.46,-262 538.46,-213 436.46,-213"/>
</a>
</g>
</g>
<!-- Node4&#45;&gt;Node1 -->
<g id="edge3_Node000001_Node000004" class="edge">
<title>Node4&#45;&gt;Node1</title>
<g id="a_edge3_Node000001_Node000004"><a xlink:title=" ">
<path fill="none" stroke="#63b8ff" d="M483.43,-212.73C478.99,-192.74 470.17,-164.38 453.46,-145 436.17,-124.94 412.59,-108.93 389.42,-96.65"/>
<polygon fill="none" stroke="#63b8ff" points="389.17,-96.52 382.01,-97.37 378.47,-91.09 385.63,-90.24 389.17,-96.52"/>
</a>
</g>
<text text-anchor="middle" x="504.46" y="-153.5" font-family="Helvetica,sans-Serif" font-size="10.00" fill="grey"> &#45;DeltaSamples</text>
</g>
<!-- Node5&#45;&gt;Node1 -->
<g id="edge4_Node000001_Node000005" class="edge">
<title>Node5&#45;&gt;Node1</title>
<g id="a_edge4_Node000001_Node000005"><a xlink:title=" ">
<path fill="none" stroke="#63b8ff" d="M239.46,-184.74C238.41,-171.51 239.1,-157.5 243.46,-145 244.26,-142.72 245.14,-140.46 246.12,-138.23"/>
<polygon fill="none" stroke="#63b8ff" points="246.24,-137.97 245.34,-130.81 251.6,-127.23 252.5,-134.38 246.24,-137.97"/>
</a>
</g>
<text text-anchor="middle" x="297.46" y="-153.5" font-family="Helvetica,sans-Serif" font-size="10.00" fill="grey"> &#45;serverFramerateTest</text>
</g>
<!-- Node6 -->
<g id="Node000006" class="node">
<title>Node6</title>
<g id="a_Node000006"><a xlink:title=" ">
<polygon fill="white" stroke="transparent" points="261.46,-408 199.46,-408 199.46,-359 261.46,-359 261.46,-408"/>
<text text-anchor="start" x="204.46" y="-395.5" font-family="Helvetica,sans-Serif" font-size="10.00">Stopwatch</text>
<text text-anchor="start" x="228.46" y="-380.5" font-family="Helvetica,sans-Serif" font-size="10.00"> </text>
<text text-anchor="start" x="228.46" y="-365.5" font-family="Helvetica,sans-Serif" font-size="10.00"> </text>
<polygon fill="#666666" stroke="#666666" points="199.46,-390.5 199.46,-390.5 261.46,-390.5 261.46,-390.5 199.46,-390.5"/>
<polygon fill="#666666" stroke="#666666" points="199.46,-375.5 199.46,-375.5 261.46,-375.5 261.46,-375.5 199.46,-375.5"/>
<polygon fill="none" stroke="#666666" points="199.46,-359 199.46,-408 261.46,-408 261.46,-359 199.46,-359"/>
</a>
</g>
</g>
<!-- Node6&#45;&gt;Node5 -->
<g id="edge6_Node000005_Node000006" class="edge">
<title>Node6&#45;&gt;Node5</title>
<g id="a_edge6_Node000005_Node000006"><a xlink:title=" ">
<path fill="none" stroke="#63b8ff" d="M233.93,-358.72C236.19,-343.23 239.25,-322.24 242.18,-302.13"/>
<polygon fill="none" stroke="#63b8ff" points="242.2,-301.98 239.11,-295.47 243.94,-290.11 247.03,-296.62 242.2,-301.98"/>
</a>
</g>
<text text-anchor="middle" x="259.96" y="-316.5" font-family="Helvetica,sans-Serif" font-size="10.00" fill="grey"> &#45;_timer</text>
</g>
<!-- Node7 -->
<g id="Node000007" class="node">
<title>Node7</title>
<g id="a_Node000007"><a xlink:title=" ">
<polygon fill="white" stroke="transparent" points="417.46,-419 279.46,-419 279.46,-348 417.46,-348 417.46,-419"/>
<text text-anchor="start" x="284.46" y="-406.5" font-family="Helvetica,sans-Serif" font-size="10.00">readonly Dictionary</text>
<text text-anchor="start" x="284.46" y="-395.5" font-family="Helvetica,sans-Serif" font-size="10.00">&lt; string, ReLogic.Utilities.</text>
<text text-anchor="start" x="288.96" y="-384.5" font-family="Helvetica,sans-Serif" font-size="10.00">MultiTimer.TimerData &gt;</text>
<text text-anchor="start" x="346.46" y="-369.5" font-family="Helvetica,sans-Serif" font-size="10.00"> </text>
<text text-anchor="start" x="346.46" y="-354.5" font-family="Helvetica,sans-Serif" font-size="10.00"> </text>
<polygon fill="#666666" stroke="#666666" points="279.46,-379.5 279.46,-379.5 417.46,-379.5 417.46,-379.5 279.46,-379.5"/>
<polygon fill="#666666" stroke="#666666" points="279.46,-364.5 279.46,-364.5 417.46,-364.5 417.46,-364.5 279.46,-364.5"/>
<polygon fill="none" stroke="#666666" points="279.46,-348 279.46,-419 417.46,-419 417.46,-348 279.46,-348"/>
</a>
</g>
</g>
<!-- Node7&#45;&gt;Node5 -->
<g id="edge7_Node000005_Node000007" class="edge">
<title>Node7&#45;&gt;Node5</title>
<g id="a_edge7_Node000005_Node000007"><a xlink:title=" ">
<path fill="none" stroke="#63b8ff" d="M324.98,-347.64C315.37,-333.37 303.95,-316.42 293.02,-300.19"/>
<polygon fill="none" stroke="#63b8ff" points="292.99,-300.16 286.32,-297.42 286.29,-290.2 292.96,-292.95 292.99,-300.16"/>
</a>
</g>
<text text-anchor="middle" x="352.96" y="-316.5" font-family="Helvetica,sans-Serif" font-size="10.00" fill="grey"> &#45;_timerDataMap</text>
</g>
</g>
</svg>

<g id="navigator" transform="translate(0 0)" fill="#404254">
  <rect fill="#f2f5e9" fill-opacity="0.5" stroke="#606060" stroke-width=".5" x="0" y="0" width="60" height="60"/>
  <use id="zoomplus" xlink:href="#zoomPlus" x="17" y="9" onmousedown="handleZoom(evt,'in')"/>
  <use id="zoomminus" xlink:href="#zoomMin" x="42" y="9" onmousedown="handleZoom(evt,'out')"/>
  <use id="reset" xlink:href="#resetDef" x="30" y="36" onmousedown="handleReset()"/>
   <use id="arrowup" xlink:href="#arrowUp" x="0" y="0" onmousedown="handlePan(0,-1)"/>
  <use id="arrowright" xlink:href="#arrowRight" x="0" y="0" onmousedown="handlePan(1,0)"/>
  <use id="arrowdown" xlink:href="#arrowDown" x="0" y="0" onmousedown="handlePan(0,1)"/>
  <use id="arrowleft" xlink:href="#arrowLeft" x="0" y="0" onmousedown="handlePan(-1,0)"/>
</g>
<svg viewBox="0 0 15 15" width="100%" height="30px" preserveAspectRatio="xMaxYMin meet">
 <g id="arrow_out" transform="scale(0.3 0.3)">
  <a xlink:href="classTerraria_1_1FrameSkipTest__coll__graph_org.svg" target="_base">
   <rect id="button" ry="5" rx="5" y="6" x="6" height="38" width="38"
        fill="#f2f5e9" fill-opacity="0.5" stroke="#606060" stroke-width="1.0"/>
   <path id="arrow"
     d="M 11.500037,31.436501 C 11.940474,20.09759 22.043105,11.32322 32.158766,21.979434 L 37.068811,17.246167 C 37.068811,17.246167 37.088388,32 37.088388,32 L 22.160133,31.978069 C 22.160133,31.978069 26.997745,27.140456 26.997745,27.140456 C 18.528582,18.264221 13.291696,25.230495 11.500037,31.436501 z"
     style="fill:#404040;"/>
  </a>
 </g>
</svg>

<style type='text/css'>
<![CDATA[
[data-mouse-over-selected='false'] { opacity: 0.7; }
[data-mouse-over-selected='true']  { opacity: 1.0; }
]]>
</style>
<script type="application/ecmascript"><![CDATA[
document.addEventListener('DOMContentLoaded', (event) => {
  highlightEdges();
  highlightAdjacentNodes();
});
]]></script>
</svg>
