<?xml version="1.0" encoding="UTF-8" standalone="no"?>
<!DOCTYPE svg PUBLIC "-//W3C//DTD SVG 1.1//EN"
 "http://www.w3.org/Graphics/SVG/1.1/DTD/svg11.dtd">
<!-- Generated by graphviz version 2.43.0 (0)
 -->
<!-- Title: Terraria.GameInput.KeyConfiguration Pages: 1 -->
<svg width="206pt" height="316pt"
 viewBox="0.00 0.00 206.00 316.00" xmlns="http://www.w3.org/2000/svg" xmlns:xlink="http://www.w3.org/1999/xlink">

<svg id="main" version="1.1" xmlns="http://www.w3.org/2000/svg" xmlns:xlink="http://www.w3.org/1999/xlink" xml:space="preserve" onload="init(evt)">
<style type="text/css"><![CDATA[
.node, .edge {opacity: 0.7;}
.node.selected, .edge.selected {opacity: 1;}
.edge:hover path { stroke: red; }
.edge:hover polygon { stroke: red; fill: red; }
]]></style>
<script type="application/ecmascript" xlink:href="../../svg.min.js"/>
<svg id="graph" class="graph">
<g id="graph0" class="graph" transform="scale(1 1) rotate(0) translate(4 312)">
<title>Terraria.GameInput.KeyConfiguration</title>
<!-- Node1 -->
<g id="Node000001" class="node">
<title>Node1</title>
<g id="a_Node000001"><a xlink:title=" ">
<polygon fill="#999999" stroke="transparent" points="198,-201 0,-201 0,0 198,0 198,-201"/>
<text text-anchor="start" x="8.5" y="-188.5" font-family="Helvetica,sans-Serif" font-size="10.00">Terraria.GameInput.KeyConfiguration</text>
<text text-anchor="start" x="4" y="-173.5" font-family="Helvetica,sans-Serif" font-size="10.00">+</text>
<text text-anchor="start" x="17" y="-173.5" font-family="Helvetica,sans-Serif" font-size="10.00">bool DoGrappleAndInteract</text>
<text text-anchor="start" x="17" y="-162.5" font-family="Helvetica,sans-Serif" font-size="10.00">ShareTheSameKey</text>
<text text-anchor="start" x="4" y="-147.5" font-family="Helvetica,sans-Serif" font-size="10.00">+</text>
<text text-anchor="start" x="17" y="-147.5" font-family="Helvetica,sans-Serif" font-size="10.00">void SetupKeys()</text>
<text text-anchor="start" x="4" y="-132.5" font-family="Helvetica,sans-Serif" font-size="10.00">+</text>
<text text-anchor="start" x="17" y="-132.5" font-family="Helvetica,sans-Serif" font-size="10.00">void Processkey(Triggers</text>
<text text-anchor="start" x="17" y="-121.5" font-family="Helvetica,sans-Serif" font-size="10.00">Set set, string newKey)</text>
<text text-anchor="start" x="4" y="-106.5" font-family="Helvetica,sans-Serif" font-size="10.00">+</text>
<text text-anchor="start" x="17" y="-106.5" font-family="Helvetica,sans-Serif" font-size="10.00">void CopyKeyState(Triggers</text>
<text text-anchor="start" x="17" y="-95.5" font-family="Helvetica,sans-Serif" font-size="10.00">Set oldSet, TriggersSet</text>
<text text-anchor="start" x="17" y="-84.5" font-family="Helvetica,sans-Serif" font-size="10.00"> newSet, string newKey)</text>
<text text-anchor="start" x="4" y="-69.5" font-family="Helvetica,sans-Serif" font-size="10.00">+</text>
<text text-anchor="start" x="17" y="-69.5" font-family="Helvetica,sans-Serif" font-size="10.00">void ReadPreferences</text>
<text text-anchor="start" x="17" y="-58.5" font-family="Helvetica,sans-Serif" font-size="10.00">(Dictionary&lt; TriggerNames,</text>
<text text-anchor="start" x="17" y="-47.5" font-family="Helvetica,sans-Serif" font-size="10.00"> List&lt; string &gt; &gt; dict)</text>
<text text-anchor="start" x="4" y="-32.5" font-family="Helvetica,sans-Serif" font-size="10.00">+</text>
<text text-anchor="start" x="17" y="-32.5" font-family="Helvetica,sans-Serif" font-size="10.00">Dictionary&lt; TriggerNames,</text>
<text text-anchor="start" x="17" y="-21.5" font-family="Helvetica,sans-Serif" font-size="10.00"> List&lt; string &gt; &gt; WritePreferences()</text>
<text text-anchor="start" x="4" y="-6.5" font-family="Helvetica,sans-Serif" font-size="10.00">+</text>
<text text-anchor="start" x="17" y="-6.5" font-family="Helvetica,sans-Serif" font-size="10.00">KeyConfiguration()</text>
<polygon fill="#666666" stroke="#666666" points="0,-183.5 0,-183.5 198,-183.5 198,-183.5 0,-183.5"/>
<polygon fill="#666666" stroke="#666666" points="0,-157.5 0,-157.5 15,-157.5 15,-157.5 0,-157.5"/>
<polygon fill="#666666" stroke="#666666" points="15,-157.5 15,-157.5 198,-157.5 198,-157.5 15,-157.5"/>
<polygon fill="none" stroke="#666666" points="0,0 0,-201 198,-201 198,0 0,0"/>
</a>
</g>
</g>
<!-- Node2 -->
<g id="Node000002" class="node">
<title>Node2</title>
<g id="a_Node000002"><a xlink:title=" ">
<polygon fill="white" stroke="transparent" points="170.5,-308 27.5,-308 27.5,-248 170.5,-248 170.5,-308"/>
<text text-anchor="start" x="33" y="-296" font-family="Helvetica,sans-Serif" font-size="10.00">Dictionary&lt; TriggerNames,</text>
<text text-anchor="start" x="58.5" y="-285" font-family="Helvetica,sans-Serif" font-size="10.00"> List&lt; string &gt; &gt;</text>
<text text-anchor="start" x="97.5" y="-270" font-family="Helvetica,sans-Serif" font-size="10.00"> </text>
<text text-anchor="start" x="97.5" y="-255" font-family="Helvetica,sans-Serif" font-size="10.00"> </text>
<polygon fill="#666666" stroke="#666666" points="28,-280 28,-280 171,-280 171,-280 28,-280"/>
<polygon fill="#666666" stroke="#666666" points="28,-265 28,-265 171,-265 171,-265 28,-265"/>
<polygon fill="none" stroke="#666666" points="27.5,-248 27.5,-308 170.5,-308 170.5,-248 27.5,-248"/>
</a>
</g>
</g>
<!-- Node2&#45;&gt;Node1 -->
<g id="edge1_Node000001_Node000002" class="edge">
<title>Node2&#45;&gt;Node1</title>
<g id="a_edge1_Node000001_Node000002"><a xlink:title=" ">
<path fill="none" stroke="#63b8ff" d="M99,-247.63C99,-237.64 99,-225.81 99,-213.28"/>
<polygon fill="none" stroke="#63b8ff" points="99,-213.08 95,-207.08 99,-201.08 103,-207.08 99,-213.08"/>
</a>
</g>
<text text-anchor="middle" x="129.5" y="-222" font-family="Helvetica,sans-Serif" font-size="10.00" fill="grey"> +KeyStatus</text>
</g>
</g>
</svg>
</svg>

<style type='text/css'>
<![CDATA[
[data-mouse-over-selected='false'] { opacity: 0.7; }
[data-mouse-over-selected='true']  { opacity: 1.0; }
]]>
</style>
<script type="application/ecmascript"><![CDATA[
document.addEventListener('DOMContentLoaded', (event) => {
  highlightEdges();
  highlightAdjacentNodes();
});
]]></script>
</svg>
