<?xml version="1.0" encoding="UTF-8" standalone="no"?>
<!DOCTYPE svg PUBLIC "-//W3C//DTD SVG 1.1//EN"
 "http://www.w3.org/Graphics/SVG/1.1/DTD/svg11.dtd">
<!-- Generated by graphviz version 2.43.0 (0)
 -->
<!-- Title: System.Collections.ListDictionaryInternal.DictionaryNode Pages: 1 -->
<svg width="450pt" height="913pt"
 viewBox="0.00 0.00 449.50 913.00" xmlns="http://www.w3.org/2000/svg" xmlns:xlink="http://www.w3.org/1999/xlink">
<g id="graph0" class="graph" transform="scale(1 1) rotate(0) translate(4 909)">
<title>System.Collections.ListDictionaryInternal.DictionaryNode</title>
<!-- Node1 -->
<g id="Node000001" class="node">
<title>Node1</title>
<g id="a_Node000001"><a xlink:title=" ">
<polygon fill="#999999" stroke="transparent" points="175,-60 0,-60 0,0 175,0 175,-60"/>
<text text-anchor="start" x="5.5" y="-48" font-family="Helvetica,sans-Serif" font-size="10.00">System.Collections.ListDictionary</text>
<text text-anchor="start" x="29.5" y="-37" font-family="Helvetica,sans-Serif" font-size="10.00">Internal.DictionaryNode</text>
<text text-anchor="start" x="86" y="-22" font-family="Helvetica,sans-Serif" font-size="10.00"> </text>
<text text-anchor="start" x="22" y="-7" font-family="Helvetica,sans-Serif" font-size="10.00">+</text>
<text text-anchor="start" x="52.5" y="-7" font-family="Helvetica,sans-Serif" font-size="10.00">DictionaryNode()</text>
<polygon fill="#666666" stroke="#666666" points="0.5,-32 0.5,-32 175.5,-32 175.5,-32 0.5,-32"/>
<polygon fill="#666666" stroke="#666666" points="0.5,-17 0.5,-17 175.5,-17 175.5,-17 0.5,-17"/>
<polygon fill="none" stroke="#666666" points="0,0 0,-60 175,-60 175,0 0,0"/>
</a>
</g>
</g>
<!-- Node2 -->
<g id="Node000002" class="node">
<title>Node2</title>
<g id="a_Node000002"><a xlink:title=" ">
<polygon fill="white" stroke="transparent" points="109,-610 68,-610 68,-561 109,-561 109,-610"/>
<text text-anchor="start" x="73.5" y="-597.5" font-family="Helvetica,sans-Serif" font-size="10.00">object</text>
<text text-anchor="start" x="87" y="-582.5" font-family="Helvetica,sans-Serif" font-size="10.00"> </text>
<text text-anchor="start" x="87" y="-567.5" font-family="Helvetica,sans-Serif" font-size="10.00"> </text>
<polygon fill="#666666" stroke="#666666" points="68.5,-592.5 68.5,-592.5 109.5,-592.5 109.5,-592.5 68.5,-592.5"/>
<polygon fill="#666666" stroke="#666666" points="68.5,-577.5 68.5,-577.5 109.5,-577.5 109.5,-577.5 68.5,-577.5"/>
<polygon fill="none" stroke="#666666" points="68,-561 68,-610 109,-610 109,-561 68,-561"/>
</a>
</g>
</g>
<!-- Node2&#45;&gt;Node1 -->
<g id="edge1_Node000001_Node000002" class="edge">
<title>Node2&#45;&gt;Node1</title>
<g id="a_edge1_Node000001_Node000002"><a xlink:title=" ">
<path fill="none" stroke="#63b8ff" d="M88.46,-560.72C88.3,-475.03 87.77,-181.43 87.57,-72.29"/>
<polygon fill="none" stroke="#63b8ff" points="87.57,-72.22 83.56,-66.23 87.55,-60.22 91.56,-66.21 87.57,-72.22"/>
</a>
</g>
<text text-anchor="middle" x="106.5" y="-272.5" font-family="Helvetica,sans-Serif" font-size="10.00" fill="grey"> +key</text>
<text text-anchor="middle" x="106.5" y="-261.5" font-family="Helvetica,sans-Serif" font-size="10.00" fill="grey">+value</text>
</g>
<!-- Node3 -->
<g id="Node000003" class="node">
<title>Node3</title>
<g id="a_Node000003"><a xlink:href="../../d3/dfb/classSystem_1_1Collections_1_1ListDictionaryInternal.html" target="_top" xlink:title=" ">
<polygon fill="white" stroke="transparent" points="338,-432 157,-432 157,-107 338,-107 338,-432"/>
<text text-anchor="start" x="165.5" y="-419.5" font-family="Helvetica,sans-Serif" font-size="10.00">System.Collections.ListDictionary</text>
<text text-anchor="start" x="229" y="-408.5" font-family="Helvetica,sans-Serif" font-size="10.00">Internal</text>
<text text-anchor="start" x="161.5" y="-393.5" font-family="Helvetica,sans-Serif" font-size="10.00">+</text>
<text text-anchor="start" x="174.5" y="-393.5" font-family="Helvetica,sans-Serif" font-size="10.00">object this[object key]</text>
<text text-anchor="start" x="161.5" y="-378.5" font-family="Helvetica,sans-Serif" font-size="10.00">+</text>
<text text-anchor="start" x="174.5" y="-378.5" font-family="Helvetica,sans-Serif" font-size="10.00">int Count</text>
<text text-anchor="start" x="161.5" y="-363.5" font-family="Helvetica,sans-Serif" font-size="10.00">+</text>
<text text-anchor="start" x="174.5" y="-363.5" font-family="Helvetica,sans-Serif" font-size="10.00">ICollection Keys</text>
<text text-anchor="start" x="161.5" y="-348.5" font-family="Helvetica,sans-Serif" font-size="10.00">+</text>
<text text-anchor="start" x="174.5" y="-348.5" font-family="Helvetica,sans-Serif" font-size="10.00">bool IsReadOnly</text>
<text text-anchor="start" x="161.5" y="-333.5" font-family="Helvetica,sans-Serif" font-size="10.00">+</text>
<text text-anchor="start" x="174.5" y="-333.5" font-family="Helvetica,sans-Serif" font-size="10.00">bool IsFixedSize</text>
<text text-anchor="start" x="161.5" y="-318.5" font-family="Helvetica,sans-Serif" font-size="10.00">+</text>
<text text-anchor="start" x="174.5" y="-318.5" font-family="Helvetica,sans-Serif" font-size="10.00">bool IsSynchronized</text>
<text text-anchor="start" x="161.5" y="-303.5" font-family="Helvetica,sans-Serif" font-size="10.00">+</text>
<text text-anchor="start" x="174.5" y="-303.5" font-family="Helvetica,sans-Serif" font-size="10.00">object SyncRoot</text>
<text text-anchor="start" x="161.5" y="-288.5" font-family="Helvetica,sans-Serif" font-size="10.00">+</text>
<text text-anchor="start" x="174.5" y="-288.5" font-family="Helvetica,sans-Serif" font-size="10.00">ICollection Values</text>
<text text-anchor="start" x="161.5" y="-273.5" font-family="Helvetica,sans-Serif" font-size="10.00">+</text>
<text text-anchor="start" x="174.5" y="-273.5" font-family="Helvetica,sans-Serif" font-size="10.00">ListDictionaryInternal()</text>
<text text-anchor="start" x="161.5" y="-258.5" font-family="Helvetica,sans-Serif" font-size="10.00">+</text>
<text text-anchor="start" x="174.5" y="-258.5" font-family="Helvetica,sans-Serif" font-size="10.00">void Add(object key,</text>
<text text-anchor="start" x="174.5" y="-247.5" font-family="Helvetica,sans-Serif" font-size="10.00"> object value)</text>
<text text-anchor="start" x="161.5" y="-232.5" font-family="Helvetica,sans-Serif" font-size="10.00">+</text>
<text text-anchor="start" x="174.5" y="-232.5" font-family="Helvetica,sans-Serif" font-size="10.00">void Clear()</text>
<text text-anchor="start" x="161.5" y="-217.5" font-family="Helvetica,sans-Serif" font-size="10.00">+</text>
<text text-anchor="start" x="174.5" y="-217.5" font-family="Helvetica,sans-Serif" font-size="10.00">bool Contains(object key)</text>
<text text-anchor="start" x="161.5" y="-202.5" font-family="Helvetica,sans-Serif" font-size="10.00">+</text>
<text text-anchor="start" x="174.5" y="-202.5" font-family="Helvetica,sans-Serif" font-size="10.00">void CopyTo(global</text>
<text text-anchor="start" x="174.5" y="-191.5" font-family="Helvetica,sans-Serif" font-size="10.00">::System.Array array,</text>
<text text-anchor="start" x="174.5" y="-180.5" font-family="Helvetica,sans-Serif" font-size="10.00"> int index)</text>
<text text-anchor="start" x="161.5" y="-165.5" font-family="Helvetica,sans-Serif" font-size="10.00">+</text>
<text text-anchor="start" x="174.5" y="-165.5" font-family="Helvetica,sans-Serif" font-size="10.00">IDictionaryEnumerator</text>
<text text-anchor="start" x="174.5" y="-154.5" font-family="Helvetica,sans-Serif" font-size="10.00"> GetEnumerator()</text>
<text text-anchor="start" x="161.5" y="-139.5" font-family="Helvetica,sans-Serif" font-size="10.00">+</text>
<text text-anchor="start" x="174.5" y="-139.5" font-family="Helvetica,sans-Serif" font-size="10.00">void Remove(object key)</text>
<text text-anchor="start" x="164" y="-124.5" font-family="Helvetica,sans-Serif" font-size="10.00">&#45;</text>
<text text-anchor="start" x="174.5" y="-124.5" font-family="Helvetica,sans-Serif" font-size="10.00">IEnumerator System.Collections.</text>
<text text-anchor="start" x="174.5" y="-113.5" font-family="Helvetica,sans-Serif" font-size="10.00">IEnumerable. GetEnumerator()</text>
<polygon fill="#666666" stroke="#666666" points="157.5,-403.5 157.5,-403.5 338.5,-403.5 338.5,-403.5 157.5,-403.5"/>
<polygon fill="#666666" stroke="#666666" points="157.5,-283.5 157.5,-283.5 172.5,-283.5 172.5,-283.5 157.5,-283.5"/>
<polygon fill="#666666" stroke="#666666" points="172.5,-283.5 172.5,-283.5 338.5,-283.5 338.5,-283.5 172.5,-283.5"/>
<polygon fill="none" stroke="#666666" points="157,-107 157,-432 338,-432 338,-107 157,-107"/>
</a>
</g>
</g>
<!-- Node2&#45;&gt;Node3 -->
<g id="edge11_Node000003_Node000002" class="edge">
<title>Node2&#45;&gt;Node3</title>
<g id="a_edge11_Node000003_Node000002"><a xlink:title=" ">
<path fill="none" stroke="#63b8ff" d="M87.72,-560.67C87.66,-532.99 90.19,-486.46 105.5,-450 116.47,-423.87 132.35,-398.37 149.55,-375.18"/>
<polygon fill="none" stroke="#63b8ff" points="149.73,-374.94 150.17,-367.74 156.99,-365.38 156.54,-372.58 149.73,-374.94"/>
</a>
</g>
<text text-anchor="middle" x="134.5" y="-458.5" font-family="Helvetica,sans-Serif" font-size="10.00" fill="grey"> &#45;_syncRoot</text>
</g>
<!-- Node3&#45;&gt;Node1 -->
<g id="edge2_Node000001_Node000003" class="edge">
<title>Node3&#45;&gt;Node1</title>
<g id="a_edge2_Node000001_Node000003"><a xlink:title=" ">
<path fill="none" stroke="#63b8ff" d="M156.98,-134.13C141.26,-110.8 126.09,-88.28 113.95,-70.27"/>
<polygon fill="none" stroke="#63b8ff" points="113.88,-70.16 107.21,-67.42 107.18,-60.21 113.85,-62.95 113.88,-70.16"/>
</a>
</g>
<text text-anchor="middle" x="143.5" y="-81" font-family="Helvetica,sans-Serif" font-size="10.00" fill="grey"> +next</text>
</g>
<!-- Node3&#45;&gt;Node3 -->
<g id="edge9_Node000003_Node000003" class="edge">
<title>Node3&#45;&gt;Node3</title>
<g id="a_edge9_Node000003_Node000003"><a xlink:title=" ">
<path fill="none" stroke="#63b8ff" d="M338.12,-299.47C348.94,-294.02 356,-284.03 356,-269.5 356,-259.96 352.96,-252.38 347.81,-246.76"/>
<polygon fill="none" stroke="#63b8ff" points="347.74,-246.71 340.54,-246.32 338.12,-239.53 345.32,-239.91 347.74,-246.71"/>
</a>
</g>
<text text-anchor="middle" x="371.5" y="-267" font-family="Helvetica,sans-Serif" font-size="10.00" fill="grey"> &#45;head</text>
</g>
<!-- Node4 -->
<g id="Node000004" class="node">
<title>Node4</title>
<g id="a_Node000004"><a xlink:href="../../d7/d23/interfaceSystem_1_1Collections_1_1IDictionary.html" target="_top" xlink:title=" ">
<polygon fill="white" stroke="transparent" points="351.5,-681 205.5,-681 205.5,-490 351.5,-490 351.5,-681"/>
<text text-anchor="start" x="251.5" y="-668.5" font-family="Helvetica,sans-Serif" font-size="10.00">IDictionary</text>
<text text-anchor="start" x="209.5" y="-653.5" font-family="Helvetica,sans-Serif" font-size="10.00">+</text>
<text text-anchor="start" x="222.5" y="-653.5" font-family="Helvetica,sans-Serif" font-size="10.00">object this[object key]</text>
<text text-anchor="start" x="209.5" y="-638.5" font-family="Helvetica,sans-Serif" font-size="10.00">+</text>
<text text-anchor="start" x="222.5" y="-638.5" font-family="Helvetica,sans-Serif" font-size="10.00">ICollection Keys</text>
<text text-anchor="start" x="209.5" y="-623.5" font-family="Helvetica,sans-Serif" font-size="10.00">+</text>
<text text-anchor="start" x="222.5" y="-623.5" font-family="Helvetica,sans-Serif" font-size="10.00">ICollection Values</text>
<text text-anchor="start" x="209.5" y="-608.5" font-family="Helvetica,sans-Serif" font-size="10.00">+</text>
<text text-anchor="start" x="222.5" y="-608.5" font-family="Helvetica,sans-Serif" font-size="10.00">bool IsReadOnly</text>
<text text-anchor="start" x="209.5" y="-593.5" font-family="Helvetica,sans-Serif" font-size="10.00">+</text>
<text text-anchor="start" x="222.5" y="-593.5" font-family="Helvetica,sans-Serif" font-size="10.00">bool IsFixedSize</text>
<text text-anchor="start" x="209.5" y="-578.5" font-family="Helvetica,sans-Serif" font-size="10.00">+</text>
<text text-anchor="start" x="222.5" y="-578.5" font-family="Helvetica,sans-Serif" font-size="10.00">bool Contains(object key)</text>
<text text-anchor="start" x="209.5" y="-563.5" font-family="Helvetica,sans-Serif" font-size="10.00">+</text>
<text text-anchor="start" x="222.5" y="-563.5" font-family="Helvetica,sans-Serif" font-size="10.00">void Add(object key,</text>
<text text-anchor="start" x="222.5" y="-552.5" font-family="Helvetica,sans-Serif" font-size="10.00"> object value)</text>
<text text-anchor="start" x="209.5" y="-537.5" font-family="Helvetica,sans-Serif" font-size="10.00">+</text>
<text text-anchor="start" x="222.5" y="-537.5" font-family="Helvetica,sans-Serif" font-size="10.00">void Clear()</text>
<text text-anchor="start" x="209.5" y="-522.5" font-family="Helvetica,sans-Serif" font-size="10.00">+</text>
<text text-anchor="start" x="222.5" y="-522.5" font-family="Helvetica,sans-Serif" font-size="10.00">IDictionaryEnumerator</text>
<text text-anchor="start" x="222.5" y="-511.5" font-family="Helvetica,sans-Serif" font-size="10.00"> GetEnumerator()</text>
<text text-anchor="start" x="209.5" y="-496.5" font-family="Helvetica,sans-Serif" font-size="10.00">+</text>
<text text-anchor="start" x="222.5" y="-496.5" font-family="Helvetica,sans-Serif" font-size="10.00">void Remove(object key)</text>
<polygon fill="#666666" stroke="#666666" points="205.5,-663.5 205.5,-663.5 351.5,-663.5 351.5,-663.5 205.5,-663.5"/>
<polygon fill="#666666" stroke="#666666" points="205.5,-588.5 205.5,-588.5 220.5,-588.5 220.5,-588.5 205.5,-588.5"/>
<polygon fill="#666666" stroke="#666666" points="220.5,-588.5 220.5,-588.5 351.5,-588.5 351.5,-588.5 220.5,-588.5"/>
<polygon fill="none" stroke="#666666" points="205.5,-490 205.5,-681 351.5,-681 351.5,-490 205.5,-490"/>
</a>
</g>
</g>
<!-- Node4&#45;&gt;Node3 -->
<g id="edge3_Node000003_Node000004" class="edge">
<title>Node4&#45;&gt;Node3</title>
<g id="a_edge3_Node000003_Node000004"><a xlink:title=" ">
<path fill="none" stroke="#63b8ff" d="M268.17,-479.86C266.65,-464.46 265.05,-448.3 263.45,-432.07"/>
<polygon fill="none" stroke="#63b8ff" points="264.69,-480.26 269.16,-489.86 271.66,-479.57 264.69,-480.26"/>
</a>
</g>
</g>
<!-- Node5 -->
<g id="Node000005" class="node">
<title>Node5</title>
<g id="a_Node000005"><a xlink:href="../../d8/dc8/interfaceSystem_1_1Collections_1_1ICollection.html" target="_top" xlink:title=" ">
<polygon fill="white" stroke="transparent" points="388,-819 263,-819 263,-718 388,-718 388,-819"/>
<text text-anchor="start" x="300" y="-806.5" font-family="Helvetica,sans-Serif" font-size="10.00">ICollection</text>
<text text-anchor="start" x="267.5" y="-791.5" font-family="Helvetica,sans-Serif" font-size="10.00">+</text>
<text text-anchor="start" x="280.5" y="-791.5" font-family="Helvetica,sans-Serif" font-size="10.00">int Count</text>
<text text-anchor="start" x="267.5" y="-776.5" font-family="Helvetica,sans-Serif" font-size="10.00">+</text>
<text text-anchor="start" x="280.5" y="-776.5" font-family="Helvetica,sans-Serif" font-size="10.00">object SyncRoot</text>
<text text-anchor="start" x="267.5" y="-761.5" font-family="Helvetica,sans-Serif" font-size="10.00">+</text>
<text text-anchor="start" x="280.5" y="-761.5" font-family="Helvetica,sans-Serif" font-size="10.00">bool IsSynchronized</text>
<text text-anchor="start" x="267.5" y="-746.5" font-family="Helvetica,sans-Serif" font-size="10.00">+</text>
<text text-anchor="start" x="280.5" y="-746.5" font-family="Helvetica,sans-Serif" font-size="10.00">void CopyTo(global</text>
<text text-anchor="start" x="280.5" y="-735.5" font-family="Helvetica,sans-Serif" font-size="10.00">::System.Array array,</text>
<text text-anchor="start" x="280.5" y="-724.5" font-family="Helvetica,sans-Serif" font-size="10.00"> int index)</text>
<polygon fill="#666666" stroke="#666666" points="263.5,-801.5 263.5,-801.5 388.5,-801.5 388.5,-801.5 263.5,-801.5"/>
<polygon fill="#666666" stroke="#666666" points="263.5,-756.5 263.5,-756.5 278.5,-756.5 278.5,-756.5 263.5,-756.5"/>
<polygon fill="#666666" stroke="#666666" points="278.5,-756.5 278.5,-756.5 388.5,-756.5 388.5,-756.5 278.5,-756.5"/>
<polygon fill="none" stroke="#666666" points="263,-718 263,-819 388,-819 388,-718 263,-718"/>
</a>
</g>
</g>
<!-- Node5&#45;&gt;Node3 -->
<g id="edge7_Node000003_Node000005" class="edge">
<title>Node5&#45;&gt;Node3</title>
<g id="a_edge7_Node000003_Node000005"><a xlink:title=" ">
<path fill="none" stroke="#63b8ff" d="M352.94,-708.17C356.07,-699.23 358.75,-689.99 360.5,-681 376.72,-597.67 380.49,-572.5 360.5,-490 355.18,-468.03 347.25,-445.79 338.02,-424.33"/>
<polygon fill="none" stroke="#63b8ff" points="349.6,-707.13 349.41,-717.73 356.16,-709.56 349.6,-707.13"/>
</a>
</g>
</g>
<!-- Node5&#45;&gt;Node4 -->
<g id="edge4_Node000004_Node000005" class="edge">
<title>Node5&#45;&gt;Node4</title>
<g id="a_edge4_Node000004_Node000005"><a xlink:title=" ">
<path fill="none" stroke="#63b8ff" d="M309.97,-707.7C307.74,-699.12 305.41,-690.12 303.06,-681.07"/>
<polygon fill="none" stroke="#63b8ff" points="306.63,-708.76 312.53,-717.56 313.41,-707 306.63,-708.76"/>
</a>
</g>
</g>
<!-- Node6 -->
<g id="Node000006" class="node">
<title>Node6</title>
<g id="a_Node000006"><a xlink:href="../../d4/da3/interfaceSystem_1_1Collections_1_1IEnumerable.html" target="_top" xlink:title=" ">
<polygon fill="white" stroke="transparent" points="317.5,-905 151.5,-905 151.5,-856 317.5,-856 317.5,-905"/>
<text text-anchor="start" x="203.5" y="-892.5" font-family="Helvetica,sans-Serif" font-size="10.00">IEnumerable</text>
<text text-anchor="start" x="232.5" y="-877.5" font-family="Helvetica,sans-Serif" font-size="10.00"> </text>
<text text-anchor="start" x="155.5" y="-862.5" font-family="Helvetica,sans-Serif" font-size="10.00">+</text>
<text text-anchor="start" x="168.5" y="-862.5" font-family="Helvetica,sans-Serif" font-size="10.00">IEnumerator GetEnumerator()</text>
<polygon fill="#666666" stroke="#666666" points="151.5,-887.5 151.5,-887.5 317.5,-887.5 317.5,-887.5 151.5,-887.5"/>
<polygon fill="#666666" stroke="#666666" points="151.5,-872.5 151.5,-872.5 317.5,-872.5 317.5,-872.5 151.5,-872.5"/>
<polygon fill="none" stroke="#666666" points="151.5,-856 151.5,-905 317.5,-905 317.5,-856 151.5,-856"/>
</a>
</g>
</g>
<!-- Node6&#45;&gt;Node3 -->
<g id="edge8_Node000003_Node000006" class="edge">
<title>Node6&#45;&gt;Node3</title>
<g id="a_edge8_Node000003_Node000006"><a xlink:title=" ">
<path fill="none" stroke="#63b8ff" d="M226.09,-846.05C216.69,-806.82 202.07,-739.68 196.5,-681 188.48,-596.49 186.83,-574.34 196.5,-490 198.66,-471.15 201.83,-451.56 205.56,-432.2"/>
<polygon fill="none" stroke="#63b8ff" points="222.71,-846.98 228.47,-855.88 229.51,-845.33 222.71,-846.98"/>
</a>
</g>
</g>
<!-- Node6&#45;&gt;Node4 -->
<g id="edge6_Node000004_Node000006" class="edge">
<title>Node6&#45;&gt;Node4</title>
<g id="a_edge6_Node000004_Node000006"><a xlink:title=" ">
<path fill="none" stroke="#63b8ff" d="M237.79,-845.52C241.13,-812.77 246.76,-761.87 253.5,-718 255.34,-706.06 257.46,-693.54 259.67,-681.17"/>
<polygon fill="none" stroke="#63b8ff" points="234.27,-845.59 236.75,-855.89 241.23,-846.29 234.27,-845.59"/>
</a>
</g>
</g>
<!-- Node6&#45;&gt;Node5 -->
<g id="edge5_Node000005_Node000006" class="edge">
<title>Node6&#45;&gt;Node5</title>
<g id="a_edge5_Node000005_Node000006"><a xlink:title=" ">
<path fill="none" stroke="#63b8ff" d="M260.56,-848C267.97,-839.04 276.24,-829.05 284.31,-819.29"/>
<polygon fill="none" stroke="#63b8ff" points="257.7,-845.97 254.02,-855.9 263.09,-850.43 257.7,-845.97"/>
</a>
</g>
</g>
<!-- Node7 -->
<g id="Node000007" class="node">
<title>Node7</title>
<g id="a_Node000007"><a xlink:title=" ">
<polygon fill="white" stroke="transparent" points="431,-610 408,-610 408,-561 431,-561 431,-610"/>
<text text-anchor="start" x="413.5" y="-597.5" font-family="Helvetica,sans-Serif" font-size="10.00">int</text>
<text text-anchor="start" x="418" y="-582.5" font-family="Helvetica,sans-Serif" font-size="10.00"> </text>
<text text-anchor="start" x="418" y="-567.5" font-family="Helvetica,sans-Serif" font-size="10.00"> </text>
<polygon fill="#666666" stroke="#666666" points="408.5,-592.5 408.5,-592.5 431.5,-592.5 431.5,-592.5 408.5,-592.5"/>
<polygon fill="#666666" stroke="#666666" points="408.5,-577.5 408.5,-577.5 431.5,-577.5 431.5,-577.5 408.5,-577.5"/>
<polygon fill="none" stroke="#666666" points="408,-561 408,-610 431,-610 431,-561 408,-561"/>
</a>
</g>
</g>
<!-- Node7&#45;&gt;Node3 -->
<g id="edge10_Node000003_Node000007" class="edge">
<title>Node7&#45;&gt;Node3</title>
<g id="a_edge10_Node000003_Node000007"><a xlink:title=" ">
<path fill="none" stroke="#63b8ff" d="M418.39,-560.58C416.32,-532.81 410.41,-486.2 393.5,-450 381.1,-423.45 363.91,-397.45 345.67,-373.85"/>
<polygon fill="none" stroke="#63b8ff" points="345.52,-373.66 338.66,-371.43 338.08,-364.24 344.94,-366.47 345.52,-373.66"/>
</a>
</g>
<text text-anchor="middle" x="421.5" y="-464" font-family="Helvetica,sans-Serif" font-size="10.00" fill="grey"> &#45;count</text>
<text text-anchor="middle" x="421.5" y="-453" font-family="Helvetica,sans-Serif" font-size="10.00" fill="grey">&#45;version</text>
</g>
</g>
</svg>
