<?xml version="1.0" encoding="UTF-8" standalone="no"?>
<!DOCTYPE svg PUBLIC "-//W3C//DTD SVG 1.1//EN"
 "http://www.w3.org/Graphics/SVG/1.1/DTD/svg11.dtd">
<!-- Generated by graphviz version 2.43.0 (0)
 -->
<!-- Title: GUIControllerItemDuplication Pages: 1 -->
<svg width="221pt" height="1239pt"
 viewBox="0.00 0.00 221.00 1239.00" xmlns="http://www.w3.org/2000/svg" xmlns:xlink="http://www.w3.org/1999/xlink">
<g id="graph0" class="graph" transform="scale(1 1) rotate(0) translate(4 1235)">
<title>GUIControllerItemDuplication</title>
<!-- Node1 -->
<g id="Node000001" class="node">
<title>Node1</title>
<g id="a_Node000001"><a xlink:title=" ">
<polygon fill="#999999" stroke="transparent" points="206,-697 7,-697 7,-450 206,-450 206,-697"/>
<text text-anchor="start" x="34.5" y="-684.5" font-family="Helvetica,sans-Serif" font-size="10.00">GUIControllerItemDuplication</text>
<text text-anchor="start" x="11.5" y="-669.5" font-family="Helvetica,sans-Serif" font-size="10.00">+</text>
<text text-anchor="start" x="24.5" y="-669.5" font-family="Helvetica,sans-Serif" font-size="10.00">int itemRow</text>
<text text-anchor="start" x="11.5" y="-654.5" font-family="Helvetica,sans-Serif" font-size="10.00">+</text>
<text text-anchor="start" x="24.5" y="-654.5" font-family="Helvetica,sans-Serif" font-size="10.00">int itemColumn</text>
<text text-anchor="start" x="11.5" y="-639.5" font-family="Helvetica,sans-Serif" font-size="10.00">+</text>
<text text-anchor="start" x="24.5" y="-639.5" font-family="Helvetica,sans-Serif" font-size="10.00">int scrollOffset</text>
<text text-anchor="start" x="11.5" y="-624.5" font-family="Helvetica,sans-Serif" font-size="10.00">+</text>
<text text-anchor="start" x="24.5" y="-624.5" font-family="Helvetica,sans-Serif" font-size="10.00">int MinRow</text>
<text text-anchor="start" x="11.5" y="-609.5" font-family="Helvetica,sans-Serif" font-size="10.00">+</text>
<text text-anchor="start" x="24.5" y="-609.5" font-family="Helvetica,sans-Serif" font-size="10.00">int MinColumns</text>
<text text-anchor="start" x="11.5" y="-594.5" font-family="Helvetica,sans-Serif" font-size="10.00">+</text>
<text text-anchor="start" x="24.5" y="-594.5" font-family="Helvetica,sans-Serif" font-size="10.00">GUIControllerItemDuplication()</text>
<text text-anchor="start" x="11.5" y="-579.5" font-family="Helvetica,sans-Serif" font-size="10.00">+</text>
<text text-anchor="start" x="24.5" y="-579.5" font-family="Helvetica,sans-Serif" font-size="10.00">virtual bool IsInMenu()</text>
<text text-anchor="start" x="11.5" y="-564.5" font-family="Helvetica,sans-Serif" font-size="10.00">+</text>
<text text-anchor="start" x="24.5" y="-564.5" font-family="Helvetica,sans-Serif" font-size="10.00">override void Activate()</text>
<text text-anchor="start" x="11.5" y="-549.5" font-family="Helvetica,sans-Serif" font-size="10.00">+</text>
<text text-anchor="start" x="24.5" y="-549.5" font-family="Helvetica,sans-Serif" font-size="10.00">virtual void RefreshScroll</text>
<text text-anchor="start" x="24.5" y="-538.5" font-family="Helvetica,sans-Serif" font-size="10.00">Offset()</text>
<text text-anchor="start" x="11.5" y="-523.5" font-family="Helvetica,sans-Serif" font-size="10.00">+</text>
<text text-anchor="start" x="24.5" y="-523.5" font-family="Helvetica,sans-Serif" font-size="10.00">override GUIControllerItem</text>
<text text-anchor="start" x="24.5" y="-512.5" font-family="Helvetica,sans-Serif" font-size="10.00"> Navigate(Vector2 navigationVector)</text>
<text text-anchor="start" x="11.5" y="-497.5" font-family="Helvetica,sans-Serif" font-size="10.00">+</text>
<text text-anchor="start" x="24.5" y="-497.5" font-family="Helvetica,sans-Serif" font-size="10.00">override Rectangle</text>
<text text-anchor="start" x="24.5" y="-486.5" font-family="Helvetica,sans-Serif" font-size="10.00"> GetSelectedItemRegion()</text>
<text text-anchor="start" x="11.5" y="-471.5" font-family="Helvetica,sans-Serif" font-size="10.00">#</text>
<text text-anchor="start" x="24.5" y="-471.5" font-family="Helvetica,sans-Serif" font-size="10.00">virtual void UpdateScroll()</text>
<text text-anchor="start" x="11.5" y="-456.5" font-family="Helvetica,sans-Serif" font-size="10.00">#</text>
<text text-anchor="start" x="24.5" y="-456.5" font-family="Helvetica,sans-Serif" font-size="10.00">virtual void ClampPosition()</text>
<polygon fill="#666666" stroke="#666666" points="7.5,-679.5 7.5,-679.5 206.5,-679.5 206.5,-679.5 7.5,-679.5"/>
<polygon fill="#666666" stroke="#666666" points="7.5,-604.5 7.5,-604.5 22.5,-604.5 22.5,-604.5 7.5,-604.5"/>
<polygon fill="#666666" stroke="#666666" points="22.5,-604.5 22.5,-604.5 206.5,-604.5 206.5,-604.5 22.5,-604.5"/>
<polygon fill="none" stroke="#666666" points="7,-450 7,-697 206,-697 206,-450 7,-450"/>
</a>
</g>
</g>
<!-- Node4 -->
<g id="Node000004" class="node">
<title>Node4</title>
<g id="a_Node000004"><a xlink:href="../../de/d5f/classGUIControllerItemDuplication4Page.html" target="_top" xlink:title=" ">
<polygon fill="white" stroke="transparent" points="206,-414 7,-414 7,0 206,0 206,-414"/>
<text text-anchor="start" x="20" y="-402" font-family="Helvetica,sans-Serif" font-size="10.00">GUIControllerItemDuplication4Page</text>
<text text-anchor="start" x="11.5" y="-387" font-family="Helvetica,sans-Serif" font-size="10.00">+</text>
<text text-anchor="start" x="24.5" y="-387" font-family="Helvetica,sans-Serif" font-size="10.00">GUIControllerDynamicGrid</text>
<text text-anchor="start" x="24.5" y="-376" font-family="Helvetica,sans-Serif" font-size="10.00">Navigator GridNav</text>
<text text-anchor="start" x="14" y="-361" font-family="Helvetica,sans-Serif" font-size="10.00">&#45;</text>
<text text-anchor="start" x="24.5" y="-361" font-family="Helvetica,sans-Serif" font-size="10.00">GUIControllerDynamicGrid</text>
<text text-anchor="start" x="24.5" y="-350" font-family="Helvetica,sans-Serif" font-size="10.00">Navigator _gridNav</text>
<text text-anchor="start" x="11.5" y="-335" font-family="Helvetica,sans-Serif" font-size="10.00">+</text>
<text text-anchor="start" x="24.5" y="-335" font-family="Helvetica,sans-Serif" font-size="10.00">override bool IsInMenu()</text>
<text text-anchor="start" x="11.5" y="-320" font-family="Helvetica,sans-Serif" font-size="10.00">+</text>
<text text-anchor="start" x="24.5" y="-320" font-family="Helvetica,sans-Serif" font-size="10.00">override void Activate()</text>
<text text-anchor="start" x="11.5" y="-305" font-family="Helvetica,sans-Serif" font-size="10.00">+</text>
<text text-anchor="start" x="24.5" y="-305" font-family="Helvetica,sans-Serif" font-size="10.00">override int GetNavigation</text>
<text text-anchor="start" x="24.5" y="-294" font-family="Helvetica,sans-Serif" font-size="10.00">OutDirs()</text>
<text text-anchor="start" x="11.5" y="-279" font-family="Helvetica,sans-Serif" font-size="10.00">+</text>
<text text-anchor="start" x="24.5" y="-279" font-family="Helvetica,sans-Serif" font-size="10.00">override void RefreshScroll</text>
<text text-anchor="start" x="24.5" y="-268" font-family="Helvetica,sans-Serif" font-size="10.00">Offset()</text>
<text text-anchor="start" x="11.5" y="-253" font-family="Helvetica,sans-Serif" font-size="10.00">+</text>
<text text-anchor="start" x="24.5" y="-253" font-family="Helvetica,sans-Serif" font-size="10.00">override GUIControllerItem</text>
<text text-anchor="start" x="24.5" y="-242" font-family="Helvetica,sans-Serif" font-size="10.00"> Navigate(Vector2 navigationVector)</text>
<text text-anchor="start" x="11.5" y="-227" font-family="Helvetica,sans-Serif" font-size="10.00">+</text>
<text text-anchor="start" x="24.5" y="-227" font-family="Helvetica,sans-Serif" font-size="10.00">override Rectangle</text>
<text text-anchor="start" x="24.5" y="-216" font-family="Helvetica,sans-Serif" font-size="10.00"> GetSelectedItemRegion()</text>
<text text-anchor="start" x="11.5" y="-201" font-family="Helvetica,sans-Serif" font-size="10.00">+</text>
<text text-anchor="start" x="24.5" y="-201" font-family="Helvetica,sans-Serif" font-size="10.00">override void NavigateInto</text>
<text text-anchor="start" x="24.5" y="-190" font-family="Helvetica,sans-Serif" font-size="10.00">(int column, int row)</text>
<text text-anchor="start" x="11.5" y="-175" font-family="Helvetica,sans-Serif" font-size="10.00">+</text>
<text text-anchor="start" x="24.5" y="-175" font-family="Helvetica,sans-Serif" font-size="10.00">GUIControllerItemDuplication4</text>
<text text-anchor="start" x="24.5" y="-164" font-family="Helvetica,sans-Serif" font-size="10.00">Page()</text>
<text text-anchor="start" x="11.5" y="-149" font-family="Helvetica,sans-Serif" font-size="10.00">#</text>
<text text-anchor="start" x="24.5" y="-149" font-family="Helvetica,sans-Serif" font-size="10.00">override void UpdateScroll()</text>
<text text-anchor="start" x="11.5" y="-134" font-family="Helvetica,sans-Serif" font-size="10.00">#</text>
<text text-anchor="start" x="24.5" y="-134" font-family="Helvetica,sans-Serif" font-size="10.00">override void ClampPosition()</text>
<text text-anchor="start" x="14" y="-119" font-family="Helvetica,sans-Serif" font-size="10.00">&#45;</text>
<text text-anchor="start" x="24.5" y="-119" font-family="Helvetica,sans-Serif" font-size="10.00">DraggableItemGrid_Layout</text>
<text text-anchor="start" x="24.5" y="-108" font-family="Helvetica,sans-Serif" font-size="10.00"> GetGrid()</text>
<text text-anchor="start" x="14" y="-93" font-family="Helvetica,sans-Serif" font-size="10.00">&#45;</text>
<text text-anchor="start" x="24.5" y="-93" font-family="Helvetica,sans-Serif" font-size="10.00">int GetCollectionCount()</text>
<text text-anchor="start" x="14" y="-78" font-family="Helvetica,sans-Serif" font-size="10.00">&#45;</text>
<text text-anchor="start" x="24.5" y="-78" font-family="Helvetica,sans-Serif" font-size="10.00">float GetItemScale()</text>
<text text-anchor="start" x="14" y="-63" font-family="Helvetica,sans-Serif" font-size="10.00">&#45;</text>
<text text-anchor="start" x="24.5" y="-63" font-family="Helvetica,sans-Serif" font-size="10.00">float GetScrollOffset()</text>
<text text-anchor="start" x="14" y="-48" font-family="Helvetica,sans-Serif" font-size="10.00">&#45;</text>
<text text-anchor="start" x="24.5" y="-48" font-family="Helvetica,sans-Serif" font-size="10.00">void SetScrollOffset</text>
<text text-anchor="start" x="24.5" y="-37" font-family="Helvetica,sans-Serif" font-size="10.00">(float offset)</text>
<text text-anchor="start" x="14" y="-22" font-family="Helvetica,sans-Serif" font-size="10.00">&#45;</text>
<text text-anchor="start" x="24.5" y="-22" font-family="Helvetica,sans-Serif" font-size="10.00">int GetMenuItemCount()</text>
<text text-anchor="start" x="14" y="-7" font-family="Helvetica,sans-Serif" font-size="10.00">&#45;</text>
<text text-anchor="start" x="24.5" y="-7" font-family="Helvetica,sans-Serif" font-size="10.00">int GetDisplayItemCount()</text>
<polygon fill="#666666" stroke="#666666" points="7.5,-397 7.5,-397 206.5,-397 206.5,-397 7.5,-397"/>
<polygon fill="#666666" stroke="#666666" points="7.5,-345 7.5,-345 22.5,-345 22.5,-345 7.5,-345"/>
<polygon fill="#666666" stroke="#666666" points="22.5,-345 22.5,-345 206.5,-345 206.5,-345 22.5,-345"/>
<polygon fill="none" stroke="#666666" points="7,0 7,-414 206,-414 206,0 7,0"/>
</a>
</g>
</g>
<!-- Node1&#45;&gt;Node4 -->
<g id="edge3_Node000001_Node000004" class="edge">
<title>Node1&#45;&gt;Node4</title>
<g id="a_edge3_Node000001_Node000004"><a xlink:title=" ">
<path fill="none" stroke="#63b8ff" d="M106.5,-439.73C106.5,-431.37 106.5,-422.85 106.5,-414.26"/>
<polygon fill="none" stroke="#63b8ff" points="103,-439.86 106.5,-449.86 110,-439.86 103,-439.86"/>
</a>
</g>
</g>
<!-- Node2 -->
<g id="Node000002" class="node">
<title>Node2</title>
<g id="a_Node000002"><a xlink:href="../../d4/d82/classGUIPageContentController.html" target="_top" xlink:title=" ">
<polygon fill="white" stroke="transparent" points="213,-1079 0,-1079 0,-733 213,-733 213,-1079"/>
<text text-anchor="start" x="43" y="-1067" font-family="Helvetica,sans-Serif" font-size="10.00">GUIPageContentController</text>
<text text-anchor="start" x="4.5" y="-1052" font-family="Helvetica,sans-Serif" font-size="10.00">+</text>
<text text-anchor="start" x="17.5" y="-1052" font-family="Helvetica,sans-Serif" font-size="10.00">int ResearchButton</text>
<text text-anchor="start" x="4.5" y="-1037" font-family="Helvetica,sans-Serif" font-size="10.00">+</text>
<text text-anchor="start" x="17.5" y="-1037" font-family="Helvetica,sans-Serif" font-size="10.00">GUIPageIconGrouping</text>
<text text-anchor="start" x="17.5" y="-1026" font-family="Helvetica,sans-Serif" font-size="10.00"> ParentGrouping</text>
<text text-anchor="start" x="7" y="-1011" font-family="Helvetica,sans-Serif" font-size="10.00">&#45;</text>
<text text-anchor="start" x="17.5" y="-1011" font-family="Helvetica,sans-Serif" font-size="10.00">readonly GUIPageIcons.Category</text>
<text text-anchor="start" x="17.5" y="-1000" font-family="Helvetica,sans-Serif" font-size="10.00"> PageCategory</text>
<text text-anchor="start" x="7" y="-985" font-family="Helvetica,sans-Serif" font-size="10.00">&#45;</text>
<text text-anchor="start" x="17.5" y="-985" font-family="Helvetica,sans-Serif" font-size="10.00">readonly GUIPageIconGrouping.</text>
<text text-anchor="start" x="17.5" y="-974" font-family="Helvetica,sans-Serif" font-size="10.00">SettingCategory SettingCategory</text>
<text text-anchor="start" x="4.5" y="-959" font-family="Helvetica,sans-Serif" font-size="10.00">+</text>
<text text-anchor="start" x="17.5" y="-959" font-family="Helvetica,sans-Serif" font-size="10.00">virtual int GetNavigation</text>
<text text-anchor="start" x="17.5" y="-948" font-family="Helvetica,sans-Serif" font-size="10.00">OutDirs()</text>
<text text-anchor="start" x="4.5" y="-933" font-family="Helvetica,sans-Serif" font-size="10.00">+</text>
<text text-anchor="start" x="17.5" y="-933" font-family="Helvetica,sans-Serif" font-size="10.00">bool IsPageContoller</text>
<text text-anchor="start" x="17.5" y="-922" font-family="Helvetica,sans-Serif" font-size="10.00">(GUIControllerItem item)</text>
<text text-anchor="start" x="4.5" y="-907" font-family="Helvetica,sans-Serif" font-size="10.00">+</text>
<text text-anchor="start" x="17.5" y="-907" font-family="Helvetica,sans-Serif" font-size="10.00">void LoadPageAnchor()</text>
<text text-anchor="start" x="4.5" y="-892" font-family="Helvetica,sans-Serif" font-size="10.00">+</text>
<text text-anchor="start" x="17.5" y="-892" font-family="Helvetica,sans-Serif" font-size="10.00">virtual void Activate()</text>
<text text-anchor="start" x="4.5" y="-877" font-family="Helvetica,sans-Serif" font-size="10.00">+</text>
<text text-anchor="start" x="17.5" y="-877" font-family="Helvetica,sans-Serif" font-size="10.00">virtual GUIControllerItem</text>
<text text-anchor="start" x="17.5" y="-866" font-family="Helvetica,sans-Serif" font-size="10.00"> Navigate(Vector2 navigationVector)</text>
<text text-anchor="start" x="4.5" y="-851" font-family="Helvetica,sans-Serif" font-size="10.00">+</text>
<text text-anchor="start" x="17.5" y="-851" font-family="Helvetica,sans-Serif" font-size="10.00">virtual Rectangle GetSelected</text>
<text text-anchor="start" x="17.5" y="-840" font-family="Helvetica,sans-Serif" font-size="10.00">ItemRegion()</text>
<text text-anchor="start" x="4.5" y="-825" font-family="Helvetica,sans-Serif" font-size="10.00">+</text>
<text text-anchor="start" x="17.5" y="-825" font-family="Helvetica,sans-Serif" font-size="10.00">virtual void NavigateInto</text>
<text text-anchor="start" x="17.5" y="-814" font-family="Helvetica,sans-Serif" font-size="10.00">(int column, int row)</text>
<text text-anchor="start" x="4.5" y="-799" font-family="Helvetica,sans-Serif" font-size="10.00">#</text>
<text text-anchor="start" x="17.5" y="-799" font-family="Helvetica,sans-Serif" font-size="10.00">GUIPageContentController</text>
<text text-anchor="start" x="17.5" y="-788" font-family="Helvetica,sans-Serif" font-size="10.00">(GUIPageIcons.Category</text>
<text text-anchor="start" x="17.5" y="-777" font-family="Helvetica,sans-Serif" font-size="10.00"> pageCategory)</text>
<text text-anchor="start" x="4.5" y="-762" font-family="Helvetica,sans-Serif" font-size="10.00">#</text>
<text text-anchor="start" x="17.5" y="-762" font-family="Helvetica,sans-Serif" font-size="10.00">GUIPageContentController</text>
<text text-anchor="start" x="17.5" y="-751" font-family="Helvetica,sans-Serif" font-size="10.00">(GUIPageIconGrouping.SettingCategory</text>
<text text-anchor="start" x="17.5" y="-740" font-family="Helvetica,sans-Serif" font-size="10.00"> settingCategory)</text>
<polygon fill="#666666" stroke="#666666" points="0.5,-1062 0.5,-1062 213.5,-1062 213.5,-1062 0.5,-1062"/>
<polygon fill="#666666" stroke="#666666" points="0.5,-969 0.5,-969 15.5,-969 15.5,-969 0.5,-969"/>
<polygon fill="#666666" stroke="#666666" points="15.5,-969 15.5,-969 213.5,-969 213.5,-969 15.5,-969"/>
<polygon fill="none" stroke="#666666" points="0,-733 0,-1079 213,-1079 213,-733 0,-733"/>
</a>
</g>
</g>
<!-- Node2&#45;&gt;Node1 -->
<g id="edge1_Node000001_Node000002" class="edge">
<title>Node2&#45;&gt;Node1</title>
<g id="a_edge1_Node000001_Node000002"><a xlink:title=" ">
<path fill="none" stroke="#63b8ff" d="M106.5,-722.8C106.5,-714.15 106.5,-705.57 106.5,-697.15"/>
<polygon fill="none" stroke="#63b8ff" points="103,-722.97 106.5,-732.97 110,-722.97 103,-722.97"/>
</a>
</g>
</g>
<!-- Node3 -->
<g id="Node000003" class="node">
<title>Node3</title>
<g id="a_Node000003"><a xlink:href="../../d1/d1a/interfaceGUIControllerItem.html" target="_top" xlink:title=" ">
<polygon fill="white" stroke="transparent" points="185,-1231 28,-1231 28,-1115 185,-1115 185,-1231"/>
<text text-anchor="start" x="62.5" y="-1219" font-family="Helvetica,sans-Serif" font-size="10.00">GUIControllerItem</text>
<text text-anchor="start" x="105" y="-1204" font-family="Helvetica,sans-Serif" font-size="10.00"> </text>
<text text-anchor="start" x="32.5" y="-1189" font-family="Helvetica,sans-Serif" font-size="10.00">+</text>
<text text-anchor="start" x="45.5" y="-1189" font-family="Helvetica,sans-Serif" font-size="10.00">void Activate()</text>
<text text-anchor="start" x="32.5" y="-1174" font-family="Helvetica,sans-Serif" font-size="10.00">+</text>
<text text-anchor="start" x="45.5" y="-1174" font-family="Helvetica,sans-Serif" font-size="10.00">GUIControllerItem Navigate</text>
<text text-anchor="start" x="45.5" y="-1163" font-family="Helvetica,sans-Serif" font-size="10.00">(Vector2 navigationVector)</text>
<text text-anchor="start" x="32.5" y="-1148" font-family="Helvetica,sans-Serif" font-size="10.00">+</text>
<text text-anchor="start" x="45.5" y="-1148" font-family="Helvetica,sans-Serif" font-size="10.00">Rectangle GetSelectedItem</text>
<text text-anchor="start" x="45.5" y="-1137" font-family="Helvetica,sans-Serif" font-size="10.00">Region()</text>
<text text-anchor="start" x="32.5" y="-1122" font-family="Helvetica,sans-Serif" font-size="10.00">+</text>
<text text-anchor="start" x="45.5" y="-1122" font-family="Helvetica,sans-Serif" font-size="10.00">int GetNavigationOutDirs()</text>
<polygon fill="#666666" stroke="#666666" points="28.5,-1214 28.5,-1214 185.5,-1214 185.5,-1214 28.5,-1214"/>
<polygon fill="#666666" stroke="#666666" points="28.5,-1199 28.5,-1199 185.5,-1199 185.5,-1199 28.5,-1199"/>
<polygon fill="none" stroke="#666666" points="28,-1115 28,-1231 185,-1231 185,-1115 28,-1115"/>
</a>
</g>
</g>
<!-- Node3&#45;&gt;Node2 -->
<g id="edge2_Node000002_Node000003" class="edge">
<title>Node3&#45;&gt;Node2</title>
<g id="a_edge2_Node000002_Node000003"><a xlink:title=" ">
<path fill="none" stroke="#63b8ff" d="M106.5,-1104.74C106.5,-1096.58 106.5,-1087.98 106.5,-1079.12"/>
<polygon fill="none" stroke="#63b8ff" points="103,-1104.83 106.5,-1114.83 110,-1104.83 103,-1104.83"/>
</a>
</g>
</g>
</g>
</svg>
