<?xml version="1.0" encoding="UTF-8" standalone="no"?>
<!DOCTYPE svg PUBLIC "-//W3C//DTD SVG 1.1//EN"
 "http://www.w3.org/Graphics/SVG/1.1/DTD/svg11.dtd">
<!-- Generated by graphviz version 2.43.0 (0)
 -->
<!-- Title: Terraria.GameContent.ItemDropRules.Chains.TryIfSucceeded Pages: 1 -->
<svg width="483pt" height="603pt"
 viewBox="0.00 0.00 483.00 603.00" xmlns="http://www.w3.org/2000/svg" xmlns:xlink="http://www.w3.org/1999/xlink">
<g id="graph0" class="graph" transform="scale(1 1) rotate(0) translate(4 599)">
<title>Terraria.GameContent.ItemDropRules.Chains.TryIfSucceeded</title>
<!-- Node1 -->
<g id="Node000001" class="node">
<title>Node1</title>
<g id="a_Node000001"><a xlink:title=" ">
<polygon fill="#999999" stroke="transparent" points="397.5,-156 192.5,-156 192.5,0 397.5,0 397.5,-156"/>
<text text-anchor="start" x="214" y="-144" font-family="Helvetica,sans-Serif" font-size="10.00">Terraria.GameContent.Item</text>
<text text-anchor="start" x="214" y="-133" font-family="Helvetica,sans-Serif" font-size="10.00">DropRules.Chains.TryIfSucceeded</text>
<text text-anchor="start" x="197" y="-118" font-family="Helvetica,sans-Serif" font-size="10.00">+</text>
<text text-anchor="start" x="210" y="-118" font-family="Helvetica,sans-Serif" font-size="10.00">IItemDropRule RuleToChain</text>
<text text-anchor="start" x="197" y="-103" font-family="Helvetica,sans-Serif" font-size="10.00">+</text>
<text text-anchor="start" x="210" y="-103" font-family="Helvetica,sans-Serif" font-size="10.00">TryIfSucceeded(IItemDrop</text>
<text text-anchor="start" x="210" y="-92" font-family="Helvetica,sans-Serif" font-size="10.00">Rule rule, bool hideLootReport=false)</text>
<text text-anchor="start" x="197" y="-77" font-family="Helvetica,sans-Serif" font-size="10.00">+</text>
<text text-anchor="start" x="210" y="-77" font-family="Helvetica,sans-Serif" font-size="10.00">bool CanChainIntoRule</text>
<text text-anchor="start" x="210" y="-66" font-family="Helvetica,sans-Serif" font-size="10.00">(ItemDropAttemptResult</text>
<text text-anchor="start" x="210" y="-55" font-family="Helvetica,sans-Serif" font-size="10.00"> parentResult)</text>
<text text-anchor="start" x="197" y="-40" font-family="Helvetica,sans-Serif" font-size="10.00">+</text>
<text text-anchor="start" x="210" y="-40" font-family="Helvetica,sans-Serif" font-size="10.00">void ReportDroprates</text>
<text text-anchor="start" x="210" y="-29" font-family="Helvetica,sans-Serif" font-size="10.00">(float personalDropRate,</text>
<text text-anchor="start" x="210" y="-18" font-family="Helvetica,sans-Serif" font-size="10.00"> List&lt; DropRateInfo &gt; drops,</text>
<text text-anchor="start" x="210" y="-7" font-family="Helvetica,sans-Serif" font-size="10.00"> DropRateInfoChainFeed ratesInfo)</text>
<polygon fill="#666666" stroke="#666666" points="193,-128 193,-128 398,-128 398,-128 193,-128"/>
<polygon fill="#666666" stroke="#666666" points="193,-113 193,-113 208,-113 208,-113 193,-113"/>
<polygon fill="#666666" stroke="#666666" points="208,-113 208,-113 398,-113 398,-113 208,-113"/>
<polygon fill="none" stroke="#666666" points="192.5,0 192.5,-156 397.5,-156 397.5,0 192.5,0"/>
</a>
</g>
</g>
<!-- Node2 -->
<g id="Node000002" class="node">
<title>Node2</title>
<g id="a_Node000002"><a xlink:href="../../dd/daa/interfaceTerraria_1_1GameContent_1_1ItemDropRules_1_1IItemDropRuleChainAttempt.html" target="_top" xlink:title=" ">
<polygon fill="white" stroke="transparent" points="190,-351.5 0,-351.5 0,-232.5 190,-232.5 190,-351.5"/>
<text text-anchor="start" x="25.5" y="-339" font-family="Helvetica,sans-Serif" font-size="10.00">IItemDropRuleChainAttempt</text>
<text text-anchor="start" x="4" y="-324" font-family="Helvetica,sans-Serif" font-size="10.00">+</text>
<text text-anchor="start" x="17" y="-324" font-family="Helvetica,sans-Serif" font-size="10.00">IItemDropRule RuleToChain</text>
<text text-anchor="start" x="4" y="-309" font-family="Helvetica,sans-Serif" font-size="10.00">+</text>
<text text-anchor="start" x="17" y="-309" font-family="Helvetica,sans-Serif" font-size="10.00">bool CanChainIntoRule</text>
<text text-anchor="start" x="17" y="-298" font-family="Helvetica,sans-Serif" font-size="10.00">(ItemDropAttemptResult</text>
<text text-anchor="start" x="17" y="-287" font-family="Helvetica,sans-Serif" font-size="10.00"> parentResult)</text>
<text text-anchor="start" x="4" y="-272" font-family="Helvetica,sans-Serif" font-size="10.00">+</text>
<text text-anchor="start" x="17" y="-272" font-family="Helvetica,sans-Serif" font-size="10.00">void ReportDroprates</text>
<text text-anchor="start" x="17" y="-261" font-family="Helvetica,sans-Serif" font-size="10.00">(float personalDropRate,</text>
<text text-anchor="start" x="17" y="-250" font-family="Helvetica,sans-Serif" font-size="10.00"> List&lt; DropRateInfo &gt; drops,</text>
<text text-anchor="start" x="17" y="-239" font-family="Helvetica,sans-Serif" font-size="10.00"> DropRateInfoChainFeed ratesInfo)</text>
<polygon fill="#666666" stroke="#666666" points="0,-334 0,-334 190,-334 190,-334 0,-334"/>
<polygon fill="#666666" stroke="#666666" points="0,-319 0,-319 15,-319 15,-319 0,-319"/>
<polygon fill="#666666" stroke="#666666" points="15,-319 15,-319 190,-319 190,-319 15,-319"/>
<polygon fill="none" stroke="#666666" points="0,-232.5 0,-351.5 190,-351.5 190,-232.5 0,-232.5"/>
</a>
</g>
</g>
<!-- Node2&#45;&gt;Node1 -->
<g id="edge1_Node000001_Node000002" class="edge">
<title>Node2&#45;&gt;Node1</title>
<g id="a_edge1_Node000001_Node000002"><a xlink:title=" ">
<path fill="none" stroke="#63b8ff" d="M157.32,-224.94C177.87,-203.15 200.92,-178.72 222.19,-156.17"/>
<polygon fill="none" stroke="#63b8ff" points="154.76,-222.55 150.45,-232.23 159.85,-227.36 154.76,-222.55"/>
</a>
</g>
</g>
<!-- Node3 -->
<g id="Node000003" class="node">
<title>Node3</title>
<g id="a_Node000003"><a xlink:href="../../de/dd1/interfaceTerraria_1_1GameContent_1_1ItemDropRules_1_1IItemDropRule.html" target="_top" xlink:title=" ">
<polygon fill="white" stroke="transparent" points="381.5,-381 208.5,-381 208.5,-203 381.5,-203 381.5,-381"/>
<text text-anchor="start" x="229" y="-369" font-family="Helvetica,sans-Serif" font-size="10.00">Terraria.GameContent.Item</text>
<text text-anchor="start" x="229" y="-358" font-family="Helvetica,sans-Serif" font-size="10.00">DropRules.IItemDropRule</text>
<text text-anchor="start" x="254" y="-347" font-family="Helvetica,sans-Serif" font-size="10.00">&lt; RuleToChain &gt;</text>
<text text-anchor="start" x="213" y="-332" font-family="Helvetica,sans-Serif" font-size="10.00">+</text>
<text text-anchor="start" x="226" y="-332" font-family="Helvetica,sans-Serif" font-size="10.00">List&lt; IItemDropRuleChain</text>
<text text-anchor="start" x="226" y="-321" font-family="Helvetica,sans-Serif" font-size="10.00">Attempt &gt; ChainedRules</text>
<text text-anchor="start" x="213" y="-306" font-family="Helvetica,sans-Serif" font-size="10.00">+</text>
<text text-anchor="start" x="226" y="-306" font-family="Helvetica,sans-Serif" font-size="10.00">bool CanDrop(DropAttempt</text>
<text text-anchor="start" x="226" y="-295" font-family="Helvetica,sans-Serif" font-size="10.00">Info info)</text>
<text text-anchor="start" x="213" y="-280" font-family="Helvetica,sans-Serif" font-size="10.00">+</text>
<text text-anchor="start" x="226" y="-280" font-family="Helvetica,sans-Serif" font-size="10.00">void ReportDroprates</text>
<text text-anchor="start" x="226" y="-269" font-family="Helvetica,sans-Serif" font-size="10.00">(List&lt; DropRateInfo &gt;</text>
<text text-anchor="start" x="226" y="-258" font-family="Helvetica,sans-Serif" font-size="10.00"> drops, DropRateInfoChainFeed</text>
<text text-anchor="start" x="226" y="-247" font-family="Helvetica,sans-Serif" font-size="10.00"> ratesInfo)</text>
<text text-anchor="start" x="213" y="-232" font-family="Helvetica,sans-Serif" font-size="10.00">+</text>
<text text-anchor="start" x="226" y="-232" font-family="Helvetica,sans-Serif" font-size="10.00">ItemDropAttemptResult</text>
<text text-anchor="start" x="226" y="-221" font-family="Helvetica,sans-Serif" font-size="10.00"> TryDroppingItem(DropAttempt</text>
<text text-anchor="start" x="226" y="-210" font-family="Helvetica,sans-Serif" font-size="10.00">Info info)</text>
<polygon fill="#666666" stroke="#666666" points="209,-342 209,-342 382,-342 382,-342 209,-342"/>
<polygon fill="#666666" stroke="#666666" points="209,-316 209,-316 224,-316 224,-316 209,-316"/>
<polygon fill="#666666" stroke="#666666" points="224,-316 224,-316 382,-316 382,-316 224,-316"/>
<polygon fill="none" stroke="#666666" points="208.5,-203 208.5,-381 381.5,-381 381.5,-203 208.5,-203"/>
</a>
</g>
</g>
<!-- Node3&#45;&gt;Node1 -->
<g id="edge2_Node000001_Node000003" class="edge">
<title>Node3&#45;&gt;Node1</title>
<g id="a_edge2_Node000001_Node000003"><a xlink:title=" ">
<path fill="none" stroke="#63b8ff" d="M295,-202.93C295,-191.57 295,-179.93 295,-168.54"/>
<polygon fill="none" stroke="#63b8ff" points="295,-168.31 291,-162.31 295,-156.31 299,-162.31 295,-168.31"/>
</a>
</g>
<text text-anchor="middle" x="338" y="-177" font-family="Helvetica,sans-Serif" font-size="10.00" fill="grey"> &#45;k__BackingField</text>
</g>
<!-- Node4 -->
<g id="Node000004" class="node">
<title>Node4</title>
<g id="a_Node000004"><a xlink:href="../../de/dd1/interfaceTerraria_1_1GameContent_1_1ItemDropRules_1_1IItemDropRule.html" target="_top" xlink:title=" ">
<polygon fill="white" stroke="transparent" points="381.5,-595 208.5,-595 208.5,-428 381.5,-428 381.5,-595"/>
<text text-anchor="start" x="229" y="-582.5" font-family="Helvetica,sans-Serif" font-size="10.00">Terraria.GameContent.Item</text>
<text text-anchor="start" x="233.5" y="-571.5" font-family="Helvetica,sans-Serif" font-size="10.00">DropRules.IItemDropRule</text>
<text text-anchor="start" x="213" y="-556.5" font-family="Helvetica,sans-Serif" font-size="10.00">+</text>
<text text-anchor="start" x="226" y="-556.5" font-family="Helvetica,sans-Serif" font-size="10.00">List&lt; IItemDropRuleChain</text>
<text text-anchor="start" x="226" y="-545.5" font-family="Helvetica,sans-Serif" font-size="10.00">Attempt &gt; ChainedRules</text>
<text text-anchor="start" x="213" y="-530.5" font-family="Helvetica,sans-Serif" font-size="10.00">+</text>
<text text-anchor="start" x="226" y="-530.5" font-family="Helvetica,sans-Serif" font-size="10.00">bool CanDrop(DropAttempt</text>
<text text-anchor="start" x="226" y="-519.5" font-family="Helvetica,sans-Serif" font-size="10.00">Info info)</text>
<text text-anchor="start" x="213" y="-504.5" font-family="Helvetica,sans-Serif" font-size="10.00">+</text>
<text text-anchor="start" x="226" y="-504.5" font-family="Helvetica,sans-Serif" font-size="10.00">void ReportDroprates</text>
<text text-anchor="start" x="226" y="-493.5" font-family="Helvetica,sans-Serif" font-size="10.00">(List&lt; DropRateInfo &gt;</text>
<text text-anchor="start" x="226" y="-482.5" font-family="Helvetica,sans-Serif" font-size="10.00"> drops, DropRateInfoChainFeed</text>
<text text-anchor="start" x="226" y="-471.5" font-family="Helvetica,sans-Serif" font-size="10.00"> ratesInfo)</text>
<text text-anchor="start" x="213" y="-456.5" font-family="Helvetica,sans-Serif" font-size="10.00">+</text>
<text text-anchor="start" x="226" y="-456.5" font-family="Helvetica,sans-Serif" font-size="10.00">ItemDropAttemptResult</text>
<text text-anchor="start" x="226" y="-445.5" font-family="Helvetica,sans-Serif" font-size="10.00"> TryDroppingItem(DropAttempt</text>
<text text-anchor="start" x="226" y="-434.5" font-family="Helvetica,sans-Serif" font-size="10.00">Info info)</text>
<polygon fill="#666666" stroke="#666666" points="209,-566.5 209,-566.5 382,-566.5 382,-566.5 209,-566.5"/>
<polygon fill="#666666" stroke="#666666" points="209,-540.5 209,-540.5 224,-540.5 224,-540.5 209,-540.5"/>
<polygon fill="#666666" stroke="#666666" points="224,-540.5 224,-540.5 382,-540.5 382,-540.5 224,-540.5"/>
<polygon fill="none" stroke="#666666" points="208.5,-428 208.5,-595 381.5,-595 381.5,-428 208.5,-428"/>
</a>
</g>
</g>
<!-- Node4&#45;&gt;Node3 -->
<g id="edge3_Node000003_Node000004" class="edge">
<title>Node4&#45;&gt;Node3</title>
<g id="a_edge3_Node000003_Node000004"><a xlink:title=" ">
<path fill="none" stroke="orange" d="M295,-417.86C295,-405.73 295,-393.33 295,-381.28"/>
<polygon fill="orange" stroke="orange" points="291.5,-417.96 295,-427.96 298.5,-417.96 291.5,-417.96"/>
</a>
</g>
<text text-anchor="middle" x="338" y="-402" font-family="Helvetica,sans-Serif" font-size="10.00" fill="grey"> &lt; RuleToChain &gt;</text>
</g>
<!-- Node5 -->
<g id="Node000005" class="node">
<title>Node5</title>
<g id="a_Node000005"><a xlink:title=" ">
<polygon fill="white" stroke="transparent" points="432,-316.5 400,-316.5 400,-267.5 432,-267.5 432,-316.5"/>
<text text-anchor="start" x="405" y="-304" font-family="Helvetica,sans-Serif" font-size="10.00">bool</text>
<text text-anchor="start" x="414" y="-289" font-family="Helvetica,sans-Serif" font-size="10.00"> </text>
<text text-anchor="start" x="414" y="-274" font-family="Helvetica,sans-Serif" font-size="10.00"> </text>
<polygon fill="#666666" stroke="#666666" points="400,-299 400,-299 432,-299 432,-299 400,-299"/>
<polygon fill="#666666" stroke="#666666" points="400,-284 400,-284 432,-284 432,-284 400,-284"/>
<polygon fill="none" stroke="#666666" points="400,-267.5 400,-316.5 432,-316.5 432,-267.5 400,-267.5"/>
</a>
</g>
</g>
<!-- Node5&#45;&gt;Node1 -->
<g id="edge4_Node000001_Node000005" class="edge">
<title>Node5&#45;&gt;Node1</title>
<g id="a_edge4_Node000001_Node000005"><a xlink:title=" ">
<path fill="none" stroke="#63b8ff" d="M413.24,-267.29C409.59,-242.69 401.58,-203.73 385,-174 383.58,-171.45 382.07,-168.91 380.49,-166.4"/>
<polygon fill="none" stroke="#63b8ff" points="380.32,-166.14 373.65,-163.4 373.62,-156.19 380.29,-158.93 380.32,-166.14"/>
</a>
</g>
<text text-anchor="middle" x="432" y="-177" font-family="Helvetica,sans-Serif" font-size="10.00" fill="grey"> +hideLootReport</text>
</g>
</g>
</svg>
