<?xml version="1.0" encoding="UTF-8" standalone="no"?>
<!DOCTYPE svg PUBLIC "-//W3C//DTD SVG 1.1//EN"
 "http://www.w3.org/Graphics/SVG/1.1/DTD/svg11.dtd">
<!-- Generated by graphviz version 2.43.0 (0)
 -->
<!-- Title: Microsoft.Xna.Framework.Graphics.PackedVector.Rg32 Pages: 1 -->
<!--zoomable 673 -->

<svg id="main" version="1.1" xmlns="http://www.w3.org/2000/svg" xmlns:xlink="http://www.w3.org/1999/xlink" xml:space="preserve" onload="init(evt)">
<style type="text/css"><![CDATA[
.node, .edge {opacity: 0.7;}
.node.selected, .edge.selected {opacity: 1;}
.edge:hover path { stroke: red; }
.edge:hover polygon { stroke: red; fill: red; }
]]></style>

<defs>
  <circle id="rim" cx="0" cy="0" r="7"/>
  <circle id="rim2" cx="0" cy="0" r="3.5"/>
  <g id="zoomPlus">
    <use xlink:href="#rim" fill="#404040"><set attributeName="fill" to="#808080" begin="zoomplus.mouseover" end="zoomplus.mouseout"/></use>
    <path d="M-4,0h8M0,-4v8" fill="none" stroke="white" stroke-width="1.5" pointer-events="none"/>
  </g>
  <g id="zoomMin">
    <use xlink:href="#rim" fill="#404040"><set attributeName="fill" to="#808080" begin="zoomminus.mouseover" end="zoomminus.mouseout"/></use>
    <path d="M-4,0h8" fill="none" stroke="white" stroke-width="1.5" pointer-events="none"/>
  </g>
  <g id="arrowUp" transform="translate(30 24)">
    <use xlink:href="#rim"/>
    <path pointer-events="none" fill="none" stroke="white" stroke-width="1.5" d="M0,-3.0v7 M-2.5,-0.5L0,-3.0L2.5,-0.5"/>
  </g>
  <g id="arrowRight" transform="rotate(90) translate(36 -43)">
    <use xlink:href="#rim"/>
    <path pointer-events="none" fill="none" stroke="white" stroke-width="1.5" d="M0,-3.0v7 M-2.5,-0.5L0,-3.0L2.5,-0.5"/>
  </g>
  <g id="arrowDown" transform="rotate(180) translate(-30 -48)">
    <use xlink:href="#rim"/>
    <path pointer-events="none" fill="none" stroke="white" stroke-width="1.5" d="M0,-3.0v7 M-2.5,-0.5L0,-3.0L2.5,-0.5"/>
  </g>
  <g id="arrowLeft" transform="rotate(270) translate(-36 17)">
    <use xlink:href="#rim"/>
    <path pointer-events="none" fill="none" stroke="white" stroke-width="1.5" d="M0,-3.0v7 M-2.5,-0.5L0,-3.0L2.5,-0.5"/>
  </g>
  <g id="resetDef">
    <use xlink:href="#rim2" fill="#404040"><set attributeName="fill" to="#808080" begin="reset.mouseover" end="reset.mouseout"/></use>
  </g>
</defs>
<script type="application/ecmascript">
var viewWidth = 412;
var viewHeight = 673;
var sectionId = 'dynsection-1';
</script>
<script type="application/ecmascript" xlink:href="../../svg.min.js"/>
<svg id="graph" class="graph">
<g id="viewport">
<title>Microsoft.Xna.Framework.Graphics.PackedVector.Rg32</title>
<!-- Node1 -->
<g id="Node000001" class="node">
<title>Node1</title>
<g id="a_Node000001"><a xlink:title=" ">
<polygon fill="#999999" stroke="transparent" points="326,-313 122,-313 122,0 326,0 326,-313"/>
<text text-anchor="start" x="155" y="-300.5" font-family="Helvetica,sans-Serif" font-size="10.00">Microsoft.Xna.Framework.</text>
<text text-anchor="start" x="155" y="-289.5" font-family="Helvetica,sans-Serif" font-size="10.00">Graphics.PackedVector.Rg32</text>
<text text-anchor="start" x="126" y="-274.5" font-family="Helvetica,sans-Serif" font-size="10.00">+</text>
<text text-anchor="start" x="139" y="-274.5" font-family="Helvetica,sans-Serif" font-size="10.00">uint PackedValue</text>
<text text-anchor="start" x="126" y="-259.5" font-family="Helvetica,sans-Serif" font-size="10.00">+</text>
<text text-anchor="start" x="139" y="-259.5" font-family="Helvetica,sans-Serif" font-size="10.00">Rg32(float x, float y)</text>
<text text-anchor="start" x="126" y="-244.5" font-family="Helvetica,sans-Serif" font-size="10.00">+</text>
<text text-anchor="start" x="139" y="-244.5" font-family="Helvetica,sans-Serif" font-size="10.00">Rg32(Vector2 vector)</text>
<text text-anchor="start" x="126" y="-229.5" font-family="Helvetica,sans-Serif" font-size="10.00">+</text>
<text text-anchor="start" x="139" y="-229.5" font-family="Helvetica,sans-Serif" font-size="10.00">Vector2 ToVector2()</text>
<text text-anchor="start" x="126" y="-214.5" font-family="Helvetica,sans-Serif" font-size="10.00">+</text>
<text text-anchor="start" x="139" y="-214.5" font-family="Helvetica,sans-Serif" font-size="10.00">override bool Equals</text>
<text text-anchor="start" x="139" y="-203.5" font-family="Helvetica,sans-Serif" font-size="10.00">(object obj)</text>
<text text-anchor="start" x="126" y="-188.5" font-family="Helvetica,sans-Serif" font-size="10.00">+</text>
<text text-anchor="start" x="139" y="-188.5" font-family="Helvetica,sans-Serif" font-size="10.00">bool Equals(Rg32 other)</text>
<text text-anchor="start" x="126" y="-173.5" font-family="Helvetica,sans-Serif" font-size="10.00">+</text>
<text text-anchor="start" x="139" y="-173.5" font-family="Helvetica,sans-Serif" font-size="10.00">override string ToString()</text>
<text text-anchor="start" x="126" y="-158.5" font-family="Helvetica,sans-Serif" font-size="10.00">+</text>
<text text-anchor="start" x="139" y="-158.5" font-family="Helvetica,sans-Serif" font-size="10.00">override int GetHashCode()</text>
<text text-anchor="start" x="126" y="-143.5" font-family="Helvetica,sans-Serif" font-size="10.00">+</text>
<text text-anchor="start" x="139" y="-143.5" font-family="Helvetica,sans-Serif" font-size="10.00">static bool operator</text>
<text text-anchor="start" x="139" y="-132.5" font-family="Helvetica,sans-Serif" font-size="10.00">==(Rg32 lhs, Rg32 rhs)</text>
<text text-anchor="start" x="126" y="-117.5" font-family="Helvetica,sans-Serif" font-size="10.00">+</text>
<text text-anchor="start" x="139" y="-117.5" font-family="Helvetica,sans-Serif" font-size="10.00">static bool operator!</text>
<text text-anchor="start" x="139" y="-106.5" font-family="Helvetica,sans-Serif" font-size="10.00">=(Rg32 lhs, Rg32 rhs)</text>
<text text-anchor="start" x="128.5" y="-91.5" font-family="Helvetica,sans-Serif" font-size="10.00">&#45;</text>
<text text-anchor="start" x="139" y="-91.5" font-family="Helvetica,sans-Serif" font-size="10.00">void Microsoft.Xna.Framework.</text>
<text text-anchor="start" x="139" y="-80.5" font-family="Helvetica,sans-Serif" font-size="10.00">Graphics.PackedVector.IPackedVector.</text>
<text text-anchor="start" x="139" y="-69.5" font-family="Helvetica,sans-Serif" font-size="10.00"> PackFromVector4(Vector4 vector)</text>
<text text-anchor="start" x="128.5" y="-54.5" font-family="Helvetica,sans-Serif" font-size="10.00">&#45;</text>
<text text-anchor="start" x="139" y="-54.5" font-family="Helvetica,sans-Serif" font-size="10.00">Vector4 Microsoft.Xna.Framework.</text>
<text text-anchor="start" x="139" y="-43.5" font-family="Helvetica,sans-Serif" font-size="10.00">Graphics.PackedVector.IPackedVector.</text>
<text text-anchor="start" x="139" y="-32.5" font-family="Helvetica,sans-Serif" font-size="10.00"> ToVector4()</text>
<text text-anchor="start" x="128.5" y="-17.5" font-family="Helvetica,sans-Serif" font-size="10.00">&#45;</text>
<text text-anchor="start" x="139" y="-17.5" font-family="Helvetica,sans-Serif" font-size="10.00">static uint Pack(float</text>
<text text-anchor="start" x="139" y="-6.5" font-family="Helvetica,sans-Serif" font-size="10.00"> x, float y)</text>
<polygon fill="#666666" stroke="#666666" points="122,-284.5 122,-284.5 326,-284.5 326,-284.5 122,-284.5"/>
<polygon fill="#666666" stroke="#666666" points="122,-269.5 122,-269.5 137,-269.5 137,-269.5 122,-269.5"/>
<polygon fill="#666666" stroke="#666666" points="137,-269.5 137,-269.5 326,-269.5 326,-269.5 137,-269.5"/>
<polygon fill="none" stroke="#666666" points="122,0 122,-313 326,-313 326,0 122,0"/>
</a>
</g>
</g>
<!-- Node2 -->
<g id="Node000002" class="node">
<title>Node2</title>
<g id="a_Node000002"><a xlink:href="../../d6/d99/interfaceMicrosoft_1_1Xna_1_1Framework_1_1Graphics_1_1PackedVector_1_1IPackedVector.html" target="_top" xlink:title=" ">
<polygon fill="white" stroke="transparent" points="200,-435 70,-435 70,-360 200,-360 200,-435"/>
<text text-anchor="start" x="80.5" y="-422.5" font-family="Helvetica,sans-Serif" font-size="10.00">IPackedVector&lt; uint &gt;</text>
<text text-anchor="start" x="74" y="-407.5" font-family="Helvetica,sans-Serif" font-size="10.00">+</text>
<text text-anchor="start" x="87" y="-407.5" font-family="Helvetica,sans-Serif" font-size="10.00">TPacked PackedValue</text>
<text text-anchor="start" x="74" y="-392.5" font-family="Helvetica,sans-Serif" font-size="10.00">+</text>
<text text-anchor="start" x="87" y="-392.5" font-family="Helvetica,sans-Serif" font-size="10.00">void PackFromVector4</text>
<text text-anchor="start" x="87" y="-381.5" font-family="Helvetica,sans-Serif" font-size="10.00">(Vector4 vector)</text>
<text text-anchor="start" x="74" y="-366.5" font-family="Helvetica,sans-Serif" font-size="10.00">+</text>
<text text-anchor="start" x="87" y="-366.5" font-family="Helvetica,sans-Serif" font-size="10.00">Vector4 ToVector4()</text>
<polygon fill="#666666" stroke="#666666" points="70,-417.5 70,-417.5 200,-417.5 200,-417.5 70,-417.5"/>
<polygon fill="#666666" stroke="#666666" points="70,-402.5 70,-402.5 85,-402.5 85,-402.5 70,-402.5"/>
<polygon fill="#666666" stroke="#666666" points="85,-402.5 85,-402.5 200,-402.5 200,-402.5 85,-402.5"/>
<polygon fill="none" stroke="#666666" points="70,-360 70,-435 200,-435 200,-360 70,-360"/>
</a>
</g>
</g>
<!-- Node2&#45;&gt;Node1 -->
<g id="edge1_Node000001_Node000002" class="edge">
<title>Node2&#45;&gt;Node1</title>
<g id="a_edge1_Node000001_Node000002"><a xlink:title=" ">
<path fill="none" stroke="#63b8ff" d="M152.16,-350.43C156.35,-339.16 161.08,-326.48 166.05,-313.13"/>
<polygon fill="none" stroke="#63b8ff" points="148.82,-349.35 148.61,-359.94 155.38,-351.79 148.82,-349.35"/>
</a>
</g>
</g>
<!-- Node3 -->
<g id="Node000003" class="node">
<title>Node3</title>
<g id="a_Node000003"><a xlink:href="../../d6/d99/interfaceMicrosoft_1_1Xna_1_1Framework_1_1Graphics_1_1PackedVector_1_1IPackedVector.html" target="_top" xlink:title=" ">
<polygon fill="white" stroke="transparent" points="215,-579 55,-579 55,-482 215,-482 215,-579"/>
<text text-anchor="start" x="60" y="-566.5" font-family="Helvetica,sans-Serif" font-size="10.00">Microsoft.Xna.Framework.</text>
<text text-anchor="start" x="60" y="-555.5" font-family="Helvetica,sans-Serif" font-size="10.00">Graphics.PackedVector.IPacked</text>
<text text-anchor="start" x="88" y="-544.5" font-family="Helvetica,sans-Serif" font-size="10.00">Vector&lt; TPacked &gt;</text>
<text text-anchor="start" x="66.5" y="-529.5" font-family="Helvetica,sans-Serif" font-size="10.00">+</text>
<text text-anchor="start" x="87" y="-529.5" font-family="Helvetica,sans-Serif" font-size="10.00">TPacked PackedValue</text>
<text text-anchor="start" x="66.5" y="-514.5" font-family="Helvetica,sans-Serif" font-size="10.00">+</text>
<text text-anchor="start" x="87" y="-514.5" font-family="Helvetica,sans-Serif" font-size="10.00">void PackFromVector4</text>
<text text-anchor="start" x="87" y="-503.5" font-family="Helvetica,sans-Serif" font-size="10.00">(Vector4 vector)</text>
<text text-anchor="start" x="66.5" y="-488.5" font-family="Helvetica,sans-Serif" font-size="10.00">+</text>
<text text-anchor="start" x="87" y="-488.5" font-family="Helvetica,sans-Serif" font-size="10.00">Vector4 ToVector4()</text>
<polygon fill="#666666" stroke="#666666" points="55,-539.5 55,-539.5 215,-539.5 215,-539.5 55,-539.5"/>
<polygon fill="#666666" stroke="#666666" points="55,-524.5 55,-524.5 85,-524.5 85,-524.5 55,-524.5"/>
<polygon fill="#666666" stroke="#666666" points="85,-524.5 85,-524.5 215,-524.5 215,-524.5 85,-524.5"/>
<polygon fill="none" stroke="#666666" points="55,-482 55,-579 215,-579 215,-482 55,-482"/>
</a>
</g>
</g>
<!-- Node3&#45;&gt;Node2 -->
<g id="edge2_Node000002_Node000003" class="edge">
<title>Node3&#45;&gt;Node2</title>
<g id="a_edge2_Node000002_Node000003"><a xlink:title=" ">
<path fill="none" stroke="orange" d="M135,-471.59C135,-459.24 135,-446.53 135,-435.24"/>
<polygon fill="orange" stroke="orange" points="131.5,-471.84 135,-481.84 138.5,-471.84 131.5,-471.84"/>
</a>
</g>
<text text-anchor="middle" x="157.5" y="-456" font-family="Helvetica,sans-Serif" font-size="10.00" fill="grey"> &lt; uint &gt;</text>
</g>
<!-- Node4 -->
<g id="Node000004" class="node">
<title>Node4</title>
<g id="a_Node000004"><a xlink:href="../../d5/df7/classIPackedVector.html" target="_top" xlink:title=" ">
<polygon fill="white" stroke="transparent" points="78,-665 0,-665 0,-616 78,-616 78,-665"/>
<text text-anchor="start" x="5" y="-652.5" font-family="Helvetica,sans-Serif" font-size="10.00">IPackedVector</text>
<text text-anchor="start" x="37" y="-637.5" font-family="Helvetica,sans-Serif" font-size="10.00"> </text>
<text text-anchor="start" x="37" y="-622.5" font-family="Helvetica,sans-Serif" font-size="10.00"> </text>
<polygon fill="#666666" stroke="#666666" points="0,-647.5 0,-647.5 78,-647.5 78,-647.5 0,-647.5"/>
<polygon fill="#666666" stroke="#666666" points="0,-632.5 0,-632.5 78,-632.5 78,-632.5 0,-632.5"/>
<polygon fill="none" stroke="#666666" points="0,-616 0,-665 78,-665 78,-616 0,-616"/>
</a>
</g>
</g>
<!-- Node4&#45;&gt;Node1 -->
<g id="edge4_Node000001_Node000004" class="edge">
<title>Node4&#45;&gt;Node1</title>
<g id="a_edge4_Node000001_Node000004"><a xlink:title=" ">
<path fill="none" stroke="#63b8ff" d="M35.02,-605.79C30.04,-551.6 25.99,-442.8 61,-360 75.72,-325.19 98.25,-291.48 121.91,-261.88"/>
<polygon fill="none" stroke="#63b8ff" points="31.55,-606.27 36.02,-615.88 38.52,-605.58 31.55,-606.27"/>
</a>
</g>
</g>
<!-- Node4&#45;&gt;Node3 -->
<g id="edge3_Node000003_Node000004" class="edge">
<title>Node4&#45;&gt;Node3</title>
<g id="a_edge3_Node000003_Node000004"><a xlink:title=" ">
<path fill="none" stroke="#63b8ff" d="M66.89,-608.12C74.96,-599.04 83.96,-588.92 92.7,-579.08"/>
<polygon fill="none" stroke="#63b8ff" points="64.1,-606 60.07,-615.8 69.33,-610.65 64.1,-606"/>
</a>
</g>
</g>
<!-- Node5 -->
<g id="Node000005" class="node">
<title>Node5</title>
<g id="a_Node000005"><a xlink:href="../../d6/d43/interfaceSystem_1_1IEquatable.html" target="_top" xlink:title=" ">
<polygon fill="white" stroke="transparent" points="338,-422 218,-422 218,-373 338,-373 338,-422"/>
<text text-anchor="start" x="228" y="-409.5" font-family="Helvetica,sans-Serif" font-size="10.00">IEquatable&lt; Rg32 &gt;</text>
<text text-anchor="start" x="276" y="-394.5" font-family="Helvetica,sans-Serif" font-size="10.00"> </text>
<text text-anchor="start" x="222" y="-379.5" font-family="Helvetica,sans-Serif" font-size="10.00">+</text>
<text text-anchor="start" x="235" y="-379.5" font-family="Helvetica,sans-Serif" font-size="10.00">bool Equals(T other)</text>
<polygon fill="#666666" stroke="#666666" points="218,-404.5 218,-404.5 338,-404.5 338,-404.5 218,-404.5"/>
<polygon fill="#666666" stroke="#666666" points="218,-389.5 218,-389.5 338,-389.5 338,-389.5 218,-389.5"/>
<polygon fill="none" stroke="#666666" points="218,-373 218,-422 338,-422 338,-373 218,-373"/>
</a>
</g>
</g>
<!-- Node5&#45;&gt;Node1 -->
<g id="edge5_Node000001_Node000005" class="edge">
<title>Node5&#45;&gt;Node1</title>
<g id="a_edge5_Node000001_Node000005"><a xlink:title=" ">
<path fill="none" stroke="#63b8ff" d="M270.37,-362.72C267.22,-348.78 263.32,-331.54 259.14,-313.04"/>
<polygon fill="none" stroke="#63b8ff" points="267.01,-363.73 272.62,-372.71 273.83,-362.18 267.01,-363.73"/>
</a>
</g>
</g>
<!-- Node6 -->
<g id="Node000006" class="node">
<title>Node6</title>
<g id="a_Node000006"><a xlink:href="../../d6/d43/interfaceSystem_1_1IEquatable.html" target="_top" xlink:title=" ">
<polygon fill="white" stroke="transparent" points="364.5,-555 233.5,-555 233.5,-506 364.5,-506 364.5,-555"/>
<text text-anchor="start" x="239" y="-542.5" font-family="Helvetica,sans-Serif" font-size="10.00">System.IEquatable&lt; T &gt;</text>
<text text-anchor="start" x="297.5" y="-527.5" font-family="Helvetica,sans-Serif" font-size="10.00"> </text>
<text text-anchor="start" x="240.5" y="-512.5" font-family="Helvetica,sans-Serif" font-size="10.00">+</text>
<text text-anchor="start" x="256" y="-512.5" font-family="Helvetica,sans-Serif" font-size="10.00">bool Equals(T other)</text>
<polygon fill="#666666" stroke="#666666" points="234,-537.5 234,-537.5 365,-537.5 365,-537.5 234,-537.5"/>
<polygon fill="#666666" stroke="#666666" points="234,-522.5 234,-522.5 365,-522.5 365,-522.5 234,-522.5"/>
<polygon fill="none" stroke="#666666" points="233.5,-506 233.5,-555 364.5,-555 364.5,-506 233.5,-506"/>
</a>
</g>
</g>
<!-- Node6&#45;&gt;Node5 -->
<g id="edge6_Node000005_Node000006" class="edge">
<title>Node6&#45;&gt;Node5</title>
<g id="a_edge6_Node000005_Node000006"><a xlink:title=" ">
<path fill="none" stroke="orange" d="M293.58,-495.71C289.88,-472.61 285.07,-442.58 281.77,-422.05"/>
<polygon fill="orange" stroke="orange" points="290.16,-496.46 295.2,-505.78 297.07,-495.35 290.16,-496.46"/>
</a>
</g>
<text text-anchor="middle" x="313.5" y="-456" font-family="Helvetica,sans-Serif" font-size="10.00" fill="grey"> &lt; Rg32 &gt;</text>
</g>
<!-- Node7 -->
<g id="Node000007" class="node">
<title>Node7</title>
<g id="a_Node000007"><a xlink:title=" ">
<polygon fill="white" stroke="transparent" points="385.5,-422 356.5,-422 356.5,-373 385.5,-373 385.5,-422"/>
<text text-anchor="start" x="362" y="-409.5" font-family="Helvetica,sans-Serif" font-size="10.00">uint</text>
<text text-anchor="start" x="369.5" y="-394.5" font-family="Helvetica,sans-Serif" font-size="10.00"> </text>
<text text-anchor="start" x="369.5" y="-379.5" font-family="Helvetica,sans-Serif" font-size="10.00"> </text>
<polygon fill="#666666" stroke="#666666" points="357,-404.5 357,-404.5 386,-404.5 386,-404.5 357,-404.5"/>
<polygon fill="#666666" stroke="#666666" points="357,-389.5 357,-389.5 386,-389.5 386,-389.5 357,-389.5"/>
<polygon fill="none" stroke="#666666" points="356.5,-373 356.5,-422 385.5,-422 385.5,-373 356.5,-373"/>
</a>
</g>
</g>
<!-- Node7&#45;&gt;Node1 -->
<g id="edge7_Node000001_Node000007" class="edge">
<title>Node7&#45;&gt;Node1</title>
<g id="a_edge7_Node000001_Node000007"><a xlink:title=" ">
<path fill="none" stroke="#63b8ff" d="M356.37,-372.71C348.43,-359.8 337.84,-342.59 326.1,-323.5"/>
<polygon fill="none" stroke="#63b8ff" points="325.95,-323.26 319.4,-320.25 319.67,-313.04 326.22,-316.06 325.95,-323.26"/>
</a>
</g>
<text text-anchor="middle" x="369.5" y="-334" font-family="Helvetica,sans-Serif" font-size="10.00" fill="grey"> &#45;packedValue</text>
</g>
</g>
</svg>

<g id="navigator" transform="translate(0 0)" fill="#404254">
  <rect fill="#f2f5e9" fill-opacity="0.5" stroke="#606060" stroke-width=".5" x="0" y="0" width="60" height="60"/>
  <use id="zoomplus" xlink:href="#zoomPlus" x="17" y="9" onmousedown="handleZoom(evt,'in')"/>
  <use id="zoomminus" xlink:href="#zoomMin" x="42" y="9" onmousedown="handleZoom(evt,'out')"/>
  <use id="reset" xlink:href="#resetDef" x="30" y="36" onmousedown="handleReset()"/>
   <use id="arrowup" xlink:href="#arrowUp" x="0" y="0" onmousedown="handlePan(0,-1)"/>
  <use id="arrowright" xlink:href="#arrowRight" x="0" y="0" onmousedown="handlePan(1,0)"/>
  <use id="arrowdown" xlink:href="#arrowDown" x="0" y="0" onmousedown="handlePan(0,1)"/>
  <use id="arrowleft" xlink:href="#arrowLeft" x="0" y="0" onmousedown="handlePan(-1,0)"/>
</g>
<svg viewBox="0 0 15 15" width="100%" height="30px" preserveAspectRatio="xMaxYMin meet">
 <g id="arrow_out" transform="scale(0.3 0.3)">
  <a xlink:href="structMicrosoft_1_1Xna_1_1Framework_1_1Graphics_1_1PackedVector_1_1Rg32__coll__graph_org.svg" target="_base">
   <rect id="button" ry="5" rx="5" y="6" x="6" height="38" width="38"
        fill="#f2f5e9" fill-opacity="0.5" stroke="#606060" stroke-width="1.0"/>
   <path id="arrow"
     d="M 11.500037,31.436501 C 11.940474,20.09759 22.043105,11.32322 32.158766,21.979434 L 37.068811,17.246167 C 37.068811,17.246167 37.088388,32 37.088388,32 L 22.160133,31.978069 C 22.160133,31.978069 26.997745,27.140456 26.997745,27.140456 C 18.528582,18.264221 13.291696,25.230495 11.500037,31.436501 z"
     style="fill:#404040;"/>
  </a>
 </g>
</svg>

<style type='text/css'>
<![CDATA[
[data-mouse-over-selected='false'] { opacity: 0.7; }
[data-mouse-over-selected='true']  { opacity: 1.0; }
]]>
</style>
<script type="application/ecmascript"><![CDATA[
document.addEventListener('DOMContentLoaded', (event) => {
  highlightEdges();
  highlightAdjacentNodes();
});
]]></script>
</svg>
