<?xml version="1.0" encoding="UTF-8" standalone="no"?>
<!DOCTYPE svg PUBLIC "-//W3C//DTD SVG 1.1//EN"
 "http://www.w3.org/Graphics/SVG/1.1/DTD/svg11.dtd">
<!-- Generated by graphviz version 2.43.0 (0)
 -->
<!-- Title: System.Runtime.Serialization.Formatters.Binary.SerializationHeaderRecord Pages: 1 -->
<svg width="307pt" height="382pt"
 viewBox="0.00 0.00 307.00 382.00" xmlns="http://www.w3.org/2000/svg" xmlns:xlink="http://www.w3.org/1999/xlink">
<g id="graph0" class="graph" transform="scale(1 1) rotate(0) translate(4 378)">
<title>System.Runtime.Serialization.Formatters.Binary.SerializationHeaderRecord</title>
<!-- Node1 -->
<g id="Node000001" class="node">
<title>Node1</title>
<g id="a_Node000001"><a xlink:title=" ">
<polygon fill="#999999" stroke="transparent" points="220,-223 0,-223 0,0 220,0 220,-223"/>
<text text-anchor="start" x="17" y="-210.5" font-family="Helvetica,sans-Serif" font-size="10.00">System.Runtime.Serialization.</text>
<text text-anchor="start" x="17" y="-199.5" font-family="Helvetica,sans-Serif" font-size="10.00">Formatters.Binary.SerializationHeader</text>
<text text-anchor="start" x="93" y="-188.5" font-family="Helvetica,sans-Serif" font-size="10.00">Record</text>
<text text-anchor="start" x="108" y="-173.5" font-family="Helvetica,sans-Serif" font-size="10.00"> </text>
<text text-anchor="start" x="4" y="-158.5" font-family="Helvetica,sans-Serif" font-size="10.00">+</text>
<text text-anchor="start" x="17" y="-158.5" font-family="Helvetica,sans-Serif" font-size="10.00">void Write(__BinaryWriter</text>
<text text-anchor="start" x="17" y="-147.5" font-family="Helvetica,sans-Serif" font-size="10.00"> sout)</text>
<text text-anchor="start" x="4" y="-132.5" font-family="Helvetica,sans-Serif" font-size="10.00">+</text>
<text text-anchor="start" x="17" y="-132.5" font-family="Helvetica,sans-Serif" font-size="10.00">void Read(__BinaryParser</text>
<text text-anchor="start" x="17" y="-121.5" font-family="Helvetica,sans-Serif" font-size="10.00"> input)</text>
<text text-anchor="start" x="4" y="-106.5" font-family="Helvetica,sans-Serif" font-size="10.00">+</text>
<text text-anchor="start" x="17" y="-106.5" font-family="Helvetica,sans-Serif" font-size="10.00">void Dump()</text>
<text text-anchor="start" x="4" y="-91.5" font-family="Helvetica,sans-Serif" font-size="10.00">~</text>
<text text-anchor="start" x="17" y="-91.5" font-family="Helvetica,sans-Serif" font-size="10.00">SerializationHeaderRecord()</text>
<text text-anchor="start" x="4" y="-76.5" font-family="Helvetica,sans-Serif" font-size="10.00">~</text>
<text text-anchor="start" x="17" y="-76.5" font-family="Helvetica,sans-Serif" font-size="10.00">SerializationHeaderRecord</text>
<text text-anchor="start" x="17" y="-65.5" font-family="Helvetica,sans-Serif" font-size="10.00">(BinaryHeaderEnum binaryHeaderEnum,</text>
<text text-anchor="start" x="17" y="-54.5" font-family="Helvetica,sans-Serif" font-size="10.00"> int topId, int headerId, int</text>
<text text-anchor="start" x="17" y="-43.5" font-family="Helvetica,sans-Serif" font-size="10.00"> majorVersion, int minorVersion)</text>
<text text-anchor="start" x="6.5" y="-28.5" font-family="Helvetica,sans-Serif" font-size="10.00">&#45;</text>
<text text-anchor="start" x="17" y="-28.5" font-family="Helvetica,sans-Serif" font-size="10.00">static int GetInt32</text>
<text text-anchor="start" x="17" y="-17.5" font-family="Helvetica,sans-Serif" font-size="10.00">(byte[] buffer, int</text>
<text text-anchor="start" x="17" y="-6.5" font-family="Helvetica,sans-Serif" font-size="10.00"> index)</text>
<polygon fill="#666666" stroke="#666666" points="0,-183.5 0,-183.5 220,-183.5 220,-183.5 0,-183.5"/>
<polygon fill="#666666" stroke="#666666" points="0,-168.5 0,-168.5 220,-168.5 220,-168.5 0,-168.5"/>
<polygon fill="none" stroke="#666666" points="0,0 0,-223 220,-223 220,0 0,0"/>
</a>
</g>
</g>
<!-- Node2 -->
<g id="Node000002" class="node">
<title>Node2</title>
<g id="a_Node000002"><a xlink:title=" ">
<polygon fill="white" stroke="transparent" points="33.5,-374 10.5,-374 10.5,-325 33.5,-325 33.5,-374"/>
<text text-anchor="start" x="16" y="-361.5" font-family="Helvetica,sans-Serif" font-size="10.00">int</text>
<text text-anchor="start" x="20.5" y="-346.5" font-family="Helvetica,sans-Serif" font-size="10.00"> </text>
<text text-anchor="start" x="20.5" y="-331.5" font-family="Helvetica,sans-Serif" font-size="10.00"> </text>
<polygon fill="#666666" stroke="#666666" points="11,-356.5 11,-356.5 34,-356.5 34,-356.5 11,-356.5"/>
<polygon fill="#666666" stroke="#666666" points="11,-341.5 11,-341.5 34,-341.5 34,-341.5 11,-341.5"/>
<polygon fill="none" stroke="#666666" points="10.5,-325 10.5,-374 33.5,-374 33.5,-325 10.5,-325"/>
</a>
</g>
</g>
<!-- Node2&#45;&gt;Node1 -->
<g id="edge1_Node000001_Node000002" class="edge">
<title>Node2&#45;&gt;Node1</title>
<g id="a_edge1_Node000001_Node000002"><a xlink:title=" ">
<path fill="none" stroke="#63b8ff" d="M18.37,-324.83C15.86,-302.63 14.33,-268.8 23,-241 23.66,-238.87 24.37,-236.75 25.13,-234.63"/>
<polygon fill="none" stroke="#63b8ff" points="25.17,-234.54 23.64,-227.49 29.56,-223.37 31.09,-230.42 25.17,-234.54"/>
</a>
</g>
<text text-anchor="middle" x="100" y="-299" font-family="Helvetica,sans-Serif" font-size="10.00" fill="grey"> ~binaryFormatterMajorVersion</text>
<text text-anchor="middle" x="100" y="-288" font-family="Helvetica,sans-Serif" font-size="10.00" fill="grey">~binaryFormatterMinorVersion</text>
<text text-anchor="middle" x="100" y="-277" font-family="Helvetica,sans-Serif" font-size="10.00" fill="grey">~headerId</text>
<text text-anchor="middle" x="100" y="-266" font-family="Helvetica,sans-Serif" font-size="10.00" fill="grey">~majorVersion</text>
<text text-anchor="middle" x="100" y="-255" font-family="Helvetica,sans-Serif" font-size="10.00" fill="grey">~minorVersion</text>
<text text-anchor="middle" x="100" y="-244" font-family="Helvetica,sans-Serif" font-size="10.00" fill="grey">~topId</text>
</g>
<!-- Node3 -->
<g id="Node000003" class="node">
<title>Node3</title>
<g id="a_Node000003"><a xlink:title=" ">
<polygon fill="white" stroke="transparent" points="251.5,-374 146.5,-374 146.5,-325 251.5,-325 251.5,-374"/>
<text text-anchor="start" x="152" y="-361.5" font-family="Helvetica,sans-Serif" font-size="10.00">BinaryHeaderEnum</text>
<text text-anchor="start" x="197.5" y="-346.5" font-family="Helvetica,sans-Serif" font-size="10.00"> </text>
<text text-anchor="start" x="197.5" y="-331.5" font-family="Helvetica,sans-Serif" font-size="10.00"> </text>
<polygon fill="#666666" stroke="#666666" points="147,-356.5 147,-356.5 252,-356.5 252,-356.5 147,-356.5"/>
<polygon fill="#666666" stroke="#666666" points="147,-341.5 147,-341.5 252,-341.5 252,-341.5 147,-341.5"/>
<polygon fill="none" stroke="#666666" points="146.5,-325 146.5,-374 251.5,-374 251.5,-325 146.5,-325"/>
</a>
</g>
</g>
<!-- Node3&#45;&gt;Node1 -->
<g id="edge2_Node000001_Node000003" class="edge">
<title>Node3&#45;&gt;Node1</title>
<g id="a_edge2_Node000001_Node000003"><a xlink:title=" ">
<path fill="none" stroke="#63b8ff" d="M196.1,-324.92C192.94,-302.8 186.95,-269 177,-241 176.21,-238.78 175.39,-236.55 174.54,-234.31"/>
<polygon fill="none" stroke="#63b8ff" points="174.51,-234.23 168.57,-230.14 170.07,-223.08 176,-227.18 174.51,-234.23"/>
</a>
</g>
<text text-anchor="middle" x="246" y="-271.5" font-family="Helvetica,sans-Serif" font-size="10.00" fill="grey"> ~binaryHeaderEnum</text>
</g>
</g>
</svg>
