<?xml version="1.0" encoding="UTF-8" standalone="no"?>
<!DOCTYPE svg PUBLIC "-//W3C//DTD SVG 1.1//EN"
 "http://www.w3.org/Graphics/SVG/1.1/DTD/svg11.dtd">
<!-- Generated by graphviz version 2.43.0 (0)
 -->
<!-- Title: NaughtyAttributes.MetaAttribute Pages: 1 -->
<!--zoomable 1191 -->

<svg id="main" version="1.1" xmlns="http://www.w3.org/2000/svg" xmlns:xlink="http://www.w3.org/1999/xlink" xml:space="preserve" onload="init(evt)">
<style type="text/css"><![CDATA[
.node, .edge {opacity: 0.7;}
.node.selected, .edge.selected {opacity: 1;}
.edge:hover path { stroke: red; }
.edge:hover polygon { stroke: red; fill: red; }
]]></style>

<defs>
  <circle id="rim" cx="0" cy="0" r="7"/>
  <circle id="rim2" cx="0" cy="0" r="3.5"/>
  <g id="zoomPlus">
    <use xlink:href="#rim" fill="#404040"><set attributeName="fill" to="#808080" begin="zoomplus.mouseover" end="zoomplus.mouseout"/></use>
    <path d="M-4,0h8M0,-4v8" fill="none" stroke="white" stroke-width="1.5" pointer-events="none"/>
  </g>
  <g id="zoomMin">
    <use xlink:href="#rim" fill="#404040"><set attributeName="fill" to="#808080" begin="zoomminus.mouseover" end="zoomminus.mouseout"/></use>
    <path d="M-4,0h8" fill="none" stroke="white" stroke-width="1.5" pointer-events="none"/>
  </g>
  <g id="arrowUp" transform="translate(30 24)">
    <use xlink:href="#rim"/>
    <path pointer-events="none" fill="none" stroke="white" stroke-width="1.5" d="M0,-3.0v7 M-2.5,-0.5L0,-3.0L2.5,-0.5"/>
  </g>
  <g id="arrowRight" transform="rotate(90) translate(36 -43)">
    <use xlink:href="#rim"/>
    <path pointer-events="none" fill="none" stroke="white" stroke-width="1.5" d="M0,-3.0v7 M-2.5,-0.5L0,-3.0L2.5,-0.5"/>
  </g>
  <g id="arrowDown" transform="rotate(180) translate(-30 -48)">
    <use xlink:href="#rim"/>
    <path pointer-events="none" fill="none" stroke="white" stroke-width="1.5" d="M0,-3.0v7 M-2.5,-0.5L0,-3.0L2.5,-0.5"/>
  </g>
  <g id="arrowLeft" transform="rotate(270) translate(-36 17)">
    <use xlink:href="#rim"/>
    <path pointer-events="none" fill="none" stroke="white" stroke-width="1.5" d="M0,-3.0v7 M-2.5,-0.5L0,-3.0L2.5,-0.5"/>
  </g>
  <g id="resetDef">
    <use xlink:href="#rim2" fill="#404040"><set attributeName="fill" to="#808080" begin="reset.mouseover" end="reset.mouseout"/></use>
  </g>
</defs>
<script type="application/ecmascript">
var viewWidth = 331;
var viewHeight = 1191;
var sectionId = 'dynsection-1';
</script>
<script type="application/ecmascript" xlink:href="../../svg.min.js"/>
<svg id="graph" class="graph">
<g id="viewport">
<title>NaughtyAttributes.MetaAttribute</title>
<!-- Node1 -->
<g id="Node000001" class="node">
<title>Node1</title>
<g id="a_Node000001"><a xlink:title=" ">
<polygon fill="#999999" stroke="transparent" points="276,-49 106,-49 106,0 276,0 276,-49"/>
<text text-anchor="start" x="111" y="-36.5" font-family="Helvetica,sans-Serif" font-size="10.00">NaughtyAttributes.MetaAttribute</text>
<text text-anchor="start" x="128" y="-21.5" font-family="Helvetica,sans-Serif" font-size="10.00">+</text>
<text text-anchor="start" x="159" y="-21.5" font-family="Helvetica,sans-Serif" font-size="10.00">int Order</text>
<text text-anchor="start" x="128" y="-6.5" font-family="Helvetica,sans-Serif" font-size="10.00">#</text>
<text text-anchor="start" x="159" y="-6.5" font-family="Helvetica,sans-Serif" font-size="10.00">MetaAttribute()</text>
<polygon fill="#666666" stroke="#666666" points="106,-31.5 106,-31.5 276,-31.5 276,-31.5 106,-31.5"/>
<polygon fill="#666666" stroke="#666666" points="106,-16.5 106,-16.5 157,-16.5 157,-16.5 106,-16.5"/>
<polygon fill="#666666" stroke="#666666" points="157,-16.5 157,-16.5 276,-16.5 276,-16.5 157,-16.5"/>
<polygon fill="none" stroke="#666666" points="106,0 106,-49 276,-49 276,0 106,0"/>
</a>
</g>
</g>
<!-- Node2 -->
<g id="Node000002" class="node">
<title>Node2</title>
<g id="a_Node000002"><a xlink:href="../../dc/d9e/classNaughtyAttributes_1_1NaughtyAttribute.html" target="_top" xlink:title=" ">
<polygon fill="white" stroke="transparent" points="192.5,-145 79.5,-145 79.5,-96 192.5,-96 192.5,-145"/>
<text text-anchor="start" x="94" y="-132.5" font-family="Helvetica,sans-Serif" font-size="10.00">NaughtyAttribute</text>
<text text-anchor="start" x="134.5" y="-117.5" font-family="Helvetica,sans-Serif" font-size="10.00"> </text>
<text text-anchor="start" x="84" y="-102.5" font-family="Helvetica,sans-Serif" font-size="10.00">+</text>
<text text-anchor="start" x="97" y="-102.5" font-family="Helvetica,sans-Serif" font-size="10.00">NaughtyAttribute()</text>
<polygon fill="#666666" stroke="#666666" points="80,-127.5 80,-127.5 193,-127.5 193,-127.5 80,-127.5"/>
<polygon fill="#666666" stroke="#666666" points="80,-112.5 80,-112.5 193,-112.5 193,-112.5 80,-112.5"/>
<polygon fill="none" stroke="#666666" points="79.5,-96 79.5,-145 192.5,-145 192.5,-96 79.5,-96"/>
</a>
</g>
</g>
<!-- Node2&#45;&gt;Node1 -->
<g id="edge1_Node000001_Node000002" class="edge">
<title>Node2&#45;&gt;Node1</title>
<g id="a_edge1_Node000001_Node000002"><a xlink:title=" ">
<path fill="none" stroke="#63b8ff" d="M154.99,-87.05C162.26,-74.62 170.42,-60.68 177.13,-49.21"/>
<polygon fill="none" stroke="#63b8ff" points="151.91,-85.38 149.88,-95.78 157.95,-88.92 151.91,-85.38"/>
</a>
</g>
</g>
<!-- Node3 -->
<g id="Node000003" class="node">
<title>Node3</title>
<g id="a_Node000003"><a xlink:href="../../d1/d05/classSystem_1_1Attribute.html" target="_top" xlink:title=" ">
<polygon fill="white" stroke="transparent" points="250,-1183 0,-1183 0,-192 250,-192 250,-1183"/>
<text text-anchor="start" x="103.5" y="-1170.5" font-family="Helvetica,sans-Serif" font-size="10.00">Attribute</text>
<text text-anchor="start" x="4" y="-1155.5" font-family="Helvetica,sans-Serif" font-size="10.00">+</text>
<text text-anchor="start" x="17" y="-1155.5" font-family="Helvetica,sans-Serif" font-size="10.00">virtual object TypeId</text>
<text text-anchor="start" x="4" y="-1140.5" font-family="Helvetica,sans-Serif" font-size="10.00">+</text>
<text text-anchor="start" x="17" y="-1140.5" font-family="Helvetica,sans-Serif" font-size="10.00">override bool Equals</text>
<text text-anchor="start" x="17" y="-1129.5" font-family="Helvetica,sans-Serif" font-size="10.00">(object obj)</text>
<text text-anchor="start" x="4" y="-1114.5" font-family="Helvetica,sans-Serif" font-size="10.00">+</text>
<text text-anchor="start" x="17" y="-1114.5" font-family="Helvetica,sans-Serif" font-size="10.00">override int GetHashCode()</text>
<text text-anchor="start" x="4" y="-1099.5" font-family="Helvetica,sans-Serif" font-size="10.00">+</text>
<text text-anchor="start" x="17" y="-1099.5" font-family="Helvetica,sans-Serif" font-size="10.00">virtual bool Match</text>
<text text-anchor="start" x="17" y="-1088.5" font-family="Helvetica,sans-Serif" font-size="10.00">(object obj)</text>
<text text-anchor="start" x="4" y="-1073.5" font-family="Helvetica,sans-Serif" font-size="10.00">+</text>
<text text-anchor="start" x="17" y="-1073.5" font-family="Helvetica,sans-Serif" font-size="10.00">virtual bool IsDefaultAttribute()</text>
<text text-anchor="start" x="4" y="-1058.5" font-family="Helvetica,sans-Serif" font-size="10.00">+</text>
<text text-anchor="start" x="17" y="-1058.5" font-family="Helvetica,sans-Serif" font-size="10.00">static global::System.Attribute</text>
<text text-anchor="start" x="17" y="-1047.5" font-family="Helvetica,sans-Serif" font-size="10.00">[] GetCustomAttributes(global</text>
<text text-anchor="start" x="17" y="-1036.5" font-family="Helvetica,sans-Serif" font-size="10.00">::System.Reflection.MemberInfo</text>
<text text-anchor="start" x="17" y="-1025.5" font-family="Helvetica,sans-Serif" font-size="10.00"> element, global::System.Type type)</text>
<text text-anchor="start" x="4" y="-1010.5" font-family="Helvetica,sans-Serif" font-size="10.00">+</text>
<text text-anchor="start" x="17" y="-1010.5" font-family="Helvetica,sans-Serif" font-size="10.00">static global::System.Attribute</text>
<text text-anchor="start" x="17" y="-999.5" font-family="Helvetica,sans-Serif" font-size="10.00">[] GetCustomAttributes(global</text>
<text text-anchor="start" x="17" y="-988.5" font-family="Helvetica,sans-Serif" font-size="10.00">::System.Reflection.MemberInfo</text>
<text text-anchor="start" x="17" y="-977.5" font-family="Helvetica,sans-Serif" font-size="10.00"> element, global::System.Type type,</text>
<text text-anchor="start" x="17" y="-966.5" font-family="Helvetica,sans-Serif" font-size="10.00"> bool inherit)</text>
<text text-anchor="start" x="4" y="-951.5" font-family="Helvetica,sans-Serif" font-size="10.00">+</text>
<text text-anchor="start" x="17" y="-951.5" font-family="Helvetica,sans-Serif" font-size="10.00">static global::System.Attribute</text>
<text text-anchor="start" x="17" y="-940.5" font-family="Helvetica,sans-Serif" font-size="10.00">[] GetCustomAttributes(global</text>
<text text-anchor="start" x="17" y="-929.5" font-family="Helvetica,sans-Serif" font-size="10.00">::System.Reflection.MemberInfo</text>
<text text-anchor="start" x="17" y="-918.5" font-family="Helvetica,sans-Serif" font-size="10.00"> element, bool inherit)</text>
<text text-anchor="start" x="4" y="-903.5" font-family="Helvetica,sans-Serif" font-size="10.00">+</text>
<text text-anchor="start" x="17" y="-903.5" font-family="Helvetica,sans-Serif" font-size="10.00">static bool IsDefined</text>
<text text-anchor="start" x="17" y="-892.5" font-family="Helvetica,sans-Serif" font-size="10.00">(global::System.Reflection.</text>
<text text-anchor="start" x="17" y="-881.5" font-family="Helvetica,sans-Serif" font-size="10.00">MemberInfo element, global</text>
<text text-anchor="start" x="17" y="-870.5" font-family="Helvetica,sans-Serif" font-size="10.00">::System.Type attributeType)</text>
<text text-anchor="start" x="4" y="-855.5" font-family="Helvetica,sans-Serif" font-size="10.00">+</text>
<text text-anchor="start" x="17" y="-855.5" font-family="Helvetica,sans-Serif" font-size="10.00">static bool IsDefined</text>
<text text-anchor="start" x="17" y="-844.5" font-family="Helvetica,sans-Serif" font-size="10.00">(global::System.Reflection.</text>
<text text-anchor="start" x="17" y="-833.5" font-family="Helvetica,sans-Serif" font-size="10.00">MemberInfo element, global</text>
<text text-anchor="start" x="17" y="-822.5" font-family="Helvetica,sans-Serif" font-size="10.00">::System.Type attributeType,</text>
<text text-anchor="start" x="17" y="-811.5" font-family="Helvetica,sans-Serif" font-size="10.00"> bool inherit)</text>
<text text-anchor="start" x="4" y="-796.5" font-family="Helvetica,sans-Serif" font-size="10.00">+</text>
<text text-anchor="start" x="17" y="-796.5" font-family="Helvetica,sans-Serif" font-size="10.00">static global::System.Attribute</text>
<text text-anchor="start" x="17" y="-785.5" font-family="Helvetica,sans-Serif" font-size="10.00"> GetCustomAttribute(global</text>
<text text-anchor="start" x="17" y="-774.5" font-family="Helvetica,sans-Serif" font-size="10.00">::System.Reflection.MemberInfo</text>
<text text-anchor="start" x="17" y="-763.5" font-family="Helvetica,sans-Serif" font-size="10.00"> element, global::System.Type</text>
<text text-anchor="start" x="17" y="-752.5" font-family="Helvetica,sans-Serif" font-size="10.00"> attributeType, bool inherit)</text>
<text text-anchor="start" x="4" y="-737.5" font-family="Helvetica,sans-Serif" font-size="10.00">+</text>
<text text-anchor="start" x="17" y="-737.5" font-family="Helvetica,sans-Serif" font-size="10.00">static global::System.Attribute</text>
<text text-anchor="start" x="17" y="-726.5" font-family="Helvetica,sans-Serif" font-size="10.00">[] GetCustomAttributes(global</text>
<text text-anchor="start" x="17" y="-715.5" font-family="Helvetica,sans-Serif" font-size="10.00">::System.Reflection.ParameterInfo</text>
<text text-anchor="start" x="17" y="-704.5" font-family="Helvetica,sans-Serif" font-size="10.00"> element, global::System.Type attributeType,</text>
<text text-anchor="start" x="17" y="-693.5" font-family="Helvetica,sans-Serif" font-size="10.00"> bool inherit)</text>
<text text-anchor="start" x="4" y="-678.5" font-family="Helvetica,sans-Serif" font-size="10.00">+</text>
<text text-anchor="start" x="17" y="-678.5" font-family="Helvetica,sans-Serif" font-size="10.00">static global::System.Attribute</text>
<text text-anchor="start" x="17" y="-667.5" font-family="Helvetica,sans-Serif" font-size="10.00">[] GetCustomAttributes(global</text>
<text text-anchor="start" x="17" y="-656.5" font-family="Helvetica,sans-Serif" font-size="10.00">::System.Reflection.ParameterInfo</text>
<text text-anchor="start" x="17" y="-645.5" font-family="Helvetica,sans-Serif" font-size="10.00"> element, bool inherit)</text>
<text text-anchor="start" x="4" y="-630.5" font-family="Helvetica,sans-Serif" font-size="10.00">+</text>
<text text-anchor="start" x="17" y="-630.5" font-family="Helvetica,sans-Serif" font-size="10.00">static global::System.Attribute</text>
<text text-anchor="start" x="17" y="-619.5" font-family="Helvetica,sans-Serif" font-size="10.00">[] GetCustomAttributes(global</text>
<text text-anchor="start" x="17" y="-608.5" font-family="Helvetica,sans-Serif" font-size="10.00">::System.Reflection.Module element,</text>
<text text-anchor="start" x="17" y="-597.5" font-family="Helvetica,sans-Serif" font-size="10.00"> bool inherit)</text>
<text text-anchor="start" x="4" y="-582.5" font-family="Helvetica,sans-Serif" font-size="10.00">+</text>
<text text-anchor="start" x="17" y="-582.5" font-family="Helvetica,sans-Serif" font-size="10.00">static global::System.Attribute</text>
<text text-anchor="start" x="17" y="-571.5" font-family="Helvetica,sans-Serif" font-size="10.00">[] GetCustomAttributes(global</text>
<text text-anchor="start" x="17" y="-560.5" font-family="Helvetica,sans-Serif" font-size="10.00">::System.Reflection.Module element,</text>
<text text-anchor="start" x="17" y="-549.5" font-family="Helvetica,sans-Serif" font-size="10.00"> global::System.Type attributeType,</text>
<text text-anchor="start" x="17" y="-538.5" font-family="Helvetica,sans-Serif" font-size="10.00"> bool inherit)</text>
<text text-anchor="start" x="17" y="-523.5" font-family="Helvetica,sans-Serif" font-size="10.00">and 6 more...</text>
<text text-anchor="start" x="4" y="-508.5" font-family="Helvetica,sans-Serif" font-size="10.00">#</text>
<text text-anchor="start" x="17" y="-508.5" font-family="Helvetica,sans-Serif" font-size="10.00">Attribute()</text>
<text text-anchor="start" x="6.5" y="-493.5" font-family="Helvetica,sans-Serif" font-size="10.00">&#45;</text>
<text text-anchor="start" x="17" y="-493.5" font-family="Helvetica,sans-Serif" font-size="10.00">static global::System.Attribute</text>
<text text-anchor="start" x="17" y="-482.5" font-family="Helvetica,sans-Serif" font-size="10.00">[] InternalGetCustomAttributes</text>
<text text-anchor="start" x="17" y="-471.5" font-family="Helvetica,sans-Serif" font-size="10.00">(global::System.Reflection.PropertyInfo</text>
<text text-anchor="start" x="17" y="-460.5" font-family="Helvetica,sans-Serif" font-size="10.00"> element, global::System.Type type,</text>
<text text-anchor="start" x="17" y="-449.5" font-family="Helvetica,sans-Serif" font-size="10.00"> bool inherit)</text>
<text text-anchor="start" x="6.5" y="-434.5" font-family="Helvetica,sans-Serif" font-size="10.00">&#45;</text>
<text text-anchor="start" x="17" y="-434.5" font-family="Helvetica,sans-Serif" font-size="10.00">static global::System.Attribute</text>
<text text-anchor="start" x="17" y="-423.5" font-family="Helvetica,sans-Serif" font-size="10.00">[] InternalGetCustomAttributes</text>
<text text-anchor="start" x="17" y="-412.5" font-family="Helvetica,sans-Serif" font-size="10.00">(global::System.Reflection.EventInfo</text>
<text text-anchor="start" x="17" y="-401.5" font-family="Helvetica,sans-Serif" font-size="10.00"> element, global::System.Type type,</text>
<text text-anchor="start" x="17" y="-390.5" font-family="Helvetica,sans-Serif" font-size="10.00"> bool inherit)</text>
<text text-anchor="start" x="6.5" y="-375.5" font-family="Helvetica,sans-Serif" font-size="10.00">&#45;</text>
<text text-anchor="start" x="17" y="-375.5" font-family="Helvetica,sans-Serif" font-size="10.00">static global::System.Attribute</text>
<text text-anchor="start" x="17" y="-364.5" font-family="Helvetica,sans-Serif" font-size="10.00">[] InternalParamGetCustomAttributes</text>
<text text-anchor="start" x="17" y="-353.5" font-family="Helvetica,sans-Serif" font-size="10.00">(global::System.Reflection.ParameterInfo</text>
<text text-anchor="start" x="17" y="-342.5" font-family="Helvetica,sans-Serif" font-size="10.00"> parameter, global::System.Type attributeType,</text>
<text text-anchor="start" x="17" y="-331.5" font-family="Helvetica,sans-Serif" font-size="10.00"> bool inherit)</text>
<text text-anchor="start" x="6.5" y="-316.5" font-family="Helvetica,sans-Serif" font-size="10.00">&#45;</text>
<text text-anchor="start" x="17" y="-316.5" font-family="Helvetica,sans-Serif" font-size="10.00">static bool InternalIsDefined</text>
<text text-anchor="start" x="17" y="-305.5" font-family="Helvetica,sans-Serif" font-size="10.00">(global::System.Reflection.Property</text>
<text text-anchor="start" x="17" y="-294.5" font-family="Helvetica,sans-Serif" font-size="10.00">Info element, global::System.Type</text>
<text text-anchor="start" x="17" y="-283.5" font-family="Helvetica,sans-Serif" font-size="10.00"> attributeType, bool inherit)</text>
<text text-anchor="start" x="6.5" y="-268.5" font-family="Helvetica,sans-Serif" font-size="10.00">&#45;</text>
<text text-anchor="start" x="17" y="-268.5" font-family="Helvetica,sans-Serif" font-size="10.00">static bool InternalIsDefined</text>
<text text-anchor="start" x="17" y="-257.5" font-family="Helvetica,sans-Serif" font-size="10.00">(global::System.Reflection.Event</text>
<text text-anchor="start" x="17" y="-246.5" font-family="Helvetica,sans-Serif" font-size="10.00">Info element, global::System.Type</text>
<text text-anchor="start" x="17" y="-235.5" font-family="Helvetica,sans-Serif" font-size="10.00"> attributeType, bool inherit)</text>
<text text-anchor="start" x="6.5" y="-220.5" font-family="Helvetica,sans-Serif" font-size="10.00">&#45;</text>
<text text-anchor="start" x="17" y="-220.5" font-family="Helvetica,sans-Serif" font-size="10.00">static bool AreFieldValues</text>
<text text-anchor="start" x="17" y="-209.5" font-family="Helvetica,sans-Serif" font-size="10.00">Equal(object thisValue,</text>
<text text-anchor="start" x="17" y="-198.5" font-family="Helvetica,sans-Serif" font-size="10.00"> object thatValue)</text>
<polygon fill="#666666" stroke="#666666" points="0,-1165.5 0,-1165.5 250,-1165.5 250,-1165.5 0,-1165.5"/>
<polygon fill="#666666" stroke="#666666" points="0,-1150.5 0,-1150.5 15,-1150.5 15,-1150.5 0,-1150.5"/>
<polygon fill="#666666" stroke="#666666" points="15,-1150.5 15,-1150.5 250,-1150.5 250,-1150.5 15,-1150.5"/>
<polygon fill="none" stroke="#666666" points="0,-192 0,-1183 250,-1183 250,-192 0,-192"/>
</a>
</g>
</g>
<!-- Node3&#45;&gt;Node2 -->
<g id="edge2_Node000002_Node000003" class="edge">
<title>Node3&#45;&gt;Node2</title>
<g id="a_edge2_Node000002_Node000003"><a xlink:title=" ">
<path fill="none" stroke="#63b8ff" d="M134.83,-181.59C135.11,-167.15 135.35,-154.81 135.54,-145.14"/>
<polygon fill="none" stroke="#63b8ff" points="131.32,-181.85 134.63,-191.92 138.32,-181.99 131.32,-181.85"/>
</a>
</g>
</g>
<!-- Node4 -->
<g id="Node000004" class="node">
<title>Node4</title>
<g id="a_Node000004"><a xlink:title=" ">
<polygon fill="white" stroke="transparent" points="305.5,-145 232.5,-145 232.5,-96 305.5,-96 305.5,-145"/>
<text text-anchor="start" x="238" y="-132.5" font-family="Helvetica,sans-Serif" font-size="10.00">int&lt; Order &gt;</text>
<text text-anchor="start" x="267.5" y="-117.5" font-family="Helvetica,sans-Serif" font-size="10.00"> </text>
<text text-anchor="start" x="267.5" y="-102.5" font-family="Helvetica,sans-Serif" font-size="10.00"> </text>
<polygon fill="#666666" stroke="#666666" points="233,-127.5 233,-127.5 306,-127.5 306,-127.5 233,-127.5"/>
<polygon fill="#666666" stroke="#666666" points="233,-112.5 233,-112.5 306,-112.5 306,-112.5 233,-112.5"/>
<polygon fill="none" stroke="#666666" points="232.5,-96 232.5,-145 305.5,-145 305.5,-96 232.5,-96"/>
</a>
</g>
</g>
<!-- Node4&#45;&gt;Node1 -->
<g id="edge3_Node000001_Node000004" class="edge">
<title>Node4&#45;&gt;Node1</title>
<g id="a_edge3_Node000001_Node000004"><a xlink:title=" ">
<path fill="none" stroke="#63b8ff" d="M249.32,-95.78C239.99,-84.54 228.68,-70.91 218.52,-58.67"/>
<polygon fill="none" stroke="#63b8ff" points="218.34,-58.45 211.43,-56.38 210.68,-49.21 217.59,-51.28 218.34,-58.45"/>
</a>
</g>
<text text-anchor="middle" x="276" y="-70" font-family="Helvetica,sans-Serif" font-size="10.00" fill="grey"> &#45;k__BackingField</text>
</g>
<!-- Node5 -->
<g id="Node000005" class="node">
<title>Node5</title>
<g id="a_Node000005"><a xlink:title=" ">
<polygon fill="white" stroke="transparent" points="291.5,-712 268.5,-712 268.5,-663 291.5,-663 291.5,-712"/>
<text text-anchor="start" x="274" y="-699.5" font-family="Helvetica,sans-Serif" font-size="10.00">int</text>
<text text-anchor="start" x="278.5" y="-684.5" font-family="Helvetica,sans-Serif" font-size="10.00"> </text>
<text text-anchor="start" x="278.5" y="-669.5" font-family="Helvetica,sans-Serif" font-size="10.00"> </text>
<polygon fill="#666666" stroke="#666666" points="269,-694.5 269,-694.5 292,-694.5 292,-694.5 269,-694.5"/>
<polygon fill="#666666" stroke="#666666" points="269,-679.5 269,-679.5 292,-679.5 292,-679.5 269,-679.5"/>
<polygon fill="none" stroke="#666666" points="268.5,-663 268.5,-712 291.5,-712 291.5,-663 268.5,-663"/>
</a>
</g>
</g>
<!-- Node5&#45;&gt;Node4 -->
<g id="edge4_Node000004_Node000005" class="edge">
<title>Node5&#45;&gt;Node4</title>
<g id="a_edge4_Node000004_Node000005"><a xlink:title=" ">
<path fill="none" stroke="orange" d="M279.34,-652.69C277.31,-548.51 271.19,-234.08 269.46,-145.16"/>
<polygon fill="orange" stroke="orange" points="275.85,-653.01 279.54,-662.94 282.85,-652.88 275.85,-653.01"/>
</a>
</g>
<text text-anchor="middle" x="296.5" y="-166" font-family="Helvetica,sans-Serif" font-size="10.00" fill="grey"> &lt; Order &gt;</text>
</g>
</g>
</svg>

<g id="navigator" transform="translate(0 0)" fill="#404254">
  <rect fill="#f2f5e9" fill-opacity="0.5" stroke="#606060" stroke-width=".5" x="0" y="0" width="60" height="60"/>
  <use id="zoomplus" xlink:href="#zoomPlus" x="17" y="9" onmousedown="handleZoom(evt,'in')"/>
  <use id="zoomminus" xlink:href="#zoomMin" x="42" y="9" onmousedown="handleZoom(evt,'out')"/>
  <use id="reset" xlink:href="#resetDef" x="30" y="36" onmousedown="handleReset()"/>
   <use id="arrowup" xlink:href="#arrowUp" x="0" y="0" onmousedown="handlePan(0,-1)"/>
  <use id="arrowright" xlink:href="#arrowRight" x="0" y="0" onmousedown="handlePan(1,0)"/>
  <use id="arrowdown" xlink:href="#arrowDown" x="0" y="0" onmousedown="handlePan(0,1)"/>
  <use id="arrowleft" xlink:href="#arrowLeft" x="0" y="0" onmousedown="handlePan(-1,0)"/>
</g>
<svg viewBox="0 0 15 15" width="100%" height="30px" preserveAspectRatio="xMaxYMin meet">
 <g id="arrow_out" transform="scale(0.3 0.3)">
  <a xlink:href="classNaughtyAttributes_1_1MetaAttribute__coll__graph_org.svg" target="_base">
   <rect id="button" ry="5" rx="5" y="6" x="6" height="38" width="38"
        fill="#f2f5e9" fill-opacity="0.5" stroke="#606060" stroke-width="1.0"/>
   <path id="arrow"
     d="M 11.500037,31.436501 C 11.940474,20.09759 22.043105,11.32322 32.158766,21.979434 L 37.068811,17.246167 C 37.068811,17.246167 37.088388,32 37.088388,32 L 22.160133,31.978069 C 22.160133,31.978069 26.997745,27.140456 26.997745,27.140456 C 18.528582,18.264221 13.291696,25.230495 11.500037,31.436501 z"
     style="fill:#404040;"/>
  </a>
 </g>
</svg>

<style type='text/css'>
<![CDATA[
[data-mouse-over-selected='false'] { opacity: 0.7; }
[data-mouse-over-selected='true']  { opacity: 1.0; }
]]>
</style>
<script type="application/ecmascript"><![CDATA[
document.addEventListener('DOMContentLoaded', (event) => {
  highlightEdges();
  highlightAdjacentNodes();
});
]]></script>
</svg>
