<?xml version="1.0" encoding="UTF-8" standalone="no"?>
<!DOCTYPE svg PUBLIC "-//W3C//DTD SVG 1.1//EN"
 "http://www.w3.org/Graphics/SVG/1.1/DTD/svg11.dtd">
<!-- Generated by graphviz version 2.43.0 (0)
 -->
<!-- Title: Terraria.GameContent.Skies.MartianSky.HoverBehavior Pages: 1 -->
<svg width="165pt" height="272pt"
 viewBox="0.00 0.00 165.00 272.00" xmlns="http://www.w3.org/2000/svg" xmlns:xlink="http://www.w3.org/1999/xlink">
<g id="graph0" class="graph" transform="scale(1 1) rotate(0) translate(4 268)">
<title>Terraria.GameContent.Skies.MartianSky.HoverBehavior</title>
<!-- Node1 -->
<g id="Node000001" class="node">
<title>Node1</title>
<g id="a_Node000001"><a xlink:title=" ">
<polygon fill="#999999" stroke="transparent" points="156,-127 1,-127 1,0 156,0 156,-127"/>
<text text-anchor="start" x="9" y="-114.5" font-family="Helvetica,sans-Serif" font-size="10.00">Terraria.GameContent.Skies.</text>
<text text-anchor="start" x="14" y="-103.5" font-family="Helvetica,sans-Serif" font-size="10.00">MartianSky.HoverBehavior</text>
<text text-anchor="start" x="8" y="-88.5" font-family="Helvetica,sans-Serif" font-size="10.00">&#45;</text>
<text text-anchor="start" x="18.5" y="-88.5" font-family="Helvetica,sans-Serif" font-size="10.00">int _ticks</text>
<text text-anchor="start" x="8" y="-73.5" font-family="Helvetica,sans-Serif" font-size="10.00">&#45;</text>
<text text-anchor="start" x="18.5" y="-73.5" font-family="Helvetica,sans-Serif" font-size="10.00">int _maxTicks</text>
<text text-anchor="start" x="5.5" y="-58.5" font-family="Helvetica,sans-Serif" font-size="10.00">+</text>
<text text-anchor="start" x="18.5" y="-58.5" font-family="Helvetica,sans-Serif" font-size="10.00">override void Initialize</text>
<text text-anchor="start" x="18.5" y="-47.5" font-family="Helvetica,sans-Serif" font-size="10.00">Ufo(ref MartianSky.Ufo ufo)</text>
<text text-anchor="start" x="5.5" y="-32.5" font-family="Helvetica,sans-Serif" font-size="10.00">+</text>
<text text-anchor="start" x="18.5" y="-32.5" font-family="Helvetica,sans-Serif" font-size="10.00">override bool Update</text>
<text text-anchor="start" x="18.5" y="-21.5" font-family="Helvetica,sans-Serif" font-size="10.00">(ref MartianSky.Ufo ufo)</text>
<text text-anchor="start" x="5.5" y="-6.5" font-family="Helvetica,sans-Serif" font-size="10.00">+</text>
<text text-anchor="start" x="18.5" y="-6.5" font-family="Helvetica,sans-Serif" font-size="10.00">HoverBehavior()</text>
<polygon fill="#666666" stroke="#666666" points="1.5,-98.5 1.5,-98.5 156.5,-98.5 156.5,-98.5 1.5,-98.5"/>
<polygon fill="#666666" stroke="#666666" points="1.5,-68.5 1.5,-68.5 16.5,-68.5 16.5,-68.5 1.5,-68.5"/>
<polygon fill="#666666" stroke="#666666" points="16.5,-68.5 16.5,-68.5 156.5,-68.5 156.5,-68.5 16.5,-68.5"/>
<polygon fill="none" stroke="#666666" points="1,0 1,-127 156,-127 156,0 1,0"/>
</a>
</g>
</g>
<!-- Node2 -->
<g id="Node000002" class="node">
<title>Node2</title>
<g id="a_Node000002"><a xlink:href="../../d8/d22/classTerraria_1_1GameContent_1_1Skies_1_1MartianSky_1_1IUfoController.html" target="_top" xlink:title=" ">
<polygon fill="white" stroke="transparent" points="157,-264 0,-264 0,-163 157,-163 157,-264"/>
<text text-anchor="start" x="14.5" y="-251.5" font-family="Helvetica,sans-Serif" font-size="10.00">MartianSky::IUfoController</text>
<text text-anchor="start" x="77" y="-236.5" font-family="Helvetica,sans-Serif" font-size="10.00"> </text>
<text text-anchor="start" x="4.5" y="-221.5" font-family="Helvetica,sans-Serif" font-size="10.00">+</text>
<text text-anchor="start" x="17.5" y="-221.5" font-family="Helvetica,sans-Serif" font-size="10.00">void InitializeUfo</text>
<text text-anchor="start" x="17.5" y="-210.5" font-family="Helvetica,sans-Serif" font-size="10.00">(ref MartianSky.Ufo ufo)</text>
<text text-anchor="start" x="4.5" y="-195.5" font-family="Helvetica,sans-Serif" font-size="10.00">+</text>
<text text-anchor="start" x="17.5" y="-195.5" font-family="Helvetica,sans-Serif" font-size="10.00">bool Update(ref MartianSky.</text>
<text text-anchor="start" x="17.5" y="-184.5" font-family="Helvetica,sans-Serif" font-size="10.00">Ufo ufo)</text>
<text text-anchor="start" x="4.5" y="-169.5" font-family="Helvetica,sans-Serif" font-size="10.00">#</text>
<text text-anchor="start" x="17.5" y="-169.5" font-family="Helvetica,sans-Serif" font-size="10.00">IUfoController()</text>
<polygon fill="#666666" stroke="#666666" points="0.5,-246.5 0.5,-246.5 157.5,-246.5 157.5,-246.5 0.5,-246.5"/>
<polygon fill="#666666" stroke="#666666" points="0.5,-231.5 0.5,-231.5 157.5,-231.5 157.5,-231.5 0.5,-231.5"/>
<polygon fill="none" stroke="#666666" points="0,-163 0,-264 157,-264 157,-163 0,-163"/>
</a>
</g>
</g>
<!-- Node2&#45;&gt;Node1 -->
<g id="edge1_Node000001_Node000002" class="edge">
<title>Node2&#45;&gt;Node1</title>
<g id="a_edge1_Node000001_Node000002"><a xlink:title=" ">
<path fill="none" stroke="#63b8ff" d="M78.5,-152.72C78.5,-144.31 78.5,-135.66 78.5,-127.2"/>
<polygon fill="none" stroke="#63b8ff" points="75,-152.81 78.5,-162.81 82,-152.81 75,-152.81"/>
</a>
</g>
</g>
</g>
</svg>
