<?xml version="1.0" encoding="UTF-8" standalone="no"?>
<!DOCTYPE svg PUBLIC "-//W3C//DTD SVG 1.1//EN"
 "http://www.w3.org/Graphics/SVG/1.1/DTD/svg11.dtd">
<!-- Generated by graphviz version 2.43.0 (0)
 -->
<!-- Title: Terraria.Utilities.WeightedRandom&lt; T &gt; Pages: 1 -->
<!--zoomable 791 -->

<svg id="main" version="1.1" xmlns="http://www.w3.org/2000/svg" xmlns:xlink="http://www.w3.org/1999/xlink" xml:space="preserve" onload="init(evt)">
<style type="text/css"><![CDATA[
.node, .edge {opacity: 0.7;}
.node.selected, .edge.selected {opacity: 1;}
.edge:hover path { stroke: red; }
.edge:hover polygon { stroke: red; fill: red; }
]]></style>

<defs>
  <circle id="rim" cx="0" cy="0" r="7"/>
  <circle id="rim2" cx="0" cy="0" r="3.5"/>
  <g id="zoomPlus">
    <use xlink:href="#rim" fill="#404040"><set attributeName="fill" to="#808080" begin="zoomplus.mouseover" end="zoomplus.mouseout"/></use>
    <path d="M-4,0h8M0,-4v8" fill="none" stroke="white" stroke-width="1.5" pointer-events="none"/>
  </g>
  <g id="zoomMin">
    <use xlink:href="#rim" fill="#404040"><set attributeName="fill" to="#808080" begin="zoomminus.mouseover" end="zoomminus.mouseout"/></use>
    <path d="M-4,0h8" fill="none" stroke="white" stroke-width="1.5" pointer-events="none"/>
  </g>
  <g id="arrowUp" transform="translate(30 24)">
    <use xlink:href="#rim"/>
    <path pointer-events="none" fill="none" stroke="white" stroke-width="1.5" d="M0,-3.0v7 M-2.5,-0.5L0,-3.0L2.5,-0.5"/>
  </g>
  <g id="arrowRight" transform="rotate(90) translate(36 -43)">
    <use xlink:href="#rim"/>
    <path pointer-events="none" fill="none" stroke="white" stroke-width="1.5" d="M0,-3.0v7 M-2.5,-0.5L0,-3.0L2.5,-0.5"/>
  </g>
  <g id="arrowDown" transform="rotate(180) translate(-30 -48)">
    <use xlink:href="#rim"/>
    <path pointer-events="none" fill="none" stroke="white" stroke-width="1.5" d="M0,-3.0v7 M-2.5,-0.5L0,-3.0L2.5,-0.5"/>
  </g>
  <g id="arrowLeft" transform="rotate(270) translate(-36 17)">
    <use xlink:href="#rim"/>
    <path pointer-events="none" fill="none" stroke="white" stroke-width="1.5" d="M0,-3.0v7 M-2.5,-0.5L0,-3.0L2.5,-0.5"/>
  </g>
  <g id="resetDef">
    <use xlink:href="#rim2" fill="#404040"><set attributeName="fill" to="#808080" begin="reset.mouseover" end="reset.mouseout"/></use>
  </g>
</defs>
<script type="application/ecmascript">
var viewWidth = 467;
var viewHeight = 791;
var sectionId = 'dynsection-0';
</script>
<script type="application/ecmascript" xlink:href="../../svg.min.js"/>
<svg id="graph" class="graph">
<g id="viewport">
<title>Terraria.Utilities.WeightedRandom&lt; T &gt;</title>
<!-- Node1 -->
<g id="Node000001" class="node">
<title>Node1</title>
<g id="a_Node000001"><a xlink:title=" ">
<polygon fill="#999999" stroke="transparent" points="378.5,-331 191.5,-331 191.5,0 378.5,0 378.5,-331"/>
<text text-anchor="start" x="222" y="-318.5" font-family="Helvetica,sans-Serif" font-size="10.00">Terraria.Utilities.Weighted</text>
<text text-anchor="start" x="250.5" y="-307.5" font-family="Helvetica,sans-Serif" font-size="10.00">Random&lt; T &gt;</text>
<text text-anchor="start" x="283.5" y="-292.5" font-family="Helvetica,sans-Serif" font-size="10.00"> </text>
<text text-anchor="start" x="196" y="-277.5" font-family="Helvetica,sans-Serif" font-size="10.00">+</text>
<text text-anchor="start" x="209" y="-277.5" font-family="Helvetica,sans-Serif" font-size="10.00">WeightedRandom()</text>
<text text-anchor="start" x="196" y="-262.5" font-family="Helvetica,sans-Serif" font-size="10.00">+</text>
<text text-anchor="start" x="209" y="-262.5" font-family="Helvetica,sans-Serif" font-size="10.00">WeightedRandom(int</text>
<text text-anchor="start" x="209" y="-251.5" font-family="Helvetica,sans-Serif" font-size="10.00"> seed)</text>
<text text-anchor="start" x="196" y="-236.5" font-family="Helvetica,sans-Serif" font-size="10.00">+</text>
<text text-anchor="start" x="209" y="-236.5" font-family="Helvetica,sans-Serif" font-size="10.00">WeightedRandom(UnifiedRandom</text>
<text text-anchor="start" x="209" y="-225.5" font-family="Helvetica,sans-Serif" font-size="10.00"> random)</text>
<text text-anchor="start" x="196" y="-210.5" font-family="Helvetica,sans-Serif" font-size="10.00">+</text>
<text text-anchor="start" x="209" y="-210.5" font-family="Helvetica,sans-Serif" font-size="10.00">WeightedRandom(params</text>
<text text-anchor="start" x="209" y="-199.5" font-family="Helvetica,sans-Serif" font-size="10.00"> Tuple&lt; T, double &gt;[]</text>
<text text-anchor="start" x="209" y="-188.5" font-family="Helvetica,sans-Serif" font-size="10.00"> theElements)</text>
<text text-anchor="start" x="196" y="-173.5" font-family="Helvetica,sans-Serif" font-size="10.00">+</text>
<text text-anchor="start" x="209" y="-173.5" font-family="Helvetica,sans-Serif" font-size="10.00">WeightedRandom(int</text>
<text text-anchor="start" x="209" y="-162.5" font-family="Helvetica,sans-Serif" font-size="10.00"> seed, params Tuple</text>
<text text-anchor="start" x="209" y="-151.5" font-family="Helvetica,sans-Serif" font-size="10.00">&lt; T, double &gt;[] theElements)</text>
<text text-anchor="start" x="196" y="-136.5" font-family="Helvetica,sans-Serif" font-size="10.00">+</text>
<text text-anchor="start" x="209" y="-136.5" font-family="Helvetica,sans-Serif" font-size="10.00">WeightedRandom(UnifiedRandom</text>
<text text-anchor="start" x="209" y="-125.5" font-family="Helvetica,sans-Serif" font-size="10.00"> random, params Tuple&lt; T,</text>
<text text-anchor="start" x="209" y="-114.5" font-family="Helvetica,sans-Serif" font-size="10.00"> double &gt;[] theElements)</text>
<text text-anchor="start" x="196" y="-99.5" font-family="Helvetica,sans-Serif" font-size="10.00">+</text>
<text text-anchor="start" x="209" y="-99.5" font-family="Helvetica,sans-Serif" font-size="10.00">void Add(T element,</text>
<text text-anchor="start" x="209" y="-88.5" font-family="Helvetica,sans-Serif" font-size="10.00"> double weight=1.0)</text>
<text text-anchor="start" x="196" y="-73.5" font-family="Helvetica,sans-Serif" font-size="10.00">+</text>
<text text-anchor="start" x="209" y="-73.5" font-family="Helvetica,sans-Serif" font-size="10.00">T Get()</text>
<text text-anchor="start" x="196" y="-58.5" font-family="Helvetica,sans-Serif" font-size="10.00">+</text>
<text text-anchor="start" x="209" y="-58.5" font-family="Helvetica,sans-Serif" font-size="10.00">void CalculateTotalWeight()</text>
<text text-anchor="start" x="196" y="-43.5" font-family="Helvetica,sans-Serif" font-size="10.00">+</text>
<text text-anchor="start" x="209" y="-43.5" font-family="Helvetica,sans-Serif" font-size="10.00">void Clear()</text>
<text text-anchor="start" x="196" y="-28.5" font-family="Helvetica,sans-Serif" font-size="10.00">+</text>
<text text-anchor="start" x="209" y="-28.5" font-family="Helvetica,sans-Serif" font-size="10.00">static implicit operator</text>
<text text-anchor="start" x="209" y="-17.5" font-family="Helvetica,sans-Serif" font-size="10.00"> T(WeightedRandom&lt; T &gt;</text>
<text text-anchor="start" x="209" y="-6.5" font-family="Helvetica,sans-Serif" font-size="10.00"> weightedRandom)</text>
<polygon fill="#666666" stroke="#666666" points="192,-302.5 192,-302.5 379,-302.5 379,-302.5 192,-302.5"/>
<polygon fill="#666666" stroke="#666666" points="192,-287.5 192,-287.5 379,-287.5 379,-287.5 192,-287.5"/>
<polygon fill="none" stroke="#666666" points="191.5,0 191.5,-331 378.5,-331 378.5,0 191.5,0"/>
</a>
</g>
</g>
<!-- Node2 -->
<g id="Node000002" class="node">
<title>Node2</title>
<g id="a_Node000002"><a xlink:title=" ">
<polygon fill="white" stroke="transparent" points="110,-535 0,-535 0,-475 110,-475 110,-535"/>
<text text-anchor="start" x="5" y="-523" font-family="Helvetica,sans-Serif" font-size="10.00">readonly List&lt; Tuple</text>
<text text-anchor="start" x="15.5" y="-512" font-family="Helvetica,sans-Serif" font-size="10.00">&lt; T, double &gt; &gt;</text>
<text text-anchor="start" x="53" y="-497" font-family="Helvetica,sans-Serif" font-size="10.00"> </text>
<text text-anchor="start" x="53" y="-482" font-family="Helvetica,sans-Serif" font-size="10.00"> </text>
<polygon fill="#666666" stroke="#666666" points="0,-507 0,-507 110,-507 110,-507 0,-507"/>
<polygon fill="#666666" stroke="#666666" points="0,-492 0,-492 110,-492 110,-492 0,-492"/>
<polygon fill="none" stroke="#666666" points="0,-475 0,-535 110,-535 110,-475 0,-475"/>
</a>
</g>
</g>
<!-- Node2&#45;&gt;Node1 -->
<g id="edge1_Node000001_Node000002" class="edge">
<title>Node2&#45;&gt;Node1</title>
<g id="a_edge1_Node000001_Node000002"><a xlink:title=" ">
<path fill="none" stroke="#63b8ff" d="M67.82,-474.85C79.77,-448.73 98.75,-409.75 119,-378 138.45,-347.5 161.33,-316.09 183.79,-287.11"/>
<polygon fill="none" stroke="#63b8ff" points="184,-286.84 184.54,-279.65 191.39,-277.38 190.85,-284.57 184,-286.84"/>
</a>
</g>
<text text-anchor="middle" x="165" y="-352" font-family="Helvetica,sans-Serif" font-size="10.00" fill="grey"> +elements</text>
</g>
<!-- Node3 -->
<g id="Node000003" class="node">
<title>Node3</title>
<g id="a_Node000003"><a xlink:href="../../d9/db1/classTerraria_1_1Utilities_1_1UnifiedRandom.html" target="_top" xlink:title=" ">
<polygon fill="white" stroke="transparent" points="282,-632 128,-632 128,-378 282,-378 282,-632"/>
<text text-anchor="start" x="147" y="-620" font-family="Helvetica,sans-Serif" font-size="10.00">Terraria.Utilities.Unified</text>
<text text-anchor="start" x="184.5" y="-609" font-family="Helvetica,sans-Serif" font-size="10.00">Random</text>
<text text-anchor="start" x="203" y="-594" font-family="Helvetica,sans-Serif" font-size="10.00"> </text>
<text text-anchor="start" x="132" y="-579" font-family="Helvetica,sans-Serif" font-size="10.00">+</text>
<text text-anchor="start" x="145" y="-579" font-family="Helvetica,sans-Serif" font-size="10.00">UnifiedRandom()</text>
<text text-anchor="start" x="132" y="-564" font-family="Helvetica,sans-Serif" font-size="10.00">+</text>
<text text-anchor="start" x="145" y="-564" font-family="Helvetica,sans-Serif" font-size="10.00">UnifiedRandom(int</text>
<text text-anchor="start" x="145" y="-553" font-family="Helvetica,sans-Serif" font-size="10.00"> Seed)</text>
<text text-anchor="start" x="132" y="-538" font-family="Helvetica,sans-Serif" font-size="10.00">+</text>
<text text-anchor="start" x="145" y="-538" font-family="Helvetica,sans-Serif" font-size="10.00">void SetSeed(int Seed)</text>
<text text-anchor="start" x="132" y="-523" font-family="Helvetica,sans-Serif" font-size="10.00">+</text>
<text text-anchor="start" x="145" y="-523" font-family="Helvetica,sans-Serif" font-size="10.00">int Next()</text>
<text text-anchor="start" x="132" y="-508" font-family="Helvetica,sans-Serif" font-size="10.00">+</text>
<text text-anchor="start" x="145" y="-508" font-family="Helvetica,sans-Serif" font-size="10.00">int Next(int minValue,</text>
<text text-anchor="start" x="145" y="-497" font-family="Helvetica,sans-Serif" font-size="10.00"> int maxValue)</text>
<text text-anchor="start" x="132" y="-482" font-family="Helvetica,sans-Serif" font-size="10.00">+</text>
<text text-anchor="start" x="145" y="-482" font-family="Helvetica,sans-Serif" font-size="10.00">int Next(int maxValue)</text>
<text text-anchor="start" x="132" y="-467" font-family="Helvetica,sans-Serif" font-size="10.00">+</text>
<text text-anchor="start" x="145" y="-467" font-family="Helvetica,sans-Serif" font-size="10.00">double NextDouble()</text>
<text text-anchor="start" x="132" y="-452" font-family="Helvetica,sans-Serif" font-size="10.00">+</text>
<text text-anchor="start" x="145" y="-452" font-family="Helvetica,sans-Serif" font-size="10.00">void NextBytes(byte</text>
<text text-anchor="start" x="145" y="-441" font-family="Helvetica,sans-Serif" font-size="10.00">[] buffer)</text>
<text text-anchor="start" x="132" y="-426" font-family="Helvetica,sans-Serif" font-size="10.00">#</text>
<text text-anchor="start" x="145" y="-426" font-family="Helvetica,sans-Serif" font-size="10.00">double Sample()</text>
<text text-anchor="start" x="134.5" y="-411" font-family="Helvetica,sans-Serif" font-size="10.00">&#45;</text>
<text text-anchor="start" x="145" y="-411" font-family="Helvetica,sans-Serif" font-size="10.00">int InternalSample()</text>
<text text-anchor="start" x="134.5" y="-396" font-family="Helvetica,sans-Serif" font-size="10.00">&#45;</text>
<text text-anchor="start" x="145" y="-396" font-family="Helvetica,sans-Serif" font-size="10.00">double GetSampleForLarge</text>
<text text-anchor="start" x="145" y="-385" font-family="Helvetica,sans-Serif" font-size="10.00">Range()</text>
<polygon fill="#666666" stroke="#666666" points="128,-604 128,-604 282,-604 282,-604 128,-604"/>
<polygon fill="#666666" stroke="#666666" points="128,-589 128,-589 282,-589 282,-589 128,-589"/>
<polygon fill="none" stroke="#666666" points="128,-378 128,-632 282,-632 282,-378 128,-378"/>
</a>
</g>
</g>
<!-- Node3&#45;&gt;Node1 -->
<g id="edge2_Node000001_Node000003" class="edge">
<title>Node3&#45;&gt;Node1</title>
<g id="a_edge2_Node000001_Node000003"><a xlink:title=" ">
<path fill="none" stroke="#63b8ff" d="M234.9,-377.85C237.62,-366.4 240.39,-354.68 243.19,-342.9"/>
<polygon fill="none" stroke="#63b8ff" points="243.21,-342.8 240.7,-336.04 245.98,-331.12 248.49,-337.88 243.21,-342.8"/>
</a>
</g>
<text text-anchor="middle" x="265.5" y="-352" font-family="Helvetica,sans-Serif" font-size="10.00" fill="grey"> +random</text>
</g>
<!-- Node4 -->
<g id="Node000004" class="node">
<title>Node4</title>
<g id="a_Node000004"><a xlink:title=" ">
<polygon fill="white" stroke="transparent" points="194.5,-783 171.5,-783 171.5,-734 194.5,-734 194.5,-783"/>
<text text-anchor="start" x="177" y="-770.5" font-family="Helvetica,sans-Serif" font-size="10.00">int</text>
<text text-anchor="start" x="181.5" y="-755.5" font-family="Helvetica,sans-Serif" font-size="10.00"> </text>
<text text-anchor="start" x="181.5" y="-740.5" font-family="Helvetica,sans-Serif" font-size="10.00"> </text>
<polygon fill="#666666" stroke="#666666" points="172,-765.5 172,-765.5 195,-765.5 195,-765.5 172,-765.5"/>
<polygon fill="#666666" stroke="#666666" points="172,-750.5 172,-750.5 195,-750.5 195,-750.5 172,-750.5"/>
<polygon fill="none" stroke="#666666" points="171.5,-734 171.5,-783 194.5,-783 194.5,-734 171.5,-734"/>
</a>
</g>
</g>
<!-- Node4&#45;&gt;Node3 -->
<g id="edge3_Node000003_Node000004" class="edge">
<title>Node4&#45;&gt;Node3</title>
<g id="a_edge3_Node000003_Node000004"><a xlink:title=" ">
<path fill="none" stroke="#63b8ff" d="M182.3,-733.97C181.88,-712.17 181.77,-678.84 184,-650 184.14,-648.19 184.29,-646.37 184.44,-644.54"/>
<polygon fill="none" stroke="#63b8ff" points="184.47,-644.27 181.05,-637.92 185.59,-632.32 189.01,-638.67 184.47,-644.27"/>
</a>
</g>
<text text-anchor="middle" x="211.5" y="-708" font-family="Helvetica,sans-Serif" font-size="10.00" fill="grey"> &#45;MBIG</text>
<text text-anchor="middle" x="211.5" y="-697" font-family="Helvetica,sans-Serif" font-size="10.00" fill="grey">&#45;MSEED</text>
<text text-anchor="middle" x="211.5" y="-686" font-family="Helvetica,sans-Serif" font-size="10.00" fill="grey">&#45;MZ</text>
<text text-anchor="middle" x="211.5" y="-675" font-family="Helvetica,sans-Serif" font-size="10.00" fill="grey">&#45;SeedArray</text>
<text text-anchor="middle" x="211.5" y="-664" font-family="Helvetica,sans-Serif" font-size="10.00" fill="grey">&#45;inext</text>
<text text-anchor="middle" x="211.5" y="-653" font-family="Helvetica,sans-Serif" font-size="10.00" fill="grey">&#45;inextp</text>
</g>
<!-- Node5 -->
<g id="Node000005" class="node">
<title>Node5</title>
<g id="a_Node000005"><a xlink:title=" ">
<polygon fill="white" stroke="transparent" points="305,-783 273,-783 273,-734 305,-734 305,-783"/>
<text text-anchor="start" x="278" y="-770.5" font-family="Helvetica,sans-Serif" font-size="10.00">bool</text>
<text text-anchor="start" x="287" y="-755.5" font-family="Helvetica,sans-Serif" font-size="10.00"> </text>
<text text-anchor="start" x="287" y="-740.5" font-family="Helvetica,sans-Serif" font-size="10.00"> </text>
<polygon fill="#666666" stroke="#666666" points="273,-765.5 273,-765.5 305,-765.5 305,-765.5 273,-765.5"/>
<polygon fill="#666666" stroke="#666666" points="273,-750.5 273,-750.5 305,-750.5 305,-750.5 273,-750.5"/>
<polygon fill="none" stroke="#666666" points="273,-734 273,-783 305,-783 305,-734 273,-734"/>
</a>
</g>
</g>
<!-- Node5&#45;&gt;Node1 -->
<g id="edge5_Node000001_Node000005" class="edge">
<title>Node5&#45;&gt;Node1</title>
<g id="a_edge5_Node000001_Node000005"><a xlink:title=" ">
<path fill="none" stroke="#63b8ff" d="M299.18,-733.75C301.17,-728.04 302.97,-721.89 304,-716 309.06,-687.11 304.49,-679.33 304,-650 302.31,-548.41 297.98,-434.9 293.88,-343.4"/>
<polygon fill="none" stroke="#63b8ff" points="293.87,-343.2 289.6,-337.38 293.33,-331.21 297.59,-337.02 293.87,-343.2"/>
</a>
</g>
<text text-anchor="middle" x="342.5" y="-502.5" font-family="Helvetica,sans-Serif" font-size="10.00" fill="grey"> +needsRefresh</text>
</g>
<!-- Node5&#45;&gt;Node3 -->
<g id="edge4_Node000003_Node000005" class="edge">
<title>Node5&#45;&gt;Node3</title>
<g id="a_edge4_Node000003_Node000005"><a xlink:title=" ">
<path fill="none" stroke="#63b8ff" d="M272.81,-735.4C268.87,-729.32 264.95,-722.59 262,-716 255.55,-701.59 247.24,-674.21 238.96,-643.86"/>
<polygon fill="none" stroke="#63b8ff" points="238.92,-643.69 233.5,-638.94 235.8,-632.11 241.22,-636.86 238.92,-643.69"/>
</a>
</g>
<text text-anchor="middle" x="283" y="-680.5" font-family="Helvetica,sans-Serif" font-size="10.00" fill="grey"> +debug</text>
</g>
<!-- Node6 -->
<g id="Node000006" class="node">
<title>Node6</title>
<g id="a_Node000006"><a xlink:title=" ">
<polygon fill="white" stroke="transparent" points="459,-529.5 415,-529.5 415,-480.5 459,-480.5 459,-529.5"/>
<text text-anchor="start" x="420" y="-517" font-family="Helvetica,sans-Serif" font-size="10.00">double</text>
<text text-anchor="start" x="435" y="-502" font-family="Helvetica,sans-Serif" font-size="10.00"> </text>
<text text-anchor="start" x="435" y="-487" font-family="Helvetica,sans-Serif" font-size="10.00"> </text>
<polygon fill="#666666" stroke="#666666" points="415,-512 415,-512 459,-512 459,-512 415,-512"/>
<polygon fill="#666666" stroke="#666666" points="415,-497 415,-497 459,-497 459,-497 415,-497"/>
<polygon fill="none" stroke="#666666" points="415,-480.5 415,-529.5 459,-529.5 459,-480.5 415,-480.5"/>
</a>
</g>
</g>
<!-- Node6&#45;&gt;Node1 -->
<g id="edge6_Node000001_Node000006" class="edge">
<title>Node6&#45;&gt;Node1</title>
<g id="a_edge6_Node000001_Node000006"><a xlink:title=" ">
<path fill="none" stroke="#63b8ff" d="M431.89,-480.25C425.97,-454.51 415.18,-412.51 401,-378 395.83,-365.42 390.1,-352.62 384.04,-339.87"/>
<polygon fill="none" stroke="#63b8ff" points="383.86,-339.49 377.65,-335.83 378.64,-328.68 384.85,-332.35 383.86,-339.49"/>
</a>
</g>
<text text-anchor="middle" x="424.5" y="-352" font-family="Helvetica,sans-Serif" font-size="10.00" fill="grey"> &#45;_totalWeight</text>
</g>
</g>
</svg>

<g id="navigator" transform="translate(0 0)" fill="#404254">
  <rect fill="#f2f5e9" fill-opacity="0.5" stroke="#606060" stroke-width=".5" x="0" y="0" width="60" height="60"/>
  <use id="zoomplus" xlink:href="#zoomPlus" x="17" y="9" onmousedown="handleZoom(evt,'in')"/>
  <use id="zoomminus" xlink:href="#zoomMin" x="42" y="9" onmousedown="handleZoom(evt,'out')"/>
  <use id="reset" xlink:href="#resetDef" x="30" y="36" onmousedown="handleReset()"/>
   <use id="arrowup" xlink:href="#arrowUp" x="0" y="0" onmousedown="handlePan(0,-1)"/>
  <use id="arrowright" xlink:href="#arrowRight" x="0" y="0" onmousedown="handlePan(1,0)"/>
  <use id="arrowdown" xlink:href="#arrowDown" x="0" y="0" onmousedown="handlePan(0,1)"/>
  <use id="arrowleft" xlink:href="#arrowLeft" x="0" y="0" onmousedown="handlePan(-1,0)"/>
</g>
<svg viewBox="0 0 15 15" width="100%" height="30px" preserveAspectRatio="xMaxYMin meet">
 <g id="arrow_out" transform="scale(0.3 0.3)">
  <a xlink:href="classTerraria_1_1Utilities_1_1WeightedRandom__coll__graph_org.svg" target="_base">
   <rect id="button" ry="5" rx="5" y="6" x="6" height="38" width="38"
        fill="#f2f5e9" fill-opacity="0.5" stroke="#606060" stroke-width="1.0"/>
   <path id="arrow"
     d="M 11.500037,31.436501 C 11.940474,20.09759 22.043105,11.32322 32.158766,21.979434 L 37.068811,17.246167 C 37.068811,17.246167 37.088388,32 37.088388,32 L 22.160133,31.978069 C 22.160133,31.978069 26.997745,27.140456 26.997745,27.140456 C 18.528582,18.264221 13.291696,25.230495 11.500037,31.436501 z"
     style="fill:#404040;"/>
  </a>
 </g>
</svg>

<style type='text/css'>
<![CDATA[
[data-mouse-over-selected='false'] { opacity: 0.7; }
[data-mouse-over-selected='true']  { opacity: 1.0; }
]]>
</style>
<script type="application/ecmascript"><![CDATA[
document.addEventListener('DOMContentLoaded', (event) => {
  highlightEdges();
  highlightAdjacentNodes();
});
]]></script>
</svg>
