<?xml version="1.0" encoding="UTF-8" standalone="no"?>
<!DOCTYPE svg PUBLIC "-//W3C//DTD SVG 1.1//EN"
 "http://www.w3.org/Graphics/SVG/1.1/DTD/svg11.dtd">
<!-- Generated by graphviz version 2.43.0 (0)
 -->
<!-- Title: Terraria.Achievements.ConditionsCompletedTracker Pages: 1 -->
<svg width="219pt" height="1178pt"
 viewBox="0.00 0.00 219.00 1178.00" xmlns="http://www.w3.org/2000/svg" xmlns:xlink="http://www.w3.org/1999/xlink">
<g id="graph0" class="graph" transform="scale(1 1) rotate(0) translate(4 1174)">
<title>Terraria.Achievements.ConditionsCompletedTracker</title>
<!-- Node1 -->
<g id="Node000001" class="node">
<title>Node1</title>
<g id="a_Node000001"><a xlink:title=" ">
<polygon fill="#999999" stroke="transparent" points="199.5,-138 11.5,-138 11.5,0 199.5,0 199.5,-138"/>
<text text-anchor="start" x="23" y="-126" font-family="Helvetica,sans-Serif" font-size="10.00">Terraria.Achievements.Conditions</text>
<text text-anchor="start" x="61.5" y="-115" font-family="Helvetica,sans-Serif" font-size="10.00">CompletedTracker</text>
<text text-anchor="start" x="18" y="-100" font-family="Helvetica,sans-Serif" font-size="10.00">&#45;</text>
<text text-anchor="start" x="28.5" y="-100" font-family="Helvetica,sans-Serif" font-size="10.00">List&lt; AchievementCondition</text>
<text text-anchor="start" x="28.5" y="-89" font-family="Helvetica,sans-Serif" font-size="10.00"> &gt; _conditions</text>
<text text-anchor="start" x="15.5" y="-74" font-family="Helvetica,sans-Serif" font-size="10.00">+</text>
<text text-anchor="start" x="28.5" y="-74" font-family="Helvetica,sans-Serif" font-size="10.00">void AddCondition(Achievement</text>
<text text-anchor="start" x="28.5" y="-63" font-family="Helvetica,sans-Serif" font-size="10.00">Condition condition)</text>
<text text-anchor="start" x="15.5" y="-48" font-family="Helvetica,sans-Serif" font-size="10.00">+</text>
<text text-anchor="start" x="28.5" y="-48" font-family="Helvetica,sans-Serif" font-size="10.00">ConditionsCompletedTracker()</text>
<text text-anchor="start" x="15.5" y="-33" font-family="Helvetica,sans-Serif" font-size="10.00">#</text>
<text text-anchor="start" x="28.5" y="-33" font-family="Helvetica,sans-Serif" font-size="10.00">override void Load()</text>
<text text-anchor="start" x="18" y="-18" font-family="Helvetica,sans-Serif" font-size="10.00">&#45;</text>
<text text-anchor="start" x="28.5" y="-18" font-family="Helvetica,sans-Serif" font-size="10.00">void OnConditionCompleted</text>
<text text-anchor="start" x="28.5" y="-7" font-family="Helvetica,sans-Serif" font-size="10.00">(AchievementCondition condition)</text>
<polygon fill="#666666" stroke="#666666" points="11.5,-110 11.5,-110 199.5,-110 199.5,-110 11.5,-110"/>
<polygon fill="#666666" stroke="#666666" points="11.5,-84 11.5,-84 26.5,-84 26.5,-84 11.5,-84"/>
<polygon fill="#666666" stroke="#666666" points="26.5,-84 26.5,-84 199.5,-84 199.5,-84 26.5,-84"/>
<polygon fill="none" stroke="#666666" points="11.5,0 11.5,-138 199.5,-138 199.5,0 11.5,0"/>
</a>
</g>
</g>
<!-- Node2 -->
<g id="Node000002" class="node">
<title>Node2</title>
<g id="a_Node000002"><a xlink:href="../../d8/db5/classTerraria_1_1Achievements_1_1ConditionIntTracker.html" target="_top" xlink:title=" ">
<polygon fill="white" stroke="transparent" points="187.5,-280 23.5,-280 23.5,-175 187.5,-175 187.5,-280"/>
<text text-anchor="start" x="58.5" y="-267.5" font-family="Helvetica,sans-Serif" font-size="10.00">ConditionIntTracker</text>
<text text-anchor="start" x="103.5" y="-252.5" font-family="Helvetica,sans-Serif" font-size="10.00"> </text>
<text text-anchor="start" x="27.5" y="-237.5" font-family="Helvetica,sans-Serif" font-size="10.00">+</text>
<text text-anchor="start" x="40.5" y="-237.5" font-family="Helvetica,sans-Serif" font-size="10.00">ConditionIntTracker()</text>
<text text-anchor="start" x="27.5" y="-222.5" font-family="Helvetica,sans-Serif" font-size="10.00">+</text>
<text text-anchor="start" x="40.5" y="-222.5" font-family="Helvetica,sans-Serif" font-size="10.00">ConditionIntTracker</text>
<text text-anchor="start" x="40.5" y="-211.5" font-family="Helvetica,sans-Serif" font-size="10.00">(int maxValue)</text>
<text text-anchor="start" x="27.5" y="-196.5" font-family="Helvetica,sans-Serif" font-size="10.00">+</text>
<text text-anchor="start" x="40.5" y="-196.5" font-family="Helvetica,sans-Serif" font-size="10.00">override void ReportUpdate()</text>
<text text-anchor="start" x="27.5" y="-181.5" font-family="Helvetica,sans-Serif" font-size="10.00">#</text>
<text text-anchor="start" x="40.5" y="-181.5" font-family="Helvetica,sans-Serif" font-size="10.00">override void Load()</text>
<polygon fill="#666666" stroke="#666666" points="23.5,-262.5 23.5,-262.5 187.5,-262.5 187.5,-262.5 23.5,-262.5"/>
<polygon fill="#666666" stroke="#666666" points="23.5,-247.5 23.5,-247.5 187.5,-247.5 187.5,-247.5 23.5,-247.5"/>
<polygon fill="none" stroke="#666666" points="23.5,-175 23.5,-280 187.5,-280 187.5,-175 23.5,-175"/>
</a>
</g>
</g>
<!-- Node2&#45;&gt;Node1 -->
<g id="edge1_Node000001_Node000002" class="edge">
<title>Node2&#45;&gt;Node1</title>
<g id="a_edge1_Node000001_Node000002"><a xlink:title=" ">
<path fill="none" stroke="#63b8ff" d="M105.5,-164.72C105.5,-155.98 105.5,-146.95 105.5,-138.09"/>
<polygon fill="none" stroke="#63b8ff" points="102,-164.82 105.5,-174.82 109,-164.82 102,-164.82"/>
</a>
</g>
</g>
<!-- Node3 -->
<g id="Node000003" class="node">
<title>Node3</title>
<g id="a_Node000003"><a xlink:href="../../d2/d5f/classTerraria_1_1Achievements_1_1AchievementTracker.html" target="_top" xlink:title=" ">
<polygon fill="white" stroke="transparent" points="211,-649 0,-649 0,-317 211,-317 211,-649"/>
<text text-anchor="start" x="56" y="-637" font-family="Helvetica,sans-Serif" font-size="10.00">AchievementTracker</text>
<text text-anchor="start" x="88" y="-626" font-family="Helvetica,sans-Serif" font-size="10.00">&lt; int &gt;</text>
<text text-anchor="start" x="4.5" y="-611" font-family="Helvetica,sans-Serif" font-size="10.00">+</text>
<text text-anchor="start" x="17.5" y="-611" font-family="Helvetica,sans-Serif" font-size="10.00">T Value</text>
<text text-anchor="start" x="4.5" y="-596" font-family="Helvetica,sans-Serif" font-size="10.00">+</text>
<text text-anchor="start" x="17.5" y="-596" font-family="Helvetica,sans-Serif" font-size="10.00">T MaxValue</text>
<text text-anchor="start" x="4.5" y="-581" font-family="Helvetica,sans-Serif" font-size="10.00">#</text>
<text text-anchor="start" x="17.5" y="-581" font-family="Helvetica,sans-Serif" font-size="10.00">T _value</text>
<text text-anchor="start" x="4.5" y="-566" font-family="Helvetica,sans-Serif" font-size="10.00">#</text>
<text text-anchor="start" x="17.5" y="-566" font-family="Helvetica,sans-Serif" font-size="10.00">T _maxValue</text>
<text text-anchor="start" x="4.5" y="-551" font-family="Helvetica,sans-Serif" font-size="10.00">#</text>
<text text-anchor="start" x="17.5" y="-551" font-family="Helvetica,sans-Serif" font-size="10.00">string _name</text>
<text text-anchor="start" x="7" y="-536" font-family="Helvetica,sans-Serif" font-size="10.00">&#45;</text>
<text text-anchor="start" x="17.5" y="-536" font-family="Helvetica,sans-Serif" font-size="10.00">TrackerType _type</text>
<text text-anchor="start" x="4.5" y="-521" font-family="Helvetica,sans-Serif" font-size="10.00">+</text>
<text text-anchor="start" x="17.5" y="-521" font-family="Helvetica,sans-Serif" font-size="10.00">void SetValue(T newValue,</text>
<text text-anchor="start" x="17.5" y="-510" font-family="Helvetica,sans-Serif" font-size="10.00"> bool reportUpdate=true)</text>
<text text-anchor="start" x="4.5" y="-495" font-family="Helvetica,sans-Serif" font-size="10.00">+</text>
<text text-anchor="start" x="17.5" y="-495" font-family="Helvetica,sans-Serif" font-size="10.00">void ReportUpdate()</text>
<text text-anchor="start" x="4.5" y="-480" font-family="Helvetica,sans-Serif" font-size="10.00">#</text>
<text text-anchor="start" x="17.5" y="-480" font-family="Helvetica,sans-Serif" font-size="10.00">AchievementTracker</text>
<text text-anchor="start" x="17.5" y="-469" font-family="Helvetica,sans-Serif" font-size="10.00">(TrackerType type)</text>
<text text-anchor="start" x="4.5" y="-454" font-family="Helvetica,sans-Serif" font-size="10.00">#</text>
<text text-anchor="start" x="17.5" y="-454" font-family="Helvetica,sans-Serif" font-size="10.00">void Load()</text>
<text text-anchor="start" x="4.5" y="-439" font-family="Helvetica,sans-Serif" font-size="10.00">#</text>
<text text-anchor="start" x="17.5" y="-439" font-family="Helvetica,sans-Serif" font-size="10.00">void OnComplete()</text>
<text text-anchor="start" x="7" y="-424" font-family="Helvetica,sans-Serif" font-size="10.00">&#45;</text>
<text text-anchor="start" x="17.5" y="-424" font-family="Helvetica,sans-Serif" font-size="10.00">void Terraria.Achievements.</text>
<text text-anchor="start" x="17.5" y="-413" font-family="Helvetica,sans-Serif" font-size="10.00">IAchievementTracker. ReportAs</text>
<text text-anchor="start" x="17.5" y="-402" font-family="Helvetica,sans-Serif" font-size="10.00">(string name)</text>
<text text-anchor="start" x="7" y="-387" font-family="Helvetica,sans-Serif" font-size="10.00">&#45;</text>
<text text-anchor="start" x="17.5" y="-387" font-family="Helvetica,sans-Serif" font-size="10.00">TrackerType Terraria.Achievements.</text>
<text text-anchor="start" x="17.5" y="-376" font-family="Helvetica,sans-Serif" font-size="10.00">IAchievementTracker. GetTrackerType()</text>
<text text-anchor="start" x="7" y="-361" font-family="Helvetica,sans-Serif" font-size="10.00">&#45;</text>
<text text-anchor="start" x="17.5" y="-361" font-family="Helvetica,sans-Serif" font-size="10.00">void Terraria.Achievements.</text>
<text text-anchor="start" x="17.5" y="-350" font-family="Helvetica,sans-Serif" font-size="10.00">IAchievementTracker. Clear()</text>
<text text-anchor="start" x="7" y="-335" font-family="Helvetica,sans-Serif" font-size="10.00">&#45;</text>
<text text-anchor="start" x="17.5" y="-335" font-family="Helvetica,sans-Serif" font-size="10.00">void Terraria.Achievements.</text>
<text text-anchor="start" x="17.5" y="-324" font-family="Helvetica,sans-Serif" font-size="10.00">IAchievementTracker. Load()</text>
<polygon fill="#666666" stroke="#666666" points="0.5,-621 0.5,-621 211.5,-621 211.5,-621 0.5,-621"/>
<polygon fill="#666666" stroke="#666666" points="0.5,-531 0.5,-531 15.5,-531 15.5,-531 0.5,-531"/>
<polygon fill="#666666" stroke="#666666" points="15.5,-531 15.5,-531 211.5,-531 211.5,-531 15.5,-531"/>
<polygon fill="none" stroke="#666666" points="0,-317 0,-649 211,-649 211,-317 0,-317"/>
</a>
</g>
</g>
<!-- Node3&#45;&gt;Node2 -->
<g id="edge2_Node000002_Node000003" class="edge">
<title>Node3&#45;&gt;Node2</title>
<g id="a_edge2_Node000002_Node000003"><a xlink:title=" ">
<path fill="none" stroke="#63b8ff" d="M105.5,-306.58C105.5,-297.29 105.5,-288.42 105.5,-280.2"/>
<polygon fill="none" stroke="#63b8ff" points="102,-306.81 105.5,-316.81 109,-306.81 102,-306.81"/>
</a>
</g>
</g>
<!-- Node4 -->
<g id="Node000004" class="node">
<title>Node4</title>
<g id="a_Node000004"><a xlink:href="../../d2/d5f/classTerraria_1_1Achievements_1_1AchievementTracker.html" target="_top" xlink:title=" ">
<polygon fill="white" stroke="transparent" points="211,-1028 0,-1028 0,-696 211,-696 211,-1028"/>
<text text-anchor="start" x="17" y="-1016" font-family="Helvetica,sans-Serif" font-size="10.00">Terraria.Achievements.Achievement</text>
<text text-anchor="start" x="74" y="-1005" font-family="Helvetica,sans-Serif" font-size="10.00">Tracker&lt; T &gt;</text>
<text text-anchor="start" x="4.5" y="-990" font-family="Helvetica,sans-Serif" font-size="10.00">+</text>
<text text-anchor="start" x="17.5" y="-990" font-family="Helvetica,sans-Serif" font-size="10.00">T Value</text>
<text text-anchor="start" x="4.5" y="-975" font-family="Helvetica,sans-Serif" font-size="10.00">+</text>
<text text-anchor="start" x="17.5" y="-975" font-family="Helvetica,sans-Serif" font-size="10.00">T MaxValue</text>
<text text-anchor="start" x="4.5" y="-960" font-family="Helvetica,sans-Serif" font-size="10.00">#</text>
<text text-anchor="start" x="17.5" y="-960" font-family="Helvetica,sans-Serif" font-size="10.00">T _value</text>
<text text-anchor="start" x="4.5" y="-945" font-family="Helvetica,sans-Serif" font-size="10.00">#</text>
<text text-anchor="start" x="17.5" y="-945" font-family="Helvetica,sans-Serif" font-size="10.00">T _maxValue</text>
<text text-anchor="start" x="4.5" y="-930" font-family="Helvetica,sans-Serif" font-size="10.00">#</text>
<text text-anchor="start" x="17.5" y="-930" font-family="Helvetica,sans-Serif" font-size="10.00">string _name</text>
<text text-anchor="start" x="7" y="-915" font-family="Helvetica,sans-Serif" font-size="10.00">&#45;</text>
<text text-anchor="start" x="17.5" y="-915" font-family="Helvetica,sans-Serif" font-size="10.00">TrackerType _type</text>
<text text-anchor="start" x="4.5" y="-900" font-family="Helvetica,sans-Serif" font-size="10.00">+</text>
<text text-anchor="start" x="17.5" y="-900" font-family="Helvetica,sans-Serif" font-size="10.00">void SetValue(T newValue,</text>
<text text-anchor="start" x="17.5" y="-889" font-family="Helvetica,sans-Serif" font-size="10.00"> bool reportUpdate=true)</text>
<text text-anchor="start" x="4.5" y="-874" font-family="Helvetica,sans-Serif" font-size="10.00">+</text>
<text text-anchor="start" x="17.5" y="-874" font-family="Helvetica,sans-Serif" font-size="10.00">void ReportUpdate()</text>
<text text-anchor="start" x="4.5" y="-859" font-family="Helvetica,sans-Serif" font-size="10.00">#</text>
<text text-anchor="start" x="17.5" y="-859" font-family="Helvetica,sans-Serif" font-size="10.00">AchievementTracker</text>
<text text-anchor="start" x="17.5" y="-848" font-family="Helvetica,sans-Serif" font-size="10.00">(TrackerType type)</text>
<text text-anchor="start" x="4.5" y="-833" font-family="Helvetica,sans-Serif" font-size="10.00">#</text>
<text text-anchor="start" x="17.5" y="-833" font-family="Helvetica,sans-Serif" font-size="10.00">void Load()</text>
<text text-anchor="start" x="4.5" y="-818" font-family="Helvetica,sans-Serif" font-size="10.00">#</text>
<text text-anchor="start" x="17.5" y="-818" font-family="Helvetica,sans-Serif" font-size="10.00">void OnComplete()</text>
<text text-anchor="start" x="7" y="-803" font-family="Helvetica,sans-Serif" font-size="10.00">&#45;</text>
<text text-anchor="start" x="17.5" y="-803" font-family="Helvetica,sans-Serif" font-size="10.00">void Terraria.Achievements.</text>
<text text-anchor="start" x="17.5" y="-792" font-family="Helvetica,sans-Serif" font-size="10.00">IAchievementTracker. ReportAs</text>
<text text-anchor="start" x="17.5" y="-781" font-family="Helvetica,sans-Serif" font-size="10.00">(string name)</text>
<text text-anchor="start" x="7" y="-766" font-family="Helvetica,sans-Serif" font-size="10.00">&#45;</text>
<text text-anchor="start" x="17.5" y="-766" font-family="Helvetica,sans-Serif" font-size="10.00">TrackerType Terraria.Achievements.</text>
<text text-anchor="start" x="17.5" y="-755" font-family="Helvetica,sans-Serif" font-size="10.00">IAchievementTracker. GetTrackerType()</text>
<text text-anchor="start" x="7" y="-740" font-family="Helvetica,sans-Serif" font-size="10.00">&#45;</text>
<text text-anchor="start" x="17.5" y="-740" font-family="Helvetica,sans-Serif" font-size="10.00">void Terraria.Achievements.</text>
<text text-anchor="start" x="17.5" y="-729" font-family="Helvetica,sans-Serif" font-size="10.00">IAchievementTracker. Clear()</text>
<text text-anchor="start" x="7" y="-714" font-family="Helvetica,sans-Serif" font-size="10.00">&#45;</text>
<text text-anchor="start" x="17.5" y="-714" font-family="Helvetica,sans-Serif" font-size="10.00">void Terraria.Achievements.</text>
<text text-anchor="start" x="17.5" y="-703" font-family="Helvetica,sans-Serif" font-size="10.00">IAchievementTracker. Load()</text>
<polygon fill="#666666" stroke="#666666" points="0.5,-1000 0.5,-1000 211.5,-1000 211.5,-1000 0.5,-1000"/>
<polygon fill="#666666" stroke="#666666" points="0.5,-910 0.5,-910 15.5,-910 15.5,-910 0.5,-910"/>
<polygon fill="#666666" stroke="#666666" points="15.5,-910 15.5,-910 211.5,-910 211.5,-910 15.5,-910"/>
<polygon fill="none" stroke="#666666" points="0,-696 0,-1028 211,-1028 211,-696 0,-696"/>
</a>
</g>
</g>
<!-- Node4&#45;&gt;Node3 -->
<g id="edge3_Node000003_Node000004" class="edge">
<title>Node4&#45;&gt;Node3</title>
<g id="a_edge3_Node000003_Node000004"><a xlink:title=" ">
<path fill="none" stroke="orange" d="M105.5,-685.69C105.5,-673.49 105.5,-661.22 105.5,-649.07"/>
<polygon fill="orange" stroke="orange" points="102,-685.92 105.5,-695.92 109,-685.92 102,-685.92"/>
</a>
</g>
<text text-anchor="middle" x="125" y="-670" font-family="Helvetica,sans-Serif" font-size="10.00" fill="grey"> &lt; int &gt;</text>
</g>
<!-- Node5 -->
<g id="Node000005" class="node">
<title>Node5</title>
<g id="a_Node000005"><a xlink:href="../../d2/d17/interfaceTerraria_1_1Achievements_1_1IAchievementTracker.html" target="_top" xlink:title=" ">
<polygon fill="white" stroke="transparent" points="187,-1170 24,-1170 24,-1065 187,-1065 187,-1170"/>
<text text-anchor="start" x="54.5" y="-1157.5" font-family="Helvetica,sans-Serif" font-size="10.00">IAchievementTracker</text>
<text text-anchor="start" x="104" y="-1142.5" font-family="Helvetica,sans-Serif" font-size="10.00"> </text>
<text text-anchor="start" x="28.5" y="-1127.5" font-family="Helvetica,sans-Serif" font-size="10.00">+</text>
<text text-anchor="start" x="41.5" y="-1127.5" font-family="Helvetica,sans-Serif" font-size="10.00">void ReportAs(string</text>
<text text-anchor="start" x="41.5" y="-1116.5" font-family="Helvetica,sans-Serif" font-size="10.00"> name)</text>
<text text-anchor="start" x="28.5" y="-1101.5" font-family="Helvetica,sans-Serif" font-size="10.00">+</text>
<text text-anchor="start" x="41.5" y="-1101.5" font-family="Helvetica,sans-Serif" font-size="10.00">TrackerType GetTrackerType()</text>
<text text-anchor="start" x="28.5" y="-1086.5" font-family="Helvetica,sans-Serif" font-size="10.00">+</text>
<text text-anchor="start" x="41.5" y="-1086.5" font-family="Helvetica,sans-Serif" font-size="10.00">void Load()</text>
<text text-anchor="start" x="28.5" y="-1071.5" font-family="Helvetica,sans-Serif" font-size="10.00">+</text>
<text text-anchor="start" x="41.5" y="-1071.5" font-family="Helvetica,sans-Serif" font-size="10.00">void Clear()</text>
<polygon fill="#666666" stroke="#666666" points="24.5,-1152.5 24.5,-1152.5 187.5,-1152.5 187.5,-1152.5 24.5,-1152.5"/>
<polygon fill="#666666" stroke="#666666" points="24.5,-1137.5 24.5,-1137.5 187.5,-1137.5 187.5,-1137.5 24.5,-1137.5"/>
<polygon fill="none" stroke="#666666" points="24,-1065 24,-1170 187,-1170 187,-1065 24,-1065"/>
</a>
</g>
</g>
<!-- Node5&#45;&gt;Node4 -->
<g id="edge4_Node000004_Node000005" class="edge">
<title>Node5&#45;&gt;Node4</title>
<g id="a_edge4_Node000004_Node000005"><a xlink:title=" ">
<path fill="none" stroke="#63b8ff" d="M105.5,-1054.87C105.5,-1046.43 105.5,-1037.46 105.5,-1028.18"/>
<polygon fill="none" stroke="#63b8ff" points="102,-1054.89 105.5,-1064.89 109,-1054.89 102,-1054.89"/>
</a>
</g>
</g>
</g>
</svg>
