<?xml version="1.0" encoding="UTF-8" standalone="no"?>
<!DOCTYPE svg PUBLIC "-//W3C//DTD SVG 1.1//EN"
 "http://www.w3.org/Graphics/SVG/1.1/DTD/svg11.dtd">
<!-- Generated by graphviz version 2.43.0 (0)
 -->
<!-- Title: GUIControllerSaveSynchronisation_FileListWorld Pages: 1 -->
<svg width="198pt" height="328pt"
 viewBox="0.00 0.00 198.00 328.00" xmlns="http://www.w3.org/2000/svg" xmlns:xlink="http://www.w3.org/1999/xlink">
<g id="graph0" class="graph" transform="scale(1 1) rotate(0) translate(4 324)">
<title>GUIControllerSaveSynchronisation_FileListWorld</title>
<!-- Node1 -->
<g id="Node000001" class="node">
<title>Node1</title>
<g id="a_Node000001"><a xlink:title=" ">
<polygon fill="#999999" stroke="transparent" points="190,-168 0,-168 0,0 190,0 190,-168"/>
<text text-anchor="start" x="10.5" y="-156" font-family="Helvetica,sans-Serif" font-size="10.00">GUIControllerSaveSynchronisation</text>
<text text-anchor="start" x="61" y="-145" font-family="Helvetica,sans-Serif" font-size="10.00">_FileListWorld</text>
<text text-anchor="start" x="93" y="-130" font-family="Helvetica,sans-Serif" font-size="10.00"> </text>
<text text-anchor="start" x="4" y="-115" font-family="Helvetica,sans-Serif" font-size="10.00">+</text>
<text text-anchor="start" x="17" y="-115" font-family="Helvetica,sans-Serif" font-size="10.00">void Activate()</text>
<text text-anchor="start" x="4" y="-100" font-family="Helvetica,sans-Serif" font-size="10.00">+</text>
<text text-anchor="start" x="17" y="-100" font-family="Helvetica,sans-Serif" font-size="10.00">int GetNavigationOutDirs()</text>
<text text-anchor="start" x="4" y="-85" font-family="Helvetica,sans-Serif" font-size="10.00">+</text>
<text text-anchor="start" x="17" y="-85" font-family="Helvetica,sans-Serif" font-size="10.00">GUIControllerItem Navigate</text>
<text text-anchor="start" x="17" y="-74" font-family="Helvetica,sans-Serif" font-size="10.00">(Vector2 navigationVector)</text>
<text text-anchor="start" x="4" y="-59" font-family="Helvetica,sans-Serif" font-size="10.00">+</text>
<text text-anchor="start" x="17" y="-59" font-family="Helvetica,sans-Serif" font-size="10.00">Rectangle GetSelectedItem</text>
<text text-anchor="start" x="17" y="-48" font-family="Helvetica,sans-Serif" font-size="10.00">Region()</text>
<text text-anchor="start" x="4" y="-33" font-family="Helvetica,sans-Serif" font-size="10.00">+</text>
<text text-anchor="start" x="17" y="-33" font-family="Helvetica,sans-Serif" font-size="10.00">GUIControllerSaveSynchronisation</text>
<text text-anchor="start" x="17" y="-22" font-family="Helvetica,sans-Serif" font-size="10.00">_FileListWorld()</text>
<text text-anchor="start" x="6.5" y="-7" font-family="Helvetica,sans-Serif" font-size="10.00">&#45;</text>
<text text-anchor="start" x="17" y="-7" font-family="Helvetica,sans-Serif" font-size="10.00">void UpdateScroll()</text>
<polygon fill="#666666" stroke="#666666" points="0,-140 0,-140 190,-140 190,-140 0,-140"/>
<polygon fill="#666666" stroke="#666666" points="0,-125 0,-125 190,-125 190,-125 0,-125"/>
<polygon fill="none" stroke="#666666" points="0,0 0,-168 190,-168 190,0 0,0"/>
</a>
</g>
</g>
<!-- Node2 -->
<g id="Node000002" class="node">
<title>Node2</title>
<g id="a_Node000002"><a xlink:href="../../d1/d1a/interfaceGUIControllerItem.html" target="_top" xlink:title=" ">
<polygon fill="white" stroke="transparent" points="173.5,-320 16.5,-320 16.5,-204 173.5,-204 173.5,-320"/>
<text text-anchor="start" x="51" y="-308" font-family="Helvetica,sans-Serif" font-size="10.00">GUIControllerItem</text>
<text text-anchor="start" x="93.5" y="-293" font-family="Helvetica,sans-Serif" font-size="10.00"> </text>
<text text-anchor="start" x="21" y="-278" font-family="Helvetica,sans-Serif" font-size="10.00">+</text>
<text text-anchor="start" x="34" y="-278" font-family="Helvetica,sans-Serif" font-size="10.00">void Activate()</text>
<text text-anchor="start" x="21" y="-263" font-family="Helvetica,sans-Serif" font-size="10.00">+</text>
<text text-anchor="start" x="34" y="-263" font-family="Helvetica,sans-Serif" font-size="10.00">GUIControllerItem Navigate</text>
<text text-anchor="start" x="34" y="-252" font-family="Helvetica,sans-Serif" font-size="10.00">(Vector2 navigationVector)</text>
<text text-anchor="start" x="21" y="-237" font-family="Helvetica,sans-Serif" font-size="10.00">+</text>
<text text-anchor="start" x="34" y="-237" font-family="Helvetica,sans-Serif" font-size="10.00">Rectangle GetSelectedItem</text>
<text text-anchor="start" x="34" y="-226" font-family="Helvetica,sans-Serif" font-size="10.00">Region()</text>
<text text-anchor="start" x="21" y="-211" font-family="Helvetica,sans-Serif" font-size="10.00">+</text>
<text text-anchor="start" x="34" y="-211" font-family="Helvetica,sans-Serif" font-size="10.00">int GetNavigationOutDirs()</text>
<polygon fill="#666666" stroke="#666666" points="17,-303 17,-303 174,-303 174,-303 17,-303"/>
<polygon fill="#666666" stroke="#666666" points="17,-288 17,-288 174,-288 174,-288 17,-288"/>
<polygon fill="none" stroke="#666666" points="16.5,-204 16.5,-320 173.5,-320 173.5,-204 16.5,-204"/>
</a>
</g>
</g>
<!-- Node2&#45;&gt;Node1 -->
<g id="edge1_Node000001_Node000002" class="edge">
<title>Node2&#45;&gt;Node1</title>
<g id="a_edge1_Node000001_Node000002"><a xlink:title=" ">
<path fill="none" stroke="#63b8ff" d="M95,-193.76C95,-185.35 95,-176.67 95,-168.06"/>
<polygon fill="none" stroke="#63b8ff" points="91.5,-193.86 95,-203.86 98.5,-193.86 91.5,-193.86"/>
</a>
</g>
</g>
</g>
</svg>
