<?xml version="1.0" encoding="UTF-8" standalone="no"?>
<!DOCTYPE svg PUBLIC "-//W3C//DTD SVG 1.1//EN"
 "http://www.w3.org/Graphics/SVG/1.1/DTD/svg11.dtd">
<!-- Generated by graphviz version 2.43.0 (0)
 -->
<!-- Title: System.Threading.LockRecursionException Pages: 1 -->
<svg width="315pt" height="227pt"
 viewBox="0.00 0.00 315.00 227.00" xmlns="http://www.w3.org/2000/svg" xmlns:xlink="http://www.w3.org/1999/xlink">

<svg id="main" version="1.1" xmlns="http://www.w3.org/2000/svg" xmlns:xlink="http://www.w3.org/1999/xlink" xml:space="preserve" onload="init(evt)">
<style type="text/css"><![CDATA[
.node, .edge {opacity: 0.7;}
.node.selected, .edge.selected {opacity: 1;}
.edge:hover path { stroke: red; }
.edge:hover polygon { stroke: red; fill: red; }
]]></style>
<script type="application/ecmascript" xlink:href="../../svg.min.js"/>
<svg id="graph" class="graph">
<g id="graph0" class="graph" transform="scale(1 1) rotate(0) translate(4 223)">
<title>System.Threading.LockRecursionException</title>
<!-- Node1 -->
<g id="Node000001" class="node">
<title>Node1</title>
<g id="a_Node000001"><a xlink:title=" ">
<polygon fill="#999999" stroke="transparent" points="307,-134 0,-134 0,0 307,0 307,-134"/>
<text text-anchor="start" x="72.5" y="-122" font-family="Helvetica,sans-Serif" font-size="10.00">System.Threading.LockRecursion</text>
<text text-anchor="start" x="129.5" y="-111" font-family="Helvetica,sans-Serif" font-size="10.00">Exception</text>
<text text-anchor="start" x="152" y="-96" font-family="Helvetica,sans-Serif" font-size="10.00"> </text>
<text text-anchor="start" x="4.5" y="-81" font-family="Helvetica,sans-Serif" font-size="10.00">+</text>
<text text-anchor="start" x="17.5" y="-81" font-family="Helvetica,sans-Serif" font-size="10.00">LockRecursionException()</text>
<text text-anchor="start" x="4.5" y="-66" font-family="Helvetica,sans-Serif" font-size="10.00">+</text>
<text text-anchor="start" x="17.5" y="-66" font-family="Helvetica,sans-Serif" font-size="10.00">LockRecursionException</text>
<text text-anchor="start" x="17.5" y="-55" font-family="Helvetica,sans-Serif" font-size="10.00">(string message)</text>
<text text-anchor="start" x="4.5" y="-40" font-family="Helvetica,sans-Serif" font-size="10.00">#</text>
<text text-anchor="start" x="17.5" y="-40" font-family="Helvetica,sans-Serif" font-size="10.00">LockRecursionException</text>
<text text-anchor="start" x="17.5" y="-29" font-family="Helvetica,sans-Serif" font-size="10.00">(global::System.Runtime.Serialization.</text>
<text text-anchor="start" x="17.5" y="-18" font-family="Helvetica,sans-Serif" font-size="10.00">SerializationInfo info, global</text>
<text text-anchor="start" x="17.5" y="-7" font-family="Helvetica,sans-Serif" font-size="10.00">::System.Runtime.Serialization.StreamingContext context)</text>
<polygon fill="#666666" stroke="#666666" points="0.5,-106 0.5,-106 307.5,-106 307.5,-106 0.5,-106"/>
<polygon fill="#666666" stroke="#666666" points="0.5,-91 0.5,-91 307.5,-91 307.5,-91 0.5,-91"/>
<polygon fill="none" stroke="#666666" points="0,0 0,-134 307,-134 307,0 0,0"/>
</a>
</g>
</g>
<!-- Node2 -->
<g id="Node000002" class="node">
<title>Node2</title>
<g id="a_Node000002"><a xlink:title=" ">
<polygon fill="white" stroke="transparent" points="219,-219 88,-219 88,-170 219,-170 219,-219"/>
<text text-anchor="start" x="93.5" y="-206.5" font-family="Helvetica,sans-Serif" font-size="10.00">global::SystemException</text>
<text text-anchor="start" x="152" y="-191.5" font-family="Helvetica,sans-Serif" font-size="10.00"> </text>
<text text-anchor="start" x="152" y="-176.5" font-family="Helvetica,sans-Serif" font-size="10.00"> </text>
<polygon fill="#666666" stroke="#666666" points="88.5,-201.5 88.5,-201.5 219.5,-201.5 219.5,-201.5 88.5,-201.5"/>
<polygon fill="#666666" stroke="#666666" points="88.5,-186.5 88.5,-186.5 219.5,-186.5 219.5,-186.5 88.5,-186.5"/>
<polygon fill="none" stroke="#666666" points="88,-170 88,-219 219,-219 219,-170 88,-170"/>
</a>
</g>
</g>
<!-- Node2&#45;&gt;Node1 -->
<g id="edge1_Node000001_Node000002" class="edge">
<title>Node2&#45;&gt;Node1</title>
<g id="a_edge1_Node000001_Node000002"><a xlink:title=" ">
<path fill="none" stroke="#63b8ff" d="M153.5,-159.89C153.5,-151.88 153.5,-143.05 153.5,-134.14"/>
<polygon fill="none" stroke="#63b8ff" points="150,-159.89 153.5,-169.89 157,-159.89 150,-159.89"/>
</a>
</g>
</g>
</g>
</svg>
</svg>

<style type='text/css'>
<![CDATA[
[data-mouse-over-selected='false'] { opacity: 0.7; }
[data-mouse-over-selected='true']  { opacity: 1.0; }
]]>
</style>
<script type="application/ecmascript"><![CDATA[
document.addEventListener('DOMContentLoaded', (event) => {
  highlightEdges();
  highlightAdjacentNodes();
});
]]></script>
</svg>
