<?xml version="1.0" encoding="UTF-8" standalone="no"?>
<!DOCTYPE svg PUBLIC "-//W3C//DTD SVG 1.1//EN"
 "http://www.w3.org/Graphics/SVG/1.1/DTD/svg11.dtd">
<!-- Generated by graphviz version 2.43.0 (0)
 -->
<!-- Title: System.Net.WriteStreamClosedEventArgs Pages: 1 -->
<svg width="181pt" height="179pt"
 viewBox="0.00 0.00 181.00 179.00" xmlns="http://www.w3.org/2000/svg" xmlns:xlink="http://www.w3.org/1999/xlink">
<g id="graph0" class="graph" transform="scale(1 1) rotate(0) translate(4 175)">
<title>System.Net.WriteStreamClosedEventArgs</title>
<!-- Node1 -->
<g id="Node000001" class="node">
<title>Node1</title>
<g id="a_Node000001"><a xlink:title=" ">
<polygon fill="#999999" stroke="transparent" points="173,-60 0,-60 0,0 173,0 173,-60"/>
<text text-anchor="start" x="9.5" y="-48" font-family="Helvetica,sans-Serif" font-size="10.00">System.Net.WriteStreamClosed</text>
<text text-anchor="start" x="62" y="-37" font-family="Helvetica,sans-Serif" font-size="10.00">EventArgs</text>
<text text-anchor="start" x="4.5" y="-22" font-family="Helvetica,sans-Serif" font-size="10.00">+</text>
<text text-anchor="start" x="17.5" y="-22" font-family="Helvetica,sans-Serif" font-size="10.00">Exception Error</text>
<text text-anchor="start" x="4.5" y="-7" font-family="Helvetica,sans-Serif" font-size="10.00">+</text>
<text text-anchor="start" x="17.5" y="-7" font-family="Helvetica,sans-Serif" font-size="10.00">WriteStreamClosedEventArgs()</text>
<polygon fill="#666666" stroke="#666666" points="0.5,-32 0.5,-32 173.5,-32 173.5,-32 0.5,-32"/>
<polygon fill="#666666" stroke="#666666" points="0.5,-17 0.5,-17 15.5,-17 15.5,-17 0.5,-17"/>
<polygon fill="#666666" stroke="#666666" points="15.5,-17 15.5,-17 173.5,-17 173.5,-17 15.5,-17"/>
<polygon fill="none" stroke="#666666" points="0,0 0,-60 173,-60 173,0 0,0"/>
</a>
</g>
</g>
<!-- Node2 -->
<g id="Node000002" class="node">
<title>Node2</title>
<g id="a_Node000002"><a xlink:href="../../d2/d76/classSystem_1_1EventArgs.html" target="_top" xlink:title=" ">
<polygon fill="white" stroke="transparent" points="162,-171 11,-171 11,-96 162,-96 162,-171"/>
<text text-anchor="start" x="62" y="-158.5" font-family="Helvetica,sans-Serif" font-size="10.00">EventArgs</text>
<text text-anchor="start" x="15.5" y="-143.5" font-family="Helvetica,sans-Serif" font-size="10.00">+</text>
<text text-anchor="start" x="28.5" y="-143.5" font-family="Helvetica,sans-Serif" font-size="10.00">static readonly global</text>
<text text-anchor="start" x="28.5" y="-132.5" font-family="Helvetica,sans-Serif" font-size="10.00">::System.EventArgs Empty</text>
<text text-anchor="start" x="15.5" y="-117.5" font-family="Helvetica,sans-Serif" font-size="10.00">+</text>
<text text-anchor="start" x="28.5" y="-117.5" font-family="Helvetica,sans-Serif" font-size="10.00">EventArgs()</text>
<text text-anchor="start" x="18" y="-102.5" font-family="Helvetica,sans-Serif" font-size="10.00">&#45;</text>
<text text-anchor="start" x="28.5" y="-102.5" font-family="Helvetica,sans-Serif" font-size="10.00">static EventArgs()</text>
<polygon fill="#666666" stroke="#666666" points="11.5,-153.5 11.5,-153.5 162.5,-153.5 162.5,-153.5 11.5,-153.5"/>
<polygon fill="#666666" stroke="#666666" points="11.5,-127.5 11.5,-127.5 26.5,-127.5 26.5,-127.5 11.5,-127.5"/>
<polygon fill="#666666" stroke="#666666" points="26.5,-127.5 26.5,-127.5 162.5,-127.5 162.5,-127.5 26.5,-127.5"/>
<polygon fill="none" stroke="#666666" points="11,-96 11,-171 162,-171 162,-96 11,-96"/>
</a>
</g>
</g>
<!-- Node2&#45;&gt;Node1 -->
<g id="edge1_Node000001_Node000002" class="edge">
<title>Node2&#45;&gt;Node1</title>
<g id="a_edge1_Node000001_Node000002"><a xlink:title=" ">
<path fill="none" stroke="#63b8ff" d="M86.5,-85.79C86.5,-77.1 86.5,-68.25 86.5,-60.27"/>
<polygon fill="none" stroke="#63b8ff" points="83,-85.86 86.5,-95.86 90,-85.86 83,-85.86"/>
</a>
</g>
</g>
</g>
</svg>
