<?xml version="1.0" encoding="UTF-8" standalone="no"?>
<!DOCTYPE svg PUBLIC "-//W3C//DTD SVG 1.1//EN"
 "http://www.w3.org/Graphics/SVG/1.1/DTD/svg11.dtd">
<!-- Generated by graphviz version 2.43.0 (0)
 -->
<!-- Title: System.LocalDataStoreElement Pages: 1 -->
<svg width="173pt" height="179pt"
 viewBox="0.00 0.00 173.00 179.00" xmlns="http://www.w3.org/2000/svg" xmlns:xlink="http://www.w3.org/1999/xlink">
<g id="graph0" class="graph" transform="scale(1 1) rotate(0) translate(4 175)">
<title>System.LocalDataStoreElement</title>
<!-- Node1 -->
<g id="Node000001" class="node">
<title>Node1</title>
<g id="a_Node000001"><a xlink:title=" ">
<polygon fill="#999999" stroke="transparent" points="165,-75 0,-75 0,0 165,0 165,-75"/>
<text text-anchor="start" x="5.5" y="-62.5" font-family="Helvetica,sans-Serif" font-size="10.00">System.LocalDataStoreElement</text>
<text text-anchor="start" x="11.5" y="-47.5" font-family="Helvetica,sans-Serif" font-size="10.00">+</text>
<text text-anchor="start" x="31.5" y="-47.5" font-family="Helvetica,sans-Serif" font-size="10.00">object Value</text>
<text text-anchor="start" x="11.5" y="-32.5" font-family="Helvetica,sans-Serif" font-size="10.00">+</text>
<text text-anchor="start" x="31.5" y="-32.5" font-family="Helvetica,sans-Serif" font-size="10.00">long Cookie</text>
<text text-anchor="start" x="11.5" y="-17.5" font-family="Helvetica,sans-Serif" font-size="10.00">+</text>
<text text-anchor="start" x="31.5" y="-17.5" font-family="Helvetica,sans-Serif" font-size="10.00">LocalDataStoreElement</text>
<text text-anchor="start" x="31.5" y="-6.5" font-family="Helvetica,sans-Serif" font-size="10.00">(long cookie)</text>
<polygon fill="#666666" stroke="#666666" points="0.5,-57.5 0.5,-57.5 165.5,-57.5 165.5,-57.5 0.5,-57.5"/>
<polygon fill="#666666" stroke="#666666" points="0.5,-27.5 0.5,-27.5 29.5,-27.5 29.5,-27.5 0.5,-27.5"/>
<polygon fill="#666666" stroke="#666666" points="29.5,-27.5 29.5,-27.5 165.5,-27.5 165.5,-27.5 29.5,-27.5"/>
<polygon fill="none" stroke="#666666" points="0,0 0,-75 165,-75 165,0 0,0"/>
</a>
</g>
</g>
<!-- Node2 -->
<g id="Node000002" class="node">
<title>Node2</title>
<g id="a_Node000002"><a xlink:title=" ">
<polygon fill="white" stroke="transparent" points="67,-171 26,-171 26,-122 67,-122 67,-171"/>
<text text-anchor="start" x="31.5" y="-158.5" font-family="Helvetica,sans-Serif" font-size="10.00">object</text>
<text text-anchor="start" x="45" y="-143.5" font-family="Helvetica,sans-Serif" font-size="10.00"> </text>
<text text-anchor="start" x="45" y="-128.5" font-family="Helvetica,sans-Serif" font-size="10.00"> </text>
<polygon fill="#666666" stroke="#666666" points="26.5,-153.5 26.5,-153.5 67.5,-153.5 67.5,-153.5 26.5,-153.5"/>
<polygon fill="#666666" stroke="#666666" points="26.5,-138.5 26.5,-138.5 67.5,-138.5 67.5,-138.5 26.5,-138.5"/>
<polygon fill="none" stroke="#666666" points="26,-122 26,-171 67,-171 67,-122 26,-122"/>
</a>
</g>
</g>
<!-- Node2&#45;&gt;Node1 -->
<g id="edge1_Node000001_Node000002" class="edge">
<title>Node2&#45;&gt;Node1</title>
<g id="a_edge1_Node000001_Node000002"><a xlink:title=" ">
<path fill="none" stroke="#63b8ff" d="M44.23,-121.81C44.05,-112.64 44.72,-102.16 47.5,-93 48.19,-90.74 49,-88.49 49.9,-86.25"/>
<polygon fill="none" stroke="#63b8ff" points="49.97,-86.11 48.95,-78.97 55.14,-75.28 56.16,-82.42 49.97,-86.11"/>
</a>
</g>
<text text-anchor="middle" x="72" y="-96" font-family="Helvetica,sans-Serif" font-size="10.00" fill="grey"> &#45;m_value</text>
</g>
<!-- Node3 -->
<g id="Node000003" class="node">
<title>Node3</title>
<g id="a_Node000003"><a xlink:title=" ">
<polygon fill="white" stroke="transparent" points="134.5,-171 102.5,-171 102.5,-122 134.5,-122 134.5,-171"/>
<text text-anchor="start" x="107.5" y="-158.5" font-family="Helvetica,sans-Serif" font-size="10.00">long</text>
<text text-anchor="start" x="116.5" y="-143.5" font-family="Helvetica,sans-Serif" font-size="10.00"> </text>
<text text-anchor="start" x="116.5" y="-128.5" font-family="Helvetica,sans-Serif" font-size="10.00"> </text>
<polygon fill="#666666" stroke="#666666" points="102.5,-153.5 102.5,-153.5 134.5,-153.5 134.5,-153.5 102.5,-153.5"/>
<polygon fill="#666666" stroke="#666666" points="102.5,-138.5 102.5,-138.5 134.5,-138.5 134.5,-138.5 102.5,-138.5"/>
<polygon fill="none" stroke="#666666" points="102.5,-122 102.5,-171 134.5,-171 134.5,-122 102.5,-122"/>
</a>
</g>
</g>
<!-- Node3&#45;&gt;Node1 -->
<g id="edge2_Node000001_Node000003" class="edge">
<title>Node3&#45;&gt;Node1</title>
<g id="a_edge2_Node000001_Node000003"><a xlink:title=" ">
<path fill="none" stroke="#63b8ff" d="M110.51,-121.75C107.03,-111.4 102.81,-98.86 98.71,-86.69"/>
<polygon fill="none" stroke="#63b8ff" points="98.68,-86.59 92.98,-82.18 94.85,-75.22 100.56,-79.63 98.68,-86.59"/>
</a>
</g>
<text text-anchor="middle" x="131" y="-96" font-family="Helvetica,sans-Serif" font-size="10.00" fill="grey"> &#45;m_cookie</text>
</g>
</g>
</svg>
