<?xml version="1.0" encoding="UTF-8" standalone="no"?>
<!DOCTYPE svg PUBLIC "-//W3C//DTD SVG 1.1//EN"
 "http://www.w3.org/Graphics/SVG/1.1/DTD/svg11.dtd">
<!-- Generated by graphviz version 2.43.0 (0)
 -->
<!-- Title: GUIControllerChest4Page Pages: 1 -->
<svg width="221pt" height="1004pt"
 viewBox="0.00 0.00 221.00 1004.00" xmlns="http://www.w3.org/2000/svg" xmlns:xlink="http://www.w3.org/1999/xlink">
<g id="graph0" class="graph" transform="scale(1 1) rotate(0) translate(4 1000)">
<title>GUIControllerChest4Page</title>
<!-- Node1 -->
<g id="Node000001" class="node">
<title>Node1</title>
<g id="a_Node000001"><a xlink:title=" ">
<polygon fill="#999999" stroke="transparent" points="206,-280 7,-280 7,0 206,0 206,-280"/>
<text text-anchor="start" x="45" y="-268" font-family="Helvetica,sans-Serif" font-size="10.00">GUIControllerChest4Page</text>
<text text-anchor="start" x="11.5" y="-253" font-family="Helvetica,sans-Serif" font-size="10.00">+</text>
<text text-anchor="start" x="24.5" y="-253" font-family="Helvetica,sans-Serif" font-size="10.00">GUIControllerStaticGridNavigator</text>
<text text-anchor="start" x="24.5" y="-242" font-family="Helvetica,sans-Serif" font-size="10.00"> GridNav</text>
<text text-anchor="start" x="14" y="-227" font-family="Helvetica,sans-Serif" font-size="10.00">&#45;</text>
<text text-anchor="start" x="24.5" y="-227" font-family="Helvetica,sans-Serif" font-size="10.00">GUIControllerStaticGridNavigator</text>
<text text-anchor="start" x="24.5" y="-216" font-family="Helvetica,sans-Serif" font-size="10.00"> _gridNav</text>
<text text-anchor="start" x="11.5" y="-201" font-family="Helvetica,sans-Serif" font-size="10.00">+</text>
<text text-anchor="start" x="24.5" y="-201" font-family="Helvetica,sans-Serif" font-size="10.00">override bool IsInMenu()</text>
<text text-anchor="start" x="11.5" y="-186" font-family="Helvetica,sans-Serif" font-size="10.00">+</text>
<text text-anchor="start" x="24.5" y="-186" font-family="Helvetica,sans-Serif" font-size="10.00">override int GetNavigation</text>
<text text-anchor="start" x="24.5" y="-175" font-family="Helvetica,sans-Serif" font-size="10.00">OutDirs()</text>
<text text-anchor="start" x="11.5" y="-160" font-family="Helvetica,sans-Serif" font-size="10.00">+</text>
<text text-anchor="start" x="24.5" y="-160" font-family="Helvetica,sans-Serif" font-size="10.00">override void Activate()</text>
<text text-anchor="start" x="11.5" y="-145" font-family="Helvetica,sans-Serif" font-size="10.00">+</text>
<text text-anchor="start" x="24.5" y="-145" font-family="Helvetica,sans-Serif" font-size="10.00">override GUIControllerItem</text>
<text text-anchor="start" x="24.5" y="-134" font-family="Helvetica,sans-Serif" font-size="10.00"> Navigate(Vector2 navigationVector)</text>
<text text-anchor="start" x="11.5" y="-119" font-family="Helvetica,sans-Serif" font-size="10.00">+</text>
<text text-anchor="start" x="24.5" y="-119" font-family="Helvetica,sans-Serif" font-size="10.00">override Rectangle</text>
<text text-anchor="start" x="24.5" y="-108" font-family="Helvetica,sans-Serif" font-size="10.00"> GetSelectedItemRegion()</text>
<text text-anchor="start" x="11.5" y="-93" font-family="Helvetica,sans-Serif" font-size="10.00">+</text>
<text text-anchor="start" x="24.5" y="-93" font-family="Helvetica,sans-Serif" font-size="10.00">override void NavigateInto</text>
<text text-anchor="start" x="24.5" y="-82" font-family="Helvetica,sans-Serif" font-size="10.00">(int column, int row)</text>
<text text-anchor="start" x="11.5" y="-67" font-family="Helvetica,sans-Serif" font-size="10.00">+</text>
<text text-anchor="start" x="24.5" y="-67" font-family="Helvetica,sans-Serif" font-size="10.00">GUIControllerChest4Page()</text>
<text text-anchor="start" x="14" y="-52" font-family="Helvetica,sans-Serif" font-size="10.00">&#45;</text>
<text text-anchor="start" x="24.5" y="-52" font-family="Helvetica,sans-Serif" font-size="10.00">ItemGrid_Layout GetGrid()</text>
<text text-anchor="start" x="14" y="-37" font-family="Helvetica,sans-Serif" font-size="10.00">&#45;</text>
<text text-anchor="start" x="24.5" y="-37" font-family="Helvetica,sans-Serif" font-size="10.00">float GetItemScale()</text>
<text text-anchor="start" x="14" y="-22" font-family="Helvetica,sans-Serif" font-size="10.00">&#45;</text>
<text text-anchor="start" x="24.5" y="-22" font-family="Helvetica,sans-Serif" font-size="10.00">int GetMenuItemCount()</text>
<text text-anchor="start" x="14" y="-7" font-family="Helvetica,sans-Serif" font-size="10.00">&#45;</text>
<text text-anchor="start" x="24.5" y="-7" font-family="Helvetica,sans-Serif" font-size="10.00">int GetDisplayItemCount()</text>
<polygon fill="#666666" stroke="#666666" points="7.5,-263 7.5,-263 206.5,-263 206.5,-263 7.5,-263"/>
<polygon fill="#666666" stroke="#666666" points="7.5,-211 7.5,-211 22.5,-211 22.5,-211 7.5,-211"/>
<polygon fill="#666666" stroke="#666666" points="22.5,-211 22.5,-211 206.5,-211 206.5,-211 22.5,-211"/>
<polygon fill="none" stroke="#666666" points="7,0 7,-280 206,-280 206,0 7,0"/>
</a>
</g>
</g>
<!-- Node2 -->
<g id="Node000002" class="node">
<title>Node2</title>
<g id="a_Node000002"><a xlink:href="../../d9/d9a/classGUIControllerChest.html" target="_top" xlink:title=" ">
<polygon fill="white" stroke="transparent" points="206,-462 7,-462 7,-316 206,-316 206,-462"/>
<text text-anchor="start" x="60" y="-450" font-family="Helvetica,sans-Serif" font-size="10.00">GUIControllerChest</text>
<text text-anchor="start" x="11.5" y="-435" font-family="Helvetica,sans-Serif" font-size="10.00">+</text>
<text text-anchor="start" x="24.5" y="-435" font-family="Helvetica,sans-Serif" font-size="10.00">int itemRow</text>
<text text-anchor="start" x="11.5" y="-420" font-family="Helvetica,sans-Serif" font-size="10.00">+</text>
<text text-anchor="start" x="24.5" y="-420" font-family="Helvetica,sans-Serif" font-size="10.00">int itemColumn</text>
<text text-anchor="start" x="11.5" y="-405" font-family="Helvetica,sans-Serif" font-size="10.00">+</text>
<text text-anchor="start" x="24.5" y="-405" font-family="Helvetica,sans-Serif" font-size="10.00">GUIControllerChest()</text>
<text text-anchor="start" x="11.5" y="-390" font-family="Helvetica,sans-Serif" font-size="10.00">+</text>
<text text-anchor="start" x="24.5" y="-390" font-family="Helvetica,sans-Serif" font-size="10.00">override void Activate()</text>
<text text-anchor="start" x="11.5" y="-375" font-family="Helvetica,sans-Serif" font-size="10.00">+</text>
<text text-anchor="start" x="24.5" y="-375" font-family="Helvetica,sans-Serif" font-size="10.00">virtual bool IsInMenu()</text>
<text text-anchor="start" x="11.5" y="-360" font-family="Helvetica,sans-Serif" font-size="10.00">+</text>
<text text-anchor="start" x="24.5" y="-360" font-family="Helvetica,sans-Serif" font-size="10.00">override GUIControllerItem</text>
<text text-anchor="start" x="24.5" y="-349" font-family="Helvetica,sans-Serif" font-size="10.00"> Navigate(Vector2 navigationVector)</text>
<text text-anchor="start" x="11.5" y="-334" font-family="Helvetica,sans-Serif" font-size="10.00">+</text>
<text text-anchor="start" x="24.5" y="-334" font-family="Helvetica,sans-Serif" font-size="10.00">override Rectangle</text>
<text text-anchor="start" x="24.5" y="-323" font-family="Helvetica,sans-Serif" font-size="10.00"> GetSelectedItemRegion()</text>
<polygon fill="#666666" stroke="#666666" points="7.5,-445 7.5,-445 206.5,-445 206.5,-445 7.5,-445"/>
<polygon fill="#666666" stroke="#666666" points="7.5,-415 7.5,-415 22.5,-415 22.5,-415 7.5,-415"/>
<polygon fill="#666666" stroke="#666666" points="22.5,-415 22.5,-415 206.5,-415 206.5,-415 22.5,-415"/>
<polygon fill="none" stroke="#666666" points="7,-316 7,-462 206,-462 206,-316 7,-316"/>
</a>
</g>
</g>
<!-- Node2&#45;&gt;Node1 -->
<g id="edge1_Node000001_Node000002" class="edge">
<title>Node2&#45;&gt;Node1</title>
<g id="a_edge1_Node000001_Node000002"><a xlink:title=" ">
<path fill="none" stroke="#63b8ff" d="M106.5,-305.85C106.5,-297.49 106.5,-288.84 106.5,-280.09"/>
<polygon fill="none" stroke="#63b8ff" points="103,-305.89 106.5,-315.89 110,-305.89 103,-305.89"/>
</a>
</g>
</g>
<!-- Node3 -->
<g id="Node000003" class="node">
<title>Node3</title>
<g id="a_Node000003"><a xlink:href="../../d4/d82/classGUIPageContentController.html" target="_top" xlink:title=" ">
<polygon fill="white" stroke="transparent" points="213,-844 0,-844 0,-498 213,-498 213,-844"/>
<text text-anchor="start" x="43" y="-832" font-family="Helvetica,sans-Serif" font-size="10.00">GUIPageContentController</text>
<text text-anchor="start" x="4.5" y="-817" font-family="Helvetica,sans-Serif" font-size="10.00">+</text>
<text text-anchor="start" x="17.5" y="-817" font-family="Helvetica,sans-Serif" font-size="10.00">int ResearchButton</text>
<text text-anchor="start" x="4.5" y="-802" font-family="Helvetica,sans-Serif" font-size="10.00">+</text>
<text text-anchor="start" x="17.5" y="-802" font-family="Helvetica,sans-Serif" font-size="10.00">GUIPageIconGrouping</text>
<text text-anchor="start" x="17.5" y="-791" font-family="Helvetica,sans-Serif" font-size="10.00"> ParentGrouping</text>
<text text-anchor="start" x="7" y="-776" font-family="Helvetica,sans-Serif" font-size="10.00">&#45;</text>
<text text-anchor="start" x="17.5" y="-776" font-family="Helvetica,sans-Serif" font-size="10.00">readonly GUIPageIcons.Category</text>
<text text-anchor="start" x="17.5" y="-765" font-family="Helvetica,sans-Serif" font-size="10.00"> PageCategory</text>
<text text-anchor="start" x="7" y="-750" font-family="Helvetica,sans-Serif" font-size="10.00">&#45;</text>
<text text-anchor="start" x="17.5" y="-750" font-family="Helvetica,sans-Serif" font-size="10.00">readonly GUIPageIconGrouping.</text>
<text text-anchor="start" x="17.5" y="-739" font-family="Helvetica,sans-Serif" font-size="10.00">SettingCategory SettingCategory</text>
<text text-anchor="start" x="4.5" y="-724" font-family="Helvetica,sans-Serif" font-size="10.00">+</text>
<text text-anchor="start" x="17.5" y="-724" font-family="Helvetica,sans-Serif" font-size="10.00">virtual int GetNavigation</text>
<text text-anchor="start" x="17.5" y="-713" font-family="Helvetica,sans-Serif" font-size="10.00">OutDirs()</text>
<text text-anchor="start" x="4.5" y="-698" font-family="Helvetica,sans-Serif" font-size="10.00">+</text>
<text text-anchor="start" x="17.5" y="-698" font-family="Helvetica,sans-Serif" font-size="10.00">bool IsPageContoller</text>
<text text-anchor="start" x="17.5" y="-687" font-family="Helvetica,sans-Serif" font-size="10.00">(GUIControllerItem item)</text>
<text text-anchor="start" x="4.5" y="-672" font-family="Helvetica,sans-Serif" font-size="10.00">+</text>
<text text-anchor="start" x="17.5" y="-672" font-family="Helvetica,sans-Serif" font-size="10.00">void LoadPageAnchor()</text>
<text text-anchor="start" x="4.5" y="-657" font-family="Helvetica,sans-Serif" font-size="10.00">+</text>
<text text-anchor="start" x="17.5" y="-657" font-family="Helvetica,sans-Serif" font-size="10.00">virtual void Activate()</text>
<text text-anchor="start" x="4.5" y="-642" font-family="Helvetica,sans-Serif" font-size="10.00">+</text>
<text text-anchor="start" x="17.5" y="-642" font-family="Helvetica,sans-Serif" font-size="10.00">virtual GUIControllerItem</text>
<text text-anchor="start" x="17.5" y="-631" font-family="Helvetica,sans-Serif" font-size="10.00"> Navigate(Vector2 navigationVector)</text>
<text text-anchor="start" x="4.5" y="-616" font-family="Helvetica,sans-Serif" font-size="10.00">+</text>
<text text-anchor="start" x="17.5" y="-616" font-family="Helvetica,sans-Serif" font-size="10.00">virtual Rectangle GetSelected</text>
<text text-anchor="start" x="17.5" y="-605" font-family="Helvetica,sans-Serif" font-size="10.00">ItemRegion()</text>
<text text-anchor="start" x="4.5" y="-590" font-family="Helvetica,sans-Serif" font-size="10.00">+</text>
<text text-anchor="start" x="17.5" y="-590" font-family="Helvetica,sans-Serif" font-size="10.00">virtual void NavigateInto</text>
<text text-anchor="start" x="17.5" y="-579" font-family="Helvetica,sans-Serif" font-size="10.00">(int column, int row)</text>
<text text-anchor="start" x="4.5" y="-564" font-family="Helvetica,sans-Serif" font-size="10.00">#</text>
<text text-anchor="start" x="17.5" y="-564" font-family="Helvetica,sans-Serif" font-size="10.00">GUIPageContentController</text>
<text text-anchor="start" x="17.5" y="-553" font-family="Helvetica,sans-Serif" font-size="10.00">(GUIPageIcons.Category</text>
<text text-anchor="start" x="17.5" y="-542" font-family="Helvetica,sans-Serif" font-size="10.00"> pageCategory)</text>
<text text-anchor="start" x="4.5" y="-527" font-family="Helvetica,sans-Serif" font-size="10.00">#</text>
<text text-anchor="start" x="17.5" y="-527" font-family="Helvetica,sans-Serif" font-size="10.00">GUIPageContentController</text>
<text text-anchor="start" x="17.5" y="-516" font-family="Helvetica,sans-Serif" font-size="10.00">(GUIPageIconGrouping.SettingCategory</text>
<text text-anchor="start" x="17.5" y="-505" font-family="Helvetica,sans-Serif" font-size="10.00"> settingCategory)</text>
<polygon fill="#666666" stroke="#666666" points="0.5,-827 0.5,-827 213.5,-827 213.5,-827 0.5,-827"/>
<polygon fill="#666666" stroke="#666666" points="0.5,-734 0.5,-734 15.5,-734 15.5,-734 0.5,-734"/>
<polygon fill="#666666" stroke="#666666" points="15.5,-734 15.5,-734 213.5,-734 213.5,-734 15.5,-734"/>
<polygon fill="none" stroke="#666666" points="0,-498 0,-844 213,-844 213,-498 0,-498"/>
</a>
</g>
</g>
<!-- Node3&#45;&gt;Node2 -->
<g id="edge2_Node000002_Node000003" class="edge">
<title>Node3&#45;&gt;Node2</title>
<g id="a_edge2_Node000002_Node000003"><a xlink:title=" ">
<path fill="none" stroke="#63b8ff" d="M106.5,-487.76C106.5,-478.9 106.5,-470.29 106.5,-462.1"/>
<polygon fill="none" stroke="#63b8ff" points="103,-487.85 106.5,-497.85 110,-487.85 103,-487.85"/>
</a>
</g>
</g>
<!-- Node4 -->
<g id="Node000004" class="node">
<title>Node4</title>
<g id="a_Node000004"><a xlink:href="../../d1/d1a/interfaceGUIControllerItem.html" target="_top" xlink:title=" ">
<polygon fill="white" stroke="transparent" points="185,-996 28,-996 28,-880 185,-880 185,-996"/>
<text text-anchor="start" x="62.5" y="-984" font-family="Helvetica,sans-Serif" font-size="10.00">GUIControllerItem</text>
<text text-anchor="start" x="105" y="-969" font-family="Helvetica,sans-Serif" font-size="10.00"> </text>
<text text-anchor="start" x="32.5" y="-954" font-family="Helvetica,sans-Serif" font-size="10.00">+</text>
<text text-anchor="start" x="45.5" y="-954" font-family="Helvetica,sans-Serif" font-size="10.00">void Activate()</text>
<text text-anchor="start" x="32.5" y="-939" font-family="Helvetica,sans-Serif" font-size="10.00">+</text>
<text text-anchor="start" x="45.5" y="-939" font-family="Helvetica,sans-Serif" font-size="10.00">GUIControllerItem Navigate</text>
<text text-anchor="start" x="45.5" y="-928" font-family="Helvetica,sans-Serif" font-size="10.00">(Vector2 navigationVector)</text>
<text text-anchor="start" x="32.5" y="-913" font-family="Helvetica,sans-Serif" font-size="10.00">+</text>
<text text-anchor="start" x="45.5" y="-913" font-family="Helvetica,sans-Serif" font-size="10.00">Rectangle GetSelectedItem</text>
<text text-anchor="start" x="45.5" y="-902" font-family="Helvetica,sans-Serif" font-size="10.00">Region()</text>
<text text-anchor="start" x="32.5" y="-887" font-family="Helvetica,sans-Serif" font-size="10.00">+</text>
<text text-anchor="start" x="45.5" y="-887" font-family="Helvetica,sans-Serif" font-size="10.00">int GetNavigationOutDirs()</text>
<polygon fill="#666666" stroke="#666666" points="28.5,-979 28.5,-979 185.5,-979 185.5,-979 28.5,-979"/>
<polygon fill="#666666" stroke="#666666" points="28.5,-964 28.5,-964 185.5,-964 185.5,-964 28.5,-964"/>
<polygon fill="none" stroke="#666666" points="28,-880 28,-996 185,-996 185,-880 28,-880"/>
</a>
</g>
</g>
<!-- Node4&#45;&gt;Node3 -->
<g id="edge3_Node000003_Node000004" class="edge">
<title>Node4&#45;&gt;Node3</title>
<g id="a_edge3_Node000003_Node000004"><a xlink:title=" ">
<path fill="none" stroke="#63b8ff" d="M106.5,-869.74C106.5,-861.58 106.5,-852.98 106.5,-844.12"/>
<polygon fill="none" stroke="#63b8ff" points="103,-869.83 106.5,-879.83 110,-869.83 103,-869.83"/>
</a>
</g>
</g>
</g>
</svg>
