<?xml version="1.0" encoding="UTF-8" standalone="no"?>
<!DOCTYPE svg PUBLIC "-//W3C//DTD SVG 1.1//EN"
 "http://www.w3.org/Graphics/SVG/1.1/DTD/svg11.dtd">
<!-- Generated by graphviz version 2.43.0 (0)
 -->
<!-- Title: UnityEngine.TouchScreenKeyboard Pages: 1 -->
<!--zoomable 1524 -->

<svg id="main" version="1.1" xmlns="http://www.w3.org/2000/svg" xmlns:xlink="http://www.w3.org/1999/xlink" xml:space="preserve" onload="init(evt)">
<style type="text/css"><![CDATA[
.node, .edge {opacity: 0.7;}
.node.selected, .edge.selected {opacity: 1;}
.edge:hover path { stroke: red; }
.edge:hover polygon { stroke: red; fill: red; }
]]></style>

<defs>
  <circle id="rim" cx="0" cy="0" r="7"/>
  <circle id="rim2" cx="0" cy="0" r="3.5"/>
  <g id="zoomPlus">
    <use xlink:href="#rim" fill="#404040"><set attributeName="fill" to="#808080" begin="zoomplus.mouseover" end="zoomplus.mouseout"/></use>
    <path d="M-4,0h8M0,-4v8" fill="none" stroke="white" stroke-width="1.5" pointer-events="none"/>
  </g>
  <g id="zoomMin">
    <use xlink:href="#rim" fill="#404040"><set attributeName="fill" to="#808080" begin="zoomminus.mouseover" end="zoomminus.mouseout"/></use>
    <path d="M-4,0h8" fill="none" stroke="white" stroke-width="1.5" pointer-events="none"/>
  </g>
  <g id="arrowUp" transform="translate(30 24)">
    <use xlink:href="#rim"/>
    <path pointer-events="none" fill="none" stroke="white" stroke-width="1.5" d="M0,-3.0v7 M-2.5,-0.5L0,-3.0L2.5,-0.5"/>
  </g>
  <g id="arrowRight" transform="rotate(90) translate(36 -43)">
    <use xlink:href="#rim"/>
    <path pointer-events="none" fill="none" stroke="white" stroke-width="1.5" d="M0,-3.0v7 M-2.5,-0.5L0,-3.0L2.5,-0.5"/>
  </g>
  <g id="arrowDown" transform="rotate(180) translate(-30 -48)">
    <use xlink:href="#rim"/>
    <path pointer-events="none" fill="none" stroke="white" stroke-width="1.5" d="M0,-3.0v7 M-2.5,-0.5L0,-3.0L2.5,-0.5"/>
  </g>
  <g id="arrowLeft" transform="rotate(270) translate(-36 17)">
    <use xlink:href="#rim"/>
    <path pointer-events="none" fill="none" stroke="white" stroke-width="1.5" d="M0,-3.0v7 M-2.5,-0.5L0,-3.0L2.5,-0.5"/>
  </g>
  <g id="resetDef">
    <use xlink:href="#rim2" fill="#404040"><set attributeName="fill" to="#808080" begin="reset.mouseover" end="reset.mouseout"/></use>
  </g>
</defs>
<script type="application/ecmascript">
var viewWidth = 641;
var viewHeight = 1524;
var sectionId = 'dynsection-0';
</script>
<script type="application/ecmascript" xlink:href="../../svg.min.js"/>
<svg id="graph" class="graph">
<g id="viewport">
<title>UnityEngine.TouchScreenKeyboard</title>
<!-- Node1 -->
<g id="Node000001" class="node">
<title>Node1</title>
<g id="a_Node000001"><a xlink:title=" ">
<polygon fill="#999999" stroke="transparent" points="511,-594 218,-594 218,0 511,0 511,-594"/>
<text text-anchor="start" x="280.5" y="-582" font-family="Helvetica,sans-Serif" font-size="10.00">UnityEngine.TouchScreenKeyboard</text>
<text text-anchor="start" x="222.5" y="-567" font-family="Helvetica,sans-Serif" font-size="10.00">+</text>
<text text-anchor="start" x="235.5" y="-567" font-family="Helvetica,sans-Serif" font-size="10.00">static bool isSupported</text>
<text text-anchor="start" x="222.5" y="-552" font-family="Helvetica,sans-Serif" font-size="10.00">+</text>
<text text-anchor="start" x="235.5" y="-552" font-family="Helvetica,sans-Serif" font-size="10.00">static bool disableInPlace</text>
<text text-anchor="start" x="235.5" y="-541" font-family="Helvetica,sans-Serif" font-size="10.00">Editing</text>
<text text-anchor="start" x="222.5" y="-526" font-family="Helvetica,sans-Serif" font-size="10.00">+</text>
<text text-anchor="start" x="235.5" y="-526" font-family="Helvetica,sans-Serif" font-size="10.00">static bool isInPlaceEditing</text>
<text text-anchor="start" x="235.5" y="-515" font-family="Helvetica,sans-Serif" font-size="10.00">Allowed</text>
<text text-anchor="start" x="222.5" y="-500" font-family="Helvetica,sans-Serif" font-size="10.00">+</text>
<text text-anchor="start" x="235.5" y="-500" font-family="Helvetica,sans-Serif" font-size="10.00">string text</text>
<text text-anchor="start" x="222.5" y="-485" font-family="Helvetica,sans-Serif" font-size="10.00">+</text>
<text text-anchor="start" x="235.5" y="-485" font-family="Helvetica,sans-Serif" font-size="10.00">static bool hideInput</text>
<text text-anchor="start" x="222.5" y="-470" font-family="Helvetica,sans-Serif" font-size="10.00">+</text>
<text text-anchor="start" x="235.5" y="-470" font-family="Helvetica,sans-Serif" font-size="10.00">bool active</text>
<text text-anchor="start" x="222.5" y="-455" font-family="Helvetica,sans-Serif" font-size="10.00">+</text>
<text text-anchor="start" x="235.5" y="-455" font-family="Helvetica,sans-Serif" font-size="10.00">TouchScreenKeyboard.Status</text>
<text text-anchor="start" x="235.5" y="-444" font-family="Helvetica,sans-Serif" font-size="10.00"> status</text>
<text text-anchor="start" x="222.5" y="-429" font-family="Helvetica,sans-Serif" font-size="10.00">+</text>
<text text-anchor="start" x="235.5" y="-429" font-family="Helvetica,sans-Serif" font-size="10.00">int characterLimit</text>
<text text-anchor="start" x="222.5" y="-414" font-family="Helvetica,sans-Serif" font-size="10.00">+</text>
<text text-anchor="start" x="235.5" y="-414" font-family="Helvetica,sans-Serif" font-size="10.00">bool canGetSelection</text>
<text text-anchor="start" x="222.5" y="-399" font-family="Helvetica,sans-Serif" font-size="10.00">+</text>
<text text-anchor="start" x="235.5" y="-399" font-family="Helvetica,sans-Serif" font-size="10.00">bool canSetSelection</text>
<text text-anchor="start" x="222.5" y="-384" font-family="Helvetica,sans-Serif" font-size="10.00">+</text>
<text text-anchor="start" x="235.5" y="-384" font-family="Helvetica,sans-Serif" font-size="10.00">RangeInt selection</text>
<text text-anchor="start" x="222.5" y="-369" font-family="Helvetica,sans-Serif" font-size="10.00">+</text>
<text text-anchor="start" x="235.5" y="-369" font-family="Helvetica,sans-Serif" font-size="10.00">TouchScreenKeyboard</text>
<text text-anchor="start" x="235.5" y="-358" font-family="Helvetica,sans-Serif" font-size="10.00">(string text, TouchScreenKeyboard</text>
<text text-anchor="start" x="235.5" y="-347" font-family="Helvetica,sans-Serif" font-size="10.00">Type keyboardType, bool autocorrection,</text>
<text text-anchor="start" x="235.5" y="-336" font-family="Helvetica,sans-Serif" font-size="10.00"> bool multiline, bool secure, bool</text>
<text text-anchor="start" x="235.5" y="-325" font-family="Helvetica,sans-Serif" font-size="10.00"> alert, string textPlaceholder, int</text>
<text text-anchor="start" x="235.5" y="-314" font-family="Helvetica,sans-Serif" font-size="10.00"> characterLimit)</text>
<text text-anchor="start" x="222.5" y="-299" font-family="Helvetica,sans-Serif" font-size="10.00">+</text>
<text text-anchor="start" x="235.5" y="-299" font-family="Helvetica,sans-Serif" font-size="10.00">static TouchScreenKeyboard</text>
<text text-anchor="start" x="235.5" y="-288" font-family="Helvetica,sans-Serif" font-size="10.00"> Open(string text, [DefaultValue</text>
<text text-anchor="start" x="235.5" y="-277" font-family="Helvetica,sans-Serif" font-size="10.00">(&quot;TouchScreenKeyboardType.Default&quot;)</text>
<text text-anchor="start" x="235.5" y="-266" font-family="Helvetica,sans-Serif" font-size="10.00">] TouchScreenKeyboardType keyboardType,</text>
<text text-anchor="start" x="235.5" y="-255" font-family="Helvetica,sans-Serif" font-size="10.00"> [DefaultValue(&quot;true&quot;)] bool autocorrection,</text>
<text text-anchor="start" x="235.5" y="-244" font-family="Helvetica,sans-Serif" font-size="10.00"> [DefaultValue(&quot;false&quot;)] bool multiline,</text>
<text text-anchor="start" x="235.5" y="-233" font-family="Helvetica,sans-Serif" font-size="10.00"> [DefaultValue(&quot;false&quot;)] bool secure, [DefaultValue</text>
<text text-anchor="start" x="235.5" y="-222" font-family="Helvetica,sans-Serif" font-size="10.00">(&quot;false&quot;)] bool alert, [DefaultValue(&quot;\&quot;\&quot;&quot;)] string</text>
<text text-anchor="start" x="235.5" y="-211" font-family="Helvetica,sans-Serif" font-size="10.00"> textPlaceholder, [DefaultValue(&quot;0&quot;)] int characterLimit)</text>
<text text-anchor="start" x="222.5" y="-196" font-family="Helvetica,sans-Serif" font-size="10.00">#</text>
<text text-anchor="start" x="235.5" y="-196" font-family="Helvetica,sans-Serif" font-size="10.00">override void Finalize()</text>
<text text-anchor="start" x="225" y="-181" font-family="Helvetica,sans-Serif" font-size="10.00">&#45;</text>
<text text-anchor="start" x="235.5" y="-181" font-family="Helvetica,sans-Serif" font-size="10.00">static void Internal</text>
<text text-anchor="start" x="235.5" y="-170" font-family="Helvetica,sans-Serif" font-size="10.00">_Destroy(IntPtr ptr)</text>
<text text-anchor="start" x="225" y="-155" font-family="Helvetica,sans-Serif" font-size="10.00">&#45;</text>
<text text-anchor="start" x="235.5" y="-155" font-family="Helvetica,sans-Serif" font-size="10.00">void Destroy()</text>
<text text-anchor="start" x="225" y="-140" font-family="Helvetica,sans-Serif" font-size="10.00">&#45;</text>
<text text-anchor="start" x="235.5" y="-140" font-family="Helvetica,sans-Serif" font-size="10.00">static IntPtr TouchScreen</text>
<text text-anchor="start" x="235.5" y="-129" font-family="Helvetica,sans-Serif" font-size="10.00">Keyboard_InternalConstructorHelper</text>
<text text-anchor="start" x="235.5" y="-118" font-family="Helvetica,sans-Serif" font-size="10.00">(ref TouchScreenKeyboard_InternalConstructor</text>
<text text-anchor="start" x="235.5" y="-107" font-family="Helvetica,sans-Serif" font-size="10.00">HelperArguments arguments, string text,</text>
<text text-anchor="start" x="235.5" y="-96" font-family="Helvetica,sans-Serif" font-size="10.00"> string textPlaceholder)</text>
<text text-anchor="start" x="225" y="-81" font-family="Helvetica,sans-Serif" font-size="10.00">&#45;</text>
<text text-anchor="start" x="235.5" y="-81" font-family="Helvetica,sans-Serif" font-size="10.00">static bool IsInPlaceEditing</text>
<text text-anchor="start" x="235.5" y="-70" font-family="Helvetica,sans-Serif" font-size="10.00">Allowed()</text>
<text text-anchor="start" x="225" y="-55" font-family="Helvetica,sans-Serif" font-size="10.00">&#45;</text>
<text text-anchor="start" x="235.5" y="-55" font-family="Helvetica,sans-Serif" font-size="10.00">static void GetSelection</text>
<text text-anchor="start" x="235.5" y="-44" font-family="Helvetica,sans-Serif" font-size="10.00">(out int start, out int</text>
<text text-anchor="start" x="235.5" y="-33" font-family="Helvetica,sans-Serif" font-size="10.00"> length)</text>
<text text-anchor="start" x="225" y="-18" font-family="Helvetica,sans-Serif" font-size="10.00">&#45;</text>
<text text-anchor="start" x="235.5" y="-18" font-family="Helvetica,sans-Serif" font-size="10.00">static void SetSelection</text>
<text text-anchor="start" x="235.5" y="-7" font-family="Helvetica,sans-Serif" font-size="10.00">(int start, int length)</text>
<polygon fill="#666666" stroke="#666666" points="218.5,-577 218.5,-577 511.5,-577 511.5,-577 218.5,-577"/>
<polygon fill="#666666" stroke="#666666" points="218.5,-379 218.5,-379 233.5,-379 233.5,-379 218.5,-379"/>
<polygon fill="#666666" stroke="#666666" points="233.5,-379 233.5,-379 511.5,-379 511.5,-379 233.5,-379"/>
<polygon fill="none" stroke="#666666" points="218,0 218,-594 511,-594 511,0 218,0"/>
</a>
</g>
</g>
<!-- Node2 -->
<g id="Node000002" class="node">
<title>Node2</title>
<g id="a_Node000002"><a xlink:href="../../db/db4/structSystem_1_1IntPtr.html" target="_top" xlink:title=" ">
<polygon fill="white" stroke="transparent" points="353,-1409 104,-1409 104,-641 353,-641 353,-1409"/>
<text text-anchor="start" x="195.5" y="-1397" font-family="Helvetica,sans-Serif" font-size="10.00">System.IntPtr</text>
<text text-anchor="start" x="108.5" y="-1382" font-family="Helvetica,sans-Serif" font-size="10.00">+</text>
<text text-anchor="start" x="121.5" y="-1382" font-family="Helvetica,sans-Serif" font-size="10.00">static unsafe int Size</text>
<text text-anchor="start" x="108.5" y="-1367" font-family="Helvetica,sans-Serif" font-size="10.00">+</text>
<text text-anchor="start" x="121.5" y="-1367" font-family="Helvetica,sans-Serif" font-size="10.00">IntPtr(int value)</text>
<text text-anchor="start" x="108.5" y="-1352" font-family="Helvetica,sans-Serif" font-size="10.00">+</text>
<text text-anchor="start" x="121.5" y="-1352" font-family="Helvetica,sans-Serif" font-size="10.00">IntPtr(long value)</text>
<text text-anchor="start" x="108.5" y="-1337" font-family="Helvetica,sans-Serif" font-size="10.00">+</text>
<text text-anchor="start" x="121.5" y="-1337" font-family="Helvetica,sans-Serif" font-size="10.00">unsafe IntPtr(void</text>
<text text-anchor="start" x="121.5" y="-1326" font-family="Helvetica,sans-Serif" font-size="10.00"> *value)</text>
<text text-anchor="start" x="108.5" y="-1311" font-family="Helvetica,sans-Serif" font-size="10.00">+</text>
<text text-anchor="start" x="121.5" y="-1311" font-family="Helvetica,sans-Serif" font-size="10.00">override bool Equals</text>
<text text-anchor="start" x="121.5" y="-1300" font-family="Helvetica,sans-Serif" font-size="10.00">(object obj)</text>
<text text-anchor="start" x="108.5" y="-1285" font-family="Helvetica,sans-Serif" font-size="10.00">+</text>
<text text-anchor="start" x="121.5" y="-1285" font-family="Helvetica,sans-Serif" font-size="10.00">override int GetHashCode()</text>
<text text-anchor="start" x="108.5" y="-1270" font-family="Helvetica,sans-Serif" font-size="10.00">+</text>
<text text-anchor="start" x="121.5" y="-1270" font-family="Helvetica,sans-Serif" font-size="10.00">long ToInt64()</text>
<text text-anchor="start" x="108.5" y="-1255" font-family="Helvetica,sans-Serif" font-size="10.00">+</text>
<text text-anchor="start" x="121.5" y="-1255" font-family="Helvetica,sans-Serif" font-size="10.00">unsafe void * ToPointer()</text>
<text text-anchor="start" x="108.5" y="-1240" font-family="Helvetica,sans-Serif" font-size="10.00">+</text>
<text text-anchor="start" x="121.5" y="-1240" font-family="Helvetica,sans-Serif" font-size="10.00">override string ToString()</text>
<text text-anchor="start" x="108.5" y="-1225" font-family="Helvetica,sans-Serif" font-size="10.00">+</text>
<text text-anchor="start" x="121.5" y="-1225" font-family="Helvetica,sans-Serif" font-size="10.00">string ToString(string</text>
<text text-anchor="start" x="121.5" y="-1214" font-family="Helvetica,sans-Serif" font-size="10.00"> format)</text>
<text text-anchor="start" x="108.5" y="-1199" font-family="Helvetica,sans-Serif" font-size="10.00">+</text>
<text text-anchor="start" x="121.5" y="-1199" font-family="Helvetica,sans-Serif" font-size="10.00">static bool operator</text>
<text text-anchor="start" x="121.5" y="-1188" font-family="Helvetica,sans-Serif" font-size="10.00">==(global::System.IntPtr</text>
<text text-anchor="start" x="121.5" y="-1177" font-family="Helvetica,sans-Serif" font-size="10.00"> value1, global::System.IntPtr</text>
<text text-anchor="start" x="121.5" y="-1166" font-family="Helvetica,sans-Serif" font-size="10.00"> value2)</text>
<text text-anchor="start" x="108.5" y="-1151" font-family="Helvetica,sans-Serif" font-size="10.00">+</text>
<text text-anchor="start" x="121.5" y="-1151" font-family="Helvetica,sans-Serif" font-size="10.00">static bool operator!</text>
<text text-anchor="start" x="121.5" y="-1140" font-family="Helvetica,sans-Serif" font-size="10.00">=(global::System.IntPtr</text>
<text text-anchor="start" x="121.5" y="-1129" font-family="Helvetica,sans-Serif" font-size="10.00"> value1, global::System.IntPtr</text>
<text text-anchor="start" x="121.5" y="-1118" font-family="Helvetica,sans-Serif" font-size="10.00"> value2)</text>
<text text-anchor="start" x="108.5" y="-1103" font-family="Helvetica,sans-Serif" font-size="10.00">+</text>
<text text-anchor="start" x="121.5" y="-1103" font-family="Helvetica,sans-Serif" font-size="10.00">static operator global</text>
<text text-anchor="start" x="121.5" y="-1092" font-family="Helvetica,sans-Serif" font-size="10.00">::System.IntPtr(int value)</text>
<text text-anchor="start" x="108.5" y="-1077" font-family="Helvetica,sans-Serif" font-size="10.00">+</text>
<text text-anchor="start" x="121.5" y="-1077" font-family="Helvetica,sans-Serif" font-size="10.00">static operator global</text>
<text text-anchor="start" x="121.5" y="-1066" font-family="Helvetica,sans-Serif" font-size="10.00">::System.IntPtr(long value)</text>
<text text-anchor="start" x="108.5" y="-1051" font-family="Helvetica,sans-Serif" font-size="10.00">+</text>
<text text-anchor="start" x="121.5" y="-1051" font-family="Helvetica,sans-Serif" font-size="10.00">static unsafe operator</text>
<text text-anchor="start" x="121.5" y="-1040" font-family="Helvetica,sans-Serif" font-size="10.00"> global::System.IntPtr</text>
<text text-anchor="start" x="121.5" y="-1029" font-family="Helvetica,sans-Serif" font-size="10.00">(void *value)</text>
<text text-anchor="start" x="108.5" y="-1014" font-family="Helvetica,sans-Serif" font-size="10.00">+</text>
<text text-anchor="start" x="121.5" y="-1014" font-family="Helvetica,sans-Serif" font-size="10.00">static operator int</text>
<text text-anchor="start" x="121.5" y="-1003" font-family="Helvetica,sans-Serif" font-size="10.00">(global::System.IntPtr</text>
<text text-anchor="start" x="121.5" y="-992" font-family="Helvetica,sans-Serif" font-size="10.00"> value)</text>
<text text-anchor="start" x="108.5" y="-977" font-family="Helvetica,sans-Serif" font-size="10.00">+</text>
<text text-anchor="start" x="121.5" y="-977" font-family="Helvetica,sans-Serif" font-size="10.00">static operator long</text>
<text text-anchor="start" x="121.5" y="-966" font-family="Helvetica,sans-Serif" font-size="10.00">(global::System.IntPtr</text>
<text text-anchor="start" x="121.5" y="-955" font-family="Helvetica,sans-Serif" font-size="10.00"> value)</text>
<text text-anchor="start" x="108.5" y="-940" font-family="Helvetica,sans-Serif" font-size="10.00">+</text>
<text text-anchor="start" x="121.5" y="-940" font-family="Helvetica,sans-Serif" font-size="10.00">static unsafe operator</text>
<text text-anchor="start" x="121.5" y="-929" font-family="Helvetica,sans-Serif" font-size="10.00"> void *(global::System.IntPtr</text>
<text text-anchor="start" x="121.5" y="-918" font-family="Helvetica,sans-Serif" font-size="10.00"> value)</text>
<text text-anchor="start" x="108.5" y="-903" font-family="Helvetica,sans-Serif" font-size="10.00">+</text>
<text text-anchor="start" x="121.5" y="-903" font-family="Helvetica,sans-Serif" font-size="10.00">static global::System.Int</text>
<text text-anchor="start" x="121.5" y="-892" font-family="Helvetica,sans-Serif" font-size="10.00">Ptr Add(global::System.IntPtr</text>
<text text-anchor="start" x="121.5" y="-881" font-family="Helvetica,sans-Serif" font-size="10.00"> pointer, int offset)</text>
<text text-anchor="start" x="108.5" y="-866" font-family="Helvetica,sans-Serif" font-size="10.00">+</text>
<text text-anchor="start" x="121.5" y="-866" font-family="Helvetica,sans-Serif" font-size="10.00">static global::System.Int</text>
<text text-anchor="start" x="121.5" y="-855" font-family="Helvetica,sans-Serif" font-size="10.00">Ptr operator+(global::System.Int</text>
<text text-anchor="start" x="121.5" y="-844" font-family="Helvetica,sans-Serif" font-size="10.00">Ptr pointer, int offset)</text>
<text text-anchor="start" x="108.5" y="-829" font-family="Helvetica,sans-Serif" font-size="10.00">+</text>
<text text-anchor="start" x="121.5" y="-829" font-family="Helvetica,sans-Serif" font-size="10.00">static global::System.Int</text>
<text text-anchor="start" x="121.5" y="-818" font-family="Helvetica,sans-Serif" font-size="10.00">Ptr operator&#45;(global::System.Int</text>
<text text-anchor="start" x="121.5" y="-807" font-family="Helvetica,sans-Serif" font-size="10.00">Ptr pointer, int offset)</text>
<text text-anchor="start" x="108.5" y="-792" font-family="Helvetica,sans-Serif" font-size="10.00">~</text>
<text text-anchor="start" x="121.5" y="-792" font-family="Helvetica,sans-Serif" font-size="10.00">bool IsNull()</text>
<text text-anchor="start" x="111" y="-777" font-family="Helvetica,sans-Serif" font-size="10.00">&#45;</text>
<text text-anchor="start" x="121.5" y="-777" font-family="Helvetica,sans-Serif" font-size="10.00">IntPtr(global::System.Runtime.</text>
<text text-anchor="start" x="121.5" y="-766" font-family="Helvetica,sans-Serif" font-size="10.00">Serialization.SerializationInfo</text>
<text text-anchor="start" x="121.5" y="-755" font-family="Helvetica,sans-Serif" font-size="10.00"> info, global::System.Runtime.Serialization.</text>
<text text-anchor="start" x="121.5" y="-744" font-family="Helvetica,sans-Serif" font-size="10.00">StreamingContext context)</text>
<text text-anchor="start" x="111" y="-729" font-family="Helvetica,sans-Serif" font-size="10.00">&#45;</text>
<text text-anchor="start" x="121.5" y="-729" font-family="Helvetica,sans-Serif" font-size="10.00">void System.Runtime.Serialization.</text>
<text text-anchor="start" x="121.5" y="-718" font-family="Helvetica,sans-Serif" font-size="10.00">ISerializable. GetObjectData</text>
<text text-anchor="start" x="121.5" y="-707" font-family="Helvetica,sans-Serif" font-size="10.00">(global::System.Runtime.Serialization.</text>
<text text-anchor="start" x="121.5" y="-696" font-family="Helvetica,sans-Serif" font-size="10.00">SerializationInfo info, global::System.Runtime.</text>
<text text-anchor="start" x="121.5" y="-685" font-family="Helvetica,sans-Serif" font-size="10.00">Serialization.StreamingContext context)</text>
<text text-anchor="start" x="111" y="-670" font-family="Helvetica,sans-Serif" font-size="10.00">&#45;</text>
<text text-anchor="start" x="121.5" y="-670" font-family="Helvetica,sans-Serif" font-size="10.00">bool System.IEquatable</text>
<text text-anchor="start" x="121.5" y="-659" font-family="Helvetica,sans-Serif" font-size="10.00">&lt; System.IntPtr &gt;. Equals</text>
<text text-anchor="start" x="121.5" y="-648" font-family="Helvetica,sans-Serif" font-size="10.00">(global::System.IntPtr other)</text>
<polygon fill="#666666" stroke="#666666" points="104.5,-1392 104.5,-1392 353.5,-1392 353.5,-1392 104.5,-1392"/>
<polygon fill="#666666" stroke="#666666" points="104.5,-1377 104.5,-1377 119.5,-1377 119.5,-1377 104.5,-1377"/>
<polygon fill="#666666" stroke="#666666" points="119.5,-1377 119.5,-1377 353.5,-1377 353.5,-1377 119.5,-1377"/>
<polygon fill="none" stroke="#666666" points="104,-641 104,-1409 353,-1409 353,-641 104,-641"/>
</a>
</g>
</g>
<!-- Node2&#45;&gt;Node1 -->
<g id="edge1_Node000001_Node000002" class="edge">
<title>Node2&#45;&gt;Node1</title>
<g id="a_edge1_Node000001_Node000002"><a xlink:title=" ">
<path fill="none" stroke="#63b8ff" d="M300.28,-640.8C302.46,-629.17 304.64,-617.56 306.8,-606.02"/>
<polygon fill="none" stroke="#63b8ff" points="306.84,-605.83 304.01,-599.19 309.04,-594.03 311.87,-600.67 306.84,-605.83"/>
</a>
</g>
<text text-anchor="middle" x="325.5" y="-615" font-family="Helvetica,sans-Serif" font-size="10.00" fill="grey"> ~m_Ptr</text>
</g>
<!-- Node2&#45;&gt;Node2 -->
<g id="edge5_Node000002_Node000002" class="edge">
<title>Node2&#45;&gt;Node2</title>
<g id="a_edge5_Node000002_Node000002"><a xlink:title=" ">
<path fill="none" stroke="#63b8ff" d="M353.09,-1084.95C364.1,-1072.34 371,-1052.36 371,-1025 371,-1004.05 366.95,-987.43 360.12,-975.13"/>
<polygon fill="none" stroke="#63b8ff" points="359.95,-974.89 353.24,-972.26 353.09,-965.05 359.8,-967.68 359.95,-974.89"/>
</a>
</g>
<text text-anchor="middle" x="388" y="-1022.5" font-family="Helvetica,sans-Serif" font-size="10.00" fill="grey"> +Zero</text>
</g>
<!-- Node3 -->
<g id="Node000003" class="node">
<title>Node3</title>
<g id="a_Node000003"><a xlink:title=" ">
<polygon fill="white" stroke="transparent" points="143,-1516 0,-1516 0,-1456 143,-1456 143,-1516"/>
<text text-anchor="start" x="5.5" y="-1504" font-family="Helvetica,sans-Serif" font-size="10.00">global::SystemRuntime</text>
<text text-anchor="start" x="5.5" y="-1493" font-family="Helvetica,sans-Serif" font-size="10.00">::Serialization::ISerializable</text>
<text text-anchor="start" x="70" y="-1478" font-family="Helvetica,sans-Serif" font-size="10.00"> </text>
<text text-anchor="start" x="70" y="-1463" font-family="Helvetica,sans-Serif" font-size="10.00"> </text>
<polygon fill="#666666" stroke="#666666" points="0.5,-1488 0.5,-1488 143.5,-1488 143.5,-1488 0.5,-1488"/>
<polygon fill="#666666" stroke="#666666" points="0.5,-1473 0.5,-1473 143.5,-1473 143.5,-1473 0.5,-1473"/>
<polygon fill="none" stroke="#666666" points="0,-1456 0,-1516 143,-1516 143,-1456 0,-1456"/>
</a>
</g>
</g>
<!-- Node3&#45;&gt;Node2 -->
<g id="edge2_Node000002_Node000003" class="edge">
<title>Node3&#45;&gt;Node2</title>
<g id="a_edge2_Node000002_Node000003"><a xlink:title=" ">
<path fill="none" stroke="#63b8ff" d="M84.69,-1446.44C89.93,-1431.11 96.49,-1411.95 103.89,-1390.32"/>
<polygon fill="none" stroke="#63b8ff" points="81.36,-1445.34 81.44,-1455.94 87.99,-1447.61 81.36,-1445.34"/>
</a>
</g>
</g>
<!-- Node4 -->
<g id="Node000004" class="node">
<title>Node4</title>
<g id="a_Node000004"><a xlink:title=" ">
<polygon fill="white" stroke="transparent" points="296,-1516 161,-1516 161,-1456 296,-1456 296,-1516"/>
<text text-anchor="start" x="166.5" y="-1504" font-family="Helvetica,sans-Serif" font-size="10.00">global::SystemIEquatable</text>
<text text-anchor="start" x="166.5" y="-1493" font-family="Helvetica,sans-Serif" font-size="10.00">&lt; global::System.IntPtr &gt;</text>
<text text-anchor="start" x="227" y="-1478" font-family="Helvetica,sans-Serif" font-size="10.00"> </text>
<text text-anchor="start" x="227" y="-1463" font-family="Helvetica,sans-Serif" font-size="10.00"> </text>
<polygon fill="#666666" stroke="#666666" points="161.5,-1488 161.5,-1488 296.5,-1488 296.5,-1488 161.5,-1488"/>
<polygon fill="#666666" stroke="#666666" points="161.5,-1473 161.5,-1473 296.5,-1473 296.5,-1473 161.5,-1473"/>
<polygon fill="none" stroke="#666666" points="161,-1456 161,-1516 296,-1516 296,-1456 161,-1456"/>
</a>
</g>
</g>
<!-- Node4&#45;&gt;Node2 -->
<g id="edge3_Node000002_Node000004" class="edge">
<title>Node4&#45;&gt;Node2</title>
<g id="a_edge3_Node000002_Node000004"><a xlink:title=" ">
<path fill="none" stroke="#63b8ff" d="M228.5,-1445.67C228.5,-1435.18 228.5,-1422.94 228.5,-1409.37"/>
<polygon fill="none" stroke="#63b8ff" points="225,-1445.94 228.5,-1455.94 232,-1445.94 225,-1445.94"/>
</a>
</g>
</g>
<!-- Node5 -->
<g id="Node000005" class="node">
<title>Node5</title>
<g id="a_Node000005"><a xlink:title=" ">
<polygon fill="white" stroke="transparent" points="436.5,-1510.5 314.5,-1510.5 314.5,-1461.5 436.5,-1461.5 436.5,-1510.5"/>
<text text-anchor="start" x="319.5" y="-1498" font-family="Helvetica,sans-Serif" font-size="10.00">unsafe readonly void *</text>
<text text-anchor="start" x="373.5" y="-1483" font-family="Helvetica,sans-Serif" font-size="10.00"> </text>
<text text-anchor="start" x="373.5" y="-1468" font-family="Helvetica,sans-Serif" font-size="10.00"> </text>
<polygon fill="#666666" stroke="#666666" points="314.5,-1493 314.5,-1493 436.5,-1493 436.5,-1493 314.5,-1493"/>
<polygon fill="#666666" stroke="#666666" points="314.5,-1478 314.5,-1478 436.5,-1478 436.5,-1478 314.5,-1478"/>
<polygon fill="none" stroke="#666666" points="314.5,-1461.5 314.5,-1510.5 436.5,-1510.5 436.5,-1461.5 314.5,-1461.5"/>
</a>
</g>
</g>
<!-- Node5&#45;&gt;Node2 -->
<g id="edge4_Node000002_Node000005" class="edge">
<title>Node5&#45;&gt;Node2</title>
<g id="a_edge4_Node000002_Node000005"><a xlink:title=" ">
<path fill="none" stroke="#63b8ff" d="M367.91,-1461.29C364.49,-1450.62 360.06,-1436.78 354.88,-1420.6"/>
<polygon fill="none" stroke="#63b8ff" points="354.83,-1420.47 349.2,-1415.98 351.17,-1409.05 356.81,-1413.54 354.83,-1420.47"/>
</a>
</g>
<text text-anchor="middle" x="385" y="-1430" font-family="Helvetica,sans-Serif" font-size="10.00" fill="grey"> &#45;m_value</text>
</g>
<!-- Node6 -->
<g id="Node000006" class="node">
<title>Node6</title>
<g id="a_Node000006"><a xlink:title=" ">
<polygon fill="white" stroke="transparent" points="581.5,-1049.5 423.5,-1049.5 423.5,-1000.5 581.5,-1000.5 581.5,-1049.5"/>
<text text-anchor="start" x="428.5" y="-1037" font-family="Helvetica,sans-Serif" font-size="10.00">bool&lt; disableInPlaceEditing &gt;</text>
<text text-anchor="start" x="500.5" y="-1022" font-family="Helvetica,sans-Serif" font-size="10.00"> </text>
<text text-anchor="start" x="500.5" y="-1007" font-family="Helvetica,sans-Serif" font-size="10.00"> </text>
<polygon fill="#666666" stroke="#666666" points="423.5,-1032 423.5,-1032 581.5,-1032 581.5,-1032 423.5,-1032"/>
<polygon fill="#666666" stroke="#666666" points="423.5,-1017 423.5,-1017 581.5,-1017 581.5,-1017 423.5,-1017"/>
<polygon fill="none" stroke="#666666" points="423.5,-1000.5 423.5,-1049.5 581.5,-1049.5 581.5,-1000.5 423.5,-1000.5"/>
</a>
</g>
</g>
<!-- Node6&#45;&gt;Node1 -->
<g id="edge6_Node000001_Node000006" class="edge">
<title>Node6&#45;&gt;Node1</title>
<g id="a_edge6_Node000001_Node000006"><a xlink:title=" ">
<path fill="none" stroke="#63b8ff" d="M497.99,-1000.26C486.19,-938.21 453.27,-765.01 423.07,-606.15"/>
<polygon fill="none" stroke="#63b8ff" points="423.05,-606.05 418,-600.9 420.81,-594.26 425.86,-599.4 423.05,-606.05"/>
</a>
</g>
<text text-anchor="middle" x="468.5" y="-615" font-family="Helvetica,sans-Serif" font-size="10.00" fill="grey"> &#45;k__BackingField</text>
</g>
<!-- Node7 -->
<g id="Node000007" class="node">
<title>Node7</title>
<g id="a_Node000007"><a xlink:title=" ">
<polygon fill="white" stroke="transparent" points="518.5,-1510.5 486.5,-1510.5 486.5,-1461.5 518.5,-1461.5 518.5,-1510.5"/>
<text text-anchor="start" x="491.5" y="-1498" font-family="Helvetica,sans-Serif" font-size="10.00">bool</text>
<text text-anchor="start" x="500.5" y="-1483" font-family="Helvetica,sans-Serif" font-size="10.00"> </text>
<text text-anchor="start" x="500.5" y="-1468" font-family="Helvetica,sans-Serif" font-size="10.00"> </text>
<polygon fill="#666666" stroke="#666666" points="486.5,-1493 486.5,-1493 518.5,-1493 518.5,-1493 486.5,-1493"/>
<polygon fill="#666666" stroke="#666666" points="486.5,-1478 486.5,-1478 518.5,-1478 518.5,-1478 486.5,-1478"/>
<polygon fill="none" stroke="#666666" points="486.5,-1461.5 486.5,-1510.5 518.5,-1510.5 518.5,-1461.5 486.5,-1461.5"/>
</a>
</g>
</g>
<!-- Node7&#45;&gt;Node6 -->
<g id="edge7_Node000006_Node000007" class="edge">
<title>Node7&#45;&gt;Node6</title>
<g id="a_edge7_Node000006_Node000007"><a xlink:title=" ">
<path fill="none" stroke="orange" d="M502.5,-1451.25C502.5,-1362.69 502.5,-1125.31 502.5,-1049.57"/>
<polygon fill="orange" stroke="orange" points="499,-1451.29 502.5,-1461.29 506,-1451.29 499,-1451.29"/>
</a>
</g>
<text text-anchor="middle" x="567.5" y="-1430" font-family="Helvetica,sans-Serif" font-size="10.00" fill="grey"> &lt; disableInPlaceEditing &gt;</text>
</g>
</g>
</svg>

<g id="navigator" transform="translate(0 0)" fill="#404254">
  <rect fill="#f2f5e9" fill-opacity="0.5" stroke="#606060" stroke-width=".5" x="0" y="0" width="60" height="60"/>
  <use id="zoomplus" xlink:href="#zoomPlus" x="17" y="9" onmousedown="handleZoom(evt,'in')"/>
  <use id="zoomminus" xlink:href="#zoomMin" x="42" y="9" onmousedown="handleZoom(evt,'out')"/>
  <use id="reset" xlink:href="#resetDef" x="30" y="36" onmousedown="handleReset()"/>
   <use id="arrowup" xlink:href="#arrowUp" x="0" y="0" onmousedown="handlePan(0,-1)"/>
  <use id="arrowright" xlink:href="#arrowRight" x="0" y="0" onmousedown="handlePan(1,0)"/>
  <use id="arrowdown" xlink:href="#arrowDown" x="0" y="0" onmousedown="handlePan(0,1)"/>
  <use id="arrowleft" xlink:href="#arrowLeft" x="0" y="0" onmousedown="handlePan(-1,0)"/>
</g>
<svg viewBox="0 0 15 15" width="100%" height="30px" preserveAspectRatio="xMaxYMin meet">
 <g id="arrow_out" transform="scale(0.3 0.3)">
  <a xlink:href="classUnityEngine_1_1TouchScreenKeyboard__coll__graph_org.svg" target="_base">
   <rect id="button" ry="5" rx="5" y="6" x="6" height="38" width="38"
        fill="#f2f5e9" fill-opacity="0.5" stroke="#606060" stroke-width="1.0"/>
   <path id="arrow"
     d="M 11.500037,31.436501 C 11.940474,20.09759 22.043105,11.32322 32.158766,21.979434 L 37.068811,17.246167 C 37.068811,17.246167 37.088388,32 37.088388,32 L 22.160133,31.978069 C 22.160133,31.978069 26.997745,27.140456 26.997745,27.140456 C 18.528582,18.264221 13.291696,25.230495 11.500037,31.436501 z"
     style="fill:#404040;"/>
  </a>
 </g>
</svg>

<style type='text/css'>
<![CDATA[
[data-mouse-over-selected='false'] { opacity: 0.7; }
[data-mouse-over-selected='true']  { opacity: 1.0; }
]]>
</style>
<script type="application/ecmascript"><![CDATA[
document.addEventListener('DOMContentLoaded', (event) => {
  highlightEdges();
  highlightAdjacentNodes();
});
]]></script>
</svg>
