<?xml version="1.0" encoding="UTF-8" standalone="no"?>
<!DOCTYPE svg PUBLIC "-//W3C//DTD SVG 1.1//EN"
 "http://www.w3.org/Graphics/SVG/1.1/DTD/svg11.dtd">
<!-- Generated by graphviz version 2.43.0 (0)
 -->
<!-- Title: Terraria.IO.ChestInfo_OldMobile Pages: 1 -->
<svg width="168pt" height="220pt"
 viewBox="0.00 0.00 168.00 220.00" xmlns="http://www.w3.org/2000/svg" xmlns:xlink="http://www.w3.org/1999/xlink">
<g id="graph0" class="graph" transform="scale(1 1) rotate(0) translate(4 216)">
<title>Terraria.IO.ChestInfo_OldMobile</title>
<!-- Node1 -->
<g id="Node000001" class="node">
<title>Node1</title>
<g id="a_Node000001"><a xlink:title=" ">
<polygon fill="#999999" stroke="transparent" points="160,-116 0,-116 0,0 160,0 160,-116"/>
<text text-anchor="start" x="30" y="-104" font-family="Helvetica,sans-Serif" font-size="10.00">Terraria.IO.ChestInfo</text>
<text text-anchor="start" x="52.5" y="-93" font-family="Helvetica,sans-Serif" font-size="10.00">_OldMobile</text>
<text text-anchor="start" x="78" y="-78" font-family="Helvetica,sans-Serif" font-size="10.00"> </text>
<text text-anchor="start" x="4" y="-63" font-family="Helvetica,sans-Serif" font-size="10.00">+</text>
<text text-anchor="start" x="17" y="-63" font-family="Helvetica,sans-Serif" font-size="10.00">bool Load(BinaryReader</text>
<text text-anchor="start" x="17" y="-52" font-family="Helvetica,sans-Serif" font-size="10.00"> reader, int release)</text>
<text text-anchor="start" x="4" y="-37" font-family="Helvetica,sans-Serif" font-size="10.00">+</text>
<text text-anchor="start" x="17" y="-37" font-family="Helvetica,sans-Serif" font-size="10.00">ChestInfo_OldMobile()</text>
<text text-anchor="start" x="6.5" y="-22" font-family="Helvetica,sans-Serif" font-size="10.00">&#45;</text>
<text text-anchor="start" x="17" y="-22" font-family="Helvetica,sans-Serif" font-size="10.00">void FixDresserChests()</text>
<text text-anchor="start" x="6.5" y="-7" font-family="Helvetica,sans-Serif" font-size="10.00">&#45;</text>
<text text-anchor="start" x="17" y="-7" font-family="Helvetica,sans-Serif" font-size="10.00">static ChestInfo_OldMobile()</text>
<polygon fill="#666666" stroke="#666666" points="0,-88 0,-88 160,-88 160,-88 0,-88"/>
<polygon fill="#666666" stroke="#666666" points="0,-73 0,-73 160,-73 160,-73 0,-73"/>
<polygon fill="none" stroke="#666666" points="0,0 0,-116 160,-116 160,0 0,0"/>
</a>
</g>
</g>
<!-- Node2 -->
<g id="Node000002" class="node">
<title>Node2</title>
<g id="a_Node000002"><a xlink:title=" ">
<polygon fill="white" stroke="transparent" points="96,-212 64,-212 64,-163 96,-163 96,-212"/>
<text text-anchor="start" x="69" y="-199.5" font-family="Helvetica,sans-Serif" font-size="10.00">byte</text>
<text text-anchor="start" x="78" y="-184.5" font-family="Helvetica,sans-Serif" font-size="10.00"> </text>
<text text-anchor="start" x="78" y="-169.5" font-family="Helvetica,sans-Serif" font-size="10.00"> </text>
<polygon fill="#666666" stroke="#666666" points="64,-194.5 64,-194.5 96,-194.5 96,-194.5 64,-194.5"/>
<polygon fill="#666666" stroke="#666666" points="64,-179.5 64,-179.5 96,-179.5 96,-179.5 64,-179.5"/>
<polygon fill="none" stroke="#666666" points="64,-163 64,-212 96,-212 96,-163 64,-163"/>
</a>
</g>
</g>
<!-- Node2&#45;&gt;Node1 -->
<g id="edge1_Node000001_Node000002" class="edge">
<title>Node2&#45;&gt;Node1</title>
<g id="a_edge1_Node000001_Node000002"><a xlink:title=" ">
<path fill="none" stroke="#63b8ff" d="M80,-162.82C80,-152.93 80,-140.89 80,-128.55"/>
<polygon fill="none" stroke="#63b8ff" points="80,-128.18 76,-122.18 80,-116.18 84,-122.18 80,-128.18"/>
</a>
</g>
<text text-anchor="middle" x="92.5" y="-137" font-family="Helvetica,sans-Serif" font-size="10.00" fill="grey"> &#45;bits</text>
</g>
</g>
</svg>
