<?xml version="1.0" encoding="UTF-8" standalone="no"?>
<!DOCTYPE svg PUBLIC "-//W3C//DTD SVG 1.1//EN"
 "http://www.w3.org/Graphics/SVG/1.1/DTD/svg11.dtd">
<!-- Generated by graphviz version 2.43.0 (0)
 -->
<!-- Title: System.Security.Cryptography.Constants Pages: 1 -->
<!--zoomable 446 -->

<svg id="main" version="1.1" xmlns="http://www.w3.org/2000/svg" xmlns:xlink="http://www.w3.org/1999/xlink" xml:space="preserve" onload="init(evt)">
<style type="text/css"><![CDATA[
.node, .edge {opacity: 0.7;}
.node.selected, .edge.selected {opacity: 1;}
.edge:hover path { stroke: red; }
.edge:hover polygon { stroke: red; fill: red; }
]]></style>

<defs>
  <circle id="rim" cx="0" cy="0" r="7"/>
  <circle id="rim2" cx="0" cy="0" r="3.5"/>
  <g id="zoomPlus">
    <use xlink:href="#rim" fill="#404040"><set attributeName="fill" to="#808080" begin="zoomplus.mouseover" end="zoomplus.mouseout"/></use>
    <path d="M-4,0h8M0,-4v8" fill="none" stroke="white" stroke-width="1.5" pointer-events="none"/>
  </g>
  <g id="zoomMin">
    <use xlink:href="#rim" fill="#404040"><set attributeName="fill" to="#808080" begin="zoomminus.mouseover" end="zoomminus.mouseout"/></use>
    <path d="M-4,0h8" fill="none" stroke="white" stroke-width="1.5" pointer-events="none"/>
  </g>
  <g id="arrowUp" transform="translate(30 24)">
    <use xlink:href="#rim"/>
    <path pointer-events="none" fill="none" stroke="white" stroke-width="1.5" d="M0,-3.0v7 M-2.5,-0.5L0,-3.0L2.5,-0.5"/>
  </g>
  <g id="arrowRight" transform="rotate(90) translate(36 -43)">
    <use xlink:href="#rim"/>
    <path pointer-events="none" fill="none" stroke="white" stroke-width="1.5" d="M0,-3.0v7 M-2.5,-0.5L0,-3.0L2.5,-0.5"/>
  </g>
  <g id="arrowDown" transform="rotate(180) translate(-30 -48)">
    <use xlink:href="#rim"/>
    <path pointer-events="none" fill="none" stroke="white" stroke-width="1.5" d="M0,-3.0v7 M-2.5,-0.5L0,-3.0L2.5,-0.5"/>
  </g>
  <g id="arrowLeft" transform="rotate(270) translate(-36 17)">
    <use xlink:href="#rim"/>
    <path pointer-events="none" fill="none" stroke="white" stroke-width="1.5" d="M0,-3.0v7 M-2.5,-0.5L0,-3.0L2.5,-0.5"/>
  </g>
  <g id="resetDef">
    <use xlink:href="#rim2" fill="#404040"><set attributeName="fill" to="#808080" begin="reset.mouseover" end="reset.mouseout"/></use>
  </g>
</defs>
<script type="application/ecmascript">
var viewWidth = 514;
var viewHeight = 446;
var sectionId = 'dynsection-0';
</script>
<script type="application/ecmascript" xlink:href="../../svg.min.js"/>
<svg id="graph" class="graph">
<g id="viewport">
<title>System.Security.Cryptography.Constants</title>
<!-- Node1 -->
<g id="Node000001" class="node">
<title>Node1</title>
<g id="a_Node000001"><a xlink:title=" ">
<polygon fill="#999999" stroke="transparent" points="267,-232 98,-232 98,0 267,0 267,-232"/>
<text text-anchor="start" x="108.5" y="-220" font-family="Helvetica,sans-Serif" font-size="10.00">System.Security.Cryptography.</text>
<text text-anchor="start" x="158.5" y="-209" font-family="Helvetica,sans-Serif" font-size="10.00">Constants</text>
<text text-anchor="start" x="102.5" y="-194" font-family="Helvetica,sans-Serif" font-size="10.00">~</text>
<text text-anchor="start" x="115.5" y="-194" font-family="Helvetica,sans-Serif" font-size="10.00">const int S_OK</text>
<text text-anchor="start" x="102.5" y="-179" font-family="Helvetica,sans-Serif" font-size="10.00">~</text>
<text text-anchor="start" x="115.5" y="-179" font-family="Helvetica,sans-Serif" font-size="10.00">const int NTE_FILENOTFOUND</text>
<text text-anchor="start" x="102.5" y="-164" font-family="Helvetica,sans-Serif" font-size="10.00">~</text>
<text text-anchor="start" x="115.5" y="-164" font-family="Helvetica,sans-Serif" font-size="10.00">const int NTE_NO_KEY</text>
<text text-anchor="start" x="102.5" y="-149" font-family="Helvetica,sans-Serif" font-size="10.00">~</text>
<text text-anchor="start" x="115.5" y="-149" font-family="Helvetica,sans-Serif" font-size="10.00">const int NTE_BAD_KEYSET</text>
<text text-anchor="start" x="102.5" y="-134" font-family="Helvetica,sans-Serif" font-size="10.00">~</text>
<text text-anchor="start" x="115.5" y="-134" font-family="Helvetica,sans-Serif" font-size="10.00">const int NTE_KEYSET</text>
<text text-anchor="start" x="115.5" y="-123" font-family="Helvetica,sans-Serif" font-size="10.00">_NOT_DEF</text>
<text text-anchor="start" x="102.5" y="-108" font-family="Helvetica,sans-Serif" font-size="10.00">~</text>
<text text-anchor="start" x="115.5" y="-108" font-family="Helvetica,sans-Serif" font-size="10.00">const int KP_IV</text>
<text text-anchor="start" x="102.5" y="-93" font-family="Helvetica,sans-Serif" font-size="10.00">~</text>
<text text-anchor="start" x="115.5" y="-93" font-family="Helvetica,sans-Serif" font-size="10.00">const int KP_MODE</text>
<text text-anchor="start" x="102.5" y="-78" font-family="Helvetica,sans-Serif" font-size="10.00">~</text>
<text text-anchor="start" x="115.5" y="-78" font-family="Helvetica,sans-Serif" font-size="10.00">const int KP_MODE_BITS</text>
<text text-anchor="start" x="102.5" y="-63" font-family="Helvetica,sans-Serif" font-size="10.00">~</text>
<text text-anchor="start" x="115.5" y="-63" font-family="Helvetica,sans-Serif" font-size="10.00">const int KP_EFFECTIVE</text>
<text text-anchor="start" x="115.5" y="-52" font-family="Helvetica,sans-Serif" font-size="10.00">_KEYLEN</text>
<text text-anchor="start" x="102.5" y="-37" font-family="Helvetica,sans-Serif" font-size="10.00">~</text>
<text text-anchor="start" x="115.5" y="-37" font-family="Helvetica,sans-Serif" font-size="10.00">const int CALG_MD5</text>
<text text-anchor="start" x="115.5" y="-22" font-family="Helvetica,sans-Serif" font-size="10.00">and 29 more...</text>
<text text-anchor="start" x="181" y="-7" font-family="Helvetica,sans-Serif" font-size="10.00"> </text>
<polygon fill="#666666" stroke="#666666" points="98.5,-204 98.5,-204 267.5,-204 267.5,-204 98.5,-204"/>
<polygon fill="#666666" stroke="#666666" points="98.5,-17 98.5,-17 113.5,-17 113.5,-17 98.5,-17"/>
<polygon fill="#666666" stroke="#666666" points="113.5,-17 113.5,-17 267.5,-17 267.5,-17 113.5,-17"/>
<polygon fill="none" stroke="#666666" points="98,0 98,-232 267,-232 267,0 98,0"/>
</a>
</g>
</g>
<!-- Node2 -->
<g id="Node000002" class="node">
<title>Node2</title>
<g id="a_Node000002"><a xlink:title=" ">
<polygon fill="white" stroke="transparent" points="23,-438 0,-438 0,-389 23,-389 23,-438"/>
<text text-anchor="start" x="5.5" y="-425.5" font-family="Helvetica,sans-Serif" font-size="10.00">int</text>
<text text-anchor="start" x="10" y="-410.5" font-family="Helvetica,sans-Serif" font-size="10.00"> </text>
<text text-anchor="start" x="10" y="-395.5" font-family="Helvetica,sans-Serif" font-size="10.00"> </text>
<polygon fill="#666666" stroke="#666666" points="0.5,-420.5 0.5,-420.5 23.5,-420.5 23.5,-420.5 0.5,-420.5"/>
<polygon fill="#666666" stroke="#666666" points="0.5,-405.5 0.5,-405.5 23.5,-405.5 23.5,-405.5 0.5,-405.5"/>
<polygon fill="none" stroke="#666666" points="0,-389 0,-438 23,-438 23,-389 0,-389"/>
</a>
</g>
</g>
<!-- Node2&#45;&gt;Node1 -->
<g id="edge1_Node000001_Node000002" class="edge">
<title>Node2&#45;&gt;Node1</title>
<g id="a_edge1_Node000001_Node000002"><a xlink:title=" ">
<path fill="none" stroke="#63b8ff" d="M9.16,-388.9C6.97,-355.83 6.97,-294.75 30.5,-250 44.42,-223.54 65.92,-199.96 88.42,-180.26"/>
<polygon fill="none" stroke="#63b8ff" points="88.6,-180.11 90.59,-173.18 97.75,-172.35 95.76,-179.28 88.6,-180.11"/>
</a>
</g>
<text text-anchor="middle" x="104.5" y="-363" font-family="Helvetica,sans-Serif" font-size="10.00" fill="grey"> ~ALG_CLASS_DATA_ENCRYPT</text>
<text text-anchor="middle" x="104.5" y="-352" font-family="Helvetica,sans-Serif" font-size="10.00" fill="grey">~ALG_CLASS_HASH</text>
<text text-anchor="middle" x="104.5" y="-341" font-family="Helvetica,sans-Serif" font-size="10.00" fill="grey">~ALG_CLASS_KEY_EXCHANGE</text>
<text text-anchor="middle" x="104.5" y="-330" font-family="Helvetica,sans-Serif" font-size="10.00" fill="grey">~ALG_CLASS_SIGNATURE</text>
<text text-anchor="middle" x="104.5" y="-319" font-family="Helvetica,sans-Serif" font-size="10.00" fill="grey">~ALG_TYPE_ANY</text>
<text text-anchor="middle" x="104.5" y="-308" font-family="Helvetica,sans-Serif" font-size="10.00" fill="grey">~ALG_TYPE_BLOCK</text>
<text text-anchor="middle" x="104.5" y="-297" font-family="Helvetica,sans-Serif" font-size="10.00" fill="grey">~ALG_TYPE_DSS</text>
<text text-anchor="middle" x="104.5" y="-286" font-family="Helvetica,sans-Serif" font-size="10.00" fill="grey">~ALG_TYPE_RSA</text>
<text text-anchor="middle" x="104.5" y="-275" font-family="Helvetica,sans-Serif" font-size="10.00" fill="grey">~ALG_TYPE_STREAM</text>
<text text-anchor="middle" x="104.5" y="-264" font-family="Helvetica,sans-Serif" font-size="10.00" fill="grey">~AT_KEYEXCHANGE</text>
<text text-anchor="middle" x="104.5" y="-253" font-family="Helvetica,sans-Serif" font-size="10.00" fill="grey">...</text>
</g>
<!-- Node3 -->
<g id="Node000003" class="node">
<title>Node3</title>
<g id="a_Node000003"><a xlink:title=" ">
<polygon fill="white" stroke="transparent" points="197,-438 168,-438 168,-389 197,-389 197,-438"/>
<text text-anchor="start" x="173.5" y="-425.5" font-family="Helvetica,sans-Serif" font-size="10.00">uint</text>
<text text-anchor="start" x="181" y="-410.5" font-family="Helvetica,sans-Serif" font-size="10.00"> </text>
<text text-anchor="start" x="181" y="-395.5" font-family="Helvetica,sans-Serif" font-size="10.00"> </text>
<polygon fill="#666666" stroke="#666666" points="168.5,-420.5 168.5,-420.5 197.5,-420.5 197.5,-420.5 168.5,-420.5"/>
<polygon fill="#666666" stroke="#666666" points="168.5,-405.5 168.5,-405.5 197.5,-405.5 197.5,-405.5 168.5,-405.5"/>
<polygon fill="none" stroke="#666666" points="168,-389 168,-438 197,-438 197,-389 168,-389"/>
</a>
</g>
</g>
<!-- Node3&#45;&gt;Node1 -->
<g id="edge2_Node000001_Node000003" class="edge">
<title>Node3&#45;&gt;Node1</title>
<g id="a_edge2_Node000001_Node000003"><a xlink:title=" ">
<path fill="none" stroke="#63b8ff" d="M182.5,-388.82C182.5,-357.24 182.5,-298.98 182.5,-244.48"/>
<polygon fill="none" stroke="#63b8ff" points="182.5,-244.19 178.5,-238.19 182.5,-232.19 186.5,-238.19 182.5,-244.19"/>
</a>
</g>
<text text-anchor="middle" x="243.5" y="-363" font-family="Helvetica,sans-Serif" font-size="10.00" fill="grey"> ~CLR_ACCESSIBLE</text>
<text text-anchor="middle" x="243.5" y="-352" font-family="Helvetica,sans-Serif" font-size="10.00" fill="grey">~CLR_ALGID</text>
<text text-anchor="middle" x="243.5" y="-341" font-family="Helvetica,sans-Serif" font-size="10.00" fill="grey">~CLR_EXPORTABLE</text>
<text text-anchor="middle" x="243.5" y="-330" font-family="Helvetica,sans-Serif" font-size="10.00" fill="grey">~CLR_HARDWARE</text>
<text text-anchor="middle" x="243.5" y="-319" font-family="Helvetica,sans-Serif" font-size="10.00" fill="grey">~CLR_KEYLEN</text>
<text text-anchor="middle" x="243.5" y="-308" font-family="Helvetica,sans-Serif" font-size="10.00" fill="grey">~CLR_PP_CLIENT_HWND</text>
<text text-anchor="middle" x="243.5" y="-297" font-family="Helvetica,sans-Serif" font-size="10.00" fill="grey">~CLR_PP_PIN</text>
<text text-anchor="middle" x="243.5" y="-286" font-family="Helvetica,sans-Serif" font-size="10.00" fill="grey">~CLR_PROTECTED</text>
<text text-anchor="middle" x="243.5" y="-275" font-family="Helvetica,sans-Serif" font-size="10.00" fill="grey">~CLR_PUBLICKEYONLY</text>
<text text-anchor="middle" x="243.5" y="-264" font-family="Helvetica,sans-Serif" font-size="10.00" fill="grey">~CLR_REMOVABLE</text>
<text text-anchor="middle" x="243.5" y="-253" font-family="Helvetica,sans-Serif" font-size="10.00" fill="grey">...</text>
</g>
<!-- Node4 -->
<g id="Node000004" class="node">
<title>Node4</title>
<g id="a_Node000004"><a xlink:title=" ">
<polygon fill="white" stroke="transparent" points="346.5,-438 308.5,-438 308.5,-389 346.5,-389 346.5,-438"/>
<text text-anchor="start" x="313.5" y="-425.5" font-family="Helvetica,sans-Serif" font-size="10.00">string</text>
<text text-anchor="start" x="325.5" y="-410.5" font-family="Helvetica,sans-Serif" font-size="10.00"> </text>
<text text-anchor="start" x="325.5" y="-395.5" font-family="Helvetica,sans-Serif" font-size="10.00"> </text>
<polygon fill="#666666" stroke="#666666" points="308.5,-420.5 308.5,-420.5 346.5,-420.5 346.5,-420.5 308.5,-420.5"/>
<polygon fill="#666666" stroke="#666666" points="308.5,-405.5 308.5,-405.5 346.5,-405.5 346.5,-405.5 308.5,-405.5"/>
<polygon fill="none" stroke="#666666" points="308.5,-389 308.5,-438 346.5,-438 346.5,-389 308.5,-389"/>
</a>
</g>
</g>
<!-- Node4&#45;&gt;Node1 -->
<g id="edge3_Node000001_Node000004" class="edge">
<title>Node4&#45;&gt;Node1</title>
<g id="a_edge3_Node000001_Node000004"><a xlink:title=" ">
<path fill="none" stroke="#63b8ff" d="M328.64,-388.93C329.29,-356.15 327.04,-295.71 305.5,-250 297.64,-233.31 286.92,-217.29 275.07,-202.51"/>
<polygon fill="none" stroke="#63b8ff" points="274.81,-202.2 267.9,-200.14 267.14,-192.97 274.05,-195.03 274.81,-202.2"/>
</a>
</g>
<text text-anchor="middle" x="417" y="-363" font-family="Helvetica,sans-Serif" font-size="10.00" fill="grey"> ~OID_OIWSEC_RIPEMD160</text>
<text text-anchor="middle" x="417" y="-352" font-family="Helvetica,sans-Serif" font-size="10.00" fill="grey">~OID_OIWSEC_SHA1</text>
<text text-anchor="middle" x="417" y="-341" font-family="Helvetica,sans-Serif" font-size="10.00" fill="grey">~OID_OIWSEC_SHA256</text>
<text text-anchor="middle" x="417" y="-330" font-family="Helvetica,sans-Serif" font-size="10.00" fill="grey">~OID_OIWSEC_SHA384</text>
<text text-anchor="middle" x="417" y="-319" font-family="Helvetica,sans-Serif" font-size="10.00" fill="grey">~OID_OIWSEC_SHA512</text>
<text text-anchor="middle" x="417" y="-308" font-family="Helvetica,sans-Serif" font-size="10.00" fill="grey">~OID_OIWSEC_desCBC</text>
<text text-anchor="middle" x="417" y="-297" font-family="Helvetica,sans-Serif" font-size="10.00" fill="grey">~OID_RSA_DES_EDE3_CBC</text>
<text text-anchor="middle" x="417" y="-286" font-family="Helvetica,sans-Serif" font-size="10.00" fill="grey">~OID_RSA_MD5</text>
<text text-anchor="middle" x="417" y="-275" font-family="Helvetica,sans-Serif" font-size="10.00" fill="grey">~OID_RSA_RC2CBC</text>
<text text-anchor="middle" x="417" y="-264" font-family="Helvetica,sans-Serif" font-size="10.00" fill="grey">~OID_RSA_SMIMEalgCMS3DESwrap</text>
<text text-anchor="middle" x="417" y="-253" font-family="Helvetica,sans-Serif" font-size="10.00" fill="grey">...</text>
</g>
</g>
</svg>

<g id="navigator" transform="translate(0 0)" fill="#404254">
  <rect fill="#f2f5e9" fill-opacity="0.5" stroke="#606060" stroke-width=".5" x="0" y="0" width="60" height="60"/>
  <use id="zoomplus" xlink:href="#zoomPlus" x="17" y="9" onmousedown="handleZoom(evt,'in')"/>
  <use id="zoomminus" xlink:href="#zoomMin" x="42" y="9" onmousedown="handleZoom(evt,'out')"/>
  <use id="reset" xlink:href="#resetDef" x="30" y="36" onmousedown="handleReset()"/>
   <use id="arrowup" xlink:href="#arrowUp" x="0" y="0" onmousedown="handlePan(0,-1)"/>
  <use id="arrowright" xlink:href="#arrowRight" x="0" y="0" onmousedown="handlePan(1,0)"/>
  <use id="arrowdown" xlink:href="#arrowDown" x="0" y="0" onmousedown="handlePan(0,1)"/>
  <use id="arrowleft" xlink:href="#arrowLeft" x="0" y="0" onmousedown="handlePan(-1,0)"/>
</g>
<svg viewBox="0 0 15 15" width="100%" height="30px" preserveAspectRatio="xMaxYMin meet">
 <g id="arrow_out" transform="scale(0.3 0.3)">
  <a xlink:href="classSystem_1_1Security_1_1Cryptography_1_1Constants__coll__graph_org.svg" target="_base">
   <rect id="button" ry="5" rx="5" y="6" x="6" height="38" width="38"
        fill="#f2f5e9" fill-opacity="0.5" stroke="#606060" stroke-width="1.0"/>
   <path id="arrow"
     d="M 11.500037,31.436501 C 11.940474,20.09759 22.043105,11.32322 32.158766,21.979434 L 37.068811,17.246167 C 37.068811,17.246167 37.088388,32 37.088388,32 L 22.160133,31.978069 C 22.160133,31.978069 26.997745,27.140456 26.997745,27.140456 C 18.528582,18.264221 13.291696,25.230495 11.500037,31.436501 z"
     style="fill:#404040;"/>
  </a>
 </g>
</svg>

<style type='text/css'>
<![CDATA[
[data-mouse-over-selected='false'] { opacity: 0.7; }
[data-mouse-over-selected='true']  { opacity: 1.0; }
]]>
</style>
<script type="application/ecmascript"><![CDATA[
document.addEventListener('DOMContentLoaded', (event) => {
  highlightEdges();
  highlightAdjacentNodes();
});
]]></script>
</svg>
