<?xml version="1.0" encoding="UTF-8" standalone="no"?>
<!DOCTYPE svg PUBLIC "-//W3C//DTD SVG 1.1//EN"
 "http://www.w3.org/Graphics/SVG/1.1/DTD/svg11.dtd">
<!-- Generated by graphviz version 2.43.0 (0)
 -->
<!-- Title: NaughtyAttributes.IDropdownList Pages: 1 -->
<svg width="324pt" height="358pt"
 viewBox="0.00 0.00 324.00 358.00" xmlns="http://www.w3.org/2000/svg" xmlns:xlink="http://www.w3.org/1999/xlink">
<g id="graph0" class="graph" transform="scale(1 1) rotate(0) translate(4 354)">
<title>NaughtyAttributes.IDropdownList</title>
<!-- Node1 -->
<g id="Node000001" class="node">
<title>Node1</title>
<g id="a_Node000001"><a xlink:title=" ">
<polygon fill="#999999" stroke="transparent" points="194.5,-49 21.5,-49 21.5,0 194.5,0 194.5,-49"/>
<text text-anchor="start" x="27" y="-36.5" font-family="Helvetica,sans-Serif" font-size="10.00">NaughtyAttributes.IDropdownList</text>
<text text-anchor="start" x="106.5" y="-21.5" font-family="Helvetica,sans-Serif" font-size="10.00"> </text>
<text text-anchor="start" x="106.5" y="-6.5" font-family="Helvetica,sans-Serif" font-size="10.00"> </text>
<polygon fill="#666666" stroke="#666666" points="22,-31.5 22,-31.5 195,-31.5 195,-31.5 22,-31.5"/>
<polygon fill="#666666" stroke="#666666" points="22,-16.5 22,-16.5 195,-16.5 195,-16.5 22,-16.5"/>
<polygon fill="none" stroke="#666666" points="21.5,0 21.5,-49 194.5,-49 194.5,0 21.5,0"/>
</a>
</g>
</g>
<!-- Node2 -->
<g id="Node000002" class="node">
<title>Node2</title>
<g id="a_Node000002"><a xlink:href="../../d2/d2c/interfaceSystem_1_1Collections_1_1Generic_1_1IEnumerable.html" target="_top" xlink:title=" ">
<polygon fill="white" stroke="transparent" points="293.5,-146 98.5,-146 98.5,-86 293.5,-86 293.5,-146"/>
<text text-anchor="start" x="128.5" y="-134" font-family="Helvetica,sans-Serif" font-size="10.00">IEnumerable&lt; KeyValuePair</text>
<text text-anchor="start" x="147.5" y="-123" font-family="Helvetica,sans-Serif" font-size="10.00">&lt; string, object &gt; &gt;</text>
<text text-anchor="start" x="194.5" y="-108" font-family="Helvetica,sans-Serif" font-size="10.00"> </text>
<text text-anchor="start" x="103" y="-93" font-family="Helvetica,sans-Serif" font-size="10.00">+</text>
<text text-anchor="start" x="116" y="-93" font-family="Helvetica,sans-Serif" font-size="10.00">IEnumerator&lt; T &gt; GetEnumerator()</text>
<polygon fill="#666666" stroke="#666666" points="99,-118 99,-118 294,-118 294,-118 99,-118"/>
<polygon fill="#666666" stroke="#666666" points="99,-103 99,-103 294,-103 294,-103 99,-103"/>
<polygon fill="none" stroke="#666666" points="98.5,-86 98.5,-146 293.5,-146 293.5,-86 98.5,-86"/>
</a>
</g>
</g>
<!-- Node2&#45;&gt;Node1 -->
<g id="edge1_Node000001_Node000002" class="edge">
<title>Node2&#45;&gt;Node1</title>
<g id="a_edge1_Node000001_Node000002"><a xlink:title=" ">
<path fill="none" stroke="#63b8ff" d="M159.93,-78.32C150.27,-68.49 140.08,-58.13 131.31,-49.21"/>
<polygon fill="none" stroke="#63b8ff" points="157.68,-81.02 167.19,-85.69 162.67,-76.11 157.68,-81.02"/>
</a>
</g>
</g>
<!-- Node3 -->
<g id="Node000003" class="node">
<title>Node3</title>
<g id="a_Node000003"><a xlink:href="../../d2/d2c/interfaceSystem_1_1Collections_1_1Generic_1_1IEnumerable.html" target="_top" xlink:title=" ">
<polygon fill="white" stroke="transparent" points="293.5,-264 98.5,-264 98.5,-204 293.5,-204 293.5,-264"/>
<text text-anchor="start" x="127.5" y="-252" font-family="Helvetica,sans-Serif" font-size="10.00">System.Collections.Generic.</text>
<text text-anchor="start" x="142" y="-241" font-family="Helvetica,sans-Serif" font-size="10.00">IEnumerable&lt; out T &gt;</text>
<text text-anchor="start" x="194.5" y="-226" font-family="Helvetica,sans-Serif" font-size="10.00"> </text>
<text text-anchor="start" x="103" y="-211" font-family="Helvetica,sans-Serif" font-size="10.00">+</text>
<text text-anchor="start" x="116" y="-211" font-family="Helvetica,sans-Serif" font-size="10.00">IEnumerator&lt; T &gt; GetEnumerator()</text>
<polygon fill="#666666" stroke="#666666" points="99,-236 99,-236 294,-236 294,-236 99,-236"/>
<polygon fill="#666666" stroke="#666666" points="99,-221 99,-221 294,-221 294,-221 99,-221"/>
<polygon fill="none" stroke="#666666" points="98.5,-204 98.5,-264 293.5,-264 293.5,-204 98.5,-204"/>
</a>
</g>
</g>
<!-- Node3&#45;&gt;Node2 -->
<g id="edge2_Node000002_Node000003" class="edge">
<title>Node3&#45;&gt;Node2</title>
<g id="a_edge2_Node000002_Node000003"><a xlink:title=" ">
<path fill="none" stroke="orange" d="M196,-193.4C196,-177.95 196,-160.55 196,-146.26"/>
<polygon fill="orange" stroke="orange" points="192.5,-193.73 196,-203.73 199.5,-193.73 192.5,-193.73"/>
</a>
</g>
<text text-anchor="start" x="196" y="-178" font-family="Helvetica,sans-Serif" font-size="10.00" fill="grey"> &lt; KeyValuePair&lt; string,</text>
<text text-anchor="middle" x="256" y="-167" font-family="Helvetica,sans-Serif" font-size="10.00" fill="grey"> object &gt; &gt;</text>
</g>
<!-- Node4 -->
<g id="Node000004" class="node">
<title>Node4</title>
<g id="a_Node000004"><a xlink:href="../../d4/da3/interfaceSystem_1_1Collections_1_1IEnumerable.html" target="_top" xlink:title=" ">
<polygon fill="white" stroke="transparent" points="166,-350 0,-350 0,-301 166,-301 166,-350"/>
<text text-anchor="start" x="52" y="-337.5" font-family="Helvetica,sans-Serif" font-size="10.00">IEnumerable</text>
<text text-anchor="start" x="81" y="-322.5" font-family="Helvetica,sans-Serif" font-size="10.00"> </text>
<text text-anchor="start" x="4" y="-307.5" font-family="Helvetica,sans-Serif" font-size="10.00">+</text>
<text text-anchor="start" x="17" y="-307.5" font-family="Helvetica,sans-Serif" font-size="10.00">IEnumerator GetEnumerator()</text>
<polygon fill="#666666" stroke="#666666" points="0,-332.5 0,-332.5 166,-332.5 166,-332.5 0,-332.5"/>
<polygon fill="#666666" stroke="#666666" points="0,-317.5 0,-317.5 166,-317.5 166,-317.5 0,-317.5"/>
<polygon fill="none" stroke="#666666" points="0,-301 0,-350 166,-350 166,-301 0,-301"/>
</a>
</g>
</g>
<!-- Node4&#45;&gt;Node1 -->
<g id="edge4_Node000001_Node000004" class="edge">
<title>Node4&#45;&gt;Node1</title>
<g id="a_edge4_Node000001_Node000004"><a xlink:title=" ">
<path fill="none" stroke="#63b8ff" d="M81.26,-290.85C79.47,-244.43 78.39,-158.28 90,-86 92,-73.56 95.83,-60.08 99.45,-49.02"/>
<polygon fill="none" stroke="#63b8ff" points="77.77,-291.11 81.68,-300.95 84.76,-290.81 77.77,-291.11"/>
</a>
</g>
</g>
<!-- Node4&#45;&gt;Node3 -->
<g id="edge3_Node000003_Node000004" class="edge">
<title>Node4&#45;&gt;Node3</title>
<g id="a_edge3_Node000003_Node000004"><a xlink:title=" ">
<path fill="none" stroke="#63b8ff" d="M120.63,-294.69C133.06,-284.85 146.87,-273.91 159.24,-264.12"/>
<polygon fill="none" stroke="#63b8ff" points="118.36,-292.03 112.69,-300.98 122.7,-297.52 118.36,-292.03"/>
</a>
</g>
</g>
</g>
</svg>
