<?xml version="1.0" encoding="UTF-8" standalone="no"?>
<!DOCTYPE svg PUBLIC "-//W3C//DTD SVG 1.1//EN"
 "http://www.w3.org/Graphics/SVG/1.1/DTD/svg11.dtd">
<!-- Generated by graphviz version 2.43.0 (0)
 -->
<!-- Title: DrKeyboard_Touch Pages: 1 -->
<!--zoomable 583 -->

<svg id="main" version="1.1" xmlns="http://www.w3.org/2000/svg" xmlns:xlink="http://www.w3.org/1999/xlink" xml:space="preserve" onload="init(evt)">
<style type="text/css"><![CDATA[
.node, .edge {opacity: 0.7;}
.node.selected, .edge.selected {opacity: 1;}
.edge:hover path { stroke: red; }
.edge:hover polygon { stroke: red; fill: red; }
]]></style>

<defs>
  <circle id="rim" cx="0" cy="0" r="7"/>
  <circle id="rim2" cx="0" cy="0" r="3.5"/>
  <g id="zoomPlus">
    <use xlink:href="#rim" fill="#404040"><set attributeName="fill" to="#808080" begin="zoomplus.mouseover" end="zoomplus.mouseout"/></use>
    <path d="M-4,0h8M0,-4v8" fill="none" stroke="white" stroke-width="1.5" pointer-events="none"/>
  </g>
  <g id="zoomMin">
    <use xlink:href="#rim" fill="#404040"><set attributeName="fill" to="#808080" begin="zoomminus.mouseover" end="zoomminus.mouseout"/></use>
    <path d="M-4,0h8" fill="none" stroke="white" stroke-width="1.5" pointer-events="none"/>
  </g>
  <g id="arrowUp" transform="translate(30 24)">
    <use xlink:href="#rim"/>
    <path pointer-events="none" fill="none" stroke="white" stroke-width="1.5" d="M0,-3.0v7 M-2.5,-0.5L0,-3.0L2.5,-0.5"/>
  </g>
  <g id="arrowRight" transform="rotate(90) translate(36 -43)">
    <use xlink:href="#rim"/>
    <path pointer-events="none" fill="none" stroke="white" stroke-width="1.5" d="M0,-3.0v7 M-2.5,-0.5L0,-3.0L2.5,-0.5"/>
  </g>
  <g id="arrowDown" transform="rotate(180) translate(-30 -48)">
    <use xlink:href="#rim"/>
    <path pointer-events="none" fill="none" stroke="white" stroke-width="1.5" d="M0,-3.0v7 M-2.5,-0.5L0,-3.0L2.5,-0.5"/>
  </g>
  <g id="arrowLeft" transform="rotate(270) translate(-36 17)">
    <use xlink:href="#rim"/>
    <path pointer-events="none" fill="none" stroke="white" stroke-width="1.5" d="M0,-3.0v7 M-2.5,-0.5L0,-3.0L2.5,-0.5"/>
  </g>
  <g id="resetDef">
    <use xlink:href="#rim2" fill="#404040"><set attributeName="fill" to="#808080" begin="reset.mouseover" end="reset.mouseout"/></use>
  </g>
</defs>
<script type="application/ecmascript">
var viewWidth = 735;
var viewHeight = 583;
var sectionId = 'dynsection-0';
</script>
<script type="application/ecmascript" xlink:href="../../svg.min.js"/>
<svg id="graph" class="graph">
<g id="viewport">
<title>DrKeyboard_Touch</title>
<!-- Node1 -->
<g id="Node000001" class="node">
<title>Node1</title>
<g id="a_Node000001"><a xlink:title=" ">
<polygon fill="#999999" stroke="transparent" points="480.5,-345 243.5,-345 243.5,-151 480.5,-151 480.5,-345"/>
<text text-anchor="start" x="317" y="-333" font-family="Helvetica,sans-Serif" font-size="10.00">DrKeyboard_Touch</text>
<text text-anchor="start" x="248" y="-318" font-family="Helvetica,sans-Serif" font-size="10.00">+</text>
<text text-anchor="start" x="261" y="-318" font-family="Helvetica,sans-Serif" font-size="10.00">override bool active</text>
<text text-anchor="start" x="248" y="-303" font-family="Helvetica,sans-Serif" font-size="10.00">+</text>
<text text-anchor="start" x="261" y="-303" font-family="Helvetica,sans-Serif" font-size="10.00">override bool done</text>
<text text-anchor="start" x="248" y="-288" font-family="Helvetica,sans-Serif" font-size="10.00">+</text>
<text text-anchor="start" x="261" y="-288" font-family="Helvetica,sans-Serif" font-size="10.00">override string text</text>
<text text-anchor="start" x="248" y="-273" font-family="Helvetica,sans-Serif" font-size="10.00">+</text>
<text text-anchor="start" x="261" y="-273" font-family="Helvetica,sans-Serif" font-size="10.00">override bool wasCanceled</text>
<text text-anchor="start" x="250.5" y="-258" font-family="Helvetica,sans-Serif" font-size="10.00">&#45;</text>
<text text-anchor="start" x="261" y="-258" font-family="Helvetica,sans-Serif" font-size="10.00">TouchScreenKeyboard</text>
<text text-anchor="start" x="261" y="-247" font-family="Helvetica,sans-Serif" font-size="10.00"> _keyboard</text>
<text text-anchor="start" x="250.5" y="-232" font-family="Helvetica,sans-Serif" font-size="10.00">&#45;</text>
<text text-anchor="start" x="261" y="-232" font-family="Helvetica,sans-Serif" font-size="10.00">static bool appGainedFocus</text>
<text text-anchor="start" x="248" y="-217" font-family="Helvetica,sans-Serif" font-size="10.00">+</text>
<text text-anchor="start" x="261" y="-217" font-family="Helvetica,sans-Serif" font-size="10.00">DrKeyboard_Touch(TouchScreen</text>
<text text-anchor="start" x="261" y="-206" font-family="Helvetica,sans-Serif" font-size="10.00">KeyboardType type, string</text>
<text text-anchor="start" x="261" y="-195" font-family="Helvetica,sans-Serif" font-size="10.00"> initialText, int maxChars,</text>
<text text-anchor="start" x="261" y="-184" font-family="Helvetica,sans-Serif" font-size="10.00"> string title, string prompt,</text>
<text text-anchor="start" x="261" y="-173" font-family="Helvetica,sans-Serif" font-size="10.00"> bool password=false, bool multiline=false)</text>
<text text-anchor="start" x="248" y="-158" font-family="Helvetica,sans-Serif" font-size="10.00">+</text>
<text text-anchor="start" x="261" y="-158" font-family="Helvetica,sans-Serif" font-size="10.00">static void AppFocusGained()</text>
<polygon fill="#666666" stroke="#666666" points="244,-328 244,-328 481,-328 481,-328 244,-328"/>
<polygon fill="#666666" stroke="#666666" points="244,-227 244,-227 259,-227 259,-227 244,-227"/>
<polygon fill="#666666" stroke="#666666" points="259,-227 259,-227 481,-227 481,-227 259,-227"/>
<polygon fill="none" stroke="#666666" points="243.5,-151 243.5,-345 480.5,-345 480.5,-151 243.5,-151"/>
</a>
</g>
</g>
<!-- Node3 -->
<g id="Node000003" class="node">
<title>Node3</title>
<g id="a_Node000003"><a xlink:href="../../d7/d09/classDrKeyboard__PS4.html" target="_top" xlink:title=" ">
<polygon fill="white" stroke="transparent" points="166,-104 0,-104 0,-11 166,-11 166,-104"/>
<text text-anchor="start" x="42.5" y="-91.5" font-family="Helvetica,sans-Serif" font-size="10.00">DrKeyboard_PS4</text>
<text text-anchor="start" x="81" y="-76.5" font-family="Helvetica,sans-Serif" font-size="10.00"> </text>
<text text-anchor="start" x="4" y="-61.5" font-family="Helvetica,sans-Serif" font-size="10.00">+</text>
<text text-anchor="start" x="17" y="-61.5" font-family="Helvetica,sans-Serif" font-size="10.00">DrKeyboard_PS4(TouchScreen</text>
<text text-anchor="start" x="17" y="-50.5" font-family="Helvetica,sans-Serif" font-size="10.00">KeyboardType type, string</text>
<text text-anchor="start" x="17" y="-39.5" font-family="Helvetica,sans-Serif" font-size="10.00"> initialText, int maxChars,</text>
<text text-anchor="start" x="17" y="-28.5" font-family="Helvetica,sans-Serif" font-size="10.00"> string title, string prompt,</text>
<text text-anchor="start" x="17" y="-17.5" font-family="Helvetica,sans-Serif" font-size="10.00"> bool multiline)</text>
<polygon fill="#666666" stroke="#666666" points="0,-86.5 0,-86.5 166,-86.5 166,-86.5 0,-86.5"/>
<polygon fill="#666666" stroke="#666666" points="0,-71.5 0,-71.5 166,-71.5 166,-71.5 0,-71.5"/>
<polygon fill="none" stroke="#666666" points="0,-11 0,-104 166,-104 166,-11 0,-11"/>
</a>
</g>
</g>
<!-- Node1&#45;&gt;Node3 -->
<g id="edge2_Node000001_Node000003" class="edge">
<title>Node1&#45;&gt;Node3</title>
<g id="a_edge2_Node000001_Node000003"><a xlink:title=" ">
<path fill="none" stroke="#63b8ff" d="M234.69,-160.99C205.61,-141.34 175.82,-121.21 150.43,-104.05"/>
<polygon fill="none" stroke="#63b8ff" points="233.03,-164.09 243.27,-166.79 236.95,-158.29 233.03,-164.09"/>
</a>
</g>
</g>
<!-- Node4 -->
<g id="Node000004" class="node">
<title>Node4</title>
<g id="a_Node000004"><a xlink:href="../../d2/dca/classDrKeyboard__Stadia.html" target="_top" xlink:title=" ">
<polygon fill="white" stroke="transparent" points="354,-109.5 184,-109.5 184,-5.5 354,-5.5 354,-109.5"/>
<text text-anchor="start" x="222" y="-97.5" font-family="Helvetica,sans-Serif" font-size="10.00">DrKeyboard_Stadia</text>
<text text-anchor="start" x="267" y="-82.5" font-family="Helvetica,sans-Serif" font-size="10.00"> </text>
<text text-anchor="start" x="188" y="-67.5" font-family="Helvetica,sans-Serif" font-size="10.00">+</text>
<text text-anchor="start" x="201" y="-67.5" font-family="Helvetica,sans-Serif" font-size="10.00">DrKeyboard_Stadia</text>
<text text-anchor="start" x="201" y="-56.5" font-family="Helvetica,sans-Serif" font-size="10.00">(TouchScreenKeyboardType</text>
<text text-anchor="start" x="201" y="-45.5" font-family="Helvetica,sans-Serif" font-size="10.00"> type, string initialText,</text>
<text text-anchor="start" x="201" y="-34.5" font-family="Helvetica,sans-Serif" font-size="10.00"> int maxChars, string title,</text>
<text text-anchor="start" x="201" y="-23.5" font-family="Helvetica,sans-Serif" font-size="10.00"> string prompt, bool password,</text>
<text text-anchor="start" x="201" y="-12.5" font-family="Helvetica,sans-Serif" font-size="10.00"> bool multiline)</text>
<polygon fill="#666666" stroke="#666666" points="184,-92.5 184,-92.5 354,-92.5 354,-92.5 184,-92.5"/>
<polygon fill="#666666" stroke="#666666" points="184,-77.5 184,-77.5 354,-77.5 354,-77.5 184,-77.5"/>
<polygon fill="none" stroke="#666666" points="184,-5.5 184,-109.5 354,-109.5 354,-5.5 184,-5.5"/>
</a>
</g>
</g>
<!-- Node1&#45;&gt;Node4 -->
<g id="edge3_Node000001_Node000004" class="edge">
<title>Node1&#45;&gt;Node4</title>
<g id="a_edge3_Node000001_Node000004"><a xlink:title=" ">
<path fill="none" stroke="#63b8ff" d="M309.97,-141.55C304.55,-130.55 299.23,-119.76 294.31,-109.79"/>
<polygon fill="none" stroke="#63b8ff" points="306.98,-143.4 314.55,-150.82 313.26,-140.3 306.98,-143.4"/>
</a>
</g>
</g>
<!-- Node5 -->
<g id="Node000005" class="node">
<title>Node5</title>
<g id="a_Node000005"><a xlink:href="../../d2/d04/classDrKeyboard__Switch.html" target="_top" xlink:title=" ">
<polygon fill="white" stroke="transparent" points="539.5,-115 372.5,-115 372.5,0 539.5,0 539.5,-115"/>
<text text-anchor="start" x="409" y="-102.5" font-family="Helvetica,sans-Serif" font-size="10.00">DrKeyboard_Switch</text>
<text text-anchor="start" x="377" y="-87.5" font-family="Helvetica,sans-Serif" font-size="10.00">+</text>
<text text-anchor="start" x="390" y="-87.5" font-family="Helvetica,sans-Serif" font-size="10.00">static DrKeyboard_Switch</text>
<text text-anchor="start" x="390" y="-76.5" font-family="Helvetica,sans-Serif" font-size="10.00"> LastKeyboard</text>
<text text-anchor="start" x="377" y="-61.5" font-family="Helvetica,sans-Serif" font-size="10.00">+</text>
<text text-anchor="start" x="390" y="-61.5" font-family="Helvetica,sans-Serif" font-size="10.00">DrKeyboard_Switch</text>
<text text-anchor="start" x="390" y="-50.5" font-family="Helvetica,sans-Serif" font-size="10.00">(TouchScreenKeyboardType</text>
<text text-anchor="start" x="390" y="-39.5" font-family="Helvetica,sans-Serif" font-size="10.00"> type, string initialText,</text>
<text text-anchor="start" x="390" y="-28.5" font-family="Helvetica,sans-Serif" font-size="10.00"> int maxChars, string title,</text>
<text text-anchor="start" x="390" y="-17.5" font-family="Helvetica,sans-Serif" font-size="10.00"> string prompt, bool multiline,</text>
<text text-anchor="start" x="390" y="-6.5" font-family="Helvetica,sans-Serif" font-size="10.00"> bool filterText)</text>
<polygon fill="#666666" stroke="#666666" points="373,-97.5 373,-97.5 540,-97.5 540,-97.5 373,-97.5"/>
<polygon fill="#666666" stroke="#666666" points="373,-71.5 373,-71.5 388,-71.5 388,-71.5 373,-71.5"/>
<polygon fill="#666666" stroke="#666666" points="388,-71.5 388,-71.5 540,-71.5 540,-71.5 388,-71.5"/>
<polygon fill="none" stroke="#666666" points="372.5,0 372.5,-115 539.5,-115 539.5,0 372.5,0"/>
</a>
</g>
</g>
<!-- Node1&#45;&gt;Node5 -->
<g id="edge4_Node000001_Node000005" class="edge">
<title>Node1&#45;&gt;Node5</title>
<g id="a_edge4_Node000001_Node000005"><a xlink:title=" ">
<path fill="none" stroke="#63b8ff" d="M414.54,-141.65C419.09,-132.51 423.58,-123.52 427.82,-115.02"/>
<polygon fill="none" stroke="#63b8ff" points="411.29,-140.31 409.96,-150.82 417.56,-143.43 411.29,-140.31"/>
</a>
</g>
</g>
<!-- Node6 -->
<g id="Node000006" class="node">
<title>Node6</title>
<g id="a_Node000006"><a xlink:href="../../df/d01/classDrKeyboard__XBO.html" target="_top" xlink:title=" ">
<polygon fill="white" stroke="transparent" points="726.5,-104 557.5,-104 557.5,-11 726.5,-11 726.5,-104"/>
<text text-anchor="start" x="600.5" y="-91.5" font-family="Helvetica,sans-Serif" font-size="10.00">DrKeyboard_XBO</text>
<text text-anchor="start" x="562" y="-76.5" font-family="Helvetica,sans-Serif" font-size="10.00">+</text>
<text text-anchor="start" x="575" y="-76.5" font-family="Helvetica,sans-Serif" font-size="10.00">static DrKeyboard_XBO</text>
<text text-anchor="start" x="575" y="-65.5" font-family="Helvetica,sans-Serif" font-size="10.00"> LastKeyboard</text>
<text text-anchor="start" x="562" y="-50.5" font-family="Helvetica,sans-Serif" font-size="10.00">+</text>
<text text-anchor="start" x="575" y="-50.5" font-family="Helvetica,sans-Serif" font-size="10.00">DrKeyboard_XBO(TouchScreen</text>
<text text-anchor="start" x="575" y="-39.5" font-family="Helvetica,sans-Serif" font-size="10.00">KeyboardType type, string</text>
<text text-anchor="start" x="575" y="-28.5" font-family="Helvetica,sans-Serif" font-size="10.00"> initialText, int maxChars,</text>
<text text-anchor="start" x="575" y="-17.5" font-family="Helvetica,sans-Serif" font-size="10.00"> string title, string prompt)</text>
<polygon fill="#666666" stroke="#666666" points="558,-86.5 558,-86.5 727,-86.5 727,-86.5 558,-86.5"/>
<polygon fill="#666666" stroke="#666666" points="558,-60.5 558,-60.5 573,-60.5 573,-60.5 558,-60.5"/>
<polygon fill="#666666" stroke="#666666" points="573,-60.5 573,-60.5 727,-60.5 727,-60.5 573,-60.5"/>
<polygon fill="none" stroke="#666666" points="557.5,-11 557.5,-104 726.5,-104 726.5,-11 557.5,-11"/>
</a>
</g>
</g>
<!-- Node1&#45;&gt;Node6 -->
<g id="edge5_Node000001_Node000006" class="edge">
<title>Node1&#45;&gt;Node6</title>
<g id="a_edge5_Node000001_Node000006"><a xlink:title=" ">
<path fill="none" stroke="#63b8ff" d="M489.37,-161.25C518.6,-141.57 548.57,-121.4 574.12,-104.19"/>
<polygon fill="none" stroke="#63b8ff" points="487.09,-158.57 480.75,-167.06 491,-164.38 487.09,-158.57"/>
</a>
</g>
</g>
<!-- Node2 -->
<g id="Node000002" class="node">
<title>Node2</title>
<g id="a_Node000002"><a xlink:href="../../db/de4/classDrKeyboard__Base.html" target="_top" xlink:title=" ">
<polygon fill="white" stroke="transparent" points="464.5,-575 259.5,-575 259.5,-381 464.5,-381 464.5,-575"/>
<text text-anchor="start" x="319" y="-563" font-family="Helvetica,sans-Serif" font-size="10.00">DrKeyboard_Base</text>
<text text-anchor="start" x="264" y="-548" font-family="Helvetica,sans-Serif" font-size="10.00">+</text>
<text text-anchor="start" x="277" y="-548" font-family="Helvetica,sans-Serif" font-size="10.00">static bool isSupported</text>
<text text-anchor="start" x="264" y="-533" font-family="Helvetica,sans-Serif" font-size="10.00">+</text>
<text text-anchor="start" x="277" y="-533" font-family="Helvetica,sans-Serif" font-size="10.00">bool active</text>
<text text-anchor="start" x="264" y="-518" font-family="Helvetica,sans-Serif" font-size="10.00">+</text>
<text text-anchor="start" x="277" y="-518" font-family="Helvetica,sans-Serif" font-size="10.00">bool wasCanceled</text>
<text text-anchor="start" x="264" y="-503" font-family="Helvetica,sans-Serif" font-size="10.00">+</text>
<text text-anchor="start" x="277" y="-503" font-family="Helvetica,sans-Serif" font-size="10.00">bool done</text>
<text text-anchor="start" x="264" y="-488" font-family="Helvetica,sans-Serif" font-size="10.00">+</text>
<text text-anchor="start" x="277" y="-488" font-family="Helvetica,sans-Serif" font-size="10.00">string text</text>
<text text-anchor="start" x="264" y="-473" font-family="Helvetica,sans-Serif" font-size="10.00">+</text>
<text text-anchor="start" x="277" y="-473" font-family="Helvetica,sans-Serif" font-size="10.00">virtual void Update()</text>
<text text-anchor="start" x="264" y="-458" font-family="Helvetica,sans-Serif" font-size="10.00">+</text>
<text text-anchor="start" x="277" y="-458" font-family="Helvetica,sans-Serif" font-size="10.00">static DrKeyboard_Base</text>
<text text-anchor="start" x="277" y="-447" font-family="Helvetica,sans-Serif" font-size="10.00"> Create(TouchScreenKeyboardType</text>
<text text-anchor="start" x="277" y="-436" font-family="Helvetica,sans-Serif" font-size="10.00"> type, string initialText, int</text>
<text text-anchor="start" x="277" y="-425" font-family="Helvetica,sans-Serif" font-size="10.00"> maxChars, string title, string</text>
<text text-anchor="start" x="277" y="-414" font-family="Helvetica,sans-Serif" font-size="10.00"> prompt, bool password=false, bool</text>
<text text-anchor="start" x="277" y="-403" font-family="Helvetica,sans-Serif" font-size="10.00"> multiline=false, bool filterText=true)</text>
<text text-anchor="start" x="264" y="-388" font-family="Helvetica,sans-Serif" font-size="10.00">#</text>
<text text-anchor="start" x="277" y="-388" font-family="Helvetica,sans-Serif" font-size="10.00">DrKeyboard_Base()</text>
<polygon fill="#666666" stroke="#666666" points="260,-558 260,-558 465,-558 465,-558 260,-558"/>
<polygon fill="#666666" stroke="#666666" points="260,-483 260,-483 275,-483 275,-483 260,-483"/>
<polygon fill="#666666" stroke="#666666" points="275,-483 275,-483 465,-483 465,-483 275,-483"/>
<polygon fill="none" stroke="#666666" points="259.5,-381 259.5,-575 464.5,-575 464.5,-381 259.5,-381"/>
</a>
</g>
</g>
<!-- Node2&#45;&gt;Node1 -->
<g id="edge1_Node000001_Node000002" class="edge">
<title>Node2&#45;&gt;Node1</title>
<g id="a_edge1_Node000001_Node000002"><a xlink:title=" ">
<path fill="none" stroke="#63b8ff" d="M362,-370.96C362,-362.4 362,-353.77 362,-345.29"/>
<polygon fill="none" stroke="#63b8ff" points="358.5,-370.97 362,-380.97 365.5,-370.97 358.5,-370.97"/>
</a>
</g>
</g>
</g>
</svg>

<g id="navigator" transform="translate(0 0)" fill="#404254">
  <rect fill="#f2f5e9" fill-opacity="0.5" stroke="#606060" stroke-width=".5" x="0" y="0" width="60" height="60"/>
  <use id="zoomplus" xlink:href="#zoomPlus" x="17" y="9" onmousedown="handleZoom(evt,'in')"/>
  <use id="zoomminus" xlink:href="#zoomMin" x="42" y="9" onmousedown="handleZoom(evt,'out')"/>
  <use id="reset" xlink:href="#resetDef" x="30" y="36" onmousedown="handleReset()"/>
   <use id="arrowup" xlink:href="#arrowUp" x="0" y="0" onmousedown="handlePan(0,-1)"/>
  <use id="arrowright" xlink:href="#arrowRight" x="0" y="0" onmousedown="handlePan(1,0)"/>
  <use id="arrowdown" xlink:href="#arrowDown" x="0" y="0" onmousedown="handlePan(0,1)"/>
  <use id="arrowleft" xlink:href="#arrowLeft" x="0" y="0" onmousedown="handlePan(-1,0)"/>
</g>
<svg viewBox="0 0 15 15" width="100%" height="30px" preserveAspectRatio="xMaxYMin meet">
 <g id="arrow_out" transform="scale(0.3 0.3)">
  <a xlink:href="classDrKeyboard__Touch__inherit__graph_org.svg" target="_base">
   <rect id="button" ry="5" rx="5" y="6" x="6" height="38" width="38"
        fill="#f2f5e9" fill-opacity="0.5" stroke="#606060" stroke-width="1.0"/>
   <path id="arrow"
     d="M 11.500037,31.436501 C 11.940474,20.09759 22.043105,11.32322 32.158766,21.979434 L 37.068811,17.246167 C 37.068811,17.246167 37.088388,32 37.088388,32 L 22.160133,31.978069 C 22.160133,31.978069 26.997745,27.140456 26.997745,27.140456 C 18.528582,18.264221 13.291696,25.230495 11.500037,31.436501 z"
     style="fill:#404040;"/>
  </a>
 </g>
</svg>

<style type='text/css'>
<![CDATA[
[data-mouse-over-selected='false'] { opacity: 0.7; }
[data-mouse-over-selected='true']  { opacity: 1.0; }
]]>
</style>
<script type="application/ecmascript"><![CDATA[
document.addEventListener('DOMContentLoaded', (event) => {
  highlightEdges();
  highlightAdjacentNodes();
});
]]></script>
</svg>
