<?xml version="1.0" encoding="UTF-8" standalone="no"?>
<!DOCTYPE svg PUBLIC "-//W3C//DTD SVG 1.1//EN"
 "http://www.w3.org/Graphics/SVG/1.1/DTD/svg11.dtd">
<!-- Generated by graphviz version 2.43.0 (0)
 -->
<!-- Title: System.TypeIdentifiers.Display Pages: 1 -->
<svg width="648pt" height="213pt"
 viewBox="0.00 0.00 647.50 213.00" xmlns="http://www.w3.org/2000/svg" xmlns:xlink="http://www.w3.org/1999/xlink">
<g id="graph0" class="graph" transform="scale(1 1) rotate(0) translate(4 209)">
<title>System.TypeIdentifiers.Display</title>
<!-- Node1 -->
<g id="Node000001" class="node">
<title>Node1</title>
<g id="a_Node000001"><a xlink:title=" ">
<polygon fill="#999999" stroke="transparent" points="394,-109 232,-109 232,0 394,0 394,-109"/>
<text text-anchor="start" x="237.5" y="-96.5" font-family="Helvetica,sans-Serif" font-size="10.00">System.TypeIdentifiers.Display</text>
<text text-anchor="start" x="236" y="-81.5" font-family="Helvetica,sans-Serif" font-size="10.00">+</text>
<text text-anchor="start" x="249" y="-81.5" font-family="Helvetica,sans-Serif" font-size="10.00">override string DisplayName</text>
<text text-anchor="start" x="236" y="-66.5" font-family="Helvetica,sans-Serif" font-size="10.00">+</text>
<text text-anchor="start" x="249" y="-66.5" font-family="Helvetica,sans-Serif" font-size="10.00">string InternalName</text>
<text text-anchor="start" x="238.5" y="-51.5" font-family="Helvetica,sans-Serif" font-size="10.00">&#45;</text>
<text text-anchor="start" x="249" y="-51.5" font-family="Helvetica,sans-Serif" font-size="10.00">string displayName</text>
<text text-anchor="start" x="238.5" y="-36.5" font-family="Helvetica,sans-Serif" font-size="10.00">&#45;</text>
<text text-anchor="start" x="249" y="-36.5" font-family="Helvetica,sans-Serif" font-size="10.00">string internal_name</text>
<text text-anchor="start" x="236" y="-21.5" font-family="Helvetica,sans-Serif" font-size="10.00">~</text>
<text text-anchor="start" x="249" y="-21.5" font-family="Helvetica,sans-Serif" font-size="10.00">Display(string displayName)</text>
<text text-anchor="start" x="238.5" y="-6.5" font-family="Helvetica,sans-Serif" font-size="10.00">&#45;</text>
<text text-anchor="start" x="249" y="-6.5" font-family="Helvetica,sans-Serif" font-size="10.00">string GetInternalName()</text>
<polygon fill="#666666" stroke="#666666" points="232,-91.5 232,-91.5 394,-91.5 394,-91.5 232,-91.5"/>
<polygon fill="#666666" stroke="#666666" points="232,-31.5 232,-31.5 247,-31.5 247,-31.5 232,-31.5"/>
<polygon fill="#666666" stroke="#666666" points="247,-31.5 247,-31.5 394,-31.5 394,-31.5 247,-31.5"/>
<polygon fill="none" stroke="#666666" points="232,0 232,-109 394,-109 394,0 232,0"/>
</a>
</g>
</g>
<!-- Node2 -->
<g id="Node000002" class="node">
<title>Node2</title>
<g id="a_Node000002"><a xlink:href="../../d1/da1/classglobal_1_1SystemTypeNames_1_1ATypeName.html" target="_top" xlink:title=" ">
<polygon fill="white" stroke="transparent" points="140,-205 0,-205 0,-145 140,-145 140,-205"/>
<text text-anchor="start" x="5" y="-193" font-family="Helvetica,sans-Serif" font-size="10.00">global::SystemTypeNames</text>
<text text-anchor="start" x="38" y="-182" font-family="Helvetica,sans-Serif" font-size="10.00">::ATypeName</text>
<text text-anchor="start" x="68" y="-167" font-family="Helvetica,sans-Serif" font-size="10.00"> </text>
<text text-anchor="start" x="68" y="-152" font-family="Helvetica,sans-Serif" font-size="10.00"> </text>
<polygon fill="#666666" stroke="#666666" points="0,-177 0,-177 140,-177 140,-177 0,-177"/>
<polygon fill="#666666" stroke="#666666" points="0,-162 0,-162 140,-162 140,-162 0,-162"/>
<polygon fill="none" stroke="#666666" points="0,-145 0,-205 140,-205 140,-145 0,-145"/>
</a>
</g>
</g>
<!-- Node2&#45;&gt;Node1 -->
<g id="edge1_Node000001_Node000002" class="edge">
<title>Node2&#45;&gt;Node1</title>
<g id="a_edge1_Node000001_Node000002"><a xlink:title=" ">
<path fill="none" stroke="#63b8ff" d="M138.97,-140.37C167.9,-126.26 201.77,-109.74 231.89,-95.05"/>
<polygon fill="none" stroke="#63b8ff" points="137.21,-137.33 129.76,-144.86 140.28,-143.62 137.21,-137.33"/>
</a>
</g>
</g>
<!-- Node3 -->
<g id="Node000003" class="node">
<title>Node3</title>
<g id="a_Node000003"><a xlink:title=" ">
<polygon fill="white" stroke="transparent" points="307.5,-199.5 158.5,-199.5 158.5,-150.5 307.5,-150.5 307.5,-199.5"/>
<text text-anchor="start" x="164" y="-187" font-family="Helvetica,sans-Serif" font-size="10.00">global::SystemTypeIdentifier</text>
<text text-anchor="start" x="231.5" y="-172" font-family="Helvetica,sans-Serif" font-size="10.00"> </text>
<text text-anchor="start" x="231.5" y="-157" font-family="Helvetica,sans-Serif" font-size="10.00"> </text>
<polygon fill="#666666" stroke="#666666" points="159,-182 159,-182 308,-182 308,-182 159,-182"/>
<polygon fill="#666666" stroke="#666666" points="159,-167 159,-167 308,-167 308,-167 159,-167"/>
<polygon fill="none" stroke="#666666" points="158.5,-150.5 158.5,-199.5 307.5,-199.5 307.5,-150.5 158.5,-150.5"/>
</a>
</g>
</g>
<!-- Node3&#45;&gt;Node1 -->
<g id="edge2_Node000001_Node000003" class="edge">
<title>Node3&#45;&gt;Node1</title>
<g id="a_edge2_Node000001_Node000003"><a xlink:title=" ">
<path fill="none" stroke="#63b8ff" d="M254.74,-141.8C261.57,-131.68 269.3,-120.22 276.85,-109.04"/>
<polygon fill="none" stroke="#63b8ff" points="251.69,-140.06 249,-150.3 257.49,-143.97 251.69,-140.06"/>
</a>
</g>
</g>
<!-- Node4 -->
<g id="Node000004" class="node">
<title>Node4</title>
<g id="a_Node000004"><a xlink:title=" ">
<polygon fill="white" stroke="transparent" points="460.5,-199.5 325.5,-199.5 325.5,-150.5 460.5,-150.5 460.5,-199.5"/>
<text text-anchor="start" x="331" y="-187" font-family="Helvetica,sans-Serif" font-size="10.00">global::SystemTypeName</text>
<text text-anchor="start" x="391.5" y="-172" font-family="Helvetica,sans-Serif" font-size="10.00"> </text>
<text text-anchor="start" x="391.5" y="-157" font-family="Helvetica,sans-Serif" font-size="10.00"> </text>
<polygon fill="#666666" stroke="#666666" points="326,-182 326,-182 461,-182 461,-182 326,-182"/>
<polygon fill="#666666" stroke="#666666" points="326,-167 326,-167 461,-167 461,-167 326,-167"/>
<polygon fill="none" stroke="#666666" points="325.5,-150.5 325.5,-199.5 460.5,-199.5 460.5,-150.5 325.5,-150.5"/>
</a>
</g>
</g>
<!-- Node4&#45;&gt;Node1 -->
<g id="edge3_Node000001_Node000004" class="edge">
<title>Node4&#45;&gt;Node1</title>
<g id="a_edge3_Node000001_Node000004"><a xlink:title=" ">
<path fill="none" stroke="#63b8ff" d="M371.26,-141.8C364.43,-131.68 356.7,-120.22 349.15,-109.04"/>
<polygon fill="none" stroke="#63b8ff" points="368.51,-143.97 377,-150.3 374.31,-140.06 368.51,-143.97"/>
</a>
</g>
</g>
<!-- Node5 -->
<g id="Node000005" class="node">
<title>Node5</title>
<g id="a_Node000005"><a xlink:title=" ">
<polygon fill="white" stroke="transparent" points="639.5,-205 478.5,-205 478.5,-145 639.5,-145 639.5,-205"/>
<text text-anchor="start" x="484" y="-193" font-family="Helvetica,sans-Serif" font-size="10.00">global::SystemIEquatable</text>
<text text-anchor="start" x="484" y="-182" font-family="Helvetica,sans-Serif" font-size="10.00">&lt; global::System.TypeName &gt;</text>
<text text-anchor="start" x="557.5" y="-167" font-family="Helvetica,sans-Serif" font-size="10.00"> </text>
<text text-anchor="start" x="557.5" y="-152" font-family="Helvetica,sans-Serif" font-size="10.00"> </text>
<polygon fill="#666666" stroke="#666666" points="479,-177 479,-177 640,-177 640,-177 479,-177"/>
<polygon fill="#666666" stroke="#666666" points="479,-162 479,-162 640,-162 640,-162 479,-162"/>
<polygon fill="none" stroke="#666666" points="478.5,-145 478.5,-205 639.5,-205 639.5,-145 478.5,-145"/>
</a>
</g>
</g>
<!-- Node5&#45;&gt;Node1 -->
<g id="edge4_Node000001_Node000005" class="edge">
<title>Node5&#45;&gt;Node1</title>
<g id="a_edge4_Node000001_Node000005"><a xlink:title=" ">
<path fill="none" stroke="#63b8ff" d="M489.48,-140.51C459.82,-126.23 425.02,-109.46 394.19,-94.61"/>
<polygon fill="none" stroke="#63b8ff" points="487.98,-143.67 498.51,-144.86 491.02,-137.37 487.98,-143.67"/>
</a>
</g>
</g>
</g>
</svg>
