<?xml version="1.0" encoding="UTF-8" standalone="no"?>
<!DOCTYPE svg PUBLIC "-//W3C//DTD SVG 1.1//EN"
 "http://www.w3.org/Graphics/SVG/1.1/DTD/svg11.dtd">
<!-- Generated by graphviz version 2.43.0 (0)
 -->
<!-- Title: Terraria.IO.RandomStyleInfo_OldMobile Pages: 1 -->
<svg width="176pt" height="190pt"
 viewBox="0.00 0.00 176.00 190.00" xmlns="http://www.w3.org/2000/svg" xmlns:xlink="http://www.w3.org/1999/xlink">

<svg id="main" version="1.1" xmlns="http://www.w3.org/2000/svg" xmlns:xlink="http://www.w3.org/1999/xlink" xml:space="preserve" onload="init(evt)">
<style type="text/css"><![CDATA[
.node, .edge {opacity: 0.7;}
.node.selected, .edge.selected {opacity: 1;}
.edge:hover path { stroke: red; }
.edge:hover polygon { stroke: red; fill: red; }
]]></style>
<script type="application/ecmascript" xlink:href="../../svg.min.js"/>
<svg id="graph" class="graph">
<g id="graph0" class="graph" transform="scale(1 1) rotate(0) translate(4 186)">
<title>Terraria.IO.RandomStyleInfo_OldMobile</title>
<!-- Node1 -->
<g id="Node000001" class="node">
<title>Node1</title>
<g id="a_Node000001"><a xlink:title=" ">
<polygon fill="#999999" stroke="transparent" points="168,-86 0,-86 0,0 168,0 168,-86"/>
<text text-anchor="start" x="15" y="-74" font-family="Helvetica,sans-Serif" font-size="10.00">Terraria.IO.RandomStyleInfo</text>
<text text-anchor="start" x="56.5" y="-63" font-family="Helvetica,sans-Serif" font-size="10.00">_OldMobile</text>
<text text-anchor="start" x="82" y="-48" font-family="Helvetica,sans-Serif" font-size="10.00"> </text>
<text text-anchor="start" x="4" y="-33" font-family="Helvetica,sans-Serif" font-size="10.00">+</text>
<text text-anchor="start" x="17" y="-33" font-family="Helvetica,sans-Serif" font-size="10.00">bool Load(BinaryReader</text>
<text text-anchor="start" x="17" y="-22" font-family="Helvetica,sans-Serif" font-size="10.00"> reader, int release)</text>
<text text-anchor="start" x="4" y="-7" font-family="Helvetica,sans-Serif" font-size="10.00">+</text>
<text text-anchor="start" x="17" y="-7" font-family="Helvetica,sans-Serif" font-size="10.00">RandomStyleInfo_OldMobile()</text>
<polygon fill="#666666" stroke="#666666" points="0,-58 0,-58 168,-58 168,-58 0,-58"/>
<polygon fill="#666666" stroke="#666666" points="0,-43 0,-43 168,-43 168,-43 0,-43"/>
<polygon fill="none" stroke="#666666" points="0,0 0,-86 168,-86 168,0 0,0"/>
</a>
</g>
</g>
<!-- Node2 -->
<g id="Node000002" class="node">
<title>Node2</title>
<g id="a_Node000002"><a xlink:title=" ">
<polygon fill="white" stroke="transparent" points="71,-182 39,-182 39,-133 71,-133 71,-182"/>
<text text-anchor="start" x="44" y="-169.5" font-family="Helvetica,sans-Serif" font-size="10.00">byte</text>
<text text-anchor="start" x="53" y="-154.5" font-family="Helvetica,sans-Serif" font-size="10.00"> </text>
<text text-anchor="start" x="53" y="-139.5" font-family="Helvetica,sans-Serif" font-size="10.00"> </text>
<polygon fill="#666666" stroke="#666666" points="39,-164.5 39,-164.5 71,-164.5 71,-164.5 39,-164.5"/>
<polygon fill="#666666" stroke="#666666" points="39,-149.5 39,-149.5 71,-149.5 71,-149.5 39,-149.5"/>
<polygon fill="none" stroke="#666666" points="39,-133 39,-182 71,-182 71,-133 39,-133"/>
</a>
</g>
</g>
<!-- Node2&#45;&gt;Node1 -->
<g id="edge1_Node000001_Node000002" class="edge">
<title>Node2&#45;&gt;Node1</title>
<g id="a_edge1_Node000001_Node000002"><a xlink:title=" ">
<path fill="none" stroke="#63b8ff" d="M53.38,-132.98C53.28,-123.83 53.84,-113.32 56,-104 56.49,-101.87 57.07,-99.72 57.71,-97.57"/>
<polygon fill="none" stroke="#63b8ff" points="57.74,-97.48 55.95,-90.5 61.7,-86.15 63.5,-93.14 57.74,-97.48"/>
</a>
</g>
<text text-anchor="middle" x="74" y="-107" font-family="Helvetica,sans-Serif" font-size="10.00" fill="grey"> +style</text>
</g>
<!-- Node3 -->
<g id="Node000003" class="node">
<title>Node3</title>
<g id="a_Node000003"><a xlink:title=" ">
<polygon fill="white" stroke="transparent" points="134.5,-182 93.5,-182 93.5,-133 134.5,-133 134.5,-182"/>
<text text-anchor="start" x="99" y="-169.5" font-family="Helvetica,sans-Serif" font-size="10.00">ushort</text>
<text text-anchor="start" x="112.5" y="-154.5" font-family="Helvetica,sans-Serif" font-size="10.00"> </text>
<text text-anchor="start" x="112.5" y="-139.5" font-family="Helvetica,sans-Serif" font-size="10.00"> </text>
<polygon fill="#666666" stroke="#666666" points="94,-164.5 94,-164.5 135,-164.5 135,-164.5 94,-164.5"/>
<polygon fill="#666666" stroke="#666666" points="94,-149.5 94,-149.5 135,-149.5 135,-149.5 94,-149.5"/>
<polygon fill="none" stroke="#666666" points="93.5,-133 93.5,-182 134.5,-182 134.5,-133 93.5,-133"/>
</a>
</g>
</g>
<!-- Node3&#45;&gt;Node1 -->
<g id="edge2_Node000001_Node000003" class="edge">
<title>Node3&#45;&gt;Node1</title>
<g id="a_edge2_Node000001_Node000003"><a xlink:title=" ">
<path fill="none" stroke="#63b8ff" d="M107.71,-132.92C104.98,-122.66 101.65,-110.19 98.37,-97.88"/>
<polygon fill="none" stroke="#63b8ff" points="98.34,-97.78 92.93,-93.02 95.25,-86.19 100.66,-90.96 98.34,-97.78"/>
</a>
</g>
<text text-anchor="middle" x="111.5" y="-107" font-family="Helvetica,sans-Serif" font-size="10.00" fill="grey"> +X</text>
</g>
</g>
</svg>
</svg>

<style type='text/css'>
<![CDATA[
[data-mouse-over-selected='false'] { opacity: 0.7; }
[data-mouse-over-selected='true']  { opacity: 1.0; }
]]>
</style>
<script type="application/ecmascript"><![CDATA[
document.addEventListener('DOMContentLoaded', (event) => {
  highlightEdges();
  highlightAdjacentNodes();
});
]]></script>
</svg>
