<?xml version="1.0" encoding="UTF-8" standalone="no"?>
<!DOCTYPE svg PUBLIC "-//W3C//DTD SVG 1.1//EN"
 "http://www.w3.org/Graphics/SVG/1.1/DTD/svg11.dtd">
<!-- Generated by graphviz version 2.43.0 (0)
 -->
<!-- Title: System.Xml.Schema.XmlSchemaGroupRef Pages: 1 -->
<!--zoomable 636 -->

<svg id="main" version="1.1" xmlns="http://www.w3.org/2000/svg" xmlns:xlink="http://www.w3.org/1999/xlink" xml:space="preserve" onload="init(evt)">
<style type="text/css"><![CDATA[
.node, .edge {opacity: 0.7;}
.node.selected, .edge.selected {opacity: 1;}
.edge:hover path { stroke: red; }
.edge:hover polygon { stroke: red; fill: red; }
]]></style>

<defs>
  <circle id="rim" cx="0" cy="0" r="7"/>
  <circle id="rim2" cx="0" cy="0" r="3.5"/>
  <g id="zoomPlus">
    <use xlink:href="#rim" fill="#404040"><set attributeName="fill" to="#808080" begin="zoomplus.mouseover" end="zoomplus.mouseout"/></use>
    <path d="M-4,0h8M0,-4v8" fill="none" stroke="white" stroke-width="1.5" pointer-events="none"/>
  </g>
  <g id="zoomMin">
    <use xlink:href="#rim" fill="#404040"><set attributeName="fill" to="#808080" begin="zoomminus.mouseover" end="zoomminus.mouseout"/></use>
    <path d="M-4,0h8" fill="none" stroke="white" stroke-width="1.5" pointer-events="none"/>
  </g>
  <g id="arrowUp" transform="translate(30 24)">
    <use xlink:href="#rim"/>
    <path pointer-events="none" fill="none" stroke="white" stroke-width="1.5" d="M0,-3.0v7 M-2.5,-0.5L0,-3.0L2.5,-0.5"/>
  </g>
  <g id="arrowRight" transform="rotate(90) translate(36 -43)">
    <use xlink:href="#rim"/>
    <path pointer-events="none" fill="none" stroke="white" stroke-width="1.5" d="M0,-3.0v7 M-2.5,-0.5L0,-3.0L2.5,-0.5"/>
  </g>
  <g id="arrowDown" transform="rotate(180) translate(-30 -48)">
    <use xlink:href="#rim"/>
    <path pointer-events="none" fill="none" stroke="white" stroke-width="1.5" d="M0,-3.0v7 M-2.5,-0.5L0,-3.0L2.5,-0.5"/>
  </g>
  <g id="arrowLeft" transform="rotate(270) translate(-36 17)">
    <use xlink:href="#rim"/>
    <path pointer-events="none" fill="none" stroke="white" stroke-width="1.5" d="M0,-3.0v7 M-2.5,-0.5L0,-3.0L2.5,-0.5"/>
  </g>
  <g id="resetDef">
    <use xlink:href="#rim2" fill="#404040"><set attributeName="fill" to="#808080" begin="reset.mouseover" end="reset.mouseout"/></use>
  </g>
</defs>
<script type="application/ecmascript">
var viewWidth = 347;
var viewHeight = 636;
var sectionId = 'dynsection-1';
</script>
<script type="application/ecmascript" xlink:href="../../svg.min.js"/>
<svg id="graph" class="graph">
<g id="viewport">
<title>System.Xml.Schema.XmlSchemaGroupRef</title>
<!-- Node1 -->
<g id="Node000001" class="node">
<title>Node1</title>
<g id="a_Node000001"><a xlink:title=" ">
<polygon fill="#999999" stroke="transparent" points="258.31,-60 85.31,-60 85.31,0 258.31,0 258.31,-60"/>
<text text-anchor="start" x="90.81" y="-48" font-family="Helvetica,sans-Serif" font-size="10.00">System.Xml.Schema.XmlSchema</text>
<text text-anchor="start" x="149.31" y="-37" font-family="Helvetica,sans-Serif" font-size="10.00">GroupRef</text>
<text text-anchor="start" x="170.31" y="-22" font-family="Helvetica,sans-Serif" font-size="10.00"> </text>
<text text-anchor="start" x="170.31" y="-7" font-family="Helvetica,sans-Serif" font-size="10.00"> </text>
<polygon fill="#666666" stroke="#666666" points="85.81,-32 85.81,-32 258.81,-32 258.81,-32 85.81,-32"/>
<polygon fill="#666666" stroke="#666666" points="85.81,-17 85.81,-17 258.81,-17 258.81,-17 85.81,-17"/>
<polygon fill="none" stroke="#666666" points="85.31,0 85.31,-60 258.31,-60 258.31,0 85.31,0"/>
</a>
</g>
</g>
<!-- Node2 -->
<g id="Node000002" class="node">
<title>Node2</title>
<g id="a_Node000002"><a xlink:href="../../d4/dc9/classSystem_1_1Xml_1_1Schema_1_1XmlSchemaParticle.html" target="_top" xlink:title=" ">
<polygon fill="white" stroke="transparent" points="248.81,-176 94.81,-176 94.81,-97 248.81,-97 248.81,-176"/>
<text text-anchor="start" x="124.31" y="-163.5" font-family="Helvetica,sans-Serif" font-size="10.00">XmlSchemaParticle</text>
<text text-anchor="start" x="98.81" y="-148.5" font-family="Helvetica,sans-Serif" font-size="10.00">+</text>
<text text-anchor="start" x="111.81" y="-148.5" font-family="Helvetica,sans-Serif" font-size="10.00">decimal MinOccurs</text>
<text text-anchor="start" x="98.81" y="-133.5" font-family="Helvetica,sans-Serif" font-size="10.00">+</text>
<text text-anchor="start" x="111.81" y="-133.5" font-family="Helvetica,sans-Serif" font-size="10.00">decimal MaxOccurs</text>
<text text-anchor="start" x="98.81" y="-118.5" font-family="Helvetica,sans-Serif" font-size="10.00">#</text>
<text text-anchor="start" x="111.81" y="-118.5" font-family="Helvetica,sans-Serif" font-size="10.00">XmlSchemaParticle()</text>
<text text-anchor="start" x="101.31" y="-103.5" font-family="Helvetica,sans-Serif" font-size="10.00">&#45;</text>
<text text-anchor="start" x="111.81" y="-103.5" font-family="Helvetica,sans-Serif" font-size="10.00">static XmlSchemaParticle()</text>
<polygon fill="#666666" stroke="#666666" points="94.81,-158.5 94.81,-158.5 248.81,-158.5 248.81,-158.5 94.81,-158.5"/>
<polygon fill="#666666" stroke="#666666" points="94.81,-128.5 94.81,-128.5 109.81,-128.5 109.81,-128.5 94.81,-128.5"/>
<polygon fill="#666666" stroke="#666666" points="109.81,-128.5 109.81,-128.5 248.81,-128.5 248.81,-128.5 109.81,-128.5"/>
<polygon fill="none" stroke="#666666" points="94.81,-97 94.81,-176 248.81,-176 248.81,-97 94.81,-97"/>
</a>
</g>
</g>
<!-- Node2&#45;&gt;Node1 -->
<g id="edge1_Node000001_Node000002" class="edge">
<title>Node2&#45;&gt;Node1</title>
<g id="a_edge1_Node000001_Node000002"><a xlink:title=" ">
<path fill="none" stroke="#63b8ff" d="M171.81,-86.79C171.81,-77.74 171.81,-68.55 171.81,-60.31"/>
<polygon fill="none" stroke="#63b8ff" points="168.31,-86.88 171.81,-96.88 175.31,-86.88 168.31,-86.88"/>
</a>
</g>
</g>
<!-- Node3 -->
<g id="Node000003" class="node">
<title>Node3</title>
<g id="a_Node000003"><a xlink:href="../../d4/da0/classSystem_1_1Xml_1_1Schema_1_1XmlSchemaAnnotated.html" target="_top" xlink:title=" ">
<polygon fill="white" stroke="transparent" points="317.81,-431 179.81,-431 179.81,-382 317.81,-382 317.81,-431"/>
<text text-anchor="start" x="194.31" y="-418.5" font-family="Helvetica,sans-Serif" font-size="10.00">XmlSchemaAnnotated</text>
<text text-anchor="start" x="246.81" y="-403.5" font-family="Helvetica,sans-Serif" font-size="10.00"> </text>
<text text-anchor="start" x="183.81" y="-388.5" font-family="Helvetica,sans-Serif" font-size="10.00">+</text>
<text text-anchor="start" x="196.81" y="-388.5" font-family="Helvetica,sans-Serif" font-size="10.00">XmlSchemaAnnotated()</text>
<polygon fill="#666666" stroke="#666666" points="179.81,-413.5 179.81,-413.5 317.81,-413.5 317.81,-413.5 179.81,-413.5"/>
<polygon fill="#666666" stroke="#666666" points="179.81,-398.5 179.81,-398.5 317.81,-398.5 317.81,-398.5 179.81,-398.5"/>
<polygon fill="none" stroke="#666666" points="179.81,-382 179.81,-431 317.81,-431 317.81,-382 179.81,-382"/>
</a>
</g>
</g>
<!-- Node3&#45;&gt;Node2 -->
<g id="edge2_Node000002_Node000003" class="edge">
<title>Node3&#45;&gt;Node2</title>
<g id="a_edge2_Node000002_Node000003"><a xlink:title=" ">
<path fill="none" stroke="#63b8ff" d="M288.41,-374.92C303.08,-361.14 318.03,-343.56 325.81,-324 340.59,-286.83 345.18,-269 325.81,-234 309.08,-203.77 278.49,-181.75 248.95,-166.44"/>
<polygon fill="none" stroke="#63b8ff" points="285.89,-372.48 280.8,-381.77 290.58,-377.68 285.89,-372.48"/>
</a>
</g>
</g>
<!-- Node6 -->
<g id="Node000006" class="node">
<title>Node6</title>
<g id="a_Node000006"><a xlink:href="../../d4/dc9/classSystem_1_1Xml_1_1Schema_1_1XmlSchemaParticle.html" target="_top" xlink:title=" ">
<polygon fill="white" stroke="transparent" points="258.31,-324 85.31,-324 85.31,-234 258.31,-234 258.31,-324"/>
<text text-anchor="start" x="90.81" y="-312" font-family="Helvetica,sans-Serif" font-size="10.00">System.Xml.Schema.XmlSchema</text>
<text text-anchor="start" x="153.81" y="-301" font-family="Helvetica,sans-Serif" font-size="10.00">Particle</text>
<text text-anchor="start" x="94.31" y="-286" font-family="Helvetica,sans-Serif" font-size="10.00">+</text>
<text text-anchor="start" x="111.81" y="-286" font-family="Helvetica,sans-Serif" font-size="10.00">decimal MinOccurs</text>
<text text-anchor="start" x="94.31" y="-271" font-family="Helvetica,sans-Serif" font-size="10.00">+</text>
<text text-anchor="start" x="111.81" y="-271" font-family="Helvetica,sans-Serif" font-size="10.00">decimal MaxOccurs</text>
<text text-anchor="start" x="94.31" y="-256" font-family="Helvetica,sans-Serif" font-size="10.00">#</text>
<text text-anchor="start" x="111.81" y="-256" font-family="Helvetica,sans-Serif" font-size="10.00">XmlSchemaParticle()</text>
<text text-anchor="start" x="96.81" y="-241" font-family="Helvetica,sans-Serif" font-size="10.00">&#45;</text>
<text text-anchor="start" x="111.81" y="-241" font-family="Helvetica,sans-Serif" font-size="10.00">static XmlSchemaParticle()</text>
<polygon fill="#666666" stroke="#666666" points="85.81,-296 85.81,-296 258.81,-296 258.81,-296 85.81,-296"/>
<polygon fill="#666666" stroke="#666666" points="85.81,-266 85.81,-266 109.81,-266 109.81,-266 85.81,-266"/>
<polygon fill="#666666" stroke="#666666" points="109.81,-266 109.81,-266 258.81,-266 258.81,-266 109.81,-266"/>
<polygon fill="none" stroke="#666666" points="85.31,-234 85.31,-324 258.31,-324 258.31,-234 85.31,-234"/>
</a>
</g>
</g>
<!-- Node3&#45;&gt;Node6 -->
<g id="edge6_Node000006_Node000003" class="edge">
<title>Node3&#45;&gt;Node6</title>
<g id="a_edge6_Node000006_Node000003"><a xlink:title=" ">
<path fill="none" stroke="#63b8ff" d="M228.89,-373.04C219.74,-358.12 208.74,-340.19 198.85,-324.07"/>
<polygon fill="none" stroke="#63b8ff" points="226.12,-375.2 234.33,-381.89 232.08,-371.54 226.12,-375.2"/>
</a>
</g>
</g>
<!-- Node4 -->
<g id="Node000004" class="node">
<title>Node4</title>
<g id="a_Node000004"><a xlink:href="../../d4/d35/classSystem_1_1Xml_1_1Schema_1_1XmlSchemaObject.html" target="_top" xlink:title=" ">
<polygon fill="white" stroke="transparent" points="330.81,-628 166.81,-628 166.81,-468 330.81,-468 330.81,-628"/>
<text text-anchor="start" x="203.31" y="-616" font-family="Helvetica,sans-Serif" font-size="10.00">XmlSchemaObject</text>
<text text-anchor="start" x="246.81" y="-601" font-family="Helvetica,sans-Serif" font-size="10.00"> </text>
<text text-anchor="start" x="170.81" y="-586" font-family="Helvetica,sans-Serif" font-size="10.00">~</text>
<text text-anchor="start" x="183.81" y="-586" font-family="Helvetica,sans-Serif" font-size="10.00">virtual void OnAdd</text>
<text text-anchor="start" x="183.81" y="-575" font-family="Helvetica,sans-Serif" font-size="10.00">(XmlSchemaObjectCollection</text>
<text text-anchor="start" x="183.81" y="-564" font-family="Helvetica,sans-Serif" font-size="10.00"> container, object item)</text>
<text text-anchor="start" x="170.81" y="-549" font-family="Helvetica,sans-Serif" font-size="10.00">~</text>
<text text-anchor="start" x="183.81" y="-549" font-family="Helvetica,sans-Serif" font-size="10.00">virtual void OnRemove</text>
<text text-anchor="start" x="183.81" y="-538" font-family="Helvetica,sans-Serif" font-size="10.00">(XmlSchemaObjectCollection</text>
<text text-anchor="start" x="183.81" y="-527" font-family="Helvetica,sans-Serif" font-size="10.00"> container, object item)</text>
<text text-anchor="start" x="170.81" y="-512" font-family="Helvetica,sans-Serif" font-size="10.00">~</text>
<text text-anchor="start" x="183.81" y="-512" font-family="Helvetica,sans-Serif" font-size="10.00">virtual void OnClear</text>
<text text-anchor="start" x="183.81" y="-501" font-family="Helvetica,sans-Serif" font-size="10.00">(XmlSchemaObjectCollection</text>
<text text-anchor="start" x="183.81" y="-490" font-family="Helvetica,sans-Serif" font-size="10.00"> container)</text>
<text text-anchor="start" x="170.81" y="-475" font-family="Helvetica,sans-Serif" font-size="10.00">#</text>
<text text-anchor="start" x="183.81" y="-475" font-family="Helvetica,sans-Serif" font-size="10.00">XmlSchemaObject()</text>
<polygon fill="#666666" stroke="#666666" points="166.81,-611 166.81,-611 330.81,-611 330.81,-611 166.81,-611"/>
<polygon fill="#666666" stroke="#666666" points="166.81,-596 166.81,-596 330.81,-596 330.81,-596 166.81,-596"/>
<polygon fill="none" stroke="#666666" points="166.81,-468 166.81,-628 330.81,-628 330.81,-468 166.81,-468"/>
</a>
</g>
</g>
<!-- Node4&#45;&gt;Node3 -->
<g id="edge3_Node000003_Node000004" class="edge">
<title>Node4&#45;&gt;Node3</title>
<g id="a_edge3_Node000003_Node000004"><a xlink:title=" ">
<path fill="none" stroke="#63b8ff" d="M248.81,-457.64C248.81,-447.97 248.81,-438.84 248.81,-431.1"/>
<polygon fill="none" stroke="#63b8ff" points="245.31,-457.88 248.81,-467.88 252.31,-457.88 245.31,-457.88"/>
</a>
</g>
</g>
<!-- Node5 -->
<g id="Node000005" class="node">
<title>Node5</title>
<g id="a_Node000005"><a xlink:title=" ">
<polygon fill="white" stroke="transparent" points="134.81,-431 84.81,-431 84.81,-382 134.81,-382 134.81,-431"/>
<text text-anchor="start" x="89.81" y="-418.5" font-family="Helvetica,sans-Serif" font-size="10.00">decimal</text>
<text text-anchor="start" x="107.81" y="-403.5" font-family="Helvetica,sans-Serif" font-size="10.00"> </text>
<text text-anchor="start" x="107.81" y="-388.5" font-family="Helvetica,sans-Serif" font-size="10.00"> </text>
<polygon fill="#666666" stroke="#666666" points="84.81,-413.5 84.81,-413.5 134.81,-413.5 134.81,-413.5 84.81,-413.5"/>
<polygon fill="#666666" stroke="#666666" points="84.81,-398.5 84.81,-398.5 134.81,-398.5 134.81,-398.5 84.81,-398.5"/>
<polygon fill="none" stroke="#666666" points="84.81,-382 84.81,-431 134.81,-431 134.81,-382 84.81,-382"/>
</a>
</g>
</g>
<!-- Node5&#45;&gt;Node2 -->
<g id="edge4_Node000002_Node000005" class="edge">
<title>Node5&#45;&gt;Node2</title>
<g id="a_edge4_Node000002_Node000005"><a xlink:title=" ">
<path fill="none" stroke="#63b8ff" d="M84.76,-392.6C61.49,-379.05 28.32,-355.35 13.81,-324 -2.99,-287.7 -5.76,-268.89 13.81,-234 29.36,-206.28 56.47,-185.58 83.89,-170.61"/>
<polygon fill="none" stroke="#63b8ff" points="84.14,-170.48 87.63,-164.16 94.8,-164.95 91.31,-171.26 84.14,-170.48"/>
</a>
</g>
<text text-anchor="middle" x="44.81" y="-282" font-family="Helvetica,sans-Serif" font-size="10.00" fill="grey"> &#45;maxOccurs</text>
<text text-anchor="middle" x="44.81" y="-271" font-family="Helvetica,sans-Serif" font-size="10.00" fill="grey">&#45;minOccurs</text>
</g>
<!-- Node5&#45;&gt;Node6 -->
<g id="edge7_Node000006_Node000005" class="edge">
<title>Node5&#45;&gt;Node6</title>
<g id="a_edge7_Node000006_Node000005"><a xlink:title=" ">
<path fill="none" stroke="#63b8ff" d="M121.47,-381.89C128,-368.68 136.43,-351.62 144.52,-335.24"/>
<polygon fill="none" stroke="#63b8ff" points="144.72,-334.83 143.79,-327.68 150.04,-324.07 150.97,-331.23 144.72,-334.83"/>
</a>
</g>
<text text-anchor="middle" x="171.81" y="-356" font-family="Helvetica,sans-Serif" font-size="10.00" fill="grey"> &#45;maxOccurs</text>
<text text-anchor="middle" x="171.81" y="-345" font-family="Helvetica,sans-Serif" font-size="10.00" fill="grey">&#45;minOccurs</text>
</g>
<!-- Node6&#45;&gt;Node2 -->
<g id="edge5_Node000002_Node000006" class="edge">
<title>Node6&#45;&gt;Node2</title>
<g id="a_edge5_Node000002_Node000006"><a xlink:title=" ">
<path fill="none" stroke="#63b8ff" d="M171.81,-233.93C171.81,-219.47 171.81,-203.28 171.81,-188.36"/>
<polygon fill="none" stroke="#63b8ff" points="171.81,-188.19 167.81,-182.19 171.81,-176.19 175.81,-182.19 171.81,-188.19"/>
</a>
</g>
<text text-anchor="middle" x="191.81" y="-208" font-family="Helvetica,sans-Serif" font-size="10.00" fill="grey"> &#45;flags</text>
<text text-anchor="middle" x="191.81" y="-197" font-family="Helvetica,sans-Serif" font-size="10.00" fill="grey">~Empty</text>
</g>
<!-- Node6&#45;&gt;Node6 -->
<g id="edge8_Node000006_Node000006" class="edge">
<title>Node6&#45;&gt;Node6</title>
<g id="a_edge8_Node000006_Node000006"><a xlink:title=" ">
<path fill="none" stroke="#63b8ff" d="M258.7,-291C269.34,-288.85 276.31,-284.85 276.31,-279 276.31,-275.71 274.11,-273 270.28,-270.88"/>
<polygon fill="none" stroke="#63b8ff" points="270.08,-270.81 263.12,-272.7 258.7,-267 265.66,-265.11 270.08,-270.81"/>
</a>
</g>
<text text-anchor="middle" x="296.31" y="-282" font-family="Helvetica,sans-Serif" font-size="10.00" fill="grey"> &#45;flags</text>
<text text-anchor="middle" x="296.31" y="-271" font-family="Helvetica,sans-Serif" font-size="10.00" fill="grey">~Empty</text>
</g>
</g>
</svg>

<g id="navigator" transform="translate(0 0)" fill="#404254">
  <rect fill="#f2f5e9" fill-opacity="0.5" stroke="#606060" stroke-width=".5" x="0" y="0" width="60" height="60"/>
  <use id="zoomplus" xlink:href="#zoomPlus" x="17" y="9" onmousedown="handleZoom(evt,'in')"/>
  <use id="zoomminus" xlink:href="#zoomMin" x="42" y="9" onmousedown="handleZoom(evt,'out')"/>
  <use id="reset" xlink:href="#resetDef" x="30" y="36" onmousedown="handleReset()"/>
   <use id="arrowup" xlink:href="#arrowUp" x="0" y="0" onmousedown="handlePan(0,-1)"/>
  <use id="arrowright" xlink:href="#arrowRight" x="0" y="0" onmousedown="handlePan(1,0)"/>
  <use id="arrowdown" xlink:href="#arrowDown" x="0" y="0" onmousedown="handlePan(0,1)"/>
  <use id="arrowleft" xlink:href="#arrowLeft" x="0" y="0" onmousedown="handlePan(-1,0)"/>
</g>
<svg viewBox="0 0 15 15" width="100%" height="30px" preserveAspectRatio="xMaxYMin meet">
 <g id="arrow_out" transform="scale(0.3 0.3)">
  <a xlink:href="classSystem_1_1Xml_1_1Schema_1_1XmlSchemaGroupRef__coll__graph_org.svg" target="_base">
   <rect id="button" ry="5" rx="5" y="6" x="6" height="38" width="38"
        fill="#f2f5e9" fill-opacity="0.5" stroke="#606060" stroke-width="1.0"/>
   <path id="arrow"
     d="M 11.500037,31.436501 C 11.940474,20.09759 22.043105,11.32322 32.158766,21.979434 L 37.068811,17.246167 C 37.068811,17.246167 37.088388,32 37.088388,32 L 22.160133,31.978069 C 22.160133,31.978069 26.997745,27.140456 26.997745,27.140456 C 18.528582,18.264221 13.291696,25.230495 11.500037,31.436501 z"
     style="fill:#404040;"/>
  </a>
 </g>
</svg>

<style type='text/css'>
<![CDATA[
[data-mouse-over-selected='false'] { opacity: 0.7; }
[data-mouse-over-selected='true']  { opacity: 1.0; }
]]>
</style>
<script type="application/ecmascript"><![CDATA[
document.addEventListener('DOMContentLoaded', (event) => {
  highlightEdges();
  highlightAdjacentNodes();
});
]]></script>
</svg>
