<?xml version="1.0" encoding="UTF-8" standalone="no"?>
<!DOCTYPE svg PUBLIC "-//W3C//DTD SVG 1.1//EN"
 "http://www.w3.org/Graphics/SVG/1.1/DTD/svg11.dtd">
<!-- Generated by graphviz version 2.43.0 (0)
 -->
<!-- Title: NaughtyAttributes.ValidatorAttribute Pages: 1 -->
<!--zoomable 1365 -->

<svg id="main" version="1.1" xmlns="http://www.w3.org/2000/svg" xmlns:xlink="http://www.w3.org/1999/xlink" xml:space="preserve" onload="init(evt)">
<style type="text/css"><![CDATA[
.node, .edge {opacity: 0.7;}
.node.selected, .edge.selected {opacity: 1;}
.edge:hover path { stroke: red; }
.edge:hover polygon { stroke: red; fill: red; }
]]></style>

<defs>
  <circle id="rim" cx="0" cy="0" r="7"/>
  <circle id="rim2" cx="0" cy="0" r="3.5"/>
  <g id="zoomPlus">
    <use xlink:href="#rim" fill="#404040"><set attributeName="fill" to="#808080" begin="zoomplus.mouseover" end="zoomplus.mouseout"/></use>
    <path d="M-4,0h8M0,-4v8" fill="none" stroke="white" stroke-width="1.5" pointer-events="none"/>
  </g>
  <g id="zoomMin">
    <use xlink:href="#rim" fill="#404040"><set attributeName="fill" to="#808080" begin="zoomminus.mouseover" end="zoomminus.mouseout"/></use>
    <path d="M-4,0h8" fill="none" stroke="white" stroke-width="1.5" pointer-events="none"/>
  </g>
  <g id="arrowUp" transform="translate(30 24)">
    <use xlink:href="#rim"/>
    <path pointer-events="none" fill="none" stroke="white" stroke-width="1.5" d="M0,-3.0v7 M-2.5,-0.5L0,-3.0L2.5,-0.5"/>
  </g>
  <g id="arrowRight" transform="rotate(90) translate(36 -43)">
    <use xlink:href="#rim"/>
    <path pointer-events="none" fill="none" stroke="white" stroke-width="1.5" d="M0,-3.0v7 M-2.5,-0.5L0,-3.0L2.5,-0.5"/>
  </g>
  <g id="arrowDown" transform="rotate(180) translate(-30 -48)">
    <use xlink:href="#rim"/>
    <path pointer-events="none" fill="none" stroke="white" stroke-width="1.5" d="M0,-3.0v7 M-2.5,-0.5L0,-3.0L2.5,-0.5"/>
  </g>
  <g id="arrowLeft" transform="rotate(270) translate(-36 17)">
    <use xlink:href="#rim"/>
    <path pointer-events="none" fill="none" stroke="white" stroke-width="1.5" d="M0,-3.0v7 M-2.5,-0.5L0,-3.0L2.5,-0.5"/>
  </g>
  <g id="resetDef">
    <use xlink:href="#rim2" fill="#404040"><set attributeName="fill" to="#808080" begin="reset.mouseover" end="reset.mouseout"/></use>
  </g>
</defs>
<script type="application/ecmascript">
var viewWidth = 651;
var viewHeight = 1365;
var sectionId = 'dynsection-0';
</script>
<script type="application/ecmascript" xlink:href="../../svg.min.js"/>
<svg id="graph" class="graph">
<g id="viewport">
<title>NaughtyAttributes.ValidatorAttribute</title>
<!-- Node1 -->
<g id="Node000001" class="node">
<title>Node1</title>
<g id="a_Node000001"><a xlink:title=" ">
<polygon fill="#999999" stroke="transparent" points="398.5,-245 252.5,-245 252.5,-185 398.5,-185 398.5,-245"/>
<text text-anchor="start" x="257.5" y="-233" font-family="Helvetica,sans-Serif" font-size="10.00">NaughtyAttributes.Validator</text>
<text text-anchor="start" x="304" y="-222" font-family="Helvetica,sans-Serif" font-size="10.00">Attribute</text>
<text text-anchor="start" x="323.5" y="-207" font-family="Helvetica,sans-Serif" font-size="10.00"> </text>
<text text-anchor="start" x="264" y="-192" font-family="Helvetica,sans-Serif" font-size="10.00">#</text>
<text text-anchor="start" x="284.5" y="-192" font-family="Helvetica,sans-Serif" font-size="10.00">ValidatorAttribute()</text>
<polygon fill="#666666" stroke="#666666" points="252.5,-217 252.5,-217 398.5,-217 398.5,-217 252.5,-217"/>
<polygon fill="#666666" stroke="#666666" points="252.5,-202 252.5,-202 398.5,-202 398.5,-202 252.5,-202"/>
<polygon fill="none" stroke="#666666" points="252.5,-185 252.5,-245 398.5,-245 398.5,-185 252.5,-185"/>
</a>
</g>
</g>
<!-- Node4 -->
<g id="Node000004" class="node">
<title>Node4</title>
<g id="a_Node000004"><a xlink:href="../../d2/ddd/classNaughtyAttributes_1_1MaxValueAttribute.html" target="_top" xlink:title=" ">
<polygon fill="white" stroke="transparent" points="151,-136 0,-136 0,-13 151,-13 151,-136"/>
<text text-anchor="start" x="5.5" y="-123.5" font-family="Helvetica,sans-Serif" font-size="10.00">NaughtyAttributes.MaxValue</text>
<text text-anchor="start" x="54.5" y="-112.5" font-family="Helvetica,sans-Serif" font-size="10.00">Attribute</text>
<text text-anchor="start" x="11.5" y="-97.5" font-family="Helvetica,sans-Serif" font-size="10.00">+</text>
<text text-anchor="start" x="31.5" y="-97.5" font-family="Helvetica,sans-Serif" font-size="10.00">float MaxValue</text>
<text text-anchor="start" x="14" y="-82.5" font-family="Helvetica,sans-Serif" font-size="10.00">&#45;</text>
<text text-anchor="start" x="31.5" y="-82.5" font-family="Helvetica,sans-Serif" font-size="10.00">float&lt; MaxValue &gt; k</text>
<text text-anchor="start" x="31.5" y="-71.5" font-family="Helvetica,sans-Serif" font-size="10.00">__BackingField</text>
<text text-anchor="start" x="11.5" y="-56.5" font-family="Helvetica,sans-Serif" font-size="10.00">+</text>
<text text-anchor="start" x="31.5" y="-56.5" font-family="Helvetica,sans-Serif" font-size="10.00">MaxValueAttribute</text>
<text text-anchor="start" x="31.5" y="-45.5" font-family="Helvetica,sans-Serif" font-size="10.00">(float maxValue)</text>
<text text-anchor="start" x="11.5" y="-30.5" font-family="Helvetica,sans-Serif" font-size="10.00">+</text>
<text text-anchor="start" x="31.5" y="-30.5" font-family="Helvetica,sans-Serif" font-size="10.00">MaxValueAttribute</text>
<text text-anchor="start" x="31.5" y="-19.5" font-family="Helvetica,sans-Serif" font-size="10.00">(int maxValue)</text>
<polygon fill="#666666" stroke="#666666" points="0.5,-107.5 0.5,-107.5 151.5,-107.5 151.5,-107.5 0.5,-107.5"/>
<polygon fill="#666666" stroke="#666666" points="0.5,-66.5 0.5,-66.5 29.5,-66.5 29.5,-66.5 0.5,-66.5"/>
<polygon fill="#666666" stroke="#666666" points="29.5,-66.5 29.5,-66.5 151.5,-66.5 151.5,-66.5 29.5,-66.5"/>
<polygon fill="none" stroke="#666666" points="0,-13 0,-136 151,-136 151,-13 0,-13"/>
</a>
</g>
</g>
<!-- Node1&#45;&gt;Node4 -->
<g id="edge3_Node000001_Node000004" class="edge">
<title>Node1&#45;&gt;Node4</title>
<g id="a_edge3_Node000001_Node000004"><a xlink:title=" ">
<path fill="none" stroke="#63b8ff" d="M242.86,-187.69C215.69,-177.43 185.95,-164.4 160.5,-149 154.16,-145.16 147.82,-140.84 141.64,-136.27"/>
<polygon fill="none" stroke="#63b8ff" points="241.75,-191.02 252.35,-191.2 244.18,-184.45 241.75,-191.02"/>
</a>
</g>
</g>
<!-- Node5 -->
<g id="Node000005" class="node">
<title>Node5</title>
<g id="a_Node000005"><a xlink:href="../../d0/d9c/classNaughtyAttributes_1_1MinValueAttribute.html" target="_top" xlink:title=" ">
<polygon fill="white" stroke="transparent" points="317.5,-136 169.5,-136 169.5,-13 317.5,-13 317.5,-136"/>
<text text-anchor="start" x="174.5" y="-123.5" font-family="Helvetica,sans-Serif" font-size="10.00">NaughtyAttributes.MinValue</text>
<text text-anchor="start" x="222" y="-112.5" font-family="Helvetica,sans-Serif" font-size="10.00">Attribute</text>
<text text-anchor="start" x="180.5" y="-97.5" font-family="Helvetica,sans-Serif" font-size="10.00">+</text>
<text text-anchor="start" x="200.5" y="-97.5" font-family="Helvetica,sans-Serif" font-size="10.00">float MinValue</text>
<text text-anchor="start" x="183" y="-82.5" font-family="Helvetica,sans-Serif" font-size="10.00">&#45;</text>
<text text-anchor="start" x="200.5" y="-82.5" font-family="Helvetica,sans-Serif" font-size="10.00">float&lt; MinValue &gt; k</text>
<text text-anchor="start" x="200.5" y="-71.5" font-family="Helvetica,sans-Serif" font-size="10.00">__BackingField</text>
<text text-anchor="start" x="180.5" y="-56.5" font-family="Helvetica,sans-Serif" font-size="10.00">+</text>
<text text-anchor="start" x="200.5" y="-56.5" font-family="Helvetica,sans-Serif" font-size="10.00">MinValueAttribute</text>
<text text-anchor="start" x="200.5" y="-45.5" font-family="Helvetica,sans-Serif" font-size="10.00">(float minValue)</text>
<text text-anchor="start" x="180.5" y="-30.5" font-family="Helvetica,sans-Serif" font-size="10.00">+</text>
<text text-anchor="start" x="200.5" y="-30.5" font-family="Helvetica,sans-Serif" font-size="10.00">MinValueAttribute</text>
<text text-anchor="start" x="200.5" y="-19.5" font-family="Helvetica,sans-Serif" font-size="10.00">(int minValue)</text>
<polygon fill="#666666" stroke="#666666" points="169.5,-107.5 169.5,-107.5 317.5,-107.5 317.5,-107.5 169.5,-107.5"/>
<polygon fill="#666666" stroke="#666666" points="169.5,-66.5 169.5,-66.5 198.5,-66.5 198.5,-66.5 169.5,-66.5"/>
<polygon fill="#666666" stroke="#666666" points="198.5,-66.5 198.5,-66.5 317.5,-66.5 317.5,-66.5 198.5,-66.5"/>
<polygon fill="none" stroke="#666666" points="169.5,-13 169.5,-136 317.5,-136 317.5,-13 169.5,-13"/>
</a>
</g>
</g>
<!-- Node1&#45;&gt;Node5 -->
<g id="edge4_Node000001_Node000005" class="edge">
<title>Node1&#45;&gt;Node5</title>
<g id="a_edge4_Node000001_Node000005"><a xlink:title=" ">
<path fill="none" stroke="#63b8ff" d="M303.17,-176.28C295.84,-163.9 287.49,-149.81 279.42,-136.16"/>
<polygon fill="none" stroke="#63b8ff" points="300.2,-178.14 308.31,-184.97 306.23,-174.58 300.2,-178.14"/>
</a>
</g>
</g>
<!-- Node6 -->
<g id="Node000006" class="node">
<title>Node6</title>
<g id="a_Node000006"><a xlink:href="../../d8/d1d/classNaughtyAttributes_1_1RequiredAttribute.html" target="_top" xlink:title=" ">
<polygon fill="white" stroke="transparent" points="481.5,-123 335.5,-123 335.5,-26 481.5,-26 481.5,-123"/>
<text text-anchor="start" x="340.5" y="-110.5" font-family="Helvetica,sans-Serif" font-size="10.00">NaughtyAttributes.Required</text>
<text text-anchor="start" x="387" y="-99.5" font-family="Helvetica,sans-Serif" font-size="10.00">Attribute</text>
<text text-anchor="start" x="343.5" y="-84.5" font-family="Helvetica,sans-Serif" font-size="10.00">+</text>
<text text-anchor="start" x="360.5" y="-84.5" font-family="Helvetica,sans-Serif" font-size="10.00">string Message</text>
<text text-anchor="start" x="346" y="-69.5" font-family="Helvetica,sans-Serif" font-size="10.00">&#45;</text>
<text text-anchor="start" x="360.5" y="-69.5" font-family="Helvetica,sans-Serif" font-size="10.00">string&lt; Message &gt; k</text>
<text text-anchor="start" x="360.5" y="-58.5" font-family="Helvetica,sans-Serif" font-size="10.00">__BackingField</text>
<text text-anchor="start" x="343.5" y="-43.5" font-family="Helvetica,sans-Serif" font-size="10.00">+</text>
<text text-anchor="start" x="360.5" y="-43.5" font-family="Helvetica,sans-Serif" font-size="10.00">RequiredAttribute</text>
<text text-anchor="start" x="360.5" y="-32.5" font-family="Helvetica,sans-Serif" font-size="10.00">(string message=null)</text>
<polygon fill="#666666" stroke="#666666" points="335.5,-94.5 335.5,-94.5 481.5,-94.5 481.5,-94.5 335.5,-94.5"/>
<polygon fill="#666666" stroke="#666666" points="335.5,-53.5 335.5,-53.5 358.5,-53.5 358.5,-53.5 335.5,-53.5"/>
<polygon fill="#666666" stroke="#666666" points="358.5,-53.5 358.5,-53.5 481.5,-53.5 481.5,-53.5 358.5,-53.5"/>
<polygon fill="none" stroke="#666666" points="335.5,-26 335.5,-123 481.5,-123 481.5,-26 335.5,-26"/>
</a>
</g>
</g>
<!-- Node1&#45;&gt;Node6 -->
<g id="edge5_Node000001_Node000006" class="edge">
<title>Node1&#45;&gt;Node6</title>
<g id="a_edge5_Node000001_Node000006"><a xlink:title=" ">
<path fill="none" stroke="#63b8ff" d="M348.16,-176.19C357.99,-159.79 369.61,-140.39 380.02,-123.03"/>
<polygon fill="none" stroke="#63b8ff" points="345.04,-174.59 342.9,-184.97 351.04,-178.19 345.04,-174.59"/>
</a>
</g>
</g>
<!-- Node7 -->
<g id="Node000007" class="node">
<title>Node7</title>
<g id="a_Node000007"><a xlink:href="../../dd/d77/classNaughtyAttributes_1_1ValidateInputAttribute.html" target="_top" xlink:title=" ">
<polygon fill="white" stroke="transparent" points="643,-149 500,-149 500,0 643,0 643,-149"/>
<text text-anchor="start" x="505.5" y="-136.5" font-family="Helvetica,sans-Serif" font-size="10.00">NaughtyAttributes.Validate</text>
<text text-anchor="start" x="538" y="-125.5" font-family="Helvetica,sans-Serif" font-size="10.00">InputAttribute</text>
<text text-anchor="start" x="507" y="-110.5" font-family="Helvetica,sans-Serif" font-size="10.00">+</text>
<text text-anchor="start" x="522.5" y="-110.5" font-family="Helvetica,sans-Serif" font-size="10.00">string CallbackName</text>
<text text-anchor="start" x="507" y="-95.5" font-family="Helvetica,sans-Serif" font-size="10.00">+</text>
<text text-anchor="start" x="522.5" y="-95.5" font-family="Helvetica,sans-Serif" font-size="10.00">string Message</text>
<text text-anchor="start" x="509.5" y="-80.5" font-family="Helvetica,sans-Serif" font-size="10.00">&#45;</text>
<text text-anchor="start" x="522.5" y="-80.5" font-family="Helvetica,sans-Serif" font-size="10.00">string&lt; CallbackName</text>
<text text-anchor="start" x="522.5" y="-69.5" font-family="Helvetica,sans-Serif" font-size="10.00"> &gt; k__BackingField</text>
<text text-anchor="start" x="509.5" y="-54.5" font-family="Helvetica,sans-Serif" font-size="10.00">&#45;</text>
<text text-anchor="start" x="522.5" y="-54.5" font-family="Helvetica,sans-Serif" font-size="10.00">string&lt; Message &gt; k</text>
<text text-anchor="start" x="522.5" y="-43.5" font-family="Helvetica,sans-Serif" font-size="10.00">__BackingField</text>
<text text-anchor="start" x="507" y="-28.5" font-family="Helvetica,sans-Serif" font-size="10.00">+</text>
<text text-anchor="start" x="522.5" y="-28.5" font-family="Helvetica,sans-Serif" font-size="10.00">ValidateInputAttribute</text>
<text text-anchor="start" x="522.5" y="-17.5" font-family="Helvetica,sans-Serif" font-size="10.00">(string callbackName,</text>
<text text-anchor="start" x="522.5" y="-6.5" font-family="Helvetica,sans-Serif" font-size="10.00"> string message=null)</text>
<polygon fill="#666666" stroke="#666666" points="500.5,-120.5 500.5,-120.5 643.5,-120.5 643.5,-120.5 500.5,-120.5"/>
<polygon fill="#666666" stroke="#666666" points="500.5,-38.5 500.5,-38.5 520.5,-38.5 520.5,-38.5 500.5,-38.5"/>
<polygon fill="#666666" stroke="#666666" points="520.5,-38.5 520.5,-38.5 643.5,-38.5 643.5,-38.5 520.5,-38.5"/>
<polygon fill="none" stroke="#666666" points="500,0 500,-149 643,-149 643,0 500,0"/>
</a>
</g>
</g>
<!-- Node1&#45;&gt;Node7 -->
<g id="edge6_Node000001_Node000007" class="edge">
<title>Node1&#45;&gt;Node7</title>
<g id="a_edge6_Node000001_Node000007"><a xlink:title=" ">
<path fill="none" stroke="#63b8ff" d="M408.36,-188.04C435.54,-177.81 465.24,-164.7 490.5,-149 493.56,-147.1 496.62,-145.07 499.65,-142.95"/>
<polygon fill="none" stroke="#63b8ff" points="407.03,-184.8 398.86,-191.54 409.45,-191.37 407.03,-184.8"/>
</a>
</g>
</g>
<!-- Node2 -->
<g id="Node000002" class="node">
<title>Node2</title>
<g id="a_Node000002"><a xlink:href="../../dc/d9e/classNaughtyAttributes_1_1NaughtyAttribute.html" target="_top" xlink:title=" ">
<polygon fill="white" stroke="transparent" points="382,-330 269,-330 269,-281 382,-281 382,-330"/>
<text text-anchor="start" x="283.5" y="-317.5" font-family="Helvetica,sans-Serif" font-size="10.00">NaughtyAttribute</text>
<text text-anchor="start" x="324" y="-302.5" font-family="Helvetica,sans-Serif" font-size="10.00"> </text>
<text text-anchor="start" x="273.5" y="-287.5" font-family="Helvetica,sans-Serif" font-size="10.00">+</text>
<text text-anchor="start" x="286.5" y="-287.5" font-family="Helvetica,sans-Serif" font-size="10.00">NaughtyAttribute()</text>
<polygon fill="#666666" stroke="#666666" points="269.5,-312.5 269.5,-312.5 382.5,-312.5 382.5,-312.5 269.5,-312.5"/>
<polygon fill="#666666" stroke="#666666" points="269.5,-297.5 269.5,-297.5 382.5,-297.5 382.5,-297.5 269.5,-297.5"/>
<polygon fill="none" stroke="#666666" points="269,-281 269,-330 382,-330 382,-281 269,-281"/>
</a>
</g>
</g>
<!-- Node2&#45;&gt;Node1 -->
<g id="edge1_Node000001_Node000002" class="edge">
<title>Node2&#45;&gt;Node1</title>
<g id="a_edge1_Node000001_Node000002"><a xlink:title=" ">
<path fill="none" stroke="#63b8ff" d="M325.5,-270.55C325.5,-262.18 325.5,-253.28 325.5,-245.16"/>
<polygon fill="none" stroke="#63b8ff" points="322,-270.78 325.5,-280.78 329,-270.78 322,-270.78"/>
</a>
</g>
</g>
<!-- Node3 -->
<g id="Node000003" class="node">
<title>Node3</title>
<g id="a_Node000003"><a xlink:href="../../d1/d05/classSystem_1_1Attribute.html" target="_top" xlink:title=" ">
<polygon fill="white" stroke="transparent" points="450.5,-1357 200.5,-1357 200.5,-366 450.5,-366 450.5,-1357"/>
<text text-anchor="start" x="304" y="-1344.5" font-family="Helvetica,sans-Serif" font-size="10.00">Attribute</text>
<text text-anchor="start" x="204.5" y="-1329.5" font-family="Helvetica,sans-Serif" font-size="10.00">+</text>
<text text-anchor="start" x="217.5" y="-1329.5" font-family="Helvetica,sans-Serif" font-size="10.00">virtual object TypeId</text>
<text text-anchor="start" x="204.5" y="-1314.5" font-family="Helvetica,sans-Serif" font-size="10.00">+</text>
<text text-anchor="start" x="217.5" y="-1314.5" font-family="Helvetica,sans-Serif" font-size="10.00">override bool Equals</text>
<text text-anchor="start" x="217.5" y="-1303.5" font-family="Helvetica,sans-Serif" font-size="10.00">(object obj)</text>
<text text-anchor="start" x="204.5" y="-1288.5" font-family="Helvetica,sans-Serif" font-size="10.00">+</text>
<text text-anchor="start" x="217.5" y="-1288.5" font-family="Helvetica,sans-Serif" font-size="10.00">override int GetHashCode()</text>
<text text-anchor="start" x="204.5" y="-1273.5" font-family="Helvetica,sans-Serif" font-size="10.00">+</text>
<text text-anchor="start" x="217.5" y="-1273.5" font-family="Helvetica,sans-Serif" font-size="10.00">virtual bool Match</text>
<text text-anchor="start" x="217.5" y="-1262.5" font-family="Helvetica,sans-Serif" font-size="10.00">(object obj)</text>
<text text-anchor="start" x="204.5" y="-1247.5" font-family="Helvetica,sans-Serif" font-size="10.00">+</text>
<text text-anchor="start" x="217.5" y="-1247.5" font-family="Helvetica,sans-Serif" font-size="10.00">virtual bool IsDefaultAttribute()</text>
<text text-anchor="start" x="204.5" y="-1232.5" font-family="Helvetica,sans-Serif" font-size="10.00">+</text>
<text text-anchor="start" x="217.5" y="-1232.5" font-family="Helvetica,sans-Serif" font-size="10.00">static global::System.Attribute</text>
<text text-anchor="start" x="217.5" y="-1221.5" font-family="Helvetica,sans-Serif" font-size="10.00">[] GetCustomAttributes(global</text>
<text text-anchor="start" x="217.5" y="-1210.5" font-family="Helvetica,sans-Serif" font-size="10.00">::System.Reflection.MemberInfo</text>
<text text-anchor="start" x="217.5" y="-1199.5" font-family="Helvetica,sans-Serif" font-size="10.00"> element, global::System.Type type)</text>
<text text-anchor="start" x="204.5" y="-1184.5" font-family="Helvetica,sans-Serif" font-size="10.00">+</text>
<text text-anchor="start" x="217.5" y="-1184.5" font-family="Helvetica,sans-Serif" font-size="10.00">static global::System.Attribute</text>
<text text-anchor="start" x="217.5" y="-1173.5" font-family="Helvetica,sans-Serif" font-size="10.00">[] GetCustomAttributes(global</text>
<text text-anchor="start" x="217.5" y="-1162.5" font-family="Helvetica,sans-Serif" font-size="10.00">::System.Reflection.MemberInfo</text>
<text text-anchor="start" x="217.5" y="-1151.5" font-family="Helvetica,sans-Serif" font-size="10.00"> element, global::System.Type type,</text>
<text text-anchor="start" x="217.5" y="-1140.5" font-family="Helvetica,sans-Serif" font-size="10.00"> bool inherit)</text>
<text text-anchor="start" x="204.5" y="-1125.5" font-family="Helvetica,sans-Serif" font-size="10.00">+</text>
<text text-anchor="start" x="217.5" y="-1125.5" font-family="Helvetica,sans-Serif" font-size="10.00">static global::System.Attribute</text>
<text text-anchor="start" x="217.5" y="-1114.5" font-family="Helvetica,sans-Serif" font-size="10.00">[] GetCustomAttributes(global</text>
<text text-anchor="start" x="217.5" y="-1103.5" font-family="Helvetica,sans-Serif" font-size="10.00">::System.Reflection.MemberInfo</text>
<text text-anchor="start" x="217.5" y="-1092.5" font-family="Helvetica,sans-Serif" font-size="10.00"> element, bool inherit)</text>
<text text-anchor="start" x="204.5" y="-1077.5" font-family="Helvetica,sans-Serif" font-size="10.00">+</text>
<text text-anchor="start" x="217.5" y="-1077.5" font-family="Helvetica,sans-Serif" font-size="10.00">static bool IsDefined</text>
<text text-anchor="start" x="217.5" y="-1066.5" font-family="Helvetica,sans-Serif" font-size="10.00">(global::System.Reflection.</text>
<text text-anchor="start" x="217.5" y="-1055.5" font-family="Helvetica,sans-Serif" font-size="10.00">MemberInfo element, global</text>
<text text-anchor="start" x="217.5" y="-1044.5" font-family="Helvetica,sans-Serif" font-size="10.00">::System.Type attributeType)</text>
<text text-anchor="start" x="204.5" y="-1029.5" font-family="Helvetica,sans-Serif" font-size="10.00">+</text>
<text text-anchor="start" x="217.5" y="-1029.5" font-family="Helvetica,sans-Serif" font-size="10.00">static bool IsDefined</text>
<text text-anchor="start" x="217.5" y="-1018.5" font-family="Helvetica,sans-Serif" font-size="10.00">(global::System.Reflection.</text>
<text text-anchor="start" x="217.5" y="-1007.5" font-family="Helvetica,sans-Serif" font-size="10.00">MemberInfo element, global</text>
<text text-anchor="start" x="217.5" y="-996.5" font-family="Helvetica,sans-Serif" font-size="10.00">::System.Type attributeType,</text>
<text text-anchor="start" x="217.5" y="-985.5" font-family="Helvetica,sans-Serif" font-size="10.00"> bool inherit)</text>
<text text-anchor="start" x="204.5" y="-970.5" font-family="Helvetica,sans-Serif" font-size="10.00">+</text>
<text text-anchor="start" x="217.5" y="-970.5" font-family="Helvetica,sans-Serif" font-size="10.00">static global::System.Attribute</text>
<text text-anchor="start" x="217.5" y="-959.5" font-family="Helvetica,sans-Serif" font-size="10.00"> GetCustomAttribute(global</text>
<text text-anchor="start" x="217.5" y="-948.5" font-family="Helvetica,sans-Serif" font-size="10.00">::System.Reflection.MemberInfo</text>
<text text-anchor="start" x="217.5" y="-937.5" font-family="Helvetica,sans-Serif" font-size="10.00"> element, global::System.Type</text>
<text text-anchor="start" x="217.5" y="-926.5" font-family="Helvetica,sans-Serif" font-size="10.00"> attributeType, bool inherit)</text>
<text text-anchor="start" x="204.5" y="-911.5" font-family="Helvetica,sans-Serif" font-size="10.00">+</text>
<text text-anchor="start" x="217.5" y="-911.5" font-family="Helvetica,sans-Serif" font-size="10.00">static global::System.Attribute</text>
<text text-anchor="start" x="217.5" y="-900.5" font-family="Helvetica,sans-Serif" font-size="10.00">[] GetCustomAttributes(global</text>
<text text-anchor="start" x="217.5" y="-889.5" font-family="Helvetica,sans-Serif" font-size="10.00">::System.Reflection.ParameterInfo</text>
<text text-anchor="start" x="217.5" y="-878.5" font-family="Helvetica,sans-Serif" font-size="10.00"> element, global::System.Type attributeType,</text>
<text text-anchor="start" x="217.5" y="-867.5" font-family="Helvetica,sans-Serif" font-size="10.00"> bool inherit)</text>
<text text-anchor="start" x="204.5" y="-852.5" font-family="Helvetica,sans-Serif" font-size="10.00">+</text>
<text text-anchor="start" x="217.5" y="-852.5" font-family="Helvetica,sans-Serif" font-size="10.00">static global::System.Attribute</text>
<text text-anchor="start" x="217.5" y="-841.5" font-family="Helvetica,sans-Serif" font-size="10.00">[] GetCustomAttributes(global</text>
<text text-anchor="start" x="217.5" y="-830.5" font-family="Helvetica,sans-Serif" font-size="10.00">::System.Reflection.ParameterInfo</text>
<text text-anchor="start" x="217.5" y="-819.5" font-family="Helvetica,sans-Serif" font-size="10.00"> element, bool inherit)</text>
<text text-anchor="start" x="204.5" y="-804.5" font-family="Helvetica,sans-Serif" font-size="10.00">+</text>
<text text-anchor="start" x="217.5" y="-804.5" font-family="Helvetica,sans-Serif" font-size="10.00">static global::System.Attribute</text>
<text text-anchor="start" x="217.5" y="-793.5" font-family="Helvetica,sans-Serif" font-size="10.00">[] GetCustomAttributes(global</text>
<text text-anchor="start" x="217.5" y="-782.5" font-family="Helvetica,sans-Serif" font-size="10.00">::System.Reflection.Module element,</text>
<text text-anchor="start" x="217.5" y="-771.5" font-family="Helvetica,sans-Serif" font-size="10.00"> bool inherit)</text>
<text text-anchor="start" x="204.5" y="-756.5" font-family="Helvetica,sans-Serif" font-size="10.00">+</text>
<text text-anchor="start" x="217.5" y="-756.5" font-family="Helvetica,sans-Serif" font-size="10.00">static global::System.Attribute</text>
<text text-anchor="start" x="217.5" y="-745.5" font-family="Helvetica,sans-Serif" font-size="10.00">[] GetCustomAttributes(global</text>
<text text-anchor="start" x="217.5" y="-734.5" font-family="Helvetica,sans-Serif" font-size="10.00">::System.Reflection.Module element,</text>
<text text-anchor="start" x="217.5" y="-723.5" font-family="Helvetica,sans-Serif" font-size="10.00"> global::System.Type attributeType,</text>
<text text-anchor="start" x="217.5" y="-712.5" font-family="Helvetica,sans-Serif" font-size="10.00"> bool inherit)</text>
<text text-anchor="start" x="217.5" y="-697.5" font-family="Helvetica,sans-Serif" font-size="10.00">and 6 more...</text>
<text text-anchor="start" x="204.5" y="-682.5" font-family="Helvetica,sans-Serif" font-size="10.00">#</text>
<text text-anchor="start" x="217.5" y="-682.5" font-family="Helvetica,sans-Serif" font-size="10.00">Attribute()</text>
<text text-anchor="start" x="207" y="-667.5" font-family="Helvetica,sans-Serif" font-size="10.00">&#45;</text>
<text text-anchor="start" x="217.5" y="-667.5" font-family="Helvetica,sans-Serif" font-size="10.00">static global::System.Attribute</text>
<text text-anchor="start" x="217.5" y="-656.5" font-family="Helvetica,sans-Serif" font-size="10.00">[] InternalGetCustomAttributes</text>
<text text-anchor="start" x="217.5" y="-645.5" font-family="Helvetica,sans-Serif" font-size="10.00">(global::System.Reflection.PropertyInfo</text>
<text text-anchor="start" x="217.5" y="-634.5" font-family="Helvetica,sans-Serif" font-size="10.00"> element, global::System.Type type,</text>
<text text-anchor="start" x="217.5" y="-623.5" font-family="Helvetica,sans-Serif" font-size="10.00"> bool inherit)</text>
<text text-anchor="start" x="207" y="-608.5" font-family="Helvetica,sans-Serif" font-size="10.00">&#45;</text>
<text text-anchor="start" x="217.5" y="-608.5" font-family="Helvetica,sans-Serif" font-size="10.00">static global::System.Attribute</text>
<text text-anchor="start" x="217.5" y="-597.5" font-family="Helvetica,sans-Serif" font-size="10.00">[] InternalGetCustomAttributes</text>
<text text-anchor="start" x="217.5" y="-586.5" font-family="Helvetica,sans-Serif" font-size="10.00">(global::System.Reflection.EventInfo</text>
<text text-anchor="start" x="217.5" y="-575.5" font-family="Helvetica,sans-Serif" font-size="10.00"> element, global::System.Type type,</text>
<text text-anchor="start" x="217.5" y="-564.5" font-family="Helvetica,sans-Serif" font-size="10.00"> bool inherit)</text>
<text text-anchor="start" x="207" y="-549.5" font-family="Helvetica,sans-Serif" font-size="10.00">&#45;</text>
<text text-anchor="start" x="217.5" y="-549.5" font-family="Helvetica,sans-Serif" font-size="10.00">static global::System.Attribute</text>
<text text-anchor="start" x="217.5" y="-538.5" font-family="Helvetica,sans-Serif" font-size="10.00">[] InternalParamGetCustomAttributes</text>
<text text-anchor="start" x="217.5" y="-527.5" font-family="Helvetica,sans-Serif" font-size="10.00">(global::System.Reflection.ParameterInfo</text>
<text text-anchor="start" x="217.5" y="-516.5" font-family="Helvetica,sans-Serif" font-size="10.00"> parameter, global::System.Type attributeType,</text>
<text text-anchor="start" x="217.5" y="-505.5" font-family="Helvetica,sans-Serif" font-size="10.00"> bool inherit)</text>
<text text-anchor="start" x="207" y="-490.5" font-family="Helvetica,sans-Serif" font-size="10.00">&#45;</text>
<text text-anchor="start" x="217.5" y="-490.5" font-family="Helvetica,sans-Serif" font-size="10.00">static bool InternalIsDefined</text>
<text text-anchor="start" x="217.5" y="-479.5" font-family="Helvetica,sans-Serif" font-size="10.00">(global::System.Reflection.Property</text>
<text text-anchor="start" x="217.5" y="-468.5" font-family="Helvetica,sans-Serif" font-size="10.00">Info element, global::System.Type</text>
<text text-anchor="start" x="217.5" y="-457.5" font-family="Helvetica,sans-Serif" font-size="10.00"> attributeType, bool inherit)</text>
<text text-anchor="start" x="207" y="-442.5" font-family="Helvetica,sans-Serif" font-size="10.00">&#45;</text>
<text text-anchor="start" x="217.5" y="-442.5" font-family="Helvetica,sans-Serif" font-size="10.00">static bool InternalIsDefined</text>
<text text-anchor="start" x="217.5" y="-431.5" font-family="Helvetica,sans-Serif" font-size="10.00">(global::System.Reflection.Event</text>
<text text-anchor="start" x="217.5" y="-420.5" font-family="Helvetica,sans-Serif" font-size="10.00">Info element, global::System.Type</text>
<text text-anchor="start" x="217.5" y="-409.5" font-family="Helvetica,sans-Serif" font-size="10.00"> attributeType, bool inherit)</text>
<text text-anchor="start" x="207" y="-394.5" font-family="Helvetica,sans-Serif" font-size="10.00">&#45;</text>
<text text-anchor="start" x="217.5" y="-394.5" font-family="Helvetica,sans-Serif" font-size="10.00">static bool AreFieldValues</text>
<text text-anchor="start" x="217.5" y="-383.5" font-family="Helvetica,sans-Serif" font-size="10.00">Equal(object thisValue,</text>
<text text-anchor="start" x="217.5" y="-372.5" font-family="Helvetica,sans-Serif" font-size="10.00"> object thatValue)</text>
<polygon fill="#666666" stroke="#666666" points="200.5,-1339.5 200.5,-1339.5 450.5,-1339.5 450.5,-1339.5 200.5,-1339.5"/>
<polygon fill="#666666" stroke="#666666" points="200.5,-1324.5 200.5,-1324.5 215.5,-1324.5 215.5,-1324.5 200.5,-1324.5"/>
<polygon fill="#666666" stroke="#666666" points="215.5,-1324.5 215.5,-1324.5 450.5,-1324.5 450.5,-1324.5 215.5,-1324.5"/>
<polygon fill="none" stroke="#666666" points="200.5,-366 200.5,-1357 450.5,-1357 450.5,-366 200.5,-366"/>
</a>
</g>
</g>
<!-- Node3&#45;&gt;Node2 -->
<g id="edge2_Node000002_Node000003" class="edge">
<title>Node3&#45;&gt;Node2</title>
<g id="a_edge2_Node000002_Node000003"><a xlink:title=" ">
<path fill="none" stroke="#63b8ff" d="M325.5,-355.61C325.5,-345.83 325.5,-337.27 325.5,-330.15"/>
<polygon fill="none" stroke="#63b8ff" points="322,-355.79 325.5,-365.79 329,-355.79 322,-355.79"/>
</a>
</g>
</g>
</g>
</svg>

<g id="navigator" transform="translate(0 0)" fill="#404254">
  <rect fill="#f2f5e9" fill-opacity="0.5" stroke="#606060" stroke-width=".5" x="0" y="0" width="60" height="60"/>
  <use id="zoomplus" xlink:href="#zoomPlus" x="17" y="9" onmousedown="handleZoom(evt,'in')"/>
  <use id="zoomminus" xlink:href="#zoomMin" x="42" y="9" onmousedown="handleZoom(evt,'out')"/>
  <use id="reset" xlink:href="#resetDef" x="30" y="36" onmousedown="handleReset()"/>
   <use id="arrowup" xlink:href="#arrowUp" x="0" y="0" onmousedown="handlePan(0,-1)"/>
  <use id="arrowright" xlink:href="#arrowRight" x="0" y="0" onmousedown="handlePan(1,0)"/>
  <use id="arrowdown" xlink:href="#arrowDown" x="0" y="0" onmousedown="handlePan(0,1)"/>
  <use id="arrowleft" xlink:href="#arrowLeft" x="0" y="0" onmousedown="handlePan(-1,0)"/>
</g>
<svg viewBox="0 0 15 15" width="100%" height="30px" preserveAspectRatio="xMaxYMin meet">
 <g id="arrow_out" transform="scale(0.3 0.3)">
  <a xlink:href="classNaughtyAttributes_1_1ValidatorAttribute__inherit__graph_org.svg" target="_base">
   <rect id="button" ry="5" rx="5" y="6" x="6" height="38" width="38"
        fill="#f2f5e9" fill-opacity="0.5" stroke="#606060" stroke-width="1.0"/>
   <path id="arrow"
     d="M 11.500037,31.436501 C 11.940474,20.09759 22.043105,11.32322 32.158766,21.979434 L 37.068811,17.246167 C 37.068811,17.246167 37.088388,32 37.088388,32 L 22.160133,31.978069 C 22.160133,31.978069 26.997745,27.140456 26.997745,27.140456 C 18.528582,18.264221 13.291696,25.230495 11.500037,31.436501 z"
     style="fill:#404040;"/>
  </a>
 </g>
</svg>

<style type='text/css'>
<![CDATA[
[data-mouse-over-selected='false'] { opacity: 0.7; }
[data-mouse-over-selected='true']  { opacity: 1.0; }
]]>
</style>
<script type="application/ecmascript"><![CDATA[
document.addEventListener('DOMContentLoaded', (event) => {
  highlightEdges();
  highlightAdjacentNodes();
});
]]></script>
</svg>
