<?xml version="1.0" encoding="UTF-8" standalone="no"?>
<!DOCTYPE svg PUBLIC "-//W3C//DTD SVG 1.1//EN"
 "http://www.w3.org/Graphics/SVG/1.1/DTD/svg11.dtd">
<!-- Generated by graphviz version 2.43.0 (0)
 -->
<!-- Title: System.Threading.Mutex Pages: 1 -->
<!--zoomable 1147 -->

<svg id="main" version="1.1" xmlns="http://www.w3.org/2000/svg" xmlns:xlink="http://www.w3.org/1999/xlink" xml:space="preserve" onload="init(evt)">
<style type="text/css"><![CDATA[
.node, .edge {opacity: 0.7;}
.node.selected, .edge.selected {opacity: 1;}
.edge:hover path { stroke: red; }
.edge:hover polygon { stroke: red; fill: red; }
]]></style>

<defs>
  <circle id="rim" cx="0" cy="0" r="7"/>
  <circle id="rim2" cx="0" cy="0" r="3.5"/>
  <g id="zoomPlus">
    <use xlink:href="#rim" fill="#404040"><set attributeName="fill" to="#808080" begin="zoomplus.mouseover" end="zoomplus.mouseout"/></use>
    <path d="M-4,0h8M0,-4v8" fill="none" stroke="white" stroke-width="1.5" pointer-events="none"/>
  </g>
  <g id="zoomMin">
    <use xlink:href="#rim" fill="#404040"><set attributeName="fill" to="#808080" begin="zoomminus.mouseover" end="zoomminus.mouseout"/></use>
    <path d="M-4,0h8" fill="none" stroke="white" stroke-width="1.5" pointer-events="none"/>
  </g>
  <g id="arrowUp" transform="translate(30 24)">
    <use xlink:href="#rim"/>
    <path pointer-events="none" fill="none" stroke="white" stroke-width="1.5" d="M0,-3.0v7 M-2.5,-0.5L0,-3.0L2.5,-0.5"/>
  </g>
  <g id="arrowRight" transform="rotate(90) translate(36 -43)">
    <use xlink:href="#rim"/>
    <path pointer-events="none" fill="none" stroke="white" stroke-width="1.5" d="M0,-3.0v7 M-2.5,-0.5L0,-3.0L2.5,-0.5"/>
  </g>
  <g id="arrowDown" transform="rotate(180) translate(-30 -48)">
    <use xlink:href="#rim"/>
    <path pointer-events="none" fill="none" stroke="white" stroke-width="1.5" d="M0,-3.0v7 M-2.5,-0.5L0,-3.0L2.5,-0.5"/>
  </g>
  <g id="arrowLeft" transform="rotate(270) translate(-36 17)">
    <use xlink:href="#rim"/>
    <path pointer-events="none" fill="none" stroke="white" stroke-width="1.5" d="M0,-3.0v7 M-2.5,-0.5L0,-3.0L2.5,-0.5"/>
  </g>
  <g id="resetDef">
    <use xlink:href="#rim2" fill="#404040"><set attributeName="fill" to="#808080" begin="reset.mouseover" end="reset.mouseout"/></use>
  </g>
</defs>
<script type="application/ecmascript">
var viewWidth = 318;
var viewHeight = 1147;
var sectionId = 'dynsection-0';
</script>
<script type="application/ecmascript" xlink:href="../../svg.min.js"/>
<svg id="graph" class="graph">
<g id="viewport">
<title>System.Threading.Mutex</title>
<!-- Node1 -->
<g id="Node000001" class="node">
<title>Node1</title>
<g id="a_Node000001"><a xlink:title=" ">
<polygon fill="#999999" stroke="transparent" points="224.5,-49 91.5,-49 91.5,0 224.5,0 224.5,-49"/>
<text text-anchor="start" x="97" y="-36.5" font-family="Helvetica,sans-Serif" font-size="10.00">System.Threading.Mutex</text>
<text text-anchor="start" x="156.5" y="-21.5" font-family="Helvetica,sans-Serif" font-size="10.00"> </text>
<text text-anchor="start" x="156.5" y="-6.5" font-family="Helvetica,sans-Serif" font-size="10.00"> </text>
<polygon fill="#666666" stroke="#666666" points="92,-31.5 92,-31.5 225,-31.5 225,-31.5 92,-31.5"/>
<polygon fill="#666666" stroke="#666666" points="92,-16.5 92,-16.5 225,-16.5 225,-16.5 92,-16.5"/>
<polygon fill="none" stroke="#666666" points="91.5,0 91.5,-49 224.5,-49 224.5,0 91.5,0"/>
</a>
</g>
</g>
<!-- Node2 -->
<g id="Node000002" class="node">
<title>Node2</title>
<g id="a_Node000002"><a xlink:href="../../db/d04/classSystem_1_1Threading_1_1WaitHandle.html" target="_top" xlink:title=" ">
<polygon fill="white" stroke="transparent" points="293,-1043 23,-1043 23,-85 293,-85 293,-1043"/>
<text text-anchor="start" x="129.5" y="-1031" font-family="Helvetica,sans-Serif" font-size="10.00">WaitHandle</text>
<text text-anchor="start" x="27" y="-1016" font-family="Helvetica,sans-Serif" font-size="10.00">+</text>
<text text-anchor="start" x="40" y="-1016" font-family="Helvetica,sans-Serif" font-size="10.00">const int WaitTimeout</text>
<text text-anchor="start" x="27" y="-1001" font-family="Helvetica,sans-Serif" font-size="10.00">+</text>
<text text-anchor="start" x="40" y="-1001" font-family="Helvetica,sans-Serif" font-size="10.00">virtual global::System.Int</text>
<text text-anchor="start" x="40" y="-990" font-family="Helvetica,sans-Serif" font-size="10.00">Ptr Handle</text>
<text text-anchor="start" x="27" y="-975" font-family="Helvetica,sans-Serif" font-size="10.00">+</text>
<text text-anchor="start" x="40" y="-975" font-family="Helvetica,sans-Serif" font-size="10.00">Microsoft.Win32.SafeHandles.</text>
<text text-anchor="start" x="40" y="-964" font-family="Helvetica,sans-Serif" font-size="10.00">SafeWaitHandle SafeWaitHandle</text>
<text text-anchor="start" x="27" y="-949" font-family="Helvetica,sans-Serif" font-size="10.00">~</text>
<text text-anchor="start" x="40" y="-949" font-family="Helvetica,sans-Serif" font-size="10.00">Microsoft.Win32.SafeHandles.</text>
<text text-anchor="start" x="40" y="-938" font-family="Helvetica,sans-Serif" font-size="10.00">SafeWaitHandle safeWaitHandle</text>
<text text-anchor="start" x="27" y="-923" font-family="Helvetica,sans-Serif" font-size="10.00">~</text>
<text text-anchor="start" x="40" y="-923" font-family="Helvetica,sans-Serif" font-size="10.00">bool hasThreadAffinity</text>
<text text-anchor="start" x="27" y="-908" font-family="Helvetica,sans-Serif" font-size="10.00">~</text>
<text text-anchor="start" x="40" y="-908" font-family="Helvetica,sans-Serif" font-size="10.00">const int MaxWaitHandles</text>
<text text-anchor="start" x="27" y="-893" font-family="Helvetica,sans-Serif" font-size="10.00">#</text>
<text text-anchor="start" x="40" y="-893" font-family="Helvetica,sans-Serif" font-size="10.00">static readonly global</text>
<text text-anchor="start" x="40" y="-882" font-family="Helvetica,sans-Serif" font-size="10.00">::System.IntPtr InvalidHandle</text>
<text text-anchor="start" x="29.5" y="-867" font-family="Helvetica,sans-Serif" font-size="10.00">&#45;</text>
<text text-anchor="start" x="40" y="-867" font-family="Helvetica,sans-Serif" font-size="10.00">global::System.IntPtr</text>
<text text-anchor="start" x="40" y="-856" font-family="Helvetica,sans-Serif" font-size="10.00"> waitHandle</text>
<text text-anchor="start" x="29.5" y="-841" font-family="Helvetica,sans-Serif" font-size="10.00">&#45;</text>
<text text-anchor="start" x="40" y="-841" font-family="Helvetica,sans-Serif" font-size="10.00">const int MAX_WAITHANDLES</text>
<text text-anchor="start" x="29.5" y="-826" font-family="Helvetica,sans-Serif" font-size="10.00">&#45;</text>
<text text-anchor="start" x="40" y="-826" font-family="Helvetica,sans-Serif" font-size="10.00">const int WAIT_OBJECT_0</text>
<text text-anchor="start" x="29.5" y="-811" font-family="Helvetica,sans-Serif" font-size="10.00">&#45;</text>
<text text-anchor="start" x="40" y="-811" font-family="Helvetica,sans-Serif" font-size="10.00">const int WAIT_ABANDONED</text>
<text text-anchor="start" x="29.5" y="-796" font-family="Helvetica,sans-Serif" font-size="10.00">&#45;</text>
<text text-anchor="start" x="40" y="-796" font-family="Helvetica,sans-Serif" font-size="10.00">const int WAIT_FAILED</text>
<text text-anchor="start" x="29.5" y="-781" font-family="Helvetica,sans-Serif" font-size="10.00">&#45;</text>
<text text-anchor="start" x="40" y="-781" font-family="Helvetica,sans-Serif" font-size="10.00">const int ERROR_TOO</text>
<text text-anchor="start" x="40" y="-770" font-family="Helvetica,sans-Serif" font-size="10.00">_MANY_POSTS</text>
<text text-anchor="start" x="29.5" y="-755" font-family="Helvetica,sans-Serif" font-size="10.00">&#45;</text>
<text text-anchor="start" x="40" y="-755" font-family="Helvetica,sans-Serif" font-size="10.00">const int ERROR_NOT</text>
<text text-anchor="start" x="40" y="-744" font-family="Helvetica,sans-Serif" font-size="10.00">_OWNED_BY_CALLER</text>
<text text-anchor="start" x="27" y="-729" font-family="Helvetica,sans-Serif" font-size="10.00">+</text>
<text text-anchor="start" x="40" y="-729" font-family="Helvetica,sans-Serif" font-size="10.00">virtual bool WaitOne</text>
<text text-anchor="start" x="40" y="-718" font-family="Helvetica,sans-Serif" font-size="10.00">(int millisecondsTimeout,</text>
<text text-anchor="start" x="40" y="-707" font-family="Helvetica,sans-Serif" font-size="10.00"> bool exitContext)</text>
<text text-anchor="start" x="27" y="-692" font-family="Helvetica,sans-Serif" font-size="10.00">+</text>
<text text-anchor="start" x="40" y="-692" font-family="Helvetica,sans-Serif" font-size="10.00">virtual bool WaitOne()</text>
<text text-anchor="start" x="27" y="-677" font-family="Helvetica,sans-Serif" font-size="10.00">+</text>
<text text-anchor="start" x="40" y="-677" font-family="Helvetica,sans-Serif" font-size="10.00">virtual bool WaitOne</text>
<text text-anchor="start" x="40" y="-666" font-family="Helvetica,sans-Serif" font-size="10.00">(int millisecondsTimeout)</text>
<text text-anchor="start" x="27" y="-651" font-family="Helvetica,sans-Serif" font-size="10.00">+</text>
<text text-anchor="start" x="40" y="-651" font-family="Helvetica,sans-Serif" font-size="10.00">virtual void Close()</text>
<text text-anchor="start" x="27" y="-636" font-family="Helvetica,sans-Serif" font-size="10.00">+</text>
<text text-anchor="start" x="40" y="-636" font-family="Helvetica,sans-Serif" font-size="10.00">void Dispose()</text>
<text text-anchor="start" x="27" y="-621" font-family="Helvetica,sans-Serif" font-size="10.00">+</text>
<text text-anchor="start" x="40" y="-621" font-family="Helvetica,sans-Serif" font-size="10.00">static int WaitAny</text>
<text text-anchor="start" x="40" y="-610" font-family="Helvetica,sans-Serif" font-size="10.00">(WaitHandle[] waitHandles,</text>
<text text-anchor="start" x="40" y="-599" font-family="Helvetica,sans-Serif" font-size="10.00"> int millisecondsTimeout,</text>
<text text-anchor="start" x="40" y="-588" font-family="Helvetica,sans-Serif" font-size="10.00"> bool exitContext)</text>
<text text-anchor="start" x="27" y="-573" font-family="Helvetica,sans-Serif" font-size="10.00">+</text>
<text text-anchor="start" x="40" y="-573" font-family="Helvetica,sans-Serif" font-size="10.00">static int WaitAny</text>
<text text-anchor="start" x="40" y="-562" font-family="Helvetica,sans-Serif" font-size="10.00">(WaitHandle[] waitHandles,</text>
<text text-anchor="start" x="40" y="-551" font-family="Helvetica,sans-Serif" font-size="10.00"> global::System.TimeSpan</text>
<text text-anchor="start" x="40" y="-540" font-family="Helvetica,sans-Serif" font-size="10.00"> timeout, bool exitContext)</text>
<text text-anchor="start" x="27" y="-525" font-family="Helvetica,sans-Serif" font-size="10.00">+</text>
<text text-anchor="start" x="40" y="-525" font-family="Helvetica,sans-Serif" font-size="10.00">static int WaitAny</text>
<text text-anchor="start" x="40" y="-514" font-family="Helvetica,sans-Serif" font-size="10.00">(WaitHandle[] waitHandles,</text>
<text text-anchor="start" x="40" y="-503" font-family="Helvetica,sans-Serif" font-size="10.00"> int millisecondsTimeout)</text>
<text text-anchor="start" x="27" y="-488" font-family="Helvetica,sans-Serif" font-size="10.00">~</text>
<text text-anchor="start" x="40" y="-488" font-family="Helvetica,sans-Serif" font-size="10.00">void SetHandleInternal</text>
<text text-anchor="start" x="40" y="-477" font-family="Helvetica,sans-Serif" font-size="10.00">(Microsoft.Win32.SafeHandles.</text>
<text text-anchor="start" x="40" y="-466" font-family="Helvetica,sans-Serif" font-size="10.00">SafeWaitHandle handle)</text>
<text text-anchor="start" x="27" y="-451" font-family="Helvetica,sans-Serif" font-size="10.00">~</text>
<text text-anchor="start" x="40" y="-451" font-family="Helvetica,sans-Serif" font-size="10.00">static unsafe int Wait</text>
<text text-anchor="start" x="40" y="-440" font-family="Helvetica,sans-Serif" font-size="10.00">_internal(global::System.Int</text>
<text text-anchor="start" x="40" y="-429" font-family="Helvetica,sans-Serif" font-size="10.00">Ptr *handles, int numHandles,</text>
<text text-anchor="start" x="40" y="-418" font-family="Helvetica,sans-Serif" font-size="10.00"> bool waitAll, int ms)</text>
<text text-anchor="start" x="27" y="-403" font-family="Helvetica,sans-Serif" font-size="10.00">~</text>
<text text-anchor="start" x="40" y="-403" font-family="Helvetica,sans-Serif" font-size="10.00">static bool InternalWait</text>
<text text-anchor="start" x="40" y="-392" font-family="Helvetica,sans-Serif" font-size="10.00">One(global::System.Runtime.Interop</text>
<text text-anchor="start" x="40" y="-381" font-family="Helvetica,sans-Serif" font-size="10.00">Services.SafeHandle waitableSafeHandle,</text>
<text text-anchor="start" x="40" y="-370" font-family="Helvetica,sans-Serif" font-size="10.00"> long millisecondsTimeout, bool hasThreadAffinity,</text>
<text text-anchor="start" x="40" y="-359" font-family="Helvetica,sans-Serif" font-size="10.00"> bool exitContext)</text>
<text text-anchor="start" x="27" y="-344" font-family="Helvetica,sans-Serif" font-size="10.00">#</text>
<text text-anchor="start" x="40" y="-344" font-family="Helvetica,sans-Serif" font-size="10.00">WaitHandle()</text>
<text text-anchor="start" x="27" y="-329" font-family="Helvetica,sans-Serif" font-size="10.00">#</text>
<text text-anchor="start" x="40" y="-329" font-family="Helvetica,sans-Serif" font-size="10.00">virtual void Dispose</text>
<text text-anchor="start" x="40" y="-318" font-family="Helvetica,sans-Serif" font-size="10.00">(bool explicitDisposing)</text>
<text text-anchor="start" x="29.5" y="-303" font-family="Helvetica,sans-Serif" font-size="10.00">&#45;</text>
<text text-anchor="start" x="40" y="-303" font-family="Helvetica,sans-Serif" font-size="10.00">void Init()</text>
<text text-anchor="start" x="29.5" y="-288" font-family="Helvetica,sans-Serif" font-size="10.00">&#45;</text>
<text text-anchor="start" x="40" y="-288" font-family="Helvetica,sans-Serif" font-size="10.00">bool WaitOne(long timeout,</text>
<text text-anchor="start" x="40" y="-277" font-family="Helvetica,sans-Serif" font-size="10.00"> bool exitContext)</text>
<text text-anchor="start" x="29.5" y="-262" font-family="Helvetica,sans-Serif" font-size="10.00">&#45;</text>
<text text-anchor="start" x="40" y="-262" font-family="Helvetica,sans-Serif" font-size="10.00">static void ThrowAbandoned</text>
<text text-anchor="start" x="40" y="-251" font-family="Helvetica,sans-Serif" font-size="10.00">MutexException()</text>
<text text-anchor="start" x="29.5" y="-236" font-family="Helvetica,sans-Serif" font-size="10.00">&#45;</text>
<text text-anchor="start" x="40" y="-236" font-family="Helvetica,sans-Serif" font-size="10.00">static void ThrowAbandoned</text>
<text text-anchor="start" x="40" y="-225" font-family="Helvetica,sans-Serif" font-size="10.00">MutexException(int location,</text>
<text text-anchor="start" x="40" y="-214" font-family="Helvetica,sans-Serif" font-size="10.00"> WaitHandle handle)</text>
<text text-anchor="start" x="29.5" y="-199" font-family="Helvetica,sans-Serif" font-size="10.00">&#45;</text>
<text text-anchor="start" x="40" y="-199" font-family="Helvetica,sans-Serif" font-size="10.00">static int WaitOneNative</text>
<text text-anchor="start" x="40" y="-188" font-family="Helvetica,sans-Serif" font-size="10.00">(global::System.Runtime.Interop</text>
<text text-anchor="start" x="40" y="-177" font-family="Helvetica,sans-Serif" font-size="10.00">Services.SafeHandle waitableSafeHandle,</text>
<text text-anchor="start" x="40" y="-166" font-family="Helvetica,sans-Serif" font-size="10.00"> uint millisecondsTimeout, bool hasThreadAffinity,</text>
<text text-anchor="start" x="40" y="-155" font-family="Helvetica,sans-Serif" font-size="10.00"> bool exitContext)</text>
<text text-anchor="start" x="29.5" y="-140" font-family="Helvetica,sans-Serif" font-size="10.00">&#45;</text>
<text text-anchor="start" x="40" y="-140" font-family="Helvetica,sans-Serif" font-size="10.00">static int WaitMultiple</text>
<text text-anchor="start" x="40" y="-129" font-family="Helvetica,sans-Serif" font-size="10.00">(WaitHandle[] waitHandles,</text>
<text text-anchor="start" x="40" y="-118" font-family="Helvetica,sans-Serif" font-size="10.00"> int millisecondsTimeout,</text>
<text text-anchor="start" x="40" y="-107" font-family="Helvetica,sans-Serif" font-size="10.00"> bool exitContext, bool WaitAll)</text>
<text text-anchor="start" x="29.5" y="-92" font-family="Helvetica,sans-Serif" font-size="10.00">&#45;</text>
<text text-anchor="start" x="40" y="-92" font-family="Helvetica,sans-Serif" font-size="10.00">static WaitHandle()</text>
<polygon fill="#666666" stroke="#666666" points="23,-1026 23,-1026 293,-1026 293,-1026 23,-1026"/>
<polygon fill="#666666" stroke="#666666" points="23,-739 23,-739 38,-739 38,-739 23,-739"/>
<polygon fill="#666666" stroke="#666666" points="38,-739 38,-739 293,-739 293,-739 38,-739"/>
<polygon fill="none" stroke="#666666" points="23,-85 23,-1043 293,-1043 293,-85 23,-85"/>
</a>
</g>
</g>
<!-- Node2&#45;&gt;Node1 -->
<g id="edge1_Node000001_Node000002" class="edge">
<title>Node2&#45;&gt;Node1</title>
<g id="a_edge1_Node000001_Node000002"><a xlink:title=" ">
<path fill="none" stroke="#63b8ff" d="M158,-74.65C158,-64.88 158,-56.31 158,-49.19"/>
<polygon fill="none" stroke="#63b8ff" points="154.5,-74.82 158,-84.82 161.5,-74.82 154.5,-74.82"/>
</a>
</g>
</g>
<!-- Node3 -->
<g id="Node000003" class="node">
<title>Node3</title>
<g id="a_Node000003"><a xlink:title=" ">
<polygon fill="white" stroke="transparent" points="152,-1139 0,-1139 0,-1079 152,-1079 152,-1139"/>
<text text-anchor="start" x="5" y="-1127" font-family="Helvetica,sans-Serif" font-size="10.00">global::SystemMarshalByRef</text>
<text text-anchor="start" x="60" y="-1116" font-family="Helvetica,sans-Serif" font-size="10.00">Object</text>
<text text-anchor="start" x="74" y="-1101" font-family="Helvetica,sans-Serif" font-size="10.00"> </text>
<text text-anchor="start" x="74" y="-1086" font-family="Helvetica,sans-Serif" font-size="10.00"> </text>
<polygon fill="#666666" stroke="#666666" points="0,-1111 0,-1111 152,-1111 152,-1111 0,-1111"/>
<polygon fill="#666666" stroke="#666666" points="0,-1096 0,-1096 152,-1096 152,-1096 0,-1096"/>
<polygon fill="none" stroke="#666666" points="0,-1079 0,-1139 152,-1139 152,-1079 0,-1079"/>
</a>
</g>
</g>
<!-- Node3&#45;&gt;Node2 -->
<g id="edge2_Node000002_Node000003" class="edge">
<title>Node3&#45;&gt;Node2</title>
<g id="a_edge2_Node000002_Node000003"><a xlink:title=" ">
<path fill="none" stroke="#63b8ff" d="M81.93,-1068.73C83.07,-1061.15 84.36,-1052.63 85.77,-1043.32"/>
<polygon fill="none" stroke="#63b8ff" points="78.44,-1068.4 80.41,-1078.81 85.36,-1069.44 78.44,-1068.4"/>
</a>
</g>
</g>
<!-- Node4 -->
<g id="Node000004" class="node">
<title>Node4</title>
<g id="a_Node000004"><a xlink:title=" ">
<polygon fill="white" stroke="transparent" points="310,-1133.5 170,-1133.5 170,-1084.5 310,-1084.5 310,-1133.5"/>
<text text-anchor="start" x="175" y="-1121" font-family="Helvetica,sans-Serif" font-size="10.00">global::SystemIDisposable</text>
<text text-anchor="start" x="238" y="-1106" font-family="Helvetica,sans-Serif" font-size="10.00"> </text>
<text text-anchor="start" x="238" y="-1091" font-family="Helvetica,sans-Serif" font-size="10.00"> </text>
<polygon fill="#666666" stroke="#666666" points="170,-1116 170,-1116 310,-1116 310,-1116 170,-1116"/>
<polygon fill="#666666" stroke="#666666" points="170,-1101 170,-1101 310,-1101 310,-1101 170,-1101"/>
<polygon fill="none" stroke="#666666" points="170,-1084.5 170,-1133.5 310,-1133.5 310,-1084.5 170,-1084.5"/>
</a>
</g>
</g>
<!-- Node4&#45;&gt;Node2 -->
<g id="edge3_Node000002_Node000004" class="edge">
<title>Node4&#45;&gt;Node2</title>
<g id="a_edge3_Node000002_Node000004"><a xlink:title=" ">
<path fill="none" stroke="#63b8ff" d="M234.9,-1074.23C233.55,-1065.31 231.98,-1054.87 230.21,-1043.16"/>
<polygon fill="none" stroke="#63b8ff" points="231.47,-1074.95 236.42,-1084.32 238.39,-1073.91 231.47,-1074.95"/>
</a>
</g>
</g>
</g>
</svg>

<g id="navigator" transform="translate(0 0)" fill="#404254">
  <rect fill="#f2f5e9" fill-opacity="0.5" stroke="#606060" stroke-width=".5" x="0" y="0" width="60" height="60"/>
  <use id="zoomplus" xlink:href="#zoomPlus" x="17" y="9" onmousedown="handleZoom(evt,'in')"/>
  <use id="zoomminus" xlink:href="#zoomMin" x="42" y="9" onmousedown="handleZoom(evt,'out')"/>
  <use id="reset" xlink:href="#resetDef" x="30" y="36" onmousedown="handleReset()"/>
   <use id="arrowup" xlink:href="#arrowUp" x="0" y="0" onmousedown="handlePan(0,-1)"/>
  <use id="arrowright" xlink:href="#arrowRight" x="0" y="0" onmousedown="handlePan(1,0)"/>
  <use id="arrowdown" xlink:href="#arrowDown" x="0" y="0" onmousedown="handlePan(0,1)"/>
  <use id="arrowleft" xlink:href="#arrowLeft" x="0" y="0" onmousedown="handlePan(-1,0)"/>
</g>
<svg viewBox="0 0 15 15" width="100%" height="30px" preserveAspectRatio="xMaxYMin meet">
 <g id="arrow_out" transform="scale(0.3 0.3)">
  <a xlink:href="classSystem_1_1Threading_1_1Mutex__inherit__graph_org.svg" target="_base">
   <rect id="button" ry="5" rx="5" y="6" x="6" height="38" width="38"
        fill="#f2f5e9" fill-opacity="0.5" stroke="#606060" stroke-width="1.0"/>
   <path id="arrow"
     d="M 11.500037,31.436501 C 11.940474,20.09759 22.043105,11.32322 32.158766,21.979434 L 37.068811,17.246167 C 37.068811,17.246167 37.088388,32 37.088388,32 L 22.160133,31.978069 C 22.160133,31.978069 26.997745,27.140456 26.997745,27.140456 C 18.528582,18.264221 13.291696,25.230495 11.500037,31.436501 z"
     style="fill:#404040;"/>
  </a>
 </g>
</svg>

<style type='text/css'>
<![CDATA[
[data-mouse-over-selected='false'] { opacity: 0.7; }
[data-mouse-over-selected='true']  { opacity: 1.0; }
]]>
</style>
<script type="application/ecmascript"><![CDATA[
document.addEventListener('DOMContentLoaded', (event) => {
  highlightEdges();
  highlightAdjacentNodes();
});
]]></script>
</svg>
