<?xml version="1.0" encoding="UTF-8" standalone="no"?>
<!DOCTYPE svg PUBLIC "-//W3C//DTD SVG 1.1//EN"
 "http://www.w3.org/Graphics/SVG/1.1/DTD/svg11.dtd">
<!-- Generated by graphviz version 2.43.0 (0)
 -->
<!-- Title: UnityEngine.EventSystems.IDropHandler Pages: 1 -->
<!--zoomable 635 -->

<svg id="main" version="1.1" xmlns="http://www.w3.org/2000/svg" xmlns:xlink="http://www.w3.org/1999/xlink" xml:space="preserve" onload="init(evt)">
<style type="text/css"><![CDATA[
.node, .edge {opacity: 0.7;}
.node.selected, .edge.selected {opacity: 1;}
.edge:hover path { stroke: red; }
.edge:hover polygon { stroke: red; fill: red; }
]]></style>

<defs>
  <circle id="rim" cx="0" cy="0" r="7"/>
  <circle id="rim2" cx="0" cy="0" r="3.5"/>
  <g id="zoomPlus">
    <use xlink:href="#rim" fill="#404040"><set attributeName="fill" to="#808080" begin="zoomplus.mouseover" end="zoomplus.mouseout"/></use>
    <path d="M-4,0h8M0,-4v8" fill="none" stroke="white" stroke-width="1.5" pointer-events="none"/>
  </g>
  <g id="zoomMin">
    <use xlink:href="#rim" fill="#404040"><set attributeName="fill" to="#808080" begin="zoomminus.mouseover" end="zoomminus.mouseout"/></use>
    <path d="M-4,0h8" fill="none" stroke="white" stroke-width="1.5" pointer-events="none"/>
  </g>
  <g id="arrowUp" transform="translate(30 24)">
    <use xlink:href="#rim"/>
    <path pointer-events="none" fill="none" stroke="white" stroke-width="1.5" d="M0,-3.0v7 M-2.5,-0.5L0,-3.0L2.5,-0.5"/>
  </g>
  <g id="arrowRight" transform="rotate(90) translate(36 -43)">
    <use xlink:href="#rim"/>
    <path pointer-events="none" fill="none" stroke="white" stroke-width="1.5" d="M0,-3.0v7 M-2.5,-0.5L0,-3.0L2.5,-0.5"/>
  </g>
  <g id="arrowDown" transform="rotate(180) translate(-30 -48)">
    <use xlink:href="#rim"/>
    <path pointer-events="none" fill="none" stroke="white" stroke-width="1.5" d="M0,-3.0v7 M-2.5,-0.5L0,-3.0L2.5,-0.5"/>
  </g>
  <g id="arrowLeft" transform="rotate(270) translate(-36 17)">
    <use xlink:href="#rim"/>
    <path pointer-events="none" fill="none" stroke="white" stroke-width="1.5" d="M0,-3.0v7 M-2.5,-0.5L0,-3.0L2.5,-0.5"/>
  </g>
  <g id="resetDef">
    <use xlink:href="#rim2" fill="#404040"><set attributeName="fill" to="#808080" begin="reset.mouseover" end="reset.mouseout"/></use>
  </g>
</defs>
<script type="application/ecmascript">
var viewWidth = 177;
var viewHeight = 635;
var sectionId = 'dynsection-0';
</script>
<script type="application/ecmascript" xlink:href="../../svg.min.js"/>
<svg id="graph" class="graph">
<g id="viewport">
<title>UnityEngine.EventSystems.IDropHandler</title>
<!-- Node1 -->
<g id="Node000001" class="node">
<title>Node1</title>
<g id="a_Node000001"><a xlink:title=" ">
<polygon fill="#999999" stroke="transparent" points="158.5,-542 10.5,-542 10.5,-471 158.5,-471 158.5,-542"/>
<text text-anchor="start" x="16.5" y="-529.5" font-family="Helvetica,sans-Serif" font-size="10.00">UnityEngine.EventSystems.</text>
<text text-anchor="start" x="52" y="-518.5" font-family="Helvetica,sans-Serif" font-size="10.00">IDropHandler</text>
<text text-anchor="start" x="82.5" y="-503.5" font-family="Helvetica,sans-Serif" font-size="10.00"> </text>
<text text-anchor="start" x="14.5" y="-488.5" font-family="Helvetica,sans-Serif" font-size="10.00">+</text>
<text text-anchor="start" x="27.5" y="-488.5" font-family="Helvetica,sans-Serif" font-size="10.00">void OnDrop(PointerEvent</text>
<text text-anchor="start" x="27.5" y="-477.5" font-family="Helvetica,sans-Serif" font-size="10.00">Data eventData)</text>
<polygon fill="#666666" stroke="#666666" points="10.5,-513.5 10.5,-513.5 158.5,-513.5 158.5,-513.5 10.5,-513.5"/>
<polygon fill="#666666" stroke="#666666" points="10.5,-498.5 10.5,-498.5 158.5,-498.5 158.5,-498.5 10.5,-498.5"/>
<polygon fill="none" stroke="#666666" points="10.5,-471 10.5,-542 158.5,-542 158.5,-471 10.5,-471"/>
</a>
</g>
</g>
<!-- Node3 -->
<g id="Node000003" class="node">
<title>Node3</title>
<g id="a_Node000003"><a xlink:href="../../da/d18/classUnityEngine_1_1EventSystems_1_1EventTrigger.html" target="_top" xlink:title=" ">
<polygon fill="white" stroke="transparent" points="169,-435 0,-435 0,0 169,0 169,-435"/>
<text text-anchor="start" x="17" y="-422.5" font-family="Helvetica,sans-Serif" font-size="10.00">UnityEngine.EventSystems.</text>
<text text-anchor="start" x="54.5" y="-411.5" font-family="Helvetica,sans-Serif" font-size="10.00">EventTrigger</text>
<text text-anchor="start" x="4.5" y="-396.5" font-family="Helvetica,sans-Serif" font-size="10.00">+</text>
<text text-anchor="start" x="17.5" y="-396.5" font-family="Helvetica,sans-Serif" font-size="10.00">List&lt; EventTrigger.Entry</text>
<text text-anchor="start" x="17.5" y="-385.5" font-family="Helvetica,sans-Serif" font-size="10.00"> &gt; delegates</text>
<text text-anchor="start" x="4.5" y="-370.5" font-family="Helvetica,sans-Serif" font-size="10.00">+</text>
<text text-anchor="start" x="17.5" y="-370.5" font-family="Helvetica,sans-Serif" font-size="10.00">List&lt; EventTrigger.Entry</text>
<text text-anchor="start" x="17.5" y="-359.5" font-family="Helvetica,sans-Serif" font-size="10.00"> &gt; triggers</text>
<text text-anchor="start" x="7" y="-344.5" font-family="Helvetica,sans-Serif" font-size="10.00">&#45;</text>
<text text-anchor="start" x="17.5" y="-344.5" font-family="Helvetica,sans-Serif" font-size="10.00">List&lt; EventTrigger.Entry</text>
<text text-anchor="start" x="17.5" y="-333.5" font-family="Helvetica,sans-Serif" font-size="10.00"> &gt; m_Delegates</text>
<text text-anchor="start" x="4.5" y="-318.5" font-family="Helvetica,sans-Serif" font-size="10.00">+</text>
<text text-anchor="start" x="17.5" y="-318.5" font-family="Helvetica,sans-Serif" font-size="10.00">virtual void OnPointerEnter</text>
<text text-anchor="start" x="17.5" y="-307.5" font-family="Helvetica,sans-Serif" font-size="10.00">(PointerEventData eventData)</text>
<text text-anchor="start" x="4.5" y="-292.5" font-family="Helvetica,sans-Serif" font-size="10.00">+</text>
<text text-anchor="start" x="17.5" y="-292.5" font-family="Helvetica,sans-Serif" font-size="10.00">virtual void OnPointerExit</text>
<text text-anchor="start" x="17.5" y="-281.5" font-family="Helvetica,sans-Serif" font-size="10.00">(PointerEventData eventData)</text>
<text text-anchor="start" x="4.5" y="-266.5" font-family="Helvetica,sans-Serif" font-size="10.00">+</text>
<text text-anchor="start" x="17.5" y="-266.5" font-family="Helvetica,sans-Serif" font-size="10.00">virtual void OnDrag</text>
<text text-anchor="start" x="17.5" y="-255.5" font-family="Helvetica,sans-Serif" font-size="10.00">(PointerEventData eventData)</text>
<text text-anchor="start" x="4.5" y="-240.5" font-family="Helvetica,sans-Serif" font-size="10.00">+</text>
<text text-anchor="start" x="17.5" y="-240.5" font-family="Helvetica,sans-Serif" font-size="10.00">virtual void OnDrop</text>
<text text-anchor="start" x="17.5" y="-229.5" font-family="Helvetica,sans-Serif" font-size="10.00">(PointerEventData eventData)</text>
<text text-anchor="start" x="4.5" y="-214.5" font-family="Helvetica,sans-Serif" font-size="10.00">+</text>
<text text-anchor="start" x="17.5" y="-214.5" font-family="Helvetica,sans-Serif" font-size="10.00">virtual void OnPointerDown</text>
<text text-anchor="start" x="17.5" y="-203.5" font-family="Helvetica,sans-Serif" font-size="10.00">(PointerEventData eventData)</text>
<text text-anchor="start" x="4.5" y="-188.5" font-family="Helvetica,sans-Serif" font-size="10.00">+</text>
<text text-anchor="start" x="17.5" y="-188.5" font-family="Helvetica,sans-Serif" font-size="10.00">virtual void OnPointerUp</text>
<text text-anchor="start" x="17.5" y="-177.5" font-family="Helvetica,sans-Serif" font-size="10.00">(PointerEventData eventData)</text>
<text text-anchor="start" x="4.5" y="-162.5" font-family="Helvetica,sans-Serif" font-size="10.00">+</text>
<text text-anchor="start" x="17.5" y="-162.5" font-family="Helvetica,sans-Serif" font-size="10.00">virtual void OnPointerClick</text>
<text text-anchor="start" x="17.5" y="-151.5" font-family="Helvetica,sans-Serif" font-size="10.00">(PointerEventData eventData)</text>
<text text-anchor="start" x="4.5" y="-136.5" font-family="Helvetica,sans-Serif" font-size="10.00">+</text>
<text text-anchor="start" x="17.5" y="-136.5" font-family="Helvetica,sans-Serif" font-size="10.00">virtual void OnSelect</text>
<text text-anchor="start" x="17.5" y="-125.5" font-family="Helvetica,sans-Serif" font-size="10.00">(BaseEventData eventData)</text>
<text text-anchor="start" x="4.5" y="-110.5" font-family="Helvetica,sans-Serif" font-size="10.00">+</text>
<text text-anchor="start" x="17.5" y="-110.5" font-family="Helvetica,sans-Serif" font-size="10.00">virtual void OnDeselect</text>
<text text-anchor="start" x="17.5" y="-99.5" font-family="Helvetica,sans-Serif" font-size="10.00">(BaseEventData eventData)</text>
<text text-anchor="start" x="4.5" y="-84.5" font-family="Helvetica,sans-Serif" font-size="10.00">+</text>
<text text-anchor="start" x="17.5" y="-84.5" font-family="Helvetica,sans-Serif" font-size="10.00">virtual void OnScroll</text>
<text text-anchor="start" x="17.5" y="-73.5" font-family="Helvetica,sans-Serif" font-size="10.00">(PointerEventData eventData)</text>
<text text-anchor="start" x="17.5" y="-58.5" font-family="Helvetica,sans-Serif" font-size="10.00">and 7 more...</text>
<text text-anchor="start" x="4.5" y="-43.5" font-family="Helvetica,sans-Serif" font-size="10.00">#</text>
<text text-anchor="start" x="17.5" y="-43.5" font-family="Helvetica,sans-Serif" font-size="10.00">EventTrigger()</text>
<text text-anchor="start" x="7" y="-28.5" font-family="Helvetica,sans-Serif" font-size="10.00">&#45;</text>
<text text-anchor="start" x="17.5" y="-28.5" font-family="Helvetica,sans-Serif" font-size="10.00">void Execute(EventTrigger</text>
<text text-anchor="start" x="17.5" y="-17.5" font-family="Helvetica,sans-Serif" font-size="10.00">Type id, BaseEventData</text>
<text text-anchor="start" x="17.5" y="-6.5" font-family="Helvetica,sans-Serif" font-size="10.00"> eventData)</text>
<polygon fill="#666666" stroke="#666666" points="0.5,-406.5 0.5,-406.5 169.5,-406.5 169.5,-406.5 0.5,-406.5"/>
<polygon fill="#666666" stroke="#666666" points="0.5,-328.5 0.5,-328.5 15.5,-328.5 15.5,-328.5 0.5,-328.5"/>
<polygon fill="#666666" stroke="#666666" points="15.5,-328.5 15.5,-328.5 169.5,-328.5 169.5,-328.5 15.5,-328.5"/>
<polygon fill="none" stroke="#666666" points="0,0 0,-435 169,-435 169,0 0,0"/>
</a>
</g>
</g>
<!-- Node1&#45;&gt;Node3 -->
<g id="edge2_Node000001_Node000003" class="edge">
<title>Node1&#45;&gt;Node3</title>
<g id="a_edge2_Node000001_Node000003"><a xlink:title=" ">
<path fill="none" stroke="#63b8ff" d="M84.5,-460.73C84.5,-452.92 84.5,-444.36 84.5,-435.26"/>
<polygon fill="none" stroke="#63b8ff" points="81,-460.88 84.5,-470.88 88,-460.88 81,-460.88"/>
</a>
</g>
</g>
<!-- Node2 -->
<g id="Node000002" class="node">
<title>Node2</title>
<g id="a_Node000002"><a xlink:href="../../dd/d38/interfaceUnityEngine_1_1EventSystems_1_1IEventSystemHandler.html" target="_top" xlink:title=" ">
<polygon fill="white" stroke="transparent" points="142.5,-627 26.5,-627 26.5,-578 142.5,-578 142.5,-627"/>
<text text-anchor="start" x="31.5" y="-614.5" font-family="Helvetica,sans-Serif" font-size="10.00">IEventSystemHandler</text>
<text text-anchor="start" x="82.5" y="-599.5" font-family="Helvetica,sans-Serif" font-size="10.00"> </text>
<text text-anchor="start" x="82.5" y="-584.5" font-family="Helvetica,sans-Serif" font-size="10.00"> </text>
<polygon fill="#666666" stroke="#666666" points="26.5,-609.5 26.5,-609.5 142.5,-609.5 142.5,-609.5 26.5,-609.5"/>
<polygon fill="#666666" stroke="#666666" points="26.5,-594.5 26.5,-594.5 142.5,-594.5 142.5,-594.5 26.5,-594.5"/>
<polygon fill="none" stroke="#666666" points="26.5,-578 26.5,-627 142.5,-627 142.5,-578 26.5,-578"/>
</a>
</g>
</g>
<!-- Node2&#45;&gt;Node1 -->
<g id="edge1_Node000001_Node000002" class="edge">
<title>Node2&#45;&gt;Node1</title>
<g id="a_edge1_Node000001_Node000002"><a xlink:title=" ">
<path fill="none" stroke="#63b8ff" d="M84.5,-567.7C84.5,-559.42 84.5,-550.55 84.5,-542.23"/>
<polygon fill="none" stroke="#63b8ff" points="81,-567.78 84.5,-577.78 88,-567.78 81,-567.78"/>
</a>
</g>
</g>
</g>
</svg>

<g id="navigator" transform="translate(0 0)" fill="#404254">
  <rect fill="#f2f5e9" fill-opacity="0.5" stroke="#606060" stroke-width=".5" x="0" y="0" width="60" height="60"/>
  <use id="zoomplus" xlink:href="#zoomPlus" x="17" y="9" onmousedown="handleZoom(evt,'in')"/>
  <use id="zoomminus" xlink:href="#zoomMin" x="42" y="9" onmousedown="handleZoom(evt,'out')"/>
  <use id="reset" xlink:href="#resetDef" x="30" y="36" onmousedown="handleReset()"/>
   <use id="arrowup" xlink:href="#arrowUp" x="0" y="0" onmousedown="handlePan(0,-1)"/>
  <use id="arrowright" xlink:href="#arrowRight" x="0" y="0" onmousedown="handlePan(1,0)"/>
  <use id="arrowdown" xlink:href="#arrowDown" x="0" y="0" onmousedown="handlePan(0,1)"/>
  <use id="arrowleft" xlink:href="#arrowLeft" x="0" y="0" onmousedown="handlePan(-1,0)"/>
</g>
<svg viewBox="0 0 15 15" width="100%" height="30px" preserveAspectRatio="xMaxYMin meet">
 <g id="arrow_out" transform="scale(0.3 0.3)">
  <a xlink:href="interfaceUnityEngine_1_1EventSystems_1_1IDropHandler__inherit__graph_org.svg" target="_base">
   <rect id="button" ry="5" rx="5" y="6" x="6" height="38" width="38"
        fill="#f2f5e9" fill-opacity="0.5" stroke="#606060" stroke-width="1.0"/>
   <path id="arrow"
     d="M 11.500037,31.436501 C 11.940474,20.09759 22.043105,11.32322 32.158766,21.979434 L 37.068811,17.246167 C 37.068811,17.246167 37.088388,32 37.088388,32 L 22.160133,31.978069 C 22.160133,31.978069 26.997745,27.140456 26.997745,27.140456 C 18.528582,18.264221 13.291696,25.230495 11.500037,31.436501 z"
     style="fill:#404040;"/>
  </a>
 </g>
</svg>

<style type='text/css'>
<![CDATA[
[data-mouse-over-selected='false'] { opacity: 0.7; }
[data-mouse-over-selected='true']  { opacity: 1.0; }
]]>
</style>
<script type="application/ecmascript"><![CDATA[
document.addEventListener('DOMContentLoaded', (event) => {
  highlightEdges();
  highlightAdjacentNodes();
});
]]></script>
</svg>
