<?xml version="1.0" encoding="UTF-8" standalone="no"?>
<!DOCTYPE svg PUBLIC "-//W3C//DTD SVG 1.1//EN"
 "http://www.w3.org/Graphics/SVG/1.1/DTD/svg11.dtd">
<!-- Generated by graphviz version 2.43.0 (0)
 -->
<!-- Title: System.ObsoleteAttribute Pages: 1 -->
<svg width="270pt" height="216pt"
 viewBox="0.00 0.00 270.00 216.00" xmlns="http://www.w3.org/2000/svg" xmlns:xlink="http://www.w3.org/1999/xlink">

<svg id="main" version="1.1" xmlns="http://www.w3.org/2000/svg" xmlns:xlink="http://www.w3.org/1999/xlink" xml:space="preserve" onload="init(evt)">
<style type="text/css"><![CDATA[
.node, .edge {opacity: 0.7;}
.node.selected, .edge.selected {opacity: 1;}
.edge:hover path { stroke: red; }
.edge:hover polygon { stroke: red; fill: red; }
]]></style>
<script type="application/ecmascript" xlink:href="../../svg.min.js"/>
<svg id="graph" class="graph">
<g id="graph0" class="graph" transform="scale(1 1) rotate(0) translate(4 212)">
<title>System.ObsoleteAttribute</title>
<!-- Node1 -->
<g id="Node000001" class="node">
<title>Node1</title>
<g id="a_Node000001"><a xlink:title=" ">
<polygon fill="#999999" stroke="transparent" points="231.5,-112 94.5,-112 94.5,0 231.5,0 231.5,-112"/>
<text text-anchor="start" x="100" y="-100" font-family="Helvetica,sans-Serif" font-size="10.00">System.ObsoleteAttribute</text>
<text text-anchor="start" x="101.5" y="-85" font-family="Helvetica,sans-Serif" font-size="10.00">+</text>
<text text-anchor="start" x="117" y="-85" font-family="Helvetica,sans-Serif" font-size="10.00">string Message</text>
<text text-anchor="start" x="101.5" y="-70" font-family="Helvetica,sans-Serif" font-size="10.00">+</text>
<text text-anchor="start" x="117" y="-70" font-family="Helvetica,sans-Serif" font-size="10.00">ObsoleteAttribute()</text>
<text text-anchor="start" x="101.5" y="-55" font-family="Helvetica,sans-Serif" font-size="10.00">+</text>
<text text-anchor="start" x="117" y="-55" font-family="Helvetica,sans-Serif" font-size="10.00">ObsoleteAttribute</text>
<text text-anchor="start" x="117" y="-44" font-family="Helvetica,sans-Serif" font-size="10.00">(string message)</text>
<text text-anchor="start" x="101.5" y="-29" font-family="Helvetica,sans-Serif" font-size="10.00">+</text>
<text text-anchor="start" x="117" y="-29" font-family="Helvetica,sans-Serif" font-size="10.00">ObsoleteAttribute</text>
<text text-anchor="start" x="117" y="-18" font-family="Helvetica,sans-Serif" font-size="10.00">(string message, bool</text>
<text text-anchor="start" x="117" y="-7" font-family="Helvetica,sans-Serif" font-size="10.00"> error)</text>
<polygon fill="#666666" stroke="#666666" points="95,-95 95,-95 232,-95 232,-95 95,-95"/>
<polygon fill="#666666" stroke="#666666" points="95,-80 95,-80 115,-80 115,-80 95,-80"/>
<polygon fill="#666666" stroke="#666666" points="115,-80 115,-80 232,-80 232,-80 115,-80"/>
<polygon fill="none" stroke="#666666" points="94.5,0 94.5,-112 231.5,-112 231.5,0 94.5,0"/>
</a>
</g>
</g>
<!-- Node2 -->
<g id="Node000002" class="node">
<title>Node2</title>
<g id="a_Node000002"><a xlink:title=" ">
<polygon fill="white" stroke="transparent" points="126,-208 0,-208 0,-159 126,-159 126,-208"/>
<text text-anchor="start" x="5" y="-195.5" font-family="Helvetica,sans-Serif" font-size="10.00">global::SystemAttribute</text>
<text text-anchor="start" x="61" y="-180.5" font-family="Helvetica,sans-Serif" font-size="10.00"> </text>
<text text-anchor="start" x="61" y="-165.5" font-family="Helvetica,sans-Serif" font-size="10.00"> </text>
<polygon fill="#666666" stroke="#666666" points="0,-190.5 0,-190.5 126,-190.5 126,-190.5 0,-190.5"/>
<polygon fill="#666666" stroke="#666666" points="0,-175.5 0,-175.5 126,-175.5 126,-175.5 0,-175.5"/>
<polygon fill="none" stroke="#666666" points="0,-159 0,-208 126,-208 126,-159 0,-159"/>
</a>
</g>
</g>
<!-- Node2&#45;&gt;Node1 -->
<g id="edge1_Node000001_Node000002" class="edge">
<title>Node2&#45;&gt;Node1</title>
<g id="a_edge1_Node000001_Node000002"><a xlink:title=" ">
<path fill="none" stroke="#63b8ff" d="M88.3,-150.75C97.62,-139.05 108.47,-125.43 118.97,-112.26"/>
<polygon fill="none" stroke="#63b8ff" points="85.3,-148.89 81.81,-158.89 90.78,-153.25 85.3,-148.89"/>
</a>
</g>
</g>
<!-- Node3 -->
<g id="Node000003" class="node">
<title>Node3</title>
<g id="a_Node000003"><a xlink:title=" ">
<polygon fill="white" stroke="transparent" points="182,-208 144,-208 144,-159 182,-159 182,-208"/>
<text text-anchor="start" x="149" y="-195.5" font-family="Helvetica,sans-Serif" font-size="10.00">string</text>
<text text-anchor="start" x="161" y="-180.5" font-family="Helvetica,sans-Serif" font-size="10.00"> </text>
<text text-anchor="start" x="161" y="-165.5" font-family="Helvetica,sans-Serif" font-size="10.00"> </text>
<polygon fill="#666666" stroke="#666666" points="144,-190.5 144,-190.5 182,-190.5 182,-190.5 144,-190.5"/>
<polygon fill="#666666" stroke="#666666" points="144,-175.5 144,-175.5 182,-175.5 182,-175.5 144,-175.5"/>
<polygon fill="none" stroke="#666666" points="144,-159 144,-208 182,-208 182,-159 144,-159"/>
</a>
</g>
</g>
<!-- Node3&#45;&gt;Node1 -->
<g id="edge2_Node000001_Node000003" class="edge">
<title>Node3&#45;&gt;Node1</title>
<g id="a_edge2_Node000001_Node000003"><a xlink:title=" ">
<path fill="none" stroke="#63b8ff" d="M163,-158.89C163,-148.99 163,-136.92 163,-124.6"/>
<polygon fill="none" stroke="#63b8ff" points="163,-124.26 159,-118.26 163,-112.26 167,-118.26 163,-124.26"/>
</a>
</g>
<text text-anchor="middle" x="191.5" y="-133" font-family="Helvetica,sans-Serif" font-size="10.00" fill="grey"> &#45;_message</text>
</g>
<!-- Node4 -->
<g id="Node000004" class="node">
<title>Node4</title>
<g id="a_Node000004"><a xlink:title=" ">
<polygon fill="white" stroke="transparent" points="259,-208 227,-208 227,-159 259,-159 259,-208"/>
<text text-anchor="start" x="232" y="-195.5" font-family="Helvetica,sans-Serif" font-size="10.00">bool</text>
<text text-anchor="start" x="241" y="-180.5" font-family="Helvetica,sans-Serif" font-size="10.00"> </text>
<text text-anchor="start" x="241" y="-165.5" font-family="Helvetica,sans-Serif" font-size="10.00"> </text>
<polygon fill="#666666" stroke="#666666" points="227,-190.5 227,-190.5 259,-190.5 259,-190.5 227,-190.5"/>
<polygon fill="#666666" stroke="#666666" points="227,-175.5 227,-175.5 259,-175.5 259,-175.5 227,-175.5"/>
<polygon fill="none" stroke="#666666" points="227,-159 227,-208 259,-208 259,-159 227,-159"/>
</a>
</g>
</g>
<!-- Node4&#45;&gt;Node1 -->
<g id="edge3_Node000001_Node000004" class="edge">
<title>Node4&#45;&gt;Node1</title>
<g id="a_edge3_Node000001_Node000004"><a xlink:title=" ">
<path fill="none" stroke="#63b8ff" d="M234.68,-158.84C231.02,-149.57 226.33,-139.02 221,-130 219.45,-127.38 217.81,-124.75 216.11,-122.13"/>
<polygon fill="none" stroke="#63b8ff" points="216.03,-122 209.35,-119.28 209.28,-112.07 215.96,-114.79 216.03,-122"/>
</a>
</g>
<text text-anchor="middle" x="244" y="-133" font-family="Helvetica,sans-Serif" font-size="10.00" fill="grey"> &#45;_error</text>
</g>
</g>
</svg>
</svg>

<style type='text/css'>
<![CDATA[
[data-mouse-over-selected='false'] { opacity: 0.7; }
[data-mouse-over-selected='true']  { opacity: 1.0; }
]]>
</style>
<script type="application/ecmascript"><![CDATA[
document.addEventListener('DOMContentLoaded', (event) => {
  highlightEdges();
  highlightAdjacentNodes();
});
]]></script>
</svg>
