<?xml version="1.0" encoding="UTF-8" standalone="no"?>
<!DOCTYPE svg PUBLIC "-//W3C//DTD SVG 1.1//EN"
 "http://www.w3.org/Graphics/SVG/1.1/DTD/svg11.dtd">
<!-- Generated by graphviz version 2.43.0 (0)
 -->
<!-- Title: System.Net.NetworkInformation.LinuxNetworkInterfaceAPI Pages: 1 -->
<svg width="186pt" height="420pt"
 viewBox="0.00 0.00 186.00 420.00" xmlns="http://www.w3.org/2000/svg" xmlns:xlink="http://www.w3.org/1999/xlink">

<svg id="main" version="1.1" xmlns="http://www.w3.org/2000/svg" xmlns:xlink="http://www.w3.org/1999/xlink" xml:space="preserve" onload="init(evt)">
<style type="text/css"><![CDATA[
.node, .edge {opacity: 0.7;}
.node.selected, .edge.selected {opacity: 1;}
.edge:hover path { stroke: red; }
.edge:hover polygon { stroke: red; fill: red; }
]]></style>
<script type="application/ecmascript" xlink:href="../../svg.min.js"/>
<svg id="graph" class="graph">
<g id="graph0" class="graph" transform="scale(1 1) rotate(0) translate(4 416)">
<title>System.Net.NetworkInformation.LinuxNetworkInterfaceAPI</title>
<!-- Node1 -->
<g id="Node000001" class="node">
<title>Node1</title>
<g id="a_Node000001"><a xlink:title=" ">
<polygon fill="#999999" stroke="transparent" points="178,-138 0,-138 0,0 178,0 178,-138"/>
<text text-anchor="start" x="8" y="-126" font-family="Helvetica,sans-Serif" font-size="10.00">System.Net.NetworkInformation.</text>
<text text-anchor="start" x="25.5" y="-115" font-family="Helvetica,sans-Serif" font-size="10.00">LinuxNetworkInterfaceAPI</text>
<text text-anchor="start" x="87" y="-100" font-family="Helvetica,sans-Serif" font-size="10.00"> </text>
<text text-anchor="start" x="4" y="-85" font-family="Helvetica,sans-Serif" font-size="10.00">+</text>
<text text-anchor="start" x="17" y="-85" font-family="Helvetica,sans-Serif" font-size="10.00">override NetworkInterface</text>
<text text-anchor="start" x="17" y="-74" font-family="Helvetica,sans-Serif" font-size="10.00">[] GetAllNetworkInterfaces()</text>
<text text-anchor="start" x="4" y="-59" font-family="Helvetica,sans-Serif" font-size="10.00">+</text>
<text text-anchor="start" x="17" y="-59" font-family="Helvetica,sans-Serif" font-size="10.00">LinuxNetworkInterfaceAPI()</text>
<text text-anchor="start" x="6.5" y="-44" font-family="Helvetica,sans-Serif" font-size="10.00">&#45;</text>
<text text-anchor="start" x="17" y="-44" font-family="Helvetica,sans-Serif" font-size="10.00">static void FreeInterface</text>
<text text-anchor="start" x="17" y="-33" font-family="Helvetica,sans-Serif" font-size="10.00">Addresses(IntPtr ifap)</text>
<text text-anchor="start" x="6.5" y="-18" font-family="Helvetica,sans-Serif" font-size="10.00">&#45;</text>
<text text-anchor="start" x="17" y="-18" font-family="Helvetica,sans-Serif" font-size="10.00">static int GetInterfaceAddresses</text>
<text text-anchor="start" x="17" y="-7" font-family="Helvetica,sans-Serif" font-size="10.00">(out IntPtr ifap)</text>
<polygon fill="#666666" stroke="#666666" points="0,-110 0,-110 178,-110 178,-110 0,-110"/>
<polygon fill="#666666" stroke="#666666" points="0,-95 0,-95 178,-95 178,-95 0,-95"/>
<polygon fill="none" stroke="#666666" points="0,0 0,-138 178,-138 178,0 0,0"/>
</a>
</g>
</g>
<!-- Node2 -->
<g id="Node000002" class="node">
<title>Node2</title>
<g id="a_Node000002"><a xlink:href="../../d3/db8/classSystem_1_1Net_1_1NetworkInformation_1_1UnixNetworkInterfaceAPI.html" target="_top" xlink:title=" ">
<polygon fill="white" stroke="transparent" points="165,-275 13,-275 13,-174 165,-174 165,-275"/>
<text text-anchor="start" x="27" y="-262.5" font-family="Helvetica,sans-Serif" font-size="10.00">UnixNetworkInterfaceAPI</text>
<text text-anchor="start" x="87" y="-247.5" font-family="Helvetica,sans-Serif" font-size="10.00"> </text>
<text text-anchor="start" x="17" y="-232.5" font-family="Helvetica,sans-Serif" font-size="10.00">#</text>
<text text-anchor="start" x="30" y="-232.5" font-family="Helvetica,sans-Serif" font-size="10.00">static int getifaddrs</text>
<text text-anchor="start" x="30" y="-221.5" font-family="Helvetica,sans-Serif" font-size="10.00">(out IntPtr ifap)</text>
<text text-anchor="start" x="17" y="-206.5" font-family="Helvetica,sans-Serif" font-size="10.00">#</text>
<text text-anchor="start" x="30" y="-206.5" font-family="Helvetica,sans-Serif" font-size="10.00">static void freeifaddrs</text>
<text text-anchor="start" x="30" y="-195.5" font-family="Helvetica,sans-Serif" font-size="10.00">(IntPtr ifap)</text>
<text text-anchor="start" x="17" y="-180.5" font-family="Helvetica,sans-Serif" font-size="10.00">#</text>
<text text-anchor="start" x="30" y="-180.5" font-family="Helvetica,sans-Serif" font-size="10.00">UnixNetworkInterfaceAPI()</text>
<polygon fill="#666666" stroke="#666666" points="13,-257.5 13,-257.5 165,-257.5 165,-257.5 13,-257.5"/>
<polygon fill="#666666" stroke="#666666" points="13,-242.5 13,-242.5 165,-242.5 165,-242.5 13,-242.5"/>
<polygon fill="none" stroke="#666666" points="13,-174 13,-275 165,-275 165,-174 13,-174"/>
</a>
</g>
</g>
<!-- Node2&#45;&gt;Node1 -->
<g id="edge1_Node000001_Node000002" class="edge">
<title>Node2&#45;&gt;Node1</title>
<g id="a_edge1_Node000001_Node000002"><a xlink:title=" ">
<path fill="none" stroke="#63b8ff" d="M89,-163.6C89,-155.2 89,-146.53 89,-138"/>
<polygon fill="none" stroke="#63b8ff" points="85.5,-163.66 89,-173.66 92.5,-163.66 85.5,-163.66"/>
</a>
</g>
</g>
<!-- Node3 -->
<g id="Node000003" class="node">
<title>Node3</title>
<g id="a_Node000003"><a xlink:href="../../d6/dbc/classSystem_1_1Net_1_1NetworkInformation_1_1NetworkInterfaceFactory.html" target="_top" xlink:title=" ">
<polygon fill="white" stroke="transparent" points="175,-412 3,-412 3,-311 175,-311 175,-412"/>
<text text-anchor="start" x="28.5" y="-399.5" font-family="Helvetica,sans-Serif" font-size="10.00">NetworkInterfaceFactory</text>
<text text-anchor="start" x="87" y="-384.5" font-family="Helvetica,sans-Serif" font-size="10.00"> </text>
<text text-anchor="start" x="7" y="-369.5" font-family="Helvetica,sans-Serif" font-size="10.00">+</text>
<text text-anchor="start" x="20" y="-369.5" font-family="Helvetica,sans-Serif" font-size="10.00">NetworkInterface[]</text>
<text text-anchor="start" x="20" y="-358.5" font-family="Helvetica,sans-Serif" font-size="10.00"> GetAllNetworkInterfaces()</text>
<text text-anchor="start" x="7" y="-343.5" font-family="Helvetica,sans-Serif" font-size="10.00">+</text>
<text text-anchor="start" x="20" y="-343.5" font-family="Helvetica,sans-Serif" font-size="10.00">static NetworkInterfaceFactory</text>
<text text-anchor="start" x="20" y="-332.5" font-family="Helvetica,sans-Serif" font-size="10.00"> Create()</text>
<text text-anchor="start" x="7" y="-317.5" font-family="Helvetica,sans-Serif" font-size="10.00">#</text>
<text text-anchor="start" x="20" y="-317.5" font-family="Helvetica,sans-Serif" font-size="10.00">NetworkInterfaceFactory()</text>
<polygon fill="#666666" stroke="#666666" points="3,-394.5 3,-394.5 175,-394.5 175,-394.5 3,-394.5"/>
<polygon fill="#666666" stroke="#666666" points="3,-379.5 3,-379.5 175,-379.5 175,-379.5 3,-379.5"/>
<polygon fill="none" stroke="#666666" points="3,-311 3,-412 175,-412 175,-311 3,-311"/>
</a>
</g>
</g>
<!-- Node3&#45;&gt;Node2 -->
<g id="edge2_Node000002_Node000003" class="edge">
<title>Node3&#45;&gt;Node2</title>
<g id="a_edge2_Node000002_Node000003"><a xlink:title=" ">
<path fill="none" stroke="#63b8ff" d="M89,-300.79C89,-292.33 89,-283.7 89,-275.45"/>
<polygon fill="none" stroke="#63b8ff" points="85.5,-301 89,-311 92.5,-301 85.5,-301"/>
</a>
</g>
</g>
</g>
</svg>
</svg>

<style type='text/css'>
<![CDATA[
[data-mouse-over-selected='false'] { opacity: 0.7; }
[data-mouse-over-selected='true']  { opacity: 1.0; }
]]>
</style>
<script type="application/ecmascript"><![CDATA[
document.addEventListener('DOMContentLoaded', (event) => {
  highlightEdges();
  highlightAdjacentNodes();
});
]]></script>
</svg>
