<?xml version="1.0" encoding="UTF-8" standalone="no"?>
<!DOCTYPE svg PUBLIC "-//W3C//DTD SVG 1.1//EN"
 "http://www.w3.org/Graphics/SVG/1.1/DTD/svg11.dtd">
<!-- Generated by graphviz version 2.43.0 (0)
 -->
<!-- Title: Terraria.GameContent.ItemDropRules.Conditions.IsCorruptionAndNotExpert Pages: 1 -->
<svg width="234pt" height="331pt"
 viewBox="0.00 0.00 234.00 331.00" xmlns="http://www.w3.org/2000/svg" xmlns:xlink="http://www.w3.org/1999/xlink">
<g id="graph0" class="graph" transform="scale(1 1) rotate(0) translate(4 327)">
<title>Terraria.GameContent.ItemDropRules.Conditions.IsCorruptionAndNotExpert</title>
<!-- Node1 -->
<g id="Node000001" class="node">
<title>Node1</title>
<g id="a_Node000001"><a xlink:title=" ">
<polygon fill="#999999" stroke="transparent" points="179,-127 0,-127 0,0 179,0 179,-127"/>
<text text-anchor="start" x="6" y="-114.5" font-family="Helvetica,sans-Serif" font-size="10.00">Terraria.GameContent.Item</text>
<text text-anchor="start" x="6" y="-103.5" font-family="Helvetica,sans-Serif" font-size="10.00">DropRules.Conditions.IsCorruption</text>
<text text-anchor="start" x="56" y="-92.5" font-family="Helvetica,sans-Serif" font-size="10.00">AndNotExpert</text>
<text text-anchor="start" x="88" y="-77.5" font-family="Helvetica,sans-Serif" font-size="10.00"> </text>
<text text-anchor="start" x="4.5" y="-62.5" font-family="Helvetica,sans-Serif" font-size="10.00">+</text>
<text text-anchor="start" x="17.5" y="-62.5" font-family="Helvetica,sans-Serif" font-size="10.00">bool CanDrop(DropAttempt</text>
<text text-anchor="start" x="17.5" y="-51.5" font-family="Helvetica,sans-Serif" font-size="10.00">Info info)</text>
<text text-anchor="start" x="4.5" y="-36.5" font-family="Helvetica,sans-Serif" font-size="10.00">+</text>
<text text-anchor="start" x="17.5" y="-36.5" font-family="Helvetica,sans-Serif" font-size="10.00">bool CanShowItemDropInUI()</text>
<text text-anchor="start" x="4.5" y="-21.5" font-family="Helvetica,sans-Serif" font-size="10.00">+</text>
<text text-anchor="start" x="17.5" y="-21.5" font-family="Helvetica,sans-Serif" font-size="10.00">string GetConditionDescription()</text>
<text text-anchor="start" x="4.5" y="-6.5" font-family="Helvetica,sans-Serif" font-size="10.00">+</text>
<text text-anchor="start" x="17.5" y="-6.5" font-family="Helvetica,sans-Serif" font-size="10.00">IsCorruptionAndNotExpert()</text>
<polygon fill="#666666" stroke="#666666" points="0.5,-87.5 0.5,-87.5 179.5,-87.5 179.5,-87.5 0.5,-87.5"/>
<polygon fill="#666666" stroke="#666666" points="0.5,-72.5 0.5,-72.5 179.5,-72.5 179.5,-72.5 0.5,-72.5"/>
<polygon fill="none" stroke="#666666" points="0,0 0,-127 179,-127 179,0 0,0"/>
</a>
</g>
</g>
<!-- Node2 -->
<g id="Node000002" class="node">
<title>Node2</title>
<g id="a_Node000002"><a xlink:href="../../d4/d9d/interfaceTerraria_1_1GameContent_1_1ItemDropRules_1_1IItemDropRuleCondition.html" target="_top" xlink:title=" ">
<polygon fill="white" stroke="transparent" points="226,-238 63,-238 63,-163 226,-163 226,-238"/>
<text text-anchor="start" x="86" y="-225.5" font-family="Helvetica,sans-Serif" font-size="10.00">IItemDropRuleCondition</text>
<text text-anchor="start" x="143" y="-210.5" font-family="Helvetica,sans-Serif" font-size="10.00"> </text>
<text text-anchor="start" x="67.5" y="-195.5" font-family="Helvetica,sans-Serif" font-size="10.00">+</text>
<text text-anchor="start" x="80.5" y="-195.5" font-family="Helvetica,sans-Serif" font-size="10.00">bool CanDrop(DropAttempt</text>
<text text-anchor="start" x="80.5" y="-184.5" font-family="Helvetica,sans-Serif" font-size="10.00">Info info)</text>
<text text-anchor="start" x="67.5" y="-169.5" font-family="Helvetica,sans-Serif" font-size="10.00">+</text>
<text text-anchor="start" x="80.5" y="-169.5" font-family="Helvetica,sans-Serif" font-size="10.00">bool CanShowItemDropInUI()</text>
<polygon fill="#666666" stroke="#666666" points="63.5,-220.5 63.5,-220.5 226.5,-220.5 226.5,-220.5 63.5,-220.5"/>
<polygon fill="#666666" stroke="#666666" points="63.5,-205.5 63.5,-205.5 226.5,-205.5 226.5,-205.5 63.5,-205.5"/>
<polygon fill="none" stroke="#666666" points="63,-163 63,-238 226,-238 226,-163 63,-163"/>
</a>
</g>
</g>
<!-- Node2&#45;&gt;Node1 -->
<g id="edge1_Node000001_Node000002" class="edge">
<title>Node2&#45;&gt;Node1</title>
<g id="a_edge1_Node000001_Node000002"><a xlink:title=" ">
<path fill="none" stroke="#63b8ff" d="M125.79,-153.59C122.32,-145.05 118.63,-136.01 114.99,-127.07"/>
<polygon fill="none" stroke="#63b8ff" points="122.6,-155.03 129.62,-162.97 129.08,-152.39 122.6,-155.03"/>
</a>
</g>
</g>
<!-- Node3 -->
<g id="Node000003" class="node">
<title>Node3</title>
<g id="a_Node000003"><a xlink:href="../../dc/d71/interfaceTerraria_1_1GameContent_1_1ItemDropRules_1_1IProvideItemConditionDescription.html" target="_top" xlink:title=" ">
<polygon fill="white" stroke="transparent" points="179,-323 0,-323 0,-274 179,-274 179,-323"/>
<text text-anchor="start" x="7.5" y="-310.5" font-family="Helvetica,sans-Serif" font-size="10.00">IProvideItemConditionDescription</text>
<text text-anchor="start" x="88" y="-295.5" font-family="Helvetica,sans-Serif" font-size="10.00"> </text>
<text text-anchor="start" x="4.5" y="-280.5" font-family="Helvetica,sans-Serif" font-size="10.00">+</text>
<text text-anchor="start" x="17.5" y="-280.5" font-family="Helvetica,sans-Serif" font-size="10.00">string GetConditionDescription()</text>
<polygon fill="#666666" stroke="#666666" points="0.5,-305.5 0.5,-305.5 179.5,-305.5 179.5,-305.5 0.5,-305.5"/>
<polygon fill="#666666" stroke="#666666" points="0.5,-290.5 0.5,-290.5 179.5,-290.5 179.5,-290.5 0.5,-290.5"/>
<polygon fill="none" stroke="#666666" points="0,-274 0,-323 179,-323 179,-274 0,-274"/>
</a>
</g>
</g>
<!-- Node3&#45;&gt;Node1 -->
<g id="edge3_Node000001_Node000003" class="edge">
<title>Node3&#45;&gt;Node1</title>
<g id="a_edge3_Node000001_Node000003"><a xlink:title=" ">
<path fill="none" stroke="#63b8ff" d="M66.33,-265.16C61.47,-256.71 57.04,-247.34 54.5,-238 44.61,-201.68 52.2,-160.39 62.8,-127.21"/>
<polygon fill="none" stroke="#63b8ff" points="63.5,-267.24 71.71,-273.93 69.46,-263.57 63.5,-267.24"/>
</a>
</g>
</g>
<!-- Node3&#45;&gt;Node2 -->
<g id="edge2_Node000002_Node000003" class="edge">
<title>Node3&#45;&gt;Node2</title>
<g id="a_edge2_Node000002_Node000003"><a xlink:title=" ">
<path fill="none" stroke="#63b8ff" d="M108.09,-265.05C113.06,-256.37 118.47,-246.93 123.57,-238.04"/>
<polygon fill="none" stroke="#63b8ff" points="105.03,-263.35 103.1,-273.77 111.1,-266.83 105.03,-263.35"/>
</a>
</g>
</g>
</g>
</svg>
