<?xml version="1.0" encoding="UTF-8" standalone="no"?>
<!DOCTYPE svg PUBLIC "-//W3C//DTD SVG 1.1//EN"
 "http://www.w3.org/Graphics/SVG/1.1/DTD/svg11.dtd">
<!-- Generated by graphviz version 2.43.0 (0)
 -->
<!-- Title: System.AggregateException Pages: 1 -->
<!--zoomable 755 -->

<svg id="main" version="1.1" xmlns="http://www.w3.org/2000/svg" xmlns:xlink="http://www.w3.org/1999/xlink" xml:space="preserve" onload="init(evt)">
<style type="text/css"><![CDATA[
.node, .edge {opacity: 0.7;}
.node.selected, .edge.selected {opacity: 1;}
.edge:hover path { stroke: red; }
.edge:hover polygon { stroke: red; fill: red; }
]]></style>

<defs>
  <circle id="rim" cx="0" cy="0" r="7"/>
  <circle id="rim2" cx="0" cy="0" r="3.5"/>
  <g id="zoomPlus">
    <use xlink:href="#rim" fill="#404040"><set attributeName="fill" to="#808080" begin="zoomplus.mouseover" end="zoomplus.mouseout"/></use>
    <path d="M-4,0h8M0,-4v8" fill="none" stroke="white" stroke-width="1.5" pointer-events="none"/>
  </g>
  <g id="zoomMin">
    <use xlink:href="#rim" fill="#404040"><set attributeName="fill" to="#808080" begin="zoomminus.mouseover" end="zoomminus.mouseout"/></use>
    <path d="M-4,0h8" fill="none" stroke="white" stroke-width="1.5" pointer-events="none"/>
  </g>
  <g id="arrowUp" transform="translate(30 24)">
    <use xlink:href="#rim"/>
    <path pointer-events="none" fill="none" stroke="white" stroke-width="1.5" d="M0,-3.0v7 M-2.5,-0.5L0,-3.0L2.5,-0.5"/>
  </g>
  <g id="arrowRight" transform="rotate(90) translate(36 -43)">
    <use xlink:href="#rim"/>
    <path pointer-events="none" fill="none" stroke="white" stroke-width="1.5" d="M0,-3.0v7 M-2.5,-0.5L0,-3.0L2.5,-0.5"/>
  </g>
  <g id="arrowDown" transform="rotate(180) translate(-30 -48)">
    <use xlink:href="#rim"/>
    <path pointer-events="none" fill="none" stroke="white" stroke-width="1.5" d="M0,-3.0v7 M-2.5,-0.5L0,-3.0L2.5,-0.5"/>
  </g>
  <g id="arrowLeft" transform="rotate(270) translate(-36 17)">
    <use xlink:href="#rim"/>
    <path pointer-events="none" fill="none" stroke="white" stroke-width="1.5" d="M0,-3.0v7 M-2.5,-0.5L0,-3.0L2.5,-0.5"/>
  </g>
  <g id="resetDef">
    <use xlink:href="#rim2" fill="#404040"><set attributeName="fill" to="#808080" begin="reset.mouseover" end="reset.mouseout"/></use>
  </g>
</defs>
<script type="application/ecmascript">
var viewWidth = 309;
var viewHeight = 755;
var sectionId = 'dynsection-1';
</script>
<script type="application/ecmascript" xlink:href="../../svg.min.js"/>
<svg id="graph" class="graph">
<g id="viewport">
<title>System.AggregateException</title>
<!-- Node1 -->
<g id="Node000001" class="node">
<title>Node1</title>
<g id="a_Node000001"><a xlink:title=" ">
<polygon fill="#999999" stroke="transparent" points="301,-651 0,-651 0,0 301,0 301,-651"/>
<text text-anchor="start" x="81.5" y="-638.5" font-family="Helvetica,sans-Serif" font-size="10.00">System.AggregateException</text>
<text text-anchor="start" x="4.5" y="-623.5" font-family="Helvetica,sans-Serif" font-size="10.00">+</text>
<text text-anchor="start" x="17.5" y="-623.5" font-family="Helvetica,sans-Serif" font-size="10.00">global::System.Collections.</text>
<text text-anchor="start" x="17.5" y="-612.5" font-family="Helvetica,sans-Serif" font-size="10.00">ObjectModel.ReadOnlyCollection</text>
<text text-anchor="start" x="17.5" y="-601.5" font-family="Helvetica,sans-Serif" font-size="10.00">&lt; global::System.Exception &gt;</text>
<text text-anchor="start" x="17.5" y="-590.5" font-family="Helvetica,sans-Serif" font-size="10.00"> InnerExceptions</text>
<text text-anchor="start" x="4.5" y="-575.5" font-family="Helvetica,sans-Serif" font-size="10.00">+</text>
<text text-anchor="start" x="17.5" y="-575.5" font-family="Helvetica,sans-Serif" font-size="10.00">override string Message</text>
<text text-anchor="start" x="4.5" y="-560.5" font-family="Helvetica,sans-Serif" font-size="10.00">+</text>
<text text-anchor="start" x="17.5" y="-560.5" font-family="Helvetica,sans-Serif" font-size="10.00">AggregateException()</text>
<text text-anchor="start" x="4.5" y="-545.5" font-family="Helvetica,sans-Serif" font-size="10.00">+</text>
<text text-anchor="start" x="17.5" y="-545.5" font-family="Helvetica,sans-Serif" font-size="10.00">AggregateException</text>
<text text-anchor="start" x="17.5" y="-534.5" font-family="Helvetica,sans-Serif" font-size="10.00">(global::System.Collections.</text>
<text text-anchor="start" x="17.5" y="-523.5" font-family="Helvetica,sans-Serif" font-size="10.00">Generic.IEnumerable&lt; global</text>
<text text-anchor="start" x="17.5" y="-512.5" font-family="Helvetica,sans-Serif" font-size="10.00">::System.Exception &gt; innerExceptions)</text>
<text text-anchor="start" x="4.5" y="-497.5" font-family="Helvetica,sans-Serif" font-size="10.00">+</text>
<text text-anchor="start" x="17.5" y="-497.5" font-family="Helvetica,sans-Serif" font-size="10.00">AggregateException</text>
<text text-anchor="start" x="17.5" y="-486.5" font-family="Helvetica,sans-Serif" font-size="10.00">(params global::System.Exception</text>
<text text-anchor="start" x="17.5" y="-475.5" font-family="Helvetica,sans-Serif" font-size="10.00">[] innerExceptions)</text>
<text text-anchor="start" x="4.5" y="-460.5" font-family="Helvetica,sans-Serif" font-size="10.00">+</text>
<text text-anchor="start" x="17.5" y="-460.5" font-family="Helvetica,sans-Serif" font-size="10.00">AggregateException</text>
<text text-anchor="start" x="17.5" y="-449.5" font-family="Helvetica,sans-Serif" font-size="10.00">(string message, global</text>
<text text-anchor="start" x="17.5" y="-438.5" font-family="Helvetica,sans-Serif" font-size="10.00">::System.Collections.Generic.IEnumerable</text>
<text text-anchor="start" x="17.5" y="-427.5" font-family="Helvetica,sans-Serif" font-size="10.00">&lt; global::System.Exception &gt; innerExceptions)</text>
<text text-anchor="start" x="4.5" y="-412.5" font-family="Helvetica,sans-Serif" font-size="10.00">+</text>
<text text-anchor="start" x="17.5" y="-412.5" font-family="Helvetica,sans-Serif" font-size="10.00">AggregateException</text>
<text text-anchor="start" x="17.5" y="-401.5" font-family="Helvetica,sans-Serif" font-size="10.00">(string message, params</text>
<text text-anchor="start" x="17.5" y="-390.5" font-family="Helvetica,sans-Serif" font-size="10.00"> global::System.Exception</text>
<text text-anchor="start" x="17.5" y="-379.5" font-family="Helvetica,sans-Serif" font-size="10.00">[] innerExceptions)</text>
<text text-anchor="start" x="4.5" y="-364.5" font-family="Helvetica,sans-Serif" font-size="10.00">+</text>
<text text-anchor="start" x="17.5" y="-364.5" font-family="Helvetica,sans-Serif" font-size="10.00">override void GetObjectData</text>
<text text-anchor="start" x="17.5" y="-353.5" font-family="Helvetica,sans-Serif" font-size="10.00">(global::System.Runtime.Serialization.</text>
<text text-anchor="start" x="17.5" y="-342.5" font-family="Helvetica,sans-Serif" font-size="10.00">SerializationInfo info, global::</text>
<text text-anchor="start" x="17.5" y="-331.5" font-family="Helvetica,sans-Serif" font-size="10.00">System.Runtime.Serialization.StreamingContext context)</text>
<text text-anchor="start" x="4.5" y="-316.5" font-family="Helvetica,sans-Serif" font-size="10.00">+</text>
<text text-anchor="start" x="17.5" y="-316.5" font-family="Helvetica,sans-Serif" font-size="10.00">global::System.Aggregate</text>
<text text-anchor="start" x="17.5" y="-305.5" font-family="Helvetica,sans-Serif" font-size="10.00">Exception Flatten()</text>
<text text-anchor="start" x="4.5" y="-290.5" font-family="Helvetica,sans-Serif" font-size="10.00">+</text>
<text text-anchor="start" x="17.5" y="-290.5" font-family="Helvetica,sans-Serif" font-size="10.00">override string ToString()</text>
<text text-anchor="start" x="4.5" y="-275.5" font-family="Helvetica,sans-Serif" font-size="10.00">~</text>
<text text-anchor="start" x="17.5" y="-275.5" font-family="Helvetica,sans-Serif" font-size="10.00">AggregateException</text>
<text text-anchor="start" x="17.5" y="-264.5" font-family="Helvetica,sans-Serif" font-size="10.00">(global::System.Collections.</text>
<text text-anchor="start" x="17.5" y="-253.5" font-family="Helvetica,sans-Serif" font-size="10.00">Generic.IEnumerable&lt; global</text>
<text text-anchor="start" x="17.5" y="-242.5" font-family="Helvetica,sans-Serif" font-size="10.00">::System.Runtime.ExceptionServices.</text>
<text text-anchor="start" x="17.5" y="-231.5" font-family="Helvetica,sans-Serif" font-size="10.00">ExceptionDispatchInfo &gt; innerExceptionInfos)</text>
<text text-anchor="start" x="4.5" y="-216.5" font-family="Helvetica,sans-Serif" font-size="10.00">~</text>
<text text-anchor="start" x="17.5" y="-216.5" font-family="Helvetica,sans-Serif" font-size="10.00">AggregateException</text>
<text text-anchor="start" x="17.5" y="-205.5" font-family="Helvetica,sans-Serif" font-size="10.00">(string message, global</text>
<text text-anchor="start" x="17.5" y="-194.5" font-family="Helvetica,sans-Serif" font-size="10.00">::System.Collections.Generic.IEnumerable</text>
<text text-anchor="start" x="17.5" y="-183.5" font-family="Helvetica,sans-Serif" font-size="10.00">&lt; global::System.Runtime.ExceptionServices.</text>
<text text-anchor="start" x="17.5" y="-172.5" font-family="Helvetica,sans-Serif" font-size="10.00">ExceptionDispatchInfo &gt; innerExceptionInfos)</text>
<text text-anchor="start" x="4.5" y="-157.5" font-family="Helvetica,sans-Serif" font-size="10.00">#</text>
<text text-anchor="start" x="17.5" y="-157.5" font-family="Helvetica,sans-Serif" font-size="10.00">AggregateException</text>
<text text-anchor="start" x="17.5" y="-146.5" font-family="Helvetica,sans-Serif" font-size="10.00">(global::System.Runtime.Serialization.</text>
<text text-anchor="start" x="17.5" y="-135.5" font-family="Helvetica,sans-Serif" font-size="10.00">SerializationInfo info, global</text>
<text text-anchor="start" x="17.5" y="-124.5" font-family="Helvetica,sans-Serif" font-size="10.00">::System.Runtime.Serialization.Streaming</text>
<text text-anchor="start" x="17.5" y="-113.5" font-family="Helvetica,sans-Serif" font-size="10.00">Context context)</text>
<text text-anchor="start" x="7" y="-98.5" font-family="Helvetica,sans-Serif" font-size="10.00">&#45;</text>
<text text-anchor="start" x="17.5" y="-98.5" font-family="Helvetica,sans-Serif" font-size="10.00">AggregateException</text>
<text text-anchor="start" x="17.5" y="-87.5" font-family="Helvetica,sans-Serif" font-size="10.00">(string message, global</text>
<text text-anchor="start" x="17.5" y="-76.5" font-family="Helvetica,sans-Serif" font-size="10.00">::System.Collections.Generic.IList</text>
<text text-anchor="start" x="17.5" y="-65.5" font-family="Helvetica,sans-Serif" font-size="10.00">&lt; global::System.Exception &gt; innerExceptions)</text>
<text text-anchor="start" x="7" y="-50.5" font-family="Helvetica,sans-Serif" font-size="10.00">&#45;</text>
<text text-anchor="start" x="17.5" y="-50.5" font-family="Helvetica,sans-Serif" font-size="10.00">AggregateException</text>
<text text-anchor="start" x="17.5" y="-39.5" font-family="Helvetica,sans-Serif" font-size="10.00">(string message, global</text>
<text text-anchor="start" x="17.5" y="-28.5" font-family="Helvetica,sans-Serif" font-size="10.00">::System.Collections.Generic.IList</text>
<text text-anchor="start" x="17.5" y="-17.5" font-family="Helvetica,sans-Serif" font-size="10.00">&lt; global::System.Runtime.ExceptionServices.</text>
<text text-anchor="start" x="17.5" y="-6.5" font-family="Helvetica,sans-Serif" font-size="10.00">ExceptionDispatchInfo &gt; innerExceptionInfos)</text>
<polygon fill="#666666" stroke="#666666" points="0.5,-633.5 0.5,-633.5 301.5,-633.5 301.5,-633.5 0.5,-633.5"/>
<polygon fill="#666666" stroke="#666666" points="0.5,-570.5 0.5,-570.5 15.5,-570.5 15.5,-570.5 0.5,-570.5"/>
<polygon fill="#666666" stroke="#666666" points="15.5,-570.5 15.5,-570.5 301.5,-570.5 301.5,-570.5 15.5,-570.5"/>
<polygon fill="none" stroke="#666666" points="0,0 0,-651 301,-651 301,0 0,0"/>
</a>
</g>
</g>
<!-- Node2 -->
<g id="Node000002" class="node">
<title>Node2</title>
<g id="a_Node000002"><a xlink:title=" ">
<polygon fill="white" stroke="transparent" points="158,-747 27,-747 27,-698 158,-698 158,-747"/>
<text text-anchor="start" x="32.5" y="-734.5" font-family="Helvetica,sans-Serif" font-size="10.00">global::SystemException</text>
<text text-anchor="start" x="91" y="-719.5" font-family="Helvetica,sans-Serif" font-size="10.00"> </text>
<text text-anchor="start" x="91" y="-704.5" font-family="Helvetica,sans-Serif" font-size="10.00"> </text>
<polygon fill="#666666" stroke="#666666" points="27.5,-729.5 27.5,-729.5 158.5,-729.5 158.5,-729.5 27.5,-729.5"/>
<polygon fill="#666666" stroke="#666666" points="27.5,-714.5 27.5,-714.5 158.5,-714.5 158.5,-714.5 27.5,-714.5"/>
<polygon fill="none" stroke="#666666" points="27,-698 27,-747 158,-747 158,-698 27,-698"/>
</a>
</g>
</g>
<!-- Node2&#45;&gt;Node1 -->
<g id="edge1_Node000001_Node000002" class="edge">
<title>Node2&#45;&gt;Node1</title>
<g id="a_edge1_Node000001_Node000002"><a xlink:title=" ">
<path fill="none" stroke="#63b8ff" d="M97.44,-687.88C98.97,-677.47 100.79,-665.02 102.83,-651.12"/>
<polygon fill="none" stroke="#63b8ff" points="93.94,-687.57 95.95,-697.97 100.87,-688.59 93.94,-687.57"/>
</a>
</g>
</g>
<!-- Node3 -->
<g id="Node000003" class="node">
<title>Node3</title>
<g id="a_Node000003"><a xlink:title=" ">
<polygon fill="white" stroke="transparent" points="241,-747 176,-747 176,-698 241,-698 241,-747"/>
<text text-anchor="start" x="181.5" y="-734.5" font-family="Helvetica,sans-Serif" font-size="10.00">Collections</text>
<text text-anchor="start" x="207" y="-719.5" font-family="Helvetica,sans-Serif" font-size="10.00"> </text>
<text text-anchor="start" x="207" y="-704.5" font-family="Helvetica,sans-Serif" font-size="10.00"> </text>
<polygon fill="#666666" stroke="#666666" points="176.5,-729.5 176.5,-729.5 241.5,-729.5 241.5,-729.5 176.5,-729.5"/>
<polygon fill="#666666" stroke="#666666" points="176.5,-714.5 176.5,-714.5 241.5,-714.5 241.5,-714.5 176.5,-714.5"/>
<polygon fill="none" stroke="#666666" points="176,-698 176,-747 241,-747 241,-698 176,-698"/>
</a>
</g>
</g>
<!-- Node3&#45;&gt;Node1 -->
<g id="edge2_Node000001_Node000003" class="edge">
<title>Node3&#45;&gt;Node1</title>
<g id="a_edge2_Node000001_Node000003"><a xlink:title=" ">
<path fill="none" stroke="#63b8ff" d="M205.05,-697.97C203.66,-688.57 201.92,-676.69 199.91,-663.02"/>
<polygon fill="none" stroke="#63b8ff" points="199.91,-662.99 195.08,-657.64 198.17,-651.12 203,-656.48 199.91,-662.99"/>
</a>
</g>
<text text-anchor="middle" x="250.5" y="-672" font-family="Helvetica,sans-Serif" font-size="10.00" fill="grey"> &#45;m_innerExceptions</text>
</g>
</g>
</svg>

<g id="navigator" transform="translate(0 0)" fill="#404254">
  <rect fill="#f2f5e9" fill-opacity="0.5" stroke="#606060" stroke-width=".5" x="0" y="0" width="60" height="60"/>
  <use id="zoomplus" xlink:href="#zoomPlus" x="17" y="9" onmousedown="handleZoom(evt,'in')"/>
  <use id="zoomminus" xlink:href="#zoomMin" x="42" y="9" onmousedown="handleZoom(evt,'out')"/>
  <use id="reset" xlink:href="#resetDef" x="30" y="36" onmousedown="handleReset()"/>
   <use id="arrowup" xlink:href="#arrowUp" x="0" y="0" onmousedown="handlePan(0,-1)"/>
  <use id="arrowright" xlink:href="#arrowRight" x="0" y="0" onmousedown="handlePan(1,0)"/>
  <use id="arrowdown" xlink:href="#arrowDown" x="0" y="0" onmousedown="handlePan(0,1)"/>
  <use id="arrowleft" xlink:href="#arrowLeft" x="0" y="0" onmousedown="handlePan(-1,0)"/>
</g>
<svg viewBox="0 0 15 15" width="100%" height="30px" preserveAspectRatio="xMaxYMin meet">
 <g id="arrow_out" transform="scale(0.3 0.3)">
  <a xlink:href="classSystem_1_1AggregateException__coll__graph_org.svg" target="_base">
   <rect id="button" ry="5" rx="5" y="6" x="6" height="38" width="38"
        fill="#f2f5e9" fill-opacity="0.5" stroke="#606060" stroke-width="1.0"/>
   <path id="arrow"
     d="M 11.500037,31.436501 C 11.940474,20.09759 22.043105,11.32322 32.158766,21.979434 L 37.068811,17.246167 C 37.068811,17.246167 37.088388,32 37.088388,32 L 22.160133,31.978069 C 22.160133,31.978069 26.997745,27.140456 26.997745,27.140456 C 18.528582,18.264221 13.291696,25.230495 11.500037,31.436501 z"
     style="fill:#404040;"/>
  </a>
 </g>
</svg>

<style type='text/css'>
<![CDATA[
[data-mouse-over-selected='false'] { opacity: 0.7; }
[data-mouse-over-selected='true']  { opacity: 1.0; }
]]>
</style>
<script type="application/ecmascript"><![CDATA[
document.addEventListener('DOMContentLoaded', (event) => {
  highlightEdges();
  highlightAdjacentNodes();
});
]]></script>
</svg>
