<?xml version="1.0" encoding="UTF-8" standalone="no"?>
<!DOCTYPE svg PUBLIC "-//W3C//DTD SVG 1.1//EN"
 "http://www.w3.org/Graphics/SVG/1.1/DTD/svg11.dtd">
<!-- Generated by graphviz version 2.43.0 (0)
 -->
<!-- Title: UnityEngine.Color Pages: 1 -->
<svg width="379pt" height="781pt"
 viewBox="0.00 0.00 378.50 781.00" xmlns="http://www.w3.org/2000/svg" xmlns:xlink="http://www.w3.org/1999/xlink">
<g id="graph0" class="graph" transform="scale(1 1) rotate(0) translate(4 777)">
<title>UnityEngine.Color</title>
<!-- Node1 -->
<g id="Node000001" class="node">
<title>Node1</title>
<g id="a_Node000001"><a xlink:title=" ">
<polygon fill="#999999" stroke="transparent" points="310,-526 155,-526 155,0 310,0 310,-526"/>
<text text-anchor="start" x="189" y="-514" font-family="Helvetica,sans-Serif" font-size="10.00">UnityEngine.Color</text>
<text text-anchor="start" x="159.5" y="-499" font-family="Helvetica,sans-Serif" font-size="10.00">+</text>
<text text-anchor="start" x="172.5" y="-499" font-family="Helvetica,sans-Serif" font-size="10.00">static Color red</text>
<text text-anchor="start" x="159.5" y="-484" font-family="Helvetica,sans-Serif" font-size="10.00">+</text>
<text text-anchor="start" x="172.5" y="-484" font-family="Helvetica,sans-Serif" font-size="10.00">static Color green</text>
<text text-anchor="start" x="159.5" y="-469" font-family="Helvetica,sans-Serif" font-size="10.00">+</text>
<text text-anchor="start" x="172.5" y="-469" font-family="Helvetica,sans-Serif" font-size="10.00">static Color blue</text>
<text text-anchor="start" x="159.5" y="-454" font-family="Helvetica,sans-Serif" font-size="10.00">+</text>
<text text-anchor="start" x="172.5" y="-454" font-family="Helvetica,sans-Serif" font-size="10.00">static Color white</text>
<text text-anchor="start" x="159.5" y="-439" font-family="Helvetica,sans-Serif" font-size="10.00">+</text>
<text text-anchor="start" x="172.5" y="-439" font-family="Helvetica,sans-Serif" font-size="10.00">static Color black</text>
<text text-anchor="start" x="159.5" y="-424" font-family="Helvetica,sans-Serif" font-size="10.00">+</text>
<text text-anchor="start" x="172.5" y="-424" font-family="Helvetica,sans-Serif" font-size="10.00">static Color yellow</text>
<text text-anchor="start" x="159.5" y="-409" font-family="Helvetica,sans-Serif" font-size="10.00">+</text>
<text text-anchor="start" x="172.5" y="-409" font-family="Helvetica,sans-Serif" font-size="10.00">static Color cyan</text>
<text text-anchor="start" x="159.5" y="-394" font-family="Helvetica,sans-Serif" font-size="10.00">+</text>
<text text-anchor="start" x="172.5" y="-394" font-family="Helvetica,sans-Serif" font-size="10.00">static Color gray</text>
<text text-anchor="start" x="159.5" y="-379" font-family="Helvetica,sans-Serif" font-size="10.00">+</text>
<text text-anchor="start" x="172.5" y="-379" font-family="Helvetica,sans-Serif" font-size="10.00">static Color clear</text>
<text text-anchor="start" x="159.5" y="-364" font-family="Helvetica,sans-Serif" font-size="10.00">+</text>
<text text-anchor="start" x="172.5" y="-364" font-family="Helvetica,sans-Serif" font-size="10.00">Color linear</text>
<text text-anchor="start" x="159.5" y="-349" font-family="Helvetica,sans-Serif" font-size="10.00">+</text>
<text text-anchor="start" x="172.5" y="-349" font-family="Helvetica,sans-Serif" font-size="10.00">float maxColorComponent</text>
<text text-anchor="start" x="159.5" y="-334" font-family="Helvetica,sans-Serif" font-size="10.00">+</text>
<text text-anchor="start" x="172.5" y="-334" font-family="Helvetica,sans-Serif" font-size="10.00">Color(float r, float</text>
<text text-anchor="start" x="172.5" y="-323" font-family="Helvetica,sans-Serif" font-size="10.00"> g, float b, float a)</text>
<text text-anchor="start" x="159.5" y="-308" font-family="Helvetica,sans-Serif" font-size="10.00">+</text>
<text text-anchor="start" x="172.5" y="-308" font-family="Helvetica,sans-Serif" font-size="10.00">Color(float r, float</text>
<text text-anchor="start" x="172.5" y="-297" font-family="Helvetica,sans-Serif" font-size="10.00"> g, float b)</text>
<text text-anchor="start" x="159.5" y="-282" font-family="Helvetica,sans-Serif" font-size="10.00">+</text>
<text text-anchor="start" x="172.5" y="-282" font-family="Helvetica,sans-Serif" font-size="10.00">override string ToString()</text>
<text text-anchor="start" x="159.5" y="-267" font-family="Helvetica,sans-Serif" font-size="10.00">+</text>
<text text-anchor="start" x="172.5" y="-267" font-family="Helvetica,sans-Serif" font-size="10.00">string ToString(string</text>
<text text-anchor="start" x="172.5" y="-256" font-family="Helvetica,sans-Serif" font-size="10.00"> format, IFormatProvider</text>
<text text-anchor="start" x="172.5" y="-245" font-family="Helvetica,sans-Serif" font-size="10.00"> formatProvider)</text>
<text text-anchor="start" x="159.5" y="-230" font-family="Helvetica,sans-Serif" font-size="10.00">+</text>
<text text-anchor="start" x="172.5" y="-230" font-family="Helvetica,sans-Serif" font-size="10.00">override int GetHashCode()</text>
<text text-anchor="start" x="159.5" y="-215" font-family="Helvetica,sans-Serif" font-size="10.00">+</text>
<text text-anchor="start" x="172.5" y="-215" font-family="Helvetica,sans-Serif" font-size="10.00">override bool Equals</text>
<text text-anchor="start" x="172.5" y="-204" font-family="Helvetica,sans-Serif" font-size="10.00">(object other)</text>
<text text-anchor="start" x="159.5" y="-189" font-family="Helvetica,sans-Serif" font-size="10.00">+</text>
<text text-anchor="start" x="172.5" y="-189" font-family="Helvetica,sans-Serif" font-size="10.00">bool Equals(Color other)</text>
<text text-anchor="start" x="159.5" y="-174" font-family="Helvetica,sans-Serif" font-size="10.00">+</text>
<text text-anchor="start" x="172.5" y="-174" font-family="Helvetica,sans-Serif" font-size="10.00">static Color operator*</text>
<text text-anchor="start" x="172.5" y="-163" font-family="Helvetica,sans-Serif" font-size="10.00">(Color a, float b)</text>
<text text-anchor="start" x="159.5" y="-148" font-family="Helvetica,sans-Serif" font-size="10.00">+</text>
<text text-anchor="start" x="172.5" y="-148" font-family="Helvetica,sans-Serif" font-size="10.00">static bool operator</text>
<text text-anchor="start" x="172.5" y="-137" font-family="Helvetica,sans-Serif" font-size="10.00">==(Color lhs, Color rhs)</text>
<text text-anchor="start" x="159.5" y="-122" font-family="Helvetica,sans-Serif" font-size="10.00">+</text>
<text text-anchor="start" x="172.5" y="-122" font-family="Helvetica,sans-Serif" font-size="10.00">static bool operator!</text>
<text text-anchor="start" x="172.5" y="-111" font-family="Helvetica,sans-Serif" font-size="10.00">=(Color lhs, Color rhs)</text>
<text text-anchor="start" x="159.5" y="-96" font-family="Helvetica,sans-Serif" font-size="10.00">+</text>
<text text-anchor="start" x="172.5" y="-96" font-family="Helvetica,sans-Serif" font-size="10.00">static Color Lerp(Color</text>
<text text-anchor="start" x="172.5" y="-85" font-family="Helvetica,sans-Serif" font-size="10.00"> a, Color b, float t)</text>
<text text-anchor="start" x="159.5" y="-70" font-family="Helvetica,sans-Serif" font-size="10.00">+</text>
<text text-anchor="start" x="172.5" y="-70" font-family="Helvetica,sans-Serif" font-size="10.00">static implicit operator</text>
<text text-anchor="start" x="172.5" y="-59" font-family="Helvetica,sans-Serif" font-size="10.00"> Vector4(Color c)</text>
<text text-anchor="start" x="159.5" y="-44" font-family="Helvetica,sans-Serif" font-size="10.00">+</text>
<text text-anchor="start" x="172.5" y="-44" font-family="Helvetica,sans-Serif" font-size="10.00">static implicit operator</text>
<text text-anchor="start" x="172.5" y="-33" font-family="Helvetica,sans-Serif" font-size="10.00"> Color(Vector4 v)</text>
<text text-anchor="start" x="159.5" y="-18" font-family="Helvetica,sans-Serif" font-size="10.00">~</text>
<text text-anchor="start" x="172.5" y="-18" font-family="Helvetica,sans-Serif" font-size="10.00">Color RGBMultiplied</text>
<text text-anchor="start" x="172.5" y="-7" font-family="Helvetica,sans-Serif" font-size="10.00">(float multiplier)</text>
<polygon fill="#666666" stroke="#666666" points="155.5,-509 155.5,-509 310.5,-509 310.5,-509 155.5,-509"/>
<polygon fill="#666666" stroke="#666666" points="155.5,-344 155.5,-344 170.5,-344 170.5,-344 155.5,-344"/>
<polygon fill="#666666" stroke="#666666" points="170.5,-344 170.5,-344 310.5,-344 310.5,-344 170.5,-344"/>
<polygon fill="none" stroke="#666666" points="155,0 155,-526 310,-526 310,0 155,0"/>
</a>
</g>
</g>
<!-- Node2 -->
<g id="Node000002" class="node">
<title>Node2</title>
<g id="a_Node000002"><a xlink:href="../../d6/d43/interfaceSystem_1_1IEquatable.html" target="_top" xlink:title=" ">
<polygon fill="white" stroke="transparent" points="125.5,-666 5.5,-666 5.5,-617 125.5,-617 125.5,-666"/>
<text text-anchor="start" x="15.5" y="-653.5" font-family="Helvetica,sans-Serif" font-size="10.00">IEquatable&lt; Color &gt;</text>
<text text-anchor="start" x="63.5" y="-638.5" font-family="Helvetica,sans-Serif" font-size="10.00"> </text>
<text text-anchor="start" x="9.5" y="-623.5" font-family="Helvetica,sans-Serif" font-size="10.00">+</text>
<text text-anchor="start" x="22.5" y="-623.5" font-family="Helvetica,sans-Serif" font-size="10.00">bool Equals(T other)</text>
<polygon fill="#666666" stroke="#666666" points="5.5,-648.5 5.5,-648.5 125.5,-648.5 125.5,-648.5 5.5,-648.5"/>
<polygon fill="#666666" stroke="#666666" points="5.5,-633.5 5.5,-633.5 125.5,-633.5 125.5,-633.5 5.5,-633.5"/>
<polygon fill="none" stroke="#666666" points="5.5,-617 5.5,-666 125.5,-666 125.5,-617 5.5,-617"/>
</a>
</g>
</g>
<!-- Node2&#45;&gt;Node1 -->
<g id="edge1_Node000001_Node000002" class="edge">
<title>Node2&#45;&gt;Node1</title>
<g id="a_edge1_Node000001_Node000002"><a xlink:title=" ">
<path fill="none" stroke="#63b8ff" d="M80.2,-607.37C97.18,-569.08 126.44,-503.11 154.81,-439.16"/>
<polygon fill="none" stroke="#63b8ff" points="76.8,-606.39 75.95,-616.95 83.2,-609.23 76.8,-606.39"/>
</a>
</g>
</g>
<!-- Node3 -->
<g id="Node000003" class="node">
<title>Node3</title>
<g id="a_Node000003"><a xlink:href="../../d6/d43/interfaceSystem_1_1IEquatable.html" target="_top" xlink:title=" ">
<polygon fill="white" stroke="transparent" points="131,-773 0,-773 0,-724 131,-724 131,-773"/>
<text text-anchor="start" x="5.5" y="-760.5" font-family="Helvetica,sans-Serif" font-size="10.00">System.IEquatable&lt; T &gt;</text>
<text text-anchor="start" x="64" y="-745.5" font-family="Helvetica,sans-Serif" font-size="10.00"> </text>
<text text-anchor="start" x="7" y="-730.5" font-family="Helvetica,sans-Serif" font-size="10.00">+</text>
<text text-anchor="start" x="22.5" y="-730.5" font-family="Helvetica,sans-Serif" font-size="10.00">bool Equals(T other)</text>
<polygon fill="#666666" stroke="#666666" points="0.5,-755.5 0.5,-755.5 131.5,-755.5 131.5,-755.5 0.5,-755.5"/>
<polygon fill="#666666" stroke="#666666" points="0.5,-740.5 0.5,-740.5 131.5,-740.5 131.5,-740.5 0.5,-740.5"/>
<polygon fill="none" stroke="#666666" points="0,-724 0,-773 131,-773 131,-724 0,-724"/>
</a>
</g>
</g>
<!-- Node3&#45;&gt;Node2 -->
<g id="edge2_Node000002_Node000003" class="edge">
<title>Node3&#45;&gt;Node2</title>
<g id="a_edge2_Node000002_Node000003"><a xlink:title=" ">
<path fill="none" stroke="orange" d="M65.5,-713.72C65.5,-698.28 65.5,-680.35 65.5,-666.35"/>
<polygon fill="orange" stroke="orange" points="62,-713.94 65.5,-723.94 69,-713.94 62,-713.94"/>
</a>
</g>
<text text-anchor="middle" x="91.5" y="-698" font-family="Helvetica,sans-Serif" font-size="10.00" fill="grey"> &lt; Color &gt;</text>
</g>
<!-- Node4 -->
<g id="Node000004" class="node">
<title>Node4</title>
<g id="a_Node000004"><a xlink:href="../../d7/dfc/interfaceSystem_1_1IFormattable.html" target="_top" xlink:title=" ">
<polygon fill="white" stroke="transparent" points="321,-677 144,-677 144,-606 321,-606 321,-677"/>
<text text-anchor="start" x="201.5" y="-664.5" font-family="Helvetica,sans-Serif" font-size="10.00">IFormattable</text>
<text text-anchor="start" x="231" y="-649.5" font-family="Helvetica,sans-Serif" font-size="10.00"> </text>
<text text-anchor="start" x="148.5" y="-634.5" font-family="Helvetica,sans-Serif" font-size="10.00">+</text>
<text text-anchor="start" x="161.5" y="-634.5" font-family="Helvetica,sans-Serif" font-size="10.00">string ToString(string</text>
<text text-anchor="start" x="161.5" y="-623.5" font-family="Helvetica,sans-Serif" font-size="10.00"> format, global::System.IFormat</text>
<text text-anchor="start" x="161.5" y="-612.5" font-family="Helvetica,sans-Serif" font-size="10.00">Provider formatProvider)</text>
<polygon fill="#666666" stroke="#666666" points="144.5,-659.5 144.5,-659.5 321.5,-659.5 321.5,-659.5 144.5,-659.5"/>
<polygon fill="#666666" stroke="#666666" points="144.5,-644.5 144.5,-644.5 321.5,-644.5 321.5,-644.5 144.5,-644.5"/>
<polygon fill="none" stroke="#666666" points="144,-606 144,-677 321,-677 321,-606 144,-606"/>
</a>
</g>
</g>
<!-- Node4&#45;&gt;Node1 -->
<g id="edge3_Node000001_Node000004" class="edge">
<title>Node4&#45;&gt;Node1</title>
<g id="a_edge3_Node000001_Node000004"><a xlink:title=" ">
<path fill="none" stroke="#63b8ff" d="M232.5,-595.62C232.5,-576.45 232.5,-552.42 232.5,-526.1"/>
<polygon fill="none" stroke="#63b8ff" points="229,-595.75 232.5,-605.75 236,-595.75 229,-595.75"/>
</a>
</g>
</g>
<!-- Node5 -->
<g id="Node000005" class="node">
<title>Node5</title>
<g id="a_Node000005"><a xlink:title=" ">
<polygon fill="white" stroke="transparent" points="370.5,-666 338.5,-666 338.5,-617 370.5,-617 370.5,-666"/>
<text text-anchor="start" x="343.5" y="-653.5" font-family="Helvetica,sans-Serif" font-size="10.00">float</text>
<text text-anchor="start" x="352.5" y="-638.5" font-family="Helvetica,sans-Serif" font-size="10.00"> </text>
<text text-anchor="start" x="352.5" y="-623.5" font-family="Helvetica,sans-Serif" font-size="10.00"> </text>
<polygon fill="#666666" stroke="#666666" points="338.5,-648.5 338.5,-648.5 370.5,-648.5 370.5,-648.5 338.5,-648.5"/>
<polygon fill="#666666" stroke="#666666" points="338.5,-633.5 338.5,-633.5 370.5,-633.5 370.5,-633.5 338.5,-633.5"/>
<polygon fill="none" stroke="#666666" points="338.5,-617 338.5,-666 370.5,-666 370.5,-617 338.5,-617"/>
</a>
</g>
</g>
<!-- Node5&#45;&gt;Node1 -->
<g id="edge4_Node000001_Node000005" class="edge">
<title>Node5&#45;&gt;Node1</title>
<g id="a_edge4_Node000001_Node000005"><a xlink:title=" ">
<path fill="none" stroke="#63b8ff" d="M346.87,-616.95C339.49,-594.16 327.45,-557.01 313.89,-515.17"/>
<polygon fill="none" stroke="#63b8ff" points="313.82,-514.97 308.17,-510.49 310.12,-503.55 315.78,-508.02 313.82,-514.97"/>
</a>
</g>
<text text-anchor="middle" x="345.5" y="-580" font-family="Helvetica,sans-Serif" font-size="10.00" fill="grey"> +a</text>
<text text-anchor="middle" x="345.5" y="-569" font-family="Helvetica,sans-Serif" font-size="10.00" fill="grey">+b</text>
<text text-anchor="middle" x="345.5" y="-558" font-family="Helvetica,sans-Serif" font-size="10.00" fill="grey">+g</text>
<text text-anchor="middle" x="345.5" y="-547" font-family="Helvetica,sans-Serif" font-size="10.00" fill="grey">+r</text>
</g>
</g>
</svg>
