<?xml version="1.0" encoding="UTF-8" standalone="no"?>
<!DOCTYPE svg PUBLIC "-//W3C//DTD SVG 1.1//EN"
 "http://www.w3.org/Graphics/SVG/1.1/DTD/svg11.dtd">
<!-- Generated by graphviz version 2.43.0 (0)
 -->
<!-- Title: Terraria.GameContent.UI.BigProgressBar.LunarPillarBigProgessBar Pages: 1 -->
<svg width="703pt" height="542pt"
 viewBox="0.00 0.00 702.50 542.00" xmlns="http://www.w3.org/2000/svg" xmlns:xlink="http://www.w3.org/1999/xlink">
<g id="graph0" class="graph" transform="scale(1 1) rotate(0) translate(4 538)">
<title>Terraria.GameContent.UI.BigProgressBar.LunarPillarBigProgessBar</title>
<!-- Node1 -->
<g id="Node000001" class="node">
<title>Node1</title>
<g id="a_Node000001"><a xlink:title=" ">
<polygon fill="#999999" stroke="transparent" points="444.5,-401 255.5,-401 255.5,-196 444.5,-196 444.5,-401"/>
<text text-anchor="start" x="278" y="-388.5" font-family="Helvetica,sans-Serif" font-size="10.00">Terraria.GameContent.UI.</text>
<text text-anchor="start" x="278" y="-377.5" font-family="Helvetica,sans-Serif" font-size="10.00">BigProgressBar.LunarPillarBig</text>
<text text-anchor="start" x="323" y="-366.5" font-family="Helvetica,sans-Serif" font-size="10.00">ProgessBar</text>
<text text-anchor="start" x="262.5" y="-351.5" font-family="Helvetica,sans-Serif" font-size="10.00">&#45;</text>
<text text-anchor="start" x="273" y="-351.5" font-family="Helvetica,sans-Serif" font-size="10.00">BigProgressBarCache</text>
<text text-anchor="start" x="273" y="-340.5" font-family="Helvetica,sans-Serif" font-size="10.00"> _cache</text>
<text text-anchor="start" x="262.5" y="-325.5" font-family="Helvetica,sans-Serif" font-size="10.00">&#45;</text>
<text text-anchor="start" x="273" y="-325.5" font-family="Helvetica,sans-Serif" font-size="10.00">int _headIndex</text>
<text text-anchor="start" x="260" y="-310.5" font-family="Helvetica,sans-Serif" font-size="10.00">+</text>
<text text-anchor="start" x="273" y="-310.5" font-family="Helvetica,sans-Serif" font-size="10.00">bool ValidateAndCollectNecessary</text>
<text text-anchor="start" x="273" y="-299.5" font-family="Helvetica,sans-Serif" font-size="10.00">Info(ref BigProgressBarInfo info)</text>
<text text-anchor="start" x="260" y="-284.5" font-family="Helvetica,sans-Serif" font-size="10.00">+</text>
<text text-anchor="start" x="273" y="-284.5" font-family="Helvetica,sans-Serif" font-size="10.00">void Draw(ref BigProgress</text>
<text text-anchor="start" x="273" y="-273.5" font-family="Helvetica,sans-Serif" font-size="10.00">BarInfo info, SpriteBatch</text>
<text text-anchor="start" x="273" y="-262.5" font-family="Helvetica,sans-Serif" font-size="10.00"> spriteBatch)</text>
<text text-anchor="start" x="260" y="-247.5" font-family="Helvetica,sans-Serif" font-size="10.00">~</text>
<text text-anchor="start" x="273" y="-247.5" font-family="Helvetica,sans-Serif" font-size="10.00">float GetCurrentShieldValue()</text>
<text text-anchor="start" x="260" y="-232.5" font-family="Helvetica,sans-Serif" font-size="10.00">~</text>
<text text-anchor="start" x="273" y="-232.5" font-family="Helvetica,sans-Serif" font-size="10.00">float GetMaxShieldValue()</text>
<text text-anchor="start" x="260" y="-217.5" font-family="Helvetica,sans-Serif" font-size="10.00">~</text>
<text text-anchor="start" x="273" y="-217.5" font-family="Helvetica,sans-Serif" font-size="10.00">bool IsPlayerInCombatArea()</text>
<text text-anchor="start" x="260" y="-202.5" font-family="Helvetica,sans-Serif" font-size="10.00">#</text>
<text text-anchor="start" x="273" y="-202.5" font-family="Helvetica,sans-Serif" font-size="10.00">LunarPillarBigProgessBar()</text>
<polygon fill="#666666" stroke="#666666" points="256,-361.5 256,-361.5 445,-361.5 445,-361.5 256,-361.5"/>
<polygon fill="#666666" stroke="#666666" points="256,-320.5 256,-320.5 271,-320.5 271,-320.5 256,-320.5"/>
<polygon fill="#666666" stroke="#666666" points="271,-320.5 271,-320.5 445,-320.5 445,-320.5 271,-320.5"/>
<polygon fill="none" stroke="#666666" points="255.5,-196 255.5,-401 444.5,-401 444.5,-196 255.5,-196"/>
</a>
</g>
</g>
<!-- Node3 -->
<g id="Node000003" class="node">
<title>Node3</title>
<g id="a_Node000003"><a xlink:href="../../d7/d1f/classTerraria_1_1GameContent_1_1UI_1_1BigProgressBar_1_1NebulaPillarBigProgressBar.html" target="_top" xlink:title=" ">
<polygon fill="white" stroke="transparent" points="162,-160 0,-160 0,0 162,0 162,-160"/>
<text text-anchor="start" x="5" y="-148" font-family="Helvetica,sans-Serif" font-size="10.00">Terraria.GameContent.UI.</text>
<text text-anchor="start" x="5" y="-137" font-family="Helvetica,sans-Serif" font-size="10.00">BigProgressBar.NebulaPillarBig</text>
<text text-anchor="start" x="51.5" y="-126" font-family="Helvetica,sans-Serif" font-size="10.00">ProgressBar</text>
<text text-anchor="start" x="79" y="-111" font-family="Helvetica,sans-Serif" font-size="10.00"> </text>
<text text-anchor="start" x="5" y="-96" font-family="Helvetica,sans-Serif" font-size="10.00">+</text>
<text text-anchor="start" x="19" y="-96" font-family="Helvetica,sans-Serif" font-size="10.00">NebulaPillarBigProgress</text>
<text text-anchor="start" x="19" y="-85" font-family="Helvetica,sans-Serif" font-size="10.00">Bar()</text>
<text text-anchor="start" x="5" y="-70" font-family="Helvetica,sans-Serif" font-size="10.00">~</text>
<text text-anchor="start" x="19" y="-70" font-family="Helvetica,sans-Serif" font-size="10.00">override float GetCurrent</text>
<text text-anchor="start" x="19" y="-59" font-family="Helvetica,sans-Serif" font-size="10.00">ShieldValue()</text>
<text text-anchor="start" x="5" y="-44" font-family="Helvetica,sans-Serif" font-size="10.00">~</text>
<text text-anchor="start" x="19" y="-44" font-family="Helvetica,sans-Serif" font-size="10.00">override float GetMaxShield</text>
<text text-anchor="start" x="19" y="-33" font-family="Helvetica,sans-Serif" font-size="10.00">Value()</text>
<text text-anchor="start" x="5" y="-18" font-family="Helvetica,sans-Serif" font-size="10.00">~</text>
<text text-anchor="start" x="19" y="-18" font-family="Helvetica,sans-Serif" font-size="10.00">override bool IsPlayerIn</text>
<text text-anchor="start" x="19" y="-7" font-family="Helvetica,sans-Serif" font-size="10.00">CombatArea()</text>
<polygon fill="#666666" stroke="#666666" points="0,-121 0,-121 162,-121 162,-121 0,-121"/>
<polygon fill="#666666" stroke="#666666" points="0,-106 0,-106 162,-106 162,-106 0,-106"/>
<polygon fill="none" stroke="#666666" points="0,0 0,-160 162,-160 162,0 0,0"/>
</a>
</g>
</g>
<!-- Node1&#45;&gt;Node3 -->
<g id="edge2_Node000001_Node000003" class="edge">
<title>Node1&#45;&gt;Node3</title>
<g id="a_edge2_Node000001_Node000003"><a xlink:title=" ">
<path fill="none" stroke="#63b8ff" d="M247.15,-220.33C221.99,-200.95 195.32,-179.98 171,-160 168.11,-157.62 165.18,-155.19 162.23,-152.72"/>
<polygon fill="none" stroke="#63b8ff" points="245.2,-223.25 255.27,-226.56 249.47,-217.7 245.2,-223.25"/>
</a>
</g>
</g>
<!-- Node4 -->
<g id="Node000004" class="node">
<title>Node4</title>
<g id="a_Node000004"><a xlink:href="../../d5/d99/classTerraria_1_1GameContent_1_1UI_1_1BigProgressBar_1_1SolarFlarePillarBigProgressBar.html" target="_top" xlink:title=" ">
<polygon fill="white" stroke="transparent" points="341.5,-160 180.5,-160 180.5,0 341.5,0 341.5,-160"/>
<text text-anchor="start" x="186" y="-148" font-family="Helvetica,sans-Serif" font-size="10.00">Terraria.GameContent.UI.</text>
<text text-anchor="start" x="186" y="-137" font-family="Helvetica,sans-Serif" font-size="10.00">BigProgressBar.SolarFlarePillar</text>
<text text-anchor="start" x="224" y="-126" font-family="Helvetica,sans-Serif" font-size="10.00">BigProgressBar</text>
<text text-anchor="start" x="259.5" y="-111" font-family="Helvetica,sans-Serif" font-size="10.00"> </text>
<text text-anchor="start" x="185.5" y="-96" font-family="Helvetica,sans-Serif" font-size="10.00">+</text>
<text text-anchor="start" x="199" y="-96" font-family="Helvetica,sans-Serif" font-size="10.00">SolarFlarePillarBigProgress</text>
<text text-anchor="start" x="199" y="-85" font-family="Helvetica,sans-Serif" font-size="10.00">Bar()</text>
<text text-anchor="start" x="185.5" y="-70" font-family="Helvetica,sans-Serif" font-size="10.00">~</text>
<text text-anchor="start" x="199" y="-70" font-family="Helvetica,sans-Serif" font-size="10.00">override float GetCurrent</text>
<text text-anchor="start" x="199" y="-59" font-family="Helvetica,sans-Serif" font-size="10.00">ShieldValue()</text>
<text text-anchor="start" x="185.5" y="-44" font-family="Helvetica,sans-Serif" font-size="10.00">~</text>
<text text-anchor="start" x="199" y="-44" font-family="Helvetica,sans-Serif" font-size="10.00">override float GetMaxShield</text>
<text text-anchor="start" x="199" y="-33" font-family="Helvetica,sans-Serif" font-size="10.00">Value()</text>
<text text-anchor="start" x="185.5" y="-18" font-family="Helvetica,sans-Serif" font-size="10.00">~</text>
<text text-anchor="start" x="199" y="-18" font-family="Helvetica,sans-Serif" font-size="10.00">override bool IsPlayerIn</text>
<text text-anchor="start" x="199" y="-7" font-family="Helvetica,sans-Serif" font-size="10.00">CombatArea()</text>
<polygon fill="#666666" stroke="#666666" points="181,-121 181,-121 342,-121 342,-121 181,-121"/>
<polygon fill="#666666" stroke="#666666" points="181,-106 181,-106 342,-106 342,-106 181,-106"/>
<polygon fill="none" stroke="#666666" points="180.5,0 180.5,-160 341.5,-160 341.5,0 180.5,0"/>
</a>
</g>
</g>
<!-- Node1&#45;&gt;Node4 -->
<g id="edge3_Node000001_Node000004" class="edge">
<title>Node1&#45;&gt;Node4</title>
<g id="a_edge3_Node000001_Node000004"><a xlink:title=" ">
<path fill="none" stroke="#63b8ff" d="M304.42,-186.63C300.77,-177.73 297.12,-168.86 293.58,-160.24"/>
<polygon fill="none" stroke="#63b8ff" points="301.2,-187.99 308.24,-195.91 307.67,-185.33 301.2,-187.99"/>
</a>
</g>
</g>
<!-- Node5 -->
<g id="Node000005" class="node">
<title>Node5</title>
<g id="a_Node000005"><a xlink:href="../../dc/d62/classTerraria_1_1GameContent_1_1UI_1_1BigProgressBar_1_1StardustPillarBigProgressBar.html" target="_top" xlink:title=" ">
<polygon fill="white" stroke="transparent" points="518,-160 360,-160 360,0 518,0 518,-160"/>
<text text-anchor="start" x="368" y="-148" font-family="Helvetica,sans-Serif" font-size="10.00">Terraria.GameContent.UI.</text>
<text text-anchor="start" x="368" y="-137" font-family="Helvetica,sans-Serif" font-size="10.00">BigProgressBar.StardustPillar</text>
<text text-anchor="start" x="401.5" y="-126" font-family="Helvetica,sans-Serif" font-size="10.00">BigProgressBar</text>
<text text-anchor="start" x="437" y="-111" font-family="Helvetica,sans-Serif" font-size="10.00"> </text>
<text text-anchor="start" x="364" y="-96" font-family="Helvetica,sans-Serif" font-size="10.00">+</text>
<text text-anchor="start" x="377" y="-96" font-family="Helvetica,sans-Serif" font-size="10.00">StardustPillarBigProgress</text>
<text text-anchor="start" x="377" y="-85" font-family="Helvetica,sans-Serif" font-size="10.00">Bar()</text>
<text text-anchor="start" x="364" y="-70" font-family="Helvetica,sans-Serif" font-size="10.00">~</text>
<text text-anchor="start" x="377" y="-70" font-family="Helvetica,sans-Serif" font-size="10.00">override float GetCurrent</text>
<text text-anchor="start" x="377" y="-59" font-family="Helvetica,sans-Serif" font-size="10.00">ShieldValue()</text>
<text text-anchor="start" x="364" y="-44" font-family="Helvetica,sans-Serif" font-size="10.00">~</text>
<text text-anchor="start" x="377" y="-44" font-family="Helvetica,sans-Serif" font-size="10.00">override float GetMaxShield</text>
<text text-anchor="start" x="377" y="-33" font-family="Helvetica,sans-Serif" font-size="10.00">Value()</text>
<text text-anchor="start" x="364" y="-18" font-family="Helvetica,sans-Serif" font-size="10.00">~</text>
<text text-anchor="start" x="377" y="-18" font-family="Helvetica,sans-Serif" font-size="10.00">override bool IsPlayerIn</text>
<text text-anchor="start" x="377" y="-7" font-family="Helvetica,sans-Serif" font-size="10.00">CombatArea()</text>
<polygon fill="#666666" stroke="#666666" points="360,-121 360,-121 518,-121 518,-121 360,-121"/>
<polygon fill="#666666" stroke="#666666" points="360,-106 360,-106 518,-106 518,-106 360,-106"/>
<polygon fill="none" stroke="#666666" points="360,0 360,-160 518,-160 518,0 360,0"/>
</a>
</g>
</g>
<!-- Node1&#45;&gt;Node5 -->
<g id="edge4_Node000001_Node000005" class="edge">
<title>Node1&#45;&gt;Node5</title>
<g id="a_edge4_Node000001_Node000005"><a xlink:title=" ">
<path fill="none" stroke="#63b8ff" d="M395.58,-186.63C399.23,-177.73 402.88,-168.86 406.42,-160.24"/>
<polygon fill="none" stroke="#63b8ff" points="392.33,-185.33 391.76,-195.91 398.8,-187.99 392.33,-185.33"/>
</a>
</g>
</g>
<!-- Node6 -->
<g id="Node000006" class="node">
<title>Node6</title>
<g id="a_Node000006"><a xlink:href="../../de/d01/classTerraria_1_1GameContent_1_1UI_1_1BigProgressBar_1_1VortexPillarBigProgressBar.html" target="_top" xlink:title=" ">
<polygon fill="white" stroke="transparent" points="694.5,-160 535.5,-160 535.5,0 694.5,0 694.5,-160"/>
<text text-anchor="start" x="541" y="-148" font-family="Helvetica,sans-Serif" font-size="10.00">Terraria.GameContent.UI.</text>
<text text-anchor="start" x="541" y="-137" font-family="Helvetica,sans-Serif" font-size="10.00">BigProgressBar.VortexPillarBig</text>
<text text-anchor="start" x="586" y="-126" font-family="Helvetica,sans-Serif" font-size="10.00">ProgressBar</text>
<text text-anchor="start" x="613.5" y="-111" font-family="Helvetica,sans-Serif" font-size="10.00"> </text>
<text text-anchor="start" x="540" y="-96" font-family="Helvetica,sans-Serif" font-size="10.00">+</text>
<text text-anchor="start" x="553" y="-96" font-family="Helvetica,sans-Serif" font-size="10.00">VortexPillarBigProgress</text>
<text text-anchor="start" x="553" y="-85" font-family="Helvetica,sans-Serif" font-size="10.00">Bar()</text>
<text text-anchor="start" x="540" y="-70" font-family="Helvetica,sans-Serif" font-size="10.00">~</text>
<text text-anchor="start" x="553" y="-70" font-family="Helvetica,sans-Serif" font-size="10.00">override float GetCurrent</text>
<text text-anchor="start" x="553" y="-59" font-family="Helvetica,sans-Serif" font-size="10.00">ShieldValue()</text>
<text text-anchor="start" x="540" y="-44" font-family="Helvetica,sans-Serif" font-size="10.00">~</text>
<text text-anchor="start" x="553" y="-44" font-family="Helvetica,sans-Serif" font-size="10.00">override float GetMaxShield</text>
<text text-anchor="start" x="553" y="-33" font-family="Helvetica,sans-Serif" font-size="10.00">Value()</text>
<text text-anchor="start" x="540" y="-18" font-family="Helvetica,sans-Serif" font-size="10.00">~</text>
<text text-anchor="start" x="553" y="-18" font-family="Helvetica,sans-Serif" font-size="10.00">override bool IsPlayerIn</text>
<text text-anchor="start" x="553" y="-7" font-family="Helvetica,sans-Serif" font-size="10.00">CombatArea()</text>
<polygon fill="#666666" stroke="#666666" points="536,-121 536,-121 695,-121 695,-121 536,-121"/>
<polygon fill="#666666" stroke="#666666" points="536,-106 536,-106 695,-106 695,-106 536,-106"/>
<polygon fill="none" stroke="#666666" points="535.5,0 535.5,-160 694.5,-160 694.5,0 535.5,0"/>
</a>
</g>
</g>
<!-- Node1&#45;&gt;Node6 -->
<g id="edge5_Node000001_Node000006" class="edge">
<title>Node1&#45;&gt;Node6</title>
<g id="a_edge5_Node000001_Node000006"><a xlink:title=" ">
<path fill="none" stroke="#63b8ff" d="M452.63,-219.76C477.26,-200.56 503.29,-179.81 527,-160 529.68,-157.76 532.39,-155.47 535.12,-153.15"/>
<polygon fill="none" stroke="#63b8ff" points="450.43,-217.04 444.68,-225.94 454.73,-222.56 450.43,-217.04"/>
</a>
</g>
</g>
<!-- Node2 -->
<g id="Node000002" class="node">
<title>Node2</title>
<g id="a_Node000002"><a xlink:href="../../d1/d40/interfaceTerraria_1_1GameContent_1_1UI_1_1BigProgressBar_1_1IBigProgressBar.html" target="_top" xlink:title=" ">
<polygon fill="white" stroke="transparent" points="444.5,-534 255.5,-534 255.5,-437 444.5,-437 444.5,-534"/>
<text text-anchor="start" x="311.5" y="-521.5" font-family="Helvetica,sans-Serif" font-size="10.00">IBigProgressBar</text>
<text text-anchor="start" x="348.5" y="-506.5" font-family="Helvetica,sans-Serif" font-size="10.00"> </text>
<text text-anchor="start" x="260" y="-491.5" font-family="Helvetica,sans-Serif" font-size="10.00">+</text>
<text text-anchor="start" x="273" y="-491.5" font-family="Helvetica,sans-Serif" font-size="10.00">bool ValidateAndCollectNecessary</text>
<text text-anchor="start" x="273" y="-480.5" font-family="Helvetica,sans-Serif" font-size="10.00">Info(ref BigProgressBarInfo info)</text>
<text text-anchor="start" x="260" y="-465.5" font-family="Helvetica,sans-Serif" font-size="10.00">+</text>
<text text-anchor="start" x="273" y="-465.5" font-family="Helvetica,sans-Serif" font-size="10.00">void Draw(ref BigProgress</text>
<text text-anchor="start" x="273" y="-454.5" font-family="Helvetica,sans-Serif" font-size="10.00">BarInfo info, SpriteBatch</text>
<text text-anchor="start" x="273" y="-443.5" font-family="Helvetica,sans-Serif" font-size="10.00"> spriteBatch)</text>
<polygon fill="#666666" stroke="#666666" points="256,-516.5 256,-516.5 445,-516.5 445,-516.5 256,-516.5"/>
<polygon fill="#666666" stroke="#666666" points="256,-501.5 256,-501.5 445,-501.5 445,-501.5 256,-501.5"/>
<polygon fill="none" stroke="#666666" points="255.5,-437 255.5,-534 444.5,-534 444.5,-437 255.5,-437"/>
</a>
</g>
</g>
<!-- Node2&#45;&gt;Node1 -->
<g id="edge1_Node000001_Node000002" class="edge">
<title>Node2&#45;&gt;Node1</title>
<g id="a_edge1_Node000001_Node000002"><a xlink:title=" ">
<path fill="none" stroke="#63b8ff" d="M350,-426.76C350,-418.6 350,-410.01 350,-401.31"/>
<polygon fill="none" stroke="#63b8ff" points="346.5,-426.86 350,-436.86 353.5,-426.86 346.5,-426.86"/>
</a>
</g>
</g>
</g>
</svg>
