<?xml version="1.0" encoding="UTF-8" standalone="no"?>
<!DOCTYPE svg PUBLIC "-//W3C//DTD SVG 1.1//EN"
 "http://www.w3.org/Graphics/SVG/1.1/DTD/svg11.dtd">
<!-- Generated by graphviz version 2.43.0 (0)
 -->
<!-- Title: StackTraceSnapshot Pages: 1 -->
<svg width="180pt" height="168pt"
 viewBox="0.00 0.00 179.50 168.00" xmlns="http://www.w3.org/2000/svg" xmlns:xlink="http://www.w3.org/1999/xlink">
<g id="graph0" class="graph" transform="scale(1 1) rotate(0) translate(4 164)">
<title>StackTraceSnapshot</title>
<!-- Node1 -->
<g id="Node000001" class="node">
<title>Node1</title>
<g id="a_Node000001"><a xlink:title=" ">
<polygon fill="#999999" stroke="transparent" points="154,-64 13,-64 13,0 154,0 154,-64"/>
<text text-anchor="start" x="35" y="-52" font-family="Helvetica,sans-Serif" font-size="10.00">StackTraceSnapshot</text>
<text text-anchor="start" x="82" y="-37" font-family="Helvetica,sans-Serif" font-size="10.00"> </text>
<text text-anchor="start" x="17.5" y="-22" font-family="Helvetica,sans-Serif" font-size="10.00">+</text>
<text text-anchor="start" x="30.5" y="-22" font-family="Helvetica,sans-Serif" font-size="10.00">void UpdateStackTrace()</text>
<text text-anchor="start" x="17.5" y="-7" font-family="Helvetica,sans-Serif" font-size="10.00">+</text>
<text text-anchor="start" x="30.5" y="-7" font-family="Helvetica,sans-Serif" font-size="10.00">StackTraceSnapshot()</text>
<polygon fill="#666666" stroke="#666666" points="13.5,-47 13.5,-47 154.5,-47 154.5,-47 13.5,-47"/>
<polygon fill="#666666" stroke="#666666" points="13.5,-32 13.5,-32 154.5,-32 154.5,-32 13.5,-32"/>
<polygon fill="none" stroke="#666666" points="13,0 13,-64 154,-64 154,0 13,0"/>
</a>
</g>
</g>
<!-- Node2 -->
<g id="Node000002" class="node">
<title>Node2</title>
<g id="a_Node000002"><a xlink:href="../../d3/d52/classMonoBehaviour.html" target="_top" xlink:title=" ">
<polygon fill="white" stroke="transparent" points="87,-160 0,-160 0,-111 87,-111 87,-160"/>
<text text-anchor="start" x="5.5" y="-147.5" font-family="Helvetica,sans-Serif" font-size="10.00">MonoBehaviour</text>
<text text-anchor="start" x="42" y="-132.5" font-family="Helvetica,sans-Serif" font-size="10.00"> </text>
<text text-anchor="start" x="42" y="-117.5" font-family="Helvetica,sans-Serif" font-size="10.00"> </text>
<polygon fill="#666666" stroke="#666666" points="0.5,-142.5 0.5,-142.5 87.5,-142.5 87.5,-142.5 0.5,-142.5"/>
<polygon fill="#666666" stroke="#666666" points="0.5,-127.5 0.5,-127.5 87.5,-127.5 87.5,-127.5 0.5,-127.5"/>
<polygon fill="none" stroke="#666666" points="0,-111 0,-160 87,-160 87,-111 0,-111"/>
</a>
</g>
</g>
<!-- Node2&#45;&gt;Node1 -->
<g id="edge1_Node000001_Node000002" class="edge">
<title>Node2&#45;&gt;Node1</title>
<g id="a_edge1_Node000001_Node000002"><a xlink:title=" ">
<path fill="none" stroke="#63b8ff" d="M56.57,-101.32C61.29,-89.35 66.6,-75.9 71.24,-64.11"/>
<polygon fill="none" stroke="#63b8ff" points="53.19,-100.37 52.78,-110.96 59.7,-102.94 53.19,-100.37"/>
</a>
</g>
</g>
<!-- Node3 -->
<g id="Node000003" class="node">
<title>Node3</title>
<g id="a_Node000003"><a xlink:title=" ">
<polygon fill="white" stroke="transparent" points="143.5,-160 105.5,-160 105.5,-111 143.5,-111 143.5,-160"/>
<text text-anchor="start" x="110.5" y="-147.5" font-family="Helvetica,sans-Serif" font-size="10.00">string</text>
<text text-anchor="start" x="122.5" y="-132.5" font-family="Helvetica,sans-Serif" font-size="10.00"> </text>
<text text-anchor="start" x="122.5" y="-117.5" font-family="Helvetica,sans-Serif" font-size="10.00"> </text>
<polygon fill="#666666" stroke="#666666" points="105.5,-142.5 105.5,-142.5 143.5,-142.5 143.5,-142.5 105.5,-142.5"/>
<polygon fill="#666666" stroke="#666666" points="105.5,-127.5 105.5,-127.5 143.5,-127.5 143.5,-127.5 105.5,-127.5"/>
<polygon fill="none" stroke="#666666" points="105.5,-111 105.5,-160 143.5,-160 143.5,-111 105.5,-111"/>
</a>
</g>
</g>
<!-- Node3&#45;&gt;Node1 -->
<g id="edge2_Node000001_Node000003" class="edge">
<title>Node3&#45;&gt;Node1</title>
<g id="a_edge2_Node000001_Node000003"><a xlink:title=" ">
<path fill="none" stroke="#63b8ff" d="M114.99,-110.96C110.72,-100.4 105.56,-87.6 100.65,-75.46"/>
<polygon fill="none" stroke="#63b8ff" points="100.56,-75.24 94.6,-71.17 96.07,-64.11 102.02,-68.17 100.56,-75.24"/>
</a>
</g>
<text text-anchor="middle" x="139.5" y="-85" font-family="Helvetica,sans-Serif" font-size="10.00" fill="grey"> +StackTrace</text>
</g>
</g>
</svg>
