<?xml version="1.0" encoding="UTF-8" standalone="no"?>
<!DOCTYPE svg PUBLIC "-//W3C//DTD SVG 1.1//EN"
 "http://www.w3.org/Graphics/SVG/1.1/DTD/svg11.dtd">
<!-- Generated by graphviz version 2.43.0 (0)
 -->
<!-- Title: System.Configuration.SettingElement Pages: 1 -->
<svg width="216pt" height="494pt"
 viewBox="0.00 0.00 216.00 494.00" xmlns="http://www.w3.org/2000/svg" xmlns:xlink="http://www.w3.org/1999/xlink">
<g id="graph0" class="graph" transform="scale(1 1) rotate(0) translate(4 490)">
<title>System.Configuration.SettingElement</title>
<!-- Node1 -->
<g id="Node000001" class="node">
<title>Node1</title>
<g id="a_Node000001"><a xlink:title=" ">
<polygon fill="#999999" stroke="transparent" points="190,-175 18,-175 18,0 190,0 190,-175"/>
<text text-anchor="start" x="32.5" y="-162.5" font-family="Helvetica,sans-Serif" font-size="10.00">System.Configuration.Setting</text>
<text text-anchor="start" x="83.5" y="-151.5" font-family="Helvetica,sans-Serif" font-size="10.00">Element</text>
<text text-anchor="start" x="22" y="-136.5" font-family="Helvetica,sans-Serif" font-size="10.00">+</text>
<text text-anchor="start" x="35" y="-136.5" font-family="Helvetica,sans-Serif" font-size="10.00">string Name</text>
<text text-anchor="start" x="22" y="-121.5" font-family="Helvetica,sans-Serif" font-size="10.00">+</text>
<text text-anchor="start" x="35" y="-121.5" font-family="Helvetica,sans-Serif" font-size="10.00">override ConfigurationProperty</text>
<text text-anchor="start" x="35" y="-110.5" font-family="Helvetica,sans-Serif" font-size="10.00">Collection Properties</text>
<text text-anchor="start" x="22" y="-95.5" font-family="Helvetica,sans-Serif" font-size="10.00">+</text>
<text text-anchor="start" x="35" y="-95.5" font-family="Helvetica,sans-Serif" font-size="10.00">SettingsSerializeAs</text>
<text text-anchor="start" x="35" y="-84.5" font-family="Helvetica,sans-Serif" font-size="10.00"> SerializeAs</text>
<text text-anchor="start" x="22" y="-69.5" font-family="Helvetica,sans-Serif" font-size="10.00">+</text>
<text text-anchor="start" x="35" y="-69.5" font-family="Helvetica,sans-Serif" font-size="10.00">SettingValueElement</text>
<text text-anchor="start" x="35" y="-58.5" font-family="Helvetica,sans-Serif" font-size="10.00"> Value</text>
<text text-anchor="start" x="22" y="-43.5" font-family="Helvetica,sans-Serif" font-size="10.00">+</text>
<text text-anchor="start" x="35" y="-43.5" font-family="Helvetica,sans-Serif" font-size="10.00">SettingElement()</text>
<text text-anchor="start" x="22" y="-28.5" font-family="Helvetica,sans-Serif" font-size="10.00">+</text>
<text text-anchor="start" x="35" y="-28.5" font-family="Helvetica,sans-Serif" font-size="10.00">SettingElement(string</text>
<text text-anchor="start" x="35" y="-17.5" font-family="Helvetica,sans-Serif" font-size="10.00"> name, SettingsSerializeAs</text>
<text text-anchor="start" x="35" y="-6.5" font-family="Helvetica,sans-Serif" font-size="10.00"> serializeAs)</text>
<polygon fill="#666666" stroke="#666666" points="18,-146.5 18,-146.5 190,-146.5 190,-146.5 18,-146.5"/>
<polygon fill="#666666" stroke="#666666" points="18,-53.5 18,-53.5 33,-53.5 33,-53.5 18,-53.5"/>
<polygon fill="#666666" stroke="#666666" points="33,-53.5 33,-53.5 190,-53.5 190,-53.5 33,-53.5"/>
<polygon fill="none" stroke="#666666" points="18,0 18,-175 190,-175 190,0 18,0"/>
</a>
</g>
</g>
<!-- Node2 -->
<g id="Node000002" class="node">
<title>Node2</title>
<g id="a_Node000002"><a xlink:href="../../de/d66/classSystem_1_1Configuration_1_1ConfigurationElement.html" target="_top" xlink:title=" ">
<polygon fill="white" stroke="transparent" points="208,-486 0,-486 0,-211 208,-211 208,-486"/>
<text text-anchor="start" x="51" y="-473.5" font-family="Helvetica,sans-Serif" font-size="10.00">ConfigurationElement</text>
<text text-anchor="start" x="4" y="-458.5" font-family="Helvetica,sans-Serif" font-size="10.00">+</text>
<text text-anchor="start" x="17" y="-458.5" font-family="Helvetica,sans-Serif" font-size="10.00">virtual ConfigurationProperty</text>
<text text-anchor="start" x="17" y="-447.5" font-family="Helvetica,sans-Serif" font-size="10.00">Collection Properties</text>
<text text-anchor="start" x="4" y="-432.5" font-family="Helvetica,sans-Serif" font-size="10.00">~</text>
<text text-anchor="start" x="17" y="-432.5" font-family="Helvetica,sans-Serif" font-size="10.00">virtual void Deserialize</text>
<text text-anchor="start" x="17" y="-421.5" font-family="Helvetica,sans-Serif" font-size="10.00">Element(XmlReader reader,</text>
<text text-anchor="start" x="17" y="-410.5" font-family="Helvetica,sans-Serif" font-size="10.00"> bool serializeCollectionKey)</text>
<text text-anchor="start" x="4" y="-395.5" font-family="Helvetica,sans-Serif" font-size="10.00">~</text>
<text text-anchor="start" x="17" y="-395.5" font-family="Helvetica,sans-Serif" font-size="10.00">virtual void InitializeDefault()</text>
<text text-anchor="start" x="4" y="-380.5" font-family="Helvetica,sans-Serif" font-size="10.00">~</text>
<text text-anchor="start" x="17" y="-380.5" font-family="Helvetica,sans-Serif" font-size="10.00">virtual bool IsModified()</text>
<text text-anchor="start" x="4" y="-365.5" font-family="Helvetica,sans-Serif" font-size="10.00">~</text>
<text text-anchor="start" x="17" y="-365.5" font-family="Helvetica,sans-Serif" font-size="10.00">virtual void Reset</text>
<text text-anchor="start" x="17" y="-354.5" font-family="Helvetica,sans-Serif" font-size="10.00">(ConfigurationElement</text>
<text text-anchor="start" x="17" y="-343.5" font-family="Helvetica,sans-Serif" font-size="10.00"> parentElement)</text>
<text text-anchor="start" x="4" y="-328.5" font-family="Helvetica,sans-Serif" font-size="10.00">~</text>
<text text-anchor="start" x="17" y="-328.5" font-family="Helvetica,sans-Serif" font-size="10.00">virtual void ResetModified()</text>
<text text-anchor="start" x="4" y="-313.5" font-family="Helvetica,sans-Serif" font-size="10.00">~</text>
<text text-anchor="start" x="17" y="-313.5" font-family="Helvetica,sans-Serif" font-size="10.00">virtual bool SerializeTo</text>
<text text-anchor="start" x="17" y="-302.5" font-family="Helvetica,sans-Serif" font-size="10.00">XmlElement(XmlWriter writer,</text>
<text text-anchor="start" x="17" y="-291.5" font-family="Helvetica,sans-Serif" font-size="10.00"> string elementName)</text>
<text text-anchor="start" x="4" y="-276.5" font-family="Helvetica,sans-Serif" font-size="10.00">~</text>
<text text-anchor="start" x="17" y="-276.5" font-family="Helvetica,sans-Serif" font-size="10.00">virtual void Unmerge</text>
<text text-anchor="start" x="17" y="-265.5" font-family="Helvetica,sans-Serif" font-size="10.00">(ConfigurationElement</text>
<text text-anchor="start" x="17" y="-254.5" font-family="Helvetica,sans-Serif" font-size="10.00"> sourceElement, Configuration</text>
<text text-anchor="start" x="17" y="-243.5" font-family="Helvetica,sans-Serif" font-size="10.00">Element parentElement, Configuration</text>
<text text-anchor="start" x="17" y="-232.5" font-family="Helvetica,sans-Serif" font-size="10.00">SaveMode saveMode)</text>
<text text-anchor="start" x="4" y="-217.5" font-family="Helvetica,sans-Serif" font-size="10.00">#</text>
<text text-anchor="start" x="17" y="-217.5" font-family="Helvetica,sans-Serif" font-size="10.00">virtual void PostDeserialize()</text>
<polygon fill="#666666" stroke="#666666" points="0,-468.5 0,-468.5 208,-468.5 208,-468.5 0,-468.5"/>
<polygon fill="#666666" stroke="#666666" points="0,-442.5 0,-442.5 15,-442.5 15,-442.5 0,-442.5"/>
<polygon fill="#666666" stroke="#666666" points="15,-442.5 15,-442.5 208,-442.5 208,-442.5 15,-442.5"/>
<polygon fill="none" stroke="#666666" points="0,-211 0,-486 208,-486 208,-211 0,-211"/>
</a>
</g>
</g>
<!-- Node2&#45;&gt;Node1 -->
<g id="edge1_Node000001_Node000002" class="edge">
<title>Node2&#45;&gt;Node1</title>
<g id="a_edge1_Node000001_Node000002"><a xlink:title=" ">
<path fill="none" stroke="#63b8ff" d="M104,-200.67C104,-192.07 104,-183.58 104,-175.35"/>
<polygon fill="none" stroke="#63b8ff" points="100.5,-200.79 104,-210.79 107.5,-200.79 100.5,-200.79"/>
</a>
</g>
</g>
</g>
</svg>
