<?xml version="1.0" encoding="UTF-8" standalone="no"?>
<!DOCTYPE svg PUBLIC "-//W3C//DTD SVG 1.1//EN"
 "http://www.w3.org/Graphics/SVG/1.1/DTD/svg11.dtd">
<!-- Generated by graphviz version 2.43.0 (0)
 -->
<!-- Title: Terraria.IO.FavoritesFile Pages: 1 -->
<svg width="233pt" height="294pt"
 viewBox="0.00 0.00 232.50 294.00" xmlns="http://www.w3.org/2000/svg" xmlns:xlink="http://www.w3.org/1999/xlink">

<svg id="main" version="1.1" xmlns="http://www.w3.org/2000/svg" xmlns:xlink="http://www.w3.org/1999/xlink" xml:space="preserve" onload="init(evt)">
<style type="text/css"><![CDATA[
.node, .edge {opacity: 0.7;}
.node.selected, .edge.selected {opacity: 1;}
.edge:hover path { stroke: red; }
.edge:hover polygon { stroke: red; fill: red; }
]]></style>
<script type="application/ecmascript" xlink:href="../../svg.min.js"/>
<svg id="graph" class="graph">
<g id="graph0" class="graph" transform="scale(1 1) rotate(0) translate(4 290)">
<title>Terraria.IO.FavoritesFile</title>
<!-- Node1 -->
<g id="Node000001" class="node">
<title>Node1</title>
<g id="a_Node000001"><a xlink:title=" ">
<polygon fill="#999999" stroke="transparent" points="153,-168 0,-168 0,0 153,0 153,-168"/>
<text text-anchor="start" x="19.5" y="-156" font-family="Helvetica,sans-Serif" font-size="10.00">Terraria.IO.FavoritesFile</text>
<text text-anchor="start" x="75" y="-141" font-family="Helvetica,sans-Serif" font-size="10.00"> </text>
<text text-anchor="start" x="4.5" y="-126" font-family="Helvetica,sans-Serif" font-size="10.00">+</text>
<text text-anchor="start" x="17.5" y="-126" font-family="Helvetica,sans-Serif" font-size="10.00">FavoritesFile(string</text>
<text text-anchor="start" x="17.5" y="-115" font-family="Helvetica,sans-Serif" font-size="10.00"> path, bool isCloud)</text>
<text text-anchor="start" x="4.5" y="-100" font-family="Helvetica,sans-Serif" font-size="10.00">+</text>
<text text-anchor="start" x="17.5" y="-100" font-family="Helvetica,sans-Serif" font-size="10.00">void SaveFavorite(FileData</text>
<text text-anchor="start" x="17.5" y="-89" font-family="Helvetica,sans-Serif" font-size="10.00"> fileData)</text>
<text text-anchor="start" x="4.5" y="-74" font-family="Helvetica,sans-Serif" font-size="10.00">+</text>
<text text-anchor="start" x="17.5" y="-74" font-family="Helvetica,sans-Serif" font-size="10.00">void ClearEntry(FileData</text>
<text text-anchor="start" x="17.5" y="-63" font-family="Helvetica,sans-Serif" font-size="10.00"> fileData)</text>
<text text-anchor="start" x="4.5" y="-48" font-family="Helvetica,sans-Serif" font-size="10.00">+</text>
<text text-anchor="start" x="17.5" y="-48" font-family="Helvetica,sans-Serif" font-size="10.00">bool IsFavorite(FileData</text>
<text text-anchor="start" x="17.5" y="-37" font-family="Helvetica,sans-Serif" font-size="10.00"> fileData)</text>
<text text-anchor="start" x="4.5" y="-22" font-family="Helvetica,sans-Serif" font-size="10.00">+</text>
<text text-anchor="start" x="17.5" y="-22" font-family="Helvetica,sans-Serif" font-size="10.00">void Save()</text>
<text text-anchor="start" x="4.5" y="-7" font-family="Helvetica,sans-Serif" font-size="10.00">+</text>
<text text-anchor="start" x="17.5" y="-7" font-family="Helvetica,sans-Serif" font-size="10.00">void Load()</text>
<polygon fill="#666666" stroke="#666666" points="0.5,-151 0.5,-151 153.5,-151 153.5,-151 0.5,-151"/>
<polygon fill="#666666" stroke="#666666" points="0.5,-136 0.5,-136 153.5,-136 153.5,-136 0.5,-136"/>
<polygon fill="none" stroke="#666666" points="0,0 0,-168 153,-168 153,0 0,0"/>
</a>
</g>
</g>
<!-- Node2 -->
<g id="Node000002" class="node">
<title>Node2</title>
<g id="a_Node000002"><a xlink:title=" ">
<polygon fill="white" stroke="transparent" points="39.5,-275 1.5,-275 1.5,-226 39.5,-226 39.5,-275"/>
<text text-anchor="start" x="6.5" y="-262.5" font-family="Helvetica,sans-Serif" font-size="10.00">string</text>
<text text-anchor="start" x="18.5" y="-247.5" font-family="Helvetica,sans-Serif" font-size="10.00"> </text>
<text text-anchor="start" x="18.5" y="-232.5" font-family="Helvetica,sans-Serif" font-size="10.00"> </text>
<polygon fill="#666666" stroke="#666666" points="1.5,-257.5 1.5,-257.5 39.5,-257.5 39.5,-257.5 1.5,-257.5"/>
<polygon fill="#666666" stroke="#666666" points="1.5,-242.5 1.5,-242.5 39.5,-242.5 39.5,-242.5 1.5,-242.5"/>
<polygon fill="none" stroke="#666666" points="1.5,-226 1.5,-275 39.5,-275 39.5,-226 1.5,-226"/>
</a>
</g>
</g>
<!-- Node2&#45;&gt;Node1 -->
<g id="edge1_Node000001_Node000002" class="edge">
<title>Node2&#45;&gt;Node1</title>
<g id="a_edge1_Node000001_Node000002"><a xlink:title=" ">
<path fill="none" stroke="#63b8ff" d="M27.2,-225.87C30.7,-213.88 35.14,-199.1 39.5,-186 40.2,-183.9 40.91,-181.77 41.64,-179.64"/>
<polygon fill="none" stroke="#63b8ff" points="41.71,-179.43 39.88,-172.46 45.61,-168.09 47.44,-175.06 41.71,-179.43"/>
</a>
</g>
<text text-anchor="middle" x="56" y="-189" font-family="Helvetica,sans-Serif" font-size="10.00" fill="grey"> +Path</text>
</g>
<!-- Node3 -->
<g id="Node000003" class="node">
<title>Node3</title>
<g id="a_Node000003"><a xlink:title=" ">
<polygon fill="white" stroke="transparent" points="92.5,-275 60.5,-275 60.5,-226 92.5,-226 92.5,-275"/>
<text text-anchor="start" x="65.5" y="-262.5" font-family="Helvetica,sans-Serif" font-size="10.00">bool</text>
<text text-anchor="start" x="74.5" y="-247.5" font-family="Helvetica,sans-Serif" font-size="10.00"> </text>
<text text-anchor="start" x="74.5" y="-232.5" font-family="Helvetica,sans-Serif" font-size="10.00"> </text>
<polygon fill="#666666" stroke="#666666" points="60.5,-257.5 60.5,-257.5 92.5,-257.5 92.5,-257.5 60.5,-257.5"/>
<polygon fill="#666666" stroke="#666666" points="60.5,-242.5 60.5,-242.5 92.5,-242.5 92.5,-242.5 60.5,-242.5"/>
<polygon fill="none" stroke="#666666" points="60.5,-226 60.5,-275 92.5,-275 92.5,-226 60.5,-226"/>
</a>
</g>
</g>
<!-- Node3&#45;&gt;Node1 -->
<g id="edge2_Node000001_Node000003" class="edge">
<title>Node3&#45;&gt;Node1</title>
<g id="a_edge2_Node000001_Node000003"><a xlink:title=" ">
<path fill="none" stroke="#63b8ff" d="M76.5,-225.93C76.5,-213.56 76.5,-197.5 76.5,-180.67"/>
<polygon fill="none" stroke="#63b8ff" points="76.5,-180.32 72.5,-174.32 76.5,-168.32 80.5,-174.32 76.5,-180.32"/>
</a>
</g>
<text text-anchor="middle" x="112.5" y="-189" font-family="Helvetica,sans-Serif" font-size="10.00" fill="grey"> +IsCloudSave</text>
</g>
<!-- Node4 -->
<g id="Node000004" class="node">
<title>Node4</title>
<g id="a_Node000004"><a xlink:title=" ">
<polygon fill="white" stroke="transparent" points="224.5,-286 118.5,-286 118.5,-215 224.5,-215 224.5,-286"/>
<text text-anchor="start" x="123.5" y="-273.5" font-family="Helvetica,sans-Serif" font-size="10.00">Dictionary&lt; string,</text>
<text text-anchor="start" x="123.5" y="-262.5" font-family="Helvetica,sans-Serif" font-size="10.00"> Dictionary&lt; string,</text>
<text text-anchor="start" x="148" y="-251.5" font-family="Helvetica,sans-Serif" font-size="10.00"> bool &gt; &gt;</text>
<text text-anchor="start" x="169.5" y="-236.5" font-family="Helvetica,sans-Serif" font-size="10.00"> </text>
<text text-anchor="start" x="169.5" y="-221.5" font-family="Helvetica,sans-Serif" font-size="10.00"> </text>
<polygon fill="#666666" stroke="#666666" points="118.5,-246.5 118.5,-246.5 224.5,-246.5 224.5,-246.5 118.5,-246.5"/>
<polygon fill="#666666" stroke="#666666" points="118.5,-231.5 118.5,-231.5 224.5,-231.5 224.5,-231.5 118.5,-231.5"/>
<polygon fill="none" stroke="#666666" points="118.5,-215 118.5,-286 224.5,-286 224.5,-215 118.5,-215"/>
</a>
</g>
</g>
<!-- Node4&#45;&gt;Node1 -->
<g id="edge3_Node000001_Node000004" class="edge">
<title>Node4&#45;&gt;Node1</title>
<g id="a_edge3_Node000001_Node000004"><a xlink:title=" ">
<path fill="none" stroke="#63b8ff" d="M161.52,-214.79C158.23,-205.22 154.18,-195 149.5,-186 148.24,-183.58 146.93,-181.16 145.58,-178.74"/>
<polygon fill="none" stroke="#63b8ff" points="145.43,-178.49 138.95,-175.33 139.37,-168.13 145.86,-171.29 145.43,-178.49"/>
</a>
</g>
<text text-anchor="middle" x="170.5" y="-189" font-family="Helvetica,sans-Serif" font-size="10.00" fill="grey"> &#45;_data</text>
</g>
</g>
</svg>
</svg>

<style type='text/css'>
<![CDATA[
[data-mouse-over-selected='false'] { opacity: 0.7; }
[data-mouse-over-selected='true']  { opacity: 1.0; }
]]>
</style>
<script type="application/ecmascript"><![CDATA[
document.addEventListener('DOMContentLoaded', (event) => {
  highlightEdges();
  highlightAdjacentNodes();
});
]]></script>
</svg>
