<?xml version="1.0" encoding="UTF-8" standalone="no"?>
<!DOCTYPE svg PUBLIC "-//W3C//DTD SVG 1.1//EN"
 "http://www.w3.org/Graphics/SVG/1.1/DTD/svg11.dtd">
<!-- Generated by graphviz version 2.43.0 (0)
 -->
<!-- Title: System.Collections.Queue.QueueEnumerator Pages: 1 -->
<svg width="264pt" height="273pt"
 viewBox="0.00 0.00 264.00 273.00" xmlns="http://www.w3.org/2000/svg" xmlns:xlink="http://www.w3.org/1999/xlink">
<g id="graph0" class="graph" transform="scale(1 1) rotate(0) translate(4 269)">
<title>System.Collections.Queue.QueueEnumerator</title>
<!-- Node1 -->
<g id="Node000001" class="node">
<title>Node1</title>
<g id="a_Node000001"><a xlink:title=" ">
<polygon fill="#999999" stroke="transparent" points="198.5,-165 40.5,-165 40.5,0 198.5,0 198.5,-165"/>
<text text-anchor="start" x="53.5" y="-152.5" font-family="Helvetica,sans-Serif" font-size="10.00">System.Collections.Queue.</text>
<text text-anchor="start" x="75" y="-141.5" font-family="Helvetica,sans-Serif" font-size="10.00">QueueEnumerator</text>
<text text-anchor="start" x="44.5" y="-126.5" font-family="Helvetica,sans-Serif" font-size="10.00">+</text>
<text text-anchor="start" x="57.5" y="-126.5" font-family="Helvetica,sans-Serif" font-size="10.00">virtual object Current</text>
<text text-anchor="start" x="47" y="-111.5" font-family="Helvetica,sans-Serif" font-size="10.00">&#45;</text>
<text text-anchor="start" x="57.5" y="-111.5" font-family="Helvetica,sans-Serif" font-size="10.00">Queue _q</text>
<text text-anchor="start" x="47" y="-96.5" font-family="Helvetica,sans-Serif" font-size="10.00">&#45;</text>
<text text-anchor="start" x="57.5" y="-96.5" font-family="Helvetica,sans-Serif" font-size="10.00">int _index</text>
<text text-anchor="start" x="47" y="-81.5" font-family="Helvetica,sans-Serif" font-size="10.00">&#45;</text>
<text text-anchor="start" x="57.5" y="-81.5" font-family="Helvetica,sans-Serif" font-size="10.00">int _version</text>
<text text-anchor="start" x="47" y="-66.5" font-family="Helvetica,sans-Serif" font-size="10.00">&#45;</text>
<text text-anchor="start" x="57.5" y="-66.5" font-family="Helvetica,sans-Serif" font-size="10.00">object _currentElement</text>
<text text-anchor="start" x="44.5" y="-51.5" font-family="Helvetica,sans-Serif" font-size="10.00">+</text>
<text text-anchor="start" x="57.5" y="-51.5" font-family="Helvetica,sans-Serif" font-size="10.00">object Clone()</text>
<text text-anchor="start" x="44.5" y="-36.5" font-family="Helvetica,sans-Serif" font-size="10.00">+</text>
<text text-anchor="start" x="57.5" y="-36.5" font-family="Helvetica,sans-Serif" font-size="10.00">virtual bool MoveNext()</text>
<text text-anchor="start" x="44.5" y="-21.5" font-family="Helvetica,sans-Serif" font-size="10.00">+</text>
<text text-anchor="start" x="57.5" y="-21.5" font-family="Helvetica,sans-Serif" font-size="10.00">virtual void Reset()</text>
<text text-anchor="start" x="44.5" y="-6.5" font-family="Helvetica,sans-Serif" font-size="10.00">~</text>
<text text-anchor="start" x="57.5" y="-6.5" font-family="Helvetica,sans-Serif" font-size="10.00">QueueEnumerator(Queue q)</text>
<polygon fill="#666666" stroke="#666666" points="40.5,-136.5 40.5,-136.5 198.5,-136.5 198.5,-136.5 40.5,-136.5"/>
<polygon fill="#666666" stroke="#666666" points="40.5,-61.5 40.5,-61.5 55.5,-61.5 55.5,-61.5 40.5,-61.5"/>
<polygon fill="#666666" stroke="#666666" points="55.5,-61.5 55.5,-61.5 198.5,-61.5 198.5,-61.5 55.5,-61.5"/>
<polygon fill="none" stroke="#666666" points="40.5,0 40.5,-165 198.5,-165 198.5,0 40.5,0"/>
</a>
</g>
</g>
<!-- Node2 -->
<g id="Node000002" class="node">
<title>Node2</title>
<g id="a_Node000002"><a xlink:href="../../dd/dfa/interfaceSystem_1_1Collections_1_1IEnumerator.html" target="_top" xlink:title=" ">
<polygon fill="white" stroke="transparent" points="103,-265 0,-265 0,-201 103,-201 103,-265"/>
<text text-anchor="start" x="21.5" y="-253" font-family="Helvetica,sans-Serif" font-size="10.00">IEnumerator</text>
<text text-anchor="start" x="4.5" y="-238" font-family="Helvetica,sans-Serif" font-size="10.00">+</text>
<text text-anchor="start" x="17.5" y="-238" font-family="Helvetica,sans-Serif" font-size="10.00">object Current</text>
<text text-anchor="start" x="4.5" y="-223" font-family="Helvetica,sans-Serif" font-size="10.00">+</text>
<text text-anchor="start" x="17.5" y="-223" font-family="Helvetica,sans-Serif" font-size="10.00">bool MoveNext()</text>
<text text-anchor="start" x="4.5" y="-208" font-family="Helvetica,sans-Serif" font-size="10.00">+</text>
<text text-anchor="start" x="17.5" y="-208" font-family="Helvetica,sans-Serif" font-size="10.00">void Reset()</text>
<polygon fill="#666666" stroke="#666666" points="0.5,-248 0.5,-248 103.5,-248 103.5,-248 0.5,-248"/>
<polygon fill="#666666" stroke="#666666" points="0.5,-233 0.5,-233 15.5,-233 15.5,-233 0.5,-233"/>
<polygon fill="#666666" stroke="#666666" points="15.5,-233 15.5,-233 103.5,-233 103.5,-233 15.5,-233"/>
<polygon fill="none" stroke="#666666" points="0,-201 0,-265 103,-265 103,-201 0,-201"/>
</a>
</g>
</g>
<!-- Node2&#45;&gt;Node1 -->
<g id="edge1_Node000001_Node000002" class="edge">
<title>Node2&#45;&gt;Node1</title>
<g id="a_edge1_Node000001_Node000002"><a xlink:title=" ">
<path fill="none" stroke="#63b8ff" d="M69.92,-191.77C73.75,-183.42 77.91,-174.32 82.14,-165.08"/>
<polygon fill="none" stroke="#63b8ff" points="66.74,-190.32 65.76,-200.87 73.1,-193.23 66.74,-190.32"/>
</a>
</g>
</g>
<!-- Node3 -->
<g id="Node000003" class="node">
<title>Node3</title>
<g id="a_Node000003"><a xlink:title=" ">
<polygon fill="white" stroke="transparent" points="256,-257.5 121,-257.5 121,-208.5 256,-208.5 256,-257.5"/>
<text text-anchor="start" x="126.5" y="-245" font-family="Helvetica,sans-Serif" font-size="10.00">global::SystemICloneable</text>
<text text-anchor="start" x="187" y="-230" font-family="Helvetica,sans-Serif" font-size="10.00"> </text>
<text text-anchor="start" x="187" y="-215" font-family="Helvetica,sans-Serif" font-size="10.00"> </text>
<polygon fill="#666666" stroke="#666666" points="121.5,-240 121.5,-240 256.5,-240 256.5,-240 121.5,-240"/>
<polygon fill="#666666" stroke="#666666" points="121.5,-225 121.5,-225 256.5,-225 256.5,-225 121.5,-225"/>
<polygon fill="none" stroke="#666666" points="121,-208.5 121,-257.5 256,-257.5 256,-208.5 121,-208.5"/>
</a>
</g>
</g>
<!-- Node3&#45;&gt;Node1 -->
<g id="edge2_Node000001_Node000003" class="edge">
<title>Node3&#45;&gt;Node1</title>
<g id="a_edge2_Node000001_Node000003"><a xlink:title=" ">
<path fill="none" stroke="#63b8ff" d="M173.25,-199.18C168.5,-188.95 163.03,-177.18 157.44,-165.15"/>
<polygon fill="none" stroke="#63b8ff" points="170.18,-200.88 177.57,-208.47 176.53,-197.93 170.18,-200.88"/>
</a>
</g>
</g>
</g>
</svg>
