<?xml version="1.0" encoding="UTF-8" standalone="no"?>
<!DOCTYPE svg PUBLIC "-//W3C//DTD SVG 1.1//EN"
 "http://www.w3.org/Graphics/SVG/1.1/DTD/svg11.dtd">
<!-- Generated by graphviz version 2.43.0 (0)
 -->
<!-- Title: Terraria.GameContent.ItemDropRules.ItemDropDatabase Pages: 1 -->
<!--zoomable 813 -->

<svg id="main" version="1.1" xmlns="http://www.w3.org/2000/svg" xmlns:xlink="http://www.w3.org/1999/xlink" xml:space="preserve" onload="init(evt)">
<style type="text/css"><![CDATA[
.node, .edge {opacity: 0.7;}
.node.selected, .edge.selected {opacity: 1;}
.edge:hover path { stroke: red; }
.edge:hover polygon { stroke: red; fill: red; }
]]></style>

<defs>
  <circle id="rim" cx="0" cy="0" r="7"/>
  <circle id="rim2" cx="0" cy="0" r="3.5"/>
  <g id="zoomPlus">
    <use xlink:href="#rim" fill="#404040"><set attributeName="fill" to="#808080" begin="zoomplus.mouseover" end="zoomplus.mouseout"/></use>
    <path d="M-4,0h8M0,-4v8" fill="none" stroke="white" stroke-width="1.5" pointer-events="none"/>
  </g>
  <g id="zoomMin">
    <use xlink:href="#rim" fill="#404040"><set attributeName="fill" to="#808080" begin="zoomminus.mouseover" end="zoomminus.mouseout"/></use>
    <path d="M-4,0h8" fill="none" stroke="white" stroke-width="1.5" pointer-events="none"/>
  </g>
  <g id="arrowUp" transform="translate(30 24)">
    <use xlink:href="#rim"/>
    <path pointer-events="none" fill="none" stroke="white" stroke-width="1.5" d="M0,-3.0v7 M-2.5,-0.5L0,-3.0L2.5,-0.5"/>
  </g>
  <g id="arrowRight" transform="rotate(90) translate(36 -43)">
    <use xlink:href="#rim"/>
    <path pointer-events="none" fill="none" stroke="white" stroke-width="1.5" d="M0,-3.0v7 M-2.5,-0.5L0,-3.0L2.5,-0.5"/>
  </g>
  <g id="arrowDown" transform="rotate(180) translate(-30 -48)">
    <use xlink:href="#rim"/>
    <path pointer-events="none" fill="none" stroke="white" stroke-width="1.5" d="M0,-3.0v7 M-2.5,-0.5L0,-3.0L2.5,-0.5"/>
  </g>
  <g id="arrowLeft" transform="rotate(270) translate(-36 17)">
    <use xlink:href="#rim"/>
    <path pointer-events="none" fill="none" stroke="white" stroke-width="1.5" d="M0,-3.0v7 M-2.5,-0.5L0,-3.0L2.5,-0.5"/>
  </g>
  <g id="resetDef">
    <use xlink:href="#rim2" fill="#404040"><set attributeName="fill" to="#808080" begin="reset.mouseover" end="reset.mouseout"/></use>
  </g>
</defs>
<script type="application/ecmascript">
var viewWidth = 630;
var viewHeight = 813;
var sectionId = 'dynsection-0';
</script>
<script type="application/ecmascript" xlink:href="../../svg.min.js"/>
<svg id="graph" class="graph">
<g id="viewport">
<title>Terraria.GameContent.ItemDropRules.ItemDropDatabase</title>
<!-- Node1 -->
<g id="Node000001" class="node">
<title>Node1</title>
<g id="a_Node000001"><a xlink:title=" ">
<polygon fill="#999999" stroke="transparent" points="425.5,-687 242.5,-687 242.5,0 425.5,0 425.5,-687"/>
<text text-anchor="start" x="261.5" y="-674.5" font-family="Helvetica,sans-Serif" font-size="10.00">Terraria.GameContent.Item</text>
<text text-anchor="start" x="261.5" y="-663.5" font-family="Helvetica,sans-Serif" font-size="10.00">DropRules.ItemDropDatabase</text>
<text text-anchor="start" x="332.5" y="-648.5" font-family="Helvetica,sans-Serif" font-size="10.00"> </text>
<text text-anchor="start" x="247" y="-633.5" font-family="Helvetica,sans-Serif" font-size="10.00">+</text>
<text text-anchor="start" x="260" y="-633.5" font-family="Helvetica,sans-Serif" font-size="10.00">void PrepareNPCNetIDsByType</text>
<text text-anchor="start" x="260" y="-622.5" font-family="Helvetica,sans-Serif" font-size="10.00">Dictionary()</text>
<text text-anchor="start" x="247" y="-607.5" font-family="Helvetica,sans-Serif" font-size="10.00">+</text>
<text text-anchor="start" x="260" y="-607.5" font-family="Helvetica,sans-Serif" font-size="10.00">void TrimDuplicateRulesFor</text>
<text text-anchor="start" x="260" y="-596.5" font-family="Helvetica,sans-Serif" font-size="10.00">NegativeIDs()</text>
<text text-anchor="start" x="247" y="-581.5" font-family="Helvetica,sans-Serif" font-size="10.00">+</text>
<text text-anchor="start" x="260" y="-581.5" font-family="Helvetica,sans-Serif" font-size="10.00">List&lt; IItemDropRule</text>
<text text-anchor="start" x="260" y="-570.5" font-family="Helvetica,sans-Serif" font-size="10.00"> &gt; GetRulesForNPCID</text>
<text text-anchor="start" x="260" y="-559.5" font-family="Helvetica,sans-Serif" font-size="10.00">(int npcNetId, bool include</text>
<text text-anchor="start" x="260" y="-548.5" font-family="Helvetica,sans-Serif" font-size="10.00">GlobalDrops=true)</text>
<text text-anchor="start" x="247" y="-533.5" font-family="Helvetica,sans-Serif" font-size="10.00">+</text>
<text text-anchor="start" x="260" y="-533.5" font-family="Helvetica,sans-Serif" font-size="10.00">IItemDropRule RegisterTo</text>
<text text-anchor="start" x="260" y="-522.5" font-family="Helvetica,sans-Serif" font-size="10.00">Global(IItemDropRule entry)</text>
<text text-anchor="start" x="247" y="-507.5" font-family="Helvetica,sans-Serif" font-size="10.00">+</text>
<text text-anchor="start" x="260" y="-507.5" font-family="Helvetica,sans-Serif" font-size="10.00">IItemDropRule RegisterTo</text>
<text text-anchor="start" x="260" y="-496.5" font-family="Helvetica,sans-Serif" font-size="10.00">NPC(int type, IItemDropRule</text>
<text text-anchor="start" x="260" y="-485.5" font-family="Helvetica,sans-Serif" font-size="10.00"> entry)</text>
<text text-anchor="start" x="247" y="-470.5" font-family="Helvetica,sans-Serif" font-size="10.00">+</text>
<text text-anchor="start" x="260" y="-470.5" font-family="Helvetica,sans-Serif" font-size="10.00">IItemDropRule RegisterTo</text>
<text text-anchor="start" x="260" y="-459.5" font-family="Helvetica,sans-Serif" font-size="10.00">MultipleNPCs(IItemDropRule</text>
<text text-anchor="start" x="260" y="-448.5" font-family="Helvetica,sans-Serif" font-size="10.00"> entry, params int[] npcNetIds)</text>
<text text-anchor="start" x="247" y="-433.5" font-family="Helvetica,sans-Serif" font-size="10.00">+</text>
<text text-anchor="start" x="260" y="-433.5" font-family="Helvetica,sans-Serif" font-size="10.00">IItemDropRule RegisterTo</text>
<text text-anchor="start" x="260" y="-422.5" font-family="Helvetica,sans-Serif" font-size="10.00">MultipleNPCsNotRemixSeed</text>
<text text-anchor="start" x="260" y="-411.5" font-family="Helvetica,sans-Serif" font-size="10.00">(IItemDropRule entry, params</text>
<text text-anchor="start" x="260" y="-400.5" font-family="Helvetica,sans-Serif" font-size="10.00"> int[] npcNetIds)</text>
<text text-anchor="start" x="247" y="-385.5" font-family="Helvetica,sans-Serif" font-size="10.00">+</text>
<text text-anchor="start" x="260" y="-385.5" font-family="Helvetica,sans-Serif" font-size="10.00">IItemDropRule RegisterTo</text>
<text text-anchor="start" x="260" y="-374.5" font-family="Helvetica,sans-Serif" font-size="10.00">MultipleNPCsRemixSeed</text>
<text text-anchor="start" x="260" y="-363.5" font-family="Helvetica,sans-Serif" font-size="10.00">(IItemDropRule entry, params</text>
<text text-anchor="start" x="260" y="-352.5" font-family="Helvetica,sans-Serif" font-size="10.00"> int[] npcNetIds)</text>
<text text-anchor="start" x="247" y="-337.5" font-family="Helvetica,sans-Serif" font-size="10.00">+</text>
<text text-anchor="start" x="260" y="-337.5" font-family="Helvetica,sans-Serif" font-size="10.00">IItemDropRule RemoveFrom</text>
<text text-anchor="start" x="260" y="-326.5" font-family="Helvetica,sans-Serif" font-size="10.00">NPC(int type, IItemDropRule</text>
<text text-anchor="start" x="260" y="-315.5" font-family="Helvetica,sans-Serif" font-size="10.00"> entry)</text>
<text text-anchor="start" x="247" y="-300.5" font-family="Helvetica,sans-Serif" font-size="10.00">+</text>
<text text-anchor="start" x="260" y="-300.5" font-family="Helvetica,sans-Serif" font-size="10.00">IItemDropRule RemoveFrom</text>
<text text-anchor="start" x="260" y="-289.5" font-family="Helvetica,sans-Serif" font-size="10.00">MultipleNPCs(IItemDropRule</text>
<text text-anchor="start" x="260" y="-278.5" font-family="Helvetica,sans-Serif" font-size="10.00"> entry, params int[] npcNetIds)</text>
<text text-anchor="start" x="247" y="-263.5" font-family="Helvetica,sans-Serif" font-size="10.00">+</text>
<text text-anchor="start" x="260" y="-263.5" font-family="Helvetica,sans-Serif" font-size="10.00">void Populate()</text>
<text text-anchor="start" x="247" y="-248.5" font-family="Helvetica,sans-Serif" font-size="10.00">+</text>
<text text-anchor="start" x="260" y="-248.5" font-family="Helvetica,sans-Serif" font-size="10.00">ItemDropDatabase()</text>
<text text-anchor="start" x="249.5" y="-233.5" font-family="Helvetica,sans-Serif" font-size="10.00">&#45;</text>
<text text-anchor="start" x="260" y="-233.5" font-family="Helvetica,sans-Serif" font-size="10.00">void RegisterToNPCNetId</text>
<text text-anchor="start" x="260" y="-222.5" font-family="Helvetica,sans-Serif" font-size="10.00">(int npcNetId, IItemDropRule</text>
<text text-anchor="start" x="260" y="-211.5" font-family="Helvetica,sans-Serif" font-size="10.00"> entry)</text>
<text text-anchor="start" x="249.5" y="-196.5" font-family="Helvetica,sans-Serif" font-size="10.00">&#45;</text>
<text text-anchor="start" x="260" y="-196.5" font-family="Helvetica,sans-Serif" font-size="10.00">void RemoveFromNPCNetId</text>
<text text-anchor="start" x="260" y="-185.5" font-family="Helvetica,sans-Serif" font-size="10.00">(int npcNetId, IItemDropRule</text>
<text text-anchor="start" x="260" y="-174.5" font-family="Helvetica,sans-Serif" font-size="10.00"> entry)</text>
<text text-anchor="start" x="249.5" y="-159.5" font-family="Helvetica,sans-Serif" font-size="10.00">&#45;</text>
<text text-anchor="start" x="260" y="-159.5" font-family="Helvetica,sans-Serif" font-size="10.00">void RegisterBloodMoonFishing()</text>
<text text-anchor="start" x="249.5" y="-144.5" font-family="Helvetica,sans-Serif" font-size="10.00">&#45;</text>
<text text-anchor="start" x="260" y="-144.5" font-family="Helvetica,sans-Serif" font-size="10.00">void RegisterEclipse()</text>
<text text-anchor="start" x="249.5" y="-129.5" font-family="Helvetica,sans-Serif" font-size="10.00">&#45;</text>
<text text-anchor="start" x="260" y="-129.5" font-family="Helvetica,sans-Serif" font-size="10.00">void RegisterMimic()</text>
<text text-anchor="start" x="249.5" y="-114.5" font-family="Helvetica,sans-Serif" font-size="10.00">&#45;</text>
<text text-anchor="start" x="260" y="-114.5" font-family="Helvetica,sans-Serif" font-size="10.00">void RegisterHardmodeDungeon</text>
<text text-anchor="start" x="260" y="-103.5" font-family="Helvetica,sans-Serif" font-size="10.00">Drops()</text>
<text text-anchor="start" x="249.5" y="-88.5" font-family="Helvetica,sans-Serif" font-size="10.00">&#45;</text>
<text text-anchor="start" x="260" y="-88.5" font-family="Helvetica,sans-Serif" font-size="10.00">void RegisterBosses()</text>
<text text-anchor="start" x="249.5" y="-73.5" font-family="Helvetica,sans-Serif" font-size="10.00">&#45;</text>
<text text-anchor="start" x="260" y="-73.5" font-family="Helvetica,sans-Serif" font-size="10.00">void RegisterBoss_QueenSlime()</text>
<text text-anchor="start" x="249.5" y="-58.5" font-family="Helvetica,sans-Serif" font-size="10.00">&#45;</text>
<text text-anchor="start" x="260" y="-58.5" font-family="Helvetica,sans-Serif" font-size="10.00">void RegisterBoss_Hallow</text>
<text text-anchor="start" x="260" y="-47.5" font-family="Helvetica,sans-Serif" font-size="10.00">Boss()</text>
<text text-anchor="start" x="249.5" y="-32.5" font-family="Helvetica,sans-Serif" font-size="10.00">&#45;</text>
<text text-anchor="start" x="260" y="-32.5" font-family="Helvetica,sans-Serif" font-size="10.00">void RegisterBoss_Pumpkin</text>
<text text-anchor="start" x="260" y="-21.5" font-family="Helvetica,sans-Serif" font-size="10.00">Moon()</text>
<text text-anchor="start" x="260" y="-6.5" font-family="Helvetica,sans-Serif" font-size="10.00">and 32 more...</text>
<polygon fill="#666666" stroke="#666666" points="243,-658.5 243,-658.5 426,-658.5 426,-658.5 243,-658.5"/>
<polygon fill="#666666" stroke="#666666" points="243,-643.5 243,-643.5 426,-643.5 426,-643.5 243,-643.5"/>
<polygon fill="none" stroke="#666666" points="242.5,0 242.5,-687 425.5,-687 425.5,0 242.5,0"/>
</a>
</g>
</g>
<!-- Node2 -->
<g id="Node000002" class="node">
<title>Node2</title>
<g id="a_Node000002"><a xlink:title=" ">
<polygon fill="white" stroke="transparent" points="168,-799.5 0,-799.5 0,-739.5 168,-739.5 168,-799.5"/>
<text text-anchor="start" x="5" y="-787.5" font-family="Helvetica,sans-Serif" font-size="10.00">List&lt; Terraria.GameContent.</text>
<text text-anchor="start" x="5" y="-776.5" font-family="Helvetica,sans-Serif" font-size="10.00">ItemDropRules.IItemDropRule &gt;</text>
<text text-anchor="start" x="82" y="-761.5" font-family="Helvetica,sans-Serif" font-size="10.00"> </text>
<text text-anchor="start" x="82" y="-746.5" font-family="Helvetica,sans-Serif" font-size="10.00"> </text>
<polygon fill="#666666" stroke="#666666" points="0,-771.5 0,-771.5 168,-771.5 168,-771.5 0,-771.5"/>
<polygon fill="#666666" stroke="#666666" points="0,-756.5 0,-756.5 168,-756.5 168,-756.5 0,-756.5"/>
<polygon fill="none" stroke="#666666" points="0,-739.5 0,-799.5 168,-799.5 168,-739.5 0,-739.5"/>
</a>
</g>
</g>
<!-- Node2&#45;&gt;Node1 -->
<g id="edge1_Node000001_Node000002" class="edge">
<title>Node2&#45;&gt;Node1</title>
<g id="a_edge1_Node000001_Node000002"><a xlink:title=" ">
<path fill="none" stroke="#63b8ff" d="M101.18,-739.36C128.96,-692.25 185.71,-596 236.23,-510.32"/>
<polygon fill="none" stroke="#63b8ff" points="236.26,-510.26 235.86,-503.06 242.36,-499.93 242.75,-507.13 236.26,-510.26"/>
</a>
</g>
<text text-anchor="middle" x="159" y="-708" font-family="Helvetica,sans-Serif" font-size="10.00" fill="grey"> &#45;_globalEntries</text>
</g>
<!-- Node3 -->
<g id="Node000003" class="node">
<title>Node3</title>
<g id="a_Node000003"><a xlink:title=" ">
<polygon fill="white" stroke="transparent" points="343.5,-805 186.5,-805 186.5,-734 343.5,-734 343.5,-805"/>
<text text-anchor="start" x="192" y="-792.5" font-family="Helvetica,sans-Serif" font-size="10.00">Dictionary&lt; int, List</text>
<text text-anchor="start" x="192" y="-781.5" font-family="Helvetica,sans-Serif" font-size="10.00">&lt; Terraria.GameContent.Item</text>
<text text-anchor="start" x="192" y="-770.5" font-family="Helvetica,sans-Serif" font-size="10.00">DropRules.IItemDropRule &gt; &gt;</text>
<text text-anchor="start" x="263.5" y="-755.5" font-family="Helvetica,sans-Serif" font-size="10.00"> </text>
<text text-anchor="start" x="263.5" y="-740.5" font-family="Helvetica,sans-Serif" font-size="10.00"> </text>
<polygon fill="#666666" stroke="#666666" points="187,-765.5 187,-765.5 344,-765.5 344,-765.5 187,-765.5"/>
<polygon fill="#666666" stroke="#666666" points="187,-750.5 187,-750.5 344,-750.5 344,-750.5 187,-750.5"/>
<polygon fill="none" stroke="#666666" points="186.5,-734 186.5,-805 343.5,-805 343.5,-734 186.5,-734"/>
</a>
</g>
</g>
<!-- Node3&#45;&gt;Node1 -->
<g id="edge2_Node000001_Node000003" class="edge">
<title>Node3&#45;&gt;Node1</title>
<g id="a_edge2_Node000001_Node000003"><a xlink:title=" ">
<path fill="none" stroke="#63b8ff" d="M270.65,-733.8C272.26,-723.86 274.18,-712.12 276.31,-699.02"/>
<polygon fill="none" stroke="#63b8ff" points="276.31,-699.02 273.32,-692.46 278.23,-687.18 281.22,-693.74 276.31,-699.02"/>
</a>
</g>
<text text-anchor="middle" x="327" y="-708" font-family="Helvetica,sans-Serif" font-size="10.00" fill="grey"> &#45;_entriesByNpcNetId</text>
</g>
<!-- Node4 -->
<g id="Node000004" class="node">
<title>Node4</title>
<g id="a_Node000004"><a xlink:title=" ">
<polygon fill="white" stroke="transparent" points="470,-799.5 362,-799.5 362,-739.5 470,-739.5 470,-799.5"/>
<text text-anchor="start" x="367" y="-787.5" font-family="Helvetica,sans-Serif" font-size="10.00">Dictionary&lt; int, List</text>
<text text-anchor="start" x="392.5" y="-776.5" font-family="Helvetica,sans-Serif" font-size="10.00">&lt; int &gt; &gt;</text>
<text text-anchor="start" x="414" y="-761.5" font-family="Helvetica,sans-Serif" font-size="10.00"> </text>
<text text-anchor="start" x="414" y="-746.5" font-family="Helvetica,sans-Serif" font-size="10.00"> </text>
<polygon fill="#666666" stroke="#666666" points="362,-771.5 362,-771.5 470,-771.5 470,-771.5 362,-771.5"/>
<polygon fill="#666666" stroke="#666666" points="362,-756.5 362,-756.5 470,-756.5 470,-756.5 362,-756.5"/>
<polygon fill="none" stroke="#666666" points="362,-739.5 362,-799.5 470,-799.5 470,-739.5 362,-739.5"/>
</a>
</g>
</g>
<!-- Node4&#45;&gt;Node1 -->
<g id="edge3_Node000001_Node000004" class="edge">
<title>Node4&#45;&gt;Node1</title>
<g id="a_edge3_Node000001_Node000004"><a xlink:title=" ">
<path fill="none" stroke="#63b8ff" d="M409.8,-739.36C408.21,-731.76 406.52,-723.58 405,-716 403.87,-710.36 402.74,-704.67 401.6,-698.95"/>
<polygon fill="none" stroke="#63b8ff" points="401.59,-698.91 396.5,-693.8 399.25,-687.14 404.34,-692.25 401.59,-698.91"/>
</a>
</g>
<text text-anchor="middle" x="453.5" y="-708" font-family="Helvetica,sans-Serif" font-size="10.00" fill="grey"> &#45;_npcNetIdsByType</text>
</g>
<!-- Node5 -->
<g id="Node000005" class="node">
<title>Node5</title>
<g id="a_Node000005"><a xlink:title=" ">
<polygon fill="white" stroke="transparent" points="535.5,-794 512.5,-794 512.5,-745 535.5,-745 535.5,-794"/>
<text text-anchor="start" x="518" y="-781.5" font-family="Helvetica,sans-Serif" font-size="10.00">int</text>
<text text-anchor="start" x="522.5" y="-766.5" font-family="Helvetica,sans-Serif" font-size="10.00"> </text>
<text text-anchor="start" x="522.5" y="-751.5" font-family="Helvetica,sans-Serif" font-size="10.00"> </text>
<polygon fill="#666666" stroke="#666666" points="513,-776.5 513,-776.5 536,-776.5 536,-776.5 513,-776.5"/>
<polygon fill="#666666" stroke="#666666" points="513,-761.5 513,-761.5 536,-761.5 536,-761.5 513,-761.5"/>
<polygon fill="none" stroke="#666666" points="512.5,-745 512.5,-794 535.5,-794 535.5,-745 512.5,-745"/>
</a>
</g>
</g>
<!-- Node5&#45;&gt;Node1 -->
<g id="edge4_Node000001_Node000005" class="edge">
<title>Node5&#45;&gt;Node1</title>
<g id="a_edge4_Node000001_Node000005"><a xlink:title=" ">
<path fill="none" stroke="#63b8ff" d="M516.42,-744.76C512.42,-732.74 507.26,-717.98 502,-705 480.4,-651.67 455.07,-594.87 430.71,-542.5"/>
<polygon fill="none" stroke="#63b8ff" points="430.61,-542.27 424.45,-538.53 425.53,-531.4 431.7,-535.14 430.61,-542.27"/>
</a>
</g>
<text text-anchor="middle" x="564" y="-708" font-family="Helvetica,sans-Serif" font-size="10.00" fill="grey"> &#45;_masterModeDropRng</text>
</g>
</g>
</svg>

<g id="navigator" transform="translate(0 0)" fill="#404254">
  <rect fill="#f2f5e9" fill-opacity="0.5" stroke="#606060" stroke-width=".5" x="0" y="0" width="60" height="60"/>
  <use id="zoomplus" xlink:href="#zoomPlus" x="17" y="9" onmousedown="handleZoom(evt,'in')"/>
  <use id="zoomminus" xlink:href="#zoomMin" x="42" y="9" onmousedown="handleZoom(evt,'out')"/>
  <use id="reset" xlink:href="#resetDef" x="30" y="36" onmousedown="handleReset()"/>
   <use id="arrowup" xlink:href="#arrowUp" x="0" y="0" onmousedown="handlePan(0,-1)"/>
  <use id="arrowright" xlink:href="#arrowRight" x="0" y="0" onmousedown="handlePan(1,0)"/>
  <use id="arrowdown" xlink:href="#arrowDown" x="0" y="0" onmousedown="handlePan(0,1)"/>
  <use id="arrowleft" xlink:href="#arrowLeft" x="0" y="0" onmousedown="handlePan(-1,0)"/>
</g>
<svg viewBox="0 0 15 15" width="100%" height="30px" preserveAspectRatio="xMaxYMin meet">
 <g id="arrow_out" transform="scale(0.3 0.3)">
  <a xlink:href="classTerraria_1_1GameContent_1_1ItemDropRules_1_1ItemDropDatabase__coll__graph_org.svg" target="_base">
   <rect id="button" ry="5" rx="5" y="6" x="6" height="38" width="38"
        fill="#f2f5e9" fill-opacity="0.5" stroke="#606060" stroke-width="1.0"/>
   <path id="arrow"
     d="M 11.500037,31.436501 C 11.940474,20.09759 22.043105,11.32322 32.158766,21.979434 L 37.068811,17.246167 C 37.068811,17.246167 37.088388,32 37.088388,32 L 22.160133,31.978069 C 22.160133,31.978069 26.997745,27.140456 26.997745,27.140456 C 18.528582,18.264221 13.291696,25.230495 11.500037,31.436501 z"
     style="fill:#404040;"/>
  </a>
 </g>
</svg>

<style type='text/css'>
<![CDATA[
[data-mouse-over-selected='false'] { opacity: 0.7; }
[data-mouse-over-selected='true']  { opacity: 1.0; }
]]>
</style>
<script type="application/ecmascript"><![CDATA[
document.addEventListener('DOMContentLoaded', (event) => {
  highlightEdges();
  highlightAdjacentNodes();
});
]]></script>
</svg>
