<?xml version="1.0" encoding="UTF-8" standalone="no"?>
<!DOCTYPE svg PUBLIC "-//W3C//DTD SVG 1.1//EN"
 "http://www.w3.org/Graphics/SVG/1.1/DTD/svg11.dtd">
<!-- Generated by graphviz version 2.43.0 (0)
 -->
<!-- Title: System.Runtime.AmbiguousImplementationException Pages: 1 -->
<svg width="241pt" height="249pt"
 viewBox="0.00 0.00 241.00 249.00" xmlns="http://www.w3.org/2000/svg" xmlns:xlink="http://www.w3.org/1999/xlink">
<g id="graph0" class="graph" transform="scale(1 1) rotate(0) translate(4 245)">
<title>System.Runtime.AmbiguousImplementationException</title>
<!-- Node1 -->
<g id="Node000001" class="node">
<title>Node1</title>
<g id="a_Node000001"><a xlink:title=" ">
<polygon fill="#999999" stroke="transparent" points="233,-156 0,-156 0,0 233,0 233,-156"/>
<text text-anchor="start" x="47.5" y="-144" font-family="Helvetica,sans-Serif" font-size="10.00">System.Runtime.Ambiguous</text>
<text text-anchor="start" x="53.5" y="-133" font-family="Helvetica,sans-Serif" font-size="10.00">ImplementationException</text>
<text text-anchor="start" x="115" y="-118" font-family="Helvetica,sans-Serif" font-size="10.00"> </text>
<text text-anchor="start" x="4.5" y="-103" font-family="Helvetica,sans-Serif" font-size="10.00">+</text>
<text text-anchor="start" x="17.5" y="-103" font-family="Helvetica,sans-Serif" font-size="10.00">AmbiguousImplementation</text>
<text text-anchor="start" x="17.5" y="-92" font-family="Helvetica,sans-Serif" font-size="10.00">Exception()</text>
<text text-anchor="start" x="4.5" y="-77" font-family="Helvetica,sans-Serif" font-size="10.00">+</text>
<text text-anchor="start" x="17.5" y="-77" font-family="Helvetica,sans-Serif" font-size="10.00">AmbiguousImplementation</text>
<text text-anchor="start" x="17.5" y="-66" font-family="Helvetica,sans-Serif" font-size="10.00">Exception(string message)</text>
<text text-anchor="start" x="7" y="-51" font-family="Helvetica,sans-Serif" font-size="10.00">&#45;</text>
<text text-anchor="start" x="17.5" y="-51" font-family="Helvetica,sans-Serif" font-size="10.00">AmbiguousImplementation</text>
<text text-anchor="start" x="17.5" y="-40" font-family="Helvetica,sans-Serif" font-size="10.00">Exception(global::System.Runtime.</text>
<text text-anchor="start" x="17.5" y="-29" font-family="Helvetica,sans-Serif" font-size="10.00">Serialization.SerializationInfo</text>
<text text-anchor="start" x="17.5" y="-18" font-family="Helvetica,sans-Serif" font-size="10.00"> info, global::System.Runtime.Serialization.</text>
<text text-anchor="start" x="17.5" y="-7" font-family="Helvetica,sans-Serif" font-size="10.00">StreamingContext context)</text>
<polygon fill="#666666" stroke="#666666" points="0.5,-128 0.5,-128 233.5,-128 233.5,-128 0.5,-128"/>
<polygon fill="#666666" stroke="#666666" points="0.5,-113 0.5,-113 233.5,-113 233.5,-113 0.5,-113"/>
<polygon fill="none" stroke="#666666" points="0,0 0,-156 233,-156 233,0 0,0"/>
</a>
</g>
</g>
<!-- Node2 -->
<g id="Node000002" class="node">
<title>Node2</title>
<g id="a_Node000002"><a xlink:title=" ">
<polygon fill="white" stroke="transparent" points="182,-241 51,-241 51,-192 182,-192 182,-241"/>
<text text-anchor="start" x="56.5" y="-228.5" font-family="Helvetica,sans-Serif" font-size="10.00">global::SystemException</text>
<text text-anchor="start" x="115" y="-213.5" font-family="Helvetica,sans-Serif" font-size="10.00"> </text>
<text text-anchor="start" x="115" y="-198.5" font-family="Helvetica,sans-Serif" font-size="10.00"> </text>
<polygon fill="#666666" stroke="#666666" points="51.5,-223.5 51.5,-223.5 182.5,-223.5 182.5,-223.5 51.5,-223.5"/>
<polygon fill="#666666" stroke="#666666" points="51.5,-208.5 51.5,-208.5 182.5,-208.5 182.5,-208.5 51.5,-208.5"/>
<polygon fill="none" stroke="#666666" points="51,-192 51,-241 182,-241 182,-192 51,-192"/>
</a>
</g>
</g>
<!-- Node2&#45;&gt;Node1 -->
<g id="edge1_Node000001_Node000002" class="edge">
<title>Node2&#45;&gt;Node1</title>
<g id="a_edge1_Node000001_Node000002"><a xlink:title=" ">
<path fill="none" stroke="#63b8ff" d="M116.5,-181.58C116.5,-173.72 116.5,-165.04 116.5,-156.16"/>
<polygon fill="none" stroke="#63b8ff" points="113,-181.72 116.5,-191.72 120,-181.72 113,-181.72"/>
</a>
</g>
</g>
</g>
</svg>
