<?xml version="1.0" encoding="UTF-8" standalone="no"?>
<!DOCTYPE svg PUBLIC "-//W3C//DTD SVG 1.1//EN"
 "http://www.w3.org/Graphics/SVG/1.1/DTD/svg11.dtd">
<!-- Generated by graphviz version 2.43.0 (0)
 -->
<!-- Title: Alert Pages: 1 -->
<svg width="228pt" height="1092pt"
 viewBox="0.00 0.00 228.00 1092.00" xmlns="http://www.w3.org/2000/svg" xmlns:xlink="http://www.w3.org/1999/xlink">
<g id="graph0" class="graph" transform="scale(1 1) rotate(0) translate(4 1088)">
<title>Alert</title>
<!-- Node1 -->
<g id="Node000001" class="node">
<title>Node1</title>
<g id="a_Node000001"><a xlink:title=" ">
<polygon fill="#999999" stroke="transparent" points="220,-442 0,-442 0,0 220,0 220,-442"/>
<text text-anchor="start" x="98" y="-430" font-family="Helvetica,sans-Serif" font-size="10.00">Alert</text>
<text text-anchor="start" x="4" y="-415" font-family="Helvetica,sans-Serif" font-size="10.00">+</text>
<text text-anchor="start" x="17" y="-415" font-family="Helvetica,sans-Serif" font-size="10.00">Action&lt; int &gt; DismissedWith</text>
<text text-anchor="start" x="17" y="-404" font-family="Helvetica,sans-Serif" font-size="10.00">Button</text>
<text text-anchor="start" x="6.5" y="-389" font-family="Helvetica,sans-Serif" font-size="10.00">&#45;</text>
<text text-anchor="start" x="17" y="-389" font-family="Helvetica,sans-Serif" font-size="10.00">string[] _buttons</text>
<text text-anchor="start" x="6.5" y="-374" font-family="Helvetica,sans-Serif" font-size="10.00">&#45;</text>
<text text-anchor="start" x="17" y="-374" font-family="Helvetica,sans-Serif" font-size="10.00">string _defaultButton</text>
<text text-anchor="start" x="6.5" y="-359" font-family="Helvetica,sans-Serif" font-size="10.00">&#45;</text>
<text text-anchor="start" x="17" y="-359" font-family="Helvetica,sans-Serif" font-size="10.00">GameObject _delayObject</text>
<text text-anchor="start" x="4" y="-344" font-family="Helvetica,sans-Serif" font-size="10.00">+</text>
<text text-anchor="start" x="17" y="-344" font-family="Helvetica,sans-Serif" font-size="10.00">override void Init()</text>
<text text-anchor="start" x="4" y="-329" font-family="Helvetica,sans-Serif" font-size="10.00">+</text>
<text text-anchor="start" x="17" y="-329" font-family="Helvetica,sans-Serif" font-size="10.00">override void Shutdown()</text>
<text text-anchor="start" x="4" y="-314" font-family="Helvetica,sans-Serif" font-size="10.00">+</text>
<text text-anchor="start" x="17" y="-314" font-family="Helvetica,sans-Serif" font-size="10.00">void InternalShowDelayed</text>
<text text-anchor="start" x="17" y="-303" font-family="Helvetica,sans-Serif" font-size="10.00">(AlertShownReason reason,</text>
<text text-anchor="start" x="17" y="-292" font-family="Helvetica,sans-Serif" font-size="10.00"> string title, string message,</text>
<text text-anchor="start" x="17" y="-281" font-family="Helvetica,sans-Serif" font-size="10.00"> string button, string hapticId=&quot;&quot;)</text>
<text text-anchor="start" x="4" y="-266" font-family="Helvetica,sans-Serif" font-size="10.00">+</text>
<text text-anchor="start" x="17" y="-266" font-family="Helvetica,sans-Serif" font-size="10.00">void InternalShowDelayed</text>
<text text-anchor="start" x="17" y="-255" font-family="Helvetica,sans-Serif" font-size="10.00">(AlertShownReason reason,</text>
<text text-anchor="start" x="17" y="-244" font-family="Helvetica,sans-Serif" font-size="10.00"> string title, string message,</text>
<text text-anchor="start" x="17" y="-233" font-family="Helvetica,sans-Serif" font-size="10.00"> string button1, string button2,</text>
<text text-anchor="start" x="17" y="-222" font-family="Helvetica,sans-Serif" font-size="10.00"> string buttonDefault, string hapticId=&quot;&quot;)</text>
<text text-anchor="start" x="4" y="-207" font-family="Helvetica,sans-Serif" font-size="10.00">+</text>
<text text-anchor="start" x="17" y="-207" font-family="Helvetica,sans-Serif" font-size="10.00">void Show(AlertShownReason</text>
<text text-anchor="start" x="17" y="-196" font-family="Helvetica,sans-Serif" font-size="10.00"> reason, string title, string</text>
<text text-anchor="start" x="17" y="-185" font-family="Helvetica,sans-Serif" font-size="10.00"> message, string button, string</text>
<text text-anchor="start" x="17" y="-174" font-family="Helvetica,sans-Serif" font-size="10.00"> hapticId=&quot;&quot;)</text>
<text text-anchor="start" x="4" y="-159" font-family="Helvetica,sans-Serif" font-size="10.00">+</text>
<text text-anchor="start" x="17" y="-159" font-family="Helvetica,sans-Serif" font-size="10.00">void Show(AlertShownReason</text>
<text text-anchor="start" x="17" y="-148" font-family="Helvetica,sans-Serif" font-size="10.00"> reason, string title, string</text>
<text text-anchor="start" x="17" y="-137" font-family="Helvetica,sans-Serif" font-size="10.00"> message, string button1, string</text>
<text text-anchor="start" x="17" y="-126" font-family="Helvetica,sans-Serif" font-size="10.00"> button2, string buttonDefault,</text>
<text text-anchor="start" x="17" y="-115" font-family="Helvetica,sans-Serif" font-size="10.00"> string hapticId=&quot;&quot;)</text>
<text text-anchor="start" x="4" y="-100" font-family="Helvetica,sans-Serif" font-size="10.00">+</text>
<text text-anchor="start" x="17" y="-100" font-family="Helvetica,sans-Serif" font-size="10.00">Alert()</text>
<text text-anchor="start" x="6.5" y="-85" font-family="Helvetica,sans-Serif" font-size="10.00">&#45;</text>
<text text-anchor="start" x="17" y="-85" font-family="Helvetica,sans-Serif" font-size="10.00">void PCDismissCallback</text>
<text text-anchor="start" x="17" y="-74" font-family="Helvetica,sans-Serif" font-size="10.00">(int index)</text>
<text text-anchor="start" x="6.5" y="-59" font-family="Helvetica,sans-Serif" font-size="10.00">&#45;</text>
<text text-anchor="start" x="17" y="-59" font-family="Helvetica,sans-Serif" font-size="10.00">AlertDelayer GetAlertDelay</text>
<text text-anchor="start" x="17" y="-48" font-family="Helvetica,sans-Serif" font-size="10.00">Object()</text>
<text text-anchor="start" x="6.5" y="-33" font-family="Helvetica,sans-Serif" font-size="10.00">&#45;</text>
<text text-anchor="start" x="17" y="-33" font-family="Helvetica,sans-Serif" font-size="10.00">void AlertButtonClicked</text>
<text text-anchor="start" x="17" y="-22" font-family="Helvetica,sans-Serif" font-size="10.00">(string button)</text>
<text text-anchor="start" x="6.5" y="-7" font-family="Helvetica,sans-Serif" font-size="10.00">&#45;</text>
<text text-anchor="start" x="17" y="-7" font-family="Helvetica,sans-Serif" font-size="10.00">void AlertCancelled()</text>
<polygon fill="#666666" stroke="#666666" points="0,-425 0,-425 220,-425 220,-425 0,-425"/>
<polygon fill="#666666" stroke="#666666" points="0,-354 0,-354 15,-354 15,-354 0,-354"/>
<polygon fill="#666666" stroke="#666666" points="15,-354 15,-354 220,-354 220,-354 15,-354"/>
<polygon fill="none" stroke="#666666" points="0,0 0,-442 220,-442 220,0 0,0"/>
</a>
</g>
</g>
<!-- Node2 -->
<g id="Node000002" class="node">
<title>Node2</title>
<g id="a_Node000002"><a xlink:href="../../de/d69/classSingleton.html" target="_top" xlink:title=" ">
<polygon fill="white" stroke="transparent" points="183.5,-715 36.5,-715 36.5,-479 183.5,-479 183.5,-715"/>
<text text-anchor="start" x="64.5" y="-703" font-family="Helvetica,sans-Serif" font-size="10.00">Singleton&lt; Alert &gt;</text>
<text text-anchor="start" x="41" y="-688" font-family="Helvetica,sans-Serif" font-size="10.00">+</text>
<text text-anchor="start" x="54" y="-688" font-family="Helvetica,sans-Serif" font-size="10.00">static T Instance</text>
<text text-anchor="start" x="43.5" y="-673" font-family="Helvetica,sans-Serif" font-size="10.00">&#45;</text>
<text text-anchor="start" x="54" y="-673" font-family="Helvetica,sans-Serif" font-size="10.00">static T _instance</text>
<text text-anchor="start" x="43.5" y="-658" font-family="Helvetica,sans-Serif" font-size="10.00">&#45;</text>
<text text-anchor="start" x="54" y="-658" font-family="Helvetica,sans-Serif" font-size="10.00">static bool _initialised</text>
<text text-anchor="start" x="41" y="-643" font-family="Helvetica,sans-Serif" font-size="10.00">+</text>
<text text-anchor="start" x="54" y="-643" font-family="Helvetica,sans-Serif" font-size="10.00">Singleton()</text>
<text text-anchor="start" x="41" y="-628" font-family="Helvetica,sans-Serif" font-size="10.00">+</text>
<text text-anchor="start" x="54" y="-628" font-family="Helvetica,sans-Serif" font-size="10.00">virtual void Init()</text>
<text text-anchor="start" x="41" y="-613" font-family="Helvetica,sans-Serif" font-size="10.00">+</text>
<text text-anchor="start" x="54" y="-613" font-family="Helvetica,sans-Serif" font-size="10.00">virtual void Shutdown()</text>
<text text-anchor="start" x="41" y="-598" font-family="Helvetica,sans-Serif" font-size="10.00">+</text>
<text text-anchor="start" x="54" y="-598" font-family="Helvetica,sans-Serif" font-size="10.00">static void Create()</text>
<text text-anchor="start" x="41" y="-583" font-family="Helvetica,sans-Serif" font-size="10.00">+</text>
<text text-anchor="start" x="54" y="-583" font-family="Helvetica,sans-Serif" font-size="10.00">static void Create</text>
<text text-anchor="start" x="54" y="-572" font-family="Helvetica,sans-Serif" font-size="10.00">(string resourceId)</text>
<text text-anchor="start" x="41" y="-557" font-family="Helvetica,sans-Serif" font-size="10.00">+</text>
<text text-anchor="start" x="54" y="-557" font-family="Helvetica,sans-Serif" font-size="10.00">static void Destroy()</text>
<text text-anchor="start" x="43.5" y="-542" font-family="Helvetica,sans-Serif" font-size="10.00">&#45;</text>
<text text-anchor="start" x="54" y="-542" font-family="Helvetica,sans-Serif" font-size="10.00">void OnEnable()</text>
<text text-anchor="start" x="43.5" y="-527" font-family="Helvetica,sans-Serif" font-size="10.00">&#45;</text>
<text text-anchor="start" x="54" y="-527" font-family="Helvetica,sans-Serif" font-size="10.00">void OnDisable()</text>
<text text-anchor="start" x="43.5" y="-512" font-family="Helvetica,sans-Serif" font-size="10.00">&#45;</text>
<text text-anchor="start" x="54" y="-512" font-family="Helvetica,sans-Serif" font-size="10.00">static void CreateOnMain</text>
<text text-anchor="start" x="54" y="-501" font-family="Helvetica,sans-Serif" font-size="10.00">Thread(object resourceId)</text>
<text text-anchor="start" x="43.5" y="-486" font-family="Helvetica,sans-Serif" font-size="10.00">&#45;</text>
<text text-anchor="start" x="54" y="-486" font-family="Helvetica,sans-Serif" font-size="10.00">static void Cleanup()</text>
<polygon fill="#666666" stroke="#666666" points="37,-698 37,-698 184,-698 184,-698 37,-698"/>
<polygon fill="#666666" stroke="#666666" points="37,-653 37,-653 52,-653 52,-653 37,-653"/>
<polygon fill="#666666" stroke="#666666" points="52,-653 52,-653 184,-653 184,-653 52,-653"/>
<polygon fill="none" stroke="#666666" points="36.5,-479 36.5,-715 183.5,-715 183.5,-479 36.5,-479"/>
</a>
</g>
</g>
<!-- Node2&#45;&gt;Node1 -->
<g id="edge1_Node000001_Node000002" class="edge">
<title>Node2&#45;&gt;Node1</title>
<g id="a_edge1_Node000001_Node000002"><a xlink:title=" ">
<path fill="none" stroke="#63b8ff" d="M110,-468.81C110,-460.1 110,-451.19 110,-442.18"/>
<polygon fill="none" stroke="#63b8ff" points="106.5,-468.95 110,-478.95 113.5,-468.95 106.5,-468.95"/>
</a>
</g>
</g>
<!-- Node3 -->
<g id="Node000003" class="node">
<title>Node3</title>
<g id="a_Node000003"><a xlink:href="../../de/d69/classSingleton.html" target="_top" xlink:title=" ">
<polygon fill="white" stroke="transparent" points="183.5,-998 36.5,-998 36.5,-762 183.5,-762 183.5,-998"/>
<text text-anchor="start" x="73" y="-986" font-family="Helvetica,sans-Serif" font-size="10.00">Singleton&lt; T &gt;</text>
<text text-anchor="start" x="41" y="-971" font-family="Helvetica,sans-Serif" font-size="10.00">+</text>
<text text-anchor="start" x="54" y="-971" font-family="Helvetica,sans-Serif" font-size="10.00">static T Instance</text>
<text text-anchor="start" x="43.5" y="-956" font-family="Helvetica,sans-Serif" font-size="10.00">&#45;</text>
<text text-anchor="start" x="54" y="-956" font-family="Helvetica,sans-Serif" font-size="10.00">static T _instance</text>
<text text-anchor="start" x="43.5" y="-941" font-family="Helvetica,sans-Serif" font-size="10.00">&#45;</text>
<text text-anchor="start" x="54" y="-941" font-family="Helvetica,sans-Serif" font-size="10.00">static bool _initialised</text>
<text text-anchor="start" x="41" y="-926" font-family="Helvetica,sans-Serif" font-size="10.00">+</text>
<text text-anchor="start" x="54" y="-926" font-family="Helvetica,sans-Serif" font-size="10.00">Singleton()</text>
<text text-anchor="start" x="41" y="-911" font-family="Helvetica,sans-Serif" font-size="10.00">+</text>
<text text-anchor="start" x="54" y="-911" font-family="Helvetica,sans-Serif" font-size="10.00">virtual void Init()</text>
<text text-anchor="start" x="41" y="-896" font-family="Helvetica,sans-Serif" font-size="10.00">+</text>
<text text-anchor="start" x="54" y="-896" font-family="Helvetica,sans-Serif" font-size="10.00">virtual void Shutdown()</text>
<text text-anchor="start" x="41" y="-881" font-family="Helvetica,sans-Serif" font-size="10.00">+</text>
<text text-anchor="start" x="54" y="-881" font-family="Helvetica,sans-Serif" font-size="10.00">static void Create()</text>
<text text-anchor="start" x="41" y="-866" font-family="Helvetica,sans-Serif" font-size="10.00">+</text>
<text text-anchor="start" x="54" y="-866" font-family="Helvetica,sans-Serif" font-size="10.00">static void Create</text>
<text text-anchor="start" x="54" y="-855" font-family="Helvetica,sans-Serif" font-size="10.00">(string resourceId)</text>
<text text-anchor="start" x="41" y="-840" font-family="Helvetica,sans-Serif" font-size="10.00">+</text>
<text text-anchor="start" x="54" y="-840" font-family="Helvetica,sans-Serif" font-size="10.00">static void Destroy()</text>
<text text-anchor="start" x="43.5" y="-825" font-family="Helvetica,sans-Serif" font-size="10.00">&#45;</text>
<text text-anchor="start" x="54" y="-825" font-family="Helvetica,sans-Serif" font-size="10.00">void OnEnable()</text>
<text text-anchor="start" x="43.5" y="-810" font-family="Helvetica,sans-Serif" font-size="10.00">&#45;</text>
<text text-anchor="start" x="54" y="-810" font-family="Helvetica,sans-Serif" font-size="10.00">void OnDisable()</text>
<text text-anchor="start" x="43.5" y="-795" font-family="Helvetica,sans-Serif" font-size="10.00">&#45;</text>
<text text-anchor="start" x="54" y="-795" font-family="Helvetica,sans-Serif" font-size="10.00">static void CreateOnMain</text>
<text text-anchor="start" x="54" y="-784" font-family="Helvetica,sans-Serif" font-size="10.00">Thread(object resourceId)</text>
<text text-anchor="start" x="43.5" y="-769" font-family="Helvetica,sans-Serif" font-size="10.00">&#45;</text>
<text text-anchor="start" x="54" y="-769" font-family="Helvetica,sans-Serif" font-size="10.00">static void Cleanup()</text>
<polygon fill="#666666" stroke="#666666" points="37,-981 37,-981 184,-981 184,-981 37,-981"/>
<polygon fill="#666666" stroke="#666666" points="37,-936 37,-936 52,-936 52,-936 37,-936"/>
<polygon fill="#666666" stroke="#666666" points="52,-936 52,-936 184,-936 184,-936 52,-936"/>
<polygon fill="none" stroke="#666666" points="36.5,-762 36.5,-998 183.5,-998 183.5,-762 36.5,-762"/>
</a>
</g>
</g>
<!-- Node3&#45;&gt;Node2 -->
<g id="edge2_Node000002_Node000003" class="edge">
<title>Node3&#45;&gt;Node2</title>
<g id="a_edge2_Node000002_Node000003"><a xlink:title=" ">
<path fill="none" stroke="orange" d="M110,-751.74C110,-739.64 110,-727.4 110,-715.4"/>
<polygon fill="orange" stroke="orange" points="106.5,-751.87 110,-761.87 113.5,-751.87 106.5,-751.87"/>
</a>
</g>
<text text-anchor="middle" x="134.5" y="-736" font-family="Helvetica,sans-Serif" font-size="10.00" fill="grey"> &lt; Alert &gt;</text>
</g>
<!-- Node4 -->
<g id="Node000004" class="node">
<title>Node4</title>
<g id="a_Node000004"><a xlink:href="../../de/de5/classScriptableObject.html" target="_top" xlink:title=" ">
<polygon fill="white" stroke="transparent" points="155.5,-1084 64.5,-1084 64.5,-1035 155.5,-1035 155.5,-1084"/>
<text text-anchor="start" x="70" y="-1071.5" font-family="Helvetica,sans-Serif" font-size="10.00">ScriptableObject</text>
<text text-anchor="start" x="108.5" y="-1056.5" font-family="Helvetica,sans-Serif" font-size="10.00"> </text>
<text text-anchor="start" x="108.5" y="-1041.5" font-family="Helvetica,sans-Serif" font-size="10.00"> </text>
<polygon fill="#666666" stroke="#666666" points="65,-1066.5 65,-1066.5 156,-1066.5 156,-1066.5 65,-1066.5"/>
<polygon fill="#666666" stroke="#666666" points="65,-1051.5 65,-1051.5 156,-1051.5 156,-1051.5 65,-1051.5"/>
<polygon fill="none" stroke="#666666" points="64.5,-1035 64.5,-1084 155.5,-1084 155.5,-1035 64.5,-1035"/>
</a>
</g>
</g>
<!-- Node4&#45;&gt;Node3 -->
<g id="edge3_Node000003_Node000004" class="edge">
<title>Node4&#45;&gt;Node3</title>
<g id="a_edge3_Node000003_Node000004"><a xlink:title=" ">
<path fill="none" stroke="#63b8ff" d="M110,-1024.68C110,-1016.68 110,-1007.71 110,-998.25"/>
<polygon fill="none" stroke="#63b8ff" points="106.5,-1024.93 110,-1034.93 113.5,-1024.93 106.5,-1024.93"/>
</a>
</g>
</g>
</g>
</svg>
