<?xml version="1.0" encoding="UTF-8" standalone="no"?>
<!DOCTYPE svg PUBLIC "-//W3C//DTD SVG 1.1//EN"
 "http://www.w3.org/Graphics/SVG/1.1/DTD/svg11.dtd">
<!-- Generated by graphviz version 2.43.0 (0)
 -->
<!-- Title: System.Xml.Linq.XText Pages: 1 -->
<svg width="577pt" height="1124pt"
 viewBox="0.00 0.00 576.50 1124.00" xmlns="http://www.w3.org/2000/svg" xmlns:xlink="http://www.w3.org/1999/xlink">
<g id="graph0" class="graph" transform="scale(1 1) rotate(0) translate(4 1120)">
<title>System.Xml.Linq.XText</title>
<!-- Node1 -->
<g id="Node000001" class="node">
<title>Node1</title>
<g id="a_Node000001"><a xlink:title=" ">
<polygon fill="#999999" stroke="transparent" points="161,-743 0,-743 0,-586 161,-586 161,-743"/>
<text text-anchor="start" x="24.5" y="-730.5" font-family="Helvetica,sans-Serif" font-size="10.00">System.Xml.Linq.XText</text>
<text text-anchor="start" x="4.5" y="-715.5" font-family="Helvetica,sans-Serif" font-size="10.00">+</text>
<text text-anchor="start" x="17.5" y="-715.5" font-family="Helvetica,sans-Serif" font-size="10.00">override XmlNodeType</text>
<text text-anchor="start" x="17.5" y="-704.5" font-family="Helvetica,sans-Serif" font-size="10.00"> NodeType</text>
<text text-anchor="start" x="4.5" y="-689.5" font-family="Helvetica,sans-Serif" font-size="10.00">+</text>
<text text-anchor="start" x="17.5" y="-689.5" font-family="Helvetica,sans-Serif" font-size="10.00">string Value</text>
<text text-anchor="start" x="4.5" y="-674.5" font-family="Helvetica,sans-Serif" font-size="10.00">+</text>
<text text-anchor="start" x="17.5" y="-674.5" font-family="Helvetica,sans-Serif" font-size="10.00">XText(string value)</text>
<text text-anchor="start" x="4.5" y="-659.5" font-family="Helvetica,sans-Serif" font-size="10.00">+</text>
<text text-anchor="start" x="17.5" y="-659.5" font-family="Helvetica,sans-Serif" font-size="10.00">XText(XText other)</text>
<text text-anchor="start" x="4.5" y="-644.5" font-family="Helvetica,sans-Serif" font-size="10.00">+</text>
<text text-anchor="start" x="17.5" y="-644.5" font-family="Helvetica,sans-Serif" font-size="10.00">override void WriteTo</text>
<text text-anchor="start" x="17.5" y="-633.5" font-family="Helvetica,sans-Serif" font-size="10.00">(XmlWriter writer)</text>
<text text-anchor="start" x="4.5" y="-618.5" font-family="Helvetica,sans-Serif" font-size="10.00">~</text>
<text text-anchor="start" x="17.5" y="-618.5" font-family="Helvetica,sans-Serif" font-size="10.00">override void AppendText</text>
<text text-anchor="start" x="17.5" y="-607.5" font-family="Helvetica,sans-Serif" font-size="10.00">(StringBuilder sb)</text>
<text text-anchor="start" x="4.5" y="-592.5" font-family="Helvetica,sans-Serif" font-size="10.00">~</text>
<text text-anchor="start" x="17.5" y="-592.5" font-family="Helvetica,sans-Serif" font-size="10.00">override XNode CloneNode()</text>
<polygon fill="#666666" stroke="#666666" points="0.5,-725.5 0.5,-725.5 161.5,-725.5 161.5,-725.5 0.5,-725.5"/>
<polygon fill="#666666" stroke="#666666" points="0.5,-684.5 0.5,-684.5 15.5,-684.5 15.5,-684.5 0.5,-684.5"/>
<polygon fill="#666666" stroke="#666666" points="15.5,-684.5 15.5,-684.5 161.5,-684.5 161.5,-684.5 15.5,-684.5"/>
<polygon fill="none" stroke="#666666" points="0,-586 0,-743 161,-743 161,-586 0,-586"/>
</a>
</g>
</g>
<!-- Node2 -->
<g id="Node000002" class="node">
<title>Node2</title>
<g id="a_Node000002"><a xlink:href="../../d3/d03/classSystem_1_1Xml_1_1Linq_1_1XNode.html" target="_top" xlink:title=" ">
<polygon fill="white" stroke="transparent" points="279.5,-1116 137.5,-1116 137.5,-944 279.5,-944 279.5,-1116"/>
<text text-anchor="start" x="192" y="-1104" font-family="Helvetica,sans-Serif" font-size="10.00">XNode</text>
<text text-anchor="start" x="206.5" y="-1089" font-family="Helvetica,sans-Serif" font-size="10.00"> </text>
<text text-anchor="start" x="141.5" y="-1074" font-family="Helvetica,sans-Serif" font-size="10.00">+</text>
<text text-anchor="start" x="154.5" y="-1074" font-family="Helvetica,sans-Serif" font-size="10.00">void Remove()</text>
<text text-anchor="start" x="141.5" y="-1059" font-family="Helvetica,sans-Serif" font-size="10.00">+</text>
<text text-anchor="start" x="154.5" y="-1059" font-family="Helvetica,sans-Serif" font-size="10.00">override string ToString()</text>
<text text-anchor="start" x="141.5" y="-1044" font-family="Helvetica,sans-Serif" font-size="10.00">+</text>
<text text-anchor="start" x="154.5" y="-1044" font-family="Helvetica,sans-Serif" font-size="10.00">void WriteTo(XmlWriter</text>
<text text-anchor="start" x="154.5" y="-1033" font-family="Helvetica,sans-Serif" font-size="10.00"> writer)</text>
<text text-anchor="start" x="141.5" y="-1018" font-family="Helvetica,sans-Serif" font-size="10.00">~</text>
<text text-anchor="start" x="154.5" y="-1018" font-family="Helvetica,sans-Serif" font-size="10.00">XNode()</text>
<text text-anchor="start" x="141.5" y="-1003" font-family="Helvetica,sans-Serif" font-size="10.00">~</text>
<text text-anchor="start" x="154.5" y="-1003" font-family="Helvetica,sans-Serif" font-size="10.00">virtual void AppendText</text>
<text text-anchor="start" x="154.5" y="-992" font-family="Helvetica,sans-Serif" font-size="10.00">(StringBuilder sb)</text>
<text text-anchor="start" x="141.5" y="-977" font-family="Helvetica,sans-Serif" font-size="10.00">~</text>
<text text-anchor="start" x="154.5" y="-977" font-family="Helvetica,sans-Serif" font-size="10.00">XNode CloneNode()</text>
<text text-anchor="start" x="144" y="-962" font-family="Helvetica,sans-Serif" font-size="10.00">&#45;</text>
<text text-anchor="start" x="154.5" y="-962" font-family="Helvetica,sans-Serif" font-size="10.00">string GetXmlString</text>
<text text-anchor="start" x="154.5" y="-951" font-family="Helvetica,sans-Serif" font-size="10.00">(SaveOptions o)</text>
<polygon fill="#666666" stroke="#666666" points="137.5,-1099 137.5,-1099 279.5,-1099 279.5,-1099 137.5,-1099"/>
<polygon fill="#666666" stroke="#666666" points="137.5,-1084 137.5,-1084 279.5,-1084 279.5,-1084 137.5,-1084"/>
<polygon fill="none" stroke="#666666" points="137.5,-944 137.5,-1116 279.5,-1116 279.5,-944 137.5,-944"/>
</a>
</g>
</g>
<!-- Node2&#45;&gt;Node1 -->
<g id="edge1_Node000001_Node000002" class="edge">
<title>Node2&#45;&gt;Node1</title>
<g id="a_edge1_Node000001_Node000002"><a xlink:title=" ">
<path fill="none" stroke="#63b8ff" d="M175.05,-934C154.11,-874.54 127.47,-798.9 107.81,-743.06"/>
<polygon fill="none" stroke="#63b8ff" points="171.87,-935.51 178.49,-943.78 178.47,-933.18 171.87,-935.51"/>
</a>
</g>
</g>
<!-- Node4 -->
<g id="Node000004" class="node">
<title>Node4</title>
<g id="a_Node000004"><a xlink:href="../../d1/d96/classSystem_1_1Xml_1_1Linq_1_1XContainer.html" target="_top" xlink:title=" ">
<polygon fill="white" stroke="transparent" points="548,-853 373,-853 373,-476 548,-476 548,-853"/>
<text text-anchor="start" x="391.5" y="-840.5" font-family="Helvetica,sans-Serif" font-size="10.00">System.Xml.Linq.XContainer</text>
<text text-anchor="start" x="377.5" y="-825.5" font-family="Helvetica,sans-Serif" font-size="10.00">+</text>
<text text-anchor="start" x="390.5" y="-825.5" font-family="Helvetica,sans-Serif" font-size="10.00">XNode LastNode</text>
<text text-anchor="start" x="377.5" y="-810.5" font-family="Helvetica,sans-Serif" font-size="10.00">+</text>
<text text-anchor="start" x="390.5" y="-810.5" font-family="Helvetica,sans-Serif" font-size="10.00">class&lt; Nodes &gt; IEnumerator</text>
<text text-anchor="start" x="377.5" y="-795.5" font-family="Helvetica,sans-Serif" font-size="10.00">+</text>
<text text-anchor="start" x="390.5" y="-795.5" font-family="Helvetica,sans-Serif" font-size="10.00">void Add(object content)</text>
<text text-anchor="start" x="377.5" y="-780.5" font-family="Helvetica,sans-Serif" font-size="10.00">+</text>
<text text-anchor="start" x="390.5" y="-780.5" font-family="Helvetica,sans-Serif" font-size="10.00">IEnumerable&lt; XNode</text>
<text text-anchor="start" x="390.5" y="-769.5" font-family="Helvetica,sans-Serif" font-size="10.00"> &gt; Nodes()</text>
<text text-anchor="start" x="377.5" y="-754.5" font-family="Helvetica,sans-Serif" font-size="10.00">+</text>
<text text-anchor="start" x="390.5" y="-754.5" font-family="Helvetica,sans-Serif" font-size="10.00">void RemoveNodes()</text>
<text text-anchor="start" x="377.5" y="-739.5" font-family="Helvetica,sans-Serif" font-size="10.00">~</text>
<text text-anchor="start" x="390.5" y="-739.5" font-family="Helvetica,sans-Serif" font-size="10.00">XContainer()</text>
<text text-anchor="start" x="377.5" y="-724.5" font-family="Helvetica,sans-Serif" font-size="10.00">~</text>
<text text-anchor="start" x="390.5" y="-724.5" font-family="Helvetica,sans-Serif" font-size="10.00">XContainer(XContainer</text>
<text text-anchor="start" x="390.5" y="-713.5" font-family="Helvetica,sans-Serif" font-size="10.00"> other)</text>
<text text-anchor="start" x="377.5" y="-698.5" font-family="Helvetica,sans-Serif" font-size="10.00">~</text>
<text text-anchor="start" x="390.5" y="-698.5" font-family="Helvetica,sans-Serif" font-size="10.00">virtual void AddAttribute</text>
<text text-anchor="start" x="390.5" y="-687.5" font-family="Helvetica,sans-Serif" font-size="10.00">(XAttribute a)</text>
<text text-anchor="start" x="377.5" y="-672.5" font-family="Helvetica,sans-Serif" font-size="10.00">~</text>
<text text-anchor="start" x="390.5" y="-672.5" font-family="Helvetica,sans-Serif" font-size="10.00">virtual void AddAttribute</text>
<text text-anchor="start" x="390.5" y="-661.5" font-family="Helvetica,sans-Serif" font-size="10.00">SkipNotify(XAttribute a)</text>
<text text-anchor="start" x="377.5" y="-646.5" font-family="Helvetica,sans-Serif" font-size="10.00">~</text>
<text text-anchor="start" x="390.5" y="-646.5" font-family="Helvetica,sans-Serif" font-size="10.00">void AddContentSkipNotify</text>
<text text-anchor="start" x="390.5" y="-635.5" font-family="Helvetica,sans-Serif" font-size="10.00">(object content)</text>
<text text-anchor="start" x="377.5" y="-620.5" font-family="Helvetica,sans-Serif" font-size="10.00">~</text>
<text text-anchor="start" x="390.5" y="-620.5" font-family="Helvetica,sans-Serif" font-size="10.00">void AddNode(XNode n)</text>
<text text-anchor="start" x="377.5" y="-605.5" font-family="Helvetica,sans-Serif" font-size="10.00">~</text>
<text text-anchor="start" x="390.5" y="-605.5" font-family="Helvetica,sans-Serif" font-size="10.00">void AddNodeSkipNotify</text>
<text text-anchor="start" x="390.5" y="-594.5" font-family="Helvetica,sans-Serif" font-size="10.00">(XNode n)</text>
<text text-anchor="start" x="377.5" y="-579.5" font-family="Helvetica,sans-Serif" font-size="10.00">~</text>
<text text-anchor="start" x="390.5" y="-579.5" font-family="Helvetica,sans-Serif" font-size="10.00">void AddString(string s)</text>
<text text-anchor="start" x="377.5" y="-564.5" font-family="Helvetica,sans-Serif" font-size="10.00">~</text>
<text text-anchor="start" x="390.5" y="-564.5" font-family="Helvetica,sans-Serif" font-size="10.00">void AddStringSkipNotify</text>
<text text-anchor="start" x="390.5" y="-553.5" font-family="Helvetica,sans-Serif" font-size="10.00">(string s)</text>
<text text-anchor="start" x="377.5" y="-538.5" font-family="Helvetica,sans-Serif" font-size="10.00">~</text>
<text text-anchor="start" x="390.5" y="-538.5" font-family="Helvetica,sans-Serif" font-size="10.00">void AppendNode(XNode n)</text>
<text text-anchor="start" x="390.5" y="-523.5" font-family="Helvetica,sans-Serif" font-size="10.00">and 7 more...</text>
<text text-anchor="start" x="377.5" y="-508.5" font-family="Helvetica,sans-Serif" font-size="10.00">~</text>
<text text-anchor="start" x="390.5" y="-508.5" font-family="Helvetica,sans-Serif" font-size="10.00">static string GetStringValue</text>
<text text-anchor="start" x="390.5" y="-497.5" font-family="Helvetica,sans-Serif" font-size="10.00">(object value)</text>
<text text-anchor="start" x="380" y="-482.5" font-family="Helvetica,sans-Serif" font-size="10.00">&#45;</text>
<text text-anchor="start" x="390.5" y="-482.5" font-family="Helvetica,sans-Serif" font-size="10.00">void RemoveNodesSkipNotify()</text>
<polygon fill="#666666" stroke="#666666" points="373.5,-835.5 373.5,-835.5 548.5,-835.5 548.5,-835.5 373.5,-835.5"/>
<polygon fill="#666666" stroke="#666666" points="373.5,-805.5 373.5,-805.5 388.5,-805.5 388.5,-805.5 373.5,-805.5"/>
<polygon fill="#666666" stroke="#666666" points="388.5,-805.5 388.5,-805.5 548.5,-805.5 548.5,-805.5 388.5,-805.5"/>
<polygon fill="none" stroke="#666666" points="373,-476 373,-853 548,-853 548,-476 373,-476"/>
</a>
</g>
</g>
<!-- Node2&#45;&gt;Node4 -->
<g id="edge4_Node000004_Node000002" class="edge">
<title>Node2&#45;&gt;Node4</title>
<g id="a_edge4_Node000004_Node000002"><a xlink:title=" ">
<path fill="none" stroke="#63b8ff" d="M286.54,-944.67C310.89,-916.51 336.99,-884.3 358.5,-853 363.33,-845.98 368.11,-838.7 372.82,-831.27"/>
<polygon fill="none" stroke="#63b8ff" points="283.65,-942.66 279.72,-952.5 288.92,-947.26 283.65,-942.66"/>
</a>
</g>
</g>
<!-- Node3 -->
<g id="Node000003" class="node">
<title>Node3</title>
<g id="a_Node000003"><a xlink:href="../../da/d14/classSystem_1_1Xml_1_1Linq_1_1XObject.html" target="_top" xlink:title=" ">
<polygon fill="white" stroke="transparent" points="389.5,-429 217.5,-429 217.5,-209 389.5,-209 389.5,-429"/>
<text text-anchor="start" x="284.5" y="-417" font-family="Helvetica,sans-Serif" font-size="10.00">XObject</text>
<text text-anchor="start" x="221.5" y="-402" font-family="Helvetica,sans-Serif" font-size="10.00">+</text>
<text text-anchor="start" x="234.5" y="-402" font-family="Helvetica,sans-Serif" font-size="10.00">XmlNodeType NodeType</text>
<text text-anchor="start" x="221.5" y="-387" font-family="Helvetica,sans-Serif" font-size="10.00">+</text>
<text text-anchor="start" x="234.5" y="-387" font-family="Helvetica,sans-Serif" font-size="10.00">XElement Parent</text>
<text text-anchor="start" x="221.5" y="-372" font-family="Helvetica,sans-Serif" font-size="10.00">+</text>
<text text-anchor="start" x="234.5" y="-372" font-family="Helvetica,sans-Serif" font-size="10.00">T Annotation&lt; T &gt;()</text>
<text text-anchor="start" x="221.5" y="-357" font-family="Helvetica,sans-Serif" font-size="10.00">~</text>
<text text-anchor="start" x="234.5" y="-357" font-family="Helvetica,sans-Serif" font-size="10.00">XObject()</text>
<text text-anchor="start" x="221.5" y="-342" font-family="Helvetica,sans-Serif" font-size="10.00">~</text>
<text text-anchor="start" x="234.5" y="-342" font-family="Helvetica,sans-Serif" font-size="10.00">bool NotifyChanged</text>
<text text-anchor="start" x="234.5" y="-331" font-family="Helvetica,sans-Serif" font-size="10.00">(object sender, XObjectChange</text>
<text text-anchor="start" x="234.5" y="-320" font-family="Helvetica,sans-Serif" font-size="10.00">EventArgs e)</text>
<text text-anchor="start" x="221.5" y="-305" font-family="Helvetica,sans-Serif" font-size="10.00">~</text>
<text text-anchor="start" x="234.5" y="-305" font-family="Helvetica,sans-Serif" font-size="10.00">bool NotifyChanging</text>
<text text-anchor="start" x="234.5" y="-294" font-family="Helvetica,sans-Serif" font-size="10.00">(object sender, XObjectChange</text>
<text text-anchor="start" x="234.5" y="-283" font-family="Helvetica,sans-Serif" font-size="10.00">EventArgs e)</text>
<text text-anchor="start" x="221.5" y="-268" font-family="Helvetica,sans-Serif" font-size="10.00">~</text>
<text text-anchor="start" x="234.5" y="-268" font-family="Helvetica,sans-Serif" font-size="10.00">bool SkipNotify()</text>
<text text-anchor="start" x="221.5" y="-253" font-family="Helvetica,sans-Serif" font-size="10.00">~</text>
<text text-anchor="start" x="234.5" y="-253" font-family="Helvetica,sans-Serif" font-size="10.00">SaveOptions GetSaveOptions</text>
<text text-anchor="start" x="234.5" y="-242" font-family="Helvetica,sans-Serif" font-size="10.00">FromAnnotations()</text>
<text text-anchor="start" x="224" y="-227" font-family="Helvetica,sans-Serif" font-size="10.00">&#45;</text>
<text text-anchor="start" x="234.5" y="-227" font-family="Helvetica,sans-Serif" font-size="10.00">object AnnotationForSealed</text>
<text text-anchor="start" x="234.5" y="-216" font-family="Helvetica,sans-Serif" font-size="10.00">Type(Type type)</text>
<polygon fill="#666666" stroke="#666666" points="217.5,-412 217.5,-412 389.5,-412 389.5,-412 217.5,-412"/>
<polygon fill="#666666" stroke="#666666" points="217.5,-382 217.5,-382 232.5,-382 232.5,-382 217.5,-382"/>
<polygon fill="#666666" stroke="#666666" points="232.5,-382 232.5,-382 389.5,-382 389.5,-382 232.5,-382"/>
<polygon fill="none" stroke="#666666" points="217.5,-209 217.5,-429 389.5,-429 389.5,-209 217.5,-209"/>
</a>
</g>
</g>
<!-- Node3&#45;&gt;Node2 -->
<g id="edge2_Node000002_Node000003" class="edge">
<title>Node3&#45;&gt;Node2</title>
<g id="a_edge2_Node000002_Node000003"><a xlink:title=" ">
<path fill="none" stroke="#63b8ff" d="M285.73,-439.05C283.94,-451.52 282.16,-464.02 280.5,-476 257.54,-641.42 232.83,-835 219.15,-943.68"/>
<polygon fill="none" stroke="#63b8ff" points="289.21,-439.46 287.18,-429.07 282.28,-438.46 289.21,-439.46"/>
</a>
</g>
</g>
<!-- Node7 -->
<g id="Node000007" class="node">
<title>Node7</title>
<g id="a_Node000007"><a xlink:href="../../d3/d03/classSystem_1_1Xml_1_1Linq_1_1XNode.html" target="_top" xlink:title=" ">
<polygon fill="white" stroke="transparent" points="272.5,-172 130.5,-172 130.5,0 272.5,0 272.5,-172"/>
<text text-anchor="start" x="142.5" y="-160" font-family="Helvetica,sans-Serif" font-size="10.00">System.Xml.Linq.XNode</text>
<text text-anchor="start" x="199.5" y="-145" font-family="Helvetica,sans-Serif" font-size="10.00"> </text>
<text text-anchor="start" x="134.5" y="-130" font-family="Helvetica,sans-Serif" font-size="10.00">+</text>
<text text-anchor="start" x="147.5" y="-130" font-family="Helvetica,sans-Serif" font-size="10.00">void Remove()</text>
<text text-anchor="start" x="134.5" y="-115" font-family="Helvetica,sans-Serif" font-size="10.00">+</text>
<text text-anchor="start" x="147.5" y="-115" font-family="Helvetica,sans-Serif" font-size="10.00">override string ToString()</text>
<text text-anchor="start" x="134.5" y="-100" font-family="Helvetica,sans-Serif" font-size="10.00">+</text>
<text text-anchor="start" x="147.5" y="-100" font-family="Helvetica,sans-Serif" font-size="10.00">void WriteTo(XmlWriter</text>
<text text-anchor="start" x="147.5" y="-89" font-family="Helvetica,sans-Serif" font-size="10.00"> writer)</text>
<text text-anchor="start" x="134.5" y="-74" font-family="Helvetica,sans-Serif" font-size="10.00">~</text>
<text text-anchor="start" x="147.5" y="-74" font-family="Helvetica,sans-Serif" font-size="10.00">XNode()</text>
<text text-anchor="start" x="134.5" y="-59" font-family="Helvetica,sans-Serif" font-size="10.00">~</text>
<text text-anchor="start" x="147.5" y="-59" font-family="Helvetica,sans-Serif" font-size="10.00">virtual void AppendText</text>
<text text-anchor="start" x="147.5" y="-48" font-family="Helvetica,sans-Serif" font-size="10.00">(StringBuilder sb)</text>
<text text-anchor="start" x="134.5" y="-33" font-family="Helvetica,sans-Serif" font-size="10.00">~</text>
<text text-anchor="start" x="147.5" y="-33" font-family="Helvetica,sans-Serif" font-size="10.00">XNode CloneNode()</text>
<text text-anchor="start" x="137" y="-18" font-family="Helvetica,sans-Serif" font-size="10.00">&#45;</text>
<text text-anchor="start" x="147.5" y="-18" font-family="Helvetica,sans-Serif" font-size="10.00">string GetXmlString</text>
<text text-anchor="start" x="147.5" y="-7" font-family="Helvetica,sans-Serif" font-size="10.00">(SaveOptions o)</text>
<polygon fill="#666666" stroke="#666666" points="130.5,-155 130.5,-155 272.5,-155 272.5,-155 130.5,-155"/>
<polygon fill="#666666" stroke="#666666" points="130.5,-140 130.5,-140 272.5,-140 272.5,-140 130.5,-140"/>
<polygon fill="none" stroke="#666666" points="130.5,0 130.5,-172 272.5,-172 272.5,0 130.5,0"/>
</a>
</g>
</g>
<!-- Node3&#45;&gt;Node7 -->
<g id="edge9_Node000007_Node000003" class="edge">
<title>Node3&#45;&gt;Node7</title>
<g id="a_edge9_Node000007_Node000003"><a xlink:title=" ">
<path fill="none" stroke="#63b8ff" d="M251.23,-199.63C247.13,-190.33 243.03,-181.06 239.06,-172.05"/>
<polygon fill="none" stroke="#63b8ff" points="248.1,-201.19 255.34,-208.93 254.5,-198.36 248.1,-201.19"/>
</a>
</g>
</g>
<!-- Node4&#45;&gt;Node3 -->
<g id="edge3_Node000003_Node000004" class="edge">
<title>Node4&#45;&gt;Node3</title>
<g id="a_edge3_Node000003_Node000004"><a xlink:title=" ">
<path fill="none" stroke="#63b8ff" d="M374.76,-475.92C369.22,-463.8 363.73,-451.78 358.4,-440.12"/>
<polygon fill="none" stroke="#63b8ff" points="358.33,-439.97 352.2,-436.17 353.34,-429.05 359.48,-432.85 358.33,-439.97"/>
</a>
</g>
<text text-anchor="middle" x="384" y="-450" font-family="Helvetica,sans-Serif" font-size="10.00" fill="grey"> ~parent</text>
</g>
<!-- Node5 -->
<g id="Node000005" class="node">
<title>Node5</title>
<g id="a_Node000005"><a xlink:title=" ">
<polygon fill="white" stroke="transparent" points="359,-1054.5 318,-1054.5 318,-1005.5 359,-1005.5 359,-1054.5"/>
<text text-anchor="start" x="323.5" y="-1042" font-family="Helvetica,sans-Serif" font-size="10.00">object</text>
<text text-anchor="start" x="337" y="-1027" font-family="Helvetica,sans-Serif" font-size="10.00"> </text>
<text text-anchor="start" x="337" y="-1012" font-family="Helvetica,sans-Serif" font-size="10.00"> </text>
<polygon fill="#666666" stroke="#666666" points="318.5,-1037 318.5,-1037 359.5,-1037 359.5,-1037 318.5,-1037"/>
<polygon fill="#666666" stroke="#666666" points="318.5,-1022 318.5,-1022 359.5,-1022 359.5,-1022 318.5,-1022"/>
<polygon fill="none" stroke="#666666" points="318,-1005.5 318,-1054.5 359,-1054.5 359,-1005.5 318,-1005.5"/>
</a>
</g>
</g>
<!-- Node5&#45;&gt;Node3 -->
<g id="edge7_Node000003_Node000005" class="edge">
<title>Node5&#45;&gt;Node3</title>
<g id="a_edge7_Node000003_Node000005"><a xlink:title=" ">
<path fill="none" stroke="#63b8ff" d="M330.64,-1005.44C319.95,-972 301.35,-908.64 294.5,-853 277.22,-712.59 283.78,-549.83 291.88,-441.47"/>
<polygon fill="none" stroke="#63b8ff" points="291.9,-441.15 288.37,-434.86 292.82,-429.18 296.35,-435.47 291.9,-441.15"/>
</a>
</g>
<text text-anchor="middle" x="329.5" y="-662" font-family="Helvetica,sans-Serif" font-size="10.00" fill="grey"> ~annotations</text>
</g>
<!-- Node5&#45;&gt;Node4 -->
<g id="edge5_Node000004_Node000005" class="edge">
<title>Node5&#45;&gt;Node4</title>
<g id="a_edge5_Node000004_Node000005"><a xlink:title=" ">
<path fill="none" stroke="#63b8ff" d="M346.41,-1005.43C356.41,-975.63 374.63,-921.34 393.62,-864.76"/>
<polygon fill="none" stroke="#63b8ff" points="393.74,-864.42 391.85,-857.46 397.55,-853.05 399.44,-860.01 393.74,-864.42"/>
</a>
</g>
<text text-anchor="middle" x="413" y="-896" font-family="Helvetica,sans-Serif" font-size="10.00" fill="grey"> ~content</text>
</g>
<!-- Node6 -->
<g id="Node000006" class="node">
<title>Node6</title>
<g id="a_Node000006"><a xlink:title=" ">
<polygon fill="white" stroke="transparent" points="505,-1054.5 416,-1054.5 416,-1005.5 505,-1005.5 505,-1054.5"/>
<text text-anchor="start" x="421.5" y="-1042" font-family="Helvetica,sans-Serif" font-size="10.00">class&lt; Nodes &gt;</text>
<text text-anchor="start" x="459" y="-1027" font-family="Helvetica,sans-Serif" font-size="10.00"> </text>
<text text-anchor="start" x="459" y="-1012" font-family="Helvetica,sans-Serif" font-size="10.00"> </text>
<polygon fill="#666666" stroke="#666666" points="416.5,-1037 416.5,-1037 505.5,-1037 505.5,-1037 416.5,-1037"/>
<polygon fill="#666666" stroke="#666666" points="416.5,-1022 416.5,-1022 505.5,-1022 505.5,-1022 416.5,-1022"/>
<polygon fill="none" stroke="#666666" points="416,-1005.5 416,-1054.5 505,-1054.5 505,-1005.5 416,-1005.5"/>
</a>
</g>
</g>
<!-- Node6&#45;&gt;Node4 -->
<g id="edge6_Node000004_Node000006" class="edge">
<title>Node6&#45;&gt;Node4</title>
<g id="a_edge6_Node000004_Node000006"><a xlink:title=" ">
<path fill="none" stroke="#63b8ff" d="M460.5,-1005.43C460.5,-975.69 460.5,-921.56 460.5,-865.12"/>
<polygon fill="none" stroke="#63b8ff" points="460.5,-865.05 456.5,-859.05 460.5,-853.05 464.5,-859.05 460.5,-865.05"/>
</a>
</g>
<text text-anchor="middle" x="514.5" y="-918" font-family="Helvetica,sans-Serif" font-size="10.00" fill="grey"> &#45;IDisposable</text>
<text text-anchor="middle" x="514.5" y="-907" font-family="Helvetica,sans-Serif" font-size="10.00" fill="grey">&#45;IEnumerable</text>
<text text-anchor="start" x="460.5" y="-896" font-family="Helvetica,sans-Serif" font-size="10.00" fill="grey">&#45;IEnumerator&lt; XNode</text>
<text text-anchor="middle" x="514.5" y="-885" font-family="Helvetica,sans-Serif" font-size="10.00" fill="grey"> &gt;</text>
<text text-anchor="middle" x="514.5" y="-874" font-family="Helvetica,sans-Serif" font-size="10.00" fill="grey">&#45;d__18</text>
</g>
<!-- Node7&#45;&gt;Node2 -->
<g id="edge8_Node000002_Node000007" class="edge">
<title>Node7&#45;&gt;Node2</title>
<g id="a_edge8_Node000002_Node000007"><a xlink:title=" ">
<path fill="none" stroke="#63b8ff" d="M202.13,-172.06C203.43,-347.08 206.4,-746.56 207.78,-931.6"/>
<polygon fill="none" stroke="#63b8ff" points="207.78,-931.74 211.82,-937.71 207.87,-943.74 203.82,-937.77 207.78,-931.74"/>
</a>
</g>
<text text-anchor="middle" x="221.5" y="-450" font-family="Helvetica,sans-Serif" font-size="10.00" fill="grey"> ~next</text>
</g>
<!-- Node7&#45;&gt;Node7 -->
<g id="edge10_Node000007_Node000007" class="edge">
<title>Node7&#45;&gt;Node7</title>
<g id="a_edge10_Node000007_Node000007"><a xlink:title=" ">
<path fill="none" stroke="#63b8ff" d="M272.73,-103.69C283.33,-100.94 290.5,-95.04 290.5,-86 290.5,-80.63 287.97,-76.37 283.7,-73.22"/>
<polygon fill="none" stroke="#63b8ff" points="283.68,-73.21 276.57,-74.41 272.73,-68.31 279.84,-67.11 283.68,-73.21"/>
</a>
</g>
<text text-anchor="middle" x="307.5" y="-83.5" font-family="Helvetica,sans-Serif" font-size="10.00" fill="grey"> ~next</text>
</g>
<!-- Node8 -->
<g id="Node000008" class="node">
<title>Node8</title>
<g id="a_Node000008"><a xlink:title=" ">
<polygon fill="white" stroke="transparent" points="99.5,-1054.5 61.5,-1054.5 61.5,-1005.5 99.5,-1005.5 99.5,-1054.5"/>
<text text-anchor="start" x="66.5" y="-1042" font-family="Helvetica,sans-Serif" font-size="10.00">string</text>
<text text-anchor="start" x="78.5" y="-1027" font-family="Helvetica,sans-Serif" font-size="10.00"> </text>
<text text-anchor="start" x="78.5" y="-1012" font-family="Helvetica,sans-Serif" font-size="10.00"> </text>
<polygon fill="#666666" stroke="#666666" points="61.5,-1037 61.5,-1037 99.5,-1037 99.5,-1037 61.5,-1037"/>
<polygon fill="#666666" stroke="#666666" points="61.5,-1022 61.5,-1022 99.5,-1022 99.5,-1022 61.5,-1022"/>
<polygon fill="none" stroke="#666666" points="61.5,-1005.5 61.5,-1054.5 99.5,-1054.5 99.5,-1005.5 61.5,-1005.5"/>
</a>
</g>
</g>
<!-- Node8&#45;&gt;Node1 -->
<g id="edge11_Node000001_Node000008" class="edge">
<title>Node8&#45;&gt;Node1</title>
<g id="a_edge11_Node000001_Node000008"><a xlink:title=" ">
<path fill="none" stroke="#63b8ff" d="M80.5,-1005.43C80.5,-955.77 80.5,-838.15 80.5,-755.24"/>
<polygon fill="none" stroke="#63b8ff" points="80.5,-755.01 76.5,-749.01 80.5,-743.01 84.5,-749.01 80.5,-755.01"/>
</a>
</g>
<text text-anchor="middle" x="96" y="-896" font-family="Helvetica,sans-Serif" font-size="10.00" fill="grey"> ~text</text>
</g>
</g>
</svg>
