<?xml version="1.0" encoding="UTF-8" standalone="no"?>
<!DOCTYPE svg PUBLIC "-//W3C//DTD SVG 1.1//EN"
 "http://www.w3.org/Graphics/SVG/1.1/DTD/svg11.dtd">
<!-- Generated by graphviz version 2.43.0 (0)
 -->
<!-- Title: System.ComponentModel.BackgroundWorker Pages: 1 -->
<!--zoomable 1258 -->

<svg id="main" version="1.1" xmlns="http://www.w3.org/2000/svg" xmlns:xlink="http://www.w3.org/1999/xlink" xml:space="preserve" onload="init(evt)">
<style type="text/css"><![CDATA[
.node, .edge {opacity: 0.7;}
.node.selected, .edge.selected {opacity: 1;}
.edge:hover path { stroke: red; }
.edge:hover polygon { stroke: red; fill: red; }
]]></style>

<defs>
  <circle id="rim" cx="0" cy="0" r="7"/>
  <circle id="rim2" cx="0" cy="0" r="3.5"/>
  <g id="zoomPlus">
    <use xlink:href="#rim" fill="#404040"><set attributeName="fill" to="#808080" begin="zoomplus.mouseover" end="zoomplus.mouseout"/></use>
    <path d="M-4,0h8M0,-4v8" fill="none" stroke="white" stroke-width="1.5" pointer-events="none"/>
  </g>
  <g id="zoomMin">
    <use xlink:href="#rim" fill="#404040"><set attributeName="fill" to="#808080" begin="zoomminus.mouseover" end="zoomminus.mouseout"/></use>
    <path d="M-4,0h8" fill="none" stroke="white" stroke-width="1.5" pointer-events="none"/>
  </g>
  <g id="arrowUp" transform="translate(30 24)">
    <use xlink:href="#rim"/>
    <path pointer-events="none" fill="none" stroke="white" stroke-width="1.5" d="M0,-3.0v7 M-2.5,-0.5L0,-3.0L2.5,-0.5"/>
  </g>
  <g id="arrowRight" transform="rotate(90) translate(36 -43)">
    <use xlink:href="#rim"/>
    <path pointer-events="none" fill="none" stroke="white" stroke-width="1.5" d="M0,-3.0v7 M-2.5,-0.5L0,-3.0L2.5,-0.5"/>
  </g>
  <g id="arrowDown" transform="rotate(180) translate(-30 -48)">
    <use xlink:href="#rim"/>
    <path pointer-events="none" fill="none" stroke="white" stroke-width="1.5" d="M0,-3.0v7 M-2.5,-0.5L0,-3.0L2.5,-0.5"/>
  </g>
  <g id="arrowLeft" transform="rotate(270) translate(-36 17)">
    <use xlink:href="#rim"/>
    <path pointer-events="none" fill="none" stroke="white" stroke-width="1.5" d="M0,-3.0v7 M-2.5,-0.5L0,-3.0L2.5,-0.5"/>
  </g>
  <g id="resetDef">
    <use xlink:href="#rim2" fill="#404040"><set attributeName="fill" to="#808080" begin="reset.mouseover" end="reset.mouseout"/></use>
  </g>
</defs>
<script type="application/ecmascript">
var viewWidth = 337;
var viewHeight = 1258;
var sectionId = 'dynsection-0';
</script>
<script type="application/ecmascript" xlink:href="../../svg.min.js"/>
<svg id="graph" class="graph">
<g id="viewport">
<title>System.ComponentModel.BackgroundWorker</title>
<!-- Node1 -->
<g id="Node000001" class="node">
<title>Node1</title>
<g id="a_Node000001"><a xlink:title=" ">
<polygon fill="#999999" stroke="transparent" points="328.5,-648 131.5,-648 131.5,0 328.5,0 328.5,-648"/>
<text text-anchor="start" x="137" y="-636" font-family="Helvetica,sans-Serif" font-size="10.00">System.ComponentModel.Background</text>
<text text-anchor="start" x="213.5" y="-625" font-family="Helvetica,sans-Serif" font-size="10.00">Worker</text>
<text text-anchor="start" x="137" y="-610" font-family="Helvetica,sans-Serif" font-size="10.00">+</text>
<text text-anchor="start" x="151" y="-610" font-family="Helvetica,sans-Serif" font-size="10.00">bool CancellationPending</text>
<text text-anchor="start" x="137" y="-595" font-family="Helvetica,sans-Serif" font-size="10.00">+</text>
<text text-anchor="start" x="151" y="-595" font-family="Helvetica,sans-Serif" font-size="10.00">DoWorkEventHandler</text>
<text text-anchor="start" x="151" y="-584" font-family="Helvetica,sans-Serif" font-size="10.00"> DoWork</text>
<text text-anchor="start" x="137" y="-569" font-family="Helvetica,sans-Serif" font-size="10.00">+</text>
<text text-anchor="start" x="151" y="-569" font-family="Helvetica,sans-Serif" font-size="10.00">bool IsBusy</text>
<text text-anchor="start" x="137" y="-554" font-family="Helvetica,sans-Serif" font-size="10.00">+</text>
<text text-anchor="start" x="151" y="-554" font-family="Helvetica,sans-Serif" font-size="10.00">ProgressChangedEventHandler</text>
<text text-anchor="start" x="151" y="-543" font-family="Helvetica,sans-Serif" font-size="10.00"> ProgressChanged</text>
<text text-anchor="start" x="137" y="-528" font-family="Helvetica,sans-Serif" font-size="10.00">+</text>
<text text-anchor="start" x="151" y="-528" font-family="Helvetica,sans-Serif" font-size="10.00">RunWorkerCompletedEventHandler</text>
<text text-anchor="start" x="151" y="-517" font-family="Helvetica,sans-Serif" font-size="10.00"> RunWorkerCompleted</text>
<text text-anchor="start" x="137" y="-502" font-family="Helvetica,sans-Serif" font-size="10.00">+</text>
<text text-anchor="start" x="151" y="-502" font-family="Helvetica,sans-Serif" font-size="10.00">bool WorkerReportsProgress</text>
<text text-anchor="start" x="137" y="-487" font-family="Helvetica,sans-Serif" font-size="10.00">+</text>
<text text-anchor="start" x="151" y="-487" font-family="Helvetica,sans-Serif" font-size="10.00">bool WorkerSupportsCancellation</text>
<text text-anchor="start" x="139.5" y="-472" font-family="Helvetica,sans-Serif" font-size="10.00">&#45;</text>
<text text-anchor="start" x="151" y="-472" font-family="Helvetica,sans-Serif" font-size="10.00">bool _canCancelWorker</text>
<text text-anchor="start" x="139.5" y="-457" font-family="Helvetica,sans-Serif" font-size="10.00">&#45;</text>
<text text-anchor="start" x="151" y="-457" font-family="Helvetica,sans-Serif" font-size="10.00">bool _workerReportsProgress</text>
<text text-anchor="start" x="139.5" y="-442" font-family="Helvetica,sans-Serif" font-size="10.00">&#45;</text>
<text text-anchor="start" x="151" y="-442" font-family="Helvetica,sans-Serif" font-size="10.00">bool _cancellationPending</text>
<text text-anchor="start" x="139.5" y="-427" font-family="Helvetica,sans-Serif" font-size="10.00">&#45;</text>
<text text-anchor="start" x="151" y="-427" font-family="Helvetica,sans-Serif" font-size="10.00">bool _isRunning</text>
<text text-anchor="start" x="139.5" y="-412" font-family="Helvetica,sans-Serif" font-size="10.00">&#45;</text>
<text text-anchor="start" x="151" y="-412" font-family="Helvetica,sans-Serif" font-size="10.00">AsyncOperation _asyncOperation</text>
<text text-anchor="start" x="139.5" y="-397" font-family="Helvetica,sans-Serif" font-size="10.00">&#45;</text>
<text text-anchor="start" x="151" y="-397" font-family="Helvetica,sans-Serif" font-size="10.00">readonly SendOrPostCallback</text>
<text text-anchor="start" x="151" y="-386" font-family="Helvetica,sans-Serif" font-size="10.00"> _operationCompleted</text>
<text text-anchor="start" x="139.5" y="-371" font-family="Helvetica,sans-Serif" font-size="10.00">&#45;</text>
<text text-anchor="start" x="151" y="-371" font-family="Helvetica,sans-Serif" font-size="10.00">readonly SendOrPostCallback</text>
<text text-anchor="start" x="151" y="-360" font-family="Helvetica,sans-Serif" font-size="10.00"> _progressReporter</text>
<text text-anchor="start" x="137" y="-345" font-family="Helvetica,sans-Serif" font-size="10.00">+</text>
<text text-anchor="start" x="151" y="-345" font-family="Helvetica,sans-Serif" font-size="10.00">BackgroundWorker()</text>
<text text-anchor="start" x="137" y="-330" font-family="Helvetica,sans-Serif" font-size="10.00">+</text>
<text text-anchor="start" x="151" y="-330" font-family="Helvetica,sans-Serif" font-size="10.00">void CancelAsync()</text>
<text text-anchor="start" x="137" y="-315" font-family="Helvetica,sans-Serif" font-size="10.00">+</text>
<text text-anchor="start" x="151" y="-315" font-family="Helvetica,sans-Serif" font-size="10.00">void ReportProgress</text>
<text text-anchor="start" x="151" y="-304" font-family="Helvetica,sans-Serif" font-size="10.00">(int percentProgress)</text>
<text text-anchor="start" x="137" y="-289" font-family="Helvetica,sans-Serif" font-size="10.00">+</text>
<text text-anchor="start" x="151" y="-289" font-family="Helvetica,sans-Serif" font-size="10.00">void ReportProgress</text>
<text text-anchor="start" x="151" y="-278" font-family="Helvetica,sans-Serif" font-size="10.00">(int percentProgress,</text>
<text text-anchor="start" x="151" y="-267" font-family="Helvetica,sans-Serif" font-size="10.00"> object userState)</text>
<text text-anchor="start" x="137" y="-252" font-family="Helvetica,sans-Serif" font-size="10.00">+</text>
<text text-anchor="start" x="151" y="-252" font-family="Helvetica,sans-Serif" font-size="10.00">void RunWorkerAsync()</text>
<text text-anchor="start" x="137" y="-237" font-family="Helvetica,sans-Serif" font-size="10.00">+</text>
<text text-anchor="start" x="151" y="-237" font-family="Helvetica,sans-Serif" font-size="10.00">void RunWorkerAsync</text>
<text text-anchor="start" x="151" y="-226" font-family="Helvetica,sans-Serif" font-size="10.00">(object argument)</text>
<text text-anchor="start" x="137" y="-211" font-family="Helvetica,sans-Serif" font-size="10.00">#</text>
<text text-anchor="start" x="151" y="-211" font-family="Helvetica,sans-Serif" font-size="10.00">virtual void OnDoWork</text>
<text text-anchor="start" x="151" y="-200" font-family="Helvetica,sans-Serif" font-size="10.00">(DoWorkEventArgs e)</text>
<text text-anchor="start" x="137" y="-185" font-family="Helvetica,sans-Serif" font-size="10.00">#</text>
<text text-anchor="start" x="151" y="-185" font-family="Helvetica,sans-Serif" font-size="10.00">virtual void OnRunWorker</text>
<text text-anchor="start" x="151" y="-174" font-family="Helvetica,sans-Serif" font-size="10.00">Completed(RunWorkerCompleted</text>
<text text-anchor="start" x="151" y="-163" font-family="Helvetica,sans-Serif" font-size="10.00">EventArgs e)</text>
<text text-anchor="start" x="137" y="-148" font-family="Helvetica,sans-Serif" font-size="10.00">#</text>
<text text-anchor="start" x="151" y="-148" font-family="Helvetica,sans-Serif" font-size="10.00">virtual void OnProgressChanged</text>
<text text-anchor="start" x="151" y="-137" font-family="Helvetica,sans-Serif" font-size="10.00">(ProgressChangedEventArgs e)</text>
<text text-anchor="start" x="137" y="-122" font-family="Helvetica,sans-Serif" font-size="10.00">#</text>
<text text-anchor="start" x="151" y="-122" font-family="Helvetica,sans-Serif" font-size="10.00">override void Dispose</text>
<text text-anchor="start" x="151" y="-111" font-family="Helvetica,sans-Serif" font-size="10.00">(bool disposing)</text>
<text text-anchor="start" x="139.5" y="-96" font-family="Helvetica,sans-Serif" font-size="10.00">&#45;</text>
<text text-anchor="start" x="151" y="-96" font-family="Helvetica,sans-Serif" font-size="10.00">void AsyncOperationCompleted</text>
<text text-anchor="start" x="151" y="-85" font-family="Helvetica,sans-Serif" font-size="10.00">(object arg)</text>
<text text-anchor="start" x="139.5" y="-70" font-family="Helvetica,sans-Serif" font-size="10.00">&#45;</text>
<text text-anchor="start" x="151" y="-70" font-family="Helvetica,sans-Serif" font-size="10.00">void ProgressReporter</text>
<text text-anchor="start" x="151" y="-59" font-family="Helvetica,sans-Serif" font-size="10.00">(object arg)</text>
<text text-anchor="start" x="139.5" y="-44" font-family="Helvetica,sans-Serif" font-size="10.00">&#45;</text>
<text text-anchor="start" x="151" y="-44" font-family="Helvetica,sans-Serif" font-size="10.00">void WorkerThreadStart</text>
<text text-anchor="start" x="151" y="-33" font-family="Helvetica,sans-Serif" font-size="10.00">(object argument)</text>
<text text-anchor="start" x="139.5" y="-18" font-family="Helvetica,sans-Serif" font-size="10.00">&#45;</text>
<text text-anchor="start" x="151" y="-18" font-family="Helvetica,sans-Serif" font-size="10.00">void&lt; RunWorkerAsync</text>
<text text-anchor="start" x="151" y="-7" font-family="Helvetica,sans-Serif" font-size="10.00"> &gt; b__27_0(object arg)</text>
<polygon fill="#666666" stroke="#666666" points="132,-620 132,-620 329,-620 329,-620 132,-620"/>
<polygon fill="#666666" stroke="#666666" points="132,-355 132,-355 149,-355 149,-355 132,-355"/>
<polygon fill="#666666" stroke="#666666" points="149,-355 149,-355 329,-355 329,-355 149,-355"/>
<polygon fill="none" stroke="#666666" points="131.5,0 131.5,-648 328.5,-648 328.5,0 131.5,0"/>
</a>
</g>
</g>
<!-- Node2 -->
<g id="Node000002" class="node">
<title>Node2</title>
<g id="a_Node000002"><a xlink:href="../../d3/d9f/classSystem_1_1ComponentModel_1_1Component.html" target="_top" xlink:title=" ">
<polygon fill="white" stroke="transparent" points="311,-991 149,-991 149,-684 311,-684 311,-991"/>
<text text-anchor="start" x="201.5" y="-978.5" font-family="Helvetica,sans-Serif" font-size="10.00">Component</text>
<text text-anchor="start" x="153" y="-963.5" font-family="Helvetica,sans-Serif" font-size="10.00">+</text>
<text text-anchor="start" x="166" y="-963.5" font-family="Helvetica,sans-Serif" font-size="10.00">virtual bool CanRaiseEvents</text>
<text text-anchor="start" x="153" y="-948.5" font-family="Helvetica,sans-Serif" font-size="10.00">+</text>
<text text-anchor="start" x="166" y="-948.5" font-family="Helvetica,sans-Serif" font-size="10.00">bool CanRaiseEventsInternal</text>
<text text-anchor="start" x="153" y="-933.5" font-family="Helvetica,sans-Serif" font-size="10.00">+</text>
<text text-anchor="start" x="166" y="-933.5" font-family="Helvetica,sans-Serif" font-size="10.00">EventHandler Disposed</text>
<text text-anchor="start" x="153" y="-918.5" font-family="Helvetica,sans-Serif" font-size="10.00">+</text>
<text text-anchor="start" x="166" y="-918.5" font-family="Helvetica,sans-Serif" font-size="10.00">EventHandlerList Events</text>
<text text-anchor="start" x="153" y="-903.5" font-family="Helvetica,sans-Serif" font-size="10.00">+</text>
<text text-anchor="start" x="166" y="-903.5" font-family="Helvetica,sans-Serif" font-size="10.00">virtual ISite Site</text>
<text text-anchor="start" x="153" y="-888.5" font-family="Helvetica,sans-Serif" font-size="10.00">+</text>
<text text-anchor="start" x="166" y="-888.5" font-family="Helvetica,sans-Serif" font-size="10.00">IContainer Container</text>
<text text-anchor="start" x="153" y="-873.5" font-family="Helvetica,sans-Serif" font-size="10.00">+</text>
<text text-anchor="start" x="166" y="-873.5" font-family="Helvetica,sans-Serif" font-size="10.00">bool DesignMode</text>
<text text-anchor="start" x="155.5" y="-858.5" font-family="Helvetica,sans-Serif" font-size="10.00">&#45;</text>
<text text-anchor="start" x="166" y="-858.5" font-family="Helvetica,sans-Serif" font-size="10.00">ISite site</text>
<text text-anchor="start" x="155.5" y="-843.5" font-family="Helvetica,sans-Serif" font-size="10.00">&#45;</text>
<text text-anchor="start" x="166" y="-843.5" font-family="Helvetica,sans-Serif" font-size="10.00">EventHandlerList events</text>
<text text-anchor="start" x="155.5" y="-828.5" font-family="Helvetica,sans-Serif" font-size="10.00">&#45;</text>
<text text-anchor="start" x="166" y="-828.5" font-family="Helvetica,sans-Serif" font-size="10.00">static readonly object</text>
<text text-anchor="start" x="166" y="-817.5" font-family="Helvetica,sans-Serif" font-size="10.00"> EventDisposed</text>
<text text-anchor="start" x="153" y="-802.5" font-family="Helvetica,sans-Serif" font-size="10.00">+</text>
<text text-anchor="start" x="166" y="-802.5" font-family="Helvetica,sans-Serif" font-size="10.00">void Dispose()</text>
<text text-anchor="start" x="153" y="-787.5" font-family="Helvetica,sans-Serif" font-size="10.00">+</text>
<text text-anchor="start" x="166" y="-787.5" font-family="Helvetica,sans-Serif" font-size="10.00">override string ToString()</text>
<text text-anchor="start" x="153" y="-772.5" font-family="Helvetica,sans-Serif" font-size="10.00">+</text>
<text text-anchor="start" x="166" y="-772.5" font-family="Helvetica,sans-Serif" font-size="10.00">Component()</text>
<text text-anchor="start" x="153" y="-757.5" font-family="Helvetica,sans-Serif" font-size="10.00">#</text>
<text text-anchor="start" x="166" y="-757.5" font-family="Helvetica,sans-Serif" font-size="10.00">override void Finalize()</text>
<text text-anchor="start" x="153" y="-742.5" font-family="Helvetica,sans-Serif" font-size="10.00">#</text>
<text text-anchor="start" x="166" y="-742.5" font-family="Helvetica,sans-Serif" font-size="10.00">virtual void Dispose</text>
<text text-anchor="start" x="166" y="-731.5" font-family="Helvetica,sans-Serif" font-size="10.00">(bool disposing)</text>
<text text-anchor="start" x="153" y="-716.5" font-family="Helvetica,sans-Serif" font-size="10.00">#</text>
<text text-anchor="start" x="166" y="-716.5" font-family="Helvetica,sans-Serif" font-size="10.00">virtual object GetService</text>
<text text-anchor="start" x="166" y="-705.5" font-family="Helvetica,sans-Serif" font-size="10.00">(Type service)</text>
<text text-anchor="start" x="155.5" y="-690.5" font-family="Helvetica,sans-Serif" font-size="10.00">&#45;</text>
<text text-anchor="start" x="166" y="-690.5" font-family="Helvetica,sans-Serif" font-size="10.00">static Component()</text>
<polygon fill="#666666" stroke="#666666" points="149,-973.5 149,-973.5 311,-973.5 311,-973.5 149,-973.5"/>
<polygon fill="#666666" stroke="#666666" points="149,-812.5 149,-812.5 164,-812.5 164,-812.5 149,-812.5"/>
<polygon fill="#666666" stroke="#666666" points="164,-812.5 164,-812.5 311,-812.5 311,-812.5 164,-812.5"/>
<polygon fill="none" stroke="#666666" points="149,-684 149,-991 311,-991 311,-684 149,-684"/>
</a>
</g>
</g>
<!-- Node2&#45;&gt;Node1 -->
<g id="edge1_Node000001_Node000002" class="edge">
<title>Node2&#45;&gt;Node1</title>
<g id="a_edge1_Node000001_Node000002"><a xlink:title=" ">
<path fill="none" stroke="#63b8ff" d="M230,-673.69C230,-665.4 230,-656.96 230,-648.4"/>
<polygon fill="none" stroke="#63b8ff" points="226.5,-673.73 230,-683.73 233.5,-673.73 226.5,-673.73"/>
</a>
</g>
</g>
<!-- Node3 -->
<g id="Node000003" class="node">
<title>Node3</title>
<g id="a_Node000003"><a xlink:href="../../d9/d0e/classSystem_1_1MarshalByRefObject.html" target="_top" xlink:title=" ">
<polygon fill="white" stroke="transparent" points="202,-1165 0,-1165 0,-1027 202,-1027 202,-1165"/>
<text text-anchor="start" x="51" y="-1153" font-family="Helvetica,sans-Serif" font-size="10.00">MarshalByRefObject</text>
<text text-anchor="start" x="4" y="-1138" font-family="Helvetica,sans-Serif" font-size="10.00">+</text>
<text text-anchor="start" x="17" y="-1138" font-family="Helvetica,sans-Serif" font-size="10.00">global::System.Runtime.Remoting.</text>
<text text-anchor="start" x="17" y="-1127" font-family="Helvetica,sans-Serif" font-size="10.00">ServerIdentity ObjectIdentity</text>
<text text-anchor="start" x="6.5" y="-1112" font-family="Helvetica,sans-Serif" font-size="10.00">&#45;</text>
<text text-anchor="start" x="17" y="-1112" font-family="Helvetica,sans-Serif" font-size="10.00">object _identity</text>
<text text-anchor="start" x="4" y="-1097" font-family="Helvetica,sans-Serif" font-size="10.00">+</text>
<text text-anchor="start" x="17" y="-1097" font-family="Helvetica,sans-Serif" font-size="10.00">virtual global::System.Runtime.</text>
<text text-anchor="start" x="17" y="-1086" font-family="Helvetica,sans-Serif" font-size="10.00">Remoting.ObjRef CreateObjRef</text>
<text text-anchor="start" x="17" y="-1075" font-family="Helvetica,sans-Serif" font-size="10.00">(global::System.Type requestedType)</text>
<text text-anchor="start" x="4" y="-1060" font-family="Helvetica,sans-Serif" font-size="10.00">+</text>
<text text-anchor="start" x="17" y="-1060" font-family="Helvetica,sans-Serif" font-size="10.00">virtual object Initialize</text>
<text text-anchor="start" x="17" y="-1049" font-family="Helvetica,sans-Serif" font-size="10.00">LifetimeService()</text>
<text text-anchor="start" x="4" y="-1034" font-family="Helvetica,sans-Serif" font-size="10.00">#</text>
<text text-anchor="start" x="17" y="-1034" font-family="Helvetica,sans-Serif" font-size="10.00">MarshalByRefObject()</text>
<polygon fill="#666666" stroke="#666666" points="0,-1148 0,-1148 202,-1148 202,-1148 0,-1148"/>
<polygon fill="#666666" stroke="#666666" points="0,-1107 0,-1107 15,-1107 15,-1107 0,-1107"/>
<polygon fill="#666666" stroke="#666666" points="15,-1107 15,-1107 202,-1107 202,-1107 15,-1107"/>
<polygon fill="none" stroke="#666666" points="0,-1027 0,-1165 202,-1165 202,-1027 0,-1027"/>
</a>
</g>
</g>
<!-- Node3&#45;&gt;Node2 -->
<g id="edge2_Node000002_Node000003" class="edge">
<title>Node3&#45;&gt;Node2</title>
<g id="a_edge2_Node000002_Node000003"><a xlink:title=" ">
<path fill="none" stroke="#63b8ff" d="M139.83,-1017.79C144.14,-1009.22 148.64,-1000.28 153.22,-991.17"/>
<polygon fill="none" stroke="#63b8ff" points="136.6,-1016.43 135.23,-1026.94 142.85,-1019.57 136.6,-1016.43"/>
</a>
</g>
</g>
<!-- Node4 -->
<g id="Node000004" class="node">
<title>Node4</title>
<g id="a_Node000004"><a xlink:href="../../d5/dbe/interfaceSystem_1_1ComponentModel_1_1IComponent.html" target="_top" xlink:title=" ">
<polygon fill="white" stroke="transparent" points="328,-1120.5 258,-1120.5 258,-1071.5 328,-1071.5 328,-1120.5"/>
<text text-anchor="start" x="263" y="-1108" font-family="Helvetica,sans-Serif" font-size="10.00">IComponent</text>
<text text-anchor="start" x="263" y="-1093" font-family="Helvetica,sans-Serif" font-size="10.00">+</text>
<text text-anchor="start" x="277" y="-1093" font-family="Helvetica,sans-Serif" font-size="10.00">ISite Site</text>
<text text-anchor="start" x="291" y="-1078" font-family="Helvetica,sans-Serif" font-size="10.00"> </text>
<polygon fill="#666666" stroke="#666666" points="258,-1103 258,-1103 328,-1103 328,-1103 258,-1103"/>
<polygon fill="#666666" stroke="#666666" points="258,-1088 258,-1088 275,-1088 275,-1088 258,-1088"/>
<polygon fill="#666666" stroke="#666666" points="275,-1088 275,-1088 328,-1088 328,-1088 275,-1088"/>
<polygon fill="none" stroke="#666666" points="258,-1071.5 258,-1120.5 328,-1120.5 328,-1071.5 258,-1071.5"/>
</a>
</g>
</g>
<!-- Node4&#45;&gt;Node2 -->
<g id="edge3_Node000002_Node000004" class="edge">
<title>Node4&#45;&gt;Node2</title>
<g id="a_edge3_Node000002_Node000004"><a xlink:title=" ">
<path fill="none" stroke="#63b8ff" d="M284.78,-1061.54C280.16,-1042.71 274.02,-1017.73 267.53,-991.3"/>
<polygon fill="none" stroke="#63b8ff" points="281.4,-1062.45 287.19,-1071.33 288.2,-1060.78 281.4,-1062.45"/>
</a>
</g>
</g>
<!-- Node5 -->
<g id="Node000005" class="node">
<title>Node5</title>
<g id="a_Node000005"><a xlink:href="../../d6/d32/interfaceSystem_1_1IDisposable.html" target="_top" xlink:title=" ">
<polygon fill="white" stroke="transparent" points="307,-1250 215,-1250 215,-1201 307,-1201 307,-1250"/>
<text text-anchor="start" x="232" y="-1237.5" font-family="Helvetica,sans-Serif" font-size="10.00">IDisposable</text>
<text text-anchor="start" x="259" y="-1222.5" font-family="Helvetica,sans-Serif" font-size="10.00"> </text>
<text text-anchor="start" x="219" y="-1207.5" font-family="Helvetica,sans-Serif" font-size="10.00">+</text>
<text text-anchor="start" x="232" y="-1207.5" font-family="Helvetica,sans-Serif" font-size="10.00">void Dispose()</text>
<polygon fill="#666666" stroke="#666666" points="215,-1232.5 215,-1232.5 307,-1232.5 307,-1232.5 215,-1232.5"/>
<polygon fill="#666666" stroke="#666666" points="215,-1217.5 215,-1217.5 307,-1217.5 307,-1217.5 215,-1217.5"/>
<polygon fill="none" stroke="#666666" points="215,-1201 215,-1250 307,-1250 307,-1201 215,-1201"/>
</a>
</g>
</g>
<!-- Node5&#45;&gt;Node2 -->
<g id="edge5_Node000002_Node000005" class="edge">
<title>Node5&#45;&gt;Node2</title>
<g id="a_edge5_Node000002_Node000005"><a xlink:title=" ">
<path fill="none" stroke="#63b8ff" d="M253.38,-1190.98C251.7,-1182.54 250.1,-1173.47 249,-1165 241.7,-1108.55 237.21,-1046.24 234.44,-991.32"/>
<polygon fill="none" stroke="#63b8ff" points="249.98,-1191.81 255.44,-1200.89 256.83,-1190.38 249.98,-1191.81"/>
</a>
</g>
</g>
<!-- Node5&#45;&gt;Node4 -->
<g id="edge4_Node000004_Node000005" class="edge">
<title>Node5&#45;&gt;Node4</title>
<g id="a_edge4_Node000004_Node000005"><a xlink:title=" ">
<path fill="none" stroke="#63b8ff" d="M269.45,-1190.83C275,-1168.7 282.14,-1140.29 287.09,-1120.56"/>
<polygon fill="none" stroke="#63b8ff" points="265.98,-1190.27 266.94,-1200.82 272.77,-1191.97 265.98,-1190.27"/>
</a>
</g>
</g>
</g>
</svg>

<g id="navigator" transform="translate(0 0)" fill="#404254">
  <rect fill="#f2f5e9" fill-opacity="0.5" stroke="#606060" stroke-width=".5" x="0" y="0" width="60" height="60"/>
  <use id="zoomplus" xlink:href="#zoomPlus" x="17" y="9" onmousedown="handleZoom(evt,'in')"/>
  <use id="zoomminus" xlink:href="#zoomMin" x="42" y="9" onmousedown="handleZoom(evt,'out')"/>
  <use id="reset" xlink:href="#resetDef" x="30" y="36" onmousedown="handleReset()"/>
   <use id="arrowup" xlink:href="#arrowUp" x="0" y="0" onmousedown="handlePan(0,-1)"/>
  <use id="arrowright" xlink:href="#arrowRight" x="0" y="0" onmousedown="handlePan(1,0)"/>
  <use id="arrowdown" xlink:href="#arrowDown" x="0" y="0" onmousedown="handlePan(0,1)"/>
  <use id="arrowleft" xlink:href="#arrowLeft" x="0" y="0" onmousedown="handlePan(-1,0)"/>
</g>
<svg viewBox="0 0 15 15" width="100%" height="30px" preserveAspectRatio="xMaxYMin meet">
 <g id="arrow_out" transform="scale(0.3 0.3)">
  <a xlink:href="classSystem_1_1ComponentModel_1_1BackgroundWorker__inherit__graph_org.svg" target="_base">
   <rect id="button" ry="5" rx="5" y="6" x="6" height="38" width="38"
        fill="#f2f5e9" fill-opacity="0.5" stroke="#606060" stroke-width="1.0"/>
   <path id="arrow"
     d="M 11.500037,31.436501 C 11.940474,20.09759 22.043105,11.32322 32.158766,21.979434 L 37.068811,17.246167 C 37.068811,17.246167 37.088388,32 37.088388,32 L 22.160133,31.978069 C 22.160133,31.978069 26.997745,27.140456 26.997745,27.140456 C 18.528582,18.264221 13.291696,25.230495 11.500037,31.436501 z"
     style="fill:#404040;"/>
  </a>
 </g>
</svg>

<style type='text/css'>
<![CDATA[
[data-mouse-over-selected='false'] { opacity: 0.7; }
[data-mouse-over-selected='true']  { opacity: 1.0; }
]]>
</style>
<script type="application/ecmascript"><![CDATA[
document.addEventListener('DOMContentLoaded', (event) => {
  highlightEdges();
  highlightAdjacentNodes();
});
]]></script>
</svg>
