<?xml version="1.0" encoding="UTF-8" standalone="no"?>
<!DOCTYPE svg PUBLIC "-//W3C//DTD SVG 1.1//EN"
 "http://www.w3.org/Graphics/SVG/1.1/DTD/svg11.dtd">
<!-- Generated by graphviz version 2.43.0 (0)
 -->
<!-- Title: GUIEquipmentLoadout Pages: 1 -->
<svg width="467pt" height="498pt"
 viewBox="0.00 0.00 466.90 498.00" xmlns="http://www.w3.org/2000/svg" xmlns:xlink="http://www.w3.org/1999/xlink">
<g id="graph0" class="graph" transform="scale(1 1) rotate(0) translate(4 494)">
<title>GUIEquipmentLoadout</title>
<!-- Node1 -->
<g id="Node000001" class="node">
<title>Node1</title>
<g id="a_Node000001"><a xlink:title=" ">
<polygon fill="#999999" stroke="transparent" points="296.4,-235 139.4,-235 139.4,0 296.4,0 296.4,-235"/>
<text text-anchor="start" x="163.4" y="-222.5" font-family="Helvetica,sans-Serif" font-size="10.00">GUIEquipmentLoadout</text>
<text text-anchor="start" x="216.4" y="-207.5" font-family="Helvetica,sans-Serif" font-size="10.00"> </text>
<text text-anchor="start" x="143.9" y="-192.5" font-family="Helvetica,sans-Serif" font-size="10.00">+</text>
<text text-anchor="start" x="156.9" y="-192.5" font-family="Helvetica,sans-Serif" font-size="10.00">void CloseExpandedFilter()</text>
<text text-anchor="start" x="143.9" y="-177.5" font-family="Helvetica,sans-Serif" font-size="10.00">+</text>
<text text-anchor="start" x="156.9" y="-177.5" font-family="Helvetica,sans-Serif" font-size="10.00">Rectangle GetRegion()</text>
<text text-anchor="start" x="143.9" y="-162.5" font-family="Helvetica,sans-Serif" font-size="10.00">+</text>
<text text-anchor="start" x="156.9" y="-162.5" font-family="Helvetica,sans-Serif" font-size="10.00">void DrawToggles()</text>
<text text-anchor="start" x="143.9" y="-147.5" font-family="Helvetica,sans-Serif" font-size="10.00">+</text>
<text text-anchor="start" x="156.9" y="-147.5" font-family="Helvetica,sans-Serif" font-size="10.00">bool IsOver(Vector2</text>
<text text-anchor="start" x="156.9" y="-136.5" font-family="Helvetica,sans-Serif" font-size="10.00"> cursorPosition)</text>
<text text-anchor="start" x="143.9" y="-121.5" font-family="Helvetica,sans-Serif" font-size="10.00">+</text>
<text text-anchor="start" x="156.9" y="-121.5" font-family="Helvetica,sans-Serif" font-size="10.00">float LoadoutScale</text>
<text text-anchor="start" x="156.9" y="-110.5" font-family="Helvetica,sans-Serif" font-size="10.00">(int index)</text>
<text text-anchor="start" x="143.9" y="-95.5" font-family="Helvetica,sans-Serif" font-size="10.00">+</text>
<text text-anchor="start" x="156.9" y="-95.5" font-family="Helvetica,sans-Serif" font-size="10.00">void LoadoutOver(int</text>
<text text-anchor="start" x="156.9" y="-84.5" font-family="Helvetica,sans-Serif" font-size="10.00"> index)</text>
<text text-anchor="start" x="143.9" y="-69.5" font-family="Helvetica,sans-Serif" font-size="10.00">+</text>
<text text-anchor="start" x="156.9" y="-69.5" font-family="Helvetica,sans-Serif" font-size="10.00">void LoadoutDraw(ItemGrid</text>
<text text-anchor="start" x="156.9" y="-58.5" font-family="Helvetica,sans-Serif" font-size="10.00">_Layout gridLayout, int</text>
<text text-anchor="start" x="156.9" y="-47.5" font-family="Helvetica,sans-Serif" font-size="10.00"> index, Vector2 position,</text>
<text text-anchor="start" x="156.9" y="-36.5" font-family="Helvetica,sans-Serif" font-size="10.00"> float scale)</text>
<text text-anchor="start" x="143.9" y="-21.5" font-family="Helvetica,sans-Serif" font-size="10.00">+</text>
<text text-anchor="start" x="156.9" y="-21.5" font-family="Helvetica,sans-Serif" font-size="10.00">GUIEquipmentLoadout()</text>
<text text-anchor="start" x="146.4" y="-6.5" font-family="Helvetica,sans-Serif" font-size="10.00">&#45;</text>
<text text-anchor="start" x="156.9" y="-6.5" font-family="Helvetica,sans-Serif" font-size="10.00">void DrawLoadouts()</text>
<polygon fill="#666666" stroke="#666666" points="139.9,-217.5 139.9,-217.5 296.9,-217.5 296.9,-217.5 139.9,-217.5"/>
<polygon fill="#666666" stroke="#666666" points="139.9,-202.5 139.9,-202.5 296.9,-202.5 296.9,-202.5 139.9,-202.5"/>
<polygon fill="none" stroke="#666666" points="139.4,0 139.4,-235 296.4,-235 296.4,0 139.4,0"/>
</a>
</g>
</g>
<!-- Node2 -->
<g id="Node000002" class="node">
<title>Node2</title>
<g id="a_Node000002"><a xlink:title=" ">
<polygon fill="white" stroke="transparent" points="48.9,-490 16.9,-490 16.9,-441 48.9,-441 48.9,-490"/>
<text text-anchor="start" x="21.9" y="-477.5" font-family="Helvetica,sans-Serif" font-size="10.00">bool</text>
<text text-anchor="start" x="30.9" y="-462.5" font-family="Helvetica,sans-Serif" font-size="10.00"> </text>
<text text-anchor="start" x="30.9" y="-447.5" font-family="Helvetica,sans-Serif" font-size="10.00"> </text>
<polygon fill="#666666" stroke="#666666" points="16.9,-472.5 16.9,-472.5 48.9,-472.5 48.9,-472.5 16.9,-472.5"/>
<polygon fill="#666666" stroke="#666666" points="16.9,-457.5 16.9,-457.5 48.9,-457.5 48.9,-457.5 16.9,-457.5"/>
<polygon fill="none" stroke="#666666" points="16.9,-441 16.9,-490 48.9,-490 48.9,-441 16.9,-441"/>
</a>
</g>
</g>
<!-- Node2&#45;&gt;Node1 -->
<g id="edge1_Node000001_Node000002" class="edge">
<title>Node2&#45;&gt;Node1</title>
<g id="a_edge1_Node000001_Node000002"><a xlink:title=" ">
<path fill="none" stroke="#63b8ff" d="M22.1,-440.8C8.14,-406.52 -11.81,-341.86 10.9,-293 35.44,-240.21 84.69,-197.66 128.99,-167.79"/>
<polygon fill="none" stroke="#63b8ff" points="129.22,-167.64 132.03,-161 139.24,-161.04 136.43,-167.68 129.22,-167.64"/>
</a>
</g>
<text text-anchor="middle" x="40.9" y="-341" font-family="Helvetica,sans-Serif" font-size="10.00" fill="grey"> +Expanded</text>
</g>
<!-- Node3 -->
<g id="Node000003" class="node">
<title>Node3</title>
<g id="a_Node000003"><a xlink:href="../../db/d77/classGUIInputRegionExclusive.html" target="_top" xlink:title=" ">
<polygon fill="white" stroke="transparent" points="241.4,-394 80.4,-394 80.4,-293 241.4,-293 241.4,-394"/>
<text text-anchor="start" x="99.4" y="-381.5" font-family="Helvetica,sans-Serif" font-size="10.00">GUIInputRegionExclusive</text>
<text text-anchor="start" x="159.4" y="-366.5" font-family="Helvetica,sans-Serif" font-size="10.00"> </text>
<text text-anchor="start" x="84.9" y="-351.5" font-family="Helvetica,sans-Serif" font-size="10.00">+</text>
<text text-anchor="start" x="97.9" y="-351.5" font-family="Helvetica,sans-Serif" font-size="10.00">delegate bool IsOverHandler</text>
<text text-anchor="start" x="97.9" y="-340.5" font-family="Helvetica,sans-Serif" font-size="10.00">(Vector2 cursorPosition)</text>
<text text-anchor="start" x="84.9" y="-325.5" font-family="Helvetica,sans-Serif" font-size="10.00">+</text>
<text text-anchor="start" x="97.9" y="-325.5" font-family="Helvetica,sans-Serif" font-size="10.00">GUIInputRegionExclusive</text>
<text text-anchor="start" x="97.9" y="-314.5" font-family="Helvetica,sans-Serif" font-size="10.00">(IsOverHandler handler)</text>
<text text-anchor="start" x="84.9" y="-299.5" font-family="Helvetica,sans-Serif" font-size="10.00">+</text>
<text text-anchor="start" x="97.9" y="-299.5" font-family="Helvetica,sans-Serif" font-size="10.00">bool Over(int x, int y)</text>
<polygon fill="#666666" stroke="#666666" points="80.9,-376.5 80.9,-376.5 241.9,-376.5 241.9,-376.5 80.9,-376.5"/>
<polygon fill="#666666" stroke="#666666" points="80.9,-361.5 80.9,-361.5 241.9,-361.5 241.9,-361.5 80.9,-361.5"/>
<polygon fill="none" stroke="#666666" points="80.4,-293 80.4,-394 241.4,-394 241.4,-293 80.4,-293"/>
</a>
</g>
</g>
<!-- Node2&#45;&gt;Node3 -->
<g id="edge4_Node000003_Node000002" class="edge">
<title>Node2&#45;&gt;Node3</title>
<g id="a_edge4_Node000003_Node000002"><a xlink:title=" ">
<path fill="none" stroke="#63b8ff" d="M49.11,-449.3C61.95,-437.27 80.74,-419.65 99.27,-402.28"/>
<polygon fill="none" stroke="#63b8ff" points="99.27,-402.28 100.91,-395.26 108.02,-394.07 106.38,-401.1 99.27,-402.28"/>
</a>
</g>
<text text-anchor="middle" x="107.4" y="-415" font-family="Helvetica,sans-Serif" font-size="10.00" fill="grey"> +Active</text>
</g>
<!-- Node3&#45;&gt;Node1 -->
<g id="edge2_Node000001_Node000003" class="edge">
<title>Node3&#45;&gt;Node1</title>
<g id="a_edge2_Node000001_Node000003"><a xlink:title=" ">
<path fill="none" stroke="#63b8ff" d="M160.08,-292.74C160.01,-286.76 159.94,-280.74 159.9,-275 159.83,-265.22 157.93,-262.58 159.9,-253 160.32,-250.99 160.76,-248.97 161.24,-246.95"/>
<polygon fill="none" stroke="#63b8ff" points="161.24,-246.94 158.88,-240.12 164.27,-235.33 166.63,-242.14 161.24,-246.94"/>
</a>
</g>
<text text-anchor="middle" x="207.9" y="-261.5" font-family="Helvetica,sans-Serif" font-size="10.00" fill="grey"> &#45;pickingInterceptor</text>
</g>
<!-- Node4 -->
<g id="Node000004" class="node">
<title>Node4</title>
<g id="a_Node000004"><a xlink:title=" ">
<polygon fill="white" stroke="transparent" points="223.9,-490 97.9,-490 97.9,-441 223.9,-441 223.9,-490"/>
<text text-anchor="start" x="102.9" y="-477.5" font-family="Helvetica,sans-Serif" font-size="10.00">readonly IsOverHandler</text>
<text text-anchor="start" x="158.9" y="-462.5" font-family="Helvetica,sans-Serif" font-size="10.00"> </text>
<text text-anchor="start" x="158.9" y="-447.5" font-family="Helvetica,sans-Serif" font-size="10.00"> </text>
<polygon fill="#666666" stroke="#666666" points="97.9,-472.5 97.9,-472.5 223.9,-472.5 223.9,-472.5 97.9,-472.5"/>
<polygon fill="#666666" stroke="#666666" points="97.9,-457.5 97.9,-457.5 223.9,-457.5 223.9,-457.5 97.9,-457.5"/>
<polygon fill="none" stroke="#666666" points="97.9,-441 97.9,-490 223.9,-490 223.9,-441 97.9,-441"/>
</a>
</g>
</g>
<!-- Node4&#45;&gt;Node3 -->
<g id="edge3_Node000003_Node000004" class="edge">
<title>Node4&#45;&gt;Node3</title>
<g id="a_edge3_Node000003_Node000004"><a xlink:title=" ">
<path fill="none" stroke="#63b8ff" d="M160.9,-440.79C160.9,-430.85 160.9,-418.79 160.9,-406.61"/>
<polygon fill="none" stroke="#63b8ff" points="160.9,-406.46 156.9,-400.46 160.9,-394.46 164.9,-400.46 160.9,-406.46"/>
</a>
</g>
<text text-anchor="middle" x="182.4" y="-415" font-family="Helvetica,sans-Serif" font-size="10.00" fill="grey"> +isOver</text>
</g>
<!-- Node5 -->
<g id="Node000005" class="node">
<title>Node5</title>
<g id="a_Node000005"><a xlink:title=" ">
<polygon fill="white" stroke="transparent" points="293.9,-368 261.9,-368 261.9,-319 293.9,-319 293.9,-368"/>
<text text-anchor="start" x="266.9" y="-355.5" font-family="Helvetica,sans-Serif" font-size="10.00">float</text>
<text text-anchor="start" x="275.9" y="-340.5" font-family="Helvetica,sans-Serif" font-size="10.00"> </text>
<text text-anchor="start" x="275.9" y="-325.5" font-family="Helvetica,sans-Serif" font-size="10.00"> </text>
<polygon fill="#666666" stroke="#666666" points="261.9,-350.5 261.9,-350.5 293.9,-350.5 293.9,-350.5 261.9,-350.5"/>
<polygon fill="#666666" stroke="#666666" points="261.9,-335.5 261.9,-335.5 293.9,-335.5 293.9,-335.5 261.9,-335.5"/>
<polygon fill="none" stroke="#666666" points="261.9,-319 261.9,-368 293.9,-368 293.9,-319 261.9,-319"/>
</a>
</g>
</g>
<!-- Node5&#45;&gt;Node1 -->
<g id="edge5_Node000001_Node000005" class="edge">
<title>Node5&#45;&gt;Node1</title>
<g id="a_edge5_Node000001_Node000005"><a xlink:title=" ">
<path fill="none" stroke="#63b8ff" d="M272.33,-318.89C268.01,-300.81 261.79,-275.28 255.9,-253 255.37,-250.98 254.83,-248.95 254.28,-246.91"/>
<polygon fill="none" stroke="#63b8ff" points="254.22,-246.66 248.8,-241.91 251.1,-235.08 256.52,-239.83 254.22,-246.66"/>
</a>
</g>
<text text-anchor="middle" x="318.4" y="-267" font-family="Helvetica,sans-Serif" font-size="10.00" fill="grey"> &#45;HideShowButtonScale</text>
<text text-anchor="middle" x="318.4" y="-256" font-family="Helvetica,sans-Serif" font-size="10.00" fill="grey">&#45;buttonScale</text>
</g>
<!-- Node6 -->
<g id="Node000006" class="node">
<title>Node6</title>
<g id="a_Node000006"><a xlink:title=" ">
<polygon fill="white" stroke="transparent" points="427.4,-368 404.4,-368 404.4,-319 427.4,-319 427.4,-368"/>
<text text-anchor="start" x="409.9" y="-355.5" font-family="Helvetica,sans-Serif" font-size="10.00">int</text>
<text text-anchor="start" x="414.4" y="-340.5" font-family="Helvetica,sans-Serif" font-size="10.00"> </text>
<text text-anchor="start" x="414.4" y="-325.5" font-family="Helvetica,sans-Serif" font-size="10.00"> </text>
<polygon fill="#666666" stroke="#666666" points="404.9,-350.5 404.9,-350.5 427.9,-350.5 427.9,-350.5 404.9,-350.5"/>
<polygon fill="#666666" stroke="#666666" points="404.9,-335.5 404.9,-335.5 427.9,-335.5 427.9,-335.5 404.9,-335.5"/>
<polygon fill="none" stroke="#666666" points="404.4,-319 404.4,-368 427.4,-368 427.4,-319 404.4,-319"/>
</a>
</g>
</g>
<!-- Node6&#45;&gt;Node1 -->
<g id="edge6_Node000001_Node000006" class="edge">
<title>Node6&#45;&gt;Node1</title>
<g id="a_edge6_Node000001_Node000006"><a xlink:title=" ">
<path fill="none" stroke="#63b8ff" d="M409.89,-318.85C404.26,-299.81 394.51,-273.03 379.9,-253 359.66,-225.25 332.46,-199.75 306.12,-178.59"/>
<polygon fill="none" stroke="#63b8ff" points="305.9,-178.42 298.72,-177.85 296.48,-170.99 303.67,-171.56 305.9,-178.42"/>
</a>
</g>
<text text-anchor="middle" x="425.4" y="-261.5" font-family="Helvetica,sans-Serif" font-size="10.00" fill="grey"> &#45;loadoutOver</text>
</g>
</g>
</svg>
