<?xml version="1.0" encoding="UTF-8" standalone="no"?>
<!DOCTYPE svg PUBLIC "-//W3C//DTD SVG 1.1//EN"
 "http://www.w3.org/Graphics/SVG/1.1/DTD/svg11.dtd">
<!-- Generated by graphviz version 2.43.0 (0)
 -->
<!-- Title: System.Net.LazyAsyncResult.ThreadContext Pages: 1 -->
<svg width="186pt" height="164pt"
 viewBox="0.00 0.00 186.00 164.00" xmlns="http://www.w3.org/2000/svg" xmlns:xlink="http://www.w3.org/1999/xlink">

<svg id="main" version="1.1" xmlns="http://www.w3.org/2000/svg" xmlns:xlink="http://www.w3.org/1999/xlink" xml:space="preserve" onload="init(evt)">
<style type="text/css"><![CDATA[
.node, .edge {opacity: 0.7;}
.node.selected, .edge.selected {opacity: 1;}
.edge:hover path { stroke: red; }
.edge:hover polygon { stroke: red; fill: red; }
]]></style>
<script type="application/ecmascript" xlink:href="../../svg.min.js"/>
<svg id="graph" class="graph">
<g id="graph0" class="graph" transform="scale(1 1) rotate(0) translate(4 160)">
<title>System.Net.LazyAsyncResult.ThreadContext</title>
<!-- Node1 -->
<g id="Node000001" class="node">
<title>Node1</title>
<g id="a_Node000001"><a xlink:title=" ">
<polygon fill="#999999" stroke="transparent" points="156,-60 0,-60 0,0 156,0 156,-60"/>
<text text-anchor="start" x="5" y="-48" font-family="Helvetica,sans-Serif" font-size="10.00">System.Net.LazyAsyncResult.</text>
<text text-anchor="start" x="41.5" y="-37" font-family="Helvetica,sans-Serif" font-size="10.00">ThreadContext</text>
<text text-anchor="start" x="76" y="-22" font-family="Helvetica,sans-Serif" font-size="10.00"> </text>
<text text-anchor="start" x="17.5" y="-7" font-family="Helvetica,sans-Serif" font-size="10.00">+</text>
<text text-anchor="start" x="44" y="-7" font-family="Helvetica,sans-Serif" font-size="10.00">ThreadContext()</text>
<polygon fill="#666666" stroke="#666666" points="0,-32 0,-32 156,-32 156,-32 0,-32"/>
<polygon fill="#666666" stroke="#666666" points="0,-17 0,-17 156,-17 156,-17 0,-17"/>
<polygon fill="none" stroke="#666666" points="0,0 0,-60 156,-60 156,0 0,0"/>
</a>
</g>
</g>
<!-- Node2 -->
<g id="Node000002" class="node">
<title>Node2</title>
<g id="a_Node000002"><a xlink:title=" ">
<polygon fill="white" stroke="transparent" points="89.5,-156 66.5,-156 66.5,-107 89.5,-107 89.5,-156"/>
<text text-anchor="start" x="72" y="-143.5" font-family="Helvetica,sans-Serif" font-size="10.00">int</text>
<text text-anchor="start" x="76.5" y="-128.5" font-family="Helvetica,sans-Serif" font-size="10.00"> </text>
<text text-anchor="start" x="76.5" y="-113.5" font-family="Helvetica,sans-Serif" font-size="10.00"> </text>
<polygon fill="#666666" stroke="#666666" points="67,-138.5 67,-138.5 90,-138.5 90,-138.5 67,-138.5"/>
<polygon fill="#666666" stroke="#666666" points="67,-123.5 67,-123.5 90,-123.5 90,-123.5 67,-123.5"/>
<polygon fill="none" stroke="#666666" points="66.5,-107 66.5,-156 89.5,-156 89.5,-107 66.5,-107"/>
</a>
</g>
</g>
<!-- Node2&#45;&gt;Node1 -->
<g id="edge1_Node000001_Node000002" class="edge">
<title>Node2&#45;&gt;Node1</title>
<g id="a_edge1_Node000001_Node000002"><a xlink:title=" ">
<path fill="none" stroke="#63b8ff" d="M78,-106.92C78,-96.51 78,-83.97 78,-72.1"/>
<polygon fill="none" stroke="#63b8ff" points="78,-72.1 74,-66.1 78,-60.1 82,-66.1 78,-72.1"/>
</a>
</g>
<text text-anchor="middle" x="128" y="-81" font-family="Helvetica,sans-Serif" font-size="10.00" fill="grey"> ~m_NestedIOCount</text>
</g>
</g>
</svg>
</svg>

<style type='text/css'>
<![CDATA[
[data-mouse-over-selected='false'] { opacity: 0.7; }
[data-mouse-over-selected='true']  { opacity: 1.0; }
]]>
</style>
<script type="application/ecmascript"><![CDATA[
document.addEventListener('DOMContentLoaded', (event) => {
  highlightEdges();
  highlightAdjacentNodes();
});
]]></script>
</svg>
