<?xml version="1.0" encoding="UTF-8" standalone="no"?>
<!DOCTYPE svg PUBLIC "-//W3C//DTD SVG 1.1//EN"
 "http://www.w3.org/Graphics/SVG/1.1/DTD/svg11.dtd">
<!-- Generated by graphviz version 2.43.0 (0)
 -->
<!-- Title: Terraria.GameContent.Events.BirthdayParty Pages: 1 -->
<svg width="363pt" height="328pt"
 viewBox="0.00 0.00 363.00 328.00" xmlns="http://www.w3.org/2000/svg" xmlns:xlink="http://www.w3.org/1999/xlink">
<g id="graph0" class="graph" transform="scale(1 1) rotate(0) translate(4 324)">
<title>Terraria.GameContent.Events.BirthdayParty</title>
<!-- Node1 -->
<g id="Node000001" class="node">
<title>Node1</title>
<g id="a_Node000001"><a xlink:title=" ">
<polygon fill="#999999" stroke="transparent" points="220.5,-202 27.5,-202 27.5,0 220.5,0 220.5,-202"/>
<text text-anchor="start" x="51" y="-190" font-family="Helvetica,sans-Serif" font-size="10.00">Terraria.GameContent.Events.</text>
<text text-anchor="start" x="91" y="-179" font-family="Helvetica,sans-Serif" font-size="10.00">BirthdayParty</text>
<text text-anchor="start" x="32" y="-164" font-family="Helvetica,sans-Serif" font-size="10.00">+</text>
<text text-anchor="start" x="45" y="-164" font-family="Helvetica,sans-Serif" font-size="10.00">static bool PartyIsUp</text>
<text text-anchor="start" x="32" y="-149" font-family="Helvetica,sans-Serif" font-size="10.00">+</text>
<text text-anchor="start" x="45" y="-149" font-family="Helvetica,sans-Serif" font-size="10.00">BirthdayParty()</text>
<text text-anchor="start" x="32" y="-134" font-family="Helvetica,sans-Serif" font-size="10.00">+</text>
<text text-anchor="start" x="45" y="-134" font-family="Helvetica,sans-Serif" font-size="10.00">static void CheckMorning()</text>
<text text-anchor="start" x="32" y="-119" font-family="Helvetica,sans-Serif" font-size="10.00">+</text>
<text text-anchor="start" x="45" y="-119" font-family="Helvetica,sans-Serif" font-size="10.00">static void CheckNight()</text>
<text text-anchor="start" x="32" y="-104" font-family="Helvetica,sans-Serif" font-size="10.00">+</text>
<text text-anchor="start" x="45" y="-104" font-family="Helvetica,sans-Serif" font-size="10.00">static void ToggleManual</text>
<text text-anchor="start" x="45" y="-93" font-family="Helvetica,sans-Serif" font-size="10.00">Party()</text>
<text text-anchor="start" x="32" y="-78" font-family="Helvetica,sans-Serif" font-size="10.00">+</text>
<text text-anchor="start" x="45" y="-78" font-family="Helvetica,sans-Serif" font-size="10.00">static void WorldClear()</text>
<text text-anchor="start" x="32" y="-63" font-family="Helvetica,sans-Serif" font-size="10.00">+</text>
<text text-anchor="start" x="45" y="-63" font-family="Helvetica,sans-Serif" font-size="10.00">static void UpdateTime()</text>
<text text-anchor="start" x="34.5" y="-48" font-family="Helvetica,sans-Serif" font-size="10.00">&#45;</text>
<text text-anchor="start" x="45" y="-48" font-family="Helvetica,sans-Serif" font-size="10.00">static bool CanNPCParty</text>
<text text-anchor="start" x="45" y="-37" font-family="Helvetica,sans-Serif" font-size="10.00">(NPC n)</text>
<text text-anchor="start" x="34.5" y="-22" font-family="Helvetica,sans-Serif" font-size="10.00">&#45;</text>
<text text-anchor="start" x="45" y="-22" font-family="Helvetica,sans-Serif" font-size="10.00">static void NaturalAttempt()</text>
<text text-anchor="start" x="34.5" y="-7" font-family="Helvetica,sans-Serif" font-size="10.00">&#45;</text>
<text text-anchor="start" x="45" y="-7" font-family="Helvetica,sans-Serif" font-size="10.00">static void CheckForAchievement()</text>
<polygon fill="#666666" stroke="#666666" points="28,-174 28,-174 221,-174 221,-174 28,-174"/>
<polygon fill="#666666" stroke="#666666" points="28,-159 28,-159 43,-159 43,-159 28,-159"/>
<polygon fill="#666666" stroke="#666666" points="43,-159 43,-159 221,-159 221,-159 43,-159"/>
<polygon fill="none" stroke="#666666" points="27.5,0 27.5,-202 220.5,-202 220.5,0 27.5,0"/>
</a>
</g>
</g>
<!-- Node2 -->
<g id="Node000002" class="node">
<title>Node2</title>
<g id="a_Node000002"><a xlink:title=" ">
<polygon fill="white" stroke="transparent" points="32,-320 0,-320 0,-271 32,-271 32,-320"/>
<text text-anchor="start" x="5" y="-307.5" font-family="Helvetica,sans-Serif" font-size="10.00">bool</text>
<text text-anchor="start" x="14" y="-292.5" font-family="Helvetica,sans-Serif" font-size="10.00"> </text>
<text text-anchor="start" x="14" y="-277.5" font-family="Helvetica,sans-Serif" font-size="10.00"> </text>
<polygon fill="#666666" stroke="#666666" points="0,-302.5 0,-302.5 32,-302.5 32,-302.5 0,-302.5"/>
<polygon fill="#666666" stroke="#666666" points="0,-287.5 0,-287.5 32,-287.5 32,-287.5 0,-287.5"/>
<polygon fill="none" stroke="#666666" points="0,-271 0,-320 32,-320 32,-271 0,-271"/>
</a>
</g>
</g>
<!-- Node2&#45;&gt;Node1 -->
<g id="edge1_Node000001_Node000002" class="edge">
<title>Node2&#45;&gt;Node1</title>
<g id="a_edge1_Node000001_Node000002"><a xlink:title=" ">
<path fill="none" stroke="#63b8ff" d="M19.55,-270.85C22.41,-255.78 27.25,-236.12 35,-220 36.17,-217.56 37.4,-215.11 38.68,-212.68"/>
<polygon fill="none" stroke="#63b8ff" points="38.76,-212.54 38.16,-205.35 44.57,-202.03 45.16,-209.22 38.76,-212.54"/>
</a>
</g>
<text text-anchor="middle" x="77.5" y="-245" font-family="Helvetica,sans-Serif" font-size="10.00" fill="grey"> +GenuineParty</text>
<text text-anchor="middle" x="77.5" y="-234" font-family="Helvetica,sans-Serif" font-size="10.00" fill="grey">+ManualParty</text>
<text text-anchor="middle" x="77.5" y="-223" font-family="Helvetica,sans-Serif" font-size="10.00" fill="grey">&#45;_wasCelebrating</text>
</g>
<!-- Node3 -->
<g id="Node000003" class="node">
<title>Node3</title>
<g id="a_Node000003"><a xlink:title=" ">
<polygon fill="white" stroke="transparent" points="135.5,-320 112.5,-320 112.5,-271 135.5,-271 135.5,-320"/>
<text text-anchor="start" x="118" y="-307.5" font-family="Helvetica,sans-Serif" font-size="10.00">int</text>
<text text-anchor="start" x="122.5" y="-292.5" font-family="Helvetica,sans-Serif" font-size="10.00"> </text>
<text text-anchor="start" x="122.5" y="-277.5" font-family="Helvetica,sans-Serif" font-size="10.00"> </text>
<polygon fill="#666666" stroke="#666666" points="113,-302.5 113,-302.5 136,-302.5 136,-302.5 113,-302.5"/>
<polygon fill="#666666" stroke="#666666" points="113,-287.5 113,-287.5 136,-287.5 136,-287.5 113,-287.5"/>
<polygon fill="none" stroke="#666666" points="112.5,-271 112.5,-320 135.5,-320 135.5,-271 112.5,-271"/>
</a>
</g>
</g>
<!-- Node3&#45;&gt;Node1 -->
<g id="edge2_Node000001_Node000003" class="edge">
<title>Node3&#45;&gt;Node1</title>
<g id="a_edge2_Node000001_Node000003"><a xlink:title=" ">
<path fill="none" stroke="#63b8ff" d="M124,-270.9C124,-256.14 124,-235.94 124,-214.63"/>
<polygon fill="none" stroke="#63b8ff" points="124,-214.36 120,-208.36 124,-202.36 128,-208.36 124,-214.36"/>
</a>
</g>
<text text-anchor="middle" x="185.5" y="-234" font-family="Helvetica,sans-Serif" font-size="10.00" fill="grey"> +PartyDaysOnCooldown</text>
</g>
<!-- Node4 -->
<g id="Node000004" class="node">
<title>Node4</title>
<g id="a_Node000004"><a xlink:title=" ">
<polygon fill="white" stroke="transparent" points="301.5,-320 238.5,-320 238.5,-271 301.5,-271 301.5,-320"/>
<text text-anchor="start" x="244" y="-307.5" font-family="Helvetica,sans-Serif" font-size="10.00">List&lt; int &gt;</text>
<text text-anchor="start" x="268.5" y="-292.5" font-family="Helvetica,sans-Serif" font-size="10.00"> </text>
<text text-anchor="start" x="268.5" y="-277.5" font-family="Helvetica,sans-Serif" font-size="10.00"> </text>
<polygon fill="#666666" stroke="#666666" points="239,-302.5 239,-302.5 302,-302.5 302,-302.5 239,-302.5"/>
<polygon fill="#666666" stroke="#666666" points="239,-287.5 239,-287.5 302,-287.5 302,-287.5 239,-287.5"/>
<polygon fill="none" stroke="#666666" points="238.5,-271 238.5,-320 301.5,-320 301.5,-271 238.5,-271"/>
</a>
</g>
</g>
<!-- Node4&#45;&gt;Node1 -->
<g id="edge3_Node000001_Node000004" class="edge">
<title>Node4&#45;&gt;Node1</title>
<g id="a_edge3_Node000001_Node000004"><a xlink:title=" ">
<path fill="none" stroke="#63b8ff" d="M266.27,-270.71C263.09,-255.4 257.5,-235.53 248,-220 242.31,-210.69 235.7,-201.62 228.55,-192.92"/>
<polygon fill="none" stroke="#63b8ff" points="228.4,-192.75 221.46,-190.79 220.6,-183.63 227.54,-185.59 228.4,-192.75"/>
</a>
</g>
<text text-anchor="middle" x="308" y="-234" font-family="Helvetica,sans-Serif" font-size="10.00" fill="grey"> +CelebratingNPCs</text>
</g>
</g>
</svg>
