<?xml version="1.0" encoding="UTF-8" standalone="no"?>
<!DOCTYPE svg PUBLIC "-//W3C//DTD SVG 1.1//EN"
 "http://www.w3.org/Graphics/SVG/1.1/DTD/svg11.dtd">
<!-- Generated by graphviz version 2.43.0 (0)
 -->
<!-- Title: GUIControllerResearchPage4Page Pages: 1 -->
<!--zoomable 900 -->

<svg id="main" version="1.1" xmlns="http://www.w3.org/2000/svg" xmlns:xlink="http://www.w3.org/1999/xlink" xml:space="preserve" onload="init(evt)">
<style type="text/css"><![CDATA[
.node, .edge {opacity: 0.7;}
.node.selected, .edge.selected {opacity: 1;}
.edge:hover path { stroke: red; }
.edge:hover polygon { stroke: red; fill: red; }
]]></style>

<defs>
  <circle id="rim" cx="0" cy="0" r="7"/>
  <circle id="rim2" cx="0" cy="0" r="3.5"/>
  <g id="zoomPlus">
    <use xlink:href="#rim" fill="#404040"><set attributeName="fill" to="#808080" begin="zoomplus.mouseover" end="zoomplus.mouseout"/></use>
    <path d="M-4,0h8M0,-4v8" fill="none" stroke="white" stroke-width="1.5" pointer-events="none"/>
  </g>
  <g id="zoomMin">
    <use xlink:href="#rim" fill="#404040"><set attributeName="fill" to="#808080" begin="zoomminus.mouseover" end="zoomminus.mouseout"/></use>
    <path d="M-4,0h8" fill="none" stroke="white" stroke-width="1.5" pointer-events="none"/>
  </g>
  <g id="arrowUp" transform="translate(30 24)">
    <use xlink:href="#rim"/>
    <path pointer-events="none" fill="none" stroke="white" stroke-width="1.5" d="M0,-3.0v7 M-2.5,-0.5L0,-3.0L2.5,-0.5"/>
  </g>
  <g id="arrowRight" transform="rotate(90) translate(36 -43)">
    <use xlink:href="#rim"/>
    <path pointer-events="none" fill="none" stroke="white" stroke-width="1.5" d="M0,-3.0v7 M-2.5,-0.5L0,-3.0L2.5,-0.5"/>
  </g>
  <g id="arrowDown" transform="rotate(180) translate(-30 -48)">
    <use xlink:href="#rim"/>
    <path pointer-events="none" fill="none" stroke="white" stroke-width="1.5" d="M0,-3.0v7 M-2.5,-0.5L0,-3.0L2.5,-0.5"/>
  </g>
  <g id="arrowLeft" transform="rotate(270) translate(-36 17)">
    <use xlink:href="#rim"/>
    <path pointer-events="none" fill="none" stroke="white" stroke-width="1.5" d="M0,-3.0v7 M-2.5,-0.5L0,-3.0L2.5,-0.5"/>
  </g>
  <g id="resetDef">
    <use xlink:href="#rim2" fill="#404040"><set attributeName="fill" to="#808080" begin="reset.mouseover" end="reset.mouseout"/></use>
  </g>
</defs>
<script type="application/ecmascript">
var viewWidth = 221;
var viewHeight = 900;
var sectionId = 'dynsection-0';
</script>
<script type="application/ecmascript" xlink:href="../../svg.min.js"/>
<svg id="graph" class="graph">
<g id="viewport">
<title>GUIControllerResearchPage4Page</title>
<!-- Node1 -->
<g id="Node000001" class="node">
<title>Node1</title>
<g id="a_Node000001"><a xlink:title=" ">
<polygon fill="#999999" stroke="transparent" points="206,-358 7,-358 7,0 206,0 206,-358"/>
<text text-anchor="start" x="25" y="-346" font-family="Helvetica,sans-Serif" font-size="10.00">GUIControllerResearchPage4Page</text>
<text text-anchor="start" x="11.5" y="-331" font-family="Helvetica,sans-Serif" font-size="10.00">+</text>
<text text-anchor="start" x="24.5" y="-331" font-family="Helvetica,sans-Serif" font-size="10.00">GUIControllerDynamicGrid</text>
<text text-anchor="start" x="24.5" y="-320" font-family="Helvetica,sans-Serif" font-size="10.00">Navigator GridNav</text>
<text text-anchor="start" x="14" y="-305" font-family="Helvetica,sans-Serif" font-size="10.00">&#45;</text>
<text text-anchor="start" x="24.5" y="-305" font-family="Helvetica,sans-Serif" font-size="10.00">GUIControllerDynamicGrid</text>
<text text-anchor="start" x="24.5" y="-294" font-family="Helvetica,sans-Serif" font-size="10.00">Navigator _gridNav</text>
<text text-anchor="start" x="11.5" y="-279" font-family="Helvetica,sans-Serif" font-size="10.00">+</text>
<text text-anchor="start" x="24.5" y="-279" font-family="Helvetica,sans-Serif" font-size="10.00">GUIControllerResearchPage4</text>
<text text-anchor="start" x="24.5" y="-268" font-family="Helvetica,sans-Serif" font-size="10.00">Page()</text>
<text text-anchor="start" x="11.5" y="-253" font-family="Helvetica,sans-Serif" font-size="10.00">+</text>
<text text-anchor="start" x="24.5" y="-253" font-family="Helvetica,sans-Serif" font-size="10.00">bool IsInMenu()</text>
<text text-anchor="start" x="11.5" y="-238" font-family="Helvetica,sans-Serif" font-size="10.00">+</text>
<text text-anchor="start" x="24.5" y="-238" font-family="Helvetica,sans-Serif" font-size="10.00">override void Activate()</text>
<text text-anchor="start" x="11.5" y="-223" font-family="Helvetica,sans-Serif" font-size="10.00">+</text>
<text text-anchor="start" x="24.5" y="-223" font-family="Helvetica,sans-Serif" font-size="10.00">override int GetNavigation</text>
<text text-anchor="start" x="24.5" y="-212" font-family="Helvetica,sans-Serif" font-size="10.00">OutDirs()</text>
<text text-anchor="start" x="11.5" y="-197" font-family="Helvetica,sans-Serif" font-size="10.00">+</text>
<text text-anchor="start" x="24.5" y="-197" font-family="Helvetica,sans-Serif" font-size="10.00">override GUIControllerItem</text>
<text text-anchor="start" x="24.5" y="-186" font-family="Helvetica,sans-Serif" font-size="10.00"> Navigate(Vector2 navigationVector)</text>
<text text-anchor="start" x="11.5" y="-171" font-family="Helvetica,sans-Serif" font-size="10.00">+</text>
<text text-anchor="start" x="24.5" y="-171" font-family="Helvetica,sans-Serif" font-size="10.00">override Rectangle</text>
<text text-anchor="start" x="24.5" y="-160" font-family="Helvetica,sans-Serif" font-size="10.00"> GetSelectedItemRegion()</text>
<text text-anchor="start" x="11.5" y="-145" font-family="Helvetica,sans-Serif" font-size="10.00">+</text>
<text text-anchor="start" x="24.5" y="-145" font-family="Helvetica,sans-Serif" font-size="10.00">override void NavigateInto</text>
<text text-anchor="start" x="24.5" y="-134" font-family="Helvetica,sans-Serif" font-size="10.00">(int column, int row)</text>
<text text-anchor="start" x="14" y="-119" font-family="Helvetica,sans-Serif" font-size="10.00">&#45;</text>
<text text-anchor="start" x="24.5" y="-119" font-family="Helvetica,sans-Serif" font-size="10.00">DraggableItemGrid_Layout</text>
<text text-anchor="start" x="24.5" y="-108" font-family="Helvetica,sans-Serif" font-size="10.00"> GetGrid()</text>
<text text-anchor="start" x="14" y="-93" font-family="Helvetica,sans-Serif" font-size="10.00">&#45;</text>
<text text-anchor="start" x="24.5" y="-93" font-family="Helvetica,sans-Serif" font-size="10.00">int GetCollectionCount()</text>
<text text-anchor="start" x="14" y="-78" font-family="Helvetica,sans-Serif" font-size="10.00">&#45;</text>
<text text-anchor="start" x="24.5" y="-78" font-family="Helvetica,sans-Serif" font-size="10.00">float GetItemScale()</text>
<text text-anchor="start" x="14" y="-63" font-family="Helvetica,sans-Serif" font-size="10.00">&#45;</text>
<text text-anchor="start" x="24.5" y="-63" font-family="Helvetica,sans-Serif" font-size="10.00">float GetScrollOffset()</text>
<text text-anchor="start" x="14" y="-48" font-family="Helvetica,sans-Serif" font-size="10.00">&#45;</text>
<text text-anchor="start" x="24.5" y="-48" font-family="Helvetica,sans-Serif" font-size="10.00">void SetScrollOffset</text>
<text text-anchor="start" x="24.5" y="-37" font-family="Helvetica,sans-Serif" font-size="10.00">(float offset)</text>
<text text-anchor="start" x="14" y="-22" font-family="Helvetica,sans-Serif" font-size="10.00">&#45;</text>
<text text-anchor="start" x="24.5" y="-22" font-family="Helvetica,sans-Serif" font-size="10.00">int GetMenuItemCount()</text>
<text text-anchor="start" x="14" y="-7" font-family="Helvetica,sans-Serif" font-size="10.00">&#45;</text>
<text text-anchor="start" x="24.5" y="-7" font-family="Helvetica,sans-Serif" font-size="10.00">int GetDisplayItemCount()</text>
<polygon fill="#666666" stroke="#666666" points="7.5,-341 7.5,-341 206.5,-341 206.5,-341 7.5,-341"/>
<polygon fill="#666666" stroke="#666666" points="7.5,-289 7.5,-289 22.5,-289 22.5,-289 7.5,-289"/>
<polygon fill="#666666" stroke="#666666" points="22.5,-289 22.5,-289 206.5,-289 206.5,-289 22.5,-289"/>
<polygon fill="none" stroke="#666666" points="7,0 7,-358 206,-358 206,0 7,0"/>
</a>
</g>
</g>
<!-- Node2 -->
<g id="Node000002" class="node">
<title>Node2</title>
<g id="a_Node000002"><a xlink:href="../../d4/d82/classGUIPageContentController.html" target="_top" xlink:title=" ">
<polygon fill="white" stroke="transparent" points="213,-740 0,-740 0,-394 213,-394 213,-740"/>
<text text-anchor="start" x="43" y="-728" font-family="Helvetica,sans-Serif" font-size="10.00">GUIPageContentController</text>
<text text-anchor="start" x="4.5" y="-713" font-family="Helvetica,sans-Serif" font-size="10.00">+</text>
<text text-anchor="start" x="17.5" y="-713" font-family="Helvetica,sans-Serif" font-size="10.00">int ResearchButton</text>
<text text-anchor="start" x="4.5" y="-698" font-family="Helvetica,sans-Serif" font-size="10.00">+</text>
<text text-anchor="start" x="17.5" y="-698" font-family="Helvetica,sans-Serif" font-size="10.00">GUIPageIconGrouping</text>
<text text-anchor="start" x="17.5" y="-687" font-family="Helvetica,sans-Serif" font-size="10.00"> ParentGrouping</text>
<text text-anchor="start" x="7" y="-672" font-family="Helvetica,sans-Serif" font-size="10.00">&#45;</text>
<text text-anchor="start" x="17.5" y="-672" font-family="Helvetica,sans-Serif" font-size="10.00">readonly GUIPageIcons.Category</text>
<text text-anchor="start" x="17.5" y="-661" font-family="Helvetica,sans-Serif" font-size="10.00"> PageCategory</text>
<text text-anchor="start" x="7" y="-646" font-family="Helvetica,sans-Serif" font-size="10.00">&#45;</text>
<text text-anchor="start" x="17.5" y="-646" font-family="Helvetica,sans-Serif" font-size="10.00">readonly GUIPageIconGrouping.</text>
<text text-anchor="start" x="17.5" y="-635" font-family="Helvetica,sans-Serif" font-size="10.00">SettingCategory SettingCategory</text>
<text text-anchor="start" x="4.5" y="-620" font-family="Helvetica,sans-Serif" font-size="10.00">+</text>
<text text-anchor="start" x="17.5" y="-620" font-family="Helvetica,sans-Serif" font-size="10.00">virtual int GetNavigation</text>
<text text-anchor="start" x="17.5" y="-609" font-family="Helvetica,sans-Serif" font-size="10.00">OutDirs()</text>
<text text-anchor="start" x="4.5" y="-594" font-family="Helvetica,sans-Serif" font-size="10.00">+</text>
<text text-anchor="start" x="17.5" y="-594" font-family="Helvetica,sans-Serif" font-size="10.00">bool IsPageContoller</text>
<text text-anchor="start" x="17.5" y="-583" font-family="Helvetica,sans-Serif" font-size="10.00">(GUIControllerItem item)</text>
<text text-anchor="start" x="4.5" y="-568" font-family="Helvetica,sans-Serif" font-size="10.00">+</text>
<text text-anchor="start" x="17.5" y="-568" font-family="Helvetica,sans-Serif" font-size="10.00">void LoadPageAnchor()</text>
<text text-anchor="start" x="4.5" y="-553" font-family="Helvetica,sans-Serif" font-size="10.00">+</text>
<text text-anchor="start" x="17.5" y="-553" font-family="Helvetica,sans-Serif" font-size="10.00">virtual void Activate()</text>
<text text-anchor="start" x="4.5" y="-538" font-family="Helvetica,sans-Serif" font-size="10.00">+</text>
<text text-anchor="start" x="17.5" y="-538" font-family="Helvetica,sans-Serif" font-size="10.00">virtual GUIControllerItem</text>
<text text-anchor="start" x="17.5" y="-527" font-family="Helvetica,sans-Serif" font-size="10.00"> Navigate(Vector2 navigationVector)</text>
<text text-anchor="start" x="4.5" y="-512" font-family="Helvetica,sans-Serif" font-size="10.00">+</text>
<text text-anchor="start" x="17.5" y="-512" font-family="Helvetica,sans-Serif" font-size="10.00">virtual Rectangle GetSelected</text>
<text text-anchor="start" x="17.5" y="-501" font-family="Helvetica,sans-Serif" font-size="10.00">ItemRegion()</text>
<text text-anchor="start" x="4.5" y="-486" font-family="Helvetica,sans-Serif" font-size="10.00">+</text>
<text text-anchor="start" x="17.5" y="-486" font-family="Helvetica,sans-Serif" font-size="10.00">virtual void NavigateInto</text>
<text text-anchor="start" x="17.5" y="-475" font-family="Helvetica,sans-Serif" font-size="10.00">(int column, int row)</text>
<text text-anchor="start" x="4.5" y="-460" font-family="Helvetica,sans-Serif" font-size="10.00">#</text>
<text text-anchor="start" x="17.5" y="-460" font-family="Helvetica,sans-Serif" font-size="10.00">GUIPageContentController</text>
<text text-anchor="start" x="17.5" y="-449" font-family="Helvetica,sans-Serif" font-size="10.00">(GUIPageIcons.Category</text>
<text text-anchor="start" x="17.5" y="-438" font-family="Helvetica,sans-Serif" font-size="10.00"> pageCategory)</text>
<text text-anchor="start" x="4.5" y="-423" font-family="Helvetica,sans-Serif" font-size="10.00">#</text>
<text text-anchor="start" x="17.5" y="-423" font-family="Helvetica,sans-Serif" font-size="10.00">GUIPageContentController</text>
<text text-anchor="start" x="17.5" y="-412" font-family="Helvetica,sans-Serif" font-size="10.00">(GUIPageIconGrouping.SettingCategory</text>
<text text-anchor="start" x="17.5" y="-401" font-family="Helvetica,sans-Serif" font-size="10.00"> settingCategory)</text>
<polygon fill="#666666" stroke="#666666" points="0.5,-723 0.5,-723 213.5,-723 213.5,-723 0.5,-723"/>
<polygon fill="#666666" stroke="#666666" points="0.5,-630 0.5,-630 15.5,-630 15.5,-630 0.5,-630"/>
<polygon fill="#666666" stroke="#666666" points="15.5,-630 15.5,-630 213.5,-630 213.5,-630 15.5,-630"/>
<polygon fill="none" stroke="#666666" points="0,-394 0,-740 213,-740 213,-394 0,-394"/>
</a>
</g>
</g>
<!-- Node2&#45;&gt;Node1 -->
<g id="edge1_Node000001_Node000002" class="edge">
<title>Node2&#45;&gt;Node1</title>
<g id="a_edge1_Node000001_Node000002"><a xlink:title=" ">
<path fill="none" stroke="#63b8ff" d="M106.5,-383.86C106.5,-375.3 106.5,-366.71 106.5,-358.16"/>
<polygon fill="none" stroke="#63b8ff" points="103,-383.88 106.5,-393.88 110,-383.88 103,-383.88"/>
</a>
</g>
</g>
<!-- Node3 -->
<g id="Node000003" class="node">
<title>Node3</title>
<g id="a_Node000003"><a xlink:href="../../d1/d1a/interfaceGUIControllerItem.html" target="_top" xlink:title=" ">
<polygon fill="white" stroke="transparent" points="185,-892 28,-892 28,-776 185,-776 185,-892"/>
<text text-anchor="start" x="62.5" y="-880" font-family="Helvetica,sans-Serif" font-size="10.00">GUIControllerItem</text>
<text text-anchor="start" x="105" y="-865" font-family="Helvetica,sans-Serif" font-size="10.00"> </text>
<text text-anchor="start" x="32.5" y="-850" font-family="Helvetica,sans-Serif" font-size="10.00">+</text>
<text text-anchor="start" x="45.5" y="-850" font-family="Helvetica,sans-Serif" font-size="10.00">void Activate()</text>
<text text-anchor="start" x="32.5" y="-835" font-family="Helvetica,sans-Serif" font-size="10.00">+</text>
<text text-anchor="start" x="45.5" y="-835" font-family="Helvetica,sans-Serif" font-size="10.00">GUIControllerItem Navigate</text>
<text text-anchor="start" x="45.5" y="-824" font-family="Helvetica,sans-Serif" font-size="10.00">(Vector2 navigationVector)</text>
<text text-anchor="start" x="32.5" y="-809" font-family="Helvetica,sans-Serif" font-size="10.00">+</text>
<text text-anchor="start" x="45.5" y="-809" font-family="Helvetica,sans-Serif" font-size="10.00">Rectangle GetSelectedItem</text>
<text text-anchor="start" x="45.5" y="-798" font-family="Helvetica,sans-Serif" font-size="10.00">Region()</text>
<text text-anchor="start" x="32.5" y="-783" font-family="Helvetica,sans-Serif" font-size="10.00">+</text>
<text text-anchor="start" x="45.5" y="-783" font-family="Helvetica,sans-Serif" font-size="10.00">int GetNavigationOutDirs()</text>
<polygon fill="#666666" stroke="#666666" points="28.5,-875 28.5,-875 185.5,-875 185.5,-875 28.5,-875"/>
<polygon fill="#666666" stroke="#666666" points="28.5,-860 28.5,-860 185.5,-860 185.5,-860 28.5,-860"/>
<polygon fill="none" stroke="#666666" points="28,-776 28,-892 185,-892 185,-776 28,-776"/>
</a>
</g>
</g>
<!-- Node3&#45;&gt;Node2 -->
<g id="edge2_Node000002_Node000003" class="edge">
<title>Node3&#45;&gt;Node2</title>
<g id="a_edge2_Node000002_Node000003"><a xlink:title=" ">
<path fill="none" stroke="#63b8ff" d="M106.5,-765.74C106.5,-757.58 106.5,-748.98 106.5,-740.12"/>
<polygon fill="none" stroke="#63b8ff" points="103,-765.83 106.5,-775.83 110,-765.83 103,-765.83"/>
</a>
</g>
</g>
</g>
</svg>

<g id="navigator" transform="translate(0 0)" fill="#404254">
  <rect fill="#f2f5e9" fill-opacity="0.5" stroke="#606060" stroke-width=".5" x="0" y="0" width="60" height="60"/>
  <use id="zoomplus" xlink:href="#zoomPlus" x="17" y="9" onmousedown="handleZoom(evt,'in')"/>
  <use id="zoomminus" xlink:href="#zoomMin" x="42" y="9" onmousedown="handleZoom(evt,'out')"/>
  <use id="reset" xlink:href="#resetDef" x="30" y="36" onmousedown="handleReset()"/>
   <use id="arrowup" xlink:href="#arrowUp" x="0" y="0" onmousedown="handlePan(0,-1)"/>
  <use id="arrowright" xlink:href="#arrowRight" x="0" y="0" onmousedown="handlePan(1,0)"/>
  <use id="arrowdown" xlink:href="#arrowDown" x="0" y="0" onmousedown="handlePan(0,1)"/>
  <use id="arrowleft" xlink:href="#arrowLeft" x="0" y="0" onmousedown="handlePan(-1,0)"/>
</g>
<svg viewBox="0 0 15 15" width="100%" height="30px" preserveAspectRatio="xMaxYMin meet">
 <g id="arrow_out" transform="scale(0.3 0.3)">
  <a xlink:href="classGUIControllerResearchPage4Page__inherit__graph_org.svg" target="_base">
   <rect id="button" ry="5" rx="5" y="6" x="6" height="38" width="38"
        fill="#f2f5e9" fill-opacity="0.5" stroke="#606060" stroke-width="1.0"/>
   <path id="arrow"
     d="M 11.500037,31.436501 C 11.940474,20.09759 22.043105,11.32322 32.158766,21.979434 L 37.068811,17.246167 C 37.068811,17.246167 37.088388,32 37.088388,32 L 22.160133,31.978069 C 22.160133,31.978069 26.997745,27.140456 26.997745,27.140456 C 18.528582,18.264221 13.291696,25.230495 11.500037,31.436501 z"
     style="fill:#404040;"/>
  </a>
 </g>
</svg>

<style type='text/css'>
<![CDATA[
[data-mouse-over-selected='false'] { opacity: 0.7; }
[data-mouse-over-selected='true']  { opacity: 1.0; }
]]>
</style>
<script type="application/ecmascript"><![CDATA[
document.addEventListener('DOMContentLoaded', (event) => {
  highlightEdges();
  highlightAdjacentNodes();
});
]]></script>
</svg>
