<?xml version="1.0" encoding="UTF-8" standalone="no"?>
<!DOCTYPE svg PUBLIC "-//W3C//DTD SVG 1.1//EN"
 "http://www.w3.org/Graphics/SVG/1.1/DTD/svg11.dtd">
<!-- Generated by graphviz version 2.43.0 (0)
 -->
<!-- Title: UnityEngine.AsyncOperation Pages: 1 -->
<svg width="692pt" height="1035pt"
 viewBox="0.00 0.00 691.50 1035.00" xmlns="http://www.w3.org/2000/svg" xmlns:xlink="http://www.w3.org/1999/xlink">
<g id="graph0" class="graph" transform="scale(1 1) rotate(0) translate(4 1031)">
<title>UnityEngine.AsyncOperation</title>
<!-- Node1 -->
<g id="Node000001" class="node">
<title>Node1</title>
<g id="a_Node000001"><a xlink:title=" ">
<polygon fill="#999999" stroke="transparent" points="332,-105 163,-105 163,0 332,0 332,-105"/>
<text text-anchor="start" x="178" y="-92.5" font-family="Helvetica,sans-Serif" font-size="10.00">UnityEngine.AsyncOperation</text>
<text text-anchor="start" x="167.5" y="-77.5" font-family="Helvetica,sans-Serif" font-size="10.00">+</text>
<text text-anchor="start" x="180.5" y="-77.5" font-family="Helvetica,sans-Serif" font-size="10.00">bool isDone</text>
<text text-anchor="start" x="167.5" y="-62.5" font-family="Helvetica,sans-Serif" font-size="10.00">+</text>
<text text-anchor="start" x="180.5" y="-62.5" font-family="Helvetica,sans-Serif" font-size="10.00">AsyncOperation()</text>
<text text-anchor="start" x="167.5" y="-47.5" font-family="Helvetica,sans-Serif" font-size="10.00">~</text>
<text text-anchor="start" x="180.5" y="-47.5" font-family="Helvetica,sans-Serif" font-size="10.00">void InvokeCompletionEvent()</text>
<text text-anchor="start" x="167.5" y="-32.5" font-family="Helvetica,sans-Serif" font-size="10.00">#</text>
<text text-anchor="start" x="180.5" y="-32.5" font-family="Helvetica,sans-Serif" font-size="10.00">override void Finalize()</text>
<text text-anchor="start" x="170" y="-17.5" font-family="Helvetica,sans-Serif" font-size="10.00">&#45;</text>
<text text-anchor="start" x="180.5" y="-17.5" font-family="Helvetica,sans-Serif" font-size="10.00">static void InternalDestroy</text>
<text text-anchor="start" x="180.5" y="-6.5" font-family="Helvetica,sans-Serif" font-size="10.00">(IntPtr ptr)</text>
<polygon fill="#666666" stroke="#666666" points="163.5,-87.5 163.5,-87.5 332.5,-87.5 332.5,-87.5 163.5,-87.5"/>
<polygon fill="#666666" stroke="#666666" points="163.5,-72.5 163.5,-72.5 178.5,-72.5 178.5,-72.5 163.5,-72.5"/>
<polygon fill="#666666" stroke="#666666" points="178.5,-72.5 178.5,-72.5 332.5,-72.5 332.5,-72.5 178.5,-72.5"/>
<polygon fill="none" stroke="#666666" points="163,0 163,-105 332,-105 332,0 163,0"/>
</a>
</g>
</g>
<!-- Node2 -->
<g id="Node000002" class="node">
<title>Node2</title>
<g id="a_Node000002"><a xlink:href="../../de/dfc/classUnityEngine_1_1YieldInstruction.html" target="_top" xlink:title=" ">
<polygon fill="white" stroke="transparent" points="105,-560.5 0,-560.5 0,-511.5 105,-511.5 105,-560.5"/>
<text text-anchor="start" x="15" y="-548" font-family="Helvetica,sans-Serif" font-size="10.00">YieldInstruction</text>
<text text-anchor="start" x="51" y="-533" font-family="Helvetica,sans-Serif" font-size="10.00"> </text>
<text text-anchor="start" x="4.5" y="-518" font-family="Helvetica,sans-Serif" font-size="10.00">+</text>
<text text-anchor="start" x="17.5" y="-518" font-family="Helvetica,sans-Serif" font-size="10.00">YieldInstruction()</text>
<polygon fill="#666666" stroke="#666666" points="0.5,-543 0.5,-543 105.5,-543 105.5,-543 0.5,-543"/>
<polygon fill="#666666" stroke="#666666" points="0.5,-528 0.5,-528 105.5,-528 105.5,-528 0.5,-528"/>
<polygon fill="none" stroke="#666666" points="0,-511.5 0,-560.5 105,-560.5 105,-511.5 0,-511.5"/>
</a>
</g>
</g>
<!-- Node2&#45;&gt;Node1 -->
<g id="edge1_Node000001_Node000002" class="edge">
<title>Node2&#45;&gt;Node1</title>
<g id="a_edge1_Node000001_Node000002"><a xlink:title=" ">
<path fill="none" stroke="#63b8ff" d="M49.72,-501.28C45.55,-430.83 44.5,-265.2 113.5,-152 125.75,-131.91 143.78,-114.62 162.67,-100.4"/>
<polygon fill="none" stroke="#63b8ff" points="46.23,-501.61 50.38,-511.36 53.22,-501.15 46.23,-501.61"/>
</a>
</g>
</g>
<!-- Node3 -->
<g id="Node000003" class="node">
<title>Node3</title>
<g id="a_Node000003"><a xlink:href="../../db/db4/structSystem_1_1IntPtr.html" target="_top" xlink:title=" ">
<polygon fill="white" stroke="transparent" points="372,-920 123,-920 123,-152 372,-152 372,-920"/>
<text text-anchor="start" x="214.5" y="-908" font-family="Helvetica,sans-Serif" font-size="10.00">System.IntPtr</text>
<text text-anchor="start" x="127.5" y="-893" font-family="Helvetica,sans-Serif" font-size="10.00">+</text>
<text text-anchor="start" x="140.5" y="-893" font-family="Helvetica,sans-Serif" font-size="10.00">static unsafe int Size</text>
<text text-anchor="start" x="127.5" y="-878" font-family="Helvetica,sans-Serif" font-size="10.00">+</text>
<text text-anchor="start" x="140.5" y="-878" font-family="Helvetica,sans-Serif" font-size="10.00">IntPtr(int value)</text>
<text text-anchor="start" x="127.5" y="-863" font-family="Helvetica,sans-Serif" font-size="10.00">+</text>
<text text-anchor="start" x="140.5" y="-863" font-family="Helvetica,sans-Serif" font-size="10.00">IntPtr(long value)</text>
<text text-anchor="start" x="127.5" y="-848" font-family="Helvetica,sans-Serif" font-size="10.00">+</text>
<text text-anchor="start" x="140.5" y="-848" font-family="Helvetica,sans-Serif" font-size="10.00">unsafe IntPtr(void</text>
<text text-anchor="start" x="140.5" y="-837" font-family="Helvetica,sans-Serif" font-size="10.00"> *value)</text>
<text text-anchor="start" x="127.5" y="-822" font-family="Helvetica,sans-Serif" font-size="10.00">+</text>
<text text-anchor="start" x="140.5" y="-822" font-family="Helvetica,sans-Serif" font-size="10.00">override bool Equals</text>
<text text-anchor="start" x="140.5" y="-811" font-family="Helvetica,sans-Serif" font-size="10.00">(object obj)</text>
<text text-anchor="start" x="127.5" y="-796" font-family="Helvetica,sans-Serif" font-size="10.00">+</text>
<text text-anchor="start" x="140.5" y="-796" font-family="Helvetica,sans-Serif" font-size="10.00">override int GetHashCode()</text>
<text text-anchor="start" x="127.5" y="-781" font-family="Helvetica,sans-Serif" font-size="10.00">+</text>
<text text-anchor="start" x="140.5" y="-781" font-family="Helvetica,sans-Serif" font-size="10.00">long ToInt64()</text>
<text text-anchor="start" x="127.5" y="-766" font-family="Helvetica,sans-Serif" font-size="10.00">+</text>
<text text-anchor="start" x="140.5" y="-766" font-family="Helvetica,sans-Serif" font-size="10.00">unsafe void * ToPointer()</text>
<text text-anchor="start" x="127.5" y="-751" font-family="Helvetica,sans-Serif" font-size="10.00">+</text>
<text text-anchor="start" x="140.5" y="-751" font-family="Helvetica,sans-Serif" font-size="10.00">override string ToString()</text>
<text text-anchor="start" x="127.5" y="-736" font-family="Helvetica,sans-Serif" font-size="10.00">+</text>
<text text-anchor="start" x="140.5" y="-736" font-family="Helvetica,sans-Serif" font-size="10.00">string ToString(string</text>
<text text-anchor="start" x="140.5" y="-725" font-family="Helvetica,sans-Serif" font-size="10.00"> format)</text>
<text text-anchor="start" x="127.5" y="-710" font-family="Helvetica,sans-Serif" font-size="10.00">+</text>
<text text-anchor="start" x="140.5" y="-710" font-family="Helvetica,sans-Serif" font-size="10.00">static bool operator</text>
<text text-anchor="start" x="140.5" y="-699" font-family="Helvetica,sans-Serif" font-size="10.00">==(global::System.IntPtr</text>
<text text-anchor="start" x="140.5" y="-688" font-family="Helvetica,sans-Serif" font-size="10.00"> value1, global::System.IntPtr</text>
<text text-anchor="start" x="140.5" y="-677" font-family="Helvetica,sans-Serif" font-size="10.00"> value2)</text>
<text text-anchor="start" x="127.5" y="-662" font-family="Helvetica,sans-Serif" font-size="10.00">+</text>
<text text-anchor="start" x="140.5" y="-662" font-family="Helvetica,sans-Serif" font-size="10.00">static bool operator!</text>
<text text-anchor="start" x="140.5" y="-651" font-family="Helvetica,sans-Serif" font-size="10.00">=(global::System.IntPtr</text>
<text text-anchor="start" x="140.5" y="-640" font-family="Helvetica,sans-Serif" font-size="10.00"> value1, global::System.IntPtr</text>
<text text-anchor="start" x="140.5" y="-629" font-family="Helvetica,sans-Serif" font-size="10.00"> value2)</text>
<text text-anchor="start" x="127.5" y="-614" font-family="Helvetica,sans-Serif" font-size="10.00">+</text>
<text text-anchor="start" x="140.5" y="-614" font-family="Helvetica,sans-Serif" font-size="10.00">static operator global</text>
<text text-anchor="start" x="140.5" y="-603" font-family="Helvetica,sans-Serif" font-size="10.00">::System.IntPtr(int value)</text>
<text text-anchor="start" x="127.5" y="-588" font-family="Helvetica,sans-Serif" font-size="10.00">+</text>
<text text-anchor="start" x="140.5" y="-588" font-family="Helvetica,sans-Serif" font-size="10.00">static operator global</text>
<text text-anchor="start" x="140.5" y="-577" font-family="Helvetica,sans-Serif" font-size="10.00">::System.IntPtr(long value)</text>
<text text-anchor="start" x="127.5" y="-562" font-family="Helvetica,sans-Serif" font-size="10.00">+</text>
<text text-anchor="start" x="140.5" y="-562" font-family="Helvetica,sans-Serif" font-size="10.00">static unsafe operator</text>
<text text-anchor="start" x="140.5" y="-551" font-family="Helvetica,sans-Serif" font-size="10.00"> global::System.IntPtr</text>
<text text-anchor="start" x="140.5" y="-540" font-family="Helvetica,sans-Serif" font-size="10.00">(void *value)</text>
<text text-anchor="start" x="127.5" y="-525" font-family="Helvetica,sans-Serif" font-size="10.00">+</text>
<text text-anchor="start" x="140.5" y="-525" font-family="Helvetica,sans-Serif" font-size="10.00">static operator int</text>
<text text-anchor="start" x="140.5" y="-514" font-family="Helvetica,sans-Serif" font-size="10.00">(global::System.IntPtr</text>
<text text-anchor="start" x="140.5" y="-503" font-family="Helvetica,sans-Serif" font-size="10.00"> value)</text>
<text text-anchor="start" x="127.5" y="-488" font-family="Helvetica,sans-Serif" font-size="10.00">+</text>
<text text-anchor="start" x="140.5" y="-488" font-family="Helvetica,sans-Serif" font-size="10.00">static operator long</text>
<text text-anchor="start" x="140.5" y="-477" font-family="Helvetica,sans-Serif" font-size="10.00">(global::System.IntPtr</text>
<text text-anchor="start" x="140.5" y="-466" font-family="Helvetica,sans-Serif" font-size="10.00"> value)</text>
<text text-anchor="start" x="127.5" y="-451" font-family="Helvetica,sans-Serif" font-size="10.00">+</text>
<text text-anchor="start" x="140.5" y="-451" font-family="Helvetica,sans-Serif" font-size="10.00">static unsafe operator</text>
<text text-anchor="start" x="140.5" y="-440" font-family="Helvetica,sans-Serif" font-size="10.00"> void *(global::System.IntPtr</text>
<text text-anchor="start" x="140.5" y="-429" font-family="Helvetica,sans-Serif" font-size="10.00"> value)</text>
<text text-anchor="start" x="127.5" y="-414" font-family="Helvetica,sans-Serif" font-size="10.00">+</text>
<text text-anchor="start" x="140.5" y="-414" font-family="Helvetica,sans-Serif" font-size="10.00">static global::System.Int</text>
<text text-anchor="start" x="140.5" y="-403" font-family="Helvetica,sans-Serif" font-size="10.00">Ptr Add(global::System.IntPtr</text>
<text text-anchor="start" x="140.5" y="-392" font-family="Helvetica,sans-Serif" font-size="10.00"> pointer, int offset)</text>
<text text-anchor="start" x="127.5" y="-377" font-family="Helvetica,sans-Serif" font-size="10.00">+</text>
<text text-anchor="start" x="140.5" y="-377" font-family="Helvetica,sans-Serif" font-size="10.00">static global::System.Int</text>
<text text-anchor="start" x="140.5" y="-366" font-family="Helvetica,sans-Serif" font-size="10.00">Ptr operator+(global::System.Int</text>
<text text-anchor="start" x="140.5" y="-355" font-family="Helvetica,sans-Serif" font-size="10.00">Ptr pointer, int offset)</text>
<text text-anchor="start" x="127.5" y="-340" font-family="Helvetica,sans-Serif" font-size="10.00">+</text>
<text text-anchor="start" x="140.5" y="-340" font-family="Helvetica,sans-Serif" font-size="10.00">static global::System.Int</text>
<text text-anchor="start" x="140.5" y="-329" font-family="Helvetica,sans-Serif" font-size="10.00">Ptr operator&#45;(global::System.Int</text>
<text text-anchor="start" x="140.5" y="-318" font-family="Helvetica,sans-Serif" font-size="10.00">Ptr pointer, int offset)</text>
<text text-anchor="start" x="127.5" y="-303" font-family="Helvetica,sans-Serif" font-size="10.00">~</text>
<text text-anchor="start" x="140.5" y="-303" font-family="Helvetica,sans-Serif" font-size="10.00">bool IsNull()</text>
<text text-anchor="start" x="130" y="-288" font-family="Helvetica,sans-Serif" font-size="10.00">&#45;</text>
<text text-anchor="start" x="140.5" y="-288" font-family="Helvetica,sans-Serif" font-size="10.00">IntPtr(global::System.Runtime.</text>
<text text-anchor="start" x="140.5" y="-277" font-family="Helvetica,sans-Serif" font-size="10.00">Serialization.SerializationInfo</text>
<text text-anchor="start" x="140.5" y="-266" font-family="Helvetica,sans-Serif" font-size="10.00"> info, global::System.Runtime.Serialization.</text>
<text text-anchor="start" x="140.5" y="-255" font-family="Helvetica,sans-Serif" font-size="10.00">StreamingContext context)</text>
<text text-anchor="start" x="130" y="-240" font-family="Helvetica,sans-Serif" font-size="10.00">&#45;</text>
<text text-anchor="start" x="140.5" y="-240" font-family="Helvetica,sans-Serif" font-size="10.00">void System.Runtime.Serialization.</text>
<text text-anchor="start" x="140.5" y="-229" font-family="Helvetica,sans-Serif" font-size="10.00">ISerializable. GetObjectData</text>
<text text-anchor="start" x="140.5" y="-218" font-family="Helvetica,sans-Serif" font-size="10.00">(global::System.Runtime.Serialization.</text>
<text text-anchor="start" x="140.5" y="-207" font-family="Helvetica,sans-Serif" font-size="10.00">SerializationInfo info, global::System.Runtime.</text>
<text text-anchor="start" x="140.5" y="-196" font-family="Helvetica,sans-Serif" font-size="10.00">Serialization.StreamingContext context)</text>
<text text-anchor="start" x="130" y="-181" font-family="Helvetica,sans-Serif" font-size="10.00">&#45;</text>
<text text-anchor="start" x="140.5" y="-181" font-family="Helvetica,sans-Serif" font-size="10.00">bool System.IEquatable</text>
<text text-anchor="start" x="140.5" y="-170" font-family="Helvetica,sans-Serif" font-size="10.00">&lt; System.IntPtr &gt;. Equals</text>
<text text-anchor="start" x="140.5" y="-159" font-family="Helvetica,sans-Serif" font-size="10.00">(global::System.IntPtr other)</text>
<polygon fill="#666666" stroke="#666666" points="123.5,-903 123.5,-903 372.5,-903 372.5,-903 123.5,-903"/>
<polygon fill="#666666" stroke="#666666" points="123.5,-888 123.5,-888 138.5,-888 138.5,-888 123.5,-888"/>
<polygon fill="#666666" stroke="#666666" points="138.5,-888 138.5,-888 372.5,-888 372.5,-888 138.5,-888"/>
<polygon fill="none" stroke="#666666" points="123,-152 123,-920 372,-920 372,-152 123,-152"/>
</a>
</g>
</g>
<!-- Node3&#45;&gt;Node1 -->
<g id="edge2_Node000001_Node000003" class="edge">
<title>Node3&#45;&gt;Node1</title>
<g id="a_edge2_Node000001_Node000003"><a xlink:title=" ">
<path fill="none" stroke="#63b8ff" d="M247.5,-151.81C247.5,-139.48 247.5,-127.93 247.5,-117.38"/>
<polygon fill="none" stroke="#63b8ff" points="247.5,-117.04 243.5,-111.04 247.5,-105.04 251.5,-111.04 247.5,-117.04"/>
</a>
</g>
<text text-anchor="middle" x="267.5" y="-126" font-family="Helvetica,sans-Serif" font-size="10.00" fill="grey"> ~m_Ptr</text>
</g>
<!-- Node3&#45;&gt;Node3 -->
<g id="edge6_Node000003_Node000003" class="edge">
<title>Node3&#45;&gt;Node3</title>
<g id="a_edge6_Node000003_Node000003"><a xlink:title=" ">
<path fill="none" stroke="#63b8ff" d="M372.09,-595.95C383.1,-583.34 390,-563.36 390,-536 390,-515.05 385.95,-498.43 379.12,-486.13"/>
<polygon fill="none" stroke="#63b8ff" points="378.95,-485.89 372.24,-483.26 372.09,-476.05 378.8,-478.68 378.95,-485.89"/>
</a>
</g>
<text text-anchor="middle" x="407" y="-533.5" font-family="Helvetica,sans-Serif" font-size="10.00" fill="grey"> +Zero</text>
</g>
<!-- Node4 -->
<g id="Node000004" class="node">
<title>Node4</title>
<g id="a_Node000004"><a xlink:title=" ">
<polygon fill="white" stroke="transparent" points="162,-1027 19,-1027 19,-967 162,-967 162,-1027"/>
<text text-anchor="start" x="24.5" y="-1015" font-family="Helvetica,sans-Serif" font-size="10.00">global::SystemRuntime</text>
<text text-anchor="start" x="24.5" y="-1004" font-family="Helvetica,sans-Serif" font-size="10.00">::Serialization::ISerializable</text>
<text text-anchor="start" x="89" y="-989" font-family="Helvetica,sans-Serif" font-size="10.00"> </text>
<text text-anchor="start" x="89" y="-974" font-family="Helvetica,sans-Serif" font-size="10.00"> </text>
<polygon fill="#666666" stroke="#666666" points="19.5,-999 19.5,-999 162.5,-999 162.5,-999 19.5,-999"/>
<polygon fill="#666666" stroke="#666666" points="19.5,-984 19.5,-984 162.5,-984 162.5,-984 19.5,-984"/>
<polygon fill="none" stroke="#666666" points="19,-967 19,-1027 162,-1027 162,-967 19,-967"/>
</a>
</g>
</g>
<!-- Node4&#45;&gt;Node3 -->
<g id="edge3_Node000003_Node000004" class="edge">
<title>Node4&#45;&gt;Node3</title>
<g id="a_edge3_Node000003_Node000004"><a xlink:title=" ">
<path fill="none" stroke="#63b8ff" d="M103.69,-957.44C108.93,-942.11 115.49,-922.95 122.89,-901.32"/>
<polygon fill="none" stroke="#63b8ff" points="100.36,-956.34 100.44,-966.94 106.99,-958.61 100.36,-956.34"/>
</a>
</g>
</g>
<!-- Node5 -->
<g id="Node000005" class="node">
<title>Node5</title>
<g id="a_Node000005"><a xlink:title=" ">
<polygon fill="white" stroke="transparent" points="315,-1027 180,-1027 180,-967 315,-967 315,-1027"/>
<text text-anchor="start" x="185.5" y="-1015" font-family="Helvetica,sans-Serif" font-size="10.00">global::SystemIEquatable</text>
<text text-anchor="start" x="185.5" y="-1004" font-family="Helvetica,sans-Serif" font-size="10.00">&lt; global::System.IntPtr &gt;</text>
<text text-anchor="start" x="246" y="-989" font-family="Helvetica,sans-Serif" font-size="10.00"> </text>
<text text-anchor="start" x="246" y="-974" font-family="Helvetica,sans-Serif" font-size="10.00"> </text>
<polygon fill="#666666" stroke="#666666" points="180.5,-999 180.5,-999 315.5,-999 315.5,-999 180.5,-999"/>
<polygon fill="#666666" stroke="#666666" points="180.5,-984 180.5,-984 315.5,-984 315.5,-984 180.5,-984"/>
<polygon fill="none" stroke="#666666" points="180,-967 180,-1027 315,-1027 315,-967 180,-967"/>
</a>
</g>
</g>
<!-- Node5&#45;&gt;Node3 -->
<g id="edge4_Node000003_Node000005" class="edge">
<title>Node5&#45;&gt;Node3</title>
<g id="a_edge4_Node000003_Node000005"><a xlink:title=" ">
<path fill="none" stroke="#63b8ff" d="M247.5,-956.67C247.5,-946.18 247.5,-933.94 247.5,-920.37"/>
<polygon fill="none" stroke="#63b8ff" points="244,-956.94 247.5,-966.94 251,-956.94 244,-956.94"/>
</a>
</g>
</g>
<!-- Node6 -->
<g id="Node000006" class="node">
<title>Node6</title>
<g id="a_Node000006"><a xlink:title=" ">
<polygon fill="white" stroke="transparent" points="455.5,-1021.5 333.5,-1021.5 333.5,-972.5 455.5,-972.5 455.5,-1021.5"/>
<text text-anchor="start" x="338.5" y="-1009" font-family="Helvetica,sans-Serif" font-size="10.00">unsafe readonly void *</text>
<text text-anchor="start" x="392.5" y="-994" font-family="Helvetica,sans-Serif" font-size="10.00"> </text>
<text text-anchor="start" x="392.5" y="-979" font-family="Helvetica,sans-Serif" font-size="10.00"> </text>
<polygon fill="#666666" stroke="#666666" points="333.5,-1004 333.5,-1004 455.5,-1004 455.5,-1004 333.5,-1004"/>
<polygon fill="#666666" stroke="#666666" points="333.5,-989 333.5,-989 455.5,-989 455.5,-989 333.5,-989"/>
<polygon fill="none" stroke="#666666" points="333.5,-972.5 333.5,-1021.5 455.5,-1021.5 455.5,-972.5 333.5,-972.5"/>
</a>
</g>
</g>
<!-- Node6&#45;&gt;Node3 -->
<g id="edge5_Node000003_Node000006" class="edge">
<title>Node6&#45;&gt;Node3</title>
<g id="a_edge5_Node000003_Node000006"><a xlink:title=" ">
<path fill="none" stroke="#63b8ff" d="M386.91,-972.29C383.49,-961.62 379.06,-947.78 373.88,-931.6"/>
<polygon fill="none" stroke="#63b8ff" points="373.83,-931.47 368.2,-926.98 370.17,-920.05 375.81,-924.54 373.83,-931.47"/>
</a>
</g>
<text text-anchor="middle" x="404" y="-941" font-family="Helvetica,sans-Serif" font-size="10.00" fill="grey"> &#45;m_value</text>
</g>
<!-- Node7 -->
<g id="Node000007" class="node">
<title>Node7</title>
<g id="a_Node000007"><a xlink:title=" ">
<polygon fill="white" stroke="transparent" points="586.5,-566 442.5,-566 442.5,-506 586.5,-506 586.5,-566"/>
<text text-anchor="start" x="447.5" y="-554" font-family="Helvetica,sans-Serif" font-size="10.00">Action&lt; UnityEngine.Async</text>
<text text-anchor="start" x="484.5" y="-543" font-family="Helvetica,sans-Serif" font-size="10.00">Operation &gt;</text>
<text text-anchor="start" x="512.5" y="-528" font-family="Helvetica,sans-Serif" font-size="10.00"> </text>
<text text-anchor="start" x="512.5" y="-513" font-family="Helvetica,sans-Serif" font-size="10.00"> </text>
<polygon fill="#666666" stroke="#666666" points="442.5,-538 442.5,-538 586.5,-538 586.5,-538 442.5,-538"/>
<polygon fill="#666666" stroke="#666666" points="442.5,-523 442.5,-523 586.5,-523 586.5,-523 442.5,-523"/>
<polygon fill="none" stroke="#666666" points="442.5,-506 442.5,-566 586.5,-566 586.5,-506 442.5,-506"/>
</a>
</g>
</g>
<!-- Node7&#45;&gt;Node1 -->
<g id="edge7_Node000001_Node000007" class="edge">
<title>Node7&#45;&gt;Node1</title>
<g id="a_edge7_Node000001_Node000007"><a xlink:title=" ">
<path fill="none" stroke="#63b8ff" d="M516.13,-505.96C518.46,-437.16 515.32,-261.8 432.5,-152 410.06,-122.25 375.96,-100.53 343.13,-85.19"/>
<polygon fill="none" stroke="#63b8ff" points="343.01,-85.14 335.9,-86.33 332.06,-80.23 339.17,-79.03 343.01,-85.14"/>
</a>
</g>
<text text-anchor="middle" x="469.5" y="-126" font-family="Helvetica,sans-Serif" font-size="10.00" fill="grey"> &#45;m_completeCallback</text>
</g>
<!-- Node8 -->
<g id="Node000008" class="node">
<title>Node8</title>
<g id="a_Node000008"><a xlink:title=" ">
<polygon fill="white" stroke="transparent" points="535,-1021.5 494,-1021.5 494,-972.5 535,-972.5 535,-1021.5"/>
<text text-anchor="start" x="499.5" y="-1009" font-family="Helvetica,sans-Serif" font-size="10.00">Action</text>
<text text-anchor="start" x="513" y="-994" font-family="Helvetica,sans-Serif" font-size="10.00"> </text>
<text text-anchor="start" x="513" y="-979" font-family="Helvetica,sans-Serif" font-size="10.00"> </text>
<polygon fill="#666666" stroke="#666666" points="494.5,-1004 494.5,-1004 535.5,-1004 535.5,-1004 494.5,-1004"/>
<polygon fill="#666666" stroke="#666666" points="494.5,-989 494.5,-989 535.5,-989 535.5,-989 494.5,-989"/>
<polygon fill="none" stroke="#666666" points="494,-972.5 494,-1021.5 535,-1021.5 535,-972.5 494,-972.5"/>
</a>
</g>
</g>
<!-- Node8&#45;&gt;Node7 -->
<g id="edge8_Node000007_Node000008" class="edge">
<title>Node8&#45;&gt;Node7</title>
<g id="a_edge8_Node000007_Node000008"><a xlink:title=" ">
<path fill="none" stroke="orange" d="M514.5,-962.22C514.5,-875.68 514.5,-647.13 514.5,-566.04"/>
<polygon fill="orange" stroke="orange" points="511,-962.29 514.5,-972.29 518,-962.29 511,-962.29"/>
</a>
</g>
<text text-anchor="middle" x="599" y="-941" font-family="Helvetica,sans-Serif" font-size="10.00" fill="grey"> &lt; UnityEngine::AsyncOperation &gt;</text>
</g>
</g>
</svg>
