<?xml version="1.0" encoding="UTF-8" standalone="no"?>
<!DOCTYPE svg PUBLIC "-//W3C//DTD SVG 1.1//EN"
 "http://www.w3.org/Graphics/SVG/1.1/DTD/svg11.dtd">
<!-- Generated by graphviz version 2.43.0 (0)
 -->
<!-- Title: UnityEngine.Android.AndroidAssetPacks Pages: 1 -->
<!--zoomable 2227 -->

<svg id="main" version="1.1" xmlns="http://www.w3.org/2000/svg" xmlns:xlink="http://www.w3.org/1999/xlink" xml:space="preserve" onload="init(evt)">
<style type="text/css"><![CDATA[
.node, .edge {opacity: 0.7;}
.node.selected, .edge.selected {opacity: 1;}
.edge:hover path { stroke: red; }
.edge:hover polygon { stroke: red; fill: red; }
]]></style>

<defs>
  <circle id="rim" cx="0" cy="0" r="7"/>
  <circle id="rim2" cx="0" cy="0" r="3.5"/>
  <g id="zoomPlus">
    <use xlink:href="#rim" fill="#404040"><set attributeName="fill" to="#808080" begin="zoomplus.mouseover" end="zoomplus.mouseout"/></use>
    <path d="M-4,0h8M0,-4v8" fill="none" stroke="white" stroke-width="1.5" pointer-events="none"/>
  </g>
  <g id="zoomMin">
    <use xlink:href="#rim" fill="#404040"><set attributeName="fill" to="#808080" begin="zoomminus.mouseover" end="zoomminus.mouseout"/></use>
    <path d="M-4,0h8" fill="none" stroke="white" stroke-width="1.5" pointer-events="none"/>
  </g>
  <g id="arrowUp" transform="translate(30 24)">
    <use xlink:href="#rim"/>
    <path pointer-events="none" fill="none" stroke="white" stroke-width="1.5" d="M0,-3.0v7 M-2.5,-0.5L0,-3.0L2.5,-0.5"/>
  </g>
  <g id="arrowRight" transform="rotate(90) translate(36 -43)">
    <use xlink:href="#rim"/>
    <path pointer-events="none" fill="none" stroke="white" stroke-width="1.5" d="M0,-3.0v7 M-2.5,-0.5L0,-3.0L2.5,-0.5"/>
  </g>
  <g id="arrowDown" transform="rotate(180) translate(-30 -48)">
    <use xlink:href="#rim"/>
    <path pointer-events="none" fill="none" stroke="white" stroke-width="1.5" d="M0,-3.0v7 M-2.5,-0.5L0,-3.0L2.5,-0.5"/>
  </g>
  <g id="arrowLeft" transform="rotate(270) translate(-36 17)">
    <use xlink:href="#rim"/>
    <path pointer-events="none" fill="none" stroke="white" stroke-width="1.5" d="M0,-3.0v7 M-2.5,-0.5L0,-3.0L2.5,-0.5"/>
  </g>
  <g id="resetDef">
    <use xlink:href="#rim2" fill="#404040"><set attributeName="fill" to="#808080" begin="reset.mouseover" end="reset.mouseout"/></use>
  </g>
</defs>
<script type="application/ecmascript">
var viewWidth = 608;
var viewHeight = 2227;
var sectionId = 'dynsection-0';
</script>
<script type="application/ecmascript" xlink:href="../../svg.min.js"/>
<svg id="graph" class="graph">
<g id="viewport">
<title>UnityEngine.Android.AndroidAssetPacks</title>
<!-- Node1 -->
<g id="Node000001" class="node">
<title>Node1</title>
<g id="a_Node000001"><a xlink:title=" ">
<polygon fill="#999999" stroke="transparent" points="151,-71 0,-71 0,0 151,0 151,-71"/>
<text text-anchor="start" x="5.5" y="-58.5" font-family="Helvetica,sans-Serif" font-size="10.00">UnityEngine.Android.Android</text>
<text text-anchor="start" x="48.5" y="-47.5" font-family="Helvetica,sans-Serif" font-size="10.00">AssetPacks</text>
<text text-anchor="start" x="74" y="-32.5" font-family="Helvetica,sans-Serif" font-size="10.00"> </text>
<text text-anchor="start" x="8" y="-17.5" font-family="Helvetica,sans-Serif" font-size="10.00">&#45;</text>
<text text-anchor="start" x="19.5" y="-17.5" font-family="Helvetica,sans-Serif" font-size="10.00">static AndroidJavaObject</text>
<text text-anchor="start" x="19.5" y="-6.5" font-family="Helvetica,sans-Serif" font-size="10.00"> GetAssetPackManager()</text>
<polygon fill="#666666" stroke="#666666" points="0.5,-42.5 0.5,-42.5 151.5,-42.5 151.5,-42.5 0.5,-42.5"/>
<polygon fill="#666666" stroke="#666666" points="0.5,-27.5 0.5,-27.5 151.5,-27.5 151.5,-27.5 0.5,-27.5"/>
<polygon fill="none" stroke="#666666" points="0,0 0,-71 151,-71 151,0 0,0"/>
</a>
</g>
</g>
<!-- Node2 -->
<g id="Node000002" class="node">
<title>Node2</title>
<g id="a_Node000002"><a xlink:href="../../d7/d2b/classUnityEngine_1_1AndroidJavaObject.html" target="_top" xlink:title=" ">
<polygon fill="white" stroke="transparent" points="264,-1101 73,-1101 73,-129 264,-129 264,-1101"/>
<text text-anchor="start" x="92.5" y="-1089" font-family="Helvetica,sans-Serif" font-size="10.00">UnityEngine.AndroidJavaObject</text>
<text text-anchor="start" x="167" y="-1074" font-family="Helvetica,sans-Serif" font-size="10.00"> </text>
<text text-anchor="start" x="77.5" y="-1059" font-family="Helvetica,sans-Serif" font-size="10.00">+</text>
<text text-anchor="start" x="90.5" y="-1059" font-family="Helvetica,sans-Serif" font-size="10.00">AndroidJavaObject</text>
<text text-anchor="start" x="90.5" y="-1048" font-family="Helvetica,sans-Serif" font-size="10.00">(string className, string</text>
<text text-anchor="start" x="90.5" y="-1037" font-family="Helvetica,sans-Serif" font-size="10.00">[] args)</text>
<text text-anchor="start" x="77.5" y="-1022" font-family="Helvetica,sans-Serif" font-size="10.00">+</text>
<text text-anchor="start" x="90.5" y="-1022" font-family="Helvetica,sans-Serif" font-size="10.00">AndroidJavaObject</text>
<text text-anchor="start" x="90.5" y="-1011" font-family="Helvetica,sans-Serif" font-size="10.00">(string className, Android</text>
<text text-anchor="start" x="90.5" y="-1000" font-family="Helvetica,sans-Serif" font-size="10.00">JavaObject[] args)</text>
<text text-anchor="start" x="77.5" y="-985" font-family="Helvetica,sans-Serif" font-size="10.00">+</text>
<text text-anchor="start" x="90.5" y="-985" font-family="Helvetica,sans-Serif" font-size="10.00">AndroidJavaObject</text>
<text text-anchor="start" x="90.5" y="-974" font-family="Helvetica,sans-Serif" font-size="10.00">(string className, Android</text>
<text text-anchor="start" x="90.5" y="-963" font-family="Helvetica,sans-Serif" font-size="10.00">JavaClass[] args)</text>
<text text-anchor="start" x="77.5" y="-948" font-family="Helvetica,sans-Serif" font-size="10.00">+</text>
<text text-anchor="start" x="90.5" y="-948" font-family="Helvetica,sans-Serif" font-size="10.00">AndroidJavaObject</text>
<text text-anchor="start" x="90.5" y="-937" font-family="Helvetica,sans-Serif" font-size="10.00">(string className, Android</text>
<text text-anchor="start" x="90.5" y="-926" font-family="Helvetica,sans-Serif" font-size="10.00">JavaProxy[] args)</text>
<text text-anchor="start" x="77.5" y="-911" font-family="Helvetica,sans-Serif" font-size="10.00">+</text>
<text text-anchor="start" x="90.5" y="-911" font-family="Helvetica,sans-Serif" font-size="10.00">AndroidJavaObject</text>
<text text-anchor="start" x="90.5" y="-900" font-family="Helvetica,sans-Serif" font-size="10.00">(string className, Android</text>
<text text-anchor="start" x="90.5" y="-889" font-family="Helvetica,sans-Serif" font-size="10.00">JavaRunnable[] args)</text>
<text text-anchor="start" x="77.5" y="-874" font-family="Helvetica,sans-Serif" font-size="10.00">+</text>
<text text-anchor="start" x="90.5" y="-874" font-family="Helvetica,sans-Serif" font-size="10.00">AndroidJavaObject</text>
<text text-anchor="start" x="90.5" y="-863" font-family="Helvetica,sans-Serif" font-size="10.00">(string className, params</text>
<text text-anchor="start" x="90.5" y="-852" font-family="Helvetica,sans-Serif" font-size="10.00"> object[] args)</text>
<text text-anchor="start" x="77.5" y="-837" font-family="Helvetica,sans-Serif" font-size="10.00">+</text>
<text text-anchor="start" x="90.5" y="-837" font-family="Helvetica,sans-Serif" font-size="10.00">void Dispose()</text>
<text text-anchor="start" x="77.5" y="-822" font-family="Helvetica,sans-Serif" font-size="10.00">+</text>
<text text-anchor="start" x="90.5" y="-822" font-family="Helvetica,sans-Serif" font-size="10.00">void Call&lt; T &gt;(string</text>
<text text-anchor="start" x="90.5" y="-811" font-family="Helvetica,sans-Serif" font-size="10.00"> methodName, T[] args)</text>
<text text-anchor="start" x="77.5" y="-796" font-family="Helvetica,sans-Serif" font-size="10.00">+</text>
<text text-anchor="start" x="90.5" y="-796" font-family="Helvetica,sans-Serif" font-size="10.00">void Call(string methodName,</text>
<text text-anchor="start" x="90.5" y="-785" font-family="Helvetica,sans-Serif" font-size="10.00"> params object[] args)</text>
<text text-anchor="start" x="77.5" y="-770" font-family="Helvetica,sans-Serif" font-size="10.00">+</text>
<text text-anchor="start" x="90.5" y="-770" font-family="Helvetica,sans-Serif" font-size="10.00">void CallStatic&lt; T</text>
<text text-anchor="start" x="90.5" y="-759" font-family="Helvetica,sans-Serif" font-size="10.00"> &gt;(string methodName,</text>
<text text-anchor="start" x="90.5" y="-748" font-family="Helvetica,sans-Serif" font-size="10.00"> T[] args)</text>
<text text-anchor="start" x="90.5" y="-733" font-family="Helvetica,sans-Serif" font-size="10.00">and 12 more...</text>
<text text-anchor="start" x="77.5" y="-718" font-family="Helvetica,sans-Serif" font-size="10.00">~</text>
<text text-anchor="start" x="90.5" y="-718" font-family="Helvetica,sans-Serif" font-size="10.00">AndroidJavaObject</text>
<text text-anchor="start" x="90.5" y="-707" font-family="Helvetica,sans-Serif" font-size="10.00">(IntPtr jobject)</text>
<text text-anchor="start" x="77.5" y="-692" font-family="Helvetica,sans-Serif" font-size="10.00">~</text>
<text text-anchor="start" x="90.5" y="-692" font-family="Helvetica,sans-Serif" font-size="10.00">AndroidJavaObject()</text>
<text text-anchor="start" x="77.5" y="-677" font-family="Helvetica,sans-Serif" font-size="10.00">~</text>
<text text-anchor="start" x="90.5" y="-677" font-family="Helvetica,sans-Serif" font-size="10.00">static AndroidJavaObject</text>
<text text-anchor="start" x="90.5" y="-666" font-family="Helvetica,sans-Serif" font-size="10.00"> AndroidJavaObjectDeleteLocalRef</text>
<text text-anchor="start" x="90.5" y="-655" font-family="Helvetica,sans-Serif" font-size="10.00">(IntPtr jobject)</text>
<text text-anchor="start" x="77.5" y="-640" font-family="Helvetica,sans-Serif" font-size="10.00">~</text>
<text text-anchor="start" x="90.5" y="-640" font-family="Helvetica,sans-Serif" font-size="10.00">static AndroidJavaClass</text>
<text text-anchor="start" x="90.5" y="-629" font-family="Helvetica,sans-Serif" font-size="10.00"> AndroidJavaClassDeleteLocal</text>
<text text-anchor="start" x="90.5" y="-618" font-family="Helvetica,sans-Serif" font-size="10.00">Ref(IntPtr jclass)</text>
<text text-anchor="start" x="77.5" y="-603" font-family="Helvetica,sans-Serif" font-size="10.00">~</text>
<text text-anchor="start" x="90.5" y="-603" font-family="Helvetica,sans-Serif" font-size="10.00">static ReturnType FromJava</text>
<text text-anchor="start" x="90.5" y="-592" font-family="Helvetica,sans-Serif" font-size="10.00">ArrayDeleteLocalRef&lt; ReturnType</text>
<text text-anchor="start" x="90.5" y="-581" font-family="Helvetica,sans-Serif" font-size="10.00"> &gt;(IntPtr jobject)</text>
<text text-anchor="start" x="77.5" y="-566" font-family="Helvetica,sans-Serif" font-size="10.00">#</text>
<text text-anchor="start" x="90.5" y="-566" font-family="Helvetica,sans-Serif" font-size="10.00">void DebugPrint(string msg)</text>
<text text-anchor="start" x="77.5" y="-551" font-family="Helvetica,sans-Serif" font-size="10.00">#</text>
<text text-anchor="start" x="90.5" y="-551" font-family="Helvetica,sans-Serif" font-size="10.00">void DebugPrint(string</text>
<text text-anchor="start" x="90.5" y="-540" font-family="Helvetica,sans-Serif" font-size="10.00"> call, string methodName,</text>
<text text-anchor="start" x="90.5" y="-529" font-family="Helvetica,sans-Serif" font-size="10.00"> string signature, object</text>
<text text-anchor="start" x="90.5" y="-518" font-family="Helvetica,sans-Serif" font-size="10.00">[] args)</text>
<text text-anchor="start" x="77.5" y="-503" font-family="Helvetica,sans-Serif" font-size="10.00">#</text>
<text text-anchor="start" x="90.5" y="-503" font-family="Helvetica,sans-Serif" font-size="10.00">override void Finalize()</text>
<text text-anchor="start" x="77.5" y="-488" font-family="Helvetica,sans-Serif" font-size="10.00">#</text>
<text text-anchor="start" x="90.5" y="-488" font-family="Helvetica,sans-Serif" font-size="10.00">virtual void Dispose</text>
<text text-anchor="start" x="90.5" y="-477" font-family="Helvetica,sans-Serif" font-size="10.00">(bool disposing)</text>
<text text-anchor="start" x="77.5" y="-462" font-family="Helvetica,sans-Serif" font-size="10.00">#</text>
<text text-anchor="start" x="90.5" y="-462" font-family="Helvetica,sans-Serif" font-size="10.00">void _Call(string method</text>
<text text-anchor="start" x="90.5" y="-451" font-family="Helvetica,sans-Serif" font-size="10.00">Name, params object[] args)</text>
<text text-anchor="start" x="77.5" y="-436" font-family="Helvetica,sans-Serif" font-size="10.00">#</text>
<text text-anchor="start" x="90.5" y="-436" font-family="Helvetica,sans-Serif" font-size="10.00">ReturnType _Call&lt; Return</text>
<text text-anchor="start" x="90.5" y="-425" font-family="Helvetica,sans-Serif" font-size="10.00">Type &gt;(string methodName,</text>
<text text-anchor="start" x="90.5" y="-414" font-family="Helvetica,sans-Serif" font-size="10.00"> params object[] args)</text>
<text text-anchor="start" x="77.5" y="-399" font-family="Helvetica,sans-Serif" font-size="10.00">#</text>
<text text-anchor="start" x="90.5" y="-399" font-family="Helvetica,sans-Serif" font-size="10.00">FieldType _Get&lt; FieldType</text>
<text text-anchor="start" x="90.5" y="-388" font-family="Helvetica,sans-Serif" font-size="10.00"> &gt;(string fieldName)</text>
<text text-anchor="start" x="77.5" y="-373" font-family="Helvetica,sans-Serif" font-size="10.00">#</text>
<text text-anchor="start" x="90.5" y="-373" font-family="Helvetica,sans-Serif" font-size="10.00">void _Set&lt; FieldType</text>
<text text-anchor="start" x="90.5" y="-362" font-family="Helvetica,sans-Serif" font-size="10.00"> &gt;(string fieldName,</text>
<text text-anchor="start" x="90.5" y="-351" font-family="Helvetica,sans-Serif" font-size="10.00"> FieldType val)</text>
<text text-anchor="start" x="77.5" y="-336" font-family="Helvetica,sans-Serif" font-size="10.00">#</text>
<text text-anchor="start" x="90.5" y="-336" font-family="Helvetica,sans-Serif" font-size="10.00">void _CallStatic(string</text>
<text text-anchor="start" x="90.5" y="-325" font-family="Helvetica,sans-Serif" font-size="10.00"> methodName, params object</text>
<text text-anchor="start" x="90.5" y="-314" font-family="Helvetica,sans-Serif" font-size="10.00">[] args)</text>
<text text-anchor="start" x="77.5" y="-299" font-family="Helvetica,sans-Serif" font-size="10.00">#</text>
<text text-anchor="start" x="90.5" y="-299" font-family="Helvetica,sans-Serif" font-size="10.00">ReturnType _CallStatic</text>
<text text-anchor="start" x="90.5" y="-288" font-family="Helvetica,sans-Serif" font-size="10.00">&lt; ReturnType &gt;(string</text>
<text text-anchor="start" x="90.5" y="-277" font-family="Helvetica,sans-Serif" font-size="10.00"> methodName, params object</text>
<text text-anchor="start" x="90.5" y="-266" font-family="Helvetica,sans-Serif" font-size="10.00">[] args)</text>
<text text-anchor="start" x="77.5" y="-251" font-family="Helvetica,sans-Serif" font-size="10.00">#</text>
<text text-anchor="start" x="90.5" y="-251" font-family="Helvetica,sans-Serif" font-size="10.00">FieldType _GetStatic</text>
<text text-anchor="start" x="90.5" y="-240" font-family="Helvetica,sans-Serif" font-size="10.00">&lt; FieldType &gt;(string</text>
<text text-anchor="start" x="90.5" y="-229" font-family="Helvetica,sans-Serif" font-size="10.00"> fieldName)</text>
<text text-anchor="start" x="77.5" y="-214" font-family="Helvetica,sans-Serif" font-size="10.00">#</text>
<text text-anchor="start" x="90.5" y="-214" font-family="Helvetica,sans-Serif" font-size="10.00">void _SetStatic&lt; FieldType</text>
<text text-anchor="start" x="90.5" y="-203" font-family="Helvetica,sans-Serif" font-size="10.00"> &gt;(string fieldName, FieldType val)</text>
<text text-anchor="start" x="77.5" y="-188" font-family="Helvetica,sans-Serif" font-size="10.00">#</text>
<text text-anchor="start" x="90.5" y="-188" font-family="Helvetica,sans-Serif" font-size="10.00">IntPtr _GetRawObject()</text>
<text text-anchor="start" x="77.5" y="-173" font-family="Helvetica,sans-Serif" font-size="10.00">#</text>
<text text-anchor="start" x="90.5" y="-173" font-family="Helvetica,sans-Serif" font-size="10.00">IntPtr _GetRawClass()</text>
<text text-anchor="start" x="80" y="-158" font-family="Helvetica,sans-Serif" font-size="10.00">&#45;</text>
<text text-anchor="start" x="90.5" y="-158" font-family="Helvetica,sans-Serif" font-size="10.00">void _AndroidJavaObject</text>
<text text-anchor="start" x="90.5" y="-147" font-family="Helvetica,sans-Serif" font-size="10.00">(string className, params</text>
<text text-anchor="start" x="90.5" y="-136" font-family="Helvetica,sans-Serif" font-size="10.00"> object[] args)</text>
<polygon fill="#666666" stroke="#666666" points="73.5,-1084 73.5,-1084 264.5,-1084 264.5,-1084 73.5,-1084"/>
<polygon fill="#666666" stroke="#666666" points="73.5,-1069 73.5,-1069 264.5,-1069 264.5,-1069 73.5,-1069"/>
<polygon fill="none" stroke="#666666" points="73,-129 73,-1101 264,-1101 264,-129 73,-129"/>
</a>
</g>
</g>
<!-- Node2&#45;&gt;Node1 -->
<g id="edge1_Node000001_Node000002" class="edge">
<title>Node2&#45;&gt;Node1</title>
<g id="a_edge1_Node000001_Node000002"><a xlink:title=" ">
<path fill="none" stroke="#63b8ff" d="M90.39,-128.97C87.65,-111.93 85.18,-96.63 83.08,-83.6"/>
<polygon fill="none" stroke="#63b8ff" points="83.02,-83.2 78.12,-77.91 81.11,-71.35 86.02,-76.64 83.02,-83.2"/>
</a>
</g>
<text text-anchor="start" x="87.5" y="-103" font-family="Helvetica,sans-Serif" font-size="10.00" fill="grey"> &#45;s_JavaPlayAssetDelivery</text>
<text text-anchor="middle" x="151.5" y="-92" font-family="Helvetica,sans-Serif" font-size="10.00" fill="grey">Wrapper</text>
</g>
<!-- Node3 -->
<g id="Node000003" class="node">
<title>Node3</title>
<g id="a_Node000003"><a xlink:href="../../d6/d32/interfaceSystem_1_1IDisposable.html" target="_top" xlink:title=" ">
<polygon fill="white" stroke="transparent" points="148.5,-1241.5 56.5,-1241.5 56.5,-1192.5 148.5,-1192.5 148.5,-1241.5"/>
<text text-anchor="start" x="73.5" y="-1229" font-family="Helvetica,sans-Serif" font-size="10.00">IDisposable</text>
<text text-anchor="start" x="100.5" y="-1214" font-family="Helvetica,sans-Serif" font-size="10.00"> </text>
<text text-anchor="start" x="60.5" y="-1199" font-family="Helvetica,sans-Serif" font-size="10.00">+</text>
<text text-anchor="start" x="73.5" y="-1199" font-family="Helvetica,sans-Serif" font-size="10.00">void Dispose()</text>
<polygon fill="#666666" stroke="#666666" points="56.5,-1224 56.5,-1224 148.5,-1224 148.5,-1224 56.5,-1224"/>
<polygon fill="#666666" stroke="#666666" points="56.5,-1209 56.5,-1209 148.5,-1209 148.5,-1209 56.5,-1209"/>
<polygon fill="none" stroke="#666666" points="56.5,-1192.5 56.5,-1241.5 148.5,-1241.5 148.5,-1192.5 56.5,-1192.5"/>
</a>
</g>
</g>
<!-- Node3&#45;&gt;Node2 -->
<g id="edge2_Node000002_Node000003" class="edge">
<title>Node3&#45;&gt;Node2</title>
<g id="a_edge2_Node000002_Node000003"><a xlink:title=" ">
<path fill="none" stroke="#63b8ff" d="M106.19,-1182.42C108.41,-1162.29 111.5,-1134.21 115.13,-1101.22"/>
<polygon fill="none" stroke="#63b8ff" points="102.7,-1182.16 105.09,-1192.48 109.66,-1182.92 102.7,-1182.16"/>
</a>
</g>
</g>
<!-- Node4 -->
<g id="Node000004" class="node">
<title>Node4</title>
<g id="a_Node000004"><a xlink:title=" ">
<polygon fill="white" stroke="transparent" points="200.5,-1741.5 168.5,-1741.5 168.5,-1692.5 200.5,-1692.5 200.5,-1741.5"/>
<text text-anchor="start" x="173.5" y="-1729" font-family="Helvetica,sans-Serif" font-size="10.00">bool</text>
<text text-anchor="start" x="182.5" y="-1714" font-family="Helvetica,sans-Serif" font-size="10.00"> </text>
<text text-anchor="start" x="182.5" y="-1699" font-family="Helvetica,sans-Serif" font-size="10.00"> </text>
<polygon fill="#666666" stroke="#666666" points="168.5,-1724 168.5,-1724 200.5,-1724 200.5,-1724 168.5,-1724"/>
<polygon fill="#666666" stroke="#666666" points="168.5,-1709 168.5,-1709 200.5,-1709 200.5,-1709 168.5,-1709"/>
<polygon fill="none" stroke="#666666" points="168.5,-1692.5 168.5,-1741.5 200.5,-1741.5 200.5,-1692.5 168.5,-1692.5"/>
</a>
</g>
</g>
<!-- Node4&#45;&gt;Node1 -->
<g id="edge11_Node000001_Node000004" class="edge">
<title>Node4&#45;&gt;Node1</title>
<g id="a_edge11_Node000001_Node000004"><a xlink:title=" ">
<path fill="none" stroke="#63b8ff" d="M174.96,-1692.11C149.28,-1626.66 78.57,-1438.43 47.5,-1275 -39.4,-817.85 40.59,-248.76 67.44,-83.5"/>
<polygon fill="none" stroke="#63b8ff" points="67.48,-83.25 64.51,-76.69 69.43,-71.41 72.4,-77.98 67.48,-83.25"/>
</a>
</g>
<text text-anchor="middle" x="62" y="-1127.5" font-family="Helvetica,sans-Serif" font-size="10.00" fill="grey"> &#45;s_ApiMissing</text>
</g>
<!-- Node4&#45;&gt;Node2 -->
<g id="edge3_Node000002_Node000004" class="edge">
<title>Node4&#45;&gt;Node2</title>
<g id="a_edge3_Node000002_Node000004"><a xlink:title=" ">
<path fill="none" stroke="#63b8ff" d="M184.15,-1692.26C183.02,-1614.25 179.28,-1356.84 175.73,-1113.33"/>
<polygon fill="none" stroke="#63b8ff" points="175.73,-1113.01 171.64,-1107.07 175.55,-1101.01 179.64,-1106.95 175.73,-1113.01"/>
</a>
</g>
<text text-anchor="middle" x="228.5" y="-1214.5" font-family="Helvetica,sans-Serif" font-size="10.00" fill="grey"> &#45;enableDebugPrints</text>
</g>
<!-- Node5 -->
<g id="Node000005" class="node">
<title>Node5</title>
<g id="a_Node000005"><a xlink:href="../../de/d0e/classUnityEngine_1_1GlobalJavaObjectRef.html" target="_top" xlink:title=" ">
<polygon fill="white" stroke="transparent" points="480,-1275 303,-1275 303,-1159 480,-1159 480,-1275"/>
<text text-anchor="start" x="310.5" y="-1263" font-family="Helvetica,sans-Serif" font-size="10.00">UnityEngine.GlobalJavaObjectRef</text>
<text text-anchor="start" x="390" y="-1248" font-family="Helvetica,sans-Serif" font-size="10.00"> </text>
<text text-anchor="start" x="307.5" y="-1233" font-family="Helvetica,sans-Serif" font-size="10.00">+</text>
<text text-anchor="start" x="320.5" y="-1233" font-family="Helvetica,sans-Serif" font-size="10.00">GlobalJavaObjectRef</text>
<text text-anchor="start" x="320.5" y="-1222" font-family="Helvetica,sans-Serif" font-size="10.00">(IntPtr jobject)</text>
<text text-anchor="start" x="307.5" y="-1207" font-family="Helvetica,sans-Serif" font-size="10.00">+</text>
<text text-anchor="start" x="320.5" y="-1207" font-family="Helvetica,sans-Serif" font-size="10.00">void Dispose()</text>
<text text-anchor="start" x="307.5" y="-1192" font-family="Helvetica,sans-Serif" font-size="10.00">+</text>
<text text-anchor="start" x="320.5" y="-1192" font-family="Helvetica,sans-Serif" font-size="10.00">static implicit operator</text>
<text text-anchor="start" x="320.5" y="-1181" font-family="Helvetica,sans-Serif" font-size="10.00"> IntPtr(GlobalJavaObjectRef obj)</text>
<text text-anchor="start" x="307.5" y="-1166" font-family="Helvetica,sans-Serif" font-size="10.00">#</text>
<text text-anchor="start" x="320.5" y="-1166" font-family="Helvetica,sans-Serif" font-size="10.00">override void Finalize()</text>
<polygon fill="#666666" stroke="#666666" points="303.5,-1258 303.5,-1258 480.5,-1258 480.5,-1258 303.5,-1258"/>
<polygon fill="#666666" stroke="#666666" points="303.5,-1243 303.5,-1243 480.5,-1243 480.5,-1243 303.5,-1243"/>
<polygon fill="none" stroke="#666666" points="303,-1159 303,-1275 480,-1275 480,-1159 303,-1159"/>
</a>
</g>
</g>
<!-- Node4&#45;&gt;Node5 -->
<g id="edge5_Node000005_Node000004" class="edge">
<title>Node4&#45;&gt;Node5</title>
<g id="a_edge5_Node000005_Node000004"><a xlink:title=" ">
<path fill="none" stroke="#63b8ff" d="M183.28,-1692.21C181.09,-1627.57 182.42,-1445.29 257.5,-1322 266.99,-1306.42 279.73,-1292.3 293.59,-1279.83"/>
<polygon fill="none" stroke="#63b8ff" points="293.74,-1279.7 295.68,-1272.76 302.84,-1271.88 300.9,-1278.82 293.74,-1279.7"/>
</a>
</g>
<text text-anchor="middle" x="313.5" y="-1296" font-family="Helvetica,sans-Serif" font-size="10.00" fill="grey"> &#45;m_disposed</text>
</g>
<!-- Node5&#45;&gt;Node2 -->
<g id="edge4_Node000002_Node000005" class="edge">
<title>Node5&#45;&gt;Node2</title>
<g id="a_edge4_Node000002_Node000005"><a xlink:title=" ">
<path fill="none" stroke="#63b8ff" d="M370.22,-1158.74C346.53,-1095 306.54,-987.42 268.39,-884.76"/>
<polygon fill="none" stroke="#63b8ff" points="268.29,-884.49 262.45,-880.26 264.11,-873.24 269.95,-877.47 268.29,-884.49"/>
</a>
</g>
<text text-anchor="middle" x="388" y="-1133" font-family="Helvetica,sans-Serif" font-size="10.00" fill="grey"> ~m_jclass</text>
<text text-anchor="middle" x="388" y="-1122" font-family="Helvetica,sans-Serif" font-size="10.00" fill="grey">~m_jobject</text>
</g>
<!-- Node6 -->
<g id="Node000006" class="node">
<title>Node6</title>
<g id="a_Node000006"><a xlink:href="../../db/db4/structSystem_1_1IntPtr.html" target="_top" xlink:title=" ">
<polygon fill="white" stroke="transparent" points="516,-2112 267,-2112 267,-1322 516,-1322 516,-2112"/>
<text text-anchor="start" x="358.5" y="-2100" font-family="Helvetica,sans-Serif" font-size="10.00">System.IntPtr</text>
<text text-anchor="start" x="271.5" y="-2085" font-family="Helvetica,sans-Serif" font-size="10.00">+</text>
<text text-anchor="start" x="284.5" y="-2085" font-family="Helvetica,sans-Serif" font-size="10.00">static unsafe int Size</text>
<text text-anchor="start" x="271.5" y="-2070" font-family="Helvetica,sans-Serif" font-size="10.00">+</text>
<text text-anchor="start" x="284.5" y="-2070" font-family="Helvetica,sans-Serif" font-size="10.00">IntPtr(int value)</text>
<text text-anchor="start" x="271.5" y="-2055" font-family="Helvetica,sans-Serif" font-size="10.00">+</text>
<text text-anchor="start" x="284.5" y="-2055" font-family="Helvetica,sans-Serif" font-size="10.00">IntPtr(long value)</text>
<text text-anchor="start" x="271.5" y="-2040" font-family="Helvetica,sans-Serif" font-size="10.00">+</text>
<text text-anchor="start" x="284.5" y="-2040" font-family="Helvetica,sans-Serif" font-size="10.00">unsafe IntPtr(void</text>
<text text-anchor="start" x="284.5" y="-2029" font-family="Helvetica,sans-Serif" font-size="10.00"> *value)</text>
<text text-anchor="start" x="271.5" y="-2014" font-family="Helvetica,sans-Serif" font-size="10.00">+</text>
<text text-anchor="start" x="284.5" y="-2014" font-family="Helvetica,sans-Serif" font-size="10.00">override bool Equals</text>
<text text-anchor="start" x="284.5" y="-2003" font-family="Helvetica,sans-Serif" font-size="10.00">(object obj)</text>
<text text-anchor="start" x="271.5" y="-1988" font-family="Helvetica,sans-Serif" font-size="10.00">+</text>
<text text-anchor="start" x="284.5" y="-1988" font-family="Helvetica,sans-Serif" font-size="10.00">override int GetHashCode()</text>
<text text-anchor="start" x="271.5" y="-1973" font-family="Helvetica,sans-Serif" font-size="10.00">+</text>
<text text-anchor="start" x="284.5" y="-1973" font-family="Helvetica,sans-Serif" font-size="10.00">long ToInt64()</text>
<text text-anchor="start" x="271.5" y="-1958" font-family="Helvetica,sans-Serif" font-size="10.00">+</text>
<text text-anchor="start" x="284.5" y="-1958" font-family="Helvetica,sans-Serif" font-size="10.00">unsafe void * ToPointer()</text>
<text text-anchor="start" x="271.5" y="-1943" font-family="Helvetica,sans-Serif" font-size="10.00">+</text>
<text text-anchor="start" x="284.5" y="-1943" font-family="Helvetica,sans-Serif" font-size="10.00">override string ToString()</text>
<text text-anchor="start" x="271.5" y="-1928" font-family="Helvetica,sans-Serif" font-size="10.00">+</text>
<text text-anchor="start" x="284.5" y="-1928" font-family="Helvetica,sans-Serif" font-size="10.00">string ToString(string</text>
<text text-anchor="start" x="284.5" y="-1917" font-family="Helvetica,sans-Serif" font-size="10.00"> format)</text>
<text text-anchor="start" x="271.5" y="-1902" font-family="Helvetica,sans-Serif" font-size="10.00">+</text>
<text text-anchor="start" x="284.5" y="-1902" font-family="Helvetica,sans-Serif" font-size="10.00">static unsafe bool</text>
<text text-anchor="start" x="284.5" y="-1891" font-family="Helvetica,sans-Serif" font-size="10.00"> operator==(global::</text>
<text text-anchor="start" x="284.5" y="-1880" font-family="Helvetica,sans-Serif" font-size="10.00">System.IntPtr value1,</text>
<text text-anchor="start" x="284.5" y="-1869" font-family="Helvetica,sans-Serif" font-size="10.00"> global::System.IntPtr</text>
<text text-anchor="start" x="284.5" y="-1858" font-family="Helvetica,sans-Serif" font-size="10.00"> value2)</text>
<text text-anchor="start" x="271.5" y="-1843" font-family="Helvetica,sans-Serif" font-size="10.00">+</text>
<text text-anchor="start" x="284.5" y="-1843" font-family="Helvetica,sans-Serif" font-size="10.00">static unsafe bool</text>
<text text-anchor="start" x="284.5" y="-1832" font-family="Helvetica,sans-Serif" font-size="10.00"> operator!=(global::</text>
<text text-anchor="start" x="284.5" y="-1821" font-family="Helvetica,sans-Serif" font-size="10.00">System.IntPtr value1,</text>
<text text-anchor="start" x="284.5" y="-1810" font-family="Helvetica,sans-Serif" font-size="10.00"> global::System.IntPtr</text>
<text text-anchor="start" x="284.5" y="-1799" font-family="Helvetica,sans-Serif" font-size="10.00"> value2)</text>
<text text-anchor="start" x="271.5" y="-1784" font-family="Helvetica,sans-Serif" font-size="10.00">+</text>
<text text-anchor="start" x="284.5" y="-1784" font-family="Helvetica,sans-Serif" font-size="10.00">static operator global</text>
<text text-anchor="start" x="284.5" y="-1773" font-family="Helvetica,sans-Serif" font-size="10.00">::System.IntPtr(int value)</text>
<text text-anchor="start" x="271.5" y="-1758" font-family="Helvetica,sans-Serif" font-size="10.00">+</text>
<text text-anchor="start" x="284.5" y="-1758" font-family="Helvetica,sans-Serif" font-size="10.00">static operator global</text>
<text text-anchor="start" x="284.5" y="-1747" font-family="Helvetica,sans-Serif" font-size="10.00">::System.IntPtr(long value)</text>
<text text-anchor="start" x="271.5" y="-1732" font-family="Helvetica,sans-Serif" font-size="10.00">+</text>
<text text-anchor="start" x="284.5" y="-1732" font-family="Helvetica,sans-Serif" font-size="10.00">static unsafe operator</text>
<text text-anchor="start" x="284.5" y="-1721" font-family="Helvetica,sans-Serif" font-size="10.00"> global::System.IntPtr</text>
<text text-anchor="start" x="284.5" y="-1710" font-family="Helvetica,sans-Serif" font-size="10.00">(void *value)</text>
<text text-anchor="start" x="271.5" y="-1695" font-family="Helvetica,sans-Serif" font-size="10.00">+</text>
<text text-anchor="start" x="284.5" y="-1695" font-family="Helvetica,sans-Serif" font-size="10.00">static operator int</text>
<text text-anchor="start" x="284.5" y="-1684" font-family="Helvetica,sans-Serif" font-size="10.00">(global::System.IntPtr</text>
<text text-anchor="start" x="284.5" y="-1673" font-family="Helvetica,sans-Serif" font-size="10.00"> value)</text>
<text text-anchor="start" x="271.5" y="-1658" font-family="Helvetica,sans-Serif" font-size="10.00">+</text>
<text text-anchor="start" x="284.5" y="-1658" font-family="Helvetica,sans-Serif" font-size="10.00">static operator long</text>
<text text-anchor="start" x="284.5" y="-1647" font-family="Helvetica,sans-Serif" font-size="10.00">(global::System.IntPtr</text>
<text text-anchor="start" x="284.5" y="-1636" font-family="Helvetica,sans-Serif" font-size="10.00"> value)</text>
<text text-anchor="start" x="271.5" y="-1621" font-family="Helvetica,sans-Serif" font-size="10.00">+</text>
<text text-anchor="start" x="284.5" y="-1621" font-family="Helvetica,sans-Serif" font-size="10.00">static unsafe operator</text>
<text text-anchor="start" x="284.5" y="-1610" font-family="Helvetica,sans-Serif" font-size="10.00"> void *(global::System.IntPtr</text>
<text text-anchor="start" x="284.5" y="-1599" font-family="Helvetica,sans-Serif" font-size="10.00"> value)</text>
<text text-anchor="start" x="271.5" y="-1584" font-family="Helvetica,sans-Serif" font-size="10.00">+</text>
<text text-anchor="start" x="284.5" y="-1584" font-family="Helvetica,sans-Serif" font-size="10.00">static global::System.Int</text>
<text text-anchor="start" x="284.5" y="-1573" font-family="Helvetica,sans-Serif" font-size="10.00">Ptr Add(global::System.IntPtr</text>
<text text-anchor="start" x="284.5" y="-1562" font-family="Helvetica,sans-Serif" font-size="10.00"> pointer, int offset)</text>
<text text-anchor="start" x="271.5" y="-1547" font-family="Helvetica,sans-Serif" font-size="10.00">+</text>
<text text-anchor="start" x="284.5" y="-1547" font-family="Helvetica,sans-Serif" font-size="10.00">static global::System.Int</text>
<text text-anchor="start" x="284.5" y="-1536" font-family="Helvetica,sans-Serif" font-size="10.00">Ptr operator+(global::System.Int</text>
<text text-anchor="start" x="284.5" y="-1525" font-family="Helvetica,sans-Serif" font-size="10.00">Ptr pointer, int offset)</text>
<text text-anchor="start" x="271.5" y="-1510" font-family="Helvetica,sans-Serif" font-size="10.00">+</text>
<text text-anchor="start" x="284.5" y="-1510" font-family="Helvetica,sans-Serif" font-size="10.00">static global::System.Int</text>
<text text-anchor="start" x="284.5" y="-1499" font-family="Helvetica,sans-Serif" font-size="10.00">Ptr operator&#45;(global::System.Int</text>
<text text-anchor="start" x="284.5" y="-1488" font-family="Helvetica,sans-Serif" font-size="10.00">Ptr pointer, int offset)</text>
<text text-anchor="start" x="271.5" y="-1473" font-family="Helvetica,sans-Serif" font-size="10.00">~</text>
<text text-anchor="start" x="284.5" y="-1473" font-family="Helvetica,sans-Serif" font-size="10.00">bool IsNull()</text>
<text text-anchor="start" x="274" y="-1458" font-family="Helvetica,sans-Serif" font-size="10.00">&#45;</text>
<text text-anchor="start" x="284.5" y="-1458" font-family="Helvetica,sans-Serif" font-size="10.00">IntPtr(global::System.Runtime.</text>
<text text-anchor="start" x="284.5" y="-1447" font-family="Helvetica,sans-Serif" font-size="10.00">Serialization.SerializationInfo</text>
<text text-anchor="start" x="284.5" y="-1436" font-family="Helvetica,sans-Serif" font-size="10.00"> info, global::System.Runtime.Serialization.</text>
<text text-anchor="start" x="284.5" y="-1425" font-family="Helvetica,sans-Serif" font-size="10.00">StreamingContext context)</text>
<text text-anchor="start" x="274" y="-1410" font-family="Helvetica,sans-Serif" font-size="10.00">&#45;</text>
<text text-anchor="start" x="284.5" y="-1410" font-family="Helvetica,sans-Serif" font-size="10.00">void System.Runtime.Serialization.</text>
<text text-anchor="start" x="284.5" y="-1399" font-family="Helvetica,sans-Serif" font-size="10.00">ISerializable. GetObjectData</text>
<text text-anchor="start" x="284.5" y="-1388" font-family="Helvetica,sans-Serif" font-size="10.00">(global::System.Runtime.Serialization.</text>
<text text-anchor="start" x="284.5" y="-1377" font-family="Helvetica,sans-Serif" font-size="10.00">SerializationInfo info, global::System.Runtime.</text>
<text text-anchor="start" x="284.5" y="-1366" font-family="Helvetica,sans-Serif" font-size="10.00">Serialization.StreamingContext context)</text>
<text text-anchor="start" x="274" y="-1351" font-family="Helvetica,sans-Serif" font-size="10.00">&#45;</text>
<text text-anchor="start" x="284.5" y="-1351" font-family="Helvetica,sans-Serif" font-size="10.00">bool System.IEquatable</text>
<text text-anchor="start" x="284.5" y="-1340" font-family="Helvetica,sans-Serif" font-size="10.00">&lt; System.IntPtr &gt;. Equals</text>
<text text-anchor="start" x="284.5" y="-1329" font-family="Helvetica,sans-Serif" font-size="10.00">(global::System.IntPtr other)</text>
<polygon fill="#666666" stroke="#666666" points="267.5,-2095 267.5,-2095 516.5,-2095 516.5,-2095 267.5,-2095"/>
<polygon fill="#666666" stroke="#666666" points="267.5,-2080 267.5,-2080 282.5,-2080 282.5,-2080 267.5,-2080"/>
<polygon fill="#666666" stroke="#666666" points="282.5,-2080 282.5,-2080 516.5,-2080 516.5,-2080 282.5,-2080"/>
<polygon fill="none" stroke="#666666" points="267,-1322 267,-2112 516,-2112 516,-1322 267,-1322"/>
</a>
</g>
</g>
<!-- Node6&#45;&gt;Node5 -->
<g id="edge6_Node000005_Node000006" class="edge">
<title>Node6&#45;&gt;Node5</title>
<g id="a_edge6_Node000005_Node000006"><a xlink:title=" ">
<path fill="none" stroke="#63b8ff" d="M391.5,-1321.79C391.5,-1309.42 391.5,-1297.79 391.5,-1287.1"/>
<polygon fill="none" stroke="#63b8ff" points="391.5,-1287.01 387.5,-1281.01 391.5,-1275.01 395.5,-1281.01 391.5,-1287.01"/>
</a>
</g>
<text text-anchor="middle" x="421.5" y="-1296" font-family="Helvetica,sans-Serif" font-size="10.00" fill="grey"> #m_jobject</text>
</g>
<!-- Node6&#45;&gt;Node6 -->
<g id="edge10_Node000006_Node000006" class="edge">
<title>Node6&#45;&gt;Node6</title>
<g id="a_edge10_Node000006_Node000006"><a xlink:title=" ">
<path fill="none" stroke="#63b8ff" d="M516.09,-1778.72C527.1,-1765.74 534,-1745.17 534,-1717 534,-1695.22 529.87,-1677.97 522.91,-1665.27"/>
<polygon fill="none" stroke="#63b8ff" points="522.85,-1665.19 516.16,-1662.49 516.09,-1655.28 522.77,-1657.98 522.85,-1665.19"/>
</a>
</g>
<text text-anchor="middle" x="551" y="-1714.5" font-family="Helvetica,sans-Serif" font-size="10.00" fill="grey"> +Zero</text>
</g>
<!-- Node7 -->
<g id="Node000007" class="node">
<title>Node7</title>
<g id="a_Node000007"><a xlink:title=" ">
<polygon fill="white" stroke="transparent" points="306,-2219 163,-2219 163,-2159 306,-2159 306,-2219"/>
<text text-anchor="start" x="168.5" y="-2207" font-family="Helvetica,sans-Serif" font-size="10.00">global::SystemRuntime</text>
<text text-anchor="start" x="168.5" y="-2196" font-family="Helvetica,sans-Serif" font-size="10.00">::Serialization::ISerializable</text>
<text text-anchor="start" x="233" y="-2181" font-family="Helvetica,sans-Serif" font-size="10.00"> </text>
<text text-anchor="start" x="233" y="-2166" font-family="Helvetica,sans-Serif" font-size="10.00"> </text>
<polygon fill="#666666" stroke="#666666" points="163.5,-2191 163.5,-2191 306.5,-2191 306.5,-2191 163.5,-2191"/>
<polygon fill="#666666" stroke="#666666" points="163.5,-2176 163.5,-2176 306.5,-2176 306.5,-2176 163.5,-2176"/>
<polygon fill="none" stroke="#666666" points="163,-2159 163,-2219 306,-2219 306,-2159 163,-2159"/>
</a>
</g>
</g>
<!-- Node7&#45;&gt;Node6 -->
<g id="edge7_Node000006_Node000007" class="edge">
<title>Node7&#45;&gt;Node6</title>
<g id="a_edge7_Node000006_Node000007"><a xlink:title=" ">
<path fill="none" stroke="#63b8ff" d="M247.47,-2149.17C252.75,-2133.37 259.38,-2113.5 266.89,-2091.03"/>
<polygon fill="none" stroke="#63b8ff" points="244.05,-2148.36 244.2,-2158.95 250.69,-2150.58 244.05,-2148.36"/>
</a>
</g>
</g>
<!-- Node8 -->
<g id="Node000008" class="node">
<title>Node8</title>
<g id="a_Node000008"><a xlink:title=" ">
<polygon fill="white" stroke="transparent" points="459,-2219 324,-2219 324,-2159 459,-2159 459,-2219"/>
<text text-anchor="start" x="329.5" y="-2207" font-family="Helvetica,sans-Serif" font-size="10.00">global::SystemIEquatable</text>
<text text-anchor="start" x="329.5" y="-2196" font-family="Helvetica,sans-Serif" font-size="10.00">&lt; global::System.IntPtr &gt;</text>
<text text-anchor="start" x="390" y="-2181" font-family="Helvetica,sans-Serif" font-size="10.00"> </text>
<text text-anchor="start" x="390" y="-2166" font-family="Helvetica,sans-Serif" font-size="10.00"> </text>
<polygon fill="#666666" stroke="#666666" points="324.5,-2191 324.5,-2191 459.5,-2191 459.5,-2191 324.5,-2191"/>
<polygon fill="#666666" stroke="#666666" points="324.5,-2176 324.5,-2176 459.5,-2176 459.5,-2176 324.5,-2176"/>
<polygon fill="none" stroke="#666666" points="324,-2159 324,-2219 459,-2219 459,-2159 324,-2159"/>
</a>
</g>
</g>
<!-- Node8&#45;&gt;Node6 -->
<g id="edge8_Node000006_Node000008" class="edge">
<title>Node8&#45;&gt;Node6</title>
<g id="a_edge8_Node000006_Node000008"><a xlink:title=" ">
<path fill="none" stroke="#63b8ff" d="M391.5,-2148.68C391.5,-2138.2 391.5,-2125.96 391.5,-2112.37"/>
<polygon fill="none" stroke="#63b8ff" points="388,-2148.95 391.5,-2158.95 395,-2148.95 388,-2148.95"/>
</a>
</g>
</g>
<!-- Node9 -->
<g id="Node000009" class="node">
<title>Node9</title>
<g id="a_Node000009"><a xlink:title=" ">
<polygon fill="white" stroke="transparent" points="599.5,-2213.5 477.5,-2213.5 477.5,-2164.5 599.5,-2164.5 599.5,-2213.5"/>
<text text-anchor="start" x="482.5" y="-2201" font-family="Helvetica,sans-Serif" font-size="10.00">unsafe readonly void *</text>
<text text-anchor="start" x="536.5" y="-2186" font-family="Helvetica,sans-Serif" font-size="10.00"> </text>
<text text-anchor="start" x="536.5" y="-2171" font-family="Helvetica,sans-Serif" font-size="10.00"> </text>
<polygon fill="#666666" stroke="#666666" points="477.5,-2196 477.5,-2196 599.5,-2196 599.5,-2196 477.5,-2196"/>
<polygon fill="#666666" stroke="#666666" points="477.5,-2181 477.5,-2181 599.5,-2181 599.5,-2181 477.5,-2181"/>
<polygon fill="none" stroke="#666666" points="477.5,-2164.5 477.5,-2213.5 599.5,-2213.5 599.5,-2164.5 477.5,-2164.5"/>
</a>
</g>
</g>
<!-- Node9&#45;&gt;Node6 -->
<g id="edge9_Node000006_Node000009" class="edge">
<title>Node9&#45;&gt;Node6</title>
<g id="a_edge9_Node000006_Node000009"><a xlink:title=" ">
<path fill="none" stroke="#63b8ff" d="M531.11,-2164.37C527.77,-2153.71 523.44,-2139.84 518.37,-2123.63"/>
<polygon fill="none" stroke="#63b8ff" points="518.32,-2123.49 512.71,-2118.96 514.74,-2112.04 520.35,-2116.57 518.32,-2123.49"/>
</a>
</g>
<text text-anchor="middle" x="547" y="-2133" font-family="Helvetica,sans-Serif" font-size="10.00" fill="grey"> &#45;m_value</text>
</g>
</g>
</svg>

<g id="navigator" transform="translate(0 0)" fill="#404254">
  <rect fill="#f2f5e9" fill-opacity="0.5" stroke="#606060" stroke-width=".5" x="0" y="0" width="60" height="60"/>
  <use id="zoomplus" xlink:href="#zoomPlus" x="17" y="9" onmousedown="handleZoom(evt,'in')"/>
  <use id="zoomminus" xlink:href="#zoomMin" x="42" y="9" onmousedown="handleZoom(evt,'out')"/>
  <use id="reset" xlink:href="#resetDef" x="30" y="36" onmousedown="handleReset()"/>
   <use id="arrowup" xlink:href="#arrowUp" x="0" y="0" onmousedown="handlePan(0,-1)"/>
  <use id="arrowright" xlink:href="#arrowRight" x="0" y="0" onmousedown="handlePan(1,0)"/>
  <use id="arrowdown" xlink:href="#arrowDown" x="0" y="0" onmousedown="handlePan(0,1)"/>
  <use id="arrowleft" xlink:href="#arrowLeft" x="0" y="0" onmousedown="handlePan(-1,0)"/>
</g>
<svg viewBox="0 0 15 15" width="100%" height="30px" preserveAspectRatio="xMaxYMin meet">
 <g id="arrow_out" transform="scale(0.3 0.3)">
  <a xlink:href="classUnityEngine_1_1Android_1_1AndroidAssetPacks__coll__graph_org.svg" target="_base">
   <rect id="button" ry="5" rx="5" y="6" x="6" height="38" width="38"
        fill="#f2f5e9" fill-opacity="0.5" stroke="#606060" stroke-width="1.0"/>
   <path id="arrow"
     d="M 11.500037,31.436501 C 11.940474,20.09759 22.043105,11.32322 32.158766,21.979434 L 37.068811,17.246167 C 37.068811,17.246167 37.088388,32 37.088388,32 L 22.160133,31.978069 C 22.160133,31.978069 26.997745,27.140456 26.997745,27.140456 C 18.528582,18.264221 13.291696,25.230495 11.500037,31.436501 z"
     style="fill:#404040;"/>
  </a>
 </g>
</svg>

<style type='text/css'>
<![CDATA[
[data-mouse-over-selected='false'] { opacity: 0.7; }
[data-mouse-over-selected='true']  { opacity: 1.0; }
]]>
</style>
<script type="application/ecmascript"><![CDATA[
document.addEventListener('DOMContentLoaded', (event) => {
  highlightEdges();
  highlightAdjacentNodes();
});
]]></script>
</svg>
