<?xml version="1.0" encoding="UTF-8" standalone="no"?>
<!DOCTYPE svg PUBLIC "-//W3C//DTD SVG 1.1//EN"
 "http://www.w3.org/Graphics/SVG/1.1/DTD/svg11.dtd">
<!-- Generated by graphviz version 2.43.0 (0)
 -->
<!-- Title: Microsoft.Xna.Framework.Content.ContentManager.SourceAssetEntry Pages: 1 -->
<svg width="176pt" height="208pt"
 viewBox="0.00 0.00 176.00 208.00" xmlns="http://www.w3.org/2000/svg" xmlns:xlink="http://www.w3.org/1999/xlink">
<g id="graph0" class="graph" transform="scale(1 1) rotate(0) translate(4 204)">
<title>Microsoft.Xna.Framework.Content.ContentManager.SourceAssetEntry</title>
<!-- Node1 -->
<g id="Node000001" class="node">
<title>Node1</title>
<g id="a_Node000001"><a xlink:title=" ">
<polygon fill="#999999" stroke="transparent" points="168,-93 0,-93 0,0 168,0 168,-93"/>
<text text-anchor="start" x="5" y="-80.5" font-family="Helvetica,sans-Serif" font-size="10.00">Microsoft.Xna.Framework.</text>
<text text-anchor="start" x="5" y="-69.5" font-family="Helvetica,sans-Serif" font-size="10.00">Content.ContentManager.Source</text>
<text text-anchor="start" x="57.5" y="-58.5" font-family="Helvetica,sans-Serif" font-size="10.00">AssetEntry</text>
<text text-anchor="start" x="82" y="-43.5" font-family="Helvetica,sans-Serif" font-size="10.00"> </text>
<text text-anchor="start" x="11" y="-28.5" font-family="Helvetica,sans-Serif" font-size="10.00">+</text>
<text text-anchor="start" x="31" y="-28.5" font-family="Helvetica,sans-Serif" font-size="10.00">SourceAssetEntry(string</text>
<text text-anchor="start" x="31" y="-17.5" font-family="Helvetica,sans-Serif" font-size="10.00"> asset, int width, int</text>
<text text-anchor="start" x="31" y="-6.5" font-family="Helvetica,sans-Serif" font-size="10.00"> height)</text>
<polygon fill="#666666" stroke="#666666" points="0,-53.5 0,-53.5 168,-53.5 168,-53.5 0,-53.5"/>
<polygon fill="#666666" stroke="#666666" points="0,-38.5 0,-38.5 168,-38.5 168,-38.5 0,-38.5"/>
<polygon fill="none" stroke="#666666" points="0,0 0,-93 168,-93 168,0 0,0"/>
</a>
</g>
</g>
<!-- Node2 -->
<g id="Node000002" class="node">
<title>Node2</title>
<g id="a_Node000002"><a xlink:title=" ">
<polygon fill="white" stroke="transparent" points="72,-200 34,-200 34,-151 72,-151 72,-200"/>
<text text-anchor="start" x="39" y="-187.5" font-family="Helvetica,sans-Serif" font-size="10.00">string</text>
<text text-anchor="start" x="51" y="-172.5" font-family="Helvetica,sans-Serif" font-size="10.00"> </text>
<text text-anchor="start" x="51" y="-157.5" font-family="Helvetica,sans-Serif" font-size="10.00"> </text>
<polygon fill="#666666" stroke="#666666" points="34,-182.5 34,-182.5 72,-182.5 72,-182.5 34,-182.5"/>
<polygon fill="#666666" stroke="#666666" points="34,-167.5 34,-167.5 72,-167.5 72,-167.5 34,-167.5"/>
<polygon fill="none" stroke="#666666" points="34,-151 34,-200 72,-200 72,-151 34,-151"/>
</a>
</g>
</g>
<!-- Node2&#45;&gt;Node1 -->
<g id="edge1_Node000001_Node000002" class="edge">
<title>Node2&#45;&gt;Node1</title>
<g id="a_edge1_Node000001_Node000002"><a xlink:title=" ">
<path fill="none" stroke="#63b8ff" d="M51.02,-150.99C50.59,-138.89 50.98,-123.99 54,-111 54.5,-108.87 55.07,-106.72 55.71,-104.57"/>
<polygon fill="none" stroke="#63b8ff" points="55.74,-104.48 53.93,-97.5 59.67,-93.14 61.48,-100.12 55.74,-104.48"/>
</a>
</g>
<text text-anchor="middle" x="73.5" y="-119.5" font-family="Helvetica,sans-Serif" font-size="10.00" fill="grey"> +Asset</text>
</g>
<!-- Node3 -->
<g id="Node000003" class="node">
<title>Node3</title>
<g id="a_Node000003"><a xlink:title=" ">
<polygon fill="white" stroke="transparent" points="126.5,-200 103.5,-200 103.5,-151 126.5,-151 126.5,-200"/>
<text text-anchor="start" x="109" y="-187.5" font-family="Helvetica,sans-Serif" font-size="10.00">int</text>
<text text-anchor="start" x="113.5" y="-172.5" font-family="Helvetica,sans-Serif" font-size="10.00"> </text>
<text text-anchor="start" x="113.5" y="-157.5" font-family="Helvetica,sans-Serif" font-size="10.00"> </text>
<polygon fill="#666666" stroke="#666666" points="104,-182.5 104,-182.5 127,-182.5 127,-182.5 104,-182.5"/>
<polygon fill="#666666" stroke="#666666" points="104,-167.5 104,-167.5 127,-167.5 127,-167.5 104,-167.5"/>
<polygon fill="none" stroke="#666666" points="103.5,-151 103.5,-200 126.5,-200 126.5,-151 103.5,-151"/>
</a>
</g>
</g>
<!-- Node3&#45;&gt;Node1 -->
<g id="edge2_Node000001_Node000003" class="edge">
<title>Node3&#45;&gt;Node1</title>
<g id="a_edge2_Node000001_Node000003"><a xlink:title=" ">
<path fill="none" stroke="#63b8ff" d="M109.24,-150.91C106.06,-137.86 101.95,-121.04 97.98,-104.77"/>
<polygon fill="none" stroke="#63b8ff" points="97.97,-104.73 92.66,-99.85 95.13,-93.08 100.43,-97.96 97.97,-104.73"/>
</a>
</g>
<text text-anchor="middle" x="126" y="-125" font-family="Helvetica,sans-Serif" font-size="10.00" fill="grey"> +Height</text>
<text text-anchor="middle" x="126" y="-114" font-family="Helvetica,sans-Serif" font-size="10.00" fill="grey">+Width</text>
</g>
</g>
</svg>
