<?xml version="1.0" encoding="UTF-8" standalone="no"?>
<!DOCTYPE svg PUBLIC "-//W3C//DTD SVG 1.1//EN"
 "http://www.w3.org/Graphics/SVG/1.1/DTD/svg11.dtd">
<!-- Generated by graphviz version 2.43.0 (0)
 -->
<!-- Title: Terraria.GameContent.UI.NewMultiplayerClosePlayersOverlay Pages: 1 -->
<svg width="241pt" height="308pt"
 viewBox="0.00 0.00 241.00 308.00" xmlns="http://www.w3.org/2000/svg" xmlns:xlink="http://www.w3.org/1999/xlink">

<svg id="main" version="1.1" xmlns="http://www.w3.org/2000/svg" xmlns:xlink="http://www.w3.org/1999/xlink" xml:space="preserve" onload="init(evt)">
<style type="text/css"><![CDATA[
.node, .edge {opacity: 0.7;}
.node.selected, .edge.selected {opacity: 1;}
.edge:hover path { stroke: red; }
.edge:hover polygon { stroke: red; fill: red; }
]]></style>
<script type="application/ecmascript" xlink:href="../../svg.min.js"/>
<svg id="graph" class="graph">
<g id="graph0" class="graph" transform="scale(1 1) rotate(0) translate(4 304)">
<title>Terraria.GameContent.UI.NewMultiplayerClosePlayersOverlay</title>
<!-- Node1 -->
<g id="Node000001" class="node">
<title>Node1</title>
<g id="a_Node000001"><a xlink:title=" ">
<polygon fill="#999999" stroke="transparent" points="233,-204 0,-204 0,0 233,0 233,-204"/>
<text text-anchor="start" x="27.5" y="-192" font-family="Helvetica,sans-Serif" font-size="10.00">Terraria.GameContent.UI.</text>
<text text-anchor="start" x="27.5" y="-181" font-family="Helvetica,sans-Serif" font-size="10.00">NewMultiplayerClosePlayersOverlay</text>
<text text-anchor="start" x="7" y="-166" font-family="Helvetica,sans-Serif" font-size="10.00">&#45;</text>
<text text-anchor="start" x="17.5" y="-166" font-family="Helvetica,sans-Serif" font-size="10.00">List&lt; PlayerOnScreenCache</text>
<text text-anchor="start" x="17.5" y="-155" font-family="Helvetica,sans-Serif" font-size="10.00"> &gt; _playerOnScreenCache</text>
<text text-anchor="start" x="7" y="-140" font-family="Helvetica,sans-Serif" font-size="10.00">&#45;</text>
<text text-anchor="start" x="17.5" y="-140" font-family="Helvetica,sans-Serif" font-size="10.00">List&lt; PlayerOffScreenCache</text>
<text text-anchor="start" x="17.5" y="-129" font-family="Helvetica,sans-Serif" font-size="10.00"> &gt; _playerOffScreenCache</text>
<text text-anchor="start" x="4.5" y="-114" font-family="Helvetica,sans-Serif" font-size="10.00">+</text>
<text text-anchor="start" x="17.5" y="-114" font-family="Helvetica,sans-Serif" font-size="10.00">void Draw()</text>
<text text-anchor="start" x="4.5" y="-99" font-family="Helvetica,sans-Serif" font-size="10.00">+</text>
<text text-anchor="start" x="17.5" y="-99" font-family="Helvetica,sans-Serif" font-size="10.00">NewMultiplayerClosePlayers</text>
<text text-anchor="start" x="17.5" y="-88" font-family="Helvetica,sans-Serif" font-size="10.00">Overlay()</text>
<text text-anchor="start" x="7" y="-73" font-family="Helvetica,sans-Serif" font-size="10.00">&#45;</text>
<text text-anchor="start" x="17.5" y="-73" font-family="Helvetica,sans-Serif" font-size="10.00">static void GetDistance</text>
<text text-anchor="start" x="17.5" y="-62" font-family="Helvetica,sans-Serif" font-size="10.00">(int testWidth, int testHeight,</text>
<text text-anchor="start" x="17.5" y="-51" font-family="Helvetica,sans-Serif" font-size="10.00"> Vector2 testPosition, Player</text>
<text text-anchor="start" x="17.5" y="-40" font-family="Helvetica,sans-Serif" font-size="10.00"> localPlayer, SpriteFont font,</text>
<text text-anchor="start" x="17.5" y="-29" font-family="Helvetica,sans-Serif" font-size="10.00"> Player player, string nameToShow,</text>
<text text-anchor="start" x="17.5" y="-18" font-family="Helvetica,sans-Serif" font-size="10.00"> out Vector2 namePlatePos, out float</text>
<text text-anchor="start" x="17.5" y="-7" font-family="Helvetica,sans-Serif" font-size="10.00"> namePlateDist, out Vector2 measurement)</text>
<polygon fill="#666666" stroke="#666666" points="0.5,-176 0.5,-176 233.5,-176 233.5,-176 0.5,-176"/>
<polygon fill="#666666" stroke="#666666" points="0.5,-124 0.5,-124 15.5,-124 15.5,-124 0.5,-124"/>
<polygon fill="#666666" stroke="#666666" points="15.5,-124 15.5,-124 233.5,-124 233.5,-124 15.5,-124"/>
<polygon fill="none" stroke="#666666" points="0,0 0,-204 233,-204 233,0 0,0"/>
</a>
</g>
</g>
<!-- Node2 -->
<g id="Node000002" class="node">
<title>Node2</title>
<g id="a_Node000002"><a xlink:href="../../d0/d8c/interfaceTerraria_1_1GameContent_1_1UI_1_1IMultiplayerClosePlayersOverlay.html" target="_top" xlink:title=" ">
<polygon fill="white" stroke="transparent" points="182.5,-300 50.5,-300 50.5,-240 182.5,-240 182.5,-300"/>
<text text-anchor="start" x="55.5" y="-288" font-family="Helvetica,sans-Serif" font-size="10.00">IMultiplayerClosePlayers</text>
<text text-anchor="start" x="97" y="-277" font-family="Helvetica,sans-Serif" font-size="10.00">Overlay</text>
<text text-anchor="start" x="114.5" y="-262" font-family="Helvetica,sans-Serif" font-size="10.00"> </text>
<text text-anchor="start" x="67.5" y="-247" font-family="Helvetica,sans-Serif" font-size="10.00">+</text>
<text text-anchor="start" x="93.5" y="-247" font-family="Helvetica,sans-Serif" font-size="10.00">void Draw()</text>
<polygon fill="#666666" stroke="#666666" points="50.5,-272 50.5,-272 182.5,-272 182.5,-272 50.5,-272"/>
<polygon fill="#666666" stroke="#666666" points="50.5,-257 50.5,-257 182.5,-257 182.5,-257 50.5,-257"/>
<polygon fill="none" stroke="#666666" points="50.5,-240 50.5,-300 182.5,-300 182.5,-240 50.5,-240"/>
</a>
</g>
</g>
<!-- Node2&#45;&gt;Node1 -->
<g id="edge1_Node000001_Node000002" class="edge">
<title>Node2&#45;&gt;Node1</title>
<g id="a_edge1_Node000001_Node000002"><a xlink:title=" ">
<path fill="none" stroke="#63b8ff" d="M116.5,-229.49C116.5,-221.64 116.5,-213.07 116.5,-204.2"/>
<polygon fill="none" stroke="#63b8ff" points="113,-229.7 116.5,-239.7 120,-229.7 113,-229.7"/>
</a>
</g>
</g>
</g>
</svg>
</svg>

<style type='text/css'>
<![CDATA[
[data-mouse-over-selected='false'] { opacity: 0.7; }
[data-mouse-over-selected='true']  { opacity: 1.0; }
]]>
</style>
<script type="application/ecmascript"><![CDATA[
document.addEventListener('DOMContentLoaded', (event) => {
  highlightEdges();
  highlightAdjacentNodes();
});
]]></script>
</svg>
