<?xml version="1.0" encoding="UTF-8" standalone="no"?>
<!DOCTYPE svg PUBLIC "-//W3C//DTD SVG 1.1//EN"
 "http://www.w3.org/Graphics/SVG/1.1/DTD/svg11.dtd">
<!-- Generated by graphviz version 2.43.0 (0)
 -->
<!-- Title: System.Security.Cryptography.SHA512Managed Pages: 1 -->
<!--zoomable 1764 -->

<svg id="main" version="1.1" xmlns="http://www.w3.org/2000/svg" xmlns:xlink="http://www.w3.org/1999/xlink" xml:space="preserve" onload="init(evt)">
<style type="text/css"><![CDATA[
.node, .edge {opacity: 0.7;}
.node.selected, .edge.selected {opacity: 1;}
.edge:hover path { stroke: red; }
.edge:hover polygon { stroke: red; fill: red; }
]]></style>

<defs>
  <circle id="rim" cx="0" cy="0" r="7"/>
  <circle id="rim2" cx="0" cy="0" r="3.5"/>
  <g id="zoomPlus">
    <use xlink:href="#rim" fill="#404040"><set attributeName="fill" to="#808080" begin="zoomplus.mouseover" end="zoomplus.mouseout"/></use>
    <path d="M-4,0h8M0,-4v8" fill="none" stroke="white" stroke-width="1.5" pointer-events="none"/>
  </g>
  <g id="zoomMin">
    <use xlink:href="#rim" fill="#404040"><set attributeName="fill" to="#808080" begin="zoomminus.mouseover" end="zoomminus.mouseout"/></use>
    <path d="M-4,0h8" fill="none" stroke="white" stroke-width="1.5" pointer-events="none"/>
  </g>
  <g id="arrowUp" transform="translate(30 24)">
    <use xlink:href="#rim"/>
    <path pointer-events="none" fill="none" stroke="white" stroke-width="1.5" d="M0,-3.0v7 M-2.5,-0.5L0,-3.0L2.5,-0.5"/>
  </g>
  <g id="arrowRight" transform="rotate(90) translate(36 -43)">
    <use xlink:href="#rim"/>
    <path pointer-events="none" fill="none" stroke="white" stroke-width="1.5" d="M0,-3.0v7 M-2.5,-0.5L0,-3.0L2.5,-0.5"/>
  </g>
  <g id="arrowDown" transform="rotate(180) translate(-30 -48)">
    <use xlink:href="#rim"/>
    <path pointer-events="none" fill="none" stroke="white" stroke-width="1.5" d="M0,-3.0v7 M-2.5,-0.5L0,-3.0L2.5,-0.5"/>
  </g>
  <g id="arrowLeft" transform="rotate(270) translate(-36 17)">
    <use xlink:href="#rim"/>
    <path pointer-events="none" fill="none" stroke="white" stroke-width="1.5" d="M0,-3.0v7 M-2.5,-0.5L0,-3.0L2.5,-0.5"/>
  </g>
  <g id="resetDef">
    <use xlink:href="#rim2" fill="#404040"><set attributeName="fill" to="#808080" begin="reset.mouseover" end="reset.mouseout"/></use>
  </g>
</defs>
<script type="application/ecmascript">
var viewWidth = 256;
var viewHeight = 1764;
var sectionId = 'dynsection-0';
</script>
<script type="application/ecmascript" xlink:href="../../svg.min.js"/>
<svg id="graph" class="graph">
<g id="viewport">
<title>System.Security.Cryptography.SHA512Managed</title>
<!-- Node1 -->
<g id="Node000001" class="node">
<title>Node1</title>
<g id="a_Node000001"><a xlink:title=" ">
<polygon fill="#999999" stroke="transparent" points="178.5,-525 19.5,-525 19.5,0 178.5,0 178.5,-525"/>
<text text-anchor="start" x="25" y="-512.5" font-family="Helvetica,sans-Serif" font-size="10.00">System.Security.Cryptography.</text>
<text text-anchor="start" x="57.5" y="-501.5" font-family="Helvetica,sans-Serif" font-size="10.00">SHA512Managed</text>
<text text-anchor="start" x="28" y="-486.5" font-family="Helvetica,sans-Serif" font-size="10.00">&#45;</text>
<text text-anchor="start" x="40" y="-486.5" font-family="Helvetica,sans-Serif" font-size="10.00">byte[] _buffer</text>
<text text-anchor="start" x="28" y="-471.5" font-family="Helvetica,sans-Serif" font-size="10.00">&#45;</text>
<text text-anchor="start" x="40" y="-471.5" font-family="Helvetica,sans-Serif" font-size="10.00">ulong _count</text>
<text text-anchor="start" x="28" y="-456.5" font-family="Helvetica,sans-Serif" font-size="10.00">&#45;</text>
<text text-anchor="start" x="40" y="-456.5" font-family="Helvetica,sans-Serif" font-size="10.00">ulong[] _stateSHA512</text>
<text text-anchor="start" x="28" y="-441.5" font-family="Helvetica,sans-Serif" font-size="10.00">&#45;</text>
<text text-anchor="start" x="40" y="-441.5" font-family="Helvetica,sans-Serif" font-size="10.00">ulong[] _W</text>
<text text-anchor="start" x="28" y="-426.5" font-family="Helvetica,sans-Serif" font-size="10.00">&#45;</text>
<text text-anchor="start" x="40" y="-426.5" font-family="Helvetica,sans-Serif" font-size="10.00">static readonly ulong[] _K</text>
<text text-anchor="start" x="25.5" y="-411.5" font-family="Helvetica,sans-Serif" font-size="10.00">+</text>
<text text-anchor="start" x="40" y="-411.5" font-family="Helvetica,sans-Serif" font-size="10.00">SHA512Managed()</text>
<text text-anchor="start" x="25.5" y="-396.5" font-family="Helvetica,sans-Serif" font-size="10.00">+</text>
<text text-anchor="start" x="40" y="-396.5" font-family="Helvetica,sans-Serif" font-size="10.00">override void Initialize()</text>
<text text-anchor="start" x="25.5" y="-381.5" font-family="Helvetica,sans-Serif" font-size="10.00">#</text>
<text text-anchor="start" x="40" y="-381.5" font-family="Helvetica,sans-Serif" font-size="10.00">override void HashCore</text>
<text text-anchor="start" x="40" y="-370.5" font-family="Helvetica,sans-Serif" font-size="10.00">(byte[] rgb, int ibStart,</text>
<text text-anchor="start" x="40" y="-359.5" font-family="Helvetica,sans-Serif" font-size="10.00"> int cbSize)</text>
<text text-anchor="start" x="25.5" y="-344.5" font-family="Helvetica,sans-Serif" font-size="10.00">#</text>
<text text-anchor="start" x="40" y="-344.5" font-family="Helvetica,sans-Serif" font-size="10.00">override byte[] HashFinal()</text>
<text text-anchor="start" x="28" y="-329.5" font-family="Helvetica,sans-Serif" font-size="10.00">&#45;</text>
<text text-anchor="start" x="40" y="-329.5" font-family="Helvetica,sans-Serif" font-size="10.00">void InitializeState()</text>
<text text-anchor="start" x="28" y="-314.5" font-family="Helvetica,sans-Serif" font-size="10.00">&#45;</text>
<text text-anchor="start" x="40" y="-314.5" font-family="Helvetica,sans-Serif" font-size="10.00">unsafe void _HashData</text>
<text text-anchor="start" x="40" y="-303.5" font-family="Helvetica,sans-Serif" font-size="10.00">(byte[] partIn, int ibStart,</text>
<text text-anchor="start" x="40" y="-292.5" font-family="Helvetica,sans-Serif" font-size="10.00"> int cbSize)</text>
<text text-anchor="start" x="28" y="-277.5" font-family="Helvetica,sans-Serif" font-size="10.00">&#45;</text>
<text text-anchor="start" x="40" y="-277.5" font-family="Helvetica,sans-Serif" font-size="10.00">byte[] _EndHash()</text>
<text text-anchor="start" x="28" y="-262.5" font-family="Helvetica,sans-Serif" font-size="10.00">&#45;</text>
<text text-anchor="start" x="40" y="-262.5" font-family="Helvetica,sans-Serif" font-size="10.00">static unsafe void</text>
<text text-anchor="start" x="40" y="-251.5" font-family="Helvetica,sans-Serif" font-size="10.00"> SHATransform(ulong</text>
<text text-anchor="start" x="40" y="-240.5" font-family="Helvetica,sans-Serif" font-size="10.00"> *expandedBuffer, ulong</text>
<text text-anchor="start" x="40" y="-229.5" font-family="Helvetica,sans-Serif" font-size="10.00"> *state, byte *block)</text>
<text text-anchor="start" x="28" y="-214.5" font-family="Helvetica,sans-Serif" font-size="10.00">&#45;</text>
<text text-anchor="start" x="40" y="-214.5" font-family="Helvetica,sans-Serif" font-size="10.00">static ulong RotateRight</text>
<text text-anchor="start" x="40" y="-203.5" font-family="Helvetica,sans-Serif" font-size="10.00">(ulong x, int n)</text>
<text text-anchor="start" x="28" y="-188.5" font-family="Helvetica,sans-Serif" font-size="10.00">&#45;</text>
<text text-anchor="start" x="40" y="-188.5" font-family="Helvetica,sans-Serif" font-size="10.00">static ulong Ch(ulong</text>
<text text-anchor="start" x="40" y="-177.5" font-family="Helvetica,sans-Serif" font-size="10.00"> x, ulong y, ulong z)</text>
<text text-anchor="start" x="28" y="-162.5" font-family="Helvetica,sans-Serif" font-size="10.00">&#45;</text>
<text text-anchor="start" x="40" y="-162.5" font-family="Helvetica,sans-Serif" font-size="10.00">static ulong Maj(ulong</text>
<text text-anchor="start" x="40" y="-151.5" font-family="Helvetica,sans-Serif" font-size="10.00"> x, ulong y, ulong z)</text>
<text text-anchor="start" x="28" y="-136.5" font-family="Helvetica,sans-Serif" font-size="10.00">&#45;</text>
<text text-anchor="start" x="40" y="-136.5" font-family="Helvetica,sans-Serif" font-size="10.00">static unsafe ulong</text>
<text text-anchor="start" x="40" y="-125.5" font-family="Helvetica,sans-Serif" font-size="10.00"> Sigma_0(ulong x)</text>
<text text-anchor="start" x="28" y="-110.5" font-family="Helvetica,sans-Serif" font-size="10.00">&#45;</text>
<text text-anchor="start" x="40" y="-110.5" font-family="Helvetica,sans-Serif" font-size="10.00">static unsafe ulong</text>
<text text-anchor="start" x="40" y="-99.5" font-family="Helvetica,sans-Serif" font-size="10.00"> Sigma_1(ulong x)</text>
<text text-anchor="start" x="28" y="-84.5" font-family="Helvetica,sans-Serif" font-size="10.00">&#45;</text>
<text text-anchor="start" x="40" y="-84.5" font-family="Helvetica,sans-Serif" font-size="10.00">static unsafe ulong</text>
<text text-anchor="start" x="40" y="-73.5" font-family="Helvetica,sans-Serif" font-size="10.00"> sigma_0(ulong x)</text>
<text text-anchor="start" x="28" y="-58.5" font-family="Helvetica,sans-Serif" font-size="10.00">&#45;</text>
<text text-anchor="start" x="40" y="-58.5" font-family="Helvetica,sans-Serif" font-size="10.00">static unsafe ulong</text>
<text text-anchor="start" x="40" y="-47.5" font-family="Helvetica,sans-Serif" font-size="10.00"> sigma_1(ulong x)</text>
<text text-anchor="start" x="28" y="-32.5" font-family="Helvetica,sans-Serif" font-size="10.00">&#45;</text>
<text text-anchor="start" x="40" y="-32.5" font-family="Helvetica,sans-Serif" font-size="10.00">static unsafe void</text>
<text text-anchor="start" x="40" y="-21.5" font-family="Helvetica,sans-Serif" font-size="10.00"> SHA512Expand(ulong *x)</text>
<text text-anchor="start" x="28" y="-6.5" font-family="Helvetica,sans-Serif" font-size="10.00">&#45;</text>
<text text-anchor="start" x="40" y="-6.5" font-family="Helvetica,sans-Serif" font-size="10.00">static SHA512Managed()</text>
<polygon fill="#666666" stroke="#666666" points="20,-496.5 20,-496.5 179,-496.5 179,-496.5 20,-496.5"/>
<polygon fill="#666666" stroke="#666666" points="20,-421.5 20,-421.5 38,-421.5 38,-421.5 20,-421.5"/>
<polygon fill="#666666" stroke="#666666" points="38,-421.5 38,-421.5 179,-421.5 179,-421.5 38,-421.5"/>
<polygon fill="none" stroke="#666666" points="19.5,0 19.5,-525 178.5,-525 178.5,0 19.5,0"/>
</a>
</g>
</g>
<!-- Node2 -->
<g id="Node000002" class="node">
<title>Node2</title>
<g id="a_Node000002"><a xlink:href="../../d2/dfd/classSystem_1_1Security_1_1Cryptography_1_1SHA512.html" target="_top" xlink:title=" ">
<polygon fill="white" stroke="transparent" points="177,-651 21,-651 21,-561 177,-561 177,-651"/>
<text text-anchor="start" x="79.5" y="-639" font-family="Helvetica,sans-Serif" font-size="10.00">SHA512</text>
<text text-anchor="start" x="97" y="-624" font-family="Helvetica,sans-Serif" font-size="10.00"> </text>
<text text-anchor="start" x="25" y="-609" font-family="Helvetica,sans-Serif" font-size="10.00">+</text>
<text text-anchor="start" x="38" y="-609" font-family="Helvetica,sans-Serif" font-size="10.00">static new SHA512 Create()</text>
<text text-anchor="start" x="25" y="-594" font-family="Helvetica,sans-Serif" font-size="10.00">+</text>
<text text-anchor="start" x="38" y="-594" font-family="Helvetica,sans-Serif" font-size="10.00">static new SHA512 Create</text>
<text text-anchor="start" x="38" y="-583" font-family="Helvetica,sans-Serif" font-size="10.00">(string hashName)</text>
<text text-anchor="start" x="25" y="-568" font-family="Helvetica,sans-Serif" font-size="10.00">#</text>
<text text-anchor="start" x="38" y="-568" font-family="Helvetica,sans-Serif" font-size="10.00">SHA512()</text>
<polygon fill="#666666" stroke="#666666" points="21,-634 21,-634 177,-634 177,-634 21,-634"/>
<polygon fill="#666666" stroke="#666666" points="21,-619 21,-619 177,-619 177,-619 21,-619"/>
<polygon fill="none" stroke="#666666" points="21,-561 21,-651 177,-651 177,-561 21,-561"/>
</a>
</g>
</g>
<!-- Node2&#45;&gt;Node1 -->
<g id="edge1_Node000001_Node000002" class="edge">
<title>Node2&#45;&gt;Node1</title>
<g id="a_edge1_Node000001_Node000002"><a xlink:title=" ">
<path fill="none" stroke="#63b8ff" d="M99,-550.66C99,-542.73 99,-534.16 99,-525.1"/>
<polygon fill="none" stroke="#63b8ff" points="95.5,-550.7 99,-560.7 102.5,-550.7 95.5,-550.7"/>
</a>
</g>
</g>
<!-- Node3 -->
<g id="Node000003" class="node">
<title>Node3</title>
<g id="a_Node000003"><a xlink:href="../../d2/d1c/classSystem_1_1Security_1_1Cryptography_1_1HashAlgorithm.html" target="_top" xlink:title=" ">
<polygon fill="white" stroke="transparent" points="198,-1449 0,-1449 0,-687 198,-687 198,-1449"/>
<text text-anchor="start" x="62.5" y="-1437" font-family="Helvetica,sans-Serif" font-size="10.00">HashAlgorithm</text>
<text text-anchor="start" x="4" y="-1422" font-family="Helvetica,sans-Serif" font-size="10.00">+</text>
<text text-anchor="start" x="17" y="-1422" font-family="Helvetica,sans-Serif" font-size="10.00">virtual int HashSize</text>
<text text-anchor="start" x="4" y="-1407" font-family="Helvetica,sans-Serif" font-size="10.00">+</text>
<text text-anchor="start" x="17" y="-1407" font-family="Helvetica,sans-Serif" font-size="10.00">virtual byte[] Hash</text>
<text text-anchor="start" x="4" y="-1392" font-family="Helvetica,sans-Serif" font-size="10.00">+</text>
<text text-anchor="start" x="17" y="-1392" font-family="Helvetica,sans-Serif" font-size="10.00">virtual int InputBlockSize</text>
<text text-anchor="start" x="4" y="-1377" font-family="Helvetica,sans-Serif" font-size="10.00">+</text>
<text text-anchor="start" x="17" y="-1377" font-family="Helvetica,sans-Serif" font-size="10.00">virtual int OutputBlockSize</text>
<text text-anchor="start" x="4" y="-1362" font-family="Helvetica,sans-Serif" font-size="10.00">+</text>
<text text-anchor="start" x="17" y="-1362" font-family="Helvetica,sans-Serif" font-size="10.00">virtual bool CanTransform</text>
<text text-anchor="start" x="17" y="-1351" font-family="Helvetica,sans-Serif" font-size="10.00">MultipleBlocks</text>
<text text-anchor="start" x="4" y="-1336" font-family="Helvetica,sans-Serif" font-size="10.00">+</text>
<text text-anchor="start" x="17" y="-1336" font-family="Helvetica,sans-Serif" font-size="10.00">virtual bool CanReuseTransform</text>
<text text-anchor="start" x="4" y="-1321" font-family="Helvetica,sans-Serif" font-size="10.00">~</text>
<text text-anchor="start" x="17" y="-1321" font-family="Helvetica,sans-Serif" font-size="10.00">byte[] HashValue</text>
<text text-anchor="start" x="4" y="-1306" font-family="Helvetica,sans-Serif" font-size="10.00">#</text>
<text text-anchor="start" x="17" y="-1306" font-family="Helvetica,sans-Serif" font-size="10.00">int HashSizeValue</text>
<text text-anchor="start" x="4" y="-1291" font-family="Helvetica,sans-Serif" font-size="10.00">#</text>
<text text-anchor="start" x="17" y="-1291" font-family="Helvetica,sans-Serif" font-size="10.00">int State</text>
<text text-anchor="start" x="6.5" y="-1276" font-family="Helvetica,sans-Serif" font-size="10.00">&#45;</text>
<text text-anchor="start" x="17" y="-1276" font-family="Helvetica,sans-Serif" font-size="10.00">bool _disposed</text>
<text text-anchor="start" x="4" y="-1261" font-family="Helvetica,sans-Serif" font-size="10.00">+</text>
<text text-anchor="start" x="17" y="-1261" font-family="Helvetica,sans-Serif" font-size="10.00">byte[] ComputeHash</text>
<text text-anchor="start" x="17" y="-1250" font-family="Helvetica,sans-Serif" font-size="10.00">(byte[] buffer)</text>
<text text-anchor="start" x="4" y="-1235" font-family="Helvetica,sans-Serif" font-size="10.00">+</text>
<text text-anchor="start" x="17" y="-1235" font-family="Helvetica,sans-Serif" font-size="10.00">bool TryComputeHash</text>
<text text-anchor="start" x="17" y="-1224" font-family="Helvetica,sans-Serif" font-size="10.00">(global::System.ReadOnlySpan</text>
<text text-anchor="start" x="17" y="-1213" font-family="Helvetica,sans-Serif" font-size="10.00">&lt; byte &gt; source, global::</text>
<text text-anchor="start" x="17" y="-1202" font-family="Helvetica,sans-Serif" font-size="10.00">System.Span&lt; byte &gt; destination,</text>
<text text-anchor="start" x="17" y="-1191" font-family="Helvetica,sans-Serif" font-size="10.00"> out int bytesWritten)</text>
<text text-anchor="start" x="4" y="-1176" font-family="Helvetica,sans-Serif" font-size="10.00">+</text>
<text text-anchor="start" x="17" y="-1176" font-family="Helvetica,sans-Serif" font-size="10.00">byte[] ComputeHash</text>
<text text-anchor="start" x="17" y="-1165" font-family="Helvetica,sans-Serif" font-size="10.00">(byte[] buffer, int</text>
<text text-anchor="start" x="17" y="-1154" font-family="Helvetica,sans-Serif" font-size="10.00"> offset, int count)</text>
<text text-anchor="start" x="4" y="-1139" font-family="Helvetica,sans-Serif" font-size="10.00">+</text>
<text text-anchor="start" x="17" y="-1139" font-family="Helvetica,sans-Serif" font-size="10.00">byte[] ComputeHash</text>
<text text-anchor="start" x="17" y="-1128" font-family="Helvetica,sans-Serif" font-size="10.00">(global::System.IO.Stream</text>
<text text-anchor="start" x="17" y="-1117" font-family="Helvetica,sans-Serif" font-size="10.00"> inputStream)</text>
<text text-anchor="start" x="4" y="-1102" font-family="Helvetica,sans-Serif" font-size="10.00">+</text>
<text text-anchor="start" x="17" y="-1102" font-family="Helvetica,sans-Serif" font-size="10.00">void Dispose()</text>
<text text-anchor="start" x="4" y="-1087" font-family="Helvetica,sans-Serif" font-size="10.00">+</text>
<text text-anchor="start" x="17" y="-1087" font-family="Helvetica,sans-Serif" font-size="10.00">void Clear()</text>
<text text-anchor="start" x="4" y="-1072" font-family="Helvetica,sans-Serif" font-size="10.00">+</text>
<text text-anchor="start" x="17" y="-1072" font-family="Helvetica,sans-Serif" font-size="10.00">int TransformBlock</text>
<text text-anchor="start" x="17" y="-1061" font-family="Helvetica,sans-Serif" font-size="10.00">(byte[] inputBuffer,</text>
<text text-anchor="start" x="17" y="-1050" font-family="Helvetica,sans-Serif" font-size="10.00"> int inputOffset, int</text>
<text text-anchor="start" x="17" y="-1039" font-family="Helvetica,sans-Serif" font-size="10.00"> inputCount, byte[] outputBuffer,</text>
<text text-anchor="start" x="17" y="-1028" font-family="Helvetica,sans-Serif" font-size="10.00"> int outputOffset)</text>
<text text-anchor="start" x="4" y="-1013" font-family="Helvetica,sans-Serif" font-size="10.00">+</text>
<text text-anchor="start" x="17" y="-1013" font-family="Helvetica,sans-Serif" font-size="10.00">byte[] TransformFinalBlock</text>
<text text-anchor="start" x="17" y="-1002" font-family="Helvetica,sans-Serif" font-size="10.00">(byte[] inputBuffer, int</text>
<text text-anchor="start" x="17" y="-991" font-family="Helvetica,sans-Serif" font-size="10.00"> inputOffset, int inputCount)</text>
<text text-anchor="start" x="4" y="-976" font-family="Helvetica,sans-Serif" font-size="10.00">+</text>
<text text-anchor="start" x="17" y="-976" font-family="Helvetica,sans-Serif" font-size="10.00">void Initialize()</text>
<text text-anchor="start" x="4" y="-961" font-family="Helvetica,sans-Serif" font-size="10.00">+</text>
<text text-anchor="start" x="17" y="-961" font-family="Helvetica,sans-Serif" font-size="10.00">static HashAlgorithm</text>
<text text-anchor="start" x="17" y="-950" font-family="Helvetica,sans-Serif" font-size="10.00"> Create()</text>
<text text-anchor="start" x="4" y="-935" font-family="Helvetica,sans-Serif" font-size="10.00">+</text>
<text text-anchor="start" x="17" y="-935" font-family="Helvetica,sans-Serif" font-size="10.00">static HashAlgorithm</text>
<text text-anchor="start" x="17" y="-924" font-family="Helvetica,sans-Serif" font-size="10.00"> Create(string hashName)</text>
<text text-anchor="start" x="4" y="-909" font-family="Helvetica,sans-Serif" font-size="10.00">#</text>
<text text-anchor="start" x="17" y="-909" font-family="Helvetica,sans-Serif" font-size="10.00">HashAlgorithm()</text>
<text text-anchor="start" x="4" y="-894" font-family="Helvetica,sans-Serif" font-size="10.00">#</text>
<text text-anchor="start" x="17" y="-894" font-family="Helvetica,sans-Serif" font-size="10.00">virtual void Dispose</text>
<text text-anchor="start" x="17" y="-883" font-family="Helvetica,sans-Serif" font-size="10.00">(bool disposing)</text>
<text text-anchor="start" x="4" y="-868" font-family="Helvetica,sans-Serif" font-size="10.00">#</text>
<text text-anchor="start" x="17" y="-868" font-family="Helvetica,sans-Serif" font-size="10.00">void HashCore(byte</text>
<text text-anchor="start" x="17" y="-857" font-family="Helvetica,sans-Serif" font-size="10.00">[] array, int ibStart,</text>
<text text-anchor="start" x="17" y="-846" font-family="Helvetica,sans-Serif" font-size="10.00"> int cbSize)</text>
<text text-anchor="start" x="4" y="-831" font-family="Helvetica,sans-Serif" font-size="10.00">#</text>
<text text-anchor="start" x="17" y="-831" font-family="Helvetica,sans-Serif" font-size="10.00">byte[] HashFinal()</text>
<text text-anchor="start" x="4" y="-816" font-family="Helvetica,sans-Serif" font-size="10.00">#</text>
<text text-anchor="start" x="17" y="-816" font-family="Helvetica,sans-Serif" font-size="10.00">virtual void HashCore</text>
<text text-anchor="start" x="17" y="-805" font-family="Helvetica,sans-Serif" font-size="10.00">(global::System.ReadOnlySpan</text>
<text text-anchor="start" x="17" y="-794" font-family="Helvetica,sans-Serif" font-size="10.00">&lt; byte &gt; source)</text>
<text text-anchor="start" x="4" y="-779" font-family="Helvetica,sans-Serif" font-size="10.00">#</text>
<text text-anchor="start" x="17" y="-779" font-family="Helvetica,sans-Serif" font-size="10.00">virtual bool TryHashFinal</text>
<text text-anchor="start" x="17" y="-768" font-family="Helvetica,sans-Serif" font-size="10.00">(global::System.Span&lt; byte</text>
<text text-anchor="start" x="17" y="-757" font-family="Helvetica,sans-Serif" font-size="10.00"> &gt; destination, out int bytesWritten)</text>
<text text-anchor="start" x="6.5" y="-742" font-family="Helvetica,sans-Serif" font-size="10.00">&#45;</text>
<text text-anchor="start" x="17" y="-742" font-family="Helvetica,sans-Serif" font-size="10.00">byte[] CaptureHashCodeAnd</text>
<text text-anchor="start" x="17" y="-731" font-family="Helvetica,sans-Serif" font-size="10.00">Reinitialize()</text>
<text text-anchor="start" x="6.5" y="-716" font-family="Helvetica,sans-Serif" font-size="10.00">&#45;</text>
<text text-anchor="start" x="17" y="-716" font-family="Helvetica,sans-Serif" font-size="10.00">void ValidateTransformBlock</text>
<text text-anchor="start" x="17" y="-705" font-family="Helvetica,sans-Serif" font-size="10.00">(byte[] inputBuffer, int</text>
<text text-anchor="start" x="17" y="-694" font-family="Helvetica,sans-Serif" font-size="10.00"> inputOffset, int inputCount)</text>
<polygon fill="#666666" stroke="#666666" points="0,-1432 0,-1432 198,-1432 198,-1432 0,-1432"/>
<polygon fill="#666666" stroke="#666666" points="0,-1271 0,-1271 15,-1271 15,-1271 0,-1271"/>
<polygon fill="#666666" stroke="#666666" points="15,-1271 15,-1271 198,-1271 198,-1271 15,-1271"/>
<polygon fill="none" stroke="#666666" points="0,-687 0,-1449 198,-1449 198,-687 0,-687"/>
</a>
</g>
</g>
<!-- Node3&#45;&gt;Node2 -->
<g id="edge2_Node000002_Node000003" class="edge">
<title>Node3&#45;&gt;Node2</title>
<g id="a_edge2_Node000002_Node000003"><a xlink:title=" ">
<path fill="none" stroke="#63b8ff" d="M99,-676.61C99,-667.41 99,-658.89 99,-651.19"/>
<polygon fill="none" stroke="#63b8ff" points="95.5,-676.86 99,-686.86 102.5,-676.86 95.5,-676.86"/>
</a>
</g>
</g>
<!-- Node4 -->
<g id="Node000004" class="node">
<title>Node4</title>
<g id="a_Node000004"><a xlink:title=" ">
<polygon fill="white" stroke="transparent" points="169,-1756 29,-1756 29,-1707 169,-1707 169,-1756"/>
<text text-anchor="start" x="34" y="-1743.5" font-family="Helvetica,sans-Serif" font-size="10.00">global::SystemIDisposable</text>
<text text-anchor="start" x="97" y="-1728.5" font-family="Helvetica,sans-Serif" font-size="10.00"> </text>
<text text-anchor="start" x="97" y="-1713.5" font-family="Helvetica,sans-Serif" font-size="10.00"> </text>
<polygon fill="#666666" stroke="#666666" points="29,-1738.5 29,-1738.5 169,-1738.5 169,-1738.5 29,-1738.5"/>
<polygon fill="#666666" stroke="#666666" points="29,-1723.5 29,-1723.5 169,-1723.5 169,-1723.5 29,-1723.5"/>
<polygon fill="none" stroke="#666666" points="29,-1707 29,-1756 169,-1756 169,-1707 29,-1707"/>
</a>
</g>
</g>
<!-- Node4&#45;&gt;Node3 -->
<g id="edge3_Node000003_Node000004" class="edge">
<title>Node4&#45;&gt;Node3</title>
<g id="a_edge3_Node000003_Node000004"><a xlink:title=" ">
<path fill="none" stroke="#63b8ff" d="M72.43,-1698.36C66.92,-1689.94 61.91,-1680.54 59,-1671 37.58,-1600.74 30.89,-1523.8 32.48,-1449.12"/>
<polygon fill="none" stroke="#63b8ff" points="69.68,-1700.54 78.28,-1706.73 75.42,-1696.53 69.68,-1700.54"/>
</a>
</g>
</g>
<!-- Node5 -->
<g id="Node000005" class="node">
<title>Node5</title>
<g id="a_Node000005"><a xlink:href="../../d3/dac/interfaceSystem_1_1Security_1_1Cryptography_1_1ICryptoTransform.html" target="_top" xlink:title=" ">
<polygon fill="white" stroke="transparent" points="248,-1671 68,-1671 68,-1485 248,-1485 248,-1671"/>
<text text-anchor="start" x="115.5" y="-1659" font-family="Helvetica,sans-Serif" font-size="10.00">ICryptoTransform</text>
<text text-anchor="start" x="72" y="-1644" font-family="Helvetica,sans-Serif" font-size="10.00">+</text>
<text text-anchor="start" x="85" y="-1644" font-family="Helvetica,sans-Serif" font-size="10.00">int InputBlockSize</text>
<text text-anchor="start" x="72" y="-1629" font-family="Helvetica,sans-Serif" font-size="10.00">+</text>
<text text-anchor="start" x="85" y="-1629" font-family="Helvetica,sans-Serif" font-size="10.00">int OutputBlockSize</text>
<text text-anchor="start" x="72" y="-1614" font-family="Helvetica,sans-Serif" font-size="10.00">+</text>
<text text-anchor="start" x="85" y="-1614" font-family="Helvetica,sans-Serif" font-size="10.00">bool CanTransformMultiple</text>
<text text-anchor="start" x="85" y="-1603" font-family="Helvetica,sans-Serif" font-size="10.00">Blocks</text>
<text text-anchor="start" x="72" y="-1588" font-family="Helvetica,sans-Serif" font-size="10.00">+</text>
<text text-anchor="start" x="85" y="-1588" font-family="Helvetica,sans-Serif" font-size="10.00">bool CanReuseTransform</text>
<text text-anchor="start" x="72" y="-1573" font-family="Helvetica,sans-Serif" font-size="10.00">+</text>
<text text-anchor="start" x="85" y="-1573" font-family="Helvetica,sans-Serif" font-size="10.00">int TransformBlock</text>
<text text-anchor="start" x="85" y="-1562" font-family="Helvetica,sans-Serif" font-size="10.00">(byte[] inputBuffer,</text>
<text text-anchor="start" x="85" y="-1551" font-family="Helvetica,sans-Serif" font-size="10.00"> int inputOffset, int</text>
<text text-anchor="start" x="85" y="-1540" font-family="Helvetica,sans-Serif" font-size="10.00"> inputCount, byte[] outputBuffer,</text>
<text text-anchor="start" x="85" y="-1529" font-family="Helvetica,sans-Serif" font-size="10.00"> int outputOffset)</text>
<text text-anchor="start" x="72" y="-1514" font-family="Helvetica,sans-Serif" font-size="10.00">+</text>
<text text-anchor="start" x="85" y="-1514" font-family="Helvetica,sans-Serif" font-size="10.00">byte[] TransformFinalBlock</text>
<text text-anchor="start" x="85" y="-1503" font-family="Helvetica,sans-Serif" font-size="10.00">(byte[] inputBuffer, int</text>
<text text-anchor="start" x="85" y="-1492" font-family="Helvetica,sans-Serif" font-size="10.00"> inputOffset, int inputCount)</text>
<polygon fill="#666666" stroke="#666666" points="68,-1654 68,-1654 248,-1654 248,-1654 68,-1654"/>
<polygon fill="#666666" stroke="#666666" points="68,-1583 68,-1583 83,-1583 83,-1583 68,-1583"/>
<polygon fill="#666666" stroke="#666666" points="83,-1583 83,-1583 248,-1583 248,-1583 83,-1583"/>
<polygon fill="none" stroke="#666666" points="68,-1485 68,-1671 248,-1671 248,-1485 68,-1485"/>
</a>
</g>
</g>
<!-- Node4&#45;&gt;Node5 -->
<g id="edge5_Node000005_Node000004" class="edge">
<title>Node4&#45;&gt;Node5</title>
<g id="a_edge5_Node000005_Node000004"><a xlink:title=" ">
<path fill="none" stroke="#63b8ff" d="M111.94,-1697.27C115.04,-1689.31 118.51,-1680.41 122.11,-1671.17"/>
<polygon fill="none" stroke="#63b8ff" points="108.59,-1696.24 108.22,-1706.83 115.11,-1698.78 108.59,-1696.24"/>
</a>
</g>
</g>
<!-- Node5&#45;&gt;Node3 -->
<g id="edge4_Node000003_Node000005" class="edge">
<title>Node5&#45;&gt;Node3</title>
<g id="a_edge4_Node000003_Node000005"><a xlink:title=" ">
<path fill="none" stroke="#63b8ff" d="M146.11,-1474.59C145.16,-1466.46 144.18,-1458 143.17,-1449.28"/>
<polygon fill="none" stroke="#63b8ff" points="142.65,-1475.18 147.28,-1484.71 149.6,-1474.37 142.65,-1475.18"/>
</a>
</g>
</g>
</g>
</svg>

<g id="navigator" transform="translate(0 0)" fill="#404254">
  <rect fill="#f2f5e9" fill-opacity="0.5" stroke="#606060" stroke-width=".5" x="0" y="0" width="60" height="60"/>
  <use id="zoomplus" xlink:href="#zoomPlus" x="17" y="9" onmousedown="handleZoom(evt,'in')"/>
  <use id="zoomminus" xlink:href="#zoomMin" x="42" y="9" onmousedown="handleZoom(evt,'out')"/>
  <use id="reset" xlink:href="#resetDef" x="30" y="36" onmousedown="handleReset()"/>
   <use id="arrowup" xlink:href="#arrowUp" x="0" y="0" onmousedown="handlePan(0,-1)"/>
  <use id="arrowright" xlink:href="#arrowRight" x="0" y="0" onmousedown="handlePan(1,0)"/>
  <use id="arrowdown" xlink:href="#arrowDown" x="0" y="0" onmousedown="handlePan(0,1)"/>
  <use id="arrowleft" xlink:href="#arrowLeft" x="0" y="0" onmousedown="handlePan(-1,0)"/>
</g>
<svg viewBox="0 0 15 15" width="100%" height="30px" preserveAspectRatio="xMaxYMin meet">
 <g id="arrow_out" transform="scale(0.3 0.3)">
  <a xlink:href="classSystem_1_1Security_1_1Cryptography_1_1SHA512Managed__inherit__graph_org.svg" target="_base">
   <rect id="button" ry="5" rx="5" y="6" x="6" height="38" width="38"
        fill="#f2f5e9" fill-opacity="0.5" stroke="#606060" stroke-width="1.0"/>
   <path id="arrow"
     d="M 11.500037,31.436501 C 11.940474,20.09759 22.043105,11.32322 32.158766,21.979434 L 37.068811,17.246167 C 37.068811,17.246167 37.088388,32 37.088388,32 L 22.160133,31.978069 C 22.160133,31.978069 26.997745,27.140456 26.997745,27.140456 C 18.528582,18.264221 13.291696,25.230495 11.500037,31.436501 z"
     style="fill:#404040;"/>
  </a>
 </g>
</svg>

<style type='text/css'>
<![CDATA[
[data-mouse-over-selected='false'] { opacity: 0.7; }
[data-mouse-over-selected='true']  { opacity: 1.0; }
]]>
</style>
<script type="application/ecmascript"><![CDATA[
document.addEventListener('DOMContentLoaded', (event) => {
  highlightEdges();
  highlightAdjacentNodes();
});
]]></script>
</svg>
