<?xml version="1.0" encoding="UTF-8" standalone="no"?>
<!DOCTYPE svg PUBLIC "-//W3C//DTD SVG 1.1//EN"
 "http://www.w3.org/Graphics/SVG/1.1/DTD/svg11.dtd">
<!-- Generated by graphviz version 2.43.0 (0)
 -->
<!-- Title: Newtonsoft.Json.Serialization.IReferenceResolver Pages: 1 -->
<svg width="164pt" height="190pt"
 viewBox="0.00 0.00 164.00 190.00" xmlns="http://www.w3.org/2000/svg" xmlns:xlink="http://www.w3.org/1999/xlink">
<g id="graph0" class="graph" transform="scale(1 1) rotate(0) translate(4 186)">
<title>Newtonsoft.Json.Serialization.IReferenceResolver</title>
<!-- Node1 -->
<g id="Node000001" class="node">
<title>Node1</title>
<g id="a_Node000001"><a xlink:title=" ">
<polygon fill="#999999" stroke="transparent" points="156,-182 0,-182 0,0 156,0 156,-182"/>
<text text-anchor="start" x="5" y="-170" font-family="Helvetica,sans-Serif" font-size="10.00">Newtonsoft.Json.Serialization.</text>
<text text-anchor="start" x="30" y="-159" font-family="Helvetica,sans-Serif" font-size="10.00">IReferenceResolver</text>
<text text-anchor="start" x="76" y="-144" font-family="Helvetica,sans-Serif" font-size="10.00"> </text>
<text text-anchor="start" x="6" y="-129" font-family="Helvetica,sans-Serif" font-size="10.00">+</text>
<text text-anchor="start" x="21" y="-129" font-family="Helvetica,sans-Serif" font-size="10.00">object ResolveReference</text>
<text text-anchor="start" x="21" y="-118" font-family="Helvetica,sans-Serif" font-size="10.00">(object context, string</text>
<text text-anchor="start" x="21" y="-107" font-family="Helvetica,sans-Serif" font-size="10.00"> reference)</text>
<text text-anchor="start" x="6" y="-92" font-family="Helvetica,sans-Serif" font-size="10.00">+</text>
<text text-anchor="start" x="21" y="-92" font-family="Helvetica,sans-Serif" font-size="10.00">string GetReference</text>
<text text-anchor="start" x="21" y="-81" font-family="Helvetica,sans-Serif" font-size="10.00">(object context, object</text>
<text text-anchor="start" x="21" y="-70" font-family="Helvetica,sans-Serif" font-size="10.00"> value)</text>
<text text-anchor="start" x="6" y="-55" font-family="Helvetica,sans-Serif" font-size="10.00">+</text>
<text text-anchor="start" x="21" y="-55" font-family="Helvetica,sans-Serif" font-size="10.00">bool IsReferenced(object</text>
<text text-anchor="start" x="21" y="-44" font-family="Helvetica,sans-Serif" font-size="10.00"> context, object value)</text>
<text text-anchor="start" x="6" y="-29" font-family="Helvetica,sans-Serif" font-size="10.00">+</text>
<text text-anchor="start" x="21" y="-29" font-family="Helvetica,sans-Serif" font-size="10.00">void AddReference(object</text>
<text text-anchor="start" x="21" y="-18" font-family="Helvetica,sans-Serif" font-size="10.00"> context, string reference,</text>
<text text-anchor="start" x="21" y="-7" font-family="Helvetica,sans-Serif" font-size="10.00"> object value)</text>
<polygon fill="#666666" stroke="#666666" points="0,-154 0,-154 156,-154 156,-154 0,-154"/>
<polygon fill="#666666" stroke="#666666" points="0,-139 0,-139 156,-139 156,-139 0,-139"/>
<polygon fill="none" stroke="#666666" points="0,0 0,-182 156,-182 156,0 0,0"/>
</a>
</g>
</g>
</g>
</svg>
