<?xml version="1.0" encoding="UTF-8" standalone="no"?>
<!DOCTYPE svg PUBLIC "-//W3C//DTD SVG 1.1//EN"
 "http://www.w3.org/Graphics/SVG/1.1/DTD/svg11.dtd">
<!-- Generated by graphviz version 2.43.0 (0)
 -->
<!-- Title: System.Text.DecoderFallbackException Pages: 1 -->
<svg width="267pt" height="264pt"
 viewBox="0.00 0.00 267.00 264.00" xmlns="http://www.w3.org/2000/svg" xmlns:xlink="http://www.w3.org/1999/xlink">

<svg id="main" version="1.1" xmlns="http://www.w3.org/2000/svg" xmlns:xlink="http://www.w3.org/1999/xlink" xml:space="preserve" onload="init(evt)">
<style type="text/css"><![CDATA[
.node, .edge {opacity: 0.7;}
.node.selected, .edge.selected {opacity: 1;}
.edge:hover path { stroke: red; }
.edge:hover polygon { stroke: red; fill: red; }
]]></style>
<script type="application/ecmascript" xlink:href="../../svg.min.js"/>
<svg id="graph" class="graph">
<g id="graph0" class="graph" transform="scale(1 1) rotate(0) translate(4 260)">
<title>System.Text.DecoderFallbackException</title>
<!-- Node1 -->
<g id="Node000001" class="node">
<title>Node1</title>
<g id="a_Node000001"><a xlink:title=" ">
<polygon fill="#999999" stroke="transparent" points="259,-171 0,-171 0,0 259,0 259,-171"/>
<text text-anchor="start" x="58" y="-158.5" font-family="Helvetica,sans-Serif" font-size="10.00">System.Text.DecoderFallback</text>
<text text-anchor="start" x="105.5" y="-147.5" font-family="Helvetica,sans-Serif" font-size="10.00">Exception</text>
<text text-anchor="start" x="7" y="-132.5" font-family="Helvetica,sans-Serif" font-size="10.00">&#45;</text>
<text text-anchor="start" x="17.5" y="-132.5" font-family="Helvetica,sans-Serif" font-size="10.00">byte[] _bytesUnknown</text>
<text text-anchor="start" x="7" y="-117.5" font-family="Helvetica,sans-Serif" font-size="10.00">&#45;</text>
<text text-anchor="start" x="17.5" y="-117.5" font-family="Helvetica,sans-Serif" font-size="10.00">int _index</text>
<text text-anchor="start" x="4.5" y="-102.5" font-family="Helvetica,sans-Serif" font-size="10.00">+</text>
<text text-anchor="start" x="17.5" y="-102.5" font-family="Helvetica,sans-Serif" font-size="10.00">DecoderFallbackException()</text>
<text text-anchor="start" x="4.5" y="-87.5" font-family="Helvetica,sans-Serif" font-size="10.00">+</text>
<text text-anchor="start" x="17.5" y="-87.5" font-family="Helvetica,sans-Serif" font-size="10.00">DecoderFallbackException</text>
<text text-anchor="start" x="17.5" y="-76.5" font-family="Helvetica,sans-Serif" font-size="10.00">(string message, byte[]</text>
<text text-anchor="start" x="17.5" y="-65.5" font-family="Helvetica,sans-Serif" font-size="10.00"> bytesUnknown, int index)</text>
<text text-anchor="start" x="7" y="-50.5" font-family="Helvetica,sans-Serif" font-size="10.00">&#45;</text>
<text text-anchor="start" x="17.5" y="-50.5" font-family="Helvetica,sans-Serif" font-size="10.00">DecoderFallbackException</text>
<text text-anchor="start" x="17.5" y="-39.5" font-family="Helvetica,sans-Serif" font-size="10.00">(global::System.Runtime.Serialization.</text>
<text text-anchor="start" x="17.5" y="-28.5" font-family="Helvetica,sans-Serif" font-size="10.00">SerializationInfo serializationInfo,</text>
<text text-anchor="start" x="17.5" y="-17.5" font-family="Helvetica,sans-Serif" font-size="10.00"> global::System.Runtime.Serialization.Streaming</text>
<text text-anchor="start" x="17.5" y="-6.5" font-family="Helvetica,sans-Serif" font-size="10.00">Context streamingContext)</text>
<polygon fill="#666666" stroke="#666666" points="0.5,-142.5 0.5,-142.5 259.5,-142.5 259.5,-142.5 0.5,-142.5"/>
<polygon fill="#666666" stroke="#666666" points="0.5,-112.5 0.5,-112.5 15.5,-112.5 15.5,-112.5 0.5,-112.5"/>
<polygon fill="#666666" stroke="#666666" points="15.5,-112.5 15.5,-112.5 259.5,-112.5 259.5,-112.5 15.5,-112.5"/>
<polygon fill="none" stroke="#666666" points="0,0 0,-171 259,-171 259,0 0,0"/>
</a>
</g>
</g>
<!-- Node2 -->
<g id="Node000002" class="node">
<title>Node2</title>
<g id="a_Node000002"><a xlink:title=" ">
<polygon fill="white" stroke="transparent" points="219,-256 40,-256 40,-207 219,-207 219,-256"/>
<text text-anchor="start" x="45.5" y="-243.5" font-family="Helvetica,sans-Serif" font-size="10.00">global::SystemArgumentException</text>
<text text-anchor="start" x="128" y="-228.5" font-family="Helvetica,sans-Serif" font-size="10.00"> </text>
<text text-anchor="start" x="128" y="-213.5" font-family="Helvetica,sans-Serif" font-size="10.00"> </text>
<polygon fill="#666666" stroke="#666666" points="40.5,-238.5 40.5,-238.5 219.5,-238.5 219.5,-238.5 40.5,-238.5"/>
<polygon fill="#666666" stroke="#666666" points="40.5,-223.5 40.5,-223.5 219.5,-223.5 219.5,-223.5 40.5,-223.5"/>
<polygon fill="none" stroke="#666666" points="40,-207 40,-256 219,-256 219,-207 40,-207"/>
</a>
</g>
</g>
<!-- Node2&#45;&gt;Node1 -->
<g id="edge1_Node000001_Node000002" class="edge">
<title>Node2&#45;&gt;Node1</title>
<g id="a_edge1_Node000001_Node000002"><a xlink:title=" ">
<path fill="none" stroke="#63b8ff" d="M129.5,-196.66C129.5,-188.86 129.5,-180.21 129.5,-171.3"/>
<polygon fill="none" stroke="#63b8ff" points="126,-196.72 129.5,-206.72 133,-196.72 126,-196.72"/>
</a>
</g>
</g>
</g>
</svg>
</svg>

<style type='text/css'>
<![CDATA[
[data-mouse-over-selected='false'] { opacity: 0.7; }
[data-mouse-over-selected='true']  { opacity: 1.0; }
]]>
</style>
<script type="application/ecmascript"><![CDATA[
document.addEventListener('DOMContentLoaded', (event) => {
  highlightEdges();
  highlightAdjacentNodes();
});
]]></script>
</svg>
