<?xml version="1.0" encoding="UTF-8" standalone="no"?>
<!DOCTYPE svg PUBLIC "-//W3C//DTD SVG 1.1//EN"
 "http://www.w3.org/Graphics/SVG/1.1/DTD/svg11.dtd">
<!-- Generated by graphviz version 2.43.0 (0)
 -->
<!-- Title: Mono.Unity.Debug Pages: 1 -->
<svg width="245pt" height="171pt"
 viewBox="0.00 0.00 245.00 171.00" xmlns="http://www.w3.org/2000/svg" xmlns:xlink="http://www.w3.org/1999/xlink">
<g id="graph0" class="graph" transform="scale(1 1) rotate(0) translate(4 167)">
<title>Mono.Unity.Debug</title>
<!-- Node1 -->
<g id="Node000001" class="node">
<title>Node1</title>
<g id="a_Node000001"><a xlink:title=" ">
<polygon fill="#999999" stroke="transparent" points="237,-163 0,-163 0,0 237,0 237,-163"/>
<text text-anchor="start" x="74" y="-150.5" font-family="Helvetica,sans-Serif" font-size="10.00">Mono.Unity.Debug</text>
<text text-anchor="start" x="117" y="-135.5" font-family="Helvetica,sans-Serif" font-size="10.00"> </text>
<text text-anchor="start" x="4.5" y="-120.5" font-family="Helvetica,sans-Serif" font-size="10.00">+</text>
<text text-anchor="start" x="17.5" y="-120.5" font-family="Helvetica,sans-Serif" font-size="10.00">static unsafe void</text>
<text text-anchor="start" x="17.5" y="-109.5" font-family="Helvetica,sans-Serif" font-size="10.00"> CheckAndThrow(UnityTls.unitytls</text>
<text text-anchor="start" x="17.5" y="-98.5" font-family="Helvetica,sans-Serif" font-size="10.00">_errorstate errorState, string</text>
<text text-anchor="start" x="17.5" y="-87.5" font-family="Helvetica,sans-Serif" font-size="10.00"> context, AlertDescription defaultAlert</text>
<text text-anchor="start" x="17.5" y="-76.5" font-family="Helvetica,sans-Serif" font-size="10.00">=AlertDescription.InternalError)</text>
<text text-anchor="start" x="4.5" y="-61.5" font-family="Helvetica,sans-Serif" font-size="10.00">+</text>
<text text-anchor="start" x="17.5" y="-61.5" font-family="Helvetica,sans-Serif" font-size="10.00">static void CheckAndThrow</text>
<text text-anchor="start" x="17.5" y="-50.5" font-family="Helvetica,sans-Serif" font-size="10.00">(UnityTls.unitytls_errorstate</text>
<text text-anchor="start" x="17.5" y="-39.5" font-family="Helvetica,sans-Serif" font-size="10.00"> errorState, UnityTls.unitytls</text>
<text text-anchor="start" x="17.5" y="-28.5" font-family="Helvetica,sans-Serif" font-size="10.00">_x509verify_result verifyResult,</text>
<text text-anchor="start" x="17.5" y="-17.5" font-family="Helvetica,sans-Serif" font-size="10.00"> string context, AlertDescription</text>
<text text-anchor="start" x="17.5" y="-6.5" font-family="Helvetica,sans-Serif" font-size="10.00"> defaultAlert=AlertDescription.InternalError)</text>
<polygon fill="#666666" stroke="#666666" points="0.5,-145.5 0.5,-145.5 237.5,-145.5 237.5,-145.5 0.5,-145.5"/>
<polygon fill="#666666" stroke="#666666" points="0.5,-130.5 0.5,-130.5 237.5,-130.5 237.5,-130.5 0.5,-130.5"/>
<polygon fill="none" stroke="#666666" points="0,0 0,-163 237,-163 237,0 0,0"/>
</a>
</g>
</g>
</g>
</svg>
