<?xml version="1.0" encoding="UTF-8" standalone="no"?>
<!DOCTYPE svg PUBLIC "-//W3C//DTD SVG 1.1//EN"
 "http://www.w3.org/Graphics/SVG/1.1/DTD/svg11.dtd">
<!-- Generated by graphviz version 2.43.0 (0)
 -->
<!-- Title: Terraria.WorldBuilding.GenAction Pages: 1 -->
<svg width="633pt" height="872pt"
 viewBox="0.00 0.00 632.50 872.00" xmlns="http://www.w3.org/2000/svg" xmlns:xlink="http://www.w3.org/1999/xlink">
<g id="graph0" class="graph" transform="scale(1 1) rotate(0) translate(4 868)">
<title>Terraria.WorldBuilding.GenAction</title>
<!-- Node1 -->
<g id="Node000001" class="node">
<title>Node1</title>
<g id="a_Node000001"><a xlink:title=" ">
<polygon fill="#999999" stroke="transparent" points="264,-190 99,-190 99,0 264,0 264,-190"/>
<text text-anchor="start" x="117" y="-178" font-family="Helvetica,sans-Serif" font-size="10.00">Terraria.WorldBuilding.Gen</text>
<text text-anchor="start" x="166.5" y="-167" font-family="Helvetica,sans-Serif" font-size="10.00">Action</text>
<text text-anchor="start" x="180" y="-152" font-family="Helvetica,sans-Serif" font-size="10.00"> </text>
<text text-anchor="start" x="103.5" y="-137" font-family="Helvetica,sans-Serif" font-size="10.00">+</text>
<text text-anchor="start" x="116.5" y="-137" font-family="Helvetica,sans-Serif" font-size="10.00">bool Apply(Point origin,</text>
<text text-anchor="start" x="116.5" y="-126" font-family="Helvetica,sans-Serif" font-size="10.00"> int x, int y, params</text>
<text text-anchor="start" x="116.5" y="-115" font-family="Helvetica,sans-Serif" font-size="10.00"> object[] args)</text>
<text text-anchor="start" x="103.5" y="-100" font-family="Helvetica,sans-Serif" font-size="10.00">+</text>
<text text-anchor="start" x="116.5" y="-100" font-family="Helvetica,sans-Serif" font-size="10.00">GenAction IgnoreFailures()</text>
<text text-anchor="start" x="103.5" y="-85" font-family="Helvetica,sans-Serif" font-size="10.00">+</text>
<text text-anchor="start" x="116.5" y="-85" font-family="Helvetica,sans-Serif" font-size="10.00">GenAction Output(ShapeData</text>
<text text-anchor="start" x="116.5" y="-74" font-family="Helvetica,sans-Serif" font-size="10.00"> data)</text>
<text text-anchor="start" x="103.5" y="-59" font-family="Helvetica,sans-Serif" font-size="10.00">#</text>
<text text-anchor="start" x="116.5" y="-59" font-family="Helvetica,sans-Serif" font-size="10.00">bool UnitApply(Point</text>
<text text-anchor="start" x="116.5" y="-48" font-family="Helvetica,sans-Serif" font-size="10.00"> origin, int x, int y,</text>
<text text-anchor="start" x="116.5" y="-37" font-family="Helvetica,sans-Serif" font-size="10.00"> params object[] args)</text>
<text text-anchor="start" x="103.5" y="-22" font-family="Helvetica,sans-Serif" font-size="10.00">#</text>
<text text-anchor="start" x="116.5" y="-22" font-family="Helvetica,sans-Serif" font-size="10.00">bool Fail()</text>
<text text-anchor="start" x="103.5" y="-7" font-family="Helvetica,sans-Serif" font-size="10.00">#</text>
<text text-anchor="start" x="116.5" y="-7" font-family="Helvetica,sans-Serif" font-size="10.00">GenAction()</text>
<polygon fill="#666666" stroke="#666666" points="99.5,-162 99.5,-162 264.5,-162 264.5,-162 99.5,-162"/>
<polygon fill="#666666" stroke="#666666" points="99.5,-147 99.5,-147 264.5,-147 264.5,-147 99.5,-147"/>
<polygon fill="none" stroke="#666666" points="99,0 99,-190 264,-190 264,0 99,0"/>
</a>
</g>
</g>
<!-- Node2 -->
<g id="Node000002" class="node">
<title>Node2</title>
<g id="a_Node000002"><a xlink:href="../../d4/dd6/classTerraria_1_1WorldBuilding_1_1GenBase.html" target="_top" xlink:title=" ">
<polygon fill="white" stroke="transparent" points="165,-692 0,-692 0,-550 165,-550 165,-692"/>
<text text-anchor="start" x="61" y="-680" font-family="Helvetica,sans-Serif" font-size="10.00">GenBase</text>
<text text-anchor="start" x="4.5" y="-665" font-family="Helvetica,sans-Serif" font-size="10.00">+</text>
<text text-anchor="start" x="17.5" y="-665" font-family="Helvetica,sans-Serif" font-size="10.00">static UnifiedRandom</text>
<text text-anchor="start" x="17.5" y="-654" font-family="Helvetica,sans-Serif" font-size="10.00"> _random</text>
<text text-anchor="start" x="4.5" y="-639" font-family="Helvetica,sans-Serif" font-size="10.00">+</text>
<text text-anchor="start" x="17.5" y="-639" font-family="Helvetica,sans-Serif" font-size="10.00">static TileData _tiles</text>
<text text-anchor="start" x="4.5" y="-624" font-family="Helvetica,sans-Serif" font-size="10.00">+</text>
<text text-anchor="start" x="17.5" y="-624" font-family="Helvetica,sans-Serif" font-size="10.00">static int _worldWidth</text>
<text text-anchor="start" x="4.5" y="-609" font-family="Helvetica,sans-Serif" font-size="10.00">+</text>
<text text-anchor="start" x="17.5" y="-609" font-family="Helvetica,sans-Serif" font-size="10.00">static int _worldHeight</text>
<text text-anchor="start" x="4.5" y="-594" font-family="Helvetica,sans-Serif" font-size="10.00">+</text>
<text text-anchor="start" x="17.5" y="-594" font-family="Helvetica,sans-Serif" font-size="10.00">delegate bool CustomPerUnit</text>
<text text-anchor="start" x="17.5" y="-583" font-family="Helvetica,sans-Serif" font-size="10.00">Action(int x, int y, params</text>
<text text-anchor="start" x="17.5" y="-572" font-family="Helvetica,sans-Serif" font-size="10.00"> object[] args)</text>
<text text-anchor="start" x="4.5" y="-557" font-family="Helvetica,sans-Serif" font-size="10.00">+</text>
<text text-anchor="start" x="17.5" y="-557" font-family="Helvetica,sans-Serif" font-size="10.00">GenBase()</text>
<polygon fill="#666666" stroke="#666666" points="0.5,-675 0.5,-675 165.5,-675 165.5,-675 0.5,-675"/>
<polygon fill="#666666" stroke="#666666" points="0.5,-604 0.5,-604 15.5,-604 15.5,-604 0.5,-604"/>
<polygon fill="#666666" stroke="#666666" points="15.5,-604 15.5,-604 165.5,-604 165.5,-604 15.5,-604"/>
<polygon fill="none" stroke="#666666" points="0,-550 0,-692 165,-692 165,-550 0,-550"/>
</a>
</g>
</g>
<!-- Node2&#45;&gt;Node1 -->
<g id="edge1_Node000001_Node000002" class="edge">
<title>Node2&#45;&gt;Node1</title>
<g id="a_edge1_Node000001_Node000002"><a xlink:title=" ">
<path fill="none" stroke="#63b8ff" d="M84.51,-539.48C88,-461.17 97.53,-339.36 123.5,-237 127.41,-221.61 132.67,-205.68 138.43,-190.32"/>
<polygon fill="none" stroke="#63b8ff" points="81,-539.62 84.07,-549.76 87.99,-539.92 81,-539.62"/>
</a>
</g>
</g>
<!-- Node3 -->
<g id="Node000003" class="node">
<title>Node3</title>
<g id="a_Node000003"><a xlink:href="../../db/d55/classTerraria_1_1WorldBuilding_1_1GenAction.html" target="_top" xlink:title=" ">
<polygon fill="white" stroke="transparent" points="383,-427 218,-427 218,-237 383,-237 383,-427"/>
<text text-anchor="start" x="236" y="-415" font-family="Helvetica,sans-Serif" font-size="10.00">Terraria.WorldBuilding.Gen</text>
<text text-anchor="start" x="285.5" y="-404" font-family="Helvetica,sans-Serif" font-size="10.00">Action</text>
<text text-anchor="start" x="299" y="-389" font-family="Helvetica,sans-Serif" font-size="10.00"> </text>
<text text-anchor="start" x="222.5" y="-374" font-family="Helvetica,sans-Serif" font-size="10.00">+</text>
<text text-anchor="start" x="235.5" y="-374" font-family="Helvetica,sans-Serif" font-size="10.00">bool Apply(Point origin,</text>
<text text-anchor="start" x="235.5" y="-363" font-family="Helvetica,sans-Serif" font-size="10.00"> int x, int y, params</text>
<text text-anchor="start" x="235.5" y="-352" font-family="Helvetica,sans-Serif" font-size="10.00"> object[] args)</text>
<text text-anchor="start" x="222.5" y="-337" font-family="Helvetica,sans-Serif" font-size="10.00">+</text>
<text text-anchor="start" x="235.5" y="-337" font-family="Helvetica,sans-Serif" font-size="10.00">GenAction IgnoreFailures()</text>
<text text-anchor="start" x="222.5" y="-322" font-family="Helvetica,sans-Serif" font-size="10.00">+</text>
<text text-anchor="start" x="235.5" y="-322" font-family="Helvetica,sans-Serif" font-size="10.00">GenAction Output(ShapeData</text>
<text text-anchor="start" x="235.5" y="-311" font-family="Helvetica,sans-Serif" font-size="10.00"> data)</text>
<text text-anchor="start" x="222.5" y="-296" font-family="Helvetica,sans-Serif" font-size="10.00">#</text>
<text text-anchor="start" x="235.5" y="-296" font-family="Helvetica,sans-Serif" font-size="10.00">bool UnitApply(Point</text>
<text text-anchor="start" x="235.5" y="-285" font-family="Helvetica,sans-Serif" font-size="10.00"> origin, int x, int y,</text>
<text text-anchor="start" x="235.5" y="-274" font-family="Helvetica,sans-Serif" font-size="10.00"> params object[] args)</text>
<text text-anchor="start" x="222.5" y="-259" font-family="Helvetica,sans-Serif" font-size="10.00">#</text>
<text text-anchor="start" x="235.5" y="-259" font-family="Helvetica,sans-Serif" font-size="10.00">bool Fail()</text>
<text text-anchor="start" x="222.5" y="-244" font-family="Helvetica,sans-Serif" font-size="10.00">#</text>
<text text-anchor="start" x="235.5" y="-244" font-family="Helvetica,sans-Serif" font-size="10.00">GenAction()</text>
<polygon fill="#666666" stroke="#666666" points="218.5,-399 218.5,-399 383.5,-399 383.5,-399 218.5,-399"/>
<polygon fill="#666666" stroke="#666666" points="218.5,-384 218.5,-384 383.5,-384 383.5,-384 218.5,-384"/>
<polygon fill="none" stroke="#666666" points="218,-237 218,-427 383,-427 383,-237 218,-237"/>
</a>
</g>
</g>
<!-- Node2&#45;&gt;Node3 -->
<g id="edge3_Node000003_Node000002" class="edge">
<title>Node2&#45;&gt;Node3</title>
<g id="a_edge3_Node000003_Node000002"><a xlink:title=" ">
<path fill="none" stroke="#63b8ff" d="M132.88,-541.4C147.71,-519.24 164.32,-495.36 180.5,-474 192.24,-458.5 205.13,-442.45 217.98,-426.97"/>
<polygon fill="none" stroke="#63b8ff" points="129.91,-539.54 127.28,-549.8 135.74,-543.42 129.91,-539.54"/>
</a>
</g>
</g>
<!-- Node3&#45;&gt;Node1 -->
<g id="edge2_Node000001_Node000003" class="edge">
<title>Node3&#45;&gt;Node1</title>
<g id="a_edge2_Node000001_Node000003"><a xlink:title=" ">
<path fill="none" stroke="#63b8ff" d="M252.78,-236.77C246.84,-225.04 240.74,-212.98 234.72,-201.1"/>
<polygon fill="none" stroke="#63b8ff" points="234.65,-200.96 228.37,-197.41 229.23,-190.25 235.51,-193.8 234.65,-200.96"/>
</a>
</g>
<text text-anchor="middle" x="274.5" y="-211" font-family="Helvetica,sans-Serif" font-size="10.00" fill="grey"> +NextAction</text>
</g>
<!-- Node3&#45;&gt;Node3 -->
<g id="edge4_Node000003_Node000003" class="edge">
<title>Node3&#45;&gt;Node3</title>
<g id="a_edge4_Node000003_Node000003"><a xlink:title=" ">
<path fill="none" stroke="#63b8ff" d="M383.3,-351.39C393.96,-348.03 401,-341.56 401,-332 401,-326.32 398.52,-321.74 394.27,-318.24"/>
<polygon fill="none" stroke="#63b8ff" points="393.97,-318.09 386.81,-318.91 383.3,-312.61 390.46,-311.79 393.97,-318.09"/>
</a>
</g>
<text text-anchor="middle" x="434" y="-329.5" font-family="Helvetica,sans-Serif" font-size="10.00" fill="grey"> +NextAction</text>
</g>
<!-- Node4 -->
<g id="Node000004" class="node">
<title>Node4</title>
<g id="a_Node000004"><a xlink:href="../../d3/d09/classTerraria_1_1WorldBuilding_1_1ShapeData.html" target="_top" xlink:title=" ">
<polygon fill="white" stroke="transparent" points="369.5,-768 189.5,-768 189.5,-474 369.5,-474 369.5,-768"/>
<text text-anchor="start" x="197.5" y="-756" font-family="Helvetica,sans-Serif" font-size="10.00">Terraria.WorldBuilding.ShapeData</text>
<text text-anchor="start" x="193.5" y="-741" font-family="Helvetica,sans-Serif" font-size="10.00">+</text>
<text text-anchor="start" x="206.5" y="-741" font-family="Helvetica,sans-Serif" font-size="10.00">int Count</text>
<text text-anchor="start" x="193.5" y="-726" font-family="Helvetica,sans-Serif" font-size="10.00">+</text>
<text text-anchor="start" x="206.5" y="-726" font-family="Helvetica,sans-Serif" font-size="10.00">ShapeData()</text>
<text text-anchor="start" x="193.5" y="-711" font-family="Helvetica,sans-Serif" font-size="10.00">+</text>
<text text-anchor="start" x="206.5" y="-711" font-family="Helvetica,sans-Serif" font-size="10.00">ShapeData(ShapeData</text>
<text text-anchor="start" x="206.5" y="-700" font-family="Helvetica,sans-Serif" font-size="10.00"> original)</text>
<text text-anchor="start" x="193.5" y="-685" font-family="Helvetica,sans-Serif" font-size="10.00">+</text>
<text text-anchor="start" x="206.5" y="-685" font-family="Helvetica,sans-Serif" font-size="10.00">void Add(int x, int y)</text>
<text text-anchor="start" x="193.5" y="-670" font-family="Helvetica,sans-Serif" font-size="10.00">+</text>
<text text-anchor="start" x="206.5" y="-670" font-family="Helvetica,sans-Serif" font-size="10.00">void Remove(int x,</text>
<text text-anchor="start" x="206.5" y="-659" font-family="Helvetica,sans-Serif" font-size="10.00"> int y)</text>
<text text-anchor="start" x="193.5" y="-644" font-family="Helvetica,sans-Serif" font-size="10.00">+</text>
<text text-anchor="start" x="206.5" y="-644" font-family="Helvetica,sans-Serif" font-size="10.00">HashSet&lt; Point16 &gt;</text>
<text text-anchor="start" x="206.5" y="-633" font-family="Helvetica,sans-Serif" font-size="10.00"> GetData()</text>
<text text-anchor="start" x="193.5" y="-618" font-family="Helvetica,sans-Serif" font-size="10.00">+</text>
<text text-anchor="start" x="206.5" y="-618" font-family="Helvetica,sans-Serif" font-size="10.00">void Clear()</text>
<text text-anchor="start" x="193.5" y="-603" font-family="Helvetica,sans-Serif" font-size="10.00">+</text>
<text text-anchor="start" x="206.5" y="-603" font-family="Helvetica,sans-Serif" font-size="10.00">bool Contains(int x,</text>
<text text-anchor="start" x="206.5" y="-592" font-family="Helvetica,sans-Serif" font-size="10.00"> int y)</text>
<text text-anchor="start" x="193.5" y="-577" font-family="Helvetica,sans-Serif" font-size="10.00">+</text>
<text text-anchor="start" x="206.5" y="-577" font-family="Helvetica,sans-Serif" font-size="10.00">void Add(ShapeData</text>
<text text-anchor="start" x="206.5" y="-566" font-family="Helvetica,sans-Serif" font-size="10.00"> shapeData, Point localOrigin,</text>
<text text-anchor="start" x="206.5" y="-555" font-family="Helvetica,sans-Serif" font-size="10.00"> Point remoteOrigin)</text>
<text text-anchor="start" x="193.5" y="-540" font-family="Helvetica,sans-Serif" font-size="10.00">+</text>
<text text-anchor="start" x="206.5" y="-540" font-family="Helvetica,sans-Serif" font-size="10.00">void Subtract(ShapeData</text>
<text text-anchor="start" x="206.5" y="-529" font-family="Helvetica,sans-Serif" font-size="10.00"> shapeData, Point localOrigin,</text>
<text text-anchor="start" x="206.5" y="-518" font-family="Helvetica,sans-Serif" font-size="10.00"> Point remoteOrigin)</text>
<text text-anchor="start" x="193.5" y="-503" font-family="Helvetica,sans-Serif" font-size="10.00">+</text>
<text text-anchor="start" x="206.5" y="-503" font-family="Helvetica,sans-Serif" font-size="10.00">static Rectangle GetBounds</text>
<text text-anchor="start" x="206.5" y="-492" font-family="Helvetica,sans-Serif" font-size="10.00">(Point origin, params ShapeData</text>
<text text-anchor="start" x="206.5" y="-481" font-family="Helvetica,sans-Serif" font-size="10.00">[] shapes)</text>
<polygon fill="#666666" stroke="#666666" points="189.5,-751 189.5,-751 369.5,-751 369.5,-751 189.5,-751"/>
<polygon fill="#666666" stroke="#666666" points="189.5,-736 189.5,-736 204.5,-736 204.5,-736 189.5,-736"/>
<polygon fill="#666666" stroke="#666666" points="204.5,-736 204.5,-736 369.5,-736 369.5,-736 204.5,-736"/>
<polygon fill="none" stroke="#666666" points="189.5,-474 189.5,-768 369.5,-768 369.5,-474 189.5,-474"/>
</a>
</g>
</g>
<!-- Node4&#45;&gt;Node1 -->
<g id="edge8_Node000001_Node000004" class="edge">
<title>Node4&#45;&gt;Node1</title>
<g id="a_edge8_Node000001_Node000004"><a xlink:title=" ">
<path fill="none" stroke="#63b8ff" d="M189.36,-495.59C162.94,-459 140.9,-428.25 140.5,-427 116.94,-353.96 128.76,-267.82 145.65,-201.73"/>
<polygon fill="none" stroke="#63b8ff" points="145.67,-201.65 143.34,-194.83 148.74,-190.05 151.07,-196.88 145.67,-201.65"/>
</a>
</g>
<text text-anchor="middle" x="174.5" y="-329.5" font-family="Helvetica,sans-Serif" font-size="10.00" fill="grey"> +OutputData</text>
</g>
<!-- Node4&#45;&gt;Node3 -->
<g id="edge5_Node000003_Node000004" class="edge">
<title>Node4&#45;&gt;Node3</title>
<g id="a_edge5_Node000003_Node000004"><a xlink:title=" ">
<path fill="none" stroke="#63b8ff" d="M282.44,-473.83C283.02,-464.07 283.7,-454.39 284.5,-445 284.66,-443.07 284.84,-441.13 285.03,-439.17"/>
<polygon fill="none" stroke="#63b8ff" points="285.05,-438.96 281.69,-432.58 286.28,-427.02 289.64,-433.4 285.05,-438.96"/>
</a>
</g>
<text text-anchor="middle" x="318.5" y="-448" font-family="Helvetica,sans-Serif" font-size="10.00" fill="grey"> +OutputData</text>
</g>
<!-- Node5 -->
<g id="Node000005" class="node">
<title>Node5</title>
<g id="a_Node000005"><a xlink:title=" ">
<polygon fill="white" stroke="transparent" points="334.5,-864 224.5,-864 224.5,-815 334.5,-815 334.5,-864"/>
<text text-anchor="start" x="229.5" y="-851.5" font-family="Helvetica,sans-Serif" font-size="10.00">HashSet&lt; Point16 &gt;</text>
<text text-anchor="start" x="277.5" y="-836.5" font-family="Helvetica,sans-Serif" font-size="10.00"> </text>
<text text-anchor="start" x="277.5" y="-821.5" font-family="Helvetica,sans-Serif" font-size="10.00"> </text>
<polygon fill="#666666" stroke="#666666" points="224.5,-846.5 224.5,-846.5 334.5,-846.5 334.5,-846.5 224.5,-846.5"/>
<polygon fill="#666666" stroke="#666666" points="224.5,-831.5 224.5,-831.5 334.5,-831.5 334.5,-831.5 224.5,-831.5"/>
<polygon fill="none" stroke="#666666" points="224.5,-815 224.5,-864 334.5,-864 334.5,-815 224.5,-815"/>
</a>
</g>
</g>
<!-- Node5&#45;&gt;Node4 -->
<g id="edge6_Node000004_Node000005" class="edge">
<title>Node5&#45;&gt;Node4</title>
<g id="a_edge6_Node000004_Node000005"><a xlink:title=" ">
<path fill="none" stroke="#63b8ff" d="M279.5,-814.92C279.5,-805.44 279.5,-793.65 279.5,-780.61"/>
<polygon fill="none" stroke="#63b8ff" points="279.5,-780.31 275.5,-774.31 279.5,-768.31 283.5,-774.31 279.5,-780.31"/>
</a>
</g>
<text text-anchor="middle" x="301" y="-789" font-family="Helvetica,sans-Serif" font-size="10.00" fill="grey"> &#45;_points</text>
</g>
<!-- Node6 -->
<g id="Node000006" class="node">
<title>Node6</title>
<g id="a_Node000006"><a xlink:title=" ">
<polygon fill="white" stroke="transparent" points="469.5,-645.5 437.5,-645.5 437.5,-596.5 469.5,-596.5 469.5,-645.5"/>
<text text-anchor="start" x="442.5" y="-633" font-family="Helvetica,sans-Serif" font-size="10.00">bool</text>
<text text-anchor="start" x="451.5" y="-618" font-family="Helvetica,sans-Serif" font-size="10.00"> </text>
<text text-anchor="start" x="451.5" y="-603" font-family="Helvetica,sans-Serif" font-size="10.00"> </text>
<polygon fill="#666666" stroke="#666666" points="437.5,-628 437.5,-628 469.5,-628 469.5,-628 437.5,-628"/>
<polygon fill="#666666" stroke="#666666" points="437.5,-613 437.5,-613 469.5,-613 469.5,-613 437.5,-613"/>
<polygon fill="none" stroke="#666666" points="437.5,-596.5 437.5,-645.5 469.5,-645.5 469.5,-596.5 437.5,-596.5"/>
</a>
</g>
</g>
<!-- Node6&#45;&gt;Node1 -->
<g id="edge9_Node000001_Node000006" class="edge">
<title>Node6&#45;&gt;Node1</title>
<g id="a_edge9_Node000001_Node000006"><a xlink:title=" ">
<path fill="none" stroke="#63b8ff" d="M463.81,-596.42C490.06,-532.45 552.17,-352.67 476.5,-237 431.78,-168.63 344.1,-132.57 275.9,-114.1"/>
<polygon fill="none" stroke="#63b8ff" points="275.88,-114.1 269.07,-116.45 264.27,-111.07 271.09,-108.71 275.88,-114.1"/>
</a>
</g>
<text text-anchor="middle" x="568.5" y="-329.5" font-family="Helvetica,sans-Serif" font-size="10.00" fill="grey"> &#45;_returnFalseOnFailure</text>
</g>
<!-- Node6&#45;&gt;Node3 -->
<g id="edge7_Node000003_Node000006" class="edge">
<title>Node6&#45;&gt;Node3</title>
<g id="a_edge7_Node000003_Node000006"><a xlink:title=" ">
<path fill="none" stroke="#63b8ff" d="M441.64,-596.37C427.04,-567.4 401.36,-516.87 378.5,-474 372.24,-462.26 365.61,-450.01 358.97,-437.85"/>
<polygon fill="none" stroke="#63b8ff" points="358.9,-437.73 352.51,-434.39 353.14,-427.21 359.53,-430.55 358.9,-437.73"/>
</a>
</g>
<text text-anchor="middle" x="423.5" y="-448" font-family="Helvetica,sans-Serif" font-size="10.00" fill="grey"> &#45;_returnFalseOnFailure</text>
</g>
</g>
</svg>
