<?xml version="1.0" encoding="UTF-8" standalone="no"?>
<!DOCTYPE svg PUBLIC "-//W3C//DTD SVG 1.1//EN"
 "http://www.w3.org/Graphics/SVG/1.1/DTD/svg11.dtd">
<!-- Generated by graphviz version 2.43.0 (0)
 -->
<!-- Title: System.RuntimeFieldHandle Pages: 1 -->
<svg width="271pt" height="548pt"
 viewBox="0.00 0.00 271.00 548.00" xmlns="http://www.w3.org/2000/svg" xmlns:xlink="http://www.w3.org/1999/xlink">
<g id="graph0" class="graph" transform="scale(1 1) rotate(0) translate(4 544)">
<title>System.RuntimeFieldHandle</title>
<!-- Node1 -->
<g id="Node000001" class="node">
<title>Node1</title>
<g id="a_Node000001"><a xlink:title=" ">
<polygon fill="#999999" stroke="transparent" points="263,-444 0,-444 0,0 263,0 263,-444"/>
<text text-anchor="start" x="62.5" y="-432" font-family="Helvetica,sans-Serif" font-size="10.00">System.RuntimeFieldHandle</text>
<text text-anchor="start" x="4.5" y="-417" font-family="Helvetica,sans-Serif" font-size="10.00">+</text>
<text text-anchor="start" x="17.5" y="-417" font-family="Helvetica,sans-Serif" font-size="10.00">global::System.IntPtr</text>
<text text-anchor="start" x="17.5" y="-406" font-family="Helvetica,sans-Serif" font-size="10.00"> Value</text>
<text text-anchor="start" x="7" y="-391" font-family="Helvetica,sans-Serif" font-size="10.00">&#45;</text>
<text text-anchor="start" x="17.5" y="-391" font-family="Helvetica,sans-Serif" font-size="10.00">global::System.IntPtr</text>
<text text-anchor="start" x="17.5" y="-380" font-family="Helvetica,sans-Serif" font-size="10.00"> value</text>
<text text-anchor="start" x="4.5" y="-365" font-family="Helvetica,sans-Serif" font-size="10.00">+</text>
<text text-anchor="start" x="17.5" y="-365" font-family="Helvetica,sans-Serif" font-size="10.00">void GetObjectData</text>
<text text-anchor="start" x="17.5" y="-354" font-family="Helvetica,sans-Serif" font-size="10.00">(global::System.Runtime.Serialization.</text>
<text text-anchor="start" x="17.5" y="-343" font-family="Helvetica,sans-Serif" font-size="10.00">SerializationInfo info, global</text>
<text text-anchor="start" x="17.5" y="-332" font-family="Helvetica,sans-Serif" font-size="10.00">::System.Runtime.Serialization.Streaming</text>
<text text-anchor="start" x="17.5" y="-321" font-family="Helvetica,sans-Serif" font-size="10.00">Context context)</text>
<text text-anchor="start" x="4.5" y="-306" font-family="Helvetica,sans-Serif" font-size="10.00">+</text>
<text text-anchor="start" x="17.5" y="-306" font-family="Helvetica,sans-Serif" font-size="10.00">override bool Equals</text>
<text text-anchor="start" x="17.5" y="-295" font-family="Helvetica,sans-Serif" font-size="10.00">(object obj)</text>
<text text-anchor="start" x="4.5" y="-280" font-family="Helvetica,sans-Serif" font-size="10.00">+</text>
<text text-anchor="start" x="17.5" y="-280" font-family="Helvetica,sans-Serif" font-size="10.00">override int GetHashCode()</text>
<text text-anchor="start" x="4.5" y="-265" font-family="Helvetica,sans-Serif" font-size="10.00">~</text>
<text text-anchor="start" x="17.5" y="-265" font-family="Helvetica,sans-Serif" font-size="10.00">RuntimeFieldHandle</text>
<text text-anchor="start" x="17.5" y="-254" font-family="Helvetica,sans-Serif" font-size="10.00">(global::System.IntPtr v)</text>
<text text-anchor="start" x="4.5" y="-239" font-family="Helvetica,sans-Serif" font-size="10.00">~</text>
<text text-anchor="start" x="17.5" y="-239" font-family="Helvetica,sans-Serif" font-size="10.00">static unsafe void</text>
<text text-anchor="start" x="17.5" y="-228" font-family="Helvetica,sans-Serif" font-size="10.00"> SetValueDirect(global</text>
<text text-anchor="start" x="17.5" y="-217" font-family="Helvetica,sans-Serif" font-size="10.00">::System.Reflection.RuntimeField</text>
<text text-anchor="start" x="17.5" y="-206" font-family="Helvetica,sans-Serif" font-size="10.00">Info field, global::System.RuntimeType</text>
<text text-anchor="start" x="17.5" y="-195" font-family="Helvetica,sans-Serif" font-size="10.00"> fieldType, void *pTypedRef, object</text>
<text text-anchor="start" x="17.5" y="-184" font-family="Helvetica,sans-Serif" font-size="10.00"> value, global::System.RuntimeType contextType)</text>
<text text-anchor="start" x="4.5" y="-169" font-family="Helvetica,sans-Serif" font-size="10.00">~</text>
<text text-anchor="start" x="17.5" y="-169" font-family="Helvetica,sans-Serif" font-size="10.00">static void SetValue</text>
<text text-anchor="start" x="17.5" y="-158" font-family="Helvetica,sans-Serif" font-size="10.00">(global::System.Reflection.</text>
<text text-anchor="start" x="17.5" y="-147" font-family="Helvetica,sans-Serif" font-size="10.00">RuntimeFieldInfo field, object</text>
<text text-anchor="start" x="17.5" y="-136" font-family="Helvetica,sans-Serif" font-size="10.00"> obj, object value, global::System.Runtime</text>
<text text-anchor="start" x="17.5" y="-125" font-family="Helvetica,sans-Serif" font-size="10.00">Type fieldType, global::System.Reflection.Field</text>
<text text-anchor="start" x="17.5" y="-114" font-family="Helvetica,sans-Serif" font-size="10.00">Attributes fieldAttr, global::System.RuntimeType</text>
<text text-anchor="start" x="17.5" y="-103" font-family="Helvetica,sans-Serif" font-size="10.00"> declaringType, ref bool domainInitialized)</text>
<text text-anchor="start" x="7" y="-88" font-family="Helvetica,sans-Serif" font-size="10.00">&#45;</text>
<text text-anchor="start" x="17.5" y="-88" font-family="Helvetica,sans-Serif" font-size="10.00">RuntimeFieldHandle</text>
<text text-anchor="start" x="17.5" y="-77" font-family="Helvetica,sans-Serif" font-size="10.00">(global::System.Runtime.Serialization.</text>
<text text-anchor="start" x="17.5" y="-66" font-family="Helvetica,sans-Serif" font-size="10.00">SerializationInfo info, global</text>
<text text-anchor="start" x="17.5" y="-55" font-family="Helvetica,sans-Serif" font-size="10.00">::System.Runtime.Serialization.Streaming</text>
<text text-anchor="start" x="17.5" y="-44" font-family="Helvetica,sans-Serif" font-size="10.00">Context context)</text>
<text text-anchor="start" x="7" y="-29" font-family="Helvetica,sans-Serif" font-size="10.00">&#45;</text>
<text text-anchor="start" x="17.5" y="-29" font-family="Helvetica,sans-Serif" font-size="10.00">static void SetValueInternal</text>
<text text-anchor="start" x="17.5" y="-18" font-family="Helvetica,sans-Serif" font-size="10.00">(global::System.Reflection.Field</text>
<text text-anchor="start" x="17.5" y="-7" font-family="Helvetica,sans-Serif" font-size="10.00">Info fi, object obj, object value)</text>
<polygon fill="#666666" stroke="#666666" points="0.5,-427 0.5,-427 263.5,-427 263.5,-427 0.5,-427"/>
<polygon fill="#666666" stroke="#666666" points="0.5,-375 0.5,-375 15.5,-375 15.5,-375 0.5,-375"/>
<polygon fill="#666666" stroke="#666666" points="15.5,-375 15.5,-375 263.5,-375 263.5,-375 15.5,-375"/>
<polygon fill="none" stroke="#666666" points="0,0 0,-444 263,-444 263,0 0,0"/>
</a>
</g>
</g>
<!-- Node2 -->
<g id="Node000002" class="node">
<title>Node2</title>
<g id="a_Node000002"><a xlink:title=" ">
<polygon fill="white" stroke="transparent" points="203,-540 60,-540 60,-480 203,-480 203,-540"/>
<text text-anchor="start" x="65.5" y="-528" font-family="Helvetica,sans-Serif" font-size="10.00">global::SystemRuntime</text>
<text text-anchor="start" x="65.5" y="-517" font-family="Helvetica,sans-Serif" font-size="10.00">::Serialization::ISerializable</text>
<text text-anchor="start" x="130" y="-502" font-family="Helvetica,sans-Serif" font-size="10.00"> </text>
<text text-anchor="start" x="130" y="-487" font-family="Helvetica,sans-Serif" font-size="10.00"> </text>
<polygon fill="#666666" stroke="#666666" points="60.5,-512 60.5,-512 203.5,-512 203.5,-512 60.5,-512"/>
<polygon fill="#666666" stroke="#666666" points="60.5,-497 60.5,-497 203.5,-497 203.5,-497 60.5,-497"/>
<polygon fill="none" stroke="#666666" points="60,-480 60,-540 203,-540 203,-480 60,-480"/>
</a>
</g>
</g>
<!-- Node2&#45;&gt;Node1 -->
<g id="edge1_Node000001_Node000002" class="edge">
<title>Node2&#45;&gt;Node1</title>
<g id="a_edge1_Node000001_Node000002"><a xlink:title=" ">
<path fill="none" stroke="#63b8ff" d="M131.5,-469.73C131.5,-461.98 131.5,-453.35 131.5,-444.09"/>
<polygon fill="none" stroke="#63b8ff" points="128,-469.74 131.5,-479.74 135,-469.74 128,-469.74"/>
</a>
</g>
</g>
</g>
</svg>
