<?xml version="1.0" encoding="UTF-8" standalone="no"?>
<!DOCTYPE svg PUBLIC "-//W3C//DTD SVG 1.1//EN"
 "http://www.w3.org/Graphics/SVG/1.1/DTD/svg11.dtd">
<!-- Generated by graphviz version 2.43.0 (0)
 -->
<!-- Title: System.Console Pages: 1 -->
<svg width="300pt" height="805pt"
 viewBox="0.00 0.00 299.50 805.00" xmlns="http://www.w3.org/2000/svg" xmlns:xlink="http://www.w3.org/1999/xlink">
<g id="graph0" class="graph" transform="scale(1 1) rotate(0) translate(4 801)">
<title>System.Console</title>
<!-- Node1 -->
<g id="Node000001" class="node">
<title>Node1</title>
<g id="a_Node000001"><a xlink:title=" ">
<polygon fill="#999999" stroke="transparent" points="217,-668 0,-668 0,0 217,0 217,-668"/>
<text text-anchor="start" x="69.5" y="-656" font-family="Helvetica,sans-Serif" font-size="10.00">System.Console</text>
<text text-anchor="start" x="4.5" y="-641" font-family="Helvetica,sans-Serif" font-size="10.00">+</text>
<text text-anchor="start" x="17.5" y="-641" font-family="Helvetica,sans-Serif" font-size="10.00">static global::System.IO.</text>
<text text-anchor="start" x="17.5" y="-630" font-family="Helvetica,sans-Serif" font-size="10.00">TextWriter Error</text>
<text text-anchor="start" x="4.5" y="-615" font-family="Helvetica,sans-Serif" font-size="10.00">+</text>
<text text-anchor="start" x="17.5" y="-615" font-family="Helvetica,sans-Serif" font-size="10.00">static global::System.IO.</text>
<text text-anchor="start" x="17.5" y="-604" font-family="Helvetica,sans-Serif" font-size="10.00">TextWriter Out</text>
<text text-anchor="start" x="4.5" y="-589" font-family="Helvetica,sans-Serif" font-size="10.00">+</text>
<text text-anchor="start" x="17.5" y="-589" font-family="Helvetica,sans-Serif" font-size="10.00">static global::System.Text.</text>
<text text-anchor="start" x="17.5" y="-578" font-family="Helvetica,sans-Serif" font-size="10.00">Encoding InputEncoding</text>
<text text-anchor="start" x="4.5" y="-563" font-family="Helvetica,sans-Serif" font-size="10.00">+</text>
<text text-anchor="start" x="17.5" y="-563" font-family="Helvetica,sans-Serif" font-size="10.00">static global::System.Text.</text>
<text text-anchor="start" x="17.5" y="-552" font-family="Helvetica,sans-Serif" font-size="10.00">Encoding OutputEncoding</text>
<text text-anchor="start" x="4.5" y="-537" font-family="Helvetica,sans-Serif" font-size="10.00">+</text>
<text text-anchor="start" x="17.5" y="-537" font-family="Helvetica,sans-Serif" font-size="10.00">static global::System.IO.</text>
<text text-anchor="start" x="17.5" y="-526" font-family="Helvetica,sans-Serif" font-size="10.00">Stream OpenStandardError</text>
<text text-anchor="start" x="17.5" y="-515" font-family="Helvetica,sans-Serif" font-size="10.00">(int bufferSize)</text>
<text text-anchor="start" x="4.5" y="-500" font-family="Helvetica,sans-Serif" font-size="10.00">+</text>
<text text-anchor="start" x="17.5" y="-500" font-family="Helvetica,sans-Serif" font-size="10.00">static global::System.IO.</text>
<text text-anchor="start" x="17.5" y="-489" font-family="Helvetica,sans-Serif" font-size="10.00">Stream OpenStandardInput</text>
<text text-anchor="start" x="17.5" y="-478" font-family="Helvetica,sans-Serif" font-size="10.00">(int bufferSize)</text>
<text text-anchor="start" x="4.5" y="-463" font-family="Helvetica,sans-Serif" font-size="10.00">+</text>
<text text-anchor="start" x="17.5" y="-463" font-family="Helvetica,sans-Serif" font-size="10.00">static global::System.IO.</text>
<text text-anchor="start" x="17.5" y="-452" font-family="Helvetica,sans-Serif" font-size="10.00">Stream OpenStandardOutput</text>
<text text-anchor="start" x="17.5" y="-441" font-family="Helvetica,sans-Serif" font-size="10.00">(int bufferSize)</text>
<text text-anchor="start" x="4.5" y="-426" font-family="Helvetica,sans-Serif" font-size="10.00">+</text>
<text text-anchor="start" x="17.5" y="-426" font-family="Helvetica,sans-Serif" font-size="10.00">static void SetOut</text>
<text text-anchor="start" x="17.5" y="-415" font-family="Helvetica,sans-Serif" font-size="10.00">(global::System.IO.TextWriter</text>
<text text-anchor="start" x="17.5" y="-404" font-family="Helvetica,sans-Serif" font-size="10.00"> newOut)</text>
<text text-anchor="start" x="4.5" y="-389" font-family="Helvetica,sans-Serif" font-size="10.00">+</text>
<text text-anchor="start" x="17.5" y="-389" font-family="Helvetica,sans-Serif" font-size="10.00">static void Write(string</text>
<text text-anchor="start" x="17.5" y="-378" font-family="Helvetica,sans-Serif" font-size="10.00"> value)</text>
<text text-anchor="start" x="4.5" y="-363" font-family="Helvetica,sans-Serif" font-size="10.00">+</text>
<text text-anchor="start" x="17.5" y="-363" font-family="Helvetica,sans-Serif" font-size="10.00">static void Write(string</text>
<text text-anchor="start" x="17.5" y="-352" font-family="Helvetica,sans-Serif" font-size="10.00"> format, object arg0)</text>
<text text-anchor="start" x="4.5" y="-337" font-family="Helvetica,sans-Serif" font-size="10.00">+</text>
<text text-anchor="start" x="17.5" y="-337" font-family="Helvetica,sans-Serif" font-size="10.00">static void WriteLine</text>
<text text-anchor="start" x="17.5" y="-326" font-family="Helvetica,sans-Serif" font-size="10.00">(object value)</text>
<text text-anchor="start" x="4.5" y="-311" font-family="Helvetica,sans-Serif" font-size="10.00">+</text>
<text text-anchor="start" x="17.5" y="-311" font-family="Helvetica,sans-Serif" font-size="10.00">static void WriteLine</text>
<text text-anchor="start" x="17.5" y="-300" font-family="Helvetica,sans-Serif" font-size="10.00">(string value)</text>
<text text-anchor="start" x="4.5" y="-285" font-family="Helvetica,sans-Serif" font-size="10.00">+</text>
<text text-anchor="start" x="17.5" y="-285" font-family="Helvetica,sans-Serif" font-size="10.00">static void WriteLine</text>
<text text-anchor="start" x="17.5" y="-274" font-family="Helvetica,sans-Serif" font-size="10.00">(string format, params</text>
<text text-anchor="start" x="17.5" y="-263" font-family="Helvetica,sans-Serif" font-size="10.00"> object[] arg)</text>
<text text-anchor="start" x="4.5" y="-248" font-family="Helvetica,sans-Serif" font-size="10.00">+</text>
<text text-anchor="start" x="17.5" y="-248" font-family="Helvetica,sans-Serif" font-size="10.00">static void WriteLine</text>
<text text-anchor="start" x="17.5" y="-237" font-family="Helvetica,sans-Serif" font-size="10.00">(string format, object</text>
<text text-anchor="start" x="17.5" y="-226" font-family="Helvetica,sans-Serif" font-size="10.00"> arg0, object arg1)</text>
<text text-anchor="start" x="4.5" y="-211" font-family="Helvetica,sans-Serif" font-size="10.00">+</text>
<text text-anchor="start" x="17.5" y="-211" font-family="Helvetica,sans-Serif" font-size="10.00">static string ReadLine()</text>
<text text-anchor="start" x="4.5" y="-196" font-family="Helvetica,sans-Serif" font-size="10.00">+</text>
<text text-anchor="start" x="17.5" y="-196" font-family="Helvetica,sans-Serif" font-size="10.00">static void Clear()</text>
<text text-anchor="start" x="4.5" y="-181" font-family="Helvetica,sans-Serif" font-size="10.00">+</text>
<text text-anchor="start" x="17.5" y="-181" font-family="Helvetica,sans-Serif" font-size="10.00">static global::System.Console</text>
<text text-anchor="start" x="17.5" y="-170" font-family="Helvetica,sans-Serif" font-size="10.00">KeyInfo ReadKey()</text>
<text text-anchor="start" x="4.5" y="-155" font-family="Helvetica,sans-Serif" font-size="10.00">+</text>
<text text-anchor="start" x="17.5" y="-155" font-family="Helvetica,sans-Serif" font-size="10.00">static global::System.Console</text>
<text text-anchor="start" x="17.5" y="-144" font-family="Helvetica,sans-Serif" font-size="10.00">KeyInfo ReadKey(bool intercept)</text>
<text text-anchor="start" x="7" y="-129" font-family="Helvetica,sans-Serif" font-size="10.00">&#45;</text>
<text text-anchor="start" x="17.5" y="-129" font-family="Helvetica,sans-Serif" font-size="10.00">static Console()</text>
<text text-anchor="start" x="7" y="-114" font-family="Helvetica,sans-Serif" font-size="10.00">&#45;</text>
<text text-anchor="start" x="17.5" y="-114" font-family="Helvetica,sans-Serif" font-size="10.00">static void SetupStreams</text>
<text text-anchor="start" x="17.5" y="-103" font-family="Helvetica,sans-Serif" font-size="10.00">(global::System.Text.Encoding</text>
<text text-anchor="start" x="17.5" y="-92" font-family="Helvetica,sans-Serif" font-size="10.00"> inputEncoding, global::System.Text.</text>
<text text-anchor="start" x="17.5" y="-81" font-family="Helvetica,sans-Serif" font-size="10.00">Encoding outputEncoding)</text>
<text text-anchor="start" x="7" y="-66" font-family="Helvetica,sans-Serif" font-size="10.00">&#45;</text>
<text text-anchor="start" x="17.5" y="-66" font-family="Helvetica,sans-Serif" font-size="10.00">static global::System.IO.</text>
<text text-anchor="start" x="17.5" y="-55" font-family="Helvetica,sans-Serif" font-size="10.00">Stream Open(global::System.Int</text>
<text text-anchor="start" x="17.5" y="-44" font-family="Helvetica,sans-Serif" font-size="10.00">Ptr handle, global::System.IO.FileAccess</text>
<text text-anchor="start" x="17.5" y="-33" font-family="Helvetica,sans-Serif" font-size="10.00"> access, int bufferSize)</text>
<text text-anchor="start" x="7" y="-18" font-family="Helvetica,sans-Serif" font-size="10.00">&#45;</text>
<text text-anchor="start" x="17.5" y="-18" font-family="Helvetica,sans-Serif" font-size="10.00">static void DoConsoleCancel</text>
<text text-anchor="start" x="17.5" y="-7" font-family="Helvetica,sans-Serif" font-size="10.00">Event()</text>
<polygon fill="#666666" stroke="#666666" points="0.5,-651 0.5,-651 217.5,-651 217.5,-651 0.5,-651"/>
<polygon fill="#666666" stroke="#666666" points="0.5,-547 0.5,-547 15.5,-547 15.5,-547 0.5,-547"/>
<polygon fill="#666666" stroke="#666666" points="15.5,-547 15.5,-547 217.5,-547 217.5,-547 15.5,-547"/>
<polygon fill="none" stroke="#666666" points="0,0 0,-668 217,-668 217,0 0,0"/>
</a>
</g>
</g>
<!-- Node2 -->
<g id="Node000002" class="node">
<title>Node2</title>
<g id="a_Node000002"><a xlink:title=" ">
<polygon fill="white" stroke="transparent" points="56,-791.5 35,-791.5 35,-742.5 56,-742.5 56,-791.5"/>
<text text-anchor="start" x="40.5" y="-779" font-family="Helvetica,sans-Serif" font-size="10.00">IO</text>
<text text-anchor="start" x="44" y="-764" font-family="Helvetica,sans-Serif" font-size="10.00"> </text>
<text text-anchor="start" x="44" y="-749" font-family="Helvetica,sans-Serif" font-size="10.00"> </text>
<polygon fill="#666666" stroke="#666666" points="35.5,-774 35.5,-774 56.5,-774 56.5,-774 35.5,-774"/>
<polygon fill="#666666" stroke="#666666" points="35.5,-759 35.5,-759 56.5,-759 56.5,-759 35.5,-759"/>
<polygon fill="none" stroke="#666666" points="35,-742.5 35,-791.5 56,-791.5 56,-742.5 35,-742.5"/>
</a>
</g>
</g>
<!-- Node2&#45;&gt;Node1 -->
<g id="edge1_Node000001_Node000002" class="edge">
<title>Node2&#45;&gt;Node1</title>
<g id="a_edge1_Node000001_Node000002"><a xlink:title=" ">
<path fill="none" stroke="#63b8ff" d="M48.98,-742.21C51.19,-727.06 54.34,-705.54 58.04,-680.22"/>
<polygon fill="none" stroke="#63b8ff" points="58.04,-680.2 54.95,-673.68 59.78,-668.32 62.87,-674.84 58.04,-680.2"/>
</a>
</g>
<text text-anchor="middle" x="76.5" y="-711" font-family="Helvetica,sans-Serif" font-size="10.00" fill="grey"> &#45;stderr</text>
<text text-anchor="middle" x="76.5" y="-700" font-family="Helvetica,sans-Serif" font-size="10.00" fill="grey">&#45;stdin</text>
<text text-anchor="middle" x="76.5" y="-689" font-family="Helvetica,sans-Serif" font-size="10.00" fill="grey">~stdout</text>
</g>
<!-- Node3 -->
<g id="Node000003" class="node">
<title>Node3</title>
<g id="a_Node000003"><a xlink:title=" ">
<polygon fill="white" stroke="transparent" points="124,-791.5 93,-791.5 93,-742.5 124,-742.5 124,-791.5"/>
<text text-anchor="start" x="98.5" y="-779" font-family="Helvetica,sans-Serif" font-size="10.00">Text</text>
<text text-anchor="start" x="107" y="-764" font-family="Helvetica,sans-Serif" font-size="10.00"> </text>
<text text-anchor="start" x="107" y="-749" font-family="Helvetica,sans-Serif" font-size="10.00"> </text>
<polygon fill="#666666" stroke="#666666" points="93.5,-774 93.5,-774 124.5,-774 124.5,-774 93.5,-774"/>
<polygon fill="#666666" stroke="#666666" points="93.5,-759 93.5,-759 124.5,-759 124.5,-759 93.5,-759"/>
<polygon fill="none" stroke="#666666" points="93,-742.5 93,-791.5 124,-791.5 124,-742.5 93,-742.5"/>
</a>
</g>
</g>
<!-- Node3&#45;&gt;Node1 -->
<g id="edge2_Node000001_Node000003" class="edge">
<title>Node3&#45;&gt;Node1</title>
<g id="a_edge2_Node000001_Node000003"><a xlink:title=" ">
<path fill="none" stroke="#63b8ff" d="M108.5,-742.21C108.5,-727.13 108.5,-705.74 108.5,-680.56"/>
<polygon fill="none" stroke="#63b8ff" points="108.5,-680.32 104.5,-674.32 108.5,-668.32 112.5,-674.32 108.5,-680.32"/>
</a>
</g>
<text text-anchor="middle" x="148.5" y="-705.5" font-family="Helvetica,sans-Serif" font-size="10.00" fill="grey"> &#45;inputEncoding</text>
<text text-anchor="middle" x="148.5" y="-694.5" font-family="Helvetica,sans-Serif" font-size="10.00" fill="grey">&#45;outputEncoding</text>
</g>
<!-- Node4 -->
<g id="Node000004" class="node">
<title>Node4</title>
<g id="a_Node000004"><a xlink:title=" ">
<polygon fill="white" stroke="transparent" points="291.5,-797 141.5,-797 141.5,-737 291.5,-737 291.5,-797"/>
<text text-anchor="start" x="146.5" y="-785" font-family="Helvetica,sans-Serif" font-size="10.00">System.ConsoleCancelEvent</text>
<text text-anchor="start" x="197" y="-774" font-family="Helvetica,sans-Serif" font-size="10.00">Handler</text>
<text text-anchor="start" x="214.5" y="-759" font-family="Helvetica,sans-Serif" font-size="10.00"> </text>
<text text-anchor="start" x="214.5" y="-744" font-family="Helvetica,sans-Serif" font-size="10.00"> </text>
<polygon fill="#666666" stroke="#666666" points="141.5,-769 141.5,-769 291.5,-769 291.5,-769 141.5,-769"/>
<polygon fill="#666666" stroke="#666666" points="141.5,-754 141.5,-754 291.5,-754 291.5,-754 141.5,-754"/>
<polygon fill="none" stroke="#666666" points="141.5,-737 141.5,-797 291.5,-797 291.5,-737 141.5,-737"/>
</a>
</g>
</g>
<!-- Node4&#45;&gt;Node1 -->
<g id="edge3_Node000001_Node000004" class="edge">
<title>Node4&#45;&gt;Node1</title>
<g id="a_edge3_Node000001_Node000004"><a xlink:title=" ">
<path fill="none" stroke="#63b8ff" d="M209.16,-736.71C205.47,-721.96 200.57,-702.41 194.92,-679.86"/>
<polygon fill="none" stroke="#63b8ff" points="194.91,-679.82 189.57,-674.98 191.99,-668.18 197.33,-673.03 194.91,-679.82"/>
</a>
</g>
<text text-anchor="middle" x="238.5" y="-700" font-family="Helvetica,sans-Serif" font-size="10.00" fill="grey"> &#45;cancel_event</text>
</g>
</g>
</svg>
