<?xml version="1.0" encoding="UTF-8" standalone="no"?>
<!DOCTYPE svg PUBLIC "-//W3C//DTD SVG 1.1//EN"
 "http://www.w3.org/Graphics/SVG/1.1/DTD/svg11.dtd">
<!-- Generated by graphviz version 2.43.0 (0)
 -->
<!-- Title: System.IO.DirectoryInfo Pages: 1 -->
<svg width="715pt" height="1520pt"
 viewBox="0.00 0.00 715.00 1520.00" xmlns="http://www.w3.org/2000/svg" xmlns:xlink="http://www.w3.org/1999/xlink">
<g id="graph0" class="graph" transform="scale(1 1) rotate(0) translate(4 1516)">
<title>System.IO.DirectoryInfo</title>
<!-- Node1 -->
<g id="Node000001" class="node">
<title>Node1</title>
<g id="a_Node000001"><a xlink:title=" ">
<polygon fill="#999999" stroke="transparent" points="415,-230 189,-230 189,0 415,0 415,-230"/>
<text text-anchor="start" x="243" y="-218" font-family="Helvetica,sans-Serif" font-size="10.00">System.IO.DirectoryInfo</text>
<text text-anchor="start" x="300" y="-203" font-family="Helvetica,sans-Serif" font-size="10.00"> </text>
<text text-anchor="start" x="193" y="-188" font-family="Helvetica,sans-Serif" font-size="10.00">+</text>
<text text-anchor="start" x="206" y="-188" font-family="Helvetica,sans-Serif" font-size="10.00">DirectoryInfo(string</text>
<text text-anchor="start" x="206" y="-177" font-family="Helvetica,sans-Serif" font-size="10.00"> path)</text>
<text text-anchor="start" x="193" y="-162" font-family="Helvetica,sans-Serif" font-size="10.00">+</text>
<text text-anchor="start" x="206" y="-162" font-family="Helvetica,sans-Serif" font-size="10.00">void Create()</text>
<text text-anchor="start" x="193" y="-147" font-family="Helvetica,sans-Serif" font-size="10.00">~</text>
<text text-anchor="start" x="206" y="-147" font-family="Helvetica,sans-Serif" font-size="10.00">DirectoryInfo(string</text>
<text text-anchor="start" x="206" y="-136" font-family="Helvetica,sans-Serif" font-size="10.00"> originalPath, string</text>
<text text-anchor="start" x="206" y="-125" font-family="Helvetica,sans-Serif" font-size="10.00"> fullPath=null, string</text>
<text text-anchor="start" x="206" y="-114" font-family="Helvetica,sans-Serif" font-size="10.00"> fileName=null, bool isNormalized=false)</text>
<text text-anchor="start" x="195.5" y="-99" font-family="Helvetica,sans-Serif" font-size="10.00">&#45;</text>
<text text-anchor="start" x="206" y="-99" font-family="Helvetica,sans-Serif" font-size="10.00">void Init(string original</text>
<text text-anchor="start" x="206" y="-88" font-family="Helvetica,sans-Serif" font-size="10.00">Path, string fullPath=null,</text>
<text text-anchor="start" x="206" y="-77" font-family="Helvetica,sans-Serif" font-size="10.00"> string fileName=null, bool</text>
<text text-anchor="start" x="206" y="-66" font-family="Helvetica,sans-Serif" font-size="10.00"> isNormalized=false)</text>
<text text-anchor="start" x="195.5" y="-51" font-family="Helvetica,sans-Serif" font-size="10.00">&#45;</text>
<text text-anchor="start" x="206" y="-51" font-family="Helvetica,sans-Serif" font-size="10.00">DirectoryInfo(global</text>
<text text-anchor="start" x="206" y="-40" font-family="Helvetica,sans-Serif" font-size="10.00">::System.Runtime.Serialization.</text>
<text text-anchor="start" x="206" y="-29" font-family="Helvetica,sans-Serif" font-size="10.00">SerializationInfo info, global</text>
<text text-anchor="start" x="206" y="-18" font-family="Helvetica,sans-Serif" font-size="10.00">::System.Runtime.Serialization.Streaming</text>
<text text-anchor="start" x="206" y="-7" font-family="Helvetica,sans-Serif" font-size="10.00">Context context)</text>
<polygon fill="#666666" stroke="#666666" points="189,-213 189,-213 415,-213 415,-213 189,-213"/>
<polygon fill="#666666" stroke="#666666" points="189,-198 189,-198 415,-198 415,-198 189,-198"/>
<polygon fill="none" stroke="#666666" points="189,0 189,-230 415,-230 415,0 189,0"/>
</a>
</g>
</g>
<!-- Node2 -->
<g id="Node000002" class="node">
<title>Node2</title>
<g id="a_Node000002"><a xlink:href="../../d7/d41/classSystem_1_1IO_1_1FileSystemInfo.html" target="_top" xlink:title=" ">
<polygon fill="white" stroke="transparent" points="452.5,-788 151.5,-788 151.5,-267 452.5,-267 452.5,-788"/>
<text text-anchor="start" x="266" y="-775.5" font-family="Helvetica,sans-Serif" font-size="10.00">FileSystemInfo</text>
<text text-anchor="start" x="156" y="-760.5" font-family="Helvetica,sans-Serif" font-size="10.00">+</text>
<text text-anchor="start" x="169" y="-760.5" font-family="Helvetica,sans-Serif" font-size="10.00">FileAttributes Attributes</text>
<text text-anchor="start" x="156" y="-745.5" font-family="Helvetica,sans-Serif" font-size="10.00">+</text>
<text text-anchor="start" x="169" y="-745.5" font-family="Helvetica,sans-Serif" font-size="10.00">bool ExistsCore</text>
<text text-anchor="start" x="156" y="-730.5" font-family="Helvetica,sans-Serif" font-size="10.00">+</text>
<text text-anchor="start" x="169" y="-730.5" font-family="Helvetica,sans-Serif" font-size="10.00">global::System.DateTimeOffset</text>
<text text-anchor="start" x="169" y="-719.5" font-family="Helvetica,sans-Serif" font-size="10.00"> CreationTimeCore</text>
<text text-anchor="start" x="156" y="-704.5" font-family="Helvetica,sans-Serif" font-size="10.00">+</text>
<text text-anchor="start" x="169" y="-704.5" font-family="Helvetica,sans-Serif" font-size="10.00">global::System.DateTimeOffset</text>
<text text-anchor="start" x="169" y="-693.5" font-family="Helvetica,sans-Serif" font-size="10.00"> LastAccessTimeCore</text>
<text text-anchor="start" x="156" y="-678.5" font-family="Helvetica,sans-Serif" font-size="10.00">+</text>
<text text-anchor="start" x="169" y="-678.5" font-family="Helvetica,sans-Serif" font-size="10.00">global::System.DateTimeOffset</text>
<text text-anchor="start" x="169" y="-667.5" font-family="Helvetica,sans-Serif" font-size="10.00"> LastWriteTimeCore</text>
<text text-anchor="start" x="156" y="-652.5" font-family="Helvetica,sans-Serif" font-size="10.00">+</text>
<text text-anchor="start" x="169" y="-652.5" font-family="Helvetica,sans-Serif" font-size="10.00">string NormalizedPath</text>
<text text-anchor="start" x="156" y="-637.5" font-family="Helvetica,sans-Serif" font-size="10.00">+</text>
<text text-anchor="start" x="169" y="-637.5" font-family="Helvetica,sans-Serif" font-size="10.00">virtual string FullName</text>
<text text-anchor="start" x="156" y="-622.5" font-family="Helvetica,sans-Serif" font-size="10.00">+</text>
<text text-anchor="start" x="169" y="-622.5" font-family="Helvetica,sans-Serif" font-size="10.00">virtual string Name</text>
<text text-anchor="start" x="156" y="-607.5" font-family="Helvetica,sans-Serif" font-size="10.00">+</text>
<text text-anchor="start" x="169" y="-607.5" font-family="Helvetica,sans-Serif" font-size="10.00">virtual bool Exists</text>
<text text-anchor="start" x="156" y="-592.5" font-family="Helvetica,sans-Serif" font-size="10.00">+</text>
<text text-anchor="start" x="169" y="-592.5" font-family="Helvetica,sans-Serif" font-size="10.00">global::System.DateTime</text>
<text text-anchor="start" x="169" y="-581.5" font-family="Helvetica,sans-Serif" font-size="10.00"> CreationTime</text>
<text text-anchor="start" x="156" y="-566.5" font-family="Helvetica,sans-Serif" font-size="10.00">+</text>
<text text-anchor="start" x="169" y="-566.5" font-family="Helvetica,sans-Serif" font-size="10.00">global::System.DateTime</text>
<text text-anchor="start" x="169" y="-555.5" font-family="Helvetica,sans-Serif" font-size="10.00"> CreationTimeUtc</text>
<text text-anchor="start" x="156" y="-540.5" font-family="Helvetica,sans-Serif" font-size="10.00">+</text>
<text text-anchor="start" x="169" y="-540.5" font-family="Helvetica,sans-Serif" font-size="10.00">global::System.DateTime</text>
<text text-anchor="start" x="169" y="-529.5" font-family="Helvetica,sans-Serif" font-size="10.00"> LastAccessTime</text>
<text text-anchor="start" x="156" y="-514.5" font-family="Helvetica,sans-Serif" font-size="10.00">+</text>
<text text-anchor="start" x="169" y="-514.5" font-family="Helvetica,sans-Serif" font-size="10.00">global::System.DateTime</text>
<text text-anchor="start" x="169" y="-503.5" font-family="Helvetica,sans-Serif" font-size="10.00"> LastAccessTimeUtc</text>
<text text-anchor="start" x="156" y="-488.5" font-family="Helvetica,sans-Serif" font-size="10.00">+</text>
<text text-anchor="start" x="169" y="-488.5" font-family="Helvetica,sans-Serif" font-size="10.00">global::System.DateTime</text>
<text text-anchor="start" x="169" y="-477.5" font-family="Helvetica,sans-Serif" font-size="10.00"> LastWriteTime</text>
<text text-anchor="start" x="156" y="-462.5" font-family="Helvetica,sans-Serif" font-size="10.00">+</text>
<text text-anchor="start" x="169" y="-462.5" font-family="Helvetica,sans-Serif" font-size="10.00">global::System.DateTime</text>
<text text-anchor="start" x="169" y="-451.5" font-family="Helvetica,sans-Serif" font-size="10.00"> LastWriteTimeUtc</text>
<text text-anchor="start" x="156" y="-436.5" font-family="Helvetica,sans-Serif" font-size="10.00">+</text>
<text text-anchor="start" x="169" y="-436.5" font-family="Helvetica,sans-Serif" font-size="10.00">virtual void GetObjectData</text>
<text text-anchor="start" x="169" y="-425.5" font-family="Helvetica,sans-Serif" font-size="10.00">(global::System.Runtime.Serialization.</text>
<text text-anchor="start" x="169" y="-414.5" font-family="Helvetica,sans-Serif" font-size="10.00">SerializationInfo info, global::</text>
<text text-anchor="start" x="169" y="-403.5" font-family="Helvetica,sans-Serif" font-size="10.00">System.Runtime.Serialization.StreamingContext context)</text>
<text text-anchor="start" x="156" y="-388.5" font-family="Helvetica,sans-Serif" font-size="10.00">+</text>
<text text-anchor="start" x="169" y="-388.5" font-family="Helvetica,sans-Serif" font-size="10.00">override string ToString()</text>
<text text-anchor="start" x="156" y="-373.5" font-family="Helvetica,sans-Serif" font-size="10.00">~</text>
<text text-anchor="start" x="169" y="-373.5" font-family="Helvetica,sans-Serif" font-size="10.00">void Invalidate()</text>
<text text-anchor="start" x="156" y="-358.5" font-family="Helvetica,sans-Serif" font-size="10.00">~</text>
<text text-anchor="start" x="169" y="-358.5" font-family="Helvetica,sans-Serif" font-size="10.00">static void ThrowNotFound</text>
<text text-anchor="start" x="169" y="-347.5" font-family="Helvetica,sans-Serif" font-size="10.00">(string path)</text>
<text text-anchor="start" x="156" y="-332.5" font-family="Helvetica,sans-Serif" font-size="10.00">#</text>
<text text-anchor="start" x="169" y="-332.5" font-family="Helvetica,sans-Serif" font-size="10.00">FileSystemInfo()</text>
<text text-anchor="start" x="156" y="-317.5" font-family="Helvetica,sans-Serif" font-size="10.00">#</text>
<text text-anchor="start" x="169" y="-317.5" font-family="Helvetica,sans-Serif" font-size="10.00">FileSystemInfo(global</text>
<text text-anchor="start" x="169" y="-306.5" font-family="Helvetica,sans-Serif" font-size="10.00">::System.Runtime.Serialization.</text>
<text text-anchor="start" x="169" y="-295.5" font-family="Helvetica,sans-Serif" font-size="10.00">SerializationInfo info, global</text>
<text text-anchor="start" x="169" y="-284.5" font-family="Helvetica,sans-Serif" font-size="10.00">::System.Runtime.Serialization.Streaming</text>
<text text-anchor="start" x="169" y="-273.5" font-family="Helvetica,sans-Serif" font-size="10.00">Context context)</text>
<polygon fill="#666666" stroke="#666666" points="152,-770.5 152,-770.5 453,-770.5 453,-770.5 152,-770.5"/>
<polygon fill="#666666" stroke="#666666" points="152,-446.5 152,-446.5 167,-446.5 167,-446.5 152,-446.5"/>
<polygon fill="#666666" stroke="#666666" points="167,-446.5 167,-446.5 453,-446.5 453,-446.5 167,-446.5"/>
<polygon fill="none" stroke="#666666" points="151.5,-267 151.5,-788 452.5,-788 452.5,-267 151.5,-267"/>
</a>
</g>
</g>
<!-- Node2&#45;&gt;Node1 -->
<g id="edge1_Node000001_Node000002" class="edge">
<title>Node2&#45;&gt;Node1</title>
<g id="a_edge1_Node000001_Node000002"><a xlink:title=" ">
<path fill="none" stroke="#63b8ff" d="M302,-256.56C302,-247.54 302,-238.71 302,-230.14"/>
<polygon fill="none" stroke="#63b8ff" points="298.5,-256.82 302,-266.82 305.5,-256.82 298.5,-256.82"/>
</a>
</g>
</g>
<!-- Node3 -->
<g id="Node000003" class="node">
<title>Node3</title>
<g id="a_Node000003"><a xlink:title=" ">
<polygon fill="white" stroke="transparent" points="152,-1118.5 0,-1118.5 0,-1058.5 152,-1058.5 152,-1118.5"/>
<text text-anchor="start" x="5" y="-1106.5" font-family="Helvetica,sans-Serif" font-size="10.00">global::SystemMarshalByRef</text>
<text text-anchor="start" x="60" y="-1095.5" font-family="Helvetica,sans-Serif" font-size="10.00">Object</text>
<text text-anchor="start" x="74" y="-1080.5" font-family="Helvetica,sans-Serif" font-size="10.00"> </text>
<text text-anchor="start" x="74" y="-1065.5" font-family="Helvetica,sans-Serif" font-size="10.00"> </text>
<polygon fill="#666666" stroke="#666666" points="0,-1090.5 0,-1090.5 152,-1090.5 152,-1090.5 0,-1090.5"/>
<polygon fill="#666666" stroke="#666666" points="0,-1075.5 0,-1075.5 152,-1075.5 152,-1075.5 0,-1075.5"/>
<polygon fill="none" stroke="#666666" points="0,-1058.5 0,-1118.5 152,-1118.5 152,-1058.5 0,-1058.5"/>
</a>
</g>
</g>
<!-- Node3&#45;&gt;Node2 -->
<g id="edge2_Node000002_Node000003" class="edge">
<title>Node3&#45;&gt;Node2</title>
<g id="a_edge2_Node000002_Node000003"><a xlink:title=" ">
<path fill="none" stroke="#63b8ff" d="M89.64,-1048.62C105.94,-1002.61 134.36,-923.81 161,-857 169.91,-834.66 179.35,-811.56 188.96,-788.43"/>
<polygon fill="none" stroke="#63b8ff" points="86.28,-1047.61 86.25,-1058.21 92.88,-1049.94 86.28,-1047.61"/>
</a>
</g>
</g>
<!-- Node4 -->
<g id="Node000004" class="node">
<title>Node4</title>
<g id="a_Node000004"><a xlink:title=" ">
<polygon fill="white" stroke="transparent" points="313.5,-1118.5 170.5,-1118.5 170.5,-1058.5 313.5,-1058.5 313.5,-1118.5"/>
<text text-anchor="start" x="176" y="-1106.5" font-family="Helvetica,sans-Serif" font-size="10.00">global::SystemRuntime</text>
<text text-anchor="start" x="176" y="-1095.5" font-family="Helvetica,sans-Serif" font-size="10.00">::Serialization::ISerializable</text>
<text text-anchor="start" x="240.5" y="-1080.5" font-family="Helvetica,sans-Serif" font-size="10.00"> </text>
<text text-anchor="start" x="240.5" y="-1065.5" font-family="Helvetica,sans-Serif" font-size="10.00"> </text>
<polygon fill="#666666" stroke="#666666" points="171,-1090.5 171,-1090.5 314,-1090.5 314,-1090.5 171,-1090.5"/>
<polygon fill="#666666" stroke="#666666" points="171,-1075.5 171,-1075.5 314,-1075.5 314,-1075.5 171,-1075.5"/>
<polygon fill="none" stroke="#666666" points="170.5,-1058.5 170.5,-1118.5 313.5,-1118.5 313.5,-1058.5 170.5,-1058.5"/>
</a>
</g>
</g>
<!-- Node4&#45;&gt;Node2 -->
<g id="edge3_Node000002_Node000004" class="edge">
<title>Node4&#45;&gt;Node2</title>
<g id="a_edge3_Node000002_Node000004"><a xlink:title=" ">
<path fill="none" stroke="#63b8ff" d="M246.21,-1048.25C252.1,-993.39 263.29,-889.14 274.11,-788.31"/>
<polygon fill="none" stroke="#63b8ff" points="242.73,-1047.92 245.14,-1058.23 249.69,-1048.66 242.73,-1047.92"/>
</a>
</g>
</g>
<!-- Node5 -->
<g id="Node000005" class="node">
<title>Node5</title>
<g id="a_Node000005"><a xlink:href="../../d0/d86/structSystem_1_1IO_1_1FileStatus.html" target="_top" xlink:title=" ">
<polygon fill="white" stroke="transparent" points="566.5,-1320 331.5,-1320 331.5,-857 566.5,-857 566.5,-1320"/>
<text text-anchor="start" x="398.5" y="-1307.5" font-family="Helvetica,sans-Serif" font-size="10.00">System.IO.FileStatus</text>
<text text-anchor="start" x="336" y="-1292.5" font-family="Helvetica,sans-Serif" font-size="10.00">+</text>
<text text-anchor="start" x="349" y="-1292.5" font-family="Helvetica,sans-Serif" font-size="10.00">bool InitiallyDirectory</text>
<text text-anchor="start" x="336" y="-1277.5" font-family="Helvetica,sans-Serif" font-size="10.00">+</text>
<text text-anchor="start" x="349" y="-1277.5" font-family="Helvetica,sans-Serif" font-size="10.00">void SetAttributes</text>
<text text-anchor="start" x="349" y="-1266.5" font-family="Helvetica,sans-Serif" font-size="10.00">(string path, FileAttributes</text>
<text text-anchor="start" x="349" y="-1255.5" font-family="Helvetica,sans-Serif" font-size="10.00"> attributes)</text>
<text text-anchor="start" x="336" y="-1240.5" font-family="Helvetica,sans-Serif" font-size="10.00">+</text>
<text text-anchor="start" x="349" y="-1240.5" font-family="Helvetica,sans-Serif" font-size="10.00">void Refresh(global</text>
<text text-anchor="start" x="349" y="-1229.5" font-family="Helvetica,sans-Serif" font-size="10.00">::System.ReadOnlySpan</text>
<text text-anchor="start" x="349" y="-1218.5" font-family="Helvetica,sans-Serif" font-size="10.00">&lt; char &gt; path)</text>
<text text-anchor="start" x="336" y="-1203.5" font-family="Helvetica,sans-Serif" font-size="10.00">~</text>
<text text-anchor="start" x="349" y="-1203.5" font-family="Helvetica,sans-Serif" font-size="10.00">void Invalidate()</text>
<text text-anchor="start" x="336" y="-1188.5" font-family="Helvetica,sans-Serif" font-size="10.00">~</text>
<text text-anchor="start" x="349" y="-1188.5" font-family="Helvetica,sans-Serif" font-size="10.00">bool IsReadOnly(global</text>
<text text-anchor="start" x="349" y="-1177.5" font-family="Helvetica,sans-Serif" font-size="10.00">::System.ReadOnlySpan</text>
<text text-anchor="start" x="349" y="-1166.5" font-family="Helvetica,sans-Serif" font-size="10.00">&lt; char &gt; path, bool continueOn</text>
<text text-anchor="start" x="349" y="-1155.5" font-family="Helvetica,sans-Serif" font-size="10.00">Error=false)</text>
<text text-anchor="start" x="336" y="-1140.5" font-family="Helvetica,sans-Serif" font-size="10.00">~</text>
<text text-anchor="start" x="349" y="-1140.5" font-family="Helvetica,sans-Serif" font-size="10.00">bool GetExists(global</text>
<text text-anchor="start" x="349" y="-1129.5" font-family="Helvetica,sans-Serif" font-size="10.00">::System.ReadOnlySpan</text>
<text text-anchor="start" x="349" y="-1118.5" font-family="Helvetica,sans-Serif" font-size="10.00">&lt; char &gt; path)</text>
<text text-anchor="start" x="336" y="-1103.5" font-family="Helvetica,sans-Serif" font-size="10.00">~</text>
<text text-anchor="start" x="349" y="-1103.5" font-family="Helvetica,sans-Serif" font-size="10.00">global::System.DateTimeOffset</text>
<text text-anchor="start" x="349" y="-1092.5" font-family="Helvetica,sans-Serif" font-size="10.00"> GetCreationTime(global::</text>
<text text-anchor="start" x="349" y="-1081.5" font-family="Helvetica,sans-Serif" font-size="10.00">System.ReadOnlySpan&lt; char</text>
<text text-anchor="start" x="349" y="-1070.5" font-family="Helvetica,sans-Serif" font-size="10.00"> &gt; path, bool continueOnError=false)</text>
<text text-anchor="start" x="336" y="-1055.5" font-family="Helvetica,sans-Serif" font-size="10.00">~</text>
<text text-anchor="start" x="349" y="-1055.5" font-family="Helvetica,sans-Serif" font-size="10.00">global::System.DateTimeOffset</text>
<text text-anchor="start" x="349" y="-1044.5" font-family="Helvetica,sans-Serif" font-size="10.00"> GetLastAccessTime(global</text>
<text text-anchor="start" x="349" y="-1033.5" font-family="Helvetica,sans-Serif" font-size="10.00">::System.ReadOnlySpan&lt; char</text>
<text text-anchor="start" x="349" y="-1022.5" font-family="Helvetica,sans-Serif" font-size="10.00"> &gt; path, bool continueOnError=false)</text>
<text text-anchor="start" x="336" y="-1007.5" font-family="Helvetica,sans-Serif" font-size="10.00">~</text>
<text text-anchor="start" x="349" y="-1007.5" font-family="Helvetica,sans-Serif" font-size="10.00">global::System.DateTimeOffset</text>
<text text-anchor="start" x="349" y="-996.5" font-family="Helvetica,sans-Serif" font-size="10.00"> GetLastWriteTime(global</text>
<text text-anchor="start" x="349" y="-985.5" font-family="Helvetica,sans-Serif" font-size="10.00">::System.ReadOnlySpan&lt; char</text>
<text text-anchor="start" x="349" y="-974.5" font-family="Helvetica,sans-Serif" font-size="10.00"> &gt; path, bool continueOnError=false)</text>
<text text-anchor="start" x="336" y="-959.5" font-family="Helvetica,sans-Serif" font-size="10.00">~</text>
<text text-anchor="start" x="349" y="-959.5" font-family="Helvetica,sans-Serif" font-size="10.00">void EnsureStatInitialized</text>
<text text-anchor="start" x="349" y="-948.5" font-family="Helvetica,sans-Serif" font-size="10.00">(global::System.ReadOnlySpan</text>
<text text-anchor="start" x="349" y="-937.5" font-family="Helvetica,sans-Serif" font-size="10.00">&lt; char &gt; path, bool continueOnError=false)</text>
<text text-anchor="start" x="336" y="-922.5" font-family="Helvetica,sans-Serif" font-size="10.00">~</text>
<text text-anchor="start" x="349" y="-922.5" font-family="Helvetica,sans-Serif" font-size="10.00">static void Initialize</text>
<text text-anchor="start" x="349" y="-911.5" font-family="Helvetica,sans-Serif" font-size="10.00">(ref FileStatus status,</text>
<text text-anchor="start" x="349" y="-900.5" font-family="Helvetica,sans-Serif" font-size="10.00"> bool isDirectory)</text>
<text text-anchor="start" x="338.5" y="-885.5" font-family="Helvetica,sans-Serif" font-size="10.00">&#45;</text>
<text text-anchor="start" x="349" y="-885.5" font-family="Helvetica,sans-Serif" font-size="10.00">global::System.DateTimeOffset</text>
<text text-anchor="start" x="349" y="-874.5" font-family="Helvetica,sans-Serif" font-size="10.00"> UnixTimeToDateTimeOffset</text>
<text text-anchor="start" x="349" y="-863.5" font-family="Helvetica,sans-Serif" font-size="10.00">(long seconds, long nanoseconds)</text>
<polygon fill="#666666" stroke="#666666" points="332,-1302.5 332,-1302.5 567,-1302.5 567,-1302.5 332,-1302.5"/>
<polygon fill="#666666" stroke="#666666" points="332,-1287.5 332,-1287.5 347,-1287.5 347,-1287.5 332,-1287.5"/>
<polygon fill="#666666" stroke="#666666" points="347,-1287.5 347,-1287.5 567,-1287.5 567,-1287.5 347,-1287.5"/>
<polygon fill="none" stroke="#666666" points="331.5,-857 331.5,-1320 566.5,-1320 566.5,-857 331.5,-857"/>
</a>
</g>
</g>
<!-- Node5&#45;&gt;Node2 -->
<g id="edge4_Node000002_Node000005" class="edge">
<title>Node5&#45;&gt;Node2</title>
<g id="a_edge4_Node000002_Node000005"><a xlink:title=" ">
<path fill="none" stroke="#63b8ff" d="M388.36,-856.91C383.42,-838.1 378.39,-818.99 373.38,-799.94"/>
<polygon fill="none" stroke="#63b8ff" points="373.31,-799.68 367.92,-794.9 370.26,-788.08 375.66,-792.86 373.31,-799.68"/>
</a>
</g>
<text text-anchor="middle" x="409" y="-820" font-family="Helvetica,sans-Serif" font-size="10.00" fill="grey"> &#45;_fileStatus</text>
</g>
<!-- Node5&#45;&gt;Node5 -->
<g id="edge5_Node000005_Node000005" class="edge">
<title>Node5&#45;&gt;Node5</title>
<g id="a_edge5_Node000005_Node000005"><a xlink:title=" ">
<path fill="none" stroke="#63b8ff" d="M566.55,-1126.68C577.55,-1118.84 584.5,-1106.11 584.5,-1088.5 584.5,-1076.39 581.22,-1066.59 575.59,-1059.1"/>
<polygon fill="none" stroke="#63b8ff" points="575.15,-1058.68 568.06,-1057.37 566.55,-1050.32 573.64,-1051.63 575.15,-1058.68"/>
</a>
</g>
<text text-anchor="middle" x="613.5" y="-1086" font-family="Helvetica,sans-Serif" font-size="10.00" fill="grey"> &#45;_fileStatus</text>
</g>
<!-- Node6 -->
<g id="Node000006" class="node">
<title>Node6</title>
<g id="a_Node000006"><a xlink:title=" ">
<polygon fill="white" stroke="transparent" points="339.5,-1416 316.5,-1416 316.5,-1367 339.5,-1367 339.5,-1416"/>
<text text-anchor="start" x="322" y="-1403.5" font-family="Helvetica,sans-Serif" font-size="10.00">int</text>
<text text-anchor="start" x="326.5" y="-1388.5" font-family="Helvetica,sans-Serif" font-size="10.00"> </text>
<text text-anchor="start" x="326.5" y="-1373.5" font-family="Helvetica,sans-Serif" font-size="10.00"> </text>
<polygon fill="#666666" stroke="#666666" points="317,-1398.5 317,-1398.5 340,-1398.5 340,-1398.5 317,-1398.5"/>
<polygon fill="#666666" stroke="#666666" points="317,-1383.5 317,-1383.5 340,-1383.5 340,-1383.5 317,-1383.5"/>
<polygon fill="none" stroke="#666666" points="316.5,-1367 316.5,-1416 339.5,-1416 339.5,-1367 316.5,-1367"/>
</a>
</g>
</g>
<!-- Node6&#45;&gt;Node5 -->
<g id="edge6_Node000005_Node000006" class="edge">
<title>Node6&#45;&gt;Node5</title>
<g id="a_edge6_Node000005_Node000006"><a xlink:title=" ">
<path fill="none" stroke="#63b8ff" d="M326.31,-1366.97C326.21,-1357.82 326.78,-1347.31 329,-1338 329.49,-1335.96 329.99,-1333.91 330.52,-1331.87"/>
<polygon fill="none" stroke="#63b8ff" points="330.56,-1331.7 328.27,-1324.86 333.71,-1320.12 336,-1326.96 330.56,-1331.7"/>
</a>
</g>
<text text-anchor="middle" x="382" y="-1341" font-family="Helvetica,sans-Serif" font-size="10.00" fill="grey"> &#45;_fileStatusInitialized</text>
</g>
<!-- Node7 -->
<g id="Node000007" class="node">
<title>Node7</title>
<g id="a_Node000007"><a xlink:title=" ">
<polygon fill="white" stroke="transparent" points="670,-1416 534,-1416 534,-1367 670,-1367 670,-1416"/>
<text text-anchor="start" x="539" y="-1403.5" font-family="Helvetica,sans-Serif" font-size="10.00">bool&lt; InitiallyDirectory &gt;</text>
<text text-anchor="start" x="600" y="-1388.5" font-family="Helvetica,sans-Serif" font-size="10.00"> </text>
<text text-anchor="start" x="600" y="-1373.5" font-family="Helvetica,sans-Serif" font-size="10.00"> </text>
<polygon fill="#666666" stroke="#666666" points="534,-1398.5 534,-1398.5 670,-1398.5 670,-1398.5 534,-1398.5"/>
<polygon fill="#666666" stroke="#666666" points="534,-1383.5 534,-1383.5 670,-1383.5 670,-1383.5 534,-1383.5"/>
<polygon fill="none" stroke="#666666" points="534,-1367 534,-1416 670,-1416 670,-1367 534,-1367"/>
</a>
</g>
</g>
<!-- Node7&#45;&gt;Node5 -->
<g id="edge7_Node000005_Node000007" class="edge">
<title>Node7&#45;&gt;Node5</title>
<g id="a_edge7_Node000005_Node000007"><a xlink:title=" ">
<path fill="none" stroke="#63b8ff" d="M589.99,-1366.88C585.05,-1357.16 578.82,-1344.9 571.75,-1330.98"/>
<polygon fill="none" stroke="#63b8ff" points="571.61,-1330.72 565.33,-1327.19 566.18,-1320.02 572.46,-1323.56 571.61,-1330.72"/>
</a>
</g>
<text text-anchor="middle" x="622" y="-1341" font-family="Helvetica,sans-Serif" font-size="10.00" fill="grey"> &#45;k__BackingField</text>
</g>
<!-- Node8 -->
<g id="Node000008" class="node">
<title>Node8</title>
<g id="a_Node000008"><a xlink:title=" ">
<polygon fill="white" stroke="transparent" points="481,-1512 449,-1512 449,-1463 481,-1463 481,-1512"/>
<text text-anchor="start" x="454" y="-1499.5" font-family="Helvetica,sans-Serif" font-size="10.00">bool</text>
<text text-anchor="start" x="463" y="-1484.5" font-family="Helvetica,sans-Serif" font-size="10.00"> </text>
<text text-anchor="start" x="463" y="-1469.5" font-family="Helvetica,sans-Serif" font-size="10.00"> </text>
<polygon fill="#666666" stroke="#666666" points="449,-1494.5 449,-1494.5 481,-1494.5 481,-1494.5 449,-1494.5"/>
<polygon fill="#666666" stroke="#666666" points="449,-1479.5 449,-1479.5 481,-1479.5 481,-1479.5 449,-1479.5"/>
<polygon fill="none" stroke="#666666" points="449,-1463 449,-1512 481,-1512 481,-1463 449,-1463"/>
</a>
</g>
</g>
<!-- Node8&#45;&gt;Node5 -->
<g id="edge9_Node000005_Node000008" class="edge">
<title>Node8&#45;&gt;Node5</title>
<g id="a_edge9_Node000005_Node000008"><a xlink:title=" ">
<path fill="none" stroke="#63b8ff" d="M462.21,-1462.71C460.72,-1449.06 458.99,-1431.59 458,-1416 456.28,-1388.89 454.89,-1360.49 453.77,-1332.24"/>
<polygon fill="none" stroke="#63b8ff" points="453.76,-1332.13 449.54,-1326.29 453.3,-1320.14 457.53,-1325.98 453.76,-1332.13"/>
</a>
</g>
<text text-anchor="middle" x="491.5" y="-1394.5" font-family="Helvetica,sans-Serif" font-size="10.00" fill="grey"> &#45;_exists</text>
<text text-anchor="middle" x="491.5" y="-1383.5" font-family="Helvetica,sans-Serif" font-size="10.00" fill="grey">~_isDirectory</text>
</g>
<!-- Node8&#45;&gt;Node7 -->
<g id="edge8_Node000007_Node000008" class="edge">
<title>Node8&#45;&gt;Node7</title>
<g id="a_edge8_Node000007_Node000008"><a xlink:title=" ">
<path fill="none" stroke="orange" d="M489.63,-1469.6C511.41,-1454.66 543.41,-1432.7 567.7,-1416.04"/>
<polygon fill="orange" stroke="orange" points="487.52,-1466.8 481.25,-1475.35 491.48,-1472.58 487.52,-1466.8"/>
</a>
</g>
<text text-anchor="middle" x="592" y="-1437" font-family="Helvetica,sans-Serif" font-size="10.00" fill="grey"> &lt; InitiallyDirectory &gt;</text>
</g>
<!-- Node9 -->
<g id="Node000009" class="node">
<title>Node9</title>
<g id="a_Node000009"><a xlink:title=" ">
<polygon fill="white" stroke="transparent" points="699,-1113 661,-1113 661,-1064 699,-1064 699,-1113"/>
<text text-anchor="start" x="666" y="-1100.5" font-family="Helvetica,sans-Serif" font-size="10.00">string</text>
<text text-anchor="start" x="678" y="-1085.5" font-family="Helvetica,sans-Serif" font-size="10.00"> </text>
<text text-anchor="start" x="678" y="-1070.5" font-family="Helvetica,sans-Serif" font-size="10.00"> </text>
<polygon fill="#666666" stroke="#666666" points="661,-1095.5 661,-1095.5 699,-1095.5 699,-1095.5 661,-1095.5"/>
<polygon fill="#666666" stroke="#666666" points="661,-1080.5 661,-1080.5 699,-1080.5 699,-1080.5 661,-1080.5"/>
<polygon fill="none" stroke="#666666" points="661,-1064 661,-1113 699,-1113 699,-1064 661,-1064"/>
</a>
</g>
</g>
<!-- Node9&#45;&gt;Node2 -->
<g id="edge10_Node000002_Node000009" class="edge">
<title>Node9&#45;&gt;Node2</title>
<g id="a_edge10_Node000002_Node000009"><a xlink:title=" ">
<path fill="none" stroke="#63b8ff" d="M682.23,-1063.75C685.26,-1020.19 686.8,-925.68 652,-857 608.29,-770.74 532.3,-695.18 462.26,-638.35"/>
<polygon fill="none" stroke="#63b8ff" points="462.23,-638.32 455.04,-637.69 452.87,-630.81 460.05,-631.45 462.23,-638.32"/>
</a>
</g>
<text text-anchor="middle" x="673" y="-831" font-family="Helvetica,sans-Serif" font-size="10.00" fill="grey"> #FullPath</text>
<text text-anchor="middle" x="673" y="-820" font-family="Helvetica,sans-Serif" font-size="10.00" fill="grey">#OriginalPath</text>
<text text-anchor="middle" x="673" y="-809" font-family="Helvetica,sans-Serif" font-size="10.00" fill="grey">~_name</text>
</g>
</g>
</svg>
