<?xml version="1.0" encoding="UTF-8" standalone="no"?>
<!DOCTYPE svg PUBLIC "-//W3C//DTD SVG 1.1//EN"
 "http://www.w3.org/Graphics/SVG/1.1/DTD/svg11.dtd">
<!-- Generated by graphviz version 2.43.0 (0)
 -->
<!-- Title: System.Xml.BinHexDecoder Pages: 1 -->
<svg width="452pt" height="330pt"
 viewBox="0.00 0.00 451.50 330.00" xmlns="http://www.w3.org/2000/svg" xmlns:xlink="http://www.w3.org/1999/xlink">

<svg id="main" version="1.1" xmlns="http://www.w3.org/2000/svg" xmlns:xlink="http://www.w3.org/1999/xlink" xml:space="preserve" onload="init(evt)">
<style type="text/css"><![CDATA[
.node, .edge {opacity: 0.7;}
.node.selected, .edge.selected {opacity: 1;}
.edge:hover path { stroke: red; }
.edge:hover polygon { stroke: red; fill: red; }
]]></style>
<script type="application/ecmascript" xlink:href="../../svg.min.js"/>
<svg id="graph" class="graph">
<g id="graph0" class="graph" transform="scale(1 1) rotate(0) translate(4 326)">
<title>System.Xml.BinHexDecoder</title>
<!-- Node1 -->
<g id="Node000001" class="node">
<title>Node1</title>
<g id="a_Node000001"><a xlink:title=" ">
<polygon fill="#999999" stroke="transparent" points="351,-189 128,-189 128,0 351,0 351,-189"/>
<text text-anchor="start" x="170.5" y="-176.5" font-family="Helvetica,sans-Serif" font-size="10.00">System.Xml.BinHexDecoder</text>
<text text-anchor="start" x="132.5" y="-161.5" font-family="Helvetica,sans-Serif" font-size="10.00">+</text>
<text text-anchor="start" x="145.5" y="-161.5" font-family="Helvetica,sans-Serif" font-size="10.00">override bool IsFull</text>
<text text-anchor="start" x="132.5" y="-146.5" font-family="Helvetica,sans-Serif" font-size="10.00">+</text>
<text text-anchor="start" x="145.5" y="-146.5" font-family="Helvetica,sans-Serif" font-size="10.00">static unsafe byte</text>
<text text-anchor="start" x="145.5" y="-135.5" font-family="Helvetica,sans-Serif" font-size="10.00">[] Decode(char[] chars,</text>
<text text-anchor="start" x="145.5" y="-124.5" font-family="Helvetica,sans-Serif" font-size="10.00"> bool allowOddChars)</text>
<text text-anchor="start" x="132.5" y="-109.5" font-family="Helvetica,sans-Serif" font-size="10.00">~</text>
<text text-anchor="start" x="145.5" y="-109.5" font-family="Helvetica,sans-Serif" font-size="10.00">unsafe override int</text>
<text text-anchor="start" x="145.5" y="-98.5" font-family="Helvetica,sans-Serif" font-size="10.00"> Decode(char[] chars,</text>
<text text-anchor="start" x="145.5" y="-87.5" font-family="Helvetica,sans-Serif" font-size="10.00"> int startPos, int len)</text>
<text text-anchor="start" x="135" y="-72.5" font-family="Helvetica,sans-Serif" font-size="10.00">&#45;</text>
<text text-anchor="start" x="145.5" y="-72.5" font-family="Helvetica,sans-Serif" font-size="10.00">static unsafe void</text>
<text text-anchor="start" x="145.5" y="-61.5" font-family="Helvetica,sans-Serif" font-size="10.00"> Decode(char *pChars,</text>
<text text-anchor="start" x="145.5" y="-50.5" font-family="Helvetica,sans-Serif" font-size="10.00"> char *pCharsEndPos,</text>
<text text-anchor="start" x="145.5" y="-39.5" font-family="Helvetica,sans-Serif" font-size="10.00"> byte *pBytes, byte *pBytesEnd</text>
<text text-anchor="start" x="145.5" y="-28.5" font-family="Helvetica,sans-Serif" font-size="10.00">Pos, ref bool hasHalfByteCached,</text>
<text text-anchor="start" x="145.5" y="-17.5" font-family="Helvetica,sans-Serif" font-size="10.00"> ref byte cachedHalfByte, out</text>
<text text-anchor="start" x="145.5" y="-6.5" font-family="Helvetica,sans-Serif" font-size="10.00"> int charsDecoded, out int bytesDecoded)</text>
<polygon fill="#666666" stroke="#666666" points="128.5,-171.5 128.5,-171.5 351.5,-171.5 351.5,-171.5 128.5,-171.5"/>
<polygon fill="#666666" stroke="#666666" points="128.5,-156.5 128.5,-156.5 143.5,-156.5 143.5,-156.5 128.5,-156.5"/>
<polygon fill="#666666" stroke="#666666" points="143.5,-156.5 143.5,-156.5 351.5,-156.5 351.5,-156.5 143.5,-156.5"/>
<polygon fill="none" stroke="#666666" points="128,0 128,-189 351,-189 351,0 128,0"/>
</a>
</g>
</g>
<!-- Node2 -->
<g id="Node000002" class="node">
<title>Node2</title>
<g id="a_Node000002"><a xlink:href="../../db/dd2/classSystem_1_1Xml_1_1IncrementalReadDecoder.html" target="_top" xlink:title=" ">
<polygon fill="white" stroke="transparent" points="153,-322 0,-322 0,-247 153,-247 153,-322"/>
<text text-anchor="start" x="15" y="-309.5" font-family="Helvetica,sans-Serif" font-size="10.00">IncrementalReadDecoder</text>
<text text-anchor="start" x="4.5" y="-294.5" font-family="Helvetica,sans-Serif" font-size="10.00">+</text>
<text text-anchor="start" x="17.5" y="-294.5" font-family="Helvetica,sans-Serif" font-size="10.00">bool IsFull</text>
<text text-anchor="start" x="4.5" y="-279.5" font-family="Helvetica,sans-Serif" font-size="10.00">~</text>
<text text-anchor="start" x="17.5" y="-279.5" font-family="Helvetica,sans-Serif" font-size="10.00">int Decode(char[] chars,</text>
<text text-anchor="start" x="17.5" y="-268.5" font-family="Helvetica,sans-Serif" font-size="10.00"> int startPos, int len)</text>
<text text-anchor="start" x="4.5" y="-253.5" font-family="Helvetica,sans-Serif" font-size="10.00">#</text>
<text text-anchor="start" x="17.5" y="-253.5" font-family="Helvetica,sans-Serif" font-size="10.00">IncrementalReadDecoder()</text>
<polygon fill="#666666" stroke="#666666" points="0.5,-304.5 0.5,-304.5 153.5,-304.5 153.5,-304.5 0.5,-304.5"/>
<polygon fill="#666666" stroke="#666666" points="0.5,-289.5 0.5,-289.5 15.5,-289.5 15.5,-289.5 0.5,-289.5"/>
<polygon fill="#666666" stroke="#666666" points="15.5,-289.5 15.5,-289.5 153.5,-289.5 153.5,-289.5 15.5,-289.5"/>
<polygon fill="none" stroke="#666666" points="0,-247 0,-322 153,-322 153,-247 0,-247"/>
</a>
</g>
</g>
<!-- Node2&#45;&gt;Node1 -->
<g id="edge1_Node000001_Node000002" class="edge">
<title>Node2&#45;&gt;Node1</title>
<g id="a_edge1_Node000001_Node000002"><a xlink:title=" ">
<path fill="none" stroke="#63b8ff" d="M114.96,-239.14C128.06,-224.03 143.23,-206.53 158.39,-189.05"/>
<polygon fill="none" stroke="#63b8ff" points="112.22,-236.96 108.31,-246.81 117.51,-241.54 112.22,-236.96"/>
</a>
</g>
</g>
<!-- Node3 -->
<g id="Node000003" class="node">
<title>Node3</title>
<g id="a_Node000003"><a xlink:title=" ">
<polygon fill="white" stroke="transparent" points="203.5,-309 171.5,-309 171.5,-260 203.5,-260 203.5,-309"/>
<text text-anchor="start" x="176.5" y="-296.5" font-family="Helvetica,sans-Serif" font-size="10.00">byte</text>
<text text-anchor="start" x="185.5" y="-281.5" font-family="Helvetica,sans-Serif" font-size="10.00"> </text>
<text text-anchor="start" x="185.5" y="-266.5" font-family="Helvetica,sans-Serif" font-size="10.00"> </text>
<polygon fill="#666666" stroke="#666666" points="171.5,-291.5 171.5,-291.5 203.5,-291.5 203.5,-291.5 171.5,-291.5"/>
<polygon fill="#666666" stroke="#666666" points="171.5,-276.5 171.5,-276.5 203.5,-276.5 203.5,-276.5 171.5,-276.5"/>
<polygon fill="none" stroke="#666666" points="171.5,-260 171.5,-309 203.5,-309 203.5,-260 171.5,-260"/>
</a>
</g>
</g>
<!-- Node3&#45;&gt;Node1 -->
<g id="edge2_Node000001_Node000003" class="edge">
<title>Node3&#45;&gt;Node1</title>
<g id="a_edge2_Node000001_Node000003"><a xlink:title=" ">
<path fill="none" stroke="#63b8ff" d="M185.31,-259.77C184.51,-244.51 184.6,-224.37 188.5,-207 188.96,-204.97 189.45,-202.92 189.99,-200.88"/>
<polygon fill="none" stroke="#63b8ff" points="190.05,-200.66 187.89,-193.78 193.41,-189.14 195.57,-196.02 190.05,-200.66"/>
</a>
</g>
<text text-anchor="middle" x="229.5" y="-221" font-family="Helvetica,sans-Serif" font-size="10.00" fill="grey"> &#45;buffer</text>
<text text-anchor="middle" x="229.5" y="-210" font-family="Helvetica,sans-Serif" font-size="10.00" fill="grey">&#45;cachedHalfByte</text>
</g>
<!-- Node4 -->
<g id="Node000004" class="node">
<title>Node4</title>
<g id="a_Node000004"><a xlink:title=" ">
<polygon fill="white" stroke="transparent" points="304,-309 281,-309 281,-260 304,-260 304,-309"/>
<text text-anchor="start" x="286.5" y="-296.5" font-family="Helvetica,sans-Serif" font-size="10.00">int</text>
<text text-anchor="start" x="291" y="-281.5" font-family="Helvetica,sans-Serif" font-size="10.00"> </text>
<text text-anchor="start" x="291" y="-266.5" font-family="Helvetica,sans-Serif" font-size="10.00"> </text>
<polygon fill="#666666" stroke="#666666" points="281.5,-291.5 281.5,-291.5 304.5,-291.5 304.5,-291.5 281.5,-291.5"/>
<polygon fill="#666666" stroke="#666666" points="281.5,-276.5 281.5,-276.5 304.5,-276.5 304.5,-276.5 281.5,-276.5"/>
<polygon fill="none" stroke="#666666" points="281,-260 281,-309 304,-309 304,-260 281,-260"/>
</a>
</g>
</g>
<!-- Node4&#45;&gt;Node1 -->
<g id="edge3_Node000001_Node000004" class="edge">
<title>Node4&#45;&gt;Node1</title>
<g id="a_edge3_Node000001_Node000004"><a xlink:title=" ">
<path fill="none" stroke="#63b8ff" d="M285.79,-259.69C281.45,-244.29 275.46,-223.06 269.23,-200.96"/>
<polygon fill="none" stroke="#63b8ff" points="269.22,-200.91 263.74,-196.22 265.96,-189.36 271.44,-194.05 269.22,-200.91"/>
</a>
</g>
<text text-anchor="middle" x="301" y="-221" font-family="Helvetica,sans-Serif" font-size="10.00" fill="grey"> &#45;curIndex</text>
<text text-anchor="middle" x="301" y="-210" font-family="Helvetica,sans-Serif" font-size="10.00" fill="grey">&#45;endIndex</text>
</g>
<!-- Node5 -->
<g id="Node000005" class="node">
<title>Node5</title>
<g id="a_Node000005"><a xlink:title=" ">
<polygon fill="white" stroke="transparent" points="380.5,-309 348.5,-309 348.5,-260 380.5,-260 380.5,-309"/>
<text text-anchor="start" x="353.5" y="-296.5" font-family="Helvetica,sans-Serif" font-size="10.00">bool</text>
<text text-anchor="start" x="362.5" y="-281.5" font-family="Helvetica,sans-Serif" font-size="10.00"> </text>
<text text-anchor="start" x="362.5" y="-266.5" font-family="Helvetica,sans-Serif" font-size="10.00"> </text>
<polygon fill="#666666" stroke="#666666" points="348.5,-291.5 348.5,-291.5 380.5,-291.5 380.5,-291.5 348.5,-291.5"/>
<polygon fill="#666666" stroke="#666666" points="348.5,-276.5 348.5,-276.5 380.5,-276.5 380.5,-276.5 348.5,-276.5"/>
<polygon fill="none" stroke="#666666" points="348.5,-260 348.5,-309 380.5,-309 380.5,-260 348.5,-260"/>
</a>
</g>
</g>
<!-- Node5&#45;&gt;Node1 -->
<g id="edge4_Node000001_Node000005" class="edge">
<title>Node5&#45;&gt;Node1</title>
<g id="a_edge4_Node000001_Node000005"><a xlink:title=" ">
<path fill="none" stroke="#63b8ff" d="M355.53,-259.97C349.18,-244.43 339.95,-223.89 329.5,-207 327.9,-204.41 326.24,-201.81 324.54,-199.21"/>
<polygon fill="none" stroke="#63b8ff" points="324.49,-199.14 317.82,-196.41 317.78,-189.19 324.46,-191.93 324.49,-199.14"/>
</a>
</g>
<text text-anchor="middle" x="392" y="-215.5" font-family="Helvetica,sans-Serif" font-size="10.00" fill="grey"> &#45;hasHalfByteCached</text>
</g>
</g>
</svg>
</svg>

<style type='text/css'>
<![CDATA[
[data-mouse-over-selected='false'] { opacity: 0.7; }
[data-mouse-over-selected='true']  { opacity: 1.0; }
]]>
</style>
<script type="application/ecmascript"><![CDATA[
document.addEventListener('DOMContentLoaded', (event) => {
  highlightEdges();
  highlightAdjacentNodes();
});
]]></script>
</svg>
