<?xml version="1.0" encoding="UTF-8" standalone="no"?>
<!DOCTYPE svg PUBLIC "-//W3C//DTD SVG 1.1//EN"
 "http://www.w3.org/Graphics/SVG/1.1/DTD/svg11.dtd">
<!-- Generated by graphviz version 2.43.0 (0)
 -->
<!-- Title: Terraria.GameContent.NetModules.NetParticlesModule Pages: 1 -->
<svg width="181pt" height="290pt"
 viewBox="0.00 0.00 181.00 290.00" xmlns="http://www.w3.org/2000/svg" xmlns:xlink="http://www.w3.org/1999/xlink">

<svg id="main" version="1.1" xmlns="http://www.w3.org/2000/svg" xmlns:xlink="http://www.w3.org/1999/xlink" xml:space="preserve" onload="init(evt)">
<style type="text/css"><![CDATA[
.node, .edge {opacity: 0.7;}
.node.selected, .edge.selected {opacity: 1;}
.edge:hover path { stroke: red; }
.edge:hover polygon { stroke: red; fill: red; }
]]></style>
<script type="application/ecmascript" xlink:href="../../svg.min.js"/>
<svg id="graph" class="graph">
<g id="graph0" class="graph" transform="scale(1 1) rotate(0) translate(4 286)">
<title>Terraria.GameContent.NetModules.NetParticlesModule</title>
<!-- Node1 -->
<g id="Node000001" class="node">
<title>Node1</title>
<g id="a_Node000001"><a xlink:title=" ">
<polygon fill="#999999" stroke="transparent" points="173,-145 0,-145 0,0 173,0 173,-145"/>
<text text-anchor="start" x="17.5" y="-132.5" font-family="Helvetica,sans-Serif" font-size="10.00">Terraria.GameContent.Net</text>
<text text-anchor="start" x="17.5" y="-121.5" font-family="Helvetica,sans-Serif" font-size="10.00">Modules.NetParticlesModule</text>
<text text-anchor="start" x="85" y="-106.5" font-family="Helvetica,sans-Serif" font-size="10.00"> </text>
<text text-anchor="start" x="4.5" y="-91.5" font-family="Helvetica,sans-Serif" font-size="10.00">+</text>
<text text-anchor="start" x="17.5" y="-91.5" font-family="Helvetica,sans-Serif" font-size="10.00">override bool Deserialize</text>
<text text-anchor="start" x="17.5" y="-80.5" font-family="Helvetica,sans-Serif" font-size="10.00">(BinaryReader reader, int</text>
<text text-anchor="start" x="17.5" y="-69.5" font-family="Helvetica,sans-Serif" font-size="10.00"> userId)</text>
<text text-anchor="start" x="4.5" y="-54.5" font-family="Helvetica,sans-Serif" font-size="10.00">+</text>
<text text-anchor="start" x="17.5" y="-54.5" font-family="Helvetica,sans-Serif" font-size="10.00">NetParticlesModule()</text>
<text text-anchor="start" x="4.5" y="-39.5" font-family="Helvetica,sans-Serif" font-size="10.00">+</text>
<text text-anchor="start" x="17.5" y="-39.5" font-family="Helvetica,sans-Serif" font-size="10.00">static NetPacket Serialize</text>
<text text-anchor="start" x="17.5" y="-28.5" font-family="Helvetica,sans-Serif" font-size="10.00">(ParticleOrchestraType particle</text>
<text text-anchor="start" x="17.5" y="-17.5" font-family="Helvetica,sans-Serif" font-size="10.00">Type, ParticleOrchestraSettings</text>
<text text-anchor="start" x="17.5" y="-6.5" font-family="Helvetica,sans-Serif" font-size="10.00"> settings)</text>
<polygon fill="#666666" stroke="#666666" points="0.5,-116.5 0.5,-116.5 173.5,-116.5 173.5,-116.5 0.5,-116.5"/>
<polygon fill="#666666" stroke="#666666" points="0.5,-101.5 0.5,-101.5 173.5,-101.5 173.5,-101.5 0.5,-101.5"/>
<polygon fill="none" stroke="#666666" points="0,0 0,-145 173,-145 173,0 0,0"/>
</a>
</g>
</g>
<!-- Node2 -->
<g id="Node000002" class="node">
<title>Node2</title>
<g id="a_Node000002"><a xlink:href="../../d6/da4/classTerraria_1_1Net_1_1NetModule.html" target="_top" xlink:title=" ">
<polygon fill="white" stroke="transparent" points="171.5,-282 1.5,-282 1.5,-181 171.5,-181 171.5,-282"/>
<text text-anchor="start" x="59.5" y="-269.5" font-family="Helvetica,sans-Serif" font-size="10.00">NetModule</text>
<text text-anchor="start" x="84.5" y="-254.5" font-family="Helvetica,sans-Serif" font-size="10.00"> </text>
<text text-anchor="start" x="5.5" y="-239.5" font-family="Helvetica,sans-Serif" font-size="10.00">+</text>
<text text-anchor="start" x="18.5" y="-239.5" font-family="Helvetica,sans-Serif" font-size="10.00">bool Deserialize(BinaryReader</text>
<text text-anchor="start" x="18.5" y="-228.5" font-family="Helvetica,sans-Serif" font-size="10.00"> reader, int userId)</text>
<text text-anchor="start" x="5.5" y="-213.5" font-family="Helvetica,sans-Serif" font-size="10.00">#</text>
<text text-anchor="start" x="18.5" y="-213.5" font-family="Helvetica,sans-Serif" font-size="10.00">NetModule()</text>
<text text-anchor="start" x="5.5" y="-198.5" font-family="Helvetica,sans-Serif" font-size="10.00">#</text>
<text text-anchor="start" x="18.5" y="-198.5" font-family="Helvetica,sans-Serif" font-size="10.00">static NetPacket CreatePacket</text>
<text text-anchor="start" x="18.5" y="-187.5" font-family="Helvetica,sans-Serif" font-size="10.00">&lt; T &gt;(int maxSize)</text>
<polygon fill="#666666" stroke="#666666" points="1.5,-264.5 1.5,-264.5 171.5,-264.5 171.5,-264.5 1.5,-264.5"/>
<polygon fill="#666666" stroke="#666666" points="1.5,-249.5 1.5,-249.5 171.5,-249.5 171.5,-249.5 1.5,-249.5"/>
<polygon fill="none" stroke="#666666" points="1.5,-181 1.5,-282 171.5,-282 171.5,-181 1.5,-181"/>
</a>
</g>
</g>
<!-- Node2&#45;&gt;Node1 -->
<g id="edge1_Node000001_Node000002" class="edge">
<title>Node2&#45;&gt;Node1</title>
<g id="a_edge1_Node000001_Node000002"><a xlink:title=" ">
<path fill="none" stroke="#63b8ff" d="M86.5,-170.8C86.5,-162.44 86.5,-153.78 86.5,-145.22"/>
<polygon fill="none" stroke="#63b8ff" points="83,-170.82 86.5,-180.82 90,-170.82 83,-170.82"/>
</a>
</g>
</g>
</g>
</svg>
</svg>

<style type='text/css'>
<![CDATA[
[data-mouse-over-selected='false'] { opacity: 0.7; }
[data-mouse-over-selected='true']  { opacity: 1.0; }
]]>
</style>
<script type="application/ecmascript"><![CDATA[
document.addEventListener('DOMContentLoaded', (event) => {
  highlightEdges();
  highlightAdjacentNodes();
});
]]></script>
</svg>
