<?xml version="1.0" encoding="UTF-8" standalone="no"?>
<!DOCTYPE svg PUBLIC "-//W3C//DTD SVG 1.1//EN"
 "http://www.w3.org/Graphics/SVG/1.1/DTD/svg11.dtd">
<!-- Generated by graphviz version 2.43.0 (0)
 -->
<!-- Title: Terraria.DataStructures.EntitySource_OnHit_ByItemSourceID Pages: 1 -->
<!--zoomable 1592 -->

<svg id="main" version="1.1" xmlns="http://www.w3.org/2000/svg" xmlns:xlink="http://www.w3.org/1999/xlink" xml:space="preserve" onload="init(evt)">
<style type="text/css"><![CDATA[
.node, .edge {opacity: 0.7;}
.node.selected, .edge.selected {opacity: 1;}
.edge:hover path { stroke: red; }
.edge:hover polygon { stroke: red; fill: red; }
]]></style>

<defs>
  <circle id="rim" cx="0" cy="0" r="7"/>
  <circle id="rim2" cx="0" cy="0" r="3.5"/>
  <g id="zoomPlus">
    <use xlink:href="#rim" fill="#404040"><set attributeName="fill" to="#808080" begin="zoomplus.mouseover" end="zoomplus.mouseout"/></use>
    <path d="M-4,0h8M0,-4v8" fill="none" stroke="white" stroke-width="1.5" pointer-events="none"/>
  </g>
  <g id="zoomMin">
    <use xlink:href="#rim" fill="#404040"><set attributeName="fill" to="#808080" begin="zoomminus.mouseover" end="zoomminus.mouseout"/></use>
    <path d="M-4,0h8" fill="none" stroke="white" stroke-width="1.5" pointer-events="none"/>
  </g>
  <g id="arrowUp" transform="translate(30 24)">
    <use xlink:href="#rim"/>
    <path pointer-events="none" fill="none" stroke="white" stroke-width="1.5" d="M0,-3.0v7 M-2.5,-0.5L0,-3.0L2.5,-0.5"/>
  </g>
  <g id="arrowRight" transform="rotate(90) translate(36 -43)">
    <use xlink:href="#rim"/>
    <path pointer-events="none" fill="none" stroke="white" stroke-width="1.5" d="M0,-3.0v7 M-2.5,-0.5L0,-3.0L2.5,-0.5"/>
  </g>
  <g id="arrowDown" transform="rotate(180) translate(-30 -48)">
    <use xlink:href="#rim"/>
    <path pointer-events="none" fill="none" stroke="white" stroke-width="1.5" d="M0,-3.0v7 M-2.5,-0.5L0,-3.0L2.5,-0.5"/>
  </g>
  <g id="arrowLeft" transform="rotate(270) translate(-36 17)">
    <use xlink:href="#rim"/>
    <path pointer-events="none" fill="none" stroke="white" stroke-width="1.5" d="M0,-3.0v7 M-2.5,-0.5L0,-3.0L2.5,-0.5"/>
  </g>
  <g id="resetDef">
    <use xlink:href="#rim2" fill="#404040"><set attributeName="fill" to="#808080" begin="reset.mouseover" end="reset.mouseout"/></use>
  </g>
</defs>
<script type="application/ecmascript">
var viewWidth = 517;
var viewHeight = 1592;
var sectionId = 'dynsection-1';
</script>
<script type="application/ecmascript" xlink:href="../../svg.min.js"/>
<svg id="graph" class="graph">
<g id="viewport">
<title>Terraria.DataStructures.EntitySource_OnHit_ByItemSourceID</title>
<!-- Node1 -->
<g id="Node000001" class="node">
<title>Node1</title>
<g id="a_Node000001"><a xlink:title=" ">
<polygon fill="#999999" stroke="transparent" points="448.25,-93 259.25,-93 259.25,0 448.25,0 448.25,-93"/>
<text text-anchor="start" x="264.75" y="-80.5" font-family="Helvetica,sans-Serif" font-size="10.00">Terraria.DataStructures.</text>
<text text-anchor="start" x="264.75" y="-69.5" font-family="Helvetica,sans-Serif" font-size="10.00">EntitySource_OnHit_ByItemSourceID</text>
<text text-anchor="start" x="352.25" y="-54.5" font-family="Helvetica,sans-Serif" font-size="10.00"> </text>
<text text-anchor="start" x="267.25" y="-39.5" font-family="Helvetica,sans-Serif" font-size="10.00">+</text>
<text text-anchor="start" x="283.75" y="-39.5" font-family="Helvetica,sans-Serif" font-size="10.00">EntitySource_OnHit</text>
<text text-anchor="start" x="283.75" y="-28.5" font-family="Helvetica,sans-Serif" font-size="10.00">_ByItemSourceID(Entity</text>
<text text-anchor="start" x="283.75" y="-17.5" font-family="Helvetica,sans-Serif" font-size="10.00"> entityStriking, Entity</text>
<text text-anchor="start" x="283.75" y="-6.5" font-family="Helvetica,sans-Serif" font-size="10.00"> entityStruck, int itemSourceId)</text>
<polygon fill="#666666" stroke="#666666" points="259.75,-64.5 259.75,-64.5 448.75,-64.5 448.75,-64.5 259.75,-64.5"/>
<polygon fill="#666666" stroke="#666666" points="259.75,-49.5 259.75,-49.5 448.75,-49.5 448.75,-49.5 259.75,-49.5"/>
<polygon fill="none" stroke="#666666" points="259.25,0 259.25,-93 448.25,-93 448.25,0 259.25,0"/>
</a>
</g>
</g>
<!-- Node2 -->
<g id="Node000002" class="node">
<title>Node2</title>
<g id="a_Node000002"><a xlink:href="../../d0/d0b/classTerraria_1_1DataStructures_1_1AEntitySource__OnHit.html" target="_top" xlink:title=" ">
<polygon fill="white" stroke="transparent" points="334.75,-201 208.75,-201 208.75,-130 334.75,-130 334.75,-201"/>
<text text-anchor="start" x="220.75" y="-188.5" font-family="Helvetica,sans-Serif" font-size="10.00">AEntitySource_OnHit</text>
<text text-anchor="start" x="269.75" y="-173.5" font-family="Helvetica,sans-Serif" font-size="10.00"> </text>
<text text-anchor="start" x="212.75" y="-158.5" font-family="Helvetica,sans-Serif" font-size="10.00">+</text>
<text text-anchor="start" x="225.75" y="-158.5" font-family="Helvetica,sans-Serif" font-size="10.00">AEntitySource_OnHit</text>
<text text-anchor="start" x="225.75" y="-147.5" font-family="Helvetica,sans-Serif" font-size="10.00">(Entity entityStriking,</text>
<text text-anchor="start" x="225.75" y="-136.5" font-family="Helvetica,sans-Serif" font-size="10.00"> Entity entityStruck)</text>
<polygon fill="#666666" stroke="#666666" points="208.75,-183.5 208.75,-183.5 334.75,-183.5 334.75,-183.5 208.75,-183.5"/>
<polygon fill="#666666" stroke="#666666" points="208.75,-168.5 208.75,-168.5 334.75,-168.5 334.75,-168.5 208.75,-168.5"/>
<polygon fill="none" stroke="#666666" points="208.75,-130 208.75,-201 334.75,-201 334.75,-130 208.75,-130"/>
</a>
</g>
</g>
<!-- Node2&#45;&gt;Node1 -->
<g id="edge1_Node000001_Node000002" class="edge">
<title>Node2&#45;&gt;Node1</title>
<g id="a_edge1_Node000001_Node000002"><a xlink:title=" ">
<path fill="none" stroke="#63b8ff" d="M301.93,-121.45C308.37,-112.25 315.2,-102.51 321.72,-93.21"/>
<polygon fill="none" stroke="#63b8ff" points="299.01,-119.52 296.13,-129.71 304.74,-123.53 299.01,-119.52"/>
</a>
</g>
</g>
<!-- Node3 -->
<g id="Node000003" class="node">
<title>Node3</title>
<g id="a_Node000003"><a xlink:href="../../d9/d62/interfaceTerraria_1_1DataStructures_1_1IEntitySource.html" target="_top" xlink:title=" ">
<polygon fill="white" stroke="transparent" points="171.25,-481.5 96.25,-481.5 96.25,-432.5 171.25,-432.5 171.25,-481.5"/>
<text text-anchor="start" x="101.75" y="-469" font-family="Helvetica,sans-Serif" font-size="10.00">IEntitySource</text>
<text text-anchor="start" x="132.25" y="-454" font-family="Helvetica,sans-Serif" font-size="10.00"> </text>
<text text-anchor="start" x="132.25" y="-439" font-family="Helvetica,sans-Serif" font-size="10.00"> </text>
<polygon fill="#666666" stroke="#666666" points="96.75,-464 96.75,-464 171.75,-464 171.75,-464 96.75,-464"/>
<polygon fill="#666666" stroke="#666666" points="96.75,-449 96.75,-449 171.75,-449 171.75,-449 96.75,-449"/>
<polygon fill="none" stroke="#666666" points="96.25,-432.5 96.25,-481.5 171.25,-481.5 171.25,-432.5 96.25,-432.5"/>
</a>
</g>
</g>
<!-- Node3&#45;&gt;Node2 -->
<g id="edge2_Node000002_Node000003" class="edge">
<title>Node3&#45;&gt;Node2</title>
<g id="a_edge2_Node000002_Node000003"><a xlink:title=" ">
<path fill="none" stroke="#63b8ff" d="M136.25,-422.41C140.49,-381.54 151.69,-311.49 180.75,-259 192.76,-237.32 211.25,-217.19 228.43,-201.29"/>
<polygon fill="none" stroke="#63b8ff" points="132.76,-422.1 135.3,-432.39 139.73,-422.77 132.76,-422.1"/>
</a>
</g>
</g>
<!-- Node4 -->
<g id="Node000004" class="node">
<title>Node4</title>
<g id="a_Node000004"><a xlink:href="../../df/df6/classTerraria_1_1Entity.html" target="_top" xlink:title=" ">
<polygon fill="white" stroke="transparent" points="354.25,-655 189.25,-655 189.25,-259 354.25,-259 354.25,-655"/>
<text text-anchor="start" x="237.75" y="-643" font-family="Helvetica,sans-Serif" font-size="10.00">Terraria.Entity</text>
<text text-anchor="start" x="193.75" y="-628" font-family="Helvetica,sans-Serif" font-size="10.00">+</text>
<text text-anchor="start" x="206.75" y="-628" font-family="Helvetica,sans-Serif" font-size="10.00">virtual Vector2 VisualPosition</text>
<text text-anchor="start" x="193.75" y="-613" font-family="Helvetica,sans-Serif" font-size="10.00">+</text>
<text text-anchor="start" x="206.75" y="-613" font-family="Helvetica,sans-Serif" font-size="10.00">Vector2 Center</text>
<text text-anchor="start" x="193.75" y="-598" font-family="Helvetica,sans-Serif" font-size="10.00">+</text>
<text text-anchor="start" x="206.75" y="-598" font-family="Helvetica,sans-Serif" font-size="10.00">Vector2 Left</text>
<text text-anchor="start" x="193.75" y="-583" font-family="Helvetica,sans-Serif" font-size="10.00">+</text>
<text text-anchor="start" x="206.75" y="-583" font-family="Helvetica,sans-Serif" font-size="10.00">Vector2 Right</text>
<text text-anchor="start" x="193.75" y="-568" font-family="Helvetica,sans-Serif" font-size="10.00">+</text>
<text text-anchor="start" x="206.75" y="-568" font-family="Helvetica,sans-Serif" font-size="10.00">Vector2 Top</text>
<text text-anchor="start" x="193.75" y="-553" font-family="Helvetica,sans-Serif" font-size="10.00">+</text>
<text text-anchor="start" x="206.75" y="-553" font-family="Helvetica,sans-Serif" font-size="10.00">Vector2 TopLeft</text>
<text text-anchor="start" x="193.75" y="-538" font-family="Helvetica,sans-Serif" font-size="10.00">+</text>
<text text-anchor="start" x="206.75" y="-538" font-family="Helvetica,sans-Serif" font-size="10.00">Vector2 TopRight</text>
<text text-anchor="start" x="193.75" y="-523" font-family="Helvetica,sans-Serif" font-size="10.00">+</text>
<text text-anchor="start" x="206.75" y="-523" font-family="Helvetica,sans-Serif" font-size="10.00">Vector2 Bottom</text>
<text text-anchor="start" x="193.75" y="-508" font-family="Helvetica,sans-Serif" font-size="10.00">+</text>
<text text-anchor="start" x="206.75" y="-508" font-family="Helvetica,sans-Serif" font-size="10.00">Vector2 BottomLeft</text>
<text text-anchor="start" x="193.75" y="-493" font-family="Helvetica,sans-Serif" font-size="10.00">+</text>
<text text-anchor="start" x="206.75" y="-493" font-family="Helvetica,sans-Serif" font-size="10.00">Vector2 BottomRight</text>
<text text-anchor="start" x="193.75" y="-478" font-family="Helvetica,sans-Serif" font-size="10.00">+</text>
<text text-anchor="start" x="206.75" y="-478" font-family="Helvetica,sans-Serif" font-size="10.00">Vector2 Size</text>
<text text-anchor="start" x="193.75" y="-463" font-family="Helvetica,sans-Serif" font-size="10.00">+</text>
<text text-anchor="start" x="206.75" y="-463" font-family="Helvetica,sans-Serif" font-size="10.00">Rectangle Hitbox</text>
<text text-anchor="start" x="193.75" y="-448" font-family="Helvetica,sans-Serif" font-size="10.00">+</text>
<text text-anchor="start" x="206.75" y="-448" font-family="Helvetica,sans-Serif" font-size="10.00">float AngleTo(Vector2</text>
<text text-anchor="start" x="206.75" y="-437" font-family="Helvetica,sans-Serif" font-size="10.00"> Destination)</text>
<text text-anchor="start" x="193.75" y="-422" font-family="Helvetica,sans-Serif" font-size="10.00">+</text>
<text text-anchor="start" x="206.75" y="-422" font-family="Helvetica,sans-Serif" font-size="10.00">float AngleFrom(Vector2</text>
<text text-anchor="start" x="206.75" y="-411" font-family="Helvetica,sans-Serif" font-size="10.00"> Source)</text>
<text text-anchor="start" x="193.75" y="-396" font-family="Helvetica,sans-Serif" font-size="10.00">+</text>
<text text-anchor="start" x="206.75" y="-396" font-family="Helvetica,sans-Serif" font-size="10.00">float Distance(Vector2</text>
<text text-anchor="start" x="206.75" y="-385" font-family="Helvetica,sans-Serif" font-size="10.00"> Other)</text>
<text text-anchor="start" x="193.75" y="-370" font-family="Helvetica,sans-Serif" font-size="10.00">+</text>
<text text-anchor="start" x="206.75" y="-370" font-family="Helvetica,sans-Serif" font-size="10.00">float DistanceSQ(Vector2</text>
<text text-anchor="start" x="206.75" y="-359" font-family="Helvetica,sans-Serif" font-size="10.00"> Other)</text>
<text text-anchor="start" x="193.75" y="-344" font-family="Helvetica,sans-Serif" font-size="10.00">+</text>
<text text-anchor="start" x="206.75" y="-344" font-family="Helvetica,sans-Serif" font-size="10.00">Vector2 DirectionTo</text>
<text text-anchor="start" x="206.75" y="-333" font-family="Helvetica,sans-Serif" font-size="10.00">(Vector2 Destination)</text>
<text text-anchor="start" x="193.75" y="-318" font-family="Helvetica,sans-Serif" font-size="10.00">+</text>
<text text-anchor="start" x="206.75" y="-318" font-family="Helvetica,sans-Serif" font-size="10.00">Vector2 DirectionFrom</text>
<text text-anchor="start" x="206.75" y="-307" font-family="Helvetica,sans-Serif" font-size="10.00">(Vector2 Source)</text>
<text text-anchor="start" x="193.75" y="-292" font-family="Helvetica,sans-Serif" font-size="10.00">+</text>
<text text-anchor="start" x="206.75" y="-292" font-family="Helvetica,sans-Serif" font-size="10.00">bool WithinRange(Vector2</text>
<text text-anchor="start" x="206.75" y="-281" font-family="Helvetica,sans-Serif" font-size="10.00"> Target, float MaxRange)</text>
<text text-anchor="start" x="193.75" y="-266" font-family="Helvetica,sans-Serif" font-size="10.00">#</text>
<text text-anchor="start" x="206.75" y="-266" font-family="Helvetica,sans-Serif" font-size="10.00">Entity()</text>
<polygon fill="#666666" stroke="#666666" points="189.75,-638 189.75,-638 354.75,-638 354.75,-638 189.75,-638"/>
<polygon fill="#666666" stroke="#666666" points="189.75,-458 189.75,-458 204.75,-458 204.75,-458 189.75,-458"/>
<polygon fill="#666666" stroke="#666666" points="204.75,-458 204.75,-458 354.75,-458 354.75,-458 204.75,-458"/>
<polygon fill="none" stroke="#666666" points="189.25,-259 189.25,-655 354.25,-655 354.25,-259 189.25,-259"/>
</a>
</g>
</g>
<!-- Node4&#45;&gt;Node2 -->
<g id="edge3_Node000002_Node000004" class="edge">
<title>Node4&#45;&gt;Node2</title>
<g id="a_edge3_Node000002_Node000004"><a xlink:title=" ">
<path fill="none" stroke="#63b8ff" d="M271.75,-258.9C271.75,-242.36 271.75,-226.87 271.75,-213.48"/>
<polygon fill="none" stroke="#63b8ff" points="271.75,-213.32 267.75,-207.32 271.75,-201.32 275.75,-207.32 271.75,-213.32"/>
</a>
</g>
<text text-anchor="middle" x="310.75" y="-233" font-family="Helvetica,sans-Serif" font-size="10.00" fill="grey"> +EntityStriking</text>
<text text-anchor="middle" x="310.75" y="-222" font-family="Helvetica,sans-Serif" font-size="10.00" fill="grey">+EntityStruck</text>
</g>
<!-- Node5 -->
<g id="Node000005" class="node">
<title>Node5</title>
<g id="a_Node000005"><a xlink:title=" ">
<polygon fill="white" stroke="transparent" points="491.25,-1136 468.25,-1136 468.25,-1087 491.25,-1087 491.25,-1136"/>
<text text-anchor="start" x="473.75" y="-1123.5" font-family="Helvetica,sans-Serif" font-size="10.00">int</text>
<text text-anchor="start" x="478.25" y="-1108.5" font-family="Helvetica,sans-Serif" font-size="10.00"> </text>
<text text-anchor="start" x="478.25" y="-1093.5" font-family="Helvetica,sans-Serif" font-size="10.00"> </text>
<polygon fill="#666666" stroke="#666666" points="468.75,-1118.5 468.75,-1118.5 491.75,-1118.5 491.75,-1118.5 468.75,-1118.5"/>
<polygon fill="#666666" stroke="#666666" points="468.75,-1103.5 468.75,-1103.5 491.75,-1103.5 491.75,-1103.5 468.75,-1103.5"/>
<polygon fill="none" stroke="#666666" points="468.25,-1087 468.25,-1136 491.25,-1136 491.25,-1087 468.25,-1087"/>
</a>
</g>
</g>
<!-- Node5&#45;&gt;Node1 -->
<g id="edge12_Node000001_Node000005" class="edge">
<title>Node5&#45;&gt;Node1</title>
<g id="a_edge12_Node000001_Node000005"><a xlink:title=" ">
<path fill="none" stroke="#63b8ff" d="M480.29,-1086.7C481.5,-1020.77 483.2,-830.2 466.75,-673 444.65,-461.69 391.88,-214.43 367.07,-104.81"/>
<polygon fill="none" stroke="#63b8ff" points="367.06,-104.77 361.83,-99.81 364.4,-93.07 369.63,-98.04 367.06,-104.77"/>
</a>
</g>
<text text-anchor="middle" x="422.75" y="-227.5" font-family="Helvetica,sans-Serif" font-size="10.00" fill="grey"> +SourceId</text>
</g>
<!-- Node5&#45;&gt;Node4 -->
<g id="edge4_Node000004_Node000005" class="edge">
<title>Node5&#45;&gt;Node4</title>
<g id="a_edge4_Node000004_Node000005"><a xlink:title=" ">
<path fill="none" stroke="#63b8ff" d="M486.57,-1086.88C503.24,-1023.77 538.99,-849.07 457.75,-746 440.78,-724.47 419.08,-746.39 398.75,-728 379.11,-710.22 386.64,-697.16 375.75,-673 370.54,-661.42 365.08,-649.54 359.52,-637.59"/>
<polygon fill="none" stroke="#63b8ff" points="359.46,-637.47 353.3,-633.73 354.38,-626.6 360.54,-630.34 359.46,-637.47"/>
</a>
</g>
<text text-anchor="middle" x="432.75" y="-720" font-family="Helvetica,sans-Serif" font-size="10.00" fill="grey"> +direction</text>
<text text-anchor="middle" x="432.75" y="-709" font-family="Helvetica,sans-Serif" font-size="10.00" fill="grey">+height</text>
<text text-anchor="middle" x="432.75" y="-698" font-family="Helvetica,sans-Serif" font-size="10.00" fill="grey">+oldDirection</text>
<text text-anchor="middle" x="432.75" y="-687" font-family="Helvetica,sans-Serif" font-size="10.00" fill="grey">+whoAmI</text>
<text text-anchor="middle" x="432.75" y="-676" font-family="Helvetica,sans-Serif" font-size="10.00" fill="grey">+width</text>
</g>
<!-- Node6 -->
<g id="Node000006" class="node">
<title>Node6</title>
<g id="a_Node000006"><a xlink:title=" ">
<polygon fill="white" stroke="transparent" points="117.75,-1136 85.75,-1136 85.75,-1087 117.75,-1087 117.75,-1136"/>
<text text-anchor="start" x="90.75" y="-1123.5" font-family="Helvetica,sans-Serif" font-size="10.00">bool</text>
<text text-anchor="start" x="99.75" y="-1108.5" font-family="Helvetica,sans-Serif" font-size="10.00"> </text>
<text text-anchor="start" x="99.75" y="-1093.5" font-family="Helvetica,sans-Serif" font-size="10.00"> </text>
<polygon fill="#666666" stroke="#666666" points="85.75,-1118.5 85.75,-1118.5 117.75,-1118.5 117.75,-1118.5 85.75,-1118.5"/>
<polygon fill="#666666" stroke="#666666" points="85.75,-1103.5 85.75,-1103.5 117.75,-1103.5 117.75,-1103.5 85.75,-1103.5"/>
<polygon fill="none" stroke="#666666" points="85.75,-1087 85.75,-1136 117.75,-1136 117.75,-1087 85.75,-1087"/>
</a>
</g>
</g>
<!-- Node6&#45;&gt;Node4 -->
<g id="edge5_Node000004_Node000006" class="edge">
<title>Node6&#45;&gt;Node4</title>
<g id="a_edge5_Node000004_Node000006"><a xlink:title=" ">
<path fill="none" stroke="#63b8ff" d="M96.52,-1086.93C82.16,-1015.7 49.56,-799.8 149.75,-673 159.63,-660.5 170.03,-666.78 180.75,-655 180.84,-654.9 180.93,-654.81 181.02,-654.71"/>
<polygon fill="none" stroke="#63b8ff" points="181.09,-654.62 181.97,-647.47 188.91,-645.52 188.04,-652.68 181.09,-654.62"/>
</a>
</g>
<text text-anchor="middle" x="185.25" y="-720" font-family="Helvetica,sans-Serif" font-size="10.00" fill="grey"> +active</text>
<text text-anchor="middle" x="185.25" y="-709" font-family="Helvetica,sans-Serif" font-size="10.00" fill="grey">+honeyWet</text>
<text text-anchor="middle" x="185.25" y="-698" font-family="Helvetica,sans-Serif" font-size="10.00" fill="grey">+lavaWet</text>
<text text-anchor="middle" x="185.25" y="-687" font-family="Helvetica,sans-Serif" font-size="10.00" fill="grey">+shimmerWet</text>
<text text-anchor="middle" x="185.25" y="-676" font-family="Helvetica,sans-Serif" font-size="10.00" fill="grey">+wet</text>
</g>
<!-- Node7 -->
<g id="Node000007" class="node">
<title>Node7</title>
<g id="a_Node000007"><a xlink:title=" ">
<polygon fill="white" stroke="transparent" points="56.75,-1136 24.75,-1136 24.75,-1087 56.75,-1087 56.75,-1136"/>
<text text-anchor="start" x="29.75" y="-1123.5" font-family="Helvetica,sans-Serif" font-size="10.00">long</text>
<text text-anchor="start" x="38.75" y="-1108.5" font-family="Helvetica,sans-Serif" font-size="10.00"> </text>
<text text-anchor="start" x="38.75" y="-1093.5" font-family="Helvetica,sans-Serif" font-size="10.00"> </text>
<polygon fill="#666666" stroke="#666666" points="24.75,-1118.5 24.75,-1118.5 56.75,-1118.5 56.75,-1118.5 24.75,-1118.5"/>
<polygon fill="#666666" stroke="#666666" points="24.75,-1103.5 24.75,-1103.5 56.75,-1103.5 56.75,-1103.5 24.75,-1103.5"/>
<polygon fill="none" stroke="#666666" points="24.75,-1087 24.75,-1136 56.75,-1136 56.75,-1087 24.75,-1087"/>
</a>
</g>
</g>
<!-- Node7&#45;&gt;Node4 -->
<g id="edge6_Node000004_Node000007" class="edge">
<title>Node7&#45;&gt;Node4</title>
<g id="a_edge6_Node000004_Node000007"><a xlink:title=" ">
<path fill="none" stroke="#63b8ff" d="M33.12,-1086.76C11.38,-1014.11 -42.56,-792.51 65.75,-673 98.05,-637.36 134.01,-679.37 178.76,-654.95"/>
<polygon fill="none" stroke="#63b8ff" points="179.02,-654.78 181.86,-648.15 189.07,-648.21 186.23,-654.84 179.02,-654.78"/>
</a>
</g>
<text text-anchor="middle" x="90.25" y="-698" font-family="Helvetica,sans-Serif" font-size="10.00" fill="grey"> ~entityId</text>
</g>
<!-- Node8 -->
<g id="Node000008" class="node">
<title>Node8</title>
<g id="a_Node000008"><a xlink:href="../../dd/da4/structMicrosoft_1_1Xna_1_1Framework_1_1Vector2.html" target="_top" xlink:title=" ">
<polygon fill="white" stroke="transparent" points="319.25,-1477 136.25,-1477 136.25,-746 319.25,-746 319.25,-1477"/>
<text text-anchor="start" x="164.25" y="-1464.5" font-family="Helvetica,sans-Serif" font-size="10.00">Microsoft.Xna.Framework.</text>
<text text-anchor="start" x="209.75" y="-1453.5" font-family="Helvetica,sans-Serif" font-size="10.00">Vector2</text>
<text text-anchor="start" x="140.75" y="-1438.5" font-family="Helvetica,sans-Serif" font-size="10.00">+</text>
<text text-anchor="start" x="153.75" y="-1438.5" font-family="Helvetica,sans-Serif" font-size="10.00">static Vector2 Zero</text>
<text text-anchor="start" x="140.75" y="-1423.5" font-family="Helvetica,sans-Serif" font-size="10.00">+</text>
<text text-anchor="start" x="153.75" y="-1423.5" font-family="Helvetica,sans-Serif" font-size="10.00">static Vector2 One</text>
<text text-anchor="start" x="140.75" y="-1408.5" font-family="Helvetica,sans-Serif" font-size="10.00">+</text>
<text text-anchor="start" x="153.75" y="-1408.5" font-family="Helvetica,sans-Serif" font-size="10.00">static Vector2 UnitX</text>
<text text-anchor="start" x="140.75" y="-1393.5" font-family="Helvetica,sans-Serif" font-size="10.00">+</text>
<text text-anchor="start" x="153.75" y="-1393.5" font-family="Helvetica,sans-Serif" font-size="10.00">static Vector2 UnitY</text>
<text text-anchor="start" x="140.75" y="-1378.5" font-family="Helvetica,sans-Serif" font-size="10.00">+</text>
<text text-anchor="start" x="153.75" y="-1378.5" font-family="Helvetica,sans-Serif" font-size="10.00">Vector2(float x, float y)</text>
<text text-anchor="start" x="140.75" y="-1363.5" font-family="Helvetica,sans-Serif" font-size="10.00">+</text>
<text text-anchor="start" x="153.75" y="-1363.5" font-family="Helvetica,sans-Serif" font-size="10.00">Vector2(float value)</text>
<text text-anchor="start" x="140.75" y="-1348.5" font-family="Helvetica,sans-Serif" font-size="10.00">+</text>
<text text-anchor="start" x="153.75" y="-1348.5" font-family="Helvetica,sans-Serif" font-size="10.00">override bool Equals</text>
<text text-anchor="start" x="153.75" y="-1337.5" font-family="Helvetica,sans-Serif" font-size="10.00">(object obj)</text>
<text text-anchor="start" x="140.75" y="-1322.5" font-family="Helvetica,sans-Serif" font-size="10.00">+</text>
<text text-anchor="start" x="153.75" y="-1322.5" font-family="Helvetica,sans-Serif" font-size="10.00">bool Equals(Vector2</text>
<text text-anchor="start" x="153.75" y="-1311.5" font-family="Helvetica,sans-Serif" font-size="10.00"> other)</text>
<text text-anchor="start" x="140.75" y="-1296.5" font-family="Helvetica,sans-Serif" font-size="10.00">+</text>
<text text-anchor="start" x="153.75" y="-1296.5" font-family="Helvetica,sans-Serif" font-size="10.00">override int GetHashCode()</text>
<text text-anchor="start" x="140.75" y="-1281.5" font-family="Helvetica,sans-Serif" font-size="10.00">+</text>
<text text-anchor="start" x="153.75" y="-1281.5" font-family="Helvetica,sans-Serif" font-size="10.00">float Length()</text>
<text text-anchor="start" x="140.75" y="-1266.5" font-family="Helvetica,sans-Serif" font-size="10.00">+</text>
<text text-anchor="start" x="153.75" y="-1266.5" font-family="Helvetica,sans-Serif" font-size="10.00">float LengthSquared()</text>
<text text-anchor="start" x="140.75" y="-1251.5" font-family="Helvetica,sans-Serif" font-size="10.00">+</text>
<text text-anchor="start" x="153.75" y="-1251.5" font-family="Helvetica,sans-Serif" font-size="10.00">void Normalize()</text>
<text text-anchor="start" x="140.75" y="-1236.5" font-family="Helvetica,sans-Serif" font-size="10.00">+</text>
<text text-anchor="start" x="153.75" y="-1236.5" font-family="Helvetica,sans-Serif" font-size="10.00">override string ToString()</text>
<text text-anchor="start" x="140.75" y="-1221.5" font-family="Helvetica,sans-Serif" font-size="10.00">+</text>
<text text-anchor="start" x="153.75" y="-1221.5" font-family="Helvetica,sans-Serif" font-size="10.00">static void Reflect</text>
<text text-anchor="start" x="153.75" y="-1210.5" font-family="Helvetica,sans-Serif" font-size="10.00">(ref Vector2 vector,</text>
<text text-anchor="start" x="153.75" y="-1199.5" font-family="Helvetica,sans-Serif" font-size="10.00"> ref Vector2 normal,</text>
<text text-anchor="start" x="153.75" y="-1188.5" font-family="Helvetica,sans-Serif" font-size="10.00"> out Vector2 result)</text>
<text text-anchor="start" x="140.75" y="-1173.5" font-family="Helvetica,sans-Serif" font-size="10.00">+</text>
<text text-anchor="start" x="153.75" y="-1173.5" font-family="Helvetica,sans-Serif" font-size="10.00">static Vector2 Reflect</text>
<text text-anchor="start" x="153.75" y="-1162.5" font-family="Helvetica,sans-Serif" font-size="10.00">(Vector2 vector, Vector2</text>
<text text-anchor="start" x="153.75" y="-1151.5" font-family="Helvetica,sans-Serif" font-size="10.00"> normal)</text>
<text text-anchor="start" x="140.75" y="-1136.5" font-family="Helvetica,sans-Serif" font-size="10.00">+</text>
<text text-anchor="start" x="153.75" y="-1136.5" font-family="Helvetica,sans-Serif" font-size="10.00">static Vector2 Add</text>
<text text-anchor="start" x="153.75" y="-1125.5" font-family="Helvetica,sans-Serif" font-size="10.00">(Vector2 value1, Vector2</text>
<text text-anchor="start" x="153.75" y="-1114.5" font-family="Helvetica,sans-Serif" font-size="10.00"> value2)</text>
<text text-anchor="start" x="140.75" y="-1099.5" font-family="Helvetica,sans-Serif" font-size="10.00">+</text>
<text text-anchor="start" x="153.75" y="-1099.5" font-family="Helvetica,sans-Serif" font-size="10.00">static void Add(ref</text>
<text text-anchor="start" x="153.75" y="-1088.5" font-family="Helvetica,sans-Serif" font-size="10.00"> Vector2 value1, ref</text>
<text text-anchor="start" x="153.75" y="-1077.5" font-family="Helvetica,sans-Serif" font-size="10.00"> Vector2 value2, out</text>
<text text-anchor="start" x="153.75" y="-1066.5" font-family="Helvetica,sans-Serif" font-size="10.00"> Vector2 result)</text>
<text text-anchor="start" x="140.75" y="-1051.5" font-family="Helvetica,sans-Serif" font-size="10.00">+</text>
<text text-anchor="start" x="153.75" y="-1051.5" font-family="Helvetica,sans-Serif" font-size="10.00">static Vector2 Barycentric</text>
<text text-anchor="start" x="153.75" y="-1040.5" font-family="Helvetica,sans-Serif" font-size="10.00">(Vector2 value1, Vector2</text>
<text text-anchor="start" x="153.75" y="-1029.5" font-family="Helvetica,sans-Serif" font-size="10.00"> value2, Vector2 value3,</text>
<text text-anchor="start" x="153.75" y="-1018.5" font-family="Helvetica,sans-Serif" font-size="10.00"> float amount1, float amount2)</text>
<text text-anchor="start" x="140.75" y="-1003.5" font-family="Helvetica,sans-Serif" font-size="10.00">+</text>
<text text-anchor="start" x="153.75" y="-1003.5" font-family="Helvetica,sans-Serif" font-size="10.00">static void Barycentric</text>
<text text-anchor="start" x="153.75" y="-992.5" font-family="Helvetica,sans-Serif" font-size="10.00">(ref Vector2 value1, ref</text>
<text text-anchor="start" x="153.75" y="-981.5" font-family="Helvetica,sans-Serif" font-size="10.00"> Vector2 value2, ref Vector2</text>
<text text-anchor="start" x="153.75" y="-970.5" font-family="Helvetica,sans-Serif" font-size="10.00"> value3, float amount1, float</text>
<text text-anchor="start" x="153.75" y="-959.5" font-family="Helvetica,sans-Serif" font-size="10.00"> amount2, out Vector2 result)</text>
<text text-anchor="start" x="140.75" y="-944.5" font-family="Helvetica,sans-Serif" font-size="10.00">+</text>
<text text-anchor="start" x="153.75" y="-944.5" font-family="Helvetica,sans-Serif" font-size="10.00">static Vector2 CatmullRom</text>
<text text-anchor="start" x="153.75" y="-933.5" font-family="Helvetica,sans-Serif" font-size="10.00">(Vector2 value1, Vector2</text>
<text text-anchor="start" x="153.75" y="-922.5" font-family="Helvetica,sans-Serif" font-size="10.00"> value2, Vector2 value3,</text>
<text text-anchor="start" x="153.75" y="-911.5" font-family="Helvetica,sans-Serif" font-size="10.00"> Vector2 value4, float amount)</text>
<text text-anchor="start" x="140.75" y="-896.5" font-family="Helvetica,sans-Serif" font-size="10.00">+</text>
<text text-anchor="start" x="153.75" y="-896.5" font-family="Helvetica,sans-Serif" font-size="10.00">static void CatmullRom</text>
<text text-anchor="start" x="153.75" y="-885.5" font-family="Helvetica,sans-Serif" font-size="10.00">(ref Vector2 value1, ref</text>
<text text-anchor="start" x="153.75" y="-874.5" font-family="Helvetica,sans-Serif" font-size="10.00"> Vector2 value2, ref Vector2</text>
<text text-anchor="start" x="153.75" y="-863.5" font-family="Helvetica,sans-Serif" font-size="10.00"> value3, ref Vector2 value4,</text>
<text text-anchor="start" x="153.75" y="-852.5" font-family="Helvetica,sans-Serif" font-size="10.00"> float amount, out Vector2 result)</text>
<text text-anchor="start" x="140.75" y="-837.5" font-family="Helvetica,sans-Serif" font-size="10.00">+</text>
<text text-anchor="start" x="153.75" y="-837.5" font-family="Helvetica,sans-Serif" font-size="10.00">static Vector2 Clamp</text>
<text text-anchor="start" x="153.75" y="-826.5" font-family="Helvetica,sans-Serif" font-size="10.00">(Vector2 value1, Vector2</text>
<text text-anchor="start" x="153.75" y="-815.5" font-family="Helvetica,sans-Serif" font-size="10.00"> min, Vector2 max)</text>
<text text-anchor="start" x="140.75" y="-800.5" font-family="Helvetica,sans-Serif" font-size="10.00">+</text>
<text text-anchor="start" x="153.75" y="-800.5" font-family="Helvetica,sans-Serif" font-size="10.00">static void Clamp(ref</text>
<text text-anchor="start" x="153.75" y="-789.5" font-family="Helvetica,sans-Serif" font-size="10.00"> Vector2 value1, ref</text>
<text text-anchor="start" x="153.75" y="-778.5" font-family="Helvetica,sans-Serif" font-size="10.00"> Vector2 min, ref Vector2</text>
<text text-anchor="start" x="153.75" y="-767.5" font-family="Helvetica,sans-Serif" font-size="10.00"> max, out Vector2 result)</text>
<text text-anchor="start" x="153.75" y="-752.5" font-family="Helvetica,sans-Serif" font-size="10.00">and 52 more...</text>
<polygon fill="#666666" stroke="#666666" points="136.75,-1448.5 136.75,-1448.5 319.75,-1448.5 319.75,-1448.5 136.75,-1448.5"/>
<polygon fill="#666666" stroke="#666666" points="136.75,-1388.5 136.75,-1388.5 151.75,-1388.5 151.75,-1388.5 136.75,-1388.5"/>
<polygon fill="#666666" stroke="#666666" points="151.75,-1388.5 151.75,-1388.5 319.75,-1388.5 319.75,-1388.5 151.75,-1388.5"/>
<polygon fill="none" stroke="#666666" points="136.25,-746 136.25,-1477 319.25,-1477 319.25,-746 136.25,-746"/>
</a>
</g>
</g>
<!-- Node8&#45;&gt;Node4 -->
<g id="edge7_Node000004_Node000008" class="edge">
<title>Node8&#45;&gt;Node4</title>
<g id="a_edge7_Node000004_Node000008"><a xlink:title=" ">
<path fill="none" stroke="#63b8ff" d="M223.23,-745.87C224.57,-721.18 226.38,-696.71 228.75,-673 228.95,-671.07 229.15,-669.14 229.36,-667.2"/>
<polygon fill="none" stroke="#63b8ff" points="229.37,-667.11 226.1,-660.68 230.77,-655.19 234.04,-661.61 229.37,-667.11"/>
</a>
</g>
<text text-anchor="middle" x="261.75" y="-714.5" font-family="Helvetica,sans-Serif" font-size="10.00" fill="grey"> +oldPosition</text>
<text text-anchor="middle" x="261.75" y="-703.5" font-family="Helvetica,sans-Serif" font-size="10.00" fill="grey">+oldVelocity</text>
<text text-anchor="middle" x="261.75" y="-692.5" font-family="Helvetica,sans-Serif" font-size="10.00" fill="grey">+position</text>
<text text-anchor="middle" x="261.75" y="-681.5" font-family="Helvetica,sans-Serif" font-size="10.00" fill="grey">+velocity</text>
</g>
<!-- Node8&#45;&gt;Node8 -->
<g id="edge9_Node000008_Node000008" class="edge">
<title>Node8&#45;&gt;Node8</title>
<g id="a_edge9_Node000008_Node000008"><a xlink:title=" ">
<path fill="none" stroke="#63b8ff" d="M319.62,-1174.55C330.3,-1162.91 337.25,-1141.9 337.25,-1111.5 337.25,-1088.47 333.26,-1070.82 326.68,-1058.56"/>
<polygon fill="none" stroke="#63b8ff" points="326.49,-1058.29 319.77,-1055.66 319.62,-1048.45 326.33,-1051.08 326.49,-1058.29"/>
</a>
</g>
<text text-anchor="middle" x="367.75" y="-1125.5" font-family="Helvetica,sans-Serif" font-size="10.00" fill="grey"> &#45;unitVector</text>
<text text-anchor="middle" x="367.75" y="-1114.5" font-family="Helvetica,sans-Serif" font-size="10.00" fill="grey">&#45;unitXVector</text>
<text text-anchor="middle" x="367.75" y="-1103.5" font-family="Helvetica,sans-Serif" font-size="10.00" fill="grey">&#45;unitYVector</text>
<text text-anchor="middle" x="367.75" y="-1092.5" font-family="Helvetica,sans-Serif" font-size="10.00" fill="grey">&#45;zeroVector</text>
</g>
<!-- Node9 -->
<g id="Node000009" class="node">
<title>Node9</title>
<g id="a_Node000009"><a xlink:href="../../d9/d1c/classIEquatable.html" target="_top" xlink:title=" ">
<polygon fill="white" stroke="transparent" points="240.75,-1584 118.75,-1584 118.75,-1535 240.75,-1535 240.75,-1584"/>
<text text-anchor="start" x="123.75" y="-1571.5" font-family="Helvetica,sans-Serif" font-size="10.00">IEquatable&lt; Vector2 &gt;</text>
<text text-anchor="start" x="177.75" y="-1556.5" font-family="Helvetica,sans-Serif" font-size="10.00"> </text>
<text text-anchor="start" x="177.75" y="-1541.5" font-family="Helvetica,sans-Serif" font-size="10.00"> </text>
<polygon fill="#666666" stroke="#666666" points="118.75,-1566.5 118.75,-1566.5 240.75,-1566.5 240.75,-1566.5 118.75,-1566.5"/>
<polygon fill="#666666" stroke="#666666" points="118.75,-1551.5 118.75,-1551.5 240.75,-1551.5 240.75,-1551.5 118.75,-1551.5"/>
<polygon fill="none" stroke="#666666" points="118.75,-1535 118.75,-1584 240.75,-1584 240.75,-1535 118.75,-1535"/>
</a>
</g>
</g>
<!-- Node9&#45;&gt;Node8 -->
<g id="edge8_Node000008_Node000009" class="edge">
<title>Node9&#45;&gt;Node8</title>
<g id="a_edge8_Node000008_Node000009"><a xlink:title=" ">
<path fill="none" stroke="#63b8ff" d="M183.39,-1524.71C184.79,-1511.74 186.53,-1495.58 188.5,-1477.25"/>
<polygon fill="none" stroke="#63b8ff" points="179.89,-1524.52 182.3,-1534.84 186.85,-1525.27 179.89,-1524.52"/>
</a>
</g>
</g>
<!-- Node10 -->
<g id="Node000010" class="node">
<title>Node10</title>
<g id="a_Node000010"><a xlink:title=" ">
<polygon fill="white" stroke="transparent" points="290.75,-1584 258.75,-1584 258.75,-1535 290.75,-1535 290.75,-1584"/>
<text text-anchor="start" x="263.75" y="-1571.5" font-family="Helvetica,sans-Serif" font-size="10.00">float</text>
<text text-anchor="start" x="272.75" y="-1556.5" font-family="Helvetica,sans-Serif" font-size="10.00"> </text>
<text text-anchor="start" x="272.75" y="-1541.5" font-family="Helvetica,sans-Serif" font-size="10.00"> </text>
<polygon fill="#666666" stroke="#666666" points="258.75,-1566.5 258.75,-1566.5 290.75,-1566.5 290.75,-1566.5 258.75,-1566.5"/>
<polygon fill="#666666" stroke="#666666" points="258.75,-1551.5 258.75,-1551.5 290.75,-1551.5 290.75,-1551.5 258.75,-1551.5"/>
<polygon fill="none" stroke="#666666" points="258.75,-1535 258.75,-1584 290.75,-1584 290.75,-1535 258.75,-1535"/>
</a>
</g>
</g>
<!-- Node10&#45;&gt;Node8 -->
<g id="edge10_Node000008_Node000010" class="edge">
<title>Node10&#45;&gt;Node8</title>
<g id="a_edge10_Node000008_Node000010"><a xlink:title=" ">
<path fill="none" stroke="#63b8ff" d="M272.26,-1534.84C271.02,-1523.11 269.38,-1507.54 267.46,-1489.28"/>
<polygon fill="none" stroke="#63b8ff" points="267.45,-1489.18 262.84,-1483.63 266.19,-1477.25 270.8,-1482.8 267.45,-1489.18"/>
</a>
</g>
<text text-anchor="middle" x="279.25" y="-1509" font-family="Helvetica,sans-Serif" font-size="10.00" fill="grey"> +X</text>
<text text-anchor="middle" x="279.25" y="-1498" font-family="Helvetica,sans-Serif" font-size="10.00" fill="grey">+Y</text>
</g>
<!-- Node11 -->
<g id="Node000011" class="node">
<title>Node11</title>
<g id="a_Node000011"><a xlink:title=" ">
<polygon fill="white" stroke="transparent" points="448.75,-1136 416.75,-1136 416.75,-1087 448.75,-1087 448.75,-1136"/>
<text text-anchor="start" x="421.75" y="-1123.5" font-family="Helvetica,sans-Serif" font-size="10.00">byte</text>
<text text-anchor="start" x="430.75" y="-1108.5" font-family="Helvetica,sans-Serif" font-size="10.00"> </text>
<text text-anchor="start" x="430.75" y="-1093.5" font-family="Helvetica,sans-Serif" font-size="10.00"> </text>
<polygon fill="#666666" stroke="#666666" points="416.75,-1118.5 416.75,-1118.5 448.75,-1118.5 448.75,-1118.5 416.75,-1118.5"/>
<polygon fill="#666666" stroke="#666666" points="416.75,-1103.5 416.75,-1103.5 448.75,-1103.5 448.75,-1103.5 416.75,-1103.5"/>
<polygon fill="none" stroke="#666666" points="416.75,-1087 416.75,-1136 448.75,-1136 448.75,-1087 416.75,-1087"/>
</a>
</g>
</g>
<!-- Node11&#45;&gt;Node4 -->
<g id="edge11_Node000004_Node000011" class="edge">
<title>Node11&#45;&gt;Node4</title>
<g id="a_edge11_Node000004_Node000011"><a xlink:title=" ">
<path fill="none" stroke="#63b8ff" d="M434.69,-1086.89C440.1,-1014.36 452.24,-796.63 407.75,-746 380.83,-715.36 346.18,-757.25 317.75,-728 311.84,-721.91 305.65,-698.23 299.79,-667.24"/>
<polygon fill="none" stroke="#63b8ff" points="299.72,-666.83 294.71,-661.64 297.57,-655.02 302.58,-660.21 299.72,-666.83"/>
</a>
</g>
<text text-anchor="middle" x="346.75" y="-698" font-family="Helvetica,sans-Serif" font-size="10.00" fill="grey"> +wetCount</text>
</g>
</g>
</svg>

<g id="navigator" transform="translate(0 0)" fill="#404254">
  <rect fill="#f2f5e9" fill-opacity="0.5" stroke="#606060" stroke-width=".5" x="0" y="0" width="60" height="60"/>
  <use id="zoomplus" xlink:href="#zoomPlus" x="17" y="9" onmousedown="handleZoom(evt,'in')"/>
  <use id="zoomminus" xlink:href="#zoomMin" x="42" y="9" onmousedown="handleZoom(evt,'out')"/>
  <use id="reset" xlink:href="#resetDef" x="30" y="36" onmousedown="handleReset()"/>
   <use id="arrowup" xlink:href="#arrowUp" x="0" y="0" onmousedown="handlePan(0,-1)"/>
  <use id="arrowright" xlink:href="#arrowRight" x="0" y="0" onmousedown="handlePan(1,0)"/>
  <use id="arrowdown" xlink:href="#arrowDown" x="0" y="0" onmousedown="handlePan(0,1)"/>
  <use id="arrowleft" xlink:href="#arrowLeft" x="0" y="0" onmousedown="handlePan(-1,0)"/>
</g>
<svg viewBox="0 0 15 15" width="100%" height="30px" preserveAspectRatio="xMaxYMin meet">
 <g id="arrow_out" transform="scale(0.3 0.3)">
  <a xlink:href="classTerraria_1_1DataStructures_1_1EntitySource__OnHit__ByItemSourceID__coll__graph_org.svg" target="_base">
   <rect id="button" ry="5" rx="5" y="6" x="6" height="38" width="38"
        fill="#f2f5e9" fill-opacity="0.5" stroke="#606060" stroke-width="1.0"/>
   <path id="arrow"
     d="M 11.500037,31.436501 C 11.940474,20.09759 22.043105,11.32322 32.158766,21.979434 L 37.068811,17.246167 C 37.068811,17.246167 37.088388,32 37.088388,32 L 22.160133,31.978069 C 22.160133,31.978069 26.997745,27.140456 26.997745,27.140456 C 18.528582,18.264221 13.291696,25.230495 11.500037,31.436501 z"
     style="fill:#404040;"/>
  </a>
 </g>
</svg>

<style type='text/css'>
<![CDATA[
[data-mouse-over-selected='false'] { opacity: 0.7; }
[data-mouse-over-selected='true']  { opacity: 1.0; }
]]>
</style>
<script type="application/ecmascript"><![CDATA[
document.addEventListener('DOMContentLoaded', (event) => {
  highlightEdges();
  highlightAdjacentNodes();
});
]]></script>
</svg>
