<?xml version="1.0" encoding="UTF-8" standalone="no"?>
<!DOCTYPE svg PUBLIC "-//W3C//DTD SVG 1.1//EN"
 "http://www.w3.org/Graphics/SVG/1.1/DTD/svg11.dtd">
<!-- Generated by graphviz version 2.43.0 (0)
 -->
<!-- Title: System.Net.Configuration.SmtpNetworkElement Pages: 1 -->
<svg width="216pt" height="525pt"
 viewBox="0.00 0.00 216.00 525.00" xmlns="http://www.w3.org/2000/svg" xmlns:xlink="http://www.w3.org/1999/xlink">
<g id="graph0" class="graph" transform="scale(1 1) rotate(0) translate(4 521)">
<title>System.Net.Configuration.SmtpNetworkElement</title>
<!-- Node1 -->
<g id="Node000001" class="node">
<title>Node1</title>
<g id="a_Node000001"><a xlink:title=" ">
<polygon fill="#999999" stroke="transparent" points="190,-206 18,-206 18,0 190,0 190,-206"/>
<text text-anchor="start" x="39.5" y="-194" font-family="Helvetica,sans-Serif" font-size="10.00">System.Net.Configuration.</text>
<text text-anchor="start" x="50" y="-183" font-family="Helvetica,sans-Serif" font-size="10.00">SmtpNetworkElement</text>
<text text-anchor="start" x="22" y="-168" font-family="Helvetica,sans-Serif" font-size="10.00">+</text>
<text text-anchor="start" x="35" y="-168" font-family="Helvetica,sans-Serif" font-size="10.00">string ClientDomain</text>
<text text-anchor="start" x="22" y="-153" font-family="Helvetica,sans-Serif" font-size="10.00">+</text>
<text text-anchor="start" x="35" y="-153" font-family="Helvetica,sans-Serif" font-size="10.00">bool DefaultCredentials</text>
<text text-anchor="start" x="22" y="-138" font-family="Helvetica,sans-Serif" font-size="10.00">+</text>
<text text-anchor="start" x="35" y="-138" font-family="Helvetica,sans-Serif" font-size="10.00">bool EnableSsl</text>
<text text-anchor="start" x="22" y="-123" font-family="Helvetica,sans-Serif" font-size="10.00">+</text>
<text text-anchor="start" x="35" y="-123" font-family="Helvetica,sans-Serif" font-size="10.00">string Host</text>
<text text-anchor="start" x="22" y="-108" font-family="Helvetica,sans-Serif" font-size="10.00">+</text>
<text text-anchor="start" x="35" y="-108" font-family="Helvetica,sans-Serif" font-size="10.00">string Password</text>
<text text-anchor="start" x="22" y="-93" font-family="Helvetica,sans-Serif" font-size="10.00">+</text>
<text text-anchor="start" x="35" y="-93" font-family="Helvetica,sans-Serif" font-size="10.00">int Port</text>
<text text-anchor="start" x="22" y="-78" font-family="Helvetica,sans-Serif" font-size="10.00">+</text>
<text text-anchor="start" x="35" y="-78" font-family="Helvetica,sans-Serif" font-size="10.00">override ConfigurationProperty</text>
<text text-anchor="start" x="35" y="-67" font-family="Helvetica,sans-Serif" font-size="10.00">Collection Properties</text>
<text text-anchor="start" x="22" y="-52" font-family="Helvetica,sans-Serif" font-size="10.00">+</text>
<text text-anchor="start" x="35" y="-52" font-family="Helvetica,sans-Serif" font-size="10.00">string TargetName</text>
<text text-anchor="start" x="22" y="-37" font-family="Helvetica,sans-Serif" font-size="10.00">+</text>
<text text-anchor="start" x="35" y="-37" font-family="Helvetica,sans-Serif" font-size="10.00">string UserName</text>
<text text-anchor="start" x="22" y="-22" font-family="Helvetica,sans-Serif" font-size="10.00">+</text>
<text text-anchor="start" x="35" y="-22" font-family="Helvetica,sans-Serif" font-size="10.00">SmtpNetworkElement()</text>
<text text-anchor="start" x="22" y="-7" font-family="Helvetica,sans-Serif" font-size="10.00">#</text>
<text text-anchor="start" x="35" y="-7" font-family="Helvetica,sans-Serif" font-size="10.00">override void PostDeserialize()</text>
<polygon fill="#666666" stroke="#666666" points="18,-178 18,-178 190,-178 190,-178 18,-178"/>
<polygon fill="#666666" stroke="#666666" points="18,-32 18,-32 33,-32 33,-32 18,-32"/>
<polygon fill="#666666" stroke="#666666" points="33,-32 33,-32 190,-32 190,-32 33,-32"/>
<polygon fill="none" stroke="#666666" points="18,0 18,-206 190,-206 190,0 18,0"/>
</a>
</g>
</g>
<!-- Node2 -->
<g id="Node000002" class="node">
<title>Node2</title>
<g id="a_Node000002"><a xlink:href="../../de/d66/classSystem_1_1Configuration_1_1ConfigurationElement.html" target="_top" xlink:title=" ">
<polygon fill="white" stroke="transparent" points="208,-517 0,-517 0,-242 208,-242 208,-517"/>
<text text-anchor="start" x="51" y="-504.5" font-family="Helvetica,sans-Serif" font-size="10.00">ConfigurationElement</text>
<text text-anchor="start" x="4" y="-489.5" font-family="Helvetica,sans-Serif" font-size="10.00">+</text>
<text text-anchor="start" x="17" y="-489.5" font-family="Helvetica,sans-Serif" font-size="10.00">virtual ConfigurationProperty</text>
<text text-anchor="start" x="17" y="-478.5" font-family="Helvetica,sans-Serif" font-size="10.00">Collection Properties</text>
<text text-anchor="start" x="4" y="-463.5" font-family="Helvetica,sans-Serif" font-size="10.00">~</text>
<text text-anchor="start" x="17" y="-463.5" font-family="Helvetica,sans-Serif" font-size="10.00">virtual void Deserialize</text>
<text text-anchor="start" x="17" y="-452.5" font-family="Helvetica,sans-Serif" font-size="10.00">Element(XmlReader reader,</text>
<text text-anchor="start" x="17" y="-441.5" font-family="Helvetica,sans-Serif" font-size="10.00"> bool serializeCollectionKey)</text>
<text text-anchor="start" x="4" y="-426.5" font-family="Helvetica,sans-Serif" font-size="10.00">~</text>
<text text-anchor="start" x="17" y="-426.5" font-family="Helvetica,sans-Serif" font-size="10.00">virtual void InitializeDefault()</text>
<text text-anchor="start" x="4" y="-411.5" font-family="Helvetica,sans-Serif" font-size="10.00">~</text>
<text text-anchor="start" x="17" y="-411.5" font-family="Helvetica,sans-Serif" font-size="10.00">virtual bool IsModified()</text>
<text text-anchor="start" x="4" y="-396.5" font-family="Helvetica,sans-Serif" font-size="10.00">~</text>
<text text-anchor="start" x="17" y="-396.5" font-family="Helvetica,sans-Serif" font-size="10.00">virtual void Reset</text>
<text text-anchor="start" x="17" y="-385.5" font-family="Helvetica,sans-Serif" font-size="10.00">(ConfigurationElement</text>
<text text-anchor="start" x="17" y="-374.5" font-family="Helvetica,sans-Serif" font-size="10.00"> parentElement)</text>
<text text-anchor="start" x="4" y="-359.5" font-family="Helvetica,sans-Serif" font-size="10.00">~</text>
<text text-anchor="start" x="17" y="-359.5" font-family="Helvetica,sans-Serif" font-size="10.00">virtual void ResetModified()</text>
<text text-anchor="start" x="4" y="-344.5" font-family="Helvetica,sans-Serif" font-size="10.00">~</text>
<text text-anchor="start" x="17" y="-344.5" font-family="Helvetica,sans-Serif" font-size="10.00">virtual bool SerializeTo</text>
<text text-anchor="start" x="17" y="-333.5" font-family="Helvetica,sans-Serif" font-size="10.00">XmlElement(XmlWriter writer,</text>
<text text-anchor="start" x="17" y="-322.5" font-family="Helvetica,sans-Serif" font-size="10.00"> string elementName)</text>
<text text-anchor="start" x="4" y="-307.5" font-family="Helvetica,sans-Serif" font-size="10.00">~</text>
<text text-anchor="start" x="17" y="-307.5" font-family="Helvetica,sans-Serif" font-size="10.00">virtual void Unmerge</text>
<text text-anchor="start" x="17" y="-296.5" font-family="Helvetica,sans-Serif" font-size="10.00">(ConfigurationElement</text>
<text text-anchor="start" x="17" y="-285.5" font-family="Helvetica,sans-Serif" font-size="10.00"> sourceElement, Configuration</text>
<text text-anchor="start" x="17" y="-274.5" font-family="Helvetica,sans-Serif" font-size="10.00">Element parentElement, Configuration</text>
<text text-anchor="start" x="17" y="-263.5" font-family="Helvetica,sans-Serif" font-size="10.00">SaveMode saveMode)</text>
<text text-anchor="start" x="4" y="-248.5" font-family="Helvetica,sans-Serif" font-size="10.00">#</text>
<text text-anchor="start" x="17" y="-248.5" font-family="Helvetica,sans-Serif" font-size="10.00">virtual void PostDeserialize()</text>
<polygon fill="#666666" stroke="#666666" points="0,-499.5 0,-499.5 208,-499.5 208,-499.5 0,-499.5"/>
<polygon fill="#666666" stroke="#666666" points="0,-473.5 0,-473.5 15,-473.5 15,-473.5 0,-473.5"/>
<polygon fill="#666666" stroke="#666666" points="15,-473.5 15,-473.5 208,-473.5 208,-473.5 15,-473.5"/>
<polygon fill="none" stroke="#666666" points="0,-242 0,-517 208,-517 208,-242 0,-242"/>
</a>
</g>
</g>
<!-- Node2&#45;&gt;Node1 -->
<g id="edge1_Node000001_Node000002" class="edge">
<title>Node2&#45;&gt;Node1</title>
<g id="a_edge1_Node000001_Node000002"><a xlink:title=" ">
<path fill="none" stroke="#63b8ff" d="M104,-231.57C104,-223 104,-214.48 104,-206.15"/>
<polygon fill="none" stroke="#63b8ff" points="100.5,-231.65 104,-241.65 107.5,-231.65 100.5,-231.65"/>
</a>
</g>
</g>
</g>
</svg>
