<?xml version="1.0" encoding="UTF-8" standalone="no"?>
<!DOCTYPE svg PUBLIC "-//W3C//DTD SVG 1.1//EN"
 "http://www.w3.org/Graphics/SVG/1.1/DTD/svg11.dtd">
<!-- Generated by graphviz version 2.43.0 (0)
 -->
<!-- Title: Microsoft.Xna.Framework.Graphics.PackedVector.Byte4 Pages: 1 -->
<svg width="412pt" height="647pt"
 viewBox="0.00 0.00 412.00 647.00" xmlns="http://www.w3.org/2000/svg" xmlns:xlink="http://www.w3.org/1999/xlink">
<g id="graph0" class="graph" transform="scale(1 1) rotate(0) translate(4 643)">
<title>Microsoft.Xna.Framework.Graphics.PackedVector.Byte4</title>
<!-- Node1 -->
<g id="Node000001" class="node">
<title>Node1</title>
<g id="a_Node000001"><a xlink:title=" ">
<polygon fill="#999999" stroke="transparent" points="326,-287 122,-287 122,0 326,0 326,-287"/>
<text text-anchor="start" x="153" y="-274.5" font-family="Helvetica,sans-Serif" font-size="10.00">Microsoft.Xna.Framework.</text>
<text text-anchor="start" x="153" y="-263.5" font-family="Helvetica,sans-Serif" font-size="10.00">Graphics.PackedVector.Byte4</text>
<text text-anchor="start" x="126" y="-248.5" font-family="Helvetica,sans-Serif" font-size="10.00">+</text>
<text text-anchor="start" x="139" y="-248.5" font-family="Helvetica,sans-Serif" font-size="10.00">uint PackedValue</text>
<text text-anchor="start" x="126" y="-233.5" font-family="Helvetica,sans-Serif" font-size="10.00">+</text>
<text text-anchor="start" x="139" y="-233.5" font-family="Helvetica,sans-Serif" font-size="10.00">Byte4(Vector4 vector)</text>
<text text-anchor="start" x="126" y="-218.5" font-family="Helvetica,sans-Serif" font-size="10.00">+</text>
<text text-anchor="start" x="139" y="-218.5" font-family="Helvetica,sans-Serif" font-size="10.00">Byte4(float x, float</text>
<text text-anchor="start" x="139" y="-207.5" font-family="Helvetica,sans-Serif" font-size="10.00"> y, float z, float w)</text>
<text text-anchor="start" x="126" y="-192.5" font-family="Helvetica,sans-Serif" font-size="10.00">+</text>
<text text-anchor="start" x="139" y="-192.5" font-family="Helvetica,sans-Serif" font-size="10.00">override bool Equals</text>
<text text-anchor="start" x="139" y="-181.5" font-family="Helvetica,sans-Serif" font-size="10.00">(object obj)</text>
<text text-anchor="start" x="126" y="-166.5" font-family="Helvetica,sans-Serif" font-size="10.00">+</text>
<text text-anchor="start" x="139" y="-166.5" font-family="Helvetica,sans-Serif" font-size="10.00">bool Equals(Byte4 other)</text>
<text text-anchor="start" x="126" y="-151.5" font-family="Helvetica,sans-Serif" font-size="10.00">+</text>
<text text-anchor="start" x="139" y="-151.5" font-family="Helvetica,sans-Serif" font-size="10.00">override int GetHashCode()</text>
<text text-anchor="start" x="126" y="-136.5" font-family="Helvetica,sans-Serif" font-size="10.00">+</text>
<text text-anchor="start" x="139" y="-136.5" font-family="Helvetica,sans-Serif" font-size="10.00">override string ToString()</text>
<text text-anchor="start" x="126" y="-121.5" font-family="Helvetica,sans-Serif" font-size="10.00">+</text>
<text text-anchor="start" x="139" y="-121.5" font-family="Helvetica,sans-Serif" font-size="10.00">Vector4 ToVector4()</text>
<text text-anchor="start" x="126" y="-106.5" font-family="Helvetica,sans-Serif" font-size="10.00">+</text>
<text text-anchor="start" x="139" y="-106.5" font-family="Helvetica,sans-Serif" font-size="10.00">static bool operator!</text>
<text text-anchor="start" x="139" y="-95.5" font-family="Helvetica,sans-Serif" font-size="10.00">=(Byte4 a, Byte4 b)</text>
<text text-anchor="start" x="126" y="-80.5" font-family="Helvetica,sans-Serif" font-size="10.00">+</text>
<text text-anchor="start" x="139" y="-80.5" font-family="Helvetica,sans-Serif" font-size="10.00">static bool operator</text>
<text text-anchor="start" x="139" y="-69.5" font-family="Helvetica,sans-Serif" font-size="10.00">==(Byte4 a, Byte4 b)</text>
<text text-anchor="start" x="128.5" y="-54.5" font-family="Helvetica,sans-Serif" font-size="10.00">&#45;</text>
<text text-anchor="start" x="139" y="-54.5" font-family="Helvetica,sans-Serif" font-size="10.00">void Microsoft.Xna.Framework.</text>
<text text-anchor="start" x="139" y="-43.5" font-family="Helvetica,sans-Serif" font-size="10.00">Graphics.PackedVector.IPackedVector.</text>
<text text-anchor="start" x="139" y="-32.5" font-family="Helvetica,sans-Serif" font-size="10.00"> PackFromVector4(Vector4 vector)</text>
<text text-anchor="start" x="128.5" y="-17.5" font-family="Helvetica,sans-Serif" font-size="10.00">&#45;</text>
<text text-anchor="start" x="139" y="-17.5" font-family="Helvetica,sans-Serif" font-size="10.00">static uint Pack(ref</text>
<text text-anchor="start" x="139" y="-6.5" font-family="Helvetica,sans-Serif" font-size="10.00"> Vector4 vector)</text>
<polygon fill="#666666" stroke="#666666" points="122,-258.5 122,-258.5 326,-258.5 326,-258.5 122,-258.5"/>
<polygon fill="#666666" stroke="#666666" points="122,-243.5 122,-243.5 137,-243.5 137,-243.5 122,-243.5"/>
<polygon fill="#666666" stroke="#666666" points="137,-243.5 137,-243.5 326,-243.5 326,-243.5 137,-243.5"/>
<polygon fill="none" stroke="#666666" points="122,0 122,-287 326,-287 326,0 122,0"/>
</a>
</g>
</g>
<!-- Node2 -->
<g id="Node000002" class="node">
<title>Node2</title>
<g id="a_Node000002"><a xlink:href="../../d6/d99/interfaceMicrosoft_1_1Xna_1_1Framework_1_1Graphics_1_1PackedVector_1_1IPackedVector.html" target="_top" xlink:title=" ">
<polygon fill="white" stroke="transparent" points="200,-409 70,-409 70,-334 200,-334 200,-409"/>
<text text-anchor="start" x="80.5" y="-396.5" font-family="Helvetica,sans-Serif" font-size="10.00">IPackedVector&lt; uint &gt;</text>
<text text-anchor="start" x="74" y="-381.5" font-family="Helvetica,sans-Serif" font-size="10.00">+</text>
<text text-anchor="start" x="87" y="-381.5" font-family="Helvetica,sans-Serif" font-size="10.00">TPacked PackedValue</text>
<text text-anchor="start" x="74" y="-366.5" font-family="Helvetica,sans-Serif" font-size="10.00">+</text>
<text text-anchor="start" x="87" y="-366.5" font-family="Helvetica,sans-Serif" font-size="10.00">void PackFromVector4</text>
<text text-anchor="start" x="87" y="-355.5" font-family="Helvetica,sans-Serif" font-size="10.00">(Vector4 vector)</text>
<text text-anchor="start" x="74" y="-340.5" font-family="Helvetica,sans-Serif" font-size="10.00">+</text>
<text text-anchor="start" x="87" y="-340.5" font-family="Helvetica,sans-Serif" font-size="10.00">Vector4 ToVector4()</text>
<polygon fill="#666666" stroke="#666666" points="70,-391.5 70,-391.5 200,-391.5 200,-391.5 70,-391.5"/>
<polygon fill="#666666" stroke="#666666" points="70,-376.5 70,-376.5 85,-376.5 85,-376.5 70,-376.5"/>
<polygon fill="#666666" stroke="#666666" points="85,-376.5 85,-376.5 200,-376.5 200,-376.5 85,-376.5"/>
<polygon fill="none" stroke="#666666" points="70,-334 70,-409 200,-409 200,-334 70,-334"/>
</a>
</g>
</g>
<!-- Node2&#45;&gt;Node1 -->
<g id="edge1_Node000001_Node000002" class="edge">
<title>Node2&#45;&gt;Node1</title>
<g id="a_edge1_Node000001_Node000002"><a xlink:title=" ">
<path fill="none" stroke="#63b8ff" d="M153.17,-324.37C157.63,-313.04 162.64,-300.32 167.88,-287.01"/>
<polygon fill="none" stroke="#63b8ff" points="149.81,-323.35 149.4,-333.94 156.32,-325.92 149.81,-323.35"/>
</a>
</g>
</g>
<!-- Node3 -->
<g id="Node000003" class="node">
<title>Node3</title>
<g id="a_Node000003"><a xlink:href="../../d6/d99/interfaceMicrosoft_1_1Xna_1_1Framework_1_1Graphics_1_1PackedVector_1_1IPackedVector.html" target="_top" xlink:title=" ">
<polygon fill="white" stroke="transparent" points="215,-553 55,-553 55,-456 215,-456 215,-553"/>
<text text-anchor="start" x="60" y="-540.5" font-family="Helvetica,sans-Serif" font-size="10.00">Microsoft.Xna.Framework.</text>
<text text-anchor="start" x="60" y="-529.5" font-family="Helvetica,sans-Serif" font-size="10.00">Graphics.PackedVector.IPacked</text>
<text text-anchor="start" x="88" y="-518.5" font-family="Helvetica,sans-Serif" font-size="10.00">Vector&lt; TPacked &gt;</text>
<text text-anchor="start" x="66.5" y="-503.5" font-family="Helvetica,sans-Serif" font-size="10.00">+</text>
<text text-anchor="start" x="87" y="-503.5" font-family="Helvetica,sans-Serif" font-size="10.00">TPacked PackedValue</text>
<text text-anchor="start" x="66.5" y="-488.5" font-family="Helvetica,sans-Serif" font-size="10.00">+</text>
<text text-anchor="start" x="87" y="-488.5" font-family="Helvetica,sans-Serif" font-size="10.00">void PackFromVector4</text>
<text text-anchor="start" x="87" y="-477.5" font-family="Helvetica,sans-Serif" font-size="10.00">(Vector4 vector)</text>
<text text-anchor="start" x="66.5" y="-462.5" font-family="Helvetica,sans-Serif" font-size="10.00">+</text>
<text text-anchor="start" x="87" y="-462.5" font-family="Helvetica,sans-Serif" font-size="10.00">Vector4 ToVector4()</text>
<polygon fill="#666666" stroke="#666666" points="55,-513.5 55,-513.5 215,-513.5 215,-513.5 55,-513.5"/>
<polygon fill="#666666" stroke="#666666" points="55,-498.5 55,-498.5 85,-498.5 85,-498.5 55,-498.5"/>
<polygon fill="#666666" stroke="#666666" points="85,-498.5 85,-498.5 215,-498.5 215,-498.5 85,-498.5"/>
<polygon fill="none" stroke="#666666" points="55,-456 55,-553 215,-553 215,-456 55,-456"/>
</a>
</g>
</g>
<!-- Node3&#45;&gt;Node2 -->
<g id="edge2_Node000002_Node000003" class="edge">
<title>Node3&#45;&gt;Node2</title>
<g id="a_edge2_Node000002_Node000003"><a xlink:title=" ">
<path fill="none" stroke="orange" d="M135,-445.59C135,-433.24 135,-420.53 135,-409.24"/>
<polygon fill="orange" stroke="orange" points="131.5,-445.84 135,-455.84 138.5,-445.84 131.5,-445.84"/>
</a>
</g>
<text text-anchor="middle" x="157.5" y="-430" font-family="Helvetica,sans-Serif" font-size="10.00" fill="grey"> &lt; uint &gt;</text>
</g>
<!-- Node4 -->
<g id="Node000004" class="node">
<title>Node4</title>
<g id="a_Node000004"><a xlink:href="../../d5/df7/classIPackedVector.html" target="_top" xlink:title=" ">
<polygon fill="white" stroke="transparent" points="78,-639 0,-639 0,-590 78,-590 78,-639"/>
<text text-anchor="start" x="5" y="-626.5" font-family="Helvetica,sans-Serif" font-size="10.00">IPackedVector</text>
<text text-anchor="start" x="37" y="-611.5" font-family="Helvetica,sans-Serif" font-size="10.00"> </text>
<text text-anchor="start" x="37" y="-596.5" font-family="Helvetica,sans-Serif" font-size="10.00"> </text>
<polygon fill="#666666" stroke="#666666" points="0,-621.5 0,-621.5 78,-621.5 78,-621.5 0,-621.5"/>
<polygon fill="#666666" stroke="#666666" points="0,-606.5 0,-606.5 78,-606.5 78,-606.5 0,-606.5"/>
<polygon fill="none" stroke="#666666" points="0,-590 0,-639 78,-639 78,-590 0,-590"/>
</a>
</g>
</g>
<!-- Node4&#45;&gt;Node1 -->
<g id="edge4_Node000001_Node000004" class="edge">
<title>Node4&#45;&gt;Node1</title>
<g id="a_edge4_Node000001_Node000004"><a xlink:title=" ">
<path fill="none" stroke="#63b8ff" d="M34.71,-579.66C29.29,-525.28 24.64,-416.22 61,-334 75.65,-300.86 98.09,-269.18 121.67,-241.53"/>
<polygon fill="none" stroke="#63b8ff" points="31.25,-580.21 35.79,-589.78 38.21,-579.46 31.25,-580.21"/>
</a>
</g>
</g>
<!-- Node4&#45;&gt;Node3 -->
<g id="edge3_Node000003_Node000004" class="edge">
<title>Node4&#45;&gt;Node3</title>
<g id="a_edge3_Node000003_Node000004"><a xlink:title=" ">
<path fill="none" stroke="#63b8ff" d="M66.89,-582.12C74.96,-573.04 83.96,-562.92 92.7,-553.08"/>
<polygon fill="none" stroke="#63b8ff" points="64.1,-580 60.07,-589.8 69.33,-584.65 64.1,-580"/>
</a>
</g>
</g>
<!-- Node5 -->
<g id="Node000005" class="node">
<title>Node5</title>
<g id="a_Node000005"><a xlink:href="../../d6/d43/interfaceSystem_1_1IEquatable.html" target="_top" xlink:title=" ">
<polygon fill="white" stroke="transparent" points="338,-396 218,-396 218,-347 338,-347 338,-396"/>
<text text-anchor="start" x="226.5" y="-383.5" font-family="Helvetica,sans-Serif" font-size="10.00">IEquatable&lt; Byte4 &gt;</text>
<text text-anchor="start" x="276" y="-368.5" font-family="Helvetica,sans-Serif" font-size="10.00"> </text>
<text text-anchor="start" x="222" y="-353.5" font-family="Helvetica,sans-Serif" font-size="10.00">+</text>
<text text-anchor="start" x="235" y="-353.5" font-family="Helvetica,sans-Serif" font-size="10.00">bool Equals(T other)</text>
<polygon fill="#666666" stroke="#666666" points="218,-378.5 218,-378.5 338,-378.5 338,-378.5 218,-378.5"/>
<polygon fill="#666666" stroke="#666666" points="218,-363.5 218,-363.5 338,-363.5 338,-363.5 218,-363.5"/>
<polygon fill="none" stroke="#666666" points="218,-347 218,-396 338,-396 338,-347 218,-347"/>
</a>
</g>
</g>
<!-- Node5&#45;&gt;Node1 -->
<g id="edge5_Node000001_Node000005" class="edge">
<title>Node5&#45;&gt;Node1</title>
<g id="a_edge5_Node000001_Node000005"><a xlink:title=" ">
<path fill="none" stroke="#63b8ff" d="M269.93,-336.71C266.58,-322.72 262.46,-305.47 258.07,-287.09"/>
<polygon fill="none" stroke="#63b8ff" points="266.59,-337.83 272.32,-346.74 273.4,-336.2 266.59,-337.83"/>
</a>
</g>
</g>
<!-- Node6 -->
<g id="Node000006" class="node">
<title>Node6</title>
<g id="a_Node000006"><a xlink:href="../../d6/d43/interfaceSystem_1_1IEquatable.html" target="_top" xlink:title=" ">
<polygon fill="white" stroke="transparent" points="364.5,-529 233.5,-529 233.5,-480 364.5,-480 364.5,-529"/>
<text text-anchor="start" x="239" y="-516.5" font-family="Helvetica,sans-Serif" font-size="10.00">System.IEquatable&lt; T &gt;</text>
<text text-anchor="start" x="297.5" y="-501.5" font-family="Helvetica,sans-Serif" font-size="10.00"> </text>
<text text-anchor="start" x="240.5" y="-486.5" font-family="Helvetica,sans-Serif" font-size="10.00">+</text>
<text text-anchor="start" x="256" y="-486.5" font-family="Helvetica,sans-Serif" font-size="10.00">bool Equals(T other)</text>
<polygon fill="#666666" stroke="#666666" points="234,-511.5 234,-511.5 365,-511.5 365,-511.5 234,-511.5"/>
<polygon fill="#666666" stroke="#666666" points="234,-496.5 234,-496.5 365,-496.5 365,-496.5 234,-496.5"/>
<polygon fill="none" stroke="#666666" points="233.5,-480 233.5,-529 364.5,-529 364.5,-480 233.5,-480"/>
</a>
</g>
</g>
<!-- Node6&#45;&gt;Node5 -->
<g id="edge6_Node000005_Node000006" class="edge">
<title>Node6&#45;&gt;Node5</title>
<g id="a_edge6_Node000005_Node000006"><a xlink:title=" ">
<path fill="none" stroke="orange" d="M293.58,-469.71C289.88,-446.61 285.07,-416.58 281.77,-396.05"/>
<polygon fill="orange" stroke="orange" points="290.16,-470.46 295.2,-479.78 297.07,-469.35 290.16,-470.46"/>
</a>
</g>
<text text-anchor="middle" x="315.5" y="-430" font-family="Helvetica,sans-Serif" font-size="10.00" fill="grey"> &lt; Byte4 &gt;</text>
</g>
<!-- Node7 -->
<g id="Node000007" class="node">
<title>Node7</title>
<g id="a_Node000007"><a xlink:title=" ">
<polygon fill="white" stroke="transparent" points="385.5,-396 356.5,-396 356.5,-347 385.5,-347 385.5,-396"/>
<text text-anchor="start" x="362" y="-383.5" font-family="Helvetica,sans-Serif" font-size="10.00">uint</text>
<text text-anchor="start" x="369.5" y="-368.5" font-family="Helvetica,sans-Serif" font-size="10.00"> </text>
<text text-anchor="start" x="369.5" y="-353.5" font-family="Helvetica,sans-Serif" font-size="10.00"> </text>
<polygon fill="#666666" stroke="#666666" points="357,-378.5 357,-378.5 386,-378.5 386,-378.5 357,-378.5"/>
<polygon fill="#666666" stroke="#666666" points="357,-363.5 357,-363.5 386,-363.5 386,-363.5 357,-363.5"/>
<polygon fill="none" stroke="#666666" points="356.5,-347 356.5,-396 385.5,-396 385.5,-347 356.5,-347"/>
</a>
</g>
</g>
<!-- Node7&#45;&gt;Node1 -->
<g id="edge7_Node000001_Node000007" class="edge">
<title>Node7&#45;&gt;Node1</title>
<g id="a_edge7_Node000001_Node000007"><a xlink:title=" ">
<path fill="none" stroke="#63b8ff" d="M356.37,-348C347.83,-334.87 336.22,-317.03 323.41,-297.34"/>
<polygon fill="none" stroke="#63b8ff" points="323.37,-297.28 316.75,-294.43 316.83,-287.22 323.45,-290.06 323.37,-297.28"/>
</a>
</g>
<text text-anchor="middle" x="369.5" y="-308" font-family="Helvetica,sans-Serif" font-size="10.00" fill="grey"> &#45;packedValue</text>
</g>
</g>
</svg>
