<?xml version="1.0" encoding="UTF-8" standalone="no"?>
<!DOCTYPE svg PUBLIC "-//W3C//DTD SVG 1.1//EN"
 "http://www.w3.org/Graphics/SVG/1.1/DTD/svg11.dtd">
<!-- Generated by graphviz version 2.43.0 (0)
 -->
<!-- Title: Terraria.GameContent.NPCHeadDrawRenderTargetContent Pages: 1 -->
<!--zoomable 950 -->

<svg id="main" version="1.1" xmlns="http://www.w3.org/2000/svg" xmlns:xlink="http://www.w3.org/1999/xlink" xml:space="preserve" onload="init(evt)">
<style type="text/css"><![CDATA[
.node, .edge {opacity: 0.7;}
.node.selected, .edge.selected {opacity: 1;}
.edge:hover path { stroke: red; }
.edge:hover polygon { stroke: red; fill: red; }
]]></style>

<defs>
  <circle id="rim" cx="0" cy="0" r="7"/>
  <circle id="rim2" cx="0" cy="0" r="3.5"/>
  <g id="zoomPlus">
    <use xlink:href="#rim" fill="#404040"><set attributeName="fill" to="#808080" begin="zoomplus.mouseover" end="zoomplus.mouseout"/></use>
    <path d="M-4,0h8M0,-4v8" fill="none" stroke="white" stroke-width="1.5" pointer-events="none"/>
  </g>
  <g id="zoomMin">
    <use xlink:href="#rim" fill="#404040"><set attributeName="fill" to="#808080" begin="zoomminus.mouseover" end="zoomminus.mouseout"/></use>
    <path d="M-4,0h8" fill="none" stroke="white" stroke-width="1.5" pointer-events="none"/>
  </g>
  <g id="arrowUp" transform="translate(30 24)">
    <use xlink:href="#rim"/>
    <path pointer-events="none" fill="none" stroke="white" stroke-width="1.5" d="M0,-3.0v7 M-2.5,-0.5L0,-3.0L2.5,-0.5"/>
  </g>
  <g id="arrowRight" transform="rotate(90) translate(36 -43)">
    <use xlink:href="#rim"/>
    <path pointer-events="none" fill="none" stroke="white" stroke-width="1.5" d="M0,-3.0v7 M-2.5,-0.5L0,-3.0L2.5,-0.5"/>
  </g>
  <g id="arrowDown" transform="rotate(180) translate(-30 -48)">
    <use xlink:href="#rim"/>
    <path pointer-events="none" fill="none" stroke="white" stroke-width="1.5" d="M0,-3.0v7 M-2.5,-0.5L0,-3.0L2.5,-0.5"/>
  </g>
  <g id="arrowLeft" transform="rotate(270) translate(-36 17)">
    <use xlink:href="#rim"/>
    <path pointer-events="none" fill="none" stroke="white" stroke-width="1.5" d="M0,-3.0v7 M-2.5,-0.5L0,-3.0L2.5,-0.5"/>
  </g>
  <g id="resetDef">
    <use xlink:href="#rim2" fill="#404040"><set attributeName="fill" to="#808080" begin="reset.mouseover" end="reset.mouseout"/></use>
  </g>
</defs>
<script type="application/ecmascript">
var viewWidth = 207;
var viewHeight = 950;
var sectionId = 'dynsection-0';
</script>
<script type="application/ecmascript" xlink:href="../../svg.min.js"/>
<svg id="graph" class="graph">
<g id="viewport">
<title>Terraria.GameContent.NPCHeadDrawRenderTargetContent</title>
<!-- Node1 -->
<g id="Node000001" class="node">
<title>Node1</title>
<g id="a_Node000001"><a xlink:title=" ">
<polygon fill="#999999" stroke="transparent" points="185,-123 14,-123 14,0 185,0 185,-123"/>
<text text-anchor="start" x="21.5" y="-110.5" font-family="Helvetica,sans-Serif" font-size="10.00">Terraria.GameContent.NPCHead</text>
<text text-anchor="start" x="35.5" y="-99.5" font-family="Helvetica,sans-Serif" font-size="10.00">DrawRenderTargetContent</text>
<text text-anchor="start" x="21" y="-84.5" font-family="Helvetica,sans-Serif" font-size="10.00">&#45;</text>
<text text-anchor="start" x="31.5" y="-84.5" font-family="Helvetica,sans-Serif" font-size="10.00">Texture2D _theTexture</text>
<text text-anchor="start" x="18.5" y="-69.5" font-family="Helvetica,sans-Serif" font-size="10.00">+</text>
<text text-anchor="start" x="31.5" y="-69.5" font-family="Helvetica,sans-Serif" font-size="10.00">void SetTexture(Texture2</text>
<text text-anchor="start" x="31.5" y="-58.5" font-family="Helvetica,sans-Serif" font-size="10.00">D texture)</text>
<text text-anchor="start" x="18.5" y="-43.5" font-family="Helvetica,sans-Serif" font-size="10.00">+</text>
<text text-anchor="start" x="31.5" y="-43.5" font-family="Helvetica,sans-Serif" font-size="10.00">NPCHeadDrawRenderTarget</text>
<text text-anchor="start" x="31.5" y="-32.5" font-family="Helvetica,sans-Serif" font-size="10.00">Content()</text>
<text text-anchor="start" x="18.5" y="-17.5" font-family="Helvetica,sans-Serif" font-size="10.00">~</text>
<text text-anchor="start" x="31.5" y="-17.5" font-family="Helvetica,sans-Serif" font-size="10.00">override void DrawTheContent</text>
<text text-anchor="start" x="31.5" y="-6.5" font-family="Helvetica,sans-Serif" font-size="10.00">(SpriteBatch spriteBatch)</text>
<polygon fill="#666666" stroke="#666666" points="14.5,-94.5 14.5,-94.5 185.5,-94.5 185.5,-94.5 14.5,-94.5"/>
<polygon fill="#666666" stroke="#666666" points="14.5,-79.5 14.5,-79.5 29.5,-79.5 29.5,-79.5 14.5,-79.5"/>
<polygon fill="#666666" stroke="#666666" points="29.5,-79.5 29.5,-79.5 185.5,-79.5 185.5,-79.5 29.5,-79.5"/>
<polygon fill="none" stroke="#666666" points="14,0 14,-123 185,-123 185,0 14,0"/>
</a>
</g>
</g>
<!-- Node2 -->
<g id="Node000002" class="node">
<title>Node2</title>
<g id="a_Node000002"><a xlink:href="../../df/d99/classTerraria_1_1GameContent_1_1AnOutlinedDrawRenderTargetContent.html" target="_top" xlink:title=" ">
<polygon fill="white" stroke="transparent" points="199,-379 0,-379 0,-159 199,-159 199,-379"/>
<text text-anchor="start" x="27.5" y="-367" font-family="Helvetica,sans-Serif" font-size="10.00">AnOutlinedDrawRenderTarget</text>
<text text-anchor="start" x="80.5" y="-356" font-family="Helvetica,sans-Serif" font-size="10.00">Content</text>
<text text-anchor="start" x="4.5" y="-341" font-family="Helvetica,sans-Serif" font-size="10.00">+</text>
<text text-anchor="start" x="17.5" y="-341" font-family="Helvetica,sans-Serif" font-size="10.00">Color _borderColor</text>
<text text-anchor="start" x="4.5" y="-326" font-family="Helvetica,sans-Serif" font-size="10.00">#</text>
<text text-anchor="start" x="17.5" y="-326" font-family="Helvetica,sans-Serif" font-size="10.00">int width</text>
<text text-anchor="start" x="4.5" y="-311" font-family="Helvetica,sans-Serif" font-size="10.00">#</text>
<text text-anchor="start" x="17.5" y="-311" font-family="Helvetica,sans-Serif" font-size="10.00">int height</text>
<text text-anchor="start" x="7" y="-296" font-family="Helvetica,sans-Serif" font-size="10.00">&#45;</text>
<text text-anchor="start" x="17.5" y="-296" font-family="Helvetica,sans-Serif" font-size="10.00">EffectPass _coloringShader</text>
<text text-anchor="start" x="7" y="-281" font-family="Helvetica,sans-Serif" font-size="10.00">&#45;</text>
<text text-anchor="start" x="17.5" y="-281" font-family="Helvetica,sans-Serif" font-size="10.00">RenderTarget2D _helperTarget</text>
<text text-anchor="start" x="4.5" y="-266" font-family="Helvetica,sans-Serif" font-size="10.00">+</text>
<text text-anchor="start" x="17.5" y="-266" font-family="Helvetica,sans-Serif" font-size="10.00">void UseColor(Color</text>
<text text-anchor="start" x="17.5" y="-255" font-family="Helvetica,sans-Serif" font-size="10.00"> color)</text>
<text text-anchor="start" x="4.5" y="-240" font-family="Helvetica,sans-Serif" font-size="10.00">~</text>
<text text-anchor="start" x="17.5" y="-240" font-family="Helvetica,sans-Serif" font-size="10.00">void DrawTheContent</text>
<text text-anchor="start" x="17.5" y="-229" font-family="Helvetica,sans-Serif" font-size="10.00">(SpriteBatch spriteBatch)</text>
<text text-anchor="start" x="4.5" y="-214" font-family="Helvetica,sans-Serif" font-size="10.00">#</text>
<text text-anchor="start" x="17.5" y="-214" font-family="Helvetica,sans-Serif" font-size="10.00">override void HandleUseReqest</text>
<text text-anchor="start" x="17.5" y="-203" font-family="Helvetica,sans-Serif" font-size="10.00">(GraphicsDevice device, SpriteBatch</text>
<text text-anchor="start" x="17.5" y="-192" font-family="Helvetica,sans-Serif" font-size="10.00"> spriteBatch)</text>
<text text-anchor="start" x="4.5" y="-177" font-family="Helvetica,sans-Serif" font-size="10.00">#</text>
<text text-anchor="start" x="17.5" y="-177" font-family="Helvetica,sans-Serif" font-size="10.00">AnOutlinedDrawRenderTarget</text>
<text text-anchor="start" x="17.5" y="-166" font-family="Helvetica,sans-Serif" font-size="10.00">Content()</text>
<polygon fill="#666666" stroke="#666666" points="0.5,-351 0.5,-351 199.5,-351 199.5,-351 0.5,-351"/>
<polygon fill="#666666" stroke="#666666" points="0.5,-276 0.5,-276 15.5,-276 15.5,-276 0.5,-276"/>
<polygon fill="#666666" stroke="#666666" points="15.5,-276 15.5,-276 199.5,-276 199.5,-276 15.5,-276"/>
<polygon fill="none" stroke="#666666" points="0,-159 0,-379 199,-379 199,-159 0,-159"/>
</a>
</g>
</g>
<!-- Node2&#45;&gt;Node1 -->
<g id="edge1_Node000001_Node000002" class="edge">
<title>Node2&#45;&gt;Node1</title>
<g id="a_edge1_Node000001_Node000002"><a xlink:title=" ">
<path fill="none" stroke="#63b8ff" d="M99.5,-148.89C99.5,-140.04 99.5,-131.36 99.5,-123.11"/>
<polygon fill="none" stroke="#63b8ff" points="96,-148.93 99.5,-158.93 103,-148.93 96,-148.93"/>
</a>
</g>
</g>
<!-- Node3 -->
<g id="Node000003" class="node">
<title>Node3</title>
<g id="a_Node000003"><a xlink:href="../../dc/d06/classTerraria_1_1GameContent_1_1ARenderTargetContentByRequest.html" target="_top" xlink:title=" ">
<polygon fill="white" stroke="transparent" points="195,-820 4,-820 4,-415 195,-415 195,-820"/>
<text text-anchor="start" x="18.5" y="-807.5" font-family="Helvetica,sans-Serif" font-size="10.00">ARenderTargetContentByRequest</text>
<text text-anchor="start" x="8.5" y="-792.5" font-family="Helvetica,sans-Serif" font-size="10.00">+</text>
<text text-anchor="start" x="21.5" y="-792.5" font-family="Helvetica,sans-Serif" font-size="10.00">bool IsReady</text>
<text text-anchor="start" x="8.5" y="-777.5" font-family="Helvetica,sans-Serif" font-size="10.00">#</text>
<text text-anchor="start" x="21.5" y="-777.5" font-family="Helvetica,sans-Serif" font-size="10.00">RenderTarget2D _target</text>
<text text-anchor="start" x="8.5" y="-762.5" font-family="Helvetica,sans-Serif" font-size="10.00">#</text>
<text text-anchor="start" x="21.5" y="-762.5" font-family="Helvetica,sans-Serif" font-size="10.00">bool _wasPrepared</text>
<text text-anchor="start" x="11" y="-747.5" font-family="Helvetica,sans-Serif" font-size="10.00">&#45;</text>
<text text-anchor="start" x="21.5" y="-747.5" font-family="Helvetica,sans-Serif" font-size="10.00">bool _wasRequested</text>
<text text-anchor="start" x="8.5" y="-732.5" font-family="Helvetica,sans-Serif" font-size="10.00">+</text>
<text text-anchor="start" x="21.5" y="-732.5" font-family="Helvetica,sans-Serif" font-size="10.00">void Request()</text>
<text text-anchor="start" x="8.5" y="-717.5" font-family="Helvetica,sans-Serif" font-size="10.00">+</text>
<text text-anchor="start" x="21.5" y="-717.5" font-family="Helvetica,sans-Serif" font-size="10.00">RenderTarget2D GetTarget()</text>
<text text-anchor="start" x="8.5" y="-702.5" font-family="Helvetica,sans-Serif" font-size="10.00">+</text>
<text text-anchor="start" x="21.5" y="-702.5" font-family="Helvetica,sans-Serif" font-size="10.00">void PrepareRenderTarget</text>
<text text-anchor="start" x="21.5" y="-691.5" font-family="Helvetica,sans-Serif" font-size="10.00">(GraphicsDevice device,</text>
<text text-anchor="start" x="21.5" y="-680.5" font-family="Helvetica,sans-Serif" font-size="10.00"> SpriteBatch spriteBatch)</text>
<text text-anchor="start" x="8.5" y="-665.5" font-family="Helvetica,sans-Serif" font-size="10.00">+</text>
<text text-anchor="start" x="21.5" y="-665.5" font-family="Helvetica,sans-Serif" font-size="10.00">void Reset()</text>
<text text-anchor="start" x="8.5" y="-650.5" font-family="Helvetica,sans-Serif" font-size="10.00">#</text>
<text text-anchor="start" x="21.5" y="-650.5" font-family="Helvetica,sans-Serif" font-size="10.00">void HandleUseReqest</text>
<text text-anchor="start" x="21.5" y="-639.5" font-family="Helvetica,sans-Serif" font-size="10.00">(GraphicsDevice device,</text>
<text text-anchor="start" x="21.5" y="-628.5" font-family="Helvetica,sans-Serif" font-size="10.00"> SpriteBatch spriteBatch)</text>
<text text-anchor="start" x="8.5" y="-613.5" font-family="Helvetica,sans-Serif" font-size="10.00">#</text>
<text text-anchor="start" x="21.5" y="-613.5" font-family="Helvetica,sans-Serif" font-size="10.00">void PrepareARenderTarget</text>
<text text-anchor="start" x="21.5" y="-602.5" font-family="Helvetica,sans-Serif" font-size="10.00">_AndListenToEvents(ref</text>
<text text-anchor="start" x="21.5" y="-591.5" font-family="Helvetica,sans-Serif" font-size="10.00"> RenderTarget2D target,</text>
<text text-anchor="start" x="21.5" y="-580.5" font-family="Helvetica,sans-Serif" font-size="10.00"> GraphicsDevice device, int</text>
<text text-anchor="start" x="21.5" y="-569.5" font-family="Helvetica,sans-Serif" font-size="10.00"> neededWidth, int neededHeight,</text>
<text text-anchor="start" x="21.5" y="-558.5" font-family="Helvetica,sans-Serif" font-size="10.00"> RenderTargetUsage usage)</text>
<text text-anchor="start" x="8.5" y="-543.5" font-family="Helvetica,sans-Serif" font-size="10.00">#</text>
<text text-anchor="start" x="21.5" y="-543.5" font-family="Helvetica,sans-Serif" font-size="10.00">void PrepareARenderTarget</text>
<text text-anchor="start" x="21.5" y="-532.5" font-family="Helvetica,sans-Serif" font-size="10.00">_WithoutListeningToEvents</text>
<text text-anchor="start" x="21.5" y="-521.5" font-family="Helvetica,sans-Serif" font-size="10.00">(ref RenderTarget2D target,</text>
<text text-anchor="start" x="21.5" y="-510.5" font-family="Helvetica,sans-Serif" font-size="10.00"> GraphicsDevice device, int</text>
<text text-anchor="start" x="21.5" y="-499.5" font-family="Helvetica,sans-Serif" font-size="10.00"> neededWidth, int neededHeight,</text>
<text text-anchor="start" x="21.5" y="-488.5" font-family="Helvetica,sans-Serif" font-size="10.00"> RenderTargetUsage usage)</text>
<text text-anchor="start" x="8.5" y="-473.5" font-family="Helvetica,sans-Serif" font-size="10.00">#</text>
<text text-anchor="start" x="21.5" y="-473.5" font-family="Helvetica,sans-Serif" font-size="10.00">ARenderTargetContentByRequest()</text>
<text text-anchor="start" x="11" y="-458.5" font-family="Helvetica,sans-Serif" font-size="10.00">&#45;</text>
<text text-anchor="start" x="21.5" y="-458.5" font-family="Helvetica,sans-Serif" font-size="10.00">void target_Disposing</text>
<text text-anchor="start" x="21.5" y="-447.5" font-family="Helvetica,sans-Serif" font-size="10.00">(object sender, EventArgs e)</text>
<text text-anchor="start" x="11" y="-432.5" font-family="Helvetica,sans-Serif" font-size="10.00">&#45;</text>
<text text-anchor="start" x="21.5" y="-432.5" font-family="Helvetica,sans-Serif" font-size="10.00">void target_ContentLost</text>
<text text-anchor="start" x="21.5" y="-421.5" font-family="Helvetica,sans-Serif" font-size="10.00">(object sender, EventArgs e)</text>
<polygon fill="#666666" stroke="#666666" points="4.5,-802.5 4.5,-802.5 195.5,-802.5 195.5,-802.5 4.5,-802.5"/>
<polygon fill="#666666" stroke="#666666" points="4.5,-742.5 4.5,-742.5 19.5,-742.5 19.5,-742.5 4.5,-742.5"/>
<polygon fill="#666666" stroke="#666666" points="19.5,-742.5 19.5,-742.5 195.5,-742.5 195.5,-742.5 19.5,-742.5"/>
<polygon fill="none" stroke="#666666" points="4,-415 4,-820 195,-820 195,-415 4,-415"/>
</a>
</g>
</g>
<!-- Node3&#45;&gt;Node2 -->
<g id="edge2_Node000002_Node000003" class="edge">
<title>Node3&#45;&gt;Node2</title>
<g id="a_edge2_Node000002_Node000003"><a xlink:title=" ">
<path fill="none" stroke="#63b8ff" d="M99.5,-404.69C99.5,-396.01 99.5,-387.46 99.5,-379.14"/>
<polygon fill="none" stroke="#63b8ff" points="96,-404.94 99.5,-414.94 103,-404.94 96,-404.94"/>
</a>
</g>
</g>
<!-- Node4 -->
<g id="Node000004" class="node">
<title>Node4</title>
<g id="a_Node000004"><a xlink:href="../../d0/dd4/interfaceTerraria_1_1GameContent_1_1INeedRenderTargetContent.html" target="_top" xlink:title=" ">
<polygon fill="white" stroke="transparent" points="173.5,-942 25.5,-942 25.5,-856 173.5,-856 173.5,-942"/>
<text text-anchor="start" x="33.5" y="-930" font-family="Helvetica,sans-Serif" font-size="10.00">INeedRenderTargetContent</text>
<text text-anchor="start" x="29.5" y="-915" font-family="Helvetica,sans-Serif" font-size="10.00">+</text>
<text text-anchor="start" x="42.5" y="-915" font-family="Helvetica,sans-Serif" font-size="10.00">bool IsReady</text>
<text text-anchor="start" x="29.5" y="-900" font-family="Helvetica,sans-Serif" font-size="10.00">+</text>
<text text-anchor="start" x="42.5" y="-900" font-family="Helvetica,sans-Serif" font-size="10.00">void PrepareRenderTarget</text>
<text text-anchor="start" x="42.5" y="-889" font-family="Helvetica,sans-Serif" font-size="10.00">(GraphicsDevice device,</text>
<text text-anchor="start" x="42.5" y="-878" font-family="Helvetica,sans-Serif" font-size="10.00"> SpriteBatch spriteBatch)</text>
<text text-anchor="start" x="29.5" y="-863" font-family="Helvetica,sans-Serif" font-size="10.00">+</text>
<text text-anchor="start" x="42.5" y="-863" font-family="Helvetica,sans-Serif" font-size="10.00">void Reset()</text>
<polygon fill="#666666" stroke="#666666" points="25.5,-925 25.5,-925 173.5,-925 173.5,-925 25.5,-925"/>
<polygon fill="#666666" stroke="#666666" points="25.5,-910 25.5,-910 40.5,-910 40.5,-910 25.5,-910"/>
<polygon fill="#666666" stroke="#666666" points="40.5,-910 40.5,-910 173.5,-910 173.5,-910 40.5,-910"/>
<polygon fill="none" stroke="#666666" points="25.5,-856 25.5,-942 173.5,-942 173.5,-856 25.5,-856"/>
</a>
</g>
</g>
<!-- Node4&#45;&gt;Node3 -->
<g id="edge3_Node000003_Node000004" class="edge">
<title>Node4&#45;&gt;Node3</title>
<g id="a_edge3_Node000003_Node000004"><a xlink:title=" ">
<path fill="none" stroke="#63b8ff" d="M99.5,-845.77C99.5,-837.8 99.5,-829.2 99.5,-820.17"/>
<polygon fill="none" stroke="#63b8ff" points="96,-845.85 99.5,-855.85 103,-845.85 96,-845.85"/>
</a>
</g>
</g>
</g>
</svg>

<g id="navigator" transform="translate(0 0)" fill="#404254">
  <rect fill="#f2f5e9" fill-opacity="0.5" stroke="#606060" stroke-width=".5" x="0" y="0" width="60" height="60"/>
  <use id="zoomplus" xlink:href="#zoomPlus" x="17" y="9" onmousedown="handleZoom(evt,'in')"/>
  <use id="zoomminus" xlink:href="#zoomMin" x="42" y="9" onmousedown="handleZoom(evt,'out')"/>
  <use id="reset" xlink:href="#resetDef" x="30" y="36" onmousedown="handleReset()"/>
   <use id="arrowup" xlink:href="#arrowUp" x="0" y="0" onmousedown="handlePan(0,-1)"/>
  <use id="arrowright" xlink:href="#arrowRight" x="0" y="0" onmousedown="handlePan(1,0)"/>
  <use id="arrowdown" xlink:href="#arrowDown" x="0" y="0" onmousedown="handlePan(0,1)"/>
  <use id="arrowleft" xlink:href="#arrowLeft" x="0" y="0" onmousedown="handlePan(-1,0)"/>
</g>
<svg viewBox="0 0 15 15" width="100%" height="30px" preserveAspectRatio="xMaxYMin meet">
 <g id="arrow_out" transform="scale(0.3 0.3)">
  <a xlink:href="classTerraria_1_1GameContent_1_1NPCHeadDrawRenderTargetContent__inherit__graph_org.svg" target="_base">
   <rect id="button" ry="5" rx="5" y="6" x="6" height="38" width="38"
        fill="#f2f5e9" fill-opacity="0.5" stroke="#606060" stroke-width="1.0"/>
   <path id="arrow"
     d="M 11.500037,31.436501 C 11.940474,20.09759 22.043105,11.32322 32.158766,21.979434 L 37.068811,17.246167 C 37.068811,17.246167 37.088388,32 37.088388,32 L 22.160133,31.978069 C 22.160133,31.978069 26.997745,27.140456 26.997745,27.140456 C 18.528582,18.264221 13.291696,25.230495 11.500037,31.436501 z"
     style="fill:#404040;"/>
  </a>
 </g>
</svg>

<style type='text/css'>
<![CDATA[
[data-mouse-over-selected='false'] { opacity: 0.7; }
[data-mouse-over-selected='true']  { opacity: 1.0; }
]]>
</style>
<script type="application/ecmascript"><![CDATA[
document.addEventListener('DOMContentLoaded', (event) => {
  highlightEdges();
  highlightAdjacentNodes();
});
]]></script>
</svg>
