<?xml version="1.0" encoding="UTF-8" standalone="no"?>
<!DOCTYPE svg PUBLIC "-//W3C//DTD SVG 1.1//EN"
 "http://www.w3.org/Graphics/SVG/1.1/DTD/svg11.dtd">
<!-- Generated by graphviz version 2.43.0 (0)
 -->
<!-- Title: Terraria.GameContent.Animations.Segments.SpriteSegment.MaskedFadeEffect Pages: 1 -->
<svg width="624pt" height="585pt"
 viewBox="0.00 0.00 623.50 585.00" xmlns="http://www.w3.org/2000/svg" xmlns:xlink="http://www.w3.org/1999/xlink">
<g id="graph0" class="graph" transform="scale(1 1) rotate(0) translate(4 581)">
<title>Terraria.GameContent.Animations.Segments.SpriteSegment.MaskedFadeEffect</title>
<!-- Node1 -->
<g id="Node000001" class="node">
<title>Node1</title>
<g id="a_Node000001"><a xlink:title=" ">
<polygon fill="#999999" stroke="transparent" points="405,-282 180,-282 180,0 405,0 405,-282"/>
<text text-anchor="start" x="185.5" y="-270" font-family="Helvetica,sans-Serif" font-size="10.00">Terraria.GameContent.Animations.</text>
<text text-anchor="start" x="185.5" y="-259" font-family="Helvetica,sans-Serif" font-size="10.00">Segments.SpriteSegment.MaskedFadeEffect</text>
<text text-anchor="start" x="291" y="-244" font-family="Helvetica,sans-Serif" font-size="10.00"> </text>
<text text-anchor="start" x="184.5" y="-229" font-family="Helvetica,sans-Serif" font-size="10.00">+</text>
<text text-anchor="start" x="197.5" y="-229" font-family="Helvetica,sans-Serif" font-size="10.00">delegate Matrix GetMatrix</text>
<text text-anchor="start" x="197.5" y="-218" font-family="Helvetica,sans-Serif" font-size="10.00">Action()</text>
<text text-anchor="start" x="184.5" y="-203" font-family="Helvetica,sans-Serif" font-size="10.00">+</text>
<text text-anchor="start" x="197.5" y="-203" font-family="Helvetica,sans-Serif" font-size="10.00">MaskedFadeEffect(</text>
<text text-anchor="start" x="197.5" y="-192" font-family="Helvetica,sans-Serif" font-size="10.00">[Optional] GetMatrixAction</text>
<text text-anchor="start" x="197.5" y="-181" font-family="Helvetica,sans-Serif" font-size="10.00"> fetchMatrixMethod, string</text>
<text text-anchor="start" x="197.5" y="-170" font-family="Helvetica,sans-Serif" font-size="10.00"> shaderKey=&quot;MaskedFade&quot;, int</text>
<text text-anchor="start" x="197.5" y="-159" font-family="Helvetica,sans-Serif" font-size="10.00"> verticalFrameCount=1, int verticalFrame</text>
<text text-anchor="start" x="197.5" y="-148" font-family="Helvetica,sans-Serif" font-size="10.00">Wait=1)</text>
<text text-anchor="start" x="184.5" y="-133" font-family="Helvetica,sans-Serif" font-size="10.00">+</text>
<text text-anchor="start" x="197.5" y="-133" font-family="Helvetica,sans-Serif" font-size="10.00">void BeforeDrawing</text>
<text text-anchor="start" x="197.5" y="-122" font-family="Helvetica,sans-Serif" font-size="10.00">(ref GameAnimationSegment</text>
<text text-anchor="start" x="197.5" y="-111" font-family="Helvetica,sans-Serif" font-size="10.00"> info, ref DrawData drawData)</text>
<text text-anchor="start" x="184.5" y="-96" font-family="Helvetica,sans-Serif" font-size="10.00">+</text>
<text text-anchor="start" x="197.5" y="-96" font-family="Helvetica,sans-Serif" font-size="10.00">MaskedFadeEffect WithPan</text>
<text text-anchor="start" x="197.5" y="-85" font-family="Helvetica,sans-Serif" font-size="10.00">X(Panning panning)</text>
<text text-anchor="start" x="184.5" y="-70" font-family="Helvetica,sans-Serif" font-size="10.00">+</text>
<text text-anchor="start" x="197.5" y="-70" font-family="Helvetica,sans-Serif" font-size="10.00">MaskedFadeEffect WithPan</text>
<text text-anchor="start" x="197.5" y="-59" font-family="Helvetica,sans-Serif" font-size="10.00">Y(Panning panning)</text>
<text text-anchor="start" x="184.5" y="-44" font-family="Helvetica,sans-Serif" font-size="10.00">+</text>
<text text-anchor="start" x="197.5" y="-44" font-family="Helvetica,sans-Serif" font-size="10.00">void AfterDrawing(ref</text>
<text text-anchor="start" x="197.5" y="-33" font-family="Helvetica,sans-Serif" font-size="10.00"> GameAnimationSegment</text>
<text text-anchor="start" x="197.5" y="-22" font-family="Helvetica,sans-Serif" font-size="10.00"> info, ref DrawData drawData)</text>
<text text-anchor="start" x="187" y="-7" font-family="Helvetica,sans-Serif" font-size="10.00">&#45;</text>
<text text-anchor="start" x="197.5" y="-7" font-family="Helvetica,sans-Serif" font-size="10.00">Matrix DefaultFetchMatrix()</text>
<polygon fill="#666666" stroke="#666666" points="180.5,-254 180.5,-254 405.5,-254 405.5,-254 180.5,-254"/>
<polygon fill="#666666" stroke="#666666" points="180.5,-239 180.5,-239 405.5,-239 405.5,-239 180.5,-239"/>
<polygon fill="none" stroke="#666666" points="180,0 180,-282 405,-282 405,0 180,0"/>
</a>
</g>
</g>
<!-- Node2 -->
<g id="Node000002" class="node">
<title>Node2</title>
<g id="a_Node000002"><a xlink:href="../../d9/d8b/interfaceTerraria_1_1GameContent_1_1Animations_1_1Segments_1_1SpriteSegment_1_1IShaderEffect.html" target="_top" xlink:title=" ">
<polygon fill="white" stroke="transparent" points="169,-448 0,-448 0,-340 169,-340 169,-448"/>
<text text-anchor="start" x="52.5" y="-436" font-family="Helvetica,sans-Serif" font-size="10.00">IShaderEffect</text>
<text text-anchor="start" x="83" y="-421" font-family="Helvetica,sans-Serif" font-size="10.00"> </text>
<text text-anchor="start" x="4.5" y="-406" font-family="Helvetica,sans-Serif" font-size="10.00">+</text>
<text text-anchor="start" x="17.5" y="-406" font-family="Helvetica,sans-Serif" font-size="10.00">void BeforeDrawing</text>
<text text-anchor="start" x="17.5" y="-395" font-family="Helvetica,sans-Serif" font-size="10.00">(ref GameAnimationSegment</text>
<text text-anchor="start" x="17.5" y="-384" font-family="Helvetica,sans-Serif" font-size="10.00"> info, ref DrawData drawData)</text>
<text text-anchor="start" x="4.5" y="-369" font-family="Helvetica,sans-Serif" font-size="10.00">+</text>
<text text-anchor="start" x="17.5" y="-369" font-family="Helvetica,sans-Serif" font-size="10.00">void AfterDrawing(ref</text>
<text text-anchor="start" x="17.5" y="-358" font-family="Helvetica,sans-Serif" font-size="10.00"> GameAnimationSegment</text>
<text text-anchor="start" x="17.5" y="-347" font-family="Helvetica,sans-Serif" font-size="10.00"> info, ref DrawData drawData)</text>
<polygon fill="#666666" stroke="#666666" points="0.5,-431 0.5,-431 169.5,-431 169.5,-431 0.5,-431"/>
<polygon fill="#666666" stroke="#666666" points="0.5,-416 0.5,-416 169.5,-416 169.5,-416 0.5,-416"/>
<polygon fill="none" stroke="#666666" points="0,-340 0,-448 169,-448 169,-340 0,-340"/>
</a>
</g>
</g>
<!-- Node2&#45;&gt;Node1 -->
<g id="edge1_Node000001_Node000002" class="edge">
<title>Node2&#45;&gt;Node1</title>
<g id="a_edge1_Node000001_Node000002"><a xlink:title=" ">
<path fill="none" stroke="#63b8ff" d="M135.2,-331.82C148.91,-315.27 164.31,-296.69 179.98,-277.78"/>
<polygon fill="none" stroke="#63b8ff" points="132.3,-329.84 128.61,-339.77 137.69,-334.3 132.3,-329.84"/>
</a>
</g>
</g>
<!-- Node3 -->
<g id="Node000003" class="node">
<title>Node3</title>
<g id="a_Node000003"><a xlink:title=" ">
<polygon fill="white" stroke="transparent" points="224.5,-418.5 186.5,-418.5 186.5,-369.5 224.5,-369.5 224.5,-418.5"/>
<text text-anchor="start" x="191.5" y="-406" font-family="Helvetica,sans-Serif" font-size="10.00">string</text>
<text text-anchor="start" x="203.5" y="-391" font-family="Helvetica,sans-Serif" font-size="10.00"> </text>
<text text-anchor="start" x="203.5" y="-376" font-family="Helvetica,sans-Serif" font-size="10.00"> </text>
<polygon fill="#666666" stroke="#666666" points="186.5,-401 186.5,-401 224.5,-401 224.5,-401 186.5,-401"/>
<polygon fill="#666666" stroke="#666666" points="186.5,-386 186.5,-386 224.5,-386 224.5,-386 186.5,-386"/>
<polygon fill="none" stroke="#666666" points="186.5,-369.5 186.5,-418.5 224.5,-418.5 224.5,-369.5 186.5,-369.5"/>
</a>
</g>
</g>
<!-- Node3&#45;&gt;Node1 -->
<g id="edge2_Node000001_Node000003" class="edge">
<title>Node3&#45;&gt;Node1</title>
<g id="a_edge2_Node000001_Node000003"><a xlink:title=" ">
<path fill="none" stroke="#63b8ff" d="M208.96,-369.35C212.06,-350.35 217.25,-323.11 224.5,-300 225.16,-297.9 225.84,-295.79 226.53,-293.67"/>
<polygon fill="none" stroke="#63b8ff" points="226.54,-293.66 224.67,-286.69 230.39,-282.29 232.25,-289.26 226.54,-293.66"/>
</a>
</g>
<text text-anchor="middle" x="256.5" y="-308.5" font-family="Helvetica,sans-Serif" font-size="10.00" fill="grey"> &#45;_shaderKey</text>
</g>
<!-- Node4 -->
<g id="Node000004" class="node">
<title>Node4</title>
<g id="a_Node000004"><a xlink:title=" ">
<polygon fill="white" stroke="transparent" points="304,-418.5 281,-418.5 281,-369.5 304,-369.5 304,-418.5"/>
<text text-anchor="start" x="286.5" y="-406" font-family="Helvetica,sans-Serif" font-size="10.00">int</text>
<text text-anchor="start" x="291" y="-391" font-family="Helvetica,sans-Serif" font-size="10.00"> </text>
<text text-anchor="start" x="291" y="-376" font-family="Helvetica,sans-Serif" font-size="10.00"> </text>
<polygon fill="#666666" stroke="#666666" points="281.5,-401 281.5,-401 304.5,-401 304.5,-401 281.5,-401"/>
<polygon fill="#666666" stroke="#666666" points="281.5,-386 281.5,-386 304.5,-386 304.5,-386 281.5,-386"/>
<polygon fill="none" stroke="#666666" points="281,-369.5 281,-418.5 304,-418.5 304,-369.5 281,-369.5"/>
</a>
</g>
</g>
<!-- Node4&#45;&gt;Node1 -->
<g id="edge3_Node000001_Node000004" class="edge">
<title>Node4&#45;&gt;Node1</title>
<g id="a_edge3_Node000001_Node000004"><a xlink:title=" ">
<path fill="none" stroke="#63b8ff" d="M292.5,-369.39C292.5,-350.99 292.5,-323.72 292.5,-294.39"/>
<polygon fill="none" stroke="#63b8ff" points="292.5,-294.17 288.5,-288.17 292.5,-282.17 296.5,-288.17 292.5,-294.17"/>
</a>
</g>
<text text-anchor="middle" x="347" y="-314" font-family="Helvetica,sans-Serif" font-size="10.00" fill="grey"> &#45;_verticalFrameCount</text>
<text text-anchor="middle" x="347" y="-303" font-family="Helvetica,sans-Serif" font-size="10.00" fill="grey">&#45;_verticalFrameWait</text>
</g>
<!-- Node5 -->
<g id="Node000005" class="node">
<title>Node5</title>
<g id="a_Node000005"><a xlink:href="../../da/dc4/structTerraria_1_1GameContent_1_1Animations_1_1Segments_1_1Panning.html" target="_top" xlink:title=" ">
<polygon fill="white" stroke="transparent" points="507,-429.5 328,-429.5 328,-358.5 507,-358.5 507,-429.5"/>
<text text-anchor="start" x="333.5" y="-417" font-family="Helvetica,sans-Serif" font-size="10.00">Terraria.GameContent.Animations.</text>
<text text-anchor="start" x="372.5" y="-406" font-family="Helvetica,sans-Serif" font-size="10.00">Segments.Panning</text>
<text text-anchor="start" x="416" y="-391" font-family="Helvetica,sans-Serif" font-size="10.00"> </text>
<text text-anchor="start" x="347.5" y="-376" font-family="Helvetica,sans-Serif" font-size="10.00">+</text>
<text text-anchor="start" x="375.5" y="-376" font-family="Helvetica,sans-Serif" font-size="10.00">float GetPanAmount</text>
<text text-anchor="start" x="375.5" y="-365" font-family="Helvetica,sans-Serif" font-size="10.00">(float time)</text>
<polygon fill="#666666" stroke="#666666" points="328.5,-401 328.5,-401 507.5,-401 507.5,-401 328.5,-401"/>
<polygon fill="#666666" stroke="#666666" points="328.5,-386 328.5,-386 507.5,-386 507.5,-386 328.5,-386"/>
<polygon fill="none" stroke="#666666" points="328,-358.5 328,-429.5 507,-429.5 507,-358.5 328,-358.5"/>
</a>
</g>
</g>
<!-- Node5&#45;&gt;Node1 -->
<g id="edge4_Node000001_Node000005" class="edge">
<title>Node5&#45;&gt;Node1</title>
<g id="a_edge4_Node000001_Node000005"><a xlink:title=" ">
<path fill="none" stroke="#63b8ff" d="M415.62,-358.44C413.73,-340.49 409.98,-318.5 402.5,-300 401.61,-297.79 400.68,-295.58 399.72,-293.38"/>
<polygon fill="none" stroke="#63b8ff" points="399.67,-293.28 393.53,-289.5 394.65,-282.38 400.8,-286.16 399.67,-293.28"/>
</a>
</g>
<text text-anchor="middle" x="427" y="-314" font-family="Helvetica,sans-Serif" font-size="10.00" fill="grey"> &#45;_panX</text>
<text text-anchor="middle" x="427" y="-303" font-family="Helvetica,sans-Serif" font-size="10.00" fill="grey">&#45;_panY</text>
</g>
<!-- Node6 -->
<g id="Node000006" class="node">
<title>Node6</title>
<g id="a_Node000006"><a xlink:title=" ">
<polygon fill="white" stroke="transparent" points="433.5,-577 401.5,-577 401.5,-528 433.5,-528 433.5,-577"/>
<text text-anchor="start" x="406.5" y="-564.5" font-family="Helvetica,sans-Serif" font-size="10.00">float</text>
<text text-anchor="start" x="415.5" y="-549.5" font-family="Helvetica,sans-Serif" font-size="10.00"> </text>
<text text-anchor="start" x="415.5" y="-534.5" font-family="Helvetica,sans-Serif" font-size="10.00"> </text>
<polygon fill="#666666" stroke="#666666" points="401.5,-559.5 401.5,-559.5 433.5,-559.5 433.5,-559.5 401.5,-559.5"/>
<polygon fill="#666666" stroke="#666666" points="401.5,-544.5 401.5,-544.5 433.5,-544.5 433.5,-544.5 401.5,-544.5"/>
<polygon fill="none" stroke="#666666" points="401.5,-528 401.5,-577 433.5,-577 433.5,-528 401.5,-528"/>
</a>
</g>
</g>
<!-- Node6&#45;&gt;Node5 -->
<g id="edge5_Node000005_Node000006" class="edge">
<title>Node6&#45;&gt;Node5</title>
<g id="a_edge5_Node000005_Node000006"><a xlink:title=" ">
<path fill="none" stroke="#63b8ff" d="M417.5,-527.73C417.5,-505.01 417.5,-470.13 417.5,-441.83"/>
<polygon fill="none" stroke="#63b8ff" points="417.5,-441.76 413.5,-435.76 417.5,-429.76 421.5,-435.76 417.5,-441.76"/>
</a>
</g>
<text text-anchor="middle" x="466.5" y="-502" font-family="Helvetica,sans-Serif" font-size="10.00" fill="grey"> +AmountOverTime</text>
<text text-anchor="middle" x="466.5" y="-491" font-family="Helvetica,sans-Serif" font-size="10.00" fill="grey">+Delay</text>
<text text-anchor="middle" x="466.5" y="-480" font-family="Helvetica,sans-Serif" font-size="10.00" fill="grey">+Duration</text>
<text text-anchor="middle" x="466.5" y="-469" font-family="Helvetica,sans-Serif" font-size="10.00" fill="grey">+StartAmount</text>
</g>
<!-- Node7 -->
<g id="Node000007" class="node">
<title>Node7</title>
<g id="a_Node000007"><a xlink:title=" ">
<polygon fill="white" stroke="transparent" points="615.5,-418.5 525.5,-418.5 525.5,-369.5 615.5,-369.5 615.5,-418.5"/>
<text text-anchor="start" x="530.5" y="-406" font-family="Helvetica,sans-Serif" font-size="10.00">GetMatrixAction</text>
<text text-anchor="start" x="568.5" y="-391" font-family="Helvetica,sans-Serif" font-size="10.00"> </text>
<text text-anchor="start" x="568.5" y="-376" font-family="Helvetica,sans-Serif" font-size="10.00"> </text>
<polygon fill="#666666" stroke="#666666" points="525.5,-401 525.5,-401 615.5,-401 615.5,-401 525.5,-401"/>
<polygon fill="#666666" stroke="#666666" points="525.5,-386 525.5,-386 615.5,-386 615.5,-386 525.5,-386"/>
<polygon fill="none" stroke="#666666" points="525.5,-369.5 525.5,-418.5 615.5,-418.5 615.5,-369.5 525.5,-369.5"/>
</a>
</g>
</g>
<!-- Node7&#45;&gt;Node1 -->
<g id="edge6_Node000001_Node000007" class="edge">
<title>Node7&#45;&gt;Node1</title>
<g id="a_edge6_Node000001_Node000007"><a xlink:title=" ">
<path fill="none" stroke="#63b8ff" d="M546.83,-369.25C537.49,-360.01 526.59,-349.4 516.5,-340 483.87,-309.6 447.91,-277.31 414.53,-247.81"/>
<polygon fill="none" stroke="#63b8ff" points="414.19,-247.51 407.04,-246.54 405.19,-239.57 412.33,-240.54 414.19,-247.51"/>
</a>
</g>
<text text-anchor="middle" x="527" y="-308.5" font-family="Helvetica,sans-Serif" font-size="10.00" fill="grey"> &#45;_fetchMatrix</text>
</g>
</g>
</svg>
