<?xml version="1.0" encoding="UTF-8" standalone="no"?>
<!DOCTYPE svg PUBLIC "-//W3C//DTD SVG 1.1//EN"
 "http://www.w3.org/Graphics/SVG/1.1/DTD/svg11.dtd">
<!-- Generated by graphviz version 2.43.0 (0)
 -->
<!-- Title: PresenceManager Pages: 1 -->
<svg width="134pt" height="205pt"
 viewBox="0.00 0.00 134.00 205.00" xmlns="http://www.w3.org/2000/svg" xmlns:xlink="http://www.w3.org/1999/xlink">
<g id="graph0" class="graph" transform="scale(1 1) rotate(0) translate(4 201)">
<title>PresenceManager</title>
<!-- Node1 -->
<g id="Node000001" class="node">
<title>Node1</title>
<g id="a_Node000001"><a xlink:title=" ">
<polygon fill="#999999" stroke="transparent" points="118,-90 0,-90 0,0 118,0 118,-90"/>
<text text-anchor="start" x="15" y="-78" font-family="Helvetica,sans-Serif" font-size="10.00">PresenceManager</text>
<text text-anchor="start" x="57" y="-63" font-family="Helvetica,sans-Serif" font-size="10.00"> </text>
<text text-anchor="start" x="4" y="-48" font-family="Helvetica,sans-Serif" font-size="10.00">+</text>
<text text-anchor="start" x="17" y="-48" font-family="Helvetica,sans-Serif" font-size="10.00">PresenceManager()</text>
<text text-anchor="start" x="4" y="-33" font-family="Helvetica,sans-Serif" font-size="10.00">+</text>
<text text-anchor="start" x="17" y="-33" font-family="Helvetica,sans-Serif" font-size="10.00">static void Update()</text>
<text text-anchor="start" x="6.5" y="-18" font-family="Helvetica,sans-Serif" font-size="10.00">&#45;</text>
<text text-anchor="start" x="17" y="-18" font-family="Helvetica,sans-Serif" font-size="10.00">static void SetState</text>
<text text-anchor="start" x="17" y="-7" font-family="Helvetica,sans-Serif" font-size="10.00">(string state)</text>
<polygon fill="#666666" stroke="#666666" points="0,-73 0,-73 118,-73 118,-73 0,-73"/>
<polygon fill="#666666" stroke="#666666" points="0,-58 0,-58 118,-58 118,-58 0,-58"/>
<polygon fill="none" stroke="#666666" points="0,0 0,-90 118,-90 118,0 0,0"/>
</a>
</g>
</g>
<!-- Node2 -->
<g id="Node000002" class="node">
<title>Node2</title>
<g id="a_Node000002"><a xlink:title=" ">
<polygon fill="white" stroke="transparent" points="78,-197 40,-197 40,-148 78,-148 78,-197"/>
<text text-anchor="start" x="45" y="-184.5" font-family="Helvetica,sans-Serif" font-size="10.00">string</text>
<text text-anchor="start" x="57" y="-169.5" font-family="Helvetica,sans-Serif" font-size="10.00"> </text>
<text text-anchor="start" x="57" y="-154.5" font-family="Helvetica,sans-Serif" font-size="10.00"> </text>
<polygon fill="#666666" stroke="#666666" points="40,-179.5 40,-179.5 78,-179.5 78,-179.5 40,-179.5"/>
<polygon fill="#666666" stroke="#666666" points="40,-164.5 40,-164.5 78,-164.5 78,-164.5 40,-164.5"/>
<polygon fill="none" stroke="#666666" points="40,-148 40,-197 78,-197 78,-148 40,-148"/>
</a>
</g>
</g>
<!-- Node2&#45;&gt;Node1 -->
<g id="edge1_Node000001_Node000002" class="edge">
<title>Node2&#45;&gt;Node1</title>
<g id="a_edge1_Node000001_Node000002"><a xlink:title=" ">
<path fill="none" stroke="#63b8ff" d="M59,-147.89C59,-134.94 59,-118.27 59,-102.19"/>
<polygon fill="none" stroke="#63b8ff" points="59,-102.07 55,-96.07 59,-90.07 63,-96.07 59,-102.07"/>
</a>
</g>
<text text-anchor="middle" x="92.5" y="-122" font-family="Helvetica,sans-Serif" font-size="10.00" fill="grey"> &#45;currentState</text>
<text text-anchor="middle" x="92.5" y="-111" font-family="Helvetica,sans-Serif" font-size="10.00" fill="grey">&#45;currentUser</text>
</g>
</g>
</svg>
