<?xml version="1.0" encoding="UTF-8" standalone="no"?>
<!DOCTYPE svg PUBLIC "-//W3C//DTD SVG 1.1//EN"
 "http://www.w3.org/Graphics/SVG/1.1/DTD/svg11.dtd">
<!-- Generated by graphviz version 2.43.0 (0)
 -->
<!-- Title: ReLogic.Utilities.SlotVector&lt; T &gt;.Enumerator Pages: 1 -->
<svg width="472pt" height="279pt"
 viewBox="0.00 0.00 471.50 279.00" xmlns="http://www.w3.org/2000/svg" xmlns:xlink="http://www.w3.org/1999/xlink">

<svg id="main" version="1.1" xmlns="http://www.w3.org/2000/svg" xmlns:xlink="http://www.w3.org/1999/xlink" xml:space="preserve" onload="init(evt)">
<style type="text/css"><![CDATA[
.node, .edge {opacity: 0.7;}
.node.selected, .edge.selected {opacity: 1;}
.edge:hover path { stroke: red; }
.edge:hover polygon { stroke: red; fill: red; }
]]></style>
<script type="application/ecmascript" xlink:href="../../svg.min.js"/>
<svg id="graph" class="graph">
<g id="graph0" class="graph" transform="scale(1 1) rotate(0) translate(4 275)">
<title>ReLogic.Utilities.SlotVector&lt; T &gt;.Enumerator</title>
<!-- Node1 -->
<g id="Node000001" class="node">
<title>Node1</title>
<g id="a_Node000001"><a xlink:title=" ">
<polygon fill="#999999" stroke="transparent" points="401.5,-175 150.5,-175 150.5,0 401.5,0 401.5,-175"/>
<text text-anchor="start" x="210" y="-162.5" font-family="Helvetica,sans-Serif" font-size="10.00">ReLogic.Utilities.SlotVector</text>
<text text-anchor="start" x="232" y="-151.5" font-family="Helvetica,sans-Serif" font-size="10.00">&lt; T &gt;.Enumerator</text>
<text text-anchor="start" x="155" y="-136.5" font-family="Helvetica,sans-Serif" font-size="10.00">+</text>
<text text-anchor="start" x="168" y="-136.5" font-family="Helvetica,sans-Serif" font-size="10.00">ItemPair System_002ECollections</text>
<text text-anchor="start" x="168" y="-125.5" font-family="Helvetica,sans-Serif" font-size="10.00">_002EGeneric_002EIEnumerator</text>
<text text-anchor="start" x="168" y="-114.5" font-family="Helvetica,sans-Serif" font-size="10.00">_003CReLogic_002EUtilities_002ESlotVector</text>
<text text-anchor="start" x="168" y="-103.5" font-family="Helvetica,sans-Serif" font-size="10.00">_003CT_003E_002EItemPair_003E_002ECurrent</text>
<text text-anchor="start" x="155" y="-88.5" font-family="Helvetica,sans-Serif" font-size="10.00">+</text>
<text text-anchor="start" x="168" y="-88.5" font-family="Helvetica,sans-Serif" font-size="10.00">object IEnumerator.</text>
<text text-anchor="start" x="168" y="-77.5" font-family="Helvetica,sans-Serif" font-size="10.00"> Current</text>
<text text-anchor="start" x="155" y="-62.5" font-family="Helvetica,sans-Serif" font-size="10.00">+</text>
<text text-anchor="start" x="168" y="-62.5" font-family="Helvetica,sans-Serif" font-size="10.00">Enumerator(SlotVector</text>
<text text-anchor="start" x="168" y="-51.5" font-family="Helvetica,sans-Serif" font-size="10.00">&lt; T &gt; slotVector)</text>
<text text-anchor="start" x="155" y="-36.5" font-family="Helvetica,sans-Serif" font-size="10.00">+</text>
<text text-anchor="start" x="168" y="-36.5" font-family="Helvetica,sans-Serif" font-size="10.00">void Reset()</text>
<text text-anchor="start" x="155" y="-21.5" font-family="Helvetica,sans-Serif" font-size="10.00">+</text>
<text text-anchor="start" x="168" y="-21.5" font-family="Helvetica,sans-Serif" font-size="10.00">bool MoveNext()</text>
<text text-anchor="start" x="155" y="-6.5" font-family="Helvetica,sans-Serif" font-size="10.00">+</text>
<text text-anchor="start" x="168" y="-6.5" font-family="Helvetica,sans-Serif" font-size="10.00">void Dispose()</text>
<polygon fill="#666666" stroke="#666666" points="151,-146.5 151,-146.5 402,-146.5 402,-146.5 151,-146.5"/>
<polygon fill="#666666" stroke="#666666" points="151,-72.5 151,-72.5 166,-72.5 166,-72.5 151,-72.5"/>
<polygon fill="#666666" stroke="#666666" points="166,-72.5 166,-72.5 402,-72.5 402,-72.5 166,-72.5"/>
<polygon fill="none" stroke="#666666" points="150.5,0 150.5,-175 401.5,-175 401.5,0 150.5,0"/>
</a>
</g>
</g>
<!-- Node2 -->
<g id="Node000002" class="node">
<title>Node2</title>
<g id="a_Node000002"><a xlink:title=" ">
<polygon fill="white" stroke="transparent" points="134,-271 0,-271 0,-222 134,-222 134,-271"/>
<text text-anchor="start" x="5" y="-258.5" font-family="Helvetica,sans-Serif" font-size="10.00">IEnumerator&lt; ItemPair &gt;</text>
<text text-anchor="start" x="65" y="-243.5" font-family="Helvetica,sans-Serif" font-size="10.00"> </text>
<text text-anchor="start" x="65" y="-228.5" font-family="Helvetica,sans-Serif" font-size="10.00"> </text>
<polygon fill="#666666" stroke="#666666" points="0,-253.5 0,-253.5 134,-253.5 134,-253.5 0,-253.5"/>
<polygon fill="#666666" stroke="#666666" points="0,-238.5 0,-238.5 134,-238.5 134,-238.5 0,-238.5"/>
<polygon fill="none" stroke="#666666" points="0,-222 0,-271 134,-271 134,-222 0,-222"/>
</a>
</g>
</g>
<!-- Node2&#45;&gt;Node1 -->
<g id="edge1_Node000001_Node000002" class="edge">
<title>Node2&#45;&gt;Node1</title>
<g id="a_edge1_Node000001_Node000002"><a xlink:title=" ">
<path fill="none" stroke="#63b8ff" d="M106.66,-215.71C122.36,-203.91 141.3,-189.69 160.73,-175.09"/>
<polygon fill="none" stroke="#63b8ff" points="104.18,-213.19 98.29,-222 108.39,-218.79 104.18,-213.19"/>
</a>
</g>
</g>
<!-- Node3 -->
<g id="Node000003" class="node">
<title>Node3</title>
<g id="a_Node000003"><a xlink:title=" ">
<polygon fill="white" stroke="transparent" points="223.5,-271 152.5,-271 152.5,-222 223.5,-222 223.5,-271"/>
<text text-anchor="start" x="158" y="-258.5" font-family="Helvetica,sans-Serif" font-size="10.00">IEnumerator</text>
<text text-anchor="start" x="186.5" y="-243.5" font-family="Helvetica,sans-Serif" font-size="10.00"> </text>
<text text-anchor="start" x="186.5" y="-228.5" font-family="Helvetica,sans-Serif" font-size="10.00"> </text>
<polygon fill="#666666" stroke="#666666" points="153,-253.5 153,-253.5 224,-253.5 224,-253.5 153,-253.5"/>
<polygon fill="#666666" stroke="#666666" points="153,-238.5 153,-238.5 224,-238.5 224,-238.5 153,-238.5"/>
<polygon fill="none" stroke="#666666" points="152.5,-222 152.5,-271 223.5,-271 223.5,-222 152.5,-222"/>
</a>
</g>
</g>
<!-- Node3&#45;&gt;Node1 -->
<g id="edge2_Node000001_Node000003" class="edge">
<title>Node3&#45;&gt;Node1</title>
<g id="a_edge2_Node000001_Node000003"><a xlink:title=" ">
<path fill="none" stroke="#63b8ff" d="M206.19,-213.05C212.49,-201.8 219.89,-188.61 227.46,-175.09"/>
<polygon fill="none" stroke="#63b8ff" points="203.01,-211.56 201.17,-222 209.12,-214.98 203.01,-211.56"/>
</a>
</g>
</g>
<!-- Node4 -->
<g id="Node000004" class="node">
<title>Node4</title>
<g id="a_Node000004"><a xlink:href="../../d0/d07/classIDisposable.html" target="_top" xlink:title=" ">
<polygon fill="white" stroke="transparent" points="310,-271 242,-271 242,-222 310,-222 310,-271"/>
<text text-anchor="start" x="247" y="-258.5" font-family="Helvetica,sans-Serif" font-size="10.00">IDisposable</text>
<text text-anchor="start" x="274" y="-243.5" font-family="Helvetica,sans-Serif" font-size="10.00"> </text>
<text text-anchor="start" x="274" y="-228.5" font-family="Helvetica,sans-Serif" font-size="10.00"> </text>
<polygon fill="#666666" stroke="#666666" points="242,-253.5 242,-253.5 310,-253.5 310,-253.5 242,-253.5"/>
<polygon fill="#666666" stroke="#666666" points="242,-238.5 242,-238.5 310,-238.5 310,-238.5 242,-238.5"/>
<polygon fill="none" stroke="#666666" points="242,-222 242,-271 310,-271 310,-222 242,-222"/>
</a>
</g>
</g>
<!-- Node4&#45;&gt;Node1 -->
<g id="edge3_Node000001_Node000004" class="edge">
<title>Node4&#45;&gt;Node1</title>
<g id="a_edge3_Node000001_Node000004"><a xlink:title=" ">
<path fill="none" stroke="#63b8ff" d="M276,-211.69C276,-200.75 276,-188.07 276,-175.09"/>
<polygon fill="none" stroke="#63b8ff" points="272.5,-212 276,-222 279.5,-212 272.5,-212"/>
</a>
</g>
</g>
<!-- Node5 -->
<g id="Node000005" class="node">
<title>Node5</title>
<g id="a_Node000005"><a xlink:title=" ">
<polygon fill="white" stroke="transparent" points="417.5,-271 328.5,-271 328.5,-222 417.5,-222 417.5,-271"/>
<text text-anchor="start" x="334" y="-258.5" font-family="Helvetica,sans-Serif" font-size="10.00">SlotVector&lt; T &gt;</text>
<text text-anchor="start" x="371.5" y="-243.5" font-family="Helvetica,sans-Serif" font-size="10.00"> </text>
<text text-anchor="start" x="371.5" y="-228.5" font-family="Helvetica,sans-Serif" font-size="10.00"> </text>
<polygon fill="#666666" stroke="#666666" points="329,-253.5 329,-253.5 418,-253.5 418,-253.5 329,-253.5"/>
<polygon fill="#666666" stroke="#666666" points="329,-238.5 329,-238.5 418,-238.5 418,-238.5 329,-238.5"/>
<polygon fill="none" stroke="#666666" points="328.5,-222 328.5,-271 417.5,-271 417.5,-222 328.5,-222"/>
</a>
</g>
</g>
<!-- Node5&#45;&gt;Node1 -->
<g id="edge4_Node000001_Node000005" class="edge">
<title>Node5&#45;&gt;Node1</title>
<g id="a_edge4_Node000001_Node000005"><a xlink:title=" ">
<path fill="none" stroke="#63b8ff" d="M358.48,-222C352.16,-211.77 344.3,-199.04 335.96,-185.54"/>
<polygon fill="none" stroke="#63b8ff" points="335.81,-185.3 329.25,-182.3 329.5,-175.09 336.06,-178.09 335.81,-185.3"/>
</a>
</g>
<text text-anchor="middle" x="376.5" y="-196" font-family="Helvetica,sans-Serif" font-size="10.00" fill="grey"> &#45;_slotVector</text>
</g>
<!-- Node6 -->
<g id="Node000006" class="node">
<title>Node6</title>
<g id="a_Node000006"><a xlink:title=" ">
<polygon fill="white" stroke="transparent" points="463.5,-271 440.5,-271 440.5,-222 463.5,-222 463.5,-271"/>
<text text-anchor="start" x="446" y="-258.5" font-family="Helvetica,sans-Serif" font-size="10.00">int</text>
<text text-anchor="start" x="450.5" y="-243.5" font-family="Helvetica,sans-Serif" font-size="10.00"> </text>
<text text-anchor="start" x="450.5" y="-228.5" font-family="Helvetica,sans-Serif" font-size="10.00"> </text>
<polygon fill="#666666" stroke="#666666" points="441,-253.5 441,-253.5 464,-253.5 464,-253.5 441,-253.5"/>
<polygon fill="#666666" stroke="#666666" points="441,-238.5 441,-238.5 464,-238.5 464,-238.5 441,-238.5"/>
<polygon fill="none" stroke="#666666" points="440.5,-222 440.5,-271 463.5,-271 463.5,-222 440.5,-222"/>
</a>
</g>
</g>
<!-- Node6&#45;&gt;Node1 -->
<g id="edge5_Node000001_Node000006" class="edge">
<title>Node6&#45;&gt;Node1</title>
<g id="a_edge5_Node000001_Node000006"><a xlink:title=" ">
<path fill="none" stroke="#63b8ff" d="M440.42,-228.54C432.7,-217.81 421.98,-203.93 411,-193 407.82,-189.83 404.54,-186.68 401.19,-183.54"/>
<polygon fill="none" stroke="#63b8ff" points="401.02,-183.38 393.9,-182.28 392.17,-175.28 399.3,-176.38 401.02,-183.38"/>
</a>
</g>
<text text-anchor="middle" x="440" y="-196" font-family="Helvetica,sans-Serif" font-size="10.00" fill="grey"> &#45;_index</text>
</g>
</g>
</svg>
</svg>

<style type='text/css'>
<![CDATA[
[data-mouse-over-selected='false'] { opacity: 0.7; }
[data-mouse-over-selected='true']  { opacity: 1.0; }
]]>
</style>
<script type="application/ecmascript"><![CDATA[
document.addEventListener('DOMContentLoaded', (event) => {
  highlightEdges();
  highlightAdjacentNodes();
});
]]></script>
</svg>
