<?xml version="1.0" encoding="UTF-8" standalone="no"?>
<!DOCTYPE svg PUBLIC "-//W3C//DTD SVG 1.1//EN"
 "http://www.w3.org/Graphics/SVG/1.1/DTD/svg11.dtd">
<!-- Generated by graphviz version 2.43.0 (0)
 -->
<!-- Title: System.Security.Cryptography.RSAPKCS1KeyExchangeDeformatter Pages: 1 -->
<svg width="222pt" height="358pt"
 viewBox="0.00 0.00 222.00 358.00" xmlns="http://www.w3.org/2000/svg" xmlns:xlink="http://www.w3.org/1999/xlink">

<svg id="main" version="1.1" xmlns="http://www.w3.org/2000/svg" xmlns:xlink="http://www.w3.org/1999/xlink" xml:space="preserve" onload="init(evt)">
<style type="text/css"><![CDATA[
.node, .edge {opacity: 0.7;}
.node.selected, .edge.selected {opacity: 1;}
.edge:hover path { stroke: red; }
.edge:hover polygon { stroke: red; fill: red; }
]]></style>
<script type="application/ecmascript" xlink:href="../../svg.min.js"/>
<svg id="graph" class="graph">
<g id="graph0" class="graph" transform="scale(1 1) rotate(0) translate(4 354)">
<title>System.Security.Cryptography.RSAPKCS1KeyExchangeDeformatter</title>
<!-- Node1 -->
<g id="Node000001" class="node">
<title>Node1</title>
<g id="a_Node000001"><a xlink:title=" ">
<polygon fill="#999999" stroke="transparent" points="209.5,-224 4.5,-224 4.5,0 209.5,0 209.5,-224"/>
<text text-anchor="start" x="19" y="-212" font-family="Helvetica,sans-Serif" font-size="10.00">System.Security.Cryptography.</text>
<text text-anchor="start" x="19" y="-201" font-family="Helvetica,sans-Serif" font-size="10.00">RSAPKCS1KeyExchangeDeformatter</text>
<text text-anchor="start" x="9" y="-186" font-family="Helvetica,sans-Serif" font-size="10.00">+</text>
<text text-anchor="start" x="22" y="-186" font-family="Helvetica,sans-Serif" font-size="10.00">RandomNumberGenerator RNG</text>
<text text-anchor="start" x="9" y="-171" font-family="Helvetica,sans-Serif" font-size="10.00">+</text>
<text text-anchor="start" x="22" y="-171" font-family="Helvetica,sans-Serif" font-size="10.00">override string Parameters</text>
<text text-anchor="start" x="9" y="-156" font-family="Helvetica,sans-Serif" font-size="10.00">+</text>
<text text-anchor="start" x="22" y="-156" font-family="Helvetica,sans-Serif" font-size="10.00">bool OverridesDecrypt</text>
<text text-anchor="start" x="11.5" y="-141" font-family="Helvetica,sans-Serif" font-size="10.00">&#45;</text>
<text text-anchor="start" x="22" y="-141" font-family="Helvetica,sans-Serif" font-size="10.00">RSA _rsaKey</text>
<text text-anchor="start" x="11.5" y="-126" font-family="Helvetica,sans-Serif" font-size="10.00">&#45;</text>
<text text-anchor="start" x="22" y="-126" font-family="Helvetica,sans-Serif" font-size="10.00">bool? _rsaOverridesDecrypt</text>
<text text-anchor="start" x="11.5" y="-111" font-family="Helvetica,sans-Serif" font-size="10.00">&#45;</text>
<text text-anchor="start" x="22" y="-111" font-family="Helvetica,sans-Serif" font-size="10.00">RandomNumberGenerator</text>
<text text-anchor="start" x="22" y="-100" font-family="Helvetica,sans-Serif" font-size="10.00"> RngValue</text>
<text text-anchor="start" x="9" y="-85" font-family="Helvetica,sans-Serif" font-size="10.00">+</text>
<text text-anchor="start" x="22" y="-85" font-family="Helvetica,sans-Serif" font-size="10.00">RSAPKCS1KeyExchangeDeformatter()</text>
<text text-anchor="start" x="9" y="-70" font-family="Helvetica,sans-Serif" font-size="10.00">+</text>
<text text-anchor="start" x="22" y="-70" font-family="Helvetica,sans-Serif" font-size="10.00">RSAPKCS1KeyExchangeDeformatter</text>
<text text-anchor="start" x="22" y="-59" font-family="Helvetica,sans-Serif" font-size="10.00">(AsymmetricAlgorithm key)</text>
<text text-anchor="start" x="9" y="-44" font-family="Helvetica,sans-Serif" font-size="10.00">+</text>
<text text-anchor="start" x="22" y="-44" font-family="Helvetica,sans-Serif" font-size="10.00">override byte[] DecryptKey</text>
<text text-anchor="start" x="22" y="-33" font-family="Helvetica,sans-Serif" font-size="10.00">Exchange(byte[] rgbIn)</text>
<text text-anchor="start" x="9" y="-18" font-family="Helvetica,sans-Serif" font-size="10.00">+</text>
<text text-anchor="start" x="22" y="-18" font-family="Helvetica,sans-Serif" font-size="10.00">override void SetKey</text>
<text text-anchor="start" x="22" y="-7" font-family="Helvetica,sans-Serif" font-size="10.00">(AsymmetricAlgorithm key)</text>
<polygon fill="#666666" stroke="#666666" points="5,-196 5,-196 210,-196 210,-196 5,-196"/>
<polygon fill="#666666" stroke="#666666" points="5,-95 5,-95 20,-95 20,-95 5,-95"/>
<polygon fill="#666666" stroke="#666666" points="20,-95 20,-95 210,-95 210,-95 20,-95"/>
<polygon fill="none" stroke="#666666" points="4.5,0 4.5,-224 209.5,-224 209.5,0 4.5,0"/>
</a>
</g>
</g>
<!-- Node2 -->
<g id="Node000002" class="node">
<title>Node2</title>
<g id="a_Node000002"><a xlink:href="../../d4/d72/classSystem_1_1Security_1_1Cryptography_1_1AsymmetricKeyExchangeDeformatter.html" target="_top" xlink:title=" ">
<polygon fill="white" stroke="transparent" points="214,-350 0,-350 0,-260 214,-260 214,-350"/>
<text text-anchor="start" x="14.5" y="-338" font-family="Helvetica,sans-Serif" font-size="10.00">AsymmetricKeyExchangeDeformatter</text>
<text text-anchor="start" x="4" y="-323" font-family="Helvetica,sans-Serif" font-size="10.00">+</text>
<text text-anchor="start" x="17" y="-323" font-family="Helvetica,sans-Serif" font-size="10.00">string Parameters</text>
<text text-anchor="start" x="4" y="-308" font-family="Helvetica,sans-Serif" font-size="10.00">+</text>
<text text-anchor="start" x="17" y="-308" font-family="Helvetica,sans-Serif" font-size="10.00">void SetKey(AsymmetricAlgorithm key)</text>
<text text-anchor="start" x="4" y="-293" font-family="Helvetica,sans-Serif" font-size="10.00">+</text>
<text text-anchor="start" x="17" y="-293" font-family="Helvetica,sans-Serif" font-size="10.00">byte[] DecryptKeyExchange</text>
<text text-anchor="start" x="17" y="-282" font-family="Helvetica,sans-Serif" font-size="10.00">(byte[] rgb)</text>
<text text-anchor="start" x="4" y="-267" font-family="Helvetica,sans-Serif" font-size="10.00">#</text>
<text text-anchor="start" x="17" y="-267" font-family="Helvetica,sans-Serif" font-size="10.00">AsymmetricKeyExchangeDeformatter()</text>
<polygon fill="#666666" stroke="#666666" points="0,-333 0,-333 214,-333 214,-333 0,-333"/>
<polygon fill="#666666" stroke="#666666" points="0,-318 0,-318 15,-318 15,-318 0,-318"/>
<polygon fill="#666666" stroke="#666666" points="15,-318 15,-318 214,-318 214,-318 15,-318"/>
<polygon fill="none" stroke="#666666" points="0,-260 0,-350 214,-350 214,-260 0,-260"/>
</a>
</g>
</g>
<!-- Node2&#45;&gt;Node1 -->
<g id="edge1_Node000001_Node000002" class="edge">
<title>Node2&#45;&gt;Node1</title>
<g id="a_edge1_Node000001_Node000002"><a xlink:title=" ">
<path fill="none" stroke="#63b8ff" d="M107,-249.67C107,-241.53 107,-232.89 107,-224.07"/>
<polygon fill="none" stroke="#63b8ff" points="103.5,-249.7 107,-259.7 110.5,-249.7 103.5,-249.7"/>
</a>
</g>
</g>
</g>
</svg>
</svg>

<style type='text/css'>
<![CDATA[
[data-mouse-over-selected='false'] { opacity: 0.7; }
[data-mouse-over-selected='true']  { opacity: 1.0; }
]]>
</style>
<script type="application/ecmascript"><![CDATA[
document.addEventListener('DOMContentLoaded', (event) => {
  highlightEdges();
  highlightAdjacentNodes();
});
]]></script>
</svg>
