<?xml version="1.0" encoding="UTF-8" standalone="no"?>
<!DOCTYPE svg PUBLIC "-//W3C//DTD SVG 1.1//EN"
 "http://www.w3.org/Graphics/SVG/1.1/DTD/svg11.dtd">
<!-- Generated by graphviz version 2.43.0 (0)
 -->
<!-- Title: System.Collections.Generic.LowLevelListWithIList&lt; T &gt; Pages: 1 -->
<svg width="474pt" height="1065pt"
 viewBox="0.00 0.00 473.50 1065.00" xmlns="http://www.w3.org/2000/svg" xmlns:xlink="http://www.w3.org/1999/xlink">
<g id="graph0" class="graph" transform="scale(1 1) rotate(0) translate(4 1061)">
<title>System.Collections.Generic.LowLevelListWithIList&lt; T &gt;</title>
<!-- Node1 -->
<g id="Node000001" class="node">
<title>Node1</title>
<g id="a_Node000001"><a xlink:title=" ">
<polygon fill="#999999" stroke="transparent" points="339,-171 158,-171 158,0 339,0 339,-171"/>
<text text-anchor="start" x="180" y="-158.5" font-family="Helvetica,sans-Serif" font-size="10.00">System.Collections.Generic.</text>
<text text-anchor="start" x="181.5" y="-147.5" font-family="Helvetica,sans-Serif" font-size="10.00">LowLevelListWithIList&lt; T &gt;</text>
<text text-anchor="start" x="162.5" y="-132.5" font-family="Helvetica,sans-Serif" font-size="10.00">+</text>
<text text-anchor="start" x="175.5" y="-132.5" font-family="Helvetica,sans-Serif" font-size="10.00">bool System.Collections.</text>
<text text-anchor="start" x="175.5" y="-121.5" font-family="Helvetica,sans-Serif" font-size="10.00">Generic.ICollection&lt; T</text>
<text text-anchor="start" x="175.5" y="-110.5" font-family="Helvetica,sans-Serif" font-size="10.00"> &gt;. IsReadOnly</text>
<text text-anchor="start" x="162.5" y="-95.5" font-family="Helvetica,sans-Serif" font-size="10.00">+</text>
<text text-anchor="start" x="175.5" y="-95.5" font-family="Helvetica,sans-Serif" font-size="10.00">LowLevelListWithIList()</text>
<text text-anchor="start" x="162.5" y="-80.5" font-family="Helvetica,sans-Serif" font-size="10.00">+</text>
<text text-anchor="start" x="175.5" y="-80.5" font-family="Helvetica,sans-Serif" font-size="10.00">LowLevelListWithIList</text>
<text text-anchor="start" x="175.5" y="-69.5" font-family="Helvetica,sans-Serif" font-size="10.00">(int capacity)</text>
<text text-anchor="start" x="165" y="-54.5" font-family="Helvetica,sans-Serif" font-size="10.00">&#45;</text>
<text text-anchor="start" x="175.5" y="-54.5" font-family="Helvetica,sans-Serif" font-size="10.00">IEnumerator&lt; T &gt; System.</text>
<text text-anchor="start" x="175.5" y="-43.5" font-family="Helvetica,sans-Serif" font-size="10.00">Collections.Generic.IEnumerable</text>
<text text-anchor="start" x="175.5" y="-32.5" font-family="Helvetica,sans-Serif" font-size="10.00">&lt; T &gt;. GetEnumerator()</text>
<text text-anchor="start" x="165" y="-17.5" font-family="Helvetica,sans-Serif" font-size="10.00">&#45;</text>
<text text-anchor="start" x="175.5" y="-17.5" font-family="Helvetica,sans-Serif" font-size="10.00">IEnumerator System.Collections.</text>
<text text-anchor="start" x="175.5" y="-6.5" font-family="Helvetica,sans-Serif" font-size="10.00">IEnumerable. GetEnumerator()</text>
<polygon fill="#666666" stroke="#666666" points="158.5,-142.5 158.5,-142.5 339.5,-142.5 339.5,-142.5 158.5,-142.5"/>
<polygon fill="#666666" stroke="#666666" points="158.5,-105.5 158.5,-105.5 173.5,-105.5 173.5,-105.5 158.5,-105.5"/>
<polygon fill="#666666" stroke="#666666" points="173.5,-105.5 173.5,-105.5 339.5,-105.5 339.5,-105.5 173.5,-105.5"/>
<polygon fill="none" stroke="#666666" points="158,0 158,-171 339,-171 339,0 158,0"/>
</a>
</g>
</g>
<!-- Node2 -->
<g id="Node000002" class="node">
<title>Node2</title>
<g id="a_Node000002"><a xlink:href="../../d0/da1/classSystem_1_1Collections_1_1Generic_1_1LowLevelList.html" target="_top" xlink:title=" ">
<polygon fill="white" stroke="transparent" points="162.5,-585 2.5,-585 2.5,-208 162.5,-208 162.5,-585"/>
<text text-anchor="start" x="36.5" y="-572.5" font-family="Helvetica,sans-Serif" font-size="10.00">LowLevelList&lt; T &gt;</text>
<text text-anchor="start" x="6.5" y="-557.5" font-family="Helvetica,sans-Serif" font-size="10.00">+</text>
<text text-anchor="start" x="19.5" y="-557.5" font-family="Helvetica,sans-Serif" font-size="10.00">int Capacity</text>
<text text-anchor="start" x="6.5" y="-542.5" font-family="Helvetica,sans-Serif" font-size="10.00">+</text>
<text text-anchor="start" x="19.5" y="-542.5" font-family="Helvetica,sans-Serif" font-size="10.00">int Count</text>
<text text-anchor="start" x="6.5" y="-527.5" font-family="Helvetica,sans-Serif" font-size="10.00">+</text>
<text text-anchor="start" x="19.5" y="-527.5" font-family="Helvetica,sans-Serif" font-size="10.00">T this[int index]</text>
<text text-anchor="start" x="6.5" y="-512.5" font-family="Helvetica,sans-Serif" font-size="10.00">+</text>
<text text-anchor="start" x="19.5" y="-512.5" font-family="Helvetica,sans-Serif" font-size="10.00">LowLevelList()</text>
<text text-anchor="start" x="6.5" y="-497.5" font-family="Helvetica,sans-Serif" font-size="10.00">+</text>
<text text-anchor="start" x="19.5" y="-497.5" font-family="Helvetica,sans-Serif" font-size="10.00">LowLevelList(int capacity)</text>
<text text-anchor="start" x="6.5" y="-482.5" font-family="Helvetica,sans-Serif" font-size="10.00">+</text>
<text text-anchor="start" x="19.5" y="-482.5" font-family="Helvetica,sans-Serif" font-size="10.00">void Add(T item)</text>
<text text-anchor="start" x="6.5" y="-467.5" font-family="Helvetica,sans-Serif" font-size="10.00">+</text>
<text text-anchor="start" x="19.5" y="-467.5" font-family="Helvetica,sans-Serif" font-size="10.00">void AddRange(IEnumerable</text>
<text text-anchor="start" x="19.5" y="-456.5" font-family="Helvetica,sans-Serif" font-size="10.00">&lt; T &gt; collection)</text>
<text text-anchor="start" x="6.5" y="-441.5" font-family="Helvetica,sans-Serif" font-size="10.00">+</text>
<text text-anchor="start" x="19.5" y="-441.5" font-family="Helvetica,sans-Serif" font-size="10.00">void Clear()</text>
<text text-anchor="start" x="6.5" y="-426.5" font-family="Helvetica,sans-Serif" font-size="10.00">+</text>
<text text-anchor="start" x="19.5" y="-426.5" font-family="Helvetica,sans-Serif" font-size="10.00">bool Contains(T item)</text>
<text text-anchor="start" x="6.5" y="-411.5" font-family="Helvetica,sans-Serif" font-size="10.00">+</text>
<text text-anchor="start" x="19.5" y="-411.5" font-family="Helvetica,sans-Serif" font-size="10.00">void CopyTo(T[] array,</text>
<text text-anchor="start" x="19.5" y="-400.5" font-family="Helvetica,sans-Serif" font-size="10.00"> int arrayIndex)</text>
<text text-anchor="start" x="6.5" y="-385.5" font-family="Helvetica,sans-Serif" font-size="10.00">+</text>
<text text-anchor="start" x="19.5" y="-385.5" font-family="Helvetica,sans-Serif" font-size="10.00">int IndexOf(T item)</text>
<text text-anchor="start" x="6.5" y="-370.5" font-family="Helvetica,sans-Serif" font-size="10.00">+</text>
<text text-anchor="start" x="19.5" y="-370.5" font-family="Helvetica,sans-Serif" font-size="10.00">void Insert(int index,</text>
<text text-anchor="start" x="19.5" y="-359.5" font-family="Helvetica,sans-Serif" font-size="10.00"> T item)</text>
<text text-anchor="start" x="6.5" y="-344.5" font-family="Helvetica,sans-Serif" font-size="10.00">+</text>
<text text-anchor="start" x="19.5" y="-344.5" font-family="Helvetica,sans-Serif" font-size="10.00">void InsertRange(int</text>
<text text-anchor="start" x="19.5" y="-333.5" font-family="Helvetica,sans-Serif" font-size="10.00"> index, IEnumerable&lt;</text>
<text text-anchor="start" x="19.5" y="-322.5" font-family="Helvetica,sans-Serif" font-size="10.00"> T &gt; collection)</text>
<text text-anchor="start" x="6.5" y="-307.5" font-family="Helvetica,sans-Serif" font-size="10.00">+</text>
<text text-anchor="start" x="19.5" y="-307.5" font-family="Helvetica,sans-Serif" font-size="10.00">bool Remove(T item)</text>
<text text-anchor="start" x="6.5" y="-292.5" font-family="Helvetica,sans-Serif" font-size="10.00">+</text>
<text text-anchor="start" x="19.5" y="-292.5" font-family="Helvetica,sans-Serif" font-size="10.00">int RemoveAll(global</text>
<text text-anchor="start" x="19.5" y="-281.5" font-family="Helvetica,sans-Serif" font-size="10.00">::System.Predicate&lt; T</text>
<text text-anchor="start" x="19.5" y="-270.5" font-family="Helvetica,sans-Serif" font-size="10.00"> &gt; match)</text>
<text text-anchor="start" x="6.5" y="-255.5" font-family="Helvetica,sans-Serif" font-size="10.00">+</text>
<text text-anchor="start" x="19.5" y="-255.5" font-family="Helvetica,sans-Serif" font-size="10.00">void RemoveAt(int index)</text>
<text text-anchor="start" x="9" y="-240.5" font-family="Helvetica,sans-Serif" font-size="10.00">&#45;</text>
<text text-anchor="start" x="19.5" y="-240.5" font-family="Helvetica,sans-Serif" font-size="10.00">void EnsureCapacity</text>
<text text-anchor="start" x="19.5" y="-229.5" font-family="Helvetica,sans-Serif" font-size="10.00">(int min)</text>
<text text-anchor="start" x="9" y="-214.5" font-family="Helvetica,sans-Serif" font-size="10.00">&#45;</text>
<text text-anchor="start" x="19.5" y="-214.5" font-family="Helvetica,sans-Serif" font-size="10.00">static LowLevelList()</text>
<polygon fill="#666666" stroke="#666666" points="2.5,-567.5 2.5,-567.5 162.5,-567.5 162.5,-567.5 2.5,-567.5"/>
<polygon fill="#666666" stroke="#666666" points="2.5,-522.5 2.5,-522.5 17.5,-522.5 17.5,-522.5 2.5,-522.5"/>
<polygon fill="#666666" stroke="#666666" points="17.5,-522.5 17.5,-522.5 162.5,-522.5 162.5,-522.5 17.5,-522.5"/>
<polygon fill="none" stroke="#666666" points="2.5,-208 2.5,-585 162.5,-585 162.5,-208 2.5,-208"/>
</a>
</g>
</g>
<!-- Node2&#45;&gt;Node1 -->
<g id="edge1_Node000001_Node000002" class="edge">
<title>Node2&#45;&gt;Node1</title>
<g id="a_edge1_Node000001_Node000002"><a xlink:title=" ">
<path fill="none" stroke="#63b8ff" d="M167.33,-205.48C170.36,-199.89 173.42,-194.38 176.5,-189 179.9,-183.05 183.56,-177.02 187.35,-171.01"/>
<polygon fill="none" stroke="#63b8ff" points="164.23,-203.85 162.61,-214.32 170.41,-207.15 164.23,-203.85"/>
</a>
</g>
</g>
<!-- Node3 -->
<g id="Node000003" class="node">
<title>Node3</title>
<g id="a_Node000003"><a xlink:title=" ">
<polygon fill="white" stroke="transparent" points="17,-735 0,-735 0,-686 17,-686 17,-735"/>
<text text-anchor="start" x="5.5" y="-722.5" font-family="Helvetica,sans-Serif" font-size="10.00">T</text>
<text text-anchor="start" x="7" y="-707.5" font-family="Helvetica,sans-Serif" font-size="10.00"> </text>
<text text-anchor="start" x="7" y="-692.5" font-family="Helvetica,sans-Serif" font-size="10.00"> </text>
<polygon fill="#666666" stroke="#666666" points="0.5,-717.5 0.5,-717.5 17.5,-717.5 17.5,-717.5 0.5,-717.5"/>
<polygon fill="#666666" stroke="#666666" points="0.5,-702.5 0.5,-702.5 17.5,-702.5 17.5,-702.5 0.5,-702.5"/>
<polygon fill="none" stroke="#666666" points="0,-686 0,-735 17,-735 17,-686 0,-686"/>
</a>
</g>
</g>
<!-- Node3&#45;&gt;Node2 -->
<g id="edge2_Node000002_Node000003" class="edge">
<title>Node3&#45;&gt;Node2</title>
<g id="a_edge2_Node000002_Node000003"><a xlink:title=" ">
<path fill="none" stroke="#63b8ff" d="M9.95,-685.62C11.56,-663.91 14.73,-631.07 20.5,-603 20.92,-600.96 21.35,-598.91 21.79,-596.86"/>
<polygon fill="none" stroke="#63b8ff" points="21.82,-596.73 19.22,-590 24.42,-585.01 27.03,-591.74 21.82,-596.73"/>
</a>
</g>
<text text-anchor="middle" x="57" y="-617" font-family="Helvetica,sans-Serif" font-size="10.00" fill="grey"> #_items</text>
<text text-anchor="middle" x="57" y="-606" font-family="Helvetica,sans-Serif" font-size="10.00" fill="grey">&#45;s_emptyArray</text>
</g>
<!-- Node4 -->
<g id="Node000004" class="node">
<title>Node4</title>
<g id="a_Node000004"><a xlink:title=" ">
<polygon fill="white" stroke="transparent" points="116,-735 93,-735 93,-686 116,-686 116,-735"/>
<text text-anchor="start" x="98.5" y="-722.5" font-family="Helvetica,sans-Serif" font-size="10.00">int</text>
<text text-anchor="start" x="103" y="-707.5" font-family="Helvetica,sans-Serif" font-size="10.00"> </text>
<text text-anchor="start" x="103" y="-692.5" font-family="Helvetica,sans-Serif" font-size="10.00"> </text>
<polygon fill="#666666" stroke="#666666" points="93.5,-717.5 93.5,-717.5 116.5,-717.5 116.5,-717.5 93.5,-717.5"/>
<polygon fill="#666666" stroke="#666666" points="93.5,-702.5 93.5,-702.5 116.5,-702.5 116.5,-702.5 93.5,-702.5"/>
<polygon fill="none" stroke="#666666" points="93,-686 93,-735 116,-735 116,-686 93,-686"/>
</a>
</g>
</g>
<!-- Node4&#45;&gt;Node2 -->
<g id="edge3_Node000002_Node000004" class="edge">
<title>Node4&#45;&gt;Node2</title>
<g id="a_edge3_Node000002_Node000004"><a xlink:title=" ">
<path fill="none" stroke="#63b8ff" d="M102.83,-685.79C101.37,-665.1 99.1,-632.87 96.59,-597.34"/>
<polygon fill="none" stroke="#63b8ff" points="96.58,-597.15 92.17,-591.44 95.73,-585.18 100.15,-590.88 96.58,-597.15"/>
</a>
</g>
<text text-anchor="middle" x="123.5" y="-617" font-family="Helvetica,sans-Serif" font-size="10.00" fill="grey"> #_size</text>
<text text-anchor="middle" x="123.5" y="-606" font-family="Helvetica,sans-Serif" font-size="10.00" fill="grey">#_version</text>
</g>
<!-- Node5 -->
<g id="Node000005" class="node">
<title>Node5</title>
<g id="a_Node000005"><a xlink:href="../../d6/d20/interfaceSystem_1_1Collections_1_1Generic_1_1IList.html" target="_top" xlink:title=" ">
<polygon fill="white" stroke="transparent" points="424,-441.5 277,-441.5 277,-351.5 424,-351.5 424,-441.5"/>
<text text-anchor="start" x="326.5" y="-429.5" font-family="Helvetica,sans-Serif" font-size="10.00">IList&lt; T &gt;</text>
<text text-anchor="start" x="281.5" y="-414.5" font-family="Helvetica,sans-Serif" font-size="10.00">+</text>
<text text-anchor="start" x="294.5" y="-414.5" font-family="Helvetica,sans-Serif" font-size="10.00">T this[int index]</text>
<text text-anchor="start" x="281.5" y="-399.5" font-family="Helvetica,sans-Serif" font-size="10.00">+</text>
<text text-anchor="start" x="294.5" y="-399.5" font-family="Helvetica,sans-Serif" font-size="10.00">int IndexOf(T item)</text>
<text text-anchor="start" x="281.5" y="-384.5" font-family="Helvetica,sans-Serif" font-size="10.00">+</text>
<text text-anchor="start" x="294.5" y="-384.5" font-family="Helvetica,sans-Serif" font-size="10.00">void Insert(int index,</text>
<text text-anchor="start" x="294.5" y="-373.5" font-family="Helvetica,sans-Serif" font-size="10.00"> T item)</text>
<text text-anchor="start" x="281.5" y="-358.5" font-family="Helvetica,sans-Serif" font-size="10.00">+</text>
<text text-anchor="start" x="294.5" y="-358.5" font-family="Helvetica,sans-Serif" font-size="10.00">void RemoveAt(int index)</text>
<polygon fill="#666666" stroke="#666666" points="277.5,-424.5 277.5,-424.5 424.5,-424.5 424.5,-424.5 277.5,-424.5"/>
<polygon fill="#666666" stroke="#666666" points="277.5,-409.5 277.5,-409.5 292.5,-409.5 292.5,-409.5 277.5,-409.5"/>
<polygon fill="#666666" stroke="#666666" points="292.5,-409.5 292.5,-409.5 424.5,-409.5 424.5,-409.5 292.5,-409.5"/>
<polygon fill="none" stroke="#666666" points="277,-351.5 277,-441.5 424,-441.5 424,-351.5 277,-351.5"/>
</a>
</g>
</g>
<!-- Node5&#45;&gt;Node1 -->
<g id="edge4_Node000001_Node000005" class="edge">
<title>Node5&#45;&gt;Node1</title>
<g id="a_edge4_Node000001_Node000005"><a xlink:title=" ">
<path fill="none" stroke="#63b8ff" d="M332.69,-341.54C317.17,-294.53 294.41,-225.58 276.46,-171.21"/>
<polygon fill="none" stroke="#63b8ff" points="329.43,-342.83 335.89,-351.23 336.07,-340.63 329.43,-342.83"/>
</a>
</g>
</g>
<!-- Node6 -->
<g id="Node000006" class="node">
<title>Node6</title>
<g id="a_Node000006"><a xlink:href="../../dd/d3b/interfaceSystem_1_1Collections_1_1Generic_1_1ICollection.html" target="_top" xlink:title=" ">
<polygon fill="white" stroke="transparent" points="348.5,-778 218.5,-778 218.5,-643 348.5,-643 348.5,-778"/>
<text text-anchor="start" x="243" y="-765.5" font-family="Helvetica,sans-Serif" font-size="10.00">ICollection&lt; T &gt;</text>
<text text-anchor="start" x="222.5" y="-750.5" font-family="Helvetica,sans-Serif" font-size="10.00">+</text>
<text text-anchor="start" x="235.5" y="-750.5" font-family="Helvetica,sans-Serif" font-size="10.00">int Count</text>
<text text-anchor="start" x="222.5" y="-735.5" font-family="Helvetica,sans-Serif" font-size="10.00">+</text>
<text text-anchor="start" x="235.5" y="-735.5" font-family="Helvetica,sans-Serif" font-size="10.00">bool IsReadOnly</text>
<text text-anchor="start" x="222.5" y="-720.5" font-family="Helvetica,sans-Serif" font-size="10.00">+</text>
<text text-anchor="start" x="235.5" y="-720.5" font-family="Helvetica,sans-Serif" font-size="10.00">void Add(T item)</text>
<text text-anchor="start" x="222.5" y="-705.5" font-family="Helvetica,sans-Serif" font-size="10.00">+</text>
<text text-anchor="start" x="235.5" y="-705.5" font-family="Helvetica,sans-Serif" font-size="10.00">void Clear()</text>
<text text-anchor="start" x="222.5" y="-690.5" font-family="Helvetica,sans-Serif" font-size="10.00">+</text>
<text text-anchor="start" x="235.5" y="-690.5" font-family="Helvetica,sans-Serif" font-size="10.00">bool Contains(T item)</text>
<text text-anchor="start" x="222.5" y="-675.5" font-family="Helvetica,sans-Serif" font-size="10.00">+</text>
<text text-anchor="start" x="235.5" y="-675.5" font-family="Helvetica,sans-Serif" font-size="10.00">void CopyTo(T[] array,</text>
<text text-anchor="start" x="235.5" y="-664.5" font-family="Helvetica,sans-Serif" font-size="10.00"> int arrayIndex)</text>
<text text-anchor="start" x="222.5" y="-649.5" font-family="Helvetica,sans-Serif" font-size="10.00">+</text>
<text text-anchor="start" x="235.5" y="-649.5" font-family="Helvetica,sans-Serif" font-size="10.00">bool Remove(T item)</text>
<polygon fill="#666666" stroke="#666666" points="218.5,-760.5 218.5,-760.5 348.5,-760.5 348.5,-760.5 218.5,-760.5"/>
<polygon fill="#666666" stroke="#666666" points="218.5,-730.5 218.5,-730.5 233.5,-730.5 233.5,-730.5 218.5,-730.5"/>
<polygon fill="#666666" stroke="#666666" points="233.5,-730.5 233.5,-730.5 348.5,-730.5 348.5,-730.5 233.5,-730.5"/>
<polygon fill="none" stroke="#666666" points="218.5,-643 218.5,-778 348.5,-778 348.5,-643 218.5,-643"/>
</a>
</g>
</g>
<!-- Node6&#45;&gt;Node1 -->
<g id="edge12_Node000001_Node000006" class="edge">
<title>Node6&#45;&gt;Node1</title>
<g id="a_edge12_Node000001_Node000006"><a xlink:title=" ">
<path fill="none" stroke="#63b8ff" d="M272.51,-632.55C270.58,-616.84 268.78,-600.41 267.5,-585 255.44,-440 251.03,-270.63 249.42,-171.32"/>
<polygon fill="none" stroke="#63b8ff" points="269.08,-633.26 273.8,-642.74 276.02,-632.38 269.08,-633.26"/>
</a>
</g>
</g>
<!-- Node6&#45;&gt;Node5 -->
<g id="edge5_Node000005_Node000006" class="edge">
<title>Node6&#45;&gt;Node5</title>
<g id="a_edge5_Node000005_Node000006"><a xlink:title=" ">
<path fill="none" stroke="#63b8ff" d="M299.9,-633.13C312.79,-573.11 330.3,-491.58 340.98,-441.85"/>
<polygon fill="none" stroke="#63b8ff" points="296.47,-632.44 297.79,-642.95 303.31,-633.91 296.47,-632.44"/>
</a>
</g>
</g>
<!-- Node7 -->
<g id="Node000007" class="node">
<title>Node7</title>
<g id="a_Node000007"><a xlink:href="../../d2/d2c/interfaceSystem_1_1Collections_1_1Generic_1_1IEnumerable.html" target="_top" xlink:title=" ">
<polygon fill="white" stroke="transparent" points="387,-864 192,-864 192,-815 387,-815 387,-864"/>
<text text-anchor="start" x="244.5" y="-851.5" font-family="Helvetica,sans-Serif" font-size="10.00">IEnumerable&lt; T &gt;</text>
<text text-anchor="start" x="288" y="-836.5" font-family="Helvetica,sans-Serif" font-size="10.00"> </text>
<text text-anchor="start" x="196.5" y="-821.5" font-family="Helvetica,sans-Serif" font-size="10.00">+</text>
<text text-anchor="start" x="209.5" y="-821.5" font-family="Helvetica,sans-Serif" font-size="10.00">IEnumerator&lt; T &gt; GetEnumerator()</text>
<polygon fill="#666666" stroke="#666666" points="192.5,-846.5 192.5,-846.5 387.5,-846.5 387.5,-846.5 192.5,-846.5"/>
<polygon fill="#666666" stroke="#666666" points="192.5,-831.5 192.5,-831.5 387.5,-831.5 387.5,-831.5 192.5,-831.5"/>
<polygon fill="none" stroke="#666666" points="192,-815 192,-864 387,-864 387,-815 192,-815"/>
</a>
</g>
</g>
<!-- Node7&#45;&gt;Node1 -->
<g id="edge13_Node000001_Node000007" class="edge">
<title>Node7&#45;&gt;Node1</title>
<g id="a_edge13_Node000001_Node000007"><a xlink:title=" ">
<path fill="none" stroke="#63b8ff" d="M235.74,-808.83C225.16,-800.34 215.5,-790.05 209.5,-778 157.65,-673.78 206.54,-331.63 233.45,-171.09"/>
<polygon fill="none" stroke="#63b8ff" points="233.85,-811.79 243.96,-814.98 238.05,-806.19 233.85,-811.79"/>
</a>
</g>
</g>
<!-- Node7&#45;&gt;Node5 -->
<g id="edge10_Node000005_Node000007" class="edge">
<title>Node7&#45;&gt;Node5</title>
<g id="a_edge10_Node000005_Node000007"><a xlink:title=" ">
<path fill="none" stroke="#63b8ff" d="M334.5,-808.29C343.81,-799.69 352.34,-789.49 357.5,-778 407.95,-665.58 381.18,-515.02 362.92,-441.55"/>
<polygon fill="none" stroke="#63b8ff" points="332.19,-805.65 326.91,-814.83 336.77,-810.95 332.19,-805.65"/>
</a>
</g>
</g>
<!-- Node7&#45;&gt;Node6 -->
<g id="edge6_Node000006_Node000007" class="edge">
<title>Node7&#45;&gt;Node6</title>
<g id="a_edge6_Node000006_Node000007"><a xlink:title=" ">
<path fill="none" stroke="#63b8ff" d="M287.9,-804.65C287.51,-796.42 287.08,-787.33 286.65,-778.15"/>
<polygon fill="none" stroke="#63b8ff" points="284.42,-805.09 288.39,-814.91 291.41,-804.76 284.42,-805.09"/>
</a>
</g>
</g>
<!-- Node8 -->
<g id="Node000008" class="node">
<title>Node8</title>
<g id="a_Node000008"><a xlink:href="../../d2/d2c/interfaceSystem_1_1Collections_1_1Generic_1_1IEnumerable.html" target="_top" xlink:title=" ">
<polygon fill="white" stroke="transparent" points="387,-971 192,-971 192,-911 387,-911 387,-971"/>
<text text-anchor="start" x="221" y="-959" font-family="Helvetica,sans-Serif" font-size="10.00">System.Collections.Generic.</text>
<text text-anchor="start" x="235.5" y="-948" font-family="Helvetica,sans-Serif" font-size="10.00">IEnumerable&lt; out T &gt;</text>
<text text-anchor="start" x="288" y="-933" font-family="Helvetica,sans-Serif" font-size="10.00"> </text>
<text text-anchor="start" x="196.5" y="-918" font-family="Helvetica,sans-Serif" font-size="10.00">+</text>
<text text-anchor="start" x="209.5" y="-918" font-family="Helvetica,sans-Serif" font-size="10.00">IEnumerator&lt; T &gt; GetEnumerator()</text>
<polygon fill="#666666" stroke="#666666" points="192.5,-943 192.5,-943 387.5,-943 387.5,-943 192.5,-943"/>
<polygon fill="#666666" stroke="#666666" points="192.5,-928 192.5,-928 387.5,-928 387.5,-928 192.5,-928"/>
<polygon fill="none" stroke="#666666" points="192,-911 192,-971 387,-971 387,-911 192,-911"/>
</a>
</g>
</g>
<!-- Node8&#45;&gt;Node7 -->
<g id="edge7_Node000007_Node000008" class="edge">
<title>Node8&#45;&gt;Node7</title>
<g id="a_edge7_Node000007_Node000008"><a xlink:title=" ">
<path fill="none" stroke="orange" d="M289.5,-900.8C289.5,-888.38 289.5,-875.03 289.5,-864.06"/>
<polygon fill="orange" stroke="orange" points="286,-900.95 289.5,-910.95 293,-900.95 286,-900.95"/>
</a>
</g>
<text text-anchor="middle" x="305.5" y="-885" font-family="Helvetica,sans-Serif" font-size="10.00" fill="grey"> &lt; T &gt;</text>
</g>
<!-- Node9 -->
<g id="Node000009" class="node">
<title>Node9</title>
<g id="a_Node000009"><a xlink:href="../../d4/da3/interfaceSystem_1_1Collections_1_1IEnumerable.html" target="_top" xlink:title=" ">
<polygon fill="white" stroke="transparent" points="465.5,-1057 299.5,-1057 299.5,-1008 465.5,-1008 465.5,-1057"/>
<text text-anchor="start" x="351.5" y="-1044.5" font-family="Helvetica,sans-Serif" font-size="10.00">IEnumerable</text>
<text text-anchor="start" x="380.5" y="-1029.5" font-family="Helvetica,sans-Serif" font-size="10.00"> </text>
<text text-anchor="start" x="303.5" y="-1014.5" font-family="Helvetica,sans-Serif" font-size="10.00">+</text>
<text text-anchor="start" x="316.5" y="-1014.5" font-family="Helvetica,sans-Serif" font-size="10.00">IEnumerator GetEnumerator()</text>
<polygon fill="#666666" stroke="#666666" points="299.5,-1039.5 299.5,-1039.5 465.5,-1039.5 465.5,-1039.5 299.5,-1039.5"/>
<polygon fill="#666666" stroke="#666666" points="299.5,-1024.5 299.5,-1024.5 465.5,-1024.5 465.5,-1024.5 299.5,-1024.5"/>
<polygon fill="none" stroke="#666666" points="299.5,-1008 299.5,-1057 465.5,-1057 465.5,-1008 299.5,-1008"/>
</a>
</g>
</g>
<!-- Node9&#45;&gt;Node1 -->
<g id="edge14_Node000001_Node000009" class="edge">
<title>Node9&#45;&gt;Node1</title>
<g id="a_edge14_Node000001_Node000009"><a xlink:title=" ">
<path fill="none" stroke="#63b8ff" d="M422.75,-1000.66C438.34,-985.11 452.5,-964.72 452.5,-942 452.5,-942 452.5,-942 452.5,-395.5 452.5,-311.74 476.95,-279.61 433.5,-208 411.67,-172.03 374.67,-144.6 339.47,-124.99"/>
<polygon fill="none" stroke="#63b8ff" points="419.93,-998.51 415.04,-1007.9 424.73,-1003.61 419.93,-998.51"/>
</a>
</g>
</g>
<!-- Node9&#45;&gt;Node5 -->
<g id="edge11_Node000005_Node000009" class="edge">
<title>Node9&#45;&gt;Node5</title>
<g id="a_edge11_Node000005_Node000009"><a xlink:title=" ">
<path fill="none" stroke="#63b8ff" d="M400.4,-998.44C407.72,-981.96 414.5,-961.45 414.5,-942 414.5,-942 414.5,-942 414.5,-709.5 414.5,-612.32 384.34,-501.52 365.42,-441.61"/>
<polygon fill="none" stroke="#63b8ff" points="397.16,-997.09 396.07,-1007.63 403.49,-1000.07 397.16,-997.09"/>
</a>
</g>
</g>
<!-- Node9&#45;&gt;Node6 -->
<g id="edge9_Node000006_Node000009" class="edge">
<title>Node9&#45;&gt;Node6</title>
<g id="a_edge9_Node000006_Node000009"><a xlink:title=" ">
<path fill="none" stroke="#63b8ff" d="M289.43,-1014.45C243.89,-1004.02 196,-989.18 182.5,-971 141.18,-915.33 156.36,-879.22 182.5,-815 190.4,-795.58 203.9,-777.82 218.49,-762.7"/>
<polygon fill="none" stroke="#63b8ff" points="288.87,-1017.91 299.4,-1016.67 290.4,-1011.08 288.87,-1017.91"/>
</a>
</g>
</g>
<!-- Node9&#45;&gt;Node8 -->
<g id="edge8_Node000008_Node000009" class="edge">
<title>Node9&#45;&gt;Node8</title>
<g id="a_edge8_Node000008_Node000009"><a xlink:title=" ">
<path fill="none" stroke="#63b8ff" d="M350.65,-1000.85C340.65,-991.22 329.64,-980.63 319.75,-971.12"/>
<polygon fill="none" stroke="#63b8ff" points="348.43,-1003.57 358.07,-1007.98 353.29,-998.53 348.43,-1003.57"/>
</a>
</g>
</g>
</g>
</svg>
