<?xml version="1.0" encoding="UTF-8" standalone="no"?>
<!DOCTYPE svg PUBLIC "-//W3C//DTD SVG 1.1//EN"
 "http://www.w3.org/Graphics/SVG/1.1/DTD/svg11.dtd">
<!-- Generated by graphviz version 2.43.0 (0)
 -->
<!-- Title: Terraria.GameContent.Bestiary.IBestiarySortStep Pages: 1 -->
<svg width="1324pt" height="730pt"
 viewBox="0.00 0.00 1324.00 730.00" xmlns="http://www.w3.org/2000/svg" xmlns:xlink="http://www.w3.org/1999/xlink">
<g id="graph0" class="graph" transform="scale(1 1) rotate(0) translate(4 726)">
<title>Terraria.GameContent.Bestiary.IBestiarySortStep</title>
<!-- Node1 -->
<g id="Node000001" class="node">
<title>Node1</title>
<g id="a_Node000001"><a xlink:title=" ">
<polygon fill="#999999" stroke="transparent" points="623,-432 460,-432 460,-372 623,-372 623,-432"/>
<text text-anchor="start" x="465.5" y="-420" font-family="Helvetica,sans-Serif" font-size="10.00">Terraria.GameContent.Bestiary.</text>
<text text-anchor="start" x="499.5" y="-409" font-family="Helvetica,sans-Serif" font-size="10.00">IBestiarySortStep</text>
<text text-anchor="start" x="464.5" y="-394" font-family="Helvetica,sans-Serif" font-size="10.00">+</text>
<text text-anchor="start" x="477.5" y="-394" font-family="Helvetica,sans-Serif" font-size="10.00">bool HiddenFromSortOptions</text>
<text text-anchor="start" x="540" y="-379" font-family="Helvetica,sans-Serif" font-size="10.00"> </text>
<polygon fill="#666666" stroke="#666666" points="460.5,-404 460.5,-404 623.5,-404 623.5,-404 460.5,-404"/>
<polygon fill="#666666" stroke="#666666" points="460.5,-389 460.5,-389 475.5,-389 475.5,-389 460.5,-389"/>
<polygon fill="#666666" stroke="#666666" points="475.5,-389 475.5,-389 623.5,-389 623.5,-389 475.5,-389"/>
<polygon fill="none" stroke="#666666" points="460,-372 460,-432 623,-432 623,-372 460,-372"/>
</a>
</g>
</g>
<!-- Node6 -->
<g id="Node000006" class="node">
<title>Node6</title>
<g id="a_Node000006"><a xlink:href="../../dd/dea/classTerraria_1_1GameContent_1_1Bestiary_1_1SortingSteps_1_1Alphabetical.html" target="_top" xlink:title=" ">
<polygon fill="white" stroke="transparent" points="163,-298 0,-298 0,-197 163,-197 163,-298"/>
<text text-anchor="start" x="5.5" y="-285.5" font-family="Helvetica,sans-Serif" font-size="10.00">Terraria.GameContent.Bestiary.</text>
<text text-anchor="start" x="19" y="-274.5" font-family="Helvetica,sans-Serif" font-size="10.00">SortingSteps.Alphabetical</text>
<text text-anchor="start" x="4.5" y="-259.5" font-family="Helvetica,sans-Serif" font-size="10.00">+</text>
<text text-anchor="start" x="17.5" y="-259.5" font-family="Helvetica,sans-Serif" font-size="10.00">bool HiddenFromSortOptions</text>
<text text-anchor="start" x="4.5" y="-244.5" font-family="Helvetica,sans-Serif" font-size="10.00">+</text>
<text text-anchor="start" x="17.5" y="-244.5" font-family="Helvetica,sans-Serif" font-size="10.00">int Compare(BestiaryEntry</text>
<text text-anchor="start" x="17.5" y="-233.5" font-family="Helvetica,sans-Serif" font-size="10.00"> x, BestiaryEntry y)</text>
<text text-anchor="start" x="4.5" y="-218.5" font-family="Helvetica,sans-Serif" font-size="10.00">+</text>
<text text-anchor="start" x="17.5" y="-218.5" font-family="Helvetica,sans-Serif" font-size="10.00">string GetDisplayNameKey()</text>
<text text-anchor="start" x="4.5" y="-203.5" font-family="Helvetica,sans-Serif" font-size="10.00">+</text>
<text text-anchor="start" x="17.5" y="-203.5" font-family="Helvetica,sans-Serif" font-size="10.00">Alphabetical()</text>
<polygon fill="#666666" stroke="#666666" points="0.5,-269.5 0.5,-269.5 163.5,-269.5 163.5,-269.5 0.5,-269.5"/>
<polygon fill="#666666" stroke="#666666" points="0.5,-254.5 0.5,-254.5 15.5,-254.5 15.5,-254.5 0.5,-254.5"/>
<polygon fill="#666666" stroke="#666666" points="15.5,-254.5 15.5,-254.5 163.5,-254.5 163.5,-254.5 15.5,-254.5"/>
<polygon fill="none" stroke="#666666" points="0,-197 0,-298 163,-298 163,-197 0,-197"/>
</a>
</g>
</g>
<!-- Node1&#45;&gt;Node6 -->
<g id="edge5_Node000001_Node000006" class="edge">
<title>Node1&#45;&gt;Node6</title>
<g id="a_edge5_Node000001_Node000006"><a xlink:title=" ">
<path fill="none" stroke="#63b8ff" d="M449.72,-399.34C371.85,-394.59 259.14,-379.63 171.5,-335 153.73,-325.95 137.11,-312.24 123.11,-298.37"/>
<polygon fill="none" stroke="#63b8ff" points="449.81,-402.85 460,-399.92 450.21,-395.86 449.81,-402.85"/>
</a>
</g>
</g>
<!-- Node7 -->
<g id="Node000007" class="node">
<title>Node7</title>
<g id="a_Node000007"><a xlink:href="../../dd/df3/classTerraria_1_1GameContent_1_1Bestiary_1_1SortingSteps_1_1ByBestiaryRarity.html" target="_top" xlink:title=" ">
<polygon fill="white" stroke="transparent" points="344,-298 181,-298 181,-197 344,-197 344,-298"/>
<text text-anchor="start" x="186.5" y="-285.5" font-family="Helvetica,sans-Serif" font-size="10.00">Terraria.GameContent.Bestiary.</text>
<text text-anchor="start" x="189" y="-274.5" font-family="Helvetica,sans-Serif" font-size="10.00">SortingSteps.ByBestiaryRarity</text>
<text text-anchor="start" x="185.5" y="-259.5" font-family="Helvetica,sans-Serif" font-size="10.00">+</text>
<text text-anchor="start" x="198.5" y="-259.5" font-family="Helvetica,sans-Serif" font-size="10.00">bool HiddenFromSortOptions</text>
<text text-anchor="start" x="185.5" y="-244.5" font-family="Helvetica,sans-Serif" font-size="10.00">+</text>
<text text-anchor="start" x="198.5" y="-244.5" font-family="Helvetica,sans-Serif" font-size="10.00">int Compare(BestiaryEntry</text>
<text text-anchor="start" x="198.5" y="-233.5" font-family="Helvetica,sans-Serif" font-size="10.00"> x, BestiaryEntry y)</text>
<text text-anchor="start" x="185.5" y="-218.5" font-family="Helvetica,sans-Serif" font-size="10.00">+</text>
<text text-anchor="start" x="198.5" y="-218.5" font-family="Helvetica,sans-Serif" font-size="10.00">string GetDisplayNameKey()</text>
<text text-anchor="start" x="185.5" y="-203.5" font-family="Helvetica,sans-Serif" font-size="10.00">+</text>
<text text-anchor="start" x="198.5" y="-203.5" font-family="Helvetica,sans-Serif" font-size="10.00">ByBestiaryRarity()</text>
<polygon fill="#666666" stroke="#666666" points="181.5,-269.5 181.5,-269.5 344.5,-269.5 344.5,-269.5 181.5,-269.5"/>
<polygon fill="#666666" stroke="#666666" points="181.5,-254.5 181.5,-254.5 196.5,-254.5 196.5,-254.5 181.5,-254.5"/>
<polygon fill="#666666" stroke="#666666" points="196.5,-254.5 196.5,-254.5 344.5,-254.5 344.5,-254.5 196.5,-254.5"/>
<polygon fill="none" stroke="#666666" points="181,-197 181,-298 344,-298 344,-197 181,-197"/>
</a>
</g>
</g>
<!-- Node1&#45;&gt;Node7 -->
<g id="edge6_Node000001_Node000007" class="edge">
<title>Node1&#45;&gt;Node7</title>
<g id="a_edge6_Node000001_Node000007"><a xlink:title=" ">
<path fill="none" stroke="#63b8ff" d="M450.16,-377.49C418.25,-367.1 383.05,-353.07 353.5,-335 337.14,-324.99 321.27,-311.64 307.49,-298.43"/>
<polygon fill="none" stroke="#63b8ff" points="449.35,-380.91 459.95,-380.6 451.47,-374.24 449.35,-380.91"/>
</a>
</g>
</g>
<!-- Node8 -->
<g id="Node000008" class="node">
<title>Node8</title>
<g id="a_Node000008"><a xlink:href="../../d6/df3/classTerraria_1_1GameContent_1_1Bestiary_1_1SortingSteps_1_1ByBestiarySortingId.html" target="_top" xlink:title=" ">
<polygon fill="white" stroke="transparent" points="534.5,-298 362.5,-298 362.5,-197 534.5,-197 534.5,-298"/>
<text text-anchor="start" x="367.5" y="-285.5" font-family="Helvetica,sans-Serif" font-size="10.00">Terraria.GameContent.Bestiary.</text>
<text text-anchor="start" x="367.5" y="-274.5" font-family="Helvetica,sans-Serif" font-size="10.00">SortingSteps.ByBestiarySortingId</text>
<text text-anchor="start" x="369" y="-259.5" font-family="Helvetica,sans-Serif" font-size="10.00">+</text>
<text text-anchor="start" x="384.5" y="-259.5" font-family="Helvetica,sans-Serif" font-size="10.00">bool HiddenFromSortOptions</text>
<text text-anchor="start" x="369" y="-244.5" font-family="Helvetica,sans-Serif" font-size="10.00">+</text>
<text text-anchor="start" x="384.5" y="-244.5" font-family="Helvetica,sans-Serif" font-size="10.00">int Compare(BestiaryEntry</text>
<text text-anchor="start" x="384.5" y="-233.5" font-family="Helvetica,sans-Serif" font-size="10.00"> x, BestiaryEntry y)</text>
<text text-anchor="start" x="369" y="-218.5" font-family="Helvetica,sans-Serif" font-size="10.00">+</text>
<text text-anchor="start" x="384.5" y="-218.5" font-family="Helvetica,sans-Serif" font-size="10.00">string GetDisplayNameKey()</text>
<text text-anchor="start" x="369" y="-203.5" font-family="Helvetica,sans-Serif" font-size="10.00">+</text>
<text text-anchor="start" x="384.5" y="-203.5" font-family="Helvetica,sans-Serif" font-size="10.00">ByBestiarySortingId()</text>
<polygon fill="#666666" stroke="#666666" points="362.5,-269.5 362.5,-269.5 534.5,-269.5 534.5,-269.5 362.5,-269.5"/>
<polygon fill="#666666" stroke="#666666" points="362.5,-254.5 362.5,-254.5 382.5,-254.5 382.5,-254.5 362.5,-254.5"/>
<polygon fill="#666666" stroke="#666666" points="382.5,-254.5 382.5,-254.5 534.5,-254.5 534.5,-254.5 382.5,-254.5"/>
<polygon fill="none" stroke="#666666" points="362.5,-197 362.5,-298 534.5,-298 534.5,-197 362.5,-197"/>
</a>
</g>
</g>
<!-- Node1&#45;&gt;Node8 -->
<g id="edge7_Node000001_Node000008" class="edge">
<title>Node1&#45;&gt;Node8</title>
<g id="a_edge7_Node000001_Node000008"><a xlink:title=" ">
<path fill="none" stroke="#63b8ff" d="M518.49,-363.28C506.5,-343.61 491.68,-319.31 478.77,-298.14"/>
<polygon fill="none" stroke="#63b8ff" points="515.59,-365.24 523.79,-371.96 521.57,-361.6 515.59,-365.24"/>
</a>
</g>
</g>
<!-- Node9 -->
<g id="Node000009" class="node">
<title>Node9</title>
<g id="a_Node000009"><a xlink:href="../../dc/d1e/classTerraria_1_1GameContent_1_1Bestiary_1_1SortingSteps_1_1ByNetId.html" target="_top" xlink:title=" ">
<polygon fill="white" stroke="transparent" points="716,-298 553,-298 553,-197 716,-197 716,-298"/>
<text text-anchor="start" x="558.5" y="-285.5" font-family="Helvetica,sans-Serif" font-size="10.00">Terraria.GameContent.Bestiary.</text>
<text text-anchor="start" x="583" y="-274.5" font-family="Helvetica,sans-Serif" font-size="10.00">SortingSteps.ByNetId</text>
<text text-anchor="start" x="557.5" y="-259.5" font-family="Helvetica,sans-Serif" font-size="10.00">+</text>
<text text-anchor="start" x="570.5" y="-259.5" font-family="Helvetica,sans-Serif" font-size="10.00">bool HiddenFromSortOptions</text>
<text text-anchor="start" x="557.5" y="-244.5" font-family="Helvetica,sans-Serif" font-size="10.00">+</text>
<text text-anchor="start" x="570.5" y="-244.5" font-family="Helvetica,sans-Serif" font-size="10.00">int Compare(BestiaryEntry</text>
<text text-anchor="start" x="570.5" y="-233.5" font-family="Helvetica,sans-Serif" font-size="10.00"> x, BestiaryEntry y)</text>
<text text-anchor="start" x="557.5" y="-218.5" font-family="Helvetica,sans-Serif" font-size="10.00">+</text>
<text text-anchor="start" x="570.5" y="-218.5" font-family="Helvetica,sans-Serif" font-size="10.00">string GetDisplayNameKey()</text>
<text text-anchor="start" x="557.5" y="-203.5" font-family="Helvetica,sans-Serif" font-size="10.00">+</text>
<text text-anchor="start" x="570.5" y="-203.5" font-family="Helvetica,sans-Serif" font-size="10.00">ByNetId()</text>
<polygon fill="#666666" stroke="#666666" points="553.5,-269.5 553.5,-269.5 716.5,-269.5 716.5,-269.5 553.5,-269.5"/>
<polygon fill="#666666" stroke="#666666" points="553.5,-254.5 553.5,-254.5 568.5,-254.5 568.5,-254.5 553.5,-254.5"/>
<polygon fill="#666666" stroke="#666666" points="568.5,-254.5 568.5,-254.5 716.5,-254.5 716.5,-254.5 568.5,-254.5"/>
<polygon fill="none" stroke="#666666" points="553,-197 553,-298 716,-298 716,-197 553,-197"/>
</a>
</g>
</g>
<!-- Node1&#45;&gt;Node9 -->
<g id="edge8_Node000001_Node000009" class="edge">
<title>Node1&#45;&gt;Node9</title>
<g id="a_edge8_Node000001_Node000009"><a xlink:title=" ">
<path fill="none" stroke="#63b8ff" d="M564.51,-363.28C576.5,-343.61 591.32,-319.31 604.23,-298.14"/>
<polygon fill="none" stroke="#63b8ff" points="561.43,-361.6 559.21,-371.96 567.41,-365.24 561.43,-361.6"/>
</a>
</g>
</g>
<!-- Node10 -->
<g id="Node000010" class="node">
<title>Node10</title>
<g id="a_Node000010"><a xlink:href="../../d9/daf/classTerraria_1_1GameContent_1_1Bestiary_1_1SortingSteps_1_1ByStat.html" target="_top" xlink:title=" ">
<polygon fill="white" stroke="transparent" points="929,-335 734,-335 734,-160 929,-160 929,-335"/>
<text text-anchor="start" x="755.5" y="-322.5" font-family="Helvetica,sans-Serif" font-size="10.00">Terraria.GameContent.Bestiary.</text>
<text text-anchor="start" x="783.5" y="-311.5" font-family="Helvetica,sans-Serif" font-size="10.00">SortingSteps.ByStat</text>
<text text-anchor="start" x="738.5" y="-296.5" font-family="Helvetica,sans-Serif" font-size="10.00">+</text>
<text text-anchor="start" x="751.5" y="-296.5" font-family="Helvetica,sans-Serif" font-size="10.00">bool HiddenFromSortOptions</text>
<text text-anchor="start" x="738.5" y="-281.5" font-family="Helvetica,sans-Serif" font-size="10.00">+</text>
<text text-anchor="start" x="751.5" y="-281.5" font-family="Helvetica,sans-Serif" font-size="10.00">int Compare(BestiaryEntry</text>
<text text-anchor="start" x="751.5" y="-270.5" font-family="Helvetica,sans-Serif" font-size="10.00"> x, BestiaryEntry y)</text>
<text text-anchor="start" x="738.5" y="-255.5" font-family="Helvetica,sans-Serif" font-size="10.00">+</text>
<text text-anchor="start" x="751.5" y="-255.5" font-family="Helvetica,sans-Serif" font-size="10.00">int Compare(NPCStatsReport</text>
<text text-anchor="start" x="751.5" y="-244.5" font-family="Helvetica,sans-Serif" font-size="10.00">InfoElement cardX, NPCStatsReport</text>
<text text-anchor="start" x="751.5" y="-233.5" font-family="Helvetica,sans-Serif" font-size="10.00">InfoElement cardY)</text>
<text text-anchor="start" x="738.5" y="-218.5" font-family="Helvetica,sans-Serif" font-size="10.00">+</text>
<text text-anchor="start" x="751.5" y="-218.5" font-family="Helvetica,sans-Serif" font-size="10.00">string GetDisplayNameKey()</text>
<text text-anchor="start" x="738.5" y="-203.5" font-family="Helvetica,sans-Serif" font-size="10.00">#</text>
<text text-anchor="start" x="751.5" y="-203.5" font-family="Helvetica,sans-Serif" font-size="10.00">ByStat()</text>
<text text-anchor="start" x="741" y="-188.5" font-family="Helvetica,sans-Serif" font-size="10.00">&#45;</text>
<text text-anchor="start" x="751.5" y="-188.5" font-family="Helvetica,sans-Serif" font-size="10.00">bool IsAStatsCardINeed</text>
<text text-anchor="start" x="751.5" y="-177.5" font-family="Helvetica,sans-Serif" font-size="10.00">(IBestiaryInfoElement</text>
<text text-anchor="start" x="751.5" y="-166.5" font-family="Helvetica,sans-Serif" font-size="10.00"> element)</text>
<polygon fill="#666666" stroke="#666666" points="734.5,-306.5 734.5,-306.5 929.5,-306.5 929.5,-306.5 734.5,-306.5"/>
<polygon fill="#666666" stroke="#666666" points="734.5,-291.5 734.5,-291.5 749.5,-291.5 749.5,-291.5 734.5,-291.5"/>
<polygon fill="#666666" stroke="#666666" points="749.5,-291.5 749.5,-291.5 929.5,-291.5 929.5,-291.5 749.5,-291.5"/>
<polygon fill="none" stroke="#666666" points="734,-160 734,-335 929,-335 929,-160 734,-160"/>
</a>
</g>
</g>
<!-- Node1&#45;&gt;Node10 -->
<g id="edge9_Node000001_Node000010" class="edge">
<title>Node1&#45;&gt;Node10</title>
<g id="a_edge9_Node000001_Node000010"><a xlink:title=" ">
<path fill="none" stroke="#63b8ff" d="M633.1,-374.99C663.48,-364.6 696.84,-351.2 725.5,-335 728.29,-333.42 731.08,-331.77 733.87,-330.06"/>
<polygon fill="none" stroke="#63b8ff" points="631.72,-371.76 623.35,-378.26 633.94,-378.4 631.72,-371.76"/>
</a>
</g>
</g>
<!-- Node15 -->
<g id="Node000015" class="node">
<title>Node15</title>
<g id="a_Node000015"><a xlink:href="../../dc/dcf/classTerraria_1_1GameContent_1_1Bestiary_1_1SortingSteps_1_1ByUnlockState.html" target="_top" xlink:title=" ">
<polygon fill="white" stroke="transparent" points="1110,-298 947,-298 947,-197 1110,-197 1110,-298"/>
<text text-anchor="start" x="952.5" y="-285.5" font-family="Helvetica,sans-Serif" font-size="10.00">Terraria.GameContent.Bestiary.</text>
<text text-anchor="start" x="960.5" y="-274.5" font-family="Helvetica,sans-Serif" font-size="10.00">SortingSteps.ByUnlockState</text>
<text text-anchor="start" x="951.5" y="-259.5" font-family="Helvetica,sans-Serif" font-size="10.00">+</text>
<text text-anchor="start" x="964.5" y="-259.5" font-family="Helvetica,sans-Serif" font-size="10.00">bool HiddenFromSortOptions</text>
<text text-anchor="start" x="951.5" y="-244.5" font-family="Helvetica,sans-Serif" font-size="10.00">+</text>
<text text-anchor="start" x="964.5" y="-244.5" font-family="Helvetica,sans-Serif" font-size="10.00">int Compare(BestiaryEntry</text>
<text text-anchor="start" x="964.5" y="-233.5" font-family="Helvetica,sans-Serif" font-size="10.00"> x, BestiaryEntry y)</text>
<text text-anchor="start" x="951.5" y="-218.5" font-family="Helvetica,sans-Serif" font-size="10.00">+</text>
<text text-anchor="start" x="964.5" y="-218.5" font-family="Helvetica,sans-Serif" font-size="10.00">string GetDisplayNameKey()</text>
<text text-anchor="start" x="951.5" y="-203.5" font-family="Helvetica,sans-Serif" font-size="10.00">+</text>
<text text-anchor="start" x="964.5" y="-203.5" font-family="Helvetica,sans-Serif" font-size="10.00">ByUnlockState()</text>
<polygon fill="#666666" stroke="#666666" points="947.5,-269.5 947.5,-269.5 1110.5,-269.5 1110.5,-269.5 947.5,-269.5"/>
<polygon fill="#666666" stroke="#666666" points="947.5,-254.5 947.5,-254.5 962.5,-254.5 962.5,-254.5 947.5,-254.5"/>
<polygon fill="#666666" stroke="#666666" points="962.5,-254.5 962.5,-254.5 1110.5,-254.5 1110.5,-254.5 962.5,-254.5"/>
<polygon fill="none" stroke="#666666" points="947,-197 947,-298 1110,-298 1110,-197 947,-197"/>
</a>
</g>
</g>
<!-- Node1&#45;&gt;Node15 -->
<g id="edge14_Node000001_Node000015" class="edge">
<title>Node1&#45;&gt;Node15</title>
<g id="a_edge14_Node000001_Node000015"><a xlink:title=" ">
<path fill="none" stroke="#63b8ff" d="M633.26,-400.96C716.92,-397.49 841.84,-383.51 938.5,-335 956.51,-325.96 973.32,-312.07 987.41,-298.05"/>
<polygon fill="none" stroke="#63b8ff" points="632.88,-397.47 623.01,-401.34 633.14,-404.46 632.88,-397.47"/>
</a>
</g>
</g>
<!-- Node2 -->
<g id="Node000002" class="node">
<title>Node2</title>
<g id="a_Node000002"><a xlink:href="../../d0/db8/interfaceTerraria_1_1DataStructures_1_1IEntrySortStep.html" target="_top" xlink:title=" ">
<polygon fill="white" stroke="transparent" points="535,-529 374,-529 374,-469 535,-469 535,-529"/>
<text text-anchor="start" x="394" y="-517" font-family="Helvetica,sans-Serif" font-size="10.00">IEntrySortStep&lt; Bestiary</text>
<text text-anchor="start" x="436.5" y="-506" font-family="Helvetica,sans-Serif" font-size="10.00">Entry &gt;</text>
<text text-anchor="start" x="453" y="-491" font-family="Helvetica,sans-Serif" font-size="10.00"> </text>
<text text-anchor="start" x="378.5" y="-476" font-family="Helvetica,sans-Serif" font-size="10.00">+</text>
<text text-anchor="start" x="391.5" y="-476" font-family="Helvetica,sans-Serif" font-size="10.00">string GetDisplayNameKey()</text>
<polygon fill="#666666" stroke="#666666" points="374.5,-501 374.5,-501 535.5,-501 535.5,-501 374.5,-501"/>
<polygon fill="#666666" stroke="#666666" points="374.5,-486 374.5,-486 535.5,-486 535.5,-486 374.5,-486"/>
<polygon fill="none" stroke="#666666" points="374,-469 374,-529 535,-529 535,-469 374,-469"/>
</a>
</g>
</g>
<!-- Node2&#45;&gt;Node1 -->
<g id="edge1_Node000001_Node000002" class="edge">
<title>Node2&#45;&gt;Node1</title>
<g id="a_edge1_Node000001_Node000002"><a xlink:title=" ">
<path fill="none" stroke="#63b8ff" d="M488.03,-461.39C496.89,-451.71 506.34,-441.39 514.79,-432.17"/>
<polygon fill="none" stroke="#63b8ff" points="485.25,-459.24 481.08,-468.98 490.41,-463.97 485.25,-459.24"/>
</a>
</g>
</g>
<!-- Node3 -->
<g id="Node000003" class="node">
<title>Node3</title>
<g id="a_Node000003"><a xlink:href="../../d0/db8/interfaceTerraria_1_1DataStructures_1_1IEntrySortStep.html" target="_top" xlink:title=" ">
<polygon fill="white" stroke="transparent" points="535,-636 374,-636 374,-576 535,-576 535,-636"/>
<text text-anchor="start" x="397" y="-624" font-family="Helvetica,sans-Serif" font-size="10.00">Terraria.DataStructures.</text>
<text text-anchor="start" x="405.5" y="-613" font-family="Helvetica,sans-Serif" font-size="10.00">IEntrySortStep&lt; T &gt;</text>
<text text-anchor="start" x="453" y="-598" font-family="Helvetica,sans-Serif" font-size="10.00"> </text>
<text text-anchor="start" x="378.5" y="-583" font-family="Helvetica,sans-Serif" font-size="10.00">+</text>
<text text-anchor="start" x="391.5" y="-583" font-family="Helvetica,sans-Serif" font-size="10.00">string GetDisplayNameKey()</text>
<polygon fill="#666666" stroke="#666666" points="374.5,-608 374.5,-608 535.5,-608 535.5,-608 374.5,-608"/>
<polygon fill="#666666" stroke="#666666" points="374.5,-593 374.5,-593 535.5,-593 535.5,-593 374.5,-593"/>
<polygon fill="none" stroke="#666666" points="374,-576 374,-636 535,-636 535,-576 374,-576"/>
</a>
</g>
</g>
<!-- Node3&#45;&gt;Node2 -->
<g id="edge2_Node000002_Node000003" class="edge">
<title>Node3&#45;&gt;Node2</title>
<g id="a_edge2_Node000002_Node000003"><a xlink:title=" ">
<path fill="none" stroke="orange" d="M454.5,-565.46C454.5,-553.39 454.5,-540.34 454.5,-529.09"/>
<polygon fill="orange" stroke="orange" points="451,-565.75 454.5,-575.75 458,-565.75 451,-565.75"/>
</a>
</g>
<text text-anchor="middle" x="500.5" y="-550" font-family="Helvetica,sans-Serif" font-size="10.00" fill="grey"> &lt; BestiaryEntry &gt;</text>
</g>
<!-- Node4 -->
<g id="Node000004" class="node">
<title>Node4</title>
<g id="a_Node000004"><a xlink:href="../../d7/de5/classIComparer.html" target="_top" xlink:title=" ">
<polygon fill="white" stroke="transparent" points="499.5,-722 409.5,-722 409.5,-673 499.5,-673 499.5,-722"/>
<text text-anchor="start" x="414.5" y="-709.5" font-family="Helvetica,sans-Serif" font-size="10.00">IComparer&lt; T &gt;</text>
<text text-anchor="start" x="452.5" y="-694.5" font-family="Helvetica,sans-Serif" font-size="10.00"> </text>
<text text-anchor="start" x="452.5" y="-679.5" font-family="Helvetica,sans-Serif" font-size="10.00"> </text>
<polygon fill="#666666" stroke="#666666" points="409.5,-704.5 409.5,-704.5 499.5,-704.5 499.5,-704.5 409.5,-704.5"/>
<polygon fill="#666666" stroke="#666666" points="409.5,-689.5 409.5,-689.5 499.5,-689.5 499.5,-689.5 409.5,-689.5"/>
<polygon fill="none" stroke="#666666" points="409.5,-673 409.5,-722 499.5,-722 499.5,-673 409.5,-673"/>
</a>
</g>
</g>
<!-- Node4&#45;&gt;Node3 -->
<g id="edge3_Node000003_Node000004" class="edge">
<title>Node4&#45;&gt;Node3</title>
<g id="a_edge3_Node000003_Node000004"><a xlink:title=" ">
<path fill="none" stroke="#63b8ff" d="M454.5,-662.7C454.5,-653.95 454.5,-644.6 454.5,-636.12"/>
<polygon fill="none" stroke="#63b8ff" points="451,-662.98 454.5,-672.98 458,-662.98 451,-662.98"/>
</a>
</g>
</g>
<!-- Node5 -->
<g id="Node000005" class="node">
<title>Node5</title>
<g id="a_Node000005"><a xlink:href="../../d7/de5/classIComparer.html" target="_top" xlink:title=" ">
<polygon fill="white" stroke="transparent" points="703.5,-523.5 553.5,-523.5 553.5,-474.5 703.5,-474.5 703.5,-523.5"/>
<text text-anchor="start" x="558.5" y="-511" font-family="Helvetica,sans-Serif" font-size="10.00">IComparer&lt; BestiaryEntry &gt;</text>
<text text-anchor="start" x="626.5" y="-496" font-family="Helvetica,sans-Serif" font-size="10.00"> </text>
<text text-anchor="start" x="626.5" y="-481" font-family="Helvetica,sans-Serif" font-size="10.00"> </text>
<polygon fill="#666666" stroke="#666666" points="553.5,-506 553.5,-506 703.5,-506 703.5,-506 553.5,-506"/>
<polygon fill="#666666" stroke="#666666" points="553.5,-491 553.5,-491 703.5,-491 703.5,-491 553.5,-491"/>
<polygon fill="none" stroke="#666666" points="553.5,-474.5 553.5,-523.5 703.5,-523.5 703.5,-474.5 553.5,-474.5"/>
</a>
</g>
</g>
<!-- Node5&#45;&gt;Node1 -->
<g id="edge4_Node000001_Node000005" class="edge">
<title>Node5&#45;&gt;Node1</title>
<g id="a_edge4_Node000001_Node000005"><a xlink:title=" ">
<path fill="none" stroke="#63b8ff" d="M599.72,-466.57C589.52,-455.44 578.11,-442.98 568.11,-432.05"/>
<polygon fill="none" stroke="#63b8ff" points="597.21,-469.02 606.55,-474.03 602.37,-464.29 597.21,-469.02"/>
</a>
</g>
</g>
<!-- Node11 -->
<g id="Node000011" class="node">
<title>Node11</title>
<g id="a_Node000011"><a xlink:href="../../de/df9/classTerraria_1_1GameContent_1_1Bestiary_1_1SortingSteps_1_1ByAttack.html" target="_top" xlink:title=" ">
<polygon fill="white" stroke="transparent" points="575,-123 346,-123 346,0 575,0 575,-123"/>
<text text-anchor="start" x="384.5" y="-110.5" font-family="Helvetica,sans-Serif" font-size="10.00">Terraria.GameContent.Bestiary.</text>
<text text-anchor="start" x="406.5" y="-99.5" font-family="Helvetica,sans-Serif" font-size="10.00">SortingSteps.ByAttack</text>
<text text-anchor="start" x="459" y="-84.5" font-family="Helvetica,sans-Serif" font-size="10.00"> </text>
<text text-anchor="start" x="350.5" y="-69.5" font-family="Helvetica,sans-Serif" font-size="10.00">+</text>
<text text-anchor="start" x="363.5" y="-69.5" font-family="Helvetica,sans-Serif" font-size="10.00">override int Compare</text>
<text text-anchor="start" x="363.5" y="-58.5" font-family="Helvetica,sans-Serif" font-size="10.00">(NPCStatsReportInfoElement</text>
<text text-anchor="start" x="363.5" y="-47.5" font-family="Helvetica,sans-Serif" font-size="10.00"> cardX, NPCStatsReportInfoElement cardY)</text>
<text text-anchor="start" x="350.5" y="-32.5" font-family="Helvetica,sans-Serif" font-size="10.00">+</text>
<text text-anchor="start" x="363.5" y="-32.5" font-family="Helvetica,sans-Serif" font-size="10.00">override string GetDisplay</text>
<text text-anchor="start" x="363.5" y="-21.5" font-family="Helvetica,sans-Serif" font-size="10.00">NameKey()</text>
<text text-anchor="start" x="350.5" y="-6.5" font-family="Helvetica,sans-Serif" font-size="10.00">+</text>
<text text-anchor="start" x="363.5" y="-6.5" font-family="Helvetica,sans-Serif" font-size="10.00">ByAttack()</text>
<polygon fill="#666666" stroke="#666666" points="346.5,-94.5 346.5,-94.5 575.5,-94.5 575.5,-94.5 346.5,-94.5"/>
<polygon fill="#666666" stroke="#666666" points="346.5,-79.5 346.5,-79.5 575.5,-79.5 575.5,-79.5 346.5,-79.5"/>
<polygon fill="none" stroke="#666666" points="346,0 346,-123 575,-123 575,0 346,0"/>
</a>
</g>
</g>
<!-- Node10&#45;&gt;Node11 -->
<g id="edge10_Node000010_Node000011" class="edge">
<title>Node10&#45;&gt;Node11</title>
<g id="a_edge10_Node000010_Node000011"><a xlink:title=" ">
<path fill="none" stroke="#63b8ff" d="M724.68,-159.97C665.13,-131.83 641.76,-144.67 583.5,-123 580.71,-121.96 577.9,-120.88 575.08,-119.77"/>
<polygon fill="none" stroke="#63b8ff" points="723.22,-163.15 733.74,-164.42 726.31,-156.87 723.22,-163.15"/>
</a>
</g>
</g>
<!-- Node12 -->
<g id="Node000012" class="node">
<title>Node12</title>
<g id="a_Node000012"><a xlink:href="../../d6/d0a/classTerraria_1_1GameContent_1_1Bestiary_1_1SortingSteps_1_1ByCoins.html" target="_top" xlink:title=" ">
<polygon fill="white" stroke="transparent" points="822,-123 593,-123 593,0 822,0 822,-123"/>
<text text-anchor="start" x="631.5" y="-110.5" font-family="Helvetica,sans-Serif" font-size="10.00">Terraria.GameContent.Bestiary.</text>
<text text-anchor="start" x="655.5" y="-99.5" font-family="Helvetica,sans-Serif" font-size="10.00">SortingSteps.ByCoins</text>
<text text-anchor="start" x="706" y="-84.5" font-family="Helvetica,sans-Serif" font-size="10.00"> </text>
<text text-anchor="start" x="597.5" y="-69.5" font-family="Helvetica,sans-Serif" font-size="10.00">+</text>
<text text-anchor="start" x="610.5" y="-69.5" font-family="Helvetica,sans-Serif" font-size="10.00">override int Compare</text>
<text text-anchor="start" x="610.5" y="-58.5" font-family="Helvetica,sans-Serif" font-size="10.00">(NPCStatsReportInfoElement</text>
<text text-anchor="start" x="610.5" y="-47.5" font-family="Helvetica,sans-Serif" font-size="10.00"> cardX, NPCStatsReportInfoElement cardY)</text>
<text text-anchor="start" x="597.5" y="-32.5" font-family="Helvetica,sans-Serif" font-size="10.00">+</text>
<text text-anchor="start" x="610.5" y="-32.5" font-family="Helvetica,sans-Serif" font-size="10.00">override string GetDisplay</text>
<text text-anchor="start" x="610.5" y="-21.5" font-family="Helvetica,sans-Serif" font-size="10.00">NameKey()</text>
<text text-anchor="start" x="597.5" y="-6.5" font-family="Helvetica,sans-Serif" font-size="10.00">+</text>
<text text-anchor="start" x="610.5" y="-6.5" font-family="Helvetica,sans-Serif" font-size="10.00">ByCoins()</text>
<polygon fill="#666666" stroke="#666666" points="593.5,-94.5 593.5,-94.5 822.5,-94.5 822.5,-94.5 593.5,-94.5"/>
<polygon fill="#666666" stroke="#666666" points="593.5,-79.5 593.5,-79.5 822.5,-79.5 822.5,-79.5 593.5,-79.5"/>
<polygon fill="none" stroke="#666666" points="593,0 593,-123 822,-123 822,0 593,0"/>
</a>
</g>
</g>
<!-- Node10&#45;&gt;Node12 -->
<g id="edge11_Node000010_Node000012" class="edge">
<title>Node10&#45;&gt;Node12</title>
<g id="a_edge11_Node000010_Node000012"><a xlink:title=" ">
<path fill="none" stroke="#63b8ff" d="M767.45,-151.45C760.98,-141.85 754.54,-132.3 748.41,-123.21"/>
<polygon fill="none" stroke="#63b8ff" points="764.64,-153.55 773.13,-159.89 770.44,-149.64 764.64,-153.55"/>
</a>
</g>
</g>
<!-- Node13 -->
<g id="Node000013" class="node">
<title>Node13</title>
<g id="a_Node000013"><a xlink:href="../../d5/d51/classTerraria_1_1GameContent_1_1Bestiary_1_1SortingSteps_1_1ByDefense.html" target="_top" xlink:title=" ">
<polygon fill="white" stroke="transparent" points="1069,-123 840,-123 840,0 1069,0 1069,-123"/>
<text text-anchor="start" x="878.5" y="-110.5" font-family="Helvetica,sans-Serif" font-size="10.00">Terraria.GameContent.Bestiary.</text>
<text text-anchor="start" x="896" y="-99.5" font-family="Helvetica,sans-Serif" font-size="10.00">SortingSteps.ByDefense</text>
<text text-anchor="start" x="953" y="-84.5" font-family="Helvetica,sans-Serif" font-size="10.00"> </text>
<text text-anchor="start" x="844.5" y="-69.5" font-family="Helvetica,sans-Serif" font-size="10.00">+</text>
<text text-anchor="start" x="857.5" y="-69.5" font-family="Helvetica,sans-Serif" font-size="10.00">override int Compare</text>
<text text-anchor="start" x="857.5" y="-58.5" font-family="Helvetica,sans-Serif" font-size="10.00">(NPCStatsReportInfoElement</text>
<text text-anchor="start" x="857.5" y="-47.5" font-family="Helvetica,sans-Serif" font-size="10.00"> cardX, NPCStatsReportInfoElement cardY)</text>
<text text-anchor="start" x="844.5" y="-32.5" font-family="Helvetica,sans-Serif" font-size="10.00">+</text>
<text text-anchor="start" x="857.5" y="-32.5" font-family="Helvetica,sans-Serif" font-size="10.00">override string GetDisplay</text>
<text text-anchor="start" x="857.5" y="-21.5" font-family="Helvetica,sans-Serif" font-size="10.00">NameKey()</text>
<text text-anchor="start" x="844.5" y="-6.5" font-family="Helvetica,sans-Serif" font-size="10.00">+</text>
<text text-anchor="start" x="857.5" y="-6.5" font-family="Helvetica,sans-Serif" font-size="10.00">ByDefense()</text>
<polygon fill="#666666" stroke="#666666" points="840.5,-94.5 840.5,-94.5 1069.5,-94.5 1069.5,-94.5 840.5,-94.5"/>
<polygon fill="#666666" stroke="#666666" points="840.5,-79.5 840.5,-79.5 1069.5,-79.5 1069.5,-79.5 840.5,-79.5"/>
<polygon fill="none" stroke="#666666" points="840,0 840,-123 1069,-123 1069,0 840,0"/>
</a>
</g>
</g>
<!-- Node10&#45;&gt;Node13 -->
<g id="edge12_Node000010_Node000013" class="edge">
<title>Node10&#45;&gt;Node13</title>
<g id="a_edge12_Node000010_Node000013"><a xlink:title=" ">
<path fill="none" stroke="#63b8ff" d="M895.04,-151.45C901.45,-141.85 907.84,-132.3 913.92,-123.21"/>
<polygon fill="none" stroke="#63b8ff" points="892.05,-149.63 889.4,-159.89 897.87,-153.52 892.05,-149.63"/>
</a>
</g>
</g>
<!-- Node14 -->
<g id="Node000014" class="node">
<title>Node14</title>
<g id="a_Node000014"><a xlink:href="../../d5/dac/classTerraria_1_1GameContent_1_1Bestiary_1_1SortingSteps_1_1ByHP.html" target="_top" xlink:title=" ">
<polygon fill="white" stroke="transparent" points="1316,-123 1087,-123 1087,0 1316,0 1316,-123"/>
<text text-anchor="start" x="1125.5" y="-110.5" font-family="Helvetica,sans-Serif" font-size="10.00">Terraria.GameContent.Bestiary.</text>
<text text-anchor="start" x="1156.5" y="-99.5" font-family="Helvetica,sans-Serif" font-size="10.00">SortingSteps.ByHP</text>
<text text-anchor="start" x="1200" y="-84.5" font-family="Helvetica,sans-Serif" font-size="10.00"> </text>
<text text-anchor="start" x="1091.5" y="-69.5" font-family="Helvetica,sans-Serif" font-size="10.00">+</text>
<text text-anchor="start" x="1104.5" y="-69.5" font-family="Helvetica,sans-Serif" font-size="10.00">override int Compare</text>
<text text-anchor="start" x="1104.5" y="-58.5" font-family="Helvetica,sans-Serif" font-size="10.00">(NPCStatsReportInfoElement</text>
<text text-anchor="start" x="1104.5" y="-47.5" font-family="Helvetica,sans-Serif" font-size="10.00"> cardX, NPCStatsReportInfoElement cardY)</text>
<text text-anchor="start" x="1091.5" y="-32.5" font-family="Helvetica,sans-Serif" font-size="10.00">+</text>
<text text-anchor="start" x="1104.5" y="-32.5" font-family="Helvetica,sans-Serif" font-size="10.00">override string GetDisplay</text>
<text text-anchor="start" x="1104.5" y="-21.5" font-family="Helvetica,sans-Serif" font-size="10.00">NameKey()</text>
<text text-anchor="start" x="1091.5" y="-6.5" font-family="Helvetica,sans-Serif" font-size="10.00">+</text>
<text text-anchor="start" x="1104.5" y="-6.5" font-family="Helvetica,sans-Serif" font-size="10.00">ByHP()</text>
<polygon fill="#666666" stroke="#666666" points="1087.5,-94.5 1087.5,-94.5 1316.5,-94.5 1316.5,-94.5 1087.5,-94.5"/>
<polygon fill="#666666" stroke="#666666" points="1087.5,-79.5 1087.5,-79.5 1316.5,-79.5 1316.5,-79.5 1087.5,-79.5"/>
<polygon fill="none" stroke="#666666" points="1087,0 1087,-123 1316,-123 1316,0 1087,0"/>
</a>
</g>
</g>
<!-- Node10&#45;&gt;Node14 -->
<g id="edge13_Node000010_Node000014" class="edge">
<title>Node10&#45;&gt;Node14</title>
<g id="a_edge13_Node000010_Node000014"><a xlink:title=" ">
<path fill="none" stroke="#63b8ff" d="M938.21,-160.15C938.31,-160.1 938.4,-160.05 938.5,-160 995.91,-130.9 1018.22,-145.54 1078.5,-123 1081.29,-121.96 1084.09,-120.87 1086.91,-119.75"/>
<polygon fill="none" stroke="#63b8ff" points="936.4,-157.15 929.26,-164.98 939.72,-163.31 936.4,-157.15"/>
</a>
</g>
</g>
</g>
</svg>
