<?xml version="1.0" encoding="UTF-8" standalone="no"?>
<!DOCTYPE svg PUBLIC "-//W3C//DTD SVG 1.1//EN"
 "http://www.w3.org/Graphics/SVG/1.1/DTD/svg11.dtd">
<!-- Generated by graphviz version 2.43.0 (0)
 -->
<!-- Title: System.Boolean Pages: 1 -->
<!--zoomable 1134 -->

<svg id="main" version="1.1" xmlns="http://www.w3.org/2000/svg" xmlns:xlink="http://www.w3.org/1999/xlink" xml:space="preserve" onload="init(evt)">
<style type="text/css"><![CDATA[
.node, .edge {opacity: 0.7;}
.node.selected, .edge.selected {opacity: 1;}
.edge:hover path { stroke: red; }
.edge:hover polygon { stroke: red; fill: red; }
]]></style>

<defs>
  <circle id="rim" cx="0" cy="0" r="7"/>
  <circle id="rim2" cx="0" cy="0" r="3.5"/>
  <g id="zoomPlus">
    <use xlink:href="#rim" fill="#404040"><set attributeName="fill" to="#808080" begin="zoomplus.mouseover" end="zoomplus.mouseout"/></use>
    <path d="M-4,0h8M0,-4v8" fill="none" stroke="white" stroke-width="1.5" pointer-events="none"/>
  </g>
  <g id="zoomMin">
    <use xlink:href="#rim" fill="#404040"><set attributeName="fill" to="#808080" begin="zoomminus.mouseover" end="zoomminus.mouseout"/></use>
    <path d="M-4,0h8" fill="none" stroke="white" stroke-width="1.5" pointer-events="none"/>
  </g>
  <g id="arrowUp" transform="translate(30 24)">
    <use xlink:href="#rim"/>
    <path pointer-events="none" fill="none" stroke="white" stroke-width="1.5" d="M0,-3.0v7 M-2.5,-0.5L0,-3.0L2.5,-0.5"/>
  </g>
  <g id="arrowRight" transform="rotate(90) translate(36 -43)">
    <use xlink:href="#rim"/>
    <path pointer-events="none" fill="none" stroke="white" stroke-width="1.5" d="M0,-3.0v7 M-2.5,-0.5L0,-3.0L2.5,-0.5"/>
  </g>
  <g id="arrowDown" transform="rotate(180) translate(-30 -48)">
    <use xlink:href="#rim"/>
    <path pointer-events="none" fill="none" stroke="white" stroke-width="1.5" d="M0,-3.0v7 M-2.5,-0.5L0,-3.0L2.5,-0.5"/>
  </g>
  <g id="arrowLeft" transform="rotate(270) translate(-36 17)">
    <use xlink:href="#rim"/>
    <path pointer-events="none" fill="none" stroke="white" stroke-width="1.5" d="M0,-3.0v7 M-2.5,-0.5L0,-3.0L2.5,-0.5"/>
  </g>
  <g id="resetDef">
    <use xlink:href="#rim2" fill="#404040"><set attributeName="fill" to="#808080" begin="reset.mouseover" end="reset.mouseout"/></use>
  </g>
</defs>
<script type="application/ecmascript">
var viewWidth = 822;
var viewHeight = 1134;
var sectionId = 'dynsection-1';
</script>
<script type="application/ecmascript" xlink:href="../../svg.min.js"/>
<svg id="graph" class="graph">
<g id="viewport">
<title>System.Boolean</title>
<!-- Node1 -->
<g id="Node000001" class="node">
<title>Node1</title>
<g id="a_Node000001"><a xlink:title=" ">
<polygon fill="#999999" stroke="transparent" points="663.5,-986 452.5,-986 452.5,0 663.5,0 663.5,-986"/>
<text text-anchor="start" x="518.5" y="-974" font-family="Helvetica,sans-Serif" font-size="10.00">System.Boolean</text>
<text text-anchor="start" x="556.5" y="-959" font-family="Helvetica,sans-Serif" font-size="10.00"> </text>
<text text-anchor="start" x="457" y="-944" font-family="Helvetica,sans-Serif" font-size="10.00">+</text>
<text text-anchor="start" x="470" y="-944" font-family="Helvetica,sans-Serif" font-size="10.00">override int GetHashCode()</text>
<text text-anchor="start" x="457" y="-929" font-family="Helvetica,sans-Serif" font-size="10.00">+</text>
<text text-anchor="start" x="470" y="-929" font-family="Helvetica,sans-Serif" font-size="10.00">override string ToString()</text>
<text text-anchor="start" x="457" y="-914" font-family="Helvetica,sans-Serif" font-size="10.00">+</text>
<text text-anchor="start" x="470" y="-914" font-family="Helvetica,sans-Serif" font-size="10.00">string ToString(global</text>
<text text-anchor="start" x="470" y="-903" font-family="Helvetica,sans-Serif" font-size="10.00">::System.IFormatProvider</text>
<text text-anchor="start" x="470" y="-892" font-family="Helvetica,sans-Serif" font-size="10.00"> provider)</text>
<text text-anchor="start" x="457" y="-877" font-family="Helvetica,sans-Serif" font-size="10.00">+</text>
<text text-anchor="start" x="470" y="-877" font-family="Helvetica,sans-Serif" font-size="10.00">override bool Equals</text>
<text text-anchor="start" x="470" y="-866" font-family="Helvetica,sans-Serif" font-size="10.00">(object obj)</text>
<text text-anchor="start" x="457" y="-851" font-family="Helvetica,sans-Serif" font-size="10.00">+</text>
<text text-anchor="start" x="470" y="-851" font-family="Helvetica,sans-Serif" font-size="10.00">bool Equals(bool obj)</text>
<text text-anchor="start" x="457" y="-836" font-family="Helvetica,sans-Serif" font-size="10.00">+</text>
<text text-anchor="start" x="470" y="-836" font-family="Helvetica,sans-Serif" font-size="10.00">int CompareTo(object obj)</text>
<text text-anchor="start" x="457" y="-821" font-family="Helvetica,sans-Serif" font-size="10.00">+</text>
<text text-anchor="start" x="470" y="-821" font-family="Helvetica,sans-Serif" font-size="10.00">int CompareTo(bool</text>
<text text-anchor="start" x="470" y="-810" font-family="Helvetica,sans-Serif" font-size="10.00"> value)</text>
<text text-anchor="start" x="457" y="-795" font-family="Helvetica,sans-Serif" font-size="10.00">+</text>
<text text-anchor="start" x="470" y="-795" font-family="Helvetica,sans-Serif" font-size="10.00">global::System.TypeCode</text>
<text text-anchor="start" x="470" y="-784" font-family="Helvetica,sans-Serif" font-size="10.00"> GetTypeCode()</text>
<text text-anchor="start" x="457" y="-769" font-family="Helvetica,sans-Serif" font-size="10.00">+</text>
<text text-anchor="start" x="470" y="-769" font-family="Helvetica,sans-Serif" font-size="10.00">static bool Parse(string</text>
<text text-anchor="start" x="470" y="-758" font-family="Helvetica,sans-Serif" font-size="10.00"> value)</text>
<text text-anchor="start" x="457" y="-743" font-family="Helvetica,sans-Serif" font-size="10.00">+</text>
<text text-anchor="start" x="470" y="-743" font-family="Helvetica,sans-Serif" font-size="10.00">static bool Parse(global</text>
<text text-anchor="start" x="470" y="-732" font-family="Helvetica,sans-Serif" font-size="10.00">::System.ReadOnlySpan&lt;</text>
<text text-anchor="start" x="470" y="-721" font-family="Helvetica,sans-Serif" font-size="10.00"> char &gt; value)</text>
<text text-anchor="start" x="457" y="-706" font-family="Helvetica,sans-Serif" font-size="10.00">+</text>
<text text-anchor="start" x="470" y="-706" font-family="Helvetica,sans-Serif" font-size="10.00">static bool TryParse</text>
<text text-anchor="start" x="470" y="-695" font-family="Helvetica,sans-Serif" font-size="10.00">(string value, out bool</text>
<text text-anchor="start" x="470" y="-684" font-family="Helvetica,sans-Serif" font-size="10.00"> result)</text>
<text text-anchor="start" x="457" y="-669" font-family="Helvetica,sans-Serif" font-size="10.00">+</text>
<text text-anchor="start" x="470" y="-669" font-family="Helvetica,sans-Serif" font-size="10.00">static bool TryParse</text>
<text text-anchor="start" x="470" y="-658" font-family="Helvetica,sans-Serif" font-size="10.00">(global::System.ReadOnlySpan</text>
<text text-anchor="start" x="470" y="-647" font-family="Helvetica,sans-Serif" font-size="10.00">&lt; char &gt; value, out bool result)</text>
<text text-anchor="start" x="457" y="-632" font-family="Helvetica,sans-Serif" font-size="10.00">+</text>
<text text-anchor="start" x="470" y="-632" font-family="Helvetica,sans-Serif" font-size="10.00">static Boolean()</text>
<text text-anchor="start" x="459.5" y="-617" font-family="Helvetica,sans-Serif" font-size="10.00">&#45;</text>
<text text-anchor="start" x="470" y="-617" font-family="Helvetica,sans-Serif" font-size="10.00">bool System.IConvertible.</text>
<text text-anchor="start" x="470" y="-606" font-family="Helvetica,sans-Serif" font-size="10.00"> ToBoolean(global::System.IFormat</text>
<text text-anchor="start" x="470" y="-595" font-family="Helvetica,sans-Serif" font-size="10.00">Provider provider)</text>
<text text-anchor="start" x="459.5" y="-580" font-family="Helvetica,sans-Serif" font-size="10.00">&#45;</text>
<text text-anchor="start" x="470" y="-580" font-family="Helvetica,sans-Serif" font-size="10.00">char System.IConvertible.</text>
<text text-anchor="start" x="470" y="-569" font-family="Helvetica,sans-Serif" font-size="10.00"> ToChar(global::System.IFormat</text>
<text text-anchor="start" x="470" y="-558" font-family="Helvetica,sans-Serif" font-size="10.00">Provider provider)</text>
<text text-anchor="start" x="459.5" y="-543" font-family="Helvetica,sans-Serif" font-size="10.00">&#45;</text>
<text text-anchor="start" x="470" y="-543" font-family="Helvetica,sans-Serif" font-size="10.00">sbyte System.IConvertible.</text>
<text text-anchor="start" x="470" y="-532" font-family="Helvetica,sans-Serif" font-size="10.00"> ToSByte(global::System.IFormat</text>
<text text-anchor="start" x="470" y="-521" font-family="Helvetica,sans-Serif" font-size="10.00">Provider provider)</text>
<text text-anchor="start" x="459.5" y="-506" font-family="Helvetica,sans-Serif" font-size="10.00">&#45;</text>
<text text-anchor="start" x="470" y="-506" font-family="Helvetica,sans-Serif" font-size="10.00">byte System.IConvertible.</text>
<text text-anchor="start" x="470" y="-495" font-family="Helvetica,sans-Serif" font-size="10.00"> ToByte(global::System.IFormat</text>
<text text-anchor="start" x="470" y="-484" font-family="Helvetica,sans-Serif" font-size="10.00">Provider provider)</text>
<text text-anchor="start" x="459.5" y="-469" font-family="Helvetica,sans-Serif" font-size="10.00">&#45;</text>
<text text-anchor="start" x="470" y="-469" font-family="Helvetica,sans-Serif" font-size="10.00">short System.IConvertible.</text>
<text text-anchor="start" x="470" y="-458" font-family="Helvetica,sans-Serif" font-size="10.00"> ToInt16(global::System.IFormat</text>
<text text-anchor="start" x="470" y="-447" font-family="Helvetica,sans-Serif" font-size="10.00">Provider provider)</text>
<text text-anchor="start" x="459.5" y="-432" font-family="Helvetica,sans-Serif" font-size="10.00">&#45;</text>
<text text-anchor="start" x="470" y="-432" font-family="Helvetica,sans-Serif" font-size="10.00">ushort System.IConvertible.</text>
<text text-anchor="start" x="470" y="-421" font-family="Helvetica,sans-Serif" font-size="10.00"> ToUInt16(global::System.IFormat</text>
<text text-anchor="start" x="470" y="-410" font-family="Helvetica,sans-Serif" font-size="10.00">Provider provider)</text>
<text text-anchor="start" x="459.5" y="-395" font-family="Helvetica,sans-Serif" font-size="10.00">&#45;</text>
<text text-anchor="start" x="470" y="-395" font-family="Helvetica,sans-Serif" font-size="10.00">int System.IConvertible.</text>
<text text-anchor="start" x="470" y="-384" font-family="Helvetica,sans-Serif" font-size="10.00"> ToInt32(global::System.IFormat</text>
<text text-anchor="start" x="470" y="-373" font-family="Helvetica,sans-Serif" font-size="10.00">Provider provider)</text>
<text text-anchor="start" x="459.5" y="-358" font-family="Helvetica,sans-Serif" font-size="10.00">&#45;</text>
<text text-anchor="start" x="470" y="-358" font-family="Helvetica,sans-Serif" font-size="10.00">uint System.IConvertible.</text>
<text text-anchor="start" x="470" y="-347" font-family="Helvetica,sans-Serif" font-size="10.00"> ToUInt32(global::System.IFormat</text>
<text text-anchor="start" x="470" y="-336" font-family="Helvetica,sans-Serif" font-size="10.00">Provider provider)</text>
<text text-anchor="start" x="459.5" y="-321" font-family="Helvetica,sans-Serif" font-size="10.00">&#45;</text>
<text text-anchor="start" x="470" y="-321" font-family="Helvetica,sans-Serif" font-size="10.00">long System.IConvertible.</text>
<text text-anchor="start" x="470" y="-310" font-family="Helvetica,sans-Serif" font-size="10.00"> ToInt64(global::System.IFormat</text>
<text text-anchor="start" x="470" y="-299" font-family="Helvetica,sans-Serif" font-size="10.00">Provider provider)</text>
<text text-anchor="start" x="459.5" y="-284" font-family="Helvetica,sans-Serif" font-size="10.00">&#45;</text>
<text text-anchor="start" x="470" y="-284" font-family="Helvetica,sans-Serif" font-size="10.00">ulong System.IConvertible.</text>
<text text-anchor="start" x="470" y="-273" font-family="Helvetica,sans-Serif" font-size="10.00"> ToUInt64(global::System.IFormat</text>
<text text-anchor="start" x="470" y="-262" font-family="Helvetica,sans-Serif" font-size="10.00">Provider provider)</text>
<text text-anchor="start" x="459.5" y="-247" font-family="Helvetica,sans-Serif" font-size="10.00">&#45;</text>
<text text-anchor="start" x="470" y="-247" font-family="Helvetica,sans-Serif" font-size="10.00">float System.IConvertible.</text>
<text text-anchor="start" x="470" y="-236" font-family="Helvetica,sans-Serif" font-size="10.00"> ToSingle(global::System.IFormat</text>
<text text-anchor="start" x="470" y="-225" font-family="Helvetica,sans-Serif" font-size="10.00">Provider provider)</text>
<text text-anchor="start" x="459.5" y="-210" font-family="Helvetica,sans-Serif" font-size="10.00">&#45;</text>
<text text-anchor="start" x="470" y="-210" font-family="Helvetica,sans-Serif" font-size="10.00">double System.IConvertible.</text>
<text text-anchor="start" x="470" y="-199" font-family="Helvetica,sans-Serif" font-size="10.00"> ToDouble(global::System.IFormat</text>
<text text-anchor="start" x="470" y="-188" font-family="Helvetica,sans-Serif" font-size="10.00">Provider provider)</text>
<text text-anchor="start" x="459.5" y="-173" font-family="Helvetica,sans-Serif" font-size="10.00">&#45;</text>
<text text-anchor="start" x="470" y="-173" font-family="Helvetica,sans-Serif" font-size="10.00">decimal System.IConvertible.</text>
<text text-anchor="start" x="470" y="-162" font-family="Helvetica,sans-Serif" font-size="10.00"> ToDecimal(global::System.IFormat</text>
<text text-anchor="start" x="470" y="-151" font-family="Helvetica,sans-Serif" font-size="10.00">Provider provider)</text>
<text text-anchor="start" x="459.5" y="-136" font-family="Helvetica,sans-Serif" font-size="10.00">&#45;</text>
<text text-anchor="start" x="470" y="-136" font-family="Helvetica,sans-Serif" font-size="10.00">global::System.DateTime</text>
<text text-anchor="start" x="470" y="-125" font-family="Helvetica,sans-Serif" font-size="10.00"> System.IConvertible.</text>
<text text-anchor="start" x="470" y="-114" font-family="Helvetica,sans-Serif" font-size="10.00"> ToDateTime(global::System.IFormat</text>
<text text-anchor="start" x="470" y="-103" font-family="Helvetica,sans-Serif" font-size="10.00">Provider provider)</text>
<text text-anchor="start" x="459.5" y="-88" font-family="Helvetica,sans-Serif" font-size="10.00">&#45;</text>
<text text-anchor="start" x="470" y="-88" font-family="Helvetica,sans-Serif" font-size="10.00">object System.IConvertible.</text>
<text text-anchor="start" x="470" y="-77" font-family="Helvetica,sans-Serif" font-size="10.00"> ToType(global::System.Type</text>
<text text-anchor="start" x="470" y="-66" font-family="Helvetica,sans-Serif" font-size="10.00"> type, global::System.IFormatProvider</text>
<text text-anchor="start" x="470" y="-55" font-family="Helvetica,sans-Serif" font-size="10.00"> provider)</text>
<text text-anchor="start" x="459.5" y="-40" font-family="Helvetica,sans-Serif" font-size="10.00">&#45;</text>
<text text-anchor="start" x="470" y="-40" font-family="Helvetica,sans-Serif" font-size="10.00">static global::System.Read</text>
<text text-anchor="start" x="470" y="-29" font-family="Helvetica,sans-Serif" font-size="10.00">OnlySpan&lt; char &gt; TrimWhiteSpace</text>
<text text-anchor="start" x="470" y="-18" font-family="Helvetica,sans-Serif" font-size="10.00">AndNull(global::System.ReadOnlySpan</text>
<text text-anchor="start" x="470" y="-7" font-family="Helvetica,sans-Serif" font-size="10.00">&lt; char &gt; value)</text>
<polygon fill="#666666" stroke="#666666" points="453,-969 453,-969 664,-969 664,-969 453,-969"/>
<polygon fill="#666666" stroke="#666666" points="453,-954 453,-954 664,-954 664,-954 453,-954"/>
<polygon fill="none" stroke="#666666" points="452.5,0 452.5,-986 663.5,-986 663.5,0 452.5,0"/>
</a>
</g>
</g>
<!-- Node2 -->
<g id="Node000002" class="node">
<title>Node2</title>
<g id="a_Node000002"><a xlink:title=" ">
<polygon fill="white" stroke="transparent" points="146,-1120.5 0,-1120.5 0,-1071.5 146,-1071.5 146,-1120.5"/>
<text text-anchor="start" x="5" y="-1108" font-family="Helvetica,sans-Serif" font-size="10.00">global::SystemIComparable</text>
<text text-anchor="start" x="71" y="-1093" font-family="Helvetica,sans-Serif" font-size="10.00"> </text>
<text text-anchor="start" x="71" y="-1078" font-family="Helvetica,sans-Serif" font-size="10.00"> </text>
<polygon fill="#666666" stroke="#666666" points="0,-1103 0,-1103 146,-1103 146,-1103 0,-1103"/>
<polygon fill="#666666" stroke="#666666" points="0,-1088 0,-1088 146,-1088 146,-1088 0,-1088"/>
<polygon fill="none" stroke="#666666" points="0,-1071.5 0,-1120.5 146,-1120.5 146,-1071.5 0,-1071.5"/>
</a>
</g>
</g>
<!-- Node2&#45;&gt;Node1 -->
<g id="edge1_Node000001_Node000002" class="edge">
<title>Node2&#45;&gt;Node1</title>
<g id="a_edge1_Node000001_Node000002"><a xlink:title=" ">
<path fill="none" stroke="#63b8ff" d="M98.68,-1063.17C163.78,-982.51 338.13,-766.46 452.32,-624.96"/>
<polygon fill="none" stroke="#63b8ff" points="95.57,-1061.46 92.01,-1071.44 101.02,-1065.86 95.57,-1061.46"/>
</a>
</g>
</g>
<!-- Node3 -->
<g id="Node000003" class="node">
<title>Node3</title>
<g id="a_Node000003"><a xlink:title=" ">
<polygon fill="white" stroke="transparent" points="307.5,-1120.5 164.5,-1120.5 164.5,-1071.5 307.5,-1071.5 307.5,-1120.5"/>
<text text-anchor="start" x="170" y="-1108" font-family="Helvetica,sans-Serif" font-size="10.00">global::SystemIConvertible</text>
<text text-anchor="start" x="234.5" y="-1093" font-family="Helvetica,sans-Serif" font-size="10.00"> </text>
<text text-anchor="start" x="234.5" y="-1078" font-family="Helvetica,sans-Serif" font-size="10.00"> </text>
<polygon fill="#666666" stroke="#666666" points="165,-1103 165,-1103 308,-1103 308,-1103 165,-1103"/>
<polygon fill="#666666" stroke="#666666" points="165,-1088 165,-1088 308,-1088 308,-1088 165,-1088"/>
<polygon fill="none" stroke="#666666" points="164.5,-1071.5 164.5,-1120.5 307.5,-1120.5 307.5,-1071.5 164.5,-1071.5"/>
</a>
</g>
</g>
<!-- Node3&#45;&gt;Node1 -->
<g id="edge2_Node000001_Node000003" class="edge">
<title>Node3&#45;&gt;Node1</title>
<g id="a_edge2_Node000001_Node000003"><a xlink:title=" ">
<path fill="none" stroke="#63b8ff" d="M253.52,-1062.31C290.7,-992.91 380.03,-826.17 452.38,-691.14"/>
<polygon fill="none" stroke="#63b8ff" points="250.26,-1060.97 248.62,-1071.44 256.43,-1064.28 250.26,-1060.97"/>
</a>
</g>
</g>
<!-- Node4 -->
<g id="Node000004" class="node">
<title>Node4</title>
<g id="a_Node000004"><a xlink:title=" ">
<polygon fill="white" stroke="transparent" points="472,-1126 326,-1126 326,-1066 472,-1066 472,-1126"/>
<text text-anchor="start" x="331" y="-1114" font-family="Helvetica,sans-Serif" font-size="10.00">global::SystemIComparable</text>
<text text-anchor="start" x="377" y="-1103" font-family="Helvetica,sans-Serif" font-size="10.00">&lt; bool &gt;</text>
<text text-anchor="start" x="397" y="-1088" font-family="Helvetica,sans-Serif" font-size="10.00"> </text>
<text text-anchor="start" x="397" y="-1073" font-family="Helvetica,sans-Serif" font-size="10.00"> </text>
<polygon fill="#666666" stroke="#666666" points="326,-1098 326,-1098 472,-1098 472,-1098 326,-1098"/>
<polygon fill="#666666" stroke="#666666" points="326,-1083 326,-1083 472,-1083 472,-1083 326,-1083"/>
<polygon fill="none" stroke="#666666" points="326,-1066 326,-1126 472,-1126 472,-1066 326,-1066"/>
</a>
</g>
</g>
<!-- Node4&#45;&gt;Node1 -->
<g id="edge3_Node000001_Node000004" class="edge">
<title>Node4&#45;&gt;Node1</title>
<g id="a_edge3_Node000001_Node000004"><a xlink:title=" ">
<path fill="none" stroke="#63b8ff" d="M409.36,-1055.82C419.11,-1018.99 434.81,-959.66 452.42,-893.07"/>
<polygon fill="none" stroke="#63b8ff" points="405.95,-1055.04 406.78,-1065.61 412.72,-1056.83 405.95,-1055.04"/>
</a>
</g>
</g>
<!-- Node5 -->
<g id="Node000005" class="node">
<title>Node5</title>
<g id="a_Node000005"><a xlink:title=" ">
<polygon fill="white" stroke="transparent" points="625.5,-1126 490.5,-1126 490.5,-1066 625.5,-1066 625.5,-1126"/>
<text text-anchor="start" x="496" y="-1114" font-family="Helvetica,sans-Serif" font-size="10.00">global::SystemIEquatable</text>
<text text-anchor="start" x="536.5" y="-1103" font-family="Helvetica,sans-Serif" font-size="10.00">&lt; bool &gt;</text>
<text text-anchor="start" x="556.5" y="-1088" font-family="Helvetica,sans-Serif" font-size="10.00"> </text>
<text text-anchor="start" x="556.5" y="-1073" font-family="Helvetica,sans-Serif" font-size="10.00"> </text>
<polygon fill="#666666" stroke="#666666" points="491,-1098 491,-1098 626,-1098 626,-1098 491,-1098"/>
<polygon fill="#666666" stroke="#666666" points="491,-1083 491,-1083 626,-1083 626,-1083 491,-1083"/>
<polygon fill="none" stroke="#666666" points="490.5,-1066 490.5,-1126 625.5,-1126 625.5,-1066 490.5,-1066"/>
</a>
</g>
</g>
<!-- Node5&#45;&gt;Node1 -->
<g id="edge4_Node000001_Node000005" class="edge">
<title>Node5&#45;&gt;Node1</title>
<g id="a_edge4_Node000001_Node000005"><a xlink:title=" ">
<path fill="none" stroke="#63b8ff" d="M558,-1055.49C558,-1037.21 558,-1013.44 558,-986.03"/>
<polygon fill="none" stroke="#63b8ff" points="554.5,-1055.61 558,-1065.61 561.5,-1055.61 554.5,-1055.61"/>
</a>
</g>
</g>
<!-- Node6 -->
<g id="Node000006" class="node">
<title>Node6</title>
<g id="a_Node000006"><a xlink:title=" ">
<polygon fill="white" stroke="transparent" points="676,-1120.5 644,-1120.5 644,-1071.5 676,-1071.5 676,-1120.5"/>
<text text-anchor="start" x="649" y="-1108" font-family="Helvetica,sans-Serif" font-size="10.00">bool</text>
<text text-anchor="start" x="658" y="-1093" font-family="Helvetica,sans-Serif" font-size="10.00"> </text>
<text text-anchor="start" x="658" y="-1078" font-family="Helvetica,sans-Serif" font-size="10.00"> </text>
<polygon fill="#666666" stroke="#666666" points="644,-1103 644,-1103 676,-1103 676,-1103 644,-1103"/>
<polygon fill="#666666" stroke="#666666" points="644,-1088 644,-1088 676,-1088 676,-1088 644,-1088"/>
<polygon fill="none" stroke="#666666" points="644,-1071.5 644,-1120.5 676,-1120.5 676,-1071.5 644,-1071.5"/>
</a>
</g>
</g>
<!-- Node6&#45;&gt;Node1 -->
<g id="edge5_Node000001_Node000006" class="edge">
<title>Node6&#45;&gt;Node1</title>
<g id="a_edge5_Node000001_Node000006"><a xlink:title=" ">
<path fill="none" stroke="#63b8ff" d="M645.33,-1071.32C641.42,-1064.07 637.57,-1055.91 635,-1048 629.71,-1031.68 624.78,-1014.97 620.19,-998"/>
<polygon fill="none" stroke="#63b8ff" points="620.14,-997.82 614.74,-993.04 617.07,-986.22 622.47,-990.99 620.14,-997.82"/>
</a>
</g>
<text text-anchor="middle" x="659.5" y="-1023.5" font-family="Helvetica,sans-Serif" font-size="10.00" fill="grey"> &#45;m_value</text>
</g>
<!-- Node7 -->
<g id="Node000007" class="node">
<title>Node7</title>
<g id="a_Node000007"><a xlink:title=" ">
<polygon fill="white" stroke="transparent" points="717.5,-1120.5 694.5,-1120.5 694.5,-1071.5 717.5,-1071.5 717.5,-1120.5"/>
<text text-anchor="start" x="700" y="-1108" font-family="Helvetica,sans-Serif" font-size="10.00">int</text>
<text text-anchor="start" x="704.5" y="-1093" font-family="Helvetica,sans-Serif" font-size="10.00"> </text>
<text text-anchor="start" x="704.5" y="-1078" font-family="Helvetica,sans-Serif" font-size="10.00"> </text>
<polygon fill="#666666" stroke="#666666" points="695,-1103 695,-1103 718,-1103 718,-1103 695,-1103"/>
<polygon fill="#666666" stroke="#666666" points="695,-1088 695,-1088 718,-1088 718,-1088 695,-1088"/>
<polygon fill="none" stroke="#666666" points="694.5,-1071.5 694.5,-1120.5 717.5,-1120.5 717.5,-1071.5 694.5,-1071.5"/>
</a>
</g>
</g>
<!-- Node7&#45;&gt;Node1 -->
<g id="edge6_Node000001_Node000007" class="edge">
<title>Node7&#45;&gt;Node1</title>
<g id="a_edge6_Node000001_Node000007"><a xlink:title=" ">
<path fill="none" stroke="#63b8ff" d="M700.33,-1071.42C695.91,-1053.05 689.6,-1026.89 684,-1004 678.28,-980.59 672.39,-956.57 666.44,-932.33"/>
<polygon fill="none" stroke="#63b8ff" points="666.38,-932.07 661.06,-927.2 663.52,-920.42 668.83,-925.29 666.38,-932.07"/>
</a>
</g>
<text text-anchor="middle" x="712.5" y="-1029" font-family="Helvetica,sans-Serif" font-size="10.00" fill="grey"> ~False</text>
<text text-anchor="middle" x="712.5" y="-1018" font-family="Helvetica,sans-Serif" font-size="10.00" fill="grey">~True</text>
</g>
<!-- Node8 -->
<g id="Node000008" class="node">
<title>Node8</title>
<g id="a_Node000008"><a xlink:title=" ">
<polygon fill="white" stroke="transparent" points="785,-1120.5 747,-1120.5 747,-1071.5 785,-1071.5 785,-1120.5"/>
<text text-anchor="start" x="752" y="-1108" font-family="Helvetica,sans-Serif" font-size="10.00">string</text>
<text text-anchor="start" x="764" y="-1093" font-family="Helvetica,sans-Serif" font-size="10.00"> </text>
<text text-anchor="start" x="764" y="-1078" font-family="Helvetica,sans-Serif" font-size="10.00"> </text>
<polygon fill="#666666" stroke="#666666" points="747,-1103 747,-1103 785,-1103 785,-1103 747,-1103"/>
<polygon fill="#666666" stroke="#666666" points="747,-1088 747,-1088 785,-1088 785,-1088 747,-1088"/>
<polygon fill="none" stroke="#666666" points="747,-1071.5 747,-1120.5 785,-1120.5 785,-1071.5 747,-1071.5"/>
</a>
</g>
</g>
<!-- Node8&#45;&gt;Node1 -->
<g id="edge7_Node000001_Node000008" class="edge">
<title>Node8&#45;&gt;Node1</title>
<g id="a_edge7_Node000001_Node000008"><a xlink:title=" ">
<path fill="none" stroke="#63b8ff" d="M758.01,-1071.42C751.77,-1053.04 742.87,-1026.89 735,-1004 713.29,-940.88 689.97,-873.4 667.6,-808.88"/>
<polygon fill="none" stroke="#63b8ff" points="667.51,-808.63 661.77,-804.27 663.58,-797.29 669.32,-801.65 667.51,-808.63"/>
</a>
</g>
<text text-anchor="middle" x="781.5" y="-1040" font-family="Helvetica,sans-Serif" font-size="10.00" fill="grey"> +FalseString</text>
<text text-anchor="middle" x="781.5" y="-1029" font-family="Helvetica,sans-Serif" font-size="10.00" fill="grey">+TrueString</text>
<text text-anchor="middle" x="781.5" y="-1018" font-family="Helvetica,sans-Serif" font-size="10.00" fill="grey">~FalseLiteral</text>
<text text-anchor="middle" x="781.5" y="-1007" font-family="Helvetica,sans-Serif" font-size="10.00" fill="grey">~TrueLiteral</text>
</g>
</g>
</svg>

<g id="navigator" transform="translate(0 0)" fill="#404254">
  <rect fill="#f2f5e9" fill-opacity="0.5" stroke="#606060" stroke-width=".5" x="0" y="0" width="60" height="60"/>
  <use id="zoomplus" xlink:href="#zoomPlus" x="17" y="9" onmousedown="handleZoom(evt,'in')"/>
  <use id="zoomminus" xlink:href="#zoomMin" x="42" y="9" onmousedown="handleZoom(evt,'out')"/>
  <use id="reset" xlink:href="#resetDef" x="30" y="36" onmousedown="handleReset()"/>
   <use id="arrowup" xlink:href="#arrowUp" x="0" y="0" onmousedown="handlePan(0,-1)"/>
  <use id="arrowright" xlink:href="#arrowRight" x="0" y="0" onmousedown="handlePan(1,0)"/>
  <use id="arrowdown" xlink:href="#arrowDown" x="0" y="0" onmousedown="handlePan(0,1)"/>
  <use id="arrowleft" xlink:href="#arrowLeft" x="0" y="0" onmousedown="handlePan(-1,0)"/>
</g>
<svg viewBox="0 0 15 15" width="100%" height="30px" preserveAspectRatio="xMaxYMin meet">
 <g id="arrow_out" transform="scale(0.3 0.3)">
  <a xlink:href="structSystem_1_1Boolean__coll__graph_org.svg" target="_base">
   <rect id="button" ry="5" rx="5" y="6" x="6" height="38" width="38"
        fill="#f2f5e9" fill-opacity="0.5" stroke="#606060" stroke-width="1.0"/>
   <path id="arrow"
     d="M 11.500037,31.436501 C 11.940474,20.09759 22.043105,11.32322 32.158766,21.979434 L 37.068811,17.246167 C 37.068811,17.246167 37.088388,32 37.088388,32 L 22.160133,31.978069 C 22.160133,31.978069 26.997745,27.140456 26.997745,27.140456 C 18.528582,18.264221 13.291696,25.230495 11.500037,31.436501 z"
     style="fill:#404040;"/>
  </a>
 </g>
</svg>

<style type='text/css'>
<![CDATA[
[data-mouse-over-selected='false'] { opacity: 0.7; }
[data-mouse-over-selected='true']  { opacity: 1.0; }
]]>
</style>
<script type="application/ecmascript"><![CDATA[
document.addEventListener('DOMContentLoaded', (event) => {
  highlightEdges();
  highlightAdjacentNodes();
});
]]></script>
</svg>
