<?xml version="1.0" encoding="UTF-8" standalone="no"?>
<!DOCTYPE svg PUBLIC "-//W3C//DTD SVG 1.1//EN"
 "http://www.w3.org/Graphics/SVG/1.1/DTD/svg11.dtd">
<!-- Generated by graphviz version 2.43.0 (0)
 -->
<!-- Title: Terraria.Graphics.CameraModifiers.PunchCameraModifier Pages: 1 -->
<!--zoomable 1156 -->

<svg id="main" version="1.1" xmlns="http://www.w3.org/2000/svg" xmlns:xlink="http://www.w3.org/1999/xlink" xml:space="preserve" onload="init(evt)">
<style type="text/css"><![CDATA[
.node, .edge {opacity: 0.7;}
.node.selected, .edge.selected {opacity: 1;}
.edge:hover path { stroke: red; }
.edge:hover polygon { stroke: red; fill: red; }
]]></style>

<defs>
  <circle id="rim" cx="0" cy="0" r="7"/>
  <circle id="rim2" cx="0" cy="0" r="3.5"/>
  <g id="zoomPlus">
    <use xlink:href="#rim" fill="#404040"><set attributeName="fill" to="#808080" begin="zoomplus.mouseover" end="zoomplus.mouseout"/></use>
    <path d="M-4,0h8M0,-4v8" fill="none" stroke="white" stroke-width="1.5" pointer-events="none"/>
  </g>
  <g id="zoomMin">
    <use xlink:href="#rim" fill="#404040"><set attributeName="fill" to="#808080" begin="zoomminus.mouseover" end="zoomminus.mouseout"/></use>
    <path d="M-4,0h8" fill="none" stroke="white" stroke-width="1.5" pointer-events="none"/>
  </g>
  <g id="arrowUp" transform="translate(30 24)">
    <use xlink:href="#rim"/>
    <path pointer-events="none" fill="none" stroke="white" stroke-width="1.5" d="M0,-3.0v7 M-2.5,-0.5L0,-3.0L2.5,-0.5"/>
  </g>
  <g id="arrowRight" transform="rotate(90) translate(36 -43)">
    <use xlink:href="#rim"/>
    <path pointer-events="none" fill="none" stroke="white" stroke-width="1.5" d="M0,-3.0v7 M-2.5,-0.5L0,-3.0L2.5,-0.5"/>
  </g>
  <g id="arrowDown" transform="rotate(180) translate(-30 -48)">
    <use xlink:href="#rim"/>
    <path pointer-events="none" fill="none" stroke="white" stroke-width="1.5" d="M0,-3.0v7 M-2.5,-0.5L0,-3.0L2.5,-0.5"/>
  </g>
  <g id="arrowLeft" transform="rotate(270) translate(-36 17)">
    <use xlink:href="#rim"/>
    <path pointer-events="none" fill="none" stroke="white" stroke-width="1.5" d="M0,-3.0v7 M-2.5,-0.5L0,-3.0L2.5,-0.5"/>
  </g>
  <g id="resetDef">
    <use xlink:href="#rim2" fill="#404040"><set attributeName="fill" to="#808080" begin="reset.mouseover" end="reset.mouseout"/></use>
  </g>
</defs>
<script type="application/ecmascript">
var viewWidth = 943;
var viewHeight = 1156;
var sectionId = 'dynsection-1';
</script>
<script type="application/ecmascript" xlink:href="../../svg.min.js"/>
<svg id="graph" class="graph">
<g id="viewport">
<title>Terraria.Graphics.CameraModifiers.PunchCameraModifier</title>
<!-- Node1 -->
<g id="Node000001" class="node">
<title>Node1</title>
<g id="a_Node000001"><a xlink:title=" ">
<polygon fill="#999999" stroke="transparent" points="590,-156 336,-156 336,0 590,0 590,-156"/>
<text text-anchor="start" x="385" y="-144" font-family="Helvetica,sans-Serif" font-size="10.00">Terraria.Graphics.Camera</text>
<text text-anchor="start" x="385" y="-133" font-family="Helvetica,sans-Serif" font-size="10.00">Modifiers.PunchCameraModifier</text>
<text text-anchor="start" x="340" y="-118" font-family="Helvetica,sans-Serif" font-size="10.00">+</text>
<text text-anchor="start" x="353" y="-118" font-family="Helvetica,sans-Serif" font-size="10.00">string UniqueIdentity</text>
<text text-anchor="start" x="340" y="-103" font-family="Helvetica,sans-Serif" font-size="10.00">+</text>
<text text-anchor="start" x="353" y="-103" font-family="Helvetica,sans-Serif" font-size="10.00">bool Finished</text>
<text text-anchor="start" x="340" y="-88" font-family="Helvetica,sans-Serif" font-size="10.00">+</text>
<text text-anchor="start" x="353" y="-88" font-family="Helvetica,sans-Serif" font-size="10.00">PunchCameraModifier</text>
<text text-anchor="start" x="353" y="-77" font-family="Helvetica,sans-Serif" font-size="10.00">(Vector2 startPosition,</text>
<text text-anchor="start" x="353" y="-66" font-family="Helvetica,sans-Serif" font-size="10.00"> Vector2 direction, float</text>
<text text-anchor="start" x="353" y="-55" font-family="Helvetica,sans-Serif" font-size="10.00"> strength, float vibrationCycles</text>
<text text-anchor="start" x="353" y="-44" font-family="Helvetica,sans-Serif" font-size="10.00">PerSecond, int frames, float</text>
<text text-anchor="start" x="353" y="-33" font-family="Helvetica,sans-Serif" font-size="10.00"> distanceFalloff=&#45;1f, string uniqueIdentity=null)</text>
<text text-anchor="start" x="340" y="-18" font-family="Helvetica,sans-Serif" font-size="10.00">+</text>
<text text-anchor="start" x="353" y="-18" font-family="Helvetica,sans-Serif" font-size="10.00">void Update(ref CameraInfo</text>
<text text-anchor="start" x="353" y="-7" font-family="Helvetica,sans-Serif" font-size="10.00"> cameraInfo)</text>
<polygon fill="#666666" stroke="#666666" points="336,-128 336,-128 590,-128 590,-128 336,-128"/>
<polygon fill="#666666" stroke="#666666" points="336,-98 336,-98 351,-98 351,-98 336,-98"/>
<polygon fill="#666666" stroke="#666666" points="351,-98 351,-98 590,-98 590,-98 351,-98"/>
<polygon fill="none" stroke="#666666" points="336,0 336,-156 590,-156 590,0 336,0"/>
</a>
</g>
</g>
<!-- Node2 -->
<g id="Node000002" class="node">
<title>Node2</title>
<g id="a_Node000002"><a xlink:href="../../de/d4a/interfaceTerraria_1_1Graphics_1_1CameraModifiers_1_1ICameraModifier.html" target="_top" xlink:title=" ">
<polygon fill="white" stroke="transparent" points="158,-617 0,-617 0,-542 158,-542 158,-617"/>
<text text-anchor="start" x="38" y="-604.5" font-family="Helvetica,sans-Serif" font-size="10.00">ICameraModifier</text>
<text text-anchor="start" x="4" y="-589.5" font-family="Helvetica,sans-Serif" font-size="10.00">+</text>
<text text-anchor="start" x="17" y="-589.5" font-family="Helvetica,sans-Serif" font-size="10.00">string UniqueIdentity</text>
<text text-anchor="start" x="4" y="-574.5" font-family="Helvetica,sans-Serif" font-size="10.00">+</text>
<text text-anchor="start" x="17" y="-574.5" font-family="Helvetica,sans-Serif" font-size="10.00">bool Finished</text>
<text text-anchor="start" x="4" y="-559.5" font-family="Helvetica,sans-Serif" font-size="10.00">+</text>
<text text-anchor="start" x="17" y="-559.5" font-family="Helvetica,sans-Serif" font-size="10.00">void Update(ref CameraInfo</text>
<text text-anchor="start" x="17" y="-548.5" font-family="Helvetica,sans-Serif" font-size="10.00"> cameraPosition)</text>
<polygon fill="#666666" stroke="#666666" points="0,-599.5 0,-599.5 158,-599.5 158,-599.5 0,-599.5"/>
<polygon fill="#666666" stroke="#666666" points="0,-569.5 0,-569.5 15,-569.5 15,-569.5 0,-569.5"/>
<polygon fill="#666666" stroke="#666666" points="15,-569.5 15,-569.5 158,-569.5 158,-569.5 15,-569.5"/>
<polygon fill="none" stroke="#666666" points="0,-542 0,-617 158,-617 158,-542 0,-542"/>
</a>
</g>
</g>
<!-- Node2&#45;&gt;Node1 -->
<g id="edge1_Node000001_Node000002" class="edge">
<title>Node2&#45;&gt;Node1</title>
<g id="a_edge1_Node000001_Node000002"><a xlink:title=" ">
<path fill="none" stroke="#63b8ff" d="M80.48,-531.51C84.81,-458.17 101.59,-314.5 166,-214 203.52,-155.47 273.34,-122.03 335.86,-103.08"/>
<polygon fill="none" stroke="#63b8ff" points="76.97,-531.63 79.93,-541.81 83.96,-532.01 76.97,-531.63"/>
</a>
</g>
</g>
<!-- Node3 -->
<g id="Node000003" class="node">
<title>Node3</title>
<g id="a_Node000003"><a xlink:title=" ">
<polygon fill="white" stroke="transparent" points="198.5,-604 175.5,-604 175.5,-555 198.5,-555 198.5,-604"/>
<text text-anchor="start" x="181" y="-591.5" font-family="Helvetica,sans-Serif" font-size="10.00">int</text>
<text text-anchor="start" x="185.5" y="-576.5" font-family="Helvetica,sans-Serif" font-size="10.00"> </text>
<text text-anchor="start" x="185.5" y="-561.5" font-family="Helvetica,sans-Serif" font-size="10.00"> </text>
<polygon fill="#666666" stroke="#666666" points="176,-586.5 176,-586.5 199,-586.5 199,-586.5 176,-586.5"/>
<polygon fill="#666666" stroke="#666666" points="176,-571.5 176,-571.5 199,-571.5 199,-571.5 176,-571.5"/>
<polygon fill="none" stroke="#666666" points="175.5,-555 175.5,-604 198.5,-604 198.5,-555 175.5,-555"/>
</a>
</g>
</g>
<!-- Node3&#45;&gt;Node1 -->
<g id="edge2_Node000001_Node000003" class="edge">
<title>Node3&#45;&gt;Node1</title>
<g id="a_edge2_Node000001_Node000003"><a xlink:title=" ">
<path fill="none" stroke="#63b8ff" d="M185.36,-554.91C180.82,-483.41 170.74,-270.55 207,-214 234.31,-171.41 279.74,-141.43 324.82,-120.74"/>
<polygon fill="none" stroke="#63b8ff" points="324.98,-120.67 328.85,-114.59 335.95,-115.81 332.09,-121.9 324.98,-120.67"/>
</a>
</g>
<text text-anchor="middle" x="276.5" y="-188" font-family="Helvetica,sans-Serif" font-size="10.00" fill="grey"> &#45;_framesLasted</text>
<text text-anchor="middle" x="276.5" y="-177" font-family="Helvetica,sans-Serif" font-size="10.00" fill="grey">&#45;_framesToLast</text>
</g>
<!-- Node4 -->
<g id="Node000004" class="node">
<title>Node4</title>
<g id="a_Node000004"><a xlink:href="../../dd/da4/structMicrosoft_1_1Xna_1_1Framework_1_1Vector2.html" target="_top" xlink:title=" ">
<polygon fill="white" stroke="transparent" points="399.5,-945 216.5,-945 216.5,-214 399.5,-214 399.5,-945"/>
<text text-anchor="start" x="244.5" y="-932.5" font-family="Helvetica,sans-Serif" font-size="10.00">Microsoft.Xna.Framework.</text>
<text text-anchor="start" x="290" y="-921.5" font-family="Helvetica,sans-Serif" font-size="10.00">Vector2</text>
<text text-anchor="start" x="221" y="-906.5" font-family="Helvetica,sans-Serif" font-size="10.00">+</text>
<text text-anchor="start" x="234" y="-906.5" font-family="Helvetica,sans-Serif" font-size="10.00">static Vector2 Zero</text>
<text text-anchor="start" x="221" y="-891.5" font-family="Helvetica,sans-Serif" font-size="10.00">+</text>
<text text-anchor="start" x="234" y="-891.5" font-family="Helvetica,sans-Serif" font-size="10.00">static Vector2 One</text>
<text text-anchor="start" x="221" y="-876.5" font-family="Helvetica,sans-Serif" font-size="10.00">+</text>
<text text-anchor="start" x="234" y="-876.5" font-family="Helvetica,sans-Serif" font-size="10.00">static Vector2 UnitX</text>
<text text-anchor="start" x="221" y="-861.5" font-family="Helvetica,sans-Serif" font-size="10.00">+</text>
<text text-anchor="start" x="234" y="-861.5" font-family="Helvetica,sans-Serif" font-size="10.00">static Vector2 UnitY</text>
<text text-anchor="start" x="221" y="-846.5" font-family="Helvetica,sans-Serif" font-size="10.00">+</text>
<text text-anchor="start" x="234" y="-846.5" font-family="Helvetica,sans-Serif" font-size="10.00">Vector2(float x, float y)</text>
<text text-anchor="start" x="221" y="-831.5" font-family="Helvetica,sans-Serif" font-size="10.00">+</text>
<text text-anchor="start" x="234" y="-831.5" font-family="Helvetica,sans-Serif" font-size="10.00">Vector2(float value)</text>
<text text-anchor="start" x="221" y="-816.5" font-family="Helvetica,sans-Serif" font-size="10.00">+</text>
<text text-anchor="start" x="234" y="-816.5" font-family="Helvetica,sans-Serif" font-size="10.00">override bool Equals</text>
<text text-anchor="start" x="234" y="-805.5" font-family="Helvetica,sans-Serif" font-size="10.00">(object obj)</text>
<text text-anchor="start" x="221" y="-790.5" font-family="Helvetica,sans-Serif" font-size="10.00">+</text>
<text text-anchor="start" x="234" y="-790.5" font-family="Helvetica,sans-Serif" font-size="10.00">bool Equals(Vector2</text>
<text text-anchor="start" x="234" y="-779.5" font-family="Helvetica,sans-Serif" font-size="10.00"> other)</text>
<text text-anchor="start" x="221" y="-764.5" font-family="Helvetica,sans-Serif" font-size="10.00">+</text>
<text text-anchor="start" x="234" y="-764.5" font-family="Helvetica,sans-Serif" font-size="10.00">override int GetHashCode()</text>
<text text-anchor="start" x="221" y="-749.5" font-family="Helvetica,sans-Serif" font-size="10.00">+</text>
<text text-anchor="start" x="234" y="-749.5" font-family="Helvetica,sans-Serif" font-size="10.00">float Length()</text>
<text text-anchor="start" x="221" y="-734.5" font-family="Helvetica,sans-Serif" font-size="10.00">+</text>
<text text-anchor="start" x="234" y="-734.5" font-family="Helvetica,sans-Serif" font-size="10.00">float LengthSquared()</text>
<text text-anchor="start" x="221" y="-719.5" font-family="Helvetica,sans-Serif" font-size="10.00">+</text>
<text text-anchor="start" x="234" y="-719.5" font-family="Helvetica,sans-Serif" font-size="10.00">void Normalize()</text>
<text text-anchor="start" x="221" y="-704.5" font-family="Helvetica,sans-Serif" font-size="10.00">+</text>
<text text-anchor="start" x="234" y="-704.5" font-family="Helvetica,sans-Serif" font-size="10.00">override string ToString()</text>
<text text-anchor="start" x="221" y="-689.5" font-family="Helvetica,sans-Serif" font-size="10.00">+</text>
<text text-anchor="start" x="234" y="-689.5" font-family="Helvetica,sans-Serif" font-size="10.00">static void Reflect</text>
<text text-anchor="start" x="234" y="-678.5" font-family="Helvetica,sans-Serif" font-size="10.00">(ref Vector2 vector,</text>
<text text-anchor="start" x="234" y="-667.5" font-family="Helvetica,sans-Serif" font-size="10.00"> ref Vector2 normal,</text>
<text text-anchor="start" x="234" y="-656.5" font-family="Helvetica,sans-Serif" font-size="10.00"> out Vector2 result)</text>
<text text-anchor="start" x="221" y="-641.5" font-family="Helvetica,sans-Serif" font-size="10.00">+</text>
<text text-anchor="start" x="234" y="-641.5" font-family="Helvetica,sans-Serif" font-size="10.00">static Vector2 Reflect</text>
<text text-anchor="start" x="234" y="-630.5" font-family="Helvetica,sans-Serif" font-size="10.00">(Vector2 vector, Vector2</text>
<text text-anchor="start" x="234" y="-619.5" font-family="Helvetica,sans-Serif" font-size="10.00"> normal)</text>
<text text-anchor="start" x="221" y="-604.5" font-family="Helvetica,sans-Serif" font-size="10.00">+</text>
<text text-anchor="start" x="234" y="-604.5" font-family="Helvetica,sans-Serif" font-size="10.00">static Vector2 Add</text>
<text text-anchor="start" x="234" y="-593.5" font-family="Helvetica,sans-Serif" font-size="10.00">(Vector2 value1, Vector2</text>
<text text-anchor="start" x="234" y="-582.5" font-family="Helvetica,sans-Serif" font-size="10.00"> value2)</text>
<text text-anchor="start" x="221" y="-567.5" font-family="Helvetica,sans-Serif" font-size="10.00">+</text>
<text text-anchor="start" x="234" y="-567.5" font-family="Helvetica,sans-Serif" font-size="10.00">static void Add(ref</text>
<text text-anchor="start" x="234" y="-556.5" font-family="Helvetica,sans-Serif" font-size="10.00"> Vector2 value1, ref</text>
<text text-anchor="start" x="234" y="-545.5" font-family="Helvetica,sans-Serif" font-size="10.00"> Vector2 value2, out</text>
<text text-anchor="start" x="234" y="-534.5" font-family="Helvetica,sans-Serif" font-size="10.00"> Vector2 result)</text>
<text text-anchor="start" x="221" y="-519.5" font-family="Helvetica,sans-Serif" font-size="10.00">+</text>
<text text-anchor="start" x="234" y="-519.5" font-family="Helvetica,sans-Serif" font-size="10.00">static Vector2 Barycentric</text>
<text text-anchor="start" x="234" y="-508.5" font-family="Helvetica,sans-Serif" font-size="10.00">(Vector2 value1, Vector2</text>
<text text-anchor="start" x="234" y="-497.5" font-family="Helvetica,sans-Serif" font-size="10.00"> value2, Vector2 value3,</text>
<text text-anchor="start" x="234" y="-486.5" font-family="Helvetica,sans-Serif" font-size="10.00"> float amount1, float amount2)</text>
<text text-anchor="start" x="221" y="-471.5" font-family="Helvetica,sans-Serif" font-size="10.00">+</text>
<text text-anchor="start" x="234" y="-471.5" font-family="Helvetica,sans-Serif" font-size="10.00">static void Barycentric</text>
<text text-anchor="start" x="234" y="-460.5" font-family="Helvetica,sans-Serif" font-size="10.00">(ref Vector2 value1, ref</text>
<text text-anchor="start" x="234" y="-449.5" font-family="Helvetica,sans-Serif" font-size="10.00"> Vector2 value2, ref Vector2</text>
<text text-anchor="start" x="234" y="-438.5" font-family="Helvetica,sans-Serif" font-size="10.00"> value3, float amount1, float</text>
<text text-anchor="start" x="234" y="-427.5" font-family="Helvetica,sans-Serif" font-size="10.00"> amount2, out Vector2 result)</text>
<text text-anchor="start" x="221" y="-412.5" font-family="Helvetica,sans-Serif" font-size="10.00">+</text>
<text text-anchor="start" x="234" y="-412.5" font-family="Helvetica,sans-Serif" font-size="10.00">static Vector2 CatmullRom</text>
<text text-anchor="start" x="234" y="-401.5" font-family="Helvetica,sans-Serif" font-size="10.00">(Vector2 value1, Vector2</text>
<text text-anchor="start" x="234" y="-390.5" font-family="Helvetica,sans-Serif" font-size="10.00"> value2, Vector2 value3,</text>
<text text-anchor="start" x="234" y="-379.5" font-family="Helvetica,sans-Serif" font-size="10.00"> Vector2 value4, float amount)</text>
<text text-anchor="start" x="221" y="-364.5" font-family="Helvetica,sans-Serif" font-size="10.00">+</text>
<text text-anchor="start" x="234" y="-364.5" font-family="Helvetica,sans-Serif" font-size="10.00">static void CatmullRom</text>
<text text-anchor="start" x="234" y="-353.5" font-family="Helvetica,sans-Serif" font-size="10.00">(ref Vector2 value1, ref</text>
<text text-anchor="start" x="234" y="-342.5" font-family="Helvetica,sans-Serif" font-size="10.00"> Vector2 value2, ref Vector2</text>
<text text-anchor="start" x="234" y="-331.5" font-family="Helvetica,sans-Serif" font-size="10.00"> value3, ref Vector2 value4,</text>
<text text-anchor="start" x="234" y="-320.5" font-family="Helvetica,sans-Serif" font-size="10.00"> float amount, out Vector2 result)</text>
<text text-anchor="start" x="221" y="-305.5" font-family="Helvetica,sans-Serif" font-size="10.00">+</text>
<text text-anchor="start" x="234" y="-305.5" font-family="Helvetica,sans-Serif" font-size="10.00">static Vector2 Clamp</text>
<text text-anchor="start" x="234" y="-294.5" font-family="Helvetica,sans-Serif" font-size="10.00">(Vector2 value1, Vector2</text>
<text text-anchor="start" x="234" y="-283.5" font-family="Helvetica,sans-Serif" font-size="10.00"> min, Vector2 max)</text>
<text text-anchor="start" x="221" y="-268.5" font-family="Helvetica,sans-Serif" font-size="10.00">+</text>
<text text-anchor="start" x="234" y="-268.5" font-family="Helvetica,sans-Serif" font-size="10.00">static void Clamp(ref</text>
<text text-anchor="start" x="234" y="-257.5" font-family="Helvetica,sans-Serif" font-size="10.00"> Vector2 value1, ref</text>
<text text-anchor="start" x="234" y="-246.5" font-family="Helvetica,sans-Serif" font-size="10.00"> Vector2 min, ref Vector2</text>
<text text-anchor="start" x="234" y="-235.5" font-family="Helvetica,sans-Serif" font-size="10.00"> max, out Vector2 result)</text>
<text text-anchor="start" x="234" y="-220.5" font-family="Helvetica,sans-Serif" font-size="10.00">and 53 more...</text>
<polygon fill="#666666" stroke="#666666" points="217,-916.5 217,-916.5 400,-916.5 400,-916.5 217,-916.5"/>
<polygon fill="#666666" stroke="#666666" points="217,-856.5 217,-856.5 232,-856.5 232,-856.5 217,-856.5"/>
<polygon fill="#666666" stroke="#666666" points="232,-856.5 232,-856.5 400,-856.5 400,-856.5 232,-856.5"/>
<polygon fill="none" stroke="#666666" points="216.5,-214 216.5,-945 399.5,-945 399.5,-214 216.5,-214"/>
</a>
</g>
</g>
<!-- Node4&#45;&gt;Node1 -->
<g id="edge3_Node000001_Node000004" class="edge">
<title>Node4&#45;&gt;Node1</title>
<g id="a_edge3_Node000001_Node000004"><a xlink:title=" ">
<path fill="none" stroke="#63b8ff" d="M399.52,-270.27C409.62,-237.71 419.9,-205.14 430,-174 430.68,-171.91 431.37,-169.8 432.07,-167.67"/>
<polygon fill="none" stroke="#63b8ff" points="432.11,-167.55 430.21,-160.59 435.9,-156.16 437.8,-163.12 432.11,-167.55"/>
</a>
</g>
<text text-anchor="middle" x="465.5" y="-188" font-family="Helvetica,sans-Serif" font-size="10.00" fill="grey"> &#45;_direction</text>
<text text-anchor="middle" x="465.5" y="-177" font-family="Helvetica,sans-Serif" font-size="10.00" fill="grey">&#45;_startPosition</text>
</g>
<!-- Node4&#45;&gt;Node4 -->
<g id="edge6_Node000004_Node000004" class="edge">
<title>Node4&#45;&gt;Node4</title>
<g id="a_edge6_Node000004_Node000004"><a xlink:title=" ">
<path fill="none" stroke="#63b8ff" d="M399.86,-642.55C410.55,-630.91 417.5,-609.9 417.5,-579.5 417.5,-556.47 413.51,-538.82 406.92,-526.56"/>
<polygon fill="none" stroke="#63b8ff" points="406.74,-526.29 400.02,-523.66 399.86,-516.45 406.58,-519.08 406.74,-526.29"/>
</a>
</g>
<text text-anchor="middle" x="448" y="-593.5" font-family="Helvetica,sans-Serif" font-size="10.00" fill="grey"> &#45;unitVector</text>
<text text-anchor="middle" x="448" y="-582.5" font-family="Helvetica,sans-Serif" font-size="10.00" fill="grey">&#45;unitXVector</text>
<text text-anchor="middle" x="448" y="-571.5" font-family="Helvetica,sans-Serif" font-size="10.00" fill="grey">&#45;unitYVector</text>
<text text-anchor="middle" x="448" y="-560.5" font-family="Helvetica,sans-Serif" font-size="10.00" fill="grey">&#45;zeroVector</text>
</g>
<!-- Node5 -->
<g id="Node000005" class="node">
<title>Node5</title>
<g id="a_Node000005"><a xlink:href="../../d6/d43/interfaceSystem_1_1IEquatable.html" target="_top" xlink:title=" ">
<polygon fill="white" stroke="transparent" points="369,-1052 247,-1052 247,-1003 369,-1003 369,-1052"/>
<text text-anchor="start" x="252" y="-1039.5" font-family="Helvetica,sans-Serif" font-size="10.00">IEquatable&lt; Vector2 &gt;</text>
<text text-anchor="start" x="306" y="-1024.5" font-family="Helvetica,sans-Serif" font-size="10.00"> </text>
<text text-anchor="start" x="251.5" y="-1009.5" font-family="Helvetica,sans-Serif" font-size="10.00">+</text>
<text text-anchor="start" x="265" y="-1009.5" font-family="Helvetica,sans-Serif" font-size="10.00">bool Equals(T other)</text>
<polygon fill="#666666" stroke="#666666" points="247,-1034.5 247,-1034.5 369,-1034.5 369,-1034.5 247,-1034.5"/>
<polygon fill="#666666" stroke="#666666" points="247,-1019.5 247,-1019.5 369,-1019.5 369,-1019.5 247,-1019.5"/>
<polygon fill="none" stroke="#666666" points="247,-1003 247,-1052 369,-1052 369,-1003 247,-1003"/>
</a>
</g>
</g>
<!-- Node5&#45;&gt;Node4 -->
<g id="edge4_Node000004_Node000005" class="edge">
<title>Node5&#45;&gt;Node4</title>
<g id="a_edge4_Node000004_Node000005"><a xlink:title=" ">
<path fill="none" stroke="#63b8ff" d="M308,-992.71C308,-979.74 308,-963.58 308,-945.25"/>
<polygon fill="none" stroke="#63b8ff" points="304.5,-992.84 308,-1002.84 311.5,-992.84 304.5,-992.84"/>
</a>
</g>
</g>
<!-- Node6 -->
<g id="Node000006" class="node">
<title>Node6</title>
<g id="a_Node000006"><a xlink:href="../../d6/d43/interfaceSystem_1_1IEquatable.html" target="_top" xlink:title=" ">
<polygon fill="white" stroke="transparent" points="373.5,-1148 242.5,-1148 242.5,-1099 373.5,-1099 373.5,-1148"/>
<text text-anchor="start" x="248" y="-1135.5" font-family="Helvetica,sans-Serif" font-size="10.00">System.IEquatable&lt; T &gt;</text>
<text text-anchor="start" x="306.5" y="-1120.5" font-family="Helvetica,sans-Serif" font-size="10.00"> </text>
<text text-anchor="start" x="249.5" y="-1105.5" font-family="Helvetica,sans-Serif" font-size="10.00">+</text>
<text text-anchor="start" x="265" y="-1105.5" font-family="Helvetica,sans-Serif" font-size="10.00">bool Equals(T other)</text>
<polygon fill="#666666" stroke="#666666" points="243,-1130.5 243,-1130.5 374,-1130.5 374,-1130.5 243,-1130.5"/>
<polygon fill="#666666" stroke="#666666" points="243,-1115.5 243,-1115.5 374,-1115.5 374,-1115.5 243,-1115.5"/>
<polygon fill="none" stroke="#666666" points="242.5,-1099 242.5,-1148 373.5,-1148 373.5,-1099 242.5,-1099"/>
</a>
</g>
</g>
<!-- Node6&#45;&gt;Node5 -->
<g id="edge5_Node000005_Node000006" class="edge">
<title>Node6&#45;&gt;Node5</title>
<g id="a_edge5_Node000005_Node000006"><a xlink:title=" ">
<path fill="none" stroke="orange" d="M308,-1088.6C308,-1076.54 308,-1063.23 308,-1052.21"/>
<polygon fill="orange" stroke="orange" points="304.5,-1088.78 308,-1098.78 311.5,-1088.78 304.5,-1088.78"/>
</a>
</g>
<text text-anchor="middle" x="339.5" y="-1073" font-family="Helvetica,sans-Serif" font-size="10.00" fill="grey"> &lt; Vector2 &gt;</text>
</g>
<!-- Node7 -->
<g id="Node000007" class="node">
<title>Node7</title>
<g id="a_Node000007"><a xlink:title=" ">
<polygon fill="white" stroke="transparent" points="479,-1052 447,-1052 447,-1003 479,-1003 479,-1052"/>
<text text-anchor="start" x="452" y="-1039.5" font-family="Helvetica,sans-Serif" font-size="10.00">float</text>
<text text-anchor="start" x="461" y="-1024.5" font-family="Helvetica,sans-Serif" font-size="10.00"> </text>
<text text-anchor="start" x="461" y="-1009.5" font-family="Helvetica,sans-Serif" font-size="10.00"> </text>
<polygon fill="#666666" stroke="#666666" points="447,-1034.5 447,-1034.5 479,-1034.5 479,-1034.5 447,-1034.5"/>
<polygon fill="#666666" stroke="#666666" points="447,-1019.5 447,-1019.5 479,-1019.5 479,-1019.5 447,-1019.5"/>
<polygon fill="none" stroke="#666666" points="447,-1003 447,-1052 479,-1052 479,-1003 447,-1003"/>
</a>
</g>
</g>
<!-- Node7&#45;&gt;Node1 -->
<g id="edge8_Node000001_Node000007" class="edge">
<title>Node7&#45;&gt;Node1</title>
<g id="a_edge8_Node000001_Node000007"><a xlink:title=" ">
<path fill="none" stroke="#63b8ff" d="M471.75,-1002.99C477.27,-986.91 483.93,-964.97 487,-945 537.59,-615.92 497.89,-528.93 501,-196 501.09,-186.22 502.85,-183.6 501,-174 500.61,-171.96 500.17,-169.91 499.7,-167.85"/>
<polygon fill="none" stroke="#63b8ff" points="499.64,-167.64 494.25,-162.86 496.59,-156.04 501.98,-160.82 499.64,-167.64"/>
</a>
</g>
<text text-anchor="middle" x="581" y="-588" font-family="Helvetica,sans-Serif" font-size="10.00" fill="grey"> &#45;_distanceFalloff</text>
<text text-anchor="middle" x="581" y="-577" font-family="Helvetica,sans-Serif" font-size="10.00" fill="grey">&#45;_strength</text>
<text text-anchor="middle" x="581" y="-566" font-family="Helvetica,sans-Serif" font-size="10.00" fill="grey">&#45;_vibrationCyclesPerSecond</text>
</g>
<!-- Node7&#45;&gt;Node4 -->
<g id="edge7_Node000004_Node000007" class="edge">
<title>Node7&#45;&gt;Node4</title>
<g id="a_edge7_Node000004_Node000007"><a xlink:title=" ">
<path fill="none" stroke="#63b8ff" d="M454.78,-1002.84C444.27,-972.62 424.89,-916.84 403.57,-855.5"/>
<polygon fill="none" stroke="#63b8ff" points="403.51,-855.33 397.76,-850.97 399.57,-843.99 405.32,-848.35 403.51,-855.33"/>
</a>
</g>
<text text-anchor="middle" x="456.5" y="-977" font-family="Helvetica,sans-Serif" font-size="10.00" fill="grey"> +X</text>
<text text-anchor="middle" x="456.5" y="-966" font-family="Helvetica,sans-Serif" font-size="10.00" fill="grey">+Y</text>
</g>
<!-- Node8 -->
<g id="Node000008" class="node">
<title>Node8</title>
<g id="a_Node000008"><a xlink:title=" ">
<polygon fill="white" stroke="transparent" points="802.5,-604 669.5,-604 669.5,-555 802.5,-555 802.5,-604"/>
<text text-anchor="start" x="675" y="-591.5" font-family="Helvetica,sans-Serif" font-size="10.00">string&lt; UniqueIdentity &gt;</text>
<text text-anchor="start" x="734.5" y="-576.5" font-family="Helvetica,sans-Serif" font-size="10.00"> </text>
<text text-anchor="start" x="734.5" y="-561.5" font-family="Helvetica,sans-Serif" font-size="10.00"> </text>
<polygon fill="#666666" stroke="#666666" points="670,-586.5 670,-586.5 803,-586.5 803,-586.5 670,-586.5"/>
<polygon fill="#666666" stroke="#666666" points="670,-571.5 670,-571.5 803,-571.5 803,-571.5 670,-571.5"/>
<polygon fill="none" stroke="#666666" points="669.5,-555 669.5,-604 802.5,-604 802.5,-555 669.5,-555"/>
</a>
</g>
</g>
<!-- Node8&#45;&gt;Node1 -->
<g id="edge9_Node000001_Node000008" class="edge">
<title>Node8&#45;&gt;Node1</title>
<g id="a_edge9_Node000001_Node000008"><a xlink:title=" ">
<path fill="none" stroke="#63b8ff" d="M736.42,-554.93C736.4,-493.42 729.11,-325.09 655,-214 640.39,-192.1 620.93,-172.66 599.99,-155.82"/>
<polygon fill="none" stroke="#63b8ff" points="599.75,-155.64 592.56,-155.11 590.28,-148.27 597.47,-148.8 599.75,-155.64"/>
</a>
</g>
<text text-anchor="middle" x="683" y="-182.5" font-family="Helvetica,sans-Serif" font-size="10.00" fill="grey"> &#45;k__BackingField</text>
</g>
<!-- Node9 -->
<g id="Node000009" class="node">
<title>Node9</title>
<g id="a_Node000009"><a xlink:title=" ">
<polygon fill="white" stroke="transparent" points="755,-1052 717,-1052 717,-1003 755,-1003 755,-1052"/>
<text text-anchor="start" x="722" y="-1039.5" font-family="Helvetica,sans-Serif" font-size="10.00">string</text>
<text text-anchor="start" x="734" y="-1024.5" font-family="Helvetica,sans-Serif" font-size="10.00"> </text>
<text text-anchor="start" x="734" y="-1009.5" font-family="Helvetica,sans-Serif" font-size="10.00"> </text>
<polygon fill="#666666" stroke="#666666" points="717,-1034.5 717,-1034.5 755,-1034.5 755,-1034.5 717,-1034.5"/>
<polygon fill="#666666" stroke="#666666" points="717,-1019.5 717,-1019.5 755,-1019.5 755,-1019.5 717,-1019.5"/>
<polygon fill="none" stroke="#666666" points="717,-1003 717,-1052 755,-1052 755,-1003 717,-1003"/>
</a>
</g>
</g>
<!-- Node9&#45;&gt;Node8 -->
<g id="edge10_Node000008_Node000009" class="edge">
<title>Node9&#45;&gt;Node8</title>
<g id="a_edge10_Node000008_Node000009"><a xlink:title=" ">
<path fill="none" stroke="orange" d="M736,-992.77C736,-906.28 736,-678.19 736,-604.11"/>
<polygon fill="orange" stroke="orange" points="732.5,-992.84 736,-1002.84 739.5,-992.84 732.5,-992.84"/>
</a>
</g>
<text text-anchor="middle" x="785" y="-971.5" font-family="Helvetica,sans-Serif" font-size="10.00" fill="grey"> &lt; UniqueIdentity &gt;</text>
</g>
<!-- Node10 -->
<g id="Node000010" class="node">
<title>Node10</title>
<g id="a_Node000010"><a xlink:title=" ">
<polygon fill="white" stroke="transparent" points="915.5,-604 820.5,-604 820.5,-555 915.5,-555 915.5,-604"/>
<text text-anchor="start" x="826" y="-591.5" font-family="Helvetica,sans-Serif" font-size="10.00">bool&lt; Finished &gt;</text>
<text text-anchor="start" x="866.5" y="-576.5" font-family="Helvetica,sans-Serif" font-size="10.00"> </text>
<text text-anchor="start" x="866.5" y="-561.5" font-family="Helvetica,sans-Serif" font-size="10.00"> </text>
<polygon fill="#666666" stroke="#666666" points="821,-586.5 821,-586.5 916,-586.5 916,-586.5 821,-586.5"/>
<polygon fill="#666666" stroke="#666666" points="821,-571.5 821,-571.5 916,-571.5 916,-571.5 821,-571.5"/>
<polygon fill="none" stroke="#666666" points="820.5,-555 820.5,-604 915.5,-604 915.5,-555 820.5,-555"/>
</a>
</g>
</g>
<!-- Node10&#45;&gt;Node1 -->
<g id="edge11_Node000001_Node000010" class="edge">
<title>Node10&#45;&gt;Node1</title>
<g id="a_edge11_Node000001_Node000010"><a xlink:title=" ">
<path fill="none" stroke="#63b8ff" d="M871.21,-554.84C878.37,-492.39 889.31,-320.59 811,-214 762.29,-147.7 676.3,-113.95 601.99,-96.78"/>
<polygon fill="none" stroke="#63b8ff" points="601.89,-96.76 595.17,-99.37 590.18,-94.17 596.9,-91.56 601.89,-96.76"/>
</a>
</g>
<text text-anchor="middle" x="835" y="-182.5" font-family="Helvetica,sans-Serif" font-size="10.00" fill="grey"> &#45;k__BackingField</text>
</g>
<!-- Node11 -->
<g id="Node000011" class="node">
<title>Node11</title>
<g id="a_Node000011"><a xlink:title=" ">
<polygon fill="white" stroke="transparent" points="884,-1052 852,-1052 852,-1003 884,-1003 884,-1052"/>
<text text-anchor="start" x="857" y="-1039.5" font-family="Helvetica,sans-Serif" font-size="10.00">bool</text>
<text text-anchor="start" x="866" y="-1024.5" font-family="Helvetica,sans-Serif" font-size="10.00"> </text>
<text text-anchor="start" x="866" y="-1009.5" font-family="Helvetica,sans-Serif" font-size="10.00"> </text>
<polygon fill="#666666" stroke="#666666" points="852,-1034.5 852,-1034.5 884,-1034.5 884,-1034.5 852,-1034.5"/>
<polygon fill="#666666" stroke="#666666" points="852,-1019.5 852,-1019.5 884,-1019.5 884,-1019.5 852,-1019.5"/>
<polygon fill="none" stroke="#666666" points="852,-1003 852,-1052 884,-1052 884,-1003 852,-1003"/>
</a>
</g>
</g>
<!-- Node11&#45;&gt;Node10 -->
<g id="edge12_Node000010_Node000011" class="edge">
<title>Node11&#45;&gt;Node10</title>
<g id="a_edge12_Node000010_Node000011"><a xlink:title=" ">
<path fill="none" stroke="orange" d="M868,-992.77C868,-906.28 868,-678.19 868,-604.11"/>
<polygon fill="orange" stroke="orange" points="864.5,-992.84 868,-1002.84 871.5,-992.84 864.5,-992.84"/>
</a>
</g>
<text text-anchor="middle" x="901.5" y="-971.5" font-family="Helvetica,sans-Serif" font-size="10.00" fill="grey"> &lt; Finished &gt;</text>
</g>
</g>
</svg>

<g id="navigator" transform="translate(0 0)" fill="#404254">
  <rect fill="#f2f5e9" fill-opacity="0.5" stroke="#606060" stroke-width=".5" x="0" y="0" width="60" height="60"/>
  <use id="zoomplus" xlink:href="#zoomPlus" x="17" y="9" onmousedown="handleZoom(evt,'in')"/>
  <use id="zoomminus" xlink:href="#zoomMin" x="42" y="9" onmousedown="handleZoom(evt,'out')"/>
  <use id="reset" xlink:href="#resetDef" x="30" y="36" onmousedown="handleReset()"/>
   <use id="arrowup" xlink:href="#arrowUp" x="0" y="0" onmousedown="handlePan(0,-1)"/>
  <use id="arrowright" xlink:href="#arrowRight" x="0" y="0" onmousedown="handlePan(1,0)"/>
  <use id="arrowdown" xlink:href="#arrowDown" x="0" y="0" onmousedown="handlePan(0,1)"/>
  <use id="arrowleft" xlink:href="#arrowLeft" x="0" y="0" onmousedown="handlePan(-1,0)"/>
</g>
<svg viewBox="0 0 15 15" width="100%" height="30px" preserveAspectRatio="xMaxYMin meet">
 <g id="arrow_out" transform="scale(0.3 0.3)">
  <a xlink:href="classTerraria_1_1Graphics_1_1CameraModifiers_1_1PunchCameraModifier__coll__graph_org.svg" target="_base">
   <rect id="button" ry="5" rx="5" y="6" x="6" height="38" width="38"
        fill="#f2f5e9" fill-opacity="0.5" stroke="#606060" stroke-width="1.0"/>
   <path id="arrow"
     d="M 11.500037,31.436501 C 11.940474,20.09759 22.043105,11.32322 32.158766,21.979434 L 37.068811,17.246167 C 37.068811,17.246167 37.088388,32 37.088388,32 L 22.160133,31.978069 C 22.160133,31.978069 26.997745,27.140456 26.997745,27.140456 C 18.528582,18.264221 13.291696,25.230495 11.500037,31.436501 z"
     style="fill:#404040;"/>
  </a>
 </g>
</svg>

<style type='text/css'>
<![CDATA[
[data-mouse-over-selected='false'] { opacity: 0.7; }
[data-mouse-over-selected='true']  { opacity: 1.0; }
]]>
</style>
<script type="application/ecmascript"><![CDATA[
document.addEventListener('DOMContentLoaded', (event) => {
  highlightEdges();
  highlightAdjacentNodes();
});
]]></script>
</svg>
