<?xml version="1.0" encoding="UTF-8" standalone="no"?>
<!DOCTYPE svg PUBLIC "-//W3C//DTD SVG 1.1//EN"
 "http://www.w3.org/Graphics/SVG/1.1/DTD/svg11.dtd">
<!-- Generated by graphviz version 2.43.0 (0)
 -->
<!-- Title: System.Configuration.ConfigurationSection Pages: 1 -->
<svg width="2048pt" height="776pt"
 viewBox="0.00 0.00 2048.00 776.00" xmlns="http://www.w3.org/2000/svg" xmlns:xlink="http://www.w3.org/1999/xlink">
<g id="graph0" class="graph" transform="scale(1 1) rotate(0) translate(4 772)">
<title>System.Configuration.ConfigurationSection</title>
<!-- Node1 -->
<g id="Node000001" class="node">
<title>Node1</title>
<g id="a_Node000001"><a xlink:title=" ">
<polygon fill="#999999" stroke="transparent" points="1108,-457 910,-457 910,-308 1108,-308 1108,-457"/>
<text text-anchor="start" x="922" y="-444.5" font-family="Helvetica,sans-Serif" font-size="10.00">System.Configuration.Configuration</text>
<text text-anchor="start" x="990.5" y="-433.5" font-family="Helvetica,sans-Serif" font-size="10.00">Section</text>
<text text-anchor="start" x="1007" y="-418.5" font-family="Helvetica,sans-Serif" font-size="10.00"> </text>
<text text-anchor="start" x="914" y="-403.5" font-family="Helvetica,sans-Serif" font-size="10.00">~</text>
<text text-anchor="start" x="927" y="-403.5" font-family="Helvetica,sans-Serif" font-size="10.00">virtual void Deserialize</text>
<text text-anchor="start" x="927" y="-392.5" font-family="Helvetica,sans-Serif" font-size="10.00">Section(XmlReader reader)</text>
<text text-anchor="start" x="914" y="-377.5" font-family="Helvetica,sans-Serif" font-size="10.00">~</text>
<text text-anchor="start" x="927" y="-377.5" font-family="Helvetica,sans-Serif" font-size="10.00">override bool IsModified()</text>
<text text-anchor="start" x="914" y="-362.5" font-family="Helvetica,sans-Serif" font-size="10.00">~</text>
<text text-anchor="start" x="927" y="-362.5" font-family="Helvetica,sans-Serif" font-size="10.00">override void ResetModified()</text>
<text text-anchor="start" x="914" y="-347.5" font-family="Helvetica,sans-Serif" font-size="10.00">~</text>
<text text-anchor="start" x="927" y="-347.5" font-family="Helvetica,sans-Serif" font-size="10.00">virtual string Serialize</text>
<text text-anchor="start" x="927" y="-336.5" font-family="Helvetica,sans-Serif" font-size="10.00">Section(ConfigurationElement</text>
<text text-anchor="start" x="927" y="-325.5" font-family="Helvetica,sans-Serif" font-size="10.00"> parentElement, string name,</text>
<text text-anchor="start" x="927" y="-314.5" font-family="Helvetica,sans-Serif" font-size="10.00"> ConfigurationSaveMode saveMode)</text>
<polygon fill="#666666" stroke="#666666" points="910,-428.5 910,-428.5 1108,-428.5 1108,-428.5 910,-428.5"/>
<polygon fill="#666666" stroke="#666666" points="910,-413.5 910,-413.5 1108,-413.5 1108,-413.5 910,-413.5"/>
<polygon fill="none" stroke="#666666" points="910,-308 910,-457 1108,-457 1108,-308 910,-308"/>
</a>
</g>
</g>
<!-- Node3 -->
<g id="Node000003" class="node">
<title>Node3</title>
<g id="a_Node000003"><a xlink:href="../../d8/d7d/classSystem_1_1Configuration_1_1ClientSettingsSection.html" target="_top" xlink:title=" ">
<polygon fill="white" stroke="transparent" points="172,-184.5 0,-184.5 0,-87.5 172,-87.5 172,-184.5"/>
<text text-anchor="start" x="17.5" y="-172" font-family="Helvetica,sans-Serif" font-size="10.00">System.Configuration.Client</text>
<text text-anchor="start" x="48" y="-161" font-family="Helvetica,sans-Serif" font-size="10.00">SettingsSection</text>
<text text-anchor="start" x="4" y="-146" font-family="Helvetica,sans-Serif" font-size="10.00">+</text>
<text text-anchor="start" x="17" y="-146" font-family="Helvetica,sans-Serif" font-size="10.00">override ConfigurationProperty</text>
<text text-anchor="start" x="17" y="-135" font-family="Helvetica,sans-Serif" font-size="10.00">Collection Properties</text>
<text text-anchor="start" x="4" y="-120" font-family="Helvetica,sans-Serif" font-size="10.00">+</text>
<text text-anchor="start" x="17" y="-120" font-family="Helvetica,sans-Serif" font-size="10.00">SettingElementCollection</text>
<text text-anchor="start" x="17" y="-109" font-family="Helvetica,sans-Serif" font-size="10.00"> Settings</text>
<text text-anchor="start" x="4" y="-94" font-family="Helvetica,sans-Serif" font-size="10.00">+</text>
<text text-anchor="start" x="17" y="-94" font-family="Helvetica,sans-Serif" font-size="10.00">ClientSettingsSection()</text>
<polygon fill="#666666" stroke="#666666" points="0,-156 0,-156 172,-156 172,-156 0,-156"/>
<polygon fill="#666666" stroke="#666666" points="0,-104 0,-104 15,-104 15,-104 0,-104"/>
<polygon fill="#666666" stroke="#666666" points="15,-104 15,-104 172,-104 172,-104 15,-104"/>
<polygon fill="none" stroke="#666666" points="0,-87.5 0,-184.5 172,-184.5 172,-87.5 0,-87.5"/>
</a>
</g>
</g>
<!-- Node1&#45;&gt;Node3 -->
<g id="edge2_Node000001_Node000003" class="edge">
<title>Node1&#45;&gt;Node3</title>
<g id="a_edge2_Node000001_Node000003"><a xlink:title=" ">
<path fill="none" stroke="#63b8ff" d="M899.8,-377.82C703.32,-369.46 299.63,-343.85 181,-272 147.54,-251.74 122.75,-214.7 106.9,-184.54"/>
<polygon fill="none" stroke="#63b8ff" points="899.72,-381.32 909.86,-378.24 900.01,-374.33 899.72,-381.32"/>
</a>
</g>
</g>
<!-- Node4 -->
<g id="Node000004" class="node">
<title>Node4</title>
<g id="a_Node000004"><a xlink:href="../../d4/d34/classSystem_1_1Configuration_1_1IgnoreSection.html" target="_top" xlink:title=" ">
<polygon fill="white" stroke="transparent" points="388,-242 190,-242 190,-30 388,-30 388,-242"/>
<text text-anchor="start" x="219.5" y="-230" font-family="Helvetica,sans-Serif" font-size="10.00">System.Configuration.Ignore</text>
<text text-anchor="start" x="270.5" y="-219" font-family="Helvetica,sans-Serif" font-size="10.00">Section</text>
<text text-anchor="start" x="194" y="-204" font-family="Helvetica,sans-Serif" font-size="10.00">+</text>
<text text-anchor="start" x="207" y="-204" font-family="Helvetica,sans-Serif" font-size="10.00">override ConfigurationProperty</text>
<text text-anchor="start" x="207" y="-193" font-family="Helvetica,sans-Serif" font-size="10.00">Collection Properties</text>
<text text-anchor="start" x="194" y="-178" font-family="Helvetica,sans-Serif" font-size="10.00">+</text>
<text text-anchor="start" x="207" y="-178" font-family="Helvetica,sans-Serif" font-size="10.00">IgnoreSection()</text>
<text text-anchor="start" x="194" y="-163" font-family="Helvetica,sans-Serif" font-size="10.00">~</text>
<text text-anchor="start" x="207" y="-163" font-family="Helvetica,sans-Serif" font-size="10.00">override void Deserialize</text>
<text text-anchor="start" x="207" y="-152" font-family="Helvetica,sans-Serif" font-size="10.00">Section(XmlReader xmlReader)</text>
<text text-anchor="start" x="194" y="-137" font-family="Helvetica,sans-Serif" font-size="10.00">~</text>
<text text-anchor="start" x="207" y="-137" font-family="Helvetica,sans-Serif" font-size="10.00">override bool IsModified()</text>
<text text-anchor="start" x="194" y="-122" font-family="Helvetica,sans-Serif" font-size="10.00">~</text>
<text text-anchor="start" x="207" y="-122" font-family="Helvetica,sans-Serif" font-size="10.00">override void Reset</text>
<text text-anchor="start" x="207" y="-111" font-family="Helvetica,sans-Serif" font-size="10.00">(ConfigurationElement</text>
<text text-anchor="start" x="207" y="-100" font-family="Helvetica,sans-Serif" font-size="10.00"> parentSection)</text>
<text text-anchor="start" x="194" y="-85" font-family="Helvetica,sans-Serif" font-size="10.00">~</text>
<text text-anchor="start" x="207" y="-85" font-family="Helvetica,sans-Serif" font-size="10.00">override void ResetModified()</text>
<text text-anchor="start" x="194" y="-70" font-family="Helvetica,sans-Serif" font-size="10.00">~</text>
<text text-anchor="start" x="207" y="-70" font-family="Helvetica,sans-Serif" font-size="10.00">override string Serialize</text>
<text text-anchor="start" x="207" y="-59" font-family="Helvetica,sans-Serif" font-size="10.00">Section(ConfigurationElement</text>
<text text-anchor="start" x="207" y="-48" font-family="Helvetica,sans-Serif" font-size="10.00"> parentSection, string name,</text>
<text text-anchor="start" x="207" y="-37" font-family="Helvetica,sans-Serif" font-size="10.00"> ConfigurationSaveMode saveMode)</text>
<polygon fill="#666666" stroke="#666666" points="190,-214 190,-214 388,-214 388,-214 190,-214"/>
<polygon fill="#666666" stroke="#666666" points="190,-188 190,-188 205,-188 205,-188 190,-188"/>
<polygon fill="#666666" stroke="#666666" points="205,-188 205,-188 388,-188 388,-188 205,-188"/>
<polygon fill="none" stroke="#666666" points="190,-30 190,-242 388,-242 388,-30 190,-30"/>
</a>
</g>
</g>
<!-- Node1&#45;&gt;Node4 -->
<g id="edge3_Node000001_Node000004" class="edge">
<title>Node1&#45;&gt;Node4</title>
<g id="a_edge3_Node000001_Node000004"><a xlink:title=" ">
<path fill="none" stroke="#63b8ff" d="M899.39,-371.21C746.92,-355.34 480.15,-321.45 397,-272 383.46,-263.95 370.93,-253.52 359.56,-242.03"/>
<polygon fill="none" stroke="#63b8ff" points="899.41,-374.73 909.72,-372.28 900.13,-367.77 899.41,-374.73"/>
</a>
</g>
</g>
<!-- Node5 -->
<g id="Node000005" class="node">
<title>Node5</title>
<g id="a_Node000005"><a xlink:href="../../dd/dc1/classSystem_1_1Configuration_1_1UriSection.html" target="_top" xlink:title=" ">
<polygon fill="white" stroke="transparent" points="590,-199.5 406,-199.5 406,-72.5 590,-72.5 590,-199.5"/>
<text text-anchor="start" x="436.5" y="-187" font-family="Helvetica,sans-Serif" font-size="10.00">System.Configuration.Uri</text>
<text text-anchor="start" x="479.5" y="-176" font-family="Helvetica,sans-Serif" font-size="10.00">Section</text>
<text text-anchor="start" x="410" y="-161" font-family="Helvetica,sans-Serif" font-size="10.00">+</text>
<text text-anchor="start" x="423" y="-161" font-family="Helvetica,sans-Serif" font-size="10.00">IdnElement Idn</text>
<text text-anchor="start" x="410" y="-146" font-family="Helvetica,sans-Serif" font-size="10.00">+</text>
<text text-anchor="start" x="423" y="-146" font-family="Helvetica,sans-Serif" font-size="10.00">IriParsingElement IriParsing</text>
<text text-anchor="start" x="410" y="-131" font-family="Helvetica,sans-Serif" font-size="10.00">+</text>
<text text-anchor="start" x="423" y="-131" font-family="Helvetica,sans-Serif" font-size="10.00">override ConfigurationProperty</text>
<text text-anchor="start" x="423" y="-120" font-family="Helvetica,sans-Serif" font-size="10.00">Collection Properties</text>
<text text-anchor="start" x="410" y="-105" font-family="Helvetica,sans-Serif" font-size="10.00">+</text>
<text text-anchor="start" x="423" y="-105" font-family="Helvetica,sans-Serif" font-size="10.00">SchemeSettingElementCollection</text>
<text text-anchor="start" x="423" y="-94" font-family="Helvetica,sans-Serif" font-size="10.00"> SchemeSettings</text>
<text text-anchor="start" x="410" y="-79" font-family="Helvetica,sans-Serif" font-size="10.00">+</text>
<text text-anchor="start" x="423" y="-79" font-family="Helvetica,sans-Serif" font-size="10.00">UriSection()</text>
<polygon fill="#666666" stroke="#666666" points="406,-171 406,-171 590,-171 590,-171 406,-171"/>
<polygon fill="#666666" stroke="#666666" points="406,-89 406,-89 421,-89 421,-89 406,-89"/>
<polygon fill="#666666" stroke="#666666" points="421,-89 421,-89 590,-89 590,-89 421,-89"/>
<polygon fill="none" stroke="#666666" points="406,-72.5 406,-199.5 590,-199.5 590,-72.5 406,-72.5"/>
</a>
</g>
</g>
<!-- Node1&#45;&gt;Node5 -->
<g id="edge4_Node000001_Node000005" class="edge">
<title>Node1&#45;&gt;Node5</title>
<g id="a_edge4_Node000001_Node000005"><a xlink:title=" ">
<path fill="none" stroke="#63b8ff" d="M899.96,-372.11C812.31,-360.16 689.34,-333.11 599,-272 571.85,-253.63 549.12,-225.5 532.14,-199.66"/>
<polygon fill="none" stroke="#63b8ff" points="899.56,-375.59 909.93,-373.42 900.47,-368.65 899.56,-375.59"/>
</a>
</g>
</g>
<!-- Node6 -->
<g id="Node000006" class="node">
<title>Node6</title>
<g id="a_Node000006"><a xlink:href="../../dc/d1c/classSystem_1_1Net_1_1Configuration_1_1AuthenticationModulesSection.html" target="_top" xlink:title=" ">
<polygon fill="white" stroke="transparent" points="794,-205 608,-205 608,-67 794,-67 794,-205"/>
<text text-anchor="start" x="626.5" y="-193" font-family="Helvetica,sans-Serif" font-size="10.00">System.Net.Configuration.</text>
<text text-anchor="start" x="626.5" y="-182" font-family="Helvetica,sans-Serif" font-size="10.00">AuthenticationModulesSection</text>
<text text-anchor="start" x="612" y="-167" font-family="Helvetica,sans-Serif" font-size="10.00">+</text>
<text text-anchor="start" x="625" y="-167" font-family="Helvetica,sans-Serif" font-size="10.00">AuthenticationModuleElement</text>
<text text-anchor="start" x="625" y="-156" font-family="Helvetica,sans-Serif" font-size="10.00">Collection AuthenticationModules</text>
<text text-anchor="start" x="612" y="-141" font-family="Helvetica,sans-Serif" font-size="10.00">+</text>
<text text-anchor="start" x="625" y="-141" font-family="Helvetica,sans-Serif" font-size="10.00">override ConfigurationProperty</text>
<text text-anchor="start" x="625" y="-130" font-family="Helvetica,sans-Serif" font-size="10.00">Collection Properties</text>
<text text-anchor="start" x="612" y="-115" font-family="Helvetica,sans-Serif" font-size="10.00">+</text>
<text text-anchor="start" x="625" y="-115" font-family="Helvetica,sans-Serif" font-size="10.00">AuthenticationModulesSection()</text>
<text text-anchor="start" x="612" y="-100" font-family="Helvetica,sans-Serif" font-size="10.00">#</text>
<text text-anchor="start" x="625" y="-100" font-family="Helvetica,sans-Serif" font-size="10.00">override void Initialize</text>
<text text-anchor="start" x="625" y="-89" font-family="Helvetica,sans-Serif" font-size="10.00">Default()</text>
<text text-anchor="start" x="612" y="-74" font-family="Helvetica,sans-Serif" font-size="10.00">#</text>
<text text-anchor="start" x="625" y="-74" font-family="Helvetica,sans-Serif" font-size="10.00">override void PostDeserialize()</text>
<polygon fill="#666666" stroke="#666666" points="608,-177 608,-177 794,-177 794,-177 608,-177"/>
<polygon fill="#666666" stroke="#666666" points="608,-125 608,-125 623,-125 623,-125 608,-125"/>
<polygon fill="#666666" stroke="#666666" points="623,-125 623,-125 794,-125 794,-125 623,-125"/>
<polygon fill="none" stroke="#666666" points="608,-67 608,-205 794,-205 794,-67 608,-67"/>
</a>
</g>
</g>
<!-- Node1&#45;&gt;Node6 -->
<g id="edge5_Node000001_Node000006" class="edge">
<title>Node1&#45;&gt;Node6</title>
<g id="a_edge5_Node000001_Node000006"><a xlink:title=" ">
<path fill="none" stroke="#63b8ff" d="M900.64,-335.09C867.38,-318 831.94,-296.68 803,-272 780.65,-252.94 760.2,-228.17 743.57,-205.06"/>
<polygon fill="none" stroke="#63b8ff" points="899.46,-338.41 909.96,-339.79 902.61,-332.16 899.46,-338.41"/>
</a>
</g>
</g>
<!-- Node7 -->
<g id="Node000007" class="node">
<title>Node7</title>
<g id="a_Node000007"><a xlink:href="../../dc/dbd/classSystem_1_1Net_1_1Configuration_1_1ConnectionManagementSection.html" target="_top" xlink:title=" ">
<polygon fill="white" stroke="transparent" points="1005.5,-184.5 812.5,-184.5 812.5,-87.5 1005.5,-87.5 1005.5,-184.5"/>
<text text-anchor="start" x="831.5" y="-172" font-family="Helvetica,sans-Serif" font-size="10.00">System.Net.Configuration.</text>
<text text-anchor="start" x="831.5" y="-161" font-family="Helvetica,sans-Serif" font-size="10.00">ConnectionManagementSection</text>
<text text-anchor="start" x="817" y="-146" font-family="Helvetica,sans-Serif" font-size="10.00">+</text>
<text text-anchor="start" x="830" y="-146" font-family="Helvetica,sans-Serif" font-size="10.00">ConnectionManagementElement</text>
<text text-anchor="start" x="830" y="-135" font-family="Helvetica,sans-Serif" font-size="10.00">Collection ConnectionManagement</text>
<text text-anchor="start" x="817" y="-120" font-family="Helvetica,sans-Serif" font-size="10.00">+</text>
<text text-anchor="start" x="830" y="-120" font-family="Helvetica,sans-Serif" font-size="10.00">override ConfigurationProperty</text>
<text text-anchor="start" x="830" y="-109" font-family="Helvetica,sans-Serif" font-size="10.00">Collection Properties</text>
<text text-anchor="start" x="817" y="-94" font-family="Helvetica,sans-Serif" font-size="10.00">+</text>
<text text-anchor="start" x="830" y="-94" font-family="Helvetica,sans-Serif" font-size="10.00">ConnectionManagementSection()</text>
<polygon fill="#666666" stroke="#666666" points="813,-156 813,-156 1006,-156 1006,-156 813,-156"/>
<polygon fill="#666666" stroke="#666666" points="813,-104 813,-104 828,-104 828,-104 813,-104"/>
<polygon fill="#666666" stroke="#666666" points="828,-104 828,-104 1006,-104 1006,-104 828,-104"/>
<polygon fill="none" stroke="#666666" points="812.5,-87.5 812.5,-184.5 1005.5,-184.5 1005.5,-87.5 812.5,-87.5"/>
</a>
</g>
</g>
<!-- Node1&#45;&gt;Node7 -->
<g id="edge6_Node000001_Node000007" class="edge">
<title>Node1&#45;&gt;Node7</title>
<g id="a_edge6_Node000001_Node000007"><a xlink:title=" ">
<path fill="none" stroke="#63b8ff" d="M974.98,-298.31C959.48,-260.43 941.7,-216.96 928.51,-184.69"/>
<polygon fill="none" stroke="#63b8ff" points="971.84,-299.88 978.86,-307.81 978.31,-297.23 971.84,-299.88"/>
</a>
</g>
</g>
<!-- Node8 -->
<g id="Node000008" class="node">
<title>Node8</title>
<g id="a_Node000008"><a xlink:href="../../d3/de5/classSystem_1_1Net_1_1Configuration_1_1DefaultProxySection.html" target="_top" xlink:title=" ">
<polygon fill="white" stroke="transparent" points="1196,-240.5 1024,-240.5 1024,-31.5 1196,-31.5 1196,-240.5"/>
<text text-anchor="start" x="1045.5" y="-228" font-family="Helvetica,sans-Serif" font-size="10.00">System.Net.Configuration.</text>
<text text-anchor="start" x="1060" y="-217" font-family="Helvetica,sans-Serif" font-size="10.00">DefaultProxySection</text>
<text text-anchor="start" x="1028" y="-202" font-family="Helvetica,sans-Serif" font-size="10.00">+</text>
<text text-anchor="start" x="1041" y="-202" font-family="Helvetica,sans-Serif" font-size="10.00">BypassElementCollection</text>
<text text-anchor="start" x="1041" y="-191" font-family="Helvetica,sans-Serif" font-size="10.00"> BypassList</text>
<text text-anchor="start" x="1028" y="-176" font-family="Helvetica,sans-Serif" font-size="10.00">+</text>
<text text-anchor="start" x="1041" y="-176" font-family="Helvetica,sans-Serif" font-size="10.00">bool Enabled</text>
<text text-anchor="start" x="1028" y="-161" font-family="Helvetica,sans-Serif" font-size="10.00">+</text>
<text text-anchor="start" x="1041" y="-161" font-family="Helvetica,sans-Serif" font-size="10.00">ModuleElement Module</text>
<text text-anchor="start" x="1028" y="-146" font-family="Helvetica,sans-Serif" font-size="10.00">+</text>
<text text-anchor="start" x="1041" y="-146" font-family="Helvetica,sans-Serif" font-size="10.00">override ConfigurationProperty</text>
<text text-anchor="start" x="1041" y="-135" font-family="Helvetica,sans-Serif" font-size="10.00">Collection Properties</text>
<text text-anchor="start" x="1028" y="-120" font-family="Helvetica,sans-Serif" font-size="10.00">+</text>
<text text-anchor="start" x="1041" y="-120" font-family="Helvetica,sans-Serif" font-size="10.00">ProxyElement Proxy</text>
<text text-anchor="start" x="1028" y="-105" font-family="Helvetica,sans-Serif" font-size="10.00">+</text>
<text text-anchor="start" x="1041" y="-105" font-family="Helvetica,sans-Serif" font-size="10.00">bool UseDefaultCredentials</text>
<text text-anchor="start" x="1028" y="-90" font-family="Helvetica,sans-Serif" font-size="10.00">+</text>
<text text-anchor="start" x="1041" y="-90" font-family="Helvetica,sans-Serif" font-size="10.00">DefaultProxySection()</text>
<text text-anchor="start" x="1028" y="-75" font-family="Helvetica,sans-Serif" font-size="10.00">#</text>
<text text-anchor="start" x="1041" y="-75" font-family="Helvetica,sans-Serif" font-size="10.00">override void PostDeserialize()</text>
<text text-anchor="start" x="1028" y="-60" font-family="Helvetica,sans-Serif" font-size="10.00">#</text>
<text text-anchor="start" x="1041" y="-60" font-family="Helvetica,sans-Serif" font-size="10.00">override void Reset</text>
<text text-anchor="start" x="1041" y="-49" font-family="Helvetica,sans-Serif" font-size="10.00">(ConfigurationElement</text>
<text text-anchor="start" x="1041" y="-38" font-family="Helvetica,sans-Serif" font-size="10.00"> parentElement)</text>
<polygon fill="#666666" stroke="#666666" points="1024,-212 1024,-212 1196,-212 1196,-212 1024,-212"/>
<polygon fill="#666666" stroke="#666666" points="1024,-100 1024,-100 1039,-100 1039,-100 1024,-100"/>
<polygon fill="#666666" stroke="#666666" points="1039,-100 1039,-100 1196,-100 1196,-100 1039,-100"/>
<polygon fill="none" stroke="#666666" points="1024,-31.5 1024,-240.5 1196,-240.5 1196,-31.5 1024,-31.5"/>
</a>
</g>
</g>
<!-- Node1&#45;&gt;Node8 -->
<g id="edge7_Node000001_Node000008" class="edge">
<title>Node1&#45;&gt;Node8</title>
<g id="a_edge7_Node000001_Node000008"><a xlink:title=" ">
<path fill="none" stroke="#63b8ff" d="M1043.27,-298.53C1050.94,-279.97 1059.16,-260.07 1067.13,-240.79"/>
<polygon fill="none" stroke="#63b8ff" points="1040.02,-297.23 1039.44,-307.81 1046.49,-299.9 1040.02,-297.23"/>
</a>
</g>
</g>
<!-- Node9 -->
<g id="Node000009" class="node">
<title>Node9</title>
<g id="a_Node000009"><a xlink:href="../../db/de3/classSystem_1_1Net_1_1Configuration_1_1RequestCachingSection.html" target="_top" xlink:title=" ">
<polygon fill="white" stroke="transparent" points="1413.5,-259 1214.5,-259 1214.5,-13 1413.5,-13 1413.5,-259"/>
<text text-anchor="start" x="1250" y="-247" font-family="Helvetica,sans-Serif" font-size="10.00">System.Net.Configuration.</text>
<text text-anchor="start" x="1257" y="-236" font-family="Helvetica,sans-Serif" font-size="10.00">RequestCachingSection</text>
<text text-anchor="start" x="1219" y="-221" font-family="Helvetica,sans-Serif" font-size="10.00">+</text>
<text text-anchor="start" x="1232" y="-221" font-family="Helvetica,sans-Serif" font-size="10.00">FtpCachePolicyElement</text>
<text text-anchor="start" x="1232" y="-210" font-family="Helvetica,sans-Serif" font-size="10.00"> DefaultFtpCachePolicy</text>
<text text-anchor="start" x="1219" y="-195" font-family="Helvetica,sans-Serif" font-size="10.00">+</text>
<text text-anchor="start" x="1232" y="-195" font-family="Helvetica,sans-Serif" font-size="10.00">HttpCachePolicyElement</text>
<text text-anchor="start" x="1232" y="-184" font-family="Helvetica,sans-Serif" font-size="10.00"> DefaultHttpCachePolicy</text>
<text text-anchor="start" x="1219" y="-169" font-family="Helvetica,sans-Serif" font-size="10.00">+</text>
<text text-anchor="start" x="1232" y="-169" font-family="Helvetica,sans-Serif" font-size="10.00">RequestCacheLevel Default</text>
<text text-anchor="start" x="1232" y="-158" font-family="Helvetica,sans-Serif" font-size="10.00">PolicyLevel</text>
<text text-anchor="start" x="1219" y="-143" font-family="Helvetica,sans-Serif" font-size="10.00">+</text>
<text text-anchor="start" x="1232" y="-143" font-family="Helvetica,sans-Serif" font-size="10.00">bool DisableAllCaching</text>
<text text-anchor="start" x="1219" y="-128" font-family="Helvetica,sans-Serif" font-size="10.00">+</text>
<text text-anchor="start" x="1232" y="-128" font-family="Helvetica,sans-Serif" font-size="10.00">bool IsPrivateCache</text>
<text text-anchor="start" x="1219" y="-113" font-family="Helvetica,sans-Serif" font-size="10.00">+</text>
<text text-anchor="start" x="1232" y="-113" font-family="Helvetica,sans-Serif" font-size="10.00">override ConfigurationProperty</text>
<text text-anchor="start" x="1232" y="-102" font-family="Helvetica,sans-Serif" font-size="10.00">Collection Properties</text>
<text text-anchor="start" x="1219" y="-87" font-family="Helvetica,sans-Serif" font-size="10.00">+</text>
<text text-anchor="start" x="1232" y="-87" font-family="Helvetica,sans-Serif" font-size="10.00">TimeSpan UnspecifiedMaximumAge</text>
<text text-anchor="start" x="1219" y="-72" font-family="Helvetica,sans-Serif" font-size="10.00">+</text>
<text text-anchor="start" x="1232" y="-72" font-family="Helvetica,sans-Serif" font-size="10.00">RequestCachingSection()</text>
<text text-anchor="start" x="1219" y="-57" font-family="Helvetica,sans-Serif" font-size="10.00">#</text>
<text text-anchor="start" x="1232" y="-57" font-family="Helvetica,sans-Serif" font-size="10.00">override void Deserialize</text>
<text text-anchor="start" x="1232" y="-46" font-family="Helvetica,sans-Serif" font-size="10.00">Element(XmlReader reader,</text>
<text text-anchor="start" x="1232" y="-35" font-family="Helvetica,sans-Serif" font-size="10.00"> bool serializeCollectionKey)</text>
<text text-anchor="start" x="1219" y="-20" font-family="Helvetica,sans-Serif" font-size="10.00">#</text>
<text text-anchor="start" x="1232" y="-20" font-family="Helvetica,sans-Serif" font-size="10.00">override void PostDeserialize()</text>
<polygon fill="#666666" stroke="#666666" points="1215,-231 1215,-231 1414,-231 1414,-231 1215,-231"/>
<polygon fill="#666666" stroke="#666666" points="1215,-82 1215,-82 1230,-82 1230,-82 1215,-82"/>
<polygon fill="#666666" stroke="#666666" points="1230,-82 1230,-82 1414,-82 1414,-82 1230,-82"/>
<polygon fill="none" stroke="#666666" points="1214.5,-13 1214.5,-259 1413.5,-259 1413.5,-13 1214.5,-13"/>
</a>
</g>
</g>
<!-- Node1&#45;&gt;Node9 -->
<g id="edge8_Node000001_Node000009" class="edge">
<title>Node1&#45;&gt;Node9</title>
<g id="a_edge8_Node000001_Node000009"><a xlink:title=" ">
<path fill="none" stroke="#63b8ff" d="M1117.04,-330.78C1147.06,-314.19 1178.62,-294.24 1205,-272 1209.84,-267.92 1214.61,-263.61 1219.31,-259.12"/>
<polygon fill="none" stroke="#63b8ff" points="1115.31,-327.73 1108.2,-335.59 1118.66,-333.88 1115.31,-327.73"/>
</a>
</g>
</g>
<!-- Node10 -->
<g id="Node000010" class="node">
<title>Node10</title>
<g id="a_Node000010"><a xlink:href="../../d1/dbf/classSystem_1_1Net_1_1Configuration_1_1SettingsSection.html" target="_top" xlink:title=" ">
<polygon fill="white" stroke="transparent" points="1610,-272 1432,-272 1432,0 1610,0 1610,-272"/>
<text text-anchor="start" x="1456.5" y="-260" font-family="Helvetica,sans-Serif" font-size="10.00">System.Net.Configuration.</text>
<text text-anchor="start" x="1483" y="-249" font-family="Helvetica,sans-Serif" font-size="10.00">SettingsSection</text>
<text text-anchor="start" x="1436" y="-234" font-family="Helvetica,sans-Serif" font-size="10.00">+</text>
<text text-anchor="start" x="1449" y="-234" font-family="Helvetica,sans-Serif" font-size="10.00">HttpListenerElement</text>
<text text-anchor="start" x="1449" y="-223" font-family="Helvetica,sans-Serif" font-size="10.00"> HttpListener</text>
<text text-anchor="start" x="1436" y="-208" font-family="Helvetica,sans-Serif" font-size="10.00">+</text>
<text text-anchor="start" x="1449" y="-208" font-family="Helvetica,sans-Serif" font-size="10.00">HttpWebRequestElement</text>
<text text-anchor="start" x="1449" y="-197" font-family="Helvetica,sans-Serif" font-size="10.00"> HttpWebRequest</text>
<text text-anchor="start" x="1436" y="-182" font-family="Helvetica,sans-Serif" font-size="10.00">+</text>
<text text-anchor="start" x="1449" y="-182" font-family="Helvetica,sans-Serif" font-size="10.00">Ipv6Element Ipv6</text>
<text text-anchor="start" x="1436" y="-167" font-family="Helvetica,sans-Serif" font-size="10.00">+</text>
<text text-anchor="start" x="1449" y="-167" font-family="Helvetica,sans-Serif" font-size="10.00">PerformanceCountersElement</text>
<text text-anchor="start" x="1449" y="-156" font-family="Helvetica,sans-Serif" font-size="10.00"> PerformanceCounters</text>
<text text-anchor="start" x="1436" y="-141" font-family="Helvetica,sans-Serif" font-size="10.00">+</text>
<text text-anchor="start" x="1449" y="-141" font-family="Helvetica,sans-Serif" font-size="10.00">override ConfigurationProperty</text>
<text text-anchor="start" x="1449" y="-130" font-family="Helvetica,sans-Serif" font-size="10.00">Collection Properties</text>
<text text-anchor="start" x="1436" y="-115" font-family="Helvetica,sans-Serif" font-size="10.00">+</text>
<text text-anchor="start" x="1449" y="-115" font-family="Helvetica,sans-Serif" font-size="10.00">ServicePointManagerElement</text>
<text text-anchor="start" x="1449" y="-104" font-family="Helvetica,sans-Serif" font-size="10.00"> ServicePointManager</text>
<text text-anchor="start" x="1436" y="-89" font-family="Helvetica,sans-Serif" font-size="10.00">+</text>
<text text-anchor="start" x="1449" y="-89" font-family="Helvetica,sans-Serif" font-size="10.00">SocketElement Socket</text>
<text text-anchor="start" x="1436" y="-74" font-family="Helvetica,sans-Serif" font-size="10.00">+</text>
<text text-anchor="start" x="1449" y="-74" font-family="Helvetica,sans-Serif" font-size="10.00">WebProxyScriptElement</text>
<text text-anchor="start" x="1449" y="-63" font-family="Helvetica,sans-Serif" font-size="10.00"> WebProxyScript</text>
<text text-anchor="start" x="1436" y="-48" font-family="Helvetica,sans-Serif" font-size="10.00">+</text>
<text text-anchor="start" x="1449" y="-48" font-family="Helvetica,sans-Serif" font-size="10.00">WebUtilityElement WebUtility</text>
<text text-anchor="start" x="1436" y="-33" font-family="Helvetica,sans-Serif" font-size="10.00">+</text>
<text text-anchor="start" x="1449" y="-33" font-family="Helvetica,sans-Serif" font-size="10.00">WindowsAuthenticationElement</text>
<text text-anchor="start" x="1449" y="-22" font-family="Helvetica,sans-Serif" font-size="10.00"> WindowsAuthentication</text>
<text text-anchor="start" x="1436" y="-7" font-family="Helvetica,sans-Serif" font-size="10.00">+</text>
<text text-anchor="start" x="1449" y="-7" font-family="Helvetica,sans-Serif" font-size="10.00">SettingsSection()</text>
<polygon fill="#666666" stroke="#666666" points="1432,-244 1432,-244 1610,-244 1610,-244 1432,-244"/>
<polygon fill="#666666" stroke="#666666" points="1432,-17 1432,-17 1447,-17 1447,-17 1432,-17"/>
<polygon fill="#666666" stroke="#666666" points="1447,-17 1447,-17 1610,-17 1610,-17 1447,-17"/>
<polygon fill="none" stroke="#666666" points="1432,0 1432,-272 1610,-272 1610,0 1432,0"/>
</a>
</g>
</g>
<!-- Node1&#45;&gt;Node10 -->
<g id="edge9_Node000001_Node000010" class="edge">
<title>Node1&#45;&gt;Node10</title>
<g id="a_edge9_Node000001_Node000010"><a xlink:title=" ">
<path fill="none" stroke="#63b8ff" d="M1118.47,-372.81C1207.16,-361.27 1331.91,-334.42 1423,-272 1425.99,-269.95 1428.91,-267.79 1431.78,-265.51"/>
<polygon fill="none" stroke="#63b8ff" points="1117.87,-369.36 1108.38,-374.08 1118.74,-376.3 1117.87,-369.36"/>
</a>
</g>
</g>
<!-- Node11 -->
<g id="Node000011" class="node">
<title>Node11</title>
<g id="a_Node000011"><a xlink:href="../../dc/de0/classSystem_1_1Net_1_1Configuration_1_1SmtpSection.html" target="_top" xlink:title=" ">
<polygon fill="white" stroke="transparent" points="1814,-231 1628,-231 1628,-41 1814,-41 1814,-231"/>
<text text-anchor="start" x="1656.5" y="-219" font-family="Helvetica,sans-Serif" font-size="10.00">System.Net.Configuration.</text>
<text text-anchor="start" x="1690" y="-208" font-family="Helvetica,sans-Serif" font-size="10.00">SmtpSection</text>
<text text-anchor="start" x="1632" y="-193" font-family="Helvetica,sans-Serif" font-size="10.00">+</text>
<text text-anchor="start" x="1645" y="-193" font-family="Helvetica,sans-Serif" font-size="10.00">SmtpDeliveryFormat</text>
<text text-anchor="start" x="1645" y="-182" font-family="Helvetica,sans-Serif" font-size="10.00"> DeliveryFormat</text>
<text text-anchor="start" x="1632" y="-167" font-family="Helvetica,sans-Serif" font-size="10.00">+</text>
<text text-anchor="start" x="1645" y="-167" font-family="Helvetica,sans-Serif" font-size="10.00">SmtpDeliveryMethod</text>
<text text-anchor="start" x="1645" y="-156" font-family="Helvetica,sans-Serif" font-size="10.00"> DeliveryMethod</text>
<text text-anchor="start" x="1632" y="-141" font-family="Helvetica,sans-Serif" font-size="10.00">+</text>
<text text-anchor="start" x="1645" y="-141" font-family="Helvetica,sans-Serif" font-size="10.00">string From</text>
<text text-anchor="start" x="1632" y="-126" font-family="Helvetica,sans-Serif" font-size="10.00">+</text>
<text text-anchor="start" x="1645" y="-126" font-family="Helvetica,sans-Serif" font-size="10.00">SmtpNetworkElement</text>
<text text-anchor="start" x="1645" y="-115" font-family="Helvetica,sans-Serif" font-size="10.00"> Network</text>
<text text-anchor="start" x="1632" y="-100" font-family="Helvetica,sans-Serif" font-size="10.00">+</text>
<text text-anchor="start" x="1645" y="-100" font-family="Helvetica,sans-Serif" font-size="10.00">override ConfigurationProperty</text>
<text text-anchor="start" x="1645" y="-89" font-family="Helvetica,sans-Serif" font-size="10.00">Collection Properties</text>
<text text-anchor="start" x="1632" y="-74" font-family="Helvetica,sans-Serif" font-size="10.00">+</text>
<text text-anchor="start" x="1645" y="-74" font-family="Helvetica,sans-Serif" font-size="10.00">SmtpSpecifiedPickupDirectory</text>
<text text-anchor="start" x="1645" y="-63" font-family="Helvetica,sans-Serif" font-size="10.00">Element SpecifiedPickupDirectory</text>
<text text-anchor="start" x="1632" y="-48" font-family="Helvetica,sans-Serif" font-size="10.00">+</text>
<text text-anchor="start" x="1645" y="-48" font-family="Helvetica,sans-Serif" font-size="10.00">SmtpSection()</text>
<polygon fill="#666666" stroke="#666666" points="1628,-203 1628,-203 1814,-203 1814,-203 1628,-203"/>
<polygon fill="#666666" stroke="#666666" points="1628,-58 1628,-58 1643,-58 1643,-58 1628,-58"/>
<polygon fill="#666666" stroke="#666666" points="1643,-58 1643,-58 1814,-58 1814,-58 1643,-58"/>
<polygon fill="none" stroke="#666666" points="1628,-41 1628,-231 1814,-231 1814,-41 1628,-41"/>
</a>
</g>
</g>
<!-- Node1&#45;&gt;Node11 -->
<g id="edge10_Node000001_Node000011" class="edge">
<title>Node1&#45;&gt;Node11</title>
<g id="a_edge10_Node000001_Node000011"><a xlink:title=" ">
<path fill="none" stroke="#63b8ff" d="M1118.44,-371.48C1270.64,-355.94 1536.82,-322.46 1619,-272 1636.15,-261.47 1651.42,-246.91 1664.6,-231.23"/>
<polygon fill="none" stroke="#63b8ff" points="1117.72,-368.04 1108.13,-372.53 1118.43,-375 1117.72,-368.04"/>
</a>
</g>
</g>
<!-- Node12 -->
<g id="Node000012" class="node">
<title>Node12</title>
<g id="a_Node000012"><a xlink:href="../../d5/d6d/classSystem_1_1Net_1_1Configuration_1_1WebRequestModulesSection.html" target="_top" xlink:title=" ">
<polygon fill="white" stroke="transparent" points="2040,-205 1832,-205 1832,-67 2040,-67 2040,-205"/>
<text text-anchor="start" x="1866.5" y="-193" font-family="Helvetica,sans-Serif" font-size="10.00">System.Net.Configuration.</text>
<text text-anchor="start" x="1866.5" y="-182" font-family="Helvetica,sans-Serif" font-size="10.00">WebRequestModulesSection</text>
<text text-anchor="start" x="1836" y="-167" font-family="Helvetica,sans-Serif" font-size="10.00">+</text>
<text text-anchor="start" x="1849" y="-167" font-family="Helvetica,sans-Serif" font-size="10.00">override ConfigurationProperty</text>
<text text-anchor="start" x="1849" y="-156" font-family="Helvetica,sans-Serif" font-size="10.00">Collection Properties</text>
<text text-anchor="start" x="1836" y="-141" font-family="Helvetica,sans-Serif" font-size="10.00">+</text>
<text text-anchor="start" x="1849" y="-141" font-family="Helvetica,sans-Serif" font-size="10.00">WebRequestModuleElementCollection</text>
<text text-anchor="start" x="1849" y="-130" font-family="Helvetica,sans-Serif" font-size="10.00"> WebRequestModules</text>
<text text-anchor="start" x="1836" y="-115" font-family="Helvetica,sans-Serif" font-size="10.00">+</text>
<text text-anchor="start" x="1849" y="-115" font-family="Helvetica,sans-Serif" font-size="10.00">WebRequestModulesSection()</text>
<text text-anchor="start" x="1836" y="-100" font-family="Helvetica,sans-Serif" font-size="10.00">#</text>
<text text-anchor="start" x="1849" y="-100" font-family="Helvetica,sans-Serif" font-size="10.00">override void Initialize</text>
<text text-anchor="start" x="1849" y="-89" font-family="Helvetica,sans-Serif" font-size="10.00">Default()</text>
<text text-anchor="start" x="1836" y="-74" font-family="Helvetica,sans-Serif" font-size="10.00">#</text>
<text text-anchor="start" x="1849" y="-74" font-family="Helvetica,sans-Serif" font-size="10.00">override void PostDeserialize()</text>
<polygon fill="#666666" stroke="#666666" points="1832,-177 1832,-177 2040,-177 2040,-177 1832,-177"/>
<polygon fill="#666666" stroke="#666666" points="1832,-125 1832,-125 1847,-125 1847,-125 1832,-125"/>
<polygon fill="#666666" stroke="#666666" points="1847,-125 1847,-125 2040,-125 2040,-125 1847,-125"/>
<polygon fill="none" stroke="#666666" points="1832,-67 1832,-205 2040,-205 2040,-67 1832,-67"/>
</a>
</g>
</g>
<!-- Node1&#45;&gt;Node12 -->
<g id="edge11_Node000001_Node000012" class="edge">
<title>Node1&#45;&gt;Node12</title>
<g id="a_edge11_Node000001_Node000012"><a xlink:title=" ">
<path fill="none" stroke="#63b8ff" d="M1118.34,-376.53C1311.52,-366.18 1704.08,-337.56 1823,-272 1851.51,-256.29 1875.85,-230.28 1894.56,-205.27"/>
<polygon fill="none" stroke="#63b8ff" points="1117.96,-373.05 1108.16,-377.07 1118.33,-380.04 1117.96,-373.05"/>
</a>
</g>
</g>
<!-- Node2 -->
<g id="Node000002" class="node">
<title>Node2</title>
<g id="a_Node000002"><a xlink:href="../../de/d66/classSystem_1_1Configuration_1_1ConfigurationElement.html" target="_top" xlink:title=" ">
<polygon fill="white" stroke="transparent" points="1113,-768 905,-768 905,-493 1113,-493 1113,-768"/>
<text text-anchor="start" x="956" y="-755.5" font-family="Helvetica,sans-Serif" font-size="10.00">ConfigurationElement</text>
<text text-anchor="start" x="909" y="-740.5" font-family="Helvetica,sans-Serif" font-size="10.00">+</text>
<text text-anchor="start" x="922" y="-740.5" font-family="Helvetica,sans-Serif" font-size="10.00">virtual ConfigurationProperty</text>
<text text-anchor="start" x="922" y="-729.5" font-family="Helvetica,sans-Serif" font-size="10.00">Collection Properties</text>
<text text-anchor="start" x="909" y="-714.5" font-family="Helvetica,sans-Serif" font-size="10.00">~</text>
<text text-anchor="start" x="922" y="-714.5" font-family="Helvetica,sans-Serif" font-size="10.00">virtual void Deserialize</text>
<text text-anchor="start" x="922" y="-703.5" font-family="Helvetica,sans-Serif" font-size="10.00">Element(XmlReader reader,</text>
<text text-anchor="start" x="922" y="-692.5" font-family="Helvetica,sans-Serif" font-size="10.00"> bool serializeCollectionKey)</text>
<text text-anchor="start" x="909" y="-677.5" font-family="Helvetica,sans-Serif" font-size="10.00">~</text>
<text text-anchor="start" x="922" y="-677.5" font-family="Helvetica,sans-Serif" font-size="10.00">virtual void InitializeDefault()</text>
<text text-anchor="start" x="909" y="-662.5" font-family="Helvetica,sans-Serif" font-size="10.00">~</text>
<text text-anchor="start" x="922" y="-662.5" font-family="Helvetica,sans-Serif" font-size="10.00">virtual bool IsModified()</text>
<text text-anchor="start" x="909" y="-647.5" font-family="Helvetica,sans-Serif" font-size="10.00">~</text>
<text text-anchor="start" x="922" y="-647.5" font-family="Helvetica,sans-Serif" font-size="10.00">virtual void Reset</text>
<text text-anchor="start" x="922" y="-636.5" font-family="Helvetica,sans-Serif" font-size="10.00">(ConfigurationElement</text>
<text text-anchor="start" x="922" y="-625.5" font-family="Helvetica,sans-Serif" font-size="10.00"> parentElement)</text>
<text text-anchor="start" x="909" y="-610.5" font-family="Helvetica,sans-Serif" font-size="10.00">~</text>
<text text-anchor="start" x="922" y="-610.5" font-family="Helvetica,sans-Serif" font-size="10.00">virtual void ResetModified()</text>
<text text-anchor="start" x="909" y="-595.5" font-family="Helvetica,sans-Serif" font-size="10.00">~</text>
<text text-anchor="start" x="922" y="-595.5" font-family="Helvetica,sans-Serif" font-size="10.00">virtual bool SerializeTo</text>
<text text-anchor="start" x="922" y="-584.5" font-family="Helvetica,sans-Serif" font-size="10.00">XmlElement(XmlWriter writer,</text>
<text text-anchor="start" x="922" y="-573.5" font-family="Helvetica,sans-Serif" font-size="10.00"> string elementName)</text>
<text text-anchor="start" x="909" y="-558.5" font-family="Helvetica,sans-Serif" font-size="10.00">~</text>
<text text-anchor="start" x="922" y="-558.5" font-family="Helvetica,sans-Serif" font-size="10.00">virtual void Unmerge</text>
<text text-anchor="start" x="922" y="-547.5" font-family="Helvetica,sans-Serif" font-size="10.00">(ConfigurationElement</text>
<text text-anchor="start" x="922" y="-536.5" font-family="Helvetica,sans-Serif" font-size="10.00"> sourceElement, Configuration</text>
<text text-anchor="start" x="922" y="-525.5" font-family="Helvetica,sans-Serif" font-size="10.00">Element parentElement, Configuration</text>
<text text-anchor="start" x="922" y="-514.5" font-family="Helvetica,sans-Serif" font-size="10.00">SaveMode saveMode)</text>
<text text-anchor="start" x="909" y="-499.5" font-family="Helvetica,sans-Serif" font-size="10.00">#</text>
<text text-anchor="start" x="922" y="-499.5" font-family="Helvetica,sans-Serif" font-size="10.00">virtual void PostDeserialize()</text>
<polygon fill="#666666" stroke="#666666" points="905,-750.5 905,-750.5 1113,-750.5 1113,-750.5 905,-750.5"/>
<polygon fill="#666666" stroke="#666666" points="905,-724.5 905,-724.5 920,-724.5 920,-724.5 905,-724.5"/>
<polygon fill="#666666" stroke="#666666" points="920,-724.5 920,-724.5 1113,-724.5 1113,-724.5 920,-724.5"/>
<polygon fill="none" stroke="#666666" points="905,-493 905,-768 1113,-768 1113,-493 905,-493"/>
</a>
</g>
</g>
<!-- Node2&#45;&gt;Node1 -->
<g id="edge1_Node000001_Node000002" class="edge">
<title>Node2&#45;&gt;Node1</title>
<g id="a_edge1_Node000001_Node000002"><a xlink:title=" ">
<path fill="none" stroke="#63b8ff" d="M1009,-482.81C1009,-473.99 1009,-465.34 1009,-457.05"/>
<polygon fill="none" stroke="#63b8ff" points="1005.5,-482.83 1009,-492.83 1012.5,-482.83 1005.5,-482.83"/>
</a>
</g>
</g>
</g>
</svg>
