<?xml version="1.0" encoding="UTF-8" standalone="no"?>
<!DOCTYPE svg PUBLIC "-//W3C//DTD SVG 1.1//EN"
 "http://www.w3.org/Graphics/SVG/1.1/DTD/svg11.dtd">
<!-- Generated by graphviz version 2.43.0 (0)
 -->
<!-- Title: Terraria.GameContent.Bestiary.Filters.BySearch Pages: 1 -->
<!--zoomable 631 -->

<svg id="main" version="1.1" xmlns="http://www.w3.org/2000/svg" xmlns:xlink="http://www.w3.org/1999/xlink" xml:space="preserve" onload="init(evt)">
<style type="text/css"><![CDATA[
.node, .edge {opacity: 0.7;}
.node.selected, .edge.selected {opacity: 1;}
.edge:hover path { stroke: red; }
.edge:hover polygon { stroke: red; fill: red; }
]]></style>

<defs>
  <circle id="rim" cx="0" cy="0" r="7"/>
  <circle id="rim2" cx="0" cy="0" r="3.5"/>
  <g id="zoomPlus">
    <use xlink:href="#rim" fill="#404040"><set attributeName="fill" to="#808080" begin="zoomplus.mouseover" end="zoomplus.mouseout"/></use>
    <path d="M-4,0h8M0,-4v8" fill="none" stroke="white" stroke-width="1.5" pointer-events="none"/>
  </g>
  <g id="zoomMin">
    <use xlink:href="#rim" fill="#404040"><set attributeName="fill" to="#808080" begin="zoomminus.mouseover" end="zoomminus.mouseout"/></use>
    <path d="M-4,0h8" fill="none" stroke="white" stroke-width="1.5" pointer-events="none"/>
  </g>
  <g id="arrowUp" transform="translate(30 24)">
    <use xlink:href="#rim"/>
    <path pointer-events="none" fill="none" stroke="white" stroke-width="1.5" d="M0,-3.0v7 M-2.5,-0.5L0,-3.0L2.5,-0.5"/>
  </g>
  <g id="arrowRight" transform="rotate(90) translate(36 -43)">
    <use xlink:href="#rim"/>
    <path pointer-events="none" fill="none" stroke="white" stroke-width="1.5" d="M0,-3.0v7 M-2.5,-0.5L0,-3.0L2.5,-0.5"/>
  </g>
  <g id="arrowDown" transform="rotate(180) translate(-30 -48)">
    <use xlink:href="#rim"/>
    <path pointer-events="none" fill="none" stroke="white" stroke-width="1.5" d="M0,-3.0v7 M-2.5,-0.5L0,-3.0L2.5,-0.5"/>
  </g>
  <g id="arrowLeft" transform="rotate(270) translate(-36 17)">
    <use xlink:href="#rim"/>
    <path pointer-events="none" fill="none" stroke="white" stroke-width="1.5" d="M0,-3.0v7 M-2.5,-0.5L0,-3.0L2.5,-0.5"/>
  </g>
  <g id="resetDef">
    <use xlink:href="#rim2" fill="#404040"><set attributeName="fill" to="#808080" begin="reset.mouseover" end="reset.mouseout"/></use>
  </g>
</defs>
<script type="application/ecmascript">
var viewWidth = 437;
var viewHeight = 631;
var sectionId = 'dynsection-1';
</script>
<script type="application/ecmascript" xlink:href="../../svg.min.js"/>
<svg id="graph" class="graph">
<g id="viewport">
<title>Terraria.GameContent.Bestiary.Filters.BySearch</title>
<!-- Node1 -->
<g id="Node000001" class="node">
<title>Node1</title>
<g id="a_Node000001"><a xlink:title=" ">
<polygon fill="#999999" stroke="transparent" points="315,-179 152,-179 152,0 315,0 315,-179"/>
<text text-anchor="start" x="157.5" y="-166.5" font-family="Helvetica,sans-Serif" font-size="10.00">Terraria.GameContent.Bestiary.</text>
<text text-anchor="start" x="194.5" y="-155.5" font-family="Helvetica,sans-Serif" font-size="10.00">Filters.BySearch</text>
<text text-anchor="start" x="157" y="-140.5" font-family="Helvetica,sans-Serif" font-size="10.00">+</text>
<text text-anchor="start" x="170.5" y="-140.5" font-family="Helvetica,sans-Serif" font-size="10.00">bool? ForcedDisplay</text>
<text text-anchor="start" x="157" y="-125.5" font-family="Helvetica,sans-Serif" font-size="10.00">+</text>
<text text-anchor="start" x="170.5" y="-125.5" font-family="Helvetica,sans-Serif" font-size="10.00">BySearch()</text>
<text text-anchor="start" x="157" y="-110.5" font-family="Helvetica,sans-Serif" font-size="10.00">+</text>
<text text-anchor="start" x="170.5" y="-110.5" font-family="Helvetica,sans-Serif" font-size="10.00">bool FitsFilter(Bestiary</text>
<text text-anchor="start" x="170.5" y="-99.5" font-family="Helvetica,sans-Serif" font-size="10.00">Entry entry)</text>
<text text-anchor="start" x="157" y="-84.5" font-family="Helvetica,sans-Serif" font-size="10.00">+</text>
<text text-anchor="start" x="170.5" y="-84.5" font-family="Helvetica,sans-Serif" font-size="10.00">string GetDisplayNameKey()</text>
<text text-anchor="start" x="157" y="-69.5" font-family="Helvetica,sans-Serif" font-size="10.00">+</text>
<text text-anchor="start" x="170.5" y="-69.5" font-family="Helvetica,sans-Serif" font-size="10.00">UIElement GetImage()</text>
<text text-anchor="start" x="157" y="-54.5" font-family="Helvetica,sans-Serif" font-size="10.00">+</text>
<text text-anchor="start" x="170.5" y="-54.5" font-family="Helvetica,sans-Serif" font-size="10.00">void GetDisplay(out</text>
<text text-anchor="start" x="170.5" y="-43.5" font-family="Helvetica,sans-Serif" font-size="10.00"> Texture2D texture,</text>
<text text-anchor="start" x="170.5" y="-32.5" font-family="Helvetica,sans-Serif" font-size="10.00"> out Rectangle frame)</text>
<text text-anchor="start" x="157" y="-17.5" font-family="Helvetica,sans-Serif" font-size="10.00">+</text>
<text text-anchor="start" x="170.5" y="-17.5" font-family="Helvetica,sans-Serif" font-size="10.00">void SetSearch(string</text>
<text text-anchor="start" x="170.5" y="-6.5" font-family="Helvetica,sans-Serif" font-size="10.00"> searchText)</text>
<polygon fill="#666666" stroke="#666666" points="152.5,-150.5 152.5,-150.5 315.5,-150.5 315.5,-150.5 152.5,-150.5"/>
<polygon fill="#666666" stroke="#666666" points="152.5,-135.5 152.5,-135.5 168.5,-135.5 168.5,-135.5 152.5,-135.5"/>
<polygon fill="#666666" stroke="#666666" points="168.5,-135.5 168.5,-135.5 315.5,-135.5 315.5,-135.5 168.5,-135.5"/>
<polygon fill="none" stroke="#666666" points="152,0 152,-179 315,-179 315,0 152,0"/>
</a>
</g>
</g>
<!-- Node2 -->
<g id="Node000002" class="node">
<title>Node2</title>
<g id="a_Node000002"><a xlink:href="../../d2/d73/interfaceTerraria_1_1GameContent_1_1Bestiary_1_1IBestiaryEntryFilter.html" target="_top" xlink:title=" ">
<polygon fill="white" stroke="transparent" points="194.5,-280.5 74.5,-280.5 74.5,-231.5 194.5,-231.5 194.5,-280.5"/>
<text text-anchor="start" x="87.5" y="-268" font-family="Helvetica,sans-Serif" font-size="10.00">IBestiaryEntryFilter</text>
<text text-anchor="start" x="78.5" y="-253" font-family="Helvetica,sans-Serif" font-size="10.00">+</text>
<text text-anchor="start" x="91.5" y="-253" font-family="Helvetica,sans-Serif" font-size="10.00">bool? ForcedDisplay</text>
<text text-anchor="start" x="132.5" y="-238" font-family="Helvetica,sans-Serif" font-size="10.00"> </text>
<polygon fill="#666666" stroke="#666666" points="74.5,-263 74.5,-263 194.5,-263 194.5,-263 74.5,-263"/>
<polygon fill="#666666" stroke="#666666" points="74.5,-248 74.5,-248 89.5,-248 89.5,-248 74.5,-248"/>
<polygon fill="#666666" stroke="#666666" points="89.5,-248 89.5,-248 194.5,-248 194.5,-248 89.5,-248"/>
<polygon fill="none" stroke="#666666" points="74.5,-231.5 74.5,-280.5 194.5,-280.5 194.5,-231.5 74.5,-231.5"/>
</a>
</g>
</g>
<!-- Node2&#45;&gt;Node1 -->
<g id="edge1_Node000001_Node000002" class="edge">
<title>Node2&#45;&gt;Node1</title>
<g id="a_edge1_Node000001_Node000002"><a xlink:title=" ">
<path fill="none" stroke="#63b8ff" d="M153.94,-222.69C161.56,-210.03 170.71,-194.83 180.05,-179.32"/>
<polygon fill="none" stroke="#63b8ff" points="150.84,-221.06 148.68,-231.43 156.84,-224.67 150.84,-221.06"/>
</a>
</g>
</g>
<!-- Node3 -->
<g id="Node000003" class="node">
<title>Node3</title>
<g id="a_Node000003"><a xlink:href="../../d1/dfd/interfaceTerraria_1_1DataStructures_1_1IEntryFilter.html" target="_top" xlink:title=" ">
<polygon fill="white" stroke="transparent" points="161,-449 0,-449 0,-333 161,-333 161,-449"/>
<text text-anchor="start" x="10" y="-437" font-family="Helvetica,sans-Serif" font-size="10.00">IEntryFilter&lt; BestiaryEntry &gt;</text>
<text text-anchor="start" x="79" y="-422" font-family="Helvetica,sans-Serif" font-size="10.00"> </text>
<text text-anchor="start" x="4.5" y="-407" font-family="Helvetica,sans-Serif" font-size="10.00">+</text>
<text text-anchor="start" x="17.5" y="-407" font-family="Helvetica,sans-Serif" font-size="10.00">bool FitsFilter(T entry)</text>
<text text-anchor="start" x="4.5" y="-392" font-family="Helvetica,sans-Serif" font-size="10.00">+</text>
<text text-anchor="start" x="17.5" y="-392" font-family="Helvetica,sans-Serif" font-size="10.00">string GetDisplayNameKey()</text>
<text text-anchor="start" x="4.5" y="-377" font-family="Helvetica,sans-Serif" font-size="10.00">+</text>
<text text-anchor="start" x="17.5" y="-377" font-family="Helvetica,sans-Serif" font-size="10.00">UIElement GetImage()</text>
<text text-anchor="start" x="4.5" y="-362" font-family="Helvetica,sans-Serif" font-size="10.00">+</text>
<text text-anchor="start" x="17.5" y="-362" font-family="Helvetica,sans-Serif" font-size="10.00">void GetDisplay(out</text>
<text text-anchor="start" x="17.5" y="-351" font-family="Helvetica,sans-Serif" font-size="10.00"> Texture2D texture,</text>
<text text-anchor="start" x="17.5" y="-340" font-family="Helvetica,sans-Serif" font-size="10.00"> out Rectangle frame)</text>
<polygon fill="#666666" stroke="#666666" points="0.5,-432 0.5,-432 161.5,-432 161.5,-432 0.5,-432"/>
<polygon fill="#666666" stroke="#666666" points="0.5,-417 0.5,-417 161.5,-417 161.5,-417 0.5,-417"/>
<polygon fill="none" stroke="#666666" points="0,-333 0,-449 161,-449 161,-333 0,-333"/>
</a>
</g>
</g>
<!-- Node3&#45;&gt;Node1 -->
<g id="edge4_Node000001_Node000003" class="edge">
<title>Node3&#45;&gt;Node1</title>
<g id="a_edge4_Node000001_Node000003"><a xlink:title=" ">
<path fill="none" stroke="#63b8ff" d="M59.03,-322.95C52.92,-292.08 51.25,-255.79 65.5,-226 83.77,-187.8 118.64,-156.92 151.9,-134.35"/>
<polygon fill="none" stroke="#63b8ff" points="55.62,-323.73 61.16,-332.76 62.46,-322.25 55.62,-323.73"/>
</a>
</g>
</g>
<!-- Node3&#45;&gt;Node2 -->
<g id="edge2_Node000002_Node000003" class="edge">
<title>Node3&#45;&gt;Node2</title>
<g id="a_edge2_Node000002_Node000003"><a xlink:title=" ">
<path fill="none" stroke="#63b8ff" d="M107.57,-323.33C113.78,-308.04 119.98,-292.75 124.87,-280.72"/>
<polygon fill="none" stroke="#63b8ff" points="104.23,-322.24 103.71,-332.82 110.72,-324.88 104.23,-322.24"/>
</a>
</g>
</g>
<!-- Node4 -->
<g id="Node000004" class="node">
<title>Node4</title>
<g id="a_Node000004"><a xlink:href="../../d1/dfd/interfaceTerraria_1_1DataStructures_1_1IEntryFilter.html" target="_top" xlink:title=" ">
<polygon fill="white" stroke="transparent" points="161,-623 0,-623 0,-496 161,-496 161,-623"/>
<text text-anchor="start" x="23" y="-610.5" font-family="Helvetica,sans-Serif" font-size="10.00">Terraria.DataStructures.</text>
<text text-anchor="start" x="40" y="-599.5" font-family="Helvetica,sans-Serif" font-size="10.00">IEntryFilter&lt; T &gt;</text>
<text text-anchor="start" x="79" y="-584.5" font-family="Helvetica,sans-Serif" font-size="10.00"> </text>
<text text-anchor="start" x="4.5" y="-569.5" font-family="Helvetica,sans-Serif" font-size="10.00">+</text>
<text text-anchor="start" x="17.5" y="-569.5" font-family="Helvetica,sans-Serif" font-size="10.00">bool FitsFilter(T entry)</text>
<text text-anchor="start" x="4.5" y="-554.5" font-family="Helvetica,sans-Serif" font-size="10.00">+</text>
<text text-anchor="start" x="17.5" y="-554.5" font-family="Helvetica,sans-Serif" font-size="10.00">string GetDisplayNameKey()</text>
<text text-anchor="start" x="4.5" y="-539.5" font-family="Helvetica,sans-Serif" font-size="10.00">+</text>
<text text-anchor="start" x="17.5" y="-539.5" font-family="Helvetica,sans-Serif" font-size="10.00">UIElement GetImage()</text>
<text text-anchor="start" x="4.5" y="-524.5" font-family="Helvetica,sans-Serif" font-size="10.00">+</text>
<text text-anchor="start" x="17.5" y="-524.5" font-family="Helvetica,sans-Serif" font-size="10.00">void GetDisplay(out</text>
<text text-anchor="start" x="17.5" y="-513.5" font-family="Helvetica,sans-Serif" font-size="10.00"> Texture2D texture,</text>
<text text-anchor="start" x="17.5" y="-502.5" font-family="Helvetica,sans-Serif" font-size="10.00"> out Rectangle frame)</text>
<polygon fill="#666666" stroke="#666666" points="0.5,-594.5 0.5,-594.5 161.5,-594.5 161.5,-594.5 0.5,-594.5"/>
<polygon fill="#666666" stroke="#666666" points="0.5,-579.5 0.5,-579.5 161.5,-579.5 161.5,-579.5 0.5,-579.5"/>
<polygon fill="none" stroke="#666666" points="0,-496 0,-623 161,-623 161,-496 0,-496"/>
</a>
</g>
</g>
<!-- Node4&#45;&gt;Node3 -->
<g id="edge3_Node000003_Node000004" class="edge">
<title>Node4&#45;&gt;Node3</title>
<g id="a_edge3_Node000003_Node000004"><a xlink:title=" ">
<path fill="none" stroke="orange" d="M80.5,-485.41C80.5,-473.21 80.5,-460.73 80.5,-449.01"/>
<polygon fill="orange" stroke="orange" points="77,-485.55 80.5,-495.55 84,-485.55 77,-485.55"/>
</a>
</g>
<text text-anchor="middle" x="126.5" y="-470" font-family="Helvetica,sans-Serif" font-size="10.00" fill="grey"> &lt; BestiaryEntry &gt;</text>
</g>
<!-- Node5 -->
<g id="Node000005" class="node">
<title>Node5</title>
<g id="a_Node000005"><a xlink:href="../../de/d3a/interfaceTerraria_1_1DataStructures_1_1ISearchFilter.html" target="_top" xlink:title=" ">
<polygon fill="white" stroke="transparent" points="372.5,-286 212.5,-286 212.5,-226 372.5,-226 372.5,-286"/>
<text text-anchor="start" x="217.5" y="-274" font-family="Helvetica,sans-Serif" font-size="10.00">ISearchFilter&lt; BestiaryEntry &gt;</text>
<text text-anchor="start" x="290.5" y="-259" font-family="Helvetica,sans-Serif" font-size="10.00"> </text>
<text text-anchor="start" x="225" y="-244" font-family="Helvetica,sans-Serif" font-size="10.00">+</text>
<text text-anchor="start" x="246.5" y="-244" font-family="Helvetica,sans-Serif" font-size="10.00">void SetSearch(string</text>
<text text-anchor="start" x="246.5" y="-233" font-family="Helvetica,sans-Serif" font-size="10.00"> searchText)</text>
<polygon fill="#666666" stroke="#666666" points="212.5,-269 212.5,-269 372.5,-269 372.5,-269 212.5,-269"/>
<polygon fill="#666666" stroke="#666666" points="212.5,-254 212.5,-254 372.5,-254 372.5,-254 212.5,-254"/>
<polygon fill="none" stroke="#666666" points="212.5,-226 212.5,-286 372.5,-286 372.5,-226 212.5,-226"/>
</a>
</g>
</g>
<!-- Node5&#45;&gt;Node1 -->
<g id="edge5_Node000001_Node000005" class="edge">
<title>Node5&#45;&gt;Node1</title>
<g id="a_edge5_Node000001_Node000005"><a xlink:title=" ">
<path fill="none" stroke="#63b8ff" d="M278.68,-216.48C274.63,-205.18 270.02,-192.33 265.34,-179.27"/>
<polygon fill="none" stroke="#63b8ff" points="275.42,-217.74 282.09,-225.97 282.01,-215.37 275.42,-217.74"/>
</a>
</g>
</g>
<!-- Node6 -->
<g id="Node000006" class="node">
<title>Node6</title>
<g id="a_Node000006"><a xlink:href="../../de/d3a/interfaceTerraria_1_1DataStructures_1_1ISearchFilter.html" target="_top" xlink:title=" ">
<polygon fill="white" stroke="transparent" points="355.5,-426.5 229.5,-426.5 229.5,-355.5 355.5,-355.5 355.5,-426.5"/>
<text text-anchor="start" x="234.5" y="-414" font-family="Helvetica,sans-Serif" font-size="10.00">Terraria.DataStructures.</text>
<text text-anchor="start" x="247.5" y="-403" font-family="Helvetica,sans-Serif" font-size="10.00">ISearchFilter&lt; T &gt;</text>
<text text-anchor="start" x="290.5" y="-388" font-family="Helvetica,sans-Serif" font-size="10.00"> </text>
<text text-anchor="start" x="233.5" y="-373" font-family="Helvetica,sans-Serif" font-size="10.00">+</text>
<text text-anchor="start" x="246.5" y="-373" font-family="Helvetica,sans-Serif" font-size="10.00">void SetSearch(string</text>
<text text-anchor="start" x="246.5" y="-362" font-family="Helvetica,sans-Serif" font-size="10.00"> searchText)</text>
<polygon fill="#666666" stroke="#666666" points="229.5,-398 229.5,-398 355.5,-398 355.5,-398 229.5,-398"/>
<polygon fill="#666666" stroke="#666666" points="229.5,-383 229.5,-383 355.5,-383 355.5,-383 229.5,-383"/>
<polygon fill="none" stroke="#666666" points="229.5,-355.5 229.5,-426.5 355.5,-426.5 355.5,-355.5 229.5,-355.5"/>
</a>
</g>
</g>
<!-- Node6&#45;&gt;Node5 -->
<g id="edge6_Node000005_Node000006" class="edge">
<title>Node6&#45;&gt;Node5</title>
<g id="a_edge6_Node000005_Node000006"><a xlink:title=" ">
<path fill="none" stroke="orange" d="M292.5,-345.19C292.5,-325.66 292.5,-303.33 292.5,-286.03"/>
<polygon fill="orange" stroke="orange" points="289,-345.4 292.5,-355.4 296,-345.4 289,-345.4"/>
</a>
</g>
<text text-anchor="middle" x="338.5" y="-307" font-family="Helvetica,sans-Serif" font-size="10.00" fill="grey"> &lt; BestiaryEntry &gt;</text>
</g>
<!-- Node7 -->
<g id="Node000007" class="node">
<title>Node7</title>
<g id="a_Node000007"><a xlink:href="../../d1/dfd/interfaceTerraria_1_1DataStructures_1_1IEntryFilter.html" target="_top" xlink:title=" ">
<polygon fill="white" stroke="transparent" points="373,-617.5 212,-617.5 212,-501.5 373,-501.5 373,-617.5"/>
<text text-anchor="start" x="252" y="-605.5" font-family="Helvetica,sans-Serif" font-size="10.00">IEntryFilter&lt; T &gt;</text>
<text text-anchor="start" x="291" y="-590.5" font-family="Helvetica,sans-Serif" font-size="10.00"> </text>
<text text-anchor="start" x="216.5" y="-575.5" font-family="Helvetica,sans-Serif" font-size="10.00">+</text>
<text text-anchor="start" x="229.5" y="-575.5" font-family="Helvetica,sans-Serif" font-size="10.00">bool FitsFilter(T entry)</text>
<text text-anchor="start" x="216.5" y="-560.5" font-family="Helvetica,sans-Serif" font-size="10.00">+</text>
<text text-anchor="start" x="229.5" y="-560.5" font-family="Helvetica,sans-Serif" font-size="10.00">string GetDisplayNameKey()</text>
<text text-anchor="start" x="216.5" y="-545.5" font-family="Helvetica,sans-Serif" font-size="10.00">+</text>
<text text-anchor="start" x="229.5" y="-545.5" font-family="Helvetica,sans-Serif" font-size="10.00">UIElement GetImage()</text>
<text text-anchor="start" x="216.5" y="-530.5" font-family="Helvetica,sans-Serif" font-size="10.00">+</text>
<text text-anchor="start" x="229.5" y="-530.5" font-family="Helvetica,sans-Serif" font-size="10.00">void GetDisplay(out</text>
<text text-anchor="start" x="229.5" y="-519.5" font-family="Helvetica,sans-Serif" font-size="10.00"> Texture2D texture,</text>
<text text-anchor="start" x="229.5" y="-508.5" font-family="Helvetica,sans-Serif" font-size="10.00"> out Rectangle frame)</text>
<polygon fill="#666666" stroke="#666666" points="212.5,-600.5 212.5,-600.5 373.5,-600.5 373.5,-600.5 212.5,-600.5"/>
<polygon fill="#666666" stroke="#666666" points="212.5,-585.5 212.5,-585.5 373.5,-585.5 373.5,-585.5 212.5,-585.5"/>
<polygon fill="none" stroke="#666666" points="212,-501.5 212,-617.5 373,-617.5 373,-501.5 212,-501.5"/>
</a>
</g>
</g>
<!-- Node7&#45;&gt;Node6 -->
<g id="edge7_Node000006_Node000007" class="edge">
<title>Node7&#45;&gt;Node6</title>
<g id="a_edge7_Node000006_Node000007"><a xlink:title=" ">
<path fill="none" stroke="#63b8ff" d="M292.5,-491.15C292.5,-468.98 292.5,-445.25 292.5,-426.56"/>
<polygon fill="none" stroke="#63b8ff" points="289,-491.2 292.5,-501.2 296,-491.2 289,-491.2"/>
</a>
</g>
</g>
<!-- Node8 -->
<g id="Node000008" class="node">
<title>Node8</title>
<g id="a_Node000008"><a xlink:title=" ">
<polygon fill="white" stroke="transparent" points="428.5,-280.5 390.5,-280.5 390.5,-231.5 428.5,-231.5 428.5,-280.5"/>
<text text-anchor="start" x="395.5" y="-268" font-family="Helvetica,sans-Serif" font-size="10.00">string</text>
<text text-anchor="start" x="407.5" y="-253" font-family="Helvetica,sans-Serif" font-size="10.00"> </text>
<text text-anchor="start" x="407.5" y="-238" font-family="Helvetica,sans-Serif" font-size="10.00"> </text>
<polygon fill="#666666" stroke="#666666" points="390.5,-263 390.5,-263 428.5,-263 428.5,-263 390.5,-263"/>
<polygon fill="#666666" stroke="#666666" points="390.5,-248 390.5,-248 428.5,-248 428.5,-248 390.5,-248"/>
<polygon fill="none" stroke="#666666" points="390.5,-231.5 390.5,-280.5 428.5,-280.5 428.5,-231.5 390.5,-231.5"/>
</a>
</g>
</g>
<!-- Node8&#45;&gt;Node1 -->
<g id="edge8_Node000001_Node000008" class="edge">
<title>Node8&#45;&gt;Node1</title>
<g id="a_edge8_Node000001_Node000008"><a xlink:title=" ">
<path fill="none" stroke="#63b8ff" d="M390.38,-234.87C387.44,-231.87 384.41,-228.83 381.5,-226 363.29,-208.27 343.45,-189.64 324.37,-172.07"/>
<polygon fill="none" stroke="#63b8ff" points="324.21,-171.92 317.09,-170.81 315.38,-163.81 322.5,-164.92 324.21,-171.92"/>
</a>
</g>
<text text-anchor="middle" x="384" y="-200" font-family="Helvetica,sans-Serif" font-size="10.00" fill="grey"> &#45;_search</text>
</g>
</g>
</svg>

<g id="navigator" transform="translate(0 0)" fill="#404254">
  <rect fill="#f2f5e9" fill-opacity="0.5" stroke="#606060" stroke-width=".5" x="0" y="0" width="60" height="60"/>
  <use id="zoomplus" xlink:href="#zoomPlus" x="17" y="9" onmousedown="handleZoom(evt,'in')"/>
  <use id="zoomminus" xlink:href="#zoomMin" x="42" y="9" onmousedown="handleZoom(evt,'out')"/>
  <use id="reset" xlink:href="#resetDef" x="30" y="36" onmousedown="handleReset()"/>
   <use id="arrowup" xlink:href="#arrowUp" x="0" y="0" onmousedown="handlePan(0,-1)"/>
  <use id="arrowright" xlink:href="#arrowRight" x="0" y="0" onmousedown="handlePan(1,0)"/>
  <use id="arrowdown" xlink:href="#arrowDown" x="0" y="0" onmousedown="handlePan(0,1)"/>
  <use id="arrowleft" xlink:href="#arrowLeft" x="0" y="0" onmousedown="handlePan(-1,0)"/>
</g>
<svg viewBox="0 0 15 15" width="100%" height="30px" preserveAspectRatio="xMaxYMin meet">
 <g id="arrow_out" transform="scale(0.3 0.3)">
  <a xlink:href="classTerraria_1_1GameContent_1_1Bestiary_1_1Filters_1_1BySearch__coll__graph_org.svg" target="_base">
   <rect id="button" ry="5" rx="5" y="6" x="6" height="38" width="38"
        fill="#f2f5e9" fill-opacity="0.5" stroke="#606060" stroke-width="1.0"/>
   <path id="arrow"
     d="M 11.500037,31.436501 C 11.940474,20.09759 22.043105,11.32322 32.158766,21.979434 L 37.068811,17.246167 C 37.068811,17.246167 37.088388,32 37.088388,32 L 22.160133,31.978069 C 22.160133,31.978069 26.997745,27.140456 26.997745,27.140456 C 18.528582,18.264221 13.291696,25.230495 11.500037,31.436501 z"
     style="fill:#404040;"/>
  </a>
 </g>
</svg>

<style type='text/css'>
<![CDATA[
[data-mouse-over-selected='false'] { opacity: 0.7; }
[data-mouse-over-selected='true']  { opacity: 1.0; }
]]>
</style>
<script type="application/ecmascript"><![CDATA[
document.addEventListener('DOMContentLoaded', (event) => {
  highlightEdges();
  highlightAdjacentNodes();
});
]]></script>
</svg>
