<?xml version="1.0" encoding="UTF-8" standalone="no"?>
<!DOCTYPE svg PUBLIC "-//W3C//DTD SVG 1.1//EN"
 "http://www.w3.org/Graphics/SVG/1.1/DTD/svg11.dtd">
<!-- Generated by graphviz version 2.43.0 (0)
 -->
<!-- Title: System.MarshalByRefObject Pages: 1 -->
<svg width="210pt" height="227pt"
 viewBox="0.00 0.00 210.00 227.00" xmlns="http://www.w3.org/2000/svg" xmlns:xlink="http://www.w3.org/1999/xlink">

<svg id="main" version="1.1" xmlns="http://www.w3.org/2000/svg" xmlns:xlink="http://www.w3.org/1999/xlink" xml:space="preserve" onload="init(evt)">
<style type="text/css"><![CDATA[
.node, .edge {opacity: 0.7;}
.node.selected, .edge.selected {opacity: 1;}
.edge:hover path { stroke: red; }
.edge:hover polygon { stroke: red; fill: red; }
]]></style>
<script type="application/ecmascript" xlink:href="../../svg.min.js"/>
<svg id="graph" class="graph">
<g id="graph0" class="graph" transform="scale(1 1) rotate(0) translate(4 223)">
<title>System.MarshalByRefObject</title>
<!-- Node1 -->
<g id="Node000001" class="node">
<title>Node1</title>
<g id="a_Node000001"><a xlink:title=" ">
<polygon fill="#999999" stroke="transparent" points="202,-123 0,-123 0,0 202,0 202,-123"/>
<text text-anchor="start" x="31" y="-110.5" font-family="Helvetica,sans-Serif" font-size="10.00">System.MarshalByRefObject</text>
<text text-anchor="start" x="4" y="-95.5" font-family="Helvetica,sans-Serif" font-size="10.00">+</text>
<text text-anchor="start" x="17" y="-95.5" font-family="Helvetica,sans-Serif" font-size="10.00">global::System.Runtime.Remoting.</text>
<text text-anchor="start" x="17" y="-84.5" font-family="Helvetica,sans-Serif" font-size="10.00">ServerIdentity ObjectIdentity</text>
<text text-anchor="start" x="4" y="-69.5" font-family="Helvetica,sans-Serif" font-size="10.00">+</text>
<text text-anchor="start" x="17" y="-69.5" font-family="Helvetica,sans-Serif" font-size="10.00">virtual global::System.Runtime.</text>
<text text-anchor="start" x="17" y="-58.5" font-family="Helvetica,sans-Serif" font-size="10.00">Remoting.ObjRef CreateObjRef</text>
<text text-anchor="start" x="17" y="-47.5" font-family="Helvetica,sans-Serif" font-size="10.00">(global::System.Type requestedType)</text>
<text text-anchor="start" x="4" y="-32.5" font-family="Helvetica,sans-Serif" font-size="10.00">+</text>
<text text-anchor="start" x="17" y="-32.5" font-family="Helvetica,sans-Serif" font-size="10.00">virtual object Initialize</text>
<text text-anchor="start" x="17" y="-21.5" font-family="Helvetica,sans-Serif" font-size="10.00">LifetimeService()</text>
<text text-anchor="start" x="4" y="-6.5" font-family="Helvetica,sans-Serif" font-size="10.00">#</text>
<text text-anchor="start" x="17" y="-6.5" font-family="Helvetica,sans-Serif" font-size="10.00">unsafe MarshalByRefObject()</text>
<polygon fill="#666666" stroke="#666666" points="0,-105.5 0,-105.5 202,-105.5 202,-105.5 0,-105.5"/>
<polygon fill="#666666" stroke="#666666" points="0,-79.5 0,-79.5 15,-79.5 15,-79.5 0,-79.5"/>
<polygon fill="#666666" stroke="#666666" points="15,-79.5 15,-79.5 202,-79.5 202,-79.5 15,-79.5"/>
<polygon fill="none" stroke="#666666" points="0,0 0,-123 202,-123 202,0 0,0"/>
</a>
</g>
</g>
<!-- Node2 -->
<g id="Node000002" class="node">
<title>Node2</title>
<g id="a_Node000002"><a xlink:title=" ">
<polygon fill="white" stroke="transparent" points="121.5,-219 80.5,-219 80.5,-170 121.5,-170 121.5,-219"/>
<text text-anchor="start" x="86" y="-206.5" font-family="Helvetica,sans-Serif" font-size="10.00">object</text>
<text text-anchor="start" x="99.5" y="-191.5" font-family="Helvetica,sans-Serif" font-size="10.00"> </text>
<text text-anchor="start" x="99.5" y="-176.5" font-family="Helvetica,sans-Serif" font-size="10.00"> </text>
<polygon fill="#666666" stroke="#666666" points="81,-201.5 81,-201.5 122,-201.5 122,-201.5 81,-201.5"/>
<polygon fill="#666666" stroke="#666666" points="81,-186.5 81,-186.5 122,-186.5 122,-186.5 81,-186.5"/>
<polygon fill="none" stroke="#666666" points="80.5,-170 80.5,-219 121.5,-219 121.5,-170 80.5,-170"/>
</a>
</g>
</g>
<!-- Node2&#45;&gt;Node1 -->
<g id="edge1_Node000001_Node000002" class="edge">
<title>Node2&#45;&gt;Node1</title>
<g id="a_edge1_Node000001_Node000002"><a xlink:title=" ">
<path fill="none" stroke="#63b8ff" d="M101,-169.78C101,-159.83 101,-147.68 101,-135.18"/>
<polygon fill="none" stroke="#63b8ff" points="101,-135.14 97,-129.14 101,-123.14 105,-129.14 101,-135.14"/>
</a>
</g>
<text text-anchor="middle" x="126" y="-144" font-family="Helvetica,sans-Serif" font-size="10.00" fill="grey"> &#45;_identity</text>
</g>
</g>
</svg>
</svg>

<style type='text/css'>
<![CDATA[
[data-mouse-over-selected='false'] { opacity: 0.7; }
[data-mouse-over-selected='true']  { opacity: 1.0; }
]]>
</style>
<script type="application/ecmascript"><![CDATA[
document.addEventListener('DOMContentLoaded', (event) => {
  highlightEdges();
  highlightAdjacentNodes();
});
]]></script>
</svg>
