<?xml version="1.0" encoding="UTF-8" standalone="no"?>
<!DOCTYPE svg PUBLIC "-//W3C//DTD SVG 1.1//EN"
 "http://www.w3.org/Graphics/SVG/1.1/DTD/svg11.dtd">
<!-- Generated by graphviz version 2.43.0 (0)
 -->
<!-- Title: Terraria.GameContent.Biomes.DesertBiome Pages: 1 -->
<!--zoomable 542 -->

<svg id="main" version="1.1" xmlns="http://www.w3.org/2000/svg" xmlns:xlink="http://www.w3.org/1999/xlink" xml:space="preserve" onload="init(evt)">
<style type="text/css"><![CDATA[
.node, .edge {opacity: 0.7;}
.node.selected, .edge.selected {opacity: 1;}
.edge:hover path { stroke: red; }
.edge:hover polygon { stroke: red; fill: red; }
]]></style>

<defs>
  <circle id="rim" cx="0" cy="0" r="7"/>
  <circle id="rim2" cx="0" cy="0" r="3.5"/>
  <g id="zoomPlus">
    <use xlink:href="#rim" fill="#404040"><set attributeName="fill" to="#808080" begin="zoomplus.mouseover" end="zoomplus.mouseout"/></use>
    <path d="M-4,0h8M0,-4v8" fill="none" stroke="white" stroke-width="1.5" pointer-events="none"/>
  </g>
  <g id="zoomMin">
    <use xlink:href="#rim" fill="#404040"><set attributeName="fill" to="#808080" begin="zoomminus.mouseover" end="zoomminus.mouseout"/></use>
    <path d="M-4,0h8" fill="none" stroke="white" stroke-width="1.5" pointer-events="none"/>
  </g>
  <g id="arrowUp" transform="translate(30 24)">
    <use xlink:href="#rim"/>
    <path pointer-events="none" fill="none" stroke="white" stroke-width="1.5" d="M0,-3.0v7 M-2.5,-0.5L0,-3.0L2.5,-0.5"/>
  </g>
  <g id="arrowRight" transform="rotate(90) translate(36 -43)">
    <use xlink:href="#rim"/>
    <path pointer-events="none" fill="none" stroke="white" stroke-width="1.5" d="M0,-3.0v7 M-2.5,-0.5L0,-3.0L2.5,-0.5"/>
  </g>
  <g id="arrowDown" transform="rotate(180) translate(-30 -48)">
    <use xlink:href="#rim"/>
    <path pointer-events="none" fill="none" stroke="white" stroke-width="1.5" d="M0,-3.0v7 M-2.5,-0.5L0,-3.0L2.5,-0.5"/>
  </g>
  <g id="arrowLeft" transform="rotate(270) translate(-36 17)">
    <use xlink:href="#rim"/>
    <path pointer-events="none" fill="none" stroke="white" stroke-width="1.5" d="M0,-3.0v7 M-2.5,-0.5L0,-3.0L2.5,-0.5"/>
  </g>
  <g id="resetDef">
    <use xlink:href="#rim2" fill="#404040"><set attributeName="fill" to="#808080" begin="reset.mouseover" end="reset.mouseout"/></use>
  </g>
</defs>
<script type="application/ecmascript">
var viewWidth = 173;
var viewHeight = 542;
var sectionId = 'dynsection-0';
</script>
<script type="application/ecmascript" xlink:href="../../svg.min.js"/>
<svg id="graph" class="graph">
<g id="viewport">
<title>Terraria.GameContent.Biomes.DesertBiome</title>
<!-- Node1 -->
<g id="Node000001" class="node">
<title>Node1</title>
<g id="a_Node000001"><a xlink:title=" ">
<polygon fill="#999999" stroke="transparent" points="164,-160 1,-160 1,0 164,0 164,-160"/>
<text text-anchor="start" x="7.5" y="-148" font-family="Helvetica,sans-Serif" font-size="10.00">Terraria.GameContent.Biomes.</text>
<text text-anchor="start" x="51" y="-137" font-family="Helvetica,sans-Serif" font-size="10.00">DesertBiome</text>
<text text-anchor="start" x="5.5" y="-122" font-family="Helvetica,sans-Serif" font-size="10.00">+</text>
<text text-anchor="start" x="18.5" y="-122" font-family="Helvetica,sans-Serif" font-size="10.00">double ChanceOfEntrance</text>
<text text-anchor="start" x="5.5" y="-107" font-family="Helvetica,sans-Serif" font-size="10.00">+</text>
<text text-anchor="start" x="18.5" y="-107" font-family="Helvetica,sans-Serif" font-size="10.00">override bool Place</text>
<text text-anchor="start" x="18.5" y="-96" font-family="Helvetica,sans-Serif" font-size="10.00">(Point origin, StructureMap</text>
<text text-anchor="start" x="18.5" y="-85" font-family="Helvetica,sans-Serif" font-size="10.00"> structures)</text>
<text text-anchor="start" x="5.5" y="-70" font-family="Helvetica,sans-Serif" font-size="10.00">+</text>
<text text-anchor="start" x="18.5" y="-70" font-family="Helvetica,sans-Serif" font-size="10.00">DesertBiome()</text>
<text text-anchor="start" x="8" y="-55" font-family="Helvetica,sans-Serif" font-size="10.00">&#45;</text>
<text text-anchor="start" x="18.5" y="-55" font-family="Helvetica,sans-Serif" font-size="10.00">static void ExportDescription</text>
<text text-anchor="start" x="18.5" y="-44" font-family="Helvetica,sans-Serif" font-size="10.00">ToEngine(DesertDescription</text>
<text text-anchor="start" x="18.5" y="-33" font-family="Helvetica,sans-Serif" font-size="10.00"> description)</text>
<text text-anchor="start" x="8" y="-18" font-family="Helvetica,sans-Serif" font-size="10.00">&#45;</text>
<text text-anchor="start" x="18.5" y="-18" font-family="Helvetica,sans-Serif" font-size="10.00">static void CleanupArea</text>
<text text-anchor="start" x="18.5" y="-7" font-family="Helvetica,sans-Serif" font-size="10.00">(Rectangle area)</text>
<polygon fill="#666666" stroke="#666666" points="1.5,-132 1.5,-132 164.5,-132 164.5,-132 1.5,-132"/>
<polygon fill="#666666" stroke="#666666" points="1.5,-117 1.5,-117 16.5,-117 16.5,-117 1.5,-117"/>
<polygon fill="#666666" stroke="#666666" points="16.5,-117 16.5,-117 164.5,-117 164.5,-117 16.5,-117"/>
<polygon fill="none" stroke="#666666" points="1,0 1,-160 164,-160 164,0 1,0"/>
</a>
</g>
</g>
<!-- Node2 -->
<g id="Node000002" class="node">
<title>Node2</title>
<g id="a_Node000002"><a xlink:href="../../da/d53/classTerraria_1_1WorldBuilding_1_1MicroBiome.html" target="_top" xlink:title=" ">
<polygon fill="white" stroke="transparent" points="126.5,-245 38.5,-245 38.5,-196 126.5,-196 126.5,-245"/>
<text text-anchor="start" x="53" y="-232.5" font-family="Helvetica,sans-Serif" font-size="10.00">MicroBiome</text>
<text text-anchor="start" x="80.5" y="-217.5" font-family="Helvetica,sans-Serif" font-size="10.00"> </text>
<text text-anchor="start" x="42.5" y="-202.5" font-family="Helvetica,sans-Serif" font-size="10.00">#</text>
<text text-anchor="start" x="55.5" y="-202.5" font-family="Helvetica,sans-Serif" font-size="10.00">MicroBiome()</text>
<polygon fill="#666666" stroke="#666666" points="38.5,-227.5 38.5,-227.5 126.5,-227.5 126.5,-227.5 38.5,-227.5"/>
<polygon fill="#666666" stroke="#666666" points="38.5,-212.5 38.5,-212.5 126.5,-212.5 126.5,-212.5 38.5,-212.5"/>
<polygon fill="none" stroke="#666666" points="38.5,-196 38.5,-245 126.5,-245 126.5,-196 38.5,-196"/>
</a>
</g>
</g>
<!-- Node2&#45;&gt;Node1 -->
<g id="edge1_Node000001_Node000002" class="edge">
<title>Node2&#45;&gt;Node1</title>
<g id="a_edge1_Node000001_Node000002"><a xlink:title=" ">
<path fill="none" stroke="#63b8ff" d="M82.5,-185.57C82.5,-177.73 82.5,-169.06 82.5,-160.18"/>
<polygon fill="none" stroke="#63b8ff" points="79,-185.69 82.5,-195.69 86,-185.69 79,-185.69"/>
</a>
</g>
</g>
<!-- Node3 -->
<g id="Node000003" class="node">
<title>Node3</title>
<g id="a_Node000003"><a xlink:href="../../dd/dae/classTerraria_1_1WorldBuilding_1_1GenStructure.html" target="_top" xlink:title=" ">
<polygon fill="white" stroke="transparent" points="155,-356 10,-356 10,-281 155,-281 155,-356"/>
<text text-anchor="start" x="51" y="-343.5" font-family="Helvetica,sans-Serif" font-size="10.00">GenStructure</text>
<text text-anchor="start" x="81" y="-328.5" font-family="Helvetica,sans-Serif" font-size="10.00"> </text>
<text text-anchor="start" x="14.5" y="-313.5" font-family="Helvetica,sans-Serif" font-size="10.00">+</text>
<text text-anchor="start" x="27.5" y="-313.5" font-family="Helvetica,sans-Serif" font-size="10.00">bool Place(Point origin,</text>
<text text-anchor="start" x="27.5" y="-302.5" font-family="Helvetica,sans-Serif" font-size="10.00"> StructureMap structures)</text>
<text text-anchor="start" x="14.5" y="-287.5" font-family="Helvetica,sans-Serif" font-size="10.00">#</text>
<text text-anchor="start" x="27.5" y="-287.5" font-family="Helvetica,sans-Serif" font-size="10.00">GenStructure()</text>
<polygon fill="#666666" stroke="#666666" points="10.5,-338.5 10.5,-338.5 155.5,-338.5 155.5,-338.5 10.5,-338.5"/>
<polygon fill="#666666" stroke="#666666" points="10.5,-323.5 10.5,-323.5 155.5,-323.5 155.5,-323.5 10.5,-323.5"/>
<polygon fill="none" stroke="#666666" points="10,-281 10,-356 155,-356 155,-281 10,-281"/>
</a>
</g>
</g>
<!-- Node3&#45;&gt;Node2 -->
<g id="edge2_Node000002_Node000003" class="edge">
<title>Node3&#45;&gt;Node2</title>
<g id="a_edge2_Node000002_Node000003"><a xlink:title=" ">
<path fill="none" stroke="#63b8ff" d="M82.5,-270.66C82.5,-261.83 82.5,-252.95 82.5,-245.21"/>
<polygon fill="none" stroke="#63b8ff" points="79,-270.93 82.5,-280.93 86,-270.93 79,-270.93"/>
</a>
</g>
</g>
<!-- Node4 -->
<g id="Node000004" class="node">
<title>Node4</title>
<g id="a_Node000004"><a xlink:href="../../d4/dd6/classTerraria_1_1WorldBuilding_1_1GenBase.html" target="_top" xlink:title=" ">
<polygon fill="white" stroke="transparent" points="165,-534 0,-534 0,-392 165,-392 165,-534"/>
<text text-anchor="start" x="61" y="-522" font-family="Helvetica,sans-Serif" font-size="10.00">GenBase</text>
<text text-anchor="start" x="4.5" y="-507" font-family="Helvetica,sans-Serif" font-size="10.00">+</text>
<text text-anchor="start" x="17.5" y="-507" font-family="Helvetica,sans-Serif" font-size="10.00">static UnifiedRandom</text>
<text text-anchor="start" x="17.5" y="-496" font-family="Helvetica,sans-Serif" font-size="10.00"> _random</text>
<text text-anchor="start" x="4.5" y="-481" font-family="Helvetica,sans-Serif" font-size="10.00">+</text>
<text text-anchor="start" x="17.5" y="-481" font-family="Helvetica,sans-Serif" font-size="10.00">static TileData _tiles</text>
<text text-anchor="start" x="4.5" y="-466" font-family="Helvetica,sans-Serif" font-size="10.00">+</text>
<text text-anchor="start" x="17.5" y="-466" font-family="Helvetica,sans-Serif" font-size="10.00">static int _worldWidth</text>
<text text-anchor="start" x="4.5" y="-451" font-family="Helvetica,sans-Serif" font-size="10.00">+</text>
<text text-anchor="start" x="17.5" y="-451" font-family="Helvetica,sans-Serif" font-size="10.00">static int _worldHeight</text>
<text text-anchor="start" x="4.5" y="-436" font-family="Helvetica,sans-Serif" font-size="10.00">+</text>
<text text-anchor="start" x="17.5" y="-436" font-family="Helvetica,sans-Serif" font-size="10.00">GenBase()</text>
<text text-anchor="start" x="4.5" y="-421" font-family="Helvetica,sans-Serif" font-size="10.00">+</text>
<text text-anchor="start" x="17.5" y="-421" font-family="Helvetica,sans-Serif" font-size="10.00">delegate bool CustomPerUnit</text>
<text text-anchor="start" x="17.5" y="-410" font-family="Helvetica,sans-Serif" font-size="10.00">Action(int x, int y, params</text>
<text text-anchor="start" x="17.5" y="-399" font-family="Helvetica,sans-Serif" font-size="10.00"> object[] args)</text>
<polygon fill="#666666" stroke="#666666" points="0.5,-517 0.5,-517 165.5,-517 165.5,-517 0.5,-517"/>
<polygon fill="#666666" stroke="#666666" points="0.5,-446 0.5,-446 15.5,-446 15.5,-446 0.5,-446"/>
<polygon fill="#666666" stroke="#666666" points="15.5,-446 15.5,-446 165.5,-446 165.5,-446 15.5,-446"/>
<polygon fill="none" stroke="#666666" points="0,-392 0,-534 165,-534 165,-392 0,-392"/>
</a>
</g>
</g>
<!-- Node4&#45;&gt;Node3 -->
<g id="edge3_Node000003_Node000004" class="edge">
<title>Node4&#45;&gt;Node3</title>
<g id="a_edge3_Node000003_Node000004"><a xlink:title=" ">
<path fill="none" stroke="#63b8ff" d="M82.5,-381.31C82.5,-372.61 82.5,-364.1 82.5,-356.32"/>
<polygon fill="none" stroke="#63b8ff" points="79,-381.58 82.5,-391.58 86,-381.58 79,-381.58"/>
</a>
</g>
</g>
</g>
</svg>

<g id="navigator" transform="translate(0 0)" fill="#404254">
  <rect fill="#f2f5e9" fill-opacity="0.5" stroke="#606060" stroke-width=".5" x="0" y="0" width="60" height="60"/>
  <use id="zoomplus" xlink:href="#zoomPlus" x="17" y="9" onmousedown="handleZoom(evt,'in')"/>
  <use id="zoomminus" xlink:href="#zoomMin" x="42" y="9" onmousedown="handleZoom(evt,'out')"/>
  <use id="reset" xlink:href="#resetDef" x="30" y="36" onmousedown="handleReset()"/>
   <use id="arrowup" xlink:href="#arrowUp" x="0" y="0" onmousedown="handlePan(0,-1)"/>
  <use id="arrowright" xlink:href="#arrowRight" x="0" y="0" onmousedown="handlePan(1,0)"/>
  <use id="arrowdown" xlink:href="#arrowDown" x="0" y="0" onmousedown="handlePan(0,1)"/>
  <use id="arrowleft" xlink:href="#arrowLeft" x="0" y="0" onmousedown="handlePan(-1,0)"/>
</g>
<svg viewBox="0 0 15 15" width="100%" height="30px" preserveAspectRatio="xMaxYMin meet">
 <g id="arrow_out" transform="scale(0.3 0.3)">
  <a xlink:href="classTerraria_1_1GameContent_1_1Biomes_1_1DesertBiome__inherit__graph_org.svg" target="_base">
   <rect id="button" ry="5" rx="5" y="6" x="6" height="38" width="38"
        fill="#f2f5e9" fill-opacity="0.5" stroke="#606060" stroke-width="1.0"/>
   <path id="arrow"
     d="M 11.500037,31.436501 C 11.940474,20.09759 22.043105,11.32322 32.158766,21.979434 L 37.068811,17.246167 C 37.068811,17.246167 37.088388,32 37.088388,32 L 22.160133,31.978069 C 22.160133,31.978069 26.997745,27.140456 26.997745,27.140456 C 18.528582,18.264221 13.291696,25.230495 11.500037,31.436501 z"
     style="fill:#404040;"/>
  </a>
 </g>
</svg>

<style type='text/css'>
<![CDATA[
[data-mouse-over-selected='false'] { opacity: 0.7; }
[data-mouse-over-selected='true']  { opacity: 1.0; }
]]>
</style>
<script type="application/ecmascript"><![CDATA[
document.addEventListener('DOMContentLoaded', (event) => {
  highlightEdges();
  highlightAdjacentNodes();
});
]]></script>
</svg>
