<?xml version="1.0" encoding="UTF-8" standalone="no"?>
<!DOCTYPE svg PUBLIC "-//W3C//DTD SVG 1.1//EN"
 "http://www.w3.org/Graphics/SVG/1.1/DTD/svg11.dtd">
<!-- Generated by graphviz version 2.43.0 (0)
 -->
<!-- Title: GUILowDiskSpacePopup Pages: 1 -->
<svg width="291pt" height="231pt"
 viewBox="0.00 0.00 291.00 231.00" xmlns="http://www.w3.org/2000/svg" xmlns:xlink="http://www.w3.org/1999/xlink">

<svg id="main" version="1.1" xmlns="http://www.w3.org/2000/svg" xmlns:xlink="http://www.w3.org/1999/xlink" xml:space="preserve" onload="init(evt)">
<style type="text/css"><![CDATA[
.node, .edge {opacity: 0.7;}
.node.selected, .edge.selected {opacity: 1;}
.edge:hover path { stroke: red; }
.edge:hover polygon { stroke: red; fill: red; }
]]></style>
<script type="application/ecmascript" xlink:href="../../svg.min.js"/>
<svg id="graph" class="graph">
<g id="graph0" class="graph" transform="scale(1 1) rotate(0) translate(4 227)">
<title>GUILowDiskSpacePopup</title>
<!-- Node1 -->
<g id="Node000001" class="node">
<title>Node1</title>
<g id="a_Node000001"><a xlink:title=" ">
<polygon fill="#999999" stroke="transparent" points="210,-105 62,-105 62,0 210,0 210,-105"/>
<text text-anchor="start" x="76.5" y="-92.5" font-family="Helvetica,sans-Serif" font-size="10.00">GUILowDiskSpacePopup</text>
<text text-anchor="start" x="134" y="-77.5" font-family="Helvetica,sans-Serif" font-size="10.00"> </text>
<text text-anchor="start" x="66" y="-62.5" font-family="Helvetica,sans-Serif" font-size="10.00">+</text>
<text text-anchor="start" x="79" y="-62.5" font-family="Helvetica,sans-Serif" font-size="10.00">void CheckDiskSpace</text>
<text text-anchor="start" x="79" y="-51.5" font-family="Helvetica,sans-Serif" font-size="10.00">(Action continueAction)</text>
<text text-anchor="start" x="66" y="-36.5" font-family="Helvetica,sans-Serif" font-size="10.00">+</text>
<text text-anchor="start" x="79" y="-36.5" font-family="Helvetica,sans-Serif" font-size="10.00">void Draw()</text>
<text text-anchor="start" x="66" y="-21.5" font-family="Helvetica,sans-Serif" font-size="10.00">+</text>
<text text-anchor="start" x="79" y="-21.5" font-family="Helvetica,sans-Serif" font-size="10.00">GUILowDiskSpacePopup()</text>
<text text-anchor="start" x="68.5" y="-6.5" font-family="Helvetica,sans-Serif" font-size="10.00">&#45;</text>
<text text-anchor="start" x="79" y="-6.5" font-family="Helvetica,sans-Serif" font-size="10.00">long DiskSpace()</text>
<polygon fill="#666666" stroke="#666666" points="62,-87.5 62,-87.5 210,-87.5 210,-87.5 62,-87.5"/>
<polygon fill="#666666" stroke="#666666" points="62,-72.5 62,-72.5 210,-72.5 210,-72.5 62,-72.5"/>
<polygon fill="none" stroke="#666666" points="62,0 62,-105 210,-105 210,0 62,0"/>
</a>
</g>
</g>
<!-- Node2 -->
<g id="Node000002" class="node">
<title>Node2</title>
<g id="a_Node000002"><a xlink:title=" ">
<polygon fill="white" stroke="transparent" points="32,-223 0,-223 0,-174 32,-174 32,-223"/>
<text text-anchor="start" x="5" y="-210.5" font-family="Helvetica,sans-Serif" font-size="10.00">bool</text>
<text text-anchor="start" x="14" y="-195.5" font-family="Helvetica,sans-Serif" font-size="10.00"> </text>
<text text-anchor="start" x="14" y="-180.5" font-family="Helvetica,sans-Serif" font-size="10.00"> </text>
<polygon fill="#666666" stroke="#666666" points="0,-205.5 0,-205.5 32,-205.5 32,-205.5 0,-205.5"/>
<polygon fill="#666666" stroke="#666666" points="0,-190.5 0,-190.5 32,-190.5 32,-190.5 0,-190.5"/>
<polygon fill="none" stroke="#666666" points="0,-174 0,-223 32,-223 32,-174 0,-174"/>
</a>
</g>
</g>
<!-- Node2&#45;&gt;Node1 -->
<g id="edge1_Node000001_Node000002" class="edge">
<title>Node2&#45;&gt;Node1</title>
<g id="a_edge1_Node000001_Node000002"><a xlink:title=" ">
<path fill="none" stroke="#63b8ff" d="M17.72,-173.9C19.83,-158.28 24.54,-138 35,-123 40.02,-115.8 46.05,-109.11 52.62,-102.96"/>
<polygon fill="none" stroke="#63b8ff" points="52.83,-102.78 54.74,-95.83 61.89,-94.91 59.98,-101.87 52.83,-102.78"/>
</a>
</g>
<text text-anchor="middle" x="83.5" y="-142.5" font-family="Helvetica,sans-Serif" font-size="10.00" fill="grey"> +DisableWarnings</text>
<text text-anchor="middle" x="83.5" y="-131.5" font-family="Helvetica,sans-Serif" font-size="10.00" fill="grey">+WarningDisplayed</text>
</g>
<!-- Node3 -->
<g id="Node000003" class="node">
<title>Node3</title>
<g id="a_Node000003"><a xlink:title=" ">
<polygon fill="white" stroke="transparent" points="156.5,-223 115.5,-223 115.5,-174 156.5,-174 156.5,-223"/>
<text text-anchor="start" x="121" y="-210.5" font-family="Helvetica,sans-Serif" font-size="10.00">Action</text>
<text text-anchor="start" x="134.5" y="-195.5" font-family="Helvetica,sans-Serif" font-size="10.00"> </text>
<text text-anchor="start" x="134.5" y="-180.5" font-family="Helvetica,sans-Serif" font-size="10.00"> </text>
<polygon fill="#666666" stroke="#666666" points="116,-205.5 116,-205.5 157,-205.5 157,-205.5 116,-205.5"/>
<polygon fill="#666666" stroke="#666666" points="116,-190.5 116,-190.5 157,-190.5 157,-190.5 116,-190.5"/>
<polygon fill="none" stroke="#666666" points="115.5,-174 115.5,-223 156.5,-223 156.5,-174 115.5,-174"/>
</a>
</g>
</g>
<!-- Node3&#45;&gt;Node1 -->
<g id="edge2_Node000001_Node000003" class="edge">
<title>Node3&#45;&gt;Node1</title>
<g id="a_edge2_Node000001_Node000003"><a xlink:title=" ">
<path fill="none" stroke="#63b8ff" d="M136,-173.72C136,-158.23 136,-137.24 136,-117.13"/>
<polygon fill="none" stroke="#63b8ff" points="136,-117.11 132,-111.11 136,-105.11 140,-111.11 136,-117.11"/>
</a>
</g>
<text text-anchor="middle" x="182.5" y="-137" font-family="Helvetica,sans-Serif" font-size="10.00" fill="grey"> &#45;ContinueCallback</text>
</g>
<!-- Node4 -->
<g id="Node000004" class="node">
<title>Node4</title>
<g id="a_Node000004"><a xlink:title=" ">
<polygon fill="white" stroke="transparent" points="268,-223 236,-223 236,-174 268,-174 268,-223"/>
<text text-anchor="start" x="241" y="-210.5" font-family="Helvetica,sans-Serif" font-size="10.00">float</text>
<text text-anchor="start" x="250" y="-195.5" font-family="Helvetica,sans-Serif" font-size="10.00"> </text>
<text text-anchor="start" x="250" y="-180.5" font-family="Helvetica,sans-Serif" font-size="10.00"> </text>
<polygon fill="#666666" stroke="#666666" points="236,-205.5 236,-205.5 268,-205.5 268,-205.5 236,-205.5"/>
<polygon fill="#666666" stroke="#666666" points="236,-190.5 236,-190.5 268,-190.5 268,-190.5 236,-190.5"/>
<polygon fill="none" stroke="#666666" points="236,-174 236,-223 268,-223 268,-174 236,-174"/>
</a>
</g>
</g>
<!-- Node4&#45;&gt;Node1 -->
<g id="edge3_Node000001_Node000004" class="edge">
<title>Node4&#45;&gt;Node1</title>
<g id="a_edge3_Node000001_Node000004"><a xlink:title=" ">
<path fill="none" stroke="#63b8ff" d="M249.03,-173.98C246.15,-158.41 240.59,-138.14 230,-123 226.68,-118.26 222.94,-113.72 218.91,-109.38"/>
<polygon fill="none" stroke="#63b8ff" points="218.77,-109.24 211.69,-107.85 210.26,-100.78 217.34,-102.18 218.77,-109.24"/>
</a>
</g>
<text text-anchor="middle" x="263.5" y="-148" font-family="Helvetica,sans-Serif" font-size="10.00" fill="grey"> &#45;scale0</text>
<text text-anchor="middle" x="263.5" y="-137" font-family="Helvetica,sans-Serif" font-size="10.00" fill="grey">&#45;scale1</text>
<text text-anchor="middle" x="263.5" y="-126" font-family="Helvetica,sans-Serif" font-size="10.00" fill="grey">&#45;scale2</text>
</g>
</g>
</svg>
</svg>

<style type='text/css'>
<![CDATA[
[data-mouse-over-selected='false'] { opacity: 0.7; }
[data-mouse-over-selected='true']  { opacity: 1.0; }
]]>
</style>
<script type="application/ecmascript"><![CDATA[
document.addEventListener('DOMContentLoaded', (event) => {
  highlightEdges();
  highlightAdjacentNodes();
});
]]></script>
</svg>
