<?xml version="1.0" encoding="UTF-8" standalone="no"?>
<!DOCTYPE svg PUBLIC "-//W3C//DTD SVG 1.1//EN"
 "http://www.w3.org/Graphics/SVG/1.1/DTD/svg11.dtd">
<!-- Generated by graphviz version 2.43.0 (0)
 -->
<!-- Title: System.Runtime.Remoting.Activation.RemoteActivationAttribute Pages: 1 -->
<svg width="387pt" height="271pt"
 viewBox="0.00 0.00 387.00 271.00" xmlns="http://www.w3.org/2000/svg" xmlns:xlink="http://www.w3.org/1999/xlink">
<g id="graph0" class="graph" transform="scale(1 1) rotate(0) translate(4 267)">
<title>System.Runtime.Remoting.Activation.RemoteActivationAttribute</title>
<!-- Node1 -->
<g id="Node000001" class="node">
<title>Node1</title>
<g id="a_Node000001"><a xlink:title=" ">
<polygon fill="#999999" stroke="transparent" points="325,-145 89,-145 89,0 325,0 325,-145"/>
<text text-anchor="start" x="115" y="-132.5" font-family="Helvetica,sans-Serif" font-size="10.00">System.Runtime.Remoting.</text>
<text text-anchor="start" x="115" y="-121.5" font-family="Helvetica,sans-Serif" font-size="10.00">Activation.RemoteActivationAttribute</text>
<text text-anchor="start" x="205" y="-106.5" font-family="Helvetica,sans-Serif" font-size="10.00"> </text>
<text text-anchor="start" x="93" y="-91.5" font-family="Helvetica,sans-Serif" font-size="10.00">+</text>
<text text-anchor="start" x="106" y="-91.5" font-family="Helvetica,sans-Serif" font-size="10.00">RemoteActivationAttribute</text>
<text text-anchor="start" x="106" y="-80.5" font-family="Helvetica,sans-Serif" font-size="10.00">(global::System.Collections.IList</text>
<text text-anchor="start" x="106" y="-69.5" font-family="Helvetica,sans-Serif" font-size="10.00"> contextProperties)</text>
<text text-anchor="start" x="93" y="-54.5" font-family="Helvetica,sans-Serif" font-size="10.00">+</text>
<text text-anchor="start" x="106" y="-54.5" font-family="Helvetica,sans-Serif" font-size="10.00">bool IsContextOK(global</text>
<text text-anchor="start" x="106" y="-43.5" font-family="Helvetica,sans-Serif" font-size="10.00">::System.Runtime.Remoting.Contexts.</text>
<text text-anchor="start" x="106" y="-32.5" font-family="Helvetica,sans-Serif" font-size="10.00">Context ctx, IConstructionCallMessage ctor)</text>
<text text-anchor="start" x="93" y="-17.5" font-family="Helvetica,sans-Serif" font-size="10.00">+</text>
<text text-anchor="start" x="106" y="-17.5" font-family="Helvetica,sans-Serif" font-size="10.00">void GetPropertiesForNew</text>
<text text-anchor="start" x="106" y="-6.5" font-family="Helvetica,sans-Serif" font-size="10.00">Context(IConstructionCallMessage ctor)</text>
<polygon fill="#666666" stroke="#666666" points="89,-116.5 89,-116.5 325,-116.5 325,-116.5 89,-116.5"/>
<polygon fill="#666666" stroke="#666666" points="89,-101.5 89,-101.5 325,-101.5 325,-101.5 89,-101.5"/>
<polygon fill="none" stroke="#666666" points="89,0 89,-145 325,-145 325,0 89,0"/>
</a>
</g>
</g>
<!-- Node2 -->
<g id="Node000002" class="node">
<title>Node2</title>
<g id="a_Node000002"><a xlink:title=" ">
<polygon fill="white" stroke="transparent" points="126,-252 0,-252 0,-203 126,-203 126,-252"/>
<text text-anchor="start" x="5" y="-239.5" font-family="Helvetica,sans-Serif" font-size="10.00">global::SystemAttribute</text>
<text text-anchor="start" x="61" y="-224.5" font-family="Helvetica,sans-Serif" font-size="10.00"> </text>
<text text-anchor="start" x="61" y="-209.5" font-family="Helvetica,sans-Serif" font-size="10.00"> </text>
<polygon fill="#666666" stroke="#666666" points="0,-234.5 0,-234.5 126,-234.5 126,-234.5 0,-234.5"/>
<polygon fill="#666666" stroke="#666666" points="0,-219.5 0,-219.5 126,-219.5 126,-219.5 0,-219.5"/>
<polygon fill="none" stroke="#666666" points="0,-203 0,-252 126,-252 126,-203 0,-203"/>
</a>
</g>
</g>
<!-- Node2&#45;&gt;Node1 -->
<g id="edge1_Node000001_Node000002" class="edge">
<title>Node2&#45;&gt;Node1</title>
<g id="a_edge1_Node000001_Node000002"><a xlink:title=" ">
<path fill="none" stroke="#63b8ff" d="M92.06,-195.63C105.81,-181.01 122.86,-162.9 139.58,-145.13"/>
<polygon fill="none" stroke="#63b8ff" points="89.49,-193.25 85.18,-202.93 94.59,-198.05 89.49,-193.25"/>
</a>
</g>
</g>
<!-- Node3 -->
<g id="Node000003" class="node">
<title>Node3</title>
<g id="a_Node000003"><a xlink:href="../../d7/d65/classglobal_1_1SystemRuntime_1_1Remoting_1_1Contexts_1_1IContextAttribute.html" target="_top" xlink:title=" ">
<polygon fill="white" stroke="transparent" points="269.5,-263 144.5,-263 144.5,-192 269.5,-192 269.5,-263"/>
<text text-anchor="start" x="150" y="-250.5" font-family="Helvetica,sans-Serif" font-size="10.00">global::SystemRuntime</text>
<text text-anchor="start" x="150" y="-239.5" font-family="Helvetica,sans-Serif" font-size="10.00">::Remoting::Contexts</text>
<text text-anchor="start" x="162" y="-228.5" font-family="Helvetica,sans-Serif" font-size="10.00">::IContextAttribute</text>
<text text-anchor="start" x="205.5" y="-213.5" font-family="Helvetica,sans-Serif" font-size="10.00"> </text>
<text text-anchor="start" x="205.5" y="-198.5" font-family="Helvetica,sans-Serif" font-size="10.00"> </text>
<polygon fill="#666666" stroke="#666666" points="145,-223.5 145,-223.5 270,-223.5 270,-223.5 145,-223.5"/>
<polygon fill="#666666" stroke="#666666" points="145,-208.5 145,-208.5 270,-208.5 270,-208.5 145,-208.5"/>
<polygon fill="none" stroke="#666666" points="144.5,-192 144.5,-263 269.5,-263 269.5,-192 144.5,-192"/>
</a>
</g>
</g>
<!-- Node3&#45;&gt;Node1 -->
<g id="edge2_Node000001_Node000003" class="edge">
<title>Node3&#45;&gt;Node1</title>
<g id="a_edge2_Node000001_Node000003"><a xlink:title=" ">
<path fill="none" stroke="#63b8ff" d="M207,-181.65C207,-170.23 207,-157.67 207,-145.27"/>
<polygon fill="none" stroke="#63b8ff" points="203.5,-181.78 207,-191.78 210.5,-181.78 203.5,-181.78"/>
</a>
</g>
</g>
<!-- Node4 -->
<g id="Node000004" class="node">
<title>Node4</title>
<g id="a_Node000004"><a xlink:title=" ">
<polygon fill="white" stroke="transparent" points="352.5,-252 287.5,-252 287.5,-203 352.5,-203 352.5,-252"/>
<text text-anchor="start" x="293" y="-239.5" font-family="Helvetica,sans-Serif" font-size="10.00">Collections</text>
<text text-anchor="start" x="318.5" y="-224.5" font-family="Helvetica,sans-Serif" font-size="10.00"> </text>
<text text-anchor="start" x="318.5" y="-209.5" font-family="Helvetica,sans-Serif" font-size="10.00"> </text>
<polygon fill="#666666" stroke="#666666" points="288,-234.5 288,-234.5 353,-234.5 353,-234.5 288,-234.5"/>
<polygon fill="#666666" stroke="#666666" points="288,-219.5 288,-219.5 353,-219.5 353,-219.5 288,-219.5"/>
<polygon fill="none" stroke="#666666" points="287.5,-203 287.5,-252 352.5,-252 352.5,-203 287.5,-203"/>
</a>
</g>
</g>
<!-- Node4&#45;&gt;Node1 -->
<g id="edge3_Node000001_Node000004" class="edge">
<title>Node4&#45;&gt;Node1</title>
<g id="a_edge3_Node000001_Node000004"><a xlink:title=" ">
<path fill="none" stroke="#63b8ff" d="M302.59,-202.93C292.88,-189.77 280.13,-172.52 267.14,-154.92"/>
<polygon fill="none" stroke="#63b8ff" points="267.04,-154.79 260.25,-152.34 259.91,-145.13 266.69,-147.58 267.04,-154.79"/>
</a>
</g>
<text text-anchor="middle" x="329.5" y="-166" font-family="Helvetica,sans-Serif" font-size="10.00" fill="grey"> &#45;_contextProperties</text>
</g>
</g>
</svg>
