<?xml version="1.0" encoding="UTF-8" standalone="no"?>
<!DOCTYPE svg PUBLIC "-//W3C//DTD SVG 1.1//EN"
 "http://www.w3.org/Graphics/SVG/1.1/DTD/svg11.dtd">
<!-- Generated by graphviz version 2.43.0 (0)
 -->
<!-- Title: Terraria.GameContent.Creative.SortingSteps.AStepByFittingFilter Pages: 1 -->
<svg width="392pt" height="664pt"
 viewBox="0.00 0.00 392.00 664.00" xmlns="http://www.w3.org/2000/svg" xmlns:xlink="http://www.w3.org/1999/xlink">
<g id="graph0" class="graph" transform="scale(1 1) rotate(0) translate(4 660)">
<title>Terraria.GameContent.Creative.SortingSteps.AStepByFittingFilter</title>
<!-- Node1 -->
<g id="Node000001" class="node">
<title>Node1</title>
<g id="a_Node000001"><a xlink:title=" ">
<polygon fill="#999999" stroke="transparent" points="312.5,-138 140.5,-138 140.5,0 312.5,0 312.5,-138"/>
<text text-anchor="start" x="145.5" y="-126" font-family="Helvetica,sans-Serif" font-size="10.00">Terraria.GameContent.Creative.</text>
<text text-anchor="start" x="145.5" y="-115" font-family="Helvetica,sans-Serif" font-size="10.00">SortingSteps.AStepByFittingFilter</text>
<text text-anchor="start" x="224.5" y="-100" font-family="Helvetica,sans-Serif" font-size="10.00"> </text>
<text text-anchor="start" x="146" y="-85" font-family="Helvetica,sans-Serif" font-size="10.00">+</text>
<text text-anchor="start" x="160.5" y="-85" font-family="Helvetica,sans-Serif" font-size="10.00">override int Compare</text>
<text text-anchor="start" x="160.5" y="-74" font-family="Helvetica,sans-Serif" font-size="10.00">(Item x, Item y)</text>
<text text-anchor="start" x="146" y="-59" font-family="Helvetica,sans-Serif" font-size="10.00">+</text>
<text text-anchor="start" x="160.5" y="-59" font-family="Helvetica,sans-Serif" font-size="10.00">bool FitsFilter(Item</text>
<text text-anchor="start" x="160.5" y="-48" font-family="Helvetica,sans-Serif" font-size="10.00"> item)</text>
<text text-anchor="start" x="146" y="-33" font-family="Helvetica,sans-Serif" font-size="10.00">+</text>
<text text-anchor="start" x="160.5" y="-33" font-family="Helvetica,sans-Serif" font-size="10.00">virtual int CompareWhenBoth</text>
<text text-anchor="start" x="160.5" y="-22" font-family="Helvetica,sans-Serif" font-size="10.00">Fit(Item x, Item y)</text>
<text text-anchor="start" x="146" y="-7" font-family="Helvetica,sans-Serif" font-size="10.00">#</text>
<text text-anchor="start" x="160.5" y="-7" font-family="Helvetica,sans-Serif" font-size="10.00">AStepByFittingFilter()</text>
<polygon fill="#666666" stroke="#666666" points="140.5,-110 140.5,-110 312.5,-110 312.5,-110 140.5,-110"/>
<polygon fill="#666666" stroke="#666666" points="140.5,-95 140.5,-95 312.5,-95 312.5,-95 140.5,-95"/>
<polygon fill="none" stroke="#666666" points="140.5,0 140.5,-138 312.5,-138 312.5,0 140.5,0"/>
</a>
</g>
</g>
<!-- Node2 -->
<g id="Node000002" class="node">
<title>Node2</title>
<g id="a_Node000002"><a xlink:href="../../d6/d18/classTerraria_1_1GameContent_1_1Creative_1_1SortingSteps_1_1ACreativeItemSortStep.html" target="_top" xlink:title=" ">
<polygon fill="white" stroke="transparent" points="307,-291 146,-291 146,-175 307,-175 307,-291"/>
<text text-anchor="start" x="171" y="-279" font-family="Helvetica,sans-Serif" font-size="10.00">ACreativeItemSortStep</text>
<text text-anchor="start" x="225" y="-264" font-family="Helvetica,sans-Serif" font-size="10.00"> </text>
<text text-anchor="start" x="150.5" y="-249" font-family="Helvetica,sans-Serif" font-size="10.00">+</text>
<text text-anchor="start" x="163.5" y="-249" font-family="Helvetica,sans-Serif" font-size="10.00">string GetDisplayNameKey()</text>
<text text-anchor="start" x="150.5" y="-234" font-family="Helvetica,sans-Serif" font-size="10.00">+</text>
<text text-anchor="start" x="163.5" y="-234" font-family="Helvetica,sans-Serif" font-size="10.00">int Compare(int x,</text>
<text text-anchor="start" x="163.5" y="-223" font-family="Helvetica,sans-Serif" font-size="10.00"> int y)</text>
<text text-anchor="start" x="150.5" y="-208" font-family="Helvetica,sans-Serif" font-size="10.00">+</text>
<text text-anchor="start" x="163.5" y="-208" font-family="Helvetica,sans-Serif" font-size="10.00">int Compare(Item x,</text>
<text text-anchor="start" x="163.5" y="-197" font-family="Helvetica,sans-Serif" font-size="10.00"> Item y)</text>
<text text-anchor="start" x="150.5" y="-182" font-family="Helvetica,sans-Serif" font-size="10.00">#</text>
<text text-anchor="start" x="163.5" y="-182" font-family="Helvetica,sans-Serif" font-size="10.00">ACreativeItemSortStep()</text>
<polygon fill="#666666" stroke="#666666" points="146.5,-274 146.5,-274 307.5,-274 307.5,-274 146.5,-274"/>
<polygon fill="#666666" stroke="#666666" points="146.5,-259 146.5,-259 307.5,-259 307.5,-259 146.5,-259"/>
<polygon fill="none" stroke="#666666" points="146,-175 146,-291 307,-291 307,-175 146,-175"/>
</a>
</g>
</g>
<!-- Node2&#45;&gt;Node1 -->
<g id="edge1_Node000001_Node000002" class="edge">
<title>Node2&#45;&gt;Node1</title>
<g id="a_edge1_Node000001_Node000002"><a xlink:title=" ">
<path fill="none" stroke="#63b8ff" d="M226.5,-164.74C226.5,-155.99 226.5,-147.02 226.5,-138.26"/>
<polygon fill="none" stroke="#63b8ff" points="223,-164.88 226.5,-174.88 230,-164.88 223,-164.88"/>
</a>
</g>
</g>
<!-- Node3 -->
<g id="Node000003" class="node">
<title>Node3</title>
<g id="a_Node000003"><a xlink:href="../../dd/d2d/interfaceTerraria_1_1GameContent_1_1Creative_1_1ICreativeItemSortStep.html" target="_top" xlink:title=" ">
<polygon fill="white" stroke="transparent" points="220,-377 101,-377 101,-328 220,-328 220,-377"/>
<text text-anchor="start" x="106.5" y="-364.5" font-family="Helvetica,sans-Serif" font-size="10.00">ICreativeItemSortStep</text>
<text text-anchor="start" x="159" y="-349.5" font-family="Helvetica,sans-Serif" font-size="10.00"> </text>
<text text-anchor="start" x="159" y="-334.5" font-family="Helvetica,sans-Serif" font-size="10.00"> </text>
<polygon fill="#666666" stroke="#666666" points="101.5,-359.5 101.5,-359.5 220.5,-359.5 220.5,-359.5 101.5,-359.5"/>
<polygon fill="#666666" stroke="#666666" points="101.5,-344.5 101.5,-344.5 220.5,-344.5 220.5,-344.5 101.5,-344.5"/>
<polygon fill="none" stroke="#666666" points="101,-328 101,-377 220,-377 220,-328 101,-328"/>
</a>
</g>
</g>
<!-- Node3&#45;&gt;Node2 -->
<g id="edge2_Node000002_Node000003" class="edge">
<title>Node3&#45;&gt;Node2</title>
<g id="a_edge2_Node000002_Node000003"><a xlink:title=" ">
<path fill="none" stroke="#63b8ff" d="M178.86,-318.82C183.68,-310.24 189.02,-300.72 194.34,-291.26"/>
<polygon fill="none" stroke="#63b8ff" points="175.7,-317.29 173.86,-327.72 181.81,-320.72 175.7,-317.29"/>
</a>
</g>
</g>
<!-- Node4 -->
<g id="Node000004" class="node">
<title>Node4</title>
<g id="a_Node000004"><a xlink:href="../../d0/db8/interfaceTerraria_1_1DataStructures_1_1IEntrySortStep.html" target="_top" xlink:title=" ">
<polygon fill="white" stroke="transparent" points="161,-463 0,-463 0,-414 161,-414 161,-463"/>
<text text-anchor="start" x="28" y="-450.5" font-family="Helvetica,sans-Serif" font-size="10.00">IEntrySortStep&lt; int &gt;</text>
<text text-anchor="start" x="79" y="-435.5" font-family="Helvetica,sans-Serif" font-size="10.00"> </text>
<text text-anchor="start" x="4.5" y="-420.5" font-family="Helvetica,sans-Serif" font-size="10.00">+</text>
<text text-anchor="start" x="17.5" y="-420.5" font-family="Helvetica,sans-Serif" font-size="10.00">string GetDisplayNameKey()</text>
<polygon fill="#666666" stroke="#666666" points="0.5,-445.5 0.5,-445.5 161.5,-445.5 161.5,-445.5 0.5,-445.5"/>
<polygon fill="#666666" stroke="#666666" points="0.5,-430.5 0.5,-430.5 161.5,-430.5 161.5,-430.5 0.5,-430.5"/>
<polygon fill="none" stroke="#666666" points="0,-414 0,-463 161,-463 161,-414 0,-414"/>
</a>
</g>
</g>
<!-- Node4&#45;&gt;Node2 -->
<g id="edge7_Node000002_Node000004" class="edge">
<title>Node4&#45;&gt;Node2</title>
<g id="a_edge7_Node000002_Node000004"><a xlink:title=" ">
<path fill="none" stroke="#63b8ff" d="M76.84,-403.7C75.98,-380.83 78.13,-350.75 91.5,-328 104.45,-305.96 124.85,-287.85 145.9,-273.6"/>
<polygon fill="none" stroke="#63b8ff" points="73.37,-404.19 77.45,-413.97 80.35,-403.78 73.37,-404.19"/>
</a>
</g>
</g>
<!-- Node4&#45;&gt;Node3 -->
<g id="edge3_Node000003_Node000004" class="edge">
<title>Node4&#45;&gt;Node3</title>
<g id="a_edge3_Node000003_Node000004"><a xlink:title=" ">
<path fill="none" stroke="#63b8ff" d="M110.35,-406.15C119.51,-396.54 129.43,-386.12 138.01,-377.12"/>
<polygon fill="none" stroke="#63b8ff" points="107.57,-404 103.21,-413.65 112.64,-408.83 107.57,-404"/>
</a>
</g>
</g>
<!-- Node5 -->
<g id="Node000005" class="node">
<title>Node5</title>
<g id="a_Node000005"><a xlink:href="../../d0/db8/interfaceTerraria_1_1DataStructures_1_1IEntrySortStep.html" target="_top" xlink:title=" ">
<polygon fill="white" stroke="transparent" points="161,-570 0,-570 0,-510 161,-510 161,-570"/>
<text text-anchor="start" x="23" y="-558" font-family="Helvetica,sans-Serif" font-size="10.00">Terraria.DataStructures.</text>
<text text-anchor="start" x="31.5" y="-547" font-family="Helvetica,sans-Serif" font-size="10.00">IEntrySortStep&lt; T &gt;</text>
<text text-anchor="start" x="79" y="-532" font-family="Helvetica,sans-Serif" font-size="10.00"> </text>
<text text-anchor="start" x="4.5" y="-517" font-family="Helvetica,sans-Serif" font-size="10.00">+</text>
<text text-anchor="start" x="17.5" y="-517" font-family="Helvetica,sans-Serif" font-size="10.00">string GetDisplayNameKey()</text>
<polygon fill="#666666" stroke="#666666" points="0.5,-542 0.5,-542 161.5,-542 161.5,-542 0.5,-542"/>
<polygon fill="#666666" stroke="#666666" points="0.5,-527 0.5,-527 161.5,-527 161.5,-527 0.5,-527"/>
<polygon fill="none" stroke="#666666" points="0,-510 0,-570 161,-570 161,-510 0,-510"/>
</a>
</g>
</g>
<!-- Node5&#45;&gt;Node4 -->
<g id="edge4_Node000004_Node000005" class="edge">
<title>Node5&#45;&gt;Node4</title>
<g id="a_edge4_Node000004_Node000005"><a xlink:title=" ">
<path fill="none" stroke="orange" d="M80.5,-499.8C80.5,-487.38 80.5,-474.03 80.5,-463.06"/>
<polygon fill="orange" stroke="orange" points="77,-499.95 80.5,-509.95 84,-499.95 77,-499.95"/>
</a>
</g>
<text text-anchor="middle" x="100" y="-484" font-family="Helvetica,sans-Serif" font-size="10.00" fill="grey"> &lt; int &gt;</text>
</g>
<!-- Node6 -->
<g id="Node000006" class="node">
<title>Node6</title>
<g id="a_Node000006"><a xlink:href="../../d7/de5/classIComparer.html" target="_top" xlink:title=" ">
<polygon fill="white" stroke="transparent" points="125.5,-656 35.5,-656 35.5,-607 125.5,-607 125.5,-656"/>
<text text-anchor="start" x="40.5" y="-643.5" font-family="Helvetica,sans-Serif" font-size="10.00">IComparer&lt; T &gt;</text>
<text text-anchor="start" x="78.5" y="-628.5" font-family="Helvetica,sans-Serif" font-size="10.00"> </text>
<text text-anchor="start" x="78.5" y="-613.5" font-family="Helvetica,sans-Serif" font-size="10.00"> </text>
<polygon fill="#666666" stroke="#666666" points="35.5,-638.5 35.5,-638.5 125.5,-638.5 125.5,-638.5 35.5,-638.5"/>
<polygon fill="#666666" stroke="#666666" points="35.5,-623.5 35.5,-623.5 125.5,-623.5 125.5,-623.5 35.5,-623.5"/>
<polygon fill="none" stroke="#666666" points="35.5,-607 35.5,-656 125.5,-656 125.5,-607 35.5,-607"/>
</a>
</g>
</g>
<!-- Node6&#45;&gt;Node5 -->
<g id="edge5_Node000005_Node000006" class="edge">
<title>Node6&#45;&gt;Node5</title>
<g id="a_edge5_Node000005_Node000006"><a xlink:title=" ">
<path fill="none" stroke="#63b8ff" d="M80.5,-596.7C80.5,-587.95 80.5,-578.6 80.5,-570.12"/>
<polygon fill="none" stroke="#63b8ff" points="77,-596.98 80.5,-606.98 84,-596.98 77,-596.98"/>
</a>
</g>
</g>
<!-- Node7 -->
<g id="Node000007" class="node">
<title>Node7</title>
<g id="a_Node000007"><a xlink:href="../../d7/de5/classIComparer.html" target="_top" xlink:title=" ">
<polygon fill="white" stroke="transparent" points="290,-463 193,-463 193,-414 290,-414 290,-463"/>
<text text-anchor="start" x="198.5" y="-450.5" font-family="Helvetica,sans-Serif" font-size="10.00">IComparer&lt; int &gt;</text>
<text text-anchor="start" x="240" y="-435.5" font-family="Helvetica,sans-Serif" font-size="10.00"> </text>
<text text-anchor="start" x="240" y="-420.5" font-family="Helvetica,sans-Serif" font-size="10.00"> </text>
<polygon fill="#666666" stroke="#666666" points="193.5,-445.5 193.5,-445.5 290.5,-445.5 290.5,-445.5 193.5,-445.5"/>
<polygon fill="#666666" stroke="#666666" points="193.5,-430.5 193.5,-430.5 290.5,-430.5 290.5,-430.5 193.5,-430.5"/>
<polygon fill="none" stroke="#666666" points="193,-414 193,-463 290,-463 290,-414 193,-414"/>
</a>
</g>
</g>
<!-- Node7&#45;&gt;Node2 -->
<g id="edge8_Node000002_Node000007" class="edge">
<title>Node7&#45;&gt;Node2</title>
<g id="a_edge8_Node000002_Node000007"><a xlink:title=" ">
<path fill="none" stroke="#63b8ff" d="M239,-403.59C236.74,-372.97 233.38,-327.29 230.71,-291.05"/>
<polygon fill="none" stroke="#63b8ff" points="235.52,-404.04 239.75,-413.76 242.51,-403.53 235.52,-404.04"/>
</a>
</g>
</g>
<!-- Node7&#45;&gt;Node3 -->
<g id="edge6_Node000003_Node000007" class="edge">
<title>Node7&#45;&gt;Node3</title>
<g id="a_edge6_Node000003_Node000007"><a xlink:title=" ">
<path fill="none" stroke="#63b8ff" d="M211.55,-406.44C202.2,-396.74 192.04,-386.21 183.27,-377.12"/>
<polygon fill="none" stroke="#63b8ff" points="209.04,-408.88 218.51,-413.65 214.08,-404.03 209.04,-408.88"/>
</a>
</g>
</g>
<!-- Node8 -->
<g id="Node000008" class="node">
<title>Node8</title>
<g id="a_Node000008"><a xlink:href="../../d7/de5/classIComparer.html" target="_top" xlink:title=" ">
<polygon fill="white" stroke="transparent" points="384,-377 277,-377 277,-328 384,-328 384,-377"/>
<text text-anchor="start" x="282.5" y="-364.5" font-family="Helvetica,sans-Serif" font-size="10.00">IComparer&lt; Item &gt;</text>
<text text-anchor="start" x="329" y="-349.5" font-family="Helvetica,sans-Serif" font-size="10.00"> </text>
<text text-anchor="start" x="329" y="-334.5" font-family="Helvetica,sans-Serif" font-size="10.00"> </text>
<polygon fill="#666666" stroke="#666666" points="277.5,-359.5 277.5,-359.5 384.5,-359.5 384.5,-359.5 277.5,-359.5"/>
<polygon fill="#666666" stroke="#666666" points="277.5,-344.5 277.5,-344.5 384.5,-344.5 384.5,-344.5 277.5,-344.5"/>
<polygon fill="none" stroke="#666666" points="277,-328 277,-377 384,-377 384,-328 277,-328"/>
</a>
</g>
</g>
<!-- Node8&#45;&gt;Node2 -->
<g id="edge9_Node000002_Node000008" class="edge">
<title>Node8&#45;&gt;Node2</title>
<g id="a_edge9_Node000002_Node000008"><a xlink:title=" ">
<path fill="none" stroke="#63b8ff" d="M302.78,-320.18C294.87,-311.25 286,-301.23 277.18,-291.26"/>
<polygon fill="none" stroke="#63b8ff" points="300.21,-322.55 309.45,-327.72 305.45,-317.91 300.21,-322.55"/>
</a>
</g>
</g>
</g>
</svg>
