<?xml version="1.0" encoding="UTF-8" standalone="no"?>
<!DOCTYPE svg PUBLIC "-//W3C//DTD SVG 1.1//EN"
 "http://www.w3.org/Graphics/SVG/1.1/DTD/svg11.dtd">
<!-- Generated by graphviz version 2.43.0 (0)
 -->
<!-- Title: UnityEngine.Bindings.StaticAccessorAttribute Pages: 1 -->
<svg width="497pt" height="1254pt"
 viewBox="0.00 0.00 497.00 1254.00" xmlns="http://www.w3.org/2000/svg" xmlns:xlink="http://www.w3.org/1999/xlink">
<g id="graph0" class="graph" transform="scale(1 1) rotate(0) translate(4 1250)">
<title>UnityEngine.Bindings.StaticAccessorAttribute</title>
<!-- Node1 -->
<g id="Node000001" class="node">
<title>Node1</title>
<g id="a_Node000001"><a xlink:title=" ">
<polygon fill="#999999" stroke="transparent" points="419,-112 207,-112 207,0 419,0 419,-112"/>
<text text-anchor="start" x="245" y="-100" font-family="Helvetica,sans-Serif" font-size="10.00">UnityEngine.Bindings.Static</text>
<text text-anchor="start" x="269.5" y="-89" font-family="Helvetica,sans-Serif" font-size="10.00">AccessorAttribute</text>
<text text-anchor="start" x="211" y="-74" font-family="Helvetica,sans-Serif" font-size="10.00">+</text>
<text text-anchor="start" x="224" y="-74" font-family="Helvetica,sans-Serif" font-size="10.00">string Name</text>
<text text-anchor="start" x="211" y="-59" font-family="Helvetica,sans-Serif" font-size="10.00">+</text>
<text text-anchor="start" x="224" y="-59" font-family="Helvetica,sans-Serif" font-size="10.00">StaticAccessorType Type</text>
<text text-anchor="start" x="211" y="-44" font-family="Helvetica,sans-Serif" font-size="10.00">+</text>
<text text-anchor="start" x="224" y="-44" font-family="Helvetica,sans-Serif" font-size="10.00">StaticAccessorAttribute</text>
<text text-anchor="start" x="224" y="-33" font-family="Helvetica,sans-Serif" font-size="10.00">(string name, StaticAccessorType type)</text>
<text text-anchor="start" x="211" y="-18" font-family="Helvetica,sans-Serif" font-size="10.00">~</text>
<text text-anchor="start" x="224" y="-18" font-family="Helvetica,sans-Serif" font-size="10.00">StaticAccessorAttribute</text>
<text text-anchor="start" x="224" y="-7" font-family="Helvetica,sans-Serif" font-size="10.00">(string name)</text>
<polygon fill="#666666" stroke="#666666" points="207,-84 207,-84 419,-84 419,-84 207,-84"/>
<polygon fill="#666666" stroke="#666666" points="207,-54 207,-54 222,-54 222,-54 207,-54"/>
<polygon fill="#666666" stroke="#666666" points="222,-54 222,-54 419,-54 419,-54 222,-54"/>
<polygon fill="none" stroke="#666666" points="207,0 207,-112 419,-112 419,0 207,0"/>
</a>
</g>
</g>
<!-- Node2 -->
<g id="Node000002" class="node">
<title>Node2</title>
<g id="a_Node000002"><a xlink:href="../../d1/d05/classSystem_1_1Attribute.html" target="_top" xlink:title=" ">
<polygon fill="white" stroke="transparent" points="250,-1150 0,-1150 0,-159 250,-159 250,-1150"/>
<text text-anchor="start" x="103.5" y="-1137.5" font-family="Helvetica,sans-Serif" font-size="10.00">Attribute</text>
<text text-anchor="start" x="4" y="-1122.5" font-family="Helvetica,sans-Serif" font-size="10.00">+</text>
<text text-anchor="start" x="17" y="-1122.5" font-family="Helvetica,sans-Serif" font-size="10.00">virtual object TypeId</text>
<text text-anchor="start" x="4" y="-1107.5" font-family="Helvetica,sans-Serif" font-size="10.00">+</text>
<text text-anchor="start" x="17" y="-1107.5" font-family="Helvetica,sans-Serif" font-size="10.00">override bool Equals</text>
<text text-anchor="start" x="17" y="-1096.5" font-family="Helvetica,sans-Serif" font-size="10.00">(object obj)</text>
<text text-anchor="start" x="4" y="-1081.5" font-family="Helvetica,sans-Serif" font-size="10.00">+</text>
<text text-anchor="start" x="17" y="-1081.5" font-family="Helvetica,sans-Serif" font-size="10.00">override int GetHashCode()</text>
<text text-anchor="start" x="4" y="-1066.5" font-family="Helvetica,sans-Serif" font-size="10.00">+</text>
<text text-anchor="start" x="17" y="-1066.5" font-family="Helvetica,sans-Serif" font-size="10.00">virtual bool Match</text>
<text text-anchor="start" x="17" y="-1055.5" font-family="Helvetica,sans-Serif" font-size="10.00">(object obj)</text>
<text text-anchor="start" x="4" y="-1040.5" font-family="Helvetica,sans-Serif" font-size="10.00">+</text>
<text text-anchor="start" x="17" y="-1040.5" font-family="Helvetica,sans-Serif" font-size="10.00">virtual bool IsDefaultAttribute()</text>
<text text-anchor="start" x="4" y="-1025.5" font-family="Helvetica,sans-Serif" font-size="10.00">+</text>
<text text-anchor="start" x="17" y="-1025.5" font-family="Helvetica,sans-Serif" font-size="10.00">static global::System.Attribute</text>
<text text-anchor="start" x="17" y="-1014.5" font-family="Helvetica,sans-Serif" font-size="10.00">[] GetCustomAttributes(global</text>
<text text-anchor="start" x="17" y="-1003.5" font-family="Helvetica,sans-Serif" font-size="10.00">::System.Reflection.MemberInfo</text>
<text text-anchor="start" x="17" y="-992.5" font-family="Helvetica,sans-Serif" font-size="10.00"> element, global::System.Type type)</text>
<text text-anchor="start" x="4" y="-977.5" font-family="Helvetica,sans-Serif" font-size="10.00">+</text>
<text text-anchor="start" x="17" y="-977.5" font-family="Helvetica,sans-Serif" font-size="10.00">static global::System.Attribute</text>
<text text-anchor="start" x="17" y="-966.5" font-family="Helvetica,sans-Serif" font-size="10.00">[] GetCustomAttributes(global</text>
<text text-anchor="start" x="17" y="-955.5" font-family="Helvetica,sans-Serif" font-size="10.00">::System.Reflection.MemberInfo</text>
<text text-anchor="start" x="17" y="-944.5" font-family="Helvetica,sans-Serif" font-size="10.00"> element, global::System.Type type,</text>
<text text-anchor="start" x="17" y="-933.5" font-family="Helvetica,sans-Serif" font-size="10.00"> bool inherit)</text>
<text text-anchor="start" x="4" y="-918.5" font-family="Helvetica,sans-Serif" font-size="10.00">+</text>
<text text-anchor="start" x="17" y="-918.5" font-family="Helvetica,sans-Serif" font-size="10.00">static global::System.Attribute</text>
<text text-anchor="start" x="17" y="-907.5" font-family="Helvetica,sans-Serif" font-size="10.00">[] GetCustomAttributes(global</text>
<text text-anchor="start" x="17" y="-896.5" font-family="Helvetica,sans-Serif" font-size="10.00">::System.Reflection.MemberInfo</text>
<text text-anchor="start" x="17" y="-885.5" font-family="Helvetica,sans-Serif" font-size="10.00"> element, bool inherit)</text>
<text text-anchor="start" x="4" y="-870.5" font-family="Helvetica,sans-Serif" font-size="10.00">+</text>
<text text-anchor="start" x="17" y="-870.5" font-family="Helvetica,sans-Serif" font-size="10.00">static bool IsDefined</text>
<text text-anchor="start" x="17" y="-859.5" font-family="Helvetica,sans-Serif" font-size="10.00">(global::System.Reflection.</text>
<text text-anchor="start" x="17" y="-848.5" font-family="Helvetica,sans-Serif" font-size="10.00">MemberInfo element, global</text>
<text text-anchor="start" x="17" y="-837.5" font-family="Helvetica,sans-Serif" font-size="10.00">::System.Type attributeType)</text>
<text text-anchor="start" x="4" y="-822.5" font-family="Helvetica,sans-Serif" font-size="10.00">+</text>
<text text-anchor="start" x="17" y="-822.5" font-family="Helvetica,sans-Serif" font-size="10.00">static bool IsDefined</text>
<text text-anchor="start" x="17" y="-811.5" font-family="Helvetica,sans-Serif" font-size="10.00">(global::System.Reflection.</text>
<text text-anchor="start" x="17" y="-800.5" font-family="Helvetica,sans-Serif" font-size="10.00">MemberInfo element, global</text>
<text text-anchor="start" x="17" y="-789.5" font-family="Helvetica,sans-Serif" font-size="10.00">::System.Type attributeType,</text>
<text text-anchor="start" x="17" y="-778.5" font-family="Helvetica,sans-Serif" font-size="10.00"> bool inherit)</text>
<text text-anchor="start" x="4" y="-763.5" font-family="Helvetica,sans-Serif" font-size="10.00">+</text>
<text text-anchor="start" x="17" y="-763.5" font-family="Helvetica,sans-Serif" font-size="10.00">static global::System.Attribute</text>
<text text-anchor="start" x="17" y="-752.5" font-family="Helvetica,sans-Serif" font-size="10.00"> GetCustomAttribute(global</text>
<text text-anchor="start" x="17" y="-741.5" font-family="Helvetica,sans-Serif" font-size="10.00">::System.Reflection.MemberInfo</text>
<text text-anchor="start" x="17" y="-730.5" font-family="Helvetica,sans-Serif" font-size="10.00"> element, global::System.Type</text>
<text text-anchor="start" x="17" y="-719.5" font-family="Helvetica,sans-Serif" font-size="10.00"> attributeType, bool inherit)</text>
<text text-anchor="start" x="4" y="-704.5" font-family="Helvetica,sans-Serif" font-size="10.00">+</text>
<text text-anchor="start" x="17" y="-704.5" font-family="Helvetica,sans-Serif" font-size="10.00">static global::System.Attribute</text>
<text text-anchor="start" x="17" y="-693.5" font-family="Helvetica,sans-Serif" font-size="10.00">[] GetCustomAttributes(global</text>
<text text-anchor="start" x="17" y="-682.5" font-family="Helvetica,sans-Serif" font-size="10.00">::System.Reflection.ParameterInfo</text>
<text text-anchor="start" x="17" y="-671.5" font-family="Helvetica,sans-Serif" font-size="10.00"> element, global::System.Type attributeType,</text>
<text text-anchor="start" x="17" y="-660.5" font-family="Helvetica,sans-Serif" font-size="10.00"> bool inherit)</text>
<text text-anchor="start" x="4" y="-645.5" font-family="Helvetica,sans-Serif" font-size="10.00">+</text>
<text text-anchor="start" x="17" y="-645.5" font-family="Helvetica,sans-Serif" font-size="10.00">static global::System.Attribute</text>
<text text-anchor="start" x="17" y="-634.5" font-family="Helvetica,sans-Serif" font-size="10.00">[] GetCustomAttributes(global</text>
<text text-anchor="start" x="17" y="-623.5" font-family="Helvetica,sans-Serif" font-size="10.00">::System.Reflection.ParameterInfo</text>
<text text-anchor="start" x="17" y="-612.5" font-family="Helvetica,sans-Serif" font-size="10.00"> element, bool inherit)</text>
<text text-anchor="start" x="4" y="-597.5" font-family="Helvetica,sans-Serif" font-size="10.00">+</text>
<text text-anchor="start" x="17" y="-597.5" font-family="Helvetica,sans-Serif" font-size="10.00">static global::System.Attribute</text>
<text text-anchor="start" x="17" y="-586.5" font-family="Helvetica,sans-Serif" font-size="10.00">[] GetCustomAttributes(global</text>
<text text-anchor="start" x="17" y="-575.5" font-family="Helvetica,sans-Serif" font-size="10.00">::System.Reflection.Module element,</text>
<text text-anchor="start" x="17" y="-564.5" font-family="Helvetica,sans-Serif" font-size="10.00"> bool inherit)</text>
<text text-anchor="start" x="4" y="-549.5" font-family="Helvetica,sans-Serif" font-size="10.00">+</text>
<text text-anchor="start" x="17" y="-549.5" font-family="Helvetica,sans-Serif" font-size="10.00">static global::System.Attribute</text>
<text text-anchor="start" x="17" y="-538.5" font-family="Helvetica,sans-Serif" font-size="10.00">[] GetCustomAttributes(global</text>
<text text-anchor="start" x="17" y="-527.5" font-family="Helvetica,sans-Serif" font-size="10.00">::System.Reflection.Module element,</text>
<text text-anchor="start" x="17" y="-516.5" font-family="Helvetica,sans-Serif" font-size="10.00"> global::System.Type attributeType,</text>
<text text-anchor="start" x="17" y="-505.5" font-family="Helvetica,sans-Serif" font-size="10.00"> bool inherit)</text>
<text text-anchor="start" x="17" y="-490.5" font-family="Helvetica,sans-Serif" font-size="10.00">and 6 more...</text>
<text text-anchor="start" x="4" y="-475.5" font-family="Helvetica,sans-Serif" font-size="10.00">#</text>
<text text-anchor="start" x="17" y="-475.5" font-family="Helvetica,sans-Serif" font-size="10.00">Attribute()</text>
<text text-anchor="start" x="6.5" y="-460.5" font-family="Helvetica,sans-Serif" font-size="10.00">&#45;</text>
<text text-anchor="start" x="17" y="-460.5" font-family="Helvetica,sans-Serif" font-size="10.00">static global::System.Attribute</text>
<text text-anchor="start" x="17" y="-449.5" font-family="Helvetica,sans-Serif" font-size="10.00">[] InternalGetCustomAttributes</text>
<text text-anchor="start" x="17" y="-438.5" font-family="Helvetica,sans-Serif" font-size="10.00">(global::System.Reflection.PropertyInfo</text>
<text text-anchor="start" x="17" y="-427.5" font-family="Helvetica,sans-Serif" font-size="10.00"> element, global::System.Type type,</text>
<text text-anchor="start" x="17" y="-416.5" font-family="Helvetica,sans-Serif" font-size="10.00"> bool inherit)</text>
<text text-anchor="start" x="6.5" y="-401.5" font-family="Helvetica,sans-Serif" font-size="10.00">&#45;</text>
<text text-anchor="start" x="17" y="-401.5" font-family="Helvetica,sans-Serif" font-size="10.00">static global::System.Attribute</text>
<text text-anchor="start" x="17" y="-390.5" font-family="Helvetica,sans-Serif" font-size="10.00">[] InternalGetCustomAttributes</text>
<text text-anchor="start" x="17" y="-379.5" font-family="Helvetica,sans-Serif" font-size="10.00">(global::System.Reflection.EventInfo</text>
<text text-anchor="start" x="17" y="-368.5" font-family="Helvetica,sans-Serif" font-size="10.00"> element, global::System.Type type,</text>
<text text-anchor="start" x="17" y="-357.5" font-family="Helvetica,sans-Serif" font-size="10.00"> bool inherit)</text>
<text text-anchor="start" x="6.5" y="-342.5" font-family="Helvetica,sans-Serif" font-size="10.00">&#45;</text>
<text text-anchor="start" x="17" y="-342.5" font-family="Helvetica,sans-Serif" font-size="10.00">static global::System.Attribute</text>
<text text-anchor="start" x="17" y="-331.5" font-family="Helvetica,sans-Serif" font-size="10.00">[] InternalParamGetCustomAttributes</text>
<text text-anchor="start" x="17" y="-320.5" font-family="Helvetica,sans-Serif" font-size="10.00">(global::System.Reflection.ParameterInfo</text>
<text text-anchor="start" x="17" y="-309.5" font-family="Helvetica,sans-Serif" font-size="10.00"> parameter, global::System.Type attributeType,</text>
<text text-anchor="start" x="17" y="-298.5" font-family="Helvetica,sans-Serif" font-size="10.00"> bool inherit)</text>
<text text-anchor="start" x="6.5" y="-283.5" font-family="Helvetica,sans-Serif" font-size="10.00">&#45;</text>
<text text-anchor="start" x="17" y="-283.5" font-family="Helvetica,sans-Serif" font-size="10.00">static bool InternalIsDefined</text>
<text text-anchor="start" x="17" y="-272.5" font-family="Helvetica,sans-Serif" font-size="10.00">(global::System.Reflection.Property</text>
<text text-anchor="start" x="17" y="-261.5" font-family="Helvetica,sans-Serif" font-size="10.00">Info element, global::System.Type</text>
<text text-anchor="start" x="17" y="-250.5" font-family="Helvetica,sans-Serif" font-size="10.00"> attributeType, bool inherit)</text>
<text text-anchor="start" x="6.5" y="-235.5" font-family="Helvetica,sans-Serif" font-size="10.00">&#45;</text>
<text text-anchor="start" x="17" y="-235.5" font-family="Helvetica,sans-Serif" font-size="10.00">static bool InternalIsDefined</text>
<text text-anchor="start" x="17" y="-224.5" font-family="Helvetica,sans-Serif" font-size="10.00">(global::System.Reflection.Event</text>
<text text-anchor="start" x="17" y="-213.5" font-family="Helvetica,sans-Serif" font-size="10.00">Info element, global::System.Type</text>
<text text-anchor="start" x="17" y="-202.5" font-family="Helvetica,sans-Serif" font-size="10.00"> attributeType, bool inherit)</text>
<text text-anchor="start" x="6.5" y="-187.5" font-family="Helvetica,sans-Serif" font-size="10.00">&#45;</text>
<text text-anchor="start" x="17" y="-187.5" font-family="Helvetica,sans-Serif" font-size="10.00">static bool AreFieldValues</text>
<text text-anchor="start" x="17" y="-176.5" font-family="Helvetica,sans-Serif" font-size="10.00">Equal(object thisValue,</text>
<text text-anchor="start" x="17" y="-165.5" font-family="Helvetica,sans-Serif" font-size="10.00"> object thatValue)</text>
<polygon fill="#666666" stroke="#666666" points="0,-1132.5 0,-1132.5 250,-1132.5 250,-1132.5 0,-1132.5"/>
<polygon fill="#666666" stroke="#666666" points="0,-1117.5 0,-1117.5 15,-1117.5 15,-1117.5 0,-1117.5"/>
<polygon fill="#666666" stroke="#666666" points="15,-1117.5 15,-1117.5 250,-1117.5 250,-1117.5 15,-1117.5"/>
<polygon fill="none" stroke="#666666" points="0,-159 0,-1150 250,-1150 250,-159 0,-159"/>
</a>
</g>
</g>
<!-- Node2&#45;&gt;Node1 -->
<g id="edge1_Node000001_Node000002" class="edge">
<title>Node2&#45;&gt;Node1</title>
<g id="a_edge1_Node000001_Node000002"><a xlink:title=" ">
<path fill="none" stroke="#63b8ff" d="M253.67,-172.73C255.43,-168.12 257.21,-163.54 259,-159 265.18,-143.34 273.11,-126.98 280.99,-112.06"/>
<polygon fill="none" stroke="#63b8ff" points="250.34,-171.63 250.07,-182.22 256.89,-174.11 250.34,-171.63"/>
</a>
</g>
</g>
<!-- Node3 -->
<g id="Node000003" class="node">
<title>Node3</title>
<g id="a_Node000003"><a xlink:title=" ">
<polygon fill="white" stroke="transparent" points="358,-679 268,-679 268,-630 358,-630 358,-679"/>
<text text-anchor="start" x="273" y="-666.5" font-family="Helvetica,sans-Serif" font-size="10.00">string&lt; Name &gt;</text>
<text text-anchor="start" x="311" y="-651.5" font-family="Helvetica,sans-Serif" font-size="10.00"> </text>
<text text-anchor="start" x="311" y="-636.5" font-family="Helvetica,sans-Serif" font-size="10.00"> </text>
<polygon fill="#666666" stroke="#666666" points="268,-661.5 268,-661.5 358,-661.5 358,-661.5 268,-661.5"/>
<polygon fill="#666666" stroke="#666666" points="268,-646.5 268,-646.5 358,-646.5 358,-646.5 268,-646.5"/>
<polygon fill="none" stroke="#666666" points="268,-630 268,-679 358,-679 358,-630 268,-630"/>
</a>
</g>
</g>
<!-- Node3&#45;&gt;Node1 -->
<g id="edge2_Node000001_Node000003" class="edge">
<title>Node3&#45;&gt;Node1</title>
<g id="a_edge2_Node000001_Node000003"><a xlink:title=" ">
<path fill="none" stroke="#63b8ff" d="M313,-629.75C313,-545.26 313,-257.27 313,-124.75"/>
<polygon fill="none" stroke="#63b8ff" points="313,-124.42 309,-118.42 313,-112.42 317,-118.42 313,-124.42"/>
</a>
</g>
<text text-anchor="middle" x="356" y="-133" font-family="Helvetica,sans-Serif" font-size="10.00" fill="grey"> &#45;k__BackingField</text>
</g>
<!-- Node4 -->
<g id="Node000004" class="node">
<title>Node4</title>
<g id="a_Node000004"><a xlink:title=" ">
<polygon fill="white" stroke="transparent" points="332,-1246 294,-1246 294,-1197 332,-1197 332,-1246"/>
<text text-anchor="start" x="299" y="-1233.5" font-family="Helvetica,sans-Serif" font-size="10.00">string</text>
<text text-anchor="start" x="311" y="-1218.5" font-family="Helvetica,sans-Serif" font-size="10.00"> </text>
<text text-anchor="start" x="311" y="-1203.5" font-family="Helvetica,sans-Serif" font-size="10.00"> </text>
<polygon fill="#666666" stroke="#666666" points="294,-1228.5 294,-1228.5 332,-1228.5 332,-1228.5 294,-1228.5"/>
<polygon fill="#666666" stroke="#666666" points="294,-1213.5 294,-1213.5 332,-1213.5 332,-1213.5 294,-1213.5"/>
<polygon fill="none" stroke="#666666" points="294,-1197 294,-1246 332,-1246 332,-1197 294,-1197"/>
</a>
</g>
</g>
<!-- Node4&#45;&gt;Node3 -->
<g id="edge3_Node000003_Node000004" class="edge">
<title>Node4&#45;&gt;Node3</title>
<g id="a_edge3_Node000003_Node000004"><a xlink:title=" ">
<path fill="none" stroke="orange" d="M313,-1186.69C313,-1082.51 313,-768.08 313,-679.16"/>
<polygon fill="orange" stroke="orange" points="309.5,-1186.94 313,-1196.94 316.5,-1186.94 309.5,-1186.94"/>
</a>
</g>
<text text-anchor="middle" x="340.5" y="-1171" font-family="Helvetica,sans-Serif" font-size="10.00" fill="grey"> &lt; Name &gt;</text>
</g>
<!-- Node5 -->
<g id="Node000005" class="node">
<title>Node5</title>
<g id="a_Node000005"><a xlink:title=" ">
<polygon fill="white" stroke="transparent" points="480,-684.5 376,-684.5 376,-624.5 480,-624.5 480,-684.5"/>
<text text-anchor="start" x="381" y="-672.5" font-family="Helvetica,sans-Serif" font-size="10.00">StaticAccessorType</text>
<text text-anchor="start" x="405" y="-661.5" font-family="Helvetica,sans-Serif" font-size="10.00">&lt; Type &gt;</text>
<text text-anchor="start" x="426" y="-646.5" font-family="Helvetica,sans-Serif" font-size="10.00"> </text>
<text text-anchor="start" x="426" y="-631.5" font-family="Helvetica,sans-Serif" font-size="10.00"> </text>
<polygon fill="#666666" stroke="#666666" points="376,-656.5 376,-656.5 480,-656.5 480,-656.5 376,-656.5"/>
<polygon fill="#666666" stroke="#666666" points="376,-641.5 376,-641.5 480,-641.5 480,-641.5 376,-641.5"/>
<polygon fill="none" stroke="#666666" points="376,-624.5 376,-684.5 480,-684.5 480,-624.5 376,-624.5"/>
</a>
</g>
</g>
<!-- Node5&#45;&gt;Node1 -->
<g id="edge4_Node000001_Node000005" class="edge">
<title>Node5&#45;&gt;Node1</title>
<g id="a_edge4_Node000001_Node000005"><a xlink:title=" ">
<path fill="none" stroke="#63b8ff" d="M434.4,-624.5C451.1,-541.8 488.98,-299.88 403,-130 401.61,-127.25 400.06,-124.57 398.38,-121.96"/>
<polygon fill="none" stroke="#63b8ff" points="398.37,-121.93 391.6,-119.44 391.3,-112.23 398.07,-114.73 398.37,-121.93"/>
</a>
</g>
<text text-anchor="middle" x="446" y="-133" font-family="Helvetica,sans-Serif" font-size="10.00" fill="grey"> &#45;k__BackingField</text>
</g>
</g>
</svg>
