<?xml version="1.0" encoding="UTF-8" standalone="no"?>
<!DOCTYPE svg PUBLIC "-//W3C//DTD SVG 1.1//EN"
 "http://www.w3.org/Graphics/SVG/1.1/DTD/svg11.dtd">
<!-- Generated by graphviz version 2.43.0 (0)
 -->
<!-- Title: InControl.Utility Pages: 1 -->
<svg width="467pt" height="1448pt"
 viewBox="0.00 0.00 467.00 1448.00" xmlns="http://www.w3.org/2000/svg" xmlns:xlink="http://www.w3.org/1999/xlink">
<g id="graph0" class="graph" transform="scale(1 1) rotate(0) translate(4 1444)">
<title>InControl.Utility</title>
<!-- Node1 -->
<g id="Node000001" class="node">
<title>Node1</title>
<g id="a_Node000001"><a xlink:title=" ">
<polygon fill="#999999" stroke="transparent" points="173,-572 0,-572 0,0 173,0 173,-572"/>
<text text-anchor="start" x="48" y="-560" font-family="Helvetica,sans-Serif" font-size="10.00">InControl.Utility</text>
<text text-anchor="start" x="4.5" y="-545" font-family="Helvetica,sans-Serif" font-size="10.00">+</text>
<text text-anchor="start" x="17.5" y="-545" font-family="Helvetica,sans-Serif" font-size="10.00">static bool Is32Bit</text>
<text text-anchor="start" x="4.5" y="-530" font-family="Helvetica,sans-Serif" font-size="10.00">+</text>
<text text-anchor="start" x="17.5" y="-530" font-family="Helvetica,sans-Serif" font-size="10.00">static bool Is64Bit</text>
<text text-anchor="start" x="4.5" y="-515" font-family="Helvetica,sans-Serif" font-size="10.00">+</text>
<text text-anchor="start" x="17.5" y="-515" font-family="Helvetica,sans-Serif" font-size="10.00">static void DrawCircleGizmo</text>
<text text-anchor="start" x="17.5" y="-504" font-family="Helvetica,sans-Serif" font-size="10.00">(Vector2 center, float radius)</text>
<text text-anchor="start" x="4.5" y="-489" font-family="Helvetica,sans-Serif" font-size="10.00">+</text>
<text text-anchor="start" x="17.5" y="-489" font-family="Helvetica,sans-Serif" font-size="10.00">static void DrawCircleGizmo</text>
<text text-anchor="start" x="17.5" y="-478" font-family="Helvetica,sans-Serif" font-size="10.00">(Vector2 center, float radius,</text>
<text text-anchor="start" x="17.5" y="-467" font-family="Helvetica,sans-Serif" font-size="10.00"> Color color)</text>
<text text-anchor="start" x="4.5" y="-452" font-family="Helvetica,sans-Serif" font-size="10.00">+</text>
<text text-anchor="start" x="17.5" y="-452" font-family="Helvetica,sans-Serif" font-size="10.00">static void DrawOvalGizmo</text>
<text text-anchor="start" x="17.5" y="-441" font-family="Helvetica,sans-Serif" font-size="10.00">(Vector2 center, Vector2 size)</text>
<text text-anchor="start" x="4.5" y="-426" font-family="Helvetica,sans-Serif" font-size="10.00">+</text>
<text text-anchor="start" x="17.5" y="-426" font-family="Helvetica,sans-Serif" font-size="10.00">static void DrawOvalGizmo</text>
<text text-anchor="start" x="17.5" y="-415" font-family="Helvetica,sans-Serif" font-size="10.00">(Vector2 center, Vector2</text>
<text text-anchor="start" x="17.5" y="-404" font-family="Helvetica,sans-Serif" font-size="10.00"> size, Color color)</text>
<text text-anchor="start" x="4.5" y="-389" font-family="Helvetica,sans-Serif" font-size="10.00">+</text>
<text text-anchor="start" x="17.5" y="-389" font-family="Helvetica,sans-Serif" font-size="10.00">static void DrawRectGizmo</text>
<text text-anchor="start" x="17.5" y="-378" font-family="Helvetica,sans-Serif" font-size="10.00">(Rect rect)</text>
<text text-anchor="start" x="4.5" y="-363" font-family="Helvetica,sans-Serif" font-size="10.00">+</text>
<text text-anchor="start" x="17.5" y="-363" font-family="Helvetica,sans-Serif" font-size="10.00">static void DrawRectGizmo</text>
<text text-anchor="start" x="17.5" y="-352" font-family="Helvetica,sans-Serif" font-size="10.00">(Rect rect, Color color)</text>
<text text-anchor="start" x="4.5" y="-337" font-family="Helvetica,sans-Serif" font-size="10.00">+</text>
<text text-anchor="start" x="17.5" y="-337" font-family="Helvetica,sans-Serif" font-size="10.00">static void DrawRectGizmo</text>
<text text-anchor="start" x="17.5" y="-326" font-family="Helvetica,sans-Serif" font-size="10.00">(Vector2 center, Vector2 size)</text>
<text text-anchor="start" x="4.5" y="-311" font-family="Helvetica,sans-Serif" font-size="10.00">+</text>
<text text-anchor="start" x="17.5" y="-311" font-family="Helvetica,sans-Serif" font-size="10.00">static void DrawRectGizmo</text>
<text text-anchor="start" x="17.5" y="-300" font-family="Helvetica,sans-Serif" font-size="10.00">(Vector2 center, Vector2</text>
<text text-anchor="start" x="17.5" y="-289" font-family="Helvetica,sans-Serif" font-size="10.00"> size, Color color)</text>
<text text-anchor="start" x="4.5" y="-274" font-family="Helvetica,sans-Serif" font-size="10.00">+</text>
<text text-anchor="start" x="17.5" y="-274" font-family="Helvetica,sans-Serif" font-size="10.00">static bool GameObjectIs</text>
<text text-anchor="start" x="17.5" y="-263" font-family="Helvetica,sans-Serif" font-size="10.00">CulledOnCurrentCamera</text>
<text text-anchor="start" x="17.5" y="-252" font-family="Helvetica,sans-Serif" font-size="10.00">(GameObject gameObject)</text>
<text text-anchor="start" x="4.5" y="-237" font-family="Helvetica,sans-Serif" font-size="10.00">+</text>
<text text-anchor="start" x="17.5" y="-237" font-family="Helvetica,sans-Serif" font-size="10.00">static Color MoveColorTowards</text>
<text text-anchor="start" x="17.5" y="-226" font-family="Helvetica,sans-Serif" font-size="10.00">(Color color0, Color color1,</text>
<text text-anchor="start" x="17.5" y="-215" font-family="Helvetica,sans-Serif" font-size="10.00"> float maxDelta)</text>
<text text-anchor="start" x="17.5" y="-200" font-family="Helvetica,sans-Serif" font-size="10.00">and 26 more...</text>
<text text-anchor="start" x="4.5" y="-185" font-family="Helvetica,sans-Serif" font-size="10.00">~</text>
<text text-anchor="start" x="17.5" y="-185" font-family="Helvetica,sans-Serif" font-size="10.00">static bool TargetIsButton</text>
<text text-anchor="start" x="17.5" y="-174" font-family="Helvetica,sans-Serif" font-size="10.00">(InputControlType target)</text>
<text text-anchor="start" x="4.5" y="-159" font-family="Helvetica,sans-Serif" font-size="10.00">~</text>
<text text-anchor="start" x="17.5" y="-159" font-family="Helvetica,sans-Serif" font-size="10.00">static bool TargetIsStandard</text>
<text text-anchor="start" x="17.5" y="-148" font-family="Helvetica,sans-Serif" font-size="10.00">(InputControlType target)</text>
<text text-anchor="start" x="4.5" y="-133" font-family="Helvetica,sans-Serif" font-size="10.00">~</text>
<text text-anchor="start" x="17.5" y="-133" font-family="Helvetica,sans-Serif" font-size="10.00">static bool TargetIsAlias</text>
<text text-anchor="start" x="17.5" y="-122" font-family="Helvetica,sans-Serif" font-size="10.00">(InputControlType target)</text>
<text text-anchor="start" x="4.5" y="-107" font-family="Helvetica,sans-Serif" font-size="10.00">~</text>
<text text-anchor="start" x="17.5" y="-107" font-family="Helvetica,sans-Serif" font-size="10.00">static float ValueFromSides</text>
<text text-anchor="start" x="17.5" y="-96" font-family="Helvetica,sans-Serif" font-size="10.00">(float negativeSide, float</text>
<text text-anchor="start" x="17.5" y="-85" font-family="Helvetica,sans-Serif" font-size="10.00"> positiveSide)</text>
<text text-anchor="start" x="4.5" y="-70" font-family="Helvetica,sans-Serif" font-size="10.00">~</text>
<text text-anchor="start" x="17.5" y="-70" font-family="Helvetica,sans-Serif" font-size="10.00">static float ValueFromSides</text>
<text text-anchor="start" x="17.5" y="-59" font-family="Helvetica,sans-Serif" font-size="10.00">(float negativeSide, float</text>
<text text-anchor="start" x="17.5" y="-48" font-family="Helvetica,sans-Serif" font-size="10.00"> positiveSide, bool invertSides)</text>
<text text-anchor="start" x="4.5" y="-33" font-family="Helvetica,sans-Serif" font-size="10.00">~</text>
<text text-anchor="start" x="17.5" y="-33" font-family="Helvetica,sans-Serif" font-size="10.00">static string PluginFile</text>
<text text-anchor="start" x="17.5" y="-22" font-family="Helvetica,sans-Serif" font-size="10.00">Extension()</text>
<text text-anchor="start" x="7" y="-7" font-family="Helvetica,sans-Serif" font-size="10.00">&#45;</text>
<text text-anchor="start" x="17.5" y="-7" font-family="Helvetica,sans-Serif" font-size="10.00">static Utility()</text>
<polygon fill="#666666" stroke="#666666" points="0.5,-555 0.5,-555 173.5,-555 173.5,-555 0.5,-555"/>
<polygon fill="#666666" stroke="#666666" points="0.5,-525 0.5,-525 15.5,-525 15.5,-525 0.5,-525"/>
<polygon fill="#666666" stroke="#666666" points="15.5,-525 15.5,-525 173.5,-525 173.5,-525 15.5,-525"/>
<polygon fill="none" stroke="#666666" points="0,0 0,-572 173,-572 173,0 0,0"/>
</a>
</g>
</g>
<!-- Node2 -->
<g id="Node000002" class="node">
<title>Node2</title>
<g id="a_Node000002"><a xlink:title=" ">
<polygon fill="white" stroke="transparent" points="102.5,-1333 70.5,-1333 70.5,-1284 102.5,-1284 102.5,-1333"/>
<text text-anchor="start" x="75.5" y="-1320.5" font-family="Helvetica,sans-Serif" font-size="10.00">float</text>
<text text-anchor="start" x="84.5" y="-1305.5" font-family="Helvetica,sans-Serif" font-size="10.00"> </text>
<text text-anchor="start" x="84.5" y="-1290.5" font-family="Helvetica,sans-Serif" font-size="10.00"> </text>
<polygon fill="#666666" stroke="#666666" points="70.5,-1315.5 70.5,-1315.5 102.5,-1315.5 102.5,-1315.5 70.5,-1315.5"/>
<polygon fill="#666666" stroke="#666666" points="70.5,-1300.5 70.5,-1300.5 102.5,-1300.5 102.5,-1300.5 70.5,-1300.5"/>
<polygon fill="none" stroke="#666666" points="70.5,-1284 70.5,-1333 102.5,-1333 102.5,-1284 70.5,-1284"/>
</a>
</g>
</g>
<!-- Node2&#45;&gt;Node1 -->
<g id="edge1_Node000001_Node000002" class="edge">
<title>Node2&#45;&gt;Node1</title>
<g id="a_edge1_Node000001_Node000002"><a xlink:title=" ">
<path fill="none" stroke="#63b8ff" d="M85.41,-1283.98C85.04,-1274.93 84.68,-1264.48 84.5,-1255 79.12,-972.38 83.65,-901.67 84.5,-619 84.53,-607.66 84.57,-596.11 84.62,-584.44"/>
<polygon fill="none" stroke="#63b8ff" points="84.62,-584.24 80.65,-578.22 84.67,-572.24 88.65,-578.25 84.62,-584.24"/>
</a>
</g>
<text text-anchor="middle" x="108" y="-903.5" font-family="Helvetica,sans-Serif" font-size="10.00" fill="grey"> +Epsilon</text>
</g>
<!-- Node3 -->
<g id="Node000003" class="node">
<title>Node3</title>
<g id="a_Node000003"><a xlink:href="../../d2/d53/structUnityEngine_1_1Vector2.html" target="_top" xlink:title=" ">
<polygon fill="white" stroke="transparent" points="296,-1193 141,-1193 141,-619 296,-619 296,-1193"/>
<text text-anchor="start" x="169" y="-1181" font-family="Helvetica,sans-Serif" font-size="10.00">UnityEngine.Vector2</text>
<text text-anchor="start" x="145.5" y="-1166" font-family="Helvetica,sans-Serif" font-size="10.00">+</text>
<text text-anchor="start" x="158.5" y="-1166" font-family="Helvetica,sans-Serif" font-size="10.00">float this[int index]</text>
<text text-anchor="start" x="145.5" y="-1151" font-family="Helvetica,sans-Serif" font-size="10.00">+</text>
<text text-anchor="start" x="158.5" y="-1151" font-family="Helvetica,sans-Serif" font-size="10.00">Vector2 normalized</text>
<text text-anchor="start" x="145.5" y="-1136" font-family="Helvetica,sans-Serif" font-size="10.00">+</text>
<text text-anchor="start" x="158.5" y="-1136" font-family="Helvetica,sans-Serif" font-size="10.00">float magnitude</text>
<text text-anchor="start" x="145.5" y="-1121" font-family="Helvetica,sans-Serif" font-size="10.00">+</text>
<text text-anchor="start" x="158.5" y="-1121" font-family="Helvetica,sans-Serif" font-size="10.00">float sqrMagnitude</text>
<text text-anchor="start" x="145.5" y="-1106" font-family="Helvetica,sans-Serif" font-size="10.00">+</text>
<text text-anchor="start" x="158.5" y="-1106" font-family="Helvetica,sans-Serif" font-size="10.00">static Vector2 zero</text>
<text text-anchor="start" x="145.5" y="-1091" font-family="Helvetica,sans-Serif" font-size="10.00">+</text>
<text text-anchor="start" x="158.5" y="-1091" font-family="Helvetica,sans-Serif" font-size="10.00">static Vector2 one</text>
<text text-anchor="start" x="145.5" y="-1076" font-family="Helvetica,sans-Serif" font-size="10.00">+</text>
<text text-anchor="start" x="158.5" y="-1076" font-family="Helvetica,sans-Serif" font-size="10.00">static Vector2 up</text>
<text text-anchor="start" x="145.5" y="-1061" font-family="Helvetica,sans-Serif" font-size="10.00">+</text>
<text text-anchor="start" x="158.5" y="-1061" font-family="Helvetica,sans-Serif" font-size="10.00">static Vector2 right</text>
<text text-anchor="start" x="145.5" y="-1046" font-family="Helvetica,sans-Serif" font-size="10.00">+</text>
<text text-anchor="start" x="158.5" y="-1046" font-family="Helvetica,sans-Serif" font-size="10.00">Vector2(float x, float y)</text>
<text text-anchor="start" x="145.5" y="-1031" font-family="Helvetica,sans-Serif" font-size="10.00">+</text>
<text text-anchor="start" x="158.5" y="-1031" font-family="Helvetica,sans-Serif" font-size="10.00">void Normalize()</text>
<text text-anchor="start" x="145.5" y="-1016" font-family="Helvetica,sans-Serif" font-size="10.00">+</text>
<text text-anchor="start" x="158.5" y="-1016" font-family="Helvetica,sans-Serif" font-size="10.00">override string ToString()</text>
<text text-anchor="start" x="145.5" y="-1001" font-family="Helvetica,sans-Serif" font-size="10.00">+</text>
<text text-anchor="start" x="158.5" y="-1001" font-family="Helvetica,sans-Serif" font-size="10.00">string ToString(string</text>
<text text-anchor="start" x="158.5" y="-990" font-family="Helvetica,sans-Serif" font-size="10.00"> format, IFormatProvider</text>
<text text-anchor="start" x="158.5" y="-979" font-family="Helvetica,sans-Serif" font-size="10.00"> formatProvider)</text>
<text text-anchor="start" x="145.5" y="-964" font-family="Helvetica,sans-Serif" font-size="10.00">+</text>
<text text-anchor="start" x="158.5" y="-964" font-family="Helvetica,sans-Serif" font-size="10.00">override int GetHashCode()</text>
<text text-anchor="start" x="145.5" y="-949" font-family="Helvetica,sans-Serif" font-size="10.00">+</text>
<text text-anchor="start" x="158.5" y="-949" font-family="Helvetica,sans-Serif" font-size="10.00">override bool Equals</text>
<text text-anchor="start" x="158.5" y="-938" font-family="Helvetica,sans-Serif" font-size="10.00">(object other)</text>
<text text-anchor="start" x="145.5" y="-923" font-family="Helvetica,sans-Serif" font-size="10.00">+</text>
<text text-anchor="start" x="158.5" y="-923" font-family="Helvetica,sans-Serif" font-size="10.00">bool Equals(Vector2</text>
<text text-anchor="start" x="158.5" y="-912" font-family="Helvetica,sans-Serif" font-size="10.00"> other)</text>
<text text-anchor="start" x="145.5" y="-897" font-family="Helvetica,sans-Serif" font-size="10.00">+</text>
<text text-anchor="start" x="158.5" y="-897" font-family="Helvetica,sans-Serif" font-size="10.00">static Vector2 Lerp</text>
<text text-anchor="start" x="158.5" y="-886" font-family="Helvetica,sans-Serif" font-size="10.00">(Vector2 a, Vector2</text>
<text text-anchor="start" x="158.5" y="-875" font-family="Helvetica,sans-Serif" font-size="10.00"> b, float t)</text>
<text text-anchor="start" x="145.5" y="-860" font-family="Helvetica,sans-Serif" font-size="10.00">+</text>
<text text-anchor="start" x="158.5" y="-860" font-family="Helvetica,sans-Serif" font-size="10.00">static Vector2 Scale</text>
<text text-anchor="start" x="158.5" y="-849" font-family="Helvetica,sans-Serif" font-size="10.00">(Vector2 a, Vector2 b)</text>
<text text-anchor="start" x="145.5" y="-834" font-family="Helvetica,sans-Serif" font-size="10.00">+</text>
<text text-anchor="start" x="158.5" y="-834" font-family="Helvetica,sans-Serif" font-size="10.00">static float Dot(Vector2</text>
<text text-anchor="start" x="158.5" y="-823" font-family="Helvetica,sans-Serif" font-size="10.00"> lhs, Vector2 rhs)</text>
<text text-anchor="start" x="145.5" y="-808" font-family="Helvetica,sans-Serif" font-size="10.00">+</text>
<text text-anchor="start" x="158.5" y="-808" font-family="Helvetica,sans-Serif" font-size="10.00">static float Angle</text>
<text text-anchor="start" x="158.5" y="-797" font-family="Helvetica,sans-Serif" font-size="10.00">(Vector2 from, Vector2 to)</text>
<text text-anchor="start" x="145.5" y="-782" font-family="Helvetica,sans-Serif" font-size="10.00">+</text>
<text text-anchor="start" x="158.5" y="-782" font-family="Helvetica,sans-Serif" font-size="10.00">static Vector2 operator</text>
<text text-anchor="start" x="158.5" y="-771" font-family="Helvetica,sans-Serif" font-size="10.00">+(Vector2 a, Vector2 b)</text>
<text text-anchor="start" x="145.5" y="-756" font-family="Helvetica,sans-Serif" font-size="10.00">+</text>
<text text-anchor="start" x="158.5" y="-756" font-family="Helvetica,sans-Serif" font-size="10.00">static Vector2 operator</text>
<text text-anchor="start" x="158.5" y="-745" font-family="Helvetica,sans-Serif" font-size="10.00">&#45;(Vector2 a, Vector2 b)</text>
<text text-anchor="start" x="145.5" y="-730" font-family="Helvetica,sans-Serif" font-size="10.00">+</text>
<text text-anchor="start" x="158.5" y="-730" font-family="Helvetica,sans-Serif" font-size="10.00">static Vector2 operator*</text>
<text text-anchor="start" x="158.5" y="-719" font-family="Helvetica,sans-Serif" font-size="10.00">(Vector2 a, Vector2 b)</text>
<text text-anchor="start" x="145.5" y="-704" font-family="Helvetica,sans-Serif" font-size="10.00">+</text>
<text text-anchor="start" x="158.5" y="-704" font-family="Helvetica,sans-Serif" font-size="10.00">static Vector2 operator</text>
<text text-anchor="start" x="158.5" y="-693" font-family="Helvetica,sans-Serif" font-size="10.00">/(Vector2 a, Vector2 b)</text>
<text text-anchor="start" x="145.5" y="-678" font-family="Helvetica,sans-Serif" font-size="10.00">+</text>
<text text-anchor="start" x="158.5" y="-678" font-family="Helvetica,sans-Serif" font-size="10.00">static Vector2 operator</text>
<text text-anchor="start" x="158.5" y="-667" font-family="Helvetica,sans-Serif" font-size="10.00">&#45;(Vector2 a)</text>
<text text-anchor="start" x="145.5" y="-652" font-family="Helvetica,sans-Serif" font-size="10.00">+</text>
<text text-anchor="start" x="158.5" y="-652" font-family="Helvetica,sans-Serif" font-size="10.00">static Vector2 operator*</text>
<text text-anchor="start" x="158.5" y="-641" font-family="Helvetica,sans-Serif" font-size="10.00">(Vector2 a, float d)</text>
<text text-anchor="start" x="158.5" y="-626" font-family="Helvetica,sans-Serif" font-size="10.00">and 6 more...</text>
<polygon fill="#666666" stroke="#666666" points="141.5,-1176 141.5,-1176 296.5,-1176 296.5,-1176 141.5,-1176"/>
<polygon fill="#666666" stroke="#666666" points="141.5,-1056 141.5,-1056 156.5,-1056 156.5,-1056 141.5,-1056"/>
<polygon fill="#666666" stroke="#666666" points="156.5,-1056 156.5,-1056 296.5,-1056 296.5,-1056 156.5,-1056"/>
<polygon fill="none" stroke="#666666" points="141,-619 141,-1193 296,-1193 296,-619 141,-619"/>
</a>
</g>
</g>
<!-- Node2&#45;&gt;Node3 -->
<g id="edge6_Node000003_Node000002" class="edge">
<title>Node2&#45;&gt;Node3</title>
<g id="a_edge6_Node000003_Node000002"><a xlink:title=" ">
<path fill="none" stroke="#63b8ff" d="M85.41,-1283.82C85.48,-1263.34 88.09,-1233.54 100.5,-1211 106.43,-1200.23 114.61,-1203.18 121.5,-1193 126.19,-1186.06 130.67,-1178.88 134.96,-1171.5"/>
<polygon fill="none" stroke="#63b8ff" points="135,-1171.42 134.46,-1164.23 140.88,-1160.96 141.43,-1168.15 135,-1171.42"/>
</a>
</g>
<text text-anchor="middle" x="153.5" y="-1247" font-family="Helvetica,sans-Serif" font-size="10.00" fill="grey"> +kEpsilon</text>
<text text-anchor="middle" x="153.5" y="-1236" font-family="Helvetica,sans-Serif" font-size="10.00" fill="grey">+kEpsilonNormalSqrt</text>
<text text-anchor="middle" x="153.5" y="-1225" font-family="Helvetica,sans-Serif" font-size="10.00" fill="grey">+x</text>
<text text-anchor="middle" x="153.5" y="-1214" font-family="Helvetica,sans-Serif" font-size="10.00" fill="grey">+y</text>
</g>
<!-- Node3&#45;&gt;Node1 -->
<g id="edge2_Node000001_Node000003" class="edge">
<title>Node3&#45;&gt;Node1</title>
<g id="a_edge2_Node000001_Node000003"><a xlink:title=" ">
<path fill="none" stroke="#63b8ff" d="M157.33,-618.61C154.88,-607.13 152.42,-595.61 149.96,-584.1"/>
<polygon fill="none" stroke="#63b8ff" points="149.91,-583.86 144.74,-578.83 147.4,-572.13 152.57,-577.16 149.91,-583.86"/>
</a>
</g>
<text text-anchor="middle" x="193.5" y="-593" font-family="Helvetica,sans-Serif" font-size="10.00" fill="grey"> &#45;circleVertexList</text>
</g>
<!-- Node3&#45;&gt;Node3 -->
<g id="edge7_Node000003_Node000003" class="edge">
<title>Node3&#45;&gt;Node3</title>
<g id="a_edge7_Node000003_Node000003"><a xlink:title=" ">
<path fill="none" stroke="#63b8ff" d="M296.07,-957.87C306.81,-949.32 314,-932.04 314,-906 314,-887.29 310.29,-873.09 304.21,-863.42"/>
<polygon fill="none" stroke="#63b8ff" points="303.98,-863.15 297.02,-861.28 296.07,-854.13 303.03,-856.01 303.98,-863.15"/>
</a>
</g>
<text text-anchor="middle" x="370" y="-942" font-family="Helvetica,sans-Serif" font-size="10.00" fill="grey"> &#45;downVector</text>
<text text-anchor="middle" x="370" y="-931" font-family="Helvetica,sans-Serif" font-size="10.00" fill="grey">&#45;leftVector</text>
<text text-anchor="middle" x="370" y="-920" font-family="Helvetica,sans-Serif" font-size="10.00" fill="grey">&#45;negativeInfinityVector</text>
<text text-anchor="middle" x="370" y="-909" font-family="Helvetica,sans-Serif" font-size="10.00" fill="grey">&#45;oneVector</text>
<text text-anchor="middle" x="370" y="-898" font-family="Helvetica,sans-Serif" font-size="10.00" fill="grey">&#45;positiveInfinityVector</text>
<text text-anchor="middle" x="370" y="-887" font-family="Helvetica,sans-Serif" font-size="10.00" fill="grey">&#45;rightVector</text>
<text text-anchor="middle" x="370" y="-876" font-family="Helvetica,sans-Serif" font-size="10.00" fill="grey">&#45;upVector</text>
<text text-anchor="middle" x="370" y="-865" font-family="Helvetica,sans-Serif" font-size="10.00" fill="grey">&#45;zeroVector</text>
</g>
<!-- Node4 -->
<g id="Node000004" class="node">
<title>Node4</title>
<g id="a_Node000004"><a xlink:href="../../d6/d43/interfaceSystem_1_1IEquatable.html" target="_top" xlink:title=" ">
<polygon fill="white" stroke="transparent" points="263.5,-1333 141.5,-1333 141.5,-1284 263.5,-1284 263.5,-1333"/>
<text text-anchor="start" x="146.5" y="-1320.5" font-family="Helvetica,sans-Serif" font-size="10.00">IEquatable&lt; Vector2 &gt;</text>
<text text-anchor="start" x="200.5" y="-1305.5" font-family="Helvetica,sans-Serif" font-size="10.00"> </text>
<text text-anchor="start" x="146" y="-1290.5" font-family="Helvetica,sans-Serif" font-size="10.00">+</text>
<text text-anchor="start" x="159.5" y="-1290.5" font-family="Helvetica,sans-Serif" font-size="10.00">bool Equals(T other)</text>
<polygon fill="#666666" stroke="#666666" points="141.5,-1315.5 141.5,-1315.5 263.5,-1315.5 263.5,-1315.5 141.5,-1315.5"/>
<polygon fill="#666666" stroke="#666666" points="141.5,-1300.5 141.5,-1300.5 263.5,-1300.5 263.5,-1300.5 141.5,-1300.5"/>
<polygon fill="none" stroke="#666666" points="141.5,-1284 141.5,-1333 263.5,-1333 263.5,-1284 141.5,-1284"/>
</a>
</g>
</g>
<!-- Node4&#45;&gt;Node3 -->
<g id="edge3_Node000003_Node000004" class="edge">
<title>Node4&#45;&gt;Node3</title>
<g id="a_edge3_Node000003_Node000004"><a xlink:title=" ">
<path fill="none" stroke="#63b8ff" d="M208.3,-1273.68C209.18,-1267.48 209.97,-1261.06 210.5,-1255 212.25,-1234.98 213.68,-1214.29 214.84,-1193.45"/>
<polygon fill="none" stroke="#63b8ff" points="204.81,-1273.38 206.77,-1283.79 211.73,-1274.43 204.81,-1273.38"/>
</a>
</g>
</g>
<!-- Node5 -->
<g id="Node000005" class="node">
<title>Node5</title>
<g id="a_Node000005"><a xlink:href="../../d6/d43/interfaceSystem_1_1IEquatable.html" target="_top" xlink:title=" ">
<polygon fill="white" stroke="transparent" points="268,-1440 137,-1440 137,-1391 268,-1391 268,-1440"/>
<text text-anchor="start" x="142.5" y="-1427.5" font-family="Helvetica,sans-Serif" font-size="10.00">System.IEquatable&lt; T &gt;</text>
<text text-anchor="start" x="201" y="-1412.5" font-family="Helvetica,sans-Serif" font-size="10.00"> </text>
<text text-anchor="start" x="144" y="-1397.5" font-family="Helvetica,sans-Serif" font-size="10.00">+</text>
<text text-anchor="start" x="159.5" y="-1397.5" font-family="Helvetica,sans-Serif" font-size="10.00">bool Equals(T other)</text>
<polygon fill="#666666" stroke="#666666" points="137.5,-1422.5 137.5,-1422.5 268.5,-1422.5 268.5,-1422.5 137.5,-1422.5"/>
<polygon fill="#666666" stroke="#666666" points="137.5,-1407.5 137.5,-1407.5 268.5,-1407.5 268.5,-1407.5 137.5,-1407.5"/>
<polygon fill="none" stroke="#666666" points="137,-1391 137,-1440 268,-1440 268,-1391 137,-1391"/>
</a>
</g>
</g>
<!-- Node5&#45;&gt;Node4 -->
<g id="edge4_Node000004_Node000005" class="edge">
<title>Node5&#45;&gt;Node4</title>
<g id="a_edge4_Node000004_Node000005"><a xlink:title=" ">
<path fill="none" stroke="orange" d="M202.5,-1380.72C202.5,-1365.28 202.5,-1347.35 202.5,-1333.35"/>
<polygon fill="orange" stroke="orange" points="199,-1380.94 202.5,-1390.94 206,-1380.94 199,-1380.94"/>
</a>
</g>
<text text-anchor="middle" x="234" y="-1365" font-family="Helvetica,sans-Serif" font-size="10.00" fill="grey"> &lt; Vector2 &gt;</text>
</g>
<!-- Node6 -->
<g id="Node000006" class="node">
<title>Node6</title>
<g id="a_Node000006"><a xlink:href="../../d7/dfc/interfaceSystem_1_1IFormattable.html" target="_top" xlink:title=" ">
<polygon fill="white" stroke="transparent" points="459,-1344 282,-1344 282,-1273 459,-1273 459,-1344"/>
<text text-anchor="start" x="339.5" y="-1331.5" font-family="Helvetica,sans-Serif" font-size="10.00">IFormattable</text>
<text text-anchor="start" x="369" y="-1316.5" font-family="Helvetica,sans-Serif" font-size="10.00"> </text>
<text text-anchor="start" x="286.5" y="-1301.5" font-family="Helvetica,sans-Serif" font-size="10.00">+</text>
<text text-anchor="start" x="299.5" y="-1301.5" font-family="Helvetica,sans-Serif" font-size="10.00">string ToString(string</text>
<text text-anchor="start" x="299.5" y="-1290.5" font-family="Helvetica,sans-Serif" font-size="10.00"> format, global::System.IFormat</text>
<text text-anchor="start" x="299.5" y="-1279.5" font-family="Helvetica,sans-Serif" font-size="10.00">Provider formatProvider)</text>
<polygon fill="#666666" stroke="#666666" points="282.5,-1326.5 282.5,-1326.5 459.5,-1326.5 459.5,-1326.5 282.5,-1326.5"/>
<polygon fill="#666666" stroke="#666666" points="282.5,-1311.5 282.5,-1311.5 459.5,-1311.5 459.5,-1311.5 282.5,-1311.5"/>
<polygon fill="none" stroke="#666666" points="282,-1273 282,-1344 459,-1344 459,-1273 282,-1273"/>
</a>
</g>
</g>
<!-- Node6&#45;&gt;Node3 -->
<g id="edge5_Node000003_Node000006" class="edge">
<title>Node6&#45;&gt;Node3</title>
<g id="a_edge5_Node000003_Node000006"><a xlink:title=" ">
<path fill="none" stroke="#63b8ff" d="M353.63,-1263.04C339.34,-1225.39 317.76,-1168.55 296.02,-1111.26"/>
<polygon fill="none" stroke="#63b8ff" points="350.46,-1264.55 357.28,-1272.66 357,-1262.07 350.46,-1264.55"/>
</a>
</g>
</g>
</g>
</svg>
