<?xml version="1.0" encoding="UTF-8" standalone="no"?>
<!DOCTYPE svg PUBLIC "-//W3C//DTD SVG 1.1//EN"
 "http://www.w3.org/Graphics/SVG/1.1/DTD/svg11.dtd">
<!-- Generated by graphviz version 2.43.0 (0)
 -->
<!-- Title: ReLogic.Content.Asset&lt; T &gt; Pages: 1 -->
<!--zoomable 512 -->

<svg id="main" version="1.1" xmlns="http://www.w3.org/2000/svg" xmlns:xlink="http://www.w3.org/1999/xlink" xml:space="preserve" onload="init(evt)">
<style type="text/css"><![CDATA[
.node, .edge {opacity: 0.7;}
.node.selected, .edge.selected {opacity: 1;}
.edge:hover path { stroke: red; }
.edge:hover polygon { stroke: red; fill: red; }
]]></style>

<defs>
  <circle id="rim" cx="0" cy="0" r="7"/>
  <circle id="rim2" cx="0" cy="0" r="3.5"/>
  <g id="zoomPlus">
    <use xlink:href="#rim" fill="#404040"><set attributeName="fill" to="#808080" begin="zoomplus.mouseover" end="zoomplus.mouseout"/></use>
    <path d="M-4,0h8M0,-4v8" fill="none" stroke="white" stroke-width="1.5" pointer-events="none"/>
  </g>
  <g id="zoomMin">
    <use xlink:href="#rim" fill="#404040"><set attributeName="fill" to="#808080" begin="zoomminus.mouseover" end="zoomminus.mouseout"/></use>
    <path d="M-4,0h8" fill="none" stroke="white" stroke-width="1.5" pointer-events="none"/>
  </g>
  <g id="arrowUp" transform="translate(30 24)">
    <use xlink:href="#rim"/>
    <path pointer-events="none" fill="none" stroke="white" stroke-width="1.5" d="M0,-3.0v7 M-2.5,-0.5L0,-3.0L2.5,-0.5"/>
  </g>
  <g id="arrowRight" transform="rotate(90) translate(36 -43)">
    <use xlink:href="#rim"/>
    <path pointer-events="none" fill="none" stroke="white" stroke-width="1.5" d="M0,-3.0v7 M-2.5,-0.5L0,-3.0L2.5,-0.5"/>
  </g>
  <g id="arrowDown" transform="rotate(180) translate(-30 -48)">
    <use xlink:href="#rim"/>
    <path pointer-events="none" fill="none" stroke="white" stroke-width="1.5" d="M0,-3.0v7 M-2.5,-0.5L0,-3.0L2.5,-0.5"/>
  </g>
  <g id="arrowLeft" transform="rotate(270) translate(-36 17)">
    <use xlink:href="#rim"/>
    <path pointer-events="none" fill="none" stroke="white" stroke-width="1.5" d="M0,-3.0v7 M-2.5,-0.5L0,-3.0L2.5,-0.5"/>
  </g>
  <g id="resetDef">
    <use xlink:href="#rim2" fill="#404040"><set attributeName="fill" to="#808080" begin="reset.mouseover" end="reset.mouseout"/></use>
  </g>
</defs>
<script type="application/ecmascript">
var viewWidth = 352;
var viewHeight = 512;
var sectionId = 'dynsection-1';
</script>
<script type="application/ecmascript" xlink:href="../../svg.min.js"/>
<svg id="graph" class="graph">
<g id="viewport">
<title>ReLogic.Content.Asset&lt; T &gt;</title>
<!-- Node1 -->
<g id="Node000001" class="node">
<title>Node1</title>
<g id="a_Node000001"><a xlink:title=" ">
<polygon fill="#999999" stroke="transparent" points="198.5,-262 35.5,-262 35.5,0 198.5,0 198.5,-262"/>
<text text-anchor="start" x="48" y="-250" font-family="Helvetica,sans-Serif" font-size="10.00">ReLogic.Content.Asset&lt; T &gt;</text>
<text text-anchor="start" x="40" y="-235" font-family="Helvetica,sans-Serif" font-size="10.00">+</text>
<text text-anchor="start" x="53" y="-235" font-family="Helvetica,sans-Serif" font-size="10.00">string Name</text>
<text text-anchor="start" x="40" y="-220" font-family="Helvetica,sans-Serif" font-size="10.00">+</text>
<text text-anchor="start" x="53" y="-220" font-family="Helvetica,sans-Serif" font-size="10.00">bool IsLoaded</text>
<text text-anchor="start" x="40" y="-205" font-family="Helvetica,sans-Serif" font-size="10.00">+</text>
<text text-anchor="start" x="53" y="-205" font-family="Helvetica,sans-Serif" font-size="10.00">AssetState State</text>
<text text-anchor="start" x="40" y="-190" font-family="Helvetica,sans-Serif" font-size="10.00">+</text>
<text text-anchor="start" x="53" y="-190" font-family="Helvetica,sans-Serif" font-size="10.00">bool IsDisposed</text>
<text text-anchor="start" x="40" y="-175" font-family="Helvetica,sans-Serif" font-size="10.00">+</text>
<text text-anchor="start" x="53" y="-175" font-family="Helvetica,sans-Serif" font-size="10.00">IContentSource Source</text>
<text text-anchor="start" x="40" y="-160" font-family="Helvetica,sans-Serif" font-size="10.00">+</text>
<text text-anchor="start" x="53" y="-160" font-family="Helvetica,sans-Serif" font-size="10.00">T Value</text>
<text text-anchor="start" x="40" y="-145" font-family="Helvetica,sans-Serif" font-size="10.00">+</text>
<text text-anchor="start" x="53" y="-145" font-family="Helvetica,sans-Serif" font-size="10.00">void ActionUnityLoad()</text>
<text text-anchor="start" x="40" y="-130" font-family="Helvetica,sans-Serif" font-size="10.00">+</text>
<text text-anchor="start" x="53" y="-130" font-family="Helvetica,sans-Serif" font-size="10.00">void Dispose()</text>
<text text-anchor="start" x="40" y="-115" font-family="Helvetica,sans-Serif" font-size="10.00">+</text>
<text text-anchor="start" x="53" y="-115" font-family="Helvetica,sans-Serif" font-size="10.00">static operator T(Asset</text>
<text text-anchor="start" x="53" y="-104" font-family="Helvetica,sans-Serif" font-size="10.00">&lt; T &gt; asset)</text>
<text text-anchor="start" x="40" y="-89" font-family="Helvetica,sans-Serif" font-size="10.00">~</text>
<text text-anchor="start" x="53" y="-89" font-family="Helvetica,sans-Serif" font-size="10.00">Asset(string name)</text>
<text text-anchor="start" x="40" y="-74" font-family="Helvetica,sans-Serif" font-size="10.00">~</text>
<text text-anchor="start" x="53" y="-74" font-family="Helvetica,sans-Serif" font-size="10.00">void Unload()</text>
<text text-anchor="start" x="40" y="-59" font-family="Helvetica,sans-Serif" font-size="10.00">~</text>
<text text-anchor="start" x="53" y="-59" font-family="Helvetica,sans-Serif" font-size="10.00">void SubmitLoadedContent</text>
<text text-anchor="start" x="53" y="-48" font-family="Helvetica,sans-Serif" font-size="10.00">(T value, IContentSource</text>
<text text-anchor="start" x="53" y="-37" font-family="Helvetica,sans-Serif" font-size="10.00"> source)</text>
<text text-anchor="start" x="40" y="-22" font-family="Helvetica,sans-Serif" font-size="10.00">~</text>
<text text-anchor="start" x="53" y="-22" font-family="Helvetica,sans-Serif" font-size="10.00">void SetToLoadingState()</text>
<text text-anchor="start" x="42.5" y="-7" font-family="Helvetica,sans-Serif" font-size="10.00">&#45;</text>
<text text-anchor="start" x="53" y="-7" font-family="Helvetica,sans-Serif" font-size="10.00">void Dispose(bool disposing)</text>
<polygon fill="#666666" stroke="#666666" points="36,-245 36,-245 199,-245 199,-245 36,-245"/>
<polygon fill="#666666" stroke="#666666" points="36,-155 36,-155 51,-155 51,-155 36,-155"/>
<polygon fill="#666666" stroke="#666666" points="51,-155 51,-155 199,-155 199,-155 51,-155"/>
<polygon fill="none" stroke="#666666" points="35.5,0 35.5,-262 198.5,-262 198.5,0 35.5,0"/>
</a>
</g>
</g>
<!-- Node2 -->
<g id="Node000002" class="node">
<title>Node2</title>
<g id="a_Node000002"><a xlink:href="../../d1/d01/interfaceReLogic_1_1Content_1_1IAsset.html" target="_top" xlink:title=" ">
<polygon fill="white" stroke="transparent" points="183.5,-418 50.5,-418 50.5,-309 183.5,-309 183.5,-418"/>
<text text-anchor="start" x="102" y="-405.5" font-family="Helvetica,sans-Serif" font-size="10.00">IAsset</text>
<text text-anchor="start" x="55" y="-390.5" font-family="Helvetica,sans-Serif" font-size="10.00">+</text>
<text text-anchor="start" x="68" y="-390.5" font-family="Helvetica,sans-Serif" font-size="10.00">AssetState State</text>
<text text-anchor="start" x="55" y="-375.5" font-family="Helvetica,sans-Serif" font-size="10.00">+</text>
<text text-anchor="start" x="68" y="-375.5" font-family="Helvetica,sans-Serif" font-size="10.00">IContentSource Source</text>
<text text-anchor="start" x="55" y="-360.5" font-family="Helvetica,sans-Serif" font-size="10.00">+</text>
<text text-anchor="start" x="68" y="-360.5" font-family="Helvetica,sans-Serif" font-size="10.00">string Name</text>
<text text-anchor="start" x="55" y="-345.5" font-family="Helvetica,sans-Serif" font-size="10.00">+</text>
<text text-anchor="start" x="68" y="-345.5" font-family="Helvetica,sans-Serif" font-size="10.00">bool IsLoaded</text>
<text text-anchor="start" x="55" y="-330.5" font-family="Helvetica,sans-Serif" font-size="10.00">+</text>
<text text-anchor="start" x="68" y="-330.5" font-family="Helvetica,sans-Serif" font-size="10.00">bool IsDisposed</text>
<text text-anchor="start" x="55" y="-315.5" font-family="Helvetica,sans-Serif" font-size="10.00">+</text>
<text text-anchor="start" x="68" y="-315.5" font-family="Helvetica,sans-Serif" font-size="10.00">void ActionUnityLoad()</text>
<polygon fill="#666666" stroke="#666666" points="51,-400.5 51,-400.5 184,-400.5 184,-400.5 51,-400.5"/>
<polygon fill="#666666" stroke="#666666" points="51,-325.5 51,-325.5 66,-325.5 66,-325.5 51,-325.5"/>
<polygon fill="#666666" stroke="#666666" points="66,-325.5 66,-325.5 184,-325.5 184,-325.5 66,-325.5"/>
<polygon fill="none" stroke="#666666" points="50.5,-309 50.5,-418 183.5,-418 183.5,-309 50.5,-309"/>
</a>
</g>
</g>
<!-- Node2&#45;&gt;Node1 -->
<g id="edge1_Node000001_Node000002" class="edge">
<title>Node2&#45;&gt;Node1</title>
<g id="a_edge1_Node000001_Node000002"><a xlink:title=" ">
<path fill="none" stroke="#63b8ff" d="M117,-298.47C117,-286.99 117,-274.66 117,-262.1"/>
<polygon fill="none" stroke="#63b8ff" points="113.5,-298.75 117,-308.75 120.5,-298.75 113.5,-298.75"/>
</a>
</g>
</g>
<!-- Node3 -->
<g id="Node000003" class="node">
<title>Node3</title>
<g id="a_Node000003"><a xlink:href="../../d0/d07/classIDisposable.html" target="_top" xlink:title=" ">
<polygon fill="white" stroke="transparent" points="68,-504 0,-504 0,-455 68,-455 68,-504"/>
<text text-anchor="start" x="5" y="-491.5" font-family="Helvetica,sans-Serif" font-size="10.00">IDisposable</text>
<text text-anchor="start" x="32" y="-476.5" font-family="Helvetica,sans-Serif" font-size="10.00"> </text>
<text text-anchor="start" x="32" y="-461.5" font-family="Helvetica,sans-Serif" font-size="10.00"> </text>
<polygon fill="#666666" stroke="#666666" points="0,-486.5 0,-486.5 68,-486.5 68,-486.5 0,-486.5"/>
<polygon fill="#666666" stroke="#666666" points="0,-471.5 0,-471.5 68,-471.5 68,-471.5 0,-471.5"/>
<polygon fill="none" stroke="#666666" points="0,-455 0,-504 68,-504 68,-455 0,-455"/>
</a>
</g>
</g>
<!-- Node3&#45;&gt;Node1 -->
<g id="edge3_Node000001_Node000003" class="edge">
<title>Node3&#45;&gt;Node1</title>
<g id="a_edge3_Node000001_Node000003"><a xlink:title=" ">
<path fill="none" stroke="#63b8ff" d="M31.83,-444.81C30.43,-410.26 30.5,-355.2 41,-309 44.52,-293.51 49.35,-277.67 54.88,-262.15"/>
<polygon fill="none" stroke="#63b8ff" points="28.34,-445.02 32.3,-454.84 35.33,-444.69 28.34,-445.02"/>
</a>
</g>
</g>
<!-- Node3&#45;&gt;Node2 -->
<g id="edge2_Node000002_Node000003" class="edge">
<title>Node3&#45;&gt;Node2</title>
<g id="a_edge2_Node000002_Node000003"><a xlink:title=" ">
<path fill="none" stroke="#63b8ff" d="M57.14,-446.72C63.6,-437.84 70.81,-427.95 77.92,-418.18"/>
<polygon fill="none" stroke="#63b8ff" points="54.25,-444.73 51.2,-454.88 59.91,-448.85 54.25,-444.73"/>
</a>
</g>
</g>
<!-- Node4 -->
<g id="Node000004" class="node">
<title>Node4</title>
<g id="a_Node000004"><a xlink:title=" ">
<polygon fill="white" stroke="transparent" points="344,-388 202,-388 202,-339 344,-339 344,-388"/>
<text text-anchor="start" x="207" y="-375.5" font-family="Helvetica,sans-Serif" font-size="10.00">static readonly Asset&lt; T &gt;</text>
<text text-anchor="start" x="271" y="-360.5" font-family="Helvetica,sans-Serif" font-size="10.00"> </text>
<text text-anchor="start" x="271" y="-345.5" font-family="Helvetica,sans-Serif" font-size="10.00"> </text>
<polygon fill="#666666" stroke="#666666" points="202,-370.5 202,-370.5 344,-370.5 344,-370.5 202,-370.5"/>
<polygon fill="#666666" stroke="#666666" points="202,-355.5 202,-355.5 344,-355.5 344,-355.5 202,-355.5"/>
<polygon fill="none" stroke="#666666" points="202,-339 202,-388 344,-388 344,-339 202,-339"/>
</a>
</g>
</g>
<!-- Node4&#45;&gt;Node1 -->
<g id="edge4_Node000001_Node000004" class="edge">
<title>Node4&#45;&gt;Node1</title>
<g id="a_edge4_Node000001_Node000004"><a xlink:title=" ">
<path fill="none" stroke="#63b8ff" d="M256.89,-338.7C244.13,-319.84 225.19,-291.86 205.35,-262.54"/>
<polygon fill="none" stroke="#63b8ff" points="205.32,-262.49 198.64,-259.77 198.59,-252.55 205.27,-255.28 205.32,-262.49"/>
</a>
</g>
<text text-anchor="middle" x="243.5" y="-283" font-family="Helvetica,sans-Serif" font-size="10.00" fill="grey"> +Empty</text>
</g>
</g>
</svg>

<g id="navigator" transform="translate(0 0)" fill="#404254">
  <rect fill="#f2f5e9" fill-opacity="0.5" stroke="#606060" stroke-width=".5" x="0" y="0" width="60" height="60"/>
  <use id="zoomplus" xlink:href="#zoomPlus" x="17" y="9" onmousedown="handleZoom(evt,'in')"/>
  <use id="zoomminus" xlink:href="#zoomMin" x="42" y="9" onmousedown="handleZoom(evt,'out')"/>
  <use id="reset" xlink:href="#resetDef" x="30" y="36" onmousedown="handleReset()"/>
   <use id="arrowup" xlink:href="#arrowUp" x="0" y="0" onmousedown="handlePan(0,-1)"/>
  <use id="arrowright" xlink:href="#arrowRight" x="0" y="0" onmousedown="handlePan(1,0)"/>
  <use id="arrowdown" xlink:href="#arrowDown" x="0" y="0" onmousedown="handlePan(0,1)"/>
  <use id="arrowleft" xlink:href="#arrowLeft" x="0" y="0" onmousedown="handlePan(-1,0)"/>
</g>
<svg viewBox="0 0 15 15" width="100%" height="30px" preserveAspectRatio="xMaxYMin meet">
 <g id="arrow_out" transform="scale(0.3 0.3)">
  <a xlink:href="classReLogic_1_1Content_1_1Asset__coll__graph_org.svg" target="_base">
   <rect id="button" ry="5" rx="5" y="6" x="6" height="38" width="38"
        fill="#f2f5e9" fill-opacity="0.5" stroke="#606060" stroke-width="1.0"/>
   <path id="arrow"
     d="M 11.500037,31.436501 C 11.940474,20.09759 22.043105,11.32322 32.158766,21.979434 L 37.068811,17.246167 C 37.068811,17.246167 37.088388,32 37.088388,32 L 22.160133,31.978069 C 22.160133,31.978069 26.997745,27.140456 26.997745,27.140456 C 18.528582,18.264221 13.291696,25.230495 11.500037,31.436501 z"
     style="fill:#404040;"/>
  </a>
 </g>
</svg>

<style type='text/css'>
<![CDATA[
[data-mouse-over-selected='false'] { opacity: 0.7; }
[data-mouse-over-selected='true']  { opacity: 1.0; }
]]>
</style>
<script type="application/ecmascript"><![CDATA[
document.addEventListener('DOMContentLoaded', (event) => {
  highlightEdges();
  highlightAdjacentNodes();
});
]]></script>
</svg>
