<?xml version="1.0" encoding="UTF-8" standalone="no"?>
<!DOCTYPE svg PUBLIC "-//W3C//DTD SVG 1.1//EN"
 "http://www.w3.org/Graphics/SVG/1.1/DTD/svg11.dtd">
<!-- Generated by graphviz version 2.43.0 (0)
 -->
<!-- Title: ReLogic.Content.Asset&lt; T &gt; Pages: 1 -->
<!--zoomable 803 -->

<svg id="main" version="1.1" xmlns="http://www.w3.org/2000/svg" xmlns:xlink="http://www.w3.org/1999/xlink" xml:space="preserve" onload="init(evt)">
<style type="text/css"><![CDATA[
.node, .edge {opacity: 0.7;}
.node.selected, .edge.selected {opacity: 1;}
.edge:hover path { stroke: red; }
.edge:hover polygon { stroke: red; fill: red; }
]]></style>

<defs>
  <circle id="rim" cx="0" cy="0" r="7"/>
  <circle id="rim2" cx="0" cy="0" r="3.5"/>
  <g id="zoomPlus">
    <use xlink:href="#rim" fill="#404040"><set attributeName="fill" to="#808080" begin="zoomplus.mouseover" end="zoomplus.mouseout"/></use>
    <path d="M-4,0h8M0,-4v8" fill="none" stroke="white" stroke-width="1.5" pointer-events="none"/>
  </g>
  <g id="zoomMin">
    <use xlink:href="#rim" fill="#404040"><set attributeName="fill" to="#808080" begin="zoomminus.mouseover" end="zoomminus.mouseout"/></use>
    <path d="M-4,0h8" fill="none" stroke="white" stroke-width="1.5" pointer-events="none"/>
  </g>
  <g id="arrowUp" transform="translate(30 24)">
    <use xlink:href="#rim"/>
    <path pointer-events="none" fill="none" stroke="white" stroke-width="1.5" d="M0,-3.0v7 M-2.5,-0.5L0,-3.0L2.5,-0.5"/>
  </g>
  <g id="arrowRight" transform="rotate(90) translate(36 -43)">
    <use xlink:href="#rim"/>
    <path pointer-events="none" fill="none" stroke="white" stroke-width="1.5" d="M0,-3.0v7 M-2.5,-0.5L0,-3.0L2.5,-0.5"/>
  </g>
  <g id="arrowDown" transform="rotate(180) translate(-30 -48)">
    <use xlink:href="#rim"/>
    <path pointer-events="none" fill="none" stroke="white" stroke-width="1.5" d="M0,-3.0v7 M-2.5,-0.5L0,-3.0L2.5,-0.5"/>
  </g>
  <g id="arrowLeft" transform="rotate(270) translate(-36 17)">
    <use xlink:href="#rim"/>
    <path pointer-events="none" fill="none" stroke="white" stroke-width="1.5" d="M0,-3.0v7 M-2.5,-0.5L0,-3.0L2.5,-0.5"/>
  </g>
  <g id="resetDef">
    <use xlink:href="#rim2" fill="#404040"><set attributeName="fill" to="#808080" begin="reset.mouseover" end="reset.mouseout"/></use>
  </g>
</defs>
<script type="application/ecmascript">
var viewWidth = 997;
var viewHeight = 803;
var sectionId = 'dynsection-1';
</script>
<script type="application/ecmascript" xlink:href="../../svg.min.js"/>
<svg id="graph" class="graph">
<g id="viewport">
<title>ReLogic.Content.Asset&lt; T &gt;</title>
<!-- Node1 -->
<g id="Node000001" class="node">
<title>Node1</title>
<g id="a_Node000001"><a xlink:title=" ">
<polygon fill="#999999" stroke="transparent" points="548.7,-277 385.7,-277 385.7,0 548.7,0 548.7,-277"/>
<text text-anchor="start" x="398.2" y="-264.5" font-family="Helvetica,sans-Serif" font-size="10.00">ReLogic.Content.Asset&lt; T &gt;</text>
<text text-anchor="start" x="390.2" y="-249.5" font-family="Helvetica,sans-Serif" font-size="10.00">+</text>
<text text-anchor="start" x="403.2" y="-249.5" font-family="Helvetica,sans-Serif" font-size="10.00">string Name</text>
<text text-anchor="start" x="390.2" y="-234.5" font-family="Helvetica,sans-Serif" font-size="10.00">+</text>
<text text-anchor="start" x="403.2" y="-234.5" font-family="Helvetica,sans-Serif" font-size="10.00">bool IsLoaded</text>
<text text-anchor="start" x="390.2" y="-219.5" font-family="Helvetica,sans-Serif" font-size="10.00">+</text>
<text text-anchor="start" x="403.2" y="-219.5" font-family="Helvetica,sans-Serif" font-size="10.00">AssetState State</text>
<text text-anchor="start" x="390.2" y="-204.5" font-family="Helvetica,sans-Serif" font-size="10.00">+</text>
<text text-anchor="start" x="403.2" y="-204.5" font-family="Helvetica,sans-Serif" font-size="10.00">bool IsDisposed</text>
<text text-anchor="start" x="390.2" y="-189.5" font-family="Helvetica,sans-Serif" font-size="10.00">+</text>
<text text-anchor="start" x="403.2" y="-189.5" font-family="Helvetica,sans-Serif" font-size="10.00">IContentSource Source</text>
<text text-anchor="start" x="390.2" y="-174.5" font-family="Helvetica,sans-Serif" font-size="10.00">+</text>
<text text-anchor="start" x="403.2" y="-174.5" font-family="Helvetica,sans-Serif" font-size="10.00">T Value</text>
<text text-anchor="start" x="390.2" y="-159.5" font-family="Helvetica,sans-Serif" font-size="10.00">+</text>
<text text-anchor="start" x="403.2" y="-159.5" font-family="Helvetica,sans-Serif" font-size="10.00">void ActionUnityLoad()</text>
<text text-anchor="start" x="390.2" y="-144.5" font-family="Helvetica,sans-Serif" font-size="10.00">+</text>
<text text-anchor="start" x="403.2" y="-144.5" font-family="Helvetica,sans-Serif" font-size="10.00">void Dispose()</text>
<text text-anchor="start" x="390.2" y="-129.5" font-family="Helvetica,sans-Serif" font-size="10.00">+</text>
<text text-anchor="start" x="403.2" y="-129.5" font-family="Helvetica,sans-Serif" font-size="10.00">static operator T(Asset</text>
<text text-anchor="start" x="403.2" y="-118.5" font-family="Helvetica,sans-Serif" font-size="10.00">&lt; T &gt; asset)</text>
<text text-anchor="start" x="390.2" y="-103.5" font-family="Helvetica,sans-Serif" font-size="10.00">~</text>
<text text-anchor="start" x="403.2" y="-103.5" font-family="Helvetica,sans-Serif" font-size="10.00">Asset(string name)</text>
<text text-anchor="start" x="390.2" y="-88.5" font-family="Helvetica,sans-Serif" font-size="10.00">~</text>
<text text-anchor="start" x="403.2" y="-88.5" font-family="Helvetica,sans-Serif" font-size="10.00">void Unload()</text>
<text text-anchor="start" x="390.2" y="-73.5" font-family="Helvetica,sans-Serif" font-size="10.00">~</text>
<text text-anchor="start" x="403.2" y="-73.5" font-family="Helvetica,sans-Serif" font-size="10.00">void SubmitLoadedContent</text>
<text text-anchor="start" x="403.2" y="-62.5" font-family="Helvetica,sans-Serif" font-size="10.00">(T value, IContentSource</text>
<text text-anchor="start" x="403.2" y="-51.5" font-family="Helvetica,sans-Serif" font-size="10.00"> source)</text>
<text text-anchor="start" x="390.2" y="-36.5" font-family="Helvetica,sans-Serif" font-size="10.00">~</text>
<text text-anchor="start" x="403.2" y="-36.5" font-family="Helvetica,sans-Serif" font-size="10.00">void SetToLoadingState()</text>
<text text-anchor="start" x="392.7" y="-21.5" font-family="Helvetica,sans-Serif" font-size="10.00">&#45;</text>
<text text-anchor="start" x="403.2" y="-21.5" font-family="Helvetica,sans-Serif" font-size="10.00">void Dispose(bool disposing)</text>
<text text-anchor="start" x="392.7" y="-6.5" font-family="Helvetica,sans-Serif" font-size="10.00">&#45;</text>
<text text-anchor="start" x="403.2" y="-6.5" font-family="Helvetica,sans-Serif" font-size="10.00">static Asset()</text>
<polygon fill="#666666" stroke="#666666" points="386.2,-259.5 386.2,-259.5 549.2,-259.5 549.2,-259.5 386.2,-259.5"/>
<polygon fill="#666666" stroke="#666666" points="386.2,-169.5 386.2,-169.5 401.2,-169.5 401.2,-169.5 386.2,-169.5"/>
<polygon fill="#666666" stroke="#666666" points="401.2,-169.5 401.2,-169.5 549.2,-169.5 549.2,-169.5 401.2,-169.5"/>
<polygon fill="none" stroke="#666666" points="385.7,0 385.7,-277 548.7,-277 548.7,0 385.7,0"/>
</a>
</g>
</g>
<!-- Node2 -->
<g id="Node000002" class="node">
<title>Node2</title>
<g id="a_Node000002"><a xlink:href="../../d1/d01/interfaceReLogic_1_1Content_1_1IAsset.html" target="_top" xlink:title=" ">
<polygon fill="white" stroke="transparent" points="179.7,-484.5 46.7,-484.5 46.7,-375.5 179.7,-375.5 179.7,-484.5"/>
<text text-anchor="start" x="98.2" y="-472" font-family="Helvetica,sans-Serif" font-size="10.00">IAsset</text>
<text text-anchor="start" x="51.2" y="-457" font-family="Helvetica,sans-Serif" font-size="10.00">+</text>
<text text-anchor="start" x="64.2" y="-457" font-family="Helvetica,sans-Serif" font-size="10.00">AssetState State</text>
<text text-anchor="start" x="51.2" y="-442" font-family="Helvetica,sans-Serif" font-size="10.00">+</text>
<text text-anchor="start" x="64.2" y="-442" font-family="Helvetica,sans-Serif" font-size="10.00">IContentSource Source</text>
<text text-anchor="start" x="51.2" y="-427" font-family="Helvetica,sans-Serif" font-size="10.00">+</text>
<text text-anchor="start" x="64.2" y="-427" font-family="Helvetica,sans-Serif" font-size="10.00">string Name</text>
<text text-anchor="start" x="51.2" y="-412" font-family="Helvetica,sans-Serif" font-size="10.00">+</text>
<text text-anchor="start" x="64.2" y="-412" font-family="Helvetica,sans-Serif" font-size="10.00">bool IsLoaded</text>
<text text-anchor="start" x="51.2" y="-397" font-family="Helvetica,sans-Serif" font-size="10.00">+</text>
<text text-anchor="start" x="64.2" y="-397" font-family="Helvetica,sans-Serif" font-size="10.00">bool IsDisposed</text>
<text text-anchor="start" x="51.2" y="-382" font-family="Helvetica,sans-Serif" font-size="10.00">+</text>
<text text-anchor="start" x="64.2" y="-382" font-family="Helvetica,sans-Serif" font-size="10.00">void ActionUnityLoad()</text>
<polygon fill="#666666" stroke="#666666" points="47.2,-467 47.2,-467 180.2,-467 180.2,-467 47.2,-467"/>
<polygon fill="#666666" stroke="#666666" points="47.2,-392 47.2,-392 62.2,-392 62.2,-392 47.2,-392"/>
<polygon fill="#666666" stroke="#666666" points="62.2,-392 62.2,-392 180.2,-392 180.2,-392 62.2,-392"/>
<polygon fill="none" stroke="#666666" points="46.7,-375.5 46.7,-484.5 179.7,-484.5 179.7,-375.5 46.7,-375.5"/>
</a>
</g>
</g>
<!-- Node2&#45;&gt;Node1 -->
<g id="edge1_Node000001_Node000002" class="edge">
<title>Node2&#45;&gt;Node1</title>
<g id="a_edge1_Node000001_Node000002"><a xlink:title=" ">
<path fill="none" stroke="#63b8ff" d="M152.42,-367.04C163.36,-352.09 175.92,-336.76 189.2,-324 248.32,-267.23 327.02,-216.85 385.59,-183.14"/>
<polygon fill="none" stroke="#63b8ff" points="149.49,-365.13 146.52,-375.3 155.18,-369.2 149.49,-365.13"/>
</a>
</g>
</g>
<!-- Node3 -->
<g id="Node000003" class="node">
<title>Node3</title>
<g id="a_Node000003"><a xlink:href="../../d6/d32/interfaceSystem_1_1IDisposable.html" target="_top" xlink:title=" ">
<polygon fill="white" stroke="transparent" points="94.2,-713.5 2.2,-713.5 2.2,-664.5 94.2,-664.5 94.2,-713.5"/>
<text text-anchor="start" x="19.2" y="-701" font-family="Helvetica,sans-Serif" font-size="10.00">IDisposable</text>
<text text-anchor="start" x="46.2" y="-686" font-family="Helvetica,sans-Serif" font-size="10.00"> </text>
<text text-anchor="start" x="6.2" y="-671" font-family="Helvetica,sans-Serif" font-size="10.00">+</text>
<text text-anchor="start" x="19.2" y="-671" font-family="Helvetica,sans-Serif" font-size="10.00">void Dispose()</text>
<polygon fill="#666666" stroke="#666666" points="2.2,-696 2.2,-696 94.2,-696 94.2,-696 2.2,-696"/>
<polygon fill="#666666" stroke="#666666" points="2.2,-681 2.2,-681 94.2,-681 94.2,-681 2.2,-681"/>
<polygon fill="none" stroke="#666666" points="2.2,-664.5 2.2,-713.5 94.2,-713.5 94.2,-664.5 2.2,-664.5"/>
</a>
</g>
</g>
<!-- Node3&#45;&gt;Node1 -->
<g id="edge3_Node000001_Node000003" class="edge">
<title>Node3&#45;&gt;Node1</title>
<g id="a_edge3_Node000001_Node000003"><a xlink:title=" ">
<path fill="none" stroke="#63b8ff" d="M35.41,-654.38C11.66,-585.78 -30.97,-427.43 37.2,-324 114.54,-206.66 283.72,-163.65 385.3,-148.1"/>
<polygon fill="none" stroke="#63b8ff" points="32.26,-655.96 38.9,-664.21 38.86,-653.62 32.26,-655.96"/>
</a>
</g>
</g>
<!-- Node3&#45;&gt;Node2 -->
<g id="edge2_Node000002_Node000003" class="edge">
<title>Node3&#45;&gt;Node2</title>
<g id="a_edge2_Node000002_Node000003"><a xlink:title=" ">
<path fill="none" stroke="#63b8ff" d="M56.66,-654.57C67.56,-611.44 86.67,-535.91 99.62,-484.7"/>
<polygon fill="none" stroke="#63b8ff" points="53.26,-653.73 54.2,-664.28 60.05,-655.45 53.26,-653.73"/>
</a>
</g>
</g>
<!-- Node4 -->
<g id="Node000004" class="node">
<title>Node4</title>
<g id="a_Node000004"><a xlink:title=" ">
<polygon fill="white" stroke="transparent" points="340.2,-454.5 198.2,-454.5 198.2,-405.5 340.2,-405.5 340.2,-454.5"/>
<text text-anchor="start" x="203.2" y="-442" font-family="Helvetica,sans-Serif" font-size="10.00">static readonly Asset&lt; T &gt;</text>
<text text-anchor="start" x="267.2" y="-427" font-family="Helvetica,sans-Serif" font-size="10.00"> </text>
<text text-anchor="start" x="267.2" y="-412" font-family="Helvetica,sans-Serif" font-size="10.00"> </text>
<polygon fill="#666666" stroke="#666666" points="198.2,-437 198.2,-437 340.2,-437 340.2,-437 198.2,-437"/>
<polygon fill="#666666" stroke="#666666" points="198.2,-422 198.2,-422 340.2,-422 340.2,-422 198.2,-422"/>
<polygon fill="none" stroke="#666666" points="198.2,-405.5 198.2,-454.5 340.2,-454.5 340.2,-405.5 198.2,-405.5"/>
</a>
</g>
</g>
<!-- Node4&#45;&gt;Node1 -->
<g id="edge4_Node000001_Node000004" class="edge">
<title>Node4&#45;&gt;Node1</title>
<g id="a_edge4_Node000001_Node000004"><a xlink:title=" ">
<path fill="none" stroke="#63b8ff" d="M285.02,-405.2C302.91,-378.35 332.96,-333.41 359.2,-295 365.53,-285.73 372.09,-276.17 378.71,-266.56"/>
<polygon fill="none" stroke="#63b8ff" points="378.81,-266.42 378.93,-259.21 385.63,-256.54 385.51,-263.75 378.81,-266.42"/>
</a>
</g>
<text text-anchor="middle" x="380.7" y="-298" font-family="Helvetica,sans-Serif" font-size="10.00" fill="grey"> +Empty</text>
</g>
<!-- Node5 -->
<g id="Node000005" class="node">
<title>Node5</title>
<g id="a_Node000005"><a xlink:title=" ">
<polygon fill="white" stroke="transparent" points="448.2,-454.5 358.2,-454.5 358.2,-405.5 448.2,-405.5 448.2,-454.5"/>
<text text-anchor="start" x="363.2" y="-442" font-family="Helvetica,sans-Serif" font-size="10.00">string&lt; Name &gt;</text>
<text text-anchor="start" x="401.2" y="-427" font-family="Helvetica,sans-Serif" font-size="10.00"> </text>
<text text-anchor="start" x="401.2" y="-412" font-family="Helvetica,sans-Serif" font-size="10.00"> </text>
<polygon fill="#666666" stroke="#666666" points="358.2,-437 358.2,-437 448.2,-437 448.2,-437 358.2,-437"/>
<polygon fill="#666666" stroke="#666666" points="358.2,-422 358.2,-422 448.2,-422 448.2,-422 358.2,-422"/>
<polygon fill="none" stroke="#666666" points="358.2,-405.5 358.2,-454.5 448.2,-454.5 448.2,-405.5 358.2,-405.5"/>
</a>
</g>
</g>
<!-- Node5&#45;&gt;Node1 -->
<g id="edge5_Node000001_Node000005" class="edge">
<title>Node5&#45;&gt;Node1</title>
<g id="a_edge5_Node000001_Node000005"><a xlink:title=" ">
<path fill="none" stroke="#63b8ff" d="M401.79,-405.49C400.7,-378.52 400.48,-333.1 408.2,-295 408.62,-292.96 409.05,-290.91 409.51,-288.85"/>
<polygon fill="none" stroke="#63b8ff" points="409.56,-288.67 407.08,-281.9 412.37,-277.01 414.85,-283.78 409.56,-288.67"/>
</a>
</g>
<text text-anchor="middle" x="451.2" y="-298" font-family="Helvetica,sans-Serif" font-size="10.00" fill="grey"> &#45;k__BackingField</text>
</g>
<!-- Node6 -->
<g id="Node000006" class="node">
<title>Node6</title>
<g id="a_Node000006"><a xlink:title=" ">
<polygon fill="white" stroke="transparent" points="422.2,-713.5 384.2,-713.5 384.2,-664.5 422.2,-664.5 422.2,-713.5"/>
<text text-anchor="start" x="389.2" y="-701" font-family="Helvetica,sans-Serif" font-size="10.00">string</text>
<text text-anchor="start" x="401.2" y="-686" font-family="Helvetica,sans-Serif" font-size="10.00"> </text>
<text text-anchor="start" x="401.2" y="-671" font-family="Helvetica,sans-Serif" font-size="10.00"> </text>
<polygon fill="#666666" stroke="#666666" points="384.2,-696 384.2,-696 422.2,-696 422.2,-696 384.2,-696"/>
<polygon fill="#666666" stroke="#666666" points="384.2,-681 384.2,-681 422.2,-681 422.2,-681 384.2,-681"/>
<polygon fill="none" stroke="#666666" points="384.2,-664.5 384.2,-713.5 422.2,-713.5 422.2,-664.5 384.2,-664.5"/>
</a>
</g>
</g>
<!-- Node6&#45;&gt;Node5 -->
<g id="edge6_Node000005_Node000006" class="edge">
<title>Node6&#45;&gt;Node5</title>
<g id="a_edge6_Node000005_Node000006"><a xlink:title=" ">
<path fill="none" stroke="orange" d="M403.2,-654.07C403.2,-601.18 403.2,-500.42 403.2,-454.66"/>
<polygon fill="orange" stroke="orange" points="399.7,-654.28 403.2,-664.28 406.7,-654.28 399.7,-654.28"/>
</a>
</g>
<text text-anchor="middle" x="430.7" y="-557" font-family="Helvetica,sans-Serif" font-size="10.00" fill="grey"> &lt; Name &gt;</text>
</g>
<!-- Node7 -->
<g id="Node000007" class="node">
<title>Node7</title>
<g id="a_Node000007"><a xlink:title=" ">
<polygon fill="white" stroke="transparent" points="577.7,-454.5 466.7,-454.5 466.7,-405.5 577.7,-405.5 577.7,-454.5"/>
<text text-anchor="start" x="472.2" y="-442" font-family="Helvetica,sans-Serif" font-size="10.00">AssetState&lt; State &gt;</text>
<text text-anchor="start" x="520.7" y="-427" font-family="Helvetica,sans-Serif" font-size="10.00"> </text>
<text text-anchor="start" x="520.7" y="-412" font-family="Helvetica,sans-Serif" font-size="10.00"> </text>
<polygon fill="#666666" stroke="#666666" points="467.2,-437 467.2,-437 578.2,-437 578.2,-437 467.2,-437"/>
<polygon fill="#666666" stroke="#666666" points="467.2,-422 467.2,-422 578.2,-422 578.2,-422 467.2,-422"/>
<polygon fill="none" stroke="#666666" points="466.7,-405.5 466.7,-454.5 577.7,-454.5 577.7,-405.5 466.7,-405.5"/>
</a>
</g>
</g>
<!-- Node7&#45;&gt;Node1 -->
<g id="edge7_Node000001_Node000007" class="edge">
<title>Node7&#45;&gt;Node1</title>
<g id="a_edge7_Node000001_Node000007"><a xlink:title=" ">
<path fill="none" stroke="#63b8ff" d="M518.09,-405.25C513.42,-378.45 505.5,-333.55 498.2,-295 497.84,-293.09 497.48,-291.17 497.11,-289.24"/>
<polygon fill="none" stroke="#63b8ff" points="497.07,-289.04 492.01,-283.9 494.81,-277.26 499.87,-282.4 497.07,-289.04"/>
</a>
</g>
<text text-anchor="middle" x="543.2" y="-298" font-family="Helvetica,sans-Serif" font-size="10.00" fill="grey"> &#45;k__BackingField</text>
</g>
<!-- Node8 -->
<g id="Node000008" class="node">
<title>Node8</title>
<g id="a_Node000008"><a xlink:title=" ">
<polygon fill="white" stroke="transparent" points="702.7,-454.5 595.7,-454.5 595.7,-405.5 702.7,-405.5 702.7,-454.5"/>
<text text-anchor="start" x="601.2" y="-442" font-family="Helvetica,sans-Serif" font-size="10.00">bool&lt; IsDisposed &gt;</text>
<text text-anchor="start" x="647.7" y="-427" font-family="Helvetica,sans-Serif" font-size="10.00"> </text>
<text text-anchor="start" x="647.7" y="-412" font-family="Helvetica,sans-Serif" font-size="10.00"> </text>
<polygon fill="#666666" stroke="#666666" points="596.2,-437 596.2,-437 703.2,-437 703.2,-437 596.2,-437"/>
<polygon fill="#666666" stroke="#666666" points="596.2,-422 596.2,-422 703.2,-422 703.2,-422 596.2,-422"/>
<polygon fill="none" stroke="#666666" points="595.7,-405.5 595.7,-454.5 702.7,-454.5 702.7,-405.5 595.7,-405.5"/>
</a>
</g>
</g>
<!-- Node8&#45;&gt;Node1 -->
<g id="edge8_Node000001_Node000008" class="edge">
<title>Node8&#45;&gt;Node1</title>
<g id="a_edge8_Node000001_Node000008"><a xlink:title=" ">
<path fill="none" stroke="#63b8ff" d="M640.89,-405.35C630.76,-377.86 612.23,-331.58 590.2,-295 580.13,-278.27 568.48,-261.32 556.45,-245.07"/>
<polygon fill="none" stroke="#63b8ff" points="556.13,-244.64 549.33,-242.25 548.92,-235.05 555.72,-237.44 556.13,-244.64"/>
</a>
</g>
<text text-anchor="middle" x="638.2" y="-298" font-family="Helvetica,sans-Serif" font-size="10.00" fill="grey"> &#45;k__BackingField</text>
</g>
<!-- Node9 -->
<g id="Node000009" class="node">
<title>Node9</title>
<g id="a_Node000009"><a xlink:title=" ">
<polygon fill="white" stroke="transparent" points="665.2,-713.5 633.2,-713.5 633.2,-664.5 665.2,-664.5 665.2,-713.5"/>
<text text-anchor="start" x="638.2" y="-701" font-family="Helvetica,sans-Serif" font-size="10.00">bool</text>
<text text-anchor="start" x="647.2" y="-686" font-family="Helvetica,sans-Serif" font-size="10.00"> </text>
<text text-anchor="start" x="647.2" y="-671" font-family="Helvetica,sans-Serif" font-size="10.00"> </text>
<polygon fill="#666666" stroke="#666666" points="633.2,-696 633.2,-696 665.2,-696 665.2,-696 633.2,-696"/>
<polygon fill="#666666" stroke="#666666" points="633.2,-681 633.2,-681 665.2,-681 665.2,-681 633.2,-681"/>
<polygon fill="none" stroke="#666666" points="633.2,-664.5 633.2,-713.5 665.2,-713.5 665.2,-664.5 633.2,-664.5"/>
</a>
</g>
</g>
<!-- Node9&#45;&gt;Node8 -->
<g id="edge9_Node000008_Node000009" class="edge">
<title>Node9&#45;&gt;Node8</title>
<g id="a_edge9_Node000008_Node000009"><a xlink:title=" ">
<path fill="none" stroke="orange" d="M649.2,-654.07C649.2,-601.18 649.2,-500.42 649.2,-454.66"/>
<polygon fill="orange" stroke="orange" points="645.7,-654.28 649.2,-664.28 652.7,-654.28 645.7,-654.28"/>
</a>
</g>
<text text-anchor="middle" x="688.7" y="-557" font-family="Helvetica,sans-Serif" font-size="10.00" fill="grey"> &lt; IsDisposed &gt;</text>
</g>
<!-- Node10 -->
<g id="Node000010" class="node">
<title>Node10</title>
<g id="a_Node000010"><a xlink:href="../../de/d36/interfaceReLogic_1_1Content_1_1Sources_1_1IContentSource.html" target="_top" xlink:title=" ">
<polygon fill="white" stroke="transparent" points="905.2,-536 721.2,-536 721.2,-324 905.2,-324 905.2,-536"/>
<text text-anchor="start" x="748.2" y="-524" font-family="Helvetica,sans-Serif" font-size="10.00">ReLogic.Content.Sources.</text>
<text text-anchor="start" x="748.2" y="-513" font-family="Helvetica,sans-Serif" font-size="10.00">IContentSource&lt; Source &gt;</text>
<text text-anchor="start" x="725.2" y="-498" font-family="Helvetica,sans-Serif" font-size="10.00">+</text>
<text text-anchor="start" x="738.2" y="-498" font-family="Helvetica,sans-Serif" font-size="10.00">IContentValidator Content</text>
<text text-anchor="start" x="738.2" y="-487" font-family="Helvetica,sans-Serif" font-size="10.00">Validator</text>
<text text-anchor="start" x="725.2" y="-472" font-family="Helvetica,sans-Serif" font-size="10.00">+</text>
<text text-anchor="start" x="738.2" y="-472" font-family="Helvetica,sans-Serif" font-size="10.00">bool HasAsset(string</text>
<text text-anchor="start" x="738.2" y="-461" font-family="Helvetica,sans-Serif" font-size="10.00"> assetName)</text>
<text text-anchor="start" x="725.2" y="-446" font-family="Helvetica,sans-Serif" font-size="10.00">+</text>
<text text-anchor="start" x="738.2" y="-446" font-family="Helvetica,sans-Serif" font-size="10.00">string GetExtension</text>
<text text-anchor="start" x="738.2" y="-435" font-family="Helvetica,sans-Serif" font-size="10.00">(string assetName)</text>
<text text-anchor="start" x="725.2" y="-420" font-family="Helvetica,sans-Serif" font-size="10.00">+</text>
<text text-anchor="start" x="738.2" y="-420" font-family="Helvetica,sans-Serif" font-size="10.00">Stream OpenStream(string</text>
<text text-anchor="start" x="738.2" y="-409" font-family="Helvetica,sans-Serif" font-size="10.00"> assetName)</text>
<text text-anchor="start" x="725.2" y="-394" font-family="Helvetica,sans-Serif" font-size="10.00">+</text>
<text text-anchor="start" x="738.2" y="-394" font-family="Helvetica,sans-Serif" font-size="10.00">void RejectAsset(string</text>
<text text-anchor="start" x="738.2" y="-383" font-family="Helvetica,sans-Serif" font-size="10.00"> assetName, IRejectionReason</text>
<text text-anchor="start" x="738.2" y="-372" font-family="Helvetica,sans-Serif" font-size="10.00"> reason)</text>
<text text-anchor="start" x="725.2" y="-357" font-family="Helvetica,sans-Serif" font-size="10.00">+</text>
<text text-anchor="start" x="738.2" y="-357" font-family="Helvetica,sans-Serif" font-size="10.00">void ClearRejections()</text>
<text text-anchor="start" x="725.2" y="-342" font-family="Helvetica,sans-Serif" font-size="10.00">+</text>
<text text-anchor="start" x="738.2" y="-342" font-family="Helvetica,sans-Serif" font-size="10.00">bool TryGetRejections</text>
<text text-anchor="start" x="738.2" y="-331" font-family="Helvetica,sans-Serif" font-size="10.00">(List&lt; string &gt; rejectionReasons)</text>
<polygon fill="#666666" stroke="#666666" points="721.2,-508 721.2,-508 905.2,-508 905.2,-508 721.2,-508"/>
<polygon fill="#666666" stroke="#666666" points="721.2,-482 721.2,-482 736.2,-482 736.2,-482 721.2,-482"/>
<polygon fill="#666666" stroke="#666666" points="736.2,-482 736.2,-482 905.2,-482 905.2,-482 736.2,-482"/>
<polygon fill="none" stroke="#666666" points="721.2,-324 721.2,-536 905.2,-536 905.2,-324 721.2,-324"/>
</a>
</g>
</g>
<!-- Node10&#45;&gt;Node1 -->
<g id="edge10_Node000001_Node000010" class="edge">
<title>Node10&#45;&gt;Node1</title>
<g id="a_edge10_Node000001_Node000010"><a xlink:title=" ">
<path fill="none" stroke="#63b8ff" d="M720.84,-328.1C709.16,-316.6 697.12,-305.32 685.2,-295 645.77,-260.83 599.01,-226.73 558.92,-199.21"/>
<polygon fill="none" stroke="#63b8ff" points="558.8,-199.13 551.59,-199.05 548.89,-192.36 556.1,-192.44 558.8,-199.13"/>
</a>
</g>
<text text-anchor="middle" x="739.2" y="-298" font-family="Helvetica,sans-Serif" font-size="10.00" fill="grey"> &#45;k__BackingField</text>
</g>
<!-- Node11 -->
<g id="Node000011" class="node">
<title>Node11</title>
<g id="a_Node000011"><a xlink:href="../../de/d36/interfaceReLogic_1_1Content_1_1Sources_1_1IContentSource.html" target="_top" xlink:title=" ">
<polygon fill="white" stroke="transparent" points="905.2,-795 721.2,-795 721.2,-583 905.2,-583 905.2,-795"/>
<text text-anchor="start" x="751.2" y="-783" font-family="Helvetica,sans-Serif" font-size="10.00">ReLogic.Content.Sources.</text>
<text text-anchor="start" x="775.7" y="-772" font-family="Helvetica,sans-Serif" font-size="10.00">IContentSource</text>
<text text-anchor="start" x="725.2" y="-757" font-family="Helvetica,sans-Serif" font-size="10.00">+</text>
<text text-anchor="start" x="738.2" y="-757" font-family="Helvetica,sans-Serif" font-size="10.00">IContentValidator Content</text>
<text text-anchor="start" x="738.2" y="-746" font-family="Helvetica,sans-Serif" font-size="10.00">Validator</text>
<text text-anchor="start" x="725.2" y="-731" font-family="Helvetica,sans-Serif" font-size="10.00">+</text>
<text text-anchor="start" x="738.2" y="-731" font-family="Helvetica,sans-Serif" font-size="10.00">bool HasAsset(string</text>
<text text-anchor="start" x="738.2" y="-720" font-family="Helvetica,sans-Serif" font-size="10.00"> assetName)</text>
<text text-anchor="start" x="725.2" y="-705" font-family="Helvetica,sans-Serif" font-size="10.00">+</text>
<text text-anchor="start" x="738.2" y="-705" font-family="Helvetica,sans-Serif" font-size="10.00">string GetExtension</text>
<text text-anchor="start" x="738.2" y="-694" font-family="Helvetica,sans-Serif" font-size="10.00">(string assetName)</text>
<text text-anchor="start" x="725.2" y="-679" font-family="Helvetica,sans-Serif" font-size="10.00">+</text>
<text text-anchor="start" x="738.2" y="-679" font-family="Helvetica,sans-Serif" font-size="10.00">Stream OpenStream(string</text>
<text text-anchor="start" x="738.2" y="-668" font-family="Helvetica,sans-Serif" font-size="10.00"> assetName)</text>
<text text-anchor="start" x="725.2" y="-653" font-family="Helvetica,sans-Serif" font-size="10.00">+</text>
<text text-anchor="start" x="738.2" y="-653" font-family="Helvetica,sans-Serif" font-size="10.00">void RejectAsset(string</text>
<text text-anchor="start" x="738.2" y="-642" font-family="Helvetica,sans-Serif" font-size="10.00"> assetName, IRejectionReason</text>
<text text-anchor="start" x="738.2" y="-631" font-family="Helvetica,sans-Serif" font-size="10.00"> reason)</text>
<text text-anchor="start" x="725.2" y="-616" font-family="Helvetica,sans-Serif" font-size="10.00">+</text>
<text text-anchor="start" x="738.2" y="-616" font-family="Helvetica,sans-Serif" font-size="10.00">void ClearRejections()</text>
<text text-anchor="start" x="725.2" y="-601" font-family="Helvetica,sans-Serif" font-size="10.00">+</text>
<text text-anchor="start" x="738.2" y="-601" font-family="Helvetica,sans-Serif" font-size="10.00">bool TryGetRejections</text>
<text text-anchor="start" x="738.2" y="-590" font-family="Helvetica,sans-Serif" font-size="10.00">(List&lt; string &gt; rejectionReasons)</text>
<polygon fill="#666666" stroke="#666666" points="721.2,-767 721.2,-767 905.2,-767 905.2,-767 721.2,-767"/>
<polygon fill="#666666" stroke="#666666" points="721.2,-741 721.2,-741 736.2,-741 736.2,-741 721.2,-741"/>
<polygon fill="#666666" stroke="#666666" points="736.2,-741 736.2,-741 905.2,-741 905.2,-741 736.2,-741"/>
<polygon fill="none" stroke="#666666" points="721.2,-583 721.2,-795 905.2,-795 905.2,-583 721.2,-583"/>
</a>
</g>
</g>
<!-- Node11&#45;&gt;Node10 -->
<g id="edge11_Node000010_Node000011" class="edge">
<title>Node11&#45;&gt;Node10</title>
<g id="a_edge11_Node000010_Node000011"><a xlink:title=" ">
<path fill="none" stroke="orange" d="M813.2,-572.57C813.2,-560.43 813.2,-548.13 813.2,-536.11"/>
<polygon fill="orange" stroke="orange" points="809.7,-572.73 813.2,-582.73 816.7,-572.73 809.7,-572.73"/>
</a>
</g>
<text text-anchor="middle" x="842.7" y="-557" font-family="Helvetica,sans-Serif" font-size="10.00" fill="grey"> &lt; Source &gt;</text>
</g>
<!-- Node12 -->
<g id="Node000012" class="node">
<title>Node12</title>
<g id="a_Node000012"><a xlink:title=" ">
<polygon fill="white" stroke="transparent" points="989.2,-454.5 923.2,-454.5 923.2,-405.5 989.2,-405.5 989.2,-454.5"/>
<text text-anchor="start" x="928.2" y="-442" font-family="Helvetica,sans-Serif" font-size="10.00">T&lt; Value &gt;</text>
<text text-anchor="start" x="954.2" y="-427" font-family="Helvetica,sans-Serif" font-size="10.00"> </text>
<text text-anchor="start" x="954.2" y="-412" font-family="Helvetica,sans-Serif" font-size="10.00"> </text>
<polygon fill="#666666" stroke="#666666" points="923.2,-437 923.2,-437 989.2,-437 989.2,-437 923.2,-437"/>
<polygon fill="#666666" stroke="#666666" points="923.2,-422 923.2,-422 989.2,-422 989.2,-422 923.2,-422"/>
<polygon fill="none" stroke="#666666" points="923.2,-405.5 923.2,-454.5 989.2,-454.5 989.2,-405.5 923.2,-405.5"/>
</a>
</g>
</g>
<!-- Node12&#45;&gt;Node1 -->
<g id="edge12_Node000001_Node000012" class="edge">
<title>Node12&#45;&gt;Node1</title>
<g id="a_edge12_Node000001_Node000012"><a xlink:title=" ">
<path fill="none" stroke="#63b8ff" d="M952.23,-405.2C947.18,-381.77 936.29,-346.33 914.2,-324 817.19,-225.92 660.55,-177.73 560.8,-155.8"/>
<polygon fill="none" stroke="#63b8ff" points="560.66,-155.77 553.95,-158.42 548.93,-153.26 555.63,-150.6 560.66,-155.77"/>
</a>
</g>
<text text-anchor="middle" x="928.2" y="-298" font-family="Helvetica,sans-Serif" font-size="10.00" fill="grey"> &#45;k__BackingField</text>
</g>
</g>
</svg>

<g id="navigator" transform="translate(0 0)" fill="#404254">
  <rect fill="#f2f5e9" fill-opacity="0.5" stroke="#606060" stroke-width=".5" x="0" y="0" width="60" height="60"/>
  <use id="zoomplus" xlink:href="#zoomPlus" x="17" y="9" onmousedown="handleZoom(evt,'in')"/>
  <use id="zoomminus" xlink:href="#zoomMin" x="42" y="9" onmousedown="handleZoom(evt,'out')"/>
  <use id="reset" xlink:href="#resetDef" x="30" y="36" onmousedown="handleReset()"/>
   <use id="arrowup" xlink:href="#arrowUp" x="0" y="0" onmousedown="handlePan(0,-1)"/>
  <use id="arrowright" xlink:href="#arrowRight" x="0" y="0" onmousedown="handlePan(1,0)"/>
  <use id="arrowdown" xlink:href="#arrowDown" x="0" y="0" onmousedown="handlePan(0,1)"/>
  <use id="arrowleft" xlink:href="#arrowLeft" x="0" y="0" onmousedown="handlePan(-1,0)"/>
</g>
<svg viewBox="0 0 15 15" width="100%" height="30px" preserveAspectRatio="xMaxYMin meet">
 <g id="arrow_out" transform="scale(0.3 0.3)">
  <a xlink:href="classReLogic_1_1Content_1_1Asset__coll__graph_org.svg" target="_base">
   <rect id="button" ry="5" rx="5" y="6" x="6" height="38" width="38"
        fill="#f2f5e9" fill-opacity="0.5" stroke="#606060" stroke-width="1.0"/>
   <path id="arrow"
     d="M 11.500037,31.436501 C 11.940474,20.09759 22.043105,11.32322 32.158766,21.979434 L 37.068811,17.246167 C 37.068811,17.246167 37.088388,32 37.088388,32 L 22.160133,31.978069 C 22.160133,31.978069 26.997745,27.140456 26.997745,27.140456 C 18.528582,18.264221 13.291696,25.230495 11.500037,31.436501 z"
     style="fill:#404040;"/>
  </a>
 </g>
</svg>

<style type='text/css'>
<![CDATA[
[data-mouse-over-selected='false'] { opacity: 0.7; }
[data-mouse-over-selected='true']  { opacity: 1.0; }
]]>
</style>
<script type="application/ecmascript"><![CDATA[
document.addEventListener('DOMContentLoaded', (event) => {
  highlightEdges();
  highlightAdjacentNodes();
});
]]></script>
</svg>
