<?xml version="1.0" encoding="UTF-8" standalone="no"?>
<!DOCTYPE svg PUBLIC "-//W3C//DTD SVG 1.1//EN"
 "http://www.w3.org/Graphics/SVG/1.1/DTD/svg11.dtd">
<!-- Generated by graphviz version 2.43.0 (0)
 -->
<!-- Title: System.Runtime.Remoting.TypeInfo Pages: 1 -->
<svg width="288pt" height="256pt"
 viewBox="0.00 0.00 288.00 256.00" xmlns="http://www.w3.org/2000/svg" xmlns:xlink="http://www.w3.org/1999/xlink">

<svg id="main" version="1.1" xmlns="http://www.w3.org/2000/svg" xmlns:xlink="http://www.w3.org/1999/xlink" xml:space="preserve" onload="init(evt)">
<style type="text/css"><![CDATA[
.node, .edge {opacity: 0.7;}
.node.selected, .edge.selected {opacity: 1;}
.edge:hover path { stroke: red; }
.edge:hover polygon { stroke: red; fill: red; }
]]></style>
<script type="application/ecmascript" xlink:href="../../svg.min.js"/>
<svg id="graph" class="graph">
<g id="graph0" class="graph" transform="scale(1 1) rotate(0) translate(4 252)">
<title>System.Runtime.Remoting.TypeInfo</title>
<!-- Node1 -->
<g id="Node000001" class="node">
<title>Node1</title>
<g id="a_Node000001"><a xlink:title=" ">
<polygon fill="#999999" stroke="transparent" points="197.5,-108 52.5,-108 52.5,0 197.5,0 197.5,-108"/>
<text text-anchor="start" x="58" y="-96" font-family="Helvetica,sans-Serif" font-size="10.00">System.Runtime.Remoting.</text>
<text text-anchor="start" x="104.5" y="-85" font-family="Helvetica,sans-Serif" font-size="10.00">TypeInfo</text>
<text text-anchor="start" x="57.5" y="-70" font-family="Helvetica,sans-Serif" font-size="10.00">+</text>
<text text-anchor="start" x="71" y="-70" font-family="Helvetica,sans-Serif" font-size="10.00">string TypeName</text>
<text text-anchor="start" x="57.5" y="-55" font-family="Helvetica,sans-Serif" font-size="10.00">+</text>
<text text-anchor="start" x="71" y="-55" font-family="Helvetica,sans-Serif" font-size="10.00">TypeInfo(global::System.</text>
<text text-anchor="start" x="71" y="-44" font-family="Helvetica,sans-Serif" font-size="10.00">Type type)</text>
<text text-anchor="start" x="57.5" y="-29" font-family="Helvetica,sans-Serif" font-size="10.00">+</text>
<text text-anchor="start" x="71" y="-29" font-family="Helvetica,sans-Serif" font-size="10.00">bool CanCastTo(global</text>
<text text-anchor="start" x="71" y="-18" font-family="Helvetica,sans-Serif" font-size="10.00">::System.Type fromType,</text>
<text text-anchor="start" x="71" y="-7" font-family="Helvetica,sans-Serif" font-size="10.00"> object o)</text>
<polygon fill="#666666" stroke="#666666" points="53,-80 53,-80 198,-80 198,-80 53,-80"/>
<polygon fill="#666666" stroke="#666666" points="53,-65 53,-65 69,-65 69,-65 53,-65"/>
<polygon fill="#666666" stroke="#666666" points="69,-65 69,-65 198,-65 198,-65 69,-65"/>
<polygon fill="none" stroke="#666666" points="52.5,0 52.5,-108 197.5,-108 197.5,0 52.5,0"/>
</a>
</g>
</g>
<!-- Node2 -->
<g id="Node000002" class="node">
<title>Node2</title>
<g id="a_Node000002"><a xlink:href="../../dd/dff/interfaceSystem_1_1Runtime_1_1Remoting_1_1IRemotingTypeInfo.html" target="_top" xlink:title=" ">
<polygon fill="white" stroke="transparent" points="142,-248 0,-248 0,-177 142,-177 142,-248"/>
<text text-anchor="start" x="25" y="-235.5" font-family="Helvetica,sans-Serif" font-size="10.00">IRemotingTypeInfo</text>
<text text-anchor="start" x="4" y="-220.5" font-family="Helvetica,sans-Serif" font-size="10.00">+</text>
<text text-anchor="start" x="17" y="-220.5" font-family="Helvetica,sans-Serif" font-size="10.00">string TypeName</text>
<text text-anchor="start" x="4" y="-205.5" font-family="Helvetica,sans-Serif" font-size="10.00">+</text>
<text text-anchor="start" x="17" y="-205.5" font-family="Helvetica,sans-Serif" font-size="10.00">bool CanCastTo(global</text>
<text text-anchor="start" x="17" y="-194.5" font-family="Helvetica,sans-Serif" font-size="10.00">::System.Type fromType,</text>
<text text-anchor="start" x="17" y="-183.5" font-family="Helvetica,sans-Serif" font-size="10.00"> object o)</text>
<polygon fill="#666666" stroke="#666666" points="0,-230.5 0,-230.5 142,-230.5 142,-230.5 0,-230.5"/>
<polygon fill="#666666" stroke="#666666" points="0,-215.5 0,-215.5 15,-215.5 15,-215.5 0,-215.5"/>
<polygon fill="#666666" stroke="#666666" points="15,-215.5 15,-215.5 142,-215.5 142,-215.5 15,-215.5"/>
<polygon fill="none" stroke="#666666" points="0,-177 0,-248 142,-248 142,-177 0,-177"/>
</a>
</g>
</g>
<!-- Node2&#45;&gt;Node1 -->
<g id="edge1_Node000001_Node000002" class="edge">
<title>Node2&#45;&gt;Node1</title>
<g id="a_edge1_Node000001_Node000002"><a xlink:title=" ">
<path fill="none" stroke="#63b8ff" d="M86.29,-167.19C92.63,-148.8 100.05,-127.31 106.68,-108.09"/>
<polygon fill="none" stroke="#63b8ff" points="82.94,-166.17 82.98,-176.77 89.55,-168.46 82.94,-166.17"/>
</a>
</g>
</g>
<!-- Node3 -->
<g id="Node000003" class="node">
<title>Node3</title>
<g id="a_Node000003"><a xlink:title=" ">
<polygon fill="white" stroke="transparent" points="198,-237 160,-237 160,-188 198,-188 198,-237"/>
<text text-anchor="start" x="165" y="-224.5" font-family="Helvetica,sans-Serif" font-size="10.00">string</text>
<text text-anchor="start" x="177" y="-209.5" font-family="Helvetica,sans-Serif" font-size="10.00"> </text>
<text text-anchor="start" x="177" y="-194.5" font-family="Helvetica,sans-Serif" font-size="10.00"> </text>
<polygon fill="#666666" stroke="#666666" points="160,-219.5 160,-219.5 198,-219.5 198,-219.5 160,-219.5"/>
<polygon fill="#666666" stroke="#666666" points="160,-204.5 160,-204.5 198,-204.5 198,-204.5 160,-204.5"/>
<polygon fill="none" stroke="#666666" points="160,-188 160,-237 198,-237 198,-188 160,-188"/>
</a>
</g>
</g>
<!-- Node3&#45;&gt;Node1 -->
<g id="edge2_Node000001_Node000003" class="edge">
<title>Node3&#45;&gt;Node1</title>
<g id="a_edge2_Node000001_Node000003"><a xlink:title=" ">
<path fill="none" stroke="#63b8ff" d="M170.8,-187.73C164.56,-169.65 155.67,-143.88 147.37,-119.84"/>
<polygon fill="none" stroke="#63b8ff" points="147.28,-119.56 141.54,-115.2 143.36,-108.22 149.1,-112.59 147.28,-119.56"/>
</a>
</g>
<text text-anchor="middle" x="219.5" y="-151" font-family="Helvetica,sans-Serif" font-size="10.00" fill="grey"> &#45;interfacesImplemented</text>
<text text-anchor="middle" x="219.5" y="-140" font-family="Helvetica,sans-Serif" font-size="10.00" fill="grey">&#45;serverHierarchy</text>
<text text-anchor="middle" x="219.5" y="-129" font-family="Helvetica,sans-Serif" font-size="10.00" fill="grey">&#45;serverType</text>
</g>
</g>
</svg>
</svg>

<style type='text/css'>
<![CDATA[
[data-mouse-over-selected='false'] { opacity: 0.7; }
[data-mouse-over-selected='true']  { opacity: 1.0; }
]]>
</style>
<script type="application/ecmascript"><![CDATA[
document.addEventListener('DOMContentLoaded', (event) => {
  highlightEdges();
  highlightAdjacentNodes();
});
]]></script>
</svg>
