<?xml version="1.0" encoding="UTF-8" standalone="no"?>
<!DOCTYPE svg PUBLIC "-//W3C//DTD SVG 1.1//EN"
 "http://www.w3.org/Graphics/SVG/1.1/DTD/svg11.dtd">
<!-- Generated by graphviz version 2.43.0 (0)
 -->
<!-- Title: ItemGrid_Layout Pages: 1 -->
<!--zoomable 635 -->

<svg id="main" version="1.1" xmlns="http://www.w3.org/2000/svg" xmlns:xlink="http://www.w3.org/1999/xlink" xml:space="preserve" onload="init(evt)">
<style type="text/css"><![CDATA[
.node, .edge {opacity: 0.7;}
.node.selected, .edge.selected {opacity: 1;}
.edge:hover path { stroke: red; }
.edge:hover polygon { stroke: red; fill: red; }
]]></style>

<defs>
  <circle id="rim" cx="0" cy="0" r="7"/>
  <circle id="rim2" cx="0" cy="0" r="3.5"/>
  <g id="zoomPlus">
    <use xlink:href="#rim" fill="#404040"><set attributeName="fill" to="#808080" begin="zoomplus.mouseover" end="zoomplus.mouseout"/></use>
    <path d="M-4,0h8M0,-4v8" fill="none" stroke="white" stroke-width="1.5" pointer-events="none"/>
  </g>
  <g id="zoomMin">
    <use xlink:href="#rim" fill="#404040"><set attributeName="fill" to="#808080" begin="zoomminus.mouseover" end="zoomminus.mouseout"/></use>
    <path d="M-4,0h8" fill="none" stroke="white" stroke-width="1.5" pointer-events="none"/>
  </g>
  <g id="arrowUp" transform="translate(30 24)">
    <use xlink:href="#rim"/>
    <path pointer-events="none" fill="none" stroke="white" stroke-width="1.5" d="M0,-3.0v7 M-2.5,-0.5L0,-3.0L2.5,-0.5"/>
  </g>
  <g id="arrowRight" transform="rotate(90) translate(36 -43)">
    <use xlink:href="#rim"/>
    <path pointer-events="none" fill="none" stroke="white" stroke-width="1.5" d="M0,-3.0v7 M-2.5,-0.5L0,-3.0L2.5,-0.5"/>
  </g>
  <g id="arrowDown" transform="rotate(180) translate(-30 -48)">
    <use xlink:href="#rim"/>
    <path pointer-events="none" fill="none" stroke="white" stroke-width="1.5" d="M0,-3.0v7 M-2.5,-0.5L0,-3.0L2.5,-0.5"/>
  </g>
  <g id="arrowLeft" transform="rotate(270) translate(-36 17)">
    <use xlink:href="#rim"/>
    <path pointer-events="none" fill="none" stroke="white" stroke-width="1.5" d="M0,-3.0v7 M-2.5,-0.5L0,-3.0L2.5,-0.5"/>
  </g>
  <g id="resetDef">
    <use xlink:href="#rim2" fill="#404040"><set attributeName="fill" to="#808080" begin="reset.mouseover" end="reset.mouseout"/></use>
  </g>
</defs>
<script type="application/ecmascript">
var viewWidth = 177;
var viewHeight = 635;
var sectionId = 'dynsection-0';
</script>
<script type="application/ecmascript" xlink:href="../../svg.min.js"/>
<svg id="graph" class="graph">
<g id="viewport">
<title>ItemGrid_Layout</title>
<!-- Node1 -->
<g id="Node000001" class="node">
<title>Node1</title>
<g id="a_Node000001"><a xlink:title=" ">
<polygon fill="#999999" stroke="transparent" points="167.5,-627 1.5,-627 1.5,-361 167.5,-361 167.5,-627"/>
<text text-anchor="start" x="43.5" y="-615" font-family="Helvetica,sans-Serif" font-size="10.00">ItemGrid_Layout</text>
<text text-anchor="start" x="5.5" y="-600" font-family="Helvetica,sans-Serif" font-size="10.00">+</text>
<text text-anchor="start" x="18.5" y="-600" font-family="Helvetica,sans-Serif" font-size="10.00">bool Horizontal</text>
<text text-anchor="start" x="5.5" y="-585" font-family="Helvetica,sans-Serif" font-size="10.00">+</text>
<text text-anchor="start" x="18.5" y="-585" font-family="Helvetica,sans-Serif" font-size="10.00">ReorderStyle Reorder</text>
<text text-anchor="start" x="5.5" y="-570" font-family="Helvetica,sans-Serif" font-size="10.00">+</text>
<text text-anchor="start" x="18.5" y="-570" font-family="Helvetica,sans-Serif" font-size="10.00">int ItemCount</text>
<text text-anchor="start" x="5.5" y="-555" font-family="Helvetica,sans-Serif" font-size="10.00">+</text>
<text text-anchor="start" x="18.5" y="-555" font-family="Helvetica,sans-Serif" font-size="10.00">int ItemLineCount</text>
<text text-anchor="start" x="5.5" y="-540" font-family="Helvetica,sans-Serif" font-size="10.00">+</text>
<text text-anchor="start" x="18.5" y="-540" font-family="Helvetica,sans-Serif" font-size="10.00">Vector2 PickingBorder</text>
<text text-anchor="start" x="5.5" y="-525" font-family="Helvetica,sans-Serif" font-size="10.00">+</text>
<text text-anchor="start" x="18.5" y="-525" font-family="Helvetica,sans-Serif" font-size="10.00">Vector2 PickingOffset</text>
<text text-anchor="start" x="5.5" y="-510" font-family="Helvetica,sans-Serif" font-size="10.00">+</text>
<text text-anchor="start" x="18.5" y="-510" font-family="Helvetica,sans-Serif" font-size="10.00">Vector2 ExtraElementSpacing</text>
<text text-anchor="start" x="5.5" y="-495" font-family="Helvetica,sans-Serif" font-size="10.00">+</text>
<text text-anchor="start" x="18.5" y="-495" font-family="Helvetica,sans-Serif" font-size="10.00">ControlAnchor.ControlId</text>
<text text-anchor="start" x="18.5" y="-484" font-family="Helvetica,sans-Serif" font-size="10.00"> FirstAnchorControl</text>
<text text-anchor="start" x="5.5" y="-469" font-family="Helvetica,sans-Serif" font-size="10.00">+</text>
<text text-anchor="start" x="18.5" y="-469" font-family="Helvetica,sans-Serif" font-size="10.00">LayoutCalculator.AnchorType</text>
<text text-anchor="start" x="18.5" y="-458" font-family="Helvetica,sans-Serif" font-size="10.00"> FirstItemAnchor</text>
<text text-anchor="start" x="5.5" y="-443" font-family="Helvetica,sans-Serif" font-size="10.00">+</text>
<text text-anchor="start" x="18.5" y="-443" font-family="Helvetica,sans-Serif" font-size="10.00">Vector2 FirstItemLocation</text>
<text text-anchor="start" x="5.5" y="-428" font-family="Helvetica,sans-Serif" font-size="10.00">+</text>
<text text-anchor="start" x="18.5" y="-428" font-family="Helvetica,sans-Serif" font-size="10.00">Vector2 StackCountOffset</text>
<text text-anchor="start" x="5.5" y="-413" font-family="Helvetica,sans-Serif" font-size="10.00">+</text>
<text text-anchor="start" x="18.5" y="-413" font-family="Helvetica,sans-Serif" font-size="10.00">Vector2 AmmoCountOffset</text>
<text text-anchor="start" x="5.5" y="-398" font-family="Helvetica,sans-Serif" font-size="10.00">+</text>
<text text-anchor="start" x="18.5" y="-398" font-family="Helvetica,sans-Serif" font-size="10.00">bool CentreAlign</text>
<text text-anchor="start" x="5.5" y="-383" font-family="Helvetica,sans-Serif" font-size="10.00">+</text>
<text text-anchor="start" x="18.5" y="-383" font-family="Helvetica,sans-Serif" font-size="10.00">bool RightAlign</text>
<text text-anchor="start" x="5.5" y="-368" font-family="Helvetica,sans-Serif" font-size="10.00">+</text>
<text text-anchor="start" x="18.5" y="-368" font-family="Helvetica,sans-Serif" font-size="10.00">ItemGrid_Layout()</text>
<polygon fill="#666666" stroke="#666666" points="1.5,-610 1.5,-610 167.5,-610 167.5,-610 1.5,-610"/>
<polygon fill="#666666" stroke="#666666" points="1.5,-378 1.5,-378 16.5,-378 16.5,-378 1.5,-378"/>
<polygon fill="#666666" stroke="#666666" points="16.5,-378 16.5,-378 167.5,-378 167.5,-378 16.5,-378"/>
<polygon fill="none" stroke="#666666" points="1.5,-361 1.5,-627 167.5,-627 167.5,-361 1.5,-361"/>
</a>
</g>
</g>
<!-- Node2 -->
<g id="Node000002" class="node">
<title>Node2</title>
<g id="a_Node000002"><a xlink:href="../../d3/de1/classDraggableItemGrid__Layout.html" target="_top" xlink:title=" ">
<polygon fill="white" stroke="transparent" points="169,-325 0,-325 0,0 169,0 169,-325"/>
<text text-anchor="start" x="19" y="-312.5" font-family="Helvetica,sans-Serif" font-size="10.00">DraggableItemGrid_Layout</text>
<text text-anchor="start" x="4.5" y="-297.5" font-family="Helvetica,sans-Serif" font-size="10.00">+</text>
<text text-anchor="start" x="17.5" y="-297.5" font-family="Helvetica,sans-Serif" font-size="10.00">float MomentumScale</text>
<text text-anchor="start" x="4.5" y="-282.5" font-family="Helvetica,sans-Serif" font-size="10.00">+</text>
<text text-anchor="start" x="17.5" y="-282.5" font-family="Helvetica,sans-Serif" font-size="10.00">float MomentumDampen</text>
<text text-anchor="start" x="4.5" y="-267.5" font-family="Helvetica,sans-Serif" font-size="10.00">+</text>
<text text-anchor="start" x="17.5" y="-267.5" font-family="Helvetica,sans-Serif" font-size="10.00">float MomentumExtraDampen</text>
<text text-anchor="start" x="17.5" y="-256.5" font-family="Helvetica,sans-Serif" font-size="10.00">OutOfBounds</text>
<text text-anchor="start" x="4.5" y="-241.5" font-family="Helvetica,sans-Serif" font-size="10.00">+</text>
<text text-anchor="start" x="17.5" y="-241.5" font-family="Helvetica,sans-Serif" font-size="10.00">float OutOfBoundsOffsetLerp</text>
<text text-anchor="start" x="17.5" y="-230.5" font-family="Helvetica,sans-Serif" font-size="10.00">Scale</text>
<text text-anchor="start" x="4.5" y="-215.5" font-family="Helvetica,sans-Serif" font-size="10.00">+</text>
<text text-anchor="start" x="17.5" y="-215.5" font-family="Helvetica,sans-Serif" font-size="10.00">int AlphaFalloff</text>
<text text-anchor="start" x="4.5" y="-200.5" font-family="Helvetica,sans-Serif" font-size="10.00">+</text>
<text text-anchor="start" x="17.5" y="-200.5" font-family="Helvetica,sans-Serif" font-size="10.00">bool DragHorizontal</text>
<text text-anchor="start" x="4.5" y="-185.5" font-family="Helvetica,sans-Serif" font-size="10.00">+</text>
<text text-anchor="start" x="17.5" y="-185.5" font-family="Helvetica,sans-Serif" font-size="10.00">float DragThreshold</text>
<text text-anchor="start" x="4.5" y="-170.5" font-family="Helvetica,sans-Serif" font-size="10.00">+</text>
<text text-anchor="start" x="17.5" y="-170.5" font-family="Helvetica,sans-Serif" font-size="10.00">bool EnableDragUnderLimit</text>
<text text-anchor="start" x="4.5" y="-155.5" font-family="Helvetica,sans-Serif" font-size="10.00">+</text>
<text text-anchor="start" x="17.5" y="-155.5" font-family="Helvetica,sans-Serif" font-size="10.00">Vector2 MaxDragRegion</text>
<text text-anchor="start" x="4.5" y="-140.5" font-family="Helvetica,sans-Serif" font-size="10.00">+</text>
<text text-anchor="start" x="17.5" y="-140.5" font-family="Helvetica,sans-Serif" font-size="10.00">bool ExplicitDragRegionSize</text>
<text text-anchor="start" x="4.5" y="-125.5" font-family="Helvetica,sans-Serif" font-size="10.00">+</text>
<text text-anchor="start" x="17.5" y="-125.5" font-family="Helvetica,sans-Serif" font-size="10.00">ControlAnchor.ControlId</text>
<text text-anchor="start" x="17.5" y="-114.5" font-family="Helvetica,sans-Serif" font-size="10.00"> DragRegionEndAnchorControl</text>
<text text-anchor="start" x="4.5" y="-99.5" font-family="Helvetica,sans-Serif" font-size="10.00">+</text>
<text text-anchor="start" x="17.5" y="-99.5" font-family="Helvetica,sans-Serif" font-size="10.00">LayoutCalculator.AnchorType</text>
<text text-anchor="start" x="17.5" y="-88.5" font-family="Helvetica,sans-Serif" font-size="10.00"> DragRegionEndItemAnchor</text>
<text text-anchor="start" x="4.5" y="-73.5" font-family="Helvetica,sans-Serif" font-size="10.00">+</text>
<text text-anchor="start" x="17.5" y="-73.5" font-family="Helvetica,sans-Serif" font-size="10.00">Vector2 DragRegionEndItem</text>
<text text-anchor="start" x="17.5" y="-62.5" font-family="Helvetica,sans-Serif" font-size="10.00">Location</text>
<text text-anchor="start" x="4.5" y="-47.5" font-family="Helvetica,sans-Serif" font-size="10.00">+</text>
<text text-anchor="start" x="17.5" y="-47.5" font-family="Helvetica,sans-Serif" font-size="10.00">int DragRegionTopOffset</text>
<text text-anchor="start" x="4.5" y="-32.5" font-family="Helvetica,sans-Serif" font-size="10.00">+</text>
<text text-anchor="start" x="17.5" y="-32.5" font-family="Helvetica,sans-Serif" font-size="10.00">int DragRegionBottomOffset</text>
<text text-anchor="start" x="4.5" y="-17.5" font-family="Helvetica,sans-Serif" font-size="10.00">+</text>
<text text-anchor="start" x="17.5" y="-17.5" font-family="Helvetica,sans-Serif" font-size="10.00">DraggableItemGrid</text>
<text text-anchor="start" x="17.5" y="-6.5" font-family="Helvetica,sans-Serif" font-size="10.00">_Layout()</text>
<polygon fill="#666666" stroke="#666666" points="0.5,-307.5 0.5,-307.5 169.5,-307.5 169.5,-307.5 0.5,-307.5"/>
<polygon fill="#666666" stroke="#666666" points="0.5,-27.5 0.5,-27.5 15.5,-27.5 15.5,-27.5 0.5,-27.5"/>
<polygon fill="#666666" stroke="#666666" points="15.5,-27.5 15.5,-27.5 169.5,-27.5 169.5,-27.5 15.5,-27.5"/>
<polygon fill="none" stroke="#666666" points="0,0 0,-325 169,-325 169,0 0,0"/>
</a>
</g>
</g>
<!-- Node1&#45;&gt;Node2 -->
<g id="edge1_Node000001_Node000002" class="edge">
<title>Node1&#45;&gt;Node2</title>
<g id="a_edge1_Node000001_Node000002"><a xlink:title=" ">
<path fill="none" stroke="#63b8ff" d="M84.5,-350.66C84.5,-342.24 84.5,-333.74 84.5,-325.26"/>
<polygon fill="none" stroke="#63b8ff" points="81,-350.88 84.5,-360.88 88,-350.88 81,-350.88"/>
</a>
</g>
</g>
</g>
</svg>

<g id="navigator" transform="translate(0 0)" fill="#404254">
  <rect fill="#f2f5e9" fill-opacity="0.5" stroke="#606060" stroke-width=".5" x="0" y="0" width="60" height="60"/>
  <use id="zoomplus" xlink:href="#zoomPlus" x="17" y="9" onmousedown="handleZoom(evt,'in')"/>
  <use id="zoomminus" xlink:href="#zoomMin" x="42" y="9" onmousedown="handleZoom(evt,'out')"/>
  <use id="reset" xlink:href="#resetDef" x="30" y="36" onmousedown="handleReset()"/>
   <use id="arrowup" xlink:href="#arrowUp" x="0" y="0" onmousedown="handlePan(0,-1)"/>
  <use id="arrowright" xlink:href="#arrowRight" x="0" y="0" onmousedown="handlePan(1,0)"/>
  <use id="arrowdown" xlink:href="#arrowDown" x="0" y="0" onmousedown="handlePan(0,1)"/>
  <use id="arrowleft" xlink:href="#arrowLeft" x="0" y="0" onmousedown="handlePan(-1,0)"/>
</g>
<svg viewBox="0 0 15 15" width="100%" height="30px" preserveAspectRatio="xMaxYMin meet">
 <g id="arrow_out" transform="scale(0.3 0.3)">
  <a xlink:href="classItemGrid__Layout__inherit__graph_org.svg" target="_base">
   <rect id="button" ry="5" rx="5" y="6" x="6" height="38" width="38"
        fill="#f2f5e9" fill-opacity="0.5" stroke="#606060" stroke-width="1.0"/>
   <path id="arrow"
     d="M 11.500037,31.436501 C 11.940474,20.09759 22.043105,11.32322 32.158766,21.979434 L 37.068811,17.246167 C 37.068811,17.246167 37.088388,32 37.088388,32 L 22.160133,31.978069 C 22.160133,31.978069 26.997745,27.140456 26.997745,27.140456 C 18.528582,18.264221 13.291696,25.230495 11.500037,31.436501 z"
     style="fill:#404040;"/>
  </a>
 </g>
</svg>

<style type='text/css'>
<![CDATA[
[data-mouse-over-selected='false'] { opacity: 0.7; }
[data-mouse-over-selected='true']  { opacity: 1.0; }
]]>
</style>
<script type="application/ecmascript"><![CDATA[
document.addEventListener('DOMContentLoaded', (event) => {
  highlightEdges();
  highlightAdjacentNodes();
});
]]></script>
</svg>
