<?xml version="1.0" encoding="UTF-8" standalone="no"?>
<!DOCTYPE svg PUBLIC "-//W3C//DTD SVG 1.1//EN"
 "http://www.w3.org/Graphics/SVG/1.1/DTD/svg11.dtd">
<!-- Generated by graphviz version 2.43.0 (0)
 -->
<!-- Title: Terraria.Social.Base.CloudSocialModule Pages: 1 -->
<svg width="234pt" height="469pt"
 viewBox="0.00 0.00 233.50 469.00" xmlns="http://www.w3.org/2000/svg" xmlns:xlink="http://www.w3.org/1999/xlink">
<g id="graph0" class="graph" transform="scale(1 1) rotate(0) translate(4 465)">
<title>Terraria.Social.Base.CloudSocialModule</title>
<!-- Node1 -->
<g id="Node000001" class="node">
<title>Node1</title>
<g id="a_Node000001"><a xlink:title=" ">
<polygon fill="#999999" stroke="transparent" points="163.5,-350 21.5,-350 21.5,0 163.5,0 163.5,-350"/>
<text text-anchor="start" x="29" y="-338" font-family="Helvetica,sans-Serif" font-size="10.00">Terraria.Social.Base.Cloud</text>
<text text-anchor="start" x="59.5" y="-327" font-family="Helvetica,sans-Serif" font-size="10.00">SocialModule</text>
<text text-anchor="start" x="90.5" y="-312" font-family="Helvetica,sans-Serif" font-size="10.00"> </text>
<text text-anchor="start" x="25.5" y="-297" font-family="Helvetica,sans-Serif" font-size="10.00">+</text>
<text text-anchor="start" x="38.5" y="-297" font-family="Helvetica,sans-Serif" font-size="10.00">virtual void Initialize()</text>
<text text-anchor="start" x="25.5" y="-282" font-family="Helvetica,sans-Serif" font-size="10.00">+</text>
<text text-anchor="start" x="38.5" y="-282" font-family="Helvetica,sans-Serif" font-size="10.00">void Shutdown()</text>
<text text-anchor="start" x="25.5" y="-267" font-family="Helvetica,sans-Serif" font-size="10.00">+</text>
<text text-anchor="start" x="38.5" y="-267" font-family="Helvetica,sans-Serif" font-size="10.00">IEnumerable&lt; string</text>
<text text-anchor="start" x="38.5" y="-256" font-family="Helvetica,sans-Serif" font-size="10.00"> &gt; GetFiles()</text>
<text text-anchor="start" x="25.5" y="-241" font-family="Helvetica,sans-Serif" font-size="10.00">+</text>
<text text-anchor="start" x="38.5" y="-241" font-family="Helvetica,sans-Serif" font-size="10.00">bool Write(string path,</text>
<text text-anchor="start" x="38.5" y="-230" font-family="Helvetica,sans-Serif" font-size="10.00"> byte[] data, int length)</text>
<text text-anchor="start" x="25.5" y="-215" font-family="Helvetica,sans-Serif" font-size="10.00">+</text>
<text text-anchor="start" x="38.5" y="-215" font-family="Helvetica,sans-Serif" font-size="10.00">void Read(string path,</text>
<text text-anchor="start" x="38.5" y="-204" font-family="Helvetica,sans-Serif" font-size="10.00"> byte[] buffer, int length)</text>
<text text-anchor="start" x="25.5" y="-189" font-family="Helvetica,sans-Serif" font-size="10.00">+</text>
<text text-anchor="start" x="38.5" y="-189" font-family="Helvetica,sans-Serif" font-size="10.00">bool HasFile(string</text>
<text text-anchor="start" x="38.5" y="-178" font-family="Helvetica,sans-Serif" font-size="10.00"> path)</text>
<text text-anchor="start" x="25.5" y="-163" font-family="Helvetica,sans-Serif" font-size="10.00">+</text>
<text text-anchor="start" x="38.5" y="-163" font-family="Helvetica,sans-Serif" font-size="10.00">int GetFileSize(string</text>
<text text-anchor="start" x="38.5" y="-152" font-family="Helvetica,sans-Serif" font-size="10.00"> path)</text>
<text text-anchor="start" x="25.5" y="-137" font-family="Helvetica,sans-Serif" font-size="10.00">+</text>
<text text-anchor="start" x="38.5" y="-137" font-family="Helvetica,sans-Serif" font-size="10.00">bool Delete(string</text>
<text text-anchor="start" x="38.5" y="-126" font-family="Helvetica,sans-Serif" font-size="10.00"> path)</text>
<text text-anchor="start" x="25.5" y="-111" font-family="Helvetica,sans-Serif" font-size="10.00">+</text>
<text text-anchor="start" x="38.5" y="-111" font-family="Helvetica,sans-Serif" font-size="10.00">bool Forget(string</text>
<text text-anchor="start" x="38.5" y="-100" font-family="Helvetica,sans-Serif" font-size="10.00"> path)</text>
<text text-anchor="start" x="25.5" y="-85" font-family="Helvetica,sans-Serif" font-size="10.00">+</text>
<text text-anchor="start" x="38.5" y="-85" font-family="Helvetica,sans-Serif" font-size="10.00">byte[] Read(string</text>
<text text-anchor="start" x="38.5" y="-74" font-family="Helvetica,sans-Serif" font-size="10.00"> path)</text>
<text text-anchor="start" x="25.5" y="-59" font-family="Helvetica,sans-Serif" font-size="10.00">+</text>
<text text-anchor="start" x="38.5" y="-59" font-family="Helvetica,sans-Serif" font-size="10.00">void Read(string path,</text>
<text text-anchor="start" x="38.5" y="-48" font-family="Helvetica,sans-Serif" font-size="10.00"> byte[] buffer)</text>
<text text-anchor="start" x="25.5" y="-33" font-family="Helvetica,sans-Serif" font-size="10.00">+</text>
<text text-anchor="start" x="38.5" y="-33" font-family="Helvetica,sans-Serif" font-size="10.00">bool Write(string path,</text>
<text text-anchor="start" x="38.5" y="-22" font-family="Helvetica,sans-Serif" font-size="10.00"> byte[] data)</text>
<text text-anchor="start" x="25.5" y="-7" font-family="Helvetica,sans-Serif" font-size="10.00">#</text>
<text text-anchor="start" x="38.5" y="-7" font-family="Helvetica,sans-Serif" font-size="10.00">CloudSocialModule()</text>
<polygon fill="#666666" stroke="#666666" points="21.5,-322 21.5,-322 163.5,-322 163.5,-322 21.5,-322"/>
<polygon fill="#666666" stroke="#666666" points="21.5,-307 21.5,-307 163.5,-307 163.5,-307 21.5,-307"/>
<polygon fill="none" stroke="#666666" points="21.5,0 21.5,-350 163.5,-350 163.5,0 21.5,0"/>
</a>
</g>
</g>
<!-- Node2 -->
<g id="Node000002" class="node">
<title>Node2</title>
<g id="a_Node000002"><a xlink:href="../../d5/d3e/interfaceTerraria_1_1Social_1_1ISocialModule.html" target="_top" xlink:title=" ">
<polygon fill="white" stroke="transparent" points="101,-461 0,-461 0,-397 101,-397 101,-461"/>
<text text-anchor="start" x="16.5" y="-449" font-family="Helvetica,sans-Serif" font-size="10.00">ISocialModule</text>
<text text-anchor="start" x="49" y="-434" font-family="Helvetica,sans-Serif" font-size="10.00"> </text>
<text text-anchor="start" x="4.5" y="-419" font-family="Helvetica,sans-Serif" font-size="10.00">+</text>
<text text-anchor="start" x="17.5" y="-419" font-family="Helvetica,sans-Serif" font-size="10.00">void Initialize()</text>
<text text-anchor="start" x="4.5" y="-404" font-family="Helvetica,sans-Serif" font-size="10.00">+</text>
<text text-anchor="start" x="17.5" y="-404" font-family="Helvetica,sans-Serif" font-size="10.00">void Shutdown()</text>
<polygon fill="#666666" stroke="#666666" points="0.5,-444 0.5,-444 101.5,-444 101.5,-444 0.5,-444"/>
<polygon fill="#666666" stroke="#666666" points="0.5,-429 0.5,-429 101.5,-429 101.5,-429 0.5,-429"/>
<polygon fill="none" stroke="#666666" points="0,-397 0,-461 101,-461 101,-397 0,-397"/>
</a>
</g>
</g>
<!-- Node2&#45;&gt;Node1 -->
<g id="edge1_Node000001_Node000002" class="edge">
<title>Node2&#45;&gt;Node1</title>
<g id="a_edge1_Node000001_Node000002"><a xlink:title=" ">
<path fill="none" stroke="#63b8ff" d="M57.35,-386.89C59.17,-375.96 61.26,-363.45 63.49,-350.09"/>
<polygon fill="none" stroke="#63b8ff" points="53.88,-386.41 55.69,-396.85 60.79,-387.56 53.88,-386.41"/>
</a>
</g>
</g>
<!-- Node3 -->
<g id="Node000003" class="node">
<title>Node3</title>
<g id="a_Node000003"><a xlink:title=" ">
<polygon fill="white" stroke="transparent" points="151.5,-453.5 119.5,-453.5 119.5,-404.5 151.5,-404.5 151.5,-453.5"/>
<text text-anchor="start" x="124.5" y="-441" font-family="Helvetica,sans-Serif" font-size="10.00">bool</text>
<text text-anchor="start" x="133.5" y="-426" font-family="Helvetica,sans-Serif" font-size="10.00"> </text>
<text text-anchor="start" x="133.5" y="-411" font-family="Helvetica,sans-Serif" font-size="10.00"> </text>
<polygon fill="#666666" stroke="#666666" points="119.5,-436 119.5,-436 151.5,-436 151.5,-436 119.5,-436"/>
<polygon fill="#666666" stroke="#666666" points="119.5,-421 119.5,-421 151.5,-421 151.5,-421 119.5,-421"/>
<polygon fill="none" stroke="#666666" points="119.5,-404.5 119.5,-453.5 151.5,-453.5 151.5,-404.5 119.5,-404.5"/>
</a>
</g>
</g>
<!-- Node3&#45;&gt;Node1 -->
<g id="edge2_Node000001_Node000003" class="edge">
<title>Node3&#45;&gt;Node1</title>
<g id="a_edge2_Node000001_Node000003"><a xlink:title=" ">
<path fill="none" stroke="#63b8ff" d="M131.45,-404.29C129.54,-393.05 127.06,-378.51 124.27,-362.21"/>
<polygon fill="none" stroke="#63b8ff" points="124.22,-361.89 119.27,-356.65 122.2,-350.06 127.15,-355.3 124.22,-361.89"/>
</a>
</g>
<text text-anchor="middle" x="175.5" y="-371" font-family="Helvetica,sans-Serif" font-size="10.00" fill="grey"> +EnabledByDefault</text>
</g>
</g>
</svg>
