<?xml version="1.0" encoding="UTF-8" standalone="no"?>
<!DOCTYPE svg PUBLIC "-//W3C//DTD SVG 1.1//EN"
 "http://www.w3.org/Graphics/SVG/1.1/DTD/svg11.dtd">
<!-- Generated by graphviz version 2.43.0 (0)
 -->
<!-- Title: Newtonsoft.Json.Converters.DateTimeConverterBase Pages: 1 -->
<svg width="204pt" height="305pt"
 viewBox="0.00 0.00 204.00 305.00" xmlns="http://www.w3.org/2000/svg" xmlns:xlink="http://www.w3.org/1999/xlink">

<svg id="main" version="1.1" xmlns="http://www.w3.org/2000/svg" xmlns:xlink="http://www.w3.org/1999/xlink" xml:space="preserve" onload="init(evt)">
<style type="text/css"><![CDATA[
.node, .edge {opacity: 0.7;}
.node.selected, .edge.selected {opacity: 1;}
.edge:hover path { stroke: red; }
.edge:hover polygon { stroke: red; fill: red; }
]]></style>
<script type="application/ecmascript" xlink:href="../../svg.min.js"/>
<svg id="graph" class="graph">
<g id="graph0" class="graph" transform="scale(1 1) rotate(0) translate(4 301)">
<title>Newtonsoft.Json.Converters.DateTimeConverterBase</title>
<!-- Node1 -->
<g id="Node000001" class="node">
<title>Node1</title>
<g id="a_Node000001"><a xlink:title=" ">
<polygon fill="#999999" stroke="transparent" points="172.5,-86 23.5,-86 23.5,0 172.5,0 172.5,-86"/>
<text text-anchor="start" x="29" y="-74" font-family="Helvetica,sans-Serif" font-size="10.00">Newtonsoft.Json.Converters.</text>
<text text-anchor="start" x="38" y="-63" font-family="Helvetica,sans-Serif" font-size="10.00">DateTimeConverterBase</text>
<text text-anchor="start" x="96.5" y="-48" font-family="Helvetica,sans-Serif" font-size="10.00"> </text>
<text text-anchor="start" x="28" y="-33" font-family="Helvetica,sans-Serif" font-size="10.00">+</text>
<text text-anchor="start" x="41" y="-33" font-family="Helvetica,sans-Serif" font-size="10.00">override bool CanConvert</text>
<text text-anchor="start" x="41" y="-22" font-family="Helvetica,sans-Serif" font-size="10.00">(Type objectType)</text>
<text text-anchor="start" x="28" y="-7" font-family="Helvetica,sans-Serif" font-size="10.00">#</text>
<text text-anchor="start" x="41" y="-7" font-family="Helvetica,sans-Serif" font-size="10.00">DateTimeConverterBase()</text>
<polygon fill="#666666" stroke="#666666" points="24,-58 24,-58 173,-58 173,-58 24,-58"/>
<polygon fill="#666666" stroke="#666666" points="24,-43 24,-43 173,-43 173,-43 24,-43"/>
<polygon fill="none" stroke="#666666" points="23.5,0 23.5,-86 172.5,-86 172.5,0 23.5,0"/>
</a>
</g>
</g>
<!-- Node2 -->
<g id="Node000002" class="node">
<title>Node2</title>
<g id="a_Node000002"><a xlink:href="../../d1/d19/classNewtonsoft_1_1Json_1_1JsonConverter.html" target="_top" xlink:title=" ">
<polygon fill="white" stroke="transparent" points="196,-297 0,-297 0,-122 196,-122 196,-297"/>
<text text-anchor="start" x="63.5" y="-284.5" font-family="Helvetica,sans-Serif" font-size="10.00">JsonConverter</text>
<text text-anchor="start" x="4" y="-269.5" font-family="Helvetica,sans-Serif" font-size="10.00">+</text>
<text text-anchor="start" x="17" y="-269.5" font-family="Helvetica,sans-Serif" font-size="10.00">virtual bool CanRead</text>
<text text-anchor="start" x="4" y="-254.5" font-family="Helvetica,sans-Serif" font-size="10.00">+</text>
<text text-anchor="start" x="17" y="-254.5" font-family="Helvetica,sans-Serif" font-size="10.00">virtual bool CanWrite</text>
<text text-anchor="start" x="4" y="-239.5" font-family="Helvetica,sans-Serif" font-size="10.00">+</text>
<text text-anchor="start" x="17" y="-239.5" font-family="Helvetica,sans-Serif" font-size="10.00">void WriteJson(JsonWriter</text>
<text text-anchor="start" x="17" y="-228.5" font-family="Helvetica,sans-Serif" font-size="10.00"> writer, object value,</text>
<text text-anchor="start" x="17" y="-217.5" font-family="Helvetica,sans-Serif" font-size="10.00"> JsonSerializer serializer)</text>
<text text-anchor="start" x="4" y="-202.5" font-family="Helvetica,sans-Serif" font-size="10.00">+</text>
<text text-anchor="start" x="17" y="-202.5" font-family="Helvetica,sans-Serif" font-size="10.00">object ReadJson(JsonReader</text>
<text text-anchor="start" x="17" y="-191.5" font-family="Helvetica,sans-Serif" font-size="10.00"> reader, Type objectType,</text>
<text text-anchor="start" x="17" y="-180.5" font-family="Helvetica,sans-Serif" font-size="10.00"> object existingValue, JsonSerializer</text>
<text text-anchor="start" x="17" y="-169.5" font-family="Helvetica,sans-Serif" font-size="10.00"> serializer)</text>
<text text-anchor="start" x="4" y="-154.5" font-family="Helvetica,sans-Serif" font-size="10.00">+</text>
<text text-anchor="start" x="17" y="-154.5" font-family="Helvetica,sans-Serif" font-size="10.00">bool CanConvert(Type</text>
<text text-anchor="start" x="17" y="-143.5" font-family="Helvetica,sans-Serif" font-size="10.00"> objectType)</text>
<text text-anchor="start" x="4" y="-128.5" font-family="Helvetica,sans-Serif" font-size="10.00">#</text>
<text text-anchor="start" x="17" y="-128.5" font-family="Helvetica,sans-Serif" font-size="10.00">JsonConverter()</text>
<polygon fill="#666666" stroke="#666666" points="0,-279.5 0,-279.5 196,-279.5 196,-279.5 0,-279.5"/>
<polygon fill="#666666" stroke="#666666" points="0,-249.5 0,-249.5 15,-249.5 15,-249.5 0,-249.5"/>
<polygon fill="#666666" stroke="#666666" points="15,-249.5 15,-249.5 196,-249.5 196,-249.5 15,-249.5"/>
<polygon fill="none" stroke="#666666" points="0,-122 0,-297 196,-297 196,-122 0,-122"/>
</a>
</g>
</g>
<!-- Node2&#45;&gt;Node1 -->
<g id="edge1_Node000001_Node000002" class="edge">
<title>Node2&#45;&gt;Node1</title>
<g id="a_edge1_Node000001_Node000002"><a xlink:title=" ">
<path fill="none" stroke="#63b8ff" d="M98,-111.81C98,-102.92 98,-94.27 98,-86.28"/>
<polygon fill="none" stroke="#63b8ff" points="94.5,-111.91 98,-121.91 101.5,-111.91 94.5,-111.91"/>
</a>
</g>
</g>
</g>
</svg>
</svg>

<style type='text/css'>
<![CDATA[
[data-mouse-over-selected='false'] { opacity: 0.7; }
[data-mouse-over-selected='true']  { opacity: 1.0; }
]]>
</style>
<script type="application/ecmascript"><![CDATA[
document.addEventListener('DOMContentLoaded', (event) => {
  highlightEdges();
  highlightAdjacentNodes();
});
]]></script>
</svg>
