<?xml version="1.0" encoding="UTF-8" standalone="no"?>
<!DOCTYPE svg PUBLIC "-//W3C//DTD SVG 1.1//EN"
 "http://www.w3.org/Graphics/SVG/1.1/DTD/svg11.dtd">
<!-- Generated by graphviz version 2.43.0 (0)
 -->
<!-- Title: System.AttributeUsageAttribute Pages: 1 -->
<svg width="524pt" height="364pt"
 viewBox="0.00 0.00 524.00 364.00" xmlns="http://www.w3.org/2000/svg" xmlns:xlink="http://www.w3.org/1999/xlink">
<g id="graph0" class="graph" transform="scale(1 1) rotate(0) translate(4 360)">
<title>System.AttributeUsageAttribute</title>
<!-- Node1 -->
<g id="Node000001" class="node">
<title>Node1</title>
<g id="a_Node000001"><a xlink:title=" ">
<polygon fill="#999999" stroke="transparent" points="355.5,-101 176.5,-101 176.5,0 355.5,0 355.5,-101"/>
<text text-anchor="start" x="188" y="-88.5" font-family="Helvetica,sans-Serif" font-size="10.00">System.AttributeUsageAttribute</text>
<text text-anchor="start" x="181" y="-73.5" font-family="Helvetica,sans-Serif" font-size="10.00">+</text>
<text text-anchor="start" x="194" y="-73.5" font-family="Helvetica,sans-Serif" font-size="10.00">bool AllowMultiple</text>
<text text-anchor="start" x="181" y="-58.5" font-family="Helvetica,sans-Serif" font-size="10.00">+</text>
<text text-anchor="start" x="194" y="-58.5" font-family="Helvetica,sans-Serif" font-size="10.00">bool Inherited</text>
<text text-anchor="start" x="181" y="-43.5" font-family="Helvetica,sans-Serif" font-size="10.00">+</text>
<text text-anchor="start" x="194" y="-43.5" font-family="Helvetica,sans-Serif" font-size="10.00">AttributeUsageAttribute</text>
<text text-anchor="start" x="194" y="-32.5" font-family="Helvetica,sans-Serif" font-size="10.00">(global::System.AttributeTargets</text>
<text text-anchor="start" x="194" y="-21.5" font-family="Helvetica,sans-Serif" font-size="10.00"> validOn)</text>
<text text-anchor="start" x="183.5" y="-6.5" font-family="Helvetica,sans-Serif" font-size="10.00">&#45;</text>
<text text-anchor="start" x="194" y="-6.5" font-family="Helvetica,sans-Serif" font-size="10.00">static AttributeUsageAttribute()</text>
<polygon fill="#666666" stroke="#666666" points="177,-83.5 177,-83.5 356,-83.5 356,-83.5 177,-83.5"/>
<polygon fill="#666666" stroke="#666666" points="177,-53.5 177,-53.5 192,-53.5 192,-53.5 177,-53.5"/>
<polygon fill="#666666" stroke="#666666" points="192,-53.5 192,-53.5 356,-53.5 356,-53.5 192,-53.5"/>
<polygon fill="none" stroke="#666666" points="176.5,0 176.5,-101 355.5,-101 355.5,0 176.5,0"/>
</a>
</g>
</g>
<!-- Node2 -->
<g id="Node000002" class="node">
<title>Node2</title>
<g id="a_Node000002"><a xlink:title=" ">
<polygon fill="white" stroke="transparent" points="126,-356 0,-356 0,-307 126,-307 126,-356"/>
<text text-anchor="start" x="5" y="-343.5" font-family="Helvetica,sans-Serif" font-size="10.00">global::SystemAttribute</text>
<text text-anchor="start" x="61" y="-328.5" font-family="Helvetica,sans-Serif" font-size="10.00"> </text>
<text text-anchor="start" x="61" y="-313.5" font-family="Helvetica,sans-Serif" font-size="10.00"> </text>
<polygon fill="#666666" stroke="#666666" points="0,-338.5 0,-338.5 126,-338.5 126,-338.5 0,-338.5"/>
<polygon fill="#666666" stroke="#666666" points="0,-323.5 0,-323.5 126,-323.5 126,-323.5 0,-323.5"/>
<polygon fill="none" stroke="#666666" points="0,-307 0,-356 126,-356 126,-307 0,-307"/>
</a>
</g>
</g>
<!-- Node2&#45;&gt;Node1 -->
<g id="edge1_Node000001_Node000002" class="edge">
<title>Node2&#45;&gt;Node1</title>
<g id="a_edge1_Node000001_Node000002"><a xlink:title=" ">
<path fill="none" stroke="#63b8ff" d="M41.96,-297.91C19.79,-259.04 -7.95,-193.59 23,-148 57.16,-97.67 122.14,-73.59 176.31,-62.07"/>
<polygon fill="none" stroke="#63b8ff" points="39.06,-299.89 47.15,-306.73 45.09,-296.34 39.06,-299.89"/>
</a>
</g>
</g>
<!-- Node5 -->
<g id="Node000005" class="node">
<title>Node5</title>
<g id="a_Node000005"><a xlink:href="../../d7/df1/classSystem_1_1AttributeUsageAttribute.html" target="_top" xlink:title=" ">
<polygon fill="white" stroke="transparent" points="211.5,-249 32.5,-249 32.5,-148 211.5,-148 211.5,-249"/>
<text text-anchor="start" x="44" y="-236.5" font-family="Helvetica,sans-Serif" font-size="10.00">System.AttributeUsageAttribute</text>
<text text-anchor="start" x="37" y="-221.5" font-family="Helvetica,sans-Serif" font-size="10.00">+</text>
<text text-anchor="start" x="50" y="-221.5" font-family="Helvetica,sans-Serif" font-size="10.00">bool AllowMultiple</text>
<text text-anchor="start" x="37" y="-206.5" font-family="Helvetica,sans-Serif" font-size="10.00">+</text>
<text text-anchor="start" x="50" y="-206.5" font-family="Helvetica,sans-Serif" font-size="10.00">bool Inherited</text>
<text text-anchor="start" x="37" y="-191.5" font-family="Helvetica,sans-Serif" font-size="10.00">+</text>
<text text-anchor="start" x="50" y="-191.5" font-family="Helvetica,sans-Serif" font-size="10.00">AttributeUsageAttribute</text>
<text text-anchor="start" x="50" y="-180.5" font-family="Helvetica,sans-Serif" font-size="10.00">(global::System.AttributeTargets</text>
<text text-anchor="start" x="50" y="-169.5" font-family="Helvetica,sans-Serif" font-size="10.00"> validOn)</text>
<text text-anchor="start" x="39.5" y="-154.5" font-family="Helvetica,sans-Serif" font-size="10.00">&#45;</text>
<text text-anchor="start" x="50" y="-154.5" font-family="Helvetica,sans-Serif" font-size="10.00">static AttributeUsageAttribute()</text>
<polygon fill="#666666" stroke="#666666" points="33,-231.5 33,-231.5 212,-231.5 212,-231.5 33,-231.5"/>
<polygon fill="#666666" stroke="#666666" points="33,-201.5 33,-201.5 48,-201.5 48,-201.5 33,-201.5"/>
<polygon fill="#666666" stroke="#666666" points="48,-201.5 48,-201.5 212,-201.5 212,-201.5 48,-201.5"/>
<polygon fill="none" stroke="#666666" points="32.5,-148 32.5,-249 211.5,-249 211.5,-148 32.5,-148"/>
</a>
</g>
</g>
<!-- Node2&#45;&gt;Node5 -->
<g id="edge5_Node000005_Node000002" class="edge">
<title>Node2&#45;&gt;Node5</title>
<g id="a_edge5_Node000005_Node000002"><a xlink:title=" ">
<path fill="none" stroke="#63b8ff" d="M77.82,-297.6C84.43,-282.92 92.36,-265.32 99.66,-249.09"/>
<polygon fill="none" stroke="#63b8ff" points="74.6,-296.22 73.68,-306.78 80.98,-299.1 74.6,-296.22"/>
</a>
</g>
</g>
<!-- Node3 -->
<g id="Node000003" class="node">
<title>Node3</title>
<g id="a_Node000003"><a xlink:title=" ">
<polygon fill="white" stroke="transparent" points="459,-356 331,-356 331,-307 459,-307 459,-356"/>
<text text-anchor="start" x="336" y="-343.5" font-family="Helvetica,sans-Serif" font-size="10.00">System.AttributeTargets</text>
<text text-anchor="start" x="393" y="-328.5" font-family="Helvetica,sans-Serif" font-size="10.00"> </text>
<text text-anchor="start" x="393" y="-313.5" font-family="Helvetica,sans-Serif" font-size="10.00"> </text>
<polygon fill="#666666" stroke="#666666" points="331,-338.5 331,-338.5 459,-338.5 459,-338.5 331,-338.5"/>
<polygon fill="#666666" stroke="#666666" points="331,-323.5 331,-323.5 459,-323.5 459,-323.5 331,-323.5"/>
<polygon fill="none" stroke="#666666" points="331,-307 331,-356 459,-356 459,-307 331,-307"/>
</a>
</g>
</g>
<!-- Node3&#45;&gt;Node1 -->
<g id="edge2_Node000001_Node000003" class="edge">
<title>Node3&#45;&gt;Node1</title>
<g id="a_edge2_Node000001_Node000003"><a xlink:title=" ">
<path fill="none" stroke="#63b8ff" d="M417.56,-306.61C421.43,-301.2 424.89,-295.2 427,-289 443.66,-240.12 414.87,-194.12 382,-148 372.06,-134.05 359.62,-120.92 346.62,-109.12"/>
<polygon fill="none" stroke="#63b8ff" points="346.57,-109.08 339.42,-108.13 337.55,-101.16 344.69,-102.11 346.57,-109.08"/>
</a>
</g>
<text text-anchor="middle" x="473.5" y="-196" font-family="Helvetica,sans-Serif" font-size="10.00" fill="grey"> &#45;_attributeTarget</text>
</g>
<!-- Node3&#45;&gt;Node5 -->
<g id="edge6_Node000005_Node000003" class="edge">
<title>Node3&#45;&gt;Node5</title>
<g id="a_edge6_Node000005_Node000003"><a xlink:title=" ">
<path fill="none" stroke="#63b8ff" d="M364.7,-306.75C347.31,-293.86 324.68,-278.3 303,-267 277.89,-253.91 249.65,-242.11 223.08,-232.18"/>
<polygon fill="none" stroke="#63b8ff" points="223.08,-232.17 216.06,-233.86 211.81,-228.03 218.82,-226.35 223.08,-232.17"/>
</a>
</g>
<text text-anchor="middle" x="380.5" y="-275.5" font-family="Helvetica,sans-Serif" font-size="10.00" fill="grey"> &#45;_attributeTarget</text>
</g>
<!-- Node4 -->
<g id="Node000004" class="node">
<title>Node4</title>
<g id="a_Node000004"><a xlink:title=" ">
<polygon fill="white" stroke="transparent" points="282,-356 250,-356 250,-307 282,-307 282,-356"/>
<text text-anchor="start" x="255" y="-343.5" font-family="Helvetica,sans-Serif" font-size="10.00">bool</text>
<text text-anchor="start" x="264" y="-328.5" font-family="Helvetica,sans-Serif" font-size="10.00"> </text>
<text text-anchor="start" x="264" y="-313.5" font-family="Helvetica,sans-Serif" font-size="10.00"> </text>
<polygon fill="#666666" stroke="#666666" points="250,-338.5 250,-338.5 282,-338.5 282,-338.5 250,-338.5"/>
<polygon fill="#666666" stroke="#666666" points="250,-323.5 250,-323.5 282,-323.5 282,-323.5 250,-323.5"/>
<polygon fill="none" stroke="#666666" points="250,-307 250,-356 282,-356 282,-307 250,-307"/>
</a>
</g>
</g>
<!-- Node4&#45;&gt;Node1 -->
<g id="edge3_Node000001_Node000004" class="edge">
<title>Node4&#45;&gt;Node1</title>
<g id="a_edge3_Node000001_Node000004"><a xlink:title=" ">
<path fill="none" stroke="#63b8ff" d="M282.12,-315.97C289.04,-308.65 296.36,-299.17 300,-289 303.29,-279.79 300.57,-276.76 300,-267 296.88,-213.84 294.52,-200.57 286,-148 284.17,-136.72 281.93,-124.75 279.63,-113.23"/>
<polygon fill="none" stroke="#63b8ff" points="279.62,-113.19 274.5,-108.11 277.21,-101.43 282.34,-106.51 279.62,-113.19"/>
</a>
</g>
<text text-anchor="middle" x="338.5" y="-201.5" font-family="Helvetica,sans-Serif" font-size="10.00" fill="grey"> &#45;_allowMultiple</text>
<text text-anchor="middle" x="338.5" y="-190.5" font-family="Helvetica,sans-Serif" font-size="10.00" fill="grey">&#45;_inherited</text>
</g>
<!-- Node4&#45;&gt;Node5 -->
<g id="edge7_Node000005_Node000004" class="edge">
<title>Node4&#45;&gt;Node5</title>
<g id="a_edge7_Node000005_Node000004"><a xlink:title=" ">
<path fill="none" stroke="#63b8ff" d="M249.76,-315.73C234.04,-301.43 209.19,-278.82 185.56,-257.32"/>
<polygon fill="none" stroke="#63b8ff" points="185.47,-257.24 178.34,-256.16 176.59,-249.16 183.72,-250.24 185.47,-257.24"/>
</a>
</g>
<text text-anchor="middle" x="259.5" y="-281" font-family="Helvetica,sans-Serif" font-size="10.00" fill="grey"> &#45;_allowMultiple</text>
<text text-anchor="middle" x="259.5" y="-270" font-family="Helvetica,sans-Serif" font-size="10.00" fill="grey">&#45;_inherited</text>
</g>
<!-- Node5&#45;&gt;Node1 -->
<g id="edge4_Node000001_Node000005" class="edge">
<title>Node5&#45;&gt;Node1</title>
<g id="a_edge4_Node000001_Node000005"><a xlink:title=" ">
<path fill="none" stroke="#63b8ff" d="M171.15,-147.66C183.2,-135.45 196.2,-122.27 208.6,-109.7"/>
<polygon fill="none" stroke="#63b8ff" points="208.64,-109.66 210.01,-102.57 217.07,-101.11 215.7,-108.19 208.64,-109.66"/>
</a>
</g>
<text text-anchor="middle" x="223" y="-122" font-family="Helvetica,sans-Serif" font-size="10.00" fill="grey"> ~Default</text>
</g>
<!-- Node5&#45;&gt;Node5 -->
<g id="edge8_Node000005_Node000005" class="edge">
<title>Node5&#45;&gt;Node5</title>
<g id="a_edge8_Node000005_Node000005"><a xlink:title=" ">
<path fill="none" stroke="#63b8ff" d="M211.78,-210.42C222.5,-208.26 229.5,-204.28 229.5,-198.5 229.5,-195.25 227.29,-192.57 223.44,-190.46"/>
<polygon fill="none" stroke="#63b8ff" points="223.17,-190.37 216.21,-192.27 211.78,-186.58 218.74,-184.68 223.17,-190.37"/>
</a>
</g>
<text text-anchor="middle" x="253.5" y="-196" font-family="Helvetica,sans-Serif" font-size="10.00" fill="grey"> ~Default</text>
</g>
</g>
</svg>
