<?xml version="1.0" encoding="UTF-8" standalone="no"?>
<!DOCTYPE svg PUBLIC "-//W3C//DTD SVG 1.1//EN"
 "http://www.w3.org/Graphics/SVG/1.1/DTD/svg11.dtd">
<!-- Generated by graphviz version 2.43.0 (0)
 -->
<!-- Title: System.Runtime.Serialization.Formatters.Binary.PrimitiveArray Pages: 1 -->
<!--zoomable 238 -->

<svg id="main" version="1.1" xmlns="http://www.w3.org/2000/svg" xmlns:xlink="http://www.w3.org/1999/xlink" xml:space="preserve" onload="init(evt)">
<style type="text/css"><![CDATA[
.node, .edge {opacity: 0.7;}
.node.selected, .edge.selected {opacity: 1;}
.edge:hover path { stroke: red; }
.edge:hover polygon { stroke: red; fill: red; }
]]></style>

<defs>
  <circle id="rim" cx="0" cy="0" r="7"/>
  <circle id="rim2" cx="0" cy="0" r="3.5"/>
  <g id="zoomPlus">
    <use xlink:href="#rim" fill="#404040"><set attributeName="fill" to="#808080" begin="zoomplus.mouseover" end="zoomplus.mouseout"/></use>
    <path d="M-4,0h8M0,-4v8" fill="none" stroke="white" stroke-width="1.5" pointer-events="none"/>
  </g>
  <g id="zoomMin">
    <use xlink:href="#rim" fill="#404040"><set attributeName="fill" to="#808080" begin="zoomminus.mouseover" end="zoomminus.mouseout"/></use>
    <path d="M-4,0h8" fill="none" stroke="white" stroke-width="1.5" pointer-events="none"/>
  </g>
  <g id="arrowUp" transform="translate(30 24)">
    <use xlink:href="#rim"/>
    <path pointer-events="none" fill="none" stroke="white" stroke-width="1.5" d="M0,-3.0v7 M-2.5,-0.5L0,-3.0L2.5,-0.5"/>
  </g>
  <g id="arrowRight" transform="rotate(90) translate(36 -43)">
    <use xlink:href="#rim"/>
    <path pointer-events="none" fill="none" stroke="white" stroke-width="1.5" d="M0,-3.0v7 M-2.5,-0.5L0,-3.0L2.5,-0.5"/>
  </g>
  <g id="arrowDown" transform="rotate(180) translate(-30 -48)">
    <use xlink:href="#rim"/>
    <path pointer-events="none" fill="none" stroke="white" stroke-width="1.5" d="M0,-3.0v7 M-2.5,-0.5L0,-3.0L2.5,-0.5"/>
  </g>
  <g id="arrowLeft" transform="rotate(270) translate(-36 17)">
    <use xlink:href="#rim"/>
    <path pointer-events="none" fill="none" stroke="white" stroke-width="1.5" d="M0,-3.0v7 M-2.5,-0.5L0,-3.0L2.5,-0.5"/>
  </g>
  <g id="resetDef">
    <use xlink:href="#rim2" fill="#404040"><set attributeName="fill" to="#808080" begin="reset.mouseover" end="reset.mouseout"/></use>
  </g>
</defs>
<script type="application/ecmascript">
var viewWidth = 839;
var viewHeight = 238;
var sectionId = 'dynsection-0';
</script>
<script type="application/ecmascript" xlink:href="../../svg.min.js"/>
<svg id="graph" class="graph">
<g id="viewport">
<title>System.Runtime.Serialization.Formatters.Binary.PrimitiveArray</title>
<!-- Node1 -->
<g id="Node000001" class="node">
<title>Node1</title>
<g id="a_Node000001"><a xlink:title=" ">
<polygon fill="#999999" stroke="transparent" points="561,-134 344,-134 344,0 561,0 561,-134"/>
<text text-anchor="start" x="373" y="-122" font-family="Helvetica,sans-Serif" font-size="10.00">System.Runtime.Serialization.</text>
<text text-anchor="start" x="373" y="-111" font-family="Helvetica,sans-Serif" font-size="10.00">Formatters.Binary.PrimitiveArray</text>
<text text-anchor="start" x="451" y="-96" font-family="Helvetica,sans-Serif" font-size="10.00"> </text>
<text text-anchor="start" x="348.5" y="-81" font-family="Helvetica,sans-Serif" font-size="10.00">~</text>
<text text-anchor="start" x="361.5" y="-81" font-family="Helvetica,sans-Serif" font-size="10.00">PrimitiveArray(Internal</text>
<text text-anchor="start" x="361.5" y="-70" font-family="Helvetica,sans-Serif" font-size="10.00">PrimitiveTypeE code, global</text>
<text text-anchor="start" x="361.5" y="-59" font-family="Helvetica,sans-Serif" font-size="10.00">::System.Array array)</text>
<text text-anchor="start" x="348.5" y="-44" font-family="Helvetica,sans-Serif" font-size="10.00">~</text>
<text text-anchor="start" x="361.5" y="-44" font-family="Helvetica,sans-Serif" font-size="10.00">void Init(InternalPrimitive</text>
<text text-anchor="start" x="361.5" y="-33" font-family="Helvetica,sans-Serif" font-size="10.00">TypeE code, global::System.Array array)</text>
<text text-anchor="start" x="348.5" y="-18" font-family="Helvetica,sans-Serif" font-size="10.00">~</text>
<text text-anchor="start" x="361.5" y="-18" font-family="Helvetica,sans-Serif" font-size="10.00">void SetValue(string</text>
<text text-anchor="start" x="361.5" y="-7" font-family="Helvetica,sans-Serif" font-size="10.00"> value, int index)</text>
<polygon fill="#666666" stroke="#666666" points="344.5,-106 344.5,-106 561.5,-106 561.5,-106 344.5,-106"/>
<polygon fill="#666666" stroke="#666666" points="344.5,-91 344.5,-91 561.5,-91 561.5,-91 344.5,-91"/>
<polygon fill="none" stroke="#666666" points="344,0 344,-134 561,-134 561,0 344,0"/>
</a>
</g>
</g>
<!-- Node2 -->
<g id="Node000002" class="node">
<title>Node2</title>
<g id="a_Node000002"><a xlink:title=" ">
<polygon fill="white" stroke="transparent" points="121,-230 0,-230 0,-181 121,-181 121,-230"/>
<text text-anchor="start" x="5.5" y="-217.5" font-family="Helvetica,sans-Serif" font-size="10.00">InternalPrimitiveTypeE</text>
<text text-anchor="start" x="59" y="-202.5" font-family="Helvetica,sans-Serif" font-size="10.00"> </text>
<text text-anchor="start" x="59" y="-187.5" font-family="Helvetica,sans-Serif" font-size="10.00"> </text>
<polygon fill="#666666" stroke="#666666" points="0.5,-212.5 0.5,-212.5 121.5,-212.5 121.5,-212.5 0.5,-212.5"/>
<polygon fill="#666666" stroke="#666666" points="0.5,-197.5 0.5,-197.5 121.5,-197.5 121.5,-197.5 0.5,-197.5"/>
<polygon fill="none" stroke="#666666" points="0,-181 0,-230 121,-230 121,-181 0,-181"/>
</a>
</g>
</g>
<!-- Node2&#45;&gt;Node1 -->
<g id="edge1_Node000001_Node000002" class="edge">
<title>Node2&#45;&gt;Node1</title>
<g id="a_edge1_Node000001_Node000002"><a xlink:title=" ">
<path fill="none" stroke="#63b8ff" d="M99.22,-180.74C116.35,-170.92 136.99,-159.99 156.5,-152 212.69,-129 277.33,-109.87 331.85,-95.7"/>
<polygon fill="none" stroke="#63b8ff" points="332.05,-95.65 336.87,-90.28 343.68,-92.66 338.86,-98.03 332.05,-95.65"/>
</a>
</g>
<text text-anchor="middle" x="172" y="-155" font-family="Helvetica,sans-Serif" font-size="10.00" fill="grey"> &#45;code</text>
</g>
<!-- Node3 -->
<g id="Node000003" class="node">
<title>Node3</title>
<g id="a_Node000003"><a xlink:title=" ">
<polygon fill="white" stroke="transparent" points="171.5,-230 139.5,-230 139.5,-181 171.5,-181 171.5,-230"/>
<text text-anchor="start" x="144.5" y="-217.5" font-family="Helvetica,sans-Serif" font-size="10.00">bool</text>
<text text-anchor="start" x="153.5" y="-202.5" font-family="Helvetica,sans-Serif" font-size="10.00"> </text>
<text text-anchor="start" x="153.5" y="-187.5" font-family="Helvetica,sans-Serif" font-size="10.00"> </text>
<polygon fill="#666666" stroke="#666666" points="139.5,-212.5 139.5,-212.5 171.5,-212.5 171.5,-212.5 139.5,-212.5"/>
<polygon fill="#666666" stroke="#666666" points="139.5,-197.5 139.5,-197.5 171.5,-197.5 171.5,-197.5 139.5,-197.5"/>
<polygon fill="none" stroke="#666666" points="139.5,-181 139.5,-230 171.5,-230 171.5,-181 139.5,-181"/>
</a>
</g>
</g>
<!-- Node3&#45;&gt;Node1 -->
<g id="edge2_Node000001_Node000003" class="edge">
<title>Node3&#45;&gt;Node1</title>
<g id="a_edge2_Node000001_Node000003"><a xlink:title=" ">
<path fill="none" stroke="#63b8ff" d="M171.65,-182.66C180.38,-172.16 191.93,-160.11 204.5,-152 243.07,-127.1 289.8,-108.78 332.26,-95.71"/>
<polygon fill="none" stroke="#63b8ff" points="332.32,-95.69 336.92,-90.14 343.82,-92.25 339.22,-97.8 332.32,-95.69"/>
</a>
</g>
<text text-anchor="middle" x="231" y="-155" font-family="Helvetica,sans-Serif" font-size="10.00" fill="grey"> &#45;booleanA</text>
</g>
<!-- Node4 -->
<g id="Node000004" class="node">
<title>Node4</title>
<g id="a_Node000004"><a xlink:title=" ">
<polygon fill="white" stroke="transparent" points="247.5,-230 215.5,-230 215.5,-181 247.5,-181 247.5,-230"/>
<text text-anchor="start" x="220.5" y="-217.5" font-family="Helvetica,sans-Serif" font-size="10.00">char</text>
<text text-anchor="start" x="229.5" y="-202.5" font-family="Helvetica,sans-Serif" font-size="10.00"> </text>
<text text-anchor="start" x="229.5" y="-187.5" font-family="Helvetica,sans-Serif" font-size="10.00"> </text>
<polygon fill="#666666" stroke="#666666" points="215.5,-212.5 215.5,-212.5 247.5,-212.5 247.5,-212.5 215.5,-212.5"/>
<polygon fill="#666666" stroke="#666666" points="215.5,-197.5 215.5,-197.5 247.5,-197.5 247.5,-197.5 215.5,-197.5"/>
<polygon fill="none" stroke="#666666" points="215.5,-181 215.5,-230 247.5,-230 247.5,-181 215.5,-181"/>
</a>
</g>
</g>
<!-- Node4&#45;&gt;Node1 -->
<g id="edge3_Node000001_Node000004" class="edge">
<title>Node4&#45;&gt;Node1</title>
<g id="a_edge3_Node000001_Node000004"><a xlink:title=" ">
<path fill="none" stroke="#63b8ff" d="M246.39,-180.74C253.41,-170.93 262.46,-159.99 272.5,-152 290.74,-137.49 311.89,-124.78 333.15,-113.94"/>
<polygon fill="none" stroke="#63b8ff" points="333.16,-113.94 336.76,-107.69 343.92,-108.61 340.31,-114.86 333.16,-113.94"/>
</a>
</g>
<text text-anchor="middle" x="290" y="-155" font-family="Helvetica,sans-Serif" font-size="10.00" fill="grey"> &#45;charA</text>
</g>
<!-- Node5 -->
<g id="Node000005" class="node">
<title>Node5</title>
<g id="a_Node000005"><a xlink:title=" ">
<polygon fill="white" stroke="transparent" points="311.5,-230 267.5,-230 267.5,-181 311.5,-181 311.5,-230"/>
<text text-anchor="start" x="272.5" y="-217.5" font-family="Helvetica,sans-Serif" font-size="10.00">double</text>
<text text-anchor="start" x="287.5" y="-202.5" font-family="Helvetica,sans-Serif" font-size="10.00"> </text>
<text text-anchor="start" x="287.5" y="-187.5" font-family="Helvetica,sans-Serif" font-size="10.00"> </text>
<polygon fill="#666666" stroke="#666666" points="267.5,-212.5 267.5,-212.5 311.5,-212.5 311.5,-212.5 267.5,-212.5"/>
<polygon fill="#666666" stroke="#666666" points="267.5,-197.5 267.5,-197.5 311.5,-197.5 311.5,-197.5 267.5,-197.5"/>
<polygon fill="none" stroke="#666666" points="267.5,-181 267.5,-230 311.5,-230 311.5,-181 267.5,-181"/>
</a>
</g>
</g>
<!-- Node5&#45;&gt;Node1 -->
<g id="edge4_Node000001_Node000005" class="edge">
<title>Node5&#45;&gt;Node1</title>
<g id="a_edge4_Node000001_Node000005"><a xlink:title=" ">
<path fill="none" stroke="#63b8ff" d="M300.35,-180.92C305.54,-171.24 312.41,-160.37 320.5,-152 324.87,-147.48 329.53,-143.09 334.4,-138.84"/>
<polygon fill="none" stroke="#63b8ff" points="334.76,-138.54 336.8,-131.63 343.97,-130.86 341.93,-137.77 334.76,-138.54"/>
</a>
</g>
<text text-anchor="middle" x="344" y="-155" font-family="Helvetica,sans-Serif" font-size="10.00" fill="grey"> &#45;doubleA</text>
</g>
<!-- Node6 -->
<g id="Node000006" class="node">
<title>Node6</title>
<g id="a_Node000006"><a xlink:title=" ">
<polygon fill="white" stroke="transparent" points="377,-230 342,-230 342,-181 377,-181 377,-230"/>
<text text-anchor="start" x="347.5" y="-217.5" font-family="Helvetica,sans-Serif" font-size="10.00">short</text>
<text text-anchor="start" x="358" y="-202.5" font-family="Helvetica,sans-Serif" font-size="10.00"> </text>
<text text-anchor="start" x="358" y="-187.5" font-family="Helvetica,sans-Serif" font-size="10.00"> </text>
<polygon fill="#666666" stroke="#666666" points="342.5,-212.5 342.5,-212.5 377.5,-212.5 377.5,-212.5 342.5,-212.5"/>
<polygon fill="#666666" stroke="#666666" points="342.5,-197.5 342.5,-197.5 377.5,-197.5 377.5,-197.5 342.5,-197.5"/>
<polygon fill="none" stroke="#666666" points="342,-181 342,-230 377,-230 377,-181 342,-181"/>
</a>
</g>
</g>
<!-- Node6&#45;&gt;Node1 -->
<g id="edge5_Node000001_Node000006" class="edge">
<title>Node6&#45;&gt;Node1</title>
<g id="a_edge5_Node000001_Node000006"><a xlink:title=" ">
<path fill="none" stroke="#63b8ff" d="M365.4,-180.89C368.29,-171.53 372.29,-160.9 377.5,-152 379.06,-149.34 380.7,-146.69 382.43,-144.06"/>
<polygon fill="none" stroke="#63b8ff" points="382.56,-143.88 382.7,-136.67 389.41,-134.03 389.27,-141.24 382.56,-143.88"/>
</a>
</g>
<text text-anchor="middle" x="397" y="-155" font-family="Helvetica,sans-Serif" font-size="10.00" fill="grey"> &#45;int16A</text>
</g>
<!-- Node7 -->
<g id="Node000007" class="node">
<title>Node7</title>
<g id="a_Node000007"><a xlink:title=" ">
<polygon fill="white" stroke="transparent" points="433,-230 410,-230 410,-181 433,-181 433,-230"/>
<text text-anchor="start" x="415.5" y="-217.5" font-family="Helvetica,sans-Serif" font-size="10.00">int</text>
<text text-anchor="start" x="420" y="-202.5" font-family="Helvetica,sans-Serif" font-size="10.00"> </text>
<text text-anchor="start" x="420" y="-187.5" font-family="Helvetica,sans-Serif" font-size="10.00"> </text>
<polygon fill="#666666" stroke="#666666" points="410.5,-212.5 410.5,-212.5 433.5,-212.5 433.5,-212.5 410.5,-212.5"/>
<polygon fill="#666666" stroke="#666666" points="410.5,-197.5 410.5,-197.5 433.5,-197.5 433.5,-197.5 410.5,-197.5"/>
<polygon fill="none" stroke="#666666" points="410,-181 410,-230 433,-230 433,-181 410,-181"/>
</a>
</g>
</g>
<!-- Node7&#45;&gt;Node1 -->
<g id="edge6_Node000001_Node000007" class="edge">
<title>Node7&#45;&gt;Node1</title>
<g id="a_edge6_Node000001_Node000007"><a xlink:title=" ">
<path fill="none" stroke="#63b8ff" d="M420.33,-180.82C420.31,-171.74 420.79,-161.33 422.5,-152 422.85,-150.1 423.23,-148.19 423.65,-146.27"/>
<polygon fill="none" stroke="#63b8ff" points="423.7,-146.05 421.27,-139.27 426.59,-134.4 429.03,-141.19 423.7,-146.05"/>
</a>
</g>
<text text-anchor="middle" x="442" y="-155" font-family="Helvetica,sans-Serif" font-size="10.00" fill="grey"> &#45;int32A</text>
</g>
<!-- Node8 -->
<g id="Node000008" class="node">
<title>Node8</title>
<g id="a_Node000008"><a xlink:title=" ">
<polygon fill="white" stroke="transparent" points="499.5,-230 467.5,-230 467.5,-181 499.5,-181 499.5,-230"/>
<text text-anchor="start" x="472.5" y="-217.5" font-family="Helvetica,sans-Serif" font-size="10.00">long</text>
<text text-anchor="start" x="481.5" y="-202.5" font-family="Helvetica,sans-Serif" font-size="10.00"> </text>
<text text-anchor="start" x="481.5" y="-187.5" font-family="Helvetica,sans-Serif" font-size="10.00"> </text>
<polygon fill="#666666" stroke="#666666" points="467.5,-212.5 467.5,-212.5 499.5,-212.5 499.5,-212.5 467.5,-212.5"/>
<polygon fill="#666666" stroke="#666666" points="467.5,-197.5 467.5,-197.5 499.5,-197.5 499.5,-197.5 467.5,-197.5"/>
<polygon fill="none" stroke="#666666" points="467.5,-181 467.5,-230 499.5,-230 499.5,-181 467.5,-181"/>
</a>
</g>
</g>
<!-- Node8&#45;&gt;Node1 -->
<g id="edge7_Node000001_Node000008" class="edge">
<title>Node8&#45;&gt;Node1</title>
<g id="a_edge7_Node000001_Node000008"><a xlink:title=" ">
<path fill="none" stroke="#63b8ff" d="M478.1,-180.72C475.83,-170.72 473.05,-158.47 470.16,-145.76"/>
<polygon fill="none" stroke="#63b8ff" points="470.15,-145.72 464.92,-140.76 467.49,-134.02 472.72,-138.98 470.15,-145.72"/>
</a>
</g>
<text text-anchor="middle" x="492" y="-155" font-family="Helvetica,sans-Serif" font-size="10.00" fill="grey"> &#45;int64A</text>
</g>
<!-- Node9 -->
<g id="Node000009" class="node">
<title>Node9</title>
<g id="a_Node000009"><a xlink:title=" ">
<polygon fill="white" stroke="transparent" points="564.5,-230 526.5,-230 526.5,-181 564.5,-181 564.5,-230"/>
<text text-anchor="start" x="531.5" y="-217.5" font-family="Helvetica,sans-Serif" font-size="10.00">sbyte</text>
<text text-anchor="start" x="543.5" y="-202.5" font-family="Helvetica,sans-Serif" font-size="10.00"> </text>
<text text-anchor="start" x="543.5" y="-187.5" font-family="Helvetica,sans-Serif" font-size="10.00"> </text>
<polygon fill="#666666" stroke="#666666" points="526.5,-212.5 526.5,-212.5 564.5,-212.5 564.5,-212.5 526.5,-212.5"/>
<polygon fill="#666666" stroke="#666666" points="526.5,-197.5 526.5,-197.5 564.5,-197.5 564.5,-197.5 526.5,-197.5"/>
<polygon fill="none" stroke="#666666" points="526.5,-181 526.5,-230 564.5,-230 564.5,-181 526.5,-181"/>
</a>
</g>
</g>
<!-- Node9&#45;&gt;Node1 -->
<g id="edge8_Node000001_Node000009" class="edge">
<title>Node9&#45;&gt;Node1</title>
<g id="a_edge8_Node000001_Node000009"><a xlink:title=" ">
<path fill="none" stroke="#63b8ff" d="M532.82,-180.87C527.69,-171.7 521.55,-161.21 515.5,-152 513.84,-149.47 512.12,-146.91 510.37,-144.34"/>
<polygon fill="none" stroke="#63b8ff" points="510.32,-144.26 503.61,-141.61 503.47,-134.4 510.18,-137.05 510.32,-144.26"/>
</a>
</g>
<text text-anchor="middle" x="542" y="-155" font-family="Helvetica,sans-Serif" font-size="10.00" fill="grey"> &#45;sbyteA</text>
</g>
<!-- Node10 -->
<g id="Node000010" class="node">
<title>Node10</title>
<g id="a_Node000010"><a xlink:title=" ">
<polygon fill="white" stroke="transparent" points="625.5,-230 593.5,-230 593.5,-181 625.5,-181 625.5,-230"/>
<text text-anchor="start" x="598.5" y="-217.5" font-family="Helvetica,sans-Serif" font-size="10.00">float</text>
<text text-anchor="start" x="607.5" y="-202.5" font-family="Helvetica,sans-Serif" font-size="10.00"> </text>
<text text-anchor="start" x="607.5" y="-187.5" font-family="Helvetica,sans-Serif" font-size="10.00"> </text>
<polygon fill="#666666" stroke="#666666" points="593.5,-212.5 593.5,-212.5 625.5,-212.5 625.5,-212.5 593.5,-212.5"/>
<polygon fill="#666666" stroke="#666666" points="593.5,-197.5 593.5,-197.5 625.5,-197.5 625.5,-197.5 593.5,-197.5"/>
<polygon fill="none" stroke="#666666" points="593.5,-181 593.5,-230 625.5,-230 625.5,-181 593.5,-181"/>
</a>
</g>
</g>
<!-- Node10&#45;&gt;Node1 -->
<g id="edge9_Node000001_Node000010" class="edge">
<title>Node10&#45;&gt;Node1</title>
<g id="a_edge9_Node000001_Node000010"><a xlink:title=" ">
<path fill="none" stroke="#63b8ff" d="M593.47,-182.5C585.83,-172.67 576.24,-161.25 566.5,-152 563.04,-148.71 559.45,-145.44 555.77,-142.2"/>
<polygon fill="none" stroke="#63b8ff" points="555.56,-142.03 548.41,-141.16 546.45,-134.22 553.61,-135.09 555.56,-142.03"/>
</a>
</g>
<text text-anchor="middle" x="598" y="-155" font-family="Helvetica,sans-Serif" font-size="10.00" fill="grey"> &#45;singleA</text>
</g>
<!-- Node11 -->
<g id="Node000011" class="node">
<title>Node11</title>
<g id="a_Node000011"><a xlink:title=" ">
<polygon fill="white" stroke="transparent" points="696,-230 655,-230 655,-181 696,-181 696,-230"/>
<text text-anchor="start" x="660.5" y="-217.5" font-family="Helvetica,sans-Serif" font-size="10.00">ushort</text>
<text text-anchor="start" x="674" y="-202.5" font-family="Helvetica,sans-Serif" font-size="10.00"> </text>
<text text-anchor="start" x="674" y="-187.5" font-family="Helvetica,sans-Serif" font-size="10.00"> </text>
<polygon fill="#666666" stroke="#666666" points="655.5,-212.5 655.5,-212.5 696.5,-212.5 696.5,-212.5 655.5,-212.5"/>
<polygon fill="#666666" stroke="#666666" points="655.5,-197.5 655.5,-197.5 696.5,-197.5 696.5,-197.5 655.5,-197.5"/>
<polygon fill="none" stroke="#666666" points="655,-181 655,-230 696,-230 696,-181 655,-181"/>
</a>
</g>
</g>
<!-- Node11&#45;&gt;Node1 -->
<g id="edge10_Node000001_Node000011" class="edge">
<title>Node11&#45;&gt;Node1</title>
<g id="a_edge10_Node000001_Node000011"><a xlink:title=" ">
<path fill="none" stroke="#63b8ff" d="M655.23,-180.79C646.17,-171.09 634.96,-160.24 623.5,-152 607.52,-140.51 589.74,-129.83 571.85,-120.19"/>
<polygon fill="none" stroke="#63b8ff" points="571.63,-120.08 564.46,-120.82 561.01,-114.49 568.19,-113.75 571.63,-120.08"/>
</a>
</g>
<text text-anchor="middle" x="658" y="-155" font-family="Helvetica,sans-Serif" font-size="10.00" fill="grey"> &#45;uint16A</text>
</g>
<!-- Node12 -->
<g id="Node000012" class="node">
<title>Node12</title>
<g id="a_Node000012"><a xlink:title=" ">
<polygon fill="white" stroke="transparent" points="758,-230 729,-230 729,-181 758,-181 758,-230"/>
<text text-anchor="start" x="734.5" y="-217.5" font-family="Helvetica,sans-Serif" font-size="10.00">uint</text>
<text text-anchor="start" x="742" y="-202.5" font-family="Helvetica,sans-Serif" font-size="10.00"> </text>
<text text-anchor="start" x="742" y="-187.5" font-family="Helvetica,sans-Serif" font-size="10.00"> </text>
<polygon fill="#666666" stroke="#666666" points="729.5,-212.5 729.5,-212.5 758.5,-212.5 758.5,-212.5 729.5,-212.5"/>
<polygon fill="#666666" stroke="#666666" points="729.5,-197.5 729.5,-197.5 758.5,-197.5 758.5,-197.5 729.5,-197.5"/>
<polygon fill="none" stroke="#666666" points="729,-181 729,-230 758,-230 758,-181 729,-181"/>
</a>
</g>
</g>
<!-- Node12&#45;&gt;Node1 -->
<g id="edge11_Node000001_Node000012" class="edge">
<title>Node12&#45;&gt;Node1</title>
<g id="a_edge11_Node000001_Node000012"><a xlink:title=" ">
<path fill="none" stroke="#63b8ff" d="M728.77,-188.47C717.55,-177.03 701.23,-161.96 684.5,-152 650.07,-131.49 609.81,-114.75 572.59,-101.76"/>
<polygon fill="none" stroke="#63b8ff" points="572.5,-101.73 565.53,-103.58 561.14,-97.85 568.11,-96.01 572.5,-101.73"/>
</a>
</g>
<text text-anchor="middle" x="721" y="-155" font-family="Helvetica,sans-Serif" font-size="10.00" fill="grey"> &#45;uint32A</text>
</g>
<!-- Node13 -->
<g id="Node000013" class="node">
<title>Node13</title>
<g id="a_Node000013"><a xlink:href="../../d7/d2d/classulong.html" target="_top" xlink:title=" ">
<polygon fill="white" stroke="transparent" points="830.5,-230 792.5,-230 792.5,-181 830.5,-181 830.5,-230"/>
<text text-anchor="start" x="797.5" y="-217.5" font-family="Helvetica,sans-Serif" font-size="10.00">ulong</text>
<text text-anchor="start" x="809.5" y="-202.5" font-family="Helvetica,sans-Serif" font-size="10.00"> </text>
<text text-anchor="start" x="809.5" y="-187.5" font-family="Helvetica,sans-Serif" font-size="10.00"> </text>
<polygon fill="#666666" stroke="#666666" points="792.5,-212.5 792.5,-212.5 830.5,-212.5 830.5,-212.5 792.5,-212.5"/>
<polygon fill="#666666" stroke="#666666" points="792.5,-197.5 792.5,-197.5 830.5,-197.5 830.5,-197.5 792.5,-197.5"/>
<polygon fill="none" stroke="#666666" points="792.5,-181 792.5,-230 830.5,-230 830.5,-181 792.5,-181"/>
</a>
</g>
</g>
<!-- Node13&#45;&gt;Node1 -->
<g id="edge12_Node000001_Node000013" class="edge">
<title>Node13&#45;&gt;Node1</title>
<g id="a_edge12_Node000001_Node000013"><a xlink:title=" ">
<path fill="none" stroke="#63b8ff" d="M792.28,-185.16C780.3,-174.07 764.05,-160.66 747.5,-152 693.33,-123.64 628.4,-103.83 573.27,-90.59"/>
<polygon fill="none" stroke="#63b8ff" points="572.98,-90.52 566.23,-93.05 561.3,-87.78 568.05,-85.26 572.98,-90.52"/>
</a>
</g>
<text text-anchor="middle" x="787" y="-155" font-family="Helvetica,sans-Serif" font-size="10.00" fill="grey"> &#45;uint64A</text>
</g>
</g>
</svg>

<g id="navigator" transform="translate(0 0)" fill="#404254">
  <rect fill="#f2f5e9" fill-opacity="0.5" stroke="#606060" stroke-width=".5" x="0" y="0" width="60" height="60"/>
  <use id="zoomplus" xlink:href="#zoomPlus" x="17" y="9" onmousedown="handleZoom(evt,'in')"/>
  <use id="zoomminus" xlink:href="#zoomMin" x="42" y="9" onmousedown="handleZoom(evt,'out')"/>
  <use id="reset" xlink:href="#resetDef" x="30" y="36" onmousedown="handleReset()"/>
   <use id="arrowup" xlink:href="#arrowUp" x="0" y="0" onmousedown="handlePan(0,-1)"/>
  <use id="arrowright" xlink:href="#arrowRight" x="0" y="0" onmousedown="handlePan(1,0)"/>
  <use id="arrowdown" xlink:href="#arrowDown" x="0" y="0" onmousedown="handlePan(0,1)"/>
  <use id="arrowleft" xlink:href="#arrowLeft" x="0" y="0" onmousedown="handlePan(-1,0)"/>
</g>
<svg viewBox="0 0 15 15" width="100%" height="30px" preserveAspectRatio="xMaxYMin meet">
 <g id="arrow_out" transform="scale(0.3 0.3)">
  <a xlink:href="classSystem_1_1Runtime_1_1Serialization_1_1Formatters_1_1Binary_1_1PrimitiveArray__coll__graph_org.svg" target="_base">
   <rect id="button" ry="5" rx="5" y="6" x="6" height="38" width="38"
        fill="#f2f5e9" fill-opacity="0.5" stroke="#606060" stroke-width="1.0"/>
   <path id="arrow"
     d="M 11.500037,31.436501 C 11.940474,20.09759 22.043105,11.32322 32.158766,21.979434 L 37.068811,17.246167 C 37.068811,17.246167 37.088388,32 37.088388,32 L 22.160133,31.978069 C 22.160133,31.978069 26.997745,27.140456 26.997745,27.140456 C 18.528582,18.264221 13.291696,25.230495 11.500037,31.436501 z"
     style="fill:#404040;"/>
  </a>
 </g>
</svg>

<style type='text/css'>
<![CDATA[
[data-mouse-over-selected='false'] { opacity: 0.7; }
[data-mouse-over-selected='true']  { opacity: 1.0; }
]]>
</style>
<script type="application/ecmascript"><![CDATA[
document.addEventListener('DOMContentLoaded', (event) => {
  highlightEdges();
  highlightAdjacentNodes();
});
]]></script>
</svg>
