<?xml version="1.0" encoding="UTF-8" standalone="no"?>
<!DOCTYPE svg PUBLIC "-//W3C//DTD SVG 1.1//EN"
 "http://www.w3.org/Graphics/SVG/1.1/DTD/svg11.dtd">
<!-- Generated by graphviz version 2.43.0 (0)
 -->
<!-- Title: System.ComponentModel.Container Pages: 1 -->
<svg width="227pt" height="973pt"
 viewBox="0.00 0.00 227.00 973.00" xmlns="http://www.w3.org/2000/svg" xmlns:xlink="http://www.w3.org/1999/xlink">
<g id="graph0" class="graph" transform="scale(1 1) rotate(0) translate(4 969)">
<title>System.ComponentModel.Container</title>
<!-- Node1 -->
<g id="Node000001" class="node">
<title>Node1</title>
<g id="a_Node000001"><a xlink:title=" ">
<polygon fill="#999999" stroke="transparent" points="187,-721 0,-721 0,-263 187,-263 187,-721"/>
<text text-anchor="start" x="5.5" y="-709" font-family="Helvetica,sans-Serif" font-size="10.00">System.ComponentModel.Container</text>
<text text-anchor="start" x="7.5" y="-694" font-family="Helvetica,sans-Serif" font-size="10.00">+</text>
<text text-anchor="start" x="23.5" y="-694" font-family="Helvetica,sans-Serif" font-size="10.00">virtual ComponentCollection</text>
<text text-anchor="start" x="23.5" y="-683" font-family="Helvetica,sans-Serif" font-size="10.00"> Components</text>
<text text-anchor="start" x="10" y="-668" font-family="Helvetica,sans-Serif" font-size="10.00">&#45;</text>
<text text-anchor="start" x="23.5" y="-668" font-family="Helvetica,sans-Serif" font-size="10.00">ISite[] sites</text>
<text text-anchor="start" x="10" y="-653" font-family="Helvetica,sans-Serif" font-size="10.00">&#45;</text>
<text text-anchor="start" x="23.5" y="-653" font-family="Helvetica,sans-Serif" font-size="10.00">int siteCount</text>
<text text-anchor="start" x="10" y="-638" font-family="Helvetica,sans-Serif" font-size="10.00">&#45;</text>
<text text-anchor="start" x="23.5" y="-638" font-family="Helvetica,sans-Serif" font-size="10.00">ComponentCollection</text>
<text text-anchor="start" x="23.5" y="-627" font-family="Helvetica,sans-Serif" font-size="10.00"> components</text>
<text text-anchor="start" x="10" y="-612" font-family="Helvetica,sans-Serif" font-size="10.00">&#45;</text>
<text text-anchor="start" x="23.5" y="-612" font-family="Helvetica,sans-Serif" font-size="10.00">ContainerFilterService</text>
<text text-anchor="start" x="23.5" y="-601" font-family="Helvetica,sans-Serif" font-size="10.00"> filter</text>
<text text-anchor="start" x="10" y="-586" font-family="Helvetica,sans-Serif" font-size="10.00">&#45;</text>
<text text-anchor="start" x="23.5" y="-586" font-family="Helvetica,sans-Serif" font-size="10.00">bool checkedFilter</text>
<text text-anchor="start" x="10" y="-571" font-family="Helvetica,sans-Serif" font-size="10.00">&#45;</text>
<text text-anchor="start" x="23.5" y="-571" font-family="Helvetica,sans-Serif" font-size="10.00">object syncObj</text>
<text text-anchor="start" x="7.5" y="-556" font-family="Helvetica,sans-Serif" font-size="10.00">+</text>
<text text-anchor="start" x="23.5" y="-556" font-family="Helvetica,sans-Serif" font-size="10.00">virtual void Add(IComponent</text>
<text text-anchor="start" x="23.5" y="-545" font-family="Helvetica,sans-Serif" font-size="10.00"> component)</text>
<text text-anchor="start" x="7.5" y="-530" font-family="Helvetica,sans-Serif" font-size="10.00">+</text>
<text text-anchor="start" x="23.5" y="-530" font-family="Helvetica,sans-Serif" font-size="10.00">virtual void Add(IComponent</text>
<text text-anchor="start" x="23.5" y="-519" font-family="Helvetica,sans-Serif" font-size="10.00"> component, string name)</text>
<text text-anchor="start" x="7.5" y="-504" font-family="Helvetica,sans-Serif" font-size="10.00">+</text>
<text text-anchor="start" x="23.5" y="-504" font-family="Helvetica,sans-Serif" font-size="10.00">void Dispose()</text>
<text text-anchor="start" x="7.5" y="-489" font-family="Helvetica,sans-Serif" font-size="10.00">+</text>
<text text-anchor="start" x="23.5" y="-489" font-family="Helvetica,sans-Serif" font-size="10.00">virtual void Remove</text>
<text text-anchor="start" x="23.5" y="-478" font-family="Helvetica,sans-Serif" font-size="10.00">(IComponent component)</text>
<text text-anchor="start" x="7.5" y="-463" font-family="Helvetica,sans-Serif" font-size="10.00">+</text>
<text text-anchor="start" x="23.5" y="-463" font-family="Helvetica,sans-Serif" font-size="10.00">Container()</text>
<text text-anchor="start" x="7.5" y="-448" font-family="Helvetica,sans-Serif" font-size="10.00">#</text>
<text text-anchor="start" x="23.5" y="-448" font-family="Helvetica,sans-Serif" font-size="10.00">override void Finalize()</text>
<text text-anchor="start" x="7.5" y="-433" font-family="Helvetica,sans-Serif" font-size="10.00">#</text>
<text text-anchor="start" x="23.5" y="-433" font-family="Helvetica,sans-Serif" font-size="10.00">virtual ISite CreateSite</text>
<text text-anchor="start" x="23.5" y="-422" font-family="Helvetica,sans-Serif" font-size="10.00">(IComponent component,</text>
<text text-anchor="start" x="23.5" y="-411" font-family="Helvetica,sans-Serif" font-size="10.00"> string name)</text>
<text text-anchor="start" x="7.5" y="-396" font-family="Helvetica,sans-Serif" font-size="10.00">#</text>
<text text-anchor="start" x="23.5" y="-396" font-family="Helvetica,sans-Serif" font-size="10.00">virtual void Dispose</text>
<text text-anchor="start" x="23.5" y="-385" font-family="Helvetica,sans-Serif" font-size="10.00">(bool disposing)</text>
<text text-anchor="start" x="7.5" y="-370" font-family="Helvetica,sans-Serif" font-size="10.00">#</text>
<text text-anchor="start" x="23.5" y="-370" font-family="Helvetica,sans-Serif" font-size="10.00">virtual object GetService</text>
<text text-anchor="start" x="23.5" y="-359" font-family="Helvetica,sans-Serif" font-size="10.00">(Type service)</text>
<text text-anchor="start" x="7.5" y="-344" font-family="Helvetica,sans-Serif" font-size="10.00">#</text>
<text text-anchor="start" x="23.5" y="-344" font-family="Helvetica,sans-Serif" font-size="10.00">void RemoveWithoutUnsiting</text>
<text text-anchor="start" x="23.5" y="-333" font-family="Helvetica,sans-Serif" font-size="10.00">(IComponent component)</text>
<text text-anchor="start" x="7.5" y="-318" font-family="Helvetica,sans-Serif" font-size="10.00">#</text>
<text text-anchor="start" x="23.5" y="-318" font-family="Helvetica,sans-Serif" font-size="10.00">virtual void ValidateName</text>
<text text-anchor="start" x="23.5" y="-307" font-family="Helvetica,sans-Serif" font-size="10.00">(IComponent component,</text>
<text text-anchor="start" x="23.5" y="-296" font-family="Helvetica,sans-Serif" font-size="10.00"> string name)</text>
<text text-anchor="start" x="10" y="-281" font-family="Helvetica,sans-Serif" font-size="10.00">&#45;</text>
<text text-anchor="start" x="23.5" y="-281" font-family="Helvetica,sans-Serif" font-size="10.00">void Remove(IComponent</text>
<text text-anchor="start" x="23.5" y="-270" font-family="Helvetica,sans-Serif" font-size="10.00"> component, bool preserveSite)</text>
<polygon fill="#666666" stroke="#666666" points="0.5,-704 0.5,-704 187.5,-704 187.5,-704 0.5,-704"/>
<polygon fill="#666666" stroke="#666666" points="0.5,-566 0.5,-566 21.5,-566 21.5,-566 0.5,-566"/>
<polygon fill="#666666" stroke="#666666" points="21.5,-566 21.5,-566 187.5,-566 187.5,-566 21.5,-566"/>
<polygon fill="none" stroke="#666666" points="0,-263 0,-721 187,-721 187,-263 0,-263"/>
</a>
</g>
</g>
<!-- Node4 -->
<g id="Node000004" class="node">
<title>Node4</title>
<g id="a_Node000004"><a xlink:href="../../dd/d2a/classSystem_1_1ComponentModel_1_1NestedContainer.html" target="_top" xlink:title=" ">
<polygon fill="white" stroke="transparent" points="180.5,-227 6.5,-227 6.5,0 180.5,0 180.5,-227"/>
<text text-anchor="start" x="11.5" y="-214.5" font-family="Helvetica,sans-Serif" font-size="10.00">System.ComponentModel.Nested</text>
<text text-anchor="start" x="69.5" y="-203.5" font-family="Helvetica,sans-Serif" font-size="10.00">Container</text>
<text text-anchor="start" x="12.5" y="-188.5" font-family="Helvetica,sans-Serif" font-size="10.00">+</text>
<text text-anchor="start" x="27.5" y="-188.5" font-family="Helvetica,sans-Serif" font-size="10.00">IComponent Owner</text>
<text text-anchor="start" x="12.5" y="-173.5" font-family="Helvetica,sans-Serif" font-size="10.00">+</text>
<text text-anchor="start" x="27.5" y="-173.5" font-family="Helvetica,sans-Serif" font-size="10.00">virtual string OwnerName</text>
<text text-anchor="start" x="15" y="-158.5" font-family="Helvetica,sans-Serif" font-size="10.00">&#45;</text>
<text text-anchor="start" x="27.5" y="-158.5" font-family="Helvetica,sans-Serif" font-size="10.00">readonly IComponent</text>
<text text-anchor="start" x="27.5" y="-147.5" font-family="Helvetica,sans-Serif" font-size="10.00">&lt; Owner &gt; k__BackingField</text>
<text text-anchor="start" x="12.5" y="-132.5" font-family="Helvetica,sans-Serif" font-size="10.00">+</text>
<text text-anchor="start" x="27.5" y="-132.5" font-family="Helvetica,sans-Serif" font-size="10.00">NestedContainer(IComponent</text>
<text text-anchor="start" x="27.5" y="-121.5" font-family="Helvetica,sans-Serif" font-size="10.00"> owner)</text>
<text text-anchor="start" x="12.5" y="-106.5" font-family="Helvetica,sans-Serif" font-size="10.00">#</text>
<text text-anchor="start" x="27.5" y="-106.5" font-family="Helvetica,sans-Serif" font-size="10.00">override ISite CreateSite</text>
<text text-anchor="start" x="27.5" y="-95.5" font-family="Helvetica,sans-Serif" font-size="10.00">(IComponent component,</text>
<text text-anchor="start" x="27.5" y="-84.5" font-family="Helvetica,sans-Serif" font-size="10.00"> string name)</text>
<text text-anchor="start" x="12.5" y="-69.5" font-family="Helvetica,sans-Serif" font-size="10.00">#</text>
<text text-anchor="start" x="27.5" y="-69.5" font-family="Helvetica,sans-Serif" font-size="10.00">override void Dispose</text>
<text text-anchor="start" x="27.5" y="-58.5" font-family="Helvetica,sans-Serif" font-size="10.00">(bool disposing)</text>
<text text-anchor="start" x="12.5" y="-43.5" font-family="Helvetica,sans-Serif" font-size="10.00">#</text>
<text text-anchor="start" x="27.5" y="-43.5" font-family="Helvetica,sans-Serif" font-size="10.00">override object GetService</text>
<text text-anchor="start" x="27.5" y="-32.5" font-family="Helvetica,sans-Serif" font-size="10.00">(Type service)</text>
<text text-anchor="start" x="15" y="-17.5" font-family="Helvetica,sans-Serif" font-size="10.00">&#45;</text>
<text text-anchor="start" x="27.5" y="-17.5" font-family="Helvetica,sans-Serif" font-size="10.00">void OnOwnerDisposed</text>
<text text-anchor="start" x="27.5" y="-6.5" font-family="Helvetica,sans-Serif" font-size="10.00">(object sender, EventArgs e)</text>
<polygon fill="#666666" stroke="#666666" points="6.5,-198.5 6.5,-198.5 180.5,-198.5 180.5,-198.5 6.5,-198.5"/>
<polygon fill="#666666" stroke="#666666" points="6.5,-142.5 6.5,-142.5 25.5,-142.5 25.5,-142.5 6.5,-142.5"/>
<polygon fill="#666666" stroke="#666666" points="25.5,-142.5 25.5,-142.5 180.5,-142.5 180.5,-142.5 25.5,-142.5"/>
<polygon fill="none" stroke="#666666" points="6.5,0 6.5,-227 180.5,-227 180.5,0 6.5,0"/>
</a>
</g>
</g>
<!-- Node1&#45;&gt;Node4 -->
<g id="edge4_Node000001_Node000004" class="edge">
<title>Node1&#45;&gt;Node4</title>
<g id="a_edge4_Node000001_Node000004"><a xlink:title=" ">
<path fill="none" stroke="#63b8ff" d="M93.5,-252.53C93.5,-243.87 93.5,-235.36 93.5,-227.09"/>
<polygon fill="none" stroke="#63b8ff" points="90,-252.76 93.5,-262.76 97,-252.76 90,-252.76"/>
</a>
</g>
</g>
<!-- Node2 -->
<g id="Node000002" class="node">
<title>Node2</title>
<g id="a_Node000002"><a xlink:href="../../dc/d88/interfaceSystem_1_1ComponentModel_1_1IContainer.html" target="_top" xlink:title=" ">
<polygon fill="white" stroke="transparent" points="219,-880 70,-880 70,-757 219,-757 219,-880"/>
<text text-anchor="start" x="119.5" y="-867.5" font-family="Helvetica,sans-Serif" font-size="10.00">IContainer</text>
<text text-anchor="start" x="74.5" y="-852.5" font-family="Helvetica,sans-Serif" font-size="10.00">+</text>
<text text-anchor="start" x="87.5" y="-852.5" font-family="Helvetica,sans-Serif" font-size="10.00">ComponentCollection</text>
<text text-anchor="start" x="87.5" y="-841.5" font-family="Helvetica,sans-Serif" font-size="10.00"> Components</text>
<text text-anchor="start" x="74.5" y="-826.5" font-family="Helvetica,sans-Serif" font-size="10.00">+</text>
<text text-anchor="start" x="87.5" y="-826.5" font-family="Helvetica,sans-Serif" font-size="10.00">void Add(IComponent</text>
<text text-anchor="start" x="87.5" y="-815.5" font-family="Helvetica,sans-Serif" font-size="10.00"> component)</text>
<text text-anchor="start" x="74.5" y="-800.5" font-family="Helvetica,sans-Serif" font-size="10.00">+</text>
<text text-anchor="start" x="87.5" y="-800.5" font-family="Helvetica,sans-Serif" font-size="10.00">void Add(IComponent</text>
<text text-anchor="start" x="87.5" y="-789.5" font-family="Helvetica,sans-Serif" font-size="10.00"> component, string name)</text>
<text text-anchor="start" x="74.5" y="-774.5" font-family="Helvetica,sans-Serif" font-size="10.00">+</text>
<text text-anchor="start" x="87.5" y="-774.5" font-family="Helvetica,sans-Serif" font-size="10.00">void Remove(IComponent</text>
<text text-anchor="start" x="87.5" y="-763.5" font-family="Helvetica,sans-Serif" font-size="10.00"> component)</text>
<polygon fill="#666666" stroke="#666666" points="70.5,-862.5 70.5,-862.5 219.5,-862.5 219.5,-862.5 70.5,-862.5"/>
<polygon fill="#666666" stroke="#666666" points="70.5,-836.5 70.5,-836.5 85.5,-836.5 85.5,-836.5 70.5,-836.5"/>
<polygon fill="#666666" stroke="#666666" points="85.5,-836.5 85.5,-836.5 219.5,-836.5 219.5,-836.5 85.5,-836.5"/>
<polygon fill="none" stroke="#666666" points="70,-757 70,-880 219,-880 219,-757 70,-757"/>
</a>
</g>
</g>
<!-- Node2&#45;&gt;Node1 -->
<g id="edge1_Node000001_Node000002" class="edge">
<title>Node2&#45;&gt;Node1</title>
<g id="a_edge1_Node000001_Node000002"><a xlink:title=" ">
<path fill="none" stroke="#63b8ff" d="M133.38,-746.78C132.1,-738.63 130.75,-730.02 129.35,-721.09"/>
<polygon fill="none" stroke="#63b8ff" points="129.96,-747.51 134.97,-756.84 136.87,-746.42 129.96,-747.51"/>
</a>
</g>
</g>
<!-- Node3 -->
<g id="Node000003" class="node">
<title>Node3</title>
<g id="a_Node000003"><a xlink:href="../../d6/d32/interfaceSystem_1_1IDisposable.html" target="_top" xlink:title=" ">
<polygon fill="white" stroke="transparent" points="139.5,-965 47.5,-965 47.5,-916 139.5,-916 139.5,-965"/>
<text text-anchor="start" x="64.5" y="-952.5" font-family="Helvetica,sans-Serif" font-size="10.00">IDisposable</text>
<text text-anchor="start" x="91.5" y="-937.5" font-family="Helvetica,sans-Serif" font-size="10.00"> </text>
<text text-anchor="start" x="51.5" y="-922.5" font-family="Helvetica,sans-Serif" font-size="10.00">+</text>
<text text-anchor="start" x="64.5" y="-922.5" font-family="Helvetica,sans-Serif" font-size="10.00">void Dispose()</text>
<polygon fill="#666666" stroke="#666666" points="47.5,-947.5 47.5,-947.5 139.5,-947.5 139.5,-947.5 47.5,-947.5"/>
<polygon fill="#666666" stroke="#666666" points="47.5,-932.5 47.5,-932.5 139.5,-932.5 139.5,-932.5 47.5,-932.5"/>
<polygon fill="none" stroke="#666666" points="47.5,-916 47.5,-965 139.5,-965 139.5,-916 47.5,-916"/>
</a>
</g>
</g>
<!-- Node3&#45;&gt;Node1 -->
<g id="edge3_Node000001_Node000003" class="edge">
<title>Node3&#45;&gt;Node1</title>
<g id="a_edge3_Node000001_Node000003"><a xlink:title=" ">
<path fill="none" stroke="#63b8ff" d="M72.3,-906.95C67.85,-898.5 63.81,-889.19 61.5,-880 48.74,-829.33 46.64,-773.88 49.91,-721.17"/>
<polygon fill="none" stroke="#63b8ff" points="69.28,-908.71 77.22,-915.72 75.38,-905.29 69.28,-908.71"/>
</a>
</g>
</g>
<!-- Node3&#45;&gt;Node2 -->
<g id="edge2_Node000002_Node000003" class="edge">
<title>Node3&#45;&gt;Node2</title>
<g id="a_edge2_Node000002_Node000003"><a xlink:title=" ">
<path fill="none" stroke="#63b8ff" d="M107.6,-906.33C111.06,-898.19 114.87,-889.22 118.69,-880.22"/>
<polygon fill="none" stroke="#63b8ff" points="104.27,-905.22 103.58,-915.79 110.71,-907.96 104.27,-905.22"/>
</a>
</g>
</g>
</g>
</svg>
