<?xml version="1.0" encoding="UTF-8" standalone="no"?>
<!DOCTYPE svg PUBLIC "-//W3C//DTD SVG 1.1//EN"
 "http://www.w3.org/Graphics/SVG/1.1/DTD/svg11.dtd">
<!-- Generated by graphviz version 2.43.0 (0)
 -->
<!-- Title: System.Net.NetworkInformation.AixStructs.ifreq_flags.e__FixedBuffer Pages: 1 -->
<svg width="195pt" height="175pt"
 viewBox="0.00 0.00 195.00 175.00" xmlns="http://www.w3.org/2000/svg" xmlns:xlink="http://www.w3.org/1999/xlink">
<g id="graph0" class="graph" transform="scale(1 1) rotate(0) translate(4 171)">
<title>System.Net.NetworkInformation.AixStructs.ifreq_flags.e__FixedBuffer</title>
<!-- Node1 -->
<g id="Node000001" class="node">
<title>Node1</title>
<g id="a_Node000001"><a xlink:title=" ">
<polygon fill="#999999" stroke="transparent" points="172,-71 0,-71 0,0 172,0 172,-71"/>
<text text-anchor="start" x="5" y="-58.5" font-family="Helvetica,sans-Serif" font-size="10.00">System.Net.NetworkInformation.</text>
<text text-anchor="start" x="5" y="-47.5" font-family="Helvetica,sans-Serif" font-size="10.00">AixStructs.ifreq_flags.e</text>
<text text-anchor="start" x="53" y="-36.5" font-family="Helvetica,sans-Serif" font-size="10.00">__FixedBuffer</text>
<text text-anchor="start" x="84" y="-21.5" font-family="Helvetica,sans-Serif" font-size="10.00"> </text>
<text text-anchor="start" x="84" y="-6.5" font-family="Helvetica,sans-Serif" font-size="10.00"> </text>
<polygon fill="#666666" stroke="#666666" points="0,-31.5 0,-31.5 172,-31.5 172,-31.5 0,-31.5"/>
<polygon fill="#666666" stroke="#666666" points="0,-16.5 0,-16.5 172,-16.5 172,-16.5 0,-16.5"/>
<polygon fill="none" stroke="#666666" points="0,0 0,-71 172,-71 172,0 0,0"/>
</a>
</g>
</g>
<!-- Node2 -->
<g id="Node000002" class="node">
<title>Node2</title>
<g id="a_Node000002"><a xlink:title=" ">
<polygon fill="white" stroke="transparent" points="102,-167 70,-167 70,-118 102,-118 102,-167"/>
<text text-anchor="start" x="75" y="-154.5" font-family="Helvetica,sans-Serif" font-size="10.00">byte</text>
<text text-anchor="start" x="84" y="-139.5" font-family="Helvetica,sans-Serif" font-size="10.00"> </text>
<text text-anchor="start" x="84" y="-124.5" font-family="Helvetica,sans-Serif" font-size="10.00"> </text>
<polygon fill="#666666" stroke="#666666" points="70,-149.5 70,-149.5 102,-149.5 102,-149.5 70,-149.5"/>
<polygon fill="#666666" stroke="#666666" points="70,-134.5 70,-134.5 102,-134.5 102,-134.5 70,-134.5"/>
<polygon fill="none" stroke="#666666" points="70,-118 70,-167 102,-167 102,-118 70,-118"/>
</a>
</g>
</g>
<!-- Node2&#45;&gt;Node1 -->
<g id="edge1_Node000001_Node000002" class="edge">
<title>Node2&#45;&gt;Node1</title>
<g id="a_edge1_Node000001_Node000002"><a xlink:title=" ">
<path fill="none" stroke="#63b8ff" d="M86,-117.94C86,-107.7 86,-95.34 86,-83.37"/>
<polygon fill="none" stroke="#63b8ff" points="86,-83.15 82,-77.15 86,-71.15 90,-77.15 86,-83.15"/>
</a>
</g>
<text text-anchor="middle" x="136.5" y="-92" font-family="Helvetica,sans-Serif" font-size="10.00" fill="grey"> +FixedElementField</text>
</g>
</g>
</svg>
