<?xml version="1.0" encoding="UTF-8" standalone="no"?>
<!DOCTYPE svg PUBLIC "-//W3C//DTD SVG 1.1//EN"
 "http://www.w3.org/Graphics/SVG/1.1/DTD/svg11.dtd">
<!-- Generated by graphviz version 2.43.0 (0)
 -->
<!-- Title: Terraria.Social.Base.WorkshopIssueReporter Pages: 1 -->
<svg width="306pt" height="461pt"
 viewBox="0.00 0.00 305.50 461.00" xmlns="http://www.w3.org/2000/svg" xmlns:xlink="http://www.w3.org/1999/xlink">
<g id="graph0" class="graph" transform="scale(1 1) rotate(0) translate(4 457)">
<title>Terraria.Social.Base.WorkshopIssueReporter</title>
<!-- Node1 -->
<g id="Node000001" class="node">
<title>Node1</title>
<g id="a_Node000001"><a xlink:title=" ">
<polygon fill="#999999" stroke="transparent" points="245.5,-346 51.5,-346 51.5,0 245.5,0 245.5,-346"/>
<text text-anchor="start" x="74.5" y="-334" font-family="Helvetica,sans-Serif" font-size="10.00">Terraria.Social.Base.Workshop</text>
<text text-anchor="start" x="114.5" y="-323" font-family="Helvetica,sans-Serif" font-size="10.00">IssueReporter</text>
<text text-anchor="start" x="55.5" y="-308" font-family="Helvetica,sans-Serif" font-size="10.00">+</text>
<text text-anchor="start" x="68.5" y="-308" font-family="Helvetica,sans-Serif" font-size="10.00">Action OnNeedToOpenUI</text>
<text text-anchor="start" x="55.5" y="-293" font-family="Helvetica,sans-Serif" font-size="10.00">+</text>
<text text-anchor="start" x="68.5" y="-293" font-family="Helvetica,sans-Serif" font-size="10.00">Action OnNeedToNotifyUI</text>
<text text-anchor="start" x="55.5" y="-278" font-family="Helvetica,sans-Serif" font-size="10.00">+</text>
<text text-anchor="start" x="68.5" y="-278" font-family="Helvetica,sans-Serif" font-size="10.00">List&lt; IssueReport &gt;</text>
<text text-anchor="start" x="68.5" y="-267" font-family="Helvetica,sans-Serif" font-size="10.00"> GetReports()</text>
<text text-anchor="start" x="55.5" y="-252" font-family="Helvetica,sans-Serif" font-size="10.00">+</text>
<text text-anchor="start" x="68.5" y="-252" font-family="Helvetica,sans-Serif" font-size="10.00">void ReportInstantUpload</text>
<text text-anchor="start" x="68.5" y="-241" font-family="Helvetica,sans-Serif" font-size="10.00">Problem(string textKey)</text>
<text text-anchor="start" x="55.5" y="-226" font-family="Helvetica,sans-Serif" font-size="10.00">+</text>
<text text-anchor="start" x="68.5" y="-226" font-family="Helvetica,sans-Serif" font-size="10.00">void ReportInstantUpload</text>
<text text-anchor="start" x="68.5" y="-215" font-family="Helvetica,sans-Serif" font-size="10.00">ProblemFromValue(string text)</text>
<text text-anchor="start" x="55.5" y="-200" font-family="Helvetica,sans-Serif" font-size="10.00">+</text>
<text text-anchor="start" x="68.5" y="-200" font-family="Helvetica,sans-Serif" font-size="10.00">void ReportDelayedUpload</text>
<text text-anchor="start" x="68.5" y="-189" font-family="Helvetica,sans-Serif" font-size="10.00">Problem(string textKey)</text>
<text text-anchor="start" x="55.5" y="-174" font-family="Helvetica,sans-Serif" font-size="10.00">+</text>
<text text-anchor="start" x="68.5" y="-174" font-family="Helvetica,sans-Serif" font-size="10.00">void ReportDelayedUpload</text>
<text text-anchor="start" x="68.5" y="-163" font-family="Helvetica,sans-Serif" font-size="10.00">ProblemWithoutKnownReason</text>
<text text-anchor="start" x="68.5" y="-152" font-family="Helvetica,sans-Serif" font-size="10.00">(string textKey, string reasonValue)</text>
<text text-anchor="start" x="55.5" y="-137" font-family="Helvetica,sans-Serif" font-size="10.00">+</text>
<text text-anchor="start" x="68.5" y="-137" font-family="Helvetica,sans-Serif" font-size="10.00">void ReportDownloadProblem</text>
<text text-anchor="start" x="68.5" y="-126" font-family="Helvetica,sans-Serif" font-size="10.00">(string textKey, string</text>
<text text-anchor="start" x="68.5" y="-115" font-family="Helvetica,sans-Serif" font-size="10.00"> path, Exception exception)</text>
<text text-anchor="start" x="55.5" y="-100" font-family="Helvetica,sans-Serif" font-size="10.00">+</text>
<text text-anchor="start" x="68.5" y="-100" font-family="Helvetica,sans-Serif" font-size="10.00">void ReportManifestCreation</text>
<text text-anchor="start" x="68.5" y="-89" font-family="Helvetica,sans-Serif" font-size="10.00">Problem(string textKey,</text>
<text text-anchor="start" x="68.5" y="-78" font-family="Helvetica,sans-Serif" font-size="10.00"> Exception exception)</text>
<text text-anchor="start" x="55.5" y="-63" font-family="Helvetica,sans-Serif" font-size="10.00">+</text>
<text text-anchor="start" x="68.5" y="-63" font-family="Helvetica,sans-Serif" font-size="10.00">WorkshopIssueReporter()</text>
<text text-anchor="start" x="58" y="-48" font-family="Helvetica,sans-Serif" font-size="10.00">&#45;</text>
<text text-anchor="start" x="68.5" y="-48" font-family="Helvetica,sans-Serif" font-size="10.00">void AddReport(string</text>
<text text-anchor="start" x="68.5" y="-37" font-family="Helvetica,sans-Serif" font-size="10.00"> reportText)</text>
<text text-anchor="start" x="58" y="-22" font-family="Helvetica,sans-Serif" font-size="10.00">&#45;</text>
<text text-anchor="start" x="68.5" y="-22" font-family="Helvetica,sans-Serif" font-size="10.00">void OpenReportsScreen()</text>
<text text-anchor="start" x="58" y="-7" font-family="Helvetica,sans-Serif" font-size="10.00">&#45;</text>
<text text-anchor="start" x="68.5" y="-7" font-family="Helvetica,sans-Serif" font-size="10.00">void NotifyReportsScreen()</text>
<polygon fill="#666666" stroke="#666666" points="51.5,-318 51.5,-318 245.5,-318 245.5,-318 51.5,-318"/>
<polygon fill="#666666" stroke="#666666" points="51.5,-288 51.5,-288 66.5,-288 66.5,-288 51.5,-288"/>
<polygon fill="#666666" stroke="#666666" points="66.5,-288 66.5,-288 245.5,-288 245.5,-288 66.5,-288"/>
<polygon fill="none" stroke="#666666" points="51.5,0 51.5,-346 245.5,-346 245.5,0 51.5,0"/>
</a>
</g>
</g>
<!-- Node2 -->
<g id="Node000002" class="node">
<title>Node2</title>
<g id="a_Node000002"><a xlink:href="../../d1/d19/interfaceTerraria_1_1DataStructures_1_1IProvideReports.html" target="_top" xlink:title=" ">
<polygon fill="white" stroke="transparent" points="119,-453 0,-453 0,-393 119,-393 119,-453"/>
<text text-anchor="start" x="21" y="-441" font-family="Helvetica,sans-Serif" font-size="10.00">IProvideReports</text>
<text text-anchor="start" x="58" y="-426" font-family="Helvetica,sans-Serif" font-size="10.00"> </text>
<text text-anchor="start" x="4.5" y="-411" font-family="Helvetica,sans-Serif" font-size="10.00">+</text>
<text text-anchor="start" x="17.5" y="-411" font-family="Helvetica,sans-Serif" font-size="10.00">List&lt; IssueReport &gt;</text>
<text text-anchor="start" x="17.5" y="-400" font-family="Helvetica,sans-Serif" font-size="10.00"> GetReports()</text>
<polygon fill="#666666" stroke="#666666" points="0.5,-436 0.5,-436 119.5,-436 119.5,-436 0.5,-436"/>
<polygon fill="#666666" stroke="#666666" points="0.5,-421 0.5,-421 119.5,-421 119.5,-421 0.5,-421"/>
<polygon fill="none" stroke="#666666" points="0,-393 0,-453 119,-453 119,-393 0,-393"/>
</a>
</g>
</g>
<!-- Node2&#45;&gt;Node1 -->
<g id="edge1_Node000001_Node000002" class="edge">
<title>Node2&#45;&gt;Node1</title>
<g id="a_edge1_Node000001_Node000002"><a xlink:title=" ">
<path fill="none" stroke="#63b8ff" d="M73.47,-383.08C77.37,-372.2 81.88,-359.63 86.72,-346.16"/>
<polygon fill="none" stroke="#63b8ff" points="70.14,-381.98 70.06,-392.58 76.73,-384.35 70.14,-381.98"/>
</a>
</g>
</g>
<!-- Node3 -->
<g id="Node000003" class="node">
<title>Node3</title>
<g id="a_Node000003"><a xlink:title=" ">
<polygon fill="white" stroke="transparent" points="160,-447.5 137,-447.5 137,-398.5 160,-398.5 160,-447.5"/>
<text text-anchor="start" x="142.5" y="-435" font-family="Helvetica,sans-Serif" font-size="10.00">int</text>
<text text-anchor="start" x="147" y="-420" font-family="Helvetica,sans-Serif" font-size="10.00"> </text>
<text text-anchor="start" x="147" y="-405" font-family="Helvetica,sans-Serif" font-size="10.00"> </text>
<polygon fill="#666666" stroke="#666666" points="137.5,-430 137.5,-430 160.5,-430 160.5,-430 137.5,-430"/>
<polygon fill="#666666" stroke="#666666" points="137.5,-415 137.5,-415 160.5,-415 160.5,-415 137.5,-415"/>
<polygon fill="none" stroke="#666666" points="137,-398.5 137,-447.5 160,-447.5 160,-398.5 137,-398.5"/>
</a>
</g>
</g>
<!-- Node3&#45;&gt;Node1 -->
<g id="edge2_Node000001_Node000003" class="edge">
<title>Node3&#45;&gt;Node1</title>
<g id="a_edge2_Node000001_Node000003"><a xlink:title=" ">
<path fill="none" stroke="#63b8ff" d="M148.5,-398.22C148.5,-387.45 148.5,-373.66 148.5,-358.23"/>
<polygon fill="none" stroke="#63b8ff" points="148.5,-358.14 144.5,-352.14 148.5,-346.14 152.5,-352.14 148.5,-358.14"/>
</a>
</g>
<text text-anchor="middle" x="184.5" y="-367" font-family="Helvetica,sans-Serif" font-size="10.00" fill="grey"> &#45;_maxReports</text>
</g>
<!-- Node4 -->
<g id="Node000004" class="node">
<title>Node4</title>
<g id="a_Node000004"><a xlink:title=" ">
<polygon fill="white" stroke="transparent" points="297.5,-447.5 189.5,-447.5 189.5,-398.5 297.5,-398.5 297.5,-447.5"/>
<text text-anchor="start" x="194.5" y="-435" font-family="Helvetica,sans-Serif" font-size="10.00">List&lt; IssueReport &gt;</text>
<text text-anchor="start" x="241.5" y="-420" font-family="Helvetica,sans-Serif" font-size="10.00"> </text>
<text text-anchor="start" x="241.5" y="-405" font-family="Helvetica,sans-Serif" font-size="10.00"> </text>
<polygon fill="#666666" stroke="#666666" points="189.5,-430 189.5,-430 297.5,-430 297.5,-430 189.5,-430"/>
<polygon fill="#666666" stroke="#666666" points="189.5,-415 189.5,-415 297.5,-415 297.5,-415 189.5,-415"/>
<polygon fill="none" stroke="#666666" points="189.5,-398.5 189.5,-447.5 297.5,-447.5 297.5,-398.5 189.5,-398.5"/>
</a>
</g>
</g>
<!-- Node4&#45;&gt;Node1 -->
<g id="edge3_Node000001_Node000004" class="edge">
<title>Node4&#45;&gt;Node1</title>
<g id="a_edge3_Node000001_Node000004"><a xlink:title=" ">
<path fill="none" stroke="#63b8ff" d="M234.53,-398.29C230.55,-387.78 225.8,-375.27 221.5,-364 220.7,-361.89 219.89,-359.78 219.07,-357.65"/>
<polygon fill="none" stroke="#63b8ff" points="218.97,-357.37 213.09,-353.19 214.68,-346.16 220.56,-350.34 218.97,-357.37"/>
</a>
</g>
<text text-anchor="middle" x="248" y="-367" font-family="Helvetica,sans-Serif" font-size="10.00" fill="grey"> &#45;_reports</text>
</g>
</g>
</svg>
