<?xml version="1.0" encoding="UTF-8" standalone="no"?>
<!DOCTYPE svg PUBLIC "-//W3C//DTD SVG 1.1//EN"
 "http://www.w3.org/Graphics/SVG/1.1/DTD/svg11.dtd">
<!-- Generated by graphviz version 2.43.0 (0)
 -->
<!-- Title: GUIControllerTrash4Page Pages: 1 -->
<svg width="221pt" height="836pt"
 viewBox="0.00 0.00 221.00 836.00" xmlns="http://www.w3.org/2000/svg" xmlns:xlink="http://www.w3.org/1999/xlink">
<g id="graph0" class="graph" transform="scale(1 1) rotate(0) translate(4 832)">
<title>GUIControllerTrash4Page</title>
<!-- Node1 -->
<g id="Node000001" class="node">
<title>Node1</title>
<g id="a_Node000001"><a xlink:title=" ">
<polygon fill="#999999" stroke="transparent" points="206,-142 7,-142 7,0 206,0 206,-142"/>
<text text-anchor="start" x="46.5" y="-130" font-family="Helvetica,sans-Serif" font-size="10.00">GUIControllerTrash4Page</text>
<text text-anchor="start" x="105" y="-115" font-family="Helvetica,sans-Serif" font-size="10.00"> </text>
<text text-anchor="start" x="11.5" y="-100" font-family="Helvetica,sans-Serif" font-size="10.00">+</text>
<text text-anchor="start" x="24.5" y="-100" font-family="Helvetica,sans-Serif" font-size="10.00">override void Activate()</text>
<text text-anchor="start" x="11.5" y="-85" font-family="Helvetica,sans-Serif" font-size="10.00">+</text>
<text text-anchor="start" x="24.5" y="-85" font-family="Helvetica,sans-Serif" font-size="10.00">override int GetNavigation</text>
<text text-anchor="start" x="24.5" y="-74" font-family="Helvetica,sans-Serif" font-size="10.00">OutDirs()</text>
<text text-anchor="start" x="11.5" y="-59" font-family="Helvetica,sans-Serif" font-size="10.00">+</text>
<text text-anchor="start" x="24.5" y="-59" font-family="Helvetica,sans-Serif" font-size="10.00">override GUIControllerItem</text>
<text text-anchor="start" x="24.5" y="-48" font-family="Helvetica,sans-Serif" font-size="10.00"> Navigate(Vector2 navigationVector)</text>
<text text-anchor="start" x="11.5" y="-33" font-family="Helvetica,sans-Serif" font-size="10.00">+</text>
<text text-anchor="start" x="24.5" y="-33" font-family="Helvetica,sans-Serif" font-size="10.00">override Rectangle</text>
<text text-anchor="start" x="24.5" y="-22" font-family="Helvetica,sans-Serif" font-size="10.00"> GetSelectedItemRegion()</text>
<text text-anchor="start" x="11.5" y="-7" font-family="Helvetica,sans-Serif" font-size="10.00">+</text>
<text text-anchor="start" x="24.5" y="-7" font-family="Helvetica,sans-Serif" font-size="10.00">GUIControllerTrash4Page()</text>
<polygon fill="#666666" stroke="#666666" points="7.5,-125 7.5,-125 206.5,-125 206.5,-125 7.5,-125"/>
<polygon fill="#666666" stroke="#666666" points="7.5,-110 7.5,-110 206.5,-110 206.5,-110 7.5,-110"/>
<polygon fill="none" stroke="#666666" points="7,0 7,-142 206,-142 206,0 7,0"/>
</a>
</g>
</g>
<!-- Node2 -->
<g id="Node000002" class="node">
<title>Node2</title>
<g id="a_Node000002"><a xlink:href="../../d7/dfa/classGUIControllerTrash.html" target="_top" xlink:title=" ">
<polygon fill="white" stroke="transparent" points="206,-294 7,-294 7,-178 206,-178 206,-294"/>
<text text-anchor="start" x="61" y="-282" font-family="Helvetica,sans-Serif" font-size="10.00">GUIControllerTrash</text>
<text text-anchor="start" x="105" y="-267" font-family="Helvetica,sans-Serif" font-size="10.00"> </text>
<text text-anchor="start" x="11.5" y="-252" font-family="Helvetica,sans-Serif" font-size="10.00">+</text>
<text text-anchor="start" x="24.5" y="-252" font-family="Helvetica,sans-Serif" font-size="10.00">GUIControllerTrash()</text>
<text text-anchor="start" x="11.5" y="-237" font-family="Helvetica,sans-Serif" font-size="10.00">+</text>
<text text-anchor="start" x="24.5" y="-237" font-family="Helvetica,sans-Serif" font-size="10.00">override void Activate()</text>
<text text-anchor="start" x="11.5" y="-222" font-family="Helvetica,sans-Serif" font-size="10.00">+</text>
<text text-anchor="start" x="24.5" y="-222" font-family="Helvetica,sans-Serif" font-size="10.00">override GUIControllerItem</text>
<text text-anchor="start" x="24.5" y="-211" font-family="Helvetica,sans-Serif" font-size="10.00"> Navigate(Vector2 navigationVector)</text>
<text text-anchor="start" x="11.5" y="-196" font-family="Helvetica,sans-Serif" font-size="10.00">+</text>
<text text-anchor="start" x="24.5" y="-196" font-family="Helvetica,sans-Serif" font-size="10.00">override Rectangle</text>
<text text-anchor="start" x="24.5" y="-185" font-family="Helvetica,sans-Serif" font-size="10.00"> GetSelectedItemRegion()</text>
<polygon fill="#666666" stroke="#666666" points="7.5,-277 7.5,-277 206.5,-277 206.5,-277 7.5,-277"/>
<polygon fill="#666666" stroke="#666666" points="7.5,-262 7.5,-262 206.5,-262 206.5,-262 7.5,-262"/>
<polygon fill="none" stroke="#666666" points="7,-178 7,-294 206,-294 206,-178 7,-178"/>
</a>
</g>
</g>
<!-- Node2&#45;&gt;Node1 -->
<g id="edge1_Node000001_Node000002" class="edge">
<title>Node2&#45;&gt;Node1</title>
<g id="a_edge1_Node000001_Node000002"><a xlink:title=" ">
<path fill="none" stroke="#63b8ff" d="M106.5,-167.8C106.5,-159.34 106.5,-150.67 106.5,-142.17"/>
<polygon fill="none" stroke="#63b8ff" points="103,-167.99 106.5,-177.99 110,-167.99 103,-167.99"/>
</a>
</g>
</g>
<!-- Node3 -->
<g id="Node000003" class="node">
<title>Node3</title>
<g id="a_Node000003"><a xlink:href="../../d4/d82/classGUIPageContentController.html" target="_top" xlink:title=" ">
<polygon fill="white" stroke="transparent" points="213,-676 0,-676 0,-330 213,-330 213,-676"/>
<text text-anchor="start" x="43" y="-664" font-family="Helvetica,sans-Serif" font-size="10.00">GUIPageContentController</text>
<text text-anchor="start" x="4.5" y="-649" font-family="Helvetica,sans-Serif" font-size="10.00">+</text>
<text text-anchor="start" x="17.5" y="-649" font-family="Helvetica,sans-Serif" font-size="10.00">int ResearchButton</text>
<text text-anchor="start" x="4.5" y="-634" font-family="Helvetica,sans-Serif" font-size="10.00">+</text>
<text text-anchor="start" x="17.5" y="-634" font-family="Helvetica,sans-Serif" font-size="10.00">GUIPageIconGrouping</text>
<text text-anchor="start" x="17.5" y="-623" font-family="Helvetica,sans-Serif" font-size="10.00"> ParentGrouping</text>
<text text-anchor="start" x="7" y="-608" font-family="Helvetica,sans-Serif" font-size="10.00">&#45;</text>
<text text-anchor="start" x="17.5" y="-608" font-family="Helvetica,sans-Serif" font-size="10.00">readonly GUIPageIcons.Category</text>
<text text-anchor="start" x="17.5" y="-597" font-family="Helvetica,sans-Serif" font-size="10.00"> PageCategory</text>
<text text-anchor="start" x="7" y="-582" font-family="Helvetica,sans-Serif" font-size="10.00">&#45;</text>
<text text-anchor="start" x="17.5" y="-582" font-family="Helvetica,sans-Serif" font-size="10.00">readonly GUIPageIconGrouping.</text>
<text text-anchor="start" x="17.5" y="-571" font-family="Helvetica,sans-Serif" font-size="10.00">SettingCategory SettingCategory</text>
<text text-anchor="start" x="4.5" y="-556" font-family="Helvetica,sans-Serif" font-size="10.00">+</text>
<text text-anchor="start" x="17.5" y="-556" font-family="Helvetica,sans-Serif" font-size="10.00">virtual int GetNavigation</text>
<text text-anchor="start" x="17.5" y="-545" font-family="Helvetica,sans-Serif" font-size="10.00">OutDirs()</text>
<text text-anchor="start" x="4.5" y="-530" font-family="Helvetica,sans-Serif" font-size="10.00">+</text>
<text text-anchor="start" x="17.5" y="-530" font-family="Helvetica,sans-Serif" font-size="10.00">bool IsPageContoller</text>
<text text-anchor="start" x="17.5" y="-519" font-family="Helvetica,sans-Serif" font-size="10.00">(GUIControllerItem item)</text>
<text text-anchor="start" x="4.5" y="-504" font-family="Helvetica,sans-Serif" font-size="10.00">+</text>
<text text-anchor="start" x="17.5" y="-504" font-family="Helvetica,sans-Serif" font-size="10.00">void LoadPageAnchor()</text>
<text text-anchor="start" x="4.5" y="-489" font-family="Helvetica,sans-Serif" font-size="10.00">+</text>
<text text-anchor="start" x="17.5" y="-489" font-family="Helvetica,sans-Serif" font-size="10.00">virtual void Activate()</text>
<text text-anchor="start" x="4.5" y="-474" font-family="Helvetica,sans-Serif" font-size="10.00">+</text>
<text text-anchor="start" x="17.5" y="-474" font-family="Helvetica,sans-Serif" font-size="10.00">virtual GUIControllerItem</text>
<text text-anchor="start" x="17.5" y="-463" font-family="Helvetica,sans-Serif" font-size="10.00"> Navigate(Vector2 navigationVector)</text>
<text text-anchor="start" x="4.5" y="-448" font-family="Helvetica,sans-Serif" font-size="10.00">+</text>
<text text-anchor="start" x="17.5" y="-448" font-family="Helvetica,sans-Serif" font-size="10.00">virtual Rectangle GetSelected</text>
<text text-anchor="start" x="17.5" y="-437" font-family="Helvetica,sans-Serif" font-size="10.00">ItemRegion()</text>
<text text-anchor="start" x="4.5" y="-422" font-family="Helvetica,sans-Serif" font-size="10.00">+</text>
<text text-anchor="start" x="17.5" y="-422" font-family="Helvetica,sans-Serif" font-size="10.00">virtual void NavigateInto</text>
<text text-anchor="start" x="17.5" y="-411" font-family="Helvetica,sans-Serif" font-size="10.00">(int column, int row)</text>
<text text-anchor="start" x="4.5" y="-396" font-family="Helvetica,sans-Serif" font-size="10.00">#</text>
<text text-anchor="start" x="17.5" y="-396" font-family="Helvetica,sans-Serif" font-size="10.00">GUIPageContentController</text>
<text text-anchor="start" x="17.5" y="-385" font-family="Helvetica,sans-Serif" font-size="10.00">(GUIPageIcons.Category</text>
<text text-anchor="start" x="17.5" y="-374" font-family="Helvetica,sans-Serif" font-size="10.00"> pageCategory)</text>
<text text-anchor="start" x="4.5" y="-359" font-family="Helvetica,sans-Serif" font-size="10.00">#</text>
<text text-anchor="start" x="17.5" y="-359" font-family="Helvetica,sans-Serif" font-size="10.00">GUIPageContentController</text>
<text text-anchor="start" x="17.5" y="-348" font-family="Helvetica,sans-Serif" font-size="10.00">(GUIPageIconGrouping.SettingCategory</text>
<text text-anchor="start" x="17.5" y="-337" font-family="Helvetica,sans-Serif" font-size="10.00"> settingCategory)</text>
<polygon fill="#666666" stroke="#666666" points="0.5,-659 0.5,-659 213.5,-659 213.5,-659 0.5,-659"/>
<polygon fill="#666666" stroke="#666666" points="0.5,-566 0.5,-566 15.5,-566 15.5,-566 0.5,-566"/>
<polygon fill="#666666" stroke="#666666" points="15.5,-566 15.5,-566 213.5,-566 213.5,-566 15.5,-566"/>
<polygon fill="none" stroke="#666666" points="0,-330 0,-676 213,-676 213,-330 0,-330"/>
</a>
</g>
</g>
<!-- Node3&#45;&gt;Node2 -->
<g id="edge2_Node000002_Node000003" class="edge">
<title>Node3&#45;&gt;Node2</title>
<g id="a_edge2_Node000002_Node000003"><a xlink:title=" ">
<path fill="none" stroke="#63b8ff" d="M106.5,-319.51C106.5,-310.63 106.5,-302.09 106.5,-294.11"/>
<polygon fill="none" stroke="#63b8ff" points="103,-319.68 106.5,-329.68 110,-319.68 103,-319.68"/>
</a>
</g>
</g>
<!-- Node4 -->
<g id="Node000004" class="node">
<title>Node4</title>
<g id="a_Node000004"><a xlink:href="../../d1/d1a/interfaceGUIControllerItem.html" target="_top" xlink:title=" ">
<polygon fill="white" stroke="transparent" points="185,-828 28,-828 28,-712 185,-712 185,-828"/>
<text text-anchor="start" x="62.5" y="-816" font-family="Helvetica,sans-Serif" font-size="10.00">GUIControllerItem</text>
<text text-anchor="start" x="105" y="-801" font-family="Helvetica,sans-Serif" font-size="10.00"> </text>
<text text-anchor="start" x="32.5" y="-786" font-family="Helvetica,sans-Serif" font-size="10.00">+</text>
<text text-anchor="start" x="45.5" y="-786" font-family="Helvetica,sans-Serif" font-size="10.00">void Activate()</text>
<text text-anchor="start" x="32.5" y="-771" font-family="Helvetica,sans-Serif" font-size="10.00">+</text>
<text text-anchor="start" x="45.5" y="-771" font-family="Helvetica,sans-Serif" font-size="10.00">GUIControllerItem Navigate</text>
<text text-anchor="start" x="45.5" y="-760" font-family="Helvetica,sans-Serif" font-size="10.00">(Vector2 navigationVector)</text>
<text text-anchor="start" x="32.5" y="-745" font-family="Helvetica,sans-Serif" font-size="10.00">+</text>
<text text-anchor="start" x="45.5" y="-745" font-family="Helvetica,sans-Serif" font-size="10.00">Rectangle GetSelectedItem</text>
<text text-anchor="start" x="45.5" y="-734" font-family="Helvetica,sans-Serif" font-size="10.00">Region()</text>
<text text-anchor="start" x="32.5" y="-719" font-family="Helvetica,sans-Serif" font-size="10.00">+</text>
<text text-anchor="start" x="45.5" y="-719" font-family="Helvetica,sans-Serif" font-size="10.00">int GetNavigationOutDirs()</text>
<polygon fill="#666666" stroke="#666666" points="28.5,-811 28.5,-811 185.5,-811 185.5,-811 28.5,-811"/>
<polygon fill="#666666" stroke="#666666" points="28.5,-796 28.5,-796 185.5,-796 185.5,-796 28.5,-796"/>
<polygon fill="none" stroke="#666666" points="28,-712 28,-828 185,-828 185,-712 28,-712"/>
</a>
</g>
</g>
<!-- Node4&#45;&gt;Node3 -->
<g id="edge3_Node000003_Node000004" class="edge">
<title>Node4&#45;&gt;Node3</title>
<g id="a_edge3_Node000003_Node000004"><a xlink:title=" ">
<path fill="none" stroke="#63b8ff" d="M106.5,-701.74C106.5,-693.58 106.5,-684.98 106.5,-676.12"/>
<polygon fill="none" stroke="#63b8ff" points="103,-701.83 106.5,-711.83 110,-701.83 103,-701.83"/>
</a>
</g>
</g>
</g>
</svg>
