<?xml version="1.0" encoding="UTF-8" standalone="no"?>
<!DOCTYPE svg PUBLIC "-//W3C//DTD SVG 1.1//EN"
 "http://www.w3.org/Graphics/SVG/1.1/DTD/svg11.dtd">
<!-- Generated by graphviz version 2.43.0 (0)
 -->
<!-- Title: Microsoft.Xna.Framework.Graphics.TileShader Pages: 1 -->
<svg width="194pt" height="983pt"
 viewBox="0.00 0.00 194.00 983.00" xmlns="http://www.w3.org/2000/svg" xmlns:xlink="http://www.w3.org/1999/xlink">
<g id="graph0" class="graph" transform="scale(1 1) rotate(0) translate(4 979)">
<title>Microsoft.Xna.Framework.Graphics.TileShader</title>
<!-- Node1 -->
<g id="Node000001" class="node">
<title>Node1</title>
<g id="a_Node000001"><a xlink:title=" ">
<polygon fill="#999999" stroke="transparent" points="179,-425 7,-425 7,0 179,0 179,-425"/>
<text text-anchor="start" x="29" y="-412.5" font-family="Helvetica,sans-Serif" font-size="10.00">Microsoft.Xna.Framework.</text>
<text text-anchor="start" x="44" y="-401.5" font-family="Helvetica,sans-Serif" font-size="10.00">Graphics.TileShader</text>
<text text-anchor="start" x="11" y="-386.5" font-family="Helvetica,sans-Serif" font-size="10.00">+</text>
<text text-anchor="start" x="24" y="-386.5" font-family="Helvetica,sans-Serif" font-size="10.00">static TileShader Effect</text>
<text text-anchor="start" x="13.5" y="-371.5" font-family="Helvetica,sans-Serif" font-size="10.00">&#45;</text>
<text text-anchor="start" x="24" y="-371.5" font-family="Helvetica,sans-Serif" font-size="10.00">EffectParameter _leafMin</text>
<text text-anchor="start" x="24" y="-360.5" font-family="Helvetica,sans-Serif" font-size="10.00">HueOffset</text>
<text text-anchor="start" x="13.5" y="-345.5" font-family="Helvetica,sans-Serif" font-size="10.00">&#45;</text>
<text text-anchor="start" x="24" y="-345.5" font-family="Helvetica,sans-Serif" font-size="10.00">EffectParameter _leafMinHue</text>
<text text-anchor="start" x="13.5" y="-330.5" font-family="Helvetica,sans-Serif" font-size="10.00">&#45;</text>
<text text-anchor="start" x="24" y="-330.5" font-family="Helvetica,sans-Serif" font-size="10.00">EffectParameter _leafMaxHue</text>
<text text-anchor="start" x="13.5" y="-315.5" font-family="Helvetica,sans-Serif" font-size="10.00">&#45;</text>
<text text-anchor="start" x="24" y="-315.5" font-family="Helvetica,sans-Serif" font-size="10.00">EffectParameter _leafMinSat</text>
<text text-anchor="start" x="13.5" y="-300.5" font-family="Helvetica,sans-Serif" font-size="10.00">&#45;</text>
<text text-anchor="start" x="24" y="-300.5" font-family="Helvetica,sans-Serif" font-size="10.00">EffectParameter _leafMaxSat</text>
<text text-anchor="start" x="13.5" y="-285.5" font-family="Helvetica,sans-Serif" font-size="10.00">&#45;</text>
<text text-anchor="start" x="24" y="-285.5" font-family="Helvetica,sans-Serif" font-size="10.00">EffectParameter _invertSpecial</text>
<text text-anchor="start" x="24" y="-274.5" font-family="Helvetica,sans-Serif" font-size="10.00">GroupResult</text>
<text text-anchor="start" x="13.5" y="-259.5" font-family="Helvetica,sans-Serif" font-size="10.00">&#45;</text>
<text text-anchor="start" x="24" y="-259.5" font-family="Helvetica,sans-Serif" font-size="10.00">static int _leafHueTestOffsetId</text>
<text text-anchor="start" x="13.5" y="-244.5" font-family="Helvetica,sans-Serif" font-size="10.00">&#45;</text>
<text text-anchor="start" x="24" y="-244.5" font-family="Helvetica,sans-Serif" font-size="10.00">static int _leafMinHueId</text>
<text text-anchor="start" x="13.5" y="-229.5" font-family="Helvetica,sans-Serif" font-size="10.00">&#45;</text>
<text text-anchor="start" x="24" y="-229.5" font-family="Helvetica,sans-Serif" font-size="10.00">static int _leafMaxHueId</text>
<text text-anchor="start" x="13.5" y="-214.5" font-family="Helvetica,sans-Serif" font-size="10.00">&#45;</text>
<text text-anchor="start" x="24" y="-214.5" font-family="Helvetica,sans-Serif" font-size="10.00">static int _leafMinSatId</text>
<text text-anchor="start" x="13.5" y="-199.5" font-family="Helvetica,sans-Serif" font-size="10.00">&#45;</text>
<text text-anchor="start" x="24" y="-199.5" font-family="Helvetica,sans-Serif" font-size="10.00">static int _leafMaxSatId</text>
<text text-anchor="start" x="13.5" y="-184.5" font-family="Helvetica,sans-Serif" font-size="10.00">&#45;</text>
<text text-anchor="start" x="24" y="-184.5" font-family="Helvetica,sans-Serif" font-size="10.00">static int _invertSpecial</text>
<text text-anchor="start" x="24" y="-173.5" font-family="Helvetica,sans-Serif" font-size="10.00">GroupResultId</text>
<text text-anchor="start" x="13.5" y="-158.5" font-family="Helvetica,sans-Serif" font-size="10.00">&#45;</text>
<text text-anchor="start" x="24" y="-158.5" font-family="Helvetica,sans-Serif" font-size="10.00">static TileShader </text>
<text text-anchor="start" x="24" y="-147.5" font-family="Helvetica,sans-Serif" font-size="10.00">_effect</text>
<text text-anchor="start" x="11" y="-132.5" font-family="Helvetica,sans-Serif" font-size="10.00">+</text>
<text text-anchor="start" x="24" y="-132.5" font-family="Helvetica,sans-Serif" font-size="10.00">TileShader(GraphicsDevice</text>
<text text-anchor="start" x="24" y="-121.5" font-family="Helvetica,sans-Serif" font-size="10.00"> device)</text>
<text text-anchor="start" x="11" y="-106.5" font-family="Helvetica,sans-Serif" font-size="10.00">+</text>
<text text-anchor="start" x="24" y="-106.5" font-family="Helvetica,sans-Serif" font-size="10.00">override void ApplyValues</text>
<text text-anchor="start" x="24" y="-95.5" font-family="Helvetica,sans-Serif" font-size="10.00">ToMaterial(EffectPass pass,</text>
<text text-anchor="start" x="24" y="-84.5" font-family="Helvetica,sans-Serif" font-size="10.00"> Material material)</text>
<text text-anchor="start" x="11" y="-69.5" font-family="Helvetica,sans-Serif" font-size="10.00">+</text>
<text text-anchor="start" x="24" y="-69.5" font-family="Helvetica,sans-Serif" font-size="10.00">static TileShader Create</text>
<text text-anchor="start" x="24" y="-58.5" font-family="Helvetica,sans-Serif" font-size="10.00">New()</text>
<text text-anchor="start" x="13.5" y="-43.5" font-family="Helvetica,sans-Serif" font-size="10.00">&#45;</text>
<text text-anchor="start" x="24" y="-43.5" font-family="Helvetica,sans-Serif" font-size="10.00">static void LoadPass</text>
<text text-anchor="start" x="24" y="-32.5" font-family="Helvetica,sans-Serif" font-size="10.00">(List&lt; EffectPass &gt; passes,</text>
<text text-anchor="start" x="24" y="-21.5" font-family="Helvetica,sans-Serif" font-size="10.00"> string pass)</text>
<text text-anchor="start" x="13.5" y="-6.5" font-family="Helvetica,sans-Serif" font-size="10.00">&#45;</text>
<text text-anchor="start" x="24" y="-6.5" font-family="Helvetica,sans-Serif" font-size="10.00">static TileShader()</text>
<polygon fill="#666666" stroke="#666666" points="7,-396.5 7,-396.5 179,-396.5 179,-396.5 7,-396.5"/>
<polygon fill="#666666" stroke="#666666" points="7,-142.5 7,-142.5 22,-142.5 22,-142.5 7,-142.5"/>
<polygon fill="#666666" stroke="#666666" points="22,-142.5 22,-142.5 179,-142.5 179,-142.5 22,-142.5"/>
<polygon fill="none" stroke="#666666" points="7,0 7,-425 179,-425 179,0 7,0"/>
</a>
</g>
</g>
<!-- Node2 -->
<g id="Node000002" class="node">
<title>Node2</title>
<g id="a_Node000002"><a xlink:href="../../de/d85/classMicrosoft_1_1Xna_1_1Framework_1_1Graphics_1_1Effect.html" target="_top" xlink:title=" ">
<polygon fill="white" stroke="transparent" points="186,-711 0,-711 0,-461 186,-461 186,-711"/>
<text text-anchor="start" x="79" y="-699" font-family="Helvetica,sans-Serif" font-size="10.00">Effect</text>
<text text-anchor="start" x="4" y="-684" font-family="Helvetica,sans-Serif" font-size="10.00">+</text>
<text text-anchor="start" x="17" y="-684" font-family="Helvetica,sans-Serif" font-size="10.00">EffectParameterCollection</text>
<text text-anchor="start" x="17" y="-673" font-family="Helvetica,sans-Serif" font-size="10.00"> Parameters</text>
<text text-anchor="start" x="4" y="-658" font-family="Helvetica,sans-Serif" font-size="10.00">+</text>
<text text-anchor="start" x="17" y="-658" font-family="Helvetica,sans-Serif" font-size="10.00">EffectTechnique CurrentTechnique</text>
<text text-anchor="start" x="6.5" y="-643" font-family="Helvetica,sans-Serif" font-size="10.00">&#45;</text>
<text text-anchor="start" x="17" y="-643" font-family="Helvetica,sans-Serif" font-size="10.00">EffectParameterCollection</text>
<text text-anchor="start" x="17" y="-632" font-family="Helvetica,sans-Serif" font-size="10.00">&lt; Parameters &gt; k__BackingField</text>
<text text-anchor="start" x="6.5" y="-617" font-family="Helvetica,sans-Serif" font-size="10.00">&#45;</text>
<text text-anchor="start" x="17" y="-617" font-family="Helvetica,sans-Serif" font-size="10.00">EffectTechnique&lt; Current</text>
<text text-anchor="start" x="17" y="-606" font-family="Helvetica,sans-Serif" font-size="10.00">Technique &gt; k__BackingField</text>
<text text-anchor="start" x="6.5" y="-591" font-family="Helvetica,sans-Serif" font-size="10.00">&#45;</text>
<text text-anchor="start" x="17" y="-591" font-family="Helvetica,sans-Serif" font-size="10.00">readonly bool _isClone</text>
<text text-anchor="start" x="4" y="-576" font-family="Helvetica,sans-Serif" font-size="10.00">+</text>
<text text-anchor="start" x="17" y="-576" font-family="Helvetica,sans-Serif" font-size="10.00">virtual void ApplyValues</text>
<text text-anchor="start" x="17" y="-565" font-family="Helvetica,sans-Serif" font-size="10.00">ToMaterial(EffectPass</text>
<text text-anchor="start" x="17" y="-554" font-family="Helvetica,sans-Serif" font-size="10.00"> pass, Material material)</text>
<text text-anchor="start" x="4" y="-539" font-family="Helvetica,sans-Serif" font-size="10.00">+</text>
<text text-anchor="start" x="17" y="-539" font-family="Helvetica,sans-Serif" font-size="10.00">virtual Effect Clone()</text>
<text text-anchor="start" x="4" y="-524" font-family="Helvetica,sans-Serif" font-size="10.00">~</text>
<text text-anchor="start" x="17" y="-524" font-family="Helvetica,sans-Serif" font-size="10.00">Effect(GraphicsDevice</text>
<text text-anchor="start" x="17" y="-513" font-family="Helvetica,sans-Serif" font-size="10.00"> graphicsDevice)</text>
<text text-anchor="start" x="4" y="-498" font-family="Helvetica,sans-Serif" font-size="10.00">~</text>
<text text-anchor="start" x="17" y="-498" font-family="Helvetica,sans-Serif" font-size="10.00">virtual void OnApply()</text>
<text text-anchor="start" x="4" y="-483" font-family="Helvetica,sans-Serif" font-size="10.00">#</text>
<text text-anchor="start" x="17" y="-483" font-family="Helvetica,sans-Serif" font-size="10.00">Effect(Effect cloneSource)</text>
<text text-anchor="start" x="6.5" y="-468" font-family="Helvetica,sans-Serif" font-size="10.00">&#45;</text>
<text text-anchor="start" x="17" y="-468" font-family="Helvetica,sans-Serif" font-size="10.00">void Clone(Effect cloneSource)</text>
<polygon fill="#666666" stroke="#666666" points="0,-694 0,-694 186,-694 186,-694 0,-694"/>
<polygon fill="#666666" stroke="#666666" points="0,-586 0,-586 15,-586 15,-586 0,-586"/>
<polygon fill="#666666" stroke="#666666" points="15,-586 15,-586 186,-586 186,-586 15,-586"/>
<polygon fill="none" stroke="#666666" points="0,-461 0,-711 186,-711 186,-461 0,-461"/>
</a>
</g>
</g>
<!-- Node2&#45;&gt;Node1 -->
<g id="edge1_Node000001_Node000002" class="edge">
<title>Node2&#45;&gt;Node1</title>
<g id="a_edge1_Node000001_Node000002"><a xlink:title=" ">
<path fill="none" stroke="#63b8ff" d="M93,-450.63C93,-442.25 93,-433.71 93,-425.1"/>
<polygon fill="none" stroke="#63b8ff" points="89.5,-450.78 93,-460.78 96.5,-450.78 89.5,-450.78"/>
</a>
</g>
</g>
<!-- Node3 -->
<g id="Node000003" class="node">
<title>Node3</title>
<g id="a_Node000003"><a xlink:href="../../d0/d7e/classMicrosoft_1_1Xna_1_1Framework_1_1Graphics_1_1GraphicsResource.html" target="_top" xlink:title=" ">
<polygon fill="white" stroke="transparent" points="182,-975 4,-975 4,-747 182,-747 182,-975"/>
<text text-anchor="start" x="49" y="-963" font-family="Helvetica,sans-Serif" font-size="10.00">GraphicsResource</text>
<text text-anchor="start" x="8" y="-948" font-family="Helvetica,sans-Serif" font-size="10.00">+</text>
<text text-anchor="start" x="21" y="-948" font-family="Helvetica,sans-Serif" font-size="10.00">EventHandler&lt; EventArgs</text>
<text text-anchor="start" x="21" y="-937" font-family="Helvetica,sans-Serif" font-size="10.00"> &gt; Disposing</text>
<text text-anchor="start" x="8" y="-922" font-family="Helvetica,sans-Serif" font-size="10.00">+</text>
<text text-anchor="start" x="21" y="-922" font-family="Helvetica,sans-Serif" font-size="10.00">GraphicsDevice GraphicsDevice</text>
<text text-anchor="start" x="8" y="-907" font-family="Helvetica,sans-Serif" font-size="10.00">+</text>
<text text-anchor="start" x="21" y="-907" font-family="Helvetica,sans-Serif" font-size="10.00">string Name</text>
<text text-anchor="start" x="8" y="-892" font-family="Helvetica,sans-Serif" font-size="10.00">+</text>
<text text-anchor="start" x="21" y="-892" font-family="Helvetica,sans-Serif" font-size="10.00">object Tag</text>
<text text-anchor="start" x="10.5" y="-877" font-family="Helvetica,sans-Serif" font-size="10.00">&#45;</text>
<text text-anchor="start" x="21" y="-877" font-family="Helvetica,sans-Serif" font-size="10.00">GraphicsDevice graphicsDevice</text>
<text text-anchor="start" x="10.5" y="-862" font-family="Helvetica,sans-Serif" font-size="10.00">&#45;</text>
<text text-anchor="start" x="21" y="-862" font-family="Helvetica,sans-Serif" font-size="10.00">string&lt; Name &gt; k__Backing</text>
<text text-anchor="start" x="21" y="-851" font-family="Helvetica,sans-Serif" font-size="10.00">Field</text>
<text text-anchor="start" x="10.5" y="-836" font-family="Helvetica,sans-Serif" font-size="10.00">&#45;</text>
<text text-anchor="start" x="21" y="-836" font-family="Helvetica,sans-Serif" font-size="10.00">object&lt; Tag &gt; k__Backing</text>
<text text-anchor="start" x="21" y="-825" font-family="Helvetica,sans-Serif" font-size="10.00">Field</text>
<text text-anchor="start" x="8" y="-810" font-family="Helvetica,sans-Serif" font-size="10.00">+</text>
<text text-anchor="start" x="21" y="-810" font-family="Helvetica,sans-Serif" font-size="10.00">void Dispose()</text>
<text text-anchor="start" x="8" y="-795" font-family="Helvetica,sans-Serif" font-size="10.00">+</text>
<text text-anchor="start" x="21" y="-795" font-family="Helvetica,sans-Serif" font-size="10.00">override string ToString()</text>
<text text-anchor="start" x="8" y="-780" font-family="Helvetica,sans-Serif" font-size="10.00">~</text>
<text text-anchor="start" x="21" y="-780" font-family="Helvetica,sans-Serif" font-size="10.00">GraphicsResource()</text>
<text text-anchor="start" x="8" y="-765" font-family="Helvetica,sans-Serif" font-size="10.00">~</text>
<text text-anchor="start" x="21" y="-765" font-family="Helvetica,sans-Serif" font-size="10.00">virtual void GraphicsDevice</text>
<text text-anchor="start" x="21" y="-754" font-family="Helvetica,sans-Serif" font-size="10.00">Resetting()</text>
<polygon fill="#666666" stroke="#666666" points="4,-958 4,-958 182,-958 182,-958 4,-958"/>
<polygon fill="#666666" stroke="#666666" points="4,-820 4,-820 19,-820 19,-820 4,-820"/>
<polygon fill="#666666" stroke="#666666" points="19,-820 19,-820 182,-820 182,-820 19,-820"/>
<polygon fill="none" stroke="#666666" points="4,-747 4,-975 182,-975 182,-747 4,-747"/>
</a>
</g>
</g>
<!-- Node3&#45;&gt;Node2 -->
<g id="edge2_Node000002_Node000003" class="edge">
<title>Node3&#45;&gt;Node2</title>
<g id="a_edge2_Node000002_Node000003"><a xlink:title=" ">
<path fill="none" stroke="#63b8ff" d="M93,-736.76C93,-728.34 93,-719.86 93,-711.43"/>
<polygon fill="none" stroke="#63b8ff" points="89.5,-736.99 93,-746.99 96.5,-736.99 89.5,-736.99"/>
</a>
</g>
</g>
</g>
</svg>
