<?xml version="1.0" encoding="UTF-8" standalone="no"?>
<!DOCTYPE svg PUBLIC "-//W3C//DTD SVG 1.1//EN"
 "http://www.w3.org/Graphics/SVG/1.1/DTD/svg11.dtd">
<!-- Generated by graphviz version 2.43.0 (0)
 -->
<!-- Title: System.Collections.Concurrent.ConcurrentQueue&lt; T &gt; Pages: 1 -->
<!--zoomable 1182 -->

<svg id="main" version="1.1" xmlns="http://www.w3.org/2000/svg" xmlns:xlink="http://www.w3.org/1999/xlink" xml:space="preserve" onload="init(evt)">
<style type="text/css"><![CDATA[
.node, .edge {opacity: 0.7;}
.node.selected, .edge.selected {opacity: 1;}
.edge:hover path { stroke: red; }
.edge:hover polygon { stroke: red; fill: red; }
]]></style>

<defs>
  <circle id="rim" cx="0" cy="0" r="7"/>
  <circle id="rim2" cx="0" cy="0" r="3.5"/>
  <g id="zoomPlus">
    <use xlink:href="#rim" fill="#404040"><set attributeName="fill" to="#808080" begin="zoomplus.mouseover" end="zoomplus.mouseout"/></use>
    <path d="M-4,0h8M0,-4v8" fill="none" stroke="white" stroke-width="1.5" pointer-events="none"/>
  </g>
  <g id="zoomMin">
    <use xlink:href="#rim" fill="#404040"><set attributeName="fill" to="#808080" begin="zoomminus.mouseover" end="zoomminus.mouseout"/></use>
    <path d="M-4,0h8" fill="none" stroke="white" stroke-width="1.5" pointer-events="none"/>
  </g>
  <g id="arrowUp" transform="translate(30 24)">
    <use xlink:href="#rim"/>
    <path pointer-events="none" fill="none" stroke="white" stroke-width="1.5" d="M0,-3.0v7 M-2.5,-0.5L0,-3.0L2.5,-0.5"/>
  </g>
  <g id="arrowRight" transform="rotate(90) translate(36 -43)">
    <use xlink:href="#rim"/>
    <path pointer-events="none" fill="none" stroke="white" stroke-width="1.5" d="M0,-3.0v7 M-2.5,-0.5L0,-3.0L2.5,-0.5"/>
  </g>
  <g id="arrowDown" transform="rotate(180) translate(-30 -48)">
    <use xlink:href="#rim"/>
    <path pointer-events="none" fill="none" stroke="white" stroke-width="1.5" d="M0,-3.0v7 M-2.5,-0.5L0,-3.0L2.5,-0.5"/>
  </g>
  <g id="arrowLeft" transform="rotate(270) translate(-36 17)">
    <use xlink:href="#rim"/>
    <path pointer-events="none" fill="none" stroke="white" stroke-width="1.5" d="M0,-3.0v7 M-2.5,-0.5L0,-3.0L2.5,-0.5"/>
  </g>
  <g id="resetDef">
    <use xlink:href="#rim2" fill="#404040"><set attributeName="fill" to="#808080" begin="reset.mouseover" end="reset.mouseout"/></use>
  </g>
</defs>
<script type="application/ecmascript">
var viewWidth = 1016;
var viewHeight = 1182;
var sectionId = 'dynsection-1';
</script>
<script type="application/ecmascript" xlink:href="../../svg.min.js"/>
<svg id="graph" class="graph">
<g id="viewport">
<title>System.Collections.Concurrent.ConcurrentQueue&lt; T &gt;</title>
<!-- Node1 -->
<g id="Node000001" class="node">
<title>Node1</title>
<g id="a_Node000001"><a xlink:title=" ">
<polygon fill="#999999" stroke="transparent" points="468.94,-719 262.94,-719 262.94,0 468.94,0 468.94,-719"/>
<text text-anchor="start" x="288.94" y="-706.5" font-family="Helvetica,sans-Serif" font-size="10.00">System.Collections.Concurrent.</text>
<text text-anchor="start" x="308.94" y="-695.5" font-family="Helvetica,sans-Serif" font-size="10.00">ConcurrentQueue&lt; T &gt;</text>
<text text-anchor="start" x="266.94" y="-680.5" font-family="Helvetica,sans-Serif" font-size="10.00">+</text>
<text text-anchor="start" x="279.94" y="-680.5" font-family="Helvetica,sans-Serif" font-size="10.00">bool System.Collections.</text>
<text text-anchor="start" x="279.94" y="-669.5" font-family="Helvetica,sans-Serif" font-size="10.00">ICollection. IsSynchronized</text>
<text text-anchor="start" x="266.94" y="-654.5" font-family="Helvetica,sans-Serif" font-size="10.00">+</text>
<text text-anchor="start" x="279.94" y="-654.5" font-family="Helvetica,sans-Serif" font-size="10.00">object System.Collections.</text>
<text text-anchor="start" x="279.94" y="-643.5" font-family="Helvetica,sans-Serif" font-size="10.00">ICollection. SyncRoot</text>
<text text-anchor="start" x="266.94" y="-628.5" font-family="Helvetica,sans-Serif" font-size="10.00">+</text>
<text text-anchor="start" x="279.94" y="-628.5" font-family="Helvetica,sans-Serif" font-size="10.00">int Count</text>
<text text-anchor="start" x="266.94" y="-613.5" font-family="Helvetica,sans-Serif" font-size="10.00">+</text>
<text text-anchor="start" x="279.94" y="-613.5" font-family="Helvetica,sans-Serif" font-size="10.00">class&lt; Enumerate &gt;</text>
<text text-anchor="start" x="279.94" y="-602.5" font-family="Helvetica,sans-Serif" font-size="10.00"> global::System. IEnumerator</text>
<text text-anchor="start" x="266.94" y="-587.5" font-family="Helvetica,sans-Serif" font-size="10.00">+</text>
<text text-anchor="start" x="279.94" y="-587.5" font-family="Helvetica,sans-Serif" font-size="10.00">ConcurrentQueue()</text>
<text text-anchor="start" x="266.94" y="-572.5" font-family="Helvetica,sans-Serif" font-size="10.00">+</text>
<text text-anchor="start" x="279.94" y="-572.5" font-family="Helvetica,sans-Serif" font-size="10.00">T[] ToArray()</text>
<text text-anchor="start" x="266.94" y="-557.5" font-family="Helvetica,sans-Serif" font-size="10.00">+</text>
<text text-anchor="start" x="279.94" y="-557.5" font-family="Helvetica,sans-Serif" font-size="10.00">void CopyTo(T[] array,</text>
<text text-anchor="start" x="279.94" y="-546.5" font-family="Helvetica,sans-Serif" font-size="10.00"> int index)</text>
<text text-anchor="start" x="266.94" y="-531.5" font-family="Helvetica,sans-Serif" font-size="10.00">+</text>
<text text-anchor="start" x="279.94" y="-531.5" font-family="Helvetica,sans-Serif" font-size="10.00">global::System.Collections.</text>
<text text-anchor="start" x="279.94" y="-520.5" font-family="Helvetica,sans-Serif" font-size="10.00">Generic.IEnumerator&lt; T &gt;</text>
<text text-anchor="start" x="279.94" y="-509.5" font-family="Helvetica,sans-Serif" font-size="10.00"> GetEnumerator()</text>
<text text-anchor="start" x="266.94" y="-494.5" font-family="Helvetica,sans-Serif" font-size="10.00">+</text>
<text text-anchor="start" x="279.94" y="-494.5" font-family="Helvetica,sans-Serif" font-size="10.00">void Enqueue(T item)</text>
<text text-anchor="start" x="266.94" y="-479.5" font-family="Helvetica,sans-Serif" font-size="10.00">+</text>
<text text-anchor="start" x="279.94" y="-479.5" font-family="Helvetica,sans-Serif" font-size="10.00">bool TryDequeue(out</text>
<text text-anchor="start" x="279.94" y="-468.5" font-family="Helvetica,sans-Serif" font-size="10.00"> T result)</text>
<text text-anchor="start" x="269.44" y="-453.5" font-family="Helvetica,sans-Serif" font-size="10.00">&#45;</text>
<text text-anchor="start" x="279.94" y="-453.5" font-family="Helvetica,sans-Serif" font-size="10.00">void System.Collections.</text>
<text text-anchor="start" x="279.94" y="-442.5" font-family="Helvetica,sans-Serif" font-size="10.00">ICollection. CopyTo(global</text>
<text text-anchor="start" x="279.94" y="-431.5" font-family="Helvetica,sans-Serif" font-size="10.00">::System.Array array, int index)</text>
<text text-anchor="start" x="269.44" y="-416.5" font-family="Helvetica,sans-Serif" font-size="10.00">&#45;</text>
<text text-anchor="start" x="279.94" y="-416.5" font-family="Helvetica,sans-Serif" font-size="10.00">IEnumerator System.Collections.</text>
<text text-anchor="start" x="279.94" y="-405.5" font-family="Helvetica,sans-Serif" font-size="10.00">IEnumerable. GetEnumerator()</text>
<text text-anchor="start" x="269.44" y="-390.5" font-family="Helvetica,sans-Serif" font-size="10.00">&#45;</text>
<text text-anchor="start" x="279.94" y="-390.5" font-family="Helvetica,sans-Serif" font-size="10.00">bool System.Collections.</text>
<text text-anchor="start" x="279.94" y="-379.5" font-family="Helvetica,sans-Serif" font-size="10.00">Concurrent.IProducerConsumer</text>
<text text-anchor="start" x="279.94" y="-368.5" font-family="Helvetica,sans-Serif" font-size="10.00">Collection&lt; T &gt;. TryAdd(T item)</text>
<text text-anchor="start" x="269.44" y="-353.5" font-family="Helvetica,sans-Serif" font-size="10.00">&#45;</text>
<text text-anchor="start" x="279.94" y="-353.5" font-family="Helvetica,sans-Serif" font-size="10.00">bool System.Collections.</text>
<text text-anchor="start" x="279.94" y="-342.5" font-family="Helvetica,sans-Serif" font-size="10.00">Concurrent.IProducerConsumer</text>
<text text-anchor="start" x="279.94" y="-331.5" font-family="Helvetica,sans-Serif" font-size="10.00">Collection&lt; T &gt;. TryTake(out T item)</text>
<text text-anchor="start" x="269.44" y="-316.5" font-family="Helvetica,sans-Serif" font-size="10.00">&#45;</text>
<text text-anchor="start" x="279.94" y="-316.5" font-family="Helvetica,sans-Serif" font-size="10.00">void SnapForObservation</text>
<text text-anchor="start" x="279.94" y="-305.5" font-family="Helvetica,sans-Serif" font-size="10.00">(out ConcurrentQueue&lt;</text>
<text text-anchor="start" x="279.94" y="-294.5" font-family="Helvetica,sans-Serif" font-size="10.00"> T &gt;.Segment head, out</text>
<text text-anchor="start" x="279.94" y="-283.5" font-family="Helvetica,sans-Serif" font-size="10.00"> int headHead, out ConcurrentQueue</text>
<text text-anchor="start" x="279.94" y="-272.5" font-family="Helvetica,sans-Serif" font-size="10.00">&lt; T &gt;.Segment tail, out int tailTail)</text>
<text text-anchor="start" x="269.44" y="-257.5" font-family="Helvetica,sans-Serif" font-size="10.00">&#45;</text>
<text text-anchor="start" x="279.94" y="-257.5" font-family="Helvetica,sans-Serif" font-size="10.00">T GetItemWhenAvailable</text>
<text text-anchor="start" x="279.94" y="-246.5" font-family="Helvetica,sans-Serif" font-size="10.00">(ConcurrentQueue&lt; T &gt;.Segment</text>
<text text-anchor="start" x="279.94" y="-235.5" font-family="Helvetica,sans-Serif" font-size="10.00"> segment, int i)</text>
<text text-anchor="start" x="269.44" y="-220.5" font-family="Helvetica,sans-Serif" font-size="10.00">&#45;</text>
<text text-anchor="start" x="279.94" y="-220.5" font-family="Helvetica,sans-Serif" font-size="10.00">global::System.Collections.</text>
<text text-anchor="start" x="279.94" y="-209.5" font-family="Helvetica,sans-Serif" font-size="10.00">Generic.IEnumerator&lt; T &gt;</text>
<text text-anchor="start" x="279.94" y="-198.5" font-family="Helvetica,sans-Serif" font-size="10.00"> Enumerate(ConcurrentQueue</text>
<text text-anchor="start" x="279.94" y="-187.5" font-family="Helvetica,sans-Serif" font-size="10.00">&lt; T &gt;.Segment head, int headHead,</text>
<text text-anchor="start" x="279.94" y="-176.5" font-family="Helvetica,sans-Serif" font-size="10.00"> ConcurrentQueue&lt; T &gt;.Segment tail,</text>
<text text-anchor="start" x="279.94" y="-165.5" font-family="Helvetica,sans-Serif" font-size="10.00"> int tailTail)</text>
<text text-anchor="start" x="269.44" y="-150.5" font-family="Helvetica,sans-Serif" font-size="10.00">&#45;</text>
<text text-anchor="start" x="279.94" y="-150.5" font-family="Helvetica,sans-Serif" font-size="10.00">void EnqueueSlow(T</text>
<text text-anchor="start" x="279.94" y="-139.5" font-family="Helvetica,sans-Serif" font-size="10.00"> item)</text>
<text text-anchor="start" x="269.44" y="-124.5" font-family="Helvetica,sans-Serif" font-size="10.00">&#45;</text>
<text text-anchor="start" x="279.94" y="-124.5" font-family="Helvetica,sans-Serif" font-size="10.00">bool TryDequeueSlow</text>
<text text-anchor="start" x="279.94" y="-113.5" font-family="Helvetica,sans-Serif" font-size="10.00">(out T item)</text>
<text text-anchor="start" x="269.44" y="-98.5" font-family="Helvetica,sans-Serif" font-size="10.00">&#45;</text>
<text text-anchor="start" x="279.94" y="-98.5" font-family="Helvetica,sans-Serif" font-size="10.00">static int GetCount</text>
<text text-anchor="start" x="279.94" y="-87.5" font-family="Helvetica,sans-Serif" font-size="10.00">(ConcurrentQueue&lt; T</text>
<text text-anchor="start" x="279.94" y="-76.5" font-family="Helvetica,sans-Serif" font-size="10.00"> &gt;.Segment s, int head,</text>
<text text-anchor="start" x="279.94" y="-65.5" font-family="Helvetica,sans-Serif" font-size="10.00"> int tail)</text>
<text text-anchor="start" x="269.44" y="-50.5" font-family="Helvetica,sans-Serif" font-size="10.00">&#45;</text>
<text text-anchor="start" x="279.94" y="-50.5" font-family="Helvetica,sans-Serif" font-size="10.00">static long GetCount</text>
<text text-anchor="start" x="279.94" y="-39.5" font-family="Helvetica,sans-Serif" font-size="10.00">(ConcurrentQueue&lt; T &gt;</text>
<text text-anchor="start" x="279.94" y="-28.5" font-family="Helvetica,sans-Serif" font-size="10.00">.Segment head, int headHead,</text>
<text text-anchor="start" x="279.94" y="-17.5" font-family="Helvetica,sans-Serif" font-size="10.00"> ConcurrentQueue&lt; T &gt;.Segment</text>
<text text-anchor="start" x="279.94" y="-6.5" font-family="Helvetica,sans-Serif" font-size="10.00"> tail, int tailTail)</text>
<polygon fill="#666666" stroke="#666666" points="262.94,-690.5 262.94,-690.5 468.94,-690.5 468.94,-690.5 262.94,-690.5"/>
<polygon fill="#666666" stroke="#666666" points="262.94,-597.5 262.94,-597.5 277.94,-597.5 277.94,-597.5 262.94,-597.5"/>
<polygon fill="#666666" stroke="#666666" points="277.94,-597.5 277.94,-597.5 468.94,-597.5 468.94,-597.5 277.94,-597.5"/>
<polygon fill="none" stroke="#666666" points="262.94,0 262.94,-719 468.94,-719 468.94,0 262.94,0"/>
</a>
</g>
</g>
<!-- Node2 -->
<g id="Node000002" class="node">
<title>Node2</title>
<g id="a_Node000002"><a xlink:href="../../d4/d40/interfaceSystem_1_1Collections_1_1Concurrent_1_1IProducerConsumerCollection.html" target="_top" xlink:title=" ">
<polygon fill="white" stroke="transparent" points="276.44,-887.5 93.44,-887.5 93.44,-797.5 276.44,-797.5 276.44,-887.5"/>
<text text-anchor="start" x="98.94" y="-875.5" font-family="Helvetica,sans-Serif" font-size="10.00">IProducerConsumerCollection&lt; T &gt;</text>
<text text-anchor="start" x="183.44" y="-860.5" font-family="Helvetica,sans-Serif" font-size="10.00"> </text>
<text text-anchor="start" x="113.94" y="-845.5" font-family="Helvetica,sans-Serif" font-size="10.00">+</text>
<text text-anchor="start" x="142.94" y="-845.5" font-family="Helvetica,sans-Serif" font-size="10.00">bool TryAdd(T item)</text>
<text text-anchor="start" x="113.94" y="-830.5" font-family="Helvetica,sans-Serif" font-size="10.00">+</text>
<text text-anchor="start" x="142.94" y="-830.5" font-family="Helvetica,sans-Serif" font-size="10.00">bool TryTake(out T</text>
<text text-anchor="start" x="142.94" y="-819.5" font-family="Helvetica,sans-Serif" font-size="10.00"> item)</text>
<text text-anchor="start" x="113.94" y="-804.5" font-family="Helvetica,sans-Serif" font-size="10.00">+</text>
<text text-anchor="start" x="142.94" y="-804.5" font-family="Helvetica,sans-Serif" font-size="10.00">T[] ToArray()</text>
<polygon fill="#666666" stroke="#666666" points="93.94,-870.5 93.94,-870.5 276.94,-870.5 276.94,-870.5 93.94,-870.5"/>
<polygon fill="#666666" stroke="#666666" points="93.94,-855.5 93.94,-855.5 276.94,-855.5 276.94,-855.5 93.94,-855.5"/>
<polygon fill="none" stroke="#666666" points="93.44,-797.5 93.44,-887.5 276.44,-887.5 276.44,-797.5 93.44,-797.5"/>
</a>
</g>
</g>
<!-- Node2&#45;&gt;Node1 -->
<g id="edge1_Node000001_Node000002" class="edge">
<title>Node2&#45;&gt;Node1</title>
<g id="a_edge1_Node000001_Node000002"><a xlink:title=" ">
<path fill="none" stroke="#63b8ff" d="M205.23,-787.59C219.88,-748.65 240.89,-692.82 262.91,-634.31"/>
<polygon fill="none" stroke="#63b8ff" points="201.89,-786.52 201.64,-797.11 208.44,-788.98 201.89,-786.52"/>
</a>
</g>
</g>
<!-- Node3 -->
<g id="Node000003" class="node">
<title>Node3</title>
<g id="a_Node000003"><a xlink:href="../../dc/d8b/classglobal_1_1SystemCollections_1_1Generic_1_1IEnumerable.html" target="_top" xlink:title=" ">
<polygon fill="white" stroke="transparent" points="171.94,-1046.5 21.94,-1046.5 21.94,-986.5 171.94,-986.5 171.94,-1046.5"/>
<text text-anchor="start" x="26.94" y="-1034.5" font-family="Helvetica,sans-Serif" font-size="10.00">global::SystemCollections</text>
<text text-anchor="start" x="26.94" y="-1023.5" font-family="Helvetica,sans-Serif" font-size="10.00">::Generic::IEnumerable&lt; T &gt;</text>
<text text-anchor="start" x="94.94" y="-1008.5" font-family="Helvetica,sans-Serif" font-size="10.00"> </text>
<text text-anchor="start" x="94.94" y="-993.5" font-family="Helvetica,sans-Serif" font-size="10.00"> </text>
<polygon fill="#666666" stroke="#666666" points="21.94,-1018.5 21.94,-1018.5 171.94,-1018.5 171.94,-1018.5 21.94,-1018.5"/>
<polygon fill="#666666" stroke="#666666" points="21.94,-1003.5 21.94,-1003.5 171.94,-1003.5 171.94,-1003.5 21.94,-1003.5"/>
<polygon fill="none" stroke="#666666" points="21.94,-986.5 21.94,-1046.5 171.94,-1046.5 171.94,-986.5 21.94,-986.5"/>
</a>
</g>
</g>
<!-- Node3&#45;&gt;Node1 -->
<g id="edge6_Node000001_Node000003" class="edge">
<title>Node3&#45;&gt;Node1</title>
<g id="a_edge6_Node000001_Node000003"><a xlink:title=" ">
<path fill="none" stroke="#63b8ff" d="M86.71,-976.46C75.93,-928.39 63.15,-844.78 83.94,-777 119.08,-662.42 197.6,-550.98 262.88,-472.25"/>
<polygon fill="none" stroke="#63b8ff" points="83.36,-977.51 89.03,-986.45 90.17,-975.92 83.36,-977.51"/>
</a>
</g>
</g>
<!-- Node3&#45;&gt;Node2 -->
<g id="edge2_Node000002_Node000003" class="edge">
<title>Node3&#45;&gt;Node2</title>
<g id="a_edge2_Node000002_Node000003"><a xlink:title=" ">
<path fill="none" stroke="#63b8ff" d="M116.46,-977.35C130.02,-950.84 148.13,-915.44 162.32,-887.71"/>
<polygon fill="none" stroke="#63b8ff" points="113.31,-975.83 111.87,-986.32 119.54,-979.01 113.31,-975.83"/>
</a>
</g>
</g>
<!-- Node4 -->
<g id="Node000004" class="node">
<title>Node4</title>
<g id="a_Node000004"><a xlink:href="../../d4/da3/interfaceSystem_1_1Collections_1_1IEnumerable.html" target="_top" xlink:title=" ">
<polygon fill="white" stroke="transparent" points="282.94,-1174 116.94,-1174 116.94,-1125 282.94,-1125 282.94,-1174"/>
<text text-anchor="start" x="168.94" y="-1161.5" font-family="Helvetica,sans-Serif" font-size="10.00">IEnumerable</text>
<text text-anchor="start" x="197.94" y="-1146.5" font-family="Helvetica,sans-Serif" font-size="10.00"> </text>
<text text-anchor="start" x="120.94" y="-1131.5" font-family="Helvetica,sans-Serif" font-size="10.00">+</text>
<text text-anchor="start" x="133.94" y="-1131.5" font-family="Helvetica,sans-Serif" font-size="10.00">IEnumerator GetEnumerator()</text>
<polygon fill="#666666" stroke="#666666" points="116.94,-1156.5 116.94,-1156.5 282.94,-1156.5 282.94,-1156.5 116.94,-1156.5"/>
<polygon fill="#666666" stroke="#666666" points="116.94,-1141.5 116.94,-1141.5 282.94,-1141.5 282.94,-1141.5 116.94,-1141.5"/>
<polygon fill="none" stroke="#666666" points="116.94,-1125 116.94,-1174 282.94,-1174 282.94,-1125 116.94,-1125"/>
</a>
</g>
</g>
<!-- Node4&#45;&gt;Node1 -->
<g id="edge7_Node000001_Node000004" class="edge">
<title>Node4&#45;&gt;Node1</title>
<g id="a_edge7_Node000001_Node000004"><a xlink:title=" ">
<path fill="none" stroke="#63b8ff" d="M106.92,-1130.76C71.29,-1118.94 34.13,-1099.36 12.94,-1067 -11.66,-1029.45 6.5,-1010.42 12.94,-966 25.51,-879.3 37.61,-858.81 68.94,-777 112.77,-662.55 195.65,-550.46 262.74,-471.44"/>
<polygon fill="none" stroke="#63b8ff" points="106.33,-1134.24 116.92,-1133.89 108.42,-1127.56 106.33,-1134.24"/>
</a>
</g>
</g>
<!-- Node4&#45;&gt;Node2 -->
<g id="edge3_Node000002_Node000004" class="edge">
<title>Node4&#45;&gt;Node2</title>
<g id="a_edge3_Node000002_Node000004"><a xlink:title=" ">
<path fill="none" stroke="#63b8ff" d="M198.28,-1114.83C195.56,-1059.46 190.14,-949.21 187.11,-887.66"/>
<polygon fill="none" stroke="#63b8ff" points="194.79,-1115 198.77,-1124.82 201.78,-1114.66 194.79,-1115"/>
</a>
</g>
</g>
<!-- Node5 -->
<g id="Node000005" class="node">
<title>Node5</title>
<g id="a_Node000005"><a xlink:href="../../d8/dc8/interfaceSystem_1_1Collections_1_1ICollection.html" target="_top" xlink:title=" ">
<polygon fill="white" stroke="transparent" points="353.44,-1067 228.44,-1067 228.44,-966 353.44,-966 353.44,-1067"/>
<text text-anchor="start" x="265.44" y="-1054.5" font-family="Helvetica,sans-Serif" font-size="10.00">ICollection</text>
<text text-anchor="start" x="232.94" y="-1039.5" font-family="Helvetica,sans-Serif" font-size="10.00">+</text>
<text text-anchor="start" x="245.94" y="-1039.5" font-family="Helvetica,sans-Serif" font-size="10.00">int Count</text>
<text text-anchor="start" x="232.94" y="-1024.5" font-family="Helvetica,sans-Serif" font-size="10.00">+</text>
<text text-anchor="start" x="245.94" y="-1024.5" font-family="Helvetica,sans-Serif" font-size="10.00">object SyncRoot</text>
<text text-anchor="start" x="232.94" y="-1009.5" font-family="Helvetica,sans-Serif" font-size="10.00">+</text>
<text text-anchor="start" x="245.94" y="-1009.5" font-family="Helvetica,sans-Serif" font-size="10.00">bool IsSynchronized</text>
<text text-anchor="start" x="232.94" y="-994.5" font-family="Helvetica,sans-Serif" font-size="10.00">+</text>
<text text-anchor="start" x="245.94" y="-994.5" font-family="Helvetica,sans-Serif" font-size="10.00">void CopyTo(global</text>
<text text-anchor="start" x="245.94" y="-983.5" font-family="Helvetica,sans-Serif" font-size="10.00">::System.Array array,</text>
<text text-anchor="start" x="245.94" y="-972.5" font-family="Helvetica,sans-Serif" font-size="10.00"> int index)</text>
<polygon fill="#666666" stroke="#666666" points="228.94,-1049.5 228.94,-1049.5 353.94,-1049.5 353.94,-1049.5 228.94,-1049.5"/>
<polygon fill="#666666" stroke="#666666" points="228.94,-1004.5 228.94,-1004.5 243.94,-1004.5 243.94,-1004.5 228.94,-1004.5"/>
<polygon fill="#666666" stroke="#666666" points="243.94,-1004.5 243.94,-1004.5 353.94,-1004.5 353.94,-1004.5 243.94,-1004.5"/>
<polygon fill="none" stroke="#666666" points="228.44,-966 228.44,-1067 353.44,-1067 353.44,-966 228.44,-966"/>
</a>
</g>
</g>
<!-- Node4&#45;&gt;Node5 -->
<g id="edge5_Node000005_Node000004" class="edge">
<title>Node4&#45;&gt;Node5</title>
<g id="a_edge5_Node000005_Node000004"><a xlink:title=" ">
<path fill="none" stroke="#63b8ff" d="M222.21,-1116.44C232.52,-1101.59 245,-1083.62 256.49,-1067.09"/>
<polygon fill="none" stroke="#63b8ff" points="219.25,-1114.57 216.42,-1124.78 225,-1118.56 219.25,-1114.57"/>
</a>
</g>
</g>
<!-- Node5&#45;&gt;Node1 -->
<g id="edge8_Node000001_Node000005" class="edge">
<title>Node5&#45;&gt;Node1</title>
<g id="a_edge8_Node000001_Node000005"><a xlink:title=" ">
<path fill="none" stroke="#63b8ff" d="M297.79,-955.67C304.2,-899.72 314.33,-811.21 324.85,-719.39"/>
<polygon fill="none" stroke="#63b8ff" points="294.3,-955.4 296.64,-965.73 301.25,-956.19 294.3,-955.4"/>
</a>
</g>
</g>
<!-- Node5&#45;&gt;Node2 -->
<g id="edge4_Node000002_Node000005" class="edge">
<title>Node5&#45;&gt;Node2</title>
<g id="a_edge4_Node000002_Node000005"><a xlink:title=" ">
<path fill="none" stroke="#63b8ff" d="M255,-957.18C240.97,-934.42 225.15,-908.75 212.1,-887.58"/>
<polygon fill="none" stroke="#63b8ff" points="252.05,-959.07 260.28,-965.75 258.01,-955.4 252.05,-959.07"/>
</a>
</g>
</g>
<!-- Node6 -->
<g id="Node000006" class="node">
<title>Node6</title>
<g id="a_Node000006"><a xlink:href="../../d1/d20/classglobal_1_1SystemCollections_1_1Generic_1_1IReadOnlyCollection.html" target="_top" xlink:title=" ">
<polygon fill="white" stroke="transparent" points="520.94,-872.5 332.94,-872.5 332.94,-812.5 520.94,-812.5 520.94,-872.5"/>
<text text-anchor="start" x="337.94" y="-860.5" font-family="Helvetica,sans-Serif" font-size="10.00">global::SystemCollections</text>
<text text-anchor="start" x="337.94" y="-849.5" font-family="Helvetica,sans-Serif" font-size="10.00">::Generic::IReadOnlyCollection&lt; T &gt;</text>
<text text-anchor="start" x="424.94" y="-834.5" font-family="Helvetica,sans-Serif" font-size="10.00"> </text>
<text text-anchor="start" x="424.94" y="-819.5" font-family="Helvetica,sans-Serif" font-size="10.00"> </text>
<polygon fill="#666666" stroke="#666666" points="332.94,-844.5 332.94,-844.5 520.94,-844.5 520.94,-844.5 332.94,-844.5"/>
<polygon fill="#666666" stroke="#666666" points="332.94,-829.5 332.94,-829.5 520.94,-829.5 520.94,-829.5 332.94,-829.5"/>
<polygon fill="none" stroke="#666666" points="332.94,-812.5 332.94,-872.5 520.94,-872.5 520.94,-812.5 332.94,-812.5"/>
</a>
</g>
</g>
<!-- Node6&#45;&gt;Node1 -->
<g id="edge9_Node000001_Node000006" class="edge">
<title>Node6&#45;&gt;Node1</title>
<g id="a_edge9_Node000001_Node000006"><a xlink:title=" ">
<path fill="none" stroke="#63b8ff" d="M422,-802.56C419.28,-781.07 415.6,-752.07 411.42,-719.14"/>
<polygon fill="none" stroke="#63b8ff" points="418.53,-803.01 423.26,-812.49 425.47,-802.13 418.53,-803.01"/>
</a>
</g>
</g>
<!-- Node7 -->
<g id="Node000007" class="node">
<title>Node7</title>
<g id="a_Node000007"><a xlink:title=" ">
<polygon fill="white" stroke="transparent" points="580.44,-867 539.44,-867 539.44,-818 580.44,-818 580.44,-867"/>
<text text-anchor="start" x="544.94" y="-854.5" font-family="Helvetica,sans-Serif" font-size="10.00">object</text>
<text text-anchor="start" x="558.44" y="-839.5" font-family="Helvetica,sans-Serif" font-size="10.00"> </text>
<text text-anchor="start" x="558.44" y="-824.5" font-family="Helvetica,sans-Serif" font-size="10.00"> </text>
<polygon fill="#666666" stroke="#666666" points="539.94,-849.5 539.94,-849.5 580.94,-849.5 580.94,-849.5 539.94,-849.5"/>
<polygon fill="#666666" stroke="#666666" points="539.94,-834.5 539.94,-834.5 580.94,-834.5 580.94,-834.5 539.94,-834.5"/>
<polygon fill="none" stroke="#666666" points="539.44,-818 539.44,-867 580.44,-867 580.44,-818 539.44,-818"/>
</a>
</g>
</g>
<!-- Node7&#45;&gt;Node1 -->
<g id="edge10_Node000001_Node000007" class="edge">
<title>Node7&#45;&gt;Node1</title>
<g id="a_edge10_Node000001_Node000007"><a xlink:title=" ">
<path fill="none" stroke="#63b8ff" d="M550.45,-817.97C535.61,-781.18 505.29,-706.02 473.45,-627.06"/>
<polygon fill="none" stroke="#63b8ff" points="473.44,-627.02 467.48,-622.96 468.95,-615.9 474.9,-619.96 473.44,-627.02"/>
</a>
</g>
<text text-anchor="middle" x="574.94" y="-745.5" font-family="Helvetica,sans-Serif" font-size="10.00" fill="grey"> &#45;_crossSegmentLock</text>
</g>
<!-- Node8 -->
<g id="Node000008" class="node">
<title>Node8</title>
<g id="a_Node000008"><a xlink:href="../../d9/df6/classSystem_1_1Collections_1_1Concurrent_1_1ConcurrentQueue_1_1Segment.html" target="_top" xlink:title=" ">
<polygon fill="white" stroke="transparent" points="779.44,-908 598.44,-908 598.44,-777 779.44,-777 779.44,-908"/>
<text text-anchor="start" x="609.44" y="-895.5" font-family="Helvetica,sans-Serif" font-size="10.00">System.Collections.Concurrent.</text>
<text text-anchor="start" x="609.44" y="-884.5" font-family="Helvetica,sans-Serif" font-size="10.00">ConcurrentQueue&lt; T &gt;.Segment</text>
<text text-anchor="start" x="602.94" y="-869.5" font-family="Helvetica,sans-Serif" font-size="10.00">+</text>
<text text-anchor="start" x="615.94" y="-869.5" font-family="Helvetica,sans-Serif" font-size="10.00">int Capacity</text>
<text text-anchor="start" x="602.94" y="-854.5" font-family="Helvetica,sans-Serif" font-size="10.00">+</text>
<text text-anchor="start" x="615.94" y="-854.5" font-family="Helvetica,sans-Serif" font-size="10.00">int FreezeOffset</text>
<text text-anchor="start" x="602.94" y="-839.5" font-family="Helvetica,sans-Serif" font-size="10.00">+</text>
<text text-anchor="start" x="615.94" y="-839.5" font-family="Helvetica,sans-Serif" font-size="10.00">Segment(int boundedLength)</text>
<text text-anchor="start" x="602.94" y="-824.5" font-family="Helvetica,sans-Serif" font-size="10.00">+</text>
<text text-anchor="start" x="615.94" y="-824.5" font-family="Helvetica,sans-Serif" font-size="10.00">bool TryDequeue(out</text>
<text text-anchor="start" x="615.94" y="-813.5" font-family="Helvetica,sans-Serif" font-size="10.00"> T item)</text>
<text text-anchor="start" x="602.94" y="-798.5" font-family="Helvetica,sans-Serif" font-size="10.00">+</text>
<text text-anchor="start" x="615.94" y="-798.5" font-family="Helvetica,sans-Serif" font-size="10.00">bool TryEnqueue(T item)</text>
<text text-anchor="start" x="602.94" y="-783.5" font-family="Helvetica,sans-Serif" font-size="10.00">~</text>
<text text-anchor="start" x="615.94" y="-783.5" font-family="Helvetica,sans-Serif" font-size="10.00">void EnsureFrozenForEnqueues()</text>
<polygon fill="#666666" stroke="#666666" points="598.94,-879.5 598.94,-879.5 779.94,-879.5 779.94,-879.5 598.94,-879.5"/>
<polygon fill="#666666" stroke="#666666" points="598.94,-849.5 598.94,-849.5 613.94,-849.5 613.94,-849.5 598.94,-849.5"/>
<polygon fill="#666666" stroke="#666666" points="613.94,-849.5 613.94,-849.5 779.94,-849.5 779.94,-849.5 613.94,-849.5"/>
<polygon fill="none" stroke="#666666" points="598.44,-777 598.44,-908 779.44,-908 779.44,-777 598.44,-777"/>
</a>
</g>
</g>
<!-- Node8&#45;&gt;Node1 -->
<g id="edge11_Node000001_Node000008" class="edge">
<title>Node8&#45;&gt;Node1</title>
<g id="a_edge11_Node000001_Node000008"><a xlink:title=" ">
<path fill="none" stroke="#63b8ff" d="M654.42,-776.77C646.93,-763.46 638.87,-749.66 630.94,-737 582.78,-660.19 525.28,-577.53 476.16,-509.29"/>
<polygon fill="none" stroke="#63b8ff" points="476,-509.06 469.24,-506.54 468.98,-499.33 475.73,-501.86 476,-509.06"/>
</a>
</g>
<text text-anchor="middle" x="660.44" y="-751" font-family="Helvetica,sans-Serif" font-size="10.00" fill="grey"> &#45;_head</text>
<text text-anchor="middle" x="660.44" y="-740" font-family="Helvetica,sans-Serif" font-size="10.00" fill="grey">&#45;_tail</text>
</g>
<!-- Node8&#45;&gt;Node8 -->
<g id="edge12_Node000008_Node000008" class="edge">
<title>Node8&#45;&gt;Node8</title>
<g id="a_edge12_Node000008_Node000008"><a xlink:title=" ">
<path fill="none" stroke="#63b8ff" d="M779.56,-857.65C790.38,-854.89 797.44,-849.84 797.44,-842.5 797.44,-838.25 795.08,-834.78 791,-832.06"/>
<polygon fill="none" stroke="#63b8ff" points="790.65,-831.92 783.58,-833.34 779.56,-827.35 786.63,-825.94 790.65,-831.92"/>
</a>
</g>
<text text-anchor="middle" x="838.44" y="-845.5" font-family="Helvetica,sans-Serif" font-size="10.00" fill="grey"> ~_nextSegment</text>
<text text-anchor="middle" x="838.44" y="-834.5" font-family="Helvetica,sans-Serif" font-size="10.00" fill="grey">~_slots</text>
</g>
<!-- Node9 -->
<g id="Node000009" class="node">
<title>Node9</title>
<g id="a_Node000009"><a xlink:title=" ">
<polygon fill="white" stroke="transparent" points="670.44,-1174 647.44,-1174 647.44,-1125 670.44,-1125 670.44,-1174"/>
<text text-anchor="start" x="652.94" y="-1161.5" font-family="Helvetica,sans-Serif" font-size="10.00">int</text>
<text text-anchor="start" x="657.44" y="-1146.5" font-family="Helvetica,sans-Serif" font-size="10.00"> </text>
<text text-anchor="start" x="657.44" y="-1131.5" font-family="Helvetica,sans-Serif" font-size="10.00"> </text>
<polygon fill="#666666" stroke="#666666" points="647.94,-1156.5 647.94,-1156.5 670.94,-1156.5 670.94,-1156.5 647.94,-1156.5"/>
<polygon fill="#666666" stroke="#666666" points="647.94,-1141.5 647.94,-1141.5 670.94,-1141.5 670.94,-1141.5 647.94,-1141.5"/>
<polygon fill="none" stroke="#666666" points="647.44,-1125 647.44,-1174 670.44,-1174 670.44,-1125 647.44,-1125"/>
</a>
</g>
</g>
<!-- Node9&#45;&gt;Node8 -->
<g id="edge13_Node000008_Node000009" class="edge">
<title>Node9&#45;&gt;Node8</title>
<g id="a_edge13_Node000008_Node000009"><a xlink:title=" ">
<path fill="none" stroke="#63b8ff" d="M667.49,-1124.61C669.23,-1118.9 670.86,-1112.79 671.94,-1107 683.51,-1044.81 687.55,-973.09 688.81,-920.2"/>
<polygon fill="none" stroke="#63b8ff" points="688.81,-920.19 684.93,-914.11 689.06,-908.2 692.93,-914.28 688.81,-920.19"/>
</a>
</g>
<text text-anchor="middle" x="720.44" y="-1014" font-family="Helvetica,sans-Serif" font-size="10.00" fill="grey"> ~_slotsMask</text>
</g>
<!-- Node10 -->
<g id="Node000010" class="node">
<title>Node10</title>
<g id="a_Node000010"><a xlink:href="../../dc/d64/structSystem_1_1Collections_1_1Concurrent_1_1PaddedHeadAndTail.html" target="_top" xlink:title=" ">
<polygon fill="white" stroke="transparent" points="652.94,-1046.5 488.94,-1046.5 488.94,-986.5 652.94,-986.5 652.94,-1046.5"/>
<text text-anchor="start" x="493.94" y="-1034.5" font-family="Helvetica,sans-Serif" font-size="10.00">System.Collections.Concurrent.</text>
<text text-anchor="start" x="522.44" y="-1023.5" font-family="Helvetica,sans-Serif" font-size="10.00">PaddedHeadAndTail</text>
<text text-anchor="start" x="568.94" y="-1008.5" font-family="Helvetica,sans-Serif" font-size="10.00"> </text>
<text text-anchor="start" x="568.94" y="-993.5" font-family="Helvetica,sans-Serif" font-size="10.00"> </text>
<polygon fill="#666666" stroke="#666666" points="488.94,-1018.5 488.94,-1018.5 652.94,-1018.5 652.94,-1018.5 488.94,-1018.5"/>
<polygon fill="#666666" stroke="#666666" points="488.94,-1003.5 488.94,-1003.5 652.94,-1003.5 652.94,-1003.5 488.94,-1003.5"/>
<polygon fill="none" stroke="#666666" points="488.94,-986.5 488.94,-1046.5 652.94,-1046.5 652.94,-986.5 488.94,-986.5"/>
</a>
</g>
</g>
<!-- Node9&#45;&gt;Node10 -->
<g id="edge15_Node000010_Node000009" class="edge">
<title>Node9&#45;&gt;Node10</title>
<g id="a_edge15_Node000010_Node000009"><a xlink:title=" ">
<path fill="none" stroke="#63b8ff" d="M647.43,-1131.37C634.8,-1112.56 614.08,-1081.72 597.39,-1056.88"/>
<polygon fill="none" stroke="#63b8ff" points="597.21,-1056.61 590.55,-1053.86 590.52,-1046.65 597.19,-1049.4 597.21,-1056.61"/>
</a>
</g>
<text text-anchor="middle" x="649.44" y="-1099" font-family="Helvetica,sans-Serif" font-size="10.00" fill="grey"> +Head</text>
<text text-anchor="middle" x="649.44" y="-1088" font-family="Helvetica,sans-Serif" font-size="10.00" fill="grey">+Tail</text>
</g>
<!-- Node10&#45;&gt;Node8 -->
<g id="edge14_Node000008_Node000010" class="edge">
<title>Node10&#45;&gt;Node8</title>
<g id="a_edge14_Node000008_Node000010"><a xlink:title=" ">
<path fill="none" stroke="#63b8ff" d="M575.98,-986.44C580.12,-968.07 587.24,-944.41 598.94,-926 600.72,-923.2 602.61,-920.44 604.6,-917.72"/>
<polygon fill="none" stroke="#63b8ff" points="604.79,-917.48 605.36,-910.29 612.21,-908.05 611.65,-915.24 604.79,-917.48"/>
</a>
</g>
<text text-anchor="middle" x="636.94" y="-934.5" font-family="Helvetica,sans-Serif" font-size="10.00" fill="grey"> ~_headAndTail</text>
</g>
<!-- Node11 -->
<g id="Node000011" class="node">
<title>Node11</title>
<g id="a_Node000011"><a xlink:title=" ">
<polygon fill="white" stroke="transparent" points="805.94,-1041 773.94,-1041 773.94,-992 805.94,-992 805.94,-1041"/>
<text text-anchor="start" x="778.94" y="-1028.5" font-family="Helvetica,sans-Serif" font-size="10.00">bool</text>
<text text-anchor="start" x="787.94" y="-1013.5" font-family="Helvetica,sans-Serif" font-size="10.00"> </text>
<text text-anchor="start" x="787.94" y="-998.5" font-family="Helvetica,sans-Serif" font-size="10.00"> </text>
<polygon fill="#666666" stroke="#666666" points="773.94,-1023.5 773.94,-1023.5 805.94,-1023.5 805.94,-1023.5 773.94,-1023.5"/>
<polygon fill="#666666" stroke="#666666" points="773.94,-1008.5 773.94,-1008.5 805.94,-1008.5 805.94,-1008.5 773.94,-1008.5"/>
<polygon fill="none" stroke="#666666" points="773.94,-992 773.94,-1041 805.94,-1041 805.94,-992 773.94,-992"/>
</a>
</g>
</g>
<!-- Node11&#45;&gt;Node8 -->
<g id="edge16_Node000008_Node000011" class="edge">
<title>Node11&#45;&gt;Node8</title>
<g id="a_edge16_Node000008_Node000011"><a xlink:title=" ">
<path fill="none" stroke="#63b8ff" d="M776.11,-991.94C764.95,-972.94 748.6,-945.1 733.07,-918.66"/>
<polygon fill="none" stroke="#63b8ff" points="733.02,-918.57 726.54,-915.42 726.95,-908.23 733.43,-911.37 733.02,-918.57"/>
</a>
</g>
<text text-anchor="middle" x="816.44" y="-940" font-family="Helvetica,sans-Serif" font-size="10.00" fill="grey"> ~_frozenForEnqueues</text>
<text text-anchor="middle" x="816.44" y="-929" font-family="Helvetica,sans-Serif" font-size="10.00" fill="grey">~_preservedForObservation</text>
</g>
<!-- Node12 -->
<g id="Node000012" class="node">
<title>Node12</title>
<g id="a_Node000012"><a xlink:title=" ">
<polygon fill="white" stroke="transparent" points="1008.44,-867 897.44,-867 897.44,-818 1008.44,-818 1008.44,-867"/>
<text text-anchor="start" x="902.94" y="-854.5" font-family="Helvetica,sans-Serif" font-size="10.00">class&lt; Enumerate &gt;</text>
<text text-anchor="start" x="951.44" y="-839.5" font-family="Helvetica,sans-Serif" font-size="10.00"> </text>
<text text-anchor="start" x="951.44" y="-824.5" font-family="Helvetica,sans-Serif" font-size="10.00"> </text>
<polygon fill="#666666" stroke="#666666" points="897.94,-849.5 897.94,-849.5 1008.94,-849.5 1008.94,-849.5 897.94,-849.5"/>
<polygon fill="#666666" stroke="#666666" points="897.94,-834.5 897.94,-834.5 1008.94,-834.5 1008.94,-834.5 897.94,-834.5"/>
<polygon fill="none" stroke="#666666" points="897.44,-818 897.44,-867 1008.44,-867 1008.44,-818 897.44,-818"/>
</a>
</g>
</g>
<!-- Node12&#45;&gt;Node1 -->
<g id="edge17_Node000001_Node000012" class="edge">
<title>Node12&#45;&gt;Node1</title>
<g id="a_edge17_Node000001_Node000012"><a xlink:title=" ">
<path fill="none" stroke="#63b8ff" d="M930.76,-817.85C918.72,-805.35 903.39,-789.95 888.94,-777 753.03,-655.15 586.75,-525.84 478.69,-444.21"/>
<polygon fill="none" stroke="#63b8ff" points="478.65,-444.18 471.45,-443.76 469.07,-436.95 476.27,-437.38 478.65,-444.18"/>
</a>
</g>
<text text-anchor="middle" x="893.94" y="-751" font-family="Helvetica,sans-Serif" font-size="10.00" fill="grey"> &#45;IDisposable</text>
<text text-anchor="middle" x="893.94" y="-740" font-family="Helvetica,sans-Serif" font-size="10.00" fill="grey">&#45;d__28</text>
</g>
</g>
</svg>

<g id="navigator" transform="translate(0 0)" fill="#404254">
  <rect fill="#f2f5e9" fill-opacity="0.5" stroke="#606060" stroke-width=".5" x="0" y="0" width="60" height="60"/>
  <use id="zoomplus" xlink:href="#zoomPlus" x="17" y="9" onmousedown="handleZoom(evt,'in')"/>
  <use id="zoomminus" xlink:href="#zoomMin" x="42" y="9" onmousedown="handleZoom(evt,'out')"/>
  <use id="reset" xlink:href="#resetDef" x="30" y="36" onmousedown="handleReset()"/>
   <use id="arrowup" xlink:href="#arrowUp" x="0" y="0" onmousedown="handlePan(0,-1)"/>
  <use id="arrowright" xlink:href="#arrowRight" x="0" y="0" onmousedown="handlePan(1,0)"/>
  <use id="arrowdown" xlink:href="#arrowDown" x="0" y="0" onmousedown="handlePan(0,1)"/>
  <use id="arrowleft" xlink:href="#arrowLeft" x="0" y="0" onmousedown="handlePan(-1,0)"/>
</g>
<svg viewBox="0 0 15 15" width="100%" height="30px" preserveAspectRatio="xMaxYMin meet">
 <g id="arrow_out" transform="scale(0.3 0.3)">
  <a xlink:href="classSystem_1_1Collections_1_1Concurrent_1_1ConcurrentQueue__coll__graph_org.svg" target="_base">
   <rect id="button" ry="5" rx="5" y="6" x="6" height="38" width="38"
        fill="#f2f5e9" fill-opacity="0.5" stroke="#606060" stroke-width="1.0"/>
   <path id="arrow"
     d="M 11.500037,31.436501 C 11.940474,20.09759 22.043105,11.32322 32.158766,21.979434 L 37.068811,17.246167 C 37.068811,17.246167 37.088388,32 37.088388,32 L 22.160133,31.978069 C 22.160133,31.978069 26.997745,27.140456 26.997745,27.140456 C 18.528582,18.264221 13.291696,25.230495 11.500037,31.436501 z"
     style="fill:#404040;"/>
  </a>
 </g>
</svg>

<style type='text/css'>
<![CDATA[
[data-mouse-over-selected='false'] { opacity: 0.7; }
[data-mouse-over-selected='true']  { opacity: 1.0; }
]]>
</style>
<script type="application/ecmascript"><![CDATA[
document.addEventListener('DOMContentLoaded', (event) => {
  highlightEdges();
  highlightAdjacentNodes();
});
]]></script>
</svg>
