<?xml version="1.0" encoding="UTF-8" standalone="no"?>
<!DOCTYPE svg PUBLIC "-//W3C//DTD SVG 1.1//EN"
 "http://www.w3.org/Graphics/SVG/1.1/DTD/svg11.dtd">
<!-- Generated by graphviz version 2.43.0 (0)
 -->
<!-- Title: System.WindowsConsoleDriver Pages: 1 -->
<!--zoomable 1338 -->

<svg id="main" version="1.1" xmlns="http://www.w3.org/2000/svg" xmlns:xlink="http://www.w3.org/1999/xlink" xml:space="preserve" onload="init(evt)">
<style type="text/css"><![CDATA[
.node, .edge {opacity: 0.7;}
.node.selected, .edge.selected {opacity: 1;}
.edge:hover path { stroke: red; }
.edge:hover polygon { stroke: red; fill: red; }
]]></style>

<defs>
  <circle id="rim" cx="0" cy="0" r="7"/>
  <circle id="rim2" cx="0" cy="0" r="3.5"/>
  <g id="zoomPlus">
    <use xlink:href="#rim" fill="#404040"><set attributeName="fill" to="#808080" begin="zoomplus.mouseover" end="zoomplus.mouseout"/></use>
    <path d="M-4,0h8M0,-4v8" fill="none" stroke="white" stroke-width="1.5" pointer-events="none"/>
  </g>
  <g id="zoomMin">
    <use xlink:href="#rim" fill="#404040"><set attributeName="fill" to="#808080" begin="zoomminus.mouseover" end="zoomminus.mouseout"/></use>
    <path d="M-4,0h8" fill="none" stroke="white" stroke-width="1.5" pointer-events="none"/>
  </g>
  <g id="arrowUp" transform="translate(30 24)">
    <use xlink:href="#rim"/>
    <path pointer-events="none" fill="none" stroke="white" stroke-width="1.5" d="M0,-3.0v7 M-2.5,-0.5L0,-3.0L2.5,-0.5"/>
  </g>
  <g id="arrowRight" transform="rotate(90) translate(36 -43)">
    <use xlink:href="#rim"/>
    <path pointer-events="none" fill="none" stroke="white" stroke-width="1.5" d="M0,-3.0v7 M-2.5,-0.5L0,-3.0L2.5,-0.5"/>
  </g>
  <g id="arrowDown" transform="rotate(180) translate(-30 -48)">
    <use xlink:href="#rim"/>
    <path pointer-events="none" fill="none" stroke="white" stroke-width="1.5" d="M0,-3.0v7 M-2.5,-0.5L0,-3.0L2.5,-0.5"/>
  </g>
  <g id="arrowLeft" transform="rotate(270) translate(-36 17)">
    <use xlink:href="#rim"/>
    <path pointer-events="none" fill="none" stroke="white" stroke-width="1.5" d="M0,-3.0v7 M-2.5,-0.5L0,-3.0L2.5,-0.5"/>
  </g>
  <g id="resetDef">
    <use xlink:href="#rim2" fill="#404040"><set attributeName="fill" to="#808080" begin="reset.mouseover" end="reset.mouseout"/></use>
  </g>
</defs>
<script type="application/ecmascript">
var viewWidth = 567;
var viewHeight = 1338;
var sectionId = 'dynsection-1';
</script>
<script type="application/ecmascript" xlink:href="../../svg.min.js"/>
<svg id="graph" class="graph">
<g id="viewport">
<title>System.WindowsConsoleDriver</title>
<!-- Node1 -->
<g id="Node000001" class="node">
<title>Node1</title>
<g id="a_Node000001"><a xlink:title=" ">
<polygon fill="#999999" stroke="transparent" points="412.5,-397 182.5,-397 182.5,0 412.5,0 412.5,-397"/>
<text text-anchor="start" x="220.5" y="-384.5" font-family="Helvetica,sans-Serif" font-size="10.00">System.WindowsConsoleDriver</text>
<text text-anchor="start" x="295.5" y="-369.5" font-family="Helvetica,sans-Serif" font-size="10.00"> </text>
<text text-anchor="start" x="186.5" y="-354.5" font-family="Helvetica,sans-Serif" font-size="10.00">+</text>
<text text-anchor="start" x="199.5" y="-354.5" font-family="Helvetica,sans-Serif" font-size="10.00">WindowsConsoleDriver()</text>
<text text-anchor="start" x="186.5" y="-339.5" font-family="Helvetica,sans-Serif" font-size="10.00">+</text>
<text text-anchor="start" x="199.5" y="-339.5" font-family="Helvetica,sans-Serif" font-size="10.00">void Clear()</text>
<text text-anchor="start" x="186.5" y="-324.5" font-family="Helvetica,sans-Serif" font-size="10.00">+</text>
<text text-anchor="start" x="199.5" y="-324.5" font-family="Helvetica,sans-Serif" font-size="10.00">string ReadLine()</text>
<text text-anchor="start" x="186.5" y="-309.5" font-family="Helvetica,sans-Serif" font-size="10.00">+</text>
<text text-anchor="start" x="199.5" y="-309.5" font-family="Helvetica,sans-Serif" font-size="10.00">global::System.ConsoleKey</text>
<text text-anchor="start" x="199.5" y="-298.5" font-family="Helvetica,sans-Serif" font-size="10.00">Info ReadKey(bool intercept)</text>
<text text-anchor="start" x="189" y="-283.5" font-family="Helvetica,sans-Serif" font-size="10.00">&#45;</text>
<text text-anchor="start" x="199.5" y="-283.5" font-family="Helvetica,sans-Serif" font-size="10.00">static global::System.Int</text>
<text text-anchor="start" x="199.5" y="-272.5" font-family="Helvetica,sans-Serif" font-size="10.00">Ptr GetStdHandle(global</text>
<text text-anchor="start" x="199.5" y="-261.5" font-family="Helvetica,sans-Serif" font-size="10.00">::System.Handles handle)</text>
<text text-anchor="start" x="189" y="-246.5" font-family="Helvetica,sans-Serif" font-size="10.00">&#45;</text>
<text text-anchor="start" x="199.5" y="-246.5" font-family="Helvetica,sans-Serif" font-size="10.00">static bool GetConsoleScreen</text>
<text text-anchor="start" x="199.5" y="-235.5" font-family="Helvetica,sans-Serif" font-size="10.00">BufferInfo(global::System.IntPtr</text>
<text text-anchor="start" x="199.5" y="-224.5" font-family="Helvetica,sans-Serif" font-size="10.00"> handle, out global::System.ConsoleScreen</text>
<text text-anchor="start" x="199.5" y="-213.5" font-family="Helvetica,sans-Serif" font-size="10.00">BufferInfo info)</text>
<text text-anchor="start" x="189" y="-198.5" font-family="Helvetica,sans-Serif" font-size="10.00">&#45;</text>
<text text-anchor="start" x="199.5" y="-198.5" font-family="Helvetica,sans-Serif" font-size="10.00">static bool FillConsoleOutput</text>
<text text-anchor="start" x="199.5" y="-187.5" font-family="Helvetica,sans-Serif" font-size="10.00">Character(global::System.IntPtr</text>
<text text-anchor="start" x="199.5" y="-176.5" font-family="Helvetica,sans-Serif" font-size="10.00"> handle, char c, int size, global</text>
<text text-anchor="start" x="199.5" y="-165.5" font-family="Helvetica,sans-Serif" font-size="10.00">::System.Coord coord, out int written)</text>
<text text-anchor="start" x="189" y="-150.5" font-family="Helvetica,sans-Serif" font-size="10.00">&#45;</text>
<text text-anchor="start" x="199.5" y="-150.5" font-family="Helvetica,sans-Serif" font-size="10.00">static bool FillConsoleOutput</text>
<text text-anchor="start" x="199.5" y="-139.5" font-family="Helvetica,sans-Serif" font-size="10.00">Attribute(global::System.IntPtr</text>
<text text-anchor="start" x="199.5" y="-128.5" font-family="Helvetica,sans-Serif" font-size="10.00"> handle, short c, int size, global</text>
<text text-anchor="start" x="199.5" y="-117.5" font-family="Helvetica,sans-Serif" font-size="10.00">::System.Coord coord, out int written)</text>
<text text-anchor="start" x="189" y="-102.5" font-family="Helvetica,sans-Serif" font-size="10.00">&#45;</text>
<text text-anchor="start" x="199.5" y="-102.5" font-family="Helvetica,sans-Serif" font-size="10.00">static bool SetConsoleCursor</text>
<text text-anchor="start" x="199.5" y="-91.5" font-family="Helvetica,sans-Serif" font-size="10.00">Position(global::System.IntPtr</text>
<text text-anchor="start" x="199.5" y="-80.5" font-family="Helvetica,sans-Serif" font-size="10.00"> handle, global::System.Coord coord)</text>
<text text-anchor="start" x="189" y="-65.5" font-family="Helvetica,sans-Serif" font-size="10.00">&#45;</text>
<text text-anchor="start" x="199.5" y="-65.5" font-family="Helvetica,sans-Serif" font-size="10.00">static bool ReadConsoleInput</text>
<text text-anchor="start" x="199.5" y="-54.5" font-family="Helvetica,sans-Serif" font-size="10.00">(global::System.IntPtr handle,</text>
<text text-anchor="start" x="199.5" y="-43.5" font-family="Helvetica,sans-Serif" font-size="10.00"> out global::System.InputRecord</text>
<text text-anchor="start" x="199.5" y="-32.5" font-family="Helvetica,sans-Serif" font-size="10.00"> record, int length, out int nread)</text>
<text text-anchor="start" x="189" y="-17.5" font-family="Helvetica,sans-Serif" font-size="10.00">&#45;</text>
<text text-anchor="start" x="199.5" y="-17.5" font-family="Helvetica,sans-Serif" font-size="10.00">static bool IsModifierKey</text>
<text text-anchor="start" x="199.5" y="-6.5" font-family="Helvetica,sans-Serif" font-size="10.00">(short virtualKeyCode)</text>
<polygon fill="#666666" stroke="#666666" points="182.5,-379.5 182.5,-379.5 412.5,-379.5 412.5,-379.5 182.5,-379.5"/>
<polygon fill="#666666" stroke="#666666" points="182.5,-364.5 182.5,-364.5 412.5,-364.5 412.5,-364.5 182.5,-364.5"/>
<polygon fill="none" stroke="#666666" points="182.5,0 182.5,-397 412.5,-397 412.5,0 182.5,0"/>
</a>
</g>
</g>
<!-- Node2 -->
<g id="Node000002" class="node">
<title>Node2</title>
<g id="a_Node000002"><a xlink:title=" ">
<polygon fill="white" stroke="transparent" points="155,-863.5 0,-863.5 0,-814.5 155,-814.5 155,-863.5"/>
<text text-anchor="start" x="5.5" y="-851" font-family="Helvetica,sans-Serif" font-size="10.00">global::SystemIConsoleDriver</text>
<text text-anchor="start" x="76" y="-836" font-family="Helvetica,sans-Serif" font-size="10.00"> </text>
<text text-anchor="start" x="76" y="-821" font-family="Helvetica,sans-Serif" font-size="10.00"> </text>
<polygon fill="#666666" stroke="#666666" points="0.5,-846 0.5,-846 155.5,-846 155.5,-846 0.5,-846"/>
<polygon fill="#666666" stroke="#666666" points="0.5,-831 0.5,-831 155.5,-831 155.5,-831 0.5,-831"/>
<polygon fill="none" stroke="#666666" points="0,-814.5 0,-863.5 155,-863.5 155,-814.5 0,-814.5"/>
</a>
</g>
</g>
<!-- Node2&#45;&gt;Node1 -->
<g id="edge1_Node000001_Node000002" class="edge">
<title>Node2&#45;&gt;Node1</title>
<g id="a_edge1_Node000001_Node000002"><a xlink:title=" ">
<path fill="none" stroke="#63b8ff" d="M82.08,-803.95C91.88,-736.01 117.79,-579.48 163.5,-455 170.54,-435.84 178.73,-416.31 187.53,-397"/>
<polygon fill="none" stroke="#63b8ff" points="78.58,-803.68 80.65,-814.07 85.51,-804.66 78.58,-803.68"/>
</a>
</g>
</g>
<!-- Node3 -->
<g id="Node000003" class="node">
<title>Node3</title>
<g id="a_Node000003"><a xlink:href="../../db/db4/structSystem_1_1IntPtr.html" target="_top" xlink:title=" ">
<polygon fill="white" stroke="transparent" points="422,-1223 173,-1223 173,-455 422,-455 422,-1223"/>
<text text-anchor="start" x="264.5" y="-1211" font-family="Helvetica,sans-Serif" font-size="10.00">System.IntPtr</text>
<text text-anchor="start" x="177.5" y="-1196" font-family="Helvetica,sans-Serif" font-size="10.00">+</text>
<text text-anchor="start" x="190.5" y="-1196" font-family="Helvetica,sans-Serif" font-size="10.00">static unsafe int Size</text>
<text text-anchor="start" x="177.5" y="-1181" font-family="Helvetica,sans-Serif" font-size="10.00">+</text>
<text text-anchor="start" x="190.5" y="-1181" font-family="Helvetica,sans-Serif" font-size="10.00">IntPtr(int value)</text>
<text text-anchor="start" x="177.5" y="-1166" font-family="Helvetica,sans-Serif" font-size="10.00">+</text>
<text text-anchor="start" x="190.5" y="-1166" font-family="Helvetica,sans-Serif" font-size="10.00">IntPtr(long value)</text>
<text text-anchor="start" x="177.5" y="-1151" font-family="Helvetica,sans-Serif" font-size="10.00">+</text>
<text text-anchor="start" x="190.5" y="-1151" font-family="Helvetica,sans-Serif" font-size="10.00">unsafe IntPtr(void</text>
<text text-anchor="start" x="190.5" y="-1140" font-family="Helvetica,sans-Serif" font-size="10.00"> *value)</text>
<text text-anchor="start" x="177.5" y="-1125" font-family="Helvetica,sans-Serif" font-size="10.00">+</text>
<text text-anchor="start" x="190.5" y="-1125" font-family="Helvetica,sans-Serif" font-size="10.00">override bool Equals</text>
<text text-anchor="start" x="190.5" y="-1114" font-family="Helvetica,sans-Serif" font-size="10.00">(object obj)</text>
<text text-anchor="start" x="177.5" y="-1099" font-family="Helvetica,sans-Serif" font-size="10.00">+</text>
<text text-anchor="start" x="190.5" y="-1099" font-family="Helvetica,sans-Serif" font-size="10.00">override int GetHashCode()</text>
<text text-anchor="start" x="177.5" y="-1084" font-family="Helvetica,sans-Serif" font-size="10.00">+</text>
<text text-anchor="start" x="190.5" y="-1084" font-family="Helvetica,sans-Serif" font-size="10.00">long ToInt64()</text>
<text text-anchor="start" x="177.5" y="-1069" font-family="Helvetica,sans-Serif" font-size="10.00">+</text>
<text text-anchor="start" x="190.5" y="-1069" font-family="Helvetica,sans-Serif" font-size="10.00">unsafe void * ToPointer()</text>
<text text-anchor="start" x="177.5" y="-1054" font-family="Helvetica,sans-Serif" font-size="10.00">+</text>
<text text-anchor="start" x="190.5" y="-1054" font-family="Helvetica,sans-Serif" font-size="10.00">override string ToString()</text>
<text text-anchor="start" x="177.5" y="-1039" font-family="Helvetica,sans-Serif" font-size="10.00">+</text>
<text text-anchor="start" x="190.5" y="-1039" font-family="Helvetica,sans-Serif" font-size="10.00">string ToString(string</text>
<text text-anchor="start" x="190.5" y="-1028" font-family="Helvetica,sans-Serif" font-size="10.00"> format)</text>
<text text-anchor="start" x="177.5" y="-1013" font-family="Helvetica,sans-Serif" font-size="10.00">+</text>
<text text-anchor="start" x="190.5" y="-1013" font-family="Helvetica,sans-Serif" font-size="10.00">static bool operator</text>
<text text-anchor="start" x="190.5" y="-1002" font-family="Helvetica,sans-Serif" font-size="10.00">==(global::System.IntPtr</text>
<text text-anchor="start" x="190.5" y="-991" font-family="Helvetica,sans-Serif" font-size="10.00"> value1, global::System.IntPtr</text>
<text text-anchor="start" x="190.5" y="-980" font-family="Helvetica,sans-Serif" font-size="10.00"> value2)</text>
<text text-anchor="start" x="177.5" y="-965" font-family="Helvetica,sans-Serif" font-size="10.00">+</text>
<text text-anchor="start" x="190.5" y="-965" font-family="Helvetica,sans-Serif" font-size="10.00">static bool operator!</text>
<text text-anchor="start" x="190.5" y="-954" font-family="Helvetica,sans-Serif" font-size="10.00">=(global::System.IntPtr</text>
<text text-anchor="start" x="190.5" y="-943" font-family="Helvetica,sans-Serif" font-size="10.00"> value1, global::System.IntPtr</text>
<text text-anchor="start" x="190.5" y="-932" font-family="Helvetica,sans-Serif" font-size="10.00"> value2)</text>
<text text-anchor="start" x="177.5" y="-917" font-family="Helvetica,sans-Serif" font-size="10.00">+</text>
<text text-anchor="start" x="190.5" y="-917" font-family="Helvetica,sans-Serif" font-size="10.00">static operator global</text>
<text text-anchor="start" x="190.5" y="-906" font-family="Helvetica,sans-Serif" font-size="10.00">::System.IntPtr(int value)</text>
<text text-anchor="start" x="177.5" y="-891" font-family="Helvetica,sans-Serif" font-size="10.00">+</text>
<text text-anchor="start" x="190.5" y="-891" font-family="Helvetica,sans-Serif" font-size="10.00">static operator global</text>
<text text-anchor="start" x="190.5" y="-880" font-family="Helvetica,sans-Serif" font-size="10.00">::System.IntPtr(long value)</text>
<text text-anchor="start" x="177.5" y="-865" font-family="Helvetica,sans-Serif" font-size="10.00">+</text>
<text text-anchor="start" x="190.5" y="-865" font-family="Helvetica,sans-Serif" font-size="10.00">static unsafe operator</text>
<text text-anchor="start" x="190.5" y="-854" font-family="Helvetica,sans-Serif" font-size="10.00"> global::System.IntPtr</text>
<text text-anchor="start" x="190.5" y="-843" font-family="Helvetica,sans-Serif" font-size="10.00">(void *value)</text>
<text text-anchor="start" x="177.5" y="-828" font-family="Helvetica,sans-Serif" font-size="10.00">+</text>
<text text-anchor="start" x="190.5" y="-828" font-family="Helvetica,sans-Serif" font-size="10.00">static operator int</text>
<text text-anchor="start" x="190.5" y="-817" font-family="Helvetica,sans-Serif" font-size="10.00">(global::System.IntPtr</text>
<text text-anchor="start" x="190.5" y="-806" font-family="Helvetica,sans-Serif" font-size="10.00"> value)</text>
<text text-anchor="start" x="177.5" y="-791" font-family="Helvetica,sans-Serif" font-size="10.00">+</text>
<text text-anchor="start" x="190.5" y="-791" font-family="Helvetica,sans-Serif" font-size="10.00">static operator long</text>
<text text-anchor="start" x="190.5" y="-780" font-family="Helvetica,sans-Serif" font-size="10.00">(global::System.IntPtr</text>
<text text-anchor="start" x="190.5" y="-769" font-family="Helvetica,sans-Serif" font-size="10.00"> value)</text>
<text text-anchor="start" x="177.5" y="-754" font-family="Helvetica,sans-Serif" font-size="10.00">+</text>
<text text-anchor="start" x="190.5" y="-754" font-family="Helvetica,sans-Serif" font-size="10.00">static unsafe operator</text>
<text text-anchor="start" x="190.5" y="-743" font-family="Helvetica,sans-Serif" font-size="10.00"> void *(global::System.IntPtr</text>
<text text-anchor="start" x="190.5" y="-732" font-family="Helvetica,sans-Serif" font-size="10.00"> value)</text>
<text text-anchor="start" x="177.5" y="-717" font-family="Helvetica,sans-Serif" font-size="10.00">+</text>
<text text-anchor="start" x="190.5" y="-717" font-family="Helvetica,sans-Serif" font-size="10.00">static global::System.Int</text>
<text text-anchor="start" x="190.5" y="-706" font-family="Helvetica,sans-Serif" font-size="10.00">Ptr Add(global::System.IntPtr</text>
<text text-anchor="start" x="190.5" y="-695" font-family="Helvetica,sans-Serif" font-size="10.00"> pointer, int offset)</text>
<text text-anchor="start" x="177.5" y="-680" font-family="Helvetica,sans-Serif" font-size="10.00">+</text>
<text text-anchor="start" x="190.5" y="-680" font-family="Helvetica,sans-Serif" font-size="10.00">static global::System.Int</text>
<text text-anchor="start" x="190.5" y="-669" font-family="Helvetica,sans-Serif" font-size="10.00">Ptr operator+(global::System.Int</text>
<text text-anchor="start" x="190.5" y="-658" font-family="Helvetica,sans-Serif" font-size="10.00">Ptr pointer, int offset)</text>
<text text-anchor="start" x="177.5" y="-643" font-family="Helvetica,sans-Serif" font-size="10.00">+</text>
<text text-anchor="start" x="190.5" y="-643" font-family="Helvetica,sans-Serif" font-size="10.00">static global::System.Int</text>
<text text-anchor="start" x="190.5" y="-632" font-family="Helvetica,sans-Serif" font-size="10.00">Ptr operator&#45;(global::System.Int</text>
<text text-anchor="start" x="190.5" y="-621" font-family="Helvetica,sans-Serif" font-size="10.00">Ptr pointer, int offset)</text>
<text text-anchor="start" x="177.5" y="-606" font-family="Helvetica,sans-Serif" font-size="10.00">~</text>
<text text-anchor="start" x="190.5" y="-606" font-family="Helvetica,sans-Serif" font-size="10.00">bool IsNull()</text>
<text text-anchor="start" x="180" y="-591" font-family="Helvetica,sans-Serif" font-size="10.00">&#45;</text>
<text text-anchor="start" x="190.5" y="-591" font-family="Helvetica,sans-Serif" font-size="10.00">IntPtr(global::System.Runtime.</text>
<text text-anchor="start" x="190.5" y="-580" font-family="Helvetica,sans-Serif" font-size="10.00">Serialization.SerializationInfo</text>
<text text-anchor="start" x="190.5" y="-569" font-family="Helvetica,sans-Serif" font-size="10.00"> info, global::System.Runtime.Serialization.</text>
<text text-anchor="start" x="190.5" y="-558" font-family="Helvetica,sans-Serif" font-size="10.00">StreamingContext context)</text>
<text text-anchor="start" x="180" y="-543" font-family="Helvetica,sans-Serif" font-size="10.00">&#45;</text>
<text text-anchor="start" x="190.5" y="-543" font-family="Helvetica,sans-Serif" font-size="10.00">void System.Runtime.Serialization.</text>
<text text-anchor="start" x="190.5" y="-532" font-family="Helvetica,sans-Serif" font-size="10.00">ISerializable. GetObjectData</text>
<text text-anchor="start" x="190.5" y="-521" font-family="Helvetica,sans-Serif" font-size="10.00">(global::System.Runtime.Serialization.</text>
<text text-anchor="start" x="190.5" y="-510" font-family="Helvetica,sans-Serif" font-size="10.00">SerializationInfo info, global::System.Runtime.</text>
<text text-anchor="start" x="190.5" y="-499" font-family="Helvetica,sans-Serif" font-size="10.00">Serialization.StreamingContext context)</text>
<text text-anchor="start" x="180" y="-484" font-family="Helvetica,sans-Serif" font-size="10.00">&#45;</text>
<text text-anchor="start" x="190.5" y="-484" font-family="Helvetica,sans-Serif" font-size="10.00">bool System.IEquatable</text>
<text text-anchor="start" x="190.5" y="-473" font-family="Helvetica,sans-Serif" font-size="10.00">&lt; System.IntPtr &gt;. Equals</text>
<text text-anchor="start" x="190.5" y="-462" font-family="Helvetica,sans-Serif" font-size="10.00">(global::System.IntPtr other)</text>
<polygon fill="#666666" stroke="#666666" points="173.5,-1206 173.5,-1206 422.5,-1206 422.5,-1206 173.5,-1206"/>
<polygon fill="#666666" stroke="#666666" points="173.5,-1191 173.5,-1191 188.5,-1191 188.5,-1191 173.5,-1191"/>
<polygon fill="#666666" stroke="#666666" points="188.5,-1191 188.5,-1191 422.5,-1191 422.5,-1191 188.5,-1191"/>
<polygon fill="none" stroke="#666666" points="173,-455 173,-1223 422,-1223 422,-455 173,-455"/>
</a>
</g>
</g>
<!-- Node3&#45;&gt;Node1 -->
<g id="edge2_Node000001_Node000003" class="edge">
<title>Node3&#45;&gt;Node1</title>
<g id="a_edge2_Node000001_Node000003"><a xlink:title=" ">
<path fill="none" stroke="#63b8ff" d="M297.5,-454.6C297.5,-439.29 297.5,-424.19 297.5,-409.43"/>
<polygon fill="none" stroke="#63b8ff" points="297.5,-409.13 293.5,-403.13 297.5,-397.13 301.5,-403.13 297.5,-409.13"/>
</a>
</g>
<text text-anchor="middle" x="332.5" y="-429" font-family="Helvetica,sans-Serif" font-size="10.00" fill="grey"> &#45;inputHandle</text>
<text text-anchor="middle" x="332.5" y="-418" font-family="Helvetica,sans-Serif" font-size="10.00" fill="grey">&#45;outputHandle</text>
</g>
<!-- Node3&#45;&gt;Node3 -->
<g id="edge6_Node000003_Node000003" class="edge">
<title>Node3&#45;&gt;Node3</title>
<g id="a_edge6_Node000003_Node000003"><a xlink:title=" ">
<path fill="none" stroke="#63b8ff" d="M422.09,-898.95C433.1,-886.34 440,-866.36 440,-839 440,-818.05 435.95,-801.43 429.12,-789.13"/>
<polygon fill="none" stroke="#63b8ff" points="428.95,-788.89 422.24,-786.26 422.09,-779.05 428.8,-781.68 428.95,-788.89"/>
</a>
</g>
<text text-anchor="middle" x="457" y="-836.5" font-family="Helvetica,sans-Serif" font-size="10.00" fill="grey"> +Zero</text>
</g>
<!-- Node4 -->
<g id="Node000004" class="node">
<title>Node4</title>
<g id="a_Node000004"><a xlink:title=" ">
<polygon fill="white" stroke="transparent" points="212,-1330 69,-1330 69,-1270 212,-1270 212,-1330"/>
<text text-anchor="start" x="74.5" y="-1318" font-family="Helvetica,sans-Serif" font-size="10.00">global::SystemRuntime</text>
<text text-anchor="start" x="74.5" y="-1307" font-family="Helvetica,sans-Serif" font-size="10.00">::Serialization::ISerializable</text>
<text text-anchor="start" x="139" y="-1292" font-family="Helvetica,sans-Serif" font-size="10.00"> </text>
<text text-anchor="start" x="139" y="-1277" font-family="Helvetica,sans-Serif" font-size="10.00"> </text>
<polygon fill="#666666" stroke="#666666" points="69.5,-1302 69.5,-1302 212.5,-1302 212.5,-1302 69.5,-1302"/>
<polygon fill="#666666" stroke="#666666" points="69.5,-1287 69.5,-1287 212.5,-1287 212.5,-1287 69.5,-1287"/>
<polygon fill="none" stroke="#666666" points="69,-1270 69,-1330 212,-1330 212,-1270 69,-1270"/>
</a>
</g>
</g>
<!-- Node4&#45;&gt;Node3 -->
<g id="edge3_Node000003_Node000004" class="edge">
<title>Node4&#45;&gt;Node3</title>
<g id="a_edge3_Node000003_Node000004"><a xlink:title=" ">
<path fill="none" stroke="#63b8ff" d="M153.69,-1260.44C158.93,-1245.11 165.49,-1225.95 172.89,-1204.32"/>
<polygon fill="none" stroke="#63b8ff" points="150.36,-1259.34 150.44,-1269.94 156.99,-1261.61 150.36,-1259.34"/>
</a>
</g>
</g>
<!-- Node5 -->
<g id="Node000005" class="node">
<title>Node5</title>
<g id="a_Node000005"><a xlink:title=" ">
<polygon fill="white" stroke="transparent" points="365,-1330 230,-1330 230,-1270 365,-1270 365,-1330"/>
<text text-anchor="start" x="235.5" y="-1318" font-family="Helvetica,sans-Serif" font-size="10.00">global::SystemIEquatable</text>
<text text-anchor="start" x="235.5" y="-1307" font-family="Helvetica,sans-Serif" font-size="10.00">&lt; global::System.IntPtr &gt;</text>
<text text-anchor="start" x="296" y="-1292" font-family="Helvetica,sans-Serif" font-size="10.00"> </text>
<text text-anchor="start" x="296" y="-1277" font-family="Helvetica,sans-Serif" font-size="10.00"> </text>
<polygon fill="#666666" stroke="#666666" points="230.5,-1302 230.5,-1302 365.5,-1302 365.5,-1302 230.5,-1302"/>
<polygon fill="#666666" stroke="#666666" points="230.5,-1287 230.5,-1287 365.5,-1287 365.5,-1287 230.5,-1287"/>
<polygon fill="none" stroke="#666666" points="230,-1270 230,-1330 365,-1330 365,-1270 230,-1270"/>
</a>
</g>
</g>
<!-- Node5&#45;&gt;Node3 -->
<g id="edge4_Node000003_Node000005" class="edge">
<title>Node5&#45;&gt;Node3</title>
<g id="a_edge4_Node000003_Node000005"><a xlink:title=" ">
<path fill="none" stroke="#63b8ff" d="M297.5,-1259.67C297.5,-1249.18 297.5,-1236.94 297.5,-1223.37"/>
<polygon fill="none" stroke="#63b8ff" points="294,-1259.94 297.5,-1269.94 301,-1259.94 294,-1259.94"/>
</a>
</g>
</g>
<!-- Node6 -->
<g id="Node000006" class="node">
<title>Node6</title>
<g id="a_Node000006"><a xlink:title=" ">
<polygon fill="white" stroke="transparent" points="505.5,-1324.5 383.5,-1324.5 383.5,-1275.5 505.5,-1275.5 505.5,-1324.5"/>
<text text-anchor="start" x="388.5" y="-1312" font-family="Helvetica,sans-Serif" font-size="10.00">unsafe readonly void *</text>
<text text-anchor="start" x="442.5" y="-1297" font-family="Helvetica,sans-Serif" font-size="10.00"> </text>
<text text-anchor="start" x="442.5" y="-1282" font-family="Helvetica,sans-Serif" font-size="10.00"> </text>
<polygon fill="#666666" stroke="#666666" points="383.5,-1307 383.5,-1307 505.5,-1307 505.5,-1307 383.5,-1307"/>
<polygon fill="#666666" stroke="#666666" points="383.5,-1292 383.5,-1292 505.5,-1292 505.5,-1292 383.5,-1292"/>
<polygon fill="none" stroke="#666666" points="383.5,-1275.5 383.5,-1324.5 505.5,-1324.5 505.5,-1275.5 383.5,-1275.5"/>
</a>
</g>
</g>
<!-- Node6&#45;&gt;Node3 -->
<g id="edge5_Node000003_Node000006" class="edge">
<title>Node6&#45;&gt;Node3</title>
<g id="a_edge5_Node000003_Node000006"><a xlink:title=" ">
<path fill="none" stroke="#63b8ff" d="M436.91,-1275.29C433.49,-1264.62 429.06,-1250.78 423.88,-1234.6"/>
<polygon fill="none" stroke="#63b8ff" points="423.83,-1234.47 418.2,-1229.98 420.17,-1223.05 425.81,-1227.54 423.83,-1234.47"/>
</a>
</g>
<text text-anchor="middle" x="453" y="-1244" font-family="Helvetica,sans-Serif" font-size="10.00" fill="grey"> &#45;m_value</text>
</g>
<!-- Node7 -->
<g id="Node000007" class="node">
<title>Node7</title>
<g id="a_Node000007"><a xlink:title=" ">
<polygon fill="white" stroke="transparent" points="527,-863.5 492,-863.5 492,-814.5 527,-814.5 527,-863.5"/>
<text text-anchor="start" x="497.5" y="-851" font-family="Helvetica,sans-Serif" font-size="10.00">short</text>
<text text-anchor="start" x="508" y="-836" font-family="Helvetica,sans-Serif" font-size="10.00"> </text>
<text text-anchor="start" x="508" y="-821" font-family="Helvetica,sans-Serif" font-size="10.00"> </text>
<polygon fill="#666666" stroke="#666666" points="492.5,-846 492.5,-846 527.5,-846 527.5,-846 492.5,-846"/>
<polygon fill="#666666" stroke="#666666" points="492.5,-831 492.5,-831 527.5,-831 527.5,-831 492.5,-831"/>
<polygon fill="none" stroke="#666666" points="492,-814.5 492,-863.5 527,-863.5 527,-814.5 492,-814.5"/>
</a>
</g>
</g>
<!-- Node7&#45;&gt;Node1 -->
<g id="edge7_Node000001_Node000007" class="edge">
<title>Node7&#45;&gt;Node1</title>
<g id="a_edge7_Node000001_Node000007"><a xlink:title=" ">
<path fill="none" stroke="#63b8ff" d="M512.32,-814.2C518.71,-752.58 530.27,-583.72 483.5,-455 468.64,-414.11 445.14,-374.04 419.78,-338.2"/>
<polygon fill="none" stroke="#63b8ff" points="419.6,-337.94 412.85,-335.41 412.59,-328.21 419.34,-330.74 419.6,-337.94"/>
</a>
</g>
<text text-anchor="middle" x="516" y="-423.5" font-family="Helvetica,sans-Serif" font-size="10.00" fill="grey"> &#45;defaultAttribute</text>
</g>
</g>
</svg>

<g id="navigator" transform="translate(0 0)" fill="#404254">
  <rect fill="#f2f5e9" fill-opacity="0.5" stroke="#606060" stroke-width=".5" x="0" y="0" width="60" height="60"/>
  <use id="zoomplus" xlink:href="#zoomPlus" x="17" y="9" onmousedown="handleZoom(evt,'in')"/>
  <use id="zoomminus" xlink:href="#zoomMin" x="42" y="9" onmousedown="handleZoom(evt,'out')"/>
  <use id="reset" xlink:href="#resetDef" x="30" y="36" onmousedown="handleReset()"/>
   <use id="arrowup" xlink:href="#arrowUp" x="0" y="0" onmousedown="handlePan(0,-1)"/>
  <use id="arrowright" xlink:href="#arrowRight" x="0" y="0" onmousedown="handlePan(1,0)"/>
  <use id="arrowdown" xlink:href="#arrowDown" x="0" y="0" onmousedown="handlePan(0,1)"/>
  <use id="arrowleft" xlink:href="#arrowLeft" x="0" y="0" onmousedown="handlePan(-1,0)"/>
</g>
<svg viewBox="0 0 15 15" width="100%" height="30px" preserveAspectRatio="xMaxYMin meet">
 <g id="arrow_out" transform="scale(0.3 0.3)">
  <a xlink:href="classSystem_1_1WindowsConsoleDriver__coll__graph_org.svg" target="_base">
   <rect id="button" ry="5" rx="5" y="6" x="6" height="38" width="38"
        fill="#f2f5e9" fill-opacity="0.5" stroke="#606060" stroke-width="1.0"/>
   <path id="arrow"
     d="M 11.500037,31.436501 C 11.940474,20.09759 22.043105,11.32322 32.158766,21.979434 L 37.068811,17.246167 C 37.068811,17.246167 37.088388,32 37.088388,32 L 22.160133,31.978069 C 22.160133,31.978069 26.997745,27.140456 26.997745,27.140456 C 18.528582,18.264221 13.291696,25.230495 11.500037,31.436501 z"
     style="fill:#404040;"/>
  </a>
 </g>
</svg>

<style type='text/css'>
<![CDATA[
[data-mouse-over-selected='false'] { opacity: 0.7; }
[data-mouse-over-selected='true']  { opacity: 1.0; }
]]>
</style>
<script type="application/ecmascript"><![CDATA[
document.addEventListener('DOMContentLoaded', (event) => {
  highlightEdges();
  highlightAdjacentNodes();
});
]]></script>
</svg>
