<?xml version="1.0" encoding="UTF-8" standalone="no"?>
<!DOCTYPE svg PUBLIC "-//W3C//DTD SVG 1.1//EN"
 "http://www.w3.org/Graphics/SVG/1.1/DTD/svg11.dtd">
<!-- Generated by graphviz version 2.43.0 (0)
 -->
<!-- Title: System.ComponentModel.PropertyChangedEventArgs Pages: 1 -->
<svg width="189pt" height="205pt"
 viewBox="0.00 0.00 189.00 205.00" xmlns="http://www.w3.org/2000/svg" xmlns:xlink="http://www.w3.org/1999/xlink">

<svg id="main" version="1.1" xmlns="http://www.w3.org/2000/svg" xmlns:xlink="http://www.w3.org/1999/xlink" xml:space="preserve" onload="init(evt)">
<style type="text/css"><![CDATA[
.node, .edge {opacity: 0.7;}
.node.selected, .edge.selected {opacity: 1;}
.edge:hover path { stroke: red; }
.edge:hover polygon { stroke: red; fill: red; }
]]></style>
<script type="application/ecmascript" xlink:href="../../svg.min.js"/>
<svg id="graph" class="graph">
<g id="graph0" class="graph" transform="scale(1 1) rotate(0) translate(4 201)">
<title>System.ComponentModel.PropertyChangedEventArgs</title>
<!-- Node1 -->
<g id="Node000001" class="node">
<title>Node1</title>
<g id="a_Node000001"><a xlink:title=" ">
<polygon fill="#999999" stroke="transparent" points="181,-86 0,-86 0,0 181,0 181,-86"/>
<text text-anchor="start" x="5.5" y="-74" font-family="Helvetica,sans-Serif" font-size="10.00">System.ComponentModel.Property</text>
<text text-anchor="start" x="44.5" y="-63" font-family="Helvetica,sans-Serif" font-size="10.00">ChangedEventArgs</text>
<text text-anchor="start" x="6" y="-48" font-family="Helvetica,sans-Serif" font-size="10.00">+</text>
<text text-anchor="start" x="20.5" y="-48" font-family="Helvetica,sans-Serif" font-size="10.00">virtual string PropertyName</text>
<text text-anchor="start" x="8.5" y="-33" font-family="Helvetica,sans-Serif" font-size="10.00">&#45;</text>
<text text-anchor="start" x="20.5" y="-33" font-family="Helvetica,sans-Serif" font-size="10.00">readonly string _propertyName</text>
<text text-anchor="start" x="6" y="-18" font-family="Helvetica,sans-Serif" font-size="10.00">+</text>
<text text-anchor="start" x="20.5" y="-18" font-family="Helvetica,sans-Serif" font-size="10.00">PropertyChangedEventArgs</text>
<text text-anchor="start" x="20.5" y="-7" font-family="Helvetica,sans-Serif" font-size="10.00">(string propertyName)</text>
<polygon fill="#666666" stroke="#666666" points="0.5,-58 0.5,-58 181.5,-58 181.5,-58 0.5,-58"/>
<polygon fill="#666666" stroke="#666666" points="0.5,-28 0.5,-28 18.5,-28 18.5,-28 0.5,-28"/>
<polygon fill="#666666" stroke="#666666" points="18.5,-28 18.5,-28 181.5,-28 181.5,-28 18.5,-28"/>
<polygon fill="none" stroke="#666666" points="0,0 0,-86 181,-86 181,0 0,0"/>
</a>
</g>
</g>
<!-- Node2 -->
<g id="Node000002" class="node">
<title>Node2</title>
<g id="a_Node000002"><a xlink:href="../../d2/d76/classSystem_1_1EventArgs.html" target="_top" xlink:title=" ">
<polygon fill="white" stroke="transparent" points="166,-197 15,-197 15,-122 166,-122 166,-197"/>
<text text-anchor="start" x="66" y="-184.5" font-family="Helvetica,sans-Serif" font-size="10.00">EventArgs</text>
<text text-anchor="start" x="19.5" y="-169.5" font-family="Helvetica,sans-Serif" font-size="10.00">+</text>
<text text-anchor="start" x="32.5" y="-169.5" font-family="Helvetica,sans-Serif" font-size="10.00">static readonly global</text>
<text text-anchor="start" x="32.5" y="-158.5" font-family="Helvetica,sans-Serif" font-size="10.00">::System.EventArgs Empty</text>
<text text-anchor="start" x="19.5" y="-143.5" font-family="Helvetica,sans-Serif" font-size="10.00">+</text>
<text text-anchor="start" x="32.5" y="-143.5" font-family="Helvetica,sans-Serif" font-size="10.00">EventArgs()</text>
<text text-anchor="start" x="22" y="-128.5" font-family="Helvetica,sans-Serif" font-size="10.00">&#45;</text>
<text text-anchor="start" x="32.5" y="-128.5" font-family="Helvetica,sans-Serif" font-size="10.00">static EventArgs()</text>
<polygon fill="#666666" stroke="#666666" points="15.5,-179.5 15.5,-179.5 166.5,-179.5 166.5,-179.5 15.5,-179.5"/>
<polygon fill="#666666" stroke="#666666" points="15.5,-153.5 15.5,-153.5 30.5,-153.5 30.5,-153.5 15.5,-153.5"/>
<polygon fill="#666666" stroke="#666666" points="30.5,-153.5 30.5,-153.5 166.5,-153.5 166.5,-153.5 30.5,-153.5"/>
<polygon fill="none" stroke="#666666" points="15,-122 15,-197 166,-197 166,-122 15,-122"/>
</a>
</g>
</g>
<!-- Node2&#45;&gt;Node1 -->
<g id="edge1_Node000001_Node000002" class="edge">
<title>Node2&#45;&gt;Node1</title>
<g id="a_edge1_Node000001_Node000002"><a xlink:title=" ">
<path fill="none" stroke="#63b8ff" d="M90.5,-111.82C90.5,-103.33 90.5,-94.52 90.5,-86.18"/>
<polygon fill="none" stroke="#63b8ff" points="87,-111.96 90.5,-121.96 94,-111.96 87,-111.96"/>
</a>
</g>
</g>
</g>
</svg>
</svg>

<style type='text/css'>
<![CDATA[
[data-mouse-over-selected='false'] { opacity: 0.7; }
[data-mouse-over-selected='true']  { opacity: 1.0; }
]]>
</style>
<script type="application/ecmascript"><![CDATA[
document.addEventListener('DOMContentLoaded', (event) => {
  highlightEdges();
  highlightAdjacentNodes();
});
]]></script>
</svg>
