<?xml version="1.0" encoding="UTF-8" standalone="no"?>
<!DOCTYPE svg PUBLIC "-//W3C//DTD SVG 1.1//EN"
 "http://www.w3.org/Graphics/SVG/1.1/DTD/svg11.dtd">
<!-- Generated by graphviz version 2.43.0 (0)
 -->
<!-- Title: System.ComponentModel.EventHandlerList Pages: 1 -->
<svg width="186pt" height="350pt"
 viewBox="0.00 0.00 186.00 350.00" xmlns="http://www.w3.org/2000/svg" xmlns:xlink="http://www.w3.org/1999/xlink">

<svg id="main" version="1.1" xmlns="http://www.w3.org/2000/svg" xmlns:xlink="http://www.w3.org/1999/xlink" xml:space="preserve" onload="init(evt)">
<style type="text/css"><![CDATA[
.node, .edge {opacity: 0.7;}
.node.selected, .edge.selected {opacity: 1;}
.edge:hover path { stroke: red; }
.edge:hover polygon { stroke: red; fill: red; }
]]></style>
<script type="application/ecmascript" xlink:href="../../svg.min.js"/>
<svg id="graph" class="graph">
<g id="graph0" class="graph" transform="scale(1 1) rotate(0) translate(4 346)">
<title>System.ComponentModel.EventHandlerList</title>
<!-- Node1 -->
<g id="Node000001" class="node">
<title>Node1</title>
<g id="a_Node000001"><a xlink:title=" ">
<polygon fill="#999999" stroke="transparent" points="178,-257 0,-257 0,0 178,0 178,-257"/>
<text text-anchor="start" x="10.5" y="-244.5" font-family="Helvetica,sans-Serif" font-size="10.00">System.ComponentModel.Event</text>
<text text-anchor="start" x="61" y="-233.5" font-family="Helvetica,sans-Serif" font-size="10.00">HandlerList</text>
<text text-anchor="start" x="4" y="-218.5" font-family="Helvetica,sans-Serif" font-size="10.00">+</text>
<text text-anchor="start" x="17" y="-218.5" font-family="Helvetica,sans-Serif" font-size="10.00">Delegate this[object key]</text>
<text text-anchor="start" x="6.5" y="-203.5" font-family="Helvetica,sans-Serif" font-size="10.00">&#45;</text>
<text text-anchor="start" x="17" y="-203.5" font-family="Helvetica,sans-Serif" font-size="10.00">EventHandlerList.ListEntry</text>
<text text-anchor="start" x="17" y="-192.5" font-family="Helvetica,sans-Serif" font-size="10.00"> _head</text>
<text text-anchor="start" x="6.5" y="-177.5" font-family="Helvetica,sans-Serif" font-size="10.00">&#45;</text>
<text text-anchor="start" x="17" y="-177.5" font-family="Helvetica,sans-Serif" font-size="10.00">Component _parent</text>
<text text-anchor="start" x="4" y="-162.5" font-family="Helvetica,sans-Serif" font-size="10.00">+</text>
<text text-anchor="start" x="17" y="-162.5" font-family="Helvetica,sans-Serif" font-size="10.00">EventHandlerList()</text>
<text text-anchor="start" x="4" y="-147.5" font-family="Helvetica,sans-Serif" font-size="10.00">+</text>
<text text-anchor="start" x="17" y="-147.5" font-family="Helvetica,sans-Serif" font-size="10.00">void AddHandler(object</text>
<text text-anchor="start" x="17" y="-136.5" font-family="Helvetica,sans-Serif" font-size="10.00"> key, Delegate value)</text>
<text text-anchor="start" x="4" y="-121.5" font-family="Helvetica,sans-Serif" font-size="10.00">+</text>
<text text-anchor="start" x="17" y="-121.5" font-family="Helvetica,sans-Serif" font-size="10.00">void AddHandlers(EventHandler</text>
<text text-anchor="start" x="17" y="-110.5" font-family="Helvetica,sans-Serif" font-size="10.00">List listToAddFrom)</text>
<text text-anchor="start" x="4" y="-95.5" font-family="Helvetica,sans-Serif" font-size="10.00">+</text>
<text text-anchor="start" x="17" y="-95.5" font-family="Helvetica,sans-Serif" font-size="10.00">void Dispose()</text>
<text text-anchor="start" x="4" y="-80.5" font-family="Helvetica,sans-Serif" font-size="10.00">+</text>
<text text-anchor="start" x="17" y="-80.5" font-family="Helvetica,sans-Serif" font-size="10.00">void RemoveHandler</text>
<text text-anchor="start" x="17" y="-69.5" font-family="Helvetica,sans-Serif" font-size="10.00">(object key, Delegate</text>
<text text-anchor="start" x="17" y="-58.5" font-family="Helvetica,sans-Serif" font-size="10.00"> value)</text>
<text text-anchor="start" x="4" y="-43.5" font-family="Helvetica,sans-Serif" font-size="10.00">~</text>
<text text-anchor="start" x="17" y="-43.5" font-family="Helvetica,sans-Serif" font-size="10.00">EventHandlerList(Component</text>
<text text-anchor="start" x="17" y="-32.5" font-family="Helvetica,sans-Serif" font-size="10.00"> parent)</text>
<text text-anchor="start" x="6.5" y="-17.5" font-family="Helvetica,sans-Serif" font-size="10.00">&#45;</text>
<text text-anchor="start" x="17" y="-17.5" font-family="Helvetica,sans-Serif" font-size="10.00">EventHandlerList.ListEntry</text>
<text text-anchor="start" x="17" y="-6.5" font-family="Helvetica,sans-Serif" font-size="10.00"> Find(object key)</text>
<polygon fill="#666666" stroke="#666666" points="0,-228.5 0,-228.5 178,-228.5 178,-228.5 0,-228.5"/>
<polygon fill="#666666" stroke="#666666" points="0,-172.5 0,-172.5 15,-172.5 15,-172.5 0,-172.5"/>
<polygon fill="#666666" stroke="#666666" points="15,-172.5 15,-172.5 178,-172.5 178,-172.5 15,-172.5"/>
<polygon fill="none" stroke="#666666" points="0,0 0,-257 178,-257 178,0 0,0"/>
</a>
</g>
</g>
<!-- Node2 -->
<g id="Node000002" class="node">
<title>Node2</title>
<g id="a_Node000002"><a xlink:href="../../d6/d32/interfaceSystem_1_1IDisposable.html" target="_top" xlink:title=" ">
<polygon fill="white" stroke="transparent" points="135,-342 43,-342 43,-293 135,-293 135,-342"/>
<text text-anchor="start" x="60" y="-329.5" font-family="Helvetica,sans-Serif" font-size="10.00">IDisposable</text>
<text text-anchor="start" x="87" y="-314.5" font-family="Helvetica,sans-Serif" font-size="10.00"> </text>
<text text-anchor="start" x="47" y="-299.5" font-family="Helvetica,sans-Serif" font-size="10.00">+</text>
<text text-anchor="start" x="60" y="-299.5" font-family="Helvetica,sans-Serif" font-size="10.00">void Dispose()</text>
<polygon fill="#666666" stroke="#666666" points="43,-324.5 43,-324.5 135,-324.5 135,-324.5 43,-324.5"/>
<polygon fill="#666666" stroke="#666666" points="43,-309.5 43,-309.5 135,-309.5 135,-309.5 43,-309.5"/>
<polygon fill="none" stroke="#666666" points="43,-293 43,-342 135,-342 135,-293 43,-293"/>
</a>
</g>
</g>
<!-- Node2&#45;&gt;Node1 -->
<g id="edge1_Node000001_Node000002" class="edge">
<title>Node2&#45;&gt;Node1</title>
<g id="a_edge1_Node000001_Node000002"><a xlink:title=" ">
<path fill="none" stroke="#63b8ff" d="M89,-282.57C89,-274.86 89,-266.21 89,-257.07"/>
<polygon fill="none" stroke="#63b8ff" points="85.5,-282.82 89,-292.82 92.5,-282.82 85.5,-282.82"/>
</a>
</g>
</g>
</g>
</svg>
</svg>

<style type='text/css'>
<![CDATA[
[data-mouse-over-selected='false'] { opacity: 0.7; }
[data-mouse-over-selected='true']  { opacity: 1.0; }
]]>
</style>
<script type="application/ecmascript"><![CDATA[
document.addEventListener('DOMContentLoaded', (event) => {
  highlightEdges();
  highlightAdjacentNodes();
});
]]></script>
</svg>
