<?xml version="1.0" encoding="UTF-8" standalone="no"?>
<!DOCTYPE svg PUBLIC "-//W3C//DTD SVG 1.1//EN"
 "http://www.w3.org/Graphics/SVG/1.1/DTD/svg11.dtd">
<!-- Generated by graphviz version 2.43.0 (0)
 -->
<!-- Title: Mono.Security.Interface.ValidationResult Pages: 1 -->
<svg width="256pt" height="223pt"
 viewBox="0.00 0.00 255.50 223.00" xmlns="http://www.w3.org/2000/svg" xmlns:xlink="http://www.w3.org/1999/xlink">

<svg id="main" version="1.1" xmlns="http://www.w3.org/2000/svg" xmlns:xlink="http://www.w3.org/1999/xlink" xml:space="preserve" onload="init(evt)">
<style type="text/css"><![CDATA[
.node, .edge {opacity: 0.7;}
.node.selected, .edge.selected {opacity: 1;}
.edge:hover path { stroke: red; }
.edge:hover polygon { stroke: red; fill: red; }
]]></style>
<script type="application/ecmascript" xlink:href="../../svg.min.js"/>
<svg id="graph" class="graph">
<g id="graph0" class="graph" transform="scale(1 1) rotate(0) translate(4 219)">
<title>Mono.Security.Interface.ValidationResult</title>
<!-- Node1 -->
<g id="Node000001" class="node">
<title>Node1</title>
<g id="a_Node000001"><a xlink:title=" ">
<polygon fill="#999999" stroke="transparent" points="201.5,-108 4.5,-108 4.5,0 201.5,0 201.5,-108"/>
<text text-anchor="start" x="44.5" y="-96" font-family="Helvetica,sans-Serif" font-size="10.00">Mono.Security.Interface.</text>
<text text-anchor="start" x="63.5" y="-85" font-family="Helvetica,sans-Serif" font-size="10.00">ValidationResult</text>
<text text-anchor="start" x="9" y="-70" font-family="Helvetica,sans-Serif" font-size="10.00">+</text>
<text text-anchor="start" x="22" y="-70" font-family="Helvetica,sans-Serif" font-size="10.00">bool Trusted</text>
<text text-anchor="start" x="9" y="-55" font-family="Helvetica,sans-Serif" font-size="10.00">+</text>
<text text-anchor="start" x="22" y="-55" font-family="Helvetica,sans-Serif" font-size="10.00">bool UserDenied</text>
<text text-anchor="start" x="9" y="-40" font-family="Helvetica,sans-Serif" font-size="10.00">+</text>
<text text-anchor="start" x="22" y="-40" font-family="Helvetica,sans-Serif" font-size="10.00">ValidationResult(bool</text>
<text text-anchor="start" x="22" y="-29" font-family="Helvetica,sans-Serif" font-size="10.00"> trusted, bool user_denied,</text>
<text text-anchor="start" x="22" y="-18" font-family="Helvetica,sans-Serif" font-size="10.00"> int error_code, MonoSslPolicyErrors</text>
<text text-anchor="start" x="22" y="-7" font-family="Helvetica,sans-Serif" font-size="10.00">? policy_errors)</text>
<polygon fill="#666666" stroke="#666666" points="5,-80 5,-80 202,-80 202,-80 5,-80"/>
<polygon fill="#666666" stroke="#666666" points="5,-50 5,-50 20,-50 20,-50 5,-50"/>
<polygon fill="#666666" stroke="#666666" points="20,-50 20,-50 202,-50 202,-50 20,-50"/>
<polygon fill="none" stroke="#666666" points="4.5,0 4.5,-108 201.5,-108 201.5,0 4.5,0"/>
</a>
</g>
</g>
<!-- Node2 -->
<g id="Node000002" class="node">
<title>Node2</title>
<g id="a_Node000002"><a xlink:title=" ">
<polygon fill="white" stroke="transparent" points="32,-215 0,-215 0,-166 32,-166 32,-215"/>
<text text-anchor="start" x="5" y="-202.5" font-family="Helvetica,sans-Serif" font-size="10.00">bool</text>
<text text-anchor="start" x="14" y="-187.5" font-family="Helvetica,sans-Serif" font-size="10.00"> </text>
<text text-anchor="start" x="14" y="-172.5" font-family="Helvetica,sans-Serif" font-size="10.00"> </text>
<polygon fill="#666666" stroke="#666666" points="0,-197.5 0,-197.5 32,-197.5 32,-197.5 0,-197.5"/>
<polygon fill="#666666" stroke="#666666" points="0,-182.5 0,-182.5 32,-182.5 32,-182.5 0,-182.5"/>
<polygon fill="none" stroke="#666666" points="0,-166 0,-215 32,-215 32,-166 0,-166"/>
</a>
</g>
</g>
<!-- Node2&#45;&gt;Node1 -->
<g id="edge1_Node000001_Node000002" class="edge">
<title>Node2&#45;&gt;Node1</title>
<g id="a_edge1_Node000001_Node000002"><a xlink:title=" ">
<path fill="none" stroke="#63b8ff" d="M20.29,-165.79C23.21,-153.37 27.88,-138.23 35,-126 36.54,-123.35 38.2,-120.73 39.95,-118.14"/>
<polygon fill="none" stroke="#63b8ff" points="40.04,-118.01 40.35,-110.81 47.12,-108.32 46.81,-115.53 40.04,-118.01"/>
</a>
</g>
<text text-anchor="middle" x="67" y="-140" font-family="Helvetica,sans-Serif" font-size="10.00" fill="grey"> &#45;trusted</text>
<text text-anchor="middle" x="67" y="-129" font-family="Helvetica,sans-Serif" font-size="10.00" fill="grey">&#45;user_denied</text>
</g>
<!-- Node3 -->
<g id="Node000003" class="node">
<title>Node3</title>
<g id="a_Node000003"><a xlink:title=" ">
<polygon fill="white" stroke="transparent" points="114.5,-215 91.5,-215 91.5,-166 114.5,-166 114.5,-215"/>
<text text-anchor="start" x="97" y="-202.5" font-family="Helvetica,sans-Serif" font-size="10.00">int</text>
<text text-anchor="start" x="101.5" y="-187.5" font-family="Helvetica,sans-Serif" font-size="10.00"> </text>
<text text-anchor="start" x="101.5" y="-172.5" font-family="Helvetica,sans-Serif" font-size="10.00"> </text>
<polygon fill="#666666" stroke="#666666" points="92,-197.5 92,-197.5 115,-197.5 115,-197.5 92,-197.5"/>
<polygon fill="#666666" stroke="#666666" points="92,-182.5 92,-182.5 115,-182.5 115,-182.5 92,-182.5"/>
<polygon fill="none" stroke="#666666" points="91.5,-166 91.5,-215 114.5,-215 114.5,-166 91.5,-166"/>
</a>
</g>
</g>
<!-- Node3&#45;&gt;Node1 -->
<g id="edge2_Node000001_Node000003" class="edge">
<title>Node3&#45;&gt;Node1</title>
<g id="a_edge2_Node000001_Node000003"><a xlink:title=" ">
<path fill="none" stroke="#63b8ff" d="M103,-165.76C103,-153.02 103,-136.63 103,-120.39"/>
<polygon fill="none" stroke="#63b8ff" points="103,-120.05 99,-114.05 103,-108.05 107,-114.05 103,-120.05"/>
</a>
</g>
<text text-anchor="middle" x="132.5" y="-134.5" font-family="Helvetica,sans-Serif" font-size="10.00" fill="grey"> &#45;error_code</text>
</g>
<!-- Node4 -->
<g id="Node000004" class="node">
<title>Node4</title>
<g id="a_Node000004"><a xlink:title=" ">
<polygon fill="white" stroke="transparent" points="247.5,-215 132.5,-215 132.5,-166 247.5,-166 247.5,-215"/>
<text text-anchor="start" x="138" y="-202.5" font-family="Helvetica,sans-Serif" font-size="10.00">MonoSslPolicyErrors?</text>
<text text-anchor="start" x="188.5" y="-187.5" font-family="Helvetica,sans-Serif" font-size="10.00"> </text>
<text text-anchor="start" x="188.5" y="-172.5" font-family="Helvetica,sans-Serif" font-size="10.00"> </text>
<polygon fill="#666666" stroke="#666666" points="133,-197.5 133,-197.5 248,-197.5 248,-197.5 133,-197.5"/>
<polygon fill="#666666" stroke="#666666" points="133,-182.5 133,-182.5 248,-182.5 248,-182.5 133,-182.5"/>
<polygon fill="none" stroke="#666666" points="132.5,-166 132.5,-215 247.5,-215 247.5,-166 132.5,-166"/>
</a>
</g>
</g>
<!-- Node4&#45;&gt;Node1 -->
<g id="edge3_Node000001_Node000004" class="edge">
<title>Node4&#45;&gt;Node1</title>
<g id="a_edge3_Node000001_Node000004"><a xlink:title=" ">
<path fill="none" stroke="#63b8ff" d="M183.37,-165.94C179.33,-153.55 173.5,-138.41 166,-126 164.34,-123.25 162.57,-120.51 160.71,-117.79"/>
<polygon fill="none" stroke="#63b8ff" points="160.7,-117.78 153.94,-115.27 153.65,-108.07 160.41,-110.58 160.7,-117.78"/>
</a>
</g>
<text text-anchor="middle" x="211" y="-134.5" font-family="Helvetica,sans-Serif" font-size="10.00" fill="grey"> &#45;policy_errors</text>
</g>
</g>
</svg>
</svg>

<style type='text/css'>
<![CDATA[
[data-mouse-over-selected='false'] { opacity: 0.7; }
[data-mouse-over-selected='true']  { opacity: 1.0; }
]]>
</style>
<script type="application/ecmascript"><![CDATA[
document.addEventListener('DOMContentLoaded', (event) => {
  highlightEdges();
  highlightAdjacentNodes();
});
]]></script>
</svg>
