<?xml version="1.0" encoding="UTF-8" standalone="no"?>
<!DOCTYPE svg PUBLIC "-//W3C//DTD SVG 1.1//EN"
 "http://www.w3.org/Graphics/SVG/1.1/DTD/svg11.dtd">
<!-- Generated by graphviz version 2.43.0 (0)
 -->
<!-- Title: Terraria.GameContent.Animations.Actions.Sprites.Fade Pages: 1 -->
<svg width="392pt" height="631pt"
 viewBox="0.00 0.00 391.50 631.00" xmlns="http://www.w3.org/2000/svg" xmlns:xlink="http://www.w3.org/1999/xlink">
<g id="graph0" class="graph" transform="scale(1 1) rotate(0) translate(4 627)">
<title>Terraria.GameContent.Animations.Actions.Sprites.Fade</title>
<!-- Node1 -->
<g id="Node000001" class="node">
<title>Node1</title>
<g id="a_Node000001"><a xlink:title=" ">
<polygon fill="#999999" stroke="transparent" points="311.5,-175 129.5,-175 129.5,0 311.5,0 311.5,-175"/>
<text text-anchor="start" x="136" y="-162.5" font-family="Helvetica,sans-Serif" font-size="10.00">Terraria.GameContent.Animations.</text>
<text text-anchor="start" x="171" y="-151.5" font-family="Helvetica,sans-Serif" font-size="10.00">Actions.Sprites.Fade</text>
<text text-anchor="start" x="133.5" y="-136.5" font-family="Helvetica,sans-Serif" font-size="10.00">+</text>
<text text-anchor="start" x="146.5" y="-136.5" font-family="Helvetica,sans-Serif" font-size="10.00">int ExpectedLengthOfAction</text>
<text text-anchor="start" x="146.5" y="-125.5" font-family="Helvetica,sans-Serif" font-size="10.00">InFrames</text>
<text text-anchor="start" x="133.5" y="-110.5" font-family="Helvetica,sans-Serif" font-size="10.00">+</text>
<text text-anchor="start" x="146.5" y="-110.5" font-family="Helvetica,sans-Serif" font-size="10.00">Fade(float opacityTarget)</text>
<text text-anchor="start" x="133.5" y="-95.5" font-family="Helvetica,sans-Serif" font-size="10.00">+</text>
<text text-anchor="start" x="146.5" y="-95.5" font-family="Helvetica,sans-Serif" font-size="10.00">Fade(float opacityTarget,</text>
<text text-anchor="start" x="146.5" y="-84.5" font-family="Helvetica,sans-Serif" font-size="10.00"> int duration)</text>
<text text-anchor="start" x="133.5" y="-69.5" font-family="Helvetica,sans-Serif" font-size="10.00">+</text>
<text text-anchor="start" x="146.5" y="-69.5" font-family="Helvetica,sans-Serif" font-size="10.00">void BindTo(Segments.Loose</text>
<text text-anchor="start" x="146.5" y="-58.5" font-family="Helvetica,sans-Serif" font-size="10.00">Sprite obj)</text>
<text text-anchor="start" x="133.5" y="-43.5" font-family="Helvetica,sans-Serif" font-size="10.00">+</text>
<text text-anchor="start" x="146.5" y="-43.5" font-family="Helvetica,sans-Serif" font-size="10.00">void SetDelay(float</text>
<text text-anchor="start" x="146.5" y="-32.5" font-family="Helvetica,sans-Serif" font-size="10.00"> delay)</text>
<text text-anchor="start" x="133.5" y="-17.5" font-family="Helvetica,sans-Serif" font-size="10.00">+</text>
<text text-anchor="start" x="146.5" y="-17.5" font-family="Helvetica,sans-Serif" font-size="10.00">void ApplyTo(Segments.Loose</text>
<text text-anchor="start" x="146.5" y="-6.5" font-family="Helvetica,sans-Serif" font-size="10.00">Sprite obj, float localTimeForObj)</text>
<polygon fill="#666666" stroke="#666666" points="129.5,-146.5 129.5,-146.5 311.5,-146.5 311.5,-146.5 129.5,-146.5"/>
<polygon fill="#666666" stroke="#666666" points="129.5,-120.5 129.5,-120.5 144.5,-120.5 144.5,-120.5 129.5,-120.5"/>
<polygon fill="#666666" stroke="#666666" points="144.5,-120.5 144.5,-120.5 311.5,-120.5 311.5,-120.5 144.5,-120.5"/>
<polygon fill="none" stroke="#666666" points="129.5,0 129.5,-175 311.5,-175 311.5,0 129.5,0"/>
</a>
</g>
</g>
<!-- Node2 -->
<g id="Node000002" class="node">
<title>Node2</title>
<g id="a_Node000002"><a xlink:href="../../d5/d50/interfaceTerraria_1_1GameContent_1_1Animations_1_1Actions_1_1Sprites_1_1ISpriteAction.html" target="_top" xlink:title=" ">
<polygon fill="white" stroke="transparent" points="229.5,-293 105.5,-293 105.5,-233 229.5,-233 229.5,-293"/>
<text text-anchor="start" x="110.5" y="-281" font-family="Helvetica,sans-Serif" font-size="10.00">Actions::Sprites::ISprite</text>
<text text-anchor="start" x="152" y="-270" font-family="Helvetica,sans-Serif" font-size="10.00">Action</text>
<text text-anchor="start" x="165.5" y="-255" font-family="Helvetica,sans-Serif" font-size="10.00"> </text>
<text text-anchor="start" x="165.5" y="-240" font-family="Helvetica,sans-Serif" font-size="10.00"> </text>
<polygon fill="#666666" stroke="#666666" points="105.5,-265 105.5,-265 229.5,-265 229.5,-265 105.5,-265"/>
<polygon fill="#666666" stroke="#666666" points="105.5,-250 105.5,-250 229.5,-250 229.5,-250 105.5,-250"/>
<polygon fill="none" stroke="#666666" points="105.5,-233 105.5,-293 229.5,-293 229.5,-233 105.5,-233"/>
</a>
</g>
</g>
<!-- Node2&#45;&gt;Node1 -->
<g id="edge1_Node000001_Node000002" class="edge">
<title>Node2&#45;&gt;Node1</title>
<g id="a_edge1_Node000001_Node000002"><a xlink:title=" ">
<path fill="none" stroke="#63b8ff" d="M179.39,-223.06C183.75,-208.82 188.86,-192.06 193.98,-175.31"/>
<polygon fill="none" stroke="#63b8ff" points="175.95,-222.37 176.37,-232.96 182.64,-224.42 175.95,-222.37"/>
</a>
</g>
</g>
<!-- Node3 -->
<g id="Node000003" class="node">
<title>Node3</title>
<g id="a_Node000003"><a xlink:href="../../d1/d86/interfaceTerraria_1_1GameContent_1_1Animations_1_1IAnimationSegmentAction.html" target="_top" xlink:title=" ">
<polygon fill="white" stroke="transparent" points="168,-453 11,-453 11,-330 168,-330 168,-453"/>
<text text-anchor="start" x="24" y="-440.5" font-family="Helvetica,sans-Serif" font-size="10.00">IAnimationSegmentAction</text>
<text text-anchor="start" x="24" y="-429.5" font-family="Helvetica,sans-Serif" font-size="10.00">&lt; Segments.LooseSprite &gt;</text>
<text text-anchor="start" x="15.5" y="-414.5" font-family="Helvetica,sans-Serif" font-size="10.00">+</text>
<text text-anchor="start" x="28.5" y="-414.5" font-family="Helvetica,sans-Serif" font-size="10.00">int ExpectedLengthOfAction</text>
<text text-anchor="start" x="28.5" y="-403.5" font-family="Helvetica,sans-Serif" font-size="10.00">InFrames</text>
<text text-anchor="start" x="15.5" y="-388.5" font-family="Helvetica,sans-Serif" font-size="10.00">+</text>
<text text-anchor="start" x="28.5" y="-388.5" font-family="Helvetica,sans-Serif" font-size="10.00">void BindTo(T obj)</text>
<text text-anchor="start" x="15.5" y="-373.5" font-family="Helvetica,sans-Serif" font-size="10.00">+</text>
<text text-anchor="start" x="28.5" y="-373.5" font-family="Helvetica,sans-Serif" font-size="10.00">void ApplyTo(T obj,</text>
<text text-anchor="start" x="28.5" y="-362.5" font-family="Helvetica,sans-Serif" font-size="10.00"> float localTimeForObj)</text>
<text text-anchor="start" x="15.5" y="-347.5" font-family="Helvetica,sans-Serif" font-size="10.00">+</text>
<text text-anchor="start" x="28.5" y="-347.5" font-family="Helvetica,sans-Serif" font-size="10.00">void SetDelay(float</text>
<text text-anchor="start" x="28.5" y="-336.5" font-family="Helvetica,sans-Serif" font-size="10.00"> delay)</text>
<polygon fill="#666666" stroke="#666666" points="11.5,-424.5 11.5,-424.5 168.5,-424.5 168.5,-424.5 11.5,-424.5"/>
<polygon fill="#666666" stroke="#666666" points="11.5,-398.5 11.5,-398.5 26.5,-398.5 26.5,-398.5 11.5,-398.5"/>
<polygon fill="#666666" stroke="#666666" points="26.5,-398.5 26.5,-398.5 168.5,-398.5 168.5,-398.5 26.5,-398.5"/>
<polygon fill="none" stroke="#666666" points="11,-330 11,-453 168,-453 168,-330 11,-330"/>
</a>
</g>
</g>
<!-- Node3&#45;&gt;Node1 -->
<g id="edge4_Node000001_Node000003" class="edge">
<title>Node3&#45;&gt;Node1</title>
<g id="a_edge4_Node000001_Node000003"><a xlink:title=" ">
<path fill="none" stroke="#63b8ff" d="M82.9,-319.77C82.77,-291.87 85.78,-260.09 96.5,-233 104.59,-212.56 116.84,-192.99 130.55,-175.21"/>
<polygon fill="none" stroke="#63b8ff" points="79.4,-319.92 83.08,-329.86 86.4,-319.8 79.4,-319.92"/>
</a>
</g>
</g>
<!-- Node3&#45;&gt;Node2 -->
<g id="edge2_Node000002_Node000003" class="edge">
<title>Node3&#45;&gt;Node2</title>
<g id="a_edge2_Node000002_Node000003"><a xlink:title=" ">
<path fill="none" stroke="#63b8ff" d="M132.27,-321.14C138.35,-311.27 144.32,-301.6 149.56,-293.1"/>
<polygon fill="none" stroke="#63b8ff" points="129.17,-319.49 126.9,-329.84 135.13,-323.17 129.17,-319.49"/>
</a>
</g>
</g>
<!-- Node4 -->
<g id="Node000004" class="node">
<title>Node4</title>
<g id="a_Node000004"><a xlink:href="../../d1/d86/interfaceTerraria_1_1GameContent_1_1Animations_1_1IAnimationSegmentAction.html" target="_top" xlink:title=" ">
<polygon fill="white" stroke="transparent" points="179,-623 0,-623 0,-500 179,-500 179,-623"/>
<text text-anchor="start" x="5.5" y="-610.5" font-family="Helvetica,sans-Serif" font-size="10.00">Terraria.GameContent.Animations.</text>
<text text-anchor="start" x="11.5" y="-599.5" font-family="Helvetica,sans-Serif" font-size="10.00">IAnimationSegmentAction&lt; T &gt;</text>
<text text-anchor="start" x="10" y="-584.5" font-family="Helvetica,sans-Serif" font-size="10.00">+</text>
<text text-anchor="start" x="28.5" y="-584.5" font-family="Helvetica,sans-Serif" font-size="10.00">int ExpectedLengthOfAction</text>
<text text-anchor="start" x="28.5" y="-573.5" font-family="Helvetica,sans-Serif" font-size="10.00">InFrames</text>
<text text-anchor="start" x="10" y="-558.5" font-family="Helvetica,sans-Serif" font-size="10.00">+</text>
<text text-anchor="start" x="28.5" y="-558.5" font-family="Helvetica,sans-Serif" font-size="10.00">void BindTo(T obj)</text>
<text text-anchor="start" x="10" y="-543.5" font-family="Helvetica,sans-Serif" font-size="10.00">+</text>
<text text-anchor="start" x="28.5" y="-543.5" font-family="Helvetica,sans-Serif" font-size="10.00">void ApplyTo(T obj,</text>
<text text-anchor="start" x="28.5" y="-532.5" font-family="Helvetica,sans-Serif" font-size="10.00"> float localTimeForObj)</text>
<text text-anchor="start" x="10" y="-517.5" font-family="Helvetica,sans-Serif" font-size="10.00">+</text>
<text text-anchor="start" x="28.5" y="-517.5" font-family="Helvetica,sans-Serif" font-size="10.00">void SetDelay(float</text>
<text text-anchor="start" x="28.5" y="-506.5" font-family="Helvetica,sans-Serif" font-size="10.00"> delay)</text>
<polygon fill="#666666" stroke="#666666" points="0.5,-594.5 0.5,-594.5 179.5,-594.5 179.5,-594.5 0.5,-594.5"/>
<polygon fill="#666666" stroke="#666666" points="0.5,-568.5 0.5,-568.5 26.5,-568.5 26.5,-568.5 0.5,-568.5"/>
<polygon fill="#666666" stroke="#666666" points="26.5,-568.5 26.5,-568.5 179.5,-568.5 179.5,-568.5 26.5,-568.5"/>
<polygon fill="none" stroke="#666666" points="0,-500 0,-623 179,-623 179,-500 0,-500"/>
</a>
</g>
</g>
<!-- Node4&#45;&gt;Node3 -->
<g id="edge3_Node000003_Node000004" class="edge">
<title>Node4&#45;&gt;Node3</title>
<g id="a_edge3_Node000003_Node000004"><a xlink:title=" ">
<path fill="none" stroke="orange" d="M89.5,-489.72C89.5,-477.53 89.5,-464.95 89.5,-453.06"/>
<polygon fill="orange" stroke="orange" points="86,-489.85 89.5,-499.85 93,-489.85 86,-489.85"/>
</a>
</g>
<text text-anchor="middle" x="157" y="-474" font-family="Helvetica,sans-Serif" font-size="10.00" fill="grey"> &lt; Segments.LooseSprite &gt;</text>
</g>
<!-- Node5 -->
<g id="Node000005" class="node">
<title>Node5</title>
<g id="a_Node000005"><a xlink:title=" ">
<polygon fill="white" stroke="transparent" points="271,-287.5 248,-287.5 248,-238.5 271,-238.5 271,-287.5"/>
<text text-anchor="start" x="253.5" y="-275" font-family="Helvetica,sans-Serif" font-size="10.00">int</text>
<text text-anchor="start" x="258" y="-260" font-family="Helvetica,sans-Serif" font-size="10.00"> </text>
<text text-anchor="start" x="258" y="-245" font-family="Helvetica,sans-Serif" font-size="10.00"> </text>
<polygon fill="#666666" stroke="#666666" points="248.5,-270 248.5,-270 271.5,-270 271.5,-270 248.5,-270"/>
<polygon fill="#666666" stroke="#666666" points="248.5,-255 248.5,-255 271.5,-255 271.5,-255 248.5,-255"/>
<polygon fill="none" stroke="#666666" points="248,-238.5 248,-287.5 271,-287.5 271,-238.5 248,-238.5"/>
</a>
</g>
</g>
<!-- Node5&#45;&gt;Node1 -->
<g id="edge5_Node000001_Node000005" class="edge">
<title>Node5&#45;&gt;Node1</title>
<g id="a_edge5_Node000001_Node000005"><a xlink:title=" ">
<path fill="none" stroke="#63b8ff" d="M251.94,-238.21C249.72,-230.81 247.38,-222.6 245.5,-215 243.27,-205.98 241.11,-196.57 239.05,-187.12"/>
<polygon fill="none" stroke="#63b8ff" points="239,-186.9 233.84,-181.86 236.5,-175.16 241.66,-180.19 239,-186.9"/>
</a>
</g>
<text text-anchor="middle" x="272" y="-201.5" font-family="Helvetica,sans-Serif" font-size="10.00" fill="grey"> &#45;_duration</text>
</g>
<!-- Node6 -->
<g id="Node000006" class="node">
<title>Node6</title>
<g id="a_Node000006"><a xlink:title=" ">
<polygon fill="white" stroke="transparent" points="336.5,-287.5 304.5,-287.5 304.5,-238.5 336.5,-238.5 336.5,-287.5"/>
<text text-anchor="start" x="309.5" y="-275" font-family="Helvetica,sans-Serif" font-size="10.00">float</text>
<text text-anchor="start" x="318.5" y="-260" font-family="Helvetica,sans-Serif" font-size="10.00"> </text>
<text text-anchor="start" x="318.5" y="-245" font-family="Helvetica,sans-Serif" font-size="10.00"> </text>
<polygon fill="#666666" stroke="#666666" points="304.5,-270 304.5,-270 336.5,-270 336.5,-270 304.5,-270"/>
<polygon fill="#666666" stroke="#666666" points="304.5,-255 304.5,-255 336.5,-255 336.5,-255 304.5,-255"/>
<polygon fill="none" stroke="#666666" points="304.5,-238.5 304.5,-287.5 336.5,-287.5 336.5,-238.5 304.5,-238.5"/>
</a>
</g>
</g>
<!-- Node6&#45;&gt;Node1 -->
<g id="edge6_Node000001_Node000006" class="edge">
<title>Node6&#45;&gt;Node1</title>
<g id="a_edge6_Node000001_Node000006"><a xlink:title=" ">
<path fill="none" stroke="#63b8ff" d="M315.02,-238.23C311.36,-224.56 305.86,-207.31 298.5,-193 297.26,-190.59 295.96,-188.17 294.62,-185.76"/>
<polygon fill="none" stroke="#63b8ff" points="294.51,-185.57 288.03,-182.41 288.46,-175.21 294.94,-178.37 294.51,-185.57"/>
</a>
</g>
<text text-anchor="middle" x="345.5" y="-207" font-family="Helvetica,sans-Serif" font-size="10.00" fill="grey"> &#45;_delay</text>
<text text-anchor="middle" x="345.5" y="-196" font-family="Helvetica,sans-Serif" font-size="10.00" fill="grey">&#45;_opacityTarget</text>
</g>
</g>
</svg>
