<?xml version="1.0" encoding="UTF-8" standalone="no"?>
<!DOCTYPE svg PUBLIC "-//W3C//DTD SVG 1.1//EN"
 "http://www.w3.org/Graphics/SVG/1.1/DTD/svg11.dtd">
<!-- Generated by graphviz version 2.43.0 (0)
 -->
<!-- Title: Terraria.GameContent.ItemDropRules.OneFromOptionsNotScaledWithLuckDropRule Pages: 1 -->
<!--zoomable 508 -->

<svg id="main" version="1.1" xmlns="http://www.w3.org/2000/svg" xmlns:xlink="http://www.w3.org/1999/xlink" xml:space="preserve" onload="init(evt)">
<style type="text/css"><![CDATA[
.node, .edge {opacity: 0.7;}
.node.selected, .edge.selected {opacity: 1;}
.edge:hover path { stroke: red; }
.edge:hover polygon { stroke: red; fill: red; }
]]></style>

<defs>
  <circle id="rim" cx="0" cy="0" r="7"/>
  <circle id="rim2" cx="0" cy="0" r="3.5"/>
  <g id="zoomPlus">
    <use xlink:href="#rim" fill="#404040"><set attributeName="fill" to="#808080" begin="zoomplus.mouseover" end="zoomplus.mouseout"/></use>
    <path d="M-4,0h8M0,-4v8" fill="none" stroke="white" stroke-width="1.5" pointer-events="none"/>
  </g>
  <g id="zoomMin">
    <use xlink:href="#rim" fill="#404040"><set attributeName="fill" to="#808080" begin="zoomminus.mouseover" end="zoomminus.mouseout"/></use>
    <path d="M-4,0h8" fill="none" stroke="white" stroke-width="1.5" pointer-events="none"/>
  </g>
  <g id="arrowUp" transform="translate(30 24)">
    <use xlink:href="#rim"/>
    <path pointer-events="none" fill="none" stroke="white" stroke-width="1.5" d="M0,-3.0v7 M-2.5,-0.5L0,-3.0L2.5,-0.5"/>
  </g>
  <g id="arrowRight" transform="rotate(90) translate(36 -43)">
    <use xlink:href="#rim"/>
    <path pointer-events="none" fill="none" stroke="white" stroke-width="1.5" d="M0,-3.0v7 M-2.5,-0.5L0,-3.0L2.5,-0.5"/>
  </g>
  <g id="arrowDown" transform="rotate(180) translate(-30 -48)">
    <use xlink:href="#rim"/>
    <path pointer-events="none" fill="none" stroke="white" stroke-width="1.5" d="M0,-3.0v7 M-2.5,-0.5L0,-3.0L2.5,-0.5"/>
  </g>
  <g id="arrowLeft" transform="rotate(270) translate(-36 17)">
    <use xlink:href="#rim"/>
    <path pointer-events="none" fill="none" stroke="white" stroke-width="1.5" d="M0,-3.0v7 M-2.5,-0.5L0,-3.0L2.5,-0.5"/>
  </g>
  <g id="resetDef">
    <use xlink:href="#rim2" fill="#404040"><set attributeName="fill" to="#808080" begin="reset.mouseover" end="reset.mouseout"/></use>
  </g>
</defs>
<script type="application/ecmascript">
var viewWidth = 240;
var viewHeight = 508;
var sectionId = 'dynsection-0';
</script>
<script type="application/ecmascript" xlink:href="../../svg.min.js"/>
<svg id="graph" class="graph">
<g id="viewport">
<title>Terraria.GameContent.ItemDropRules.OneFromOptionsNotScaledWithLuckDropRule</title>
<!-- Node1 -->
<g id="Node000001" class="node">
<title>Node1</title>
<g id="a_Node000001"><a xlink:title=" ">
<polygon fill="#999999" stroke="transparent" points="232,-308 0,-308 0,0 232,0 232,-308"/>
<text text-anchor="start" x="23.5" y="-296" font-family="Helvetica,sans-Serif" font-size="10.00">Terraria.GameContent.Item</text>
<text text-anchor="start" x="23.5" y="-285" font-family="Helvetica,sans-Serif" font-size="10.00">DropRules.OneFromOptionsNotScaled</text>
<text text-anchor="start" x="70.5" y="-274" font-family="Helvetica,sans-Serif" font-size="10.00">WithLuckDropRule</text>
<text text-anchor="start" x="4" y="-259" font-family="Helvetica,sans-Serif" font-size="10.00">+</text>
<text text-anchor="start" x="17" y="-259" font-family="Helvetica,sans-Serif" font-size="10.00">int[] dropIds</text>
<text text-anchor="start" x="4" y="-244" font-family="Helvetica,sans-Serif" font-size="10.00">+</text>
<text text-anchor="start" x="17" y="-244" font-family="Helvetica,sans-Serif" font-size="10.00">int chanceDenominator</text>
<text text-anchor="start" x="4" y="-229" font-family="Helvetica,sans-Serif" font-size="10.00">+</text>
<text text-anchor="start" x="17" y="-229" font-family="Helvetica,sans-Serif" font-size="10.00">int chanceNumerator</text>
<text text-anchor="start" x="4" y="-214" font-family="Helvetica,sans-Serif" font-size="10.00">+</text>
<text text-anchor="start" x="17" y="-214" font-family="Helvetica,sans-Serif" font-size="10.00">List&lt; IItemDropRuleChain</text>
<text text-anchor="start" x="17" y="-203" font-family="Helvetica,sans-Serif" font-size="10.00">Attempt &gt; ChainedRules</text>
<text text-anchor="start" x="6.5" y="-188" font-family="Helvetica,sans-Serif" font-size="10.00">&#45;</text>
<text text-anchor="start" x="17" y="-188" font-family="Helvetica,sans-Serif" font-size="10.00">List&lt; IItemDropRuleChain</text>
<text text-anchor="start" x="17" y="-177" font-family="Helvetica,sans-Serif" font-size="10.00">Attempt &gt;&lt; ChainedRules</text>
<text text-anchor="start" x="17" y="-166" font-family="Helvetica,sans-Serif" font-size="10.00"> &gt; k__BackingField</text>
<text text-anchor="start" x="4" y="-151" font-family="Helvetica,sans-Serif" font-size="10.00">+</text>
<text text-anchor="start" x="17" y="-151" font-family="Helvetica,sans-Serif" font-size="10.00">OneFromOptionsNotScaled</text>
<text text-anchor="start" x="17" y="-140" font-family="Helvetica,sans-Serif" font-size="10.00">WithLuckDropRule(int chanceDenominator,</text>
<text text-anchor="start" x="17" y="-129" font-family="Helvetica,sans-Serif" font-size="10.00"> int chanceNumerator, params int</text>
<text text-anchor="start" x="17" y="-118" font-family="Helvetica,sans-Serif" font-size="10.00">[] options)</text>
<text text-anchor="start" x="4" y="-103" font-family="Helvetica,sans-Serif" font-size="10.00">+</text>
<text text-anchor="start" x="17" y="-103" font-family="Helvetica,sans-Serif" font-size="10.00">bool CanDrop(DropAttempt</text>
<text text-anchor="start" x="17" y="-92" font-family="Helvetica,sans-Serif" font-size="10.00">Info info)</text>
<text text-anchor="start" x="4" y="-77" font-family="Helvetica,sans-Serif" font-size="10.00">+</text>
<text text-anchor="start" x="17" y="-77" font-family="Helvetica,sans-Serif" font-size="10.00">ItemDropAttemptResult</text>
<text text-anchor="start" x="17" y="-66" font-family="Helvetica,sans-Serif" font-size="10.00"> TryDroppingItem(DropAttempt</text>
<text text-anchor="start" x="17" y="-55" font-family="Helvetica,sans-Serif" font-size="10.00">Info info)</text>
<text text-anchor="start" x="4" y="-40" font-family="Helvetica,sans-Serif" font-size="10.00">+</text>
<text text-anchor="start" x="17" y="-40" font-family="Helvetica,sans-Serif" font-size="10.00">void ReportDroprates</text>
<text text-anchor="start" x="17" y="-29" font-family="Helvetica,sans-Serif" font-size="10.00">(List&lt; DropRateInfo &gt;</text>
<text text-anchor="start" x="17" y="-18" font-family="Helvetica,sans-Serif" font-size="10.00"> drops, DropRateInfoChainFeed</text>
<text text-anchor="start" x="17" y="-7" font-family="Helvetica,sans-Serif" font-size="10.00"> ratesInfo)</text>
<polygon fill="#666666" stroke="#666666" points="0,-269 0,-269 232,-269 232,-269 0,-269"/>
<polygon fill="#666666" stroke="#666666" points="0,-161 0,-161 15,-161 15,-161 0,-161"/>
<polygon fill="#666666" stroke="#666666" points="15,-161 15,-161 232,-161 232,-161 15,-161"/>
<polygon fill="none" stroke="#666666" points="0,0 0,-308 232,-308 232,0 0,0"/>
</a>
</g>
</g>
<!-- Node2 -->
<g id="Node000002" class="node">
<title>Node2</title>
<g id="a_Node000002"><a xlink:href="../../de/dd1/interfaceTerraria_1_1GameContent_1_1ItemDropRules_1_1IItemDropRule.html" target="_top" xlink:title=" ">
<polygon fill="white" stroke="transparent" points="202.5,-500 29.5,-500 29.5,-344 202.5,-344 202.5,-500"/>
<text text-anchor="start" x="81" y="-488" font-family="Helvetica,sans-Serif" font-size="10.00">IItemDropRule</text>
<text text-anchor="start" x="34" y="-473" font-family="Helvetica,sans-Serif" font-size="10.00">+</text>
<text text-anchor="start" x="47" y="-473" font-family="Helvetica,sans-Serif" font-size="10.00">List&lt; IItemDropRuleChain</text>
<text text-anchor="start" x="47" y="-462" font-family="Helvetica,sans-Serif" font-size="10.00">Attempt &gt; ChainedRules</text>
<text text-anchor="start" x="34" y="-447" font-family="Helvetica,sans-Serif" font-size="10.00">+</text>
<text text-anchor="start" x="47" y="-447" font-family="Helvetica,sans-Serif" font-size="10.00">bool CanDrop(DropAttempt</text>
<text text-anchor="start" x="47" y="-436" font-family="Helvetica,sans-Serif" font-size="10.00">Info info)</text>
<text text-anchor="start" x="34" y="-421" font-family="Helvetica,sans-Serif" font-size="10.00">+</text>
<text text-anchor="start" x="47" y="-421" font-family="Helvetica,sans-Serif" font-size="10.00">void ReportDroprates</text>
<text text-anchor="start" x="47" y="-410" font-family="Helvetica,sans-Serif" font-size="10.00">(List&lt; DropRateInfo &gt;</text>
<text text-anchor="start" x="47" y="-399" font-family="Helvetica,sans-Serif" font-size="10.00"> drops, DropRateInfoChainFeed</text>
<text text-anchor="start" x="47" y="-388" font-family="Helvetica,sans-Serif" font-size="10.00"> ratesInfo)</text>
<text text-anchor="start" x="34" y="-373" font-family="Helvetica,sans-Serif" font-size="10.00">+</text>
<text text-anchor="start" x="47" y="-373" font-family="Helvetica,sans-Serif" font-size="10.00">ItemDropAttemptResult</text>
<text text-anchor="start" x="47" y="-362" font-family="Helvetica,sans-Serif" font-size="10.00"> TryDroppingItem(DropAttempt</text>
<text text-anchor="start" x="47" y="-351" font-family="Helvetica,sans-Serif" font-size="10.00">Info info)</text>
<polygon fill="#666666" stroke="#666666" points="30,-483 30,-483 203,-483 203,-483 30,-483"/>
<polygon fill="#666666" stroke="#666666" points="30,-457 30,-457 45,-457 45,-457 30,-457"/>
<polygon fill="#666666" stroke="#666666" points="45,-457 45,-457 203,-457 203,-457 45,-457"/>
<polygon fill="none" stroke="#666666" points="29.5,-344 29.5,-500 202.5,-500 202.5,-344 29.5,-344"/>
</a>
</g>
</g>
<!-- Node2&#45;&gt;Node1 -->
<g id="edge1_Node000001_Node000002" class="edge">
<title>Node2&#45;&gt;Node1</title>
<g id="a_edge1_Node000001_Node000002"><a xlink:title=" ">
<path fill="none" stroke="#63b8ff" d="M116,-333.43C116,-325.2 116,-316.71 116,-308.1"/>
<polygon fill="none" stroke="#63b8ff" points="112.5,-333.7 116,-343.7 119.5,-333.7 112.5,-333.7"/>
</a>
</g>
</g>
</g>
</svg>

<g id="navigator" transform="translate(0 0)" fill="#404254">
  <rect fill="#f2f5e9" fill-opacity="0.5" stroke="#606060" stroke-width=".5" x="0" y="0" width="60" height="60"/>
  <use id="zoomplus" xlink:href="#zoomPlus" x="17" y="9" onmousedown="handleZoom(evt,'in')"/>
  <use id="zoomminus" xlink:href="#zoomMin" x="42" y="9" onmousedown="handleZoom(evt,'out')"/>
  <use id="reset" xlink:href="#resetDef" x="30" y="36" onmousedown="handleReset()"/>
   <use id="arrowup" xlink:href="#arrowUp" x="0" y="0" onmousedown="handlePan(0,-1)"/>
  <use id="arrowright" xlink:href="#arrowRight" x="0" y="0" onmousedown="handlePan(1,0)"/>
  <use id="arrowdown" xlink:href="#arrowDown" x="0" y="0" onmousedown="handlePan(0,1)"/>
  <use id="arrowleft" xlink:href="#arrowLeft" x="0" y="0" onmousedown="handlePan(-1,0)"/>
</g>
<svg viewBox="0 0 15 15" width="100%" height="30px" preserveAspectRatio="xMaxYMin meet">
 <g id="arrow_out" transform="scale(0.3 0.3)">
  <a xlink:href="classTerraria_1_1GameContent_1_1ItemDropRules_1_1OneFromOptionsNotScaledWithLuckDropRule__inherit__graph_org.svg" target="_base">
   <rect id="button" ry="5" rx="5" y="6" x="6" height="38" width="38"
        fill="#f2f5e9" fill-opacity="0.5" stroke="#606060" stroke-width="1.0"/>
   <path id="arrow"
     d="M 11.500037,31.436501 C 11.940474,20.09759 22.043105,11.32322 32.158766,21.979434 L 37.068811,17.246167 C 37.068811,17.246167 37.088388,32 37.088388,32 L 22.160133,31.978069 C 22.160133,31.978069 26.997745,27.140456 26.997745,27.140456 C 18.528582,18.264221 13.291696,25.230495 11.500037,31.436501 z"
     style="fill:#404040;"/>
  </a>
 </g>
</svg>

<style type='text/css'>
<![CDATA[
[data-mouse-over-selected='false'] { opacity: 0.7; }
[data-mouse-over-selected='true']  { opacity: 1.0; }
]]>
</style>
<script type="application/ecmascript"><![CDATA[
document.addEventListener('DOMContentLoaded', (event) => {
  highlightEdges();
  highlightAdjacentNodes();
});
]]></script>
</svg>
