<?xml version="1.0" encoding="UTF-8" standalone="no"?>
<!DOCTYPE svg PUBLIC "-//W3C//DTD SVG 1.1//EN"
 "http://www.w3.org/Graphics/SVG/1.1/DTD/svg11.dtd">
<!-- Generated by graphviz version 2.43.0 (0)
 -->
<!-- Title: System.ComponentModel.WarningException Pages: 1 -->
<!--zoomable 616 -->

<svg id="main" version="1.1" xmlns="http://www.w3.org/2000/svg" xmlns:xlink="http://www.w3.org/1999/xlink" xml:space="preserve" onload="init(evt)">
<style type="text/css"><![CDATA[
.node, .edge {opacity: 0.7;}
.node.selected, .edge.selected {opacity: 1;}
.edge:hover path { stroke: red; }
.edge:hover polygon { stroke: red; fill: red; }
]]></style>

<defs>
  <circle id="rim" cx="0" cy="0" r="7"/>
  <circle id="rim2" cx="0" cy="0" r="3.5"/>
  <g id="zoomPlus">
    <use xlink:href="#rim" fill="#404040"><set attributeName="fill" to="#808080" begin="zoomplus.mouseover" end="zoomplus.mouseout"/></use>
    <path d="M-4,0h8M0,-4v8" fill="none" stroke="white" stroke-width="1.5" pointer-events="none"/>
  </g>
  <g id="zoomMin">
    <use xlink:href="#rim" fill="#404040"><set attributeName="fill" to="#808080" begin="zoomminus.mouseover" end="zoomminus.mouseout"/></use>
    <path d="M-4,0h8" fill="none" stroke="white" stroke-width="1.5" pointer-events="none"/>
  </g>
  <g id="arrowUp" transform="translate(30 24)">
    <use xlink:href="#rim"/>
    <path pointer-events="none" fill="none" stroke="white" stroke-width="1.5" d="M0,-3.0v7 M-2.5,-0.5L0,-3.0L2.5,-0.5"/>
  </g>
  <g id="arrowRight" transform="rotate(90) translate(36 -43)">
    <use xlink:href="#rim"/>
    <path pointer-events="none" fill="none" stroke="white" stroke-width="1.5" d="M0,-3.0v7 M-2.5,-0.5L0,-3.0L2.5,-0.5"/>
  </g>
  <g id="arrowDown" transform="rotate(180) translate(-30 -48)">
    <use xlink:href="#rim"/>
    <path pointer-events="none" fill="none" stroke="white" stroke-width="1.5" d="M0,-3.0v7 M-2.5,-0.5L0,-3.0L2.5,-0.5"/>
  </g>
  <g id="arrowLeft" transform="rotate(270) translate(-36 17)">
    <use xlink:href="#rim"/>
    <path pointer-events="none" fill="none" stroke="white" stroke-width="1.5" d="M0,-3.0v7 M-2.5,-0.5L0,-3.0L2.5,-0.5"/>
  </g>
  <g id="resetDef">
    <use xlink:href="#rim2" fill="#404040"><set attributeName="fill" to="#808080" begin="reset.mouseover" end="reset.mouseout"/></use>
  </g>
</defs>
<script type="application/ecmascript">
var viewWidth = 234;
var viewHeight = 616;
var sectionId = 'dynsection-0';
</script>
<script type="application/ecmascript" xlink:href="../../svg.min.js"/>
<svg id="graph" class="graph">
<g id="viewport">
<title>System.ComponentModel.WarningException</title>
<!-- Node1 -->
<g id="Node000001" class="node">
<title>Node1</title>
<g id="a_Node000001"><a xlink:title=" ">
<polygon fill="#999999" stroke="transparent" points="214,-316 12,-316 12,0 214,0 214,-316"/>
<text text-anchor="start" x="28.5" y="-304" font-family="Helvetica,sans-Serif" font-size="10.00">System.ComponentModel.Warning</text>
<text text-anchor="start" x="88.5" y="-293" font-family="Helvetica,sans-Serif" font-size="10.00">Exception</text>
<text text-anchor="start" x="16" y="-278" font-family="Helvetica,sans-Serif" font-size="10.00">+</text>
<text text-anchor="start" x="29" y="-278" font-family="Helvetica,sans-Serif" font-size="10.00">string HelpUrl</text>
<text text-anchor="start" x="16" y="-263" font-family="Helvetica,sans-Serif" font-size="10.00">+</text>
<text text-anchor="start" x="29" y="-263" font-family="Helvetica,sans-Serif" font-size="10.00">string HelpTopic</text>
<text text-anchor="start" x="18.5" y="-248" font-family="Helvetica,sans-Serif" font-size="10.00">&#45;</text>
<text text-anchor="start" x="29" y="-248" font-family="Helvetica,sans-Serif" font-size="10.00">readonly string&lt; HelpUrl</text>
<text text-anchor="start" x="29" y="-237" font-family="Helvetica,sans-Serif" font-size="10.00"> &gt; k__BackingField</text>
<text text-anchor="start" x="18.5" y="-222" font-family="Helvetica,sans-Serif" font-size="10.00">&#45;</text>
<text text-anchor="start" x="29" y="-222" font-family="Helvetica,sans-Serif" font-size="10.00">readonly string&lt; HelpTopic</text>
<text text-anchor="start" x="29" y="-211" font-family="Helvetica,sans-Serif" font-size="10.00"> &gt; k__BackingField</text>
<text text-anchor="start" x="16" y="-196" font-family="Helvetica,sans-Serif" font-size="10.00">+</text>
<text text-anchor="start" x="29" y="-196" font-family="Helvetica,sans-Serif" font-size="10.00">WarningException()</text>
<text text-anchor="start" x="16" y="-181" font-family="Helvetica,sans-Serif" font-size="10.00">+</text>
<text text-anchor="start" x="29" y="-181" font-family="Helvetica,sans-Serif" font-size="10.00">WarningException(string</text>
<text text-anchor="start" x="29" y="-170" font-family="Helvetica,sans-Serif" font-size="10.00"> message)</text>
<text text-anchor="start" x="16" y="-155" font-family="Helvetica,sans-Serif" font-size="10.00">+</text>
<text text-anchor="start" x="29" y="-155" font-family="Helvetica,sans-Serif" font-size="10.00">WarningException(string</text>
<text text-anchor="start" x="29" y="-144" font-family="Helvetica,sans-Serif" font-size="10.00"> message, string helpUrl)</text>
<text text-anchor="start" x="16" y="-129" font-family="Helvetica,sans-Serif" font-size="10.00">+</text>
<text text-anchor="start" x="29" y="-129" font-family="Helvetica,sans-Serif" font-size="10.00">WarningException(string</text>
<text text-anchor="start" x="29" y="-118" font-family="Helvetica,sans-Serif" font-size="10.00"> message, Exception innerException)</text>
<text text-anchor="start" x="16" y="-103" font-family="Helvetica,sans-Serif" font-size="10.00">+</text>
<text text-anchor="start" x="29" y="-103" font-family="Helvetica,sans-Serif" font-size="10.00">WarningException(string</text>
<text text-anchor="start" x="29" y="-92" font-family="Helvetica,sans-Serif" font-size="10.00"> message, string helpUrl,</text>
<text text-anchor="start" x="29" y="-81" font-family="Helvetica,sans-Serif" font-size="10.00"> string helpTopic)</text>
<text text-anchor="start" x="16" y="-66" font-family="Helvetica,sans-Serif" font-size="10.00">+</text>
<text text-anchor="start" x="29" y="-66" font-family="Helvetica,sans-Serif" font-size="10.00">override void GetObjectData</text>
<text text-anchor="start" x="29" y="-55" font-family="Helvetica,sans-Serif" font-size="10.00">(SerializationInfo info,</text>
<text text-anchor="start" x="29" y="-44" font-family="Helvetica,sans-Serif" font-size="10.00"> StreamingContext context)</text>
<text text-anchor="start" x="16" y="-29" font-family="Helvetica,sans-Serif" font-size="10.00">#</text>
<text text-anchor="start" x="29" y="-29" font-family="Helvetica,sans-Serif" font-size="10.00">WarningException(Serialization</text>
<text text-anchor="start" x="29" y="-18" font-family="Helvetica,sans-Serif" font-size="10.00">Info info, StreamingContext</text>
<text text-anchor="start" x="29" y="-7" font-family="Helvetica,sans-Serif" font-size="10.00"> context)</text>
<polygon fill="#666666" stroke="#666666" points="12,-288 12,-288 214,-288 214,-288 12,-288"/>
<polygon fill="#666666" stroke="#666666" points="12,-206 12,-206 27,-206 27,-206 12,-206"/>
<polygon fill="#666666" stroke="#666666" points="27,-206 27,-206 214,-206 214,-206 27,-206"/>
<polygon fill="none" stroke="#666666" points="12,0 12,-316 214,-316 214,0 12,0"/>
</a>
</g>
</g>
<!-- Node2 -->
<g id="Node000002" class="node">
<title>Node2</title>
<g id="a_Node000002"><a xlink:href="../../d8/d7a/classSystem_1_1SystemException.html" target="_top" xlink:title=" ">
<polygon fill="white" stroke="transparent" points="226,-523 0,-523 0,-352 226,-352 226,-523"/>
<text text-anchor="start" x="70.5" y="-510.5" font-family="Helvetica,sans-Serif" font-size="10.00">SystemException</text>
<text text-anchor="start" x="111" y="-495.5" font-family="Helvetica,sans-Serif" font-size="10.00"> </text>
<text text-anchor="start" x="4" y="-480.5" font-family="Helvetica,sans-Serif" font-size="10.00">+</text>
<text text-anchor="start" x="17" y="-480.5" font-family="Helvetica,sans-Serif" font-size="10.00">SystemException()</text>
<text text-anchor="start" x="4" y="-465.5" font-family="Helvetica,sans-Serif" font-size="10.00">+</text>
<text text-anchor="start" x="17" y="-465.5" font-family="Helvetica,sans-Serif" font-size="10.00">SystemException(string</text>
<text text-anchor="start" x="17" y="-454.5" font-family="Helvetica,sans-Serif" font-size="10.00"> message)</text>
<text text-anchor="start" x="4" y="-439.5" font-family="Helvetica,sans-Serif" font-size="10.00">+</text>
<text text-anchor="start" x="17" y="-439.5" font-family="Helvetica,sans-Serif" font-size="10.00">SystemException(string</text>
<text text-anchor="start" x="17" y="-428.5" font-family="Helvetica,sans-Serif" font-size="10.00"> message, global::System.Exception</text>
<text text-anchor="start" x="17" y="-417.5" font-family="Helvetica,sans-Serif" font-size="10.00"> innerException)</text>
<text text-anchor="start" x="4" y="-402.5" font-family="Helvetica,sans-Serif" font-size="10.00">#</text>
<text text-anchor="start" x="17" y="-402.5" font-family="Helvetica,sans-Serif" font-size="10.00">SystemException(global</text>
<text text-anchor="start" x="17" y="-391.5" font-family="Helvetica,sans-Serif" font-size="10.00">::System.Runtime.Serialization.</text>
<text text-anchor="start" x="17" y="-380.5" font-family="Helvetica,sans-Serif" font-size="10.00">SerializationInfo info, global</text>
<text text-anchor="start" x="17" y="-369.5" font-family="Helvetica,sans-Serif" font-size="10.00">::System.Runtime.Serialization.Streaming</text>
<text text-anchor="start" x="17" y="-358.5" font-family="Helvetica,sans-Serif" font-size="10.00">Context context)</text>
<polygon fill="#666666" stroke="#666666" points="0,-505.5 0,-505.5 226,-505.5 226,-505.5 0,-505.5"/>
<polygon fill="#666666" stroke="#666666" points="0,-490.5 0,-490.5 226,-490.5 226,-490.5 0,-490.5"/>
<polygon fill="none" stroke="#666666" points="0,-352 0,-523 226,-523 226,-352 0,-352"/>
</a>
</g>
</g>
<!-- Node2&#45;&gt;Node1 -->
<g id="edge1_Node000001_Node000002" class="edge">
<title>Node2&#45;&gt;Node1</title>
<g id="a_edge1_Node000001_Node000002"><a xlink:title=" ">
<path fill="none" stroke="#63b8ff" d="M113,-341.72C113,-333.4 113,-324.85 113,-316.2"/>
<polygon fill="none" stroke="#63b8ff" points="109.5,-341.73 113,-351.73 116.5,-341.73 109.5,-341.73"/>
</a>
</g>
</g>
<!-- Node3 -->
<g id="Node000003" class="node">
<title>Node3</title>
<g id="a_Node000003"><a xlink:title=" ">
<polygon fill="white" stroke="transparent" points="178.5,-608 47.5,-608 47.5,-559 178.5,-559 178.5,-608"/>
<text text-anchor="start" x="53" y="-595.5" font-family="Helvetica,sans-Serif" font-size="10.00">global::SystemException</text>
<text text-anchor="start" x="111.5" y="-580.5" font-family="Helvetica,sans-Serif" font-size="10.00"> </text>
<text text-anchor="start" x="111.5" y="-565.5" font-family="Helvetica,sans-Serif" font-size="10.00"> </text>
<polygon fill="#666666" stroke="#666666" points="48,-590.5 48,-590.5 179,-590.5 179,-590.5 48,-590.5"/>
<polygon fill="#666666" stroke="#666666" points="48,-575.5 48,-575.5 179,-575.5 179,-575.5 48,-575.5"/>
<polygon fill="none" stroke="#666666" points="47.5,-559 47.5,-608 178.5,-608 178.5,-559 47.5,-559"/>
</a>
</g>
</g>
<!-- Node3&#45;&gt;Node2 -->
<g id="edge2_Node000002_Node000003" class="edge">
<title>Node3&#45;&gt;Node2</title>
<g id="a_edge2_Node000002_Node000003"><a xlink:title=" ">
<path fill="none" stroke="#63b8ff" d="M113,-548.66C113,-540.86 113,-532.21 113,-523.3"/>
<polygon fill="none" stroke="#63b8ff" points="109.5,-548.72 113,-558.72 116.5,-548.72 109.5,-548.72"/>
</a>
</g>
</g>
</g>
</svg>

<g id="navigator" transform="translate(0 0)" fill="#404254">
  <rect fill="#f2f5e9" fill-opacity="0.5" stroke="#606060" stroke-width=".5" x="0" y="0" width="60" height="60"/>
  <use id="zoomplus" xlink:href="#zoomPlus" x="17" y="9" onmousedown="handleZoom(evt,'in')"/>
  <use id="zoomminus" xlink:href="#zoomMin" x="42" y="9" onmousedown="handleZoom(evt,'out')"/>
  <use id="reset" xlink:href="#resetDef" x="30" y="36" onmousedown="handleReset()"/>
   <use id="arrowup" xlink:href="#arrowUp" x="0" y="0" onmousedown="handlePan(0,-1)"/>
  <use id="arrowright" xlink:href="#arrowRight" x="0" y="0" onmousedown="handlePan(1,0)"/>
  <use id="arrowdown" xlink:href="#arrowDown" x="0" y="0" onmousedown="handlePan(0,1)"/>
  <use id="arrowleft" xlink:href="#arrowLeft" x="0" y="0" onmousedown="handlePan(-1,0)"/>
</g>
<svg viewBox="0 0 15 15" width="100%" height="30px" preserveAspectRatio="xMaxYMin meet">
 <g id="arrow_out" transform="scale(0.3 0.3)">
  <a xlink:href="classSystem_1_1ComponentModel_1_1WarningException__inherit__graph_org.svg" target="_base">
   <rect id="button" ry="5" rx="5" y="6" x="6" height="38" width="38"
        fill="#f2f5e9" fill-opacity="0.5" stroke="#606060" stroke-width="1.0"/>
   <path id="arrow"
     d="M 11.500037,31.436501 C 11.940474,20.09759 22.043105,11.32322 32.158766,21.979434 L 37.068811,17.246167 C 37.068811,17.246167 37.088388,32 37.088388,32 L 22.160133,31.978069 C 22.160133,31.978069 26.997745,27.140456 26.997745,27.140456 C 18.528582,18.264221 13.291696,25.230495 11.500037,31.436501 z"
     style="fill:#404040;"/>
  </a>
 </g>
</svg>

<style type='text/css'>
<![CDATA[
[data-mouse-over-selected='false'] { opacity: 0.7; }
[data-mouse-over-selected='true']  { opacity: 1.0; }
]]>
</style>
<script type="application/ecmascript"><![CDATA[
document.addEventListener('DOMContentLoaded', (event) => {
  highlightEdges();
  highlightAdjacentNodes();
});
]]></script>
</svg>
