<?xml version="1.0" encoding="UTF-8" standalone="no"?>
<!DOCTYPE svg PUBLIC "-//W3C//DTD SVG 1.1//EN"
 "http://www.w3.org/Graphics/SVG/1.1/DTD/svg11.dtd">
<!-- Generated by graphviz version 2.43.0 (0)
 -->
<!-- Title: Terraria.DataStructures.SelectionHolder&lt; TCycleType &gt; Pages: 1 -->
<svg width="492pt" height="424pt"
 viewBox="0.00 0.00 491.50 424.00" xmlns="http://www.w3.org/2000/svg" xmlns:xlink="http://www.w3.org/1999/xlink">

<svg id="main" version="1.1" xmlns="http://www.w3.org/2000/svg" xmlns:xlink="http://www.w3.org/1999/xlink" xml:space="preserve" onload="init(evt)">
<style type="text/css"><![CDATA[
.node, .edge {opacity: 0.7;}
.node.selected, .edge.selected {opacity: 1;}
.edge:hover path { stroke: red; }
.edge:hover polygon { stroke: red; fill: red; }
]]></style>
<script type="application/ecmascript" xlink:href="../../svg.min.js"/>
<svg id="graph" class="graph">
<g id="graph0" class="graph" transform="scale(1 1) rotate(0) translate(4 420)">
<title>Terraria.DataStructures.SelectionHolder&lt; TCycleType &gt;</title>
<!-- Node1 -->
<g id="Node000001" class="node">
<title>Node1</title>
<g id="a_Node000001"><a xlink:title=" ">
<polygon fill="#999999" stroke="transparent" points="304.5,-309 112.5,-309 112.5,0 304.5,0 304.5,-309"/>
<text text-anchor="start" x="131" y="-296.5" font-family="Helvetica,sans-Serif" font-size="10.00">Terraria.DataStructures.</text>
<text text-anchor="start" x="131" y="-285.5" font-family="Helvetica,sans-Serif" font-size="10.00">SelectionHolder&lt; TCycleType &gt;</text>
<text text-anchor="start" x="116.5" y="-270.5" font-family="Helvetica,sans-Serif" font-size="10.00">+</text>
<text text-anchor="start" x="129.5" y="-270.5" font-family="Helvetica,sans-Serif" font-size="10.00">string ActiveSelectionKeyName</text>
<text text-anchor="start" x="116.5" y="-255.5" font-family="Helvetica,sans-Serif" font-size="10.00">+</text>
<text text-anchor="start" x="129.5" y="-255.5" font-family="Helvetica,sans-Serif" font-size="10.00">void BindTo(Preferences</text>
<text text-anchor="start" x="129.5" y="-244.5" font-family="Helvetica,sans-Serif" font-size="10.00"> preferences)</text>
<text text-anchor="start" x="116.5" y="-229.5" font-family="Helvetica,sans-Serif" font-size="10.00">+</text>
<text text-anchor="start" x="129.5" y="-229.5" font-family="Helvetica,sans-Serif" font-size="10.00">void LoadContent(AssetRequest</text>
<text text-anchor="start" x="129.5" y="-218.5" font-family="Helvetica,sans-Serif" font-size="10.00">Mode mode)</text>
<text text-anchor="start" x="116.5" y="-203.5" font-family="Helvetica,sans-Serif" font-size="10.00">+</text>
<text text-anchor="start" x="129.5" y="-203.5" font-family="Helvetica,sans-Serif" font-size="10.00">void CycleSelection()</text>
<text text-anchor="start" x="116.5" y="-188.5" font-family="Helvetica,sans-Serif" font-size="10.00">+</text>
<text text-anchor="start" x="129.5" y="-188.5" font-family="Helvetica,sans-Serif" font-size="10.00">void SetActiveMinimapFrom</text>
<text text-anchor="start" x="129.5" y="-177.5" font-family="Helvetica,sans-Serif" font-size="10.00">LoadedConfigKey()</text>
<text text-anchor="start" x="116.5" y="-162.5" font-family="Helvetica,sans-Serif" font-size="10.00">#</text>
<text text-anchor="start" x="129.5" y="-162.5" font-family="Helvetica,sans-Serif" font-size="10.00">void Configuration</text>
<text text-anchor="start" x="129.5" y="-151.5" font-family="Helvetica,sans-Serif" font-size="10.00">_Save(Preferences obj)</text>
<text text-anchor="start" x="116.5" y="-136.5" font-family="Helvetica,sans-Serif" font-size="10.00">#</text>
<text text-anchor="start" x="129.5" y="-136.5" font-family="Helvetica,sans-Serif" font-size="10.00">void Configuration</text>
<text text-anchor="start" x="129.5" y="-125.5" font-family="Helvetica,sans-Serif" font-size="10.00">_OnLoad(Preferences obj)</text>
<text text-anchor="start" x="116.5" y="-110.5" font-family="Helvetica,sans-Serif" font-size="10.00">#</text>
<text text-anchor="start" x="129.5" y="-110.5" font-family="Helvetica,sans-Serif" font-size="10.00">void Wrapped_Configuration</text>
<text text-anchor="start" x="129.5" y="-99.5" font-family="Helvetica,sans-Serif" font-size="10.00">_OnLoad(Preferences obj)</text>
<text text-anchor="start" x="116.5" y="-84.5" font-family="Helvetica,sans-Serif" font-size="10.00">#</text>
<text text-anchor="start" x="129.5" y="-84.5" font-family="Helvetica,sans-Serif" font-size="10.00">void PopulateOptionsAndLoad</text>
<text text-anchor="start" x="129.5" y="-73.5" font-family="Helvetica,sans-Serif" font-size="10.00">Content(AssetRequestMode mode)</text>
<text text-anchor="start" x="116.5" y="-58.5" font-family="Helvetica,sans-Serif" font-size="10.00">#</text>
<text text-anchor="start" x="129.5" y="-58.5" font-family="Helvetica,sans-Serif" font-size="10.00">SelectionHolder()</text>
<text text-anchor="start" x="119" y="-43.5" font-family="Helvetica,sans-Serif" font-size="10.00">&#45;</text>
<text text-anchor="start" x="129.5" y="-43.5" font-family="Helvetica,sans-Serif" font-size="10.00">void SetActiveFrame</text>
<text text-anchor="start" x="129.5" y="-32.5" font-family="Helvetica,sans-Serif" font-size="10.00">(string frameName)</text>
<text text-anchor="start" x="119" y="-17.5" font-family="Helvetica,sans-Serif" font-size="10.00">&#45;</text>
<text text-anchor="start" x="129.5" y="-17.5" font-family="Helvetica,sans-Serif" font-size="10.00">void SetActiveFrame</text>
<text text-anchor="start" x="129.5" y="-6.5" font-family="Helvetica,sans-Serif" font-size="10.00">(TCycleType frame)</text>
<polygon fill="#666666" stroke="#666666" points="112.5,-280.5 112.5,-280.5 304.5,-280.5 304.5,-280.5 112.5,-280.5"/>
<polygon fill="#666666" stroke="#666666" points="112.5,-265.5 112.5,-265.5 127.5,-265.5 127.5,-265.5 112.5,-265.5"/>
<polygon fill="#666666" stroke="#666666" points="127.5,-265.5 127.5,-265.5 304.5,-265.5 304.5,-265.5 127.5,-265.5"/>
<polygon fill="none" stroke="#666666" points="112.5,0 112.5,-309 304.5,-309 304.5,0 112.5,0"/>
</a>
</g>
</g>
<!-- Node2 -->
<g id="Node000002" class="node">
<title>Node2</title>
<g id="a_Node000002"><a xlink:title=" ">
<polygon fill="white" stroke="transparent" points="103,-416 0,-416 0,-356 103,-356 103,-416"/>
<text text-anchor="start" x="5.5" y="-404" font-family="Helvetica,sans-Serif" font-size="10.00">Dictionary&lt; string,</text>
<text text-anchor="start" x="17" y="-393" font-family="Helvetica,sans-Serif" font-size="10.00"> TCycleType &gt;</text>
<text text-anchor="start" x="50" y="-378" font-family="Helvetica,sans-Serif" font-size="10.00"> </text>
<text text-anchor="start" x="50" y="-363" font-family="Helvetica,sans-Serif" font-size="10.00"> </text>
<polygon fill="#666666" stroke="#666666" points="0.5,-388 0.5,-388 103.5,-388 103.5,-388 0.5,-388"/>
<polygon fill="#666666" stroke="#666666" points="0.5,-373 0.5,-373 103.5,-373 103.5,-373 0.5,-373"/>
<polygon fill="none" stroke="#666666" points="0,-356 0,-416 103,-416 103,-356 0,-356"/>
</a>
</g>
</g>
<!-- Node2&#45;&gt;Node1 -->
<g id="edge1_Node000001_Node000002" class="edge">
<title>Node2&#45;&gt;Node1</title>
<g id="a_edge1_Node000001_Node000002"><a xlink:title=" ">
<path fill="none" stroke="#63b8ff" d="M71.38,-355.93C80.73,-342.27 92.65,-324.85 105.55,-305.99"/>
<polygon fill="none" stroke="#63b8ff" points="105.6,-305.92 105.68,-298.71 112.37,-296.02 112.29,-303.23 105.6,-305.92"/>
</a>
</g>
<text text-anchor="middle" x="114" y="-330" font-family="Helvetica,sans-Serif" font-size="10.00" fill="grey"> #Options</text>
</g>
<!-- Node3 -->
<g id="Node000003" class="node">
<title>Node3</title>
<g id="a_Node000003"><a xlink:title=" ">
<polygon fill="white" stroke="transparent" points="186,-410.5 121,-410.5 121,-361.5 186,-361.5 186,-410.5"/>
<text text-anchor="start" x="126.5" y="-398" font-family="Helvetica,sans-Serif" font-size="10.00">TCycleType</text>
<text text-anchor="start" x="152" y="-383" font-family="Helvetica,sans-Serif" font-size="10.00"> </text>
<text text-anchor="start" x="152" y="-368" font-family="Helvetica,sans-Serif" font-size="10.00"> </text>
<polygon fill="#666666" stroke="#666666" points="121.5,-393 121.5,-393 186.5,-393 186.5,-393 121.5,-393"/>
<polygon fill="#666666" stroke="#666666" points="121.5,-378 121.5,-378 186.5,-378 186.5,-378 121.5,-378"/>
<polygon fill="none" stroke="#666666" points="121,-361.5 121,-410.5 186,-410.5 186,-361.5 121,-361.5"/>
</a>
</g>
</g>
<!-- Node3&#45;&gt;Node1 -->
<g id="edge2_Node000001_Node000003" class="edge">
<title>Node3&#45;&gt;Node1</title>
<g id="a_edge2_Node000001_Node000003"><a xlink:title=" ">
<path fill="none" stroke="#63b8ff" d="M152.38,-361.44C152.27,-350.85 152.67,-338.23 154.5,-327 154.81,-325.08 155.14,-323.15 155.49,-321.21"/>
<polygon fill="none" stroke="#63b8ff" points="155.52,-321.04 152.73,-314.39 157.79,-309.25 160.59,-315.9 155.52,-321.04"/>
</a>
</g>
<text text-anchor="middle" x="198.5" y="-330" font-family="Helvetica,sans-Serif" font-size="10.00" fill="grey"> #ActiveSelection</text>
</g>
<!-- Node4 -->
<g id="Node000004" class="node">
<title>Node4</title>
<g id="a_Node000004"><a xlink:title=" ">
<polygon fill="white" stroke="transparent" points="283.5,-410.5 245.5,-410.5 245.5,-361.5 283.5,-361.5 283.5,-410.5"/>
<text text-anchor="start" x="250.5" y="-398" font-family="Helvetica,sans-Serif" font-size="10.00">string</text>
<text text-anchor="start" x="262.5" y="-383" font-family="Helvetica,sans-Serif" font-size="10.00"> </text>
<text text-anchor="start" x="262.5" y="-368" font-family="Helvetica,sans-Serif" font-size="10.00"> </text>
<polygon fill="#666666" stroke="#666666" points="245.5,-393 245.5,-393 283.5,-393 283.5,-393 245.5,-393"/>
<polygon fill="#666666" stroke="#666666" points="245.5,-378 245.5,-378 283.5,-378 283.5,-378 245.5,-378"/>
<polygon fill="none" stroke="#666666" points="245.5,-361.5 245.5,-410.5 283.5,-410.5 283.5,-361.5 245.5,-361.5"/>
</a>
</g>
</g>
<!-- Node4&#45;&gt;Node1 -->
<g id="edge3_Node000001_Node000004" class="edge">
<title>Node4&#45;&gt;Node1</title>
<g id="a_edge3_Node000001_Node000004"><a xlink:title=" ">
<path fill="none" stroke="#63b8ff" d="M258.72,-361.3C256.07,-350.44 252.68,-336.55 248.91,-321.11"/>
<polygon fill="none" stroke="#63b8ff" points="248.81,-320.69 243.5,-315.81 245.96,-309.03 251.27,-313.91 248.81,-320.69"/>
</a>
</g>
<text text-anchor="middle" x="319.5" y="-330" font-family="Helvetica,sans-Serif" font-size="10.00" fill="grey"> #ActiveSelectionConfigKey</text>
</g>
<!-- Node5 -->
<g id="Node000005" class="node">
<title>Node5</title>
<g id="a_Node000005"><a xlink:title=" ">
<polygon fill="white" stroke="transparent" points="439.5,-410.5 407.5,-410.5 407.5,-361.5 439.5,-361.5 439.5,-410.5"/>
<text text-anchor="start" x="412.5" y="-398" font-family="Helvetica,sans-Serif" font-size="10.00">bool</text>
<text text-anchor="start" x="421.5" y="-383" font-family="Helvetica,sans-Serif" font-size="10.00"> </text>
<text text-anchor="start" x="421.5" y="-368" font-family="Helvetica,sans-Serif" font-size="10.00"> </text>
<polygon fill="#666666" stroke="#666666" points="407.5,-393 407.5,-393 439.5,-393 439.5,-393 407.5,-393"/>
<polygon fill="#666666" stroke="#666666" points="407.5,-378 407.5,-378 439.5,-378 439.5,-378 407.5,-378"/>
<polygon fill="none" stroke="#666666" points="407.5,-361.5 407.5,-410.5 439.5,-410.5 439.5,-361.5 407.5,-361.5"/>
</a>
</g>
</g>
<!-- Node5&#45;&gt;Node1 -->
<g id="edge4_Node000001_Node000005" class="edge">
<title>Node5&#45;&gt;Node1</title>
<g id="a_edge4_Node000001_Node000005"><a xlink:title=" ">
<path fill="none" stroke="#63b8ff" d="M412.6,-361.38C407.03,-350.43 399.69,-337.53 391.5,-327 368.81,-297.82 341.04,-269.13 314.05,-243.82"/>
<polygon fill="none" stroke="#63b8ff" points="313.74,-243.52 306.62,-242.38 304.94,-235.36 312.06,-236.51 313.74,-243.52"/>
</a>
</g>
<text text-anchor="middle" x="441" y="-330" font-family="Helvetica,sans-Serif" font-size="10.00" fill="grey"> #LoadedContent</text>
</g>
</g>
</svg>
</svg>

<style type='text/css'>
<![CDATA[
[data-mouse-over-selected='false'] { opacity: 0.7; }
[data-mouse-over-selected='true']  { opacity: 1.0; }
]]>
</style>
<script type="application/ecmascript"><![CDATA[
document.addEventListener('DOMContentLoaded', (event) => {
  highlightEdges();
  highlightAdjacentNodes();
});
]]></script>
</svg>
