<?xml version="1.0" encoding="UTF-8" standalone="no"?>
<!DOCTYPE svg PUBLIC "-//W3C//DTD SVG 1.1//EN"
 "http://www.w3.org/Graphics/SVG/1.1/DTD/svg11.dtd">
<!-- Generated by graphviz version 2.43.0 (0)
 -->
<!-- Title: System.Net.HeaderInfo Pages: 1 -->
<svg width="306pt" height="208pt"
 viewBox="0.00 0.00 306.00 208.00" xmlns="http://www.w3.org/2000/svg" xmlns:xlink="http://www.w3.org/1999/xlink">

<svg id="main" version="1.1" xmlns="http://www.w3.org/2000/svg" xmlns:xlink="http://www.w3.org/1999/xlink" xml:space="preserve" onload="init(evt)">
<style type="text/css"><![CDATA[
.node, .edge {opacity: 0.7;}
.node.selected, .edge.selected {opacity: 1;}
.edge:hover path { stroke: red; }
.edge:hover polygon { stroke: red; fill: red; }
]]></style>
<script type="application/ecmascript" xlink:href="../../svg.min.js"/>
<svg id="graph" class="graph">
<g id="graph0" class="graph" transform="scale(1 1) rotate(0) translate(4 204)">
<title>System.Net.HeaderInfo</title>
<!-- Node1 -->
<g id="Node000001" class="node">
<title>Node1</title>
<g id="a_Node000001"><a xlink:title=" ">
<polygon fill="#999999" stroke="transparent" points="239,-82 67,-82 67,0 239,0 239,-82"/>
<text text-anchor="start" x="95.5" y="-70" font-family="Helvetica,sans-Serif" font-size="10.00">System.Net.HeaderInfo</text>
<text text-anchor="start" x="151" y="-55" font-family="Helvetica,sans-Serif" font-size="10.00"> </text>
<text text-anchor="start" x="71" y="-40" font-family="Helvetica,sans-Serif" font-size="10.00">~</text>
<text text-anchor="start" x="84" y="-40" font-family="Helvetica,sans-Serif" font-size="10.00">HeaderInfo(string</text>
<text text-anchor="start" x="84" y="-29" font-family="Helvetica,sans-Serif" font-size="10.00"> name, bool requestRestricted,</text>
<text text-anchor="start" x="84" y="-18" font-family="Helvetica,sans-Serif" font-size="10.00"> bool responseRestricted,</text>
<text text-anchor="start" x="84" y="-7" font-family="Helvetica,sans-Serif" font-size="10.00"> bool multi, HeaderParser p)</text>
<polygon fill="#666666" stroke="#666666" points="67,-65 67,-65 239,-65 239,-65 67,-65"/>
<polygon fill="#666666" stroke="#666666" points="67,-50 67,-50 239,-50 239,-50 67,-50"/>
<polygon fill="none" stroke="#666666" points="67,0 67,-82 239,-82 239,0 67,0"/>
</a>
</g>
</g>
<!-- Node2 -->
<g id="Node000002" class="node">
<title>Node2</title>
<g id="a_Node000002"><a xlink:title=" ">
<polygon fill="white" stroke="transparent" points="32,-200 0,-200 0,-151 32,-151 32,-200"/>
<text text-anchor="start" x="5" y="-187.5" font-family="Helvetica,sans-Serif" font-size="10.00">bool</text>
<text text-anchor="start" x="14" y="-172.5" font-family="Helvetica,sans-Serif" font-size="10.00"> </text>
<text text-anchor="start" x="14" y="-157.5" font-family="Helvetica,sans-Serif" font-size="10.00"> </text>
<polygon fill="#666666" stroke="#666666" points="0,-182.5 0,-182.5 32,-182.5 32,-182.5 0,-182.5"/>
<polygon fill="#666666" stroke="#666666" points="0,-167.5 0,-167.5 32,-167.5 32,-167.5 0,-167.5"/>
<polygon fill="none" stroke="#666666" points="0,-151 0,-200 32,-200 32,-151 0,-151"/>
</a>
</g>
</g>
<!-- Node2&#45;&gt;Node1 -->
<g id="edge1_Node000001_Node000002" class="edge">
<title>Node2&#45;&gt;Node1</title>
<g id="a_edge1_Node000001_Node000002"><a xlink:title=" ">
<path fill="none" stroke="#63b8ff" d="M16.99,-150.72C18.78,-134.83 23.39,-114.3 35,-100 41.19,-92.38 48.63,-85.68 56.72,-79.81"/>
<polygon fill="none" stroke="#63b8ff" points="56.89,-79.7 59.67,-73.04 66.88,-73.05 64.1,-79.71 56.89,-79.7"/>
</a>
</g>
<text text-anchor="middle" x="92" y="-125" font-family="Helvetica,sans-Serif" font-size="10.00" fill="grey"> ~AllowMultiValues</text>
<text text-anchor="middle" x="92" y="-114" font-family="Helvetica,sans-Serif" font-size="10.00" fill="grey">~IsRequestRestricted</text>
<text text-anchor="middle" x="92" y="-103" font-family="Helvetica,sans-Serif" font-size="10.00" fill="grey">~IsResponseRestricted</text>
</g>
<!-- Node3 -->
<g id="Node000003" class="node">
<title>Node3</title>
<g id="a_Node000003"><a xlink:title=" ">
<polygon fill="white" stroke="transparent" points="214,-200 92,-200 92,-151 214,-151 214,-200"/>
<text text-anchor="start" x="97" y="-187.5" font-family="Helvetica,sans-Serif" font-size="10.00">readonly HeaderParser</text>
<text text-anchor="start" x="151" y="-172.5" font-family="Helvetica,sans-Serif" font-size="10.00"> </text>
<text text-anchor="start" x="151" y="-157.5" font-family="Helvetica,sans-Serif" font-size="10.00"> </text>
<polygon fill="#666666" stroke="#666666" points="92,-182.5 92,-182.5 214,-182.5 214,-182.5 92,-182.5"/>
<polygon fill="#666666" stroke="#666666" points="92,-167.5 92,-167.5 214,-167.5 214,-167.5 92,-167.5"/>
<polygon fill="none" stroke="#666666" points="92,-151 92,-200 214,-200 214,-151 92,-151"/>
</a>
</g>
</g>
<!-- Node3&#45;&gt;Node1 -->
<g id="edge2_Node000001_Node000003" class="edge">
<title>Node3&#45;&gt;Node1</title>
<g id="a_edge2_Node000001_Node000003"><a xlink:title=" ">
<path fill="none" stroke="#63b8ff" d="M153,-150.81C153,-135.11 153,-113.86 153,-94.32"/>
<polygon fill="none" stroke="#63b8ff" points="153,-94.11 149,-88.11 153,-82.11 157,-88.11 153,-94.11"/>
</a>
</g>
<text text-anchor="middle" x="174" y="-114" font-family="Helvetica,sans-Serif" font-size="10.00" fill="grey"> ~Parser</text>
</g>
<!-- Node4 -->
<g id="Node000004" class="node">
<title>Node4</title>
<g id="a_Node000004"><a xlink:title=" ">
<polygon fill="white" stroke="transparent" points="270,-200 232,-200 232,-151 270,-151 270,-200"/>
<text text-anchor="start" x="237" y="-187.5" font-family="Helvetica,sans-Serif" font-size="10.00">string</text>
<text text-anchor="start" x="249" y="-172.5" font-family="Helvetica,sans-Serif" font-size="10.00"> </text>
<text text-anchor="start" x="249" y="-157.5" font-family="Helvetica,sans-Serif" font-size="10.00"> </text>
<polygon fill="#666666" stroke="#666666" points="232,-182.5 232,-182.5 270,-182.5 270,-182.5 232,-182.5"/>
<polygon fill="#666666" stroke="#666666" points="232,-167.5 232,-167.5 270,-167.5 270,-167.5 232,-167.5"/>
<polygon fill="none" stroke="#666666" points="232,-151 232,-200 270,-200 270,-151 232,-151"/>
</a>
</g>
</g>
<!-- Node4&#45;&gt;Node1 -->
<g id="edge3_Node000001_Node000004" class="edge">
<title>Node4&#45;&gt;Node1</title>
<g id="a_edge3_Node000001_Node000004"><a xlink:title=" ">
<path fill="none" stroke="#63b8ff" d="M234.97,-150.75C224.87,-135.99 211.43,-116.7 199,-100 196.95,-97.25 194.83,-94.43 192.67,-91.61"/>
<polygon fill="none" stroke="#63b8ff" points="192.58,-91.5 185.75,-89.2 185.24,-82 192.08,-84.3 192.58,-91.5"/>
</a>
</g>
<text text-anchor="middle" x="260" y="-114" font-family="Helvetica,sans-Serif" font-size="10.00" fill="grey"> ~HeaderName</text>
</g>
</g>
</svg>
</svg>

<style type='text/css'>
<![CDATA[
[data-mouse-over-selected='false'] { opacity: 0.7; }
[data-mouse-over-selected='true']  { opacity: 1.0; }
]]>
</style>
<script type="application/ecmascript"><![CDATA[
document.addEventListener('DOMContentLoaded', (event) => {
  highlightEdges();
  highlightAdjacentNodes();
});
]]></script>
</svg>
