<?xml version="1.0" encoding="UTF-8" standalone="no"?>
<!DOCTYPE svg PUBLIC "-//W3C//DTD SVG 1.1//EN"
 "http://www.w3.org/Graphics/SVG/1.1/DTD/svg11.dtd">
<!-- Generated by graphviz version 2.43.0 (0)
 -->
<!-- Title: System.Net.IAutoWebProxy Pages: 1 -->
<svg width="171pt" height="179pt"
 viewBox="0.00 0.00 171.00 179.00" xmlns="http://www.w3.org/2000/svg" xmlns:xlink="http://www.w3.org/1999/xlink">
<g id="graph0" class="graph" transform="scale(1 1) rotate(0) translate(4 175)">
<title>System.Net.IAutoWebProxy</title>
<!-- Node1 -->
<g id="Node000001" class="node">
<title>Node1</title>
<g id="a_Node000001"><a xlink:title=" ">
<polygon fill="#999999" stroke="transparent" points="154,-60 9,-60 9,0 154,0 154,-60"/>
<text text-anchor="start" x="14.5" y="-48" font-family="Helvetica,sans-Serif" font-size="10.00">System.Net.IAutoWebProxy</text>
<text text-anchor="start" x="80" y="-33" font-family="Helvetica,sans-Serif" font-size="10.00"> </text>
<text text-anchor="start" x="16.5" y="-18" font-family="Helvetica,sans-Serif" font-size="10.00">+</text>
<text text-anchor="start" x="32.5" y="-18" font-family="Helvetica,sans-Serif" font-size="10.00">ProxyChain GetProxies</text>
<text text-anchor="start" x="32.5" y="-7" font-family="Helvetica,sans-Serif" font-size="10.00">(Uri destination)</text>
<polygon fill="#666666" stroke="#666666" points="9.5,-43 9.5,-43 154.5,-43 154.5,-43 9.5,-43"/>
<polygon fill="#666666" stroke="#666666" points="9.5,-28 9.5,-28 154.5,-28 154.5,-28 9.5,-28"/>
<polygon fill="none" stroke="#666666" points="9,0 9,-60 154,-60 154,0 9,0"/>
</a>
</g>
</g>
<!-- Node2 -->
<g id="Node000002" class="node">
<title>Node2</title>
<g id="a_Node000002"><a xlink:href="../../df/d67/interfaceSystem_1_1Net_1_1IWebProxy.html" target="_top" xlink:title=" ">
<polygon fill="white" stroke="transparent" points="163,-171 0,-171 0,-96 163,-96 163,-171"/>
<text text-anchor="start" x="56" y="-158.5" font-family="Helvetica,sans-Serif" font-size="10.00">IWebProxy</text>
<text text-anchor="start" x="4.5" y="-143.5" font-family="Helvetica,sans-Serif" font-size="10.00">+</text>
<text text-anchor="start" x="17.5" y="-143.5" font-family="Helvetica,sans-Serif" font-size="10.00">ICredentials Credentials</text>
<text text-anchor="start" x="4.5" y="-128.5" font-family="Helvetica,sans-Serif" font-size="10.00">+</text>
<text text-anchor="start" x="17.5" y="-128.5" font-family="Helvetica,sans-Serif" font-size="10.00">Uri GetProxy(Uri destination)</text>
<text text-anchor="start" x="4.5" y="-113.5" font-family="Helvetica,sans-Serif" font-size="10.00">+</text>
<text text-anchor="start" x="17.5" y="-113.5" font-family="Helvetica,sans-Serif" font-size="10.00">bool IsBypassed(Uri</text>
<text text-anchor="start" x="17.5" y="-102.5" font-family="Helvetica,sans-Serif" font-size="10.00"> host)</text>
<polygon fill="#666666" stroke="#666666" points="0.5,-153.5 0.5,-153.5 163.5,-153.5 163.5,-153.5 0.5,-153.5"/>
<polygon fill="#666666" stroke="#666666" points="0.5,-138.5 0.5,-138.5 15.5,-138.5 15.5,-138.5 0.5,-138.5"/>
<polygon fill="#666666" stroke="#666666" points="15.5,-138.5 15.5,-138.5 163.5,-138.5 163.5,-138.5 15.5,-138.5"/>
<polygon fill="none" stroke="#666666" points="0,-96 0,-171 163,-171 163,-96 0,-96"/>
</a>
</g>
</g>
<!-- Node2&#45;&gt;Node1 -->
<g id="edge1_Node000001_Node000002" class="edge">
<title>Node2&#45;&gt;Node1</title>
<g id="a_edge1_Node000001_Node000002"><a xlink:title=" ">
<path fill="none" stroke="#63b8ff" d="M81.5,-85.79C81.5,-77.1 81.5,-68.25 81.5,-60.27"/>
<polygon fill="none" stroke="#63b8ff" points="78,-85.86 81.5,-95.86 85,-85.86 78,-85.86"/>
</a>
</g>
</g>
</g>
</svg>
