<?xml version="1.0" encoding="UTF-8" standalone="no"?>
<!DOCTYPE svg PUBLIC "-//W3C//DTD SVG 1.1//EN"
 "http://www.w3.org/Graphics/SVG/1.1/DTD/svg11.dtd">
<!-- Generated by graphviz version 2.43.0 (0)
 -->
<!-- Title: System.Net.hostent Pages: 1 -->
<!--zoomable 1023 -->

<svg id="main" version="1.1" xmlns="http://www.w3.org/2000/svg" xmlns:xlink="http://www.w3.org/1999/xlink" xml:space="preserve" onload="init(evt)">
<style type="text/css"><![CDATA[
.node, .edge {opacity: 0.7;}
.node.selected, .edge.selected {opacity: 1;}
.edge:hover path { stroke: red; }
.edge:hover polygon { stroke: red; fill: red; }
]]></style>

<defs>
  <circle id="rim" cx="0" cy="0" r="7"/>
  <circle id="rim2" cx="0" cy="0" r="3.5"/>
  <g id="zoomPlus">
    <use xlink:href="#rim" fill="#404040"><set attributeName="fill" to="#808080" begin="zoomplus.mouseover" end="zoomplus.mouseout"/></use>
    <path d="M-4,0h8M0,-4v8" fill="none" stroke="white" stroke-width="1.5" pointer-events="none"/>
  </g>
  <g id="zoomMin">
    <use xlink:href="#rim" fill="#404040"><set attributeName="fill" to="#808080" begin="zoomminus.mouseover" end="zoomminus.mouseout"/></use>
    <path d="M-4,0h8" fill="none" stroke="white" stroke-width="1.5" pointer-events="none"/>
  </g>
  <g id="arrowUp" transform="translate(30 24)">
    <use xlink:href="#rim"/>
    <path pointer-events="none" fill="none" stroke="white" stroke-width="1.5" d="M0,-3.0v7 M-2.5,-0.5L0,-3.0L2.5,-0.5"/>
  </g>
  <g id="arrowRight" transform="rotate(90) translate(36 -43)">
    <use xlink:href="#rim"/>
    <path pointer-events="none" fill="none" stroke="white" stroke-width="1.5" d="M0,-3.0v7 M-2.5,-0.5L0,-3.0L2.5,-0.5"/>
  </g>
  <g id="arrowDown" transform="rotate(180) translate(-30 -48)">
    <use xlink:href="#rim"/>
    <path pointer-events="none" fill="none" stroke="white" stroke-width="1.5" d="M0,-3.0v7 M-2.5,-0.5L0,-3.0L2.5,-0.5"/>
  </g>
  <g id="arrowLeft" transform="rotate(270) translate(-36 17)">
    <use xlink:href="#rim"/>
    <path pointer-events="none" fill="none" stroke="white" stroke-width="1.5" d="M0,-3.0v7 M-2.5,-0.5L0,-3.0L2.5,-0.5"/>
  </g>
  <g id="resetDef">
    <use xlink:href="#rim2" fill="#404040"><set attributeName="fill" to="#808080" begin="reset.mouseover" end="reset.mouseout"/></use>
  </g>
</defs>
<script type="application/ecmascript">
var viewWidth = 485;
var viewHeight = 1023;
var sectionId = 'dynsection-0';
</script>
<script type="application/ecmascript" xlink:href="../../svg.min.js"/>
<svg id="graph" class="graph">
<g id="viewport">
<title>System.Net.hostent</title>
<!-- Node1 -->
<g id="Node000001" class="node">
<title>Node1</title>
<g id="a_Node000001"><a xlink:title=" ">
<polygon fill="#999999" stroke="transparent" points="388,-49 281,-49 281,0 388,0 388,-49"/>
<text text-anchor="start" x="286.5" y="-36.5" font-family="Helvetica,sans-Serif" font-size="10.00">System.Net.hostent</text>
<text text-anchor="start" x="333" y="-21.5" font-family="Helvetica,sans-Serif" font-size="10.00"> </text>
<text text-anchor="start" x="333" y="-6.5" font-family="Helvetica,sans-Serif" font-size="10.00"> </text>
<polygon fill="#666666" stroke="#666666" points="281.5,-31.5 281.5,-31.5 388.5,-31.5 388.5,-31.5 281.5,-31.5"/>
<polygon fill="#666666" stroke="#666666" points="281.5,-16.5 281.5,-16.5 388.5,-16.5 388.5,-16.5 281.5,-16.5"/>
<polygon fill="none" stroke="#666666" points="281,0 281,-49 388,-49 388,0 281,0"/>
</a>
</g>
</g>
<!-- Node2 -->
<g id="Node000002" class="node">
<title>Node2</title>
<g id="a_Node000002"><a xlink:href="../../db/db4/structSystem_1_1IntPtr.html" target="_top" xlink:title=" ">
<polygon fill="white" stroke="transparent" points="353,-908 104,-908 104,-118 353,-118 353,-908"/>
<text text-anchor="start" x="195.5" y="-896" font-family="Helvetica,sans-Serif" font-size="10.00">System.IntPtr</text>
<text text-anchor="start" x="108.5" y="-881" font-family="Helvetica,sans-Serif" font-size="10.00">+</text>
<text text-anchor="start" x="121.5" y="-881" font-family="Helvetica,sans-Serif" font-size="10.00">static unsafe int Size</text>
<text text-anchor="start" x="108.5" y="-866" font-family="Helvetica,sans-Serif" font-size="10.00">+</text>
<text text-anchor="start" x="121.5" y="-866" font-family="Helvetica,sans-Serif" font-size="10.00">IntPtr(int value)</text>
<text text-anchor="start" x="108.5" y="-851" font-family="Helvetica,sans-Serif" font-size="10.00">+</text>
<text text-anchor="start" x="121.5" y="-851" font-family="Helvetica,sans-Serif" font-size="10.00">IntPtr(long value)</text>
<text text-anchor="start" x="108.5" y="-836" font-family="Helvetica,sans-Serif" font-size="10.00">+</text>
<text text-anchor="start" x="121.5" y="-836" font-family="Helvetica,sans-Serif" font-size="10.00">unsafe IntPtr(void</text>
<text text-anchor="start" x="121.5" y="-825" font-family="Helvetica,sans-Serif" font-size="10.00"> *value)</text>
<text text-anchor="start" x="108.5" y="-810" font-family="Helvetica,sans-Serif" font-size="10.00">+</text>
<text text-anchor="start" x="121.5" y="-810" font-family="Helvetica,sans-Serif" font-size="10.00">override bool Equals</text>
<text text-anchor="start" x="121.5" y="-799" font-family="Helvetica,sans-Serif" font-size="10.00">(object obj)</text>
<text text-anchor="start" x="108.5" y="-784" font-family="Helvetica,sans-Serif" font-size="10.00">+</text>
<text text-anchor="start" x="121.5" y="-784" font-family="Helvetica,sans-Serif" font-size="10.00">override int GetHashCode()</text>
<text text-anchor="start" x="108.5" y="-769" font-family="Helvetica,sans-Serif" font-size="10.00">+</text>
<text text-anchor="start" x="121.5" y="-769" font-family="Helvetica,sans-Serif" font-size="10.00">long ToInt64()</text>
<text text-anchor="start" x="108.5" y="-754" font-family="Helvetica,sans-Serif" font-size="10.00">+</text>
<text text-anchor="start" x="121.5" y="-754" font-family="Helvetica,sans-Serif" font-size="10.00">unsafe void * ToPointer()</text>
<text text-anchor="start" x="108.5" y="-739" font-family="Helvetica,sans-Serif" font-size="10.00">+</text>
<text text-anchor="start" x="121.5" y="-739" font-family="Helvetica,sans-Serif" font-size="10.00">override string ToString()</text>
<text text-anchor="start" x="108.5" y="-724" font-family="Helvetica,sans-Serif" font-size="10.00">+</text>
<text text-anchor="start" x="121.5" y="-724" font-family="Helvetica,sans-Serif" font-size="10.00">string ToString(string</text>
<text text-anchor="start" x="121.5" y="-713" font-family="Helvetica,sans-Serif" font-size="10.00"> format)</text>
<text text-anchor="start" x="108.5" y="-698" font-family="Helvetica,sans-Serif" font-size="10.00">+</text>
<text text-anchor="start" x="121.5" y="-698" font-family="Helvetica,sans-Serif" font-size="10.00">static unsafe bool</text>
<text text-anchor="start" x="121.5" y="-687" font-family="Helvetica,sans-Serif" font-size="10.00"> operator==(global::</text>
<text text-anchor="start" x="121.5" y="-676" font-family="Helvetica,sans-Serif" font-size="10.00">System.IntPtr value1,</text>
<text text-anchor="start" x="121.5" y="-665" font-family="Helvetica,sans-Serif" font-size="10.00"> global::System.IntPtr</text>
<text text-anchor="start" x="121.5" y="-654" font-family="Helvetica,sans-Serif" font-size="10.00"> value2)</text>
<text text-anchor="start" x="108.5" y="-639" font-family="Helvetica,sans-Serif" font-size="10.00">+</text>
<text text-anchor="start" x="121.5" y="-639" font-family="Helvetica,sans-Serif" font-size="10.00">static unsafe bool</text>
<text text-anchor="start" x="121.5" y="-628" font-family="Helvetica,sans-Serif" font-size="10.00"> operator!=(global::</text>
<text text-anchor="start" x="121.5" y="-617" font-family="Helvetica,sans-Serif" font-size="10.00">System.IntPtr value1,</text>
<text text-anchor="start" x="121.5" y="-606" font-family="Helvetica,sans-Serif" font-size="10.00"> global::System.IntPtr</text>
<text text-anchor="start" x="121.5" y="-595" font-family="Helvetica,sans-Serif" font-size="10.00"> value2)</text>
<text text-anchor="start" x="108.5" y="-580" font-family="Helvetica,sans-Serif" font-size="10.00">+</text>
<text text-anchor="start" x="121.5" y="-580" font-family="Helvetica,sans-Serif" font-size="10.00">static operator global</text>
<text text-anchor="start" x="121.5" y="-569" font-family="Helvetica,sans-Serif" font-size="10.00">::System.IntPtr(int value)</text>
<text text-anchor="start" x="108.5" y="-554" font-family="Helvetica,sans-Serif" font-size="10.00">+</text>
<text text-anchor="start" x="121.5" y="-554" font-family="Helvetica,sans-Serif" font-size="10.00">static operator global</text>
<text text-anchor="start" x="121.5" y="-543" font-family="Helvetica,sans-Serif" font-size="10.00">::System.IntPtr(long value)</text>
<text text-anchor="start" x="108.5" y="-528" font-family="Helvetica,sans-Serif" font-size="10.00">+</text>
<text text-anchor="start" x="121.5" y="-528" font-family="Helvetica,sans-Serif" font-size="10.00">static unsafe operator</text>
<text text-anchor="start" x="121.5" y="-517" font-family="Helvetica,sans-Serif" font-size="10.00"> global::System.IntPtr</text>
<text text-anchor="start" x="121.5" y="-506" font-family="Helvetica,sans-Serif" font-size="10.00">(void *value)</text>
<text text-anchor="start" x="108.5" y="-491" font-family="Helvetica,sans-Serif" font-size="10.00">+</text>
<text text-anchor="start" x="121.5" y="-491" font-family="Helvetica,sans-Serif" font-size="10.00">static operator int</text>
<text text-anchor="start" x="121.5" y="-480" font-family="Helvetica,sans-Serif" font-size="10.00">(global::System.IntPtr</text>
<text text-anchor="start" x="121.5" y="-469" font-family="Helvetica,sans-Serif" font-size="10.00"> value)</text>
<text text-anchor="start" x="108.5" y="-454" font-family="Helvetica,sans-Serif" font-size="10.00">+</text>
<text text-anchor="start" x="121.5" y="-454" font-family="Helvetica,sans-Serif" font-size="10.00">static operator long</text>
<text text-anchor="start" x="121.5" y="-443" font-family="Helvetica,sans-Serif" font-size="10.00">(global::System.IntPtr</text>
<text text-anchor="start" x="121.5" y="-432" font-family="Helvetica,sans-Serif" font-size="10.00"> value)</text>
<text text-anchor="start" x="108.5" y="-417" font-family="Helvetica,sans-Serif" font-size="10.00">+</text>
<text text-anchor="start" x="121.5" y="-417" font-family="Helvetica,sans-Serif" font-size="10.00">static unsafe operator</text>
<text text-anchor="start" x="121.5" y="-406" font-family="Helvetica,sans-Serif" font-size="10.00"> void *(global::System.IntPtr</text>
<text text-anchor="start" x="121.5" y="-395" font-family="Helvetica,sans-Serif" font-size="10.00"> value)</text>
<text text-anchor="start" x="108.5" y="-380" font-family="Helvetica,sans-Serif" font-size="10.00">+</text>
<text text-anchor="start" x="121.5" y="-380" font-family="Helvetica,sans-Serif" font-size="10.00">static global::System.Int</text>
<text text-anchor="start" x="121.5" y="-369" font-family="Helvetica,sans-Serif" font-size="10.00">Ptr Add(global::System.IntPtr</text>
<text text-anchor="start" x="121.5" y="-358" font-family="Helvetica,sans-Serif" font-size="10.00"> pointer, int offset)</text>
<text text-anchor="start" x="108.5" y="-343" font-family="Helvetica,sans-Serif" font-size="10.00">+</text>
<text text-anchor="start" x="121.5" y="-343" font-family="Helvetica,sans-Serif" font-size="10.00">static global::System.Int</text>
<text text-anchor="start" x="121.5" y="-332" font-family="Helvetica,sans-Serif" font-size="10.00">Ptr operator+(global::System.Int</text>
<text text-anchor="start" x="121.5" y="-321" font-family="Helvetica,sans-Serif" font-size="10.00">Ptr pointer, int offset)</text>
<text text-anchor="start" x="108.5" y="-306" font-family="Helvetica,sans-Serif" font-size="10.00">+</text>
<text text-anchor="start" x="121.5" y="-306" font-family="Helvetica,sans-Serif" font-size="10.00">static global::System.Int</text>
<text text-anchor="start" x="121.5" y="-295" font-family="Helvetica,sans-Serif" font-size="10.00">Ptr operator&#45;(global::System.Int</text>
<text text-anchor="start" x="121.5" y="-284" font-family="Helvetica,sans-Serif" font-size="10.00">Ptr pointer, int offset)</text>
<text text-anchor="start" x="108.5" y="-269" font-family="Helvetica,sans-Serif" font-size="10.00">~</text>
<text text-anchor="start" x="121.5" y="-269" font-family="Helvetica,sans-Serif" font-size="10.00">bool IsNull()</text>
<text text-anchor="start" x="111" y="-254" font-family="Helvetica,sans-Serif" font-size="10.00">&#45;</text>
<text text-anchor="start" x="121.5" y="-254" font-family="Helvetica,sans-Serif" font-size="10.00">IntPtr(global::System.Runtime.</text>
<text text-anchor="start" x="121.5" y="-243" font-family="Helvetica,sans-Serif" font-size="10.00">Serialization.SerializationInfo</text>
<text text-anchor="start" x="121.5" y="-232" font-family="Helvetica,sans-Serif" font-size="10.00"> info, global::System.Runtime.Serialization.</text>
<text text-anchor="start" x="121.5" y="-221" font-family="Helvetica,sans-Serif" font-size="10.00">StreamingContext context)</text>
<text text-anchor="start" x="111" y="-206" font-family="Helvetica,sans-Serif" font-size="10.00">&#45;</text>
<text text-anchor="start" x="121.5" y="-206" font-family="Helvetica,sans-Serif" font-size="10.00">void System.Runtime.Serialization.</text>
<text text-anchor="start" x="121.5" y="-195" font-family="Helvetica,sans-Serif" font-size="10.00">ISerializable. GetObjectData</text>
<text text-anchor="start" x="121.5" y="-184" font-family="Helvetica,sans-Serif" font-size="10.00">(global::System.Runtime.Serialization.</text>
<text text-anchor="start" x="121.5" y="-173" font-family="Helvetica,sans-Serif" font-size="10.00">SerializationInfo info, global::System.Runtime.</text>
<text text-anchor="start" x="121.5" y="-162" font-family="Helvetica,sans-Serif" font-size="10.00">Serialization.StreamingContext context)</text>
<text text-anchor="start" x="111" y="-147" font-family="Helvetica,sans-Serif" font-size="10.00">&#45;</text>
<text text-anchor="start" x="121.5" y="-147" font-family="Helvetica,sans-Serif" font-size="10.00">bool System.IEquatable</text>
<text text-anchor="start" x="121.5" y="-136" font-family="Helvetica,sans-Serif" font-size="10.00">&lt; System.IntPtr &gt;. Equals</text>
<text text-anchor="start" x="121.5" y="-125" font-family="Helvetica,sans-Serif" font-size="10.00">(global::System.IntPtr other)</text>
<polygon fill="#666666" stroke="#666666" points="104.5,-891 104.5,-891 353.5,-891 353.5,-891 104.5,-891"/>
<polygon fill="#666666" stroke="#666666" points="104.5,-876 104.5,-876 119.5,-876 119.5,-876 104.5,-876"/>
<polygon fill="#666666" stroke="#666666" points="119.5,-876 119.5,-876 353.5,-876 353.5,-876 119.5,-876"/>
<polygon fill="none" stroke="#666666" points="104,-118 104,-908 353,-908 353,-118 104,-118"/>
</a>
</g>
</g>
<!-- Node2&#45;&gt;Node1 -->
<g id="edge1_Node000001_Node000002" class="edge">
<title>Node2&#45;&gt;Node1</title>
<g id="a_edge1_Node000001_Node000002"><a xlink:title=" ">
<path fill="none" stroke="#63b8ff" d="M314.38,-117.87C319.2,-95.73 323.42,-76.34 326.74,-61.12"/>
<polygon fill="none" stroke="#63b8ff" points="326.75,-61.08 324.12,-54.36 329.3,-49.35 331.93,-56.07 326.75,-61.08"/>
</a>
</g>
<text text-anchor="middle" x="358" y="-92" font-family="Helvetica,sans-Serif" font-size="10.00" fill="grey"> +h_addr_list</text>
<text text-anchor="middle" x="358" y="-81" font-family="Helvetica,sans-Serif" font-size="10.00" fill="grey">+h_aliases</text>
<text text-anchor="middle" x="358" y="-70" font-family="Helvetica,sans-Serif" font-size="10.00" fill="grey">+h_name</text>
</g>
<!-- Node2&#45;&gt;Node2 -->
<g id="edge5_Node000002_Node000002" class="edge">
<title>Node2&#45;&gt;Node2</title>
<g id="a_edge5_Node000002_Node000002"><a xlink:title=" ">
<path fill="none" stroke="#63b8ff" d="M353.09,-574.72C364.1,-561.74 371,-541.17 371,-513 371,-491.22 366.87,-473.97 359.91,-461.27"/>
<polygon fill="none" stroke="#63b8ff" points="359.85,-461.19 353.16,-458.49 353.09,-451.28 359.77,-453.98 359.85,-461.19"/>
</a>
</g>
<text text-anchor="middle" x="388" y="-510.5" font-family="Helvetica,sans-Serif" font-size="10.00" fill="grey"> +Zero</text>
</g>
<!-- Node3 -->
<g id="Node000003" class="node">
<title>Node3</title>
<g id="a_Node000003"><a xlink:title=" ">
<polygon fill="white" stroke="transparent" points="143,-1015 0,-1015 0,-955 143,-955 143,-1015"/>
<text text-anchor="start" x="5.5" y="-1003" font-family="Helvetica,sans-Serif" font-size="10.00">global::SystemRuntime</text>
<text text-anchor="start" x="5.5" y="-992" font-family="Helvetica,sans-Serif" font-size="10.00">::Serialization::ISerializable</text>
<text text-anchor="start" x="70" y="-977" font-family="Helvetica,sans-Serif" font-size="10.00"> </text>
<text text-anchor="start" x="70" y="-962" font-family="Helvetica,sans-Serif" font-size="10.00"> </text>
<polygon fill="#666666" stroke="#666666" points="0.5,-987 0.5,-987 143.5,-987 143.5,-987 0.5,-987"/>
<polygon fill="#666666" stroke="#666666" points="0.5,-972 0.5,-972 143.5,-972 143.5,-972 0.5,-972"/>
<polygon fill="none" stroke="#666666" points="0,-955 0,-1015 143,-1015 143,-955 0,-955"/>
</a>
</g>
</g>
<!-- Node3&#45;&gt;Node2 -->
<g id="edge2_Node000002_Node000003" class="edge">
<title>Node3&#45;&gt;Node2</title>
<g id="a_edge2_Node000002_Node000003"><a xlink:title=" ">
<path fill="none" stroke="#63b8ff" d="M84.47,-945.17C89.75,-929.37 96.38,-909.5 103.89,-887.03"/>
<polygon fill="none" stroke="#63b8ff" points="81.05,-944.36 81.2,-954.95 87.69,-946.58 81.05,-944.36"/>
</a>
</g>
</g>
<!-- Node4 -->
<g id="Node000004" class="node">
<title>Node4</title>
<g id="a_Node000004"><a xlink:title=" ">
<polygon fill="white" stroke="transparent" points="296,-1015 161,-1015 161,-955 296,-955 296,-1015"/>
<text text-anchor="start" x="166.5" y="-1003" font-family="Helvetica,sans-Serif" font-size="10.00">global::SystemIEquatable</text>
<text text-anchor="start" x="166.5" y="-992" font-family="Helvetica,sans-Serif" font-size="10.00">&lt; global::System.IntPtr &gt;</text>
<text text-anchor="start" x="227" y="-977" font-family="Helvetica,sans-Serif" font-size="10.00"> </text>
<text text-anchor="start" x="227" y="-962" font-family="Helvetica,sans-Serif" font-size="10.00"> </text>
<polygon fill="#666666" stroke="#666666" points="161.5,-987 161.5,-987 296.5,-987 296.5,-987 161.5,-987"/>
<polygon fill="#666666" stroke="#666666" points="161.5,-972 161.5,-972 296.5,-972 296.5,-972 161.5,-972"/>
<polygon fill="none" stroke="#666666" points="161,-955 161,-1015 296,-1015 296,-955 161,-955"/>
</a>
</g>
</g>
<!-- Node4&#45;&gt;Node2 -->
<g id="edge3_Node000002_Node000004" class="edge">
<title>Node4&#45;&gt;Node2</title>
<g id="a_edge3_Node000002_Node000004"><a xlink:title=" ">
<path fill="none" stroke="#63b8ff" d="M228.5,-944.68C228.5,-934.2 228.5,-921.96 228.5,-908.37"/>
<polygon fill="none" stroke="#63b8ff" points="225,-944.95 228.5,-954.95 232,-944.95 225,-944.95"/>
</a>
</g>
</g>
<!-- Node5 -->
<g id="Node000005" class="node">
<title>Node5</title>
<g id="a_Node000005"><a xlink:title=" ">
<polygon fill="white" stroke="transparent" points="436.5,-1009.5 314.5,-1009.5 314.5,-960.5 436.5,-960.5 436.5,-1009.5"/>
<text text-anchor="start" x="319.5" y="-997" font-family="Helvetica,sans-Serif" font-size="10.00">unsafe readonly void *</text>
<text text-anchor="start" x="373.5" y="-982" font-family="Helvetica,sans-Serif" font-size="10.00"> </text>
<text text-anchor="start" x="373.5" y="-967" font-family="Helvetica,sans-Serif" font-size="10.00"> </text>
<polygon fill="#666666" stroke="#666666" points="314.5,-992 314.5,-992 436.5,-992 436.5,-992 314.5,-992"/>
<polygon fill="#666666" stroke="#666666" points="314.5,-977 314.5,-977 436.5,-977 436.5,-977 314.5,-977"/>
<polygon fill="none" stroke="#666666" points="314.5,-960.5 314.5,-1009.5 436.5,-1009.5 436.5,-960.5 314.5,-960.5"/>
</a>
</g>
</g>
<!-- Node5&#45;&gt;Node2 -->
<g id="edge4_Node000002_Node000005" class="edge">
<title>Node5&#45;&gt;Node2</title>
<g id="a_edge4_Node000002_Node000005"><a xlink:title=" ">
<path fill="none" stroke="#63b8ff" d="M368.11,-960.37C364.77,-949.71 360.44,-935.84 355.37,-919.63"/>
<polygon fill="none" stroke="#63b8ff" points="355.32,-919.49 349.71,-914.96 351.74,-908.04 357.35,-912.57 355.32,-919.49"/>
</a>
</g>
<text text-anchor="middle" x="384" y="-929" font-family="Helvetica,sans-Serif" font-size="10.00" fill="grey"> &#45;m_value</text>
</g>
<!-- Node6 -->
<g id="Node000006" class="node">
<title>Node6</title>
<g id="a_Node000006"><a xlink:title=" ">
<polygon fill="white" stroke="transparent" points="458,-537.5 423,-537.5 423,-488.5 458,-488.5 458,-537.5"/>
<text text-anchor="start" x="428.5" y="-525" font-family="Helvetica,sans-Serif" font-size="10.00">short</text>
<text text-anchor="start" x="439" y="-510" font-family="Helvetica,sans-Serif" font-size="10.00"> </text>
<text text-anchor="start" x="439" y="-495" font-family="Helvetica,sans-Serif" font-size="10.00"> </text>
<polygon fill="#666666" stroke="#666666" points="423.5,-520 423.5,-520 458.5,-520 458.5,-520 423.5,-520"/>
<polygon fill="#666666" stroke="#666666" points="423.5,-505 423.5,-505 458.5,-505 458.5,-505 423.5,-505"/>
<polygon fill="none" stroke="#666666" points="423,-488.5 423,-537.5 458,-537.5 458,-488.5 423,-488.5"/>
</a>
</g>
</g>
<!-- Node6&#45;&gt;Node1 -->
<g id="edge6_Node000001_Node000006" class="edge">
<title>Node6&#45;&gt;Node1</title>
<g id="a_edge6_Node000001_Node000006"><a xlink:title=" ">
<path fill="none" stroke="#63b8ff" d="M441.45,-488.1C443.37,-426.13 445.22,-255.48 414.5,-118 409.19,-94.24 409.61,-86.09 394.5,-67 391.7,-63.47 388.52,-60.11 385.12,-56.96"/>
<polygon fill="none" stroke="#63b8ff" points="384.91,-56.78 377.74,-56 375.71,-49.08 382.88,-49.86 384.91,-56.78"/>
</a>
</g>
<text text-anchor="middle" x="443" y="-86.5" font-family="Helvetica,sans-Serif" font-size="10.00" fill="grey"> +h_addrtype</text>
<text text-anchor="middle" x="443" y="-75.5" font-family="Helvetica,sans-Serif" font-size="10.00" fill="grey">+h_length</text>
</g>
</g>
</svg>

<g id="navigator" transform="translate(0 0)" fill="#404254">
  <rect fill="#f2f5e9" fill-opacity="0.5" stroke="#606060" stroke-width=".5" x="0" y="0" width="60" height="60"/>
  <use id="zoomplus" xlink:href="#zoomPlus" x="17" y="9" onmousedown="handleZoom(evt,'in')"/>
  <use id="zoomminus" xlink:href="#zoomMin" x="42" y="9" onmousedown="handleZoom(evt,'out')"/>
  <use id="reset" xlink:href="#resetDef" x="30" y="36" onmousedown="handleReset()"/>
   <use id="arrowup" xlink:href="#arrowUp" x="0" y="0" onmousedown="handlePan(0,-1)"/>
  <use id="arrowright" xlink:href="#arrowRight" x="0" y="0" onmousedown="handlePan(1,0)"/>
  <use id="arrowdown" xlink:href="#arrowDown" x="0" y="0" onmousedown="handlePan(0,1)"/>
  <use id="arrowleft" xlink:href="#arrowLeft" x="0" y="0" onmousedown="handlePan(-1,0)"/>
</g>
<svg viewBox="0 0 15 15" width="100%" height="30px" preserveAspectRatio="xMaxYMin meet">
 <g id="arrow_out" transform="scale(0.3 0.3)">
  <a xlink:href="structSystem_1_1Net_1_1hostent__coll__graph_org.svg" target="_base">
   <rect id="button" ry="5" rx="5" y="6" x="6" height="38" width="38"
        fill="#f2f5e9" fill-opacity="0.5" stroke="#606060" stroke-width="1.0"/>
   <path id="arrow"
     d="M 11.500037,31.436501 C 11.940474,20.09759 22.043105,11.32322 32.158766,21.979434 L 37.068811,17.246167 C 37.068811,17.246167 37.088388,32 37.088388,32 L 22.160133,31.978069 C 22.160133,31.978069 26.997745,27.140456 26.997745,27.140456 C 18.528582,18.264221 13.291696,25.230495 11.500037,31.436501 z"
     style="fill:#404040;"/>
  </a>
 </g>
</svg>

<style type='text/css'>
<![CDATA[
[data-mouse-over-selected='false'] { opacity: 0.7; }
[data-mouse-over-selected='true']  { opacity: 1.0; }
]]>
</style>
<script type="application/ecmascript"><![CDATA[
document.addEventListener('DOMContentLoaded', (event) => {
  highlightEdges();
  highlightAdjacentNodes();
});
]]></script>
</svg>
