<?xml version="1.0" encoding="UTF-8" standalone="no"?>
<!DOCTYPE svg PUBLIC "-//W3C//DTD SVG 1.1//EN"
 "http://www.w3.org/Graphics/SVG/1.1/DTD/svg11.dtd">
<!-- Generated by graphviz version 2.43.0 (0)
 -->
<!-- Title: Terraria.DataStructures.PlayerDrawHelper Pages: 1 -->
<svg width="322pt" height="1310pt"
 viewBox="0.00 0.00 321.50 1310.00" xmlns="http://www.w3.org/2000/svg" xmlns:xlink="http://www.w3.org/1999/xlink">
<g id="graph0" class="graph" transform="scale(1 1) rotate(0) translate(4 1306)">
<title>Terraria.DataStructures.PlayerDrawHelper</title>
<!-- Node1 -->
<g id="Node000001" class="node">
<title>Node1</title>
<g id="a_Node000001"><a xlink:title=" ">
<polygon fill="#999999" stroke="transparent" points="252,-267 19,-267 19,0 252,0 252,-267"/>
<text text-anchor="start" x="78" y="-254.5" font-family="Helvetica,sans-Serif" font-size="10.00">Terraria.DataStructures.</text>
<text text-anchor="start" x="91.5" y="-243.5" font-family="Helvetica,sans-Serif" font-size="10.00">PlayerDrawHelper</text>
<text text-anchor="start" x="134" y="-228.5" font-family="Helvetica,sans-Serif" font-size="10.00"> </text>
<text text-anchor="start" x="23.5" y="-213.5" font-family="Helvetica,sans-Serif" font-size="10.00">+</text>
<text text-anchor="start" x="36.5" y="-213.5" font-family="Helvetica,sans-Serif" font-size="10.00">PlayerDrawHelper()</text>
<text text-anchor="start" x="23.5" y="-198.5" font-family="Helvetica,sans-Serif" font-size="10.00">+</text>
<text text-anchor="start" x="36.5" y="-198.5" font-family="Helvetica,sans-Serif" font-size="10.00">static int PackShader</text>
<text text-anchor="start" x="36.5" y="-187.5" font-family="Helvetica,sans-Serif" font-size="10.00">(int localShaderIndex,</text>
<text text-anchor="start" x="36.5" y="-176.5" font-family="Helvetica,sans-Serif" font-size="10.00"> PlayerDrawHelper.ShaderConfiguration</text>
<text text-anchor="start" x="36.5" y="-165.5" font-family="Helvetica,sans-Serif" font-size="10.00"> shaderType)</text>
<text text-anchor="start" x="23.5" y="-150.5" font-family="Helvetica,sans-Serif" font-size="10.00">+</text>
<text text-anchor="start" x="36.5" y="-150.5" font-family="Helvetica,sans-Serif" font-size="10.00">static void UnpackShader</text>
<text text-anchor="start" x="36.5" y="-139.5" font-family="Helvetica,sans-Serif" font-size="10.00">(int packedShaderIndex,</text>
<text text-anchor="start" x="36.5" y="-128.5" font-family="Helvetica,sans-Serif" font-size="10.00"> out int localShaderIndex,</text>
<text text-anchor="start" x="36.5" y="-117.5" font-family="Helvetica,sans-Serif" font-size="10.00"> out PlayerDrawHelper.ShaderConfiguration</text>
<text text-anchor="start" x="36.5" y="-106.5" font-family="Helvetica,sans-Serif" font-size="10.00"> shaderType)</text>
<text text-anchor="start" x="23.5" y="-91.5" font-family="Helvetica,sans-Serif" font-size="10.00">+</text>
<text text-anchor="start" x="36.5" y="-91.5" font-family="Helvetica,sans-Serif" font-size="10.00">static bool SetShaderFor</text>
<text text-anchor="start" x="36.5" y="-80.5" font-family="Helvetica,sans-Serif" font-size="10.00">Data(Player player, int</text>
<text text-anchor="start" x="36.5" y="-69.5" font-family="Helvetica,sans-Serif" font-size="10.00"> cHead, ref DrawData cdd,</text>
<text text-anchor="start" x="36.5" y="-58.5" font-family="Helvetica,sans-Serif" font-size="10.00"> ref EffectPass effectPass)</text>
<text text-anchor="start" x="23.5" y="-43.5" font-family="Helvetica,sans-Serif" font-size="10.00">+</text>
<text text-anchor="start" x="36.5" y="-43.5" font-family="Helvetica,sans-Serif" font-size="10.00">static bool SetShaderFor</text>
<text text-anchor="start" x="36.5" y="-32.5" font-family="Helvetica,sans-Serif" font-size="10.00">Data(Player player, int</text>
<text text-anchor="start" x="36.5" y="-21.5" font-family="Helvetica,sans-Serif" font-size="10.00"> cHead, ref DrawData cdd)</text>
<text text-anchor="start" x="26" y="-6.5" font-family="Helvetica,sans-Serif" font-size="10.00">&#45;</text>
<text text-anchor="start" x="36.5" y="-6.5" font-family="Helvetica,sans-Serif" font-size="10.00">static PlayerDrawHelper()</text>
<polygon fill="#666666" stroke="#666666" points="19.5,-238.5 19.5,-238.5 252.5,-238.5 252.5,-238.5 19.5,-238.5"/>
<polygon fill="#666666" stroke="#666666" points="19.5,-223.5 19.5,-223.5 252.5,-223.5 252.5,-223.5 19.5,-223.5"/>
<polygon fill="none" stroke="#666666" points="19,0 19,-267 252,-267 252,0 19,0"/>
</a>
</g>
</g>
<!-- Node2 -->
<g id="Node000002" class="node">
<title>Node2</title>
<g id="a_Node000002"><a xlink:href="../../d0/dc1/structMicrosoft_1_1Xna_1_1Framework_1_1Graphics_1_1Color.html" target="_top" xlink:title=" ">
<polygon fill="white" stroke="transparent" points="204.5,-1077 66.5,-1077 66.5,-325 204.5,-325 204.5,-1077"/>
<text text-anchor="start" x="71.5" y="-1065" font-family="Helvetica,sans-Serif" font-size="10.00">Microsoft.Xna.Framework.</text>
<text text-anchor="start" x="99.5" y="-1054" font-family="Helvetica,sans-Serif" font-size="10.00">Graphics.Color</text>
<text text-anchor="start" x="71" y="-1039" font-family="Helvetica,sans-Serif" font-size="10.00">+</text>
<text text-anchor="start" x="84.5" y="-1039" font-family="Helvetica,sans-Serif" font-size="10.00">static readonly Color</text>
<text text-anchor="start" x="84.5" y="-1028" font-family="Helvetica,sans-Serif" font-size="10.00"> Transparent</text>
<text text-anchor="start" x="71" y="-1013" font-family="Helvetica,sans-Serif" font-size="10.00">+</text>
<text text-anchor="start" x="84.5" y="-1013" font-family="Helvetica,sans-Serif" font-size="10.00">static readonly Color</text>
<text text-anchor="start" x="84.5" y="-1002" font-family="Helvetica,sans-Serif" font-size="10.00"> TransparentBlack</text>
<text text-anchor="start" x="71" y="-987" font-family="Helvetica,sans-Serif" font-size="10.00">+</text>
<text text-anchor="start" x="84.5" y="-987" font-family="Helvetica,sans-Serif" font-size="10.00">static readonly Color</text>
<text text-anchor="start" x="84.5" y="-976" font-family="Helvetica,sans-Serif" font-size="10.00"> TransparentWhite</text>
<text text-anchor="start" x="71" y="-961" font-family="Helvetica,sans-Serif" font-size="10.00">+</text>
<text text-anchor="start" x="84.5" y="-961" font-family="Helvetica,sans-Serif" font-size="10.00">static readonly Color</text>
<text text-anchor="start" x="84.5" y="-950" font-family="Helvetica,sans-Serif" font-size="10.00"> BlueViolet</text>
<text text-anchor="start" x="71" y="-935" font-family="Helvetica,sans-Serif" font-size="10.00">+</text>
<text text-anchor="start" x="84.5" y="-935" font-family="Helvetica,sans-Serif" font-size="10.00">static readonly Color</text>
<text text-anchor="start" x="84.5" y="-924" font-family="Helvetica,sans-Serif" font-size="10.00"> Brown</text>
<text text-anchor="start" x="71" y="-909" font-family="Helvetica,sans-Serif" font-size="10.00">+</text>
<text text-anchor="start" x="84.5" y="-909" font-family="Helvetica,sans-Serif" font-size="10.00">static readonly Color</text>
<text text-anchor="start" x="84.5" y="-898" font-family="Helvetica,sans-Serif" font-size="10.00"> BurlyWood</text>
<text text-anchor="start" x="71" y="-883" font-family="Helvetica,sans-Serif" font-size="10.00">+</text>
<text text-anchor="start" x="84.5" y="-883" font-family="Helvetica,sans-Serif" font-size="10.00">static readonly Color</text>
<text text-anchor="start" x="84.5" y="-872" font-family="Helvetica,sans-Serif" font-size="10.00"> CadetBlue</text>
<text text-anchor="start" x="71" y="-857" font-family="Helvetica,sans-Serif" font-size="10.00">+</text>
<text text-anchor="start" x="84.5" y="-857" font-family="Helvetica,sans-Serif" font-size="10.00">static readonly Color</text>
<text text-anchor="start" x="84.5" y="-846" font-family="Helvetica,sans-Serif" font-size="10.00"> Chartreuse</text>
<text text-anchor="start" x="71" y="-831" font-family="Helvetica,sans-Serif" font-size="10.00">+</text>
<text text-anchor="start" x="84.5" y="-831" font-family="Helvetica,sans-Serif" font-size="10.00">static readonly Color</text>
<text text-anchor="start" x="84.5" y="-820" font-family="Helvetica,sans-Serif" font-size="10.00"> Chocolate</text>
<text text-anchor="start" x="71" y="-805" font-family="Helvetica,sans-Serif" font-size="10.00">+</text>
<text text-anchor="start" x="84.5" y="-805" font-family="Helvetica,sans-Serif" font-size="10.00">static readonly Color</text>
<text text-anchor="start" x="84.5" y="-794" font-family="Helvetica,sans-Serif" font-size="10.00"> Coral</text>
<text text-anchor="start" x="84.5" y="-779" font-family="Helvetica,sans-Serif" font-size="10.00">and 123 more...</text>
<text text-anchor="start" x="71" y="-764" font-family="Helvetica,sans-Serif" font-size="10.00">+</text>
<text text-anchor="start" x="84.5" y="-764" font-family="Helvetica,sans-Serif" font-size="10.00">uint PackedValue</text>
<text text-anchor="start" x="71" y="-749" font-family="Helvetica,sans-Serif" font-size="10.00">+</text>
<text text-anchor="start" x="84.5" y="-749" font-family="Helvetica,sans-Serif" font-size="10.00">Color(Vector3 vector)</text>
<text text-anchor="start" x="71" y="-734" font-family="Helvetica,sans-Serif" font-size="10.00">+</text>
<text text-anchor="start" x="84.5" y="-734" font-family="Helvetica,sans-Serif" font-size="10.00">Color(Vector4 vector)</text>
<text text-anchor="start" x="71" y="-719" font-family="Helvetica,sans-Serif" font-size="10.00">+</text>
<text text-anchor="start" x="84.5" y="-719" font-family="Helvetica,sans-Serif" font-size="10.00">Color(int r, int g,</text>
<text text-anchor="start" x="84.5" y="-708" font-family="Helvetica,sans-Serif" font-size="10.00"> int b)</text>
<text text-anchor="start" x="71" y="-693" font-family="Helvetica,sans-Serif" font-size="10.00">+</text>
<text text-anchor="start" x="84.5" y="-693" font-family="Helvetica,sans-Serif" font-size="10.00">Color(int r, int g,</text>
<text text-anchor="start" x="84.5" y="-682" font-family="Helvetica,sans-Serif" font-size="10.00"> int b, int a)</text>
<text text-anchor="start" x="71" y="-667" font-family="Helvetica,sans-Serif" font-size="10.00">+</text>
<text text-anchor="start" x="84.5" y="-667" font-family="Helvetica,sans-Serif" font-size="10.00">Color(float r, float</text>
<text text-anchor="start" x="84.5" y="-656" font-family="Helvetica,sans-Serif" font-size="10.00"> g, float b)</text>
<text text-anchor="start" x="71" y="-641" font-family="Helvetica,sans-Serif" font-size="10.00">+</text>
<text text-anchor="start" x="84.5" y="-641" font-family="Helvetica,sans-Serif" font-size="10.00">Color(float r, float</text>
<text text-anchor="start" x="84.5" y="-630" font-family="Helvetica,sans-Serif" font-size="10.00"> g, float b, float a)</text>
<text text-anchor="start" x="71" y="-615" font-family="Helvetica,sans-Serif" font-size="10.00">+</text>
<text text-anchor="start" x="84.5" y="-615" font-family="Helvetica,sans-Serif" font-size="10.00">Color(Color rgb, int a)</text>
<text text-anchor="start" x="71" y="-600" font-family="Helvetica,sans-Serif" font-size="10.00">+</text>
<text text-anchor="start" x="84.5" y="-600" font-family="Helvetica,sans-Serif" font-size="10.00">Color(Color rgb, float a)</text>
<text text-anchor="start" x="71" y="-585" font-family="Helvetica,sans-Serif" font-size="10.00">+</text>
<text text-anchor="start" x="84.5" y="-585" font-family="Helvetica,sans-Serif" font-size="10.00">ushort RGB565()</text>
<text text-anchor="start" x="71" y="-570" font-family="Helvetica,sans-Serif" font-size="10.00">+</text>
<text text-anchor="start" x="84.5" y="-570" font-family="Helvetica,sans-Serif" font-size="10.00">ushort ARGB4444()</text>
<text text-anchor="start" x="84.5" y="-555" font-family="Helvetica,sans-Serif" font-size="10.00">and 7 more...</text>
<text text-anchor="start" x="71" y="-540" font-family="Helvetica,sans-Serif" font-size="10.00">+</text>
<text text-anchor="start" x="84.5" y="-540" font-family="Helvetica,sans-Serif" font-size="10.00">static bool operator</text>
<text text-anchor="start" x="84.5" y="-529" font-family="Helvetica,sans-Serif" font-size="10.00">==(Color colorA, Color</text>
<text text-anchor="start" x="84.5" y="-518" font-family="Helvetica,sans-Serif" font-size="10.00"> colorB)</text>
<text text-anchor="start" x="71" y="-503" font-family="Helvetica,sans-Serif" font-size="10.00">+</text>
<text text-anchor="start" x="84.5" y="-503" font-family="Helvetica,sans-Serif" font-size="10.00">static bool operator!</text>
<text text-anchor="start" x="84.5" y="-492" font-family="Helvetica,sans-Serif" font-size="10.00">=(Color colorA, Color</text>
<text text-anchor="start" x="84.5" y="-481" font-family="Helvetica,sans-Serif" font-size="10.00"> colorB)</text>
<text text-anchor="start" x="71" y="-466" font-family="Helvetica,sans-Serif" font-size="10.00">+</text>
<text text-anchor="start" x="84.5" y="-466" font-family="Helvetica,sans-Serif" font-size="10.00">static Color operator*</text>
<text text-anchor="start" x="84.5" y="-455" font-family="Helvetica,sans-Serif" font-size="10.00">(Color a, float amount)</text>
<text text-anchor="start" x="71" y="-440" font-family="Helvetica,sans-Serif" font-size="10.00">+</text>
<text text-anchor="start" x="84.5" y="-440" font-family="Helvetica,sans-Serif" font-size="10.00">static Color Multiply</text>
<text text-anchor="start" x="84.5" y="-429" font-family="Helvetica,sans-Serif" font-size="10.00">(Color a, float amount)</text>
<text text-anchor="start" x="71" y="-414" font-family="Helvetica,sans-Serif" font-size="10.00">+</text>
<text text-anchor="start" x="84.5" y="-414" font-family="Helvetica,sans-Serif" font-size="10.00">static Color Lerp(Color</text>
<text text-anchor="start" x="84.5" y="-403" font-family="Helvetica,sans-Serif" font-size="10.00"> value1, Color value2,</text>
<text text-anchor="start" x="84.5" y="-392" font-family="Helvetica,sans-Serif" font-size="10.00"> float amount)</text>
<text text-anchor="start" x="71" y="-377" font-family="Helvetica,sans-Serif" font-size="10.00">+</text>
<text text-anchor="start" x="84.5" y="-377" font-family="Helvetica,sans-Serif" font-size="10.00">static Color()</text>
<text text-anchor="start" x="71" y="-362" font-family="Helvetica,sans-Serif" font-size="10.00">~</text>
<text text-anchor="start" x="84.5" y="-362" font-family="Helvetica,sans-Serif" font-size="10.00">float GetBrightness()</text>
<text text-anchor="start" x="71" y="-347" font-family="Helvetica,sans-Serif" font-size="10.00">~</text>
<text text-anchor="start" x="84.5" y="-347" font-family="Helvetica,sans-Serif" font-size="10.00">float GetSaturation()</text>
<text text-anchor="start" x="71" y="-332" font-family="Helvetica,sans-Serif" font-size="10.00">~</text>
<text text-anchor="start" x="84.5" y="-332" font-family="Helvetica,sans-Serif" font-size="10.00">float GetHue()</text>
<polygon fill="#666666" stroke="#666666" points="66.5,-1049 66.5,-1049 204.5,-1049 204.5,-1049 66.5,-1049"/>
<polygon fill="#666666" stroke="#666666" points="66.5,-759 66.5,-759 82.5,-759 82.5,-759 66.5,-759"/>
<polygon fill="#666666" stroke="#666666" points="82.5,-759 82.5,-759 204.5,-759 204.5,-759 82.5,-759"/>
<polygon fill="none" stroke="#666666" points="66.5,-325 66.5,-1077 204.5,-1077 204.5,-325 66.5,-325"/>
</a>
</g>
</g>
<!-- Node2&#45;&gt;Node1 -->
<g id="edge1_Node000001_Node000002" class="edge">
<title>Node2&#45;&gt;Node1</title>
<g id="a_edge1_Node000001_Node000002"><a xlink:title=" ">
<path fill="none" stroke="#63b8ff" d="M135.5,-324.77C135.5,-309.12 135.5,-293.9 135.5,-279.33"/>
<polygon fill="none" stroke="#63b8ff" points="135.5,-279.25 131.5,-273.25 135.5,-267.25 139.5,-273.25 135.5,-279.25"/>
</a>
</g>
<text text-anchor="start" x="135.5" y="-299" font-family="Helvetica,sans-Serif" font-size="10.00" fill="grey"> +DISPLAY_DOLL_DEFAULT</text>
<text text-anchor="middle" x="201" y="-288" font-family="Helvetica,sans-Serif" font-size="10.00" fill="grey">_SKIN_COLOR</text>
</g>
<!-- Node2&#45;&gt;Node2 -->
<g id="edge5_Node000002_Node000002" class="edge">
<title>Node2&#45;&gt;Node2</title>
<g id="a_edge5_Node000002_Node000002"><a xlink:title=" ">
<path fill="none" stroke="#63b8ff" d="M204.77,-770.07C215.33,-759.53 222.5,-736.51 222.5,-701 222.5,-674.09 218.38,-654.35 211.79,-641.78"/>
<polygon fill="none" stroke="#63b8ff" points="211.74,-641.7 205,-639.13 204.77,-631.93 211.51,-634.49 211.74,-641.7"/>
</a>
</g>
<text text-anchor="middle" x="268" y="-753.5" font-family="Helvetica,sans-Serif" font-size="10.00" fill="grey"> +AliceBlue</text>
<text text-anchor="middle" x="268" y="-742.5" font-family="Helvetica,sans-Serif" font-size="10.00" fill="grey">+AntiqueWhite</text>
<text text-anchor="middle" x="268" y="-731.5" font-family="Helvetica,sans-Serif" font-size="10.00" fill="grey">+Aqua</text>
<text text-anchor="middle" x="268" y="-720.5" font-family="Helvetica,sans-Serif" font-size="10.00" fill="grey">+Aquamarine</text>
<text text-anchor="middle" x="268" y="-709.5" font-family="Helvetica,sans-Serif" font-size="10.00" fill="grey">+Azure</text>
<text text-anchor="middle" x="268" y="-698.5" font-family="Helvetica,sans-Serif" font-size="10.00" fill="grey">+Beige</text>
<text text-anchor="middle" x="268" y="-687.5" font-family="Helvetica,sans-Serif" font-size="10.00" fill="grey">+Bisque</text>
<text text-anchor="middle" x="268" y="-676.5" font-family="Helvetica,sans-Serif" font-size="10.00" fill="grey">+Black</text>
<text text-anchor="middle" x="268" y="-665.5" font-family="Helvetica,sans-Serif" font-size="10.00" fill="grey">+BlanchedAlmond</text>
<text text-anchor="middle" x="268" y="-654.5" font-family="Helvetica,sans-Serif" font-size="10.00" fill="grey">+Blue</text>
<text text-anchor="middle" x="268" y="-643.5" font-family="Helvetica,sans-Serif" font-size="10.00" fill="grey">...</text>
</g>
<!-- Node3 -->
<g id="Node000003" class="node">
<title>Node3</title>
<g id="a_Node000003"><a xlink:href="../../d6/d43/interfaceSystem_1_1IEquatable.html" target="_top" xlink:title=" ">
<polygon fill="white" stroke="transparent" points="125.5,-1206 5.5,-1206 5.5,-1157 125.5,-1157 125.5,-1206"/>
<text text-anchor="start" x="15.5" y="-1193.5" font-family="Helvetica,sans-Serif" font-size="10.00">IEquatable&lt; Color &gt;</text>
<text text-anchor="start" x="63.5" y="-1178.5" font-family="Helvetica,sans-Serif" font-size="10.00"> </text>
<text text-anchor="start" x="9.5" y="-1163.5" font-family="Helvetica,sans-Serif" font-size="10.00">+</text>
<text text-anchor="start" x="22.5" y="-1163.5" font-family="Helvetica,sans-Serif" font-size="10.00">bool Equals(T other)</text>
<polygon fill="#666666" stroke="#666666" points="5.5,-1188.5 5.5,-1188.5 125.5,-1188.5 125.5,-1188.5 5.5,-1188.5"/>
<polygon fill="#666666" stroke="#666666" points="5.5,-1173.5 5.5,-1173.5 125.5,-1173.5 125.5,-1173.5 5.5,-1173.5"/>
<polygon fill="none" stroke="#666666" points="5.5,-1157 5.5,-1206 125.5,-1206 125.5,-1157 5.5,-1157"/>
</a>
</g>
</g>
<!-- Node3&#45;&gt;Node2 -->
<g id="edge2_Node000002_Node000003" class="edge">
<title>Node3&#45;&gt;Node2</title>
<g id="a_edge2_Node000002_Node000003"><a xlink:title=" ">
<path fill="none" stroke="#63b8ff" d="M70.45,-1146.7C73.06,-1128.79 76.58,-1104.79 80.62,-1077.17"/>
<polygon fill="none" stroke="#63b8ff" points="66.96,-1146.37 68.97,-1156.77 73.88,-1147.38 66.96,-1146.37"/>
</a>
</g>
</g>
<!-- Node4 -->
<g id="Node000004" class="node">
<title>Node4</title>
<g id="a_Node000004"><a xlink:href="../../d6/d43/interfaceSystem_1_1IEquatable.html" target="_top" xlink:title=" ">
<polygon fill="white" stroke="transparent" points="131,-1302 0,-1302 0,-1253 131,-1253 131,-1302"/>
<text text-anchor="start" x="5.5" y="-1289.5" font-family="Helvetica,sans-Serif" font-size="10.00">System.IEquatable&lt; T &gt;</text>
<text text-anchor="start" x="64" y="-1274.5" font-family="Helvetica,sans-Serif" font-size="10.00"> </text>
<text text-anchor="start" x="7" y="-1259.5" font-family="Helvetica,sans-Serif" font-size="10.00">+</text>
<text text-anchor="start" x="22.5" y="-1259.5" font-family="Helvetica,sans-Serif" font-size="10.00">bool Equals(T other)</text>
<polygon fill="#666666" stroke="#666666" points="0.5,-1284.5 0.5,-1284.5 131.5,-1284.5 131.5,-1284.5 0.5,-1284.5"/>
<polygon fill="#666666" stroke="#666666" points="0.5,-1269.5 0.5,-1269.5 131.5,-1269.5 131.5,-1269.5 0.5,-1269.5"/>
<polygon fill="none" stroke="#666666" points="0,-1253 0,-1302 131,-1302 131,-1253 0,-1253"/>
</a>
</g>
</g>
<!-- Node4&#45;&gt;Node3 -->
<g id="edge3_Node000003_Node000004" class="edge">
<title>Node4&#45;&gt;Node3</title>
<g id="a_edge3_Node000003_Node000004"><a xlink:title=" ">
<path fill="none" stroke="orange" d="M65.5,-1242.6C65.5,-1230.54 65.5,-1217.23 65.5,-1206.21"/>
<polygon fill="orange" stroke="orange" points="62,-1242.78 65.5,-1252.78 69,-1242.78 62,-1242.78"/>
</a>
</g>
<text text-anchor="middle" x="91.5" y="-1227" font-family="Helvetica,sans-Serif" font-size="10.00" fill="grey"> &lt; Color &gt;</text>
</g>
<!-- Node5 -->
<g id="Node000005" class="node">
<title>Node5</title>
<g id="a_Node000005"><a xlink:title=" ">
<polygon fill="white" stroke="transparent" points="175.5,-1206 143.5,-1206 143.5,-1157 175.5,-1157 175.5,-1206"/>
<text text-anchor="start" x="148.5" y="-1193.5" font-family="Helvetica,sans-Serif" font-size="10.00">byte</text>
<text text-anchor="start" x="157.5" y="-1178.5" font-family="Helvetica,sans-Serif" font-size="10.00"> </text>
<text text-anchor="start" x="157.5" y="-1163.5" font-family="Helvetica,sans-Serif" font-size="10.00"> </text>
<polygon fill="#666666" stroke="#666666" points="143.5,-1188.5 143.5,-1188.5 175.5,-1188.5 175.5,-1188.5 143.5,-1188.5"/>
<polygon fill="#666666" stroke="#666666" points="143.5,-1173.5 143.5,-1173.5 175.5,-1173.5 175.5,-1173.5 143.5,-1173.5"/>
<polygon fill="none" stroke="#666666" points="143.5,-1157 143.5,-1206 175.5,-1206 175.5,-1157 143.5,-1157"/>
</a>
</g>
</g>
<!-- Node5&#45;&gt;Node2 -->
<g id="edge4_Node000002_Node000005" class="edge">
<title>Node5&#45;&gt;Node2</title>
<g id="a_edge4_Node000002_Node000005"><a xlink:title=" ">
<path fill="none" stroke="#63b8ff" d="M158.31,-1156.77C157.5,-1140.64 156.33,-1117.21 154.93,-1089.37"/>
<polygon fill="none" stroke="#63b8ff" points="154.92,-1089.16 150.62,-1083.36 154.32,-1077.17 158.61,-1082.96 154.92,-1089.16"/>
</a>
</g>
<text text-anchor="middle" x="166" y="-1131" font-family="Helvetica,sans-Serif" font-size="10.00" fill="grey"> +A</text>
<text text-anchor="middle" x="166" y="-1120" font-family="Helvetica,sans-Serif" font-size="10.00" fill="grey">+B</text>
<text text-anchor="middle" x="166" y="-1109" font-family="Helvetica,sans-Serif" font-size="10.00" fill="grey">+G</text>
<text text-anchor="middle" x="166" y="-1098" font-family="Helvetica,sans-Serif" font-size="10.00" fill="grey">+R</text>
</g>
</g>
</svg>
