<?xml version="1.0" encoding="UTF-8" standalone="no"?>
<!DOCTYPE svg PUBLIC "-//W3C//DTD SVG 1.1//EN"
 "http://www.w3.org/Graphics/SVG/1.1/DTD/svg11.dtd">
<!-- Generated by graphviz version 2.43.0 (0)
 -->
<!-- Title: UnityEngine.CanvasGroup Pages: 1 -->
<svg width="725pt" height="2588pt"
 viewBox="0.00 0.00 725.00 2588.00" xmlns="http://www.w3.org/2000/svg" xmlns:xlink="http://www.w3.org/1999/xlink">
<g id="graph0" class="graph" transform="scale(1 1) rotate(0) translate(4 2584)">
<title>UnityEngine.CanvasGroup</title>
<!-- Node1 -->
<g id="Node000001" class="node">
<title>Node1</title>
<g id="a_Node000001"><a xlink:title=" ">
<polygon fill="#999999" stroke="transparent" points="624,-105 431,-105 431,0 624,0 624,-105"/>
<text text-anchor="start" x="464" y="-92.5" font-family="Helvetica,sans-Serif" font-size="10.00">UnityEngine.CanvasGroup</text>
<text text-anchor="start" x="435.5" y="-77.5" font-family="Helvetica,sans-Serif" font-size="10.00">+</text>
<text text-anchor="start" x="448.5" y="-77.5" font-family="Helvetica,sans-Serif" font-size="10.00">float alpha</text>
<text text-anchor="start" x="435.5" y="-62.5" font-family="Helvetica,sans-Serif" font-size="10.00">+</text>
<text text-anchor="start" x="448.5" y="-62.5" font-family="Helvetica,sans-Serif" font-size="10.00">bool interactable</text>
<text text-anchor="start" x="435.5" y="-47.5" font-family="Helvetica,sans-Serif" font-size="10.00">+</text>
<text text-anchor="start" x="448.5" y="-47.5" font-family="Helvetica,sans-Serif" font-size="10.00">bool blocksRaycasts</text>
<text text-anchor="start" x="435.5" y="-32.5" font-family="Helvetica,sans-Serif" font-size="10.00">+</text>
<text text-anchor="start" x="448.5" y="-32.5" font-family="Helvetica,sans-Serif" font-size="10.00">bool ignoreParentGroups</text>
<text text-anchor="start" x="435.5" y="-17.5" font-family="Helvetica,sans-Serif" font-size="10.00">+</text>
<text text-anchor="start" x="448.5" y="-17.5" font-family="Helvetica,sans-Serif" font-size="10.00">bool IsRaycastLocationValid</text>
<text text-anchor="start" x="448.5" y="-6.5" font-family="Helvetica,sans-Serif" font-size="10.00">(Vector2 sp, Camera eventCamera)</text>
<polygon fill="#666666" stroke="#666666" points="431.5,-87.5 431.5,-87.5 624.5,-87.5 624.5,-87.5 431.5,-87.5"/>
<polygon fill="#666666" stroke="#666666" points="431.5,-27.5 431.5,-27.5 446.5,-27.5 446.5,-27.5 431.5,-27.5"/>
<polygon fill="#666666" stroke="#666666" points="446.5,-27.5 446.5,-27.5 624.5,-27.5 624.5,-27.5 446.5,-27.5"/>
<polygon fill="none" stroke="#666666" points="431,0 431,-105 624,-105 624,0 431,0"/>
</a>
</g>
</g>
<!-- Node2 -->
<g id="Node000002" class="node">
<title>Node2</title>
<g id="a_Node000002"><a xlink:href="../../d5/dca/classUnityEngine_1_1Behaviour.html" target="_top" xlink:title=" ">
<polygon fill="white" stroke="transparent" points="505.5,-206 363.5,-206 363.5,-142 505.5,-142 505.5,-206"/>
<text text-anchor="start" x="409.5" y="-194" font-family="Helvetica,sans-Serif" font-size="10.00">Behaviour</text>
<text text-anchor="start" x="367.5" y="-179" font-family="Helvetica,sans-Serif" font-size="10.00">+</text>
<text text-anchor="start" x="380.5" y="-179" font-family="Helvetica,sans-Serif" font-size="10.00">bool enabled</text>
<text text-anchor="start" x="367.5" y="-164" font-family="Helvetica,sans-Serif" font-size="10.00">+</text>
<text text-anchor="start" x="380.5" y="-164" font-family="Helvetica,sans-Serif" font-size="10.00">bool isActiveAndEnabled</text>
<text text-anchor="start" x="367.5" y="-149" font-family="Helvetica,sans-Serif" font-size="10.00">+</text>
<text text-anchor="start" x="380.5" y="-149" font-family="Helvetica,sans-Serif" font-size="10.00">Behaviour()</text>
<polygon fill="#666666" stroke="#666666" points="363.5,-189 363.5,-189 505.5,-189 505.5,-189 363.5,-189"/>
<polygon fill="#666666" stroke="#666666" points="363.5,-159 363.5,-159 378.5,-159 378.5,-159 363.5,-159"/>
<polygon fill="#666666" stroke="#666666" points="378.5,-159 378.5,-159 505.5,-159 505.5,-159 378.5,-159"/>
<polygon fill="none" stroke="#666666" points="363.5,-142 363.5,-206 505.5,-206 505.5,-142 363.5,-142"/>
</a>
</g>
</g>
<!-- Node2&#45;&gt;Node1 -->
<g id="edge1_Node000001_Node000002" class="edge">
<title>Node2&#45;&gt;Node1</title>
<g id="a_edge1_Node000001_Node000002"><a xlink:title=" ">
<path fill="none" stroke="#63b8ff" d="M465.03,-133.78C472.12,-124.66 479.78,-114.82 487.22,-105.26"/>
<polygon fill="none" stroke="#63b8ff" points="462.07,-131.87 458.69,-141.91 467.6,-136.17 462.07,-131.87"/>
</a>
</g>
</g>
<!-- Node3 -->
<g id="Node000003" class="node">
<title>Node3</title>
<g id="a_Node000003"><a xlink:href="../../d7/ddf/classUnityEngine_1_1Component.html" target="_top" xlink:title=" ">
<polygon fill="white" stroke="transparent" points="531,-652 338,-652 338,-243 531,-243 531,-652"/>
<text text-anchor="start" x="406.5" y="-639.5" font-family="Helvetica,sans-Serif" font-size="10.00">Component</text>
<text text-anchor="start" x="342.5" y="-624.5" font-family="Helvetica,sans-Serif" font-size="10.00">+</text>
<text text-anchor="start" x="355.5" y="-624.5" font-family="Helvetica,sans-Serif" font-size="10.00">Transform transform</text>
<text text-anchor="start" x="342.5" y="-609.5" font-family="Helvetica,sans-Serif" font-size="10.00">+</text>
<text text-anchor="start" x="355.5" y="-609.5" font-family="Helvetica,sans-Serif" font-size="10.00">GameObject gameObject</text>
<text text-anchor="start" x="342.5" y="-594.5" font-family="Helvetica,sans-Serif" font-size="10.00">+</text>
<text text-anchor="start" x="355.5" y="-594.5" font-family="Helvetica,sans-Serif" font-size="10.00">Component GetComponent</text>
<text text-anchor="start" x="355.5" y="-583.5" font-family="Helvetica,sans-Serif" font-size="10.00">(Type type)</text>
<text text-anchor="start" x="342.5" y="-568.5" font-family="Helvetica,sans-Serif" font-size="10.00">+</text>
<text text-anchor="start" x="355.5" y="-568.5" font-family="Helvetica,sans-Serif" font-size="10.00">T GetComponent&lt; T &gt;()</text>
<text text-anchor="start" x="342.5" y="-553.5" font-family="Helvetica,sans-Serif" font-size="10.00">+</text>
<text text-anchor="start" x="355.5" y="-553.5" font-family="Helvetica,sans-Serif" font-size="10.00">Component GetComponentIn</text>
<text text-anchor="start" x="355.5" y="-542.5" font-family="Helvetica,sans-Serif" font-size="10.00">Children(Type t, bool</text>
<text text-anchor="start" x="355.5" y="-531.5" font-family="Helvetica,sans-Serif" font-size="10.00"> includeInactive)</text>
<text text-anchor="start" x="342.5" y="-516.5" font-family="Helvetica,sans-Serif" font-size="10.00">+</text>
<text text-anchor="start" x="355.5" y="-516.5" font-family="Helvetica,sans-Serif" font-size="10.00">T GetComponentInChildren</text>
<text text-anchor="start" x="355.5" y="-505.5" font-family="Helvetica,sans-Serif" font-size="10.00">&lt; T &gt;()</text>
<text text-anchor="start" x="342.5" y="-490.5" font-family="Helvetica,sans-Serif" font-size="10.00">+</text>
<text text-anchor="start" x="355.5" y="-490.5" font-family="Helvetica,sans-Serif" font-size="10.00">T[] GetComponentsInChildren</text>
<text text-anchor="start" x="355.5" y="-479.5" font-family="Helvetica,sans-Serif" font-size="10.00">&lt; T &gt;(bool includeInactive)</text>
<text text-anchor="start" x="342.5" y="-464.5" font-family="Helvetica,sans-Serif" font-size="10.00">+</text>
<text text-anchor="start" x="355.5" y="-464.5" font-family="Helvetica,sans-Serif" font-size="10.00">void GetComponentsInChildren</text>
<text text-anchor="start" x="355.5" y="-453.5" font-family="Helvetica,sans-Serif" font-size="10.00">&lt; T &gt;(bool includeInactive,</text>
<text text-anchor="start" x="355.5" y="-442.5" font-family="Helvetica,sans-Serif" font-size="10.00"> List&lt; T &gt; result)</text>
<text text-anchor="start" x="342.5" y="-427.5" font-family="Helvetica,sans-Serif" font-size="10.00">+</text>
<text text-anchor="start" x="355.5" y="-427.5" font-family="Helvetica,sans-Serif" font-size="10.00">void GetComponentsInChildren</text>
<text text-anchor="start" x="355.5" y="-416.5" font-family="Helvetica,sans-Serif" font-size="10.00">&lt; T &gt;(List&lt; T &gt; results)</text>
<text text-anchor="start" x="342.5" y="-401.5" font-family="Helvetica,sans-Serif" font-size="10.00">+</text>
<text text-anchor="start" x="355.5" y="-401.5" font-family="Helvetica,sans-Serif" font-size="10.00">Component GetComponentIn</text>
<text text-anchor="start" x="355.5" y="-390.5" font-family="Helvetica,sans-Serif" font-size="10.00">Parent(Type t, bool includeInactive)</text>
<text text-anchor="start" x="342.5" y="-375.5" font-family="Helvetica,sans-Serif" font-size="10.00">+</text>
<text text-anchor="start" x="355.5" y="-375.5" font-family="Helvetica,sans-Serif" font-size="10.00">T GetComponentInParent</text>
<text text-anchor="start" x="355.5" y="-364.5" font-family="Helvetica,sans-Serif" font-size="10.00">&lt; T &gt;()</text>
<text text-anchor="start" x="342.5" y="-349.5" font-family="Helvetica,sans-Serif" font-size="10.00">+</text>
<text text-anchor="start" x="355.5" y="-349.5" font-family="Helvetica,sans-Serif" font-size="10.00">T[] GetComponentsInParent</text>
<text text-anchor="start" x="355.5" y="-338.5" font-family="Helvetica,sans-Serif" font-size="10.00">&lt; T &gt;(bool includeInactive)</text>
<text text-anchor="start" x="355.5" y="-323.5" font-family="Helvetica,sans-Serif" font-size="10.00">and 6 more...</text>
<text text-anchor="start" x="342.5" y="-308.5" font-family="Helvetica,sans-Serif" font-size="10.00">~</text>
<text text-anchor="start" x="355.5" y="-308.5" font-family="Helvetica,sans-Serif" font-size="10.00">void GetComponentFastPath</text>
<text text-anchor="start" x="355.5" y="-297.5" font-family="Helvetica,sans-Serif" font-size="10.00">(Type type, IntPtr oneFurtherThan</text>
<text text-anchor="start" x="355.5" y="-286.5" font-family="Helvetica,sans-Serif" font-size="10.00">ResultValue)</text>
<text text-anchor="start" x="345" y="-271.5" font-family="Helvetica,sans-Serif" font-size="10.00">&#45;</text>
<text text-anchor="start" x="355.5" y="-271.5" font-family="Helvetica,sans-Serif" font-size="10.00">void GetComponentsForList</text>
<text text-anchor="start" x="355.5" y="-260.5" font-family="Helvetica,sans-Serif" font-size="10.00">Internal(Type searchType,</text>
<text text-anchor="start" x="355.5" y="-249.5" font-family="Helvetica,sans-Serif" font-size="10.00"> object resultList)</text>
<polygon fill="#666666" stroke="#666666" points="338.5,-634.5 338.5,-634.5 531.5,-634.5 531.5,-634.5 338.5,-634.5"/>
<polygon fill="#666666" stroke="#666666" points="338.5,-604.5 338.5,-604.5 353.5,-604.5 353.5,-604.5 338.5,-604.5"/>
<polygon fill="#666666" stroke="#666666" points="353.5,-604.5 353.5,-604.5 531.5,-604.5 531.5,-604.5 353.5,-604.5"/>
<polygon fill="none" stroke="#666666" points="338,-243 338,-652 531,-652 531,-243 338,-243"/>
</a>
</g>
</g>
<!-- Node3&#45;&gt;Node2 -->
<g id="edge2_Node000002_Node000003" class="edge">
<title>Node3&#45;&gt;Node2</title>
<g id="a_edge2_Node000002_Node000003"><a xlink:title=" ">
<path fill="none" stroke="#63b8ff" d="M434.5,-232.79C434.5,-223.03 434.5,-214.09 434.5,-206.3"/>
<polygon fill="none" stroke="#63b8ff" points="431,-232.81 434.5,-242.81 438,-232.81 431,-232.81"/>
</a>
</g>
</g>
<!-- Node4 -->
<g id="Node000004" class="node">
<title>Node4</title>
<g id="a_Node000004"><a xlink:href="../../d6/d8b/classUnityEngine_1_1Object.html" target="_top" xlink:title=" ">
<polygon fill="white" stroke="transparent" points="541.5,-1647 327.5,-1647 327.5,-689 541.5,-689 541.5,-1647"/>
<text text-anchor="start" x="418.5" y="-1635" font-family="Helvetica,sans-Serif" font-size="10.00">Object</text>
<text text-anchor="start" x="331.5" y="-1620" font-family="Helvetica,sans-Serif" font-size="10.00">+</text>
<text text-anchor="start" x="344.5" y="-1620" font-family="Helvetica,sans-Serif" font-size="10.00">string name</text>
<text text-anchor="start" x="331.5" y="-1605" font-family="Helvetica,sans-Serif" font-size="10.00">+</text>
<text text-anchor="start" x="344.5" y="-1605" font-family="Helvetica,sans-Serif" font-size="10.00">HideFlags hideFlags</text>
<text text-anchor="start" x="331.5" y="-1590" font-family="Helvetica,sans-Serif" font-size="10.00">+</text>
<text text-anchor="start" x="344.5" y="-1590" font-family="Helvetica,sans-Serif" font-size="10.00">unsafe int GetInstanceID()</text>
<text text-anchor="start" x="331.5" y="-1575" font-family="Helvetica,sans-Serif" font-size="10.00">+</text>
<text text-anchor="start" x="344.5" y="-1575" font-family="Helvetica,sans-Serif" font-size="10.00">override int GetHashCode()</text>
<text text-anchor="start" x="331.5" y="-1560" font-family="Helvetica,sans-Serif" font-size="10.00">+</text>
<text text-anchor="start" x="344.5" y="-1560" font-family="Helvetica,sans-Serif" font-size="10.00">override bool Equals</text>
<text text-anchor="start" x="344.5" y="-1549" font-family="Helvetica,sans-Serif" font-size="10.00">(object other)</text>
<text text-anchor="start" x="331.5" y="-1534" font-family="Helvetica,sans-Serif" font-size="10.00">+</text>
<text text-anchor="start" x="344.5" y="-1534" font-family="Helvetica,sans-Serif" font-size="10.00">static void Destroy</text>
<text text-anchor="start" x="344.5" y="-1523" font-family="Helvetica,sans-Serif" font-size="10.00">(Object obj, [DefaultValue</text>
<text text-anchor="start" x="344.5" y="-1512" font-family="Helvetica,sans-Serif" font-size="10.00">(&quot;0.0F&quot;)] float t)</text>
<text text-anchor="start" x="331.5" y="-1497" font-family="Helvetica,sans-Serif" font-size="10.00">+</text>
<text text-anchor="start" x="344.5" y="-1497" font-family="Helvetica,sans-Serif" font-size="10.00">static void DestroyImmediate</text>
<text text-anchor="start" x="344.5" y="-1486" font-family="Helvetica,sans-Serif" font-size="10.00">(Object obj, [DefaultValue</text>
<text text-anchor="start" x="344.5" y="-1475" font-family="Helvetica,sans-Serif" font-size="10.00">(&quot;false&quot;)] bool allowDestroyingAssets)</text>
<text text-anchor="start" x="331.5" y="-1460" font-family="Helvetica,sans-Serif" font-size="10.00">+</text>
<text text-anchor="start" x="344.5" y="-1460" font-family="Helvetica,sans-Serif" font-size="10.00">static Object[] FindObjects</text>
<text text-anchor="start" x="344.5" y="-1449" font-family="Helvetica,sans-Serif" font-size="10.00">OfType(Type type, bool includeInactive)</text>
<text text-anchor="start" x="331.5" y="-1434" font-family="Helvetica,sans-Serif" font-size="10.00">+</text>
<text text-anchor="start" x="344.5" y="-1434" font-family="Helvetica,sans-Serif" font-size="10.00">static void DontDestroyOn</text>
<text text-anchor="start" x="344.5" y="-1423" font-family="Helvetica,sans-Serif" font-size="10.00">Load([NotNull(&quot;NullExceptionObject&quot;)</text>
<text text-anchor="start" x="344.5" y="-1412" font-family="Helvetica,sans-Serif" font-size="10.00">] Object target)</text>
<text text-anchor="start" x="331.5" y="-1397" font-family="Helvetica,sans-Serif" font-size="10.00">+</text>
<text text-anchor="start" x="344.5" y="-1397" font-family="Helvetica,sans-Serif" font-size="10.00">override string ToString()</text>
<text text-anchor="start" x="331.5" y="-1382" font-family="Helvetica,sans-Serif" font-size="10.00">+</text>
<text text-anchor="start" x="344.5" y="-1382" font-family="Helvetica,sans-Serif" font-size="10.00">Object()</text>
<text text-anchor="start" x="331.5" y="-1367" font-family="Helvetica,sans-Serif" font-size="10.00">+</text>
<text text-anchor="start" x="344.5" y="-1367" font-family="Helvetica,sans-Serif" font-size="10.00">static implicit operator</text>
<text text-anchor="start" x="344.5" y="-1356" font-family="Helvetica,sans-Serif" font-size="10.00"> bool(Object exists)</text>
<text text-anchor="start" x="331.5" y="-1341" font-family="Helvetica,sans-Serif" font-size="10.00">+</text>
<text text-anchor="start" x="344.5" y="-1341" font-family="Helvetica,sans-Serif" font-size="10.00">static Object Instantiate</text>
<text text-anchor="start" x="344.5" y="-1330" font-family="Helvetica,sans-Serif" font-size="10.00">(Object original, Vector3</text>
<text text-anchor="start" x="344.5" y="-1319" font-family="Helvetica,sans-Serif" font-size="10.00"> position, Quaternion rotation)</text>
<text text-anchor="start" x="331.5" y="-1304" font-family="Helvetica,sans-Serif" font-size="10.00">+</text>
<text text-anchor="start" x="344.5" y="-1304" font-family="Helvetica,sans-Serif" font-size="10.00">static Object Instantiate</text>
<text text-anchor="start" x="344.5" y="-1293" font-family="Helvetica,sans-Serif" font-size="10.00">(Object original)</text>
<text text-anchor="start" x="331.5" y="-1278" font-family="Helvetica,sans-Serif" font-size="10.00">+</text>
<text text-anchor="start" x="344.5" y="-1278" font-family="Helvetica,sans-Serif" font-size="10.00">static T Instantiate</text>
<text text-anchor="start" x="344.5" y="-1267" font-family="Helvetica,sans-Serif" font-size="10.00">&lt; T &gt;(T original)</text>
<text text-anchor="start" x="331.5" y="-1252" font-family="Helvetica,sans-Serif" font-size="10.00">+</text>
<text text-anchor="start" x="344.5" y="-1252" font-family="Helvetica,sans-Serif" font-size="10.00">static T Instantiate</text>
<text text-anchor="start" x="344.5" y="-1241" font-family="Helvetica,sans-Serif" font-size="10.00">&lt; T &gt;(T original, Vector3</text>
<text text-anchor="start" x="344.5" y="-1230" font-family="Helvetica,sans-Serif" font-size="10.00"> position, Quaternion rotation)</text>
<text text-anchor="start" x="331.5" y="-1215" font-family="Helvetica,sans-Serif" font-size="10.00">+</text>
<text text-anchor="start" x="344.5" y="-1215" font-family="Helvetica,sans-Serif" font-size="10.00">static void Destroy</text>
<text text-anchor="start" x="344.5" y="-1204" font-family="Helvetica,sans-Serif" font-size="10.00">(Object obj)</text>
<text text-anchor="start" x="331.5" y="-1189" font-family="Helvetica,sans-Serif" font-size="10.00">+</text>
<text text-anchor="start" x="344.5" y="-1189" font-family="Helvetica,sans-Serif" font-size="10.00">static void DestroyImmediate</text>
<text text-anchor="start" x="344.5" y="-1178" font-family="Helvetica,sans-Serif" font-size="10.00">(Object obj)</text>
<text text-anchor="start" x="331.5" y="-1163" font-family="Helvetica,sans-Serif" font-size="10.00">+</text>
<text text-anchor="start" x="344.5" y="-1163" font-family="Helvetica,sans-Serif" font-size="10.00">static T[] FindObjectsOf</text>
<text text-anchor="start" x="344.5" y="-1152" font-family="Helvetica,sans-Serif" font-size="10.00">Type&lt; T &gt;()</text>
<text text-anchor="start" x="331.5" y="-1137" font-family="Helvetica,sans-Serif" font-size="10.00">+</text>
<text text-anchor="start" x="344.5" y="-1137" font-family="Helvetica,sans-Serif" font-size="10.00">static bool operator</text>
<text text-anchor="start" x="344.5" y="-1126" font-family="Helvetica,sans-Serif" font-size="10.00">==(Object x, Object y)</text>
<text text-anchor="start" x="331.5" y="-1111" font-family="Helvetica,sans-Serif" font-size="10.00">+</text>
<text text-anchor="start" x="344.5" y="-1111" font-family="Helvetica,sans-Serif" font-size="10.00">static bool operator!</text>
<text text-anchor="start" x="344.5" y="-1100" font-family="Helvetica,sans-Serif" font-size="10.00">=(Object x, Object y)</text>
<text text-anchor="start" x="331.5" y="-1085" font-family="Helvetica,sans-Serif" font-size="10.00">~</text>
<text text-anchor="start" x="344.5" y="-1085" font-family="Helvetica,sans-Serif" font-size="10.00">static Object FindObject</text>
<text text-anchor="start" x="344.5" y="-1074" font-family="Helvetica,sans-Serif" font-size="10.00">FromInstanceID(int instanceID)</text>
<text text-anchor="start" x="334" y="-1059" font-family="Helvetica,sans-Serif" font-size="10.00">&#45;</text>
<text text-anchor="start" x="344.5" y="-1059" font-family="Helvetica,sans-Serif" font-size="10.00">IntPtr GetCachedPtr()</text>
<text text-anchor="start" x="334" y="-1044" font-family="Helvetica,sans-Serif" font-size="10.00">&#45;</text>
<text text-anchor="start" x="344.5" y="-1044" font-family="Helvetica,sans-Serif" font-size="10.00">static int GetOffsetOfInstance</text>
<text text-anchor="start" x="344.5" y="-1033" font-family="Helvetica,sans-Serif" font-size="10.00">IDInCPlusPlusObject()</text>
<text text-anchor="start" x="334" y="-1018" font-family="Helvetica,sans-Serif" font-size="10.00">&#45;</text>
<text text-anchor="start" x="344.5" y="-1018" font-family="Helvetica,sans-Serif" font-size="10.00">static Object Internal</text>
<text text-anchor="start" x="344.5" y="-1007" font-family="Helvetica,sans-Serif" font-size="10.00">_CloneSingle([NotNull</text>
<text text-anchor="start" x="344.5" y="-996" font-family="Helvetica,sans-Serif" font-size="10.00">(&quot;NullExceptionObject&quot;)</text>
<text text-anchor="start" x="344.5" y="-985" font-family="Helvetica,sans-Serif" font-size="10.00">] Object data)</text>
<text text-anchor="start" x="334" y="-970" font-family="Helvetica,sans-Serif" font-size="10.00">&#45;</text>
<text text-anchor="start" x="344.5" y="-970" font-family="Helvetica,sans-Serif" font-size="10.00">static string ToString</text>
<text text-anchor="start" x="344.5" y="-959" font-family="Helvetica,sans-Serif" font-size="10.00">(Object obj)</text>
<text text-anchor="start" x="334" y="-944" font-family="Helvetica,sans-Serif" font-size="10.00">&#45;</text>
<text text-anchor="start" x="344.5" y="-944" font-family="Helvetica,sans-Serif" font-size="10.00">static string GetName</text>
<text text-anchor="start" x="344.5" y="-933" font-family="Helvetica,sans-Serif" font-size="10.00">([NotNull(&quot;NullExceptionObject&quot;)</text>
<text text-anchor="start" x="344.5" y="-922" font-family="Helvetica,sans-Serif" font-size="10.00">] Object obj)</text>
<text text-anchor="start" x="334" y="-907" font-family="Helvetica,sans-Serif" font-size="10.00">&#45;</text>
<text text-anchor="start" x="344.5" y="-907" font-family="Helvetica,sans-Serif" font-size="10.00">static void SetName</text>
<text text-anchor="start" x="344.5" y="-896" font-family="Helvetica,sans-Serif" font-size="10.00">([NotNull(&quot;NullExceptionObject&quot;)</text>
<text text-anchor="start" x="344.5" y="-885" font-family="Helvetica,sans-Serif" font-size="10.00">] Object obj, string name)</text>
<text text-anchor="start" x="334" y="-870" font-family="Helvetica,sans-Serif" font-size="10.00">&#45;</text>
<text text-anchor="start" x="344.5" y="-870" font-family="Helvetica,sans-Serif" font-size="10.00">static Object Internal</text>
<text text-anchor="start" x="344.5" y="-859" font-family="Helvetica,sans-Serif" font-size="10.00">_InstantiateSingle_Injected</text>
<text text-anchor="start" x="344.5" y="-848" font-family="Helvetica,sans-Serif" font-size="10.00">(Object data, ref Vector3</text>
<text text-anchor="start" x="344.5" y="-837" font-family="Helvetica,sans-Serif" font-size="10.00"> pos, ref Quaternion rot)</text>
<text text-anchor="start" x="334" y="-822" font-family="Helvetica,sans-Serif" font-size="10.00">&#45;</text>
<text text-anchor="start" x="344.5" y="-822" font-family="Helvetica,sans-Serif" font-size="10.00">static bool CompareBaseObjects</text>
<text text-anchor="start" x="344.5" y="-811" font-family="Helvetica,sans-Serif" font-size="10.00">(Object lhs, Object rhs)</text>
<text text-anchor="start" x="334" y="-796" font-family="Helvetica,sans-Serif" font-size="10.00">&#45;</text>
<text text-anchor="start" x="344.5" y="-796" font-family="Helvetica,sans-Serif" font-size="10.00">static bool IsNativeObject</text>
<text text-anchor="start" x="344.5" y="-785" font-family="Helvetica,sans-Serif" font-size="10.00">Alive(Object o)</text>
<text text-anchor="start" x="334" y="-770" font-family="Helvetica,sans-Serif" font-size="10.00">&#45;</text>
<text text-anchor="start" x="344.5" y="-770" font-family="Helvetica,sans-Serif" font-size="10.00">static void CheckNullArgument</text>
<text text-anchor="start" x="344.5" y="-759" font-family="Helvetica,sans-Serif" font-size="10.00">(object arg, string message)</text>
<text text-anchor="start" x="334" y="-744" font-family="Helvetica,sans-Serif" font-size="10.00">&#45;</text>
<text text-anchor="start" x="344.5" y="-744" font-family="Helvetica,sans-Serif" font-size="10.00">static Object Internal</text>
<text text-anchor="start" x="344.5" y="-733" font-family="Helvetica,sans-Serif" font-size="10.00">_InstantiateSingle([NotNull</text>
<text text-anchor="start" x="344.5" y="-722" font-family="Helvetica,sans-Serif" font-size="10.00">(&quot;NullExceptionObject&quot;)] Object</text>
<text text-anchor="start" x="344.5" y="-711" font-family="Helvetica,sans-Serif" font-size="10.00"> data, Vector3 pos, Quaternion rot)</text>
<text text-anchor="start" x="334" y="-696" font-family="Helvetica,sans-Serif" font-size="10.00">&#45;</text>
<text text-anchor="start" x="344.5" y="-696" font-family="Helvetica,sans-Serif" font-size="10.00">static Object()</text>
<polygon fill="#666666" stroke="#666666" points="327.5,-1630 327.5,-1630 541.5,-1630 541.5,-1630 327.5,-1630"/>
<polygon fill="#666666" stroke="#666666" points="327.5,-1600 327.5,-1600 342.5,-1600 342.5,-1600 327.5,-1600"/>
<polygon fill="#666666" stroke="#666666" points="342.5,-1600 342.5,-1600 541.5,-1600 541.5,-1600 342.5,-1600"/>
<polygon fill="none" stroke="#666666" points="327.5,-689 327.5,-1647 541.5,-1647 541.5,-689 327.5,-689"/>
</a>
</g>
</g>
<!-- Node4&#45;&gt;Node3 -->
<g id="edge3_Node000003_Node000004" class="edge">
<title>Node4&#45;&gt;Node3</title>
<g id="a_edge3_Node000003_Node000004"><a xlink:title=" ">
<path fill="none" stroke="#63b8ff" d="M434.5,-678.63C434.5,-669.71 434.5,-660.91 434.5,-652.26"/>
<polygon fill="none" stroke="#63b8ff" points="431,-678.75 434.5,-688.75 438,-678.75 431,-678.75"/>
</a>
</g>
</g>
<!-- Node5 -->
<g id="Node000005" class="node">
<title>Node5</title>
<g id="a_Node000005"><a xlink:href="../../db/db4/structSystem_1_1IntPtr.html" target="_top" xlink:title=" ">
<polygon fill="white" stroke="transparent" points="353,-2473 104,-2473 104,-1705 353,-1705 353,-2473"/>
<text text-anchor="start" x="195.5" y="-2461" font-family="Helvetica,sans-Serif" font-size="10.00">System.IntPtr</text>
<text text-anchor="start" x="108.5" y="-2446" font-family="Helvetica,sans-Serif" font-size="10.00">+</text>
<text text-anchor="start" x="121.5" y="-2446" font-family="Helvetica,sans-Serif" font-size="10.00">static unsafe int Size</text>
<text text-anchor="start" x="108.5" y="-2431" font-family="Helvetica,sans-Serif" font-size="10.00">+</text>
<text text-anchor="start" x="121.5" y="-2431" font-family="Helvetica,sans-Serif" font-size="10.00">IntPtr(int value)</text>
<text text-anchor="start" x="108.5" y="-2416" font-family="Helvetica,sans-Serif" font-size="10.00">+</text>
<text text-anchor="start" x="121.5" y="-2416" font-family="Helvetica,sans-Serif" font-size="10.00">IntPtr(long value)</text>
<text text-anchor="start" x="108.5" y="-2401" font-family="Helvetica,sans-Serif" font-size="10.00">+</text>
<text text-anchor="start" x="121.5" y="-2401" font-family="Helvetica,sans-Serif" font-size="10.00">unsafe IntPtr(void</text>
<text text-anchor="start" x="121.5" y="-2390" font-family="Helvetica,sans-Serif" font-size="10.00"> *value)</text>
<text text-anchor="start" x="108.5" y="-2375" font-family="Helvetica,sans-Serif" font-size="10.00">+</text>
<text text-anchor="start" x="121.5" y="-2375" font-family="Helvetica,sans-Serif" font-size="10.00">override bool Equals</text>
<text text-anchor="start" x="121.5" y="-2364" font-family="Helvetica,sans-Serif" font-size="10.00">(object obj)</text>
<text text-anchor="start" x="108.5" y="-2349" font-family="Helvetica,sans-Serif" font-size="10.00">+</text>
<text text-anchor="start" x="121.5" y="-2349" font-family="Helvetica,sans-Serif" font-size="10.00">override int GetHashCode()</text>
<text text-anchor="start" x="108.5" y="-2334" font-family="Helvetica,sans-Serif" font-size="10.00">+</text>
<text text-anchor="start" x="121.5" y="-2334" font-family="Helvetica,sans-Serif" font-size="10.00">long ToInt64()</text>
<text text-anchor="start" x="108.5" y="-2319" font-family="Helvetica,sans-Serif" font-size="10.00">+</text>
<text text-anchor="start" x="121.5" y="-2319" font-family="Helvetica,sans-Serif" font-size="10.00">unsafe void * ToPointer()</text>
<text text-anchor="start" x="108.5" y="-2304" font-family="Helvetica,sans-Serif" font-size="10.00">+</text>
<text text-anchor="start" x="121.5" y="-2304" font-family="Helvetica,sans-Serif" font-size="10.00">override string ToString()</text>
<text text-anchor="start" x="108.5" y="-2289" font-family="Helvetica,sans-Serif" font-size="10.00">+</text>
<text text-anchor="start" x="121.5" y="-2289" font-family="Helvetica,sans-Serif" font-size="10.00">string ToString(string</text>
<text text-anchor="start" x="121.5" y="-2278" font-family="Helvetica,sans-Serif" font-size="10.00"> format)</text>
<text text-anchor="start" x="108.5" y="-2263" font-family="Helvetica,sans-Serif" font-size="10.00">+</text>
<text text-anchor="start" x="121.5" y="-2263" font-family="Helvetica,sans-Serif" font-size="10.00">static bool operator</text>
<text text-anchor="start" x="121.5" y="-2252" font-family="Helvetica,sans-Serif" font-size="10.00">==(global::System.IntPtr</text>
<text text-anchor="start" x="121.5" y="-2241" font-family="Helvetica,sans-Serif" font-size="10.00"> value1, global::System.IntPtr</text>
<text text-anchor="start" x="121.5" y="-2230" font-family="Helvetica,sans-Serif" font-size="10.00"> value2)</text>
<text text-anchor="start" x="108.5" y="-2215" font-family="Helvetica,sans-Serif" font-size="10.00">+</text>
<text text-anchor="start" x="121.5" y="-2215" font-family="Helvetica,sans-Serif" font-size="10.00">static bool operator!</text>
<text text-anchor="start" x="121.5" y="-2204" font-family="Helvetica,sans-Serif" font-size="10.00">=(global::System.IntPtr</text>
<text text-anchor="start" x="121.5" y="-2193" font-family="Helvetica,sans-Serif" font-size="10.00"> value1, global::System.IntPtr</text>
<text text-anchor="start" x="121.5" y="-2182" font-family="Helvetica,sans-Serif" font-size="10.00"> value2)</text>
<text text-anchor="start" x="108.5" y="-2167" font-family="Helvetica,sans-Serif" font-size="10.00">+</text>
<text text-anchor="start" x="121.5" y="-2167" font-family="Helvetica,sans-Serif" font-size="10.00">static operator global</text>
<text text-anchor="start" x="121.5" y="-2156" font-family="Helvetica,sans-Serif" font-size="10.00">::System.IntPtr(int value)</text>
<text text-anchor="start" x="108.5" y="-2141" font-family="Helvetica,sans-Serif" font-size="10.00">+</text>
<text text-anchor="start" x="121.5" y="-2141" font-family="Helvetica,sans-Serif" font-size="10.00">static operator global</text>
<text text-anchor="start" x="121.5" y="-2130" font-family="Helvetica,sans-Serif" font-size="10.00">::System.IntPtr(long value)</text>
<text text-anchor="start" x="108.5" y="-2115" font-family="Helvetica,sans-Serif" font-size="10.00">+</text>
<text text-anchor="start" x="121.5" y="-2115" font-family="Helvetica,sans-Serif" font-size="10.00">static unsafe operator</text>
<text text-anchor="start" x="121.5" y="-2104" font-family="Helvetica,sans-Serif" font-size="10.00"> global::System.IntPtr</text>
<text text-anchor="start" x="121.5" y="-2093" font-family="Helvetica,sans-Serif" font-size="10.00">(void *value)</text>
<text text-anchor="start" x="108.5" y="-2078" font-family="Helvetica,sans-Serif" font-size="10.00">+</text>
<text text-anchor="start" x="121.5" y="-2078" font-family="Helvetica,sans-Serif" font-size="10.00">static operator int</text>
<text text-anchor="start" x="121.5" y="-2067" font-family="Helvetica,sans-Serif" font-size="10.00">(global::System.IntPtr</text>
<text text-anchor="start" x="121.5" y="-2056" font-family="Helvetica,sans-Serif" font-size="10.00"> value)</text>
<text text-anchor="start" x="108.5" y="-2041" font-family="Helvetica,sans-Serif" font-size="10.00">+</text>
<text text-anchor="start" x="121.5" y="-2041" font-family="Helvetica,sans-Serif" font-size="10.00">static operator long</text>
<text text-anchor="start" x="121.5" y="-2030" font-family="Helvetica,sans-Serif" font-size="10.00">(global::System.IntPtr</text>
<text text-anchor="start" x="121.5" y="-2019" font-family="Helvetica,sans-Serif" font-size="10.00"> value)</text>
<text text-anchor="start" x="108.5" y="-2004" font-family="Helvetica,sans-Serif" font-size="10.00">+</text>
<text text-anchor="start" x="121.5" y="-2004" font-family="Helvetica,sans-Serif" font-size="10.00">static unsafe operator</text>
<text text-anchor="start" x="121.5" y="-1993" font-family="Helvetica,sans-Serif" font-size="10.00"> void *(global::System.IntPtr</text>
<text text-anchor="start" x="121.5" y="-1982" font-family="Helvetica,sans-Serif" font-size="10.00"> value)</text>
<text text-anchor="start" x="108.5" y="-1967" font-family="Helvetica,sans-Serif" font-size="10.00">+</text>
<text text-anchor="start" x="121.5" y="-1967" font-family="Helvetica,sans-Serif" font-size="10.00">static global::System.Int</text>
<text text-anchor="start" x="121.5" y="-1956" font-family="Helvetica,sans-Serif" font-size="10.00">Ptr Add(global::System.IntPtr</text>
<text text-anchor="start" x="121.5" y="-1945" font-family="Helvetica,sans-Serif" font-size="10.00"> pointer, int offset)</text>
<text text-anchor="start" x="108.5" y="-1930" font-family="Helvetica,sans-Serif" font-size="10.00">+</text>
<text text-anchor="start" x="121.5" y="-1930" font-family="Helvetica,sans-Serif" font-size="10.00">static global::System.Int</text>
<text text-anchor="start" x="121.5" y="-1919" font-family="Helvetica,sans-Serif" font-size="10.00">Ptr operator+(global::System.Int</text>
<text text-anchor="start" x="121.5" y="-1908" font-family="Helvetica,sans-Serif" font-size="10.00">Ptr pointer, int offset)</text>
<text text-anchor="start" x="108.5" y="-1893" font-family="Helvetica,sans-Serif" font-size="10.00">+</text>
<text text-anchor="start" x="121.5" y="-1893" font-family="Helvetica,sans-Serif" font-size="10.00">static global::System.Int</text>
<text text-anchor="start" x="121.5" y="-1882" font-family="Helvetica,sans-Serif" font-size="10.00">Ptr operator&#45;(global::System.Int</text>
<text text-anchor="start" x="121.5" y="-1871" font-family="Helvetica,sans-Serif" font-size="10.00">Ptr pointer, int offset)</text>
<text text-anchor="start" x="108.5" y="-1856" font-family="Helvetica,sans-Serif" font-size="10.00">~</text>
<text text-anchor="start" x="121.5" y="-1856" font-family="Helvetica,sans-Serif" font-size="10.00">bool IsNull()</text>
<text text-anchor="start" x="111" y="-1841" font-family="Helvetica,sans-Serif" font-size="10.00">&#45;</text>
<text text-anchor="start" x="121.5" y="-1841" font-family="Helvetica,sans-Serif" font-size="10.00">IntPtr(global::System.Runtime.</text>
<text text-anchor="start" x="121.5" y="-1830" font-family="Helvetica,sans-Serif" font-size="10.00">Serialization.SerializationInfo</text>
<text text-anchor="start" x="121.5" y="-1819" font-family="Helvetica,sans-Serif" font-size="10.00"> info, global::System.Runtime.Serialization.</text>
<text text-anchor="start" x="121.5" y="-1808" font-family="Helvetica,sans-Serif" font-size="10.00">StreamingContext context)</text>
<text text-anchor="start" x="111" y="-1793" font-family="Helvetica,sans-Serif" font-size="10.00">&#45;</text>
<text text-anchor="start" x="121.5" y="-1793" font-family="Helvetica,sans-Serif" font-size="10.00">void System.Runtime.Serialization.</text>
<text text-anchor="start" x="121.5" y="-1782" font-family="Helvetica,sans-Serif" font-size="10.00">ISerializable. GetObjectData</text>
<text text-anchor="start" x="121.5" y="-1771" font-family="Helvetica,sans-Serif" font-size="10.00">(global::System.Runtime.Serialization.</text>
<text text-anchor="start" x="121.5" y="-1760" font-family="Helvetica,sans-Serif" font-size="10.00">SerializationInfo info, global::System.Runtime.</text>
<text text-anchor="start" x="121.5" y="-1749" font-family="Helvetica,sans-Serif" font-size="10.00">Serialization.StreamingContext context)</text>
<text text-anchor="start" x="111" y="-1734" font-family="Helvetica,sans-Serif" font-size="10.00">&#45;</text>
<text text-anchor="start" x="121.5" y="-1734" font-family="Helvetica,sans-Serif" font-size="10.00">bool System.IEquatable</text>
<text text-anchor="start" x="121.5" y="-1723" font-family="Helvetica,sans-Serif" font-size="10.00">&lt; System.IntPtr &gt;. Equals</text>
<text text-anchor="start" x="121.5" y="-1712" font-family="Helvetica,sans-Serif" font-size="10.00">(global::System.IntPtr other)</text>
<polygon fill="#666666" stroke="#666666" points="104.5,-2456 104.5,-2456 353.5,-2456 353.5,-2456 104.5,-2456"/>
<polygon fill="#666666" stroke="#666666" points="104.5,-2441 104.5,-2441 119.5,-2441 119.5,-2441 104.5,-2441"/>
<polygon fill="#666666" stroke="#666666" points="119.5,-2441 119.5,-2441 353.5,-2441 353.5,-2441 119.5,-2441"/>
<polygon fill="none" stroke="#666666" points="104,-1705 104,-2473 353,-2473 353,-1705 104,-1705"/>
</a>
</g>
</g>
<!-- Node5&#45;&gt;Node4 -->
<g id="edge4_Node000004_Node000005" class="edge">
<title>Node5&#45;&gt;Node4</title>
<g id="a_edge4_Node000004_Node000005"><a xlink:title=" ">
<path fill="none" stroke="#63b8ff" d="M314.37,-1704.92C317.82,-1689.51 321.3,-1673.99 324.79,-1658.42"/>
<polygon fill="none" stroke="#63b8ff" points="324.84,-1658.22 322.25,-1651.49 327.46,-1646.51 330.05,-1653.24 324.84,-1658.22"/>
</a>
</g>
<text text-anchor="middle" x="358.5" y="-1673.5" font-family="Helvetica,sans-Serif" font-size="10.00" fill="grey"> &#45;m_CachedPtr</text>
</g>
<!-- Node5&#45;&gt;Node5 -->
<g id="edge8_Node000005_Node000005" class="edge">
<title>Node5&#45;&gt;Node5</title>
<g id="a_edge8_Node000005_Node000005"><a xlink:title=" ">
<path fill="none" stroke="#63b8ff" d="M353.09,-2148.95C364.1,-2136.34 371,-2116.36 371,-2089 371,-2068.05 366.95,-2051.43 360.12,-2039.13"/>
<polygon fill="none" stroke="#63b8ff" points="359.95,-2038.89 353.24,-2036.26 353.09,-2029.05 359.8,-2031.68 359.95,-2038.89"/>
</a>
</g>
<text text-anchor="middle" x="388" y="-2086.5" font-family="Helvetica,sans-Serif" font-size="10.00" fill="grey"> +Zero</text>
</g>
<!-- Node6 -->
<g id="Node000006" class="node">
<title>Node6</title>
<g id="a_Node000006"><a xlink:title=" ">
<polygon fill="white" stroke="transparent" points="143,-2580 0,-2580 0,-2520 143,-2520 143,-2580"/>
<text text-anchor="start" x="5.5" y="-2568" font-family="Helvetica,sans-Serif" font-size="10.00">global::SystemRuntime</text>
<text text-anchor="start" x="5.5" y="-2557" font-family="Helvetica,sans-Serif" font-size="10.00">::Serialization::ISerializable</text>
<text text-anchor="start" x="70" y="-2542" font-family="Helvetica,sans-Serif" font-size="10.00"> </text>
<text text-anchor="start" x="70" y="-2527" font-family="Helvetica,sans-Serif" font-size="10.00"> </text>
<polygon fill="#666666" stroke="#666666" points="0.5,-2552 0.5,-2552 143.5,-2552 143.5,-2552 0.5,-2552"/>
<polygon fill="#666666" stroke="#666666" points="0.5,-2537 0.5,-2537 143.5,-2537 143.5,-2537 0.5,-2537"/>
<polygon fill="none" stroke="#666666" points="0,-2520 0,-2580 143,-2580 143,-2520 0,-2520"/>
</a>
</g>
</g>
<!-- Node6&#45;&gt;Node5 -->
<g id="edge5_Node000005_Node000006" class="edge">
<title>Node6&#45;&gt;Node5</title>
<g id="a_edge5_Node000005_Node000006"><a xlink:title=" ">
<path fill="none" stroke="#63b8ff" d="M84.69,-2510.44C89.93,-2495.11 96.49,-2475.95 103.89,-2454.32"/>
<polygon fill="none" stroke="#63b8ff" points="81.36,-2509.34 81.44,-2519.94 87.99,-2511.61 81.36,-2509.34"/>
</a>
</g>
</g>
<!-- Node7 -->
<g id="Node000007" class="node">
<title>Node7</title>
<g id="a_Node000007"><a xlink:title=" ">
<polygon fill="white" stroke="transparent" points="296,-2580 161,-2580 161,-2520 296,-2520 296,-2580"/>
<text text-anchor="start" x="166.5" y="-2568" font-family="Helvetica,sans-Serif" font-size="10.00">global::SystemIEquatable</text>
<text text-anchor="start" x="166.5" y="-2557" font-family="Helvetica,sans-Serif" font-size="10.00">&lt; global::System.IntPtr &gt;</text>
<text text-anchor="start" x="227" y="-2542" font-family="Helvetica,sans-Serif" font-size="10.00"> </text>
<text text-anchor="start" x="227" y="-2527" font-family="Helvetica,sans-Serif" font-size="10.00"> </text>
<polygon fill="#666666" stroke="#666666" points="161.5,-2552 161.5,-2552 296.5,-2552 296.5,-2552 161.5,-2552"/>
<polygon fill="#666666" stroke="#666666" points="161.5,-2537 161.5,-2537 296.5,-2537 296.5,-2537 161.5,-2537"/>
<polygon fill="none" stroke="#666666" points="161,-2520 161,-2580 296,-2580 296,-2520 161,-2520"/>
</a>
</g>
</g>
<!-- Node7&#45;&gt;Node5 -->
<g id="edge6_Node000005_Node000007" class="edge">
<title>Node7&#45;&gt;Node5</title>
<g id="a_edge6_Node000005_Node000007"><a xlink:title=" ">
<path fill="none" stroke="#63b8ff" d="M228.5,-2509.67C228.5,-2499.18 228.5,-2486.94 228.5,-2473.37"/>
<polygon fill="none" stroke="#63b8ff" points="225,-2509.94 228.5,-2519.94 232,-2509.94 225,-2509.94"/>
</a>
</g>
</g>
<!-- Node8 -->
<g id="Node000008" class="node">
<title>Node8</title>
<g id="a_Node000008"><a xlink:title=" ">
<polygon fill="white" stroke="transparent" points="436.5,-2574.5 314.5,-2574.5 314.5,-2525.5 436.5,-2525.5 436.5,-2574.5"/>
<text text-anchor="start" x="319.5" y="-2562" font-family="Helvetica,sans-Serif" font-size="10.00">unsafe readonly void *</text>
<text text-anchor="start" x="373.5" y="-2547" font-family="Helvetica,sans-Serif" font-size="10.00"> </text>
<text text-anchor="start" x="373.5" y="-2532" font-family="Helvetica,sans-Serif" font-size="10.00"> </text>
<polygon fill="#666666" stroke="#666666" points="314.5,-2557 314.5,-2557 436.5,-2557 436.5,-2557 314.5,-2557"/>
<polygon fill="#666666" stroke="#666666" points="314.5,-2542 314.5,-2542 436.5,-2542 436.5,-2542 314.5,-2542"/>
<polygon fill="none" stroke="#666666" points="314.5,-2525.5 314.5,-2574.5 436.5,-2574.5 436.5,-2525.5 314.5,-2525.5"/>
</a>
</g>
</g>
<!-- Node8&#45;&gt;Node5 -->
<g id="edge7_Node000005_Node000008" class="edge">
<title>Node8&#45;&gt;Node5</title>
<g id="a_edge7_Node000005_Node000008"><a xlink:title=" ">
<path fill="none" stroke="#63b8ff" d="M367.91,-2525.29C364.49,-2514.62 360.06,-2500.78 354.88,-2484.6"/>
<polygon fill="none" stroke="#63b8ff" points="354.83,-2484.47 349.2,-2479.98 351.17,-2473.05 356.81,-2477.54 354.83,-2484.47"/>
</a>
</g>
<text text-anchor="middle" x="385" y="-2494" font-family="Helvetica,sans-Serif" font-size="10.00" fill="grey"> &#45;m_value</text>
</g>
<!-- Node9 -->
<g id="Node000009" class="node">
<title>Node9</title>
<g id="a_Node000009"><a xlink:title=" ">
<polygon fill="white" stroke="transparent" points="446,-2113.5 423,-2113.5 423,-2064.5 446,-2064.5 446,-2113.5"/>
<text text-anchor="start" x="428.5" y="-2101" font-family="Helvetica,sans-Serif" font-size="10.00">int</text>
<text text-anchor="start" x="433" y="-2086" font-family="Helvetica,sans-Serif" font-size="10.00"> </text>
<text text-anchor="start" x="433" y="-2071" font-family="Helvetica,sans-Serif" font-size="10.00"> </text>
<polygon fill="#666666" stroke="#666666" points="423.5,-2096 423.5,-2096 446.5,-2096 446.5,-2096 423.5,-2096"/>
<polygon fill="#666666" stroke="#666666" points="423.5,-2081 423.5,-2081 446.5,-2081 446.5,-2081 423.5,-2081"/>
<polygon fill="none" stroke="#666666" points="423,-2064.5 423,-2113.5 446,-2113.5 446,-2064.5 423,-2064.5"/>
</a>
</g>
</g>
<!-- Node9&#45;&gt;Node4 -->
<g id="edge9_Node000004_Node000009" class="edge">
<title>Node9&#45;&gt;Node4</title>
<g id="a_edge9_Node000004_Node000009"><a xlink:title=" ">
<path fill="none" stroke="#63b8ff" d="M434.5,-2064.36C434.5,-2003.6 434.5,-1834.4 434.5,-1659.22"/>
<polygon fill="none" stroke="#63b8ff" points="434.5,-1659.14 430.5,-1653.14 434.5,-1647.14 438.5,-1653.14 434.5,-1659.14"/>
</a>
</g>
<text text-anchor="start" x="434.5" y="-1679" font-family="Helvetica,sans-Serif" font-size="10.00" fill="grey"> ~OffsetOfInstanceIDInCPlus</text>
<text text-anchor="middle" x="504.5" y="-1668" font-family="Helvetica,sans-Serif" font-size="10.00" fill="grey">PlusObject</text>
</g>
<!-- Node10 -->
<g id="Node000010" class="node">
<title>Node10</title>
<g id="a_Node000010"><a xlink:title=" ">
<polygon fill="white" stroke="transparent" points="616.5,-2113.5 578.5,-2113.5 578.5,-2064.5 616.5,-2064.5 616.5,-2113.5"/>
<text text-anchor="start" x="583.5" y="-2101" font-family="Helvetica,sans-Serif" font-size="10.00">string</text>
<text text-anchor="start" x="595.5" y="-2086" font-family="Helvetica,sans-Serif" font-size="10.00"> </text>
<text text-anchor="start" x="595.5" y="-2071" font-family="Helvetica,sans-Serif" font-size="10.00"> </text>
<polygon fill="#666666" stroke="#666666" points="578.5,-2096 578.5,-2096 616.5,-2096 616.5,-2096 578.5,-2096"/>
<polygon fill="#666666" stroke="#666666" points="578.5,-2081 578.5,-2081 616.5,-2081 616.5,-2081 578.5,-2081"/>
<polygon fill="none" stroke="#666666" points="578.5,-2064.5 578.5,-2113.5 616.5,-2113.5 616.5,-2064.5 578.5,-2064.5"/>
</a>
</g>
</g>
<!-- Node10&#45;&gt;Node4 -->
<g id="edge10_Node000004_Node000010" class="edge">
<title>Node10&#45;&gt;Node4</title>
<g id="a_edge10_Node000004_Node000010"><a xlink:title=" ">
<path fill="none" stroke="#63b8ff" d="M598.12,-2064.41C599.42,-1999.94 600.48,-1815.53 575.5,-1665 567.58,-1617.27 556.72,-1567.59 544.51,-1518.91"/>
<polygon fill="none" stroke="#63b8ff" points="544.5,-1518.85 539.15,-1514.02 541.55,-1507.22 546.9,-1512.06 544.5,-1518.85"/>
</a>
</g>
<text text-anchor="middle" x="641" y="-1679" font-family="Helvetica,sans-Serif" font-size="10.00" fill="grey"> &#45;cloneDestroyedMessage</text>
<text text-anchor="middle" x="641" y="-1668" font-family="Helvetica,sans-Serif" font-size="10.00" fill="grey">&#45;objectIsNullMessage</text>
</g>
<!-- Node11 -->
<g id="Node000011" class="node">
<title>Node11</title>
<g id="a_Node000011"><a xlink:href="../../d7/daa/interfaceUnityEngine_1_1ICanvasRaycastFilter.html" target="_top" xlink:title=" ">
<polygon fill="white" stroke="transparent" points="717,-204 524,-204 524,-144 717,-144 717,-204"/>
<text text-anchor="start" x="569.5" y="-192" font-family="Helvetica,sans-Serif" font-size="10.00">ICanvasRaycastFilter</text>
<text text-anchor="start" x="619" y="-177" font-family="Helvetica,sans-Serif" font-size="10.00"> </text>
<text text-anchor="start" x="528.5" y="-162" font-family="Helvetica,sans-Serif" font-size="10.00">+</text>
<text text-anchor="start" x="541.5" y="-162" font-family="Helvetica,sans-Serif" font-size="10.00">bool IsRaycastLocationValid</text>
<text text-anchor="start" x="541.5" y="-151" font-family="Helvetica,sans-Serif" font-size="10.00">(Vector2 sp, Camera eventCamera)</text>
<polygon fill="#666666" stroke="#666666" points="524.5,-187 524.5,-187 717.5,-187 717.5,-187 524.5,-187"/>
<polygon fill="#666666" stroke="#666666" points="524.5,-172 524.5,-172 717.5,-172 717.5,-172 524.5,-172"/>
<polygon fill="none" stroke="#666666" points="524,-144 524,-204 717,-204 717,-144 524,-144"/>
</a>
</g>
</g>
<!-- Node11&#45;&gt;Node1 -->
<g id="edge11_Node000001_Node000011" class="edge">
<title>Node11&#45;&gt;Node1</title>
<g id="a_edge11_Node000001_Node000011"><a xlink:title=" ">
<path fill="none" stroke="#63b8ff" d="M591.61,-135.87C584.07,-126.19 575.8,-115.57 567.79,-105.27"/>
<polygon fill="none" stroke="#63b8ff" points="588.85,-138.02 597.75,-143.77 594.37,-133.73 588.85,-138.02"/>
</a>
</g>
</g>
</g>
</svg>
