<?xml version="1.0" encoding="UTF-8" standalone="no"?>
<!DOCTYPE svg PUBLIC "-//W3C//DTD SVG 1.1//EN"
 "http://www.w3.org/Graphics/SVG/1.1/DTD/svg11.dtd">
<!-- Generated by graphviz version 2.43.0 (0)
 -->
<!-- Title: System.Net.DownloadProgressChangedEventArgs Pages: 1 -->
<!--zoomable 497 -->

<svg id="main" version="1.1" xmlns="http://www.w3.org/2000/svg" xmlns:xlink="http://www.w3.org/1999/xlink" xml:space="preserve" onload="init(evt)">
<style type="text/css"><![CDATA[
.node, .edge {opacity: 0.7;}
.node.selected, .edge.selected {opacity: 1;}
.edge:hover path { stroke: red; }
.edge:hover polygon { stroke: red; fill: red; }
]]></style>

<defs>
  <circle id="rim" cx="0" cy="0" r="7"/>
  <circle id="rim2" cx="0" cy="0" r="3.5"/>
  <g id="zoomPlus">
    <use xlink:href="#rim" fill="#404040"><set attributeName="fill" to="#808080" begin="zoomplus.mouseover" end="zoomplus.mouseout"/></use>
    <path d="M-4,0h8M0,-4v8" fill="none" stroke="white" stroke-width="1.5" pointer-events="none"/>
  </g>
  <g id="zoomMin">
    <use xlink:href="#rim" fill="#404040"><set attributeName="fill" to="#808080" begin="zoomminus.mouseover" end="zoomminus.mouseout"/></use>
    <path d="M-4,0h8" fill="none" stroke="white" stroke-width="1.5" pointer-events="none"/>
  </g>
  <g id="arrowUp" transform="translate(30 24)">
    <use xlink:href="#rim"/>
    <path pointer-events="none" fill="none" stroke="white" stroke-width="1.5" d="M0,-3.0v7 M-2.5,-0.5L0,-3.0L2.5,-0.5"/>
  </g>
  <g id="arrowRight" transform="rotate(90) translate(36 -43)">
    <use xlink:href="#rim"/>
    <path pointer-events="none" fill="none" stroke="white" stroke-width="1.5" d="M0,-3.0v7 M-2.5,-0.5L0,-3.0L2.5,-0.5"/>
  </g>
  <g id="arrowDown" transform="rotate(180) translate(-30 -48)">
    <use xlink:href="#rim"/>
    <path pointer-events="none" fill="none" stroke="white" stroke-width="1.5" d="M0,-3.0v7 M-2.5,-0.5L0,-3.0L2.5,-0.5"/>
  </g>
  <g id="arrowLeft" transform="rotate(270) translate(-36 17)">
    <use xlink:href="#rim"/>
    <path pointer-events="none" fill="none" stroke="white" stroke-width="1.5" d="M0,-3.0v7 M-2.5,-0.5L0,-3.0L2.5,-0.5"/>
  </g>
  <g id="resetDef">
    <use xlink:href="#rim2" fill="#404040"><set attributeName="fill" to="#808080" begin="reset.mouseover" end="reset.mouseout"/></use>
  </g>
</defs>
<script type="application/ecmascript">
var viewWidth = 583;
var viewHeight = 497;
var sectionId = 'dynsection-1';
</script>
<script type="application/ecmascript" xlink:href="../../svg.min.js"/>
<svg id="graph" class="graph">
<g id="viewport">
<title>System.Net.DownloadProgressChangedEventArgs</title>
<!-- Node1 -->
<g id="Node000001" class="node">
<title>Node1</title>
<g id="a_Node000001"><a xlink:title=" ">
<polygon fill="#999999" stroke="transparent" points="411,-134 200,-134 200,0 411,0 411,-134"/>
<text text-anchor="start" x="230.5" y="-122" font-family="Helvetica,sans-Serif" font-size="10.00">System.Net.DownloadProgress</text>
<text text-anchor="start" x="259.5" y="-111" font-family="Helvetica,sans-Serif" font-size="10.00">ChangedEventArgs</text>
<text text-anchor="start" x="204.5" y="-96" font-family="Helvetica,sans-Serif" font-size="10.00">+</text>
<text text-anchor="start" x="217.5" y="-96" font-family="Helvetica,sans-Serif" font-size="10.00">long BytesReceived</text>
<text text-anchor="start" x="204.5" y="-81" font-family="Helvetica,sans-Serif" font-size="10.00">+</text>
<text text-anchor="start" x="217.5" y="-81" font-family="Helvetica,sans-Serif" font-size="10.00">long TotalBytesToReceive</text>
<text text-anchor="start" x="204.5" y="-66" font-family="Helvetica,sans-Serif" font-size="10.00">~</text>
<text text-anchor="start" x="217.5" y="-66" font-family="Helvetica,sans-Serif" font-size="10.00">DownloadProgressChanged</text>
<text text-anchor="start" x="217.5" y="-55" font-family="Helvetica,sans-Serif" font-size="10.00">EventArgs(int progressPercentage,</text>
<text text-anchor="start" x="217.5" y="-44" font-family="Helvetica,sans-Serif" font-size="10.00"> object userToken, long bytesReceived,</text>
<text text-anchor="start" x="217.5" y="-33" font-family="Helvetica,sans-Serif" font-size="10.00"> long totalBytesToReceive)</text>
<text text-anchor="start" x="204.5" y="-18" font-family="Helvetica,sans-Serif" font-size="10.00">~</text>
<text text-anchor="start" x="217.5" y="-18" font-family="Helvetica,sans-Serif" font-size="10.00">DownloadProgressChanged</text>
<text text-anchor="start" x="217.5" y="-7" font-family="Helvetica,sans-Serif" font-size="10.00">EventArgs()</text>
<polygon fill="#666666" stroke="#666666" points="200.5,-106 200.5,-106 411.5,-106 411.5,-106 200.5,-106"/>
<polygon fill="#666666" stroke="#666666" points="200.5,-76 200.5,-76 215.5,-76 215.5,-76 200.5,-76"/>
<polygon fill="#666666" stroke="#666666" points="215.5,-76 215.5,-76 411.5,-76 411.5,-76 215.5,-76"/>
<polygon fill="none" stroke="#666666" points="200,0 200,-134 411,-134 411,0 200,0"/>
</a>
</g>
</g>
<!-- Node2 -->
<g id="Node000002" class="node">
<title>Node2</title>
<g id="a_Node000002"><a xlink:href="../../d7/dc1/classSystem_1_1ComponentModel_1_1ProgressChangedEventArgs.html" target="_top" xlink:title=" ">
<polygon fill="white" stroke="transparent" points="220.5,-267 64.5,-267 64.5,-181 220.5,-181 220.5,-267"/>
<text text-anchor="start" x="75" y="-255" font-family="Helvetica,sans-Serif" font-size="10.00">ProgressChangedEventArgs</text>
<text text-anchor="start" x="68.5" y="-240" font-family="Helvetica,sans-Serif" font-size="10.00">+</text>
<text text-anchor="start" x="81.5" y="-240" font-family="Helvetica,sans-Serif" font-size="10.00">int ProgressPercentage</text>
<text text-anchor="start" x="68.5" y="-225" font-family="Helvetica,sans-Serif" font-size="10.00">+</text>
<text text-anchor="start" x="81.5" y="-225" font-family="Helvetica,sans-Serif" font-size="10.00">object UserState</text>
<text text-anchor="start" x="68.5" y="-210" font-family="Helvetica,sans-Serif" font-size="10.00">+</text>
<text text-anchor="start" x="81.5" y="-210" font-family="Helvetica,sans-Serif" font-size="10.00">ProgressChangedEventArgs</text>
<text text-anchor="start" x="81.5" y="-199" font-family="Helvetica,sans-Serif" font-size="10.00">(int progressPercentage,</text>
<text text-anchor="start" x="81.5" y="-188" font-family="Helvetica,sans-Serif" font-size="10.00"> object userState)</text>
<polygon fill="#666666" stroke="#666666" points="64.5,-250 64.5,-250 220.5,-250 220.5,-250 64.5,-250"/>
<polygon fill="#666666" stroke="#666666" points="64.5,-220 64.5,-220 79.5,-220 79.5,-220 64.5,-220"/>
<polygon fill="#666666" stroke="#666666" points="79.5,-220 79.5,-220 220.5,-220 220.5,-220 79.5,-220"/>
<polygon fill="none" stroke="#666666" points="64.5,-181 64.5,-267 220.5,-267 220.5,-181 64.5,-181"/>
</a>
</g>
</g>
<!-- Node2&#45;&gt;Node1 -->
<g id="edge1_Node000001_Node000002" class="edge">
<title>Node2&#45;&gt;Node1</title>
<g id="a_edge1_Node000001_Node000002"><a xlink:title=" ">
<path fill="none" stroke="#63b8ff" d="M194.62,-173.43C207.76,-160.95 222.06,-147.34 235.9,-134.18"/>
<polygon fill="none" stroke="#63b8ff" points="191.88,-171.22 187.04,-180.65 196.7,-176.29 191.88,-171.22"/>
</a>
</g>
</g>
<!-- Node3 -->
<g id="Node000003" class="node">
<title>Node3</title>
<g id="a_Node000003"><a xlink:href="../../d2/d76/classSystem_1_1EventArgs.html" target="_top" xlink:title=" ">
<polygon fill="white" stroke="transparent" points="109,-378 0,-378 0,-314 109,-314 109,-378"/>
<text text-anchor="start" x="30" y="-366" font-family="Helvetica,sans-Serif" font-size="10.00">EventArgs</text>
<text text-anchor="start" x="53" y="-351" font-family="Helvetica,sans-Serif" font-size="10.00"> </text>
<text text-anchor="start" x="4.5" y="-336" font-family="Helvetica,sans-Serif" font-size="10.00">+</text>
<text text-anchor="start" x="17.5" y="-336" font-family="Helvetica,sans-Serif" font-size="10.00">EventArgs()</text>
<text text-anchor="start" x="7" y="-321" font-family="Helvetica,sans-Serif" font-size="10.00">&#45;</text>
<text text-anchor="start" x="17.5" y="-321" font-family="Helvetica,sans-Serif" font-size="10.00">static EventArgs()</text>
<polygon fill="#666666" stroke="#666666" points="0.5,-361 0.5,-361 109.5,-361 109.5,-361 0.5,-361"/>
<polygon fill="#666666" stroke="#666666" points="0.5,-346 0.5,-346 109.5,-346 109.5,-346 0.5,-346"/>
<polygon fill="none" stroke="#666666" points="0,-314 0,-378 109,-378 109,-314 0,-314"/>
</a>
</g>
</g>
<!-- Node3&#45;&gt;Node2 -->
<g id="edge2_Node000002_Node000003" class="edge">
<title>Node3&#45;&gt;Node2</title>
<g id="a_edge2_Node000002_Node000003"><a xlink:title=" ">
<path fill="none" stroke="#63b8ff" d="M83.43,-305.55C92.4,-293.31 102.33,-279.78 111.44,-267.35"/>
<polygon fill="none" stroke="#63b8ff" points="80.48,-303.65 77.39,-313.78 86.13,-307.79 80.48,-303.65"/>
</a>
</g>
</g>
<!-- Node4 -->
<g id="Node000004" class="node">
<title>Node4</title>
<g id="a_Node000004"><a xlink:href="../../d2/d76/classSystem_1_1EventArgs.html" target="_top" xlink:title=" ">
<polygon fill="white" stroke="transparent" points="109,-489 0,-489 0,-425 109,-425 109,-489"/>
<text text-anchor="start" x="10" y="-477" font-family="Helvetica,sans-Serif" font-size="10.00">System.EventArgs</text>
<text text-anchor="start" x="53" y="-462" font-family="Helvetica,sans-Serif" font-size="10.00"> </text>
<text text-anchor="start" x="4.5" y="-447" font-family="Helvetica,sans-Serif" font-size="10.00">+</text>
<text text-anchor="start" x="17.5" y="-447" font-family="Helvetica,sans-Serif" font-size="10.00">EventArgs()</text>
<text text-anchor="start" x="7" y="-432" font-family="Helvetica,sans-Serif" font-size="10.00">&#45;</text>
<text text-anchor="start" x="17.5" y="-432" font-family="Helvetica,sans-Serif" font-size="10.00">static EventArgs()</text>
<polygon fill="#666666" stroke="#666666" points="0.5,-472 0.5,-472 109.5,-472 109.5,-472 0.5,-472"/>
<polygon fill="#666666" stroke="#666666" points="0.5,-457 0.5,-457 109.5,-457 109.5,-457 0.5,-457"/>
<polygon fill="none" stroke="#666666" points="0,-425 0,-489 109,-489 109,-425 0,-425"/>
</a>
</g>
</g>
<!-- Node4&#45;&gt;Node3 -->
<g id="edge3_Node000003_Node000004" class="edge">
<title>Node4&#45;&gt;Node3</title>
<g id="a_edge3_Node000003_Node000004"><a xlink:title=" ">
<path fill="none" stroke="#63b8ff" d="M54.5,-424.76C54.5,-414.05 54.5,-401.85 54.5,-390.35"/>
<polygon fill="none" stroke="#63b8ff" points="54.5,-390.24 50.5,-384.24 54.5,-378.24 58.5,-384.24 54.5,-390.24"/>
</a>
</g>
<text text-anchor="middle" x="76" y="-399" font-family="Helvetica,sans-Serif" font-size="10.00" fill="grey"> +Empty</text>
</g>
<!-- Node4&#45;&gt;Node4 -->
<g id="edge4_Node000004_Node000004" class="edge">
<title>Node4&#45;&gt;Node4</title>
<g id="a_edge4_Node000004_Node000004"><a xlink:title=" ">
<path fill="none" stroke="#63b8ff" d="M109.2,-466.64C119.62,-465.49 127,-462.27 127,-457 127,-454.12 124.79,-451.85 121.09,-450.2"/>
<polygon fill="none" stroke="#63b8ff" points="120.87,-450.14 114.1,-452.64 109.2,-447.36 115.96,-444.86 120.87,-450.14"/>
</a>
</g>
<text text-anchor="middle" x="148.5" y="-454.5" font-family="Helvetica,sans-Serif" font-size="10.00" fill="grey"> +Empty</text>
</g>
<!-- Node5 -->
<g id="Node000005" class="node">
<title>Node5</title>
<g id="a_Node000005"><a xlink:title=" ">
<polygon fill="white" stroke="transparent" points="150,-370.5 127,-370.5 127,-321.5 150,-321.5 150,-370.5"/>
<text text-anchor="start" x="132.5" y="-358" font-family="Helvetica,sans-Serif" font-size="10.00">int</text>
<text text-anchor="start" x="137" y="-343" font-family="Helvetica,sans-Serif" font-size="10.00"> </text>
<text text-anchor="start" x="137" y="-328" font-family="Helvetica,sans-Serif" font-size="10.00"> </text>
<polygon fill="#666666" stroke="#666666" points="127.5,-353 127.5,-353 150.5,-353 150.5,-353 127.5,-353"/>
<polygon fill="#666666" stroke="#666666" points="127.5,-338 127.5,-338 150.5,-338 150.5,-338 127.5,-338"/>
<polygon fill="none" stroke="#666666" points="127,-321.5 127,-370.5 150,-370.5 150,-321.5 127,-321.5"/>
</a>
</g>
</g>
<!-- Node5&#45;&gt;Node2 -->
<g id="edge5_Node000002_Node000005" class="edge">
<title>Node5&#45;&gt;Node2</title>
<g id="a_edge5_Node000002_Node000005"><a xlink:title=" ">
<path fill="none" stroke="#63b8ff" d="M138.71,-321.34C138.86,-310.3 139.1,-296.97 139.5,-285 139.56,-283.12 139.63,-281.2 139.71,-279.27"/>
<polygon fill="none" stroke="#63b8ff" points="139.71,-279.27 135.96,-273.11 140.21,-267.28 143.95,-273.44 139.71,-279.27"/>
</a>
</g>
<text text-anchor="middle" x="191.5" y="-288" font-family="Helvetica,sans-Serif" font-size="10.00" fill="grey"> &#45;progressPercentage</text>
</g>
<!-- Node6 -->
<g id="Node000006" class="node">
<title>Node6</title>
<g id="a_Node000006"><a xlink:title=" ">
<polygon fill="white" stroke="transparent" points="286,-370.5 245,-370.5 245,-321.5 286,-321.5 286,-370.5"/>
<text text-anchor="start" x="250.5" y="-358" font-family="Helvetica,sans-Serif" font-size="10.00">object</text>
<text text-anchor="start" x="264" y="-343" font-family="Helvetica,sans-Serif" font-size="10.00"> </text>
<text text-anchor="start" x="264" y="-328" font-family="Helvetica,sans-Serif" font-size="10.00"> </text>
<polygon fill="#666666" stroke="#666666" points="245.5,-353 245.5,-353 286.5,-353 286.5,-353 245.5,-353"/>
<polygon fill="#666666" stroke="#666666" points="245.5,-338 245.5,-338 286.5,-338 286.5,-338 245.5,-338"/>
<polygon fill="none" stroke="#666666" points="245,-321.5 245,-370.5 286,-370.5 286,-321.5 245,-321.5"/>
</a>
</g>
</g>
<!-- Node6&#45;&gt;Node2 -->
<g id="edge6_Node000002_Node000006" class="edge">
<title>Node6&#45;&gt;Node2</title>
<g id="a_edge6_Node000002_Node000006"><a xlink:title=" ">
<path fill="none" stroke="#63b8ff" d="M260.84,-321.45C257.55,-309.53 252.15,-295.41 243.5,-285 239.49,-280.17 234.98,-275.64 230.16,-271.4"/>
<polygon fill="none" stroke="#63b8ff" points="229.86,-271.15 222.68,-270.48 220.54,-263.6 227.72,-264.27 229.86,-271.15"/>
</a>
</g>
<text text-anchor="middle" x="277.5" y="-288" font-family="Helvetica,sans-Serif" font-size="10.00" fill="grey"> &#45;userState</text>
</g>
<!-- Node7 -->
<g id="Node000007" class="node">
<title>Node7</title>
<g id="a_Node000007"><a xlink:title=" ">
<polygon fill="white" stroke="transparent" points="369,-248.5 242,-248.5 242,-199.5 369,-199.5 369,-248.5"/>
<text text-anchor="start" x="247.5" y="-236" font-family="Helvetica,sans-Serif" font-size="10.00">long&lt; BytesReceived &gt;</text>
<text text-anchor="start" x="304" y="-221" font-family="Helvetica,sans-Serif" font-size="10.00"> </text>
<text text-anchor="start" x="304" y="-206" font-family="Helvetica,sans-Serif" font-size="10.00"> </text>
<polygon fill="#666666" stroke="#666666" points="242.5,-231 242.5,-231 369.5,-231 369.5,-231 242.5,-231"/>
<polygon fill="#666666" stroke="#666666" points="242.5,-216 242.5,-216 369.5,-216 369.5,-216 242.5,-216"/>
<polygon fill="none" stroke="#666666" points="242,-199.5 242,-248.5 369,-248.5 369,-199.5 242,-199.5"/>
</a>
</g>
</g>
<!-- Node7&#45;&gt;Node1 -->
<g id="edge7_Node000001_Node000007" class="edge">
<title>Node7&#45;&gt;Node1</title>
<g id="a_edge7_Node000001_Node000007"><a xlink:title=" ">
<path fill="none" stroke="#63b8ff" d="M305.5,-199.46C305.5,-185.01 305.5,-165.6 305.5,-146.13"/>
<polygon fill="none" stroke="#63b8ff" points="305.5,-146.05 301.5,-140.05 305.5,-134.05 309.5,-140.05 305.5,-146.05"/>
</a>
</g>
<text text-anchor="middle" x="348.5" y="-155" font-family="Helvetica,sans-Serif" font-size="10.00" fill="grey"> &#45;k__BackingField</text>
</g>
<!-- Node8 -->
<g id="Node000008" class="node">
<title>Node8</title>
<g id="a_Node000008"><a xlink:title=" ">
<polygon fill="white" stroke="transparent" points="419.5,-370.5 387.5,-370.5 387.5,-321.5 419.5,-321.5 419.5,-370.5"/>
<text text-anchor="start" x="392.5" y="-358" font-family="Helvetica,sans-Serif" font-size="10.00">long</text>
<text text-anchor="start" x="401.5" y="-343" font-family="Helvetica,sans-Serif" font-size="10.00"> </text>
<text text-anchor="start" x="401.5" y="-328" font-family="Helvetica,sans-Serif" font-size="10.00"> </text>
<polygon fill="#666666" stroke="#666666" points="387.5,-353 387.5,-353 419.5,-353 419.5,-353 387.5,-353"/>
<polygon fill="#666666" stroke="#666666" points="387.5,-338 387.5,-338 419.5,-338 419.5,-338 387.5,-338"/>
<polygon fill="none" stroke="#666666" points="387.5,-321.5 387.5,-370.5 419.5,-370.5 419.5,-321.5 387.5,-321.5"/>
</a>
</g>
</g>
<!-- Node8&#45;&gt;Node7 -->
<g id="edge8_Node000007_Node000008" class="edge">
<title>Node8&#45;&gt;Node7</title>
<g id="a_edge8_Node000007_Node000008"><a xlink:title=" ">
<path fill="none" stroke="orange" d="M378.82,-330.16C365.87,-321.45 350.47,-309.5 339.5,-296 328.04,-281.89 319.31,-263.28 313.57,-248.65"/>
<polygon fill="orange" stroke="orange" points="377.01,-333.16 387.31,-335.66 380.82,-327.29 377.01,-333.16"/>
</a>
</g>
<text text-anchor="middle" x="389" y="-288" font-family="Helvetica,sans-Serif" font-size="10.00" fill="grey"> &lt; BytesReceived &gt;</text>
</g>
<!-- Node9 -->
<g id="Node000009" class="node">
<title>Node9</title>
<g id="a_Node000009"><a xlink:title=" ">
<polygon fill="white" stroke="transparent" points="542,-248.5 387,-248.5 387,-199.5 542,-199.5 542,-248.5"/>
<text text-anchor="start" x="392.5" y="-236" font-family="Helvetica,sans-Serif" font-size="10.00">long&lt; TotalBytesToReceive &gt;</text>
<text text-anchor="start" x="463" y="-221" font-family="Helvetica,sans-Serif" font-size="10.00"> </text>
<text text-anchor="start" x="463" y="-206" font-family="Helvetica,sans-Serif" font-size="10.00"> </text>
<polygon fill="#666666" stroke="#666666" points="387.5,-231 387.5,-231 542.5,-231 542.5,-231 387.5,-231"/>
<polygon fill="#666666" stroke="#666666" points="387.5,-216 387.5,-216 542.5,-216 542.5,-216 387.5,-216"/>
<polygon fill="none" stroke="#666666" points="387,-199.5 387,-248.5 542,-248.5 542,-199.5 387,-199.5"/>
</a>
</g>
</g>
<!-- Node8&#45;&gt;Node9 -->
<g id="edge10_Node000009_Node000008" class="edge">
<title>Node8&#45;&gt;Node9</title>
<g id="a_edge10_Node000009_Node000008"><a xlink:title=" ">
<path fill="none" stroke="orange" d="M426.42,-319.87C432.26,-312.56 438.12,-304.29 442.5,-296 450.4,-281.06 455.98,-262.81 459.54,-248.56"/>
<polygon fill="orange" stroke="orange" points="423.38,-318.05 419.66,-327.97 428.76,-322.54 423.38,-318.05"/>
</a>
</g>
<text text-anchor="middle" x="511" y="-288" font-family="Helvetica,sans-Serif" font-size="10.00" fill="grey"> &lt; TotalBytesToReceive &gt;</text>
</g>
<!-- Node9&#45;&gt;Node1 -->
<g id="edge9_Node000001_Node000009" class="edge">
<title>Node9&#45;&gt;Node1</title>
<g id="a_edge9_Node000001_Node000009"><a xlink:title=" ">
<path fill="none" stroke="#63b8ff" d="M442.1,-199.37C428.73,-185.43 411.34,-167.52 395.5,-152 392.34,-148.9 389.1,-145.75 385.81,-142.58"/>
<polygon fill="none" stroke="#63b8ff" points="385.7,-142.47 378.6,-141.21 377.04,-134.17 384.14,-135.43 385.7,-142.47"/>
</a>
</g>
<text text-anchor="middle" x="448.5" y="-155" font-family="Helvetica,sans-Serif" font-size="10.00" fill="grey"> &#45;k__BackingField</text>
</g>
</g>
</svg>

<g id="navigator" transform="translate(0 0)" fill="#404254">
  <rect fill="#f2f5e9" fill-opacity="0.5" stroke="#606060" stroke-width=".5" x="0" y="0" width="60" height="60"/>
  <use id="zoomplus" xlink:href="#zoomPlus" x="17" y="9" onmousedown="handleZoom(evt,'in')"/>
  <use id="zoomminus" xlink:href="#zoomMin" x="42" y="9" onmousedown="handleZoom(evt,'out')"/>
  <use id="reset" xlink:href="#resetDef" x="30" y="36" onmousedown="handleReset()"/>
   <use id="arrowup" xlink:href="#arrowUp" x="0" y="0" onmousedown="handlePan(0,-1)"/>
  <use id="arrowright" xlink:href="#arrowRight" x="0" y="0" onmousedown="handlePan(1,0)"/>
  <use id="arrowdown" xlink:href="#arrowDown" x="0" y="0" onmousedown="handlePan(0,1)"/>
  <use id="arrowleft" xlink:href="#arrowLeft" x="0" y="0" onmousedown="handlePan(-1,0)"/>
</g>
<svg viewBox="0 0 15 15" width="100%" height="30px" preserveAspectRatio="xMaxYMin meet">
 <g id="arrow_out" transform="scale(0.3 0.3)">
  <a xlink:href="classSystem_1_1Net_1_1DownloadProgressChangedEventArgs__coll__graph_org.svg" target="_base">
   <rect id="button" ry="5" rx="5" y="6" x="6" height="38" width="38"
        fill="#f2f5e9" fill-opacity="0.5" stroke="#606060" stroke-width="1.0"/>
   <path id="arrow"
     d="M 11.500037,31.436501 C 11.940474,20.09759 22.043105,11.32322 32.158766,21.979434 L 37.068811,17.246167 C 37.068811,17.246167 37.088388,32 37.088388,32 L 22.160133,31.978069 C 22.160133,31.978069 26.997745,27.140456 26.997745,27.140456 C 18.528582,18.264221 13.291696,25.230495 11.500037,31.436501 z"
     style="fill:#404040;"/>
  </a>
 </g>
</svg>

<style type='text/css'>
<![CDATA[
[data-mouse-over-selected='false'] { opacity: 0.7; }
[data-mouse-over-selected='true']  { opacity: 1.0; }
]]>
</style>
<script type="application/ecmascript"><![CDATA[
document.addEventListener('DOMContentLoaded', (event) => {
  highlightEdges();
  highlightAdjacentNodes();
});
]]></script>
</svg>
