<?xml version="1.0" encoding="UTF-8" standalone="no"?>
<!DOCTYPE svg PUBLIC "-//W3C//DTD SVG 1.1//EN"
 "http://www.w3.org/Graphics/SVG/1.1/DTD/svg11.dtd">
<!-- Generated by graphviz version 2.43.0 (0)
 -->
<!-- Title: GUIControllerReforgePopup Pages: 1 -->
<svg width="171pt" height="291pt"
 viewBox="0.00 0.00 171.00 291.00" xmlns="http://www.w3.org/2000/svg" xmlns:xlink="http://www.w3.org/1999/xlink">
<g id="graph0" class="graph" transform="scale(1 1) rotate(0) translate(4 287)">
<title>GUIControllerReforgePopup</title>
<!-- Node1 -->
<g id="Node000001" class="node">
<title>Node1</title>
<g id="a_Node000001"><a xlink:title=" ">
<polygon fill="#999999" stroke="transparent" points="163,-131 0,-131 0,0 163,0 163,-131"/>
<text text-anchor="start" x="14.5" y="-118.5" font-family="Helvetica,sans-Serif" font-size="10.00">GUIControllerReforgePopup</text>
<text text-anchor="start" x="4.5" y="-103.5" font-family="Helvetica,sans-Serif" font-size="10.00">+</text>
<text text-anchor="start" x="17.5" y="-103.5" font-family="Helvetica,sans-Serif" font-size="10.00">Controls selectedControl</text>
<text text-anchor="start" x="4.5" y="-88.5" font-family="Helvetica,sans-Serif" font-size="10.00">+</text>
<text text-anchor="start" x="17.5" y="-88.5" font-family="Helvetica,sans-Serif" font-size="10.00">int GetNavigationOutDirs()</text>
<text text-anchor="start" x="4.5" y="-73.5" font-family="Helvetica,sans-Serif" font-size="10.00">+</text>
<text text-anchor="start" x="17.5" y="-73.5" font-family="Helvetica,sans-Serif" font-size="10.00">void Activate()</text>
<text text-anchor="start" x="4.5" y="-58.5" font-family="Helvetica,sans-Serif" font-size="10.00">+</text>
<text text-anchor="start" x="17.5" y="-58.5" font-family="Helvetica,sans-Serif" font-size="10.00">GUIControllerItem Navigate</text>
<text text-anchor="start" x="17.5" y="-47.5" font-family="Helvetica,sans-Serif" font-size="10.00">(Vector2 navigationVector)</text>
<text text-anchor="start" x="4.5" y="-32.5" font-family="Helvetica,sans-Serif" font-size="10.00">+</text>
<text text-anchor="start" x="17.5" y="-32.5" font-family="Helvetica,sans-Serif" font-size="10.00">Rectangle GetSelectedItem</text>
<text text-anchor="start" x="17.5" y="-21.5" font-family="Helvetica,sans-Serif" font-size="10.00">Region()</text>
<text text-anchor="start" x="4.5" y="-6.5" font-family="Helvetica,sans-Serif" font-size="10.00">+</text>
<text text-anchor="start" x="17.5" y="-6.5" font-family="Helvetica,sans-Serif" font-size="10.00">GUIControllerReforgePopup()</text>
<polygon fill="#666666" stroke="#666666" points="0.5,-113.5 0.5,-113.5 163.5,-113.5 163.5,-113.5 0.5,-113.5"/>
<polygon fill="#666666" stroke="#666666" points="0.5,-98.5 0.5,-98.5 15.5,-98.5 15.5,-98.5 0.5,-98.5"/>
<polygon fill="#666666" stroke="#666666" points="15.5,-98.5 15.5,-98.5 163.5,-98.5 163.5,-98.5 15.5,-98.5"/>
<polygon fill="none" stroke="#666666" points="0,0 0,-131 163,-131 163,0 0,0"/>
</a>
</g>
</g>
<!-- Node2 -->
<g id="Node000002" class="node">
<title>Node2</title>
<g id="a_Node000002"><a xlink:href="../../d1/d1a/interfaceGUIControllerItem.html" target="_top" xlink:title=" ">
<polygon fill="white" stroke="transparent" points="160,-283 3,-283 3,-167 160,-167 160,-283"/>
<text text-anchor="start" x="37.5" y="-271" font-family="Helvetica,sans-Serif" font-size="10.00">GUIControllerItem</text>
<text text-anchor="start" x="80" y="-256" font-family="Helvetica,sans-Serif" font-size="10.00"> </text>
<text text-anchor="start" x="7.5" y="-241" font-family="Helvetica,sans-Serif" font-size="10.00">+</text>
<text text-anchor="start" x="20.5" y="-241" font-family="Helvetica,sans-Serif" font-size="10.00">void Activate()</text>
<text text-anchor="start" x="7.5" y="-226" font-family="Helvetica,sans-Serif" font-size="10.00">+</text>
<text text-anchor="start" x="20.5" y="-226" font-family="Helvetica,sans-Serif" font-size="10.00">GUIControllerItem Navigate</text>
<text text-anchor="start" x="20.5" y="-215" font-family="Helvetica,sans-Serif" font-size="10.00">(Vector2 navigationVector)</text>
<text text-anchor="start" x="7.5" y="-200" font-family="Helvetica,sans-Serif" font-size="10.00">+</text>
<text text-anchor="start" x="20.5" y="-200" font-family="Helvetica,sans-Serif" font-size="10.00">Rectangle GetSelectedItem</text>
<text text-anchor="start" x="20.5" y="-189" font-family="Helvetica,sans-Serif" font-size="10.00">Region()</text>
<text text-anchor="start" x="7.5" y="-174" font-family="Helvetica,sans-Serif" font-size="10.00">+</text>
<text text-anchor="start" x="20.5" y="-174" font-family="Helvetica,sans-Serif" font-size="10.00">int GetNavigationOutDirs()</text>
<polygon fill="#666666" stroke="#666666" points="3.5,-266 3.5,-266 160.5,-266 160.5,-266 3.5,-266"/>
<polygon fill="#666666" stroke="#666666" points="3.5,-251 3.5,-251 160.5,-251 160.5,-251 3.5,-251"/>
<polygon fill="none" stroke="#666666" points="3,-167 3,-283 160,-283 160,-167 3,-167"/>
</a>
</g>
</g>
<!-- Node2&#45;&gt;Node1 -->
<g id="edge1_Node000001_Node000002" class="edge">
<title>Node2&#45;&gt;Node1</title>
<g id="a_edge1_Node000001_Node000002"><a xlink:title=" ">
<path fill="none" stroke="#63b8ff" d="M81.5,-156.56C81.5,-148.16 81.5,-139.59 81.5,-131.23"/>
<polygon fill="none" stroke="#63b8ff" points="78,-156.69 81.5,-166.69 85,-156.69 78,-156.69"/>
</a>
</g>
</g>
</g>
</svg>
