<?xml version="1.0" encoding="UTF-8" standalone="no"?>
<!DOCTYPE svg PUBLIC "-//W3C//DTD SVG 1.1//EN"
 "http://www.w3.org/Graphics/SVG/1.1/DTD/svg11.dtd">
<!-- Generated by graphviz version 2.43.0 (0)
 -->
<!-- Title: InControl.Native Pages: 1 -->
<svg width="201pt" height="416pt"
 viewBox="0.00 0.00 201.00 416.00" xmlns="http://www.w3.org/2000/svg" xmlns:xlink="http://www.w3.org/1999/xlink">
<g id="graph0" class="graph" transform="scale(1 1) rotate(0) translate(4 412)">
<title>InControl.Native</title>
<!-- Node1 -->
<g id="Node000001" class="node">
<title>Node1</title>
<g id="a_Node000001"><a xlink:title=" ">
<polygon fill="#999999" stroke="transparent" points="193,-312 0,-312 0,0 193,0 193,-312"/>
<text text-anchor="start" x="57" y="-300" font-family="Helvetica,sans-Serif" font-size="10.00">InControl.Native</text>
<text text-anchor="start" x="95" y="-285" font-family="Helvetica,sans-Serif" font-size="10.00"> </text>
<text text-anchor="start" x="4.5" y="-270" font-family="Helvetica,sans-Serif" font-size="10.00">+</text>
<text text-anchor="start" x="17.5" y="-270" font-family="Helvetica,sans-Serif" font-size="10.00">static void Init(NativeInput</text>
<text text-anchor="start" x="17.5" y="-259" font-family="Helvetica,sans-Serif" font-size="10.00">Options options)</text>
<text text-anchor="start" x="4.5" y="-244" font-family="Helvetica,sans-Serif" font-size="10.00">+</text>
<text text-anchor="start" x="17.5" y="-244" font-family="Helvetica,sans-Serif" font-size="10.00">static void Stop()</text>
<text text-anchor="start" x="4.5" y="-229" font-family="Helvetica,sans-Serif" font-size="10.00">+</text>
<text text-anchor="start" x="17.5" y="-229" font-family="Helvetica,sans-Serif" font-size="10.00">static void GetVersionInfo</text>
<text text-anchor="start" x="17.5" y="-218" font-family="Helvetica,sans-Serif" font-size="10.00">(out NativeVersionInfo versionInfo)</text>
<text text-anchor="start" x="4.5" y="-203" font-family="Helvetica,sans-Serif" font-size="10.00">+</text>
<text text-anchor="start" x="17.5" y="-203" font-family="Helvetica,sans-Serif" font-size="10.00">static bool GetDeviceInfo</text>
<text text-anchor="start" x="17.5" y="-192" font-family="Helvetica,sans-Serif" font-size="10.00">(uint handle, out InputDeviceInfo</text>
<text text-anchor="start" x="17.5" y="-181" font-family="Helvetica,sans-Serif" font-size="10.00"> deviceInfo)</text>
<text text-anchor="start" x="4.5" y="-166" font-family="Helvetica,sans-Serif" font-size="10.00">+</text>
<text text-anchor="start" x="17.5" y="-166" font-family="Helvetica,sans-Serif" font-size="10.00">static bool GetDeviceState</text>
<text text-anchor="start" x="17.5" y="-155" font-family="Helvetica,sans-Serif" font-size="10.00">(uint handle, out IntPtr</text>
<text text-anchor="start" x="17.5" y="-144" font-family="Helvetica,sans-Serif" font-size="10.00"> deviceState)</text>
<text text-anchor="start" x="4.5" y="-129" font-family="Helvetica,sans-Serif" font-size="10.00">+</text>
<text text-anchor="start" x="17.5" y="-129" font-family="Helvetica,sans-Serif" font-size="10.00">static int GetDeviceEvents</text>
<text text-anchor="start" x="17.5" y="-118" font-family="Helvetica,sans-Serif" font-size="10.00">(out IntPtr deviceEvents)</text>
<text text-anchor="start" x="4.5" y="-103" font-family="Helvetica,sans-Serif" font-size="10.00">+</text>
<text text-anchor="start" x="17.5" y="-103" font-family="Helvetica,sans-Serif" font-size="10.00">static void SetHapticState</text>
<text text-anchor="start" x="17.5" y="-92" font-family="Helvetica,sans-Serif" font-size="10.00">(uint handle, byte motor0,</text>
<text text-anchor="start" x="17.5" y="-81" font-family="Helvetica,sans-Serif" font-size="10.00"> byte motor1)</text>
<text text-anchor="start" x="4.5" y="-66" font-family="Helvetica,sans-Serif" font-size="10.00">+</text>
<text text-anchor="start" x="17.5" y="-66" font-family="Helvetica,sans-Serif" font-size="10.00">static void SetLightColor</text>
<text text-anchor="start" x="17.5" y="-55" font-family="Helvetica,sans-Serif" font-size="10.00">(uint handle, byte red,</text>
<text text-anchor="start" x="17.5" y="-44" font-family="Helvetica,sans-Serif" font-size="10.00"> byte green, byte blue)</text>
<text text-anchor="start" x="4.5" y="-29" font-family="Helvetica,sans-Serif" font-size="10.00">+</text>
<text text-anchor="start" x="17.5" y="-29" font-family="Helvetica,sans-Serif" font-size="10.00">static void SetLightFlash</text>
<text text-anchor="start" x="17.5" y="-18" font-family="Helvetica,sans-Serif" font-size="10.00">(uint handle, byte flashOnDuration,</text>
<text text-anchor="start" x="17.5" y="-7" font-family="Helvetica,sans-Serif" font-size="10.00"> byte flashOffDuration)</text>
<polygon fill="#666666" stroke="#666666" points="0.5,-295 0.5,-295 193.5,-295 193.5,-295 0.5,-295"/>
<polygon fill="#666666" stroke="#666666" points="0.5,-280 0.5,-280 193.5,-280 193.5,-280 0.5,-280"/>
<polygon fill="none" stroke="#666666" points="0,0 0,-312 193,-312 193,0 0,0"/>
</a>
</g>
</g>
<!-- Node2 -->
<g id="Node000002" class="node">
<title>Node2</title>
<g id="a_Node000002"><a xlink:title=" ">
<polygon fill="white" stroke="transparent" points="115.5,-408 77.5,-408 77.5,-359 115.5,-359 115.5,-408"/>
<text text-anchor="start" x="82.5" y="-395.5" font-family="Helvetica,sans-Serif" font-size="10.00">string</text>
<text text-anchor="start" x="94.5" y="-380.5" font-family="Helvetica,sans-Serif" font-size="10.00"> </text>
<text text-anchor="start" x="94.5" y="-365.5" font-family="Helvetica,sans-Serif" font-size="10.00"> </text>
<polygon fill="#666666" stroke="#666666" points="77.5,-390.5 77.5,-390.5 115.5,-390.5 115.5,-390.5 77.5,-390.5"/>
<polygon fill="#666666" stroke="#666666" points="77.5,-375.5 77.5,-375.5 115.5,-375.5 115.5,-375.5 77.5,-375.5"/>
<polygon fill="none" stroke="#666666" points="77.5,-359 77.5,-408 115.5,-408 115.5,-359 77.5,-359"/>
</a>
</g>
</g>
<!-- Node2&#45;&gt;Node1 -->
<g id="edge1_Node000001_Node000002" class="edge">
<title>Node2&#45;&gt;Node1</title>
<g id="a_edge1_Node000001_Node000002"><a xlink:title=" ">
<path fill="none" stroke="#63b8ff" d="M96.5,-358.79C96.5,-349.36 96.5,-337.64 96.5,-324.62"/>
<polygon fill="none" stroke="#63b8ff" points="96.5,-324.34 92.5,-318.34 96.5,-312.34 100.5,-318.34 96.5,-324.34"/>
</a>
</g>
<text text-anchor="middle" x="130.5" y="-333" font-family="Helvetica,sans-Serif" font-size="10.00" fill="grey"> &#45;libraryName</text>
</g>
</g>
</svg>
