<?xml version="1.0" encoding="UTF-8" standalone="no"?>
<!DOCTYPE svg PUBLIC "-//W3C//DTD SVG 1.1//EN"
 "http://www.w3.org/Graphics/SVG/1.1/DTD/svg11.dtd">
<!-- Generated by graphviz version 2.43.0 (0)
 -->
<!-- Title: System.Buffers.ArrayPoolEventSource Pages: 1 -->
<svg width="244pt" height="386pt"
 viewBox="0.00 0.00 244.00 386.00" xmlns="http://www.w3.org/2000/svg" xmlns:xlink="http://www.w3.org/1999/xlink">
<g id="graph0" class="graph" transform="scale(1 1) rotate(0) translate(4 382)">
<title>System.Buffers.ArrayPoolEventSource</title>
<!-- Node1 -->
<g id="Node000001" class="node">
<title>Node1</title>
<g id="a_Node000001"><a xlink:title=" ">
<polygon fill="#999999" stroke="transparent" points="236,-282 0,-282 0,0 236,0 236,-282"/>
<text text-anchor="start" x="55.5" y="-270" font-family="Helvetica,sans-Serif" font-size="10.00">System.Buffers.ArrayPool</text>
<text text-anchor="start" x="87.5" y="-259" font-family="Helvetica,sans-Serif" font-size="10.00">EventSource</text>
<text text-anchor="start" x="4" y="-244" font-family="Helvetica,sans-Serif" font-size="10.00">~</text>
<text text-anchor="start" x="17" y="-244" font-family="Helvetica,sans-Serif" font-size="10.00">static readonly ArrayPool</text>
<text text-anchor="start" x="17" y="-233" font-family="Helvetica,sans-Serif" font-size="10.00">EventSource Log</text>
<text text-anchor="start" x="4" y="-218" font-family="Helvetica,sans-Serif" font-size="10.00">~</text>
<text text-anchor="start" x="17" y="-218" font-family="Helvetica,sans-Serif" font-size="10.00">unsafe void BufferRented</text>
<text text-anchor="start" x="17" y="-207" font-family="Helvetica,sans-Serif" font-size="10.00">(int bufferId, int bufferSize,</text>
<text text-anchor="start" x="17" y="-196" font-family="Helvetica,sans-Serif" font-size="10.00"> int poolId, int bucketId)</text>
<text text-anchor="start" x="4" y="-181" font-family="Helvetica,sans-Serif" font-size="10.00">~</text>
<text text-anchor="start" x="17" y="-181" font-family="Helvetica,sans-Serif" font-size="10.00">unsafe void BufferAllocated</text>
<text text-anchor="start" x="17" y="-170" font-family="Helvetica,sans-Serif" font-size="10.00">(int bufferId, int bufferSize,</text>
<text text-anchor="start" x="17" y="-159" font-family="Helvetica,sans-Serif" font-size="10.00"> int poolId, int bucketId, ArrayPool</text>
<text text-anchor="start" x="17" y="-148" font-family="Helvetica,sans-Serif" font-size="10.00">EventSource.BufferAllocatedReason reason)</text>
<text text-anchor="start" x="4" y="-133" font-family="Helvetica,sans-Serif" font-size="10.00">~</text>
<text text-anchor="start" x="17" y="-133" font-family="Helvetica,sans-Serif" font-size="10.00">void BufferReturned</text>
<text text-anchor="start" x="17" y="-122" font-family="Helvetica,sans-Serif" font-size="10.00">(int bufferId, int bufferSize,</text>
<text text-anchor="start" x="17" y="-111" font-family="Helvetica,sans-Serif" font-size="10.00"> int poolId)</text>
<text text-anchor="start" x="4" y="-96" font-family="Helvetica,sans-Serif" font-size="10.00">~</text>
<text text-anchor="start" x="17" y="-96" font-family="Helvetica,sans-Serif" font-size="10.00">void BufferTrimmed</text>
<text text-anchor="start" x="17" y="-85" font-family="Helvetica,sans-Serif" font-size="10.00">(int bufferId, int bufferSize,</text>
<text text-anchor="start" x="17" y="-74" font-family="Helvetica,sans-Serif" font-size="10.00"> int poolId)</text>
<text text-anchor="start" x="4" y="-59" font-family="Helvetica,sans-Serif" font-size="10.00">~</text>
<text text-anchor="start" x="17" y="-59" font-family="Helvetica,sans-Serif" font-size="10.00">void BufferTrimPoll</text>
<text text-anchor="start" x="17" y="-48" font-family="Helvetica,sans-Serif" font-size="10.00">(int milliseconds, int</text>
<text text-anchor="start" x="17" y="-37" font-family="Helvetica,sans-Serif" font-size="10.00"> pressure)</text>
<text text-anchor="start" x="6.5" y="-22" font-family="Helvetica,sans-Serif" font-size="10.00">&#45;</text>
<text text-anchor="start" x="17" y="-22" font-family="Helvetica,sans-Serif" font-size="10.00">ArrayPoolEventSource()</text>
<text text-anchor="start" x="6.5" y="-7" font-family="Helvetica,sans-Serif" font-size="10.00">&#45;</text>
<text text-anchor="start" x="17" y="-7" font-family="Helvetica,sans-Serif" font-size="10.00">static ArrayPoolEventSource()</text>
<polygon fill="#666666" stroke="#666666" points="0,-254 0,-254 236,-254 236,-254 0,-254"/>
<polygon fill="#666666" stroke="#666666" points="0,-228 0,-228 15,-228 15,-228 0,-228"/>
<polygon fill="#666666" stroke="#666666" points="15,-228 15,-228 236,-228 236,-228 15,-228"/>
<polygon fill="none" stroke="#666666" points="0,0 0,-282 236,-282 236,0 0,0"/>
</a>
</g>
</g>
<!-- Node2 -->
<g id="Node000002" class="node">
<title>Node2</title>
<g id="a_Node000002"><a xlink:title=" ">
<polygon fill="white" stroke="transparent" points="188,-378 48,-378 48,-318 188,-318 188,-378"/>
<text text-anchor="start" x="53" y="-366" font-family="Helvetica,sans-Serif" font-size="10.00">global::SystemDiagnostics</text>
<text text-anchor="start" x="64" y="-355" font-family="Helvetica,sans-Serif" font-size="10.00">::Tracing::EventSource</text>
<text text-anchor="start" x="116" y="-340" font-family="Helvetica,sans-Serif" font-size="10.00"> </text>
<text text-anchor="start" x="116" y="-325" font-family="Helvetica,sans-Serif" font-size="10.00"> </text>
<polygon fill="#666666" stroke="#666666" points="48,-350 48,-350 188,-350 188,-350 48,-350"/>
<polygon fill="#666666" stroke="#666666" points="48,-335 48,-335 188,-335 188,-335 48,-335"/>
<polygon fill="none" stroke="#666666" points="48,-318 48,-378 188,-378 188,-318 48,-318"/>
</a>
</g>
</g>
<!-- Node2&#45;&gt;Node1 -->
<g id="edge1_Node000001_Node000002" class="edge">
<title>Node2&#45;&gt;Node1</title>
<g id="a_edge1_Node000001_Node000002"><a xlink:title=" ">
<path fill="none" stroke="#63b8ff" d="M118,-307.52C118,-299.73 118,-291.14 118,-282.09"/>
<polygon fill="none" stroke="#63b8ff" points="114.5,-307.63 118,-317.63 121.5,-307.63 114.5,-307.63"/>
</a>
</g>
</g>
</g>
</svg>
