<?xml version="1.0" encoding="UTF-8" standalone="no"?>
<!DOCTYPE svg PUBLIC "-//W3C//DTD SVG 1.1//EN"
 "http://www.w3.org/Graphics/SVG/1.1/DTD/svg11.dtd">
<!-- Generated by graphviz version 2.43.0 (0)
 -->
<!-- Title: System.Security.Cryptography.RSAPKCS1SHA256SignatureDescription Pages: 1 -->
<svg width="210pt" height="576pt"
 viewBox="0.00 0.00 210.00 576.00" xmlns="http://www.w3.org/2000/svg" xmlns:xlink="http://www.w3.org/1999/xlink">
<g id="graph0" class="graph" transform="scale(1 1) rotate(0) translate(4 572)">
<title>System.Security.Cryptography.RSAPKCS1SHA256SignatureDescription</title>
<!-- Node1 -->
<g id="Node000001" class="node">
<title>Node1</title>
<g id="a_Node000001"><a xlink:title=" ">
<polygon fill="#999999" stroke="transparent" points="202,-71 0,-71 0,0 202,0 202,-71"/>
<text text-anchor="start" x="5" y="-58.5" font-family="Helvetica,sans-Serif" font-size="10.00">System.Security.Cryptography.</text>
<text text-anchor="start" x="5" y="-47.5" font-family="Helvetica,sans-Serif" font-size="10.00">RSAPKCS1SHA256SignatureDescription</text>
<text text-anchor="start" x="99" y="-32.5" font-family="Helvetica,sans-Serif" font-size="10.00"> </text>
<text text-anchor="start" x="15" y="-17.5" font-family="Helvetica,sans-Serif" font-size="10.00">+</text>
<text text-anchor="start" x="39" y="-17.5" font-family="Helvetica,sans-Serif" font-size="10.00">RSAPKCS1SHA256Signature</text>
<text text-anchor="start" x="39" y="-6.5" font-family="Helvetica,sans-Serif" font-size="10.00">Description()</text>
<polygon fill="#666666" stroke="#666666" points="0,-42.5 0,-42.5 202,-42.5 202,-42.5 0,-42.5"/>
<polygon fill="#666666" stroke="#666666" points="0,-27.5 0,-27.5 202,-27.5 202,-27.5 0,-27.5"/>
<polygon fill="none" stroke="#666666" points="0,0 0,-71 202,-71 202,0 0,0"/>
</a>
</g>
</g>
<!-- Node2 -->
<g id="Node000002" class="node">
<title>Node2</title>
<g id="a_Node000002"><a xlink:href="../../d1/d96/classSystem_1_1Security_1_1Cryptography_1_1RSAPKCS1SignatureDescription.html" target="_top" xlink:title=" ">
<polygon fill="white" stroke="transparent" points="189.5,-252 12.5,-252 12.5,-107 189.5,-107 189.5,-252"/>
<text text-anchor="start" x="24.5" y="-239.5" font-family="Helvetica,sans-Serif" font-size="10.00">RSAPKCS1SignatureDescription</text>
<text text-anchor="start" x="19.5" y="-224.5" font-family="Helvetica,sans-Serif" font-size="10.00">&#45;</text>
<text text-anchor="start" x="30" y="-224.5" font-family="Helvetica,sans-Serif" font-size="10.00">string _hashAlgorithm</text>
<text text-anchor="start" x="17" y="-209.5" font-family="Helvetica,sans-Serif" font-size="10.00">+</text>
<text text-anchor="start" x="30" y="-209.5" font-family="Helvetica,sans-Serif" font-size="10.00">override AsymmetricSignature</text>
<text text-anchor="start" x="30" y="-198.5" font-family="Helvetica,sans-Serif" font-size="10.00">Deformatter CreateDeformatter</text>
<text text-anchor="start" x="30" y="-187.5" font-family="Helvetica,sans-Serif" font-size="10.00">(AsymmetricAlgorithm key)</text>
<text text-anchor="start" x="17" y="-172.5" font-family="Helvetica,sans-Serif" font-size="10.00">+</text>
<text text-anchor="start" x="30" y="-172.5" font-family="Helvetica,sans-Serif" font-size="10.00">override AsymmetricSignature</text>
<text text-anchor="start" x="30" y="-161.5" font-family="Helvetica,sans-Serif" font-size="10.00">Formatter CreateFormatter</text>
<text text-anchor="start" x="30" y="-150.5" font-family="Helvetica,sans-Serif" font-size="10.00">(AsymmetricAlgorithm key)</text>
<text text-anchor="start" x="17" y="-135.5" font-family="Helvetica,sans-Serif" font-size="10.00">#</text>
<text text-anchor="start" x="30" y="-135.5" font-family="Helvetica,sans-Serif" font-size="10.00">RSAPKCS1SignatureDescription</text>
<text text-anchor="start" x="30" y="-124.5" font-family="Helvetica,sans-Serif" font-size="10.00">(string hashAlgorithm, string</text>
<text text-anchor="start" x="30" y="-113.5" font-family="Helvetica,sans-Serif" font-size="10.00"> digestAlgorithm)</text>
<polygon fill="#666666" stroke="#666666" points="13,-234.5 13,-234.5 190,-234.5 190,-234.5 13,-234.5"/>
<polygon fill="#666666" stroke="#666666" points="13,-219.5 13,-219.5 28,-219.5 28,-219.5 13,-219.5"/>
<polygon fill="#666666" stroke="#666666" points="28,-219.5 28,-219.5 190,-219.5 190,-219.5 28,-219.5"/>
<polygon fill="none" stroke="#666666" points="12.5,-107 12.5,-252 189.5,-252 189.5,-107 12.5,-107"/>
</a>
</g>
</g>
<!-- Node2&#45;&gt;Node1 -->
<g id="edge1_Node000001_Node000002" class="edge">
<title>Node2&#45;&gt;Node1</title>
<g id="a_edge1_Node000001_Node000002"><a xlink:title=" ">
<path fill="none" stroke="#63b8ff" d="M101,-96.55C101,-87.65 101,-78.98 101,-71.13"/>
<polygon fill="none" stroke="#63b8ff" points="97.5,-96.67 101,-106.67 104.5,-96.67 97.5,-96.67"/>
</a>
</g>
</g>
<!-- Node3 -->
<g id="Node000003" class="node">
<title>Node3</title>
<g id="a_Node000003"><a xlink:href="../../dc/d8e/classSystem_1_1Security_1_1Cryptography_1_1SignatureDescription.html" target="_top" xlink:title=" ">
<polygon fill="white" stroke="transparent" points="189.5,-568 12.5,-568 12.5,-288 189.5,-288 189.5,-568"/>
<text text-anchor="start" x="50" y="-556" font-family="Helvetica,sans-Serif" font-size="10.00">SignatureDescription</text>
<text text-anchor="start" x="17" y="-541" font-family="Helvetica,sans-Serif" font-size="10.00">+</text>
<text text-anchor="start" x="30" y="-541" font-family="Helvetica,sans-Serif" font-size="10.00">string KeyAlgorithm</text>
<text text-anchor="start" x="17" y="-526" font-family="Helvetica,sans-Serif" font-size="10.00">+</text>
<text text-anchor="start" x="30" y="-526" font-family="Helvetica,sans-Serif" font-size="10.00">string DigestAlgorithm</text>
<text text-anchor="start" x="17" y="-511" font-family="Helvetica,sans-Serif" font-size="10.00">+</text>
<text text-anchor="start" x="30" y="-511" font-family="Helvetica,sans-Serif" font-size="10.00">string FormatterAlgorithm</text>
<text text-anchor="start" x="17" y="-496" font-family="Helvetica,sans-Serif" font-size="10.00">+</text>
<text text-anchor="start" x="30" y="-496" font-family="Helvetica,sans-Serif" font-size="10.00">string DeformatterAlgorithm</text>
<text text-anchor="start" x="19.5" y="-481" font-family="Helvetica,sans-Serif" font-size="10.00">&#45;</text>
<text text-anchor="start" x="30" y="-481" font-family="Helvetica,sans-Serif" font-size="10.00">string _strKey</text>
<text text-anchor="start" x="19.5" y="-466" font-family="Helvetica,sans-Serif" font-size="10.00">&#45;</text>
<text text-anchor="start" x="30" y="-466" font-family="Helvetica,sans-Serif" font-size="10.00">string _strDigest</text>
<text text-anchor="start" x="19.5" y="-451" font-family="Helvetica,sans-Serif" font-size="10.00">&#45;</text>
<text text-anchor="start" x="30" y="-451" font-family="Helvetica,sans-Serif" font-size="10.00">string _strFormatter</text>
<text text-anchor="start" x="19.5" y="-436" font-family="Helvetica,sans-Serif" font-size="10.00">&#45;</text>
<text text-anchor="start" x="30" y="-436" font-family="Helvetica,sans-Serif" font-size="10.00">string _strDeformatter</text>
<text text-anchor="start" x="17" y="-421" font-family="Helvetica,sans-Serif" font-size="10.00">+</text>
<text text-anchor="start" x="30" y="-421" font-family="Helvetica,sans-Serif" font-size="10.00">SignatureDescription()</text>
<text text-anchor="start" x="17" y="-406" font-family="Helvetica,sans-Serif" font-size="10.00">+</text>
<text text-anchor="start" x="30" y="-406" font-family="Helvetica,sans-Serif" font-size="10.00">SignatureDescription</text>
<text text-anchor="start" x="30" y="-395" font-family="Helvetica,sans-Serif" font-size="10.00">(SecurityElement el)</text>
<text text-anchor="start" x="17" y="-380" font-family="Helvetica,sans-Serif" font-size="10.00">+</text>
<text text-anchor="start" x="30" y="-380" font-family="Helvetica,sans-Serif" font-size="10.00">virtual AsymmetricSignature</text>
<text text-anchor="start" x="30" y="-369" font-family="Helvetica,sans-Serif" font-size="10.00">Deformatter CreateDeformatter</text>
<text text-anchor="start" x="30" y="-358" font-family="Helvetica,sans-Serif" font-size="10.00">(AsymmetricAlgorithm key)</text>
<text text-anchor="start" x="17" y="-343" font-family="Helvetica,sans-Serif" font-size="10.00">+</text>
<text text-anchor="start" x="30" y="-343" font-family="Helvetica,sans-Serif" font-size="10.00">virtual AsymmetricSignature</text>
<text text-anchor="start" x="30" y="-332" font-family="Helvetica,sans-Serif" font-size="10.00">Formatter CreateFormatter</text>
<text text-anchor="start" x="30" y="-321" font-family="Helvetica,sans-Serif" font-size="10.00">(AsymmetricAlgorithm key)</text>
<text text-anchor="start" x="17" y="-306" font-family="Helvetica,sans-Serif" font-size="10.00">+</text>
<text text-anchor="start" x="30" y="-306" font-family="Helvetica,sans-Serif" font-size="10.00">virtual HashAlgorithm</text>
<text text-anchor="start" x="30" y="-295" font-family="Helvetica,sans-Serif" font-size="10.00"> CreateDigest()</text>
<polygon fill="#666666" stroke="#666666" points="13,-551 13,-551 190,-551 190,-551 13,-551"/>
<polygon fill="#666666" stroke="#666666" points="13,-431 13,-431 28,-431 28,-431 13,-431"/>
<polygon fill="#666666" stroke="#666666" points="28,-431 28,-431 190,-431 190,-431 28,-431"/>
<polygon fill="none" stroke="#666666" points="12.5,-288 12.5,-568 189.5,-568 189.5,-288 12.5,-288"/>
</a>
</g>
</g>
<!-- Node3&#45;&gt;Node2 -->
<g id="edge2_Node000002_Node000003" class="edge">
<title>Node3&#45;&gt;Node2</title>
<g id="a_edge2_Node000002_Node000003"><a xlink:title=" ">
<path fill="none" stroke="#63b8ff" d="M101,-277.84C101,-268.98 101,-260.32 101,-252.03"/>
<polygon fill="none" stroke="#63b8ff" points="97.5,-277.9 101,-287.9 104.5,-277.9 97.5,-277.9"/>
</a>
</g>
</g>
</g>
</svg>
