<?xml version="1.0" encoding="UTF-8" standalone="no"?>
<!DOCTYPE svg PUBLIC "-//W3C//DTD SVG 1.1//EN"
 "http://www.w3.org/Graphics/SVG/1.1/DTD/svg11.dtd">
<!-- Generated by graphviz version 2.43.0 (0)
 -->
<!-- Title: TutorialStep_08_KillZombies Pages: 1 -->
<svg width="183pt" height="567pt"
 viewBox="0.00 0.00 183.00 567.00" xmlns="http://www.w3.org/2000/svg" xmlns:xlink="http://www.w3.org/1999/xlink">
<g id="graph0" class="graph" transform="scale(1 1) rotate(0) translate(4 563)">
<title>TutorialStep_08_KillZombies</title>
<!-- Node1 -->
<g id="Node000001" class="node">
<title>Node1</title>
<g id="a_Node000001"><a xlink:title=" ">
<polygon fill="#999999" stroke="transparent" points="175,-258 0,-258 0,0 175,0 175,-258"/>
<text text-anchor="start" x="18.5" y="-246" font-family="Helvetica,sans-Serif" font-size="10.00">TutorialStep_08_KillZombies</text>
<text text-anchor="start" x="7" y="-231" font-family="Helvetica,sans-Serif" font-size="10.00">&#45;</text>
<text text-anchor="start" x="17.5" y="-231" font-family="Helvetica,sans-Serif" font-size="10.00">bool armourHead</text>
<text text-anchor="start" x="7" y="-216" font-family="Helvetica,sans-Serif" font-size="10.00">&#45;</text>
<text text-anchor="start" x="17.5" y="-216" font-family="Helvetica,sans-Serif" font-size="10.00">bool armourBody</text>
<text text-anchor="start" x="7" y="-201" font-family="Helvetica,sans-Serif" font-size="10.00">&#45;</text>
<text text-anchor="start" x="17.5" y="-201" font-family="Helvetica,sans-Serif" font-size="10.00">bool armourLegs</text>
<text text-anchor="start" x="7" y="-186" font-family="Helvetica,sans-Serif" font-size="10.00">&#45;</text>
<text text-anchor="start" x="17.5" y="-186" font-family="Helvetica,sans-Serif" font-size="10.00">bool complete</text>
<text text-anchor="start" x="7" y="-171" font-family="Helvetica,sans-Serif" font-size="10.00">&#45;</text>
<text text-anchor="start" x="17.5" y="-171" font-family="Helvetica,sans-Serif" font-size="10.00">bool killing</text>
<text text-anchor="start" x="7" y="-156" font-family="Helvetica,sans-Serif" font-size="10.00">&#45;</text>
<text text-anchor="start" x="17.5" y="-156" font-family="Helvetica,sans-Serif" font-size="10.00">DateTime killStart</text>
<text text-anchor="start" x="4.5" y="-141" font-family="Helvetica,sans-Serif" font-size="10.00">+</text>
<text text-anchor="start" x="17.5" y="-141" font-family="Helvetica,sans-Serif" font-size="10.00">override GuideOverLoadState</text>
<text text-anchor="start" x="17.5" y="-130" font-family="Helvetica,sans-Serif" font-size="10.00"> GetGuideState()</text>
<text text-anchor="start" x="4.5" y="-115" font-family="Helvetica,sans-Serif" font-size="10.00">+</text>
<text text-anchor="start" x="17.5" y="-115" font-family="Helvetica,sans-Serif" font-size="10.00">override string GetGuide</text>
<text text-anchor="start" x="17.5" y="-104" font-family="Helvetica,sans-Serif" font-size="10.00">String()</text>
<text text-anchor="start" x="4.5" y="-89" font-family="Helvetica,sans-Serif" font-size="10.00">+</text>
<text text-anchor="start" x="17.5" y="-89" font-family="Helvetica,sans-Serif" font-size="10.00">override void Reset()</text>
<text text-anchor="start" x="4.5" y="-74" font-family="Helvetica,sans-Serif" font-size="10.00">+</text>
<text text-anchor="start" x="17.5" y="-74" font-family="Helvetica,sans-Serif" font-size="10.00">override void OnItemPlaced</text>
<text text-anchor="start" x="17.5" y="-63" font-family="Helvetica,sans-Serif" font-size="10.00">(int itemId, int tileId)</text>
<text text-anchor="start" x="4.5" y="-48" font-family="Helvetica,sans-Serif" font-size="10.00">+</text>
<text text-anchor="start" x="17.5" y="-48" font-family="Helvetica,sans-Serif" font-size="10.00">override void OnGuideDialogue</text>
<text text-anchor="start" x="17.5" y="-37" font-family="Helvetica,sans-Serif" font-size="10.00">Open()</text>
<text text-anchor="start" x="4.5" y="-22" font-family="Helvetica,sans-Serif" font-size="10.00">+</text>
<text text-anchor="start" x="17.5" y="-22" font-family="Helvetica,sans-Serif" font-size="10.00">override bool Update()</text>
<text text-anchor="start" x="4.5" y="-7" font-family="Helvetica,sans-Serif" font-size="10.00">+</text>
<text text-anchor="start" x="17.5" y="-7" font-family="Helvetica,sans-Serif" font-size="10.00">TutorialStep_08_KillZombies()</text>
<polygon fill="#666666" stroke="#666666" points="0.5,-241 0.5,-241 175.5,-241 175.5,-241 0.5,-241"/>
<polygon fill="#666666" stroke="#666666" points="0.5,-151 0.5,-151 15.5,-151 15.5,-151 0.5,-151"/>
<polygon fill="#666666" stroke="#666666" points="15.5,-151 15.5,-151 175.5,-151 175.5,-151 15.5,-151"/>
<polygon fill="none" stroke="#666666" points="0,0 0,-258 175,-258 175,0 0,0"/>
</a>
</g>
</g>
<!-- Node2 -->
<g id="Node000002" class="node">
<title>Node2</title>
<g id="a_Node000002"><a xlink:href="../../d9/d7b/classTutorialStep.html" target="_top" xlink:title=" ">
<polygon fill="white" stroke="transparent" points="172,-559 3,-559 3,-294 172,-294 172,-559"/>
<text text-anchor="start" x="59" y="-546.5" font-family="Helvetica,sans-Serif" font-size="10.00">TutorialStep</text>
<text text-anchor="start" x="86" y="-531.5" font-family="Helvetica,sans-Serif" font-size="10.00"> </text>
<text text-anchor="start" x="7.5" y="-516.5" font-family="Helvetica,sans-Serif" font-size="10.00">+</text>
<text text-anchor="start" x="20.5" y="-516.5" font-family="Helvetica,sans-Serif" font-size="10.00">virtual void Reset()</text>
<text text-anchor="start" x="7.5" y="-501.5" font-family="Helvetica,sans-Serif" font-size="10.00">+</text>
<text text-anchor="start" x="20.5" y="-501.5" font-family="Helvetica,sans-Serif" font-size="10.00">virtual void Begin()</text>
<text text-anchor="start" x="7.5" y="-486.5" font-family="Helvetica,sans-Serif" font-size="10.00">+</text>
<text text-anchor="start" x="20.5" y="-486.5" font-family="Helvetica,sans-Serif" font-size="10.00">virtual bool Update()</text>
<text text-anchor="start" x="7.5" y="-471.5" font-family="Helvetica,sans-Serif" font-size="10.00">+</text>
<text text-anchor="start" x="20.5" y="-471.5" font-family="Helvetica,sans-Serif" font-size="10.00">virtual GuideOverLoadState</text>
<text text-anchor="start" x="20.5" y="-460.5" font-family="Helvetica,sans-Serif" font-size="10.00"> GetGuideState()</text>
<text text-anchor="start" x="7.5" y="-445.5" font-family="Helvetica,sans-Serif" font-size="10.00">+</text>
<text text-anchor="start" x="20.5" y="-445.5" font-family="Helvetica,sans-Serif" font-size="10.00">virtual string GetGuideString()</text>
<text text-anchor="start" x="7.5" y="-430.5" font-family="Helvetica,sans-Serif" font-size="10.00">+</text>
<text text-anchor="start" x="20.5" y="-430.5" font-family="Helvetica,sans-Serif" font-size="10.00">virtual void OnGuideDialogue</text>
<text text-anchor="start" x="20.5" y="-419.5" font-family="Helvetica,sans-Serif" font-size="10.00">Open()</text>
<text text-anchor="start" x="7.5" y="-404.5" font-family="Helvetica,sans-Serif" font-size="10.00">+</text>
<text text-anchor="start" x="20.5" y="-404.5" font-family="Helvetica,sans-Serif" font-size="10.00">virtual void OnItemPlaced</text>
<text text-anchor="start" x="20.5" y="-393.5" font-family="Helvetica,sans-Serif" font-size="10.00">(int itemId, int tileType)</text>
<text text-anchor="start" x="7.5" y="-378.5" font-family="Helvetica,sans-Serif" font-size="10.00">+</text>
<text text-anchor="start" x="20.5" y="-378.5" font-family="Helvetica,sans-Serif" font-size="10.00">TutorialStep()</text>
<text text-anchor="start" x="7.5" y="-363.5" font-family="Helvetica,sans-Serif" font-size="10.00">#</text>
<text text-anchor="start" x="20.5" y="-363.5" font-family="Helvetica,sans-Serif" font-size="10.00">void SetTime(int hour,</text>
<text text-anchor="start" x="20.5" y="-352.5" font-family="Helvetica,sans-Serif" font-size="10.00"> int min, bool freeze)</text>
<text text-anchor="start" x="7.5" y="-337.5" font-family="Helvetica,sans-Serif" font-size="10.00">#</text>
<text text-anchor="start" x="20.5" y="-337.5" font-family="Helvetica,sans-Serif" font-size="10.00">void SetSpawnRate(float</text>
<text text-anchor="start" x="20.5" y="-326.5" font-family="Helvetica,sans-Serif" font-size="10.00"> spawnRate)</text>
<text text-anchor="start" x="7.5" y="-311.5" font-family="Helvetica,sans-Serif" font-size="10.00">#</text>
<text text-anchor="start" x="20.5" y="-311.5" font-family="Helvetica,sans-Serif" font-size="10.00">void GiveItem(short</text>
<text text-anchor="start" x="20.5" y="-300.5" font-family="Helvetica,sans-Serif" font-size="10.00"> item, int stackCount)</text>
<polygon fill="#666666" stroke="#666666" points="3.5,-541.5 3.5,-541.5 172.5,-541.5 172.5,-541.5 3.5,-541.5"/>
<polygon fill="#666666" stroke="#666666" points="3.5,-526.5 3.5,-526.5 172.5,-526.5 172.5,-526.5 3.5,-526.5"/>
<polygon fill="none" stroke="#666666" points="3,-294 3,-559 172,-559 172,-294 3,-294"/>
</a>
</g>
</g>
<!-- Node2&#45;&gt;Node1 -->
<g id="edge1_Node000001_Node000002" class="edge">
<title>Node2&#45;&gt;Node1</title>
<g id="a_edge1_Node000001_Node000002"><a xlink:title=" ">
<path fill="none" stroke="#63b8ff" d="M87.5,-283.71C87.5,-275.16 87.5,-266.57 87.5,-258.08"/>
<polygon fill="none" stroke="#63b8ff" points="84,-283.74 87.5,-293.74 91,-283.74 84,-283.74"/>
</a>
</g>
</g>
</g>
</svg>
