<?xml version="1.0" encoding="UTF-8" standalone="no"?>
<!DOCTYPE svg PUBLIC "-//W3C//DTD SVG 1.1//EN"
 "http://www.w3.org/Graphics/SVG/1.1/DTD/svg11.dtd">
<!-- Generated by graphviz version 2.43.0 (0)
 -->
<!-- Title: MainThreadExecution Pages: 1 -->
<svg width="577pt" height="357pt"
 viewBox="0.00 0.00 576.50 357.00" xmlns="http://www.w3.org/2000/svg" xmlns:xlink="http://www.w3.org/1999/xlink">
<g id="graph0" class="graph" transform="scale(1 1) rotate(0) translate(4 353)">
<title>MainThreadExecution</title>
<!-- Node1 -->
<g id="Node000001" class="node">
<title>Node1</title>
<g id="a_Node000001"><a xlink:title=" ">
<polygon fill="#999999" stroke="transparent" points="463,-231 270,-231 270,0 463,0 463,-231"/>
<text text-anchor="start" x="314" y="-218.5" font-family="Helvetica,sans-Serif" font-size="10.00">MainThreadExecution</text>
<text text-anchor="start" x="365" y="-203.5" font-family="Helvetica,sans-Serif" font-size="10.00"> </text>
<text text-anchor="start" x="274.5" y="-188.5" font-family="Helvetica,sans-Serif" font-size="10.00">+</text>
<text text-anchor="start" x="287.5" y="-188.5" font-family="Helvetica,sans-Serif" font-size="10.00">delegate void ExecutionSnippet</text>
<text text-anchor="start" x="287.5" y="-177.5" font-family="Helvetica,sans-Serif" font-size="10.00">(object data)</text>
<text text-anchor="start" x="274.5" y="-162.5" font-family="Helvetica,sans-Serif" font-size="10.00">+</text>
<text text-anchor="start" x="287.5" y="-162.5" font-family="Helvetica,sans-Serif" font-size="10.00">MainThreadExecution</text>
<text text-anchor="start" x="287.5" y="-151.5" font-family="Helvetica,sans-Serif" font-size="10.00">(ExecutionSnippet snippet,</text>
<text text-anchor="start" x="287.5" y="-140.5" font-family="Helvetica,sans-Serif" font-size="10.00"> object data)</text>
<text text-anchor="start" x="274.5" y="-125.5" font-family="Helvetica,sans-Serif" font-size="10.00">+</text>
<text text-anchor="start" x="287.5" y="-125.5" font-family="Helvetica,sans-Serif" font-size="10.00">void Execute()</text>
<text text-anchor="start" x="274.5" y="-110.5" font-family="Helvetica,sans-Serif" font-size="10.00">+</text>
<text text-anchor="start" x="287.5" y="-110.5" font-family="Helvetica,sans-Serif" font-size="10.00">void WaitOnMainThreadComplete()</text>
<text text-anchor="start" x="274.5" y="-95.5" font-family="Helvetica,sans-Serif" font-size="10.00">+</text>
<text text-anchor="start" x="287.5" y="-95.5" font-family="Helvetica,sans-Serif" font-size="10.00">static void ExcludeThread</text>
<text text-anchor="start" x="287.5" y="-84.5" font-family="Helvetica,sans-Serif" font-size="10.00">(ManagedThread thread)</text>
<text text-anchor="start" x="274.5" y="-69.5" font-family="Helvetica,sans-Serif" font-size="10.00">+</text>
<text text-anchor="start" x="287.5" y="-69.5" font-family="Helvetica,sans-Serif" font-size="10.00">static void ExecuteOnMain</text>
<text text-anchor="start" x="287.5" y="-58.5" font-family="Helvetica,sans-Serif" font-size="10.00">Thread(ExecutionSnippet</text>
<text text-anchor="start" x="287.5" y="-47.5" font-family="Helvetica,sans-Serif" font-size="10.00"> snippet, object data)</text>
<text text-anchor="start" x="274.5" y="-32.5" font-family="Helvetica,sans-Serif" font-size="10.00">+</text>
<text text-anchor="start" x="287.5" y="-32.5" font-family="Helvetica,sans-Serif" font-size="10.00">static void ExecuteSnippets</text>
<text text-anchor="start" x="287.5" y="-21.5" font-family="Helvetica,sans-Serif" font-size="10.00">Only()</text>
<text text-anchor="start" x="274.5" y="-6.5" font-family="Helvetica,sans-Serif" font-size="10.00">+</text>
<text text-anchor="start" x="287.5" y="-6.5" font-family="Helvetica,sans-Serif" font-size="10.00">static void ExecuteSnippets()</text>
<polygon fill="#666666" stroke="#666666" points="270.5,-213.5 270.5,-213.5 463.5,-213.5 463.5,-213.5 270.5,-213.5"/>
<polygon fill="#666666" stroke="#666666" points="270.5,-198.5 270.5,-198.5 463.5,-198.5 463.5,-198.5 270.5,-198.5"/>
<polygon fill="none" stroke="#666666" points="270,0 270,-231 463,-231 463,0 270,0"/>
</a>
</g>
</g>
<!-- Node2 -->
<g id="Node000002" class="node">
<title>Node2</title>
<g id="a_Node000002"><a xlink:title=" ">
<polygon fill="white" stroke="transparent" points="159,-343.5 0,-343.5 0,-294.5 159,-294.5 159,-343.5"/>
<text text-anchor="start" x="5.5" y="-331" font-family="Helvetica,sans-Serif" font-size="10.00">static List&lt; ManagedThread &gt;</text>
<text text-anchor="start" x="78" y="-316" font-family="Helvetica,sans-Serif" font-size="10.00"> </text>
<text text-anchor="start" x="78" y="-301" font-family="Helvetica,sans-Serif" font-size="10.00"> </text>
<polygon fill="#666666" stroke="#666666" points="0.5,-326 0.5,-326 159.5,-326 159.5,-326 0.5,-326"/>
<polygon fill="#666666" stroke="#666666" points="0.5,-311 0.5,-311 159.5,-311 159.5,-311 0.5,-311"/>
<polygon fill="none" stroke="#666666" points="0,-294.5 0,-343.5 159,-343.5 159,-294.5 0,-294.5"/>
</a>
</g>
</g>
<!-- Node2&#45;&gt;Node1 -->
<g id="edge1_Node000001_Node000002" class="edge">
<title>Node2&#45;&gt;Node1</title>
<g id="a_edge1_Node000001_Node000002"><a xlink:title=" ">
<path fill="none" stroke="#63b8ff" d="M105.4,-294.39C120.95,-280.61 141.37,-263.2 160.5,-249 191.77,-225.79 227.03,-202.22 259.43,-181.53"/>
<polygon fill="none" stroke="#63b8ff" points="259.71,-181.35 262.63,-174.76 269.84,-174.92 266.92,-181.51 259.71,-181.35"/>
</a>
</g>
<text text-anchor="middle" x="206" y="-257.5" font-family="Helvetica,sans-Serif" font-size="10.00" fill="grey"> &#45;ExcludedThreads</text>
</g>
<!-- Node3 -->
<g id="Node000003" class="node">
<title>Node3</title>
<g id="a_Node000003"><a xlink:title=" ">
<polygon fill="white" stroke="transparent" points="315.5,-349 177.5,-349 177.5,-289 315.5,-289 315.5,-349"/>
<text text-anchor="start" x="182.5" y="-337" font-family="Helvetica,sans-Serif" font-size="10.00">static ConcurrentQueue</text>
<text text-anchor="start" x="182.5" y="-326" font-family="Helvetica,sans-Serif" font-size="10.00">&lt; MainThreadExecution &gt;</text>
<text text-anchor="start" x="244.5" y="-311" font-family="Helvetica,sans-Serif" font-size="10.00"> </text>
<text text-anchor="start" x="244.5" y="-296" font-family="Helvetica,sans-Serif" font-size="10.00"> </text>
<polygon fill="#666666" stroke="#666666" points="177.5,-321 177.5,-321 315.5,-321 315.5,-321 177.5,-321"/>
<polygon fill="#666666" stroke="#666666" points="177.5,-306 177.5,-306 315.5,-306 315.5,-306 177.5,-306"/>
<polygon fill="none" stroke="#666666" points="177.5,-289 177.5,-349 315.5,-349 315.5,-289 177.5,-289"/>
</a>
</g>
</g>
<!-- Node3&#45;&gt;Node1 -->
<g id="edge2_Node000001_Node000003" class="edge">
<title>Node3&#45;&gt;Node1</title>
<g id="a_edge2_Node000001_Node000003"><a xlink:title=" ">
<path fill="none" stroke="#63b8ff" d="M251.39,-288.88C254.19,-276.21 258.4,-261.45 264.5,-249 265.69,-246.56 266.94,-244.13 268.22,-241.7"/>
<polygon fill="none" stroke="#63b8ff" points="268.29,-241.57 267.71,-234.38 274.12,-231.08 274.7,-238.27 268.29,-241.57"/>
</a>
</g>
<text text-anchor="middle" x="313" y="-257.5" font-family="Helvetica,sans-Serif" font-size="10.00" fill="grey"> &#45;_pendingRequests</text>
</g>
<!-- Node4 -->
<g id="Node000004" class="node">
<title>Node4</title>
<g id="a_Node000004"><a xlink:title=" ">
<polygon fill="white" stroke="transparent" points="386,-343.5 345,-343.5 345,-294.5 386,-294.5 386,-343.5"/>
<text text-anchor="start" x="350.5" y="-331" font-family="Helvetica,sans-Serif" font-size="10.00">object</text>
<text text-anchor="start" x="364" y="-316" font-family="Helvetica,sans-Serif" font-size="10.00"> </text>
<text text-anchor="start" x="364" y="-301" font-family="Helvetica,sans-Serif" font-size="10.00"> </text>
<polygon fill="#666666" stroke="#666666" points="345.5,-326 345.5,-326 386.5,-326 386.5,-326 345.5,-326"/>
<polygon fill="#666666" stroke="#666666" points="345.5,-311 345.5,-311 386.5,-311 386.5,-311 345.5,-311"/>
<polygon fill="none" stroke="#666666" points="345,-294.5 345,-343.5 386,-343.5 386,-294.5 345,-294.5"/>
</a>
</g>
</g>
<!-- Node4&#45;&gt;Node1 -->
<g id="edge3_Node000001_Node000004" class="edge">
<title>Node4&#45;&gt;Node1</title>
<g id="a_edge3_Node000001_Node000004"><a xlink:title=" ">
<path fill="none" stroke="#63b8ff" d="M365.62,-294.49C365.68,-280.93 365.77,-262.7 365.87,-243.07"/>
<polygon fill="none" stroke="#63b8ff" points="365.87,-243.04 361.9,-237.02 365.93,-231.04 369.9,-237.06 365.87,-243.04"/>
</a>
</g>
<text text-anchor="middle" x="396" y="-263" font-family="Helvetica,sans-Serif" font-size="10.00" fill="grey"> &#45;_data</text>
<text text-anchor="middle" x="396" y="-252" font-family="Helvetica,sans-Serif" font-size="10.00" fill="grey">&#45;_lockObject</text>
</g>
<!-- Node5 -->
<g id="Node000005" class="node">
<title>Node5</title>
<g id="a_Node000005"><a xlink:title=" ">
<polygon fill="white" stroke="transparent" points="499,-343.5 404,-343.5 404,-294.5 499,-294.5 499,-343.5"/>
<text text-anchor="start" x="409.5" y="-331" font-family="Helvetica,sans-Serif" font-size="10.00">ExecutionSnippet</text>
<text text-anchor="start" x="450" y="-316" font-family="Helvetica,sans-Serif" font-size="10.00"> </text>
<text text-anchor="start" x="450" y="-301" font-family="Helvetica,sans-Serif" font-size="10.00"> </text>
<polygon fill="#666666" stroke="#666666" points="404.5,-326 404.5,-326 499.5,-326 499.5,-326 404.5,-326"/>
<polygon fill="#666666" stroke="#666666" points="404.5,-311 404.5,-311 499.5,-311 499.5,-311 404.5,-311"/>
<polygon fill="none" stroke="#666666" points="404,-294.5 404,-343.5 499,-343.5 499,-294.5 404,-294.5"/>
</a>
</g>
</g>
<!-- Node5&#45;&gt;Node1 -->
<g id="edge4_Node000001_Node000005" class="edge">
<title>Node5&#45;&gt;Node1</title>
<g id="a_edge4_Node000001_Node000005"><a xlink:title=" ">
<path fill="none" stroke="#63b8ff" d="M444.84,-294.41C440.83,-280.95 435.37,-263.85 429.5,-249 428.68,-246.91 427.83,-244.82 426.98,-242.71"/>
<polygon fill="none" stroke="#63b8ff" points="426.86,-242.43 420.87,-238.43 422.25,-231.35 428.25,-235.36 426.86,-242.43"/>
</a>
</g>
<text text-anchor="middle" x="461" y="-257.5" font-family="Helvetica,sans-Serif" font-size="10.00" fill="grey"> &#45;_snippet</text>
</g>
<!-- Node6 -->
<g id="Node000006" class="node">
<title>Node6</title>
<g id="a_Node000006"><a xlink:title=" ">
<polygon fill="white" stroke="transparent" points="549.5,-343.5 517.5,-343.5 517.5,-294.5 549.5,-294.5 549.5,-343.5"/>
<text text-anchor="start" x="522.5" y="-331" font-family="Helvetica,sans-Serif" font-size="10.00">bool</text>
<text text-anchor="start" x="531.5" y="-316" font-family="Helvetica,sans-Serif" font-size="10.00"> </text>
<text text-anchor="start" x="531.5" y="-301" font-family="Helvetica,sans-Serif" font-size="10.00"> </text>
<polygon fill="#666666" stroke="#666666" points="517.5,-326 517.5,-326 549.5,-326 549.5,-326 517.5,-326"/>
<polygon fill="#666666" stroke="#666666" points="517.5,-311 517.5,-311 549.5,-311 549.5,-311 517.5,-311"/>
<polygon fill="none" stroke="#666666" points="517.5,-294.5 517.5,-343.5 549.5,-343.5 549.5,-294.5 517.5,-294.5"/>
</a>
</g>
</g>
<!-- Node6&#45;&gt;Node1 -->
<g id="edge5_Node000001_Node000006" class="edge">
<title>Node6&#45;&gt;Node1</title>
<g id="a_edge5_Node000001_Node000006"><a xlink:title=" ">
<path fill="none" stroke="#63b8ff" d="M519.84,-294.29C511.62,-280.64 500.62,-263.39 489.5,-249 483.63,-241.41 477.41,-233.74 471.01,-226.12"/>
<polygon fill="none" stroke="#63b8ff" points="470.9,-225.99 463.96,-224.02 463.11,-216.86 470.05,-218.83 470.9,-225.99"/>
</a>
</g>
<text text-anchor="middle" x="536.5" y="-257.5" font-family="Helvetica,sans-Serif" font-size="10.00" fill="grey"> &#45;_completed</text>
</g>
</g>
</svg>
