<?xml version="1.0" encoding="UTF-8" standalone="no"?>
<!DOCTYPE svg PUBLIC "-//W3C//DTD SVG 1.1//EN"
 "http://www.w3.org/Graphics/SVG/1.1/DTD/svg11.dtd">
<!-- Generated by graphviz version 2.43.0 (0)
 -->
<!-- Title: Terraria.GameInput.PlayerInput.SettingsForUI Pages: 1 -->
<!--zoomable 505 -->

<svg id="main" version="1.1" xmlns="http://www.w3.org/2000/svg" xmlns:xlink="http://www.w3.org/1999/xlink" xml:space="preserve" onload="init(evt)">
<style type="text/css"><![CDATA[
.node, .edge {opacity: 0.7;}
.node.selected, .edge.selected {opacity: 1;}
.edge:hover path { stroke: red; }
.edge:hover polygon { stroke: red; fill: red; }
]]></style>

<defs>
  <circle id="rim" cx="0" cy="0" r="7"/>
  <circle id="rim2" cx="0" cy="0" r="3.5"/>
  <g id="zoomPlus">
    <use xlink:href="#rim" fill="#404040"><set attributeName="fill" to="#808080" begin="zoomplus.mouseover" end="zoomplus.mouseout"/></use>
    <path d="M-4,0h8M0,-4v8" fill="none" stroke="white" stroke-width="1.5" pointer-events="none"/>
  </g>
  <g id="zoomMin">
    <use xlink:href="#rim" fill="#404040"><set attributeName="fill" to="#808080" begin="zoomminus.mouseover" end="zoomminus.mouseout"/></use>
    <path d="M-4,0h8" fill="none" stroke="white" stroke-width="1.5" pointer-events="none"/>
  </g>
  <g id="arrowUp" transform="translate(30 24)">
    <use xlink:href="#rim"/>
    <path pointer-events="none" fill="none" stroke="white" stroke-width="1.5" d="M0,-3.0v7 M-2.5,-0.5L0,-3.0L2.5,-0.5"/>
  </g>
  <g id="arrowRight" transform="rotate(90) translate(36 -43)">
    <use xlink:href="#rim"/>
    <path pointer-events="none" fill="none" stroke="white" stroke-width="1.5" d="M0,-3.0v7 M-2.5,-0.5L0,-3.0L2.5,-0.5"/>
  </g>
  <g id="arrowDown" transform="rotate(180) translate(-30 -48)">
    <use xlink:href="#rim"/>
    <path pointer-events="none" fill="none" stroke="white" stroke-width="1.5" d="M0,-3.0v7 M-2.5,-0.5L0,-3.0L2.5,-0.5"/>
  </g>
  <g id="arrowLeft" transform="rotate(270) translate(-36 17)">
    <use xlink:href="#rim"/>
    <path pointer-events="none" fill="none" stroke="white" stroke-width="1.5" d="M0,-3.0v7 M-2.5,-0.5L0,-3.0L2.5,-0.5"/>
  </g>
  <g id="resetDef">
    <use xlink:href="#rim2" fill="#404040"><set attributeName="fill" to="#808080" begin="reset.mouseover" end="reset.mouseout"/></use>
  </g>
</defs>
<script type="application/ecmascript">
var viewWidth = 380;
var viewHeight = 505;
var sectionId = 'dynsection-0';
</script>
<script type="application/ecmascript" xlink:href="../../svg.min.js"/>
<svg id="graph" class="graph">
<g id="viewport">
<title>Terraria.GameInput.PlayerInput.SettingsForUI</title>
<!-- Node1 -->
<g id="Node000001" class="node">
<title>Node1</title>
<g id="a_Node000001"><a xlink:title=" ">
<polygon fill="#999999" stroke="transparent" points="204,-283 23,-283 23,0 204,0 204,-283"/>
<text text-anchor="start" x="50" y="-270.5" font-family="Helvetica,sans-Serif" font-size="10.00">Terraria.GameInput.Player</text>
<text text-anchor="start" x="67" y="-259.5" font-family="Helvetica,sans-Serif" font-size="10.00">Input.SettingsForUI</text>
<text text-anchor="start" x="27.5" y="-244.5" font-family="Helvetica,sans-Serif" font-size="10.00">+</text>
<text text-anchor="start" x="40.5" y="-244.5" font-family="Helvetica,sans-Serif" font-size="10.00">static CursorMode Current</text>
<text text-anchor="start" x="40.5" y="-233.5" font-family="Helvetica,sans-Serif" font-size="10.00">CursorMode</text>
<text text-anchor="start" x="27.5" y="-218.5" font-family="Helvetica,sans-Serif" font-size="10.00">+</text>
<text text-anchor="start" x="40.5" y="-218.5" font-family="Helvetica,sans-Serif" font-size="10.00">static bool ShowGamepadHints</text>
<text text-anchor="start" x="27.5" y="-203.5" font-family="Helvetica,sans-Serif" font-size="10.00">+</text>
<text text-anchor="start" x="40.5" y="-203.5" font-family="Helvetica,sans-Serif" font-size="10.00">static bool AllowSecondary</text>
<text text-anchor="start" x="40.5" y="-192.5" font-family="Helvetica,sans-Serif" font-size="10.00">GamepadAim</text>
<text text-anchor="start" x="27.5" y="-177.5" font-family="Helvetica,sans-Serif" font-size="10.00">+</text>
<text text-anchor="start" x="40.5" y="-177.5" font-family="Helvetica,sans-Serif" font-size="10.00">static bool PushEquipment</text>
<text text-anchor="start" x="40.5" y="-166.5" font-family="Helvetica,sans-Serif" font-size="10.00">AreaUp</text>
<text text-anchor="start" x="27.5" y="-151.5" font-family="Helvetica,sans-Serif" font-size="10.00">+</text>
<text text-anchor="start" x="40.5" y="-151.5" font-family="Helvetica,sans-Serif" font-size="10.00">static bool ShowGamepadCursor</text>
<text text-anchor="start" x="27.5" y="-136.5" font-family="Helvetica,sans-Serif" font-size="10.00">+</text>
<text text-anchor="start" x="40.5" y="-136.5" font-family="Helvetica,sans-Serif" font-size="10.00">static bool HighlightThings</text>
<text text-anchor="start" x="40.5" y="-125.5" font-family="Helvetica,sans-Serif" font-size="10.00">ForMouse</text>
<text text-anchor="start" x="27.5" y="-110.5" font-family="Helvetica,sans-Serif" font-size="10.00">+</text>
<text text-anchor="start" x="40.5" y="-110.5" font-family="Helvetica,sans-Serif" font-size="10.00">static int FramesSinceLast</text>
<text text-anchor="start" x="40.5" y="-99.5" font-family="Helvetica,sans-Serif" font-size="10.00">TimeInMouseMode</text>
<text text-anchor="start" x="27.5" y="-84.5" font-family="Helvetica,sans-Serif" font-size="10.00">+</text>
<text text-anchor="start" x="40.5" y="-84.5" font-family="Helvetica,sans-Serif" font-size="10.00">static bool PreventHighlights</text>
<text text-anchor="start" x="40.5" y="-73.5" font-family="Helvetica,sans-Serif" font-size="10.00">ForGamepad</text>
<text text-anchor="start" x="27.5" y="-58.5" font-family="Helvetica,sans-Serif" font-size="10.00">+</text>
<text text-anchor="start" x="40.5" y="-58.5" font-family="Helvetica,sans-Serif" font-size="10.00">static void SetCursorMode</text>
<text text-anchor="start" x="40.5" y="-47.5" font-family="Helvetica,sans-Serif" font-size="10.00">(CursorMode cursorMode)</text>
<text text-anchor="start" x="27.5" y="-32.5" font-family="Helvetica,sans-Serif" font-size="10.00">+</text>
<text text-anchor="start" x="40.5" y="-32.5" font-family="Helvetica,sans-Serif" font-size="10.00">static void UpdateCounters()</text>
<text text-anchor="start" x="27.5" y="-17.5" font-family="Helvetica,sans-Serif" font-size="10.00">+</text>
<text text-anchor="start" x="40.5" y="-17.5" font-family="Helvetica,sans-Serif" font-size="10.00">static void TryReverting</text>
<text text-anchor="start" x="40.5" y="-6.5" font-family="Helvetica,sans-Serif" font-size="10.00">ToMouseMode()</text>
<polygon fill="#666666" stroke="#666666" points="23.5,-254.5 23.5,-254.5 204.5,-254.5 204.5,-254.5 23.5,-254.5"/>
<polygon fill="#666666" stroke="#666666" points="23.5,-68.5 23.5,-68.5 38.5,-68.5 38.5,-68.5 23.5,-68.5"/>
<polygon fill="#666666" stroke="#666666" points="38.5,-68.5 38.5,-68.5 204.5,-68.5 204.5,-68.5 38.5,-68.5"/>
<polygon fill="none" stroke="#666666" points="23,0 23,-283 204,-283 204,0 23,0"/>
</a>
</g>
</g>
<!-- Node2 -->
<g id="Node000002" class="node">
<title>Node2</title>
<g id="a_Node000002"><a xlink:title=" ">
<polygon fill="white" stroke="transparent" points="119,-390 0,-390 0,-330 119,-330 119,-390"/>
<text text-anchor="start" x="5.5" y="-378" font-family="Helvetica,sans-Serif" font-size="10.00">static CursorMode&lt;</text>
<text text-anchor="start" x="5.5" y="-367" font-family="Helvetica,sans-Serif" font-size="10.00"> CurrentCursorMode &gt;</text>
<text text-anchor="start" x="58" y="-352" font-family="Helvetica,sans-Serif" font-size="10.00"> </text>
<text text-anchor="start" x="58" y="-337" font-family="Helvetica,sans-Serif" font-size="10.00"> </text>
<polygon fill="#666666" stroke="#666666" points="0.5,-362 0.5,-362 119.5,-362 119.5,-362 0.5,-362"/>
<polygon fill="#666666" stroke="#666666" points="0.5,-347 0.5,-347 119.5,-347 119.5,-347 0.5,-347"/>
<polygon fill="none" stroke="#666666" points="0,-330 0,-390 119,-390 119,-330 0,-330"/>
</a>
</g>
</g>
<!-- Node2&#45;&gt;Node1 -->
<g id="edge1_Node000001_Node000002" class="edge">
<title>Node2&#45;&gt;Node1</title>
<g id="a_edge1_Node000001_Node000002"><a xlink:title=" ">
<path fill="none" stroke="#63b8ff" d="M66.78,-329.8C69.28,-319.8 72.26,-307.83 75.51,-294.83"/>
<polygon fill="none" stroke="#63b8ff" points="75.51,-294.81 73.08,-288.02 78.42,-283.16 80.84,-289.95 75.51,-294.81"/>
</a>
</g>
<text text-anchor="middle" x="116.5" y="-304" font-family="Helvetica,sans-Serif" font-size="10.00" fill="grey"> &#45;k__BackingField</text>
</g>
<!-- Node3 -->
<g id="Node000003" class="node">
<title>Node3</title>
<g id="a_Node000003"><a xlink:title=" ">
<polygon fill="white" stroke="transparent" points="279.5,-390 137.5,-390 137.5,-330 279.5,-330 279.5,-390"/>
<text text-anchor="start" x="142.5" y="-378" font-family="Helvetica,sans-Serif" font-size="10.00">int&lt; FramesSinceLastTime</text>
<text text-anchor="start" x="168.5" y="-367" font-family="Helvetica,sans-Serif" font-size="10.00">InMouseMode &gt;</text>
<text text-anchor="start" x="206.5" y="-352" font-family="Helvetica,sans-Serif" font-size="10.00"> </text>
<text text-anchor="start" x="206.5" y="-337" font-family="Helvetica,sans-Serif" font-size="10.00"> </text>
<polygon fill="#666666" stroke="#666666" points="137.5,-362 137.5,-362 279.5,-362 279.5,-362 137.5,-362"/>
<polygon fill="#666666" stroke="#666666" points="137.5,-347 137.5,-347 279.5,-347 279.5,-347 137.5,-347"/>
<polygon fill="none" stroke="#666666" points="137.5,-330 137.5,-390 279.5,-390 279.5,-330 137.5,-330"/>
</a>
</g>
</g>
<!-- Node3&#45;&gt;Node1 -->
<g id="edge2_Node000001_Node000003" class="edge">
<title>Node3&#45;&gt;Node1</title>
<g id="a_edge2_Node000001_Node000003"><a xlink:title=" ">
<path fill="none" stroke="#63b8ff" d="M195.69,-329.8C191.26,-319.7 185.94,-307.58 180.17,-294.43"/>
<polygon fill="none" stroke="#63b8ff" points="180.05,-294.15 173.97,-290.27 175.22,-283.16 181.3,-287.05 180.05,-294.15"/>
</a>
</g>
<text text-anchor="middle" x="228.5" y="-304" font-family="Helvetica,sans-Serif" font-size="10.00" fill="grey"> &#45;k__BackingField</text>
</g>
<!-- Node4 -->
<g id="Node000004" class="node">
<title>Node4</title>
<g id="a_Node000004"><a xlink:title=" ">
<polygon fill="white" stroke="transparent" points="220,-497 197,-497 197,-448 220,-448 220,-497"/>
<text text-anchor="start" x="202.5" y="-484.5" font-family="Helvetica,sans-Serif" font-size="10.00">int</text>
<text text-anchor="start" x="207" y="-469.5" font-family="Helvetica,sans-Serif" font-size="10.00"> </text>
<text text-anchor="start" x="207" y="-454.5" font-family="Helvetica,sans-Serif" font-size="10.00"> </text>
<polygon fill="#666666" stroke="#666666" points="197.5,-479.5 197.5,-479.5 220.5,-479.5 220.5,-479.5 197.5,-479.5"/>
<polygon fill="#666666" stroke="#666666" points="197.5,-464.5 197.5,-464.5 220.5,-464.5 220.5,-464.5 197.5,-464.5"/>
<polygon fill="none" stroke="#666666" points="197,-448 197,-497 220,-497 220,-448 197,-448"/>
</a>
</g>
</g>
<!-- Node4&#45;&gt;Node3 -->
<g id="edge3_Node000003_Node000004" class="edge">
<title>Node4&#45;&gt;Node3</title>
<g id="a_edge3_Node000003_Node000004"><a xlink:title=" ">
<path fill="none" stroke="orange" d="M208.5,-437.75C208.5,-422.56 208.5,-404.79 208.5,-390.17"/>
<polygon fill="orange" stroke="orange" points="205,-437.79 208.5,-447.79 212,-437.8 205,-437.79"/>
</a>
</g>
<text text-anchor="start" x="208.5" y="-422" font-family="Helvetica,sans-Serif" font-size="10.00" fill="grey"> &lt; FramesSinceLastTimeInMouse</text>
<text text-anchor="middle" x="290" y="-411" font-family="Helvetica,sans-Serif" font-size="10.00" fill="grey">Mode &gt;</text>
</g>
</g>
</svg>

<g id="navigator" transform="translate(0 0)" fill="#404254">
  <rect fill="#f2f5e9" fill-opacity="0.5" stroke="#606060" stroke-width=".5" x="0" y="0" width="60" height="60"/>
  <use id="zoomplus" xlink:href="#zoomPlus" x="17" y="9" onmousedown="handleZoom(evt,'in')"/>
  <use id="zoomminus" xlink:href="#zoomMin" x="42" y="9" onmousedown="handleZoom(evt,'out')"/>
  <use id="reset" xlink:href="#resetDef" x="30" y="36" onmousedown="handleReset()"/>
   <use id="arrowup" xlink:href="#arrowUp" x="0" y="0" onmousedown="handlePan(0,-1)"/>
  <use id="arrowright" xlink:href="#arrowRight" x="0" y="0" onmousedown="handlePan(1,0)"/>
  <use id="arrowdown" xlink:href="#arrowDown" x="0" y="0" onmousedown="handlePan(0,1)"/>
  <use id="arrowleft" xlink:href="#arrowLeft" x="0" y="0" onmousedown="handlePan(-1,0)"/>
</g>
<svg viewBox="0 0 15 15" width="100%" height="30px" preserveAspectRatio="xMaxYMin meet">
 <g id="arrow_out" transform="scale(0.3 0.3)">
  <a xlink:href="classTerraria_1_1GameInput_1_1PlayerInput_1_1SettingsForUI__coll__graph_org.svg" target="_base">
   <rect id="button" ry="5" rx="5" y="6" x="6" height="38" width="38"
        fill="#f2f5e9" fill-opacity="0.5" stroke="#606060" stroke-width="1.0"/>
   <path id="arrow"
     d="M 11.500037,31.436501 C 11.940474,20.09759 22.043105,11.32322 32.158766,21.979434 L 37.068811,17.246167 C 37.068811,17.246167 37.088388,32 37.088388,32 L 22.160133,31.978069 C 22.160133,31.978069 26.997745,27.140456 26.997745,27.140456 C 18.528582,18.264221 13.291696,25.230495 11.500037,31.436501 z"
     style="fill:#404040;"/>
  </a>
 </g>
</svg>

<style type='text/css'>
<![CDATA[
[data-mouse-over-selected='false'] { opacity: 0.7; }
[data-mouse-over-selected='true']  { opacity: 1.0; }
]]>
</style>
<script type="application/ecmascript"><![CDATA[
document.addEventListener('DOMContentLoaded', (event) => {
  highlightEdges();
  highlightAdjacentNodes();
});
]]></script>
</svg>
