<?xml version="1.0" encoding="UTF-8" standalone="no"?>
<!DOCTYPE svg PUBLIC "-//W3C//DTD SVG 1.1//EN"
 "http://www.w3.org/Graphics/SVG/1.1/DTD/svg11.dtd">
<!-- Generated by graphviz version 2.43.0 (0)
 -->
<!-- Title: System.Net.WebUtility.HtmlEntities Pages: 1 -->
<svg width="186pt" height="216pt"
 viewBox="0.00 0.00 185.50 216.00" xmlns="http://www.w3.org/2000/svg" xmlns:xlink="http://www.w3.org/1999/xlink">
<g id="graph0" class="graph" transform="scale(1 1) rotate(0) translate(4 212)">
<title>System.Net.WebUtility.HtmlEntities</title>
<!-- Node1 -->
<g id="Node000001" class="node">
<title>Node1</title>
<g id="a_Node000001"><a xlink:title=" ">
<polygon fill="#999999" stroke="transparent" points="147,-112 0,-112 0,0 147,0 147,-112"/>
<text text-anchor="start" x="5.5" y="-100" font-family="Helvetica,sans-Serif" font-size="10.00">System.Net.WebUtility.Html</text>
<text text-anchor="start" x="55.5" y="-89" font-family="Helvetica,sans-Serif" font-size="10.00">Entities</text>
<text text-anchor="start" x="72" y="-74" font-family="Helvetica,sans-Serif" font-size="10.00"> </text>
<text text-anchor="start" x="6.5" y="-59" font-family="Helvetica,sans-Serif" font-size="10.00">+</text>
<text text-anchor="start" x="21.5" y="-59" font-family="Helvetica,sans-Serif" font-size="10.00">static char Lookup</text>
<text text-anchor="start" x="21.5" y="-48" font-family="Helvetica,sans-Serif" font-size="10.00">(string entity)</text>
<text text-anchor="start" x="9" y="-33" font-family="Helvetica,sans-Serif" font-size="10.00">&#45;</text>
<text text-anchor="start" x="21.5" y="-33" font-family="Helvetica,sans-Serif" font-size="10.00">static long CalculateKey</text>
<text text-anchor="start" x="21.5" y="-22" font-family="Helvetica,sans-Serif" font-size="10.00">Value(string s)</text>
<text text-anchor="start" x="9" y="-7" font-family="Helvetica,sans-Serif" font-size="10.00">&#45;</text>
<text text-anchor="start" x="21.5" y="-7" font-family="Helvetica,sans-Serif" font-size="10.00">static HtmlEntities()</text>
<polygon fill="#666666" stroke="#666666" points="0.5,-84 0.5,-84 147.5,-84 147.5,-84 0.5,-84"/>
<polygon fill="#666666" stroke="#666666" points="0.5,-69 0.5,-69 147.5,-69 147.5,-69 0.5,-69"/>
<polygon fill="none" stroke="#666666" points="0,0 0,-112 147,-112 147,0 0,0"/>
</a>
</g>
</g>
<!-- Node2 -->
<g id="Node000002" class="node">
<title>Node2</title>
<g id="a_Node000002"><a xlink:title=" ">
<polygon fill="white" stroke="transparent" points="56.5,-208 24.5,-208 24.5,-159 56.5,-159 56.5,-208"/>
<text text-anchor="start" x="29.5" y="-195.5" font-family="Helvetica,sans-Serif" font-size="10.00">long</text>
<text text-anchor="start" x="38.5" y="-180.5" font-family="Helvetica,sans-Serif" font-size="10.00"> </text>
<text text-anchor="start" x="38.5" y="-165.5" font-family="Helvetica,sans-Serif" font-size="10.00"> </text>
<polygon fill="#666666" stroke="#666666" points="24.5,-190.5 24.5,-190.5 56.5,-190.5 56.5,-190.5 24.5,-190.5"/>
<polygon fill="#666666" stroke="#666666" points="24.5,-175.5 24.5,-175.5 56.5,-175.5 56.5,-175.5 24.5,-175.5"/>
<polygon fill="none" stroke="#666666" points="24.5,-159 24.5,-208 56.5,-208 56.5,-159 24.5,-159"/>
</a>
</g>
</g>
<!-- Node2&#45;&gt;Node1 -->
<g id="edge1_Node000001_Node000002" class="edge">
<title>Node2&#45;&gt;Node1</title>
<g id="a_edge1_Node000001_Node000002"><a xlink:title=" ">
<path fill="none" stroke="#63b8ff" d="M38.99,-158.75C38.92,-149.66 39.47,-139.26 41.5,-130 41.97,-127.86 42.5,-125.71 43.09,-123.55"/>
<polygon fill="none" stroke="#63b8ff" points="43.11,-123.49 41.09,-116.57 46.7,-112.04 48.72,-118.96 43.11,-123.49"/>
</a>
</g>
<text text-anchor="middle" x="63.5" y="-133" font-family="Helvetica,sans-Serif" font-size="10.00" fill="grey"> &#45;entities</text>
</g>
<!-- Node3 -->
<g id="Node000003" class="node">
<title>Node3</title>
<g id="a_Node000003"><a xlink:title=" ">
<polygon fill="white" stroke="transparent" points="123.5,-208 91.5,-208 91.5,-159 123.5,-159 123.5,-208"/>
<text text-anchor="start" x="96.5" y="-195.5" font-family="Helvetica,sans-Serif" font-size="10.00">char</text>
<text text-anchor="start" x="105.5" y="-180.5" font-family="Helvetica,sans-Serif" font-size="10.00"> </text>
<text text-anchor="start" x="105.5" y="-165.5" font-family="Helvetica,sans-Serif" font-size="10.00"> </text>
<polygon fill="#666666" stroke="#666666" points="91.5,-190.5 91.5,-190.5 123.5,-190.5 123.5,-190.5 91.5,-190.5"/>
<polygon fill="#666666" stroke="#666666" points="91.5,-175.5 91.5,-175.5 123.5,-175.5 123.5,-175.5 91.5,-175.5"/>
<polygon fill="none" stroke="#666666" points="91.5,-159 91.5,-208 123.5,-208 123.5,-159 91.5,-159"/>
</a>
</g>
</g>
<!-- Node3&#45;&gt;Node1 -->
<g id="edge2_Node000001_Node000003" class="edge">
<title>Node3&#45;&gt;Node1</title>
<g id="a_edge2_Node000001_Node000003"><a xlink:title=" ">
<path fill="none" stroke="#63b8ff" d="M101.1,-158.89C98.39,-148.89 95.08,-136.67 91.71,-124.21"/>
<polygon fill="none" stroke="#63b8ff" points="91.61,-123.84 86.18,-119.1 88.47,-112.26 93.9,-117.01 91.61,-123.84"/>
</a>
</g>
<text text-anchor="middle" x="136.5" y="-133" font-family="Helvetica,sans-Serif" font-size="10.00" fill="grey"> &#45;entities_values</text>
</g>
</g>
</svg>
