<?xml version="1.0" encoding="UTF-8" standalone="no"?>
<!DOCTYPE svg PUBLIC "-//W3C//DTD SVG 1.1//EN"
 "http://www.w3.org/Graphics/SVG/1.1/DTD/svg11.dtd">
<!-- Generated by graphviz version 2.43.0 (0)
 -->
<!-- Title: GUILicenseCheck Pages: 1 -->
<!--zoomable 2250 -->

<svg id="main" version="1.1" xmlns="http://www.w3.org/2000/svg" xmlns:xlink="http://www.w3.org/1999/xlink" xml:space="preserve" onload="init(evt)">
<style type="text/css"><![CDATA[
.node, .edge {opacity: 0.7;}
.node.selected, .edge.selected {opacity: 1;}
.edge:hover path { stroke: red; }
.edge:hover polygon { stroke: red; fill: red; }
]]></style>

<defs>
  <circle id="rim" cx="0" cy="0" r="7"/>
  <circle id="rim2" cx="0" cy="0" r="3.5"/>
  <g id="zoomPlus">
    <use xlink:href="#rim" fill="#404040"><set attributeName="fill" to="#808080" begin="zoomplus.mouseover" end="zoomplus.mouseout"/></use>
    <path d="M-4,0h8M0,-4v8" fill="none" stroke="white" stroke-width="1.5" pointer-events="none"/>
  </g>
  <g id="zoomMin">
    <use xlink:href="#rim" fill="#404040"><set attributeName="fill" to="#808080" begin="zoomminus.mouseover" end="zoomminus.mouseout"/></use>
    <path d="M-4,0h8" fill="none" stroke="white" stroke-width="1.5" pointer-events="none"/>
  </g>
  <g id="arrowUp" transform="translate(30 24)">
    <use xlink:href="#rim"/>
    <path pointer-events="none" fill="none" stroke="white" stroke-width="1.5" d="M0,-3.0v7 M-2.5,-0.5L0,-3.0L2.5,-0.5"/>
  </g>
  <g id="arrowRight" transform="rotate(90) translate(36 -43)">
    <use xlink:href="#rim"/>
    <path pointer-events="none" fill="none" stroke="white" stroke-width="1.5" d="M0,-3.0v7 M-2.5,-0.5L0,-3.0L2.5,-0.5"/>
  </g>
  <g id="arrowDown" transform="rotate(180) translate(-30 -48)">
    <use xlink:href="#rim"/>
    <path pointer-events="none" fill="none" stroke="white" stroke-width="1.5" d="M0,-3.0v7 M-2.5,-0.5L0,-3.0L2.5,-0.5"/>
  </g>
  <g id="arrowLeft" transform="rotate(270) translate(-36 17)">
    <use xlink:href="#rim"/>
    <path pointer-events="none" fill="none" stroke="white" stroke-width="1.5" d="M0,-3.0v7 M-2.5,-0.5L0,-3.0L2.5,-0.5"/>
  </g>
  <g id="resetDef">
    <use xlink:href="#rim2" fill="#404040"><set attributeName="fill" to="#808080" begin="reset.mouseover" end="reset.mouseout"/></use>
  </g>
</defs>
<script type="application/ecmascript">
var viewWidth = 621;
var viewHeight = 2250;
var sectionId = 'dynsection-0';
</script>
<script type="application/ecmascript" xlink:href="../../svg.min.js"/>
<svg id="graph" class="graph">
<g id="viewport">
<title>GUILicenseCheck</title>
<!-- Node1 -->
<g id="Node000001" class="node">
<title>Node1</title>
<g id="a_Node000001"><a xlink:title=" ">
<polygon fill="#999999" stroke="transparent" points="465.6,-94 313.6,-94 313.6,0 465.6,0 465.6,-94"/>
<text text-anchor="start" x="347.1" y="-82" font-family="Helvetica,sans-Serif" font-size="10.00">GUILicenseCheck</text>
<text text-anchor="start" x="387.6" y="-67" font-family="Helvetica,sans-Serif" font-size="10.00"> </text>
<text text-anchor="start" x="317.6" y="-52" font-family="Helvetica,sans-Serif" font-size="10.00">+</text>
<text text-anchor="start" x="330.6" y="-52" font-family="Helvetica,sans-Serif" font-size="10.00">static void PerformCheck()</text>
<text text-anchor="start" x="317.6" y="-37" font-family="Helvetica,sans-Serif" font-size="10.00">+</text>
<text text-anchor="start" x="330.6" y="-37" font-family="Helvetica,sans-Serif" font-size="10.00">static void FollowLink()</text>
<text text-anchor="start" x="317.6" y="-22" font-family="Helvetica,sans-Serif" font-size="10.00">+</text>
<text text-anchor="start" x="330.6" y="-22" font-family="Helvetica,sans-Serif" font-size="10.00">static void Draw()</text>
<text text-anchor="start" x="320.1" y="-7" font-family="Helvetica,sans-Serif" font-size="10.00">&#45;</text>
<text text-anchor="start" x="330.6" y="-7" font-family="Helvetica,sans-Serif" font-size="10.00">static void Process()</text>
<polygon fill="#666666" stroke="#666666" points="313.6,-77 313.6,-77 465.6,-77 465.6,-77 313.6,-77"/>
<polygon fill="#666666" stroke="#666666" points="313.6,-62 313.6,-62 465.6,-62 465.6,-62 313.6,-62"/>
<polygon fill="none" stroke="#666666" points="313.6,0 313.6,-94 465.6,-94 465.6,0 313.6,0"/>
</a>
</g>
</g>
<!-- Node2 -->
<g id="Node000002" class="node">
<title>Node2</title>
<g id="a_Node000002"><a xlink:title=" ">
<polygon fill="white" stroke="transparent" points="213.6,-1764.5 181.6,-1764.5 181.6,-1715.5 213.6,-1715.5 213.6,-1764.5"/>
<text text-anchor="start" x="186.6" y="-1752" font-family="Helvetica,sans-Serif" font-size="10.00">bool</text>
<text text-anchor="start" x="195.6" y="-1737" font-family="Helvetica,sans-Serif" font-size="10.00"> </text>
<text text-anchor="start" x="195.6" y="-1722" font-family="Helvetica,sans-Serif" font-size="10.00"> </text>
<polygon fill="#666666" stroke="#666666" points="181.6,-1747 181.6,-1747 213.6,-1747 213.6,-1747 181.6,-1747"/>
<polygon fill="#666666" stroke="#666666" points="181.6,-1732 181.6,-1732 213.6,-1732 213.6,-1732 181.6,-1732"/>
<polygon fill="none" stroke="#666666" points="181.6,-1715.5 181.6,-1764.5 213.6,-1764.5 213.6,-1715.5 181.6,-1715.5"/>
</a>
</g>
</g>
<!-- Node2&#45;&gt;Node1 -->
<g id="edge1_Node000001_Node000002" class="edge">
<title>Node2&#45;&gt;Node1</title>
<g id="a_edge1_Node000001_Node000002"><a xlink:title=" ">
<path fill="none" stroke="#63b8ff" d="M188.08,-1715.31C127.61,-1560.77 -189.13,-685.71 166.6,-152 197.08,-106.27 253.24,-80.24 301.57,-65.66"/>
<polygon fill="none" stroke="#63b8ff" points="301.81,-65.59 306.48,-60.09 313.35,-62.28 308.68,-67.78 301.81,-65.59"/>
</a>
</g>
<text text-anchor="middle" x="73.6" y="-1150.5" font-family="Helvetica,sans-Serif" font-size="10.00" fill="grey"> +RequiresDraw</text>
</g>
<!-- Node5 -->
<g id="Node000005" class="node">
<title>Node5</title>
<g id="a_Node000005"><a xlink:href="../../d7/d2b/classUnityEngine_1_1AndroidJavaObject.html" target="_top" xlink:title=" ">
<polygon fill="white" stroke="transparent" points="367.1,-1124 176.1,-1124 176.1,-152 367.1,-152 367.1,-1124"/>
<text text-anchor="start" x="195.6" y="-1112" font-family="Helvetica,sans-Serif" font-size="10.00">UnityEngine.AndroidJavaObject</text>
<text text-anchor="start" x="270.1" y="-1097" font-family="Helvetica,sans-Serif" font-size="10.00"> </text>
<text text-anchor="start" x="180.6" y="-1082" font-family="Helvetica,sans-Serif" font-size="10.00">+</text>
<text text-anchor="start" x="193.6" y="-1082" font-family="Helvetica,sans-Serif" font-size="10.00">AndroidJavaObject</text>
<text text-anchor="start" x="193.6" y="-1071" font-family="Helvetica,sans-Serif" font-size="10.00">(string className, string</text>
<text text-anchor="start" x="193.6" y="-1060" font-family="Helvetica,sans-Serif" font-size="10.00">[] args)</text>
<text text-anchor="start" x="180.6" y="-1045" font-family="Helvetica,sans-Serif" font-size="10.00">+</text>
<text text-anchor="start" x="193.6" y="-1045" font-family="Helvetica,sans-Serif" font-size="10.00">AndroidJavaObject</text>
<text text-anchor="start" x="193.6" y="-1034" font-family="Helvetica,sans-Serif" font-size="10.00">(string className, Android</text>
<text text-anchor="start" x="193.6" y="-1023" font-family="Helvetica,sans-Serif" font-size="10.00">JavaObject[] args)</text>
<text text-anchor="start" x="180.6" y="-1008" font-family="Helvetica,sans-Serif" font-size="10.00">+</text>
<text text-anchor="start" x="193.6" y="-1008" font-family="Helvetica,sans-Serif" font-size="10.00">AndroidJavaObject</text>
<text text-anchor="start" x="193.6" y="-997" font-family="Helvetica,sans-Serif" font-size="10.00">(string className, Android</text>
<text text-anchor="start" x="193.6" y="-986" font-family="Helvetica,sans-Serif" font-size="10.00">JavaClass[] args)</text>
<text text-anchor="start" x="180.6" y="-971" font-family="Helvetica,sans-Serif" font-size="10.00">+</text>
<text text-anchor="start" x="193.6" y="-971" font-family="Helvetica,sans-Serif" font-size="10.00">AndroidJavaObject</text>
<text text-anchor="start" x="193.6" y="-960" font-family="Helvetica,sans-Serif" font-size="10.00">(string className, Android</text>
<text text-anchor="start" x="193.6" y="-949" font-family="Helvetica,sans-Serif" font-size="10.00">JavaProxy[] args)</text>
<text text-anchor="start" x="180.6" y="-934" font-family="Helvetica,sans-Serif" font-size="10.00">+</text>
<text text-anchor="start" x="193.6" y="-934" font-family="Helvetica,sans-Serif" font-size="10.00">AndroidJavaObject</text>
<text text-anchor="start" x="193.6" y="-923" font-family="Helvetica,sans-Serif" font-size="10.00">(string className, Android</text>
<text text-anchor="start" x="193.6" y="-912" font-family="Helvetica,sans-Serif" font-size="10.00">JavaRunnable[] args)</text>
<text text-anchor="start" x="180.6" y="-897" font-family="Helvetica,sans-Serif" font-size="10.00">+</text>
<text text-anchor="start" x="193.6" y="-897" font-family="Helvetica,sans-Serif" font-size="10.00">AndroidJavaObject</text>
<text text-anchor="start" x="193.6" y="-886" font-family="Helvetica,sans-Serif" font-size="10.00">(string className, params</text>
<text text-anchor="start" x="193.6" y="-875" font-family="Helvetica,sans-Serif" font-size="10.00"> object[] args)</text>
<text text-anchor="start" x="180.6" y="-860" font-family="Helvetica,sans-Serif" font-size="10.00">+</text>
<text text-anchor="start" x="193.6" y="-860" font-family="Helvetica,sans-Serif" font-size="10.00">void Dispose()</text>
<text text-anchor="start" x="180.6" y="-845" font-family="Helvetica,sans-Serif" font-size="10.00">+</text>
<text text-anchor="start" x="193.6" y="-845" font-family="Helvetica,sans-Serif" font-size="10.00">void Call&lt; T &gt;(string</text>
<text text-anchor="start" x="193.6" y="-834" font-family="Helvetica,sans-Serif" font-size="10.00"> methodName, T[] args)</text>
<text text-anchor="start" x="180.6" y="-819" font-family="Helvetica,sans-Serif" font-size="10.00">+</text>
<text text-anchor="start" x="193.6" y="-819" font-family="Helvetica,sans-Serif" font-size="10.00">void Call(string methodName,</text>
<text text-anchor="start" x="193.6" y="-808" font-family="Helvetica,sans-Serif" font-size="10.00"> params object[] args)</text>
<text text-anchor="start" x="180.6" y="-793" font-family="Helvetica,sans-Serif" font-size="10.00">+</text>
<text text-anchor="start" x="193.6" y="-793" font-family="Helvetica,sans-Serif" font-size="10.00">void CallStatic&lt; T</text>
<text text-anchor="start" x="193.6" y="-782" font-family="Helvetica,sans-Serif" font-size="10.00"> &gt;(string methodName,</text>
<text text-anchor="start" x="193.6" y="-771" font-family="Helvetica,sans-Serif" font-size="10.00"> T[] args)</text>
<text text-anchor="start" x="193.6" y="-756" font-family="Helvetica,sans-Serif" font-size="10.00">and 12 more...</text>
<text text-anchor="start" x="180.6" y="-741" font-family="Helvetica,sans-Serif" font-size="10.00">~</text>
<text text-anchor="start" x="193.6" y="-741" font-family="Helvetica,sans-Serif" font-size="10.00">AndroidJavaObject</text>
<text text-anchor="start" x="193.6" y="-730" font-family="Helvetica,sans-Serif" font-size="10.00">(IntPtr jobject)</text>
<text text-anchor="start" x="180.6" y="-715" font-family="Helvetica,sans-Serif" font-size="10.00">~</text>
<text text-anchor="start" x="193.6" y="-715" font-family="Helvetica,sans-Serif" font-size="10.00">AndroidJavaObject()</text>
<text text-anchor="start" x="180.6" y="-700" font-family="Helvetica,sans-Serif" font-size="10.00">~</text>
<text text-anchor="start" x="193.6" y="-700" font-family="Helvetica,sans-Serif" font-size="10.00">static AndroidJavaObject</text>
<text text-anchor="start" x="193.6" y="-689" font-family="Helvetica,sans-Serif" font-size="10.00"> AndroidJavaObjectDeleteLocalRef</text>
<text text-anchor="start" x="193.6" y="-678" font-family="Helvetica,sans-Serif" font-size="10.00">(IntPtr jobject)</text>
<text text-anchor="start" x="180.6" y="-663" font-family="Helvetica,sans-Serif" font-size="10.00">~</text>
<text text-anchor="start" x="193.6" y="-663" font-family="Helvetica,sans-Serif" font-size="10.00">static AndroidJavaClass</text>
<text text-anchor="start" x="193.6" y="-652" font-family="Helvetica,sans-Serif" font-size="10.00"> AndroidJavaClassDeleteLocal</text>
<text text-anchor="start" x="193.6" y="-641" font-family="Helvetica,sans-Serif" font-size="10.00">Ref(IntPtr jclass)</text>
<text text-anchor="start" x="180.6" y="-626" font-family="Helvetica,sans-Serif" font-size="10.00">~</text>
<text text-anchor="start" x="193.6" y="-626" font-family="Helvetica,sans-Serif" font-size="10.00">static ReturnType FromJava</text>
<text text-anchor="start" x="193.6" y="-615" font-family="Helvetica,sans-Serif" font-size="10.00">ArrayDeleteLocalRef&lt; ReturnType</text>
<text text-anchor="start" x="193.6" y="-604" font-family="Helvetica,sans-Serif" font-size="10.00"> &gt;(IntPtr jobject)</text>
<text text-anchor="start" x="180.6" y="-589" font-family="Helvetica,sans-Serif" font-size="10.00">#</text>
<text text-anchor="start" x="193.6" y="-589" font-family="Helvetica,sans-Serif" font-size="10.00">void DebugPrint(string msg)</text>
<text text-anchor="start" x="180.6" y="-574" font-family="Helvetica,sans-Serif" font-size="10.00">#</text>
<text text-anchor="start" x="193.6" y="-574" font-family="Helvetica,sans-Serif" font-size="10.00">void DebugPrint(string</text>
<text text-anchor="start" x="193.6" y="-563" font-family="Helvetica,sans-Serif" font-size="10.00"> call, string methodName,</text>
<text text-anchor="start" x="193.6" y="-552" font-family="Helvetica,sans-Serif" font-size="10.00"> string signature, object</text>
<text text-anchor="start" x="193.6" y="-541" font-family="Helvetica,sans-Serif" font-size="10.00">[] args)</text>
<text text-anchor="start" x="180.6" y="-526" font-family="Helvetica,sans-Serif" font-size="10.00">#</text>
<text text-anchor="start" x="193.6" y="-526" font-family="Helvetica,sans-Serif" font-size="10.00">override void Finalize()</text>
<text text-anchor="start" x="180.6" y="-511" font-family="Helvetica,sans-Serif" font-size="10.00">#</text>
<text text-anchor="start" x="193.6" y="-511" font-family="Helvetica,sans-Serif" font-size="10.00">virtual void Dispose</text>
<text text-anchor="start" x="193.6" y="-500" font-family="Helvetica,sans-Serif" font-size="10.00">(bool disposing)</text>
<text text-anchor="start" x="180.6" y="-485" font-family="Helvetica,sans-Serif" font-size="10.00">#</text>
<text text-anchor="start" x="193.6" y="-485" font-family="Helvetica,sans-Serif" font-size="10.00">void _Call(string method</text>
<text text-anchor="start" x="193.6" y="-474" font-family="Helvetica,sans-Serif" font-size="10.00">Name, params object[] args)</text>
<text text-anchor="start" x="180.6" y="-459" font-family="Helvetica,sans-Serif" font-size="10.00">#</text>
<text text-anchor="start" x="193.6" y="-459" font-family="Helvetica,sans-Serif" font-size="10.00">ReturnType _Call&lt; Return</text>
<text text-anchor="start" x="193.6" y="-448" font-family="Helvetica,sans-Serif" font-size="10.00">Type &gt;(string methodName,</text>
<text text-anchor="start" x="193.6" y="-437" font-family="Helvetica,sans-Serif" font-size="10.00"> params object[] args)</text>
<text text-anchor="start" x="180.6" y="-422" font-family="Helvetica,sans-Serif" font-size="10.00">#</text>
<text text-anchor="start" x="193.6" y="-422" font-family="Helvetica,sans-Serif" font-size="10.00">FieldType _Get&lt; FieldType</text>
<text text-anchor="start" x="193.6" y="-411" font-family="Helvetica,sans-Serif" font-size="10.00"> &gt;(string fieldName)</text>
<text text-anchor="start" x="180.6" y="-396" font-family="Helvetica,sans-Serif" font-size="10.00">#</text>
<text text-anchor="start" x="193.6" y="-396" font-family="Helvetica,sans-Serif" font-size="10.00">void _Set&lt; FieldType</text>
<text text-anchor="start" x="193.6" y="-385" font-family="Helvetica,sans-Serif" font-size="10.00"> &gt;(string fieldName,</text>
<text text-anchor="start" x="193.6" y="-374" font-family="Helvetica,sans-Serif" font-size="10.00"> FieldType val)</text>
<text text-anchor="start" x="180.6" y="-359" font-family="Helvetica,sans-Serif" font-size="10.00">#</text>
<text text-anchor="start" x="193.6" y="-359" font-family="Helvetica,sans-Serif" font-size="10.00">void _CallStatic(string</text>
<text text-anchor="start" x="193.6" y="-348" font-family="Helvetica,sans-Serif" font-size="10.00"> methodName, params object</text>
<text text-anchor="start" x="193.6" y="-337" font-family="Helvetica,sans-Serif" font-size="10.00">[] args)</text>
<text text-anchor="start" x="180.6" y="-322" font-family="Helvetica,sans-Serif" font-size="10.00">#</text>
<text text-anchor="start" x="193.6" y="-322" font-family="Helvetica,sans-Serif" font-size="10.00">ReturnType _CallStatic</text>
<text text-anchor="start" x="193.6" y="-311" font-family="Helvetica,sans-Serif" font-size="10.00">&lt; ReturnType &gt;(string</text>
<text text-anchor="start" x="193.6" y="-300" font-family="Helvetica,sans-Serif" font-size="10.00"> methodName, params object</text>
<text text-anchor="start" x="193.6" y="-289" font-family="Helvetica,sans-Serif" font-size="10.00">[] args)</text>
<text text-anchor="start" x="180.6" y="-274" font-family="Helvetica,sans-Serif" font-size="10.00">#</text>
<text text-anchor="start" x="193.6" y="-274" font-family="Helvetica,sans-Serif" font-size="10.00">FieldType _GetStatic</text>
<text text-anchor="start" x="193.6" y="-263" font-family="Helvetica,sans-Serif" font-size="10.00">&lt; FieldType &gt;(string</text>
<text text-anchor="start" x="193.6" y="-252" font-family="Helvetica,sans-Serif" font-size="10.00"> fieldName)</text>
<text text-anchor="start" x="180.6" y="-237" font-family="Helvetica,sans-Serif" font-size="10.00">#</text>
<text text-anchor="start" x="193.6" y="-237" font-family="Helvetica,sans-Serif" font-size="10.00">void _SetStatic&lt; FieldType</text>
<text text-anchor="start" x="193.6" y="-226" font-family="Helvetica,sans-Serif" font-size="10.00"> &gt;(string fieldName, FieldType val)</text>
<text text-anchor="start" x="180.6" y="-211" font-family="Helvetica,sans-Serif" font-size="10.00">#</text>
<text text-anchor="start" x="193.6" y="-211" font-family="Helvetica,sans-Serif" font-size="10.00">IntPtr _GetRawObject()</text>
<text text-anchor="start" x="180.6" y="-196" font-family="Helvetica,sans-Serif" font-size="10.00">#</text>
<text text-anchor="start" x="193.6" y="-196" font-family="Helvetica,sans-Serif" font-size="10.00">IntPtr _GetRawClass()</text>
<text text-anchor="start" x="183.1" y="-181" font-family="Helvetica,sans-Serif" font-size="10.00">&#45;</text>
<text text-anchor="start" x="193.6" y="-181" font-family="Helvetica,sans-Serif" font-size="10.00">void _AndroidJavaObject</text>
<text text-anchor="start" x="193.6" y="-170" font-family="Helvetica,sans-Serif" font-size="10.00">(string className, params</text>
<text text-anchor="start" x="193.6" y="-159" font-family="Helvetica,sans-Serif" font-size="10.00"> object[] args)</text>
<polygon fill="#666666" stroke="#666666" points="176.6,-1107 176.6,-1107 367.6,-1107 367.6,-1107 176.6,-1107"/>
<polygon fill="#666666" stroke="#666666" points="176.6,-1092 176.6,-1092 367.6,-1092 367.6,-1092 176.6,-1092"/>
<polygon fill="none" stroke="#666666" points="176.1,-152 176.1,-1124 367.1,-1124 367.1,-152 176.1,-152"/>
</a>
</g>
</g>
<!-- Node2&#45;&gt;Node5 -->
<g id="edge6_Node000005_Node000002" class="edge">
<title>Node2&#45;&gt;Node5</title>
<g id="a_edge6_Node000005_Node000002"><a xlink:title=" ">
<path fill="none" stroke="#63b8ff" d="M197.19,-1715.35C196.02,-1638.4 193.63,-1388.26 207.6,-1182 208.61,-1167.05 209.74,-1151.89 210.97,-1136.58"/>
<polygon fill="none" stroke="#63b8ff" points="211,-1136.24 207.51,-1129.94 211.98,-1124.28 215.48,-1130.59 211,-1136.24"/>
</a>
</g>
<text text-anchor="middle" x="257.6" y="-1237.5" font-family="Helvetica,sans-Serif" font-size="10.00" fill="grey"> &#45;enableDebugPrints</text>
</g>
<!-- Node7 -->
<g id="Node000007" class="node">
<title>Node7</title>
<g id="a_Node000007"><a xlink:href="../../de/d0e/classUnityEngine_1_1GlobalJavaObjectRef.html" target="_top" xlink:title=" ">
<polygon fill="white" stroke="transparent" points="493.1,-1298 316.1,-1298 316.1,-1182 493.1,-1182 493.1,-1298"/>
<text text-anchor="start" x="323.6" y="-1286" font-family="Helvetica,sans-Serif" font-size="10.00">UnityEngine.GlobalJavaObjectRef</text>
<text text-anchor="start" x="403.1" y="-1271" font-family="Helvetica,sans-Serif" font-size="10.00"> </text>
<text text-anchor="start" x="320.6" y="-1256" font-family="Helvetica,sans-Serif" font-size="10.00">+</text>
<text text-anchor="start" x="333.6" y="-1256" font-family="Helvetica,sans-Serif" font-size="10.00">GlobalJavaObjectRef</text>
<text text-anchor="start" x="333.6" y="-1245" font-family="Helvetica,sans-Serif" font-size="10.00">(IntPtr jobject)</text>
<text text-anchor="start" x="320.6" y="-1230" font-family="Helvetica,sans-Serif" font-size="10.00">+</text>
<text text-anchor="start" x="333.6" y="-1230" font-family="Helvetica,sans-Serif" font-size="10.00">void Dispose()</text>
<text text-anchor="start" x="320.6" y="-1215" font-family="Helvetica,sans-Serif" font-size="10.00">+</text>
<text text-anchor="start" x="333.6" y="-1215" font-family="Helvetica,sans-Serif" font-size="10.00">static implicit operator</text>
<text text-anchor="start" x="333.6" y="-1204" font-family="Helvetica,sans-Serif" font-size="10.00"> IntPtr(GlobalJavaObjectRef obj)</text>
<text text-anchor="start" x="320.6" y="-1189" font-family="Helvetica,sans-Serif" font-size="10.00">#</text>
<text text-anchor="start" x="333.6" y="-1189" font-family="Helvetica,sans-Serif" font-size="10.00">override void Finalize()</text>
<polygon fill="#666666" stroke="#666666" points="316.6,-1281 316.6,-1281 493.6,-1281 493.6,-1281 316.6,-1281"/>
<polygon fill="#666666" stroke="#666666" points="316.6,-1266 316.6,-1266 493.6,-1266 493.6,-1266 316.6,-1266"/>
<polygon fill="none" stroke="#666666" points="316.1,-1182 316.1,-1298 493.1,-1298 493.1,-1182 316.1,-1182"/>
</a>
</g>
</g>
<!-- Node2&#45;&gt;Node7 -->
<g id="edge8_Node000007_Node000002" class="edge">
<title>Node2&#45;&gt;Node7</title>
<g id="a_edge8_Node000007_Node000002"><a xlink:title=" ">
<path fill="none" stroke="#63b8ff" d="M196.48,-1715.22C194.55,-1650.61 196.56,-1468.39 271.6,-1345 280.82,-1329.84 293.12,-1316.04 306.52,-1303.79"/>
<polygon fill="none" stroke="#63b8ff" points="306.9,-1303.46 308.8,-1296.5 315.95,-1295.57 314.05,-1302.53 306.9,-1303.46"/>
</a>
</g>
<text text-anchor="middle" x="326.6" y="-1319" font-family="Helvetica,sans-Serif" font-size="10.00" fill="grey"> &#45;m_disposed</text>
</g>
<!-- Node3 -->
<g id="Node000003" class="node">
<title>Node3</title>
<g id="a_Node000003"><a xlink:title=" ">
<polygon fill="white" stroke="transparent" points="408.1,-662.5 385.1,-662.5 385.1,-613.5 408.1,-613.5 408.1,-662.5"/>
<text text-anchor="start" x="390.6" y="-650" font-family="Helvetica,sans-Serif" font-size="10.00">int</text>
<text text-anchor="start" x="395.1" y="-635" font-family="Helvetica,sans-Serif" font-size="10.00"> </text>
<text text-anchor="start" x="395.1" y="-620" font-family="Helvetica,sans-Serif" font-size="10.00"> </text>
<polygon fill="#666666" stroke="#666666" points="385.6,-645 385.6,-645 408.6,-645 408.6,-645 385.6,-645"/>
<polygon fill="#666666" stroke="#666666" points="385.6,-630 385.6,-630 408.6,-630 408.6,-630 385.6,-630"/>
<polygon fill="none" stroke="#666666" points="385.1,-613.5 385.1,-662.5 408.1,-662.5 408.1,-613.5 385.1,-613.5"/>
</a>
</g>
</g>
<!-- Node3&#45;&gt;Node1 -->
<g id="edge2_Node000001_Node000003" class="edge">
<title>Node3&#45;&gt;Node1</title>
<g id="a_edge2_Node000001_Node000003"><a xlink:title=" ">
<path fill="none" stroke="#63b8ff" d="M396.32,-613.43C395.45,-541.54 392.78,-318.7 390.6,-134 390.5,-125.17 390.39,-115.83 390.28,-106.69"/>
<polygon fill="none" stroke="#63b8ff" points="390.28,-106.42 386.21,-100.46 390.14,-94.42 394.21,-100.37 390.28,-106.42"/>
</a>
</g>
<text text-anchor="middle" x="410.6" y="-120.5" font-family="Helvetica,sans-Serif" font-size="10.00" fill="grey"> &#45;reason</text>
</g>
<!-- Node4 -->
<g id="Node000004" class="node">
<title>Node4</title>
<g id="a_Node000004"><a xlink:title=" ">
<polygon fill="white" stroke="transparent" points="471.6,-662.5 433.6,-662.5 433.6,-613.5 471.6,-613.5 471.6,-662.5"/>
<text text-anchor="start" x="438.6" y="-650" font-family="Helvetica,sans-Serif" font-size="10.00">string</text>
<text text-anchor="start" x="450.6" y="-635" font-family="Helvetica,sans-Serif" font-size="10.00"> </text>
<text text-anchor="start" x="450.6" y="-620" font-family="Helvetica,sans-Serif" font-size="10.00"> </text>
<polygon fill="#666666" stroke="#666666" points="433.6,-645 433.6,-645 471.6,-645 471.6,-645 433.6,-645"/>
<polygon fill="#666666" stroke="#666666" points="433.6,-630 433.6,-630 471.6,-630 471.6,-630 433.6,-630"/>
<polygon fill="none" stroke="#666666" points="433.6,-613.5 433.6,-662.5 471.6,-662.5 471.6,-613.5 433.6,-613.5"/>
</a>
</g>
</g>
<!-- Node4&#45;&gt;Node1 -->
<g id="edge3_Node000001_Node000004" class="edge">
<title>Node4&#45;&gt;Node1</title>
<g id="a_edge3_Node000001_Node000004"><a xlink:title=" ">
<path fill="none" stroke="#63b8ff" d="M455.87,-613.49C465.43,-538.26 489.17,-297.51 430.6,-112 429.89,-109.74 429.07,-107.47 428.17,-105.22"/>
<polygon fill="none" stroke="#63b8ff" points="428.08,-105.02 421.93,-101.26 423.04,-94.13 429.19,-97.9 428.08,-105.02"/>
</a>
</g>
<text text-anchor="middle" x="473.1" y="-126" font-family="Helvetica,sans-Serif" font-size="10.00" fill="grey"> &#45;packageName</text>
<text text-anchor="middle" x="473.1" y="-115" font-family="Helvetica,sans-Serif" font-size="10.00" fill="grey">&#45;result</text>
</g>
<!-- Node5&#45;&gt;Node1 -->
<g id="edge4_Node000001_Node000005" class="edge">
<title>Node5&#45;&gt;Node1</title>
<g id="a_edge4_Node000001_Node000005"><a xlink:title=" ">
<path fill="none" stroke="#63b8ff" d="M324.56,-151.68C329.19,-138.18 334.19,-124.93 339.6,-112 340.64,-109.52 341.8,-107.05 343.06,-104.6"/>
<polygon fill="none" stroke="#63b8ff" points="343.13,-104.48 342.68,-97.28 349.15,-94.09 349.6,-101.29 343.13,-104.48"/>
</a>
</g>
<text text-anchor="middle" x="362.6" y="-126" font-family="Helvetica,sans-Serif" font-size="10.00" fill="grey"> &#45;activity</text>
<text text-anchor="middle" x="362.6" y="-115" font-family="Helvetica,sans-Serif" font-size="10.00" fill="grey">&#45;lvlCheck</text>
</g>
<!-- Node6 -->
<g id="Node000006" class="node">
<title>Node6</title>
<g id="a_Node000006"><a xlink:href="../../d6/d32/interfaceSystem_1_1IDisposable.html" target="_top" xlink:title=" ">
<polygon fill="white" stroke="transparent" points="603.6,-1264.5 511.6,-1264.5 511.6,-1215.5 603.6,-1215.5 603.6,-1264.5"/>
<text text-anchor="start" x="528.6" y="-1252" font-family="Helvetica,sans-Serif" font-size="10.00">IDisposable</text>
<text text-anchor="start" x="555.6" y="-1237" font-family="Helvetica,sans-Serif" font-size="10.00"> </text>
<text text-anchor="start" x="515.6" y="-1222" font-family="Helvetica,sans-Serif" font-size="10.00">+</text>
<text text-anchor="start" x="528.6" y="-1222" font-family="Helvetica,sans-Serif" font-size="10.00">void Dispose()</text>
<polygon fill="#666666" stroke="#666666" points="511.6,-1247 511.6,-1247 603.6,-1247 603.6,-1247 511.6,-1247"/>
<polygon fill="#666666" stroke="#666666" points="511.6,-1232 511.6,-1232 603.6,-1232 603.6,-1232 511.6,-1232"/>
<polygon fill="none" stroke="#666666" points="511.6,-1215.5 511.6,-1264.5 603.6,-1264.5 603.6,-1215.5 511.6,-1215.5"/>
</a>
</g>
</g>
<!-- Node6&#45;&gt;Node5 -->
<g id="edge5_Node000005_Node000006" class="edge">
<title>Node6&#45;&gt;Node5</title>
<g id="a_edge5_Node000005_Node000006"><a xlink:title=" ">
<path fill="none" stroke="#63b8ff" d="M529.56,-1207.79C521.21,-1199.1 511.81,-1189.88 502.6,-1182 479.08,-1161.88 473.69,-1155 445.6,-1142 416.84,-1128.69 398.54,-1146.88 376.6,-1124 373.47,-1120.74 370.42,-1117.4 367.46,-1114"/>
<polygon fill="none" stroke="#63b8ff" points="527.19,-1210.38 536.6,-1215.25 532.28,-1205.57 527.19,-1210.38"/>
</a>
</g>
</g>
<!-- Node7&#45;&gt;Node5 -->
<g id="edge7_Node000005_Node000007" class="edge">
<title>Node7&#45;&gt;Node5</title>
<g id="a_edge7_Node000005_Node000007"><a xlink:title=" ">
<path fill="none" stroke="#63b8ff" d="M390.35,-1181.74C385.85,-1163.33 380.93,-1142.82 376.6,-1124 374.35,-1114.19 372.08,-1104.27 369.8,-1094.27"/>
<polygon fill="none" stroke="#63b8ff" points="369.79,-1094.19 364.56,-1089.22 367.13,-1082.49 372.36,-1087.45 369.79,-1094.19"/>
</a>
</g>
<text text-anchor="middle" x="413.1" y="-1156" font-family="Helvetica,sans-Serif" font-size="10.00" fill="grey"> ~m_jclass</text>
<text text-anchor="middle" x="413.1" y="-1145" font-family="Helvetica,sans-Serif" font-size="10.00" fill="grey">~m_jobject</text>
</g>
<!-- Node8 -->
<g id="Node000008" class="node">
<title>Node8</title>
<g id="a_Node000008"><a xlink:href="../../db/db4/structSystem_1_1IntPtr.html" target="_top" xlink:title=" ">
<polygon fill="white" stroke="transparent" points="529.1,-2135 280.1,-2135 280.1,-1345 529.1,-1345 529.1,-2135"/>
<text text-anchor="start" x="371.6" y="-2123" font-family="Helvetica,sans-Serif" font-size="10.00">System.IntPtr</text>
<text text-anchor="start" x="284.6" y="-2108" font-family="Helvetica,sans-Serif" font-size="10.00">+</text>
<text text-anchor="start" x="297.6" y="-2108" font-family="Helvetica,sans-Serif" font-size="10.00">static unsafe int Size</text>
<text text-anchor="start" x="284.6" y="-2093" font-family="Helvetica,sans-Serif" font-size="10.00">+</text>
<text text-anchor="start" x="297.6" y="-2093" font-family="Helvetica,sans-Serif" font-size="10.00">IntPtr(int value)</text>
<text text-anchor="start" x="284.6" y="-2078" font-family="Helvetica,sans-Serif" font-size="10.00">+</text>
<text text-anchor="start" x="297.6" y="-2078" font-family="Helvetica,sans-Serif" font-size="10.00">IntPtr(long value)</text>
<text text-anchor="start" x="284.6" y="-2063" font-family="Helvetica,sans-Serif" font-size="10.00">+</text>
<text text-anchor="start" x="297.6" y="-2063" font-family="Helvetica,sans-Serif" font-size="10.00">unsafe IntPtr(void</text>
<text text-anchor="start" x="297.6" y="-2052" font-family="Helvetica,sans-Serif" font-size="10.00"> *value)</text>
<text text-anchor="start" x="284.6" y="-2037" font-family="Helvetica,sans-Serif" font-size="10.00">+</text>
<text text-anchor="start" x="297.6" y="-2037" font-family="Helvetica,sans-Serif" font-size="10.00">override bool Equals</text>
<text text-anchor="start" x="297.6" y="-2026" font-family="Helvetica,sans-Serif" font-size="10.00">(object obj)</text>
<text text-anchor="start" x="284.6" y="-2011" font-family="Helvetica,sans-Serif" font-size="10.00">+</text>
<text text-anchor="start" x="297.6" y="-2011" font-family="Helvetica,sans-Serif" font-size="10.00">override int GetHashCode()</text>
<text text-anchor="start" x="284.6" y="-1996" font-family="Helvetica,sans-Serif" font-size="10.00">+</text>
<text text-anchor="start" x="297.6" y="-1996" font-family="Helvetica,sans-Serif" font-size="10.00">long ToInt64()</text>
<text text-anchor="start" x="284.6" y="-1981" font-family="Helvetica,sans-Serif" font-size="10.00">+</text>
<text text-anchor="start" x="297.6" y="-1981" font-family="Helvetica,sans-Serif" font-size="10.00">unsafe void * ToPointer()</text>
<text text-anchor="start" x="284.6" y="-1966" font-family="Helvetica,sans-Serif" font-size="10.00">+</text>
<text text-anchor="start" x="297.6" y="-1966" font-family="Helvetica,sans-Serif" font-size="10.00">override string ToString()</text>
<text text-anchor="start" x="284.6" y="-1951" font-family="Helvetica,sans-Serif" font-size="10.00">+</text>
<text text-anchor="start" x="297.6" y="-1951" font-family="Helvetica,sans-Serif" font-size="10.00">string ToString(string</text>
<text text-anchor="start" x="297.6" y="-1940" font-family="Helvetica,sans-Serif" font-size="10.00"> format)</text>
<text text-anchor="start" x="284.6" y="-1925" font-family="Helvetica,sans-Serif" font-size="10.00">+</text>
<text text-anchor="start" x="297.6" y="-1925" font-family="Helvetica,sans-Serif" font-size="10.00">static unsafe bool</text>
<text text-anchor="start" x="297.6" y="-1914" font-family="Helvetica,sans-Serif" font-size="10.00"> operator==(global::</text>
<text text-anchor="start" x="297.6" y="-1903" font-family="Helvetica,sans-Serif" font-size="10.00">System.IntPtr value1,</text>
<text text-anchor="start" x="297.6" y="-1892" font-family="Helvetica,sans-Serif" font-size="10.00"> global::System.IntPtr</text>
<text text-anchor="start" x="297.6" y="-1881" font-family="Helvetica,sans-Serif" font-size="10.00"> value2)</text>
<text text-anchor="start" x="284.6" y="-1866" font-family="Helvetica,sans-Serif" font-size="10.00">+</text>
<text text-anchor="start" x="297.6" y="-1866" font-family="Helvetica,sans-Serif" font-size="10.00">static unsafe bool</text>
<text text-anchor="start" x="297.6" y="-1855" font-family="Helvetica,sans-Serif" font-size="10.00"> operator!=(global::</text>
<text text-anchor="start" x="297.6" y="-1844" font-family="Helvetica,sans-Serif" font-size="10.00">System.IntPtr value1,</text>
<text text-anchor="start" x="297.6" y="-1833" font-family="Helvetica,sans-Serif" font-size="10.00"> global::System.IntPtr</text>
<text text-anchor="start" x="297.6" y="-1822" font-family="Helvetica,sans-Serif" font-size="10.00"> value2)</text>
<text text-anchor="start" x="284.6" y="-1807" font-family="Helvetica,sans-Serif" font-size="10.00">+</text>
<text text-anchor="start" x="297.6" y="-1807" font-family="Helvetica,sans-Serif" font-size="10.00">static operator global</text>
<text text-anchor="start" x="297.6" y="-1796" font-family="Helvetica,sans-Serif" font-size="10.00">::System.IntPtr(int value)</text>
<text text-anchor="start" x="284.6" y="-1781" font-family="Helvetica,sans-Serif" font-size="10.00">+</text>
<text text-anchor="start" x="297.6" y="-1781" font-family="Helvetica,sans-Serif" font-size="10.00">static operator global</text>
<text text-anchor="start" x="297.6" y="-1770" font-family="Helvetica,sans-Serif" font-size="10.00">::System.IntPtr(long value)</text>
<text text-anchor="start" x="284.6" y="-1755" font-family="Helvetica,sans-Serif" font-size="10.00">+</text>
<text text-anchor="start" x="297.6" y="-1755" font-family="Helvetica,sans-Serif" font-size="10.00">static unsafe operator</text>
<text text-anchor="start" x="297.6" y="-1744" font-family="Helvetica,sans-Serif" font-size="10.00"> global::System.IntPtr</text>
<text text-anchor="start" x="297.6" y="-1733" font-family="Helvetica,sans-Serif" font-size="10.00">(void *value)</text>
<text text-anchor="start" x="284.6" y="-1718" font-family="Helvetica,sans-Serif" font-size="10.00">+</text>
<text text-anchor="start" x="297.6" y="-1718" font-family="Helvetica,sans-Serif" font-size="10.00">static operator int</text>
<text text-anchor="start" x="297.6" y="-1707" font-family="Helvetica,sans-Serif" font-size="10.00">(global::System.IntPtr</text>
<text text-anchor="start" x="297.6" y="-1696" font-family="Helvetica,sans-Serif" font-size="10.00"> value)</text>
<text text-anchor="start" x="284.6" y="-1681" font-family="Helvetica,sans-Serif" font-size="10.00">+</text>
<text text-anchor="start" x="297.6" y="-1681" font-family="Helvetica,sans-Serif" font-size="10.00">static operator long</text>
<text text-anchor="start" x="297.6" y="-1670" font-family="Helvetica,sans-Serif" font-size="10.00">(global::System.IntPtr</text>
<text text-anchor="start" x="297.6" y="-1659" font-family="Helvetica,sans-Serif" font-size="10.00"> value)</text>
<text text-anchor="start" x="284.6" y="-1644" font-family="Helvetica,sans-Serif" font-size="10.00">+</text>
<text text-anchor="start" x="297.6" y="-1644" font-family="Helvetica,sans-Serif" font-size="10.00">static unsafe operator</text>
<text text-anchor="start" x="297.6" y="-1633" font-family="Helvetica,sans-Serif" font-size="10.00"> void *(global::System.IntPtr</text>
<text text-anchor="start" x="297.6" y="-1622" font-family="Helvetica,sans-Serif" font-size="10.00"> value)</text>
<text text-anchor="start" x="284.6" y="-1607" font-family="Helvetica,sans-Serif" font-size="10.00">+</text>
<text text-anchor="start" x="297.6" y="-1607" font-family="Helvetica,sans-Serif" font-size="10.00">static global::System.Int</text>
<text text-anchor="start" x="297.6" y="-1596" font-family="Helvetica,sans-Serif" font-size="10.00">Ptr Add(global::System.IntPtr</text>
<text text-anchor="start" x="297.6" y="-1585" font-family="Helvetica,sans-Serif" font-size="10.00"> pointer, int offset)</text>
<text text-anchor="start" x="284.6" y="-1570" font-family="Helvetica,sans-Serif" font-size="10.00">+</text>
<text text-anchor="start" x="297.6" y="-1570" font-family="Helvetica,sans-Serif" font-size="10.00">static global::System.Int</text>
<text text-anchor="start" x="297.6" y="-1559" font-family="Helvetica,sans-Serif" font-size="10.00">Ptr operator+(global::System.Int</text>
<text text-anchor="start" x="297.6" y="-1548" font-family="Helvetica,sans-Serif" font-size="10.00">Ptr pointer, int offset)</text>
<text text-anchor="start" x="284.6" y="-1533" font-family="Helvetica,sans-Serif" font-size="10.00">+</text>
<text text-anchor="start" x="297.6" y="-1533" font-family="Helvetica,sans-Serif" font-size="10.00">static global::System.Int</text>
<text text-anchor="start" x="297.6" y="-1522" font-family="Helvetica,sans-Serif" font-size="10.00">Ptr operator&#45;(global::System.Int</text>
<text text-anchor="start" x="297.6" y="-1511" font-family="Helvetica,sans-Serif" font-size="10.00">Ptr pointer, int offset)</text>
<text text-anchor="start" x="284.6" y="-1496" font-family="Helvetica,sans-Serif" font-size="10.00">~</text>
<text text-anchor="start" x="297.6" y="-1496" font-family="Helvetica,sans-Serif" font-size="10.00">bool IsNull()</text>
<text text-anchor="start" x="287.1" y="-1481" font-family="Helvetica,sans-Serif" font-size="10.00">&#45;</text>
<text text-anchor="start" x="297.6" y="-1481" font-family="Helvetica,sans-Serif" font-size="10.00">IntPtr(global::System.Runtime.</text>
<text text-anchor="start" x="297.6" y="-1470" font-family="Helvetica,sans-Serif" font-size="10.00">Serialization.SerializationInfo</text>
<text text-anchor="start" x="297.6" y="-1459" font-family="Helvetica,sans-Serif" font-size="10.00"> info, global::System.Runtime.Serialization.</text>
<text text-anchor="start" x="297.6" y="-1448" font-family="Helvetica,sans-Serif" font-size="10.00">StreamingContext context)</text>
<text text-anchor="start" x="287.1" y="-1433" font-family="Helvetica,sans-Serif" font-size="10.00">&#45;</text>
<text text-anchor="start" x="297.6" y="-1433" font-family="Helvetica,sans-Serif" font-size="10.00">void System.Runtime.Serialization.</text>
<text text-anchor="start" x="297.6" y="-1422" font-family="Helvetica,sans-Serif" font-size="10.00">ISerializable. GetObjectData</text>
<text text-anchor="start" x="297.6" y="-1411" font-family="Helvetica,sans-Serif" font-size="10.00">(global::System.Runtime.Serialization.</text>
<text text-anchor="start" x="297.6" y="-1400" font-family="Helvetica,sans-Serif" font-size="10.00">SerializationInfo info, global::System.Runtime.</text>
<text text-anchor="start" x="297.6" y="-1389" font-family="Helvetica,sans-Serif" font-size="10.00">Serialization.StreamingContext context)</text>
<text text-anchor="start" x="287.1" y="-1374" font-family="Helvetica,sans-Serif" font-size="10.00">&#45;</text>
<text text-anchor="start" x="297.6" y="-1374" font-family="Helvetica,sans-Serif" font-size="10.00">bool System.IEquatable</text>
<text text-anchor="start" x="297.6" y="-1363" font-family="Helvetica,sans-Serif" font-size="10.00">&lt; System.IntPtr &gt;. Equals</text>
<text text-anchor="start" x="297.6" y="-1352" font-family="Helvetica,sans-Serif" font-size="10.00">(global::System.IntPtr other)</text>
<polygon fill="#666666" stroke="#666666" points="280.6,-2118 280.6,-2118 529.6,-2118 529.6,-2118 280.6,-2118"/>
<polygon fill="#666666" stroke="#666666" points="280.6,-2103 280.6,-2103 295.6,-2103 295.6,-2103 280.6,-2103"/>
<polygon fill="#666666" stroke="#666666" points="295.6,-2103 295.6,-2103 529.6,-2103 529.6,-2103 295.6,-2103"/>
<polygon fill="none" stroke="#666666" points="280.1,-1345 280.1,-2135 529.1,-2135 529.1,-1345 280.1,-1345"/>
</a>
</g>
</g>
<!-- Node8&#45;&gt;Node7 -->
<g id="edge9_Node000007_Node000008" class="edge">
<title>Node8&#45;&gt;Node7</title>
<g id="a_edge9_Node000007_Node000008"><a xlink:title=" ">
<path fill="none" stroke="#63b8ff" d="M404.6,-1344.79C404.6,-1332.42 404.6,-1320.79 404.6,-1310.1"/>
<polygon fill="none" stroke="#63b8ff" points="404.6,-1310.01 400.6,-1304.01 404.6,-1298.01 408.6,-1304.01 404.6,-1310.01"/>
</a>
</g>
<text text-anchor="middle" x="434.6" y="-1319" font-family="Helvetica,sans-Serif" font-size="10.00" fill="grey"> #m_jobject</text>
</g>
<!-- Node8&#45;&gt;Node8 -->
<g id="edge13_Node000008_Node000008" class="edge">
<title>Node8&#45;&gt;Node8</title>
<g id="a_edge13_Node000008_Node000008"><a xlink:title=" ">
<path fill="none" stroke="#63b8ff" d="M529.19,-1801.72C540.2,-1788.74 547.1,-1768.17 547.1,-1740 547.1,-1718.22 542.97,-1700.97 536.01,-1688.27"/>
<polygon fill="none" stroke="#63b8ff" points="535.95,-1688.19 529.26,-1685.49 529.19,-1678.28 535.87,-1680.98 535.95,-1688.19"/>
</a>
</g>
<text text-anchor="middle" x="564.1" y="-1737.5" font-family="Helvetica,sans-Serif" font-size="10.00" fill="grey"> +Zero</text>
</g>
<!-- Node9 -->
<g id="Node000009" class="node">
<title>Node9</title>
<g id="a_Node000009"><a xlink:title=" ">
<polygon fill="white" stroke="transparent" points="319.1,-2242 176.1,-2242 176.1,-2182 319.1,-2182 319.1,-2242"/>
<text text-anchor="start" x="181.6" y="-2230" font-family="Helvetica,sans-Serif" font-size="10.00">global::SystemRuntime</text>
<text text-anchor="start" x="181.6" y="-2219" font-family="Helvetica,sans-Serif" font-size="10.00">::Serialization::ISerializable</text>
<text text-anchor="start" x="246.1" y="-2204" font-family="Helvetica,sans-Serif" font-size="10.00"> </text>
<text text-anchor="start" x="246.1" y="-2189" font-family="Helvetica,sans-Serif" font-size="10.00"> </text>
<polygon fill="#666666" stroke="#666666" points="176.6,-2214 176.6,-2214 319.6,-2214 319.6,-2214 176.6,-2214"/>
<polygon fill="#666666" stroke="#666666" points="176.6,-2199 176.6,-2199 319.6,-2199 319.6,-2199 176.6,-2199"/>
<polygon fill="none" stroke="#666666" points="176.1,-2182 176.1,-2242 319.1,-2242 319.1,-2182 176.1,-2182"/>
</a>
</g>
</g>
<!-- Node9&#45;&gt;Node8 -->
<g id="edge10_Node000008_Node000009" class="edge">
<title>Node9&#45;&gt;Node8</title>
<g id="a_edge10_Node000008_Node000009"><a xlink:title=" ">
<path fill="none" stroke="#63b8ff" d="M260.57,-2172.17C265.85,-2156.37 272.49,-2136.5 279.99,-2114.03"/>
<polygon fill="none" stroke="#63b8ff" points="257.15,-2171.36 257.3,-2181.95 263.79,-2173.58 257.15,-2171.36"/>
</a>
</g>
</g>
<!-- Node10 -->
<g id="Node000010" class="node">
<title>Node10</title>
<g id="a_Node000010"><a xlink:title=" ">
<polygon fill="white" stroke="transparent" points="472.1,-2242 337.1,-2242 337.1,-2182 472.1,-2182 472.1,-2242"/>
<text text-anchor="start" x="342.6" y="-2230" font-family="Helvetica,sans-Serif" font-size="10.00">global::SystemIEquatable</text>
<text text-anchor="start" x="342.6" y="-2219" font-family="Helvetica,sans-Serif" font-size="10.00">&lt; global::System.IntPtr &gt;</text>
<text text-anchor="start" x="403.1" y="-2204" font-family="Helvetica,sans-Serif" font-size="10.00"> </text>
<text text-anchor="start" x="403.1" y="-2189" font-family="Helvetica,sans-Serif" font-size="10.00"> </text>
<polygon fill="#666666" stroke="#666666" points="337.6,-2214 337.6,-2214 472.6,-2214 472.6,-2214 337.6,-2214"/>
<polygon fill="#666666" stroke="#666666" points="337.6,-2199 337.6,-2199 472.6,-2199 472.6,-2199 337.6,-2199"/>
<polygon fill="none" stroke="#666666" points="337.1,-2182 337.1,-2242 472.1,-2242 472.1,-2182 337.1,-2182"/>
</a>
</g>
</g>
<!-- Node10&#45;&gt;Node8 -->
<g id="edge11_Node000008_Node000010" class="edge">
<title>Node10&#45;&gt;Node8</title>
<g id="a_edge11_Node000008_Node000010"><a xlink:title=" ">
<path fill="none" stroke="#63b8ff" d="M404.6,-2171.68C404.6,-2161.2 404.6,-2148.96 404.6,-2135.37"/>
<polygon fill="none" stroke="#63b8ff" points="401.1,-2171.95 404.6,-2181.95 408.1,-2171.95 401.1,-2171.95"/>
</a>
</g>
</g>
<!-- Node11 -->
<g id="Node000011" class="node">
<title>Node11</title>
<g id="a_Node000011"><a xlink:title=" ">
<polygon fill="white" stroke="transparent" points="612.6,-2236.5 490.6,-2236.5 490.6,-2187.5 612.6,-2187.5 612.6,-2236.5"/>
<text text-anchor="start" x="495.6" y="-2224" font-family="Helvetica,sans-Serif" font-size="10.00">unsafe readonly void *</text>
<text text-anchor="start" x="549.6" y="-2209" font-family="Helvetica,sans-Serif" font-size="10.00"> </text>
<text text-anchor="start" x="549.6" y="-2194" font-family="Helvetica,sans-Serif" font-size="10.00"> </text>
<polygon fill="#666666" stroke="#666666" points="490.6,-2219 490.6,-2219 612.6,-2219 612.6,-2219 490.6,-2219"/>
<polygon fill="#666666" stroke="#666666" points="490.6,-2204 490.6,-2204 612.6,-2204 612.6,-2204 490.6,-2204"/>
<polygon fill="none" stroke="#666666" points="490.6,-2187.5 490.6,-2236.5 612.6,-2236.5 612.6,-2187.5 490.6,-2187.5"/>
</a>
</g>
</g>
<!-- Node11&#45;&gt;Node8 -->
<g id="edge12_Node000008_Node000011" class="edge">
<title>Node11&#45;&gt;Node8</title>
<g id="a_edge12_Node000008_Node000011"><a xlink:title=" ">
<path fill="none" stroke="#63b8ff" d="M544.21,-2187.37C540.88,-2176.71 536.54,-2162.84 531.47,-2146.63"/>
<polygon fill="none" stroke="#63b8ff" points="531.42,-2146.49 525.82,-2141.96 527.84,-2135.04 533.45,-2139.57 531.42,-2146.49"/>
</a>
</g>
<text text-anchor="middle" x="560.1" y="-2156" font-family="Helvetica,sans-Serif" font-size="10.00" fill="grey"> &#45;m_value</text>
</g>
<!-- Node12 -->
<g id="Node000012" class="node">
<title>Node12</title>
<g id="a_Node000012"><a xlink:title=" ">
<polygon fill="white" stroke="transparent" points="568.6,-662.5 536.6,-662.5 536.6,-613.5 568.6,-613.5 568.6,-662.5"/>
<text text-anchor="start" x="541.6" y="-650" font-family="Helvetica,sans-Serif" font-size="10.00">float</text>
<text text-anchor="start" x="550.6" y="-635" font-family="Helvetica,sans-Serif" font-size="10.00"> </text>
<text text-anchor="start" x="550.6" y="-620" font-family="Helvetica,sans-Serif" font-size="10.00"> </text>
<polygon fill="#666666" stroke="#666666" points="536.6,-645 536.6,-645 568.6,-645 568.6,-645 536.6,-645"/>
<polygon fill="#666666" stroke="#666666" points="536.6,-630 536.6,-630 568.6,-630 568.6,-630 536.6,-630"/>
<polygon fill="none" stroke="#666666" points="536.6,-613.5 536.6,-662.5 568.6,-662.5 568.6,-613.5 536.6,-613.5"/>
</a>
</g>
</g>
<!-- Node12&#45;&gt;Node1 -->
<g id="edge14_Node000001_Node000012" class="edge">
<title>Node12&#45;&gt;Node1</title>
<g id="a_edge14_Node000001_Node000012"><a xlink:title=" ">
<path fill="none" stroke="#63b8ff" d="M558.48,-613.24C576.59,-534.14 624.05,-275.53 515.6,-112 505.91,-97.38 491.8,-85.93 476.5,-77.03"/>
<polygon fill="none" stroke="#63b8ff" points="476.33,-76.94 469.15,-77.63 465.75,-71.26 472.93,-70.58 476.33,-76.94"/>
</a>
</g>
<text text-anchor="middle" x="551.1" y="-120.5" font-family="Helvetica,sans-Serif" font-size="10.00" fill="grey"> &#45;retryScale</text>
</g>
</g>
</svg>

<g id="navigator" transform="translate(0 0)" fill="#404254">
  <rect fill="#f2f5e9" fill-opacity="0.5" stroke="#606060" stroke-width=".5" x="0" y="0" width="60" height="60"/>
  <use id="zoomplus" xlink:href="#zoomPlus" x="17" y="9" onmousedown="handleZoom(evt,'in')"/>
  <use id="zoomminus" xlink:href="#zoomMin" x="42" y="9" onmousedown="handleZoom(evt,'out')"/>
  <use id="reset" xlink:href="#resetDef" x="30" y="36" onmousedown="handleReset()"/>
   <use id="arrowup" xlink:href="#arrowUp" x="0" y="0" onmousedown="handlePan(0,-1)"/>
  <use id="arrowright" xlink:href="#arrowRight" x="0" y="0" onmousedown="handlePan(1,0)"/>
  <use id="arrowdown" xlink:href="#arrowDown" x="0" y="0" onmousedown="handlePan(0,1)"/>
  <use id="arrowleft" xlink:href="#arrowLeft" x="0" y="0" onmousedown="handlePan(-1,0)"/>
</g>
<svg viewBox="0 0 15 15" width="100%" height="30px" preserveAspectRatio="xMaxYMin meet">
 <g id="arrow_out" transform="scale(0.3 0.3)">
  <a xlink:href="classGUILicenseCheck__coll__graph_org.svg" target="_base">
   <rect id="button" ry="5" rx="5" y="6" x="6" height="38" width="38"
        fill="#f2f5e9" fill-opacity="0.5" stroke="#606060" stroke-width="1.0"/>
   <path id="arrow"
     d="M 11.500037,31.436501 C 11.940474,20.09759 22.043105,11.32322 32.158766,21.979434 L 37.068811,17.246167 C 37.068811,17.246167 37.088388,32 37.088388,32 L 22.160133,31.978069 C 22.160133,31.978069 26.997745,27.140456 26.997745,27.140456 C 18.528582,18.264221 13.291696,25.230495 11.500037,31.436501 z"
     style="fill:#404040;"/>
  </a>
 </g>
</svg>

<style type='text/css'>
<![CDATA[
[data-mouse-over-selected='false'] { opacity: 0.7; }
[data-mouse-over-selected='true']  { opacity: 1.0; }
]]>
</style>
<script type="application/ecmascript"><![CDATA[
document.addEventListener('DOMContentLoaded', (event) => {
  highlightEdges();
  highlightAdjacentNodes();
});
]]></script>
</svg>
