<?xml version="1.0" encoding="UTF-8" standalone="no"?>
<!DOCTYPE svg PUBLIC "-//W3C//DTD SVG 1.1//EN"
 "http://www.w3.org/Graphics/SVG/1.1/DTD/svg11.dtd">
<!-- Generated by graphviz version 2.43.0 (0)
 -->
<!-- Title: Terraria.GameContent.Animations.Actions.NPCs.Move Pages: 1 -->
<svg width="571pt" height="1286pt"
 viewBox="0.00 0.00 570.50 1286.00" xmlns="http://www.w3.org/2000/svg" xmlns:xlink="http://www.w3.org/1999/xlink">
<g id="graph0" class="graph" transform="scale(1 1) rotate(0) translate(4 1282)">
<title>Terraria.GameContent.Animations.Actions.NPCs.Move</title>
<!-- Node1 -->
<g id="Node000001" class="node">
<title>Node1</title>
<g id="a_Node000001"><a xlink:title=" ">
<polygon fill="#999999" stroke="transparent" points="359,-149 180,-149 180,0 359,0 359,-149"/>
<text text-anchor="start" x="185.5" y="-136.5" font-family="Helvetica,sans-Serif" font-size="10.00">Terraria.GameContent.Animations.</text>
<text text-anchor="start" x="222.5" y="-125.5" font-family="Helvetica,sans-Serif" font-size="10.00">Actions.NPCs.Move</text>
<text text-anchor="start" x="187" y="-110.5" font-family="Helvetica,sans-Serif" font-size="10.00">+</text>
<text text-anchor="start" x="202.5" y="-110.5" font-family="Helvetica,sans-Serif" font-size="10.00">int ExpectedLengthOfAction</text>
<text text-anchor="start" x="202.5" y="-99.5" font-family="Helvetica,sans-Serif" font-size="10.00">InFrames</text>
<text text-anchor="start" x="187" y="-84.5" font-family="Helvetica,sans-Serif" font-size="10.00">+</text>
<text text-anchor="start" x="202.5" y="-84.5" font-family="Helvetica,sans-Serif" font-size="10.00">Move(Vector2 offsetPerFrame,</text>
<text text-anchor="start" x="202.5" y="-73.5" font-family="Helvetica,sans-Serif" font-size="10.00"> int durationInFrames)</text>
<text text-anchor="start" x="187" y="-58.5" font-family="Helvetica,sans-Serif" font-size="10.00">+</text>
<text text-anchor="start" x="202.5" y="-58.5" font-family="Helvetica,sans-Serif" font-size="10.00">void BindTo(NPC obj)</text>
<text text-anchor="start" x="187" y="-43.5" font-family="Helvetica,sans-Serif" font-size="10.00">+</text>
<text text-anchor="start" x="202.5" y="-43.5" font-family="Helvetica,sans-Serif" font-size="10.00">void SetDelay(float</text>
<text text-anchor="start" x="202.5" y="-32.5" font-family="Helvetica,sans-Serif" font-size="10.00"> delay)</text>
<text text-anchor="start" x="187" y="-17.5" font-family="Helvetica,sans-Serif" font-size="10.00">+</text>
<text text-anchor="start" x="202.5" y="-17.5" font-family="Helvetica,sans-Serif" font-size="10.00">void ApplyTo(NPC obj,</text>
<text text-anchor="start" x="202.5" y="-6.5" font-family="Helvetica,sans-Serif" font-size="10.00"> float localTimeForObj)</text>
<polygon fill="#666666" stroke="#666666" points="180.5,-120.5 180.5,-120.5 359.5,-120.5 359.5,-120.5 180.5,-120.5"/>
<polygon fill="#666666" stroke="#666666" points="180.5,-94.5 180.5,-94.5 200.5,-94.5 200.5,-94.5 180.5,-94.5"/>
<polygon fill="#666666" stroke="#666666" points="200.5,-94.5 200.5,-94.5 359.5,-94.5 359.5,-94.5 200.5,-94.5"/>
<polygon fill="none" stroke="#666666" points="180,0 180,-149 359,-149 359,0 180,0"/>
</a>
</g>
</g>
<!-- Node2 -->
<g id="Node000002" class="node">
<title>Node2</title>
<g id="a_Node000002"><a xlink:href="../../de/d2f/interfaceTerraria_1_1GameContent_1_1Animations_1_1Actions_1_1NPCs_1_1INPCAction.html" target="_top" xlink:title=" ">
<polygon fill="white" stroke="transparent" points="160,-586 95,-586 95,-537 160,-537 160,-586"/>
<text text-anchor="start" x="100.5" y="-573.5" font-family="Helvetica,sans-Serif" font-size="10.00">INPCAction</text>
<text text-anchor="start" x="126" y="-558.5" font-family="Helvetica,sans-Serif" font-size="10.00"> </text>
<text text-anchor="start" x="126" y="-543.5" font-family="Helvetica,sans-Serif" font-size="10.00"> </text>
<polygon fill="#666666" stroke="#666666" points="95.5,-568.5 95.5,-568.5 160.5,-568.5 160.5,-568.5 95.5,-568.5"/>
<polygon fill="#666666" stroke="#666666" points="95.5,-553.5 95.5,-553.5 160.5,-553.5 160.5,-553.5 95.5,-553.5"/>
<polygon fill="none" stroke="#666666" points="95,-537 95,-586 160,-586 160,-537 95,-537"/>
</a>
</g>
</g>
<!-- Node2&#45;&gt;Node1 -->
<g id="edge1_Node000001_Node000002" class="edge">
<title>Node2&#45;&gt;Node1</title>
<g id="a_edge1_Node000001_Node000002"><a xlink:title=" ">
<path fill="none" stroke="#63b8ff" d="M124.97,-526.41C121.38,-459.89 119.92,-309.39 168.5,-196 175.54,-179.57 185.59,-163.65 196.65,-149.07"/>
<polygon fill="none" stroke="#63b8ff" points="121.5,-526.94 125.58,-536.71 128.49,-526.52 121.5,-526.94"/>
</a>
</g>
</g>
<!-- Node3 -->
<g id="Node000003" class="node">
<title>Node3</title>
<g id="a_Node000003"><a xlink:href="../../d1/d86/interfaceTerraria_1_1GameContent_1_1Animations_1_1IAnimationSegmentAction.html" target="_top" xlink:title=" ">
<polygon fill="white" stroke="transparent" points="168,-1108 11,-1108 11,-985 168,-985 168,-1108"/>
<text text-anchor="start" x="26" y="-1095.5" font-family="Helvetica,sans-Serif" font-size="10.00">IAnimationSegmentAction</text>
<text text-anchor="start" x="68.5" y="-1084.5" font-family="Helvetica,sans-Serif" font-size="10.00">&lt; NPC &gt;</text>
<text text-anchor="start" x="15.5" y="-1069.5" font-family="Helvetica,sans-Serif" font-size="10.00">+</text>
<text text-anchor="start" x="28.5" y="-1069.5" font-family="Helvetica,sans-Serif" font-size="10.00">int ExpectedLengthOfAction</text>
<text text-anchor="start" x="28.5" y="-1058.5" font-family="Helvetica,sans-Serif" font-size="10.00">InFrames</text>
<text text-anchor="start" x="15.5" y="-1043.5" font-family="Helvetica,sans-Serif" font-size="10.00">+</text>
<text text-anchor="start" x="28.5" y="-1043.5" font-family="Helvetica,sans-Serif" font-size="10.00">void BindTo(T obj)</text>
<text text-anchor="start" x="15.5" y="-1028.5" font-family="Helvetica,sans-Serif" font-size="10.00">+</text>
<text text-anchor="start" x="28.5" y="-1028.5" font-family="Helvetica,sans-Serif" font-size="10.00">void ApplyTo(T obj,</text>
<text text-anchor="start" x="28.5" y="-1017.5" font-family="Helvetica,sans-Serif" font-size="10.00"> float localTimeForObj)</text>
<text text-anchor="start" x="15.5" y="-1002.5" font-family="Helvetica,sans-Serif" font-size="10.00">+</text>
<text text-anchor="start" x="28.5" y="-1002.5" font-family="Helvetica,sans-Serif" font-size="10.00">void SetDelay(float</text>
<text text-anchor="start" x="28.5" y="-991.5" font-family="Helvetica,sans-Serif" font-size="10.00"> delay)</text>
<polygon fill="#666666" stroke="#666666" points="11.5,-1079.5 11.5,-1079.5 168.5,-1079.5 168.5,-1079.5 11.5,-1079.5"/>
<polygon fill="#666666" stroke="#666666" points="11.5,-1053.5 11.5,-1053.5 26.5,-1053.5 26.5,-1053.5 11.5,-1053.5"/>
<polygon fill="#666666" stroke="#666666" points="26.5,-1053.5 26.5,-1053.5 168.5,-1053.5 168.5,-1053.5 26.5,-1053.5"/>
<polygon fill="none" stroke="#666666" points="11,-985 11,-1108 168,-1108 168,-985 11,-985"/>
</a>
</g>
</g>
<!-- Node3&#45;&gt;Node1 -->
<g id="edge4_Node000001_Node000003" class="edge">
<title>Node3&#45;&gt;Node1</title>
<g id="a_edge4_Node000001_Node000003"><a xlink:title=" ">
<path fill="none" stroke="#63b8ff" d="M67.93,-975.2C25.39,-822.5 -53.71,-453.57 85.5,-196 105.83,-158.38 143.59,-130.61 179.64,-111.27"/>
<polygon fill="none" stroke="#63b8ff" points="64.59,-976.27 70.68,-984.94 71.33,-974.37 64.59,-976.27"/>
</a>
</g>
</g>
<!-- Node3&#45;&gt;Node2 -->
<g id="edge2_Node000002_Node000003" class="edge">
<title>Node3&#45;&gt;Node2</title>
<g id="a_edge2_Node000002_Node000003"><a xlink:title=" ">
<path fill="none" stroke="#63b8ff" d="M95.07,-974.76C103.76,-864.26 120.14,-656.08 125.64,-586.12"/>
<polygon fill="none" stroke="#63b8ff" points="91.57,-974.57 94.27,-984.82 98.55,-975.12 91.57,-974.57"/>
</a>
</g>
</g>
<!-- Node4 -->
<g id="Node000004" class="node">
<title>Node4</title>
<g id="a_Node000004"><a xlink:href="../../d1/d86/interfaceTerraria_1_1GameContent_1_1Animations_1_1IAnimationSegmentAction.html" target="_top" xlink:title=" ">
<polygon fill="white" stroke="transparent" points="179,-1278 0,-1278 0,-1155 179,-1155 179,-1278"/>
<text text-anchor="start" x="5.5" y="-1265.5" font-family="Helvetica,sans-Serif" font-size="10.00">Terraria.GameContent.Animations.</text>
<text text-anchor="start" x="11.5" y="-1254.5" font-family="Helvetica,sans-Serif" font-size="10.00">IAnimationSegmentAction&lt; T &gt;</text>
<text text-anchor="start" x="10" y="-1239.5" font-family="Helvetica,sans-Serif" font-size="10.00">+</text>
<text text-anchor="start" x="28.5" y="-1239.5" font-family="Helvetica,sans-Serif" font-size="10.00">int ExpectedLengthOfAction</text>
<text text-anchor="start" x="28.5" y="-1228.5" font-family="Helvetica,sans-Serif" font-size="10.00">InFrames</text>
<text text-anchor="start" x="10" y="-1213.5" font-family="Helvetica,sans-Serif" font-size="10.00">+</text>
<text text-anchor="start" x="28.5" y="-1213.5" font-family="Helvetica,sans-Serif" font-size="10.00">void BindTo(T obj)</text>
<text text-anchor="start" x="10" y="-1198.5" font-family="Helvetica,sans-Serif" font-size="10.00">+</text>
<text text-anchor="start" x="28.5" y="-1198.5" font-family="Helvetica,sans-Serif" font-size="10.00">void ApplyTo(T obj,</text>
<text text-anchor="start" x="28.5" y="-1187.5" font-family="Helvetica,sans-Serif" font-size="10.00"> float localTimeForObj)</text>
<text text-anchor="start" x="10" y="-1172.5" font-family="Helvetica,sans-Serif" font-size="10.00">+</text>
<text text-anchor="start" x="28.5" y="-1172.5" font-family="Helvetica,sans-Serif" font-size="10.00">void SetDelay(float</text>
<text text-anchor="start" x="28.5" y="-1161.5" font-family="Helvetica,sans-Serif" font-size="10.00"> delay)</text>
<polygon fill="#666666" stroke="#666666" points="0.5,-1249.5 0.5,-1249.5 179.5,-1249.5 179.5,-1249.5 0.5,-1249.5"/>
<polygon fill="#666666" stroke="#666666" points="0.5,-1223.5 0.5,-1223.5 26.5,-1223.5 26.5,-1223.5 0.5,-1223.5"/>
<polygon fill="#666666" stroke="#666666" points="26.5,-1223.5 26.5,-1223.5 179.5,-1223.5 179.5,-1223.5 26.5,-1223.5"/>
<polygon fill="none" stroke="#666666" points="0,-1155 0,-1278 179,-1278 179,-1155 0,-1155"/>
</a>
</g>
</g>
<!-- Node4&#45;&gt;Node3 -->
<g id="edge3_Node000003_Node000004" class="edge">
<title>Node4&#45;&gt;Node3</title>
<g id="a_edge3_Node000003_Node000004"><a xlink:title=" ">
<path fill="none" stroke="orange" d="M89.5,-1144.72C89.5,-1132.53 89.5,-1119.95 89.5,-1108.06"/>
<polygon fill="orange" stroke="orange" points="86,-1144.85 89.5,-1154.85 93,-1144.85 86,-1144.85"/>
</a>
</g>
<text text-anchor="middle" x="112.5" y="-1129" font-family="Helvetica,sans-Serif" font-size="10.00" fill="grey"> &lt; NPC &gt;</text>
</g>
<!-- Node5 -->
<g id="Node000005" class="node">
<title>Node5</title>
<g id="a_Node000005"><a xlink:href="../../dd/da4/structMicrosoft_1_1Xna_1_1Framework_1_1Vector2.html" target="_top" xlink:title=" ">
<polygon fill="white" stroke="transparent" points="361,-927 178,-927 178,-196 361,-196 361,-927"/>
<text text-anchor="start" x="206" y="-914.5" font-family="Helvetica,sans-Serif" font-size="10.00">Microsoft.Xna.Framework.</text>
<text text-anchor="start" x="251.5" y="-903.5" font-family="Helvetica,sans-Serif" font-size="10.00">Vector2</text>
<text text-anchor="start" x="182.5" y="-888.5" font-family="Helvetica,sans-Serif" font-size="10.00">+</text>
<text text-anchor="start" x="195.5" y="-888.5" font-family="Helvetica,sans-Serif" font-size="10.00">static Vector2 Zero</text>
<text text-anchor="start" x="182.5" y="-873.5" font-family="Helvetica,sans-Serif" font-size="10.00">+</text>
<text text-anchor="start" x="195.5" y="-873.5" font-family="Helvetica,sans-Serif" font-size="10.00">static Vector2 One</text>
<text text-anchor="start" x="182.5" y="-858.5" font-family="Helvetica,sans-Serif" font-size="10.00">+</text>
<text text-anchor="start" x="195.5" y="-858.5" font-family="Helvetica,sans-Serif" font-size="10.00">static Vector2 UnitX</text>
<text text-anchor="start" x="182.5" y="-843.5" font-family="Helvetica,sans-Serif" font-size="10.00">+</text>
<text text-anchor="start" x="195.5" y="-843.5" font-family="Helvetica,sans-Serif" font-size="10.00">static Vector2 UnitY</text>
<text text-anchor="start" x="182.5" y="-828.5" font-family="Helvetica,sans-Serif" font-size="10.00">+</text>
<text text-anchor="start" x="195.5" y="-828.5" font-family="Helvetica,sans-Serif" font-size="10.00">Vector2(float x, float y)</text>
<text text-anchor="start" x="182.5" y="-813.5" font-family="Helvetica,sans-Serif" font-size="10.00">+</text>
<text text-anchor="start" x="195.5" y="-813.5" font-family="Helvetica,sans-Serif" font-size="10.00">Vector2(float value)</text>
<text text-anchor="start" x="182.5" y="-798.5" font-family="Helvetica,sans-Serif" font-size="10.00">+</text>
<text text-anchor="start" x="195.5" y="-798.5" font-family="Helvetica,sans-Serif" font-size="10.00">override bool Equals</text>
<text text-anchor="start" x="195.5" y="-787.5" font-family="Helvetica,sans-Serif" font-size="10.00">(object obj)</text>
<text text-anchor="start" x="182.5" y="-772.5" font-family="Helvetica,sans-Serif" font-size="10.00">+</text>
<text text-anchor="start" x="195.5" y="-772.5" font-family="Helvetica,sans-Serif" font-size="10.00">bool Equals(Vector2</text>
<text text-anchor="start" x="195.5" y="-761.5" font-family="Helvetica,sans-Serif" font-size="10.00"> other)</text>
<text text-anchor="start" x="182.5" y="-746.5" font-family="Helvetica,sans-Serif" font-size="10.00">+</text>
<text text-anchor="start" x="195.5" y="-746.5" font-family="Helvetica,sans-Serif" font-size="10.00">override int GetHashCode()</text>
<text text-anchor="start" x="182.5" y="-731.5" font-family="Helvetica,sans-Serif" font-size="10.00">+</text>
<text text-anchor="start" x="195.5" y="-731.5" font-family="Helvetica,sans-Serif" font-size="10.00">float Length()</text>
<text text-anchor="start" x="182.5" y="-716.5" font-family="Helvetica,sans-Serif" font-size="10.00">+</text>
<text text-anchor="start" x="195.5" y="-716.5" font-family="Helvetica,sans-Serif" font-size="10.00">float LengthSquared()</text>
<text text-anchor="start" x="182.5" y="-701.5" font-family="Helvetica,sans-Serif" font-size="10.00">+</text>
<text text-anchor="start" x="195.5" y="-701.5" font-family="Helvetica,sans-Serif" font-size="10.00">void Normalize()</text>
<text text-anchor="start" x="182.5" y="-686.5" font-family="Helvetica,sans-Serif" font-size="10.00">+</text>
<text text-anchor="start" x="195.5" y="-686.5" font-family="Helvetica,sans-Serif" font-size="10.00">override string ToString()</text>
<text text-anchor="start" x="182.5" y="-671.5" font-family="Helvetica,sans-Serif" font-size="10.00">+</text>
<text text-anchor="start" x="195.5" y="-671.5" font-family="Helvetica,sans-Serif" font-size="10.00">static void Reflect</text>
<text text-anchor="start" x="195.5" y="-660.5" font-family="Helvetica,sans-Serif" font-size="10.00">(ref Vector2 vector,</text>
<text text-anchor="start" x="195.5" y="-649.5" font-family="Helvetica,sans-Serif" font-size="10.00"> ref Vector2 normal,</text>
<text text-anchor="start" x="195.5" y="-638.5" font-family="Helvetica,sans-Serif" font-size="10.00"> out Vector2 result)</text>
<text text-anchor="start" x="182.5" y="-623.5" font-family="Helvetica,sans-Serif" font-size="10.00">+</text>
<text text-anchor="start" x="195.5" y="-623.5" font-family="Helvetica,sans-Serif" font-size="10.00">static Vector2 Reflect</text>
<text text-anchor="start" x="195.5" y="-612.5" font-family="Helvetica,sans-Serif" font-size="10.00">(Vector2 vector, Vector2</text>
<text text-anchor="start" x="195.5" y="-601.5" font-family="Helvetica,sans-Serif" font-size="10.00"> normal)</text>
<text text-anchor="start" x="182.5" y="-586.5" font-family="Helvetica,sans-Serif" font-size="10.00">+</text>
<text text-anchor="start" x="195.5" y="-586.5" font-family="Helvetica,sans-Serif" font-size="10.00">static Vector2 Add</text>
<text text-anchor="start" x="195.5" y="-575.5" font-family="Helvetica,sans-Serif" font-size="10.00">(Vector2 value1, Vector2</text>
<text text-anchor="start" x="195.5" y="-564.5" font-family="Helvetica,sans-Serif" font-size="10.00"> value2)</text>
<text text-anchor="start" x="182.5" y="-549.5" font-family="Helvetica,sans-Serif" font-size="10.00">+</text>
<text text-anchor="start" x="195.5" y="-549.5" font-family="Helvetica,sans-Serif" font-size="10.00">static void Add(ref</text>
<text text-anchor="start" x="195.5" y="-538.5" font-family="Helvetica,sans-Serif" font-size="10.00"> Vector2 value1, ref</text>
<text text-anchor="start" x="195.5" y="-527.5" font-family="Helvetica,sans-Serif" font-size="10.00"> Vector2 value2, out</text>
<text text-anchor="start" x="195.5" y="-516.5" font-family="Helvetica,sans-Serif" font-size="10.00"> Vector2 result)</text>
<text text-anchor="start" x="182.5" y="-501.5" font-family="Helvetica,sans-Serif" font-size="10.00">+</text>
<text text-anchor="start" x="195.5" y="-501.5" font-family="Helvetica,sans-Serif" font-size="10.00">static Vector2 Barycentric</text>
<text text-anchor="start" x="195.5" y="-490.5" font-family="Helvetica,sans-Serif" font-size="10.00">(Vector2 value1, Vector2</text>
<text text-anchor="start" x="195.5" y="-479.5" font-family="Helvetica,sans-Serif" font-size="10.00"> value2, Vector2 value3,</text>
<text text-anchor="start" x="195.5" y="-468.5" font-family="Helvetica,sans-Serif" font-size="10.00"> float amount1, float amount2)</text>
<text text-anchor="start" x="182.5" y="-453.5" font-family="Helvetica,sans-Serif" font-size="10.00">+</text>
<text text-anchor="start" x="195.5" y="-453.5" font-family="Helvetica,sans-Serif" font-size="10.00">static void Barycentric</text>
<text text-anchor="start" x="195.5" y="-442.5" font-family="Helvetica,sans-Serif" font-size="10.00">(ref Vector2 value1, ref</text>
<text text-anchor="start" x="195.5" y="-431.5" font-family="Helvetica,sans-Serif" font-size="10.00"> Vector2 value2, ref Vector2</text>
<text text-anchor="start" x="195.5" y="-420.5" font-family="Helvetica,sans-Serif" font-size="10.00"> value3, float amount1, float</text>
<text text-anchor="start" x="195.5" y="-409.5" font-family="Helvetica,sans-Serif" font-size="10.00"> amount2, out Vector2 result)</text>
<text text-anchor="start" x="182.5" y="-394.5" font-family="Helvetica,sans-Serif" font-size="10.00">+</text>
<text text-anchor="start" x="195.5" y="-394.5" font-family="Helvetica,sans-Serif" font-size="10.00">static Vector2 CatmullRom</text>
<text text-anchor="start" x="195.5" y="-383.5" font-family="Helvetica,sans-Serif" font-size="10.00">(Vector2 value1, Vector2</text>
<text text-anchor="start" x="195.5" y="-372.5" font-family="Helvetica,sans-Serif" font-size="10.00"> value2, Vector2 value3,</text>
<text text-anchor="start" x="195.5" y="-361.5" font-family="Helvetica,sans-Serif" font-size="10.00"> Vector2 value4, float amount)</text>
<text text-anchor="start" x="182.5" y="-346.5" font-family="Helvetica,sans-Serif" font-size="10.00">+</text>
<text text-anchor="start" x="195.5" y="-346.5" font-family="Helvetica,sans-Serif" font-size="10.00">static void CatmullRom</text>
<text text-anchor="start" x="195.5" y="-335.5" font-family="Helvetica,sans-Serif" font-size="10.00">(ref Vector2 value1, ref</text>
<text text-anchor="start" x="195.5" y="-324.5" font-family="Helvetica,sans-Serif" font-size="10.00"> Vector2 value2, ref Vector2</text>
<text text-anchor="start" x="195.5" y="-313.5" font-family="Helvetica,sans-Serif" font-size="10.00"> value3, ref Vector2 value4,</text>
<text text-anchor="start" x="195.5" y="-302.5" font-family="Helvetica,sans-Serif" font-size="10.00"> float amount, out Vector2 result)</text>
<text text-anchor="start" x="182.5" y="-287.5" font-family="Helvetica,sans-Serif" font-size="10.00">+</text>
<text text-anchor="start" x="195.5" y="-287.5" font-family="Helvetica,sans-Serif" font-size="10.00">static Vector2 Clamp</text>
<text text-anchor="start" x="195.5" y="-276.5" font-family="Helvetica,sans-Serif" font-size="10.00">(Vector2 value1, Vector2</text>
<text text-anchor="start" x="195.5" y="-265.5" font-family="Helvetica,sans-Serif" font-size="10.00"> min, Vector2 max)</text>
<text text-anchor="start" x="182.5" y="-250.5" font-family="Helvetica,sans-Serif" font-size="10.00">+</text>
<text text-anchor="start" x="195.5" y="-250.5" font-family="Helvetica,sans-Serif" font-size="10.00">static void Clamp(ref</text>
<text text-anchor="start" x="195.5" y="-239.5" font-family="Helvetica,sans-Serif" font-size="10.00"> Vector2 value1, ref</text>
<text text-anchor="start" x="195.5" y="-228.5" font-family="Helvetica,sans-Serif" font-size="10.00"> Vector2 min, ref Vector2</text>
<text text-anchor="start" x="195.5" y="-217.5" font-family="Helvetica,sans-Serif" font-size="10.00"> max, out Vector2 result)</text>
<text text-anchor="start" x="195.5" y="-202.5" font-family="Helvetica,sans-Serif" font-size="10.00">and 52 more...</text>
<polygon fill="#666666" stroke="#666666" points="178.5,-898.5 178.5,-898.5 361.5,-898.5 361.5,-898.5 178.5,-898.5"/>
<polygon fill="#666666" stroke="#666666" points="178.5,-838.5 178.5,-838.5 193.5,-838.5 193.5,-838.5 178.5,-838.5"/>
<polygon fill="#666666" stroke="#666666" points="193.5,-838.5 193.5,-838.5 361.5,-838.5 361.5,-838.5 193.5,-838.5"/>
<polygon fill="none" stroke="#666666" points="178,-196 178,-927 361,-927 361,-196 178,-196"/>
</a>
</g>
</g>
<!-- Node5&#45;&gt;Node1 -->
<g id="edge5_Node000001_Node000005" class="edge">
<title>Node5&#45;&gt;Node1</title>
<g id="a_edge5_Node000001_Node000005"><a xlink:title=" ">
<path fill="none" stroke="#63b8ff" d="M269.5,-195.7C269.5,-183.68 269.5,-172.2 269.5,-161.44"/>
<polygon fill="none" stroke="#63b8ff" points="269.5,-161.15 265.5,-155.15 269.5,-149.15 273.5,-155.15 269.5,-161.15"/>
</a>
</g>
<text text-anchor="middle" x="313" y="-170" font-family="Helvetica,sans-Serif" font-size="10.00" fill="grey"> &#45;_offsetPerFrame</text>
</g>
<!-- Node5&#45;&gt;Node5 -->
<g id="edge7_Node000005_Node000005" class="edge">
<title>Node5&#45;&gt;Node5</title>
<g id="a_edge7_Node000005_Node000005"><a xlink:title=" ">
<path fill="none" stroke="#63b8ff" d="M361.36,-623.59C372.05,-612.13 379,-591.43 379,-561.5 379,-538.82 375.01,-521.44 368.42,-509.36"/>
<polygon fill="none" stroke="#63b8ff" points="368.31,-509.2 361.57,-506.62 361.36,-499.41 368.1,-501.99 368.31,-509.2"/>
</a>
</g>
<text text-anchor="middle" x="409.5" y="-575.5" font-family="Helvetica,sans-Serif" font-size="10.00" fill="grey"> &#45;unitVector</text>
<text text-anchor="middle" x="409.5" y="-564.5" font-family="Helvetica,sans-Serif" font-size="10.00" fill="grey">&#45;unitXVector</text>
<text text-anchor="middle" x="409.5" y="-553.5" font-family="Helvetica,sans-Serif" font-size="10.00" fill="grey">&#45;unitYVector</text>
<text text-anchor="middle" x="409.5" y="-542.5" font-family="Helvetica,sans-Serif" font-size="10.00" fill="grey">&#45;zeroVector</text>
</g>
<!-- Node6 -->
<g id="Node000006" class="node">
<title>Node6</title>
<g id="a_Node000006"><a xlink:href="../../d9/d1c/classIEquatable.html" target="_top" xlink:title=" ">
<polygon fill="white" stroke="transparent" points="330.5,-1071 208.5,-1071 208.5,-1022 330.5,-1022 330.5,-1071"/>
<text text-anchor="start" x="213.5" y="-1058.5" font-family="Helvetica,sans-Serif" font-size="10.00">IEquatable&lt; Vector2 &gt;</text>
<text text-anchor="start" x="267.5" y="-1043.5" font-family="Helvetica,sans-Serif" font-size="10.00"> </text>
<text text-anchor="start" x="267.5" y="-1028.5" font-family="Helvetica,sans-Serif" font-size="10.00"> </text>
<polygon fill="#666666" stroke="#666666" points="208.5,-1053.5 208.5,-1053.5 330.5,-1053.5 330.5,-1053.5 208.5,-1053.5"/>
<polygon fill="#666666" stroke="#666666" points="208.5,-1038.5 208.5,-1038.5 330.5,-1038.5 330.5,-1038.5 208.5,-1038.5"/>
<polygon fill="none" stroke="#666666" points="208.5,-1022 208.5,-1071 330.5,-1071 330.5,-1022 208.5,-1022"/>
</a>
</g>
</g>
<!-- Node6&#45;&gt;Node5 -->
<g id="edge6_Node000005_Node000006" class="edge">
<title>Node6&#45;&gt;Node5</title>
<g id="a_edge6_Node000005_Node000006"><a xlink:title=" ">
<path fill="none" stroke="#63b8ff" d="M269.5,-1011.66C269.5,-990.62 269.5,-961.14 269.5,-927.24"/>
<polygon fill="none" stroke="#63b8ff" points="266,-1011.88 269.5,-1021.88 273,-1011.88 266,-1011.88"/>
</a>
</g>
</g>
<!-- Node7 -->
<g id="Node000007" class="node">
<title>Node7</title>
<g id="a_Node000007"><a xlink:title=" ">
<polygon fill="white" stroke="transparent" points="440.5,-1071 408.5,-1071 408.5,-1022 440.5,-1022 440.5,-1071"/>
<text text-anchor="start" x="413.5" y="-1058.5" font-family="Helvetica,sans-Serif" font-size="10.00">float</text>
<text text-anchor="start" x="422.5" y="-1043.5" font-family="Helvetica,sans-Serif" font-size="10.00"> </text>
<text text-anchor="start" x="422.5" y="-1028.5" font-family="Helvetica,sans-Serif" font-size="10.00"> </text>
<polygon fill="#666666" stroke="#666666" points="408.5,-1053.5 408.5,-1053.5 440.5,-1053.5 440.5,-1053.5 408.5,-1053.5"/>
<polygon fill="#666666" stroke="#666666" points="408.5,-1038.5 408.5,-1038.5 440.5,-1038.5 440.5,-1038.5 408.5,-1038.5"/>
<polygon fill="none" stroke="#666666" points="408.5,-1022 408.5,-1071 440.5,-1071 440.5,-1022 408.5,-1022"/>
</a>
</g>
</g>
<!-- Node7&#45;&gt;Node1 -->
<g id="edge10_Node000001_Node000007" class="edge">
<title>Node7&#45;&gt;Node1</title>
<g id="a_edge10_Node000001_Node000007"><a xlink:title=" ">
<path fill="none" stroke="#63b8ff" d="M431.05,-1021.67C437.23,-997.91 446.03,-960.25 449.5,-927 457.93,-846.22 487.76,-267.65 449.5,-196 431.99,-163.22 401.18,-137.79 369.94,-118.92"/>
<polygon fill="none" stroke="#63b8ff" points="369.73,-118.79 362.53,-119.24 359.35,-112.77 366.54,-112.32 369.73,-118.79"/>
</a>
</g>
<text text-anchor="middle" x="488.5" y="-559" font-family="Helvetica,sans-Serif" font-size="10.00" fill="grey"> &#45;_delay</text>
</g>
<!-- Node7&#45;&gt;Node5 -->
<g id="edge8_Node000005_Node000007" class="edge">
<title>Node7&#45;&gt;Node5</title>
<g id="a_edge8_Node000005_Node000007"><a xlink:title=" ">
<path fill="none" stroke="#63b8ff" d="M416.92,-1021.88C406.53,-989.49 386.64,-927.51 364.75,-859.3"/>
<polygon fill="none" stroke="#63b8ff" points="364.74,-859.29 359.1,-854.79 361.07,-847.86 366.72,-852.35 364.74,-859.29"/>
</a>
</g>
<text text-anchor="middle" x="408" y="-959" font-family="Helvetica,sans-Serif" font-size="10.00" fill="grey"> +X</text>
<text text-anchor="middle" x="408" y="-948" font-family="Helvetica,sans-Serif" font-size="10.00" fill="grey">+Y</text>
</g>
<!-- Node8 -->
<g id="Node000008" class="node">
<title>Node8</title>
<g id="a_Node000008"><a xlink:title=" ">
<polygon fill="white" stroke="transparent" points="558,-586 535,-586 535,-537 558,-537 558,-586"/>
<text text-anchor="start" x="540.5" y="-573.5" font-family="Helvetica,sans-Serif" font-size="10.00">int</text>
<text text-anchor="start" x="545" y="-558.5" font-family="Helvetica,sans-Serif" font-size="10.00"> </text>
<text text-anchor="start" x="545" y="-543.5" font-family="Helvetica,sans-Serif" font-size="10.00"> </text>
<polygon fill="#666666" stroke="#666666" points="535.5,-568.5 535.5,-568.5 558.5,-568.5 558.5,-568.5 535.5,-568.5"/>
<polygon fill="#666666" stroke="#666666" points="535.5,-553.5 535.5,-553.5 558.5,-553.5 558.5,-553.5 535.5,-553.5"/>
<polygon fill="none" stroke="#666666" points="535,-537 535,-586 558,-586 558,-537 535,-537"/>
</a>
</g>
</g>
<!-- Node8&#45;&gt;Node1 -->
<g id="edge9_Node000001_Node000008" class="edge">
<title>Node8&#45;&gt;Node1</title>
<g id="a_edge9_Node000001_Node000008"><a xlink:title=" ">
<path fill="none" stroke="#63b8ff" d="M550.37,-536.9C559.09,-476.69 575.52,-313.85 520.5,-196 493.62,-138.43 428.17,-108.21 370.85,-92.43"/>
<polygon fill="none" stroke="#63b8ff" points="370.74,-92.4 363.93,-94.76 359.13,-89.37 365.95,-87.02 370.74,-92.4"/>
</a>
</g>
<text text-anchor="middle" x="536" y="-170" font-family="Helvetica,sans-Serif" font-size="10.00" fill="grey"> &#45;_duration</text>
</g>
</g>
</svg>
