<?xml version="1.0" encoding="UTF-8" standalone="no"?>
<!DOCTYPE svg PUBLIC "-//W3C//DTD SVG 1.1//EN"
 "http://www.w3.org/Graphics/SVG/1.1/DTD/svg11.dtd">
<!-- Generated by graphviz version 2.43.0 (0)
 -->
<!-- Title: System.ComponentModel.DescriptionAttribute Pages: 1 -->
<svg width="505pt" height="1533pt"
 viewBox="0.00 0.00 505.00 1533.00" xmlns="http://www.w3.org/2000/svg" xmlns:xlink="http://www.w3.org/1999/xlink">
<g id="graph0" class="graph" transform="scale(1 1) rotate(0) translate(4 1529)">
<title>System.ComponentModel.DescriptionAttribute</title>
<!-- Node1 -->
<g id="Node000001" class="node">
<title>Node1</title>
<g id="a_Node000001"><a xlink:title=" ">
<polygon fill="#999999" stroke="transparent" points="284.5,-172 89.5,-172 89.5,0 284.5,0 284.5,-172"/>
<text text-anchor="start" x="95" y="-160" font-family="Helvetica,sans-Serif" font-size="10.00">System.ComponentModel.Description</text>
<text text-anchor="start" x="166" y="-149" font-family="Helvetica,sans-Serif" font-size="10.00">Attribute</text>
<text text-anchor="start" x="96.5" y="-134" font-family="Helvetica,sans-Serif" font-size="10.00">+</text>
<text text-anchor="start" x="112" y="-134" font-family="Helvetica,sans-Serif" font-size="10.00">virtual string Description</text>
<text text-anchor="start" x="96.5" y="-119" font-family="Helvetica,sans-Serif" font-size="10.00">+</text>
<text text-anchor="start" x="112" y="-119" font-family="Helvetica,sans-Serif" font-size="10.00">string DescriptionValue</text>
<text text-anchor="start" x="96.5" y="-104" font-family="Helvetica,sans-Serif" font-size="10.00">+</text>
<text text-anchor="start" x="112" y="-104" font-family="Helvetica,sans-Serif" font-size="10.00">DescriptionAttribute()</text>
<text text-anchor="start" x="96.5" y="-89" font-family="Helvetica,sans-Serif" font-size="10.00">+</text>
<text text-anchor="start" x="112" y="-89" font-family="Helvetica,sans-Serif" font-size="10.00">DescriptionAttribute</text>
<text text-anchor="start" x="112" y="-78" font-family="Helvetica,sans-Serif" font-size="10.00">(string description)</text>
<text text-anchor="start" x="96.5" y="-63" font-family="Helvetica,sans-Serif" font-size="10.00">+</text>
<text text-anchor="start" x="112" y="-63" font-family="Helvetica,sans-Serif" font-size="10.00">override bool Equals</text>
<text text-anchor="start" x="112" y="-52" font-family="Helvetica,sans-Serif" font-size="10.00">(object obj)</text>
<text text-anchor="start" x="96.5" y="-37" font-family="Helvetica,sans-Serif" font-size="10.00">+</text>
<text text-anchor="start" x="112" y="-37" font-family="Helvetica,sans-Serif" font-size="10.00">override int GetHashCode()</text>
<text text-anchor="start" x="96.5" y="-22" font-family="Helvetica,sans-Serif" font-size="10.00">+</text>
<text text-anchor="start" x="112" y="-22" font-family="Helvetica,sans-Serif" font-size="10.00">override bool IsDefaultAttribute()</text>
<text text-anchor="start" x="99" y="-7" font-family="Helvetica,sans-Serif" font-size="10.00">&#45;</text>
<text text-anchor="start" x="112" y="-7" font-family="Helvetica,sans-Serif" font-size="10.00">static DescriptionAttribute()</text>
<polygon fill="#666666" stroke="#666666" points="90,-144 90,-144 285,-144 285,-144 90,-144"/>
<polygon fill="#666666" stroke="#666666" points="90,-114 90,-114 110,-114 110,-114 90,-114"/>
<polygon fill="#666666" stroke="#666666" points="110,-114 110,-114 285,-114 285,-114 110,-114"/>
<polygon fill="none" stroke="#666666" points="89.5,0 89.5,-172 284.5,-172 284.5,0 89.5,0"/>
</a>
</g>
</g>
<!-- Node2 -->
<g id="Node000002" class="node">
<title>Node2</title>
<g id="a_Node000002"><a xlink:href="../../d1/d05/classSystem_1_1Attribute.html" target="_top" xlink:title=" ">
<polygon fill="white" stroke="transparent" points="250,-1429 0,-1429 0,-438 250,-438 250,-1429"/>
<text text-anchor="start" x="103.5" y="-1416.5" font-family="Helvetica,sans-Serif" font-size="10.00">Attribute</text>
<text text-anchor="start" x="4" y="-1401.5" font-family="Helvetica,sans-Serif" font-size="10.00">+</text>
<text text-anchor="start" x="17" y="-1401.5" font-family="Helvetica,sans-Serif" font-size="10.00">virtual object TypeId</text>
<text text-anchor="start" x="4" y="-1386.5" font-family="Helvetica,sans-Serif" font-size="10.00">+</text>
<text text-anchor="start" x="17" y="-1386.5" font-family="Helvetica,sans-Serif" font-size="10.00">override bool Equals</text>
<text text-anchor="start" x="17" y="-1375.5" font-family="Helvetica,sans-Serif" font-size="10.00">(object obj)</text>
<text text-anchor="start" x="4" y="-1360.5" font-family="Helvetica,sans-Serif" font-size="10.00">+</text>
<text text-anchor="start" x="17" y="-1360.5" font-family="Helvetica,sans-Serif" font-size="10.00">override int GetHashCode()</text>
<text text-anchor="start" x="4" y="-1345.5" font-family="Helvetica,sans-Serif" font-size="10.00">+</text>
<text text-anchor="start" x="17" y="-1345.5" font-family="Helvetica,sans-Serif" font-size="10.00">virtual bool Match</text>
<text text-anchor="start" x="17" y="-1334.5" font-family="Helvetica,sans-Serif" font-size="10.00">(object obj)</text>
<text text-anchor="start" x="4" y="-1319.5" font-family="Helvetica,sans-Serif" font-size="10.00">+</text>
<text text-anchor="start" x="17" y="-1319.5" font-family="Helvetica,sans-Serif" font-size="10.00">virtual bool IsDefaultAttribute()</text>
<text text-anchor="start" x="4" y="-1304.5" font-family="Helvetica,sans-Serif" font-size="10.00">+</text>
<text text-anchor="start" x="17" y="-1304.5" font-family="Helvetica,sans-Serif" font-size="10.00">static global::System.Attribute</text>
<text text-anchor="start" x="17" y="-1293.5" font-family="Helvetica,sans-Serif" font-size="10.00">[] GetCustomAttributes(global</text>
<text text-anchor="start" x="17" y="-1282.5" font-family="Helvetica,sans-Serif" font-size="10.00">::System.Reflection.MemberInfo</text>
<text text-anchor="start" x="17" y="-1271.5" font-family="Helvetica,sans-Serif" font-size="10.00"> element, global::System.Type type)</text>
<text text-anchor="start" x="4" y="-1256.5" font-family="Helvetica,sans-Serif" font-size="10.00">+</text>
<text text-anchor="start" x="17" y="-1256.5" font-family="Helvetica,sans-Serif" font-size="10.00">static global::System.Attribute</text>
<text text-anchor="start" x="17" y="-1245.5" font-family="Helvetica,sans-Serif" font-size="10.00">[] GetCustomAttributes(global</text>
<text text-anchor="start" x="17" y="-1234.5" font-family="Helvetica,sans-Serif" font-size="10.00">::System.Reflection.MemberInfo</text>
<text text-anchor="start" x="17" y="-1223.5" font-family="Helvetica,sans-Serif" font-size="10.00"> element, global::System.Type type,</text>
<text text-anchor="start" x="17" y="-1212.5" font-family="Helvetica,sans-Serif" font-size="10.00"> bool inherit)</text>
<text text-anchor="start" x="4" y="-1197.5" font-family="Helvetica,sans-Serif" font-size="10.00">+</text>
<text text-anchor="start" x="17" y="-1197.5" font-family="Helvetica,sans-Serif" font-size="10.00">static global::System.Attribute</text>
<text text-anchor="start" x="17" y="-1186.5" font-family="Helvetica,sans-Serif" font-size="10.00">[] GetCustomAttributes(global</text>
<text text-anchor="start" x="17" y="-1175.5" font-family="Helvetica,sans-Serif" font-size="10.00">::System.Reflection.MemberInfo</text>
<text text-anchor="start" x="17" y="-1164.5" font-family="Helvetica,sans-Serif" font-size="10.00"> element, bool inherit)</text>
<text text-anchor="start" x="4" y="-1149.5" font-family="Helvetica,sans-Serif" font-size="10.00">+</text>
<text text-anchor="start" x="17" y="-1149.5" font-family="Helvetica,sans-Serif" font-size="10.00">static bool IsDefined</text>
<text text-anchor="start" x="17" y="-1138.5" font-family="Helvetica,sans-Serif" font-size="10.00">(global::System.Reflection.</text>
<text text-anchor="start" x="17" y="-1127.5" font-family="Helvetica,sans-Serif" font-size="10.00">MemberInfo element, global</text>
<text text-anchor="start" x="17" y="-1116.5" font-family="Helvetica,sans-Serif" font-size="10.00">::System.Type attributeType)</text>
<text text-anchor="start" x="4" y="-1101.5" font-family="Helvetica,sans-Serif" font-size="10.00">+</text>
<text text-anchor="start" x="17" y="-1101.5" font-family="Helvetica,sans-Serif" font-size="10.00">static bool IsDefined</text>
<text text-anchor="start" x="17" y="-1090.5" font-family="Helvetica,sans-Serif" font-size="10.00">(global::System.Reflection.</text>
<text text-anchor="start" x="17" y="-1079.5" font-family="Helvetica,sans-Serif" font-size="10.00">MemberInfo element, global</text>
<text text-anchor="start" x="17" y="-1068.5" font-family="Helvetica,sans-Serif" font-size="10.00">::System.Type attributeType,</text>
<text text-anchor="start" x="17" y="-1057.5" font-family="Helvetica,sans-Serif" font-size="10.00"> bool inherit)</text>
<text text-anchor="start" x="4" y="-1042.5" font-family="Helvetica,sans-Serif" font-size="10.00">+</text>
<text text-anchor="start" x="17" y="-1042.5" font-family="Helvetica,sans-Serif" font-size="10.00">static global::System.Attribute</text>
<text text-anchor="start" x="17" y="-1031.5" font-family="Helvetica,sans-Serif" font-size="10.00"> GetCustomAttribute(global</text>
<text text-anchor="start" x="17" y="-1020.5" font-family="Helvetica,sans-Serif" font-size="10.00">::System.Reflection.MemberInfo</text>
<text text-anchor="start" x="17" y="-1009.5" font-family="Helvetica,sans-Serif" font-size="10.00"> element, global::System.Type</text>
<text text-anchor="start" x="17" y="-998.5" font-family="Helvetica,sans-Serif" font-size="10.00"> attributeType, bool inherit)</text>
<text text-anchor="start" x="4" y="-983.5" font-family="Helvetica,sans-Serif" font-size="10.00">+</text>
<text text-anchor="start" x="17" y="-983.5" font-family="Helvetica,sans-Serif" font-size="10.00">static global::System.Attribute</text>
<text text-anchor="start" x="17" y="-972.5" font-family="Helvetica,sans-Serif" font-size="10.00">[] GetCustomAttributes(global</text>
<text text-anchor="start" x="17" y="-961.5" font-family="Helvetica,sans-Serif" font-size="10.00">::System.Reflection.ParameterInfo</text>
<text text-anchor="start" x="17" y="-950.5" font-family="Helvetica,sans-Serif" font-size="10.00"> element, global::System.Type attributeType,</text>
<text text-anchor="start" x="17" y="-939.5" font-family="Helvetica,sans-Serif" font-size="10.00"> bool inherit)</text>
<text text-anchor="start" x="4" y="-924.5" font-family="Helvetica,sans-Serif" font-size="10.00">+</text>
<text text-anchor="start" x="17" y="-924.5" font-family="Helvetica,sans-Serif" font-size="10.00">static global::System.Attribute</text>
<text text-anchor="start" x="17" y="-913.5" font-family="Helvetica,sans-Serif" font-size="10.00">[] GetCustomAttributes(global</text>
<text text-anchor="start" x="17" y="-902.5" font-family="Helvetica,sans-Serif" font-size="10.00">::System.Reflection.ParameterInfo</text>
<text text-anchor="start" x="17" y="-891.5" font-family="Helvetica,sans-Serif" font-size="10.00"> element, bool inherit)</text>
<text text-anchor="start" x="4" y="-876.5" font-family="Helvetica,sans-Serif" font-size="10.00">+</text>
<text text-anchor="start" x="17" y="-876.5" font-family="Helvetica,sans-Serif" font-size="10.00">static global::System.Attribute</text>
<text text-anchor="start" x="17" y="-865.5" font-family="Helvetica,sans-Serif" font-size="10.00">[] GetCustomAttributes(global</text>
<text text-anchor="start" x="17" y="-854.5" font-family="Helvetica,sans-Serif" font-size="10.00">::System.Reflection.Module element,</text>
<text text-anchor="start" x="17" y="-843.5" font-family="Helvetica,sans-Serif" font-size="10.00"> bool inherit)</text>
<text text-anchor="start" x="4" y="-828.5" font-family="Helvetica,sans-Serif" font-size="10.00">+</text>
<text text-anchor="start" x="17" y="-828.5" font-family="Helvetica,sans-Serif" font-size="10.00">static global::System.Attribute</text>
<text text-anchor="start" x="17" y="-817.5" font-family="Helvetica,sans-Serif" font-size="10.00">[] GetCustomAttributes(global</text>
<text text-anchor="start" x="17" y="-806.5" font-family="Helvetica,sans-Serif" font-size="10.00">::System.Reflection.Module element,</text>
<text text-anchor="start" x="17" y="-795.5" font-family="Helvetica,sans-Serif" font-size="10.00"> global::System.Type attributeType,</text>
<text text-anchor="start" x="17" y="-784.5" font-family="Helvetica,sans-Serif" font-size="10.00"> bool inherit)</text>
<text text-anchor="start" x="17" y="-769.5" font-family="Helvetica,sans-Serif" font-size="10.00">and 6 more...</text>
<text text-anchor="start" x="4" y="-754.5" font-family="Helvetica,sans-Serif" font-size="10.00">#</text>
<text text-anchor="start" x="17" y="-754.5" font-family="Helvetica,sans-Serif" font-size="10.00">Attribute()</text>
<text text-anchor="start" x="6.5" y="-739.5" font-family="Helvetica,sans-Serif" font-size="10.00">&#45;</text>
<text text-anchor="start" x="17" y="-739.5" font-family="Helvetica,sans-Serif" font-size="10.00">static global::System.Attribute</text>
<text text-anchor="start" x="17" y="-728.5" font-family="Helvetica,sans-Serif" font-size="10.00">[] InternalGetCustomAttributes</text>
<text text-anchor="start" x="17" y="-717.5" font-family="Helvetica,sans-Serif" font-size="10.00">(global::System.Reflection.PropertyInfo</text>
<text text-anchor="start" x="17" y="-706.5" font-family="Helvetica,sans-Serif" font-size="10.00"> element, global::System.Type type,</text>
<text text-anchor="start" x="17" y="-695.5" font-family="Helvetica,sans-Serif" font-size="10.00"> bool inherit)</text>
<text text-anchor="start" x="6.5" y="-680.5" font-family="Helvetica,sans-Serif" font-size="10.00">&#45;</text>
<text text-anchor="start" x="17" y="-680.5" font-family="Helvetica,sans-Serif" font-size="10.00">static global::System.Attribute</text>
<text text-anchor="start" x="17" y="-669.5" font-family="Helvetica,sans-Serif" font-size="10.00">[] InternalGetCustomAttributes</text>
<text text-anchor="start" x="17" y="-658.5" font-family="Helvetica,sans-Serif" font-size="10.00">(global::System.Reflection.EventInfo</text>
<text text-anchor="start" x="17" y="-647.5" font-family="Helvetica,sans-Serif" font-size="10.00"> element, global::System.Type type,</text>
<text text-anchor="start" x="17" y="-636.5" font-family="Helvetica,sans-Serif" font-size="10.00"> bool inherit)</text>
<text text-anchor="start" x="6.5" y="-621.5" font-family="Helvetica,sans-Serif" font-size="10.00">&#45;</text>
<text text-anchor="start" x="17" y="-621.5" font-family="Helvetica,sans-Serif" font-size="10.00">static global::System.Attribute</text>
<text text-anchor="start" x="17" y="-610.5" font-family="Helvetica,sans-Serif" font-size="10.00">[] InternalParamGetCustomAttributes</text>
<text text-anchor="start" x="17" y="-599.5" font-family="Helvetica,sans-Serif" font-size="10.00">(global::System.Reflection.ParameterInfo</text>
<text text-anchor="start" x="17" y="-588.5" font-family="Helvetica,sans-Serif" font-size="10.00"> parameter, global::System.Type attributeType,</text>
<text text-anchor="start" x="17" y="-577.5" font-family="Helvetica,sans-Serif" font-size="10.00"> bool inherit)</text>
<text text-anchor="start" x="6.5" y="-562.5" font-family="Helvetica,sans-Serif" font-size="10.00">&#45;</text>
<text text-anchor="start" x="17" y="-562.5" font-family="Helvetica,sans-Serif" font-size="10.00">static bool InternalIsDefined</text>
<text text-anchor="start" x="17" y="-551.5" font-family="Helvetica,sans-Serif" font-size="10.00">(global::System.Reflection.Property</text>
<text text-anchor="start" x="17" y="-540.5" font-family="Helvetica,sans-Serif" font-size="10.00">Info element, global::System.Type</text>
<text text-anchor="start" x="17" y="-529.5" font-family="Helvetica,sans-Serif" font-size="10.00"> attributeType, bool inherit)</text>
<text text-anchor="start" x="6.5" y="-514.5" font-family="Helvetica,sans-Serif" font-size="10.00">&#45;</text>
<text text-anchor="start" x="17" y="-514.5" font-family="Helvetica,sans-Serif" font-size="10.00">static bool InternalIsDefined</text>
<text text-anchor="start" x="17" y="-503.5" font-family="Helvetica,sans-Serif" font-size="10.00">(global::System.Reflection.Event</text>
<text text-anchor="start" x="17" y="-492.5" font-family="Helvetica,sans-Serif" font-size="10.00">Info element, global::System.Type</text>
<text text-anchor="start" x="17" y="-481.5" font-family="Helvetica,sans-Serif" font-size="10.00"> attributeType, bool inherit)</text>
<text text-anchor="start" x="6.5" y="-466.5" font-family="Helvetica,sans-Serif" font-size="10.00">&#45;</text>
<text text-anchor="start" x="17" y="-466.5" font-family="Helvetica,sans-Serif" font-size="10.00">static bool AreFieldValues</text>
<text text-anchor="start" x="17" y="-455.5" font-family="Helvetica,sans-Serif" font-size="10.00">Equal(object thisValue,</text>
<text text-anchor="start" x="17" y="-444.5" font-family="Helvetica,sans-Serif" font-size="10.00"> object thatValue)</text>
<polygon fill="#666666" stroke="#666666" points="0,-1411.5 0,-1411.5 250,-1411.5 250,-1411.5 0,-1411.5"/>
<polygon fill="#666666" stroke="#666666" points="0,-1396.5 0,-1396.5 15,-1396.5 15,-1396.5 0,-1396.5"/>
<polygon fill="#666666" stroke="#666666" points="15,-1396.5 15,-1396.5 250,-1396.5 250,-1396.5 15,-1396.5"/>
<polygon fill="none" stroke="#666666" points="0,-438 0,-1429 250,-1429 250,-438 0,-438"/>
</a>
</g>
</g>
<!-- Node2&#45;&gt;Node1 -->
<g id="edge1_Node000001_Node000002" class="edge">
<title>Node2&#45;&gt;Node1</title>
<g id="a_edge1_Node000001_Node000002"><a xlink:title=" ">
<path fill="none" stroke="#63b8ff" d="M44.11,-427.86C46.93,-356.47 57.79,-284.97 81,-219 86.75,-202.64 95.49,-186.81 105.52,-172.14"/>
<polygon fill="none" stroke="#63b8ff" points="40.61,-427.82 43.76,-437.94 47.6,-428.06 40.61,-427.82"/>
</a>
</g>
</g>
<!-- Node3 -->
<g id="Node000003" class="node">
<title>Node3</title>
<g id="a_Node000003"><a xlink:href="../../df/d88/classSystem_1_1ComponentModel_1_1DescriptionAttribute.html" target="_top" xlink:title=" ">
<polygon fill="white" stroke="transparent" points="284.5,-391 89.5,-391 89.5,-219 284.5,-219 284.5,-391"/>
<text text-anchor="start" x="95" y="-379" font-family="Helvetica,sans-Serif" font-size="10.00">System.ComponentModel.Description</text>
<text text-anchor="start" x="166" y="-368" font-family="Helvetica,sans-Serif" font-size="10.00">Attribute</text>
<text text-anchor="start" x="96.5" y="-353" font-family="Helvetica,sans-Serif" font-size="10.00">+</text>
<text text-anchor="start" x="112" y="-353" font-family="Helvetica,sans-Serif" font-size="10.00">virtual string Description</text>
<text text-anchor="start" x="96.5" y="-338" font-family="Helvetica,sans-Serif" font-size="10.00">+</text>
<text text-anchor="start" x="112" y="-338" font-family="Helvetica,sans-Serif" font-size="10.00">string DescriptionValue</text>
<text text-anchor="start" x="96.5" y="-323" font-family="Helvetica,sans-Serif" font-size="10.00">+</text>
<text text-anchor="start" x="112" y="-323" font-family="Helvetica,sans-Serif" font-size="10.00">DescriptionAttribute()</text>
<text text-anchor="start" x="96.5" y="-308" font-family="Helvetica,sans-Serif" font-size="10.00">+</text>
<text text-anchor="start" x="112" y="-308" font-family="Helvetica,sans-Serif" font-size="10.00">DescriptionAttribute</text>
<text text-anchor="start" x="112" y="-297" font-family="Helvetica,sans-Serif" font-size="10.00">(string description)</text>
<text text-anchor="start" x="96.5" y="-282" font-family="Helvetica,sans-Serif" font-size="10.00">+</text>
<text text-anchor="start" x="112" y="-282" font-family="Helvetica,sans-Serif" font-size="10.00">override bool Equals</text>
<text text-anchor="start" x="112" y="-271" font-family="Helvetica,sans-Serif" font-size="10.00">(object obj)</text>
<text text-anchor="start" x="96.5" y="-256" font-family="Helvetica,sans-Serif" font-size="10.00">+</text>
<text text-anchor="start" x="112" y="-256" font-family="Helvetica,sans-Serif" font-size="10.00">override int GetHashCode()</text>
<text text-anchor="start" x="96.5" y="-241" font-family="Helvetica,sans-Serif" font-size="10.00">+</text>
<text text-anchor="start" x="112" y="-241" font-family="Helvetica,sans-Serif" font-size="10.00">override bool IsDefaultAttribute()</text>
<text text-anchor="start" x="99" y="-226" font-family="Helvetica,sans-Serif" font-size="10.00">&#45;</text>
<text text-anchor="start" x="112" y="-226" font-family="Helvetica,sans-Serif" font-size="10.00">static DescriptionAttribute()</text>
<polygon fill="#666666" stroke="#666666" points="90,-363 90,-363 285,-363 285,-363 90,-363"/>
<polygon fill="#666666" stroke="#666666" points="90,-333 90,-333 110,-333 110,-333 90,-333"/>
<polygon fill="#666666" stroke="#666666" points="110,-333 110,-333 285,-333 285,-333 110,-333"/>
<polygon fill="none" stroke="#666666" points="89.5,-219 89.5,-391 284.5,-391 284.5,-219 89.5,-219"/>
</a>
</g>
</g>
<!-- Node2&#45;&gt;Node3 -->
<g id="edge3_Node000003_Node000002" class="edge">
<title>Node2&#45;&gt;Node3</title>
<g id="a_edge3_Node000003_Node000002"><a xlink:title=" ">
<path fill="none" stroke="#63b8ff" d="M174.96,-427.67C176.24,-414.71 177.45,-402.46 178.58,-391.09"/>
<polygon fill="none" stroke="#63b8ff" points="171.47,-427.42 173.96,-437.72 178.43,-428.11 171.47,-427.42"/>
</a>
</g>
</g>
<!-- Node3&#45;&gt;Node1 -->
<g id="edge2_Node000001_Node000003" class="edge">
<title>Node3&#45;&gt;Node1</title>
<g id="a_edge2_Node000001_Node000003"><a xlink:title=" ">
<path fill="none" stroke="#63b8ff" d="M187,-218.86C187,-207.61 187,-196.01 187,-184.57"/>
<polygon fill="none" stroke="#63b8ff" points="187,-184.25 183,-178.25 187,-172.25 191,-178.25 187,-184.25"/>
</a>
</g>
<text text-anchor="middle" x="211" y="-193" font-family="Helvetica,sans-Serif" font-size="10.00" fill="grey"> +Default</text>
</g>
<!-- Node3&#45;&gt;Node3 -->
<g id="edge4_Node000003_Node000003" class="edge">
<title>Node3&#45;&gt;Node3</title>
<g id="a_edge4_Node000003_Node000003"><a xlink:title=" ">
<path fill="none" stroke="#63b8ff" d="M284.74,-322.04C295.53,-318.8 302.5,-313.12 302.5,-305 302.5,-300.18 300.04,-296.22 295.79,-293.12"/>
<polygon fill="none" stroke="#63b8ff" points="295.62,-293.04 288.49,-294.13 284.74,-287.96 291.87,-286.88 295.62,-293.04"/>
</a>
</g>
<text text-anchor="middle" x="326.5" y="-302.5" font-family="Helvetica,sans-Serif" font-size="10.00" fill="grey"> +Default</text>
</g>
<!-- Node4 -->
<g id="Node000004" class="node">
<title>Node4</title>
<g id="a_Node000004"><a xlink:title=" ">
<polygon fill="white" stroke="transparent" points="435.5,-958 292.5,-958 292.5,-909 435.5,-909 435.5,-958"/>
<text text-anchor="start" x="298" y="-945.5" font-family="Helvetica,sans-Serif" font-size="10.00">string&lt; DescriptionValue &gt;</text>
<text text-anchor="start" x="362.5" y="-930.5" font-family="Helvetica,sans-Serif" font-size="10.00"> </text>
<text text-anchor="start" x="362.5" y="-915.5" font-family="Helvetica,sans-Serif" font-size="10.00"> </text>
<polygon fill="#666666" stroke="#666666" points="293,-940.5 293,-940.5 436,-940.5 436,-940.5 293,-940.5"/>
<polygon fill="#666666" stroke="#666666" points="293,-925.5 293,-925.5 436,-925.5 436,-925.5 293,-925.5"/>
<polygon fill="none" stroke="#666666" points="292.5,-909 292.5,-958 435.5,-958 435.5,-909 292.5,-909"/>
</a>
</g>
</g>
<!-- Node4&#45;&gt;Node1 -->
<g id="edge7_Node000001_Node000004" class="edge">
<title>Node4&#45;&gt;Node1</title>
<g id="a_edge7_Node000001_Node000004"><a xlink:title=" ">
<path fill="none" stroke="#63b8ff" d="M370.91,-908.93C396.95,-815.34 481.69,-463.19 360,-219 345.43,-189.77 320.97,-165.22 294.96,-145.54"/>
<polygon fill="none" stroke="#63b8ff" points="294.64,-145.3 287.43,-145 284.94,-138.23 292.14,-138.53 294.64,-145.3"/>
</a>
</g>
<text text-anchor="middle" x="454" y="-302.5" font-family="Helvetica,sans-Serif" font-size="10.00" fill="grey"> &#45;k__BackingField</text>
</g>
<!-- Node4&#45;&gt;Node3 -->
<g id="edge5_Node000003_Node000004" class="edge">
<title>Node4&#45;&gt;Node3</title>
<g id="a_edge5_Node000003_Node000004"><a xlink:title=" ">
<path fill="none" stroke="#63b8ff" d="M361.45,-908.91C353.13,-836.58 323.47,-612.3 259,-438 254.6,-426.1 249.27,-413.95 243.53,-402.09"/>
<polygon fill="none" stroke="#63b8ff" points="243.5,-402.04 237.25,-398.45 238.15,-391.29 244.41,-394.88 243.5,-402.04"/>
</a>
</g>
<text text-anchor="middle" x="294" y="-412" font-family="Helvetica,sans-Serif" font-size="10.00" fill="grey"> &#45;k__BackingField</text>
</g>
<!-- Node5 -->
<g id="Node000005" class="node">
<title>Node5</title>
<g id="a_Node000005"><a xlink:title=" ">
<polygon fill="white" stroke="transparent" points="383,-1525 345,-1525 345,-1476 383,-1476 383,-1525"/>
<text text-anchor="start" x="350" y="-1512.5" font-family="Helvetica,sans-Serif" font-size="10.00">string</text>
<text text-anchor="start" x="362" y="-1497.5" font-family="Helvetica,sans-Serif" font-size="10.00"> </text>
<text text-anchor="start" x="362" y="-1482.5" font-family="Helvetica,sans-Serif" font-size="10.00"> </text>
<polygon fill="#666666" stroke="#666666" points="345,-1507.5 345,-1507.5 383,-1507.5 383,-1507.5 345,-1507.5"/>
<polygon fill="#666666" stroke="#666666" points="345,-1492.5 345,-1492.5 383,-1492.5 383,-1492.5 345,-1492.5"/>
<polygon fill="none" stroke="#666666" points="345,-1476 345,-1525 383,-1525 383,-1476 345,-1476"/>
</a>
</g>
</g>
<!-- Node5&#45;&gt;Node4 -->
<g id="edge6_Node000004_Node000005" class="edge">
<title>Node5&#45;&gt;Node4</title>
<g id="a_edge6_Node000004_Node000005"><a xlink:title=" ">
<path fill="none" stroke="orange" d="M364,-1465.69C364,-1361.51 364,-1047.08 364,-958.16"/>
<polygon fill="orange" stroke="orange" points="360.5,-1465.94 364,-1475.94 367.5,-1465.94 360.5,-1465.94"/>
</a>
</g>
<text text-anchor="middle" x="418.5" y="-1450" font-family="Helvetica,sans-Serif" font-size="10.00" fill="grey"> &lt; DescriptionValue &gt;</text>
</g>
</g>
</svg>
