<?xml version="1.0" encoding="UTF-8" standalone="no"?>
<!DOCTYPE svg PUBLIC "-//W3C//DTD SVG 1.1//EN"
 "http://www.w3.org/Graphics/SVG/1.1/DTD/svg11.dtd">
<!-- Generated by graphviz version 2.43.0 (0)
 -->
<!-- Title: source/System.Xml/System Pages: 1 -->
<!--zoomable 126 -->

<svg id="main" version="1.1" xmlns="http://www.w3.org/2000/svg" xmlns:xlink="http://www.w3.org/1999/xlink" xml:space="preserve" onload="init(evt)">
<style type="text/css"><![CDATA[
.node, .edge {opacity: 0.7;}
.node.selected, .edge.selected {opacity: 1;}
.edge:hover path { stroke: red; }
.edge:hover polygon { stroke: red; fill: red; }
]]></style>

<defs>
  <circle id="rim" cx="0" cy="0" r="7"/>
  <circle id="rim2" cx="0" cy="0" r="3.5"/>
  <g id="zoomPlus">
    <use xlink:href="#rim" fill="#404040"><set attributeName="fill" to="#808080" begin="zoomplus.mouseover" end="zoomplus.mouseout"/></use>
    <path d="M-4,0h8M0,-4v8" fill="none" stroke="white" stroke-width="1.5" pointer-events="none"/>
  </g>
  <g id="zoomMin">
    <use xlink:href="#rim" fill="#404040"><set attributeName="fill" to="#808080" begin="zoomminus.mouseover" end="zoomminus.mouseout"/></use>
    <path d="M-4,0h8" fill="none" stroke="white" stroke-width="1.5" pointer-events="none"/>
  </g>
  <g id="arrowUp" transform="translate(30 24)">
    <use xlink:href="#rim"/>
    <path pointer-events="none" fill="none" stroke="white" stroke-width="1.5" d="M0,-3.0v7 M-2.5,-0.5L0,-3.0L2.5,-0.5"/>
  </g>
  <g id="arrowRight" transform="rotate(90) translate(36 -43)">
    <use xlink:href="#rim"/>
    <path pointer-events="none" fill="none" stroke="white" stroke-width="1.5" d="M0,-3.0v7 M-2.5,-0.5L0,-3.0L2.5,-0.5"/>
  </g>
  <g id="arrowDown" transform="rotate(180) translate(-30 -48)">
    <use xlink:href="#rim"/>
    <path pointer-events="none" fill="none" stroke="white" stroke-width="1.5" d="M0,-3.0v7 M-2.5,-0.5L0,-3.0L2.5,-0.5"/>
  </g>
  <g id="arrowLeft" transform="rotate(270) translate(-36 17)">
    <use xlink:href="#rim"/>
    <path pointer-events="none" fill="none" stroke="white" stroke-width="1.5" d="M0,-3.0v7 M-2.5,-0.5L0,-3.0L2.5,-0.5"/>
  </g>
  <g id="resetDef">
    <use xlink:href="#rim2" fill="#404040"><set attributeName="fill" to="#808080" begin="reset.mouseover" end="reset.mouseout"/></use>
  </g>
</defs>
<script type="application/ecmascript">
var viewWidth = 657;
var viewHeight = 126;
var sectionId = 'dynsection-0';
</script>
<script type="application/ecmascript" xlink:href="svg.min.js"/>
<svg id="graph" class="graph">
<g id="viewport">
<title>source/System.Xml/System</title>
<g id="clust1" class="cluster">
<title>clusterdir_3b0912701b791e6f491bc32f02595604</title>
<g id="a_clust1"><a xlink:href="dir_3b0912701b791e6f491bc32f02595604.html" target="_top" xlink:title="System.Xml">
<polygon fill="#ffe5e5" stroke="#7f7f7f" stroke-dasharray="5,2" points="8,-8 8,-110 641,-110 641,-8 8,-8"/>
<text text-anchor="middle" x="324.5" y="-98" font-family="Helvetica,sans-Serif" font-size="10.00">System.Xml</text>
</a>
</g>
</g>
<g id="clust2" class="cluster">
<title>clusterdir_a61c49c12947a737f4c222d01d4c9493</title>
<g id="a_clust2"><a xlink:href="dir_a61c49c12947a737f4c222d01d4c9493.html" target="_top">
<polygon fill="#ffe5e5" stroke="#404040" stroke-width="2" points="16,-16 16,-83 633,-83 633,-16 16,-16"/>
</a>
</g>
</g>
<g id="clust3" class="cluster">
<title>clusterdir_43af813de13d678258eae1193f29208d</title>
<g id="a_clust3"><a xlink:href="dir_43af813de13d678258eae1193f29208d.html" target="_top">
<polygon fill="#fee1e1" stroke="#404040" points="88,-24 88,-75 625,-75 625,-24 88,-24"/>
</a>
</g>
</g>
<g id="clust4" class="cluster">
<title>clusterdir_481f8abc9f4922901cd3304c86a0c08c</title>
<g id="a_clust4"><a xlink:href="dir_481f8abc9f4922901cd3304c86a0c08c.html" target="_top">
<polygon fill="#ffdddd" stroke="#404040" points="493,-32 493,-67 617,-67 617,-32 493,-32"/>
</a>
</g>
</g>
<!-- dir_a61c49c12947a737f4c222d01d4c9493 -->
<g id="node1" class="node">
<title>dir_a61c49c12947a737f4c222d01d4c9493</title>
<text text-anchor="middle" x="51" y="-47" font-family="Helvetica,sans-Serif" font-size="10.00">System</text>
</g>
<!-- dir_43af813de13d678258eae1193f29208d -->
<g id="node2" class="node">
<title>dir_43af813de13d678258eae1193f29208d</title>
<text text-anchor="middle" x="465" y="-47" font-family="Helvetica,sans-Serif" font-size="10.00">Xml</text>
</g>
<!-- dir_5266276e3812ad9a9525ba05924a46dc -->
<g id="node3" class="node">
<title>dir_5266276e3812ad9a9525ba05924a46dc</title>
<g id="a_node3"><a xlink:href="dir_5266276e3812ad9a9525ba05924a46dc.html" target="_top" xlink:title="Schema">
<polygon fill="#ffdddd" stroke="#404040" points="429,-59 373,-59 373,-40 429,-40 429,-59"/>
<text text-anchor="middle" x="401" y="-47" font-family="Helvetica,sans-Serif" font-size="10.00">Schema</text>
</a>
</g>
</g>
<!-- dir_118f2488340068e1582835787b326329 -->
<g id="node4" class="node">
<title>dir_118f2488340068e1582835787b326329</title>
<g id="a_node4"><a xlink:href="dir_118f2488340068e1582835787b326329.html" target="_top" xlink:title="Serialization">
<polygon fill="#ffdddd" stroke="#404040" points="354.5,-59 277.5,-59 277.5,-40 354.5,-40 354.5,-59"/>
<text text-anchor="middle" x="316" y="-47" font-family="Helvetica,sans-Serif" font-size="10.00">Serialization</text>
</a>
</g>
</g>
<!-- dir_5d586813bb329a9ab0cc7be06bc00f57 -->
<g id="node5" class="node">
<title>dir_5d586813bb329a9ab0cc7be06bc00f57</title>
<g id="a_node5"><a xlink:href="dir_5d586813bb329a9ab0cc7be06bc00f57.html" target="_top" xlink:title="XmlConfiguration">
<polygon fill="#ffdddd" stroke="#404040" points="259.5,-59 158.5,-59 158.5,-40 259.5,-40 259.5,-59"/>
<text text-anchor="middle" x="209" y="-47" font-family="Helvetica,sans-Serif" font-size="10.00">XmlConfiguration</text>
</a>
</g>
</g>
<!-- dir_6aa82b775cfd74843f093941d0397022 -->
<g id="node6" class="node">
<title>dir_6aa82b775cfd74843f093941d0397022</title>
<g id="a_node6"><a xlink:href="dir_6aa82b775cfd74843f093941d0397022.html" target="_top" xlink:title="XPath">
<polygon fill="#ffdddd" stroke="#404040" points="140,-59 96,-59 96,-40 140,-40 140,-59"/>
<text text-anchor="middle" x="118" y="-47" font-family="Helvetica,sans-Serif" font-size="10.00">XPath</text>
</a>
</g>
</g>
<!-- dir_481f8abc9f4922901cd3304c86a0c08c -->
<g id="node7" class="node">
<title>dir_481f8abc9f4922901cd3304c86a0c08c</title>
<text text-anchor="middle" x="593" y="-47" font-family="Helvetica,sans-Serif" font-size="10.00">Xsl</text>
</g>
<!-- dir_c489a0c73a0e88b52e43e82875a964fa -->
<g id="node8" class="node">
<title>dir_c489a0c73a0e88b52e43e82875a964fa</title>
<g id="a_node8"><a xlink:href="dir_c489a0c73a0e88b52e43e82875a964fa.html" target="_top" xlink:title="Runtime">
<polygon fill="#ffd9d9" stroke="#404040" points="559,-59 501,-59 501,-40 559,-40 559,-59"/>
<text text-anchor="middle" x="530" y="-47" font-family="Helvetica,sans-Serif" font-size="10.00">Runtime</text>
</a>
</g>
</g>
</g>
</svg>

<g id="navigator" transform="translate(0 0)" fill="#404254">
  <rect fill="#f2f5e9" fill-opacity="0.5" stroke="#606060" stroke-width=".5" x="0" y="0" width="60" height="60"/>
  <use id="zoomplus" xlink:href="#zoomPlus" x="17" y="9" onmousedown="handleZoom(evt,'in')"/>
  <use id="zoomminus" xlink:href="#zoomMin" x="42" y="9" onmousedown="handleZoom(evt,'out')"/>
  <use id="reset" xlink:href="#resetDef" x="30" y="36" onmousedown="handleReset()"/>
   <use id="arrowup" xlink:href="#arrowUp" x="0" y="0" onmousedown="handlePan(0,-1)"/>
  <use id="arrowright" xlink:href="#arrowRight" x="0" y="0" onmousedown="handlePan(1,0)"/>
  <use id="arrowdown" xlink:href="#arrowDown" x="0" y="0" onmousedown="handlePan(0,1)"/>
  <use id="arrowleft" xlink:href="#arrowLeft" x="0" y="0" onmousedown="handlePan(-1,0)"/>
</g>
<svg viewBox="0 0 15 15" width="100%" height="30px" preserveAspectRatio="xMaxYMin meet">
 <g id="arrow_out" transform="scale(0.3 0.3)">
  <a xlink:href="dir_a61c49c12947a737f4c222d01d4c9493_dep_org.svg" target="_base">
   <rect id="button" ry="5" rx="5" y="6" x="6" height="38" width="38"
        fill="#f2f5e9" fill-opacity="0.5" stroke="#606060" stroke-width="1.0"/>
   <path id="arrow"
     d="M 11.500037,31.436501 C 11.940474,20.09759 22.043105,11.32322 32.158766,21.979434 L 37.068811,17.246167 C 37.068811,17.246167 37.088388,32 37.088388,32 L 22.160133,31.978069 C 22.160133,31.978069 26.997745,27.140456 26.997745,27.140456 C 18.528582,18.264221 13.291696,25.230495 11.500037,31.436501 z"
     style="fill:#404040;"/>
  </a>
 </g>
</svg>

<style type='text/css'>
<![CDATA[
[data-mouse-over-selected='false'] { opacity: 0.7; }
[data-mouse-over-selected='true']  { opacity: 1.0; }
]]>
</style>
<script type="application/ecmascript"><![CDATA[
document.addEventListener('DOMContentLoaded', (event) => {
  highlightEdges();
  highlightAdjacentNodes();
});
]]></script>
</svg>
