<?xml version="1.0" encoding="UTF-8" standalone="no"?>
<!DOCTYPE svg PUBLIC "-//W3C//DTD SVG 1.1//EN"
 "http://www.w3.org/Graphics/SVG/1.1/DTD/svg11.dtd">
<!-- Generated by graphviz version 2.43.0 (0)
 -->
<!-- Title: source/InControl.Examples Pages: 1 -->
<!--zoomable 110 -->

<svg id="main" version="1.1" xmlns="http://www.w3.org/2000/svg" xmlns:xlink="http://www.w3.org/1999/xlink" xml:space="preserve" onload="init(evt)">
<style type="text/css"><![CDATA[
.node, .edge {opacity: 0.7;}
.node.selected, .edge.selected {opacity: 1;}
.edge:hover path { stroke: red; }
.edge:hover polygon { stroke: red; fill: red; }
]]></style>

<defs>
  <circle id="rim" cx="0" cy="0" r="7"/>
  <circle id="rim2" cx="0" cy="0" r="3.5"/>
  <g id="zoomPlus">
    <use xlink:href="#rim" fill="#404040"><set attributeName="fill" to="#808080" begin="zoomplus.mouseover" end="zoomplus.mouseout"/></use>
    <path d="M-4,0h8M0,-4v8" fill="none" stroke="white" stroke-width="1.5" pointer-events="none"/>
  </g>
  <g id="zoomMin">
    <use xlink:href="#rim" fill="#404040"><set attributeName="fill" to="#808080" begin="zoomminus.mouseover" end="zoomminus.mouseout"/></use>
    <path d="M-4,0h8" fill="none" stroke="white" stroke-width="1.5" pointer-events="none"/>
  </g>
  <g id="arrowUp" transform="translate(30 24)">
    <use xlink:href="#rim"/>
    <path pointer-events="none" fill="none" stroke="white" stroke-width="1.5" d="M0,-3.0v7 M-2.5,-0.5L0,-3.0L2.5,-0.5"/>
  </g>
  <g id="arrowRight" transform="rotate(90) translate(36 -43)">
    <use xlink:href="#rim"/>
    <path pointer-events="none" fill="none" stroke="white" stroke-width="1.5" d="M0,-3.0v7 M-2.5,-0.5L0,-3.0L2.5,-0.5"/>
  </g>
  <g id="arrowDown" transform="rotate(180) translate(-30 -48)">
    <use xlink:href="#rim"/>
    <path pointer-events="none" fill="none" stroke="white" stroke-width="1.5" d="M0,-3.0v7 M-2.5,-0.5L0,-3.0L2.5,-0.5"/>
  </g>
  <g id="arrowLeft" transform="rotate(270) translate(-36 17)">
    <use xlink:href="#rim"/>
    <path pointer-events="none" fill="none" stroke="white" stroke-width="1.5" d="M0,-3.0v7 M-2.5,-0.5L0,-3.0L2.5,-0.5"/>
  </g>
  <g id="resetDef">
    <use xlink:href="#rim2" fill="#404040"><set attributeName="fill" to="#808080" begin="reset.mouseover" end="reset.mouseout"/></use>
  </g>
</defs>
<script type="application/ecmascript">
var viewWidth = 1422;
var viewHeight = 110;
var sectionId = 'dynsection-0';
</script>
<script type="application/ecmascript" xlink:href="svg.min.js"/>
<svg id="graph" class="graph">
<g id="viewport">
<title>source/InControl.Examples</title>
<g id="clust1" class="cluster">
<title>clusterdir_b2f33c71d4aa5e7af42a1ca61ff5af1b</title>
<g id="a_clust1"><a xlink:href="dir_b2f33c71d4aa5e7af42a1ca61ff5af1b.html" target="_top" xlink:title="source">
<polygon fill="#ffe5e5" stroke="#404040" stroke-dasharray="5,2" points="8,-8 8,-94 1406,-94 1406,-8 8,-8"/>
<text text-anchor="middle" x="707" y="-82" font-family="Helvetica,sans-Serif" font-size="10.00">source</text>
</a>
</g>
</g>
<g id="clust2" class="cluster">
<title>clusterdir_85c14e3eb16f41e56540629f248f9efe</title>
<g id="a_clust2"><a xlink:href="dir_85c14e3eb16f41e56540629f248f9efe.html" target="_top">
<polygon fill="#ffe5e5" stroke="#404040" stroke-width="2" points="16,-16 16,-67 1398,-67 1398,-16 16,-16"/>
</a>
</g>
</g>
<g id="clust3" class="cluster">
<title>clusterdir_ca3c3e14d0a7d71204eff0674dd40374</title>
<g id="a_clust3"><a xlink:href="dir_ca3c3e14d0a7d71204eff0674dd40374.html" target="_top">
<polygon fill="#fee1e1" stroke="#404040" points="1190,-24 1190,-59 1390,-59 1390,-24 1190,-24"/>
</a>
</g>
</g>
<!-- dir_85c14e3eb16f41e56540629f248f9efe -->
<g id="node1" class="node">
<title>dir_85c14e3eb16f41e56540629f248f9efe</title>
<text text-anchor="middle" x="1124" y="-39" font-family="Helvetica,sans-Serif" font-size="10.00">InControl.Examples</text>
</g>
<!-- dir_da8794f1190b333ef737378218ba63f0 -->
<g id="node2" class="node">
<title>dir_da8794f1190b333ef737378218ba63f0</title>
<g id="a_node2"><a xlink:href="dir_da8794f1190b333ef737378218ba63f0.html" target="_top" xlink:title="BasicExample">
<polygon fill="#fee1e1" stroke="#404040" points="1050,-51 964,-51 964,-32 1050,-32 1050,-51"/>
<text text-anchor="middle" x="1007" y="-39" font-family="Helvetica,sans-Serif" font-size="10.00">BasicExample</text>
</a>
</g>
</g>
<!-- dir_4b235655d665c69b0d62590270db296c -->
<g id="node3" class="node">
<title>dir_4b235655d665c69b0d62590270db296c</title>
<g id="a_node3"><a xlink:href="dir_4b235655d665c69b0d62590270db296c.html" target="_top" xlink:title="BindingsExample">
<polygon fill="#fee1e1" stroke="#404040" points="945.5,-51 844.5,-51 844.5,-32 945.5,-32 945.5,-51"/>
<text text-anchor="middle" x="895" y="-39" font-family="Helvetica,sans-Serif" font-size="10.00">BindingsExample</text>
</a>
</g>
</g>
<!-- dir_ca3c3e14d0a7d71204eff0674dd40374 -->
<g id="node4" class="node">
<title>dir_ca3c3e14d0a7d71204eff0674dd40374</title>
<text text-anchor="middle" x="1338" y="-39" font-family="Helvetica,sans-Serif" font-size="10.00">Cpp2ILInjected</text>
</g>
<!-- dir_7e742812eb7ff2fe8e477654058f1c0e -->
<g id="node5" class="node">
<title>dir_7e742812eb7ff2fe8e477654058f1c0e</title>
<g id="a_node5"><a xlink:href="dir_7e742812eb7ff2fe8e477654058f1c0e.html" target="_top" xlink:title="CallAnalysis">
<polygon fill="#ffdddd" stroke="#404040" points="1275.5,-51 1198.5,-51 1198.5,-32 1275.5,-32 1275.5,-51"/>
<text text-anchor="middle" x="1237" y="-39" font-family="Helvetica,sans-Serif" font-size="10.00">CallAnalysis</text>
</a>
</g>
</g>
<!-- dir_63e035446291dc867ed1a257ca5bbc48 -->
<g id="node6" class="node">
<title>dir_63e035446291dc867ed1a257ca5bbc48</title>
<g id="a_node6"><a xlink:href="dir_63e035446291dc867ed1a257ca5bbc48.html" target="_top" xlink:title="InterfaceMovement">
<polygon fill="#fee1e1" stroke="#404040" points="826.5,-51 713.5,-51 713.5,-32 826.5,-32 826.5,-51"/>
<text text-anchor="middle" x="770" y="-39" font-family="Helvetica,sans-Serif" font-size="10.00">InterfaceMovement</text>
</a>
</g>
</g>
<!-- dir_ad8474bf5445d96a284d867405c7e5d6 -->
<g id="node7" class="node">
<title>dir_ad8474bf5445d96a284d867405c7e5d6</title>
<g id="a_node7"><a xlink:href="dir_ad8474bf5445d96a284d867405c7e5d6.html" target="_top" xlink:title="MultiplayerBasicExample">
<polygon fill="#fee1e1" stroke="#404040" points="695.5,-51 554.5,-51 554.5,-32 695.5,-32 695.5,-51"/>
<text text-anchor="middle" x="625" y="-39" font-family="Helvetica,sans-Serif" font-size="10.00">MultiplayerBasicExample</text>
</a>
</g>
</g>
<!-- dir_bb147da4332415645e72a6931a1ee24f -->
<g id="node8" class="node">
<title>dir_bb147da4332415645e72a6931a1ee24f</title>
<g id="a_node8"><a xlink:href="dir_bb147da4332415645e72a6931a1ee24f.html" target="_top" xlink:title="MultiplayerWithBindingsExample">
<polygon fill="#fee1e1" stroke="#404040" points="536.5,-51 357.5,-51 357.5,-32 536.5,-32 536.5,-51"/>
<text text-anchor="middle" x="447" y="-39" font-family="Helvetica,sans-Serif" font-size="10.00">MultiplayerWithBindingsExample</text>
</a>
</g>
</g>
<!-- dir_bc84d984a8ded81efd19cd6f8c3ef4ee -->
<g id="node9" class="node">
<title>dir_bc84d984a8ded81efd19cd6f8c3ef4ee</title>
<g id="a_node9"><a xlink:href="dir_bc84d984a8ded81efd19cd6f8c3ef4ee.html" target="_top" xlink:title="Properties">
<polygon fill="#fee1e1" stroke="#404040" points="339,-51 273,-51 273,-32 339,-32 339,-51"/>
<text text-anchor="middle" x="306" y="-39" font-family="Helvetica,sans-Serif" font-size="10.00">Properties</text>
</a>
</g>
</g>
<!-- dir_8f23a369f871a1dd182d78e30c0b28e4 -->
<g id="node10" class="node">
<title>dir_8f23a369f871a1dd182d78e30c0b28e4</title>
<g id="a_node10"><a xlink:href="dir_8f23a369f871a1dd182d78e30c0b28e4.html" target="_top" xlink:title="TouchExample">
<polygon fill="#fee1e1" stroke="#404040" points="254.5,-51 167.5,-51 167.5,-32 254.5,-32 254.5,-51"/>
<text text-anchor="middle" x="211" y="-39" font-family="Helvetica,sans-Serif" font-size="10.00">TouchExample</text>
</a>
</g>
</g>
<!-- dir_46cde64be7b725eeb3eb20299baab3d1 -->
<g id="node11" class="node">
<title>dir_46cde64be7b725eeb3eb20299baab3d1</title>
<g id="a_node11"><a xlink:href="dir_46cde64be7b725eeb3eb20299baab3d1.html" target="_top" xlink:title="VirtualDeviceExample">
<polygon fill="#fee1e1" stroke="#404040" points="149.5,-51 24.5,-51 24.5,-32 149.5,-32 149.5,-51"/>
<text text-anchor="middle" x="87" y="-39" font-family="Helvetica,sans-Serif" font-size="10.00">VirtualDeviceExample</text>
</a>
</g>
</g>
</g>
</svg>

<g id="navigator" transform="translate(0 0)" fill="#404254">
  <rect fill="#f2f5e9" fill-opacity="0.5" stroke="#606060" stroke-width=".5" x="0" y="0" width="60" height="60"/>
  <use id="zoomplus" xlink:href="#zoomPlus" x="17" y="9" onmousedown="handleZoom(evt,'in')"/>
  <use id="zoomminus" xlink:href="#zoomMin" x="42" y="9" onmousedown="handleZoom(evt,'out')"/>
  <use id="reset" xlink:href="#resetDef" x="30" y="36" onmousedown="handleReset()"/>
   <use id="arrowup" xlink:href="#arrowUp" x="0" y="0" onmousedown="handlePan(0,-1)"/>
  <use id="arrowright" xlink:href="#arrowRight" x="0" y="0" onmousedown="handlePan(1,0)"/>
  <use id="arrowdown" xlink:href="#arrowDown" x="0" y="0" onmousedown="handlePan(0,1)"/>
  <use id="arrowleft" xlink:href="#arrowLeft" x="0" y="0" onmousedown="handlePan(-1,0)"/>
</g>
<svg viewBox="0 0 15 15" width="100%" height="30px" preserveAspectRatio="xMaxYMin meet">
 <g id="arrow_out" transform="scale(0.3 0.3)">
  <a xlink:href="dir_85c14e3eb16f41e56540629f248f9efe_dep_org.svg" target="_base">
   <rect id="button" ry="5" rx="5" y="6" x="6" height="38" width="38"
        fill="#f2f5e9" fill-opacity="0.5" stroke="#606060" stroke-width="1.0"/>
   <path id="arrow"
     d="M 11.500037,31.436501 C 11.940474,20.09759 22.043105,11.32322 32.158766,21.979434 L 37.068811,17.246167 C 37.068811,17.246167 37.088388,32 37.088388,32 L 22.160133,31.978069 C 22.160133,31.978069 26.997745,27.140456 26.997745,27.140456 C 18.528582,18.264221 13.291696,25.230495 11.500037,31.436501 z"
     style="fill:#404040;"/>
  </a>
 </g>
</svg>

<style type='text/css'>
<![CDATA[
[data-mouse-over-selected='false'] { opacity: 0.7; }
[data-mouse-over-selected='true']  { opacity: 1.0; }
]]>
</style>
<script type="application/ecmascript"><![CDATA[
document.addEventListener('DOMContentLoaded', (event) => {
  highlightEdges();
  highlightAdjacentNodes();
});
]]></script>
</svg>
