<?xml version="1.0" encoding="UTF-8" standalone="no"?>
<!DOCTYPE svg PUBLIC "-//W3C//DTD SVG 1.1//EN"
 "http://www.w3.org/Graphics/SVG/1.1/DTD/svg11.dtd">
<!-- Generated by graphviz version 2.43.0 (0)
 -->
<!-- Title: source/UnityEngine.CoreModule/UnityEngine Pages: 1 -->
<!--zoomable 126 -->

<svg id="main" version="1.1" xmlns="http://www.w3.org/2000/svg" xmlns:xlink="http://www.w3.org/1999/xlink" xml:space="preserve" onload="init(evt)">
<style type="text/css"><![CDATA[
.node, .edge {opacity: 0.7;}
.node.selected, .edge.selected {opacity: 1;}
.edge:hover path { stroke: red; }
.edge:hover polygon { stroke: red; fill: red; }
]]></style>

<defs>
  <circle id="rim" cx="0" cy="0" r="7"/>
  <circle id="rim2" cx="0" cy="0" r="3.5"/>
  <g id="zoomPlus">
    <use xlink:href="#rim" fill="#404040"><set attributeName="fill" to="#808080" begin="zoomplus.mouseover" end="zoomplus.mouseout"/></use>
    <path d="M-4,0h8M0,-4v8" fill="none" stroke="white" stroke-width="1.5" pointer-events="none"/>
  </g>
  <g id="zoomMin">
    <use xlink:href="#rim" fill="#404040"><set attributeName="fill" to="#808080" begin="zoomminus.mouseover" end="zoomminus.mouseout"/></use>
    <path d="M-4,0h8" fill="none" stroke="white" stroke-width="1.5" pointer-events="none"/>
  </g>
  <g id="arrowUp" transform="translate(30 24)">
    <use xlink:href="#rim"/>
    <path pointer-events="none" fill="none" stroke="white" stroke-width="1.5" d="M0,-3.0v7 M-2.5,-0.5L0,-3.0L2.5,-0.5"/>
  </g>
  <g id="arrowRight" transform="rotate(90) translate(36 -43)">
    <use xlink:href="#rim"/>
    <path pointer-events="none" fill="none" stroke="white" stroke-width="1.5" d="M0,-3.0v7 M-2.5,-0.5L0,-3.0L2.5,-0.5"/>
  </g>
  <g id="arrowDown" transform="rotate(180) translate(-30 -48)">
    <use xlink:href="#rim"/>
    <path pointer-events="none" fill="none" stroke="white" stroke-width="1.5" d="M0,-3.0v7 M-2.5,-0.5L0,-3.0L2.5,-0.5"/>
  </g>
  <g id="arrowLeft" transform="rotate(270) translate(-36 17)">
    <use xlink:href="#rim"/>
    <path pointer-events="none" fill="none" stroke="white" stroke-width="1.5" d="M0,-3.0v7 M-2.5,-0.5L0,-3.0L2.5,-0.5"/>
  </g>
  <g id="resetDef">
    <use xlink:href="#rim2" fill="#404040"><set attributeName="fill" to="#808080" begin="reset.mouseover" end="reset.mouseout"/></use>
  </g>
</defs>
<script type="application/ecmascript">
var viewWidth = 2414;
var viewHeight = 126;
var sectionId = 'dynsection-0';
</script>
<script type="application/ecmascript" xlink:href="svg.min.js"/>
<svg id="graph" class="graph">
<g id="viewport">
<title>source/UnityEngine.CoreModule/UnityEngine</title>
<g id="clust1" class="cluster">
<title>clusterdir_8919d08dc0c84fd805e599622ba74f35</title>
<g id="a_clust1"><a xlink:href="dir_8919d08dc0c84fd805e599622ba74f35.html" target="_top" xlink:title="UnityEngine.CoreModule">
<polygon fill="#ffe5e5" stroke="#7f7f7f" stroke-dasharray="5,2" points="8,-8 8,-110 2398,-110 2398,-8 8,-8"/>
<text text-anchor="middle" x="1203" y="-98" font-family="Helvetica,sans-Serif" font-size="10.00">UnityEngine.CoreModule</text>
</a>
</g>
</g>
<g id="clust2" class="cluster">
<title>clusterdir_dcb5756d468d08dcdcdf227318d5efb6</title>
<g id="a_clust2"><a xlink:href="dir_dcb5756d468d08dcdcdf227318d5efb6.html" target="_top">
<polygon fill="#ffe5e5" stroke="#404040" stroke-width="2" points="16,-16 16,-83 2390,-83 2390,-16 16,-16"/>
</a>
</g>
</g>
<g id="clust3" class="cluster">
<title>clusterdir_c8381cfd13eddf5719b82da7e8672d29</title>
<g id="a_clust3"><a xlink:href="dir_c8381cfd13eddf5719b82da7e8672d29.html" target="_top">
<polygon fill="#fee1e1" stroke="#404040" points="2205,-32 2205,-67 2382,-67 2382,-32 2205,-32"/>
</a>
</g>
</g>
<g id="clust4" class="cluster">
<title>clusterdir_b6373f7736579bde6c47477606369da7</title>
<g id="a_clust4"><a xlink:href="dir_b6373f7736579bde6c47477606369da7.html" target="_top">
<polygon fill="#fee1e1" stroke="#404040" points="1751,-32 1751,-67 2197,-67 2197,-32 1751,-32"/>
</a>
</g>
</g>
<g id="clust5" class="cluster">
<title>clusterdir_75a7f4bc049d40db97a1c7432cb9d08b</title>
<g id="a_clust5"><a xlink:href="dir_75a7f4bc049d40db97a1c7432cb9d08b.html" target="_top">
<polygon fill="#fee1e1" stroke="#404040" points="1533,-32 1533,-67 1743,-67 1743,-32 1533,-32"/>
</a>
</g>
</g>
<g id="clust6" class="cluster">
<title>clusterdir_9c40324b05760c211ac6d5fd50c3a1d9</title>
<g id="a_clust6"><a xlink:href="dir_9c40324b05760c211ac6d5fd50c3a1d9.html" target="_top">
<polygon fill="#fee1e1" stroke="#404040" points="1169,-24 1169,-75 1525,-75 1525,-24 1169,-24"/>
</a>
</g>
</g>
<g id="clust7" class="cluster">
<title>clusterdir_6c2fe4f940885f2ea79153e68ac82ab7</title>
<g id="a_clust7"><a xlink:href="dir_6c2fe4f940885f2ea79153e68ac82ab7.html" target="_top">
<polygon fill="#ffdddd" stroke="#404040" points="1343,-32 1343,-67 1517,-67 1517,-32 1343,-32"/>
</a>
</g>
</g>
<g id="clust8" class="cluster">
<title>clusterdir_2a92b2195c48001a48e0ac9cfbf820bb</title>
<g id="a_clust8"><a xlink:href="dir_2a92b2195c48001a48e0ac9cfbf820bb.html" target="_top">
<polygon fill="#fee1e1" stroke="#404040" points="990,-32 990,-67 1161,-67 1161,-32 990,-32"/>
</a>
</g>
</g>
<!-- dir_dcb5756d468d08dcdcdf227318d5efb6 -->
<g id="node1" class="node">
<title>dir_dcb5756d468d08dcdcdf227318d5efb6</title>
<text text-anchor="middle" x="942" y="-47" font-family="Helvetica,sans-Serif" font-size="10.00">UnityEngine</text>
</g>
<!-- dir_c8381cfd13eddf5719b82da7e8672d29 -->
<g id="node2" class="node">
<title>dir_c8381cfd13eddf5719b82da7e8672d29</title>
<text text-anchor="middle" x="2341" y="-47" font-family="Helvetica,sans-Serif" font-size="10.00">_Scripting</text>
</g>
<!-- dir_8c5700145df4d83b89d4241c05c5db19 -->
<g id="node3" class="node">
<title>dir_8c5700145df4d83b89d4241c05c5db19</title>
<g id="a_node3"><a xlink:href="dir_8c5700145df4d83b89d4241c05c5db19.html" target="_top" xlink:title="APIUpdating">
<polygon fill="#ffdddd" stroke="#404040" points="2290.5,-59 2213.5,-59 2213.5,-40 2290.5,-40 2290.5,-59"/>
<text text-anchor="middle" x="2252" y="-47" font-family="Helvetica,sans-Serif" font-size="10.00">APIUpdating</text>
</a>
</g>
</g>
<!-- dir_70d1709bbdd3e3f39801873692cfe3de -->
<g id="node4" class="node">
<title>dir_70d1709bbdd3e3f39801873692cfe3de</title>
<g id="a_node4"><a xlink:href="dir_70d1709bbdd3e3f39801873692cfe3de.html" target="_top" xlink:title="Events">
<polygon fill="#fee1e1" stroke="#404040" points="886,-59 836,-59 836,-40 886,-40 886,-59"/>
<text text-anchor="middle" x="861" y="-47" font-family="Helvetica,sans-Serif" font-size="10.00">Events</text>
</a>
</g>
</g>
<!-- dir_b6373f7736579bde6c47477606369da7 -->
<g id="node5" class="node">
<title>dir_b6373f7736579bde6c47477606369da7</title>
<text text-anchor="middle" x="2148" y="-47" font-family="Helvetica,sans-Serif" font-size="10.00">Experimental</text>
</g>
<!-- dir_489f37d7c5343103e4c8f218f51e6ebc -->
<g id="node6" class="node">
<title>dir_489f37d7c5343103e4c8f218f51e6ebc</title>
<g id="a_node6"><a xlink:href="dir_489f37d7c5343103e4c8f218f51e6ebc.html" target="_top" xlink:title="GlobalIllumination">
<polygon fill="#ffdddd" stroke="#404040" points="2088.5,-59 1981.5,-59 1981.5,-40 2088.5,-40 2088.5,-59"/>
<text text-anchor="middle" x="2035" y="-47" font-family="Helvetica,sans-Serif" font-size="10.00">GlobalIllumination</text>
</a>
</g>
</g>
<!-- dir_ba75d492bfca7cde8152281f91d5de82 -->
<g id="node7" class="node">
<title>dir_ba75d492bfca7cde8152281f91d5de82</title>
<g id="a_node7"><a xlink:href="dir_ba75d492bfca7cde8152281f91d5de82.html" target="_top" xlink:title="Playables">
<polygon fill="#ffdddd" stroke="#404040" points="1963,-59 1899,-59 1899,-40 1963,-40 1963,-59"/>
<text text-anchor="middle" x="1931" y="-47" font-family="Helvetica,sans-Serif" font-size="10.00">Playables</text>
</a>
</g>
</g>
<!-- dir_1f777c4d3cf98a9f21e1846d6ffcfe44 -->
<g id="node8" class="node">
<title>dir_1f777c4d3cf98a9f21e1846d6ffcfe44</title>
<g id="a_node8"><a xlink:href="dir_1f777c4d3cf98a9f21e1846d6ffcfe44.html" target="_top" xlink:title="Rendering">
<polygon fill="#ffdddd" stroke="#404040" points="1881,-59 1815,-59 1815,-40 1881,-40 1881,-59"/>
<text text-anchor="middle" x="1848" y="-47" font-family="Helvetica,sans-Serif" font-size="10.00">Rendering</text>
</a>
</g>
</g>
<!-- dir_5a7c827f2942598a2f98b0bfd8008f13 -->
<g id="node9" class="node">
<title>dir_5a7c827f2942598a2f98b0bfd8008f13</title>
<g id="a_node9"><a xlink:href="dir_5a7c827f2942598a2f98b0bfd8008f13.html" target="_top" xlink:title="U2D">
<polygon fill="#ffdddd" stroke="#404040" points="1797,-59 1759,-59 1759,-40 1797,-40 1797,-59"/>
<text text-anchor="middle" x="1778" y="-47" font-family="Helvetica,sans-Serif" font-size="10.00">U2D</text>
</a>
</g>
</g>
<!-- dir_daa9769c83410d98d66a99f26fc56327 -->
<g id="node10" class="node">
<title>dir_daa9769c83410d98d66a99f26fc56327</title>
<g id="a_node10"><a xlink:href="dir_daa9769c83410d98d66a99f26fc56327.html" target="_top" xlink:title="Internal">
<polygon fill="#fee1e1" stroke="#404040" points="818,-59 764,-59 764,-40 818,-40 818,-59"/>
<text text-anchor="middle" x="791" y="-47" font-family="Helvetica,sans-Serif" font-size="10.00">Internal</text>
</a>
</g>
</g>
<!-- dir_848ea7073224daf99ba90c9c070da507 -->
<g id="node11" class="node">
<title>dir_848ea7073224daf99ba90c9c070da507</title>
<g id="a_node11"><a xlink:href="dir_848ea7073224daf99ba90c9c070da507.html" target="_top" xlink:title="LowLevel">
<polygon fill="#fee1e1" stroke="#404040" points="746,-59 684,-59 684,-40 746,-40 746,-59"/>
<text text-anchor="middle" x="715" y="-47" font-family="Helvetica,sans-Serif" font-size="10.00">LowLevel</text>
</a>
</g>
</g>
<!-- dir_75a7f4bc049d40db97a1c7432cb9d08b -->
<g id="node12" class="node">
<title>dir_75a7f4bc049d40db97a1c7432cb9d08b</title>
<text text-anchor="middle" x="1698" y="-47" font-family="Helvetica,sans-Serif" font-size="10.00">Networking</text>
</g>
<!-- dir_41c8d3e1f99a0aff29ce16439db57b52 -->
<g id="node13" class="node">
<title>dir_41c8d3e1f99a0aff29ce16439db57b52</title>
<g id="a_node13"><a xlink:href="dir_41c8d3e1f99a0aff29ce16439db57b52.html" target="_top" xlink:title="PlayerConnection">
<polygon fill="#ffdddd" stroke="#404040" points="1643,-59 1541,-59 1541,-40 1643,-40 1643,-59"/>
<text text-anchor="middle" x="1592" y="-47" font-family="Helvetica,sans-Serif" font-size="10.00">PlayerConnection</text>
</a>
</g>
</g>
<!-- dir_cfbc5024e2181bfa32b38a70fc6e0a0f -->
<g id="node14" class="node">
<title>dir_cfbc5024e2181bfa32b38a70fc6e0a0f</title>
<g id="a_node14"><a xlink:href="dir_cfbc5024e2181bfa32b38a70fc6e0a0f.html" target="_top" xlink:title="Playables">
<polygon fill="#fee1e1" stroke="#404040" points="666,-59 602,-59 602,-40 666,-40 666,-59"/>
<text text-anchor="middle" x="634" y="-47" font-family="Helvetica,sans-Serif" font-size="10.00">Playables</text>
</a>
</g>
</g>
<!-- dir_95c7dac392c48f721b75310c1c9e2a39 -->
<g id="node15" class="node">
<title>dir_95c7dac392c48f721b75310c1c9e2a39</title>
<g id="a_node15"><a xlink:href="dir_95c7dac392c48f721b75310c1c9e2a39.html" target="_top" xlink:title="PlayerLoop">
<polygon fill="#fee1e1" stroke="#404040" points="583.5,-59 512.5,-59 512.5,-40 583.5,-40 583.5,-59"/>
<text text-anchor="middle" x="548" y="-47" font-family="Helvetica,sans-Serif" font-size="10.00">PlayerLoop</text>
</a>
</g>
</g>
<!-- dir_3eeb4ae8a924096da25a91a669e23301 -->
<g id="node16" class="node">
<title>dir_3eeb4ae8a924096da25a91a669e23301</title>
<g id="a_node16"><a xlink:href="dir_3eeb4ae8a924096da25a91a669e23301.html" target="_top" xlink:title="Pool">
<polygon fill="#fee1e1" stroke="#404040" points="494,-59 456,-59 456,-40 494,-40 494,-59"/>
<text text-anchor="middle" x="475" y="-47" font-family="Helvetica,sans-Serif" font-size="10.00">Pool</text>
</a>
</g>
</g>
<!-- dir_9c40324b05760c211ac6d5fd50c3a1d9 -->
<g id="node17" class="node">
<title>dir_9c40324b05760c211ac6d5fd50c3a1d9</title>
<text text-anchor="middle" x="1305" y="-47" font-family="Helvetica,sans-Serif" font-size="10.00">Profiling</text>
</g>
<!-- dir_b50ca0519534a283e461ce213cf807d7 -->
<g id="node18" class="node">
<title>dir_b50ca0519534a283e461ce213cf807d7</title>
<g id="a_node18"><a xlink:href="dir_b50ca0519534a283e461ce213cf807d7.html" target="_top" xlink:title="Experimental">
<polygon fill="#ffdddd" stroke="#404040" points="1259,-59 1177,-59 1177,-40 1259,-40 1259,-59"/>
<text text-anchor="middle" x="1218" y="-47" font-family="Helvetica,sans-Serif" font-size="10.00">Experimental</text>
</a>
</g>
</g>
<!-- dir_6c2fe4f940885f2ea79153e68ac82ab7 -->
<g id="node19" class="node">
<title>dir_6c2fe4f940885f2ea79153e68ac82ab7</title>
<text text-anchor="middle" x="1480" y="-47" font-family="Helvetica,sans-Serif" font-size="10.00">Memory</text>
</g>
<!-- dir_aebb9d4cef3a4e02223f4bfe69e59ac5 -->
<g id="node20" class="node">
<title>dir_aebb9d4cef3a4e02223f4bfe69e59ac5</title>
<g id="a_node20"><a xlink:href="dir_aebb9d4cef3a4e02223f4bfe69e59ac5.html" target="_top" xlink:title="Experimental">
<polygon fill="#ffd9d9" stroke="#404040" points="1433,-59 1351,-59 1351,-40 1433,-40 1433,-59"/>
<text text-anchor="middle" x="1392" y="-47" font-family="Helvetica,sans-Serif" font-size="10.00">Experimental</text>
</a>
</g>
</g>
<!-- dir_79177e86309da15c80fcb3dc86bee2a9 -->
<g id="node21" class="node">
<title>dir_79177e86309da15c80fcb3dc86bee2a9</title>
<g id="a_node21"><a xlink:href="dir_79177e86309da15c80fcb3dc86bee2a9.html" target="_top" xlink:title="Rendering">
<polygon fill="#fee1e1" stroke="#404040" points="438,-59 372,-59 372,-40 438,-40 438,-59"/>
<text text-anchor="middle" x="405" y="-47" font-family="Helvetica,sans-Serif" font-size="10.00">Rendering</text>
</a>
</g>
</g>
<!-- dir_c0c641942b24e1256b59b93dbc276bbe -->
<g id="node22" class="node">
<title>dir_c0c641942b24e1256b59b93dbc276bbe</title>
<g id="a_node22"><a xlink:href="dir_c0c641942b24e1256b59b93dbc276bbe.html" target="_top" xlink:title="SceneManagement">
<polygon fill="#fee1e1" stroke="#404040" points="354,-59 244,-59 244,-40 354,-40 354,-59"/>
<text text-anchor="middle" x="299" y="-47" font-family="Helvetica,sans-Serif" font-size="10.00">SceneManagement</text>
</a>
</g>
</g>
<!-- dir_2a92b2195c48001a48e0ac9cfbf820bb -->
<g id="node23" class="node">
<title>dir_2a92b2195c48001a48e0ac9cfbf820bb</title>
<text text-anchor="middle" x="1123" y="-47" font-family="Helvetica,sans-Serif" font-size="10.00">Scripting</text>
</g>
<!-- dir_9623ee97e73314fc9018dbcffaabeab9 -->
<g id="node24" class="node">
<title>dir_9623ee97e73314fc9018dbcffaabeab9</title>
<g id="a_node24"><a xlink:href="dir_9623ee97e73314fc9018dbcffaabeab9.html" target="_top" xlink:title="APIUpdating">
<polygon fill="#ffdddd" stroke="#404040" points="1075.5,-59 998.5,-59 998.5,-40 1075.5,-40 1075.5,-59"/>
<text text-anchor="middle" x="1037" y="-47" font-family="Helvetica,sans-Serif" font-size="10.00">APIUpdating</text>
</a>
</g>
</g>
<!-- dir_be4280867be4d1594838f1ba702eea03 -->
<g id="node25" class="node">
<title>dir_be4280867be4d1594838f1ba702eea03</title>
<g id="a_node25"><a xlink:href="dir_be4280867be4d1594838f1ba702eea03.html" target="_top" xlink:title="Serialization">
<polygon fill="#fee1e1" stroke="#404040" points="225.5,-59 148.5,-59 148.5,-40 225.5,-40 225.5,-59"/>
<text text-anchor="middle" x="187" y="-47" font-family="Helvetica,sans-Serif" font-size="10.00">Serialization</text>
</a>
</g>
</g>
<!-- dir_69f02c65b4d14167ec0a36f28461f153 -->
<g id="node26" class="node">
<title>dir_69f02c65b4d14167ec0a36f28461f153</title>
<g id="a_node26"><a xlink:href="dir_69f02c65b4d14167ec0a36f28461f153.html" target="_top" xlink:title="Sprites">
<polygon fill="#fee1e1" stroke="#404040" points="130,-59 80,-59 80,-40 130,-40 130,-59"/>
<text text-anchor="middle" x="105" y="-47" font-family="Helvetica,sans-Serif" font-size="10.00">Sprites</text>
</a>
</g>
</g>
<!-- dir_65442b0ed9d40dad3c32536a656b8df6 -->
<g id="node27" class="node">
<title>dir_65442b0ed9d40dad3c32536a656b8df6</title>
<g id="a_node27"><a xlink:href="dir_65442b0ed9d40dad3c32536a656b8df6.html" target="_top" xlink:title="U2D">
<polygon fill="#fee1e1" stroke="#404040" points="62,-59 24,-59 24,-40 62,-40 62,-59"/>
<text text-anchor="middle" x="43" y="-47" font-family="Helvetica,sans-Serif" font-size="10.00">U2D</text>
</a>
</g>
</g>
</g>
</svg>

<g id="navigator" transform="translate(0 0)" fill="#404254">
  <rect fill="#f2f5e9" fill-opacity="0.5" stroke="#606060" stroke-width=".5" x="0" y="0" width="60" height="60"/>
  <use id="zoomplus" xlink:href="#zoomPlus" x="17" y="9" onmousedown="handleZoom(evt,'in')"/>
  <use id="zoomminus" xlink:href="#zoomMin" x="42" y="9" onmousedown="handleZoom(evt,'out')"/>
  <use id="reset" xlink:href="#resetDef" x="30" y="36" onmousedown="handleReset()"/>
   <use id="arrowup" xlink:href="#arrowUp" x="0" y="0" onmousedown="handlePan(0,-1)"/>
  <use id="arrowright" xlink:href="#arrowRight" x="0" y="0" onmousedown="handlePan(1,0)"/>
  <use id="arrowdown" xlink:href="#arrowDown" x="0" y="0" onmousedown="handlePan(0,1)"/>
  <use id="arrowleft" xlink:href="#arrowLeft" x="0" y="0" onmousedown="handlePan(-1,0)"/>
</g>
<svg viewBox="0 0 15 15" width="100%" height="30px" preserveAspectRatio="xMaxYMin meet">
 <g id="arrow_out" transform="scale(0.3 0.3)">
  <a xlink:href="dir_dcb5756d468d08dcdcdf227318d5efb6_dep_org.svg" target="_base">
   <rect id="button" ry="5" rx="5" y="6" x="6" height="38" width="38"
        fill="#f2f5e9" fill-opacity="0.5" stroke="#606060" stroke-width="1.0"/>
   <path id="arrow"
     d="M 11.500037,31.436501 C 11.940474,20.09759 22.043105,11.32322 32.158766,21.979434 L 37.068811,17.246167 C 37.068811,17.246167 37.088388,32 37.088388,32 L 22.160133,31.978069 C 22.160133,31.978069 26.997745,27.140456 26.997745,27.140456 C 18.528582,18.264221 13.291696,25.230495 11.500037,31.436501 z"
     style="fill:#404040;"/>
  </a>
 </g>
</svg>

<style type='text/css'>
<![CDATA[
[data-mouse-over-selected='false'] { opacity: 0.7; }
[data-mouse-over-selected='true']  { opacity: 1.0; }
]]>
</style>
<script type="application/ecmascript"><![CDATA[
document.addEventListener('DOMContentLoaded', (event) => {
  highlightEdges();
  highlightAdjacentNodes();
});
]]></script>
</svg>
