<?xml version="1.0" encoding="UTF-8" standalone="no"?>
<!DOCTYPE svg PUBLIC "-//W3C//DTD SVG 1.1//EN"
 "http://www.w3.org/Graphics/SVG/1.1/DTD/svg11.dtd">
<!-- Generated by graphviz version 2.43.0 (0)
 -->
<!-- Title: source/UnityEngine.CoreModule/Unity Pages: 1 -->
<!--zoomable 126 -->

<svg id="main" version="1.1" xmlns="http://www.w3.org/2000/svg" xmlns:xlink="http://www.w3.org/1999/xlink" xml:space="preserve" onload="init(evt)">
<style type="text/css"><![CDATA[
.node, .edge {opacity: 0.7;}
.node.selected, .edge.selected {opacity: 1;}
.edge:hover path { stroke: red; }
.edge:hover polygon { stroke: red; fill: red; }
]]></style>

<defs>
  <circle id="rim" cx="0" cy="0" r="7"/>
  <circle id="rim2" cx="0" cy="0" r="3.5"/>
  <g id="zoomPlus">
    <use xlink:href="#rim" fill="#404040"><set attributeName="fill" to="#808080" begin="zoomplus.mouseover" end="zoomplus.mouseout"/></use>
    <path d="M-4,0h8M0,-4v8" fill="none" stroke="white" stroke-width="1.5" pointer-events="none"/>
  </g>
  <g id="zoomMin">
    <use xlink:href="#rim" fill="#404040"><set attributeName="fill" to="#808080" begin="zoomminus.mouseover" end="zoomminus.mouseout"/></use>
    <path d="M-4,0h8" fill="none" stroke="white" stroke-width="1.5" pointer-events="none"/>
  </g>
  <g id="arrowUp" transform="translate(30 24)">
    <use xlink:href="#rim"/>
    <path pointer-events="none" fill="none" stroke="white" stroke-width="1.5" d="M0,-3.0v7 M-2.5,-0.5L0,-3.0L2.5,-0.5"/>
  </g>
  <g id="arrowRight" transform="rotate(90) translate(36 -43)">
    <use xlink:href="#rim"/>
    <path pointer-events="none" fill="none" stroke="white" stroke-width="1.5" d="M0,-3.0v7 M-2.5,-0.5L0,-3.0L2.5,-0.5"/>
  </g>
  <g id="arrowDown" transform="rotate(180) translate(-30 -48)">
    <use xlink:href="#rim"/>
    <path pointer-events="none" fill="none" stroke="white" stroke-width="1.5" d="M0,-3.0v7 M-2.5,-0.5L0,-3.0L2.5,-0.5"/>
  </g>
  <g id="arrowLeft" transform="rotate(270) translate(-36 17)">
    <use xlink:href="#rim"/>
    <path pointer-events="none" fill="none" stroke="white" stroke-width="1.5" d="M0,-3.0v7 M-2.5,-0.5L0,-3.0L2.5,-0.5"/>
  </g>
  <g id="resetDef">
    <use xlink:href="#rim2" fill="#404040"><set attributeName="fill" to="#808080" begin="reset.mouseover" end="reset.mouseout"/></use>
  </g>
</defs>
<script type="application/ecmascript">
var viewWidth = 978;
var viewHeight = 126;
var sectionId = 'dynsection-0';
</script>
<script type="application/ecmascript" xlink:href="svg.min.js"/>
<svg id="graph" class="graph">
<g id="viewport">
<title>source/UnityEngine.CoreModule/Unity</title>
<g id="clust1" class="cluster">
<title>clusterdir_8919d08dc0c84fd805e599622ba74f35</title>
<g id="a_clust1"><a xlink:href="dir_8919d08dc0c84fd805e599622ba74f35.html" target="_top" xlink:title="UnityEngine.CoreModule">
<polygon fill="#ffe5e5" stroke="#7f7f7f" stroke-dasharray="5,2" points="8,-8 8,-110 962,-110 962,-8 8,-8"/>
<text text-anchor="middle" x="485" y="-98" font-family="Helvetica,sans-Serif" font-size="10.00">UnityEngine.CoreModule</text>
</a>
</g>
</g>
<g id="clust2" class="cluster">
<title>clusterdir_ba6b5803a01fb7243cd1d892a71bf713</title>
<g id="a_clust2"><a xlink:href="dir_ba6b5803a01fb7243cd1d892a71bf713.html" target="_top">
<polygon fill="#ffe5e5" stroke="#404040" stroke-width="2" points="16,-16 16,-83 954,-83 954,-16 16,-16"/>
</a>
</g>
</g>
<g id="clust3" class="cluster">
<title>clusterdir_66a3cd5c03e0bf7a9b5071e3e3d63275</title>
<g id="a_clust3"><a xlink:href="dir_66a3cd5c03e0bf7a9b5071e3e3d63275.html" target="_top">
<polygon fill="#fee1e1" stroke="#404040" points="701,-24 701,-75 946,-75 946,-24 701,-24"/>
</a>
</g>
</g>
<g id="clust4" class="cluster">
<title>clusterdir_07333586e4ee5b6950f8ee99d995b39e</title>
<g id="a_clust4"><a xlink:href="dir_07333586e4ee5b6950f8ee99d995b39e.html" target="_top">
<polygon fill="#ffdddd" stroke="#404040" points="790,-32 790,-67 938,-67 938,-32 790,-32"/>
</a>
</g>
</g>
<g id="clust5" class="cluster">
<title>clusterdir_d219506d351dd142a565fcaf398e3e0f</title>
<g id="a_clust5"><a xlink:href="dir_d219506d351dd142a565fcaf398e3e0f.html" target="_top">
<polygon fill="#fee1e1" stroke="#404040" points="507,-32 507,-67 693,-67 693,-32 507,-32"/>
</a>
</g>
</g>
<g id="clust6" class="cluster">
<title>clusterdir_e420b7eac51c3f5bf9a96f5d122e8d1b</title>
<g id="a_clust6"><a xlink:href="dir_e420b7eac51c3f5bf9a96f5d122e8d1b.html" target="_top">
<polygon fill="#fee1e1" stroke="#404040" points="296,-24 296,-75 499,-75 499,-24 296,-24"/>
</a>
</g>
</g>
<g id="clust7" class="cluster">
<title>clusterdir_1a9357ff9177ab12ca5c3441470e7226</title>
<g id="a_clust7"><a xlink:href="dir_1a9357ff9177ab12ca5c3441470e7226.html" target="_top">
<polygon fill="#ffdddd" stroke="#404040" points="343,-32 343,-67 491,-67 491,-32 343,-32"/>
</a>
</g>
</g>
<g id="clust8" class="cluster">
<title>clusterdir_5be1c2d9edd239505529ea9743f22a19</title>
<g id="a_clust8"><a xlink:href="dir_5be1c2d9edd239505529ea9743f22a19.html" target="_top">
<polygon fill="#fee1e1" stroke="#404040" points="77,-24 77,-75 288,-75 288,-24 77,-24"/>
</a>
</g>
</g>
<g id="clust9" class="cluster">
<title>clusterdir_3e736312b1ad895a063119d1a07f2bf3</title>
<g id="a_clust9"><a xlink:href="dir_3e736312b1ad895a063119d1a07f2bf3.html" target="_top">
<polygon fill="#ffdddd" stroke="#404040" points="132,-32 132,-67 280,-67 280,-32 132,-32"/>
</a>
</g>
</g>
<!-- dir_ba6b5803a01fb7243cd1d892a71bf713 -->
<g id="node1" class="node">
<title>dir_ba6b5803a01fb7243cd1d892a71bf713</title>
<text text-anchor="middle" x="46" y="-47" font-family="Helvetica,sans-Serif" font-size="10.00">Unity</text>
</g>
<!-- dir_66a3cd5c03e0bf7a9b5071e3e3d63275 -->
<g id="node2" class="node">
<title>dir_66a3cd5c03e0bf7a9b5071e3e3d63275</title>
<text text-anchor="middle" x="745" y="-47" font-family="Helvetica,sans-Serif" font-size="10.00">Collections</text>
</g>
<!-- dir_07333586e4ee5b6950f8ee99d995b39e -->
<g id="node3" class="node">
<title>dir_07333586e4ee5b6950f8ee99d995b39e</title>
<text text-anchor="middle" x="899" y="-47" font-family="Helvetica,sans-Serif" font-size="10.00">LowLevel</text>
</g>
<!-- dir_2183087bce2582b2eef79612c48363a1 -->
<g id="node4" class="node">
<title>dir_2183087bce2582b2eef79612c48363a1</title>
<g id="a_node4"><a xlink:href="dir_2183087bce2582b2eef79612c48363a1.html" target="_top" xlink:title="Unsafe">
<polygon fill="#ffd9d9" stroke="#404040" points="849.5,-59 798.5,-59 798.5,-40 849.5,-40 849.5,-59"/>
<text text-anchor="middle" x="824" y="-47" font-family="Helvetica,sans-Serif" font-size="10.00">Unsafe</text>
</a>
</g>
</g>
<!-- dir_d219506d351dd142a565fcaf398e3e0f -->
<g id="node5" class="node">
<title>dir_d219506d351dd142a565fcaf398e3e0f</title>
<text text-anchor="middle" x="660" y="-47" font-family="Helvetica,sans-Serif" font-size="10.00">IL2CPP</text>
</g>
<!-- dir_62dbd59d061d9b1add7df6703cd44dbd -->
<g id="node6" class="node">
<title>dir_62dbd59d061d9b1add7df6703cd44dbd</title>
<g id="a_node6"><a xlink:href="dir_62dbd59d061d9b1add7df6703cd44dbd.html" target="_top" xlink:title="CompilerServices">
<polygon fill="#ffdddd" stroke="#404040" points="617,-59 515,-59 515,-40 617,-40 617,-59"/>
<text text-anchor="middle" x="566" y="-47" font-family="Helvetica,sans-Serif" font-size="10.00">CompilerServices</text>
</a>
</g>
</g>
<!-- dir_e420b7eac51c3f5bf9a96f5d122e8d1b -->
<g id="node7" class="node">
<title>dir_e420b7eac51c3f5bf9a96f5d122e8d1b</title>
<text text-anchor="middle" x="319" y="-47" font-family="Helvetica,sans-Serif" font-size="10.00">IO</text>
</g>
<!-- dir_1a9357ff9177ab12ca5c3441470e7226 -->
<g id="node8" class="node">
<title>dir_1a9357ff9177ab12ca5c3441470e7226</title>
<text text-anchor="middle" x="452" y="-47" font-family="Helvetica,sans-Serif" font-size="10.00">LowLevel</text>
</g>
<!-- dir_bbaa4520e39a5c2e687fb5b230b3fcc9 -->
<g id="node9" class="node">
<title>dir_bbaa4520e39a5c2e687fb5b230b3fcc9</title>
<g id="a_node9"><a xlink:href="dir_bbaa4520e39a5c2e687fb5b230b3fcc9.html" target="_top" xlink:title="Unsafe">
<polygon fill="#ffd9d9" stroke="#404040" points="402.5,-59 351.5,-59 351.5,-40 402.5,-40 402.5,-59"/>
<text text-anchor="middle" x="377" y="-47" font-family="Helvetica,sans-Serif" font-size="10.00">Unsafe</text>
</a>
</g>
</g>
<!-- dir_5be1c2d9edd239505529ea9743f22a19 -->
<g id="node10" class="node">
<title>dir_5be1c2d9edd239505529ea9743f22a19</title>
<text text-anchor="middle" x="104" y="-47" font-family="Helvetica,sans-Serif" font-size="10.00">Jobs</text>
</g>
<!-- dir_3e736312b1ad895a063119d1a07f2bf3 -->
<g id="node11" class="node">
<title>dir_3e736312b1ad895a063119d1a07f2bf3</title>
<text text-anchor="middle" x="241" y="-47" font-family="Helvetica,sans-Serif" font-size="10.00">LowLevel</text>
</g>
<!-- dir_a1a77ff005457bb1b21ed7e94237836a -->
<g id="node12" class="node">
<title>dir_a1a77ff005457bb1b21ed7e94237836a</title>
<g id="a_node12"><a xlink:href="dir_a1a77ff005457bb1b21ed7e94237836a.html" target="_top" xlink:title="Unsafe">
<polygon fill="#ffd9d9" stroke="#404040" points="191.5,-59 140.5,-59 140.5,-40 191.5,-40 191.5,-59"/>
<text text-anchor="middle" x="166" y="-47" font-family="Helvetica,sans-Serif" font-size="10.00">Unsafe</text>
</a>
</g>
</g>
</g>
</svg>

<g id="navigator" transform="translate(0 0)" fill="#404254">
  <rect fill="#f2f5e9" fill-opacity="0.5" stroke="#606060" stroke-width=".5" x="0" y="0" width="60" height="60"/>
  <use id="zoomplus" xlink:href="#zoomPlus" x="17" y="9" onmousedown="handleZoom(evt,'in')"/>
  <use id="zoomminus" xlink:href="#zoomMin" x="42" y="9" onmousedown="handleZoom(evt,'out')"/>
  <use id="reset" xlink:href="#resetDef" x="30" y="36" onmousedown="handleReset()"/>
   <use id="arrowup" xlink:href="#arrowUp" x="0" y="0" onmousedown="handlePan(0,-1)"/>
  <use id="arrowright" xlink:href="#arrowRight" x="0" y="0" onmousedown="handlePan(1,0)"/>
  <use id="arrowdown" xlink:href="#arrowDown" x="0" y="0" onmousedown="handlePan(0,1)"/>
  <use id="arrowleft" xlink:href="#arrowLeft" x="0" y="0" onmousedown="handlePan(-1,0)"/>
</g>
<svg viewBox="0 0 15 15" width="100%" height="30px" preserveAspectRatio="xMaxYMin meet">
 <g id="arrow_out" transform="scale(0.3 0.3)">
  <a xlink:href="dir_ba6b5803a01fb7243cd1d892a71bf713_dep_org.svg" target="_base">
   <rect id="button" ry="5" rx="5" y="6" x="6" height="38" width="38"
        fill="#f2f5e9" fill-opacity="0.5" stroke="#606060" stroke-width="1.0"/>
   <path id="arrow"
     d="M 11.500037,31.436501 C 11.940474,20.09759 22.043105,11.32322 32.158766,21.979434 L 37.068811,17.246167 C 37.068811,17.246167 37.088388,32 37.088388,32 L 22.160133,31.978069 C 22.160133,31.978069 26.997745,27.140456 26.997745,27.140456 C 18.528582,18.264221 13.291696,25.230495 11.500037,31.436501 z"
     style="fill:#404040;"/>
  </a>
 </g>
</svg>

<style type='text/css'>
<![CDATA[
[data-mouse-over-selected='false'] { opacity: 0.7; }
[data-mouse-over-selected='true']  { opacity: 1.0; }
]]>
</style>
<script type="application/ecmascript"><![CDATA[
document.addEventListener('DOMContentLoaded', (event) => {
  highlightEdges();
  highlightAdjacentNodes();
});
]]></script>
</svg>
