<?xml version="1.0" encoding="UTF-8" standalone="no"?>
<!DOCTYPE svg PUBLIC "-//W3C//DTD SVG 1.1//EN"
 "http://www.w3.org/Graphics/SVG/1.1/DTD/svg11.dtd">
<!-- Generated by graphviz version 2.43.0 (0)
 -->
<!-- Title: Graphical Class Hierarchy Pages: 1 -->
<svg width="383pt" height="86pt"
 viewBox="0.00 0.00 383.00 86.00" xmlns="http://www.w3.org/2000/svg" xmlns:xlink="http://www.w3.org/1999/xlink">
<g id="graph0" class="graph" transform="scale(1 1) rotate(0) translate(4 82)">
<title>Graphical Class Hierarchy</title>
<!-- Node0 -->
<g id="Node000000" class="node">
<title>Node0</title>
<g id="a_Node000000"><a xlink:href="de/d7a/classSystem_1_1Net_1_1TransportContext.html" target="_top" xlink:title=" ">
<polygon fill="white" stroke="#666666" points="160,-48.5 0,-48.5 0,-29.5 160,-29.5 160,-48.5"/>
<text text-anchor="middle" x="80" y="-36.5" font-family="Helvetica,sans-Serif" font-size="10.00">System.Net.TransportContext</text>
</a>
</g>
</g>
<!-- Node1 -->
<g id="Node000001" class="node">
<title>Node1</title>
<g id="a_Node000001"><a xlink:href="dd/d31/classSystem_1_1Net_1_1CachedTransportContext.html" target="_top" xlink:title=" ">
<polygon fill="white" stroke="#666666" points="364.5,-78 206.5,-78 206.5,-48 364.5,-48 364.5,-78"/>
<text text-anchor="start" x="214.5" y="-66" font-family="Helvetica,sans-Serif" font-size="10.00">System.Net.CachedTransport</text>
<text text-anchor="middle" x="285.5" y="-55" font-family="Helvetica,sans-Serif" font-size="10.00">Context</text>
</a>
</g>
</g>
<!-- Node0&#45;&gt;Node1 -->
<g id="edge3584_Node000000_Node000001" class="edge">
<title>Node0&#45;&gt;Node1</title>
<g id="a_edge3584_Node000000_Node000001"><a xlink:title=" ">
<path fill="none" stroke="#63b8ff" d="M170.31,-49.53C182.35,-50.95 194.63,-52.4 206.46,-53.8"/>
<polygon fill="#63b8ff" stroke="#63b8ff" points="170.6,-46.04 160.26,-48.35 169.78,-52.99 170.6,-46.04"/>
</a>
</g>
</g>
<!-- Node2 -->
<g id="Node000002" class="node">
<title>Node2</title>
<g id="a_Node000002"><a xlink:href="d3/d57/classSystem_1_1Net_1_1HttpListenerRequest_1_1Context.html" target="_top" xlink:title=" ">
<polygon fill="white" stroke="#666666" points="375,-30 196,-30 196,0 375,0 375,-30"/>
<text text-anchor="start" x="204" y="-18" font-family="Helvetica,sans-Serif" font-size="10.00">System.Net.HttpListenerRequest.</text>
<text text-anchor="middle" x="285.5" y="-7" font-family="Helvetica,sans-Serif" font-size="10.00">Context</text>
</a>
</g>
</g>
<!-- Node0&#45;&gt;Node2 -->
<g id="edge3585_Node000000_Node000002" class="edge">
<title>Node0&#45;&gt;Node2</title>
<g id="a_edge3585_Node000000_Node000002"><a xlink:title=" ">
<path fill="none" stroke="#63b8ff" d="M170.41,-28.45C178.8,-27.47 187.29,-26.46 195.67,-25.48"/>
<polygon fill="#63b8ff" stroke="#63b8ff" points="169.78,-25.01 160.26,-29.65 170.6,-31.96 169.78,-25.01"/>
</a>
</g>
</g>
</g>
</svg>
