<?xml version="1.0" encoding="UTF-8" standalone="no"?>
<!DOCTYPE svg PUBLIC "-//W3C//DTD SVG 1.1//EN"
 "http://www.w3.org/Graphics/SVG/1.1/DTD/svg11.dtd">
<!-- Generated by graphviz version 2.43.0 (0)
 -->
<!-- Title: Graphical Class Hierarchy Pages: 1 -->
<svg width="307pt" height="64pt"
 viewBox="0.00 0.00 307.00 64.00" xmlns="http://www.w3.org/2000/svg" xmlns:xlink="http://www.w3.org/1999/xlink">
<g id="graph0" class="graph" transform="scale(1 1) rotate(0) translate(4 60)">
<title>Graphical Class Hierarchy</title>
<!-- Node0 -->
<g id="Node000000" class="node">
<title>Node0</title>
<g id="a_Node000000"><a xlink:title=" ">
<polygon fill="#e0e0e0" stroke="#999999" points="149,-37 0,-37 0,-18 149,-18 149,-37"/>
<text text-anchor="middle" x="74.5" y="-25" font-family="Helvetica,sans-Serif" font-size="10.00">global.SystemModifierSpec</text>
</a>
</g>
</g>
<!-- Node1 -->
<g id="Node000001" class="node">
<title>Node1</title>
<g id="a_Node000001"><a xlink:href="d3/d78/classSystem_1_1ArraySpec.html" target="_top" xlink:title=" ">
<polygon fill="white" stroke="#666666" points="295,-56 189,-56 189,-37 295,-37 295,-56"/>
<text text-anchor="middle" x="242" y="-44" font-family="Helvetica,sans-Serif" font-size="10.00">System.ArraySpec</text>
</a>
</g>
</g>
<!-- Node0&#45;&gt;Node1 -->
<g id="edge2434_Node000000_Node000001" class="edge">
<title>Node0&#45;&gt;Node1</title>
<g id="a_edge2434_Node000000_Node000001"><a xlink:title=" ">
<path fill="none" stroke="#63b8ff" d="M159.19,-37.11C169.35,-38.27 179.49,-39.44 188.99,-40.53"/>
<polygon fill="#63b8ff" stroke="#63b8ff" points="159.39,-33.61 149.05,-35.94 158.59,-40.56 159.39,-33.61"/>
</a>
</g>
</g>
<!-- Node2 -->
<g id="Node000002" class="node">
<title>Node2</title>
<g id="a_Node000002"><a xlink:href="db/d68/classSystem_1_1PointerSpec.html" target="_top" xlink:title=" ">
<polygon fill="white" stroke="#666666" points="299,-19 185,-19 185,0 299,0 299,-19"/>
<text text-anchor="middle" x="242" y="-7" font-family="Helvetica,sans-Serif" font-size="10.00">System.PointerSpec</text>
</a>
</g>
</g>
<!-- Node0&#45;&gt;Node2 -->
<g id="edge2435_Node000000_Node000002" class="edge">
<title>Node0&#45;&gt;Node2</title>
<g id="a_edge2435_Node000000_Node000002"><a xlink:title=" ">
<path fill="none" stroke="#63b8ff" d="M159.15,-18.4C167.76,-17.47 176.35,-16.53 184.56,-15.64"/>
<polygon fill="#63b8ff" stroke="#63b8ff" points="158.62,-14.94 149.05,-19.5 159.37,-21.9 158.62,-14.94"/>
</a>
</g>
</g>
</g>
</svg>
