<?xml version="1.0" encoding="UTF-8" standalone="no"?>
<!DOCTYPE svg PUBLIC "-//W3C//DTD SVG 1.1//EN"
 "http://www.w3.org/Graphics/SVG/1.1/DTD/svg11.dtd">
<!-- Generated by graphviz version 2.43.0 (0)
 -->
<!-- Title: Graphical Class Hierarchy Pages: 1 -->
<svg width="615pt" height="234pt"
 viewBox="0.00 0.00 615.00 233.50" xmlns="http://www.w3.org/2000/svg" xmlns:xlink="http://www.w3.org/1999/xlink">
<g id="graph0" class="graph" transform="scale(1 1) rotate(0) translate(4 229.5)">
<title>Graphical Class Hierarchy</title>
<!-- Node0 -->
<g id="Node000000" class="node">
<title>Node0</title>
<g id="a_Node000000"><a xlink:href="db/de8/classSystem_1_1Xml_1_1Schema_1_1SyntaxTreeNode.html" target="_top" xlink:title=" ">
<polygon fill="white" stroke="#666666" points="155,-73 0,-73 0,-43 155,-43 155,-73"/>
<text text-anchor="start" x="8" y="-61" font-family="Helvetica,sans-Serif" font-size="10.00">System.Xml.Schema.Syntax</text>
<text text-anchor="middle" x="77.5" y="-50" font-family="Helvetica,sans-Serif" font-size="10.00">TreeNode</text>
</a>
</g>
</g>
<!-- Node1 -->
<g id="Node000001" class="node">
<title>Node1</title>
<g id="a_Node000001"><a xlink:href="d5/da6/classSystem_1_1Xml_1_1Schema_1_1InteriorNode.html" target="_top" xlink:title=" ">
<polygon fill="white" stroke="#666666" points="373,-132.5 191,-132.5 191,-113.5 373,-113.5 373,-132.5"/>
<text text-anchor="middle" x="282" y="-120.5" font-family="Helvetica,sans-Serif" font-size="10.00">System.Xml.Schema.InteriorNode</text>
</a>
</g>
</g>
<!-- Node0&#45;&gt;Node1 -->
<g id="edge3759_Node000000_Node000001" class="edge">
<title>Node0&#45;&gt;Node1</title>
<g id="a_edge3759_Node000000_Node000001"><a xlink:title=" ">
<path fill="none" stroke="#63b8ff" d="M135.3,-76.23C172.96,-88.32 220.85,-103.69 251.23,-113.44"/>
<polygon fill="#63b8ff" stroke="#63b8ff" points="136.06,-72.8 125.47,-73.08 133.92,-79.46 136.06,-72.8"/>
</a>
</g>
</g>
<!-- Node7 -->
<g id="Node000007" class="node">
<title>Node7</title>
<g id="a_Node000007"><a xlink:href="db/d7b/classSystem_1_1Xml_1_1Schema_1_1LeafNode.html" target="_top" xlink:title=" ">
<polygon fill="white" stroke="#666666" points="365.5,-67.5 198.5,-67.5 198.5,-48.5 365.5,-48.5 365.5,-67.5"/>
<text text-anchor="middle" x="282" y="-55.5" font-family="Helvetica,sans-Serif" font-size="10.00">System.Xml.Schema.LeafNode</text>
</a>
</g>
</g>
<!-- Node0&#45;&gt;Node7 -->
<g id="edge3765_Node000000_Node000007" class="edge">
<title>Node0&#45;&gt;Node7</title>
<g id="a_edge3765_Node000000_Node000007"><a xlink:title=" ">
<path fill="none" stroke="#63b8ff" d="M165.08,-58C176.08,-58 187.31,-58 198.25,-58"/>
<polygon fill="#63b8ff" stroke="#63b8ff" points="165.06,-54.5 155.06,-58 165.06,-61.5 165.06,-54.5"/>
</a>
</g>
</g>
<!-- Node9 -->
<g id="Node000009" class="node">
<title>Node9</title>
<g id="a_Node000009"><a xlink:href="da/dd5/classSystem_1_1Xml_1_1Schema_1_1NamespaceListNode.html" target="_top" xlink:title=" ">
<polygon fill="white" stroke="#666666" points="371.5,-30 192.5,-30 192.5,0 371.5,0 371.5,-30"/>
<text text-anchor="start" x="200.5" y="-18" font-family="Helvetica,sans-Serif" font-size="10.00">System.Xml.Schema.Namespace</text>
<text text-anchor="middle" x="282" y="-7" font-family="Helvetica,sans-Serif" font-size="10.00">ListNode</text>
</a>
</g>
</g>
<!-- Node0&#45;&gt;Node9 -->
<g id="edge3767_Node000000_Node000009" class="edge">
<title>Node0&#45;&gt;Node9</title>
<g id="a_edge3767_Node000000_Node000009"><a xlink:title=" ">
<path fill="none" stroke="#63b8ff" d="M159.16,-40.87C176.04,-37.29 193.72,-33.53 210.22,-30.03"/>
<polygon fill="#63b8ff" stroke="#63b8ff" points="158.38,-37.46 149.32,-42.96 159.83,-44.31 158.38,-37.46"/>
</a>
</g>
</g>
<!-- Node2 -->
<g id="Node000002" class="node">
<title>Node2</title>
<g id="a_Node000002"><a xlink:href="d2/d8b/classSystem_1_1Xml_1_1Schema_1_1ChoiceNode.html" target="_top" xlink:title=" ">
<polygon fill="white" stroke="#666666" points="597.5,-225.5 418.5,-225.5 418.5,-206.5 597.5,-206.5 597.5,-225.5"/>
<text text-anchor="middle" x="508" y="-213.5" font-family="Helvetica,sans-Serif" font-size="10.00">System.Xml.Schema.ChoiceNode</text>
</a>
</g>
</g>
<!-- Node1&#45;&gt;Node2 -->
<g id="edge3760_Node000001_Node000002" class="edge">
<title>Node1&#45;&gt;Node2</title>
<g id="a_edge3760_Node000001_Node000002"><a xlink:title=" ">
<path fill="none" stroke="#63b8ff" d="M303.8,-138.56C327.86,-155.79 369.27,-183.08 409,-198 418.07,-201.41 427.86,-204.18 437.62,-206.44"/>
<polygon fill="#63b8ff" stroke="#63b8ff" points="305.61,-135.56 295.46,-132.5 301.49,-141.22 305.61,-135.56"/>
</a>
</g>
</g>
<!-- Node3 -->
<g id="Node000003" class="node">
<title>Node3</title>
<g id="a_Node000003"><a xlink:href="dc/df4/classSystem_1_1Xml_1_1Schema_1_1PlusNode.html" target="_top" xlink:title=" ">
<polygon fill="white" stroke="#666666" points="591.5,-188.5 424.5,-188.5 424.5,-169.5 591.5,-169.5 591.5,-188.5"/>
<text text-anchor="middle" x="508" y="-176.5" font-family="Helvetica,sans-Serif" font-size="10.00">System.Xml.Schema.PlusNode</text>
</a>
</g>
</g>
<!-- Node1&#45;&gt;Node3 -->
<g id="edge3761_Node000001_Node000003" class="edge">
<title>Node1&#45;&gt;Node3</title>
<g id="a_edge3761_Node000001_Node000003"><a xlink:title=" ">
<path fill="none" stroke="#63b8ff" d="M321.04,-135.68C345.88,-143.66 379.14,-153.78 409,-161 421.95,-164.13 435.97,-167.01 449.25,-169.5"/>
<polygon fill="#63b8ff" stroke="#63b8ff" points="321.87,-132.27 311.28,-132.51 319.71,-138.93 321.87,-132.27"/>
</a>
</g>
</g>
<!-- Node4 -->
<g id="Node000004" class="node">
<title>Node4</title>
<g id="a_Node000004"><a xlink:href="d3/d34/classSystem_1_1Xml_1_1Schema_1_1QmarkNode.html" target="_top" xlink:title=" ">
<polygon fill="white" stroke="#666666" points="597.5,-151.5 418.5,-151.5 418.5,-132.5 597.5,-132.5 597.5,-151.5"/>
<text text-anchor="middle" x="508" y="-139.5" font-family="Helvetica,sans-Serif" font-size="10.00">System.Xml.Schema.QmarkNode</text>
</a>
</g>
</g>
<!-- Node1&#45;&gt;Node4 -->
<g id="edge3762_Node000001_Node000004" class="edge">
<title>Node1&#45;&gt;Node4</title>
<g id="a_edge3762_Node000001_Node000004"><a xlink:title=" ">
<path fill="none" stroke="#63b8ff" d="M383.29,-131.51C394.91,-132.49 406.69,-133.49 418.14,-134.46"/>
<polygon fill="#63b8ff" stroke="#63b8ff" points="383.4,-128 373.14,-130.65 382.81,-134.98 383.4,-128"/>
</a>
</g>
</g>
<!-- Node5 -->
<g id="Node000005" class="node">
<title>Node5</title>
<g id="a_Node000005"><a xlink:href="d2/d25/classSystem_1_1Xml_1_1Schema_1_1SequenceNode.html" target="_top" xlink:title=" ">
<polygon fill="white" stroke="#666666" points="605,-114.5 411,-114.5 411,-95.5 605,-95.5 605,-114.5"/>
<text text-anchor="middle" x="508" y="-102.5" font-family="Helvetica,sans-Serif" font-size="10.00">System.Xml.Schema.SequenceNode</text>
</a>
</g>
</g>
<!-- Node1&#45;&gt;Node5 -->
<g id="edge3763_Node000001_Node000005" class="edge">
<title>Node1&#45;&gt;Node5</title>
<g id="a_edge3763_Node000001_Node000005"><a xlink:title=" ">
<path fill="none" stroke="#63b8ff" d="M383.38,-114.93C392.51,-114.2 401.73,-113.46 410.82,-112.73"/>
<polygon fill="#63b8ff" stroke="#63b8ff" points="382.83,-111.47 373.14,-115.76 383.39,-118.44 382.83,-111.47"/>
</a>
</g>
</g>
<!-- Node6 -->
<g id="Node000006" class="node">
<title>Node6</title>
<g id="a_Node000006"><a xlink:href="d7/dc2/classSystem_1_1Xml_1_1Schema_1_1StarNode.html" target="_top" xlink:title=" ">
<polygon fill="white" stroke="#666666" points="591,-77.5 425,-77.5 425,-58.5 591,-58.5 591,-77.5"/>
<text text-anchor="middle" x="508" y="-65.5" font-family="Helvetica,sans-Serif" font-size="10.00">System.Xml.Schema.StarNode</text>
</a>
</g>
</g>
<!-- Node1&#45;&gt;Node6 -->
<g id="edge3764_Node000001_Node000006" class="edge">
<title>Node1&#45;&gt;Node6</title>
<g id="a_edge3764_Node000001_Node000006"><a xlink:title=" ">
<path fill="none" stroke="#63b8ff" d="M323.33,-110.51C347.94,-103.13 380.12,-93.91 409,-87 423.33,-83.57 438.94,-80.32 453.41,-77.52"/>
<polygon fill="#63b8ff" stroke="#63b8ff" points="322.17,-107.2 313.61,-113.45 324.2,-113.91 322.17,-107.2"/>
</a>
</g>
</g>
<!-- Node8 -->
<g id="Node000008" class="node">
<title>Node8</title>
<g id="a_Node000008"><a xlink:href="d7/dd3/classSystem_1_1Xml_1_1Schema_1_1LeafRangeNode.html" target="_top" xlink:title=" ">
<polygon fill="white" stroke="#666666" points="607,-40.5 409,-40.5 409,-21.5 607,-21.5 607,-40.5"/>
<text text-anchor="middle" x="508" y="-28.5" font-family="Helvetica,sans-Serif" font-size="10.00">System.Xml.Schema.LeafRangeNode</text>
</a>
</g>
</g>
<!-- Node7&#45;&gt;Node8 -->
<g id="edge3766_Node000007_Node000008" class="edge">
<title>Node7&#45;&gt;Node8</title>
<g id="a_edge3766_Node000007_Node000008"><a xlink:title=" ">
<path fill="none" stroke="#63b8ff" d="M372.13,-47.26C390.59,-45.03 409.91,-42.7 427.98,-40.52"/>
<polygon fill="#63b8ff" stroke="#63b8ff" points="371.48,-43.81 361.97,-48.48 372.32,-50.76 371.48,-43.81"/>
</a>
</g>
</g>
</g>
</svg>
