<?xml version="1.0" encoding="UTF-8" standalone="no"?>
<!DOCTYPE svg PUBLIC "-//W3C//DTD SVG 1.1//EN"
 "http://www.w3.org/Graphics/SVG/1.1/DTD/svg11.dtd">
<!-- Generated by graphviz version 2.43.0 (0)
 -->
<!-- Title: Graphical Class Hierarchy Pages: 1 -->
<svg width="517pt" height="134pt"
 viewBox="0.00 0.00 517.00 134.00" xmlns="http://www.w3.org/2000/svg" xmlns:xlink="http://www.w3.org/1999/xlink">
<g id="graph0" class="graph" transform="scale(1 1) rotate(0) translate(4 130)">
<title>Graphical Class Hierarchy</title>
<!-- Node0 -->
<g id="Node000000" class="node">
<title>Node0</title>
<g id="a_Node000000"><a xlink:href="d3/ddf/interfaceSystem_1_1IComparable.html" target="_top" xlink:title=" ">
<polygon fill="white" stroke="#666666" points="134.5,-126 9.5,-126 9.5,-96 134.5,-96 134.5,-126"/>
<text text-anchor="start" x="17.5" y="-114" font-family="Helvetica,sans-Serif" font-size="10.00">System.IComparable</text>
<text text-anchor="middle" x="72" y="-103" font-family="Helvetica,sans-Serif" font-size="10.00">&lt; GameComponent &gt;</text>
</a>
</g>
</g>
<!-- Node1 -->
<g id="Node000001" class="node">
<title>Node1</title>
<g id="a_Node000001"><a xlink:href="db/df1/classMicrosoft_1_1Xna_1_1Framework_1_1GameComponent.html" target="_top" xlink:title=" ">
<polygon fill="white" stroke="#666666" points="324,-78 180,-78 180,-48 324,-48 324,-78"/>
<text text-anchor="start" x="188" y="-66" font-family="Helvetica,sans-Serif" font-size="10.00">Microsoft.Xna.Framework.</text>
<text text-anchor="middle" x="252" y="-55" font-family="Helvetica,sans-Serif" font-size="10.00">GameComponent</text>
</a>
</g>
</g>
<!-- Node0&#45;&gt;Node1 -->
<g id="edge3445_Node000000_Node000001" class="edge">
<title>Node0&#45;&gt;Node1</title>
<g id="a_edge3445_Node000000_Node000001"><a xlink:title=" ">
<path fill="none" stroke="#63b8ff" d="M138.71,-93.28C157.33,-88.26 177.41,-82.85 195.37,-78"/>
<polygon fill="#63b8ff" stroke="#63b8ff" points="137.58,-89.96 128.83,-95.94 139.4,-96.72 137.58,-89.96"/>
</a>
</g>
</g>
<!-- Node2 -->
<g id="Node000002" class="node">
<title>Node2</title>
<g id="a_Node000002"><a xlink:href="df/d13/classMicrosoft_1_1Xna_1_1Framework_1_1DrawableGameComponent.html" target="_top" xlink:title=" ">
<polygon fill="white" stroke="#666666" points="509,-54 360,-54 360,-24 509,-24 509,-54"/>
<text text-anchor="start" x="368" y="-42" font-family="Helvetica,sans-Serif" font-size="10.00">Microsoft.Xna.Framework.</text>
<text text-anchor="middle" x="434.5" y="-31" font-family="Helvetica,sans-Serif" font-size="10.00">DrawableGameComponent</text>
</a>
</g>
</g>
<!-- Node1&#45;&gt;Node2 -->
<g id="edge3446_Node000001_Node000002" class="edge">
<title>Node1&#45;&gt;Node2</title>
<g id="a_edge3446_Node000001_Node000002"><a xlink:title=" ">
<path fill="none" stroke="#63b8ff" d="M334.07,-52.22C342.65,-51.08 351.33,-49.93 359.81,-48.8"/>
<polygon fill="#63b8ff" stroke="#63b8ff" points="333.53,-48.76 324.08,-53.55 334.45,-55.7 333.53,-48.76"/>
</a>
</g>
</g>
<!-- Node3 -->
<g id="Node000003" class="node">
<title>Node3</title>
<g id="a_Node000003"><a xlink:href="d2/d6f/interfaceMicrosoft_1_1Xna_1_1Framework_1_1IDrawable.html" target="_top" xlink:title=" ">
<polygon fill="white" stroke="#666666" points="324,-30 180,-30 180,0 324,0 324,-30"/>
<text text-anchor="start" x="188" y="-18" font-family="Helvetica,sans-Serif" font-size="10.00">Microsoft.Xna.Framework.</text>
<text text-anchor="middle" x="252" y="-7" font-family="Helvetica,sans-Serif" font-size="10.00">IDrawable</text>
</a>
</g>
</g>
<!-- Node3&#45;&gt;Node2 -->
<g id="edge3447_Node000003_Node000002" class="edge">
<title>Node3&#45;&gt;Node2</title>
<g id="a_edge3447_Node000003_Node000002"><a xlink:title=" ">
<path fill="none" stroke="#63b8ff" d="M334.07,-25.78C342.65,-26.92 351.33,-28.07 359.81,-29.2"/>
<polygon fill="#63b8ff" stroke="#63b8ff" points="334.45,-22.3 324.08,-24.45 333.53,-29.24 334.45,-22.3"/>
</a>
</g>
</g>
<!-- Node4 -->
<g id="Node000004" class="node">
<title>Node4</title>
<g id="a_Node000004"><a xlink:href="d8/d49/interfaceMicrosoft_1_1Xna_1_1Framework_1_1IGameComponent.html" target="_top" xlink:title=" ">
<polygon fill="white" stroke="#666666" points="144,-78 0,-78 0,-48 144,-48 144,-78"/>
<text text-anchor="start" x="8" y="-66" font-family="Helvetica,sans-Serif" font-size="10.00">Microsoft.Xna.Framework.</text>
<text text-anchor="middle" x="72" y="-55" font-family="Helvetica,sans-Serif" font-size="10.00">IGameComponent</text>
</a>
</g>
</g>
<!-- Node4&#45;&gt;Node1 -->
<g id="edge3448_Node000004_Node000001" class="edge">
<title>Node4&#45;&gt;Node1</title>
<g id="a_edge3448_Node000004_Node000001"><a xlink:title=" ">
<path fill="none" stroke="#63b8ff" d="M154.17,-63C162.79,-63 171.51,-63 180,-63"/>
<polygon fill="#63b8ff" stroke="#63b8ff" points="154.12,-59.5 144.12,-63 154.12,-66.5 154.12,-59.5"/>
</a>
</g>
</g>
<!-- Node5 -->
<g id="Node000005" class="node">
<title>Node5</title>
<g id="a_Node000005"><a xlink:href="d2/dbd/interfaceMicrosoft_1_1Xna_1_1Framework_1_1IUpdateable.html" target="_top" xlink:title=" ">
<polygon fill="white" stroke="#666666" points="144,-30 0,-30 0,0 144,0 144,-30"/>
<text text-anchor="start" x="8" y="-18" font-family="Helvetica,sans-Serif" font-size="10.00">Microsoft.Xna.Framework.</text>
<text text-anchor="middle" x="72" y="-7" font-family="Helvetica,sans-Serif" font-size="10.00">IUpdateable</text>
</a>
</g>
</g>
<!-- Node5&#45;&gt;Node1 -->
<g id="edge3449_Node000005_Node000001" class="edge">
<title>Node5&#45;&gt;Node1</title>
<g id="a_edge3449_Node000005_Node000001"><a xlink:title=" ">
<path fill="none" stroke="#63b8ff" d="M138.71,-32.72C157.33,-37.74 177.41,-43.15 195.37,-48"/>
<polygon fill="#63b8ff" stroke="#63b8ff" points="139.4,-29.28 128.83,-30.06 137.58,-36.04 139.4,-29.28"/>
</a>
</g>
</g>
</g>
</svg>
