<?xml version="1.0" encoding="UTF-8" standalone="no"?>
<!DOCTYPE svg PUBLIC "-//W3C//DTD SVG 1.1//EN"
 "http://www.w3.org/Graphics/SVG/1.1/DTD/svg11.dtd">
<!-- Generated by graphviz version 2.43.0 (0)
 -->
<!-- Title: Graphical Class Hierarchy Pages: 1 -->
<svg width="424pt" height="301pt"
 viewBox="0.00 0.00 424.00 300.50" xmlns="http://www.w3.org/2000/svg" xmlns:xlink="http://www.w3.org/1999/xlink">
<g id="graph0" class="graph" transform="scale(1 1) rotate(0) translate(4 296.5)">
<title>Graphical Class Hierarchy</title>
<!-- Node0 -->
<g id="Node000000" class="node">
<title>Node0</title>
<g id="a_Node000000"><a xlink:href="d6/dc7/classUnityEngine_1_1AndroidJavaProxy.html" target="_top" xlink:title=" ">
<polygon fill="white" stroke="#666666" points="165,-155.5 0,-155.5 0,-136.5 165,-136.5 165,-155.5"/>
<text text-anchor="middle" x="82.5" y="-143.5" font-family="Helvetica,sans-Serif" font-size="10.00">UnityEngine.AndroidJavaProxy</text>
</a>
</g>
</g>
<!-- Node1 -->
<g id="Node000001" class="node">
<title>Node1</title>
<g id="a_Node000001"><a xlink:href="d2/dc5/classAndroidImmersive_1_1Listener.html" target="_top" xlink:title=" ">
<polygon fill="white" stroke="#666666" points="383,-292.5 234,-292.5 234,-273.5 383,-273.5 383,-292.5"/>
<text text-anchor="middle" x="308.5" y="-280.5" font-family="Helvetica,sans-Serif" font-size="10.00">AndroidImmersive.Listener</text>
</a>
</g>
</g>
<!-- Node0&#45;&gt;Node1 -->
<g id="edge4636_Node000000_Node000001" class="edge">
<title>Node0&#45;&gt;Node1</title>
<g id="a_edge4636_Node000000_Node000001"><a xlink:title=" ">
<path fill="none" stroke="#63b8ff" d="M95.66,-164.15C114.69,-190.98 154.23,-240.67 201,-265 211.15,-270.28 222.51,-274.06 233.92,-276.77"/>
<polygon fill="#63b8ff" stroke="#63b8ff" points="98.37,-161.92 89.8,-155.69 92.61,-165.91 98.37,-161.92"/>
</a>
</g>
</g>
<!-- Node2 -->
<g id="Node000002" class="node">
<title>Node2</title>
<g id="a_Node000002"><a xlink:href="d7/d1e/classUnityEngine_1_1Android_1_1AndroidAssetPacks_1_1AssetPackManagerDownloadStatusCallback.html" target="_top" xlink:title=" ">
<polygon fill="white" stroke="#666666" points="416,-255.5 201,-255.5 201,-214.5 416,-214.5 416,-255.5"/>
<text text-anchor="start" x="209" y="-243.5" font-family="Helvetica,sans-Serif" font-size="10.00">UnityEngine.Android.Android</text>
<text text-anchor="start" x="209" y="-232.5" font-family="Helvetica,sans-Serif" font-size="10.00">AssetPacks.AssetPackManagerDownload</text>
<text text-anchor="middle" x="308.5" y="-221.5" font-family="Helvetica,sans-Serif" font-size="10.00">StatusCallback</text>
</a>
</g>
</g>
<!-- Node0&#45;&gt;Node2 -->
<g id="edge4637_Node000000_Node000002" class="edge">
<title>Node0&#45;&gt;Node2</title>
<g id="a_edge4637_Node000000_Node000002"><a xlink:title=" ">
<path fill="none" stroke="#63b8ff" d="M108.62,-160.75C131.94,-173.98 167.95,-193.22 201,-206 208.77,-209.01 216.98,-211.83 225.25,-214.44"/>
<polygon fill="#63b8ff" stroke="#63b8ff" points="110.15,-157.6 99.74,-155.66 106.67,-163.67 110.15,-157.6"/>
</a>
</g>
</g>
<!-- Node3 -->
<g id="Node000003" class="node">
<title>Node3</title>
<g id="a_Node000003"><a xlink:href="de/d19/classUnityEngine_1_1Android_1_1AndroidAssetPacks_1_1AssetPackManagerMobileDataConfirmationCallback.html" target="_top" xlink:title=" ">
<polygon fill="white" stroke="#666666" points="408.5,-196.5 208.5,-196.5 208.5,-155.5 408.5,-155.5 408.5,-196.5"/>
<text text-anchor="start" x="216.5" y="-184.5" font-family="Helvetica,sans-Serif" font-size="10.00">UnityEngine.Android.Android</text>
<text text-anchor="start" x="216.5" y="-173.5" font-family="Helvetica,sans-Serif" font-size="10.00">AssetPacks.AssetPackManagerMobile</text>
<text text-anchor="middle" x="308.5" y="-162.5" font-family="Helvetica,sans-Serif" font-size="10.00">DataConfirmationCallback</text>
</a>
</g>
</g>
<!-- Node0&#45;&gt;Node3 -->
<g id="edge4638_Node000000_Node000003" class="edge">
<title>Node0&#45;&gt;Node3</title>
<g id="a_edge4638_Node000000_Node000003"><a xlink:title=" ">
<path fill="none" stroke="#63b8ff" d="M164.82,-156.89C178.93,-158.78 193.74,-160.76 208.27,-162.71"/>
<polygon fill="#63b8ff" stroke="#63b8ff" points="165.06,-153.39 154.68,-155.53 164.13,-160.33 165.06,-153.39"/>
</a>
</g>
</g>
<!-- Node4 -->
<g id="Node000004" class="node">
<title>Node4</title>
<g id="a_Node000004"><a xlink:href="d6/d4d/classUnityEngine_1_1Android_1_1AndroidAssetPacks_1_1AssetPackManagerStatusQueryCallback.html" target="_top" xlink:title=" ">
<polygon fill="white" stroke="#666666" points="407,-137.5 210,-137.5 210,-96.5 407,-96.5 407,-137.5"/>
<text text-anchor="start" x="218" y="-125.5" font-family="Helvetica,sans-Serif" font-size="10.00">UnityEngine.Android.Android</text>
<text text-anchor="start" x="218" y="-114.5" font-family="Helvetica,sans-Serif" font-size="10.00">AssetPacks.AssetPackManagerStatus</text>
<text text-anchor="middle" x="308.5" y="-103.5" font-family="Helvetica,sans-Serif" font-size="10.00">QueryCallback</text>
</a>
</g>
</g>
<!-- Node0&#45;&gt;Node4 -->
<g id="edge4639_Node000000_Node000004" class="edge">
<title>Node0&#45;&gt;Node4</title>
<g id="a_edge4639_Node000000_Node000004"><a xlink:title=" ">
<path fill="none" stroke="#63b8ff" d="M167.16,-135.17C181.06,-133.37 195.58,-131.49 209.8,-129.65"/>
<polygon fill="#63b8ff" stroke="#63b8ff" points="166.62,-131.71 157.16,-136.46 167.52,-138.65 166.62,-131.71"/>
</a>
</g>
</g>
<!-- Node5 -->
<g id="Node000005" class="node">
<title>Node5</title>
<g id="a_Node000005"><a xlink:href="d4/d00/classUnityEngine_1_1Android_1_1PermissionCallbacks.html" target="_top" xlink:title=" ">
<polygon fill="white" stroke="#666666" points="395,-78 222,-78 222,-48 395,-48 395,-78"/>
<text text-anchor="start" x="230" y="-66" font-family="Helvetica,sans-Serif" font-size="10.00">UnityEngine.Android.Permission</text>
<text text-anchor="middle" x="308.5" y="-55" font-family="Helvetica,sans-Serif" font-size="10.00">Callbacks</text>
</a>
</g>
</g>
<!-- Node0&#45;&gt;Node5 -->
<g id="edge4640_Node000000_Node000005" class="edge">
<title>Node0&#45;&gt;Node5</title>
<g id="a_edge4640_Node000000_Node000005"><a xlink:title=" ">
<path fill="none" stroke="#63b8ff" d="M108.98,-131.3C132.29,-118.37 168.07,-99.82 201,-88 211.37,-84.28 222.5,-80.96 233.53,-78.05"/>
<polygon fill="#63b8ff" stroke="#63b8ff" points="107.1,-128.34 100.09,-136.29 110.52,-134.45 107.1,-128.34"/>
</a>
</g>
</g>
<!-- Node6 -->
<g id="Node000006" class="node">
<title>Node6</title>
<g id="a_Node000006"><a xlink:href="dc/d5b/classUnityEngine_1_1AndroidJavaRunnableProxy.html" target="_top" xlink:title=" ">
<polygon fill="white" stroke="#666666" points="400,-30 217,-30 217,0 400,0 400,-30"/>
<text text-anchor="start" x="225" y="-18" font-family="Helvetica,sans-Serif" font-size="10.00">UnityEngine.AndroidJavaRunnable</text>
<text text-anchor="middle" x="308.5" y="-7" font-family="Helvetica,sans-Serif" font-size="10.00">Proxy</text>
</a>
</g>
</g>
<!-- Node0&#45;&gt;Node6 -->
<g id="edge4641_Node000000_Node000006" class="edge">
<title>Node0&#45;&gt;Node6</title>
<g id="a_edge4641_Node000000_Node000006"><a xlink:title=" ">
<path fill="none" stroke="#63b8ff" d="M97.71,-128.26C117.99,-104.19 157.63,-61.59 201,-39 207.64,-35.54 214.77,-32.58 222.07,-30.04"/>
<polygon fill="#63b8ff" stroke="#63b8ff" points="94.8,-126.28 91.14,-136.22 100.2,-130.74 94.8,-126.28"/>
</a>
</g>
</g>
</g>
</svg>
