<?xml version="1.0" encoding="UTF-8" standalone="no"?>
<!DOCTYPE svg PUBLIC "-//W3C//DTD SVG 1.1//EN"
 "http://www.w3.org/Graphics/SVG/1.1/DTD/svg11.dtd">
<!-- Generated by graphviz version 2.43.0 (0)
 -->
<!-- Title: Graphical Class Hierarchy Pages: 1 -->
<svg width="636pt" height="38pt"
 viewBox="0.00 0.00 636.00 38.00" xmlns="http://www.w3.org/2000/svg" xmlns:xlink="http://www.w3.org/1999/xlink">
<g id="graph0" class="graph" transform="scale(1 1) rotate(0) translate(4 34)">
<title>Graphical Class Hierarchy</title>
<!-- Node0 -->
<g id="Node000000" class="node">
<title>Node0</title>
<g id="a_Node000000"><a xlink:href="db/dd2/interfaceNewtonsoft_1_1Json_1_1Serialization_1_1IContractResolver.html" target="_top" xlink:title=" ">
<polygon fill="white" stroke="#666666" points="162,-30 0,-30 0,0 162,0 162,-30"/>
<text text-anchor="start" x="8" y="-18" font-family="Helvetica,sans-Serif" font-size="10.00">Newtonsoft.Json.Serialization.</text>
<text text-anchor="middle" x="81" y="-7" font-family="Helvetica,sans-Serif" font-size="10.00">IContractResolver</text>
</a>
</g>
</g>
<!-- Node1 -->
<g id="Node000001" class="node">
<title>Node1</title>
<g id="a_Node000001"><a xlink:href="d2/d47/classNewtonsoft_1_1Json_1_1Serialization_1_1DefaultContractResolver.html" target="_top" xlink:title=" ">
<polygon fill="white" stroke="#666666" points="360,-30 198,-30 198,0 360,0 360,-30"/>
<text text-anchor="start" x="206" y="-18" font-family="Helvetica,sans-Serif" font-size="10.00">Newtonsoft.Json.Serialization.</text>
<text text-anchor="middle" x="279" y="-7" font-family="Helvetica,sans-Serif" font-size="10.00">DefaultContractResolver</text>
</a>
</g>
</g>
<!-- Node0&#45;&gt;Node1 -->
<g id="edge3206_Node000000_Node000001" class="edge">
<title>Node0&#45;&gt;Node1</title>
<g id="a_edge3206_Node000000_Node000001"><a xlink:title=" ">
<path fill="none" stroke="#63b8ff" d="M172.08,-15C180.7,-15 189.41,-15 197.93,-15"/>
<polygon fill="#63b8ff" stroke="#63b8ff" points="172,-11.5 162,-15 172,-18.5 172,-11.5"/>
</a>
</g>
</g>
<!-- Node2 -->
<g id="Node000002" class="node">
<title>Node2</title>
<g id="a_Node000002"><a xlink:href="de/d29/classNewtonsoft_1_1Json_1_1Serialization_1_1CamelCasePropertyNamesContractResolver.html" target="_top" xlink:title=" ">
<polygon fill="white" stroke="#666666" points="628,-30 396,-30 396,0 628,0 628,-30"/>
<text text-anchor="start" x="404" y="-18" font-family="Helvetica,sans-Serif" font-size="10.00">Newtonsoft.Json.Serialization.</text>
<text text-anchor="middle" x="512" y="-7" font-family="Helvetica,sans-Serif" font-size="10.00">CamelCasePropertyNamesContractResolver</text>
</a>
</g>
</g>
<!-- Node1&#45;&gt;Node2 -->
<g id="edge3207_Node000001_Node000002" class="edge">
<title>Node1&#45;&gt;Node2</title>
<g id="a_edge3207_Node000001_Node000002"><a xlink:title=" ">
<path fill="none" stroke="#63b8ff" d="M370.32,-15C378.75,-15 387.37,-15 395.98,-15"/>
<polygon fill="#63b8ff" stroke="#63b8ff" points="370.14,-11.5 360.14,-15 370.14,-18.5 370.14,-11.5"/>
</a>
</g>
</g>
</g>
</svg>
