<?xml version="1.0" encoding="UTF-8" standalone="no"?>
<!DOCTYPE svg PUBLIC "-//W3C//DTD SVG 1.1//EN"
 "http://www.w3.org/Graphics/SVG/1.1/DTD/svg11.dtd">
<!-- Generated by graphviz version 2.43.0 (0)
 -->
<!-- Title: System.Text.EncoderFallbackException Pages: 1 -->
<svg width="267pt" height="331pt"
 viewBox="0.00 0.00 267.00 331.00" xmlns="http://www.w3.org/2000/svg" xmlns:xlink="http://www.w3.org/1999/xlink">

<svg id="main" version="1.1" xmlns="http://www.w3.org/2000/svg" xmlns:xlink="http://www.w3.org/1999/xlink" xml:space="preserve" onload="init(evt)">
<style type="text/css"><![CDATA[
.node, .edge {opacity: 0.7;}
.node.selected, .edge.selected {opacity: 1;}
.edge:hover path { stroke: red; }
.edge:hover polygon { stroke: red; fill: red; }
]]></style>
<script type="application/ecmascript" xlink:href="../../svg.min.js"/>
<svg id="graph" class="graph">
<g id="graph0" class="graph" transform="scale(1 1) rotate(0) translate(4 327)">
<title>System.Text.EncoderFallbackException</title>
<!-- Node1 -->
<g id="Node000001" class="node">
<title>Node1</title>
<g id="a_Node000001"><a xlink:title=" ">
<polygon fill="#999999" stroke="transparent" points="259,-238 0,-238 0,0 259,0 259,-238"/>
<text text-anchor="start" x="59" y="-226" font-family="Helvetica,sans-Serif" font-size="10.00">System.Text.EncoderFallback</text>
<text text-anchor="start" x="105.5" y="-215" font-family="Helvetica,sans-Serif" font-size="10.00">Exception</text>
<text text-anchor="start" x="7" y="-200" font-family="Helvetica,sans-Serif" font-size="10.00">&#45;</text>
<text text-anchor="start" x="17.5" y="-200" font-family="Helvetica,sans-Serif" font-size="10.00">char _charUnknown</text>
<text text-anchor="start" x="7" y="-185" font-family="Helvetica,sans-Serif" font-size="10.00">&#45;</text>
<text text-anchor="start" x="17.5" y="-185" font-family="Helvetica,sans-Serif" font-size="10.00">char _charUnknownHigh</text>
<text text-anchor="start" x="7" y="-170" font-family="Helvetica,sans-Serif" font-size="10.00">&#45;</text>
<text text-anchor="start" x="17.5" y="-170" font-family="Helvetica,sans-Serif" font-size="10.00">char _charUnknownLow</text>
<text text-anchor="start" x="7" y="-155" font-family="Helvetica,sans-Serif" font-size="10.00">&#45;</text>
<text text-anchor="start" x="17.5" y="-155" font-family="Helvetica,sans-Serif" font-size="10.00">int _index</text>
<text text-anchor="start" x="4.5" y="-140" font-family="Helvetica,sans-Serif" font-size="10.00">+</text>
<text text-anchor="start" x="17.5" y="-140" font-family="Helvetica,sans-Serif" font-size="10.00">EncoderFallbackException()</text>
<text text-anchor="start" x="4.5" y="-125" font-family="Helvetica,sans-Serif" font-size="10.00">~</text>
<text text-anchor="start" x="17.5" y="-125" font-family="Helvetica,sans-Serif" font-size="10.00">EncoderFallbackException</text>
<text text-anchor="start" x="17.5" y="-114" font-family="Helvetica,sans-Serif" font-size="10.00">(string message, char charUnknown,</text>
<text text-anchor="start" x="17.5" y="-103" font-family="Helvetica,sans-Serif" font-size="10.00"> int index)</text>
<text text-anchor="start" x="4.5" y="-88" font-family="Helvetica,sans-Serif" font-size="10.00">~</text>
<text text-anchor="start" x="17.5" y="-88" font-family="Helvetica,sans-Serif" font-size="10.00">EncoderFallbackException</text>
<text text-anchor="start" x="17.5" y="-77" font-family="Helvetica,sans-Serif" font-size="10.00">(string message, char charUnknown</text>
<text text-anchor="start" x="17.5" y="-66" font-family="Helvetica,sans-Serif" font-size="10.00">High, char charUnknownLow, int index)</text>
<text text-anchor="start" x="7" y="-51" font-family="Helvetica,sans-Serif" font-size="10.00">&#45;</text>
<text text-anchor="start" x="17.5" y="-51" font-family="Helvetica,sans-Serif" font-size="10.00">EncoderFallbackException</text>
<text text-anchor="start" x="17.5" y="-40" font-family="Helvetica,sans-Serif" font-size="10.00">(global::System.Runtime.Serialization.</text>
<text text-anchor="start" x="17.5" y="-29" font-family="Helvetica,sans-Serif" font-size="10.00">SerializationInfo serializationInfo,</text>
<text text-anchor="start" x="17.5" y="-18" font-family="Helvetica,sans-Serif" font-size="10.00"> global::System.Runtime.Serialization.Streaming</text>
<text text-anchor="start" x="17.5" y="-7" font-family="Helvetica,sans-Serif" font-size="10.00">Context streamingContext)</text>
<polygon fill="#666666" stroke="#666666" points="0.5,-210 0.5,-210 259.5,-210 259.5,-210 0.5,-210"/>
<polygon fill="#666666" stroke="#666666" points="0.5,-150 0.5,-150 15.5,-150 15.5,-150 0.5,-150"/>
<polygon fill="#666666" stroke="#666666" points="15.5,-150 15.5,-150 259.5,-150 259.5,-150 15.5,-150"/>
<polygon fill="none" stroke="#666666" points="0,0 0,-238 259,-238 259,0 0,0"/>
</a>
</g>
</g>
<!-- Node2 -->
<g id="Node000002" class="node">
<title>Node2</title>
<g id="a_Node000002"><a xlink:title=" ">
<polygon fill="white" stroke="transparent" points="219,-323 40,-323 40,-274 219,-274 219,-323"/>
<text text-anchor="start" x="45.5" y="-310.5" font-family="Helvetica,sans-Serif" font-size="10.00">global::SystemArgumentException</text>
<text text-anchor="start" x="128" y="-295.5" font-family="Helvetica,sans-Serif" font-size="10.00"> </text>
<text text-anchor="start" x="128" y="-280.5" font-family="Helvetica,sans-Serif" font-size="10.00"> </text>
<polygon fill="#666666" stroke="#666666" points="40.5,-305.5 40.5,-305.5 219.5,-305.5 219.5,-305.5 40.5,-305.5"/>
<polygon fill="#666666" stroke="#666666" points="40.5,-290.5 40.5,-290.5 219.5,-290.5 219.5,-290.5 40.5,-290.5"/>
<polygon fill="none" stroke="#666666" points="40,-274 40,-323 219,-323 219,-274 40,-274"/>
</a>
</g>
</g>
<!-- Node2&#45;&gt;Node1 -->
<g id="edge1_Node000001_Node000002" class="edge">
<title>Node2&#45;&gt;Node1</title>
<g id="a_edge1_Node000001_Node000002"><a xlink:title=" ">
<path fill="none" stroke="#63b8ff" d="M129.5,-263.88C129.5,-256.05 129.5,-247.27 129.5,-238.01"/>
<polygon fill="none" stroke="#63b8ff" points="126,-263.93 129.5,-273.93 133,-263.93 126,-263.93"/>
</a>
</g>
</g>
</g>
</svg>
</svg>

<style type='text/css'>
<![CDATA[
[data-mouse-over-selected='false'] { opacity: 0.7; }
[data-mouse-over-selected='true']  { opacity: 1.0; }
]]>
</style>
<script type="application/ecmascript"><![CDATA[
document.addEventListener('DOMContentLoaded', (event) => {
  highlightEdges();
  highlightAdjacentNodes();
});
]]></script>
</svg>
