<?xml version="1.0" encoding="UTF-8" standalone="no"?>
<!DOCTYPE svg PUBLIC "-//W3C//DTD SVG 1.1//EN"
 "http://www.w3.org/Graphics/SVG/1.1/DTD/svg11.dtd">
<!-- Generated by graphviz version 2.43.0 (0)
 -->
<!-- Title: Terraria.GameContent.Creative.CreativePowers.StartNightImmediately Pages: 1 -->
<!--zoomable 892 -->

<svg id="main" version="1.1" xmlns="http://www.w3.org/2000/svg" xmlns:xlink="http://www.w3.org/1999/xlink" xml:space="preserve" onload="init(evt)">
<style type="text/css"><![CDATA[
.node, .edge {opacity: 0.7;}
.node.selected, .edge.selected {opacity: 1;}
.edge:hover path { stroke: red; }
.edge:hover polygon { stroke: red; fill: red; }
]]></style>

<defs>
  <circle id="rim" cx="0" cy="0" r="7"/>
  <circle id="rim2" cx="0" cy="0" r="3.5"/>
  <g id="zoomPlus">
    <use xlink:href="#rim" fill="#404040"><set attributeName="fill" to="#808080" begin="zoomplus.mouseover" end="zoomplus.mouseout"/></use>
    <path d="M-4,0h8M0,-4v8" fill="none" stroke="white" stroke-width="1.5" pointer-events="none"/>
  </g>
  <g id="zoomMin">
    <use xlink:href="#rim" fill="#404040"><set attributeName="fill" to="#808080" begin="zoomminus.mouseover" end="zoomminus.mouseout"/></use>
    <path d="M-4,0h8" fill="none" stroke="white" stroke-width="1.5" pointer-events="none"/>
  </g>
  <g id="arrowUp" transform="translate(30 24)">
    <use xlink:href="#rim"/>
    <path pointer-events="none" fill="none" stroke="white" stroke-width="1.5" d="M0,-3.0v7 M-2.5,-0.5L0,-3.0L2.5,-0.5"/>
  </g>
  <g id="arrowRight" transform="rotate(90) translate(36 -43)">
    <use xlink:href="#rim"/>
    <path pointer-events="none" fill="none" stroke="white" stroke-width="1.5" d="M0,-3.0v7 M-2.5,-0.5L0,-3.0L2.5,-0.5"/>
  </g>
  <g id="arrowDown" transform="rotate(180) translate(-30 -48)">
    <use xlink:href="#rim"/>
    <path pointer-events="none" fill="none" stroke="white" stroke-width="1.5" d="M0,-3.0v7 M-2.5,-0.5L0,-3.0L2.5,-0.5"/>
  </g>
  <g id="arrowLeft" transform="rotate(270) translate(-36 17)">
    <use xlink:href="#rim"/>
    <path pointer-events="none" fill="none" stroke="white" stroke-width="1.5" d="M0,-3.0v7 M-2.5,-0.5L0,-3.0L2.5,-0.5"/>
  </g>
  <g id="resetDef">
    <use xlink:href="#rim2" fill="#404040"><set attributeName="fill" to="#808080" begin="reset.mouseover" end="reset.mouseout"/></use>
  </g>
</defs>
<script type="application/ecmascript">
var viewWidth = 210;
var viewHeight = 892;
var sectionId = 'dynsection-0';
</script>
<script type="application/ecmascript" xlink:href="../../svg.min.js"/>
<svg id="graph" class="graph">
<g id="viewport">
<title>Terraria.GameContent.Creative.CreativePowers.StartNightImmediately</title>
<!-- Node1 -->
<g id="Node000001" class="node">
<title>Node1</title>
<g id="a_Node000001"><a xlink:title=" ">
<polygon fill="#999999" stroke="transparent" points="202,-105 0,-105 0,0 202,0 202,-105"/>
<text text-anchor="start" x="5" y="-92.5" font-family="Helvetica,sans-Serif" font-size="10.00">Terraria.GameContent.Creative.</text>
<text text-anchor="start" x="5" y="-81.5" font-family="Helvetica,sans-Serif" font-size="10.00">CreativePowers.StartNightImmediately</text>
<text text-anchor="start" x="99" y="-66.5" font-family="Helvetica,sans-Serif" font-size="10.00"> </text>
<text text-anchor="start" x="12.5" y="-51.5" font-family="Helvetica,sans-Serif" font-size="10.00">+</text>
<text text-anchor="start" x="34" y="-51.5" font-family="Helvetica,sans-Serif" font-size="10.00">override bool GetIsUnlocked()</text>
<text text-anchor="start" x="12.5" y="-36.5" font-family="Helvetica,sans-Serif" font-size="10.00">+</text>
<text text-anchor="start" x="34" y="-36.5" font-family="Helvetica,sans-Serif" font-size="10.00">StartNightImmediately()</text>
<text text-anchor="start" x="12.5" y="-21.5" font-family="Helvetica,sans-Serif" font-size="10.00">~</text>
<text text-anchor="start" x="34" y="-21.5" font-family="Helvetica,sans-Serif" font-size="10.00">override void UsePower()</text>
<text text-anchor="start" x="12.5" y="-6.5" font-family="Helvetica,sans-Serif" font-size="10.00">~</text>
<text text-anchor="start" x="34" y="-6.5" font-family="Helvetica,sans-Serif" font-size="10.00">override void OnCreation()</text>
<polygon fill="#666666" stroke="#666666" points="0,-76.5 0,-76.5 202,-76.5 202,-76.5 0,-76.5"/>
<polygon fill="#666666" stroke="#666666" points="0,-61.5 0,-61.5 202,-61.5 202,-61.5 0,-61.5"/>
<polygon fill="none" stroke="#666666" points="0,0 0,-105 202,-105 202,0 0,0"/>
</a>
</g>
</g>
<!-- Node2 -->
<g id="Node000002" class="node">
<title>Node2</title>
<g id="a_Node000002"><a xlink:href="../../db/dce/classTerraria_1_1GameContent_1_1Creative_1_1CreativePowers_1_1ASharedButtonPower.html" target="_top" xlink:title=" ">
<polygon fill="white" stroke="transparent" points="194.5,-647 7.5,-647 7.5,-141 194.5,-141 194.5,-647"/>
<text text-anchor="start" x="23.5" y="-635" font-family="Helvetica,sans-Serif" font-size="10.00">CreativePowers::ASharedButton</text>
<text text-anchor="start" x="86" y="-624" font-family="Helvetica,sans-Serif" font-size="10.00">Power</text>
<text text-anchor="start" x="12" y="-609" font-family="Helvetica,sans-Serif" font-size="10.00">+</text>
<text text-anchor="start" x="25" y="-609" font-family="Helvetica,sans-Serif" font-size="10.00">ushort PowerId</text>
<text text-anchor="start" x="12" y="-594" font-family="Helvetica,sans-Serif" font-size="10.00">+</text>
<text text-anchor="start" x="25" y="-594" font-family="Helvetica,sans-Serif" font-size="10.00">string ServerConfigName</text>
<text text-anchor="start" x="12" y="-579" font-family="Helvetica,sans-Serif" font-size="10.00">+</text>
<text text-anchor="start" x="25" y="-579" font-family="Helvetica,sans-Serif" font-size="10.00">PowerPermissionLevel</text>
<text text-anchor="start" x="25" y="-568" font-family="Helvetica,sans-Serif" font-size="10.00"> CurrentPermissionLevel</text>
<text text-anchor="start" x="12" y="-553" font-family="Helvetica,sans-Serif" font-size="10.00">+</text>
<text text-anchor="start" x="25" y="-553" font-family="Helvetica,sans-Serif" font-size="10.00">PowerPermissionLevel</text>
<text text-anchor="start" x="25" y="-542" font-family="Helvetica,sans-Serif" font-size="10.00"> DefaultPermissionLevel</text>
<text text-anchor="start" x="12" y="-527" font-family="Helvetica,sans-Serif" font-size="10.00">~</text>
<text text-anchor="start" x="25" y="-527" font-family="Helvetica,sans-Serif" font-size="10.00">Point _iconLocation</text>
<text text-anchor="start" x="12" y="-512" font-family="Helvetica,sans-Serif" font-size="10.00">~</text>
<text text-anchor="start" x="25" y="-512" font-family="Helvetica,sans-Serif" font-size="10.00">string _powerNameKey</text>
<text text-anchor="start" x="12" y="-497" font-family="Helvetica,sans-Serif" font-size="10.00">~</text>
<text text-anchor="start" x="25" y="-497" font-family="Helvetica,sans-Serif" font-size="10.00">string _descriptionKey</text>
<text text-anchor="start" x="14.5" y="-482" font-family="Helvetica,sans-Serif" font-size="10.00">&#45;</text>
<text text-anchor="start" x="25" y="-482" font-family="Helvetica,sans-Serif" font-size="10.00">ushort&lt; PowerId &gt; k</text>
<text text-anchor="start" x="25" y="-471" font-family="Helvetica,sans-Serif" font-size="10.00">__BackingField</text>
<text text-anchor="start" x="14.5" y="-456" font-family="Helvetica,sans-Serif" font-size="10.00">&#45;</text>
<text text-anchor="start" x="25" y="-456" font-family="Helvetica,sans-Serif" font-size="10.00">string&lt; ServerConfigName</text>
<text text-anchor="start" x="25" y="-445" font-family="Helvetica,sans-Serif" font-size="10.00"> &gt; k__BackingField</text>
<text text-anchor="start" x="14.5" y="-430" font-family="Helvetica,sans-Serif" font-size="10.00">&#45;</text>
<text text-anchor="start" x="25" y="-430" font-family="Helvetica,sans-Serif" font-size="10.00">PowerPermissionLevel</text>
<text text-anchor="start" x="25" y="-419" font-family="Helvetica,sans-Serif" font-size="10.00">&lt; CurrentPermissionLevel</text>
<text text-anchor="start" x="25" y="-408" font-family="Helvetica,sans-Serif" font-size="10.00"> &gt; k__BackingField</text>
<text text-anchor="start" x="14.5" y="-393" font-family="Helvetica,sans-Serif" font-size="10.00">&#45;</text>
<text text-anchor="start" x="25" y="-393" font-family="Helvetica,sans-Serif" font-size="10.00">PowerPermissionLevel</text>
<text text-anchor="start" x="25" y="-382" font-family="Helvetica,sans-Serif" font-size="10.00">&lt; DefaultPermissionLevel</text>
<text text-anchor="start" x="25" y="-371" font-family="Helvetica,sans-Serif" font-size="10.00"> &gt; k__BackingField</text>
<text text-anchor="start" x="12" y="-356" font-family="Helvetica,sans-Serif" font-size="10.00">+</text>
<text text-anchor="start" x="25" y="-356" font-family="Helvetica,sans-Serif" font-size="10.00">ASharedButtonPower()</text>
<text text-anchor="start" x="12" y="-341" font-family="Helvetica,sans-Serif" font-size="10.00">+</text>
<text text-anchor="start" x="25" y="-341" font-family="Helvetica,sans-Serif" font-size="10.00">void RequestUse()</text>
<text text-anchor="start" x="12" y="-326" font-family="Helvetica,sans-Serif" font-size="10.00">+</text>
<text text-anchor="start" x="25" y="-326" font-family="Helvetica,sans-Serif" font-size="10.00">void DeserializeNetMessage</text>
<text text-anchor="start" x="25" y="-315" font-family="Helvetica,sans-Serif" font-size="10.00">(BinaryReader reader, int</text>
<text text-anchor="start" x="25" y="-304" font-family="Helvetica,sans-Serif" font-size="10.00"> userId)</text>
<text text-anchor="start" x="12" y="-289" font-family="Helvetica,sans-Serif" font-size="10.00">+</text>
<text text-anchor="start" x="25" y="-289" font-family="Helvetica,sans-Serif" font-size="10.00">void ProvidePowerButtons</text>
<text text-anchor="start" x="25" y="-278" font-family="Helvetica,sans-Serif" font-size="10.00">(CreativePowerUIElementRequest</text>
<text text-anchor="start" x="25" y="-267" font-family="Helvetica,sans-Serif" font-size="10.00">Info info, List&lt; UIElement</text>
<text text-anchor="start" x="25" y="-256" font-family="Helvetica,sans-Serif" font-size="10.00"> &gt; elements)</text>
<text text-anchor="start" x="12" y="-241" font-family="Helvetica,sans-Serif" font-size="10.00">+</text>
<text text-anchor="start" x="25" y="-241" font-family="Helvetica,sans-Serif" font-size="10.00">bool GetIsUnlocked()</text>
<text text-anchor="start" x="12" y="-226" font-family="Helvetica,sans-Serif" font-size="10.00">~</text>
<text text-anchor="start" x="25" y="-226" font-family="Helvetica,sans-Serif" font-size="10.00">void UsePower()</text>
<text text-anchor="start" x="12" y="-211" font-family="Helvetica,sans-Serif" font-size="10.00">~</text>
<text text-anchor="start" x="25" y="-211" font-family="Helvetica,sans-Serif" font-size="10.00">void OnCreation()</text>
<text text-anchor="start" x="14.5" y="-196" font-family="Helvetica,sans-Serif" font-size="10.00">&#45;</text>
<text text-anchor="start" x="25" y="-196" font-family="Helvetica,sans-Serif" font-size="10.00">void button_OnUpdate</text>
<text text-anchor="start" x="25" y="-185" font-family="Helvetica,sans-Serif" font-size="10.00">(UIElement affectedElement)</text>
<text text-anchor="start" x="14.5" y="-170" font-family="Helvetica,sans-Serif" font-size="10.00">&#45;</text>
<text text-anchor="start" x="25" y="-170" font-family="Helvetica,sans-Serif" font-size="10.00">void button_OnClick</text>
<text text-anchor="start" x="25" y="-159" font-family="Helvetica,sans-Serif" font-size="10.00">(UIMouseEvent evt, UIElement</text>
<text text-anchor="start" x="25" y="-148" font-family="Helvetica,sans-Serif" font-size="10.00"> listeningElement)</text>
<polygon fill="#666666" stroke="#666666" points="8,-619 8,-619 195,-619 195,-619 8,-619"/>
<polygon fill="#666666" stroke="#666666" points="8,-366 8,-366 23,-366 23,-366 8,-366"/>
<polygon fill="#666666" stroke="#666666" points="23,-366 23,-366 195,-366 195,-366 23,-366"/>
<polygon fill="none" stroke="#666666" points="7.5,-141 7.5,-647 194.5,-647 194.5,-141 7.5,-141"/>
</a>
</g>
</g>
<!-- Node2&#45;&gt;Node1 -->
<g id="edge1_Node000001_Node000002" class="edge">
<title>Node2&#45;&gt;Node1</title>
<g id="a_edge1_Node000001_Node000002"><a xlink:title=" ">
<path fill="none" stroke="#63b8ff" d="M101,-130.84C101,-121.72 101,-113.12 101,-105.19"/>
<polygon fill="none" stroke="#63b8ff" points="97.5,-130.93 101,-140.93 104.5,-130.93 97.5,-130.93"/>
</a>
</g>
</g>
<!-- Node3 -->
<g id="Node000003" class="node">
<title>Node3</title>
<g id="a_Node000003"><a xlink:href="../../d4/d69/interfaceTerraria_1_1GameContent_1_1Creative_1_1ICreativePower.html" target="_top" xlink:title=" ">
<polygon fill="white" stroke="transparent" points="194.5,-884 7.5,-884 7.5,-683 194.5,-683 194.5,-884"/>
<text text-anchor="start" x="64" y="-871.5" font-family="Helvetica,sans-Serif" font-size="10.00">ICreativePower</text>
<text text-anchor="start" x="12" y="-856.5" font-family="Helvetica,sans-Serif" font-size="10.00">+</text>
<text text-anchor="start" x="25" y="-856.5" font-family="Helvetica,sans-Serif" font-size="10.00">ushort PowerId</text>
<text text-anchor="start" x="12" y="-841.5" font-family="Helvetica,sans-Serif" font-size="10.00">+</text>
<text text-anchor="start" x="25" y="-841.5" font-family="Helvetica,sans-Serif" font-size="10.00">string ServerConfigName</text>
<text text-anchor="start" x="12" y="-826.5" font-family="Helvetica,sans-Serif" font-size="10.00">+</text>
<text text-anchor="start" x="25" y="-826.5" font-family="Helvetica,sans-Serif" font-size="10.00">PowerPermissionLevel</text>
<text text-anchor="start" x="25" y="-815.5" font-family="Helvetica,sans-Serif" font-size="10.00"> CurrentPermissionLevel</text>
<text text-anchor="start" x="12" y="-800.5" font-family="Helvetica,sans-Serif" font-size="10.00">+</text>
<text text-anchor="start" x="25" y="-800.5" font-family="Helvetica,sans-Serif" font-size="10.00">PowerPermissionLevel</text>
<text text-anchor="start" x="25" y="-789.5" font-family="Helvetica,sans-Serif" font-size="10.00"> DefaultPermissionLevel</text>
<text text-anchor="start" x="12" y="-774.5" font-family="Helvetica,sans-Serif" font-size="10.00">+</text>
<text text-anchor="start" x="25" y="-774.5" font-family="Helvetica,sans-Serif" font-size="10.00">void DeserializeNetMessage</text>
<text text-anchor="start" x="25" y="-763.5" font-family="Helvetica,sans-Serif" font-size="10.00">(BinaryReader reader, int</text>
<text text-anchor="start" x="25" y="-752.5" font-family="Helvetica,sans-Serif" font-size="10.00"> userId)</text>
<text text-anchor="start" x="12" y="-737.5" font-family="Helvetica,sans-Serif" font-size="10.00">+</text>
<text text-anchor="start" x="25" y="-737.5" font-family="Helvetica,sans-Serif" font-size="10.00">void ProvidePowerButtons</text>
<text text-anchor="start" x="25" y="-726.5" font-family="Helvetica,sans-Serif" font-size="10.00">(CreativePowerUIElementRequest</text>
<text text-anchor="start" x="25" y="-715.5" font-family="Helvetica,sans-Serif" font-size="10.00">Info info, List&lt; UIElement</text>
<text text-anchor="start" x="25" y="-704.5" font-family="Helvetica,sans-Serif" font-size="10.00"> &gt; elements)</text>
<text text-anchor="start" x="12" y="-689.5" font-family="Helvetica,sans-Serif" font-size="10.00">+</text>
<text text-anchor="start" x="25" y="-689.5" font-family="Helvetica,sans-Serif" font-size="10.00">bool GetIsUnlocked()</text>
<polygon fill="#666666" stroke="#666666" points="8,-866.5 8,-866.5 195,-866.5 195,-866.5 8,-866.5"/>
<polygon fill="#666666" stroke="#666666" points="8,-784.5 8,-784.5 23,-784.5 23,-784.5 8,-784.5"/>
<polygon fill="#666666" stroke="#666666" points="23,-784.5 23,-784.5 195,-784.5 195,-784.5 23,-784.5"/>
<polygon fill="none" stroke="#666666" points="7.5,-683 7.5,-884 194.5,-884 194.5,-683 7.5,-683"/>
</a>
</g>
</g>
<!-- Node3&#45;&gt;Node2 -->
<g id="edge2_Node000002_Node000003" class="edge">
<title>Node3&#45;&gt;Node2</title>
<g id="a_edge2_Node000002_Node000003"><a xlink:title=" ">
<path fill="none" stroke="#63b8ff" d="M101,-672.9C101,-664.55 101,-655.93 101,-647.14"/>
<polygon fill="none" stroke="#63b8ff" points="97.5,-672.96 101,-682.96 104.5,-672.96 97.5,-672.96"/>
</a>
</g>
</g>
</g>
</svg>

<g id="navigator" transform="translate(0 0)" fill="#404254">
  <rect fill="#f2f5e9" fill-opacity="0.5" stroke="#606060" stroke-width=".5" x="0" y="0" width="60" height="60"/>
  <use id="zoomplus" xlink:href="#zoomPlus" x="17" y="9" onmousedown="handleZoom(evt,'in')"/>
  <use id="zoomminus" xlink:href="#zoomMin" x="42" y="9" onmousedown="handleZoom(evt,'out')"/>
  <use id="reset" xlink:href="#resetDef" x="30" y="36" onmousedown="handleReset()"/>
   <use id="arrowup" xlink:href="#arrowUp" x="0" y="0" onmousedown="handlePan(0,-1)"/>
  <use id="arrowright" xlink:href="#arrowRight" x="0" y="0" onmousedown="handlePan(1,0)"/>
  <use id="arrowdown" xlink:href="#arrowDown" x="0" y="0" onmousedown="handlePan(0,1)"/>
  <use id="arrowleft" xlink:href="#arrowLeft" x="0" y="0" onmousedown="handlePan(-1,0)"/>
</g>
<svg viewBox="0 0 15 15" width="100%" height="30px" preserveAspectRatio="xMaxYMin meet">
 <g id="arrow_out" transform="scale(0.3 0.3)">
  <a xlink:href="classTerraria_1_1GameContent_1_1Creative_1_1CreativePowers_1_1StartNightImmediately__inherit__graph_org.svg" target="_base">
   <rect id="button" ry="5" rx="5" y="6" x="6" height="38" width="38"
        fill="#f2f5e9" fill-opacity="0.5" stroke="#606060" stroke-width="1.0"/>
   <path id="arrow"
     d="M 11.500037,31.436501 C 11.940474,20.09759 22.043105,11.32322 32.158766,21.979434 L 37.068811,17.246167 C 37.068811,17.246167 37.088388,32 37.088388,32 L 22.160133,31.978069 C 22.160133,31.978069 26.997745,27.140456 26.997745,27.140456 C 18.528582,18.264221 13.291696,25.230495 11.500037,31.436501 z"
     style="fill:#404040;"/>
  </a>
 </g>
</svg>

<style type='text/css'>
<![CDATA[
[data-mouse-over-selected='false'] { opacity: 0.7; }
[data-mouse-over-selected='true']  { opacity: 1.0; }
]]>
</style>
<script type="application/ecmascript"><![CDATA[
document.addEventListener('DOMContentLoaded', (event) => {
  highlightEdges();
  highlightAdjacentNodes();
});
]]></script>
</svg>
