<?xml version="1.0" encoding="UTF-8" standalone="no"?>
<!DOCTYPE svg PUBLIC "-//W3C//DTD SVG 1.1//EN"
 "http://www.w3.org/Graphics/SVG/1.1/DTD/svg11.dtd">
<!-- Generated by graphviz version 2.43.0 (0)
 -->
<!-- Title: Terraria.WorldBuilding.GenCondition Pages: 1 -->
<svg width="1154pt" height="543pt"
 viewBox="0.00 0.00 1154.00 543.00" xmlns="http://www.w3.org/2000/svg" xmlns:xlink="http://www.w3.org/1999/xlink">
<g id="graph0" class="graph" transform="scale(1 1) rotate(0) translate(4 539)">
<title>Terraria.WorldBuilding.GenCondition</title>
<!-- Node1 -->
<g id="Node000001" class="node">
<title>Node1</title>
<g id="a_Node000001"><a xlink:title=" ">
<polygon fill="#999999" stroke="transparent" points="643,-357 503,-357 503,-133 643,-133 643,-357"/>
<text text-anchor="start" x="508" y="-345" font-family="Helvetica,sans-Serif" font-size="10.00">Terraria.WorldBuilding.Gen</text>
<text text-anchor="start" x="549.5" y="-334" font-family="Helvetica,sans-Serif" font-size="10.00">Condition</text>
<text text-anchor="start" x="511.5" y="-319" font-family="Helvetica,sans-Serif" font-size="10.00">&#45;</text>
<text text-anchor="start" x="524" y="-319" font-family="Helvetica,sans-Serif" font-size="10.00">bool InvertResults</text>
<text text-anchor="start" x="511.5" y="-304" font-family="Helvetica,sans-Serif" font-size="10.00">&#45;</text>
<text text-anchor="start" x="524" y="-304" font-family="Helvetica,sans-Serif" font-size="10.00">int _width</text>
<text text-anchor="start" x="511.5" y="-289" font-family="Helvetica,sans-Serif" font-size="10.00">&#45;</text>
<text text-anchor="start" x="524" y="-289" font-family="Helvetica,sans-Serif" font-size="10.00">int _height</text>
<text text-anchor="start" x="511.5" y="-274" font-family="Helvetica,sans-Serif" font-size="10.00">&#45;</text>
<text text-anchor="start" x="524" y="-274" font-family="Helvetica,sans-Serif" font-size="10.00">AreaType _areaType</text>
<text text-anchor="start" x="509" y="-259" font-family="Helvetica,sans-Serif" font-size="10.00">+</text>
<text text-anchor="start" x="524" y="-259" font-family="Helvetica,sans-Serif" font-size="10.00">bool IsValid(int x,</text>
<text text-anchor="start" x="524" y="-248" font-family="Helvetica,sans-Serif" font-size="10.00"> int y)</text>
<text text-anchor="start" x="509" y="-233" font-family="Helvetica,sans-Serif" font-size="10.00">+</text>
<text text-anchor="start" x="524" y="-233" font-family="Helvetica,sans-Serif" font-size="10.00">GenCondition Not()</text>
<text text-anchor="start" x="509" y="-218" font-family="Helvetica,sans-Serif" font-size="10.00">+</text>
<text text-anchor="start" x="524" y="-218" font-family="Helvetica,sans-Serif" font-size="10.00">GenCondition AreaOr</text>
<text text-anchor="start" x="524" y="-207" font-family="Helvetica,sans-Serif" font-size="10.00">(int width, int height)</text>
<text text-anchor="start" x="509" y="-192" font-family="Helvetica,sans-Serif" font-size="10.00">+</text>
<text text-anchor="start" x="524" y="-192" font-family="Helvetica,sans-Serif" font-size="10.00">GenCondition AreaAnd</text>
<text text-anchor="start" x="524" y="-181" font-family="Helvetica,sans-Serif" font-size="10.00">(int width, int height)</text>
<text text-anchor="start" x="509" y="-166" font-family="Helvetica,sans-Serif" font-size="10.00">#</text>
<text text-anchor="start" x="524" y="-166" font-family="Helvetica,sans-Serif" font-size="10.00">bool CheckValidity</text>
<text text-anchor="start" x="524" y="-155" font-family="Helvetica,sans-Serif" font-size="10.00">(int x, int y)</text>
<text text-anchor="start" x="509" y="-140" font-family="Helvetica,sans-Serif" font-size="10.00">#</text>
<text text-anchor="start" x="524" y="-140" font-family="Helvetica,sans-Serif" font-size="10.00">GenCondition()</text>
<polygon fill="#666666" stroke="#666666" points="503,-329 503,-329 643,-329 643,-329 503,-329"/>
<polygon fill="#666666" stroke="#666666" points="503,-269 503,-269 522,-269 522,-269 503,-269"/>
<polygon fill="#666666" stroke="#666666" points="522,-269 522,-269 643,-269 643,-269 522,-269"/>
<polygon fill="none" stroke="#666666" points="503,-133 503,-357 643,-357 643,-133 503,-133"/>
</a>
</g>
</g>
<!-- Node3 -->
<g id="Node000003" class="node">
<title>Node3</title>
<g id="a_Node000003"><a xlink:href="../../dd/dbc/classTerraria_1_1WorldBuilding_1_1Conditions_1_1Continue.html" target="_top" xlink:title=" ">
<polygon fill="white" stroke="transparent" points="176,-91.5 0,-91.5 0,-5.5 176,-5.5 176,-91.5"/>
<text text-anchor="start" x="5" y="-79.5" font-family="Helvetica,sans-Serif" font-size="10.00">Terraria.WorldBuilding.Conditions.</text>
<text text-anchor="start" x="66" y="-68.5" font-family="Helvetica,sans-Serif" font-size="10.00">Continue</text>
<text text-anchor="start" x="86" y="-53.5" font-family="Helvetica,sans-Serif" font-size="10.00"> </text>
<text text-anchor="start" x="9" y="-38.5" font-family="Helvetica,sans-Serif" font-size="10.00">+</text>
<text text-anchor="start" x="27" y="-38.5" font-family="Helvetica,sans-Serif" font-size="10.00">Continue()</text>
<text text-anchor="start" x="9" y="-23.5" font-family="Helvetica,sans-Serif" font-size="10.00">#</text>
<text text-anchor="start" x="27" y="-23.5" font-family="Helvetica,sans-Serif" font-size="10.00">override bool CheckValidity</text>
<text text-anchor="start" x="27" y="-12.5" font-family="Helvetica,sans-Serif" font-size="10.00">(int x, int y)</text>
<polygon fill="#666666" stroke="#666666" points="0,-63.5 0,-63.5 176,-63.5 176,-63.5 0,-63.5"/>
<polygon fill="#666666" stroke="#666666" points="0,-48.5 0,-48.5 176,-48.5 176,-48.5 0,-48.5"/>
<polygon fill="none" stroke="#666666" points="0,-5.5 0,-91.5 176,-91.5 176,-5.5 0,-5.5"/>
</a>
</g>
</g>
<!-- Node1&#45;&gt;Node3 -->
<g id="edge2_Node000001_Node000003" class="edge">
<title>Node1&#45;&gt;Node3</title>
<g id="a_edge2_Node000001_Node000003"><a xlink:title=" ">
<path fill="none" stroke="#63b8ff" d="M492.94,-216.13C413.87,-188.04 289.91,-142.44 185,-97 180.96,-95.25 176.84,-93.42 172.69,-91.54"/>
<polygon fill="none" stroke="#63b8ff" points="492.23,-219.6 502.83,-219.64 494.57,-213 492.23,-219.6"/>
</a>
</g>
</g>
<!-- Node4 -->
<g id="Node000004" class="node">
<title>Node4</title>
<g id="a_Node000004"><a xlink:href="../../d4/dfd/classTerraria_1_1WorldBuilding_1_1Conditions_1_1HasLava.html" target="_top" xlink:title=" ">
<polygon fill="white" stroke="transparent" points="370,-91.5 194,-91.5 194,-5.5 370,-5.5 370,-91.5"/>
<text text-anchor="start" x="199" y="-79.5" font-family="Helvetica,sans-Serif" font-size="10.00">Terraria.WorldBuilding.Conditions.</text>
<text text-anchor="start" x="260.5" y="-68.5" font-family="Helvetica,sans-Serif" font-size="10.00">HasLava</text>
<text text-anchor="start" x="280" y="-53.5" font-family="Helvetica,sans-Serif" font-size="10.00"> </text>
<text text-anchor="start" x="203" y="-38.5" font-family="Helvetica,sans-Serif" font-size="10.00">+</text>
<text text-anchor="start" x="221" y="-38.5" font-family="Helvetica,sans-Serif" font-size="10.00">HasLava()</text>
<text text-anchor="start" x="203" y="-23.5" font-family="Helvetica,sans-Serif" font-size="10.00">#</text>
<text text-anchor="start" x="221" y="-23.5" font-family="Helvetica,sans-Serif" font-size="10.00">override bool CheckValidity</text>
<text text-anchor="start" x="221" y="-12.5" font-family="Helvetica,sans-Serif" font-size="10.00">(int x, int y)</text>
<polygon fill="#666666" stroke="#666666" points="194,-63.5 194,-63.5 370,-63.5 370,-63.5 194,-63.5"/>
<polygon fill="#666666" stroke="#666666" points="194,-48.5 194,-48.5 370,-48.5 370,-48.5 194,-48.5"/>
<polygon fill="none" stroke="#666666" points="194,-5.5 194,-91.5 370,-91.5 370,-5.5 194,-5.5"/>
</a>
</g>
</g>
<!-- Node1&#45;&gt;Node4 -->
<g id="edge3_Node000001_Node000004" class="edge">
<title>Node1&#45;&gt;Node4</title>
<g id="a_edge3_Node000001_Node000004"><a xlink:title=" ">
<path fill="none" stroke="#63b8ff" d="M494.32,-191.41C447.47,-160.1 388.81,-120.89 345.02,-91.62"/>
<polygon fill="none" stroke="#63b8ff" points="492.67,-194.52 502.93,-197.16 496.56,-188.7 492.67,-194.52"/>
</a>
</g>
</g>
<!-- Node5 -->
<g id="Node000005" class="node">
<title>Node5</title>
<g id="a_Node000005"><a xlink:href="../../de/d6f/classTerraria_1_1WorldBuilding_1_1Conditions_1_1IsSolid.html" target="_top" xlink:title=" ">
<polygon fill="white" stroke="transparent" points="564,-91.5 388,-91.5 388,-5.5 564,-5.5 564,-91.5"/>
<text text-anchor="start" x="393" y="-79.5" font-family="Helvetica,sans-Serif" font-size="10.00">Terraria.WorldBuilding.Conditions.</text>
<text text-anchor="start" x="459.5" y="-68.5" font-family="Helvetica,sans-Serif" font-size="10.00">IsSolid</text>
<text text-anchor="start" x="474" y="-53.5" font-family="Helvetica,sans-Serif" font-size="10.00"> </text>
<text text-anchor="start" x="397" y="-38.5" font-family="Helvetica,sans-Serif" font-size="10.00">+</text>
<text text-anchor="start" x="415" y="-38.5" font-family="Helvetica,sans-Serif" font-size="10.00">IsSolid()</text>
<text text-anchor="start" x="397" y="-23.5" font-family="Helvetica,sans-Serif" font-size="10.00">#</text>
<text text-anchor="start" x="415" y="-23.5" font-family="Helvetica,sans-Serif" font-size="10.00">override bool CheckValidity</text>
<text text-anchor="start" x="415" y="-12.5" font-family="Helvetica,sans-Serif" font-size="10.00">(int x, int y)</text>
<polygon fill="#666666" stroke="#666666" points="388,-63.5 388,-63.5 564,-63.5 564,-63.5 388,-63.5"/>
<polygon fill="#666666" stroke="#666666" points="388,-48.5 388,-48.5 564,-48.5 564,-48.5 388,-48.5"/>
<polygon fill="none" stroke="#666666" points="388,-5.5 388,-91.5 564,-91.5 564,-5.5 388,-5.5"/>
</a>
</g>
</g>
<!-- Node1&#45;&gt;Node5 -->
<g id="edge4_Node000001_Node000005" class="edge">
<title>Node1&#45;&gt;Node5</title>
<g id="a_edge4_Node000001_Node000005"><a xlink:title=" ">
<path fill="none" stroke="#63b8ff" d="M512.97,-123.64C507.31,-112.28 501.87,-101.37 496.98,-91.57"/>
<polygon fill="none" stroke="#63b8ff" points="509.96,-125.45 517.56,-132.83 516.23,-122.32 509.96,-125.45"/>
</a>
</g>
</g>
<!-- Node6 -->
<g id="Node000006" class="node">
<title>Node6</title>
<g id="a_Node000006"><a xlink:href="../../d0/dbe/classTerraria_1_1WorldBuilding_1_1Conditions_1_1IsTile.html" target="_top" xlink:title=" ">
<polygon fill="white" stroke="transparent" points="758,-97 582,-97 582,0 758,0 758,-97"/>
<text text-anchor="start" x="587" y="-84.5" font-family="Helvetica,sans-Serif" font-size="10.00">Terraria.WorldBuilding.Conditions.</text>
<text text-anchor="start" x="656.5" y="-73.5" font-family="Helvetica,sans-Serif" font-size="10.00">IsTile</text>
<text text-anchor="start" x="593.5" y="-58.5" font-family="Helvetica,sans-Serif" font-size="10.00">&#45;</text>
<text text-anchor="start" x="609" y="-58.5" font-family="Helvetica,sans-Serif" font-size="10.00">ushort[] _types</text>
<text text-anchor="start" x="591" y="-43.5" font-family="Helvetica,sans-Serif" font-size="10.00">+</text>
<text text-anchor="start" x="609" y="-43.5" font-family="Helvetica,sans-Serif" font-size="10.00">IsTile(params ushort</text>
<text text-anchor="start" x="609" y="-32.5" font-family="Helvetica,sans-Serif" font-size="10.00">[] types)</text>
<text text-anchor="start" x="591" y="-17.5" font-family="Helvetica,sans-Serif" font-size="10.00">#</text>
<text text-anchor="start" x="609" y="-17.5" font-family="Helvetica,sans-Serif" font-size="10.00">override bool CheckValidity</text>
<text text-anchor="start" x="609" y="-6.5" font-family="Helvetica,sans-Serif" font-size="10.00">(int x, int y)</text>
<polygon fill="#666666" stroke="#666666" points="582,-68.5 582,-68.5 758,-68.5 758,-68.5 582,-68.5"/>
<polygon fill="#666666" stroke="#666666" points="582,-53.5 582,-53.5 607,-53.5 607,-53.5 582,-53.5"/>
<polygon fill="#666666" stroke="#666666" points="607,-53.5 607,-53.5 758,-53.5 758,-53.5 607,-53.5"/>
<polygon fill="none" stroke="#666666" points="582,0 582,-97 758,-97 758,0 582,0"/>
</a>
</g>
</g>
<!-- Node1&#45;&gt;Node6 -->
<g id="edge5_Node000001_Node000006" class="edge">
<title>Node1&#45;&gt;Node6</title>
<g id="a_edge5_Node000001_Node000006"><a xlink:title=" ">
<path fill="none" stroke="#63b8ff" d="M632.91,-123.87C637.53,-114.61 642,-105.64 646.15,-97.32"/>
<polygon fill="none" stroke="#63b8ff" points="629.77,-122.32 628.44,-132.83 636.04,-125.45 629.77,-122.32"/>
</a>
</g>
</g>
<!-- Node7 -->
<g id="Node000007" class="node">
<title>Node7</title>
<g id="a_Node000007"><a xlink:href="../../d2/d95/classTerraria_1_1WorldBuilding_1_1Conditions_1_1MysticSnake.html" target="_top" xlink:title=" ">
<polygon fill="white" stroke="transparent" points="952,-91.5 776,-91.5 776,-5.5 952,-5.5 952,-91.5"/>
<text text-anchor="start" x="781" y="-79.5" font-family="Helvetica,sans-Serif" font-size="10.00">Terraria.WorldBuilding.Conditions.</text>
<text text-anchor="start" x="833" y="-68.5" font-family="Helvetica,sans-Serif" font-size="10.00">MysticSnake</text>
<text text-anchor="start" x="862" y="-53.5" font-family="Helvetica,sans-Serif" font-size="10.00"> </text>
<text text-anchor="start" x="785" y="-38.5" font-family="Helvetica,sans-Serif" font-size="10.00">+</text>
<text text-anchor="start" x="803" y="-38.5" font-family="Helvetica,sans-Serif" font-size="10.00">MysticSnake()</text>
<text text-anchor="start" x="785" y="-23.5" font-family="Helvetica,sans-Serif" font-size="10.00">#</text>
<text text-anchor="start" x="803" y="-23.5" font-family="Helvetica,sans-Serif" font-size="10.00">override bool CheckValidity</text>
<text text-anchor="start" x="803" y="-12.5" font-family="Helvetica,sans-Serif" font-size="10.00">(int x, int y)</text>
<polygon fill="#666666" stroke="#666666" points="776,-63.5 776,-63.5 952,-63.5 952,-63.5 776,-63.5"/>
<polygon fill="#666666" stroke="#666666" points="776,-48.5 776,-48.5 952,-48.5 952,-48.5 776,-48.5"/>
<polygon fill="none" stroke="#666666" points="776,-5.5 776,-91.5 952,-91.5 952,-5.5 776,-5.5"/>
</a>
</g>
</g>
<!-- Node1&#45;&gt;Node7 -->
<g id="edge6_Node000001_Node000007" class="edge">
<title>Node1&#45;&gt;Node7</title>
<g id="a_edge6_Node000001_Node000007"><a xlink:title=" ">
<path fill="none" stroke="#63b8ff" d="M651.68,-191.41C698.53,-160.1 757.19,-120.89 800.98,-91.62"/>
<polygon fill="none" stroke="#63b8ff" points="649.44,-188.7 643.07,-197.16 653.33,-194.52 649.44,-188.7"/>
</a>
</g>
</g>
<!-- Node8 -->
<g id="Node000008" class="node">
<title>Node8</title>
<g id="a_Node000008"><a xlink:href="../../df/df6/classTerraria_1_1WorldBuilding_1_1Conditions_1_1NotNull.html" target="_top" xlink:title=" ">
<polygon fill="white" stroke="transparent" points="1146,-91.5 970,-91.5 970,-5.5 1146,-5.5 1146,-91.5"/>
<text text-anchor="start" x="975" y="-79.5" font-family="Helvetica,sans-Serif" font-size="10.00">Terraria.WorldBuilding.Conditions.</text>
<text text-anchor="start" x="1039.5" y="-68.5" font-family="Helvetica,sans-Serif" font-size="10.00">NotNull</text>
<text text-anchor="start" x="1056" y="-53.5" font-family="Helvetica,sans-Serif" font-size="10.00"> </text>
<text text-anchor="start" x="979" y="-38.5" font-family="Helvetica,sans-Serif" font-size="10.00">+</text>
<text text-anchor="start" x="997" y="-38.5" font-family="Helvetica,sans-Serif" font-size="10.00">NotNull()</text>
<text text-anchor="start" x="979" y="-23.5" font-family="Helvetica,sans-Serif" font-size="10.00">#</text>
<text text-anchor="start" x="997" y="-23.5" font-family="Helvetica,sans-Serif" font-size="10.00">override bool CheckValidity</text>
<text text-anchor="start" x="997" y="-12.5" font-family="Helvetica,sans-Serif" font-size="10.00">(int x, int y)</text>
<polygon fill="#666666" stroke="#666666" points="970,-63.5 970,-63.5 1146,-63.5 1146,-63.5 970,-63.5"/>
<polygon fill="#666666" stroke="#666666" points="970,-48.5 970,-48.5 1146,-48.5 1146,-48.5 970,-48.5"/>
<polygon fill="none" stroke="#666666" points="970,-5.5 970,-91.5 1146,-91.5 1146,-5.5 970,-5.5"/>
</a>
</g>
</g>
<!-- Node1&#45;&gt;Node8 -->
<g id="edge7_Node000001_Node000008" class="edge">
<title>Node1&#45;&gt;Node8</title>
<g id="a_edge7_Node000001_Node000008"><a xlink:title=" ">
<path fill="none" stroke="#63b8ff" d="M653.06,-216.13C732.13,-188.04 856.09,-142.44 961,-97 965.04,-95.25 969.16,-93.42 973.31,-91.54"/>
<polygon fill="none" stroke="#63b8ff" points="651.43,-213 643.17,-219.64 653.77,-219.6 651.43,-213"/>
</a>
</g>
</g>
<!-- Node2 -->
<g id="Node000002" class="node">
<title>Node2</title>
<g id="a_Node000002"><a xlink:href="../../d4/dd6/classTerraria_1_1WorldBuilding_1_1GenBase.html" target="_top" xlink:title=" ">
<polygon fill="white" stroke="transparent" points="655.5,-535 490.5,-535 490.5,-393 655.5,-393 655.5,-535"/>
<text text-anchor="start" x="551.5" y="-523" font-family="Helvetica,sans-Serif" font-size="10.00">GenBase</text>
<text text-anchor="start" x="495" y="-508" font-family="Helvetica,sans-Serif" font-size="10.00">+</text>
<text text-anchor="start" x="508" y="-508" font-family="Helvetica,sans-Serif" font-size="10.00">static UnifiedRandom</text>
<text text-anchor="start" x="508" y="-497" font-family="Helvetica,sans-Serif" font-size="10.00"> _random</text>
<text text-anchor="start" x="495" y="-482" font-family="Helvetica,sans-Serif" font-size="10.00">+</text>
<text text-anchor="start" x="508" y="-482" font-family="Helvetica,sans-Serif" font-size="10.00">static TileData _tiles</text>
<text text-anchor="start" x="495" y="-467" font-family="Helvetica,sans-Serif" font-size="10.00">+</text>
<text text-anchor="start" x="508" y="-467" font-family="Helvetica,sans-Serif" font-size="10.00">static int _worldWidth</text>
<text text-anchor="start" x="495" y="-452" font-family="Helvetica,sans-Serif" font-size="10.00">+</text>
<text text-anchor="start" x="508" y="-452" font-family="Helvetica,sans-Serif" font-size="10.00">static int _worldHeight</text>
<text text-anchor="start" x="495" y="-437" font-family="Helvetica,sans-Serif" font-size="10.00">+</text>
<text text-anchor="start" x="508" y="-437" font-family="Helvetica,sans-Serif" font-size="10.00">delegate bool CustomPerUnit</text>
<text text-anchor="start" x="508" y="-426" font-family="Helvetica,sans-Serif" font-size="10.00">Action(int x, int y, params</text>
<text text-anchor="start" x="508" y="-415" font-family="Helvetica,sans-Serif" font-size="10.00"> object[] args)</text>
<text text-anchor="start" x="495" y="-400" font-family="Helvetica,sans-Serif" font-size="10.00">+</text>
<text text-anchor="start" x="508" y="-400" font-family="Helvetica,sans-Serif" font-size="10.00">GenBase()</text>
<polygon fill="#666666" stroke="#666666" points="491,-518 491,-518 656,-518 656,-518 491,-518"/>
<polygon fill="#666666" stroke="#666666" points="491,-447 491,-447 506,-447 506,-447 491,-447"/>
<polygon fill="#666666" stroke="#666666" points="506,-447 506,-447 656,-447 656,-447 506,-447"/>
<polygon fill="none" stroke="#666666" points="490.5,-393 490.5,-535 655.5,-535 655.5,-393 490.5,-393"/>
</a>
</g>
</g>
<!-- Node2&#45;&gt;Node1 -->
<g id="edge1_Node000001_Node000002" class="edge">
<title>Node2&#45;&gt;Node1</title>
<g id="a_edge1_Node000001_Node000002"><a xlink:title=" ">
<path fill="none" stroke="#63b8ff" d="M573,-382.82C573,-374.49 573,-365.92 573,-357.33"/>
<polygon fill="none" stroke="#63b8ff" points="569.5,-382.85 573,-392.85 576.5,-382.85 569.5,-382.85"/>
</a>
</g>
</g>
</g>
</svg>
