<?xml version="1.0" encoding="UTF-8" standalone="no"?>
<!DOCTYPE svg PUBLIC "-//W3C//DTD SVG 1.1//EN"
 "http://www.w3.org/Graphics/SVG/1.1/DTD/svg11.dtd">
<!-- Generated by graphviz version 2.43.0 (0)
 -->
<!-- Title: ReLogic.Localization.IME.FnaIme Pages: 1 -->
<!--zoomable 913 -->

<svg id="main" version="1.1" xmlns="http://www.w3.org/2000/svg" xmlns:xlink="http://www.w3.org/1999/xlink" xml:space="preserve" onload="init(evt)">
<style type="text/css"><![CDATA[
.node, .edge {opacity: 0.7;}
.node.selected, .edge.selected {opacity: 1;}
.edge:hover path { stroke: red; }
.edge:hover polygon { stroke: red; fill: red; }
]]></style>

<defs>
  <circle id="rim" cx="0" cy="0" r="7"/>
  <circle id="rim2" cx="0" cy="0" r="3.5"/>
  <g id="zoomPlus">
    <use xlink:href="#rim" fill="#404040"><set attributeName="fill" to="#808080" begin="zoomplus.mouseover" end="zoomplus.mouseout"/></use>
    <path d="M-4,0h8M0,-4v8" fill="none" stroke="white" stroke-width="1.5" pointer-events="none"/>
  </g>
  <g id="zoomMin">
    <use xlink:href="#rim" fill="#404040"><set attributeName="fill" to="#808080" begin="zoomminus.mouseover" end="zoomminus.mouseout"/></use>
    <path d="M-4,0h8" fill="none" stroke="white" stroke-width="1.5" pointer-events="none"/>
  </g>
  <g id="arrowUp" transform="translate(30 24)">
    <use xlink:href="#rim"/>
    <path pointer-events="none" fill="none" stroke="white" stroke-width="1.5" d="M0,-3.0v7 M-2.5,-0.5L0,-3.0L2.5,-0.5"/>
  </g>
  <g id="arrowRight" transform="rotate(90) translate(36 -43)">
    <use xlink:href="#rim"/>
    <path pointer-events="none" fill="none" stroke="white" stroke-width="1.5" d="M0,-3.0v7 M-2.5,-0.5L0,-3.0L2.5,-0.5"/>
  </g>
  <g id="arrowDown" transform="rotate(180) translate(-30 -48)">
    <use xlink:href="#rim"/>
    <path pointer-events="none" fill="none" stroke="white" stroke-width="1.5" d="M0,-3.0v7 M-2.5,-0.5L0,-3.0L2.5,-0.5"/>
  </g>
  <g id="arrowLeft" transform="rotate(270) translate(-36 17)">
    <use xlink:href="#rim"/>
    <path pointer-events="none" fill="none" stroke="white" stroke-width="1.5" d="M0,-3.0v7 M-2.5,-0.5L0,-3.0L2.5,-0.5"/>
  </g>
  <g id="resetDef">
    <use xlink:href="#rim2" fill="#404040"><set attributeName="fill" to="#808080" begin="reset.mouseover" end="reset.mouseout"/></use>
  </g>
</defs>
<script type="application/ecmascript">
var viewWidth = 272;
var viewHeight = 913;
var sectionId = 'dynsection-0';
</script>
<script type="application/ecmascript" xlink:href="../../svg.min.js"/>
<svg id="graph" class="graph">
<g id="viewport">
<title>ReLogic.Localization.IME.FnaIme</title>
<!-- Node1 -->
<g id="Node000001" class="node">
<title>Node1</title>
<g id="a_Node000001"><a xlink:title=" ">
<polygon fill="#999999" stroke="transparent" points="236,-235 58,-235 58,0 236,0 236,-235"/>
<text text-anchor="start" x="85" y="-222.5" font-family="Helvetica,sans-Serif" font-size="10.00">ReLogic.Localization.IME.</text>
<text text-anchor="start" x="128.5" y="-211.5" font-family="Helvetica,sans-Serif" font-size="10.00">FnaIme</text>
<text text-anchor="start" x="62" y="-196.5" font-family="Helvetica,sans-Serif" font-size="10.00">+</text>
<text text-anchor="start" x="75" y="-196.5" font-family="Helvetica,sans-Serif" font-size="10.00">override uint CandidateCount</text>
<text text-anchor="start" x="62" y="-181.5" font-family="Helvetica,sans-Serif" font-size="10.00">+</text>
<text text-anchor="start" x="75" y="-181.5" font-family="Helvetica,sans-Serif" font-size="10.00">override string Composition</text>
<text text-anchor="start" x="75" y="-170.5" font-family="Helvetica,sans-Serif" font-size="10.00">String</text>
<text text-anchor="start" x="62" y="-155.5" font-family="Helvetica,sans-Serif" font-size="10.00">+</text>
<text text-anchor="start" x="75" y="-155.5" font-family="Helvetica,sans-Serif" font-size="10.00">override bool IsCandidate</text>
<text text-anchor="start" x="75" y="-144.5" font-family="Helvetica,sans-Serif" font-size="10.00">ListVisible</text>
<text text-anchor="start" x="62" y="-129.5" font-family="Helvetica,sans-Serif" font-size="10.00">+</text>
<text text-anchor="start" x="75" y="-129.5" font-family="Helvetica,sans-Serif" font-size="10.00">override uint SelectedCandidate</text>
<text text-anchor="start" x="64.5" y="-114.5" font-family="Helvetica,sans-Serif" font-size="10.00">&#45;</text>
<text text-anchor="start" x="75" y="-114.5" font-family="Helvetica,sans-Serif" font-size="10.00">bool _disposedValue</text>
<text text-anchor="start" x="62" y="-99.5" font-family="Helvetica,sans-Serif" font-size="10.00">+</text>
<text text-anchor="start" x="75" y="-99.5" font-family="Helvetica,sans-Serif" font-size="10.00">FnaIme()</text>
<text text-anchor="start" x="62" y="-84.5" font-family="Helvetica,sans-Serif" font-size="10.00">+</text>
<text text-anchor="start" x="75" y="-84.5" font-family="Helvetica,sans-Serif" font-size="10.00">override string GetCandidate</text>
<text text-anchor="start" x="75" y="-73.5" font-family="Helvetica,sans-Serif" font-size="10.00">(uint index)</text>
<text text-anchor="start" x="62" y="-58.5" font-family="Helvetica,sans-Serif" font-size="10.00">#</text>
<text text-anchor="start" x="75" y="-58.5" font-family="Helvetica,sans-Serif" font-size="10.00">override void Dispose</text>
<text text-anchor="start" x="75" y="-47.5" font-family="Helvetica,sans-Serif" font-size="10.00">(bool disposing)</text>
<text text-anchor="start" x="62" y="-32.5" font-family="Helvetica,sans-Serif" font-size="10.00">#</text>
<text text-anchor="start" x="75" y="-32.5" font-family="Helvetica,sans-Serif" font-size="10.00">override void Finalize()</text>
<text text-anchor="start" x="64.5" y="-17.5" font-family="Helvetica,sans-Serif" font-size="10.00">&#45;</text>
<text text-anchor="start" x="75" y="-17.5" font-family="Helvetica,sans-Serif" font-size="10.00">void OnCharCallback</text>
<text text-anchor="start" x="75" y="-6.5" font-family="Helvetica,sans-Serif" font-size="10.00">(char key)</text>
<polygon fill="#666666" stroke="#666666" points="58,-206.5 58,-206.5 236,-206.5 236,-206.5 58,-206.5"/>
<polygon fill="#666666" stroke="#666666" points="58,-109.5 58,-109.5 73,-109.5 73,-109.5 58,-109.5"/>
<polygon fill="#666666" stroke="#666666" points="73,-109.5 73,-109.5 236,-109.5 236,-109.5 73,-109.5"/>
<polygon fill="none" stroke="#666666" points="58,0 58,-235 236,-235 236,0 58,0"/>
</a>
</g>
</g>
<!-- Node2 -->
<g id="Node000002" class="node">
<title>Node2</title>
<g id="a_Node000002"><a xlink:href="../../dc/d8a/classReLogic_1_1Localization_1_1IME_1_1PlatformIme.html" target="_top" xlink:title=" ">
<polygon fill="white" stroke="transparent" points="234.5,-667 59.5,-667 59.5,-271 234.5,-271 234.5,-667"/>
<text text-anchor="start" x="117" y="-655" font-family="Helvetica,sans-Serif" font-size="10.00">PlatformIme</text>
<text text-anchor="start" x="64" y="-640" font-family="Helvetica,sans-Serif" font-size="10.00">+</text>
<text text-anchor="start" x="77" y="-640" font-family="Helvetica,sans-Serif" font-size="10.00">string CompositionString</text>
<text text-anchor="start" x="64" y="-625" font-family="Helvetica,sans-Serif" font-size="10.00">+</text>
<text text-anchor="start" x="77" y="-625" font-family="Helvetica,sans-Serif" font-size="10.00">bool IsCandidateListVisible</text>
<text text-anchor="start" x="64" y="-610" font-family="Helvetica,sans-Serif" font-size="10.00">+</text>
<text text-anchor="start" x="77" y="-610" font-family="Helvetica,sans-Serif" font-size="10.00">uint SelectedCandidate</text>
<text text-anchor="start" x="64" y="-595" font-family="Helvetica,sans-Serif" font-size="10.00">+</text>
<text text-anchor="start" x="77" y="-595" font-family="Helvetica,sans-Serif" font-size="10.00">uint CandidateCount</text>
<text text-anchor="start" x="64" y="-580" font-family="Helvetica,sans-Serif" font-size="10.00">+</text>
<text text-anchor="start" x="77" y="-580" font-family="Helvetica,sans-Serif" font-size="10.00">bool IsEnabled</text>
<text text-anchor="start" x="66.5" y="-565" font-family="Helvetica,sans-Serif" font-size="10.00">&#45;</text>
<text text-anchor="start" x="77" y="-565" font-family="Helvetica,sans-Serif" font-size="10.00">bool&lt; IsEnabled &gt; k</text>
<text text-anchor="start" x="77" y="-554" font-family="Helvetica,sans-Serif" font-size="10.00">__BackingField</text>
<text text-anchor="start" x="66.5" y="-539" font-family="Helvetica,sans-Serif" font-size="10.00">&#45;</text>
<text text-anchor="start" x="77" y="-539" font-family="Helvetica,sans-Serif" font-size="10.00">readonly List&lt; Action</text>
<text text-anchor="start" x="77" y="-528" font-family="Helvetica,sans-Serif" font-size="10.00">&lt; char &gt; &gt; _keyPressCallbacks</text>
<text text-anchor="start" x="66.5" y="-513" font-family="Helvetica,sans-Serif" font-size="10.00">&#45;</text>
<text text-anchor="start" x="77" y="-513" font-family="Helvetica,sans-Serif" font-size="10.00">bool _disposedValue</text>
<text text-anchor="start" x="64" y="-498" font-family="Helvetica,sans-Serif" font-size="10.00">+</text>
<text text-anchor="start" x="77" y="-498" font-family="Helvetica,sans-Serif" font-size="10.00">void AddKeyListener</text>
<text text-anchor="start" x="77" y="-487" font-family="Helvetica,sans-Serif" font-size="10.00">(Action&lt; char &gt; listener)</text>
<text text-anchor="start" x="64" y="-472" font-family="Helvetica,sans-Serif" font-size="10.00">+</text>
<text text-anchor="start" x="77" y="-472" font-family="Helvetica,sans-Serif" font-size="10.00">void RemoveKeyListener</text>
<text text-anchor="start" x="77" y="-461" font-family="Helvetica,sans-Serif" font-size="10.00">(Action&lt; char &gt; listener)</text>
<text text-anchor="start" x="64" y="-446" font-family="Helvetica,sans-Serif" font-size="10.00">+</text>
<text text-anchor="start" x="77" y="-446" font-family="Helvetica,sans-Serif" font-size="10.00">string GetCandidate</text>
<text text-anchor="start" x="77" y="-435" font-family="Helvetica,sans-Serif" font-size="10.00">(uint index)</text>
<text text-anchor="start" x="64" y="-420" font-family="Helvetica,sans-Serif" font-size="10.00">+</text>
<text text-anchor="start" x="77" y="-420" font-family="Helvetica,sans-Serif" font-size="10.00">void Enable()</text>
<text text-anchor="start" x="64" y="-405" font-family="Helvetica,sans-Serif" font-size="10.00">+</text>
<text text-anchor="start" x="77" y="-405" font-family="Helvetica,sans-Serif" font-size="10.00">void Disable()</text>
<text text-anchor="start" x="64" y="-390" font-family="Helvetica,sans-Serif" font-size="10.00">+</text>
<text text-anchor="start" x="77" y="-390" font-family="Helvetica,sans-Serif" font-size="10.00">void Dispose()</text>
<text text-anchor="start" x="64" y="-375" font-family="Helvetica,sans-Serif" font-size="10.00">#</text>
<text text-anchor="start" x="77" y="-375" font-family="Helvetica,sans-Serif" font-size="10.00">PlatformIme()</text>
<text text-anchor="start" x="64" y="-360" font-family="Helvetica,sans-Serif" font-size="10.00">#</text>
<text text-anchor="start" x="77" y="-360" font-family="Helvetica,sans-Serif" font-size="10.00">void OnKeyPress(char</text>
<text text-anchor="start" x="77" y="-349" font-family="Helvetica,sans-Serif" font-size="10.00"> character)</text>
<text text-anchor="start" x="64" y="-334" font-family="Helvetica,sans-Serif" font-size="10.00">#</text>
<text text-anchor="start" x="77" y="-334" font-family="Helvetica,sans-Serif" font-size="10.00">virtual void OnEnable()</text>
<text text-anchor="start" x="64" y="-319" font-family="Helvetica,sans-Serif" font-size="10.00">#</text>
<text text-anchor="start" x="77" y="-319" font-family="Helvetica,sans-Serif" font-size="10.00">virtual void OnDisable()</text>
<text text-anchor="start" x="64" y="-304" font-family="Helvetica,sans-Serif" font-size="10.00">#</text>
<text text-anchor="start" x="77" y="-304" font-family="Helvetica,sans-Serif" font-size="10.00">virtual void Dispose</text>
<text text-anchor="start" x="77" y="-293" font-family="Helvetica,sans-Serif" font-size="10.00">(bool disposing)</text>
<text text-anchor="start" x="64" y="-278" font-family="Helvetica,sans-Serif" font-size="10.00">#</text>
<text text-anchor="start" x="77" y="-278" font-family="Helvetica,sans-Serif" font-size="10.00">override void Finalize()</text>
<polygon fill="#666666" stroke="#666666" points="60,-650 60,-650 235,-650 235,-650 60,-650"/>
<polygon fill="#666666" stroke="#666666" points="60,-508 60,-508 75,-508 75,-508 60,-508"/>
<polygon fill="#666666" stroke="#666666" points="75,-508 75,-508 235,-508 235,-508 75,-508"/>
<polygon fill="none" stroke="#666666" points="59.5,-271 59.5,-667 234.5,-667 234.5,-271 59.5,-271"/>
</a>
</g>
</g>
<!-- Node2&#45;&gt;Node1 -->
<g id="edge1_Node000001_Node000002" class="edge">
<title>Node2&#45;&gt;Node1</title>
<g id="a_edge1_Node000001_Node000002"><a xlink:title=" ">
<path fill="none" stroke="#63b8ff" d="M147,-260.63C147,-252.02 147,-243.52 147,-235.22"/>
<polygon fill="none" stroke="#63b8ff" points="143.5,-260.78 147,-270.78 150.5,-260.78 143.5,-260.78"/>
</a>
</g>
</g>
<!-- Node3 -->
<g id="Node000003" class="node">
<title>Node3</title>
<g id="a_Node000003"><a xlink:href="../../d6/d86/interfaceReLogic_1_1Localization_1_1IME_1_1IImeService.html" target="_top" xlink:title=" ">
<polygon fill="white" stroke="transparent" points="154,-905 0,-905 0,-703 154,-703 154,-905"/>
<text text-anchor="start" x="48" y="-893" font-family="Helvetica,sans-Serif" font-size="10.00">IImeService</text>
<text text-anchor="start" x="4" y="-878" font-family="Helvetica,sans-Serif" font-size="10.00">+</text>
<text text-anchor="start" x="17" y="-878" font-family="Helvetica,sans-Serif" font-size="10.00">string CompositionString</text>
<text text-anchor="start" x="4" y="-863" font-family="Helvetica,sans-Serif" font-size="10.00">+</text>
<text text-anchor="start" x="17" y="-863" font-family="Helvetica,sans-Serif" font-size="10.00">bool IsCandidateListVisible</text>
<text text-anchor="start" x="4" y="-848" font-family="Helvetica,sans-Serif" font-size="10.00">+</text>
<text text-anchor="start" x="17" y="-848" font-family="Helvetica,sans-Serif" font-size="10.00">uint SelectedCandidate</text>
<text text-anchor="start" x="4" y="-833" font-family="Helvetica,sans-Serif" font-size="10.00">+</text>
<text text-anchor="start" x="17" y="-833" font-family="Helvetica,sans-Serif" font-size="10.00">uint CandidateCount</text>
<text text-anchor="start" x="4" y="-818" font-family="Helvetica,sans-Serif" font-size="10.00">+</text>
<text text-anchor="start" x="17" y="-818" font-family="Helvetica,sans-Serif" font-size="10.00">bool IsEnabled</text>
<text text-anchor="start" x="4" y="-803" font-family="Helvetica,sans-Serif" font-size="10.00">+</text>
<text text-anchor="start" x="17" y="-803" font-family="Helvetica,sans-Serif" font-size="10.00">string GetCandidate</text>
<text text-anchor="start" x="17" y="-792" font-family="Helvetica,sans-Serif" font-size="10.00">(uint index)</text>
<text text-anchor="start" x="4" y="-777" font-family="Helvetica,sans-Serif" font-size="10.00">+</text>
<text text-anchor="start" x="17" y="-777" font-family="Helvetica,sans-Serif" font-size="10.00">void Enable()</text>
<text text-anchor="start" x="4" y="-762" font-family="Helvetica,sans-Serif" font-size="10.00">+</text>
<text text-anchor="start" x="17" y="-762" font-family="Helvetica,sans-Serif" font-size="10.00">void Disable()</text>
<text text-anchor="start" x="4" y="-747" font-family="Helvetica,sans-Serif" font-size="10.00">+</text>
<text text-anchor="start" x="17" y="-747" font-family="Helvetica,sans-Serif" font-size="10.00">void AddKeyListener</text>
<text text-anchor="start" x="17" y="-736" font-family="Helvetica,sans-Serif" font-size="10.00">(Action&lt; char &gt; listener)</text>
<text text-anchor="start" x="4" y="-721" font-family="Helvetica,sans-Serif" font-size="10.00">+</text>
<text text-anchor="start" x="17" y="-721" font-family="Helvetica,sans-Serif" font-size="10.00">void RemoveKeyListener</text>
<text text-anchor="start" x="17" y="-710" font-family="Helvetica,sans-Serif" font-size="10.00">(Action&lt; char &gt; listener)</text>
<polygon fill="#666666" stroke="#666666" points="0,-888 0,-888 154,-888 154,-888 0,-888"/>
<polygon fill="#666666" stroke="#666666" points="0,-813 0,-813 15,-813 15,-813 0,-813"/>
<polygon fill="#666666" stroke="#666666" points="15,-813 15,-813 154,-813 154,-813 15,-813"/>
<polygon fill="none" stroke="#666666" points="0,-703 0,-905 154,-905 154,-703 0,-703"/>
</a>
</g>
</g>
<!-- Node3&#45;&gt;Node2 -->
<g id="edge2_Node000002_Node000003" class="edge">
<title>Node3&#45;&gt;Node2</title>
<g id="a_edge2_Node000002_Node000003"><a xlink:title=" ">
<path fill="none" stroke="#63b8ff" d="M100.2,-692.64C101.94,-684.35 103.73,-675.85 105.54,-667.24"/>
<polygon fill="none" stroke="#63b8ff" points="96.73,-692.13 98.1,-702.64 103.58,-693.57 96.73,-692.13"/>
</a>
</g>
</g>
<!-- Node4 -->
<g id="Node000004" class="node">
<title>Node4</title>
<g id="a_Node000004"><a xlink:href="../../d6/d32/interfaceSystem_1_1IDisposable.html" target="_top" xlink:title=" ">
<polygon fill="white" stroke="transparent" points="264,-828.5 172,-828.5 172,-779.5 264,-779.5 264,-828.5"/>
<text text-anchor="start" x="189" y="-816" font-family="Helvetica,sans-Serif" font-size="10.00">IDisposable</text>
<text text-anchor="start" x="216" y="-801" font-family="Helvetica,sans-Serif" font-size="10.00"> </text>
<text text-anchor="start" x="176" y="-786" font-family="Helvetica,sans-Serif" font-size="10.00">+</text>
<text text-anchor="start" x="189" y="-786" font-family="Helvetica,sans-Serif" font-size="10.00">void Dispose()</text>
<polygon fill="#666666" stroke="#666666" points="172,-811 172,-811 264,-811 264,-811 172,-811"/>
<polygon fill="#666666" stroke="#666666" points="172,-796 172,-796 264,-796 264,-796 172,-796"/>
<polygon fill="none" stroke="#666666" points="172,-779.5 172,-828.5 264,-828.5 264,-779.5 172,-779.5"/>
</a>
</g>
</g>
<!-- Node4&#45;&gt;Node2 -->
<g id="edge3_Node000002_Node000004" class="edge">
<title>Node4&#45;&gt;Node2</title>
<g id="a_edge3_Node000002_Node000004"><a xlink:title=" ">
<path fill="none" stroke="#63b8ff" d="M210.86,-769.5C205.43,-744.05 197.48,-706.75 189.02,-667.06"/>
<polygon fill="none" stroke="#63b8ff" points="207.44,-770.27 212.95,-779.32 214.29,-768.81 207.44,-770.27"/>
</a>
</g>
</g>
</g>
</svg>

<g id="navigator" transform="translate(0 0)" fill="#404254">
  <rect fill="#f2f5e9" fill-opacity="0.5" stroke="#606060" stroke-width=".5" x="0" y="0" width="60" height="60"/>
  <use id="zoomplus" xlink:href="#zoomPlus" x="17" y="9" onmousedown="handleZoom(evt,'in')"/>
  <use id="zoomminus" xlink:href="#zoomMin" x="42" y="9" onmousedown="handleZoom(evt,'out')"/>
  <use id="reset" xlink:href="#resetDef" x="30" y="36" onmousedown="handleReset()"/>
   <use id="arrowup" xlink:href="#arrowUp" x="0" y="0" onmousedown="handlePan(0,-1)"/>
  <use id="arrowright" xlink:href="#arrowRight" x="0" y="0" onmousedown="handlePan(1,0)"/>
  <use id="arrowdown" xlink:href="#arrowDown" x="0" y="0" onmousedown="handlePan(0,1)"/>
  <use id="arrowleft" xlink:href="#arrowLeft" x="0" y="0" onmousedown="handlePan(-1,0)"/>
</g>
<svg viewBox="0 0 15 15" width="100%" height="30px" preserveAspectRatio="xMaxYMin meet">
 <g id="arrow_out" transform="scale(0.3 0.3)">
  <a xlink:href="classReLogic_1_1Localization_1_1IME_1_1FnaIme__inherit__graph_org.svg" target="_base">
   <rect id="button" ry="5" rx="5" y="6" x="6" height="38" width="38"
        fill="#f2f5e9" fill-opacity="0.5" stroke="#606060" stroke-width="1.0"/>
   <path id="arrow"
     d="M 11.500037,31.436501 C 11.940474,20.09759 22.043105,11.32322 32.158766,21.979434 L 37.068811,17.246167 C 37.068811,17.246167 37.088388,32 37.088388,32 L 22.160133,31.978069 C 22.160133,31.978069 26.997745,27.140456 26.997745,27.140456 C 18.528582,18.264221 13.291696,25.230495 11.500037,31.436501 z"
     style="fill:#404040;"/>
  </a>
 </g>
</svg>

<style type='text/css'>
<![CDATA[
[data-mouse-over-selected='false'] { opacity: 0.7; }
[data-mouse-over-selected='true']  { opacity: 1.0; }
]]>
</style>
<script type="application/ecmascript"><![CDATA[
document.addEventListener('DOMContentLoaded', (event) => {
  highlightEdges();
  highlightAdjacentNodes();
});
]]></script>
</svg>
