<?xml version="1.0" encoding="UTF-8" standalone="no"?>
<!DOCTYPE svg PUBLIC "-//W3C//DTD SVG 1.1//EN"
 "http://www.w3.org/Graphics/SVG/1.1/DTD/svg11.dtd">
<!-- Generated by graphviz version 2.43.0 (0)
 -->
<!-- Title: Microsoft.Xna.Framework.Graphics.PackedVector.NormalizedByte4 Pages: 1 -->
<!--zoomable 718 -->

<svg id="main" version="1.1" xmlns="http://www.w3.org/2000/svg" xmlns:xlink="http://www.w3.org/1999/xlink" xml:space="preserve" onload="init(evt)">
<style type="text/css"><![CDATA[
.node, .edge {opacity: 0.7;}
.node.selected, .edge.selected {opacity: 1;}
.edge:hover path { stroke: red; }
.edge:hover polygon { stroke: red; fill: red; }
]]></style>

<defs>
  <circle id="rim" cx="0" cy="0" r="7"/>
  <circle id="rim2" cx="0" cy="0" r="3.5"/>
  <g id="zoomPlus">
    <use xlink:href="#rim" fill="#404040"><set attributeName="fill" to="#808080" begin="zoomplus.mouseover" end="zoomplus.mouseout"/></use>
    <path d="M-4,0h8M0,-4v8" fill="none" stroke="white" stroke-width="1.5" pointer-events="none"/>
  </g>
  <g id="zoomMin">
    <use xlink:href="#rim" fill="#404040"><set attributeName="fill" to="#808080" begin="zoomminus.mouseover" end="zoomminus.mouseout"/></use>
    <path d="M-4,0h8" fill="none" stroke="white" stroke-width="1.5" pointer-events="none"/>
  </g>
  <g id="arrowUp" transform="translate(30 24)">
    <use xlink:href="#rim"/>
    <path pointer-events="none" fill="none" stroke="white" stroke-width="1.5" d="M0,-3.0v7 M-2.5,-0.5L0,-3.0L2.5,-0.5"/>
  </g>
  <g id="arrowRight" transform="rotate(90) translate(36 -43)">
    <use xlink:href="#rim"/>
    <path pointer-events="none" fill="none" stroke="white" stroke-width="1.5" d="M0,-3.0v7 M-2.5,-0.5L0,-3.0L2.5,-0.5"/>
  </g>
  <g id="arrowDown" transform="rotate(180) translate(-30 -48)">
    <use xlink:href="#rim"/>
    <path pointer-events="none" fill="none" stroke="white" stroke-width="1.5" d="M0,-3.0v7 M-2.5,-0.5L0,-3.0L2.5,-0.5"/>
  </g>
  <g id="arrowLeft" transform="rotate(270) translate(-36 17)">
    <use xlink:href="#rim"/>
    <path pointer-events="none" fill="none" stroke="white" stroke-width="1.5" d="M0,-3.0v7 M-2.5,-0.5L0,-3.0L2.5,-0.5"/>
  </g>
  <g id="resetDef">
    <use xlink:href="#rim2" fill="#404040"><set attributeName="fill" to="#808080" begin="reset.mouseover" end="reset.mouseout"/></use>
  </g>
</defs>
<script type="application/ecmascript">
var viewWidth = 420;
var viewHeight = 718;
var sectionId = 'dynsection-0';
</script>
<script type="application/ecmascript" xlink:href="../../svg.min.js"/>
<svg id="graph" class="graph">
<g id="viewport">
<title>Microsoft.Xna.Framework.Graphics.PackedVector.NormalizedByte4</title>
<!-- Node1 -->
<g id="Node000001" class="node">
<title>Node1</title>
<g id="a_Node000001"><a xlink:title=" ">
<polygon fill="#999999" stroke="transparent" points="237,-368 29,-368 29,0 237,0 237,-368"/>
<text text-anchor="start" x="34" y="-356" font-family="Helvetica,sans-Serif" font-size="10.00">Microsoft.Xna.Framework.</text>
<text text-anchor="start" x="34" y="-345" font-family="Helvetica,sans-Serif" font-size="10.00">Graphics.PackedVector.NormalizedByte4</text>
<text text-anchor="start" x="34" y="-330" font-family="Helvetica,sans-Serif" font-size="10.00">+</text>
<text text-anchor="start" x="48" y="-330" font-family="Helvetica,sans-Serif" font-size="10.00">uint PackedValue</text>
<text text-anchor="start" x="36.5" y="-315" font-family="Helvetica,sans-Serif" font-size="10.00">&#45;</text>
<text text-anchor="start" x="48" y="-315" font-family="Helvetica,sans-Serif" font-size="10.00">uint _packed</text>
<text text-anchor="start" x="34" y="-300" font-family="Helvetica,sans-Serif" font-size="10.00">+</text>
<text text-anchor="start" x="48" y="-300" font-family="Helvetica,sans-Serif" font-size="10.00">NormalizedByte4(Vector4</text>
<text text-anchor="start" x="48" y="-289" font-family="Helvetica,sans-Serif" font-size="10.00"> vector)</text>
<text text-anchor="start" x="34" y="-274" font-family="Helvetica,sans-Serif" font-size="10.00">+</text>
<text text-anchor="start" x="48" y="-274" font-family="Helvetica,sans-Serif" font-size="10.00">NormalizedByte4(float</text>
<text text-anchor="start" x="48" y="-263" font-family="Helvetica,sans-Serif" font-size="10.00"> x, float y, float z,</text>
<text text-anchor="start" x="48" y="-252" font-family="Helvetica,sans-Serif" font-size="10.00"> float w)</text>
<text text-anchor="start" x="34" y="-237" font-family="Helvetica,sans-Serif" font-size="10.00">+</text>
<text text-anchor="start" x="48" y="-237" font-family="Helvetica,sans-Serif" font-size="10.00">override bool Equals</text>
<text text-anchor="start" x="48" y="-226" font-family="Helvetica,sans-Serif" font-size="10.00">(object obj)</text>
<text text-anchor="start" x="34" y="-211" font-family="Helvetica,sans-Serif" font-size="10.00">+</text>
<text text-anchor="start" x="48" y="-211" font-family="Helvetica,sans-Serif" font-size="10.00">bool Equals(NormalizedByte4</text>
<text text-anchor="start" x="48" y="-200" font-family="Helvetica,sans-Serif" font-size="10.00"> other)</text>
<text text-anchor="start" x="34" y="-185" font-family="Helvetica,sans-Serif" font-size="10.00">+</text>
<text text-anchor="start" x="48" y="-185" font-family="Helvetica,sans-Serif" font-size="10.00">override int GetHashCode()</text>
<text text-anchor="start" x="34" y="-170" font-family="Helvetica,sans-Serif" font-size="10.00">+</text>
<text text-anchor="start" x="48" y="-170" font-family="Helvetica,sans-Serif" font-size="10.00">override string ToString()</text>
<text text-anchor="start" x="34" y="-155" font-family="Helvetica,sans-Serif" font-size="10.00">+</text>
<text text-anchor="start" x="48" y="-155" font-family="Helvetica,sans-Serif" font-size="10.00">Vector4 ToVector4()</text>
<text text-anchor="start" x="34" y="-140" font-family="Helvetica,sans-Serif" font-size="10.00">+</text>
<text text-anchor="start" x="48" y="-140" font-family="Helvetica,sans-Serif" font-size="10.00">static bool operator!</text>
<text text-anchor="start" x="48" y="-129" font-family="Helvetica,sans-Serif" font-size="10.00">=(NormalizedByte4 a,</text>
<text text-anchor="start" x="48" y="-118" font-family="Helvetica,sans-Serif" font-size="10.00"> NormalizedByte4 b)</text>
<text text-anchor="start" x="34" y="-103" font-family="Helvetica,sans-Serif" font-size="10.00">+</text>
<text text-anchor="start" x="48" y="-103" font-family="Helvetica,sans-Serif" font-size="10.00">static bool operator</text>
<text text-anchor="start" x="48" y="-92" font-family="Helvetica,sans-Serif" font-size="10.00">==(NormalizedByte4 a,</text>
<text text-anchor="start" x="48" y="-81" font-family="Helvetica,sans-Serif" font-size="10.00"> NormalizedByte4 b)</text>
<text text-anchor="start" x="36.5" y="-66" font-family="Helvetica,sans-Serif" font-size="10.00">&#45;</text>
<text text-anchor="start" x="48" y="-66" font-family="Helvetica,sans-Serif" font-size="10.00">void Microsoft.Xna.Framework.</text>
<text text-anchor="start" x="48" y="-55" font-family="Helvetica,sans-Serif" font-size="10.00">Graphics.PackedVector.IPackedVector.</text>
<text text-anchor="start" x="48" y="-44" font-family="Helvetica,sans-Serif" font-size="10.00"> PackFromVector4(Vector4 vector)</text>
<text text-anchor="start" x="36.5" y="-29" font-family="Helvetica,sans-Serif" font-size="10.00">&#45;</text>
<text text-anchor="start" x="48" y="-29" font-family="Helvetica,sans-Serif" font-size="10.00">static uint Pack(float</text>
<text text-anchor="start" x="48" y="-18" font-family="Helvetica,sans-Serif" font-size="10.00"> x, float y, float z,</text>
<text text-anchor="start" x="48" y="-7" font-family="Helvetica,sans-Serif" font-size="10.00"> float w)</text>
<polygon fill="#666666" stroke="#666666" points="29,-340 29,-340 237,-340 237,-340 29,-340"/>
<polygon fill="#666666" stroke="#666666" points="29,-310 29,-310 46,-310 46,-310 29,-310"/>
<polygon fill="#666666" stroke="#666666" points="46,-310 46,-310 237,-310 237,-310 46,-310"/>
<polygon fill="none" stroke="#666666" points="29,0 29,-368 237,-368 237,0 29,0"/>
</a>
</g>
</g>
<!-- Node2 -->
<g id="Node000002" class="node">
<title>Node2</title>
<g id="a_Node000002"><a xlink:href="../../d6/d99/interfaceMicrosoft_1_1Xna_1_1Framework_1_1Graphics_1_1PackedVector_1_1IPackedVector.html" target="_top" xlink:title=" ">
<polygon fill="white" stroke="transparent" points="198,-480 68,-480 68,-405 198,-405 198,-480"/>
<text text-anchor="start" x="78.5" y="-467.5" font-family="Helvetica,sans-Serif" font-size="10.00">IPackedVector&lt; uint &gt;</text>
<text text-anchor="start" x="72" y="-452.5" font-family="Helvetica,sans-Serif" font-size="10.00">+</text>
<text text-anchor="start" x="85" y="-452.5" font-family="Helvetica,sans-Serif" font-size="10.00">TPacked PackedValue</text>
<text text-anchor="start" x="72" y="-437.5" font-family="Helvetica,sans-Serif" font-size="10.00">+</text>
<text text-anchor="start" x="85" y="-437.5" font-family="Helvetica,sans-Serif" font-size="10.00">void PackFromVector4</text>
<text text-anchor="start" x="85" y="-426.5" font-family="Helvetica,sans-Serif" font-size="10.00">(Vector4 vector)</text>
<text text-anchor="start" x="72" y="-411.5" font-family="Helvetica,sans-Serif" font-size="10.00">+</text>
<text text-anchor="start" x="85" y="-411.5" font-family="Helvetica,sans-Serif" font-size="10.00">Vector4 ToVector4()</text>
<polygon fill="#666666" stroke="#666666" points="68,-462.5 68,-462.5 198,-462.5 198,-462.5 68,-462.5"/>
<polygon fill="#666666" stroke="#666666" points="68,-447.5 68,-447.5 83,-447.5 83,-447.5 68,-447.5"/>
<polygon fill="#666666" stroke="#666666" points="83,-447.5 83,-447.5 198,-447.5 198,-447.5 83,-447.5"/>
<polygon fill="none" stroke="#666666" points="68,-405 68,-480 198,-480 198,-405 68,-405"/>
</a>
</g>
</g>
<!-- Node2&#45;&gt;Node1 -->
<g id="edge1_Node000001_Node000002" class="edge">
<title>Node2&#45;&gt;Node1</title>
<g id="a_edge1_Node000001_Node000002"><a xlink:title=" ">
<path fill="none" stroke="#63b8ff" d="M133,-394.53C133,-386.42 133,-377.57 133,-368.24"/>
<polygon fill="none" stroke="#63b8ff" points="129.5,-394.75 133,-404.75 136.5,-394.75 129.5,-394.75"/>
</a>
</g>
</g>
<!-- Node3 -->
<g id="Node000003" class="node">
<title>Node3</title>
<g id="a_Node000003"><a xlink:href="../../d6/d99/interfaceMicrosoft_1_1Xna_1_1Framework_1_1Graphics_1_1PackedVector_1_1IPackedVector.html" target="_top" xlink:title=" ">
<polygon fill="white" stroke="transparent" points="215,-624 55,-624 55,-527 215,-527 215,-624"/>
<text text-anchor="start" x="60" y="-611.5" font-family="Helvetica,sans-Serif" font-size="10.00">Microsoft.Xna.Framework.</text>
<text text-anchor="start" x="60" y="-600.5" font-family="Helvetica,sans-Serif" font-size="10.00">Graphics.PackedVector.IPacked</text>
<text text-anchor="start" x="88" y="-589.5" font-family="Helvetica,sans-Serif" font-size="10.00">Vector&lt; TPacked &gt;</text>
<text text-anchor="start" x="66.5" y="-574.5" font-family="Helvetica,sans-Serif" font-size="10.00">+</text>
<text text-anchor="start" x="87" y="-574.5" font-family="Helvetica,sans-Serif" font-size="10.00">TPacked PackedValue</text>
<text text-anchor="start" x="66.5" y="-559.5" font-family="Helvetica,sans-Serif" font-size="10.00">+</text>
<text text-anchor="start" x="87" y="-559.5" font-family="Helvetica,sans-Serif" font-size="10.00">void PackFromVector4</text>
<text text-anchor="start" x="87" y="-548.5" font-family="Helvetica,sans-Serif" font-size="10.00">(Vector4 vector)</text>
<text text-anchor="start" x="66.5" y="-533.5" font-family="Helvetica,sans-Serif" font-size="10.00">+</text>
<text text-anchor="start" x="87" y="-533.5" font-family="Helvetica,sans-Serif" font-size="10.00">Vector4 ToVector4()</text>
<polygon fill="#666666" stroke="#666666" points="55,-584.5 55,-584.5 215,-584.5 215,-584.5 55,-584.5"/>
<polygon fill="#666666" stroke="#666666" points="55,-569.5 55,-569.5 85,-569.5 85,-569.5 55,-569.5"/>
<polygon fill="#666666" stroke="#666666" points="85,-569.5 85,-569.5 215,-569.5 215,-569.5 85,-569.5"/>
<polygon fill="none" stroke="#666666" points="55,-527 55,-624 215,-624 215,-527 55,-527"/>
</a>
</g>
</g>
<!-- Node3&#45;&gt;Node2 -->
<g id="edge2_Node000002_Node000003" class="edge">
<title>Node3&#45;&gt;Node2</title>
<g id="a_edge2_Node000002_Node000003"><a xlink:title=" ">
<path fill="none" stroke="orange" d="M134.12,-516.59C133.93,-504.24 133.73,-491.53 133.56,-480.24"/>
<polygon fill="orange" stroke="orange" points="130.62,-516.89 134.27,-526.84 137.62,-516.78 130.62,-516.89"/>
</a>
</g>
<text text-anchor="middle" x="156.5" y="-501" font-family="Helvetica,sans-Serif" font-size="10.00" fill="grey"> &lt; uint &gt;</text>
</g>
<!-- Node4 -->
<g id="Node000004" class="node">
<title>Node4</title>
<g id="a_Node000004"><a xlink:href="../../d5/df7/classIPackedVector.html" target="_top" xlink:title=" ">
<polygon fill="white" stroke="transparent" points="78,-710 0,-710 0,-661 78,-661 78,-710"/>
<text text-anchor="start" x="5" y="-697.5" font-family="Helvetica,sans-Serif" font-size="10.00">IPackedVector</text>
<text text-anchor="start" x="37" y="-682.5" font-family="Helvetica,sans-Serif" font-size="10.00"> </text>
<text text-anchor="start" x="37" y="-667.5" font-family="Helvetica,sans-Serif" font-size="10.00"> </text>
<polygon fill="#666666" stroke="#666666" points="0,-692.5 0,-692.5 78,-692.5 78,-692.5 0,-692.5"/>
<polygon fill="#666666" stroke="#666666" points="0,-677.5 0,-677.5 78,-677.5 78,-677.5 0,-677.5"/>
<polygon fill="none" stroke="#666666" points="0,-661 0,-710 78,-710 78,-661 0,-661"/>
</a>
</g>
</g>
<!-- Node4&#45;&gt;Node1 -->
<g id="edge4_Node000001_Node000004" class="edge">
<title>Node4&#45;&gt;Node1</title>
<g id="a_edge4_Node000001_Node000004"><a xlink:title=" ">
<path fill="none" stroke="#63b8ff" d="M39.89,-650.87C40.88,-618.96 42.78,-569.67 46,-527 50.1,-472.63 47.35,-458.27 59,-405 61.65,-392.89 64.73,-380.52 68.1,-368.12"/>
<polygon fill="none" stroke="#63b8ff" points="36.39,-650.89 39.59,-660.99 43.39,-651.1 36.39,-650.89"/>
</a>
</g>
</g>
<!-- Node4&#45;&gt;Node3 -->
<g id="edge3_Node000003_Node000004" class="edge">
<title>Node4&#45;&gt;Node3</title>
<g id="a_edge3_Node000003_Node000004"><a xlink:title=" ">
<path fill="none" stroke="#63b8ff" d="M66.89,-653.12C74.96,-644.04 83.96,-633.92 92.7,-624.08"/>
<polygon fill="none" stroke="#63b8ff" points="64.1,-651 60.07,-660.8 69.33,-655.65 64.1,-651"/>
</a>
</g>
</g>
<!-- Node5 -->
<g id="Node000005" class="node">
<title>Node5</title>
<g id="a_Node000005"><a xlink:href="../../d6/d43/interfaceSystem_1_1IEquatable.html" target="_top" xlink:title=" ">
<polygon fill="white" stroke="transparent" points="386,-467 216,-467 216,-418 386,-418 386,-467"/>
<text text-anchor="start" x="221" y="-454.5" font-family="Helvetica,sans-Serif" font-size="10.00">IEquatable&lt; NormalizedByte4 &gt;</text>
<text text-anchor="start" x="299" y="-439.5" font-family="Helvetica,sans-Serif" font-size="10.00"> </text>
<text text-anchor="start" x="232.5" y="-424.5" font-family="Helvetica,sans-Serif" font-size="10.00">+</text>
<text text-anchor="start" x="258" y="-424.5" font-family="Helvetica,sans-Serif" font-size="10.00">bool Equals(T other)</text>
<polygon fill="#666666" stroke="#666666" points="216,-449.5 216,-449.5 386,-449.5 386,-449.5 216,-449.5"/>
<polygon fill="#666666" stroke="#666666" points="216,-434.5 216,-434.5 386,-434.5 386,-434.5 216,-434.5"/>
<polygon fill="none" stroke="#666666" points="216,-418 216,-467 386,-467 386,-418 216,-418"/>
</a>
</g>
</g>
<!-- Node5&#45;&gt;Node1 -->
<g id="edge5_Node000001_Node000005" class="edge">
<title>Node5&#45;&gt;Node1</title>
<g id="a_edge5_Node000001_Node000005"><a xlink:title=" ">
<path fill="none" stroke="#63b8ff" d="M279.86,-409.22C268.41,-391.74 253.33,-368.71 237.19,-344.07"/>
<polygon fill="none" stroke="#63b8ff" points="277.09,-411.38 285.5,-417.83 282.94,-407.55 277.09,-411.38"/>
</a>
</g>
</g>
<!-- Node6 -->
<g id="Node000006" class="node">
<title>Node6</title>
<g id="a_Node000006"><a xlink:href="../../d6/d43/interfaceSystem_1_1IEquatable.html" target="_top" xlink:title=" ">
<polygon fill="white" stroke="transparent" points="366.5,-600 235.5,-600 235.5,-551 366.5,-551 366.5,-600"/>
<text text-anchor="start" x="241" y="-587.5" font-family="Helvetica,sans-Serif" font-size="10.00">System.IEquatable&lt; T &gt;</text>
<text text-anchor="start" x="299.5" y="-572.5" font-family="Helvetica,sans-Serif" font-size="10.00"> </text>
<text text-anchor="start" x="242.5" y="-557.5" font-family="Helvetica,sans-Serif" font-size="10.00">+</text>
<text text-anchor="start" x="258" y="-557.5" font-family="Helvetica,sans-Serif" font-size="10.00">bool Equals(T other)</text>
<polygon fill="#666666" stroke="#666666" points="236,-582.5 236,-582.5 367,-582.5 367,-582.5 236,-582.5"/>
<polygon fill="#666666" stroke="#666666" points="236,-567.5 236,-567.5 367,-567.5 367,-567.5 236,-567.5"/>
<polygon fill="none" stroke="#666666" points="235.5,-551 235.5,-600 366.5,-600 366.5,-551 235.5,-551"/>
</a>
</g>
</g>
<!-- Node6&#45;&gt;Node5 -->
<g id="edge6_Node000005_Node000006" class="edge">
<title>Node6&#45;&gt;Node5</title>
<g id="a_edge6_Node000005_Node000006"><a xlink:title=" ">
<path fill="none" stroke="orange" d="M301,-540.71C301,-517.61 301,-487.58 301,-467.05"/>
<polygon fill="orange" stroke="orange" points="297.5,-540.78 301,-550.78 304.5,-540.78 297.5,-540.78"/>
</a>
</g>
<text text-anchor="middle" x="356.5" y="-501" font-family="Helvetica,sans-Serif" font-size="10.00" fill="grey"> &lt; NormalizedByte4 &gt;</text>
</g>
</g>
</svg>

<g id="navigator" transform="translate(0 0)" fill="#404254">
  <rect fill="#f2f5e9" fill-opacity="0.5" stroke="#606060" stroke-width=".5" x="0" y="0" width="60" height="60"/>
  <use id="zoomplus" xlink:href="#zoomPlus" x="17" y="9" onmousedown="handleZoom(evt,'in')"/>
  <use id="zoomminus" xlink:href="#zoomMin" x="42" y="9" onmousedown="handleZoom(evt,'out')"/>
  <use id="reset" xlink:href="#resetDef" x="30" y="36" onmousedown="handleReset()"/>
   <use id="arrowup" xlink:href="#arrowUp" x="0" y="0" onmousedown="handlePan(0,-1)"/>
  <use id="arrowright" xlink:href="#arrowRight" x="0" y="0" onmousedown="handlePan(1,0)"/>
  <use id="arrowdown" xlink:href="#arrowDown" x="0" y="0" onmousedown="handlePan(0,1)"/>
  <use id="arrowleft" xlink:href="#arrowLeft" x="0" y="0" onmousedown="handlePan(-1,0)"/>
</g>
<svg viewBox="0 0 15 15" width="100%" height="30px" preserveAspectRatio="xMaxYMin meet">
 <g id="arrow_out" transform="scale(0.3 0.3)">
  <a xlink:href="structMicrosoft_1_1Xna_1_1Framework_1_1Graphics_1_1PackedVector_1_1NormalizedByte4__inherit__graph_org.svg" target="_base">
   <rect id="button" ry="5" rx="5" y="6" x="6" height="38" width="38"
        fill="#f2f5e9" fill-opacity="0.5" stroke="#606060" stroke-width="1.0"/>
   <path id="arrow"
     d="M 11.500037,31.436501 C 11.940474,20.09759 22.043105,11.32322 32.158766,21.979434 L 37.068811,17.246167 C 37.068811,17.246167 37.088388,32 37.088388,32 L 22.160133,31.978069 C 22.160133,31.978069 26.997745,27.140456 26.997745,27.140456 C 18.528582,18.264221 13.291696,25.230495 11.500037,31.436501 z"
     style="fill:#404040;"/>
  </a>
 </g>
</svg>

<style type='text/css'>
<![CDATA[
[data-mouse-over-selected='false'] { opacity: 0.7; }
[data-mouse-over-selected='true']  { opacity: 1.0; }
]]>
</style>
<script type="application/ecmascript"><![CDATA[
document.addEventListener('DOMContentLoaded', (event) => {
  highlightEdges();
  highlightAdjacentNodes();
});
]]></script>
</svg>
