<?xml version="1.0" encoding="UTF-8" standalone="no"?>
<!DOCTYPE svg PUBLIC "-//W3C//DTD SVG 1.1//EN"
 "http://www.w3.org/Graphics/SVG/1.1/DTD/svg11.dtd">
<!-- Generated by graphviz version 2.43.0 (0)
 -->
<!-- Title: TextureAtlasEntry.TextureAtlasEntryTiles Pages: 1 -->
<svg width="219pt" height="290pt"
 viewBox="0.00 0.00 219.00 290.00" xmlns="http://www.w3.org/2000/svg" xmlns:xlink="http://www.w3.org/1999/xlink">
<g id="graph0" class="graph" transform="scale(1 1) rotate(0) translate(4 286)">
<title>TextureAtlasEntry.TextureAtlasEntryTiles</title>
<!-- Node1 -->
<g id="Node000001" class="node">
<title>Node1</title>
<g id="a_Node000001"><a xlink:title=" ">
<polygon fill="#999999" stroke="transparent" points="192,-186 0,-186 0,0 192,0 192,-186"/>
<text text-anchor="start" x="34" y="-174" font-family="Helvetica,sans-Serif" font-size="10.00">TextureAtlasEntry.Texture</text>
<text text-anchor="start" x="59" y="-163" font-family="Helvetica,sans-Serif" font-size="10.00">AtlasEntryTiles</text>
<text text-anchor="start" x="94" y="-148" font-family="Helvetica,sans-Serif" font-size="10.00"> </text>
<text text-anchor="start" x="4" y="-133" font-family="Helvetica,sans-Serif" font-size="10.00">+</text>
<text text-anchor="start" x="17" y="-133" font-family="Helvetica,sans-Serif" font-size="10.00">static void Reset()</text>
<text text-anchor="start" x="4" y="-118" font-family="Helvetica,sans-Serif" font-size="10.00">+</text>
<text text-anchor="start" x="17" y="-118" font-family="Helvetica,sans-Serif" font-size="10.00">static void LoadTileData</text>
<text text-anchor="start" x="17" y="-107" font-family="Helvetica,sans-Serif" font-size="10.00">(BinaryReader loader, TextureAtlas</text>
<text text-anchor="start" x="17" y="-96" font-family="Helvetica,sans-Serif" font-size="10.00">Entry entry)</text>
<text text-anchor="start" x="4" y="-81" font-family="Helvetica,sans-Serif" font-size="10.00">+</text>
<text text-anchor="start" x="17" y="-81" font-family="Helvetica,sans-Serif" font-size="10.00">static void SaveTileData</text>
<text text-anchor="start" x="17" y="-70" font-family="Helvetica,sans-Serif" font-size="10.00">(BinaryWriter writer, TextureAtlas</text>
<text text-anchor="start" x="17" y="-59" font-family="Helvetica,sans-Serif" font-size="10.00">Entry entry)</text>
<text text-anchor="start" x="4" y="-44" font-family="Helvetica,sans-Serif" font-size="10.00">+</text>
<text text-anchor="start" x="17" y="-44" font-family="Helvetica,sans-Serif" font-size="10.00">static int CalculateFrame</text>
<text text-anchor="start" x="17" y="-33" font-family="Helvetica,sans-Serif" font-size="10.00">Count(TextureAtlasEntry entry)</text>
<text text-anchor="start" x="4" y="-18" font-family="Helvetica,sans-Serif" font-size="10.00">+</text>
<text text-anchor="start" x="17" y="-18" font-family="Helvetica,sans-Serif" font-size="10.00">static int ReserveData</text>
<text text-anchor="start" x="17" y="-7" font-family="Helvetica,sans-Serif" font-size="10.00">(TextureAtlasEntry entry)</text>
<polygon fill="#666666" stroke="#666666" points="0,-158 0,-158 192,-158 192,-158 0,-158"/>
<polygon fill="#666666" stroke="#666666" points="0,-143 0,-143 192,-143 192,-143 0,-143"/>
<polygon fill="none" stroke="#666666" points="0,0 0,-186 192,-186 192,0 0,0"/>
</a>
</g>
</g>
<!-- Node2 -->
<g id="Node000002" class="node">
<title>Node2</title>
<g id="a_Node000002"><a xlink:title=" ">
<polygon fill="white" stroke="transparent" points="61.5,-282 26.5,-282 26.5,-233 61.5,-233 61.5,-282"/>
<text text-anchor="start" x="32" y="-269.5" font-family="Helvetica,sans-Serif" font-size="10.00">short</text>
<text text-anchor="start" x="42.5" y="-254.5" font-family="Helvetica,sans-Serif" font-size="10.00"> </text>
<text text-anchor="start" x="42.5" y="-239.5" font-family="Helvetica,sans-Serif" font-size="10.00"> </text>
<polygon fill="#666666" stroke="#666666" points="27,-264.5 27,-264.5 62,-264.5 62,-264.5 27,-264.5"/>
<polygon fill="#666666" stroke="#666666" points="27,-249.5 27,-249.5 62,-249.5 62,-249.5 27,-249.5"/>
<polygon fill="none" stroke="#666666" points="26.5,-233 26.5,-282 61.5,-282 61.5,-233 26.5,-233"/>
</a>
</g>
</g>
<!-- Node2&#45;&gt;Node1 -->
<g id="edge1_Node000001_Node000002" class="edge">
<title>Node2&#45;&gt;Node1</title>
<g id="a_edge1_Node000001_Node000002"><a xlink:title=" ">
<path fill="none" stroke="#63b8ff" d="M42.39,-232.99C42.29,-223.84 42.85,-213.33 45,-204 45.49,-201.86 46.03,-199.72 46.61,-197.57"/>
<polygon fill="none" stroke="#63b8ff" points="46.61,-197.55 44.5,-190.66 50.05,-186.05 52.16,-192.95 46.61,-197.55"/>
</a>
</g>
<text text-anchor="middle" x="86" y="-207" font-family="Helvetica,sans-Serif" font-size="10.00" fill="grey"> +TileOffsetData</text>
</g>
<!-- Node3 -->
<g id="Node000003" class="node">
<title>Node3</title>
<g id="a_Node000003"><a xlink:title=" ">
<polygon fill="white" stroke="transparent" points="160.5,-282 137.5,-282 137.5,-233 160.5,-233 160.5,-282"/>
<text text-anchor="start" x="143" y="-269.5" font-family="Helvetica,sans-Serif" font-size="10.00">int</text>
<text text-anchor="start" x="147.5" y="-254.5" font-family="Helvetica,sans-Serif" font-size="10.00"> </text>
<text text-anchor="start" x="147.5" y="-239.5" font-family="Helvetica,sans-Serif" font-size="10.00"> </text>
<polygon fill="#666666" stroke="#666666" points="138,-264.5 138,-264.5 161,-264.5 161,-264.5 138,-264.5"/>
<polygon fill="#666666" stroke="#666666" points="138,-249.5 138,-249.5 161,-249.5 161,-249.5 138,-249.5"/>
<polygon fill="none" stroke="#666666" points="137.5,-233 137.5,-282 160.5,-282 160.5,-233 137.5,-233"/>
</a>
</g>
</g>
<!-- Node3&#45;&gt;Node1 -->
<g id="edge2_Node000001_Node000003" class="edge">
<title>Node3&#45;&gt;Node1</title>
<g id="a_edge2_Node000001_Node000003"><a xlink:title=" ">
<path fill="none" stroke="#63b8ff" d="M141.29,-232.87C138.07,-223 134.09,-210.79 129.83,-197.74"/>
<polygon fill="none" stroke="#63b8ff" points="129.76,-197.5 124.09,-193.04 126.04,-186.09 131.7,-190.56 129.76,-197.5"/>
</a>
</g>
<text text-anchor="middle" x="172.5" y="-207" font-family="Helvetica,sans-Serif" font-size="10.00" fill="grey"> &#45;TileDataOffset</text>
</g>
</g>
</svg>
