<?xml version="1.0" encoding="UTF-8" standalone="no"?>
<!DOCTYPE svg PUBLIC "-//W3C//DTD SVG 1.1//EN"
 "http://www.w3.org/Graphics/SVG/1.1/DTD/svg11.dtd">
<!-- Generated by graphviz version 2.43.0 (0)
 -->
<!-- Title: Terraria.GameContent.DoorOpeningHelper.PlayerInfoForOpeningDoors Pages: 1 -->
<!--zoomable 1021 -->

<svg id="main" version="1.1" xmlns="http://www.w3.org/2000/svg" xmlns:xlink="http://www.w3.org/1999/xlink" xml:space="preserve" onload="init(evt)">
<style type="text/css"><![CDATA[
.node, .edge {opacity: 0.7;}
.node.selected, .edge.selected {opacity: 1;}
.edge:hover path { stroke: red; }
.edge:hover polygon { stroke: red; fill: red; }
]]></style>

<defs>
  <circle id="rim" cx="0" cy="0" r="7"/>
  <circle id="rim2" cx="0" cy="0" r="3.5"/>
  <g id="zoomPlus">
    <use xlink:href="#rim" fill="#404040"><set attributeName="fill" to="#808080" begin="zoomplus.mouseover" end="zoomplus.mouseout"/></use>
    <path d="M-4,0h8M0,-4v8" fill="none" stroke="white" stroke-width="1.5" pointer-events="none"/>
  </g>
  <g id="zoomMin">
    <use xlink:href="#rim" fill="#404040"><set attributeName="fill" to="#808080" begin="zoomminus.mouseover" end="zoomminus.mouseout"/></use>
    <path d="M-4,0h8" fill="none" stroke="white" stroke-width="1.5" pointer-events="none"/>
  </g>
  <g id="arrowUp" transform="translate(30 24)">
    <use xlink:href="#rim"/>
    <path pointer-events="none" fill="none" stroke="white" stroke-width="1.5" d="M0,-3.0v7 M-2.5,-0.5L0,-3.0L2.5,-0.5"/>
  </g>
  <g id="arrowRight" transform="rotate(90) translate(36 -43)">
    <use xlink:href="#rim"/>
    <path pointer-events="none" fill="none" stroke="white" stroke-width="1.5" d="M0,-3.0v7 M-2.5,-0.5L0,-3.0L2.5,-0.5"/>
  </g>
  <g id="arrowDown" transform="rotate(180) translate(-30 -48)">
    <use xlink:href="#rim"/>
    <path pointer-events="none" fill="none" stroke="white" stroke-width="1.5" d="M0,-3.0v7 M-2.5,-0.5L0,-3.0L2.5,-0.5"/>
  </g>
  <g id="arrowLeft" transform="rotate(270) translate(-36 17)">
    <use xlink:href="#rim"/>
    <path pointer-events="none" fill="none" stroke="white" stroke-width="1.5" d="M0,-3.0v7 M-2.5,-0.5L0,-3.0L2.5,-0.5"/>
  </g>
  <g id="resetDef">
    <use xlink:href="#rim2" fill="#404040"><set attributeName="fill" to="#808080" begin="reset.mouseover" end="reset.mouseout"/></use>
  </g>
</defs>
<script type="application/ecmascript">
var viewWidth = 480;
var viewHeight = 1021;
var sectionId = 'dynsection-0';
</script>
<script type="application/ecmascript" xlink:href="../../svg.min.js"/>
<svg id="graph" class="graph">
<g id="viewport">
<title>Terraria.GameContent.DoorOpeningHelper.PlayerInfoForOpeningDoors</title>
<!-- Node1 -->
<g id="Node000001" class="node">
<title>Node1</title>
<g id="a_Node000001"><a xlink:title=" ">
<polygon fill="#999999" stroke="transparent" points="219,-60 0,-60 0,0 219,0 219,-60"/>
<text text-anchor="start" x="5.5" y="-48" font-family="Helvetica,sans-Serif" font-size="10.00">Terraria.GameContent.Door</text>
<text text-anchor="start" x="5.5" y="-37" font-family="Helvetica,sans-Serif" font-size="10.00">OpeningHelper.PlayerInfoForOpeningDoors</text>
<text text-anchor="start" x="108" y="-22" font-family="Helvetica,sans-Serif" font-size="10.00"> </text>
<text text-anchor="start" x="108" y="-7" font-family="Helvetica,sans-Serif" font-size="10.00"> </text>
<polygon fill="#666666" stroke="#666666" points="0.5,-32 0.5,-32 219.5,-32 219.5,-32 0.5,-32"/>
<polygon fill="#666666" stroke="#666666" points="0.5,-17 0.5,-17 219.5,-17 219.5,-17 0.5,-17"/>
<polygon fill="none" stroke="#666666" points="0,0 0,-60 219,-60 219,0 0,0"/>
</a>
</g>
</g>
<!-- Node2 -->
<g id="Node000002" class="node">
<title>Node2</title>
<g id="a_Node000002"><a xlink:href="../../d3/dd6/structMicrosoft_1_1Xna_1_1Framework_1_1Rectangle.html" target="_top" xlink:title=" ">
<polygon fill="white" stroke="transparent" points="366,-884 199,-884 199,-129 366,-129 366,-884"/>
<text text-anchor="start" x="219" y="-871.5" font-family="Helvetica,sans-Serif" font-size="10.00">Microsoft.Xna.Framework.</text>
<text text-anchor="start" x="258.5" y="-860.5" font-family="Helvetica,sans-Serif" font-size="10.00">Rectangle</text>
<text text-anchor="start" x="203.5" y="-845.5" font-family="Helvetica,sans-Serif" font-size="10.00">+</text>
<text text-anchor="start" x="216.5" y="-845.5" font-family="Helvetica,sans-Serif" font-size="10.00">Point Center</text>
<text text-anchor="start" x="203.5" y="-830.5" font-family="Helvetica,sans-Serif" font-size="10.00">+</text>
<text text-anchor="start" x="216.5" y="-830.5" font-family="Helvetica,sans-Serif" font-size="10.00">Point Location</text>
<text text-anchor="start" x="203.5" y="-815.5" font-family="Helvetica,sans-Serif" font-size="10.00">+</text>
<text text-anchor="start" x="216.5" y="-815.5" font-family="Helvetica,sans-Serif" font-size="10.00">bool IsEmpty</text>
<text text-anchor="start" x="203.5" y="-800.5" font-family="Helvetica,sans-Serif" font-size="10.00">+</text>
<text text-anchor="start" x="216.5" y="-800.5" font-family="Helvetica,sans-Serif" font-size="10.00">static Rectangle Empty</text>
<text text-anchor="start" x="203.5" y="-785.5" font-family="Helvetica,sans-Serif" font-size="10.00">+</text>
<text text-anchor="start" x="216.5" y="-785.5" font-family="Helvetica,sans-Serif" font-size="10.00">int Left</text>
<text text-anchor="start" x="203.5" y="-770.5" font-family="Helvetica,sans-Serif" font-size="10.00">+</text>
<text text-anchor="start" x="216.5" y="-770.5" font-family="Helvetica,sans-Serif" font-size="10.00">int Right</text>
<text text-anchor="start" x="203.5" y="-755.5" font-family="Helvetica,sans-Serif" font-size="10.00">+</text>
<text text-anchor="start" x="216.5" y="-755.5" font-family="Helvetica,sans-Serif" font-size="10.00">int Top</text>
<text text-anchor="start" x="203.5" y="-740.5" font-family="Helvetica,sans-Serif" font-size="10.00">+</text>
<text text-anchor="start" x="216.5" y="-740.5" font-family="Helvetica,sans-Serif" font-size="10.00">int Bottom</text>
<text text-anchor="start" x="203.5" y="-725.5" font-family="Helvetica,sans-Serif" font-size="10.00">+</text>
<text text-anchor="start" x="216.5" y="-725.5" font-family="Helvetica,sans-Serif" font-size="10.00">Rectangle(int x, int</text>
<text text-anchor="start" x="216.5" y="-714.5" font-family="Helvetica,sans-Serif" font-size="10.00"> y, int width, int height)</text>
<text text-anchor="start" x="203.5" y="-699.5" font-family="Helvetica,sans-Serif" font-size="10.00">+</text>
<text text-anchor="start" x="216.5" y="-699.5" font-family="Helvetica,sans-Serif" font-size="10.00">void Intersects(ref</text>
<text text-anchor="start" x="216.5" y="-688.5" font-family="Helvetica,sans-Serif" font-size="10.00"> Rectangle value, out</text>
<text text-anchor="start" x="216.5" y="-677.5" font-family="Helvetica,sans-Serif" font-size="10.00"> bool result)</text>
<text text-anchor="start" x="203.5" y="-662.5" font-family="Helvetica,sans-Serif" font-size="10.00">+</text>
<text text-anchor="start" x="216.5" y="-662.5" font-family="Helvetica,sans-Serif" font-size="10.00">bool Contains(Point</text>
<text text-anchor="start" x="216.5" y="-651.5" font-family="Helvetica,sans-Serif" font-size="10.00"> value)</text>
<text text-anchor="start" x="203.5" y="-636.5" font-family="Helvetica,sans-Serif" font-size="10.00">+</text>
<text text-anchor="start" x="216.5" y="-636.5" font-family="Helvetica,sans-Serif" font-size="10.00">bool Contains(Rectangle</text>
<text text-anchor="start" x="216.5" y="-625.5" font-family="Helvetica,sans-Serif" font-size="10.00"> value)</text>
<text text-anchor="start" x="203.5" y="-610.5" font-family="Helvetica,sans-Serif" font-size="10.00">+</text>
<text text-anchor="start" x="216.5" y="-610.5" font-family="Helvetica,sans-Serif" font-size="10.00">void Contains(ref Rectangle</text>
<text text-anchor="start" x="216.5" y="-599.5" font-family="Helvetica,sans-Serif" font-size="10.00"> value, out bool result)</text>
<text text-anchor="start" x="203.5" y="-584.5" font-family="Helvetica,sans-Serif" font-size="10.00">+</text>
<text text-anchor="start" x="216.5" y="-584.5" font-family="Helvetica,sans-Serif" font-size="10.00">bool Contains(int x,</text>
<text text-anchor="start" x="216.5" y="-573.5" font-family="Helvetica,sans-Serif" font-size="10.00"> int y)</text>
<text text-anchor="start" x="203.5" y="-558.5" font-family="Helvetica,sans-Serif" font-size="10.00">+</text>
<text text-anchor="start" x="216.5" y="-558.5" font-family="Helvetica,sans-Serif" font-size="10.00">void Contains(ref Point</text>
<text text-anchor="start" x="216.5" y="-547.5" font-family="Helvetica,sans-Serif" font-size="10.00"> value, out bool result)</text>
<text text-anchor="start" x="203.5" y="-532.5" font-family="Helvetica,sans-Serif" font-size="10.00">+</text>
<text text-anchor="start" x="216.5" y="-532.5" font-family="Helvetica,sans-Serif" font-size="10.00">void Offset(Point offset)</text>
<text text-anchor="start" x="203.5" y="-517.5" font-family="Helvetica,sans-Serif" font-size="10.00">+</text>
<text text-anchor="start" x="216.5" y="-517.5" font-family="Helvetica,sans-Serif" font-size="10.00">void Offset(int offsetX,</text>
<text text-anchor="start" x="216.5" y="-506.5" font-family="Helvetica,sans-Serif" font-size="10.00"> int offsetY)</text>
<text text-anchor="start" x="203.5" y="-491.5" font-family="Helvetica,sans-Serif" font-size="10.00">+</text>
<text text-anchor="start" x="216.5" y="-491.5" font-family="Helvetica,sans-Serif" font-size="10.00">void Inflate(int horizontal</text>
<text text-anchor="start" x="216.5" y="-480.5" font-family="Helvetica,sans-Serif" font-size="10.00">Value, int verticalValue)</text>
<text text-anchor="start" x="203.5" y="-465.5" font-family="Helvetica,sans-Serif" font-size="10.00">+</text>
<text text-anchor="start" x="216.5" y="-465.5" font-family="Helvetica,sans-Serif" font-size="10.00">bool Intersects(Rectangle</text>
<text text-anchor="start" x="216.5" y="-454.5" font-family="Helvetica,sans-Serif" font-size="10.00"> rect)</text>
<text text-anchor="start" x="203.5" y="-439.5" font-family="Helvetica,sans-Serif" font-size="10.00">+</text>
<text text-anchor="start" x="216.5" y="-439.5" font-family="Helvetica,sans-Serif" font-size="10.00">bool Equals(Rectangle</text>
<text text-anchor="start" x="216.5" y="-428.5" font-family="Helvetica,sans-Serif" font-size="10.00"> other)</text>
<text text-anchor="start" x="203.5" y="-413.5" font-family="Helvetica,sans-Serif" font-size="10.00">+</text>
<text text-anchor="start" x="216.5" y="-413.5" font-family="Helvetica,sans-Serif" font-size="10.00">override bool Equals</text>
<text text-anchor="start" x="216.5" y="-402.5" font-family="Helvetica,sans-Serif" font-size="10.00">(object obj)</text>
<text text-anchor="start" x="203.5" y="-387.5" font-family="Helvetica,sans-Serif" font-size="10.00">+</text>
<text text-anchor="start" x="216.5" y="-387.5" font-family="Helvetica,sans-Serif" font-size="10.00">override string ToString()</text>
<text text-anchor="start" x="203.5" y="-372.5" font-family="Helvetica,sans-Serif" font-size="10.00">+</text>
<text text-anchor="start" x="216.5" y="-372.5" font-family="Helvetica,sans-Serif" font-size="10.00">override int GetHashCode()</text>
<text text-anchor="start" x="203.5" y="-357.5" font-family="Helvetica,sans-Serif" font-size="10.00">+</text>
<text text-anchor="start" x="216.5" y="-357.5" font-family="Helvetica,sans-Serif" font-size="10.00">static Rectangle Union</text>
<text text-anchor="start" x="216.5" y="-346.5" font-family="Helvetica,sans-Serif" font-size="10.00">(Rectangle value1, Rectangle</text>
<text text-anchor="start" x="216.5" y="-335.5" font-family="Helvetica,sans-Serif" font-size="10.00"> value2)</text>
<text text-anchor="start" x="203.5" y="-320.5" font-family="Helvetica,sans-Serif" font-size="10.00">+</text>
<text text-anchor="start" x="216.5" y="-320.5" font-family="Helvetica,sans-Serif" font-size="10.00">static void Union(ref</text>
<text text-anchor="start" x="216.5" y="-309.5" font-family="Helvetica,sans-Serif" font-size="10.00"> Rectangle value1, ref</text>
<text text-anchor="start" x="216.5" y="-298.5" font-family="Helvetica,sans-Serif" font-size="10.00"> Rectangle value2, out</text>
<text text-anchor="start" x="216.5" y="-287.5" font-family="Helvetica,sans-Serif" font-size="10.00"> Rectangle result)</text>
<text text-anchor="start" x="203.5" y="-272.5" font-family="Helvetica,sans-Serif" font-size="10.00">+</text>
<text text-anchor="start" x="216.5" y="-272.5" font-family="Helvetica,sans-Serif" font-size="10.00">static Rectangle Intersect</text>
<text text-anchor="start" x="216.5" y="-261.5" font-family="Helvetica,sans-Serif" font-size="10.00">(Rectangle value1, Rectangle</text>
<text text-anchor="start" x="216.5" y="-250.5" font-family="Helvetica,sans-Serif" font-size="10.00"> value2)</text>
<text text-anchor="start" x="203.5" y="-235.5" font-family="Helvetica,sans-Serif" font-size="10.00">+</text>
<text text-anchor="start" x="216.5" y="-235.5" font-family="Helvetica,sans-Serif" font-size="10.00">static void Intersect</text>
<text text-anchor="start" x="216.5" y="-224.5" font-family="Helvetica,sans-Serif" font-size="10.00">(ref Rectangle value1,</text>
<text text-anchor="start" x="216.5" y="-213.5" font-family="Helvetica,sans-Serif" font-size="10.00"> ref Rectangle value2,</text>
<text text-anchor="start" x="216.5" y="-202.5" font-family="Helvetica,sans-Serif" font-size="10.00"> out Rectangle result)</text>
<text text-anchor="start" x="203.5" y="-187.5" font-family="Helvetica,sans-Serif" font-size="10.00">+</text>
<text text-anchor="start" x="216.5" y="-187.5" font-family="Helvetica,sans-Serif" font-size="10.00">static bool operator</text>
<text text-anchor="start" x="216.5" y="-176.5" font-family="Helvetica,sans-Serif" font-size="10.00">==(Rectangle a, Rectangle b)</text>
<text text-anchor="start" x="203.5" y="-161.5" font-family="Helvetica,sans-Serif" font-size="10.00">+</text>
<text text-anchor="start" x="216.5" y="-161.5" font-family="Helvetica,sans-Serif" font-size="10.00">static bool operator!</text>
<text text-anchor="start" x="216.5" y="-150.5" font-family="Helvetica,sans-Serif" font-size="10.00">=(Rectangle a, Rectangle b)</text>
<text text-anchor="start" x="203.5" y="-135.5" font-family="Helvetica,sans-Serif" font-size="10.00">+</text>
<text text-anchor="start" x="216.5" y="-135.5" font-family="Helvetica,sans-Serif" font-size="10.00">static Rectangle()</text>
<polygon fill="#666666" stroke="#666666" points="199.5,-855.5 199.5,-855.5 366.5,-855.5 366.5,-855.5 199.5,-855.5"/>
<polygon fill="#666666" stroke="#666666" points="199.5,-735.5 199.5,-735.5 214.5,-735.5 214.5,-735.5 199.5,-735.5"/>
<polygon fill="#666666" stroke="#666666" points="214.5,-735.5 214.5,-735.5 366.5,-735.5 366.5,-735.5 214.5,-735.5"/>
<polygon fill="none" stroke="#666666" points="199,-129 199,-884 366,-884 366,-129 199,-129"/>
</a>
</g>
</g>
<!-- Node2&#45;&gt;Node1 -->
<g id="edge1_Node000001_Node000002" class="edge">
<title>Node2&#45;&gt;Node1</title>
<g id="a_edge1_Node000001_Node000002"><a xlink:title=" ">
<path fill="none" stroke="#63b8ff" d="M198.9,-160.74C194.33,-149.93 189.54,-139.32 184.5,-129 174.21,-107.91 159,-86.94 144.96,-69.83"/>
<polygon fill="none" stroke="#63b8ff" points="144.61,-69.41 137.69,-67.4 136.88,-60.24 143.8,-62.25 144.61,-69.41"/>
</a>
</g>
<text text-anchor="middle" x="243.5" y="-103" font-family="Helvetica,sans-Serif" font-size="10.00" fill="grey"> +hitboxToOpenDoor</text>
<text text-anchor="start" x="172.5" y="-92" font-family="Helvetica,sans-Serif" font-size="10.00" fill="grey">+tileCoordSpaceForChecking</text>
<text text-anchor="middle" x="243.5" y="-81" font-family="Helvetica,sans-Serif" font-size="10.00" fill="grey">ForDoors</text>
</g>
<!-- Node2&#45;&gt;Node2 -->
<g id="edge2_Node000002_Node000002" class="edge">
<title>Node2&#45;&gt;Node2</title>
<g id="a_edge2_Node000002_Node000002"><a xlink:title=" ">
<path fill="none" stroke="#63b8ff" d="M366.12,-574.2C376.89,-562.46 384,-539.89 384,-506.5 384,-480.93 379.83,-461.71 373.04,-448.84"/>
<polygon fill="none" stroke="#63b8ff" points="372.93,-448.68 366.23,-446.01 366.12,-438.8 372.82,-441.47 372.93,-448.68"/>
</a>
</g>
<text text-anchor="middle" x="428" y="-504" font-family="Helvetica,sans-Serif" font-size="10.00" fill="grey"> &#45;emptyRectangle</text>
</g>
<!-- Node3 -->
<g id="Node000003" class="node">
<title>Node3</title>
<g id="a_Node000003"><a xlink:title=" ">
<polygon fill="white" stroke="transparent" points="69,-1013 46,-1013 46,-964 69,-964 69,-1013"/>
<text text-anchor="start" x="51.5" y="-1000.5" font-family="Helvetica,sans-Serif" font-size="10.00">int</text>
<text text-anchor="start" x="56" y="-985.5" font-family="Helvetica,sans-Serif" font-size="10.00"> </text>
<text text-anchor="start" x="56" y="-970.5" font-family="Helvetica,sans-Serif" font-size="10.00"> </text>
<polygon fill="#666666" stroke="#666666" points="46.5,-995.5 46.5,-995.5 69.5,-995.5 69.5,-995.5 46.5,-995.5"/>
<polygon fill="#666666" stroke="#666666" points="46.5,-980.5 46.5,-980.5 69.5,-980.5 69.5,-980.5 46.5,-980.5"/>
<polygon fill="none" stroke="#666666" points="46,-964 46,-1013 69,-1013 69,-964 46,-964"/>
</a>
</g>
</g>
<!-- Node3&#45;&gt;Node1 -->
<g id="edge4_Node000001_Node000003" class="edge">
<title>Node3&#45;&gt;Node1</title>
<g id="a_edge4_Node000001_Node000003"><a xlink:title=" ">
<path fill="none" stroke="#63b8ff" d="M52.72,-963.68C33.12,-861.23 -36.06,-448.87 51.5,-129 57.16,-108.31 68.44,-87.56 79.56,-70.51"/>
<polygon fill="none" stroke="#63b8ff" points="79.68,-70.34 79.73,-63.13 86.41,-60.41 86.35,-67.62 79.68,-70.34"/>
</a>
</g>
<text text-anchor="middle" x="121" y="-509.5" font-family="Helvetica,sans-Serif" font-size="10.00" fill="grey"> +intendedOpeningDirection</text>
<text text-anchor="middle" x="121" y="-498.5" font-family="Helvetica,sans-Serif" font-size="10.00" fill="grey">+playerGravityDirection</text>
</g>
<!-- Node3&#45;&gt;Node2 -->
<g id="edge3_Node000002_Node000003" class="edge">
<title>Node3&#45;&gt;Node2</title>
<g id="a_edge3_Node000002_Node000003"><a xlink:title=" ">
<path fill="none" stroke="#63b8ff" d="M69.04,-981.48C94.14,-967.75 153.92,-931.63 184.5,-884 187.32,-879.6 190.06,-875.13 192.73,-870.59"/>
<polygon fill="none" stroke="#63b8ff" points="192.89,-870.31 192.36,-863.12 198.8,-859.86 199.32,-867.06 192.89,-870.31"/>
</a>
</g>
<text text-anchor="middle" x="189.5" y="-938" font-family="Helvetica,sans-Serif" font-size="10.00" fill="grey"> +Height</text>
<text text-anchor="middle" x="189.5" y="-927" font-family="Helvetica,sans-Serif" font-size="10.00" fill="grey">+Width</text>
<text text-anchor="middle" x="189.5" y="-916" font-family="Helvetica,sans-Serif" font-size="10.00" fill="grey">+X</text>
<text text-anchor="middle" x="189.5" y="-905" font-family="Helvetica,sans-Serif" font-size="10.00" fill="grey">+Y</text>
</g>
</g>
</svg>

<g id="navigator" transform="translate(0 0)" fill="#404254">
  <rect fill="#f2f5e9" fill-opacity="0.5" stroke="#606060" stroke-width=".5" x="0" y="0" width="60" height="60"/>
  <use id="zoomplus" xlink:href="#zoomPlus" x="17" y="9" onmousedown="handleZoom(evt,'in')"/>
  <use id="zoomminus" xlink:href="#zoomMin" x="42" y="9" onmousedown="handleZoom(evt,'out')"/>
  <use id="reset" xlink:href="#resetDef" x="30" y="36" onmousedown="handleReset()"/>
   <use id="arrowup" xlink:href="#arrowUp" x="0" y="0" onmousedown="handlePan(0,-1)"/>
  <use id="arrowright" xlink:href="#arrowRight" x="0" y="0" onmousedown="handlePan(1,0)"/>
  <use id="arrowdown" xlink:href="#arrowDown" x="0" y="0" onmousedown="handlePan(0,1)"/>
  <use id="arrowleft" xlink:href="#arrowLeft" x="0" y="0" onmousedown="handlePan(-1,0)"/>
</g>
<svg viewBox="0 0 15 15" width="100%" height="30px" preserveAspectRatio="xMaxYMin meet">
 <g id="arrow_out" transform="scale(0.3 0.3)">
  <a xlink:href="structTerraria_1_1GameContent_1_1DoorOpeningHelper_1_1PlayerInfoForOpeningDoors__coll__graph_org.svg" target="_base">
   <rect id="button" ry="5" rx="5" y="6" x="6" height="38" width="38"
        fill="#f2f5e9" fill-opacity="0.5" stroke="#606060" stroke-width="1.0"/>
   <path id="arrow"
     d="M 11.500037,31.436501 C 11.940474,20.09759 22.043105,11.32322 32.158766,21.979434 L 37.068811,17.246167 C 37.068811,17.246167 37.088388,32 37.088388,32 L 22.160133,31.978069 C 22.160133,31.978069 26.997745,27.140456 26.997745,27.140456 C 18.528582,18.264221 13.291696,25.230495 11.500037,31.436501 z"
     style="fill:#404040;"/>
  </a>
 </g>
</svg>

<style type='text/css'>
<![CDATA[
[data-mouse-over-selected='false'] { opacity: 0.7; }
[data-mouse-over-selected='true']  { opacity: 1.0; }
]]>
</style>
<script type="application/ecmascript"><![CDATA[
document.addEventListener('DOMContentLoaded', (event) => {
  highlightEdges();
  highlightAdjacentNodes();
});
]]></script>
</svg>
