<?xml version="1.0" encoding="UTF-8" standalone="no"?>
<!DOCTYPE svg PUBLIC "-//W3C//DTD SVG 1.1//EN"
 "http://www.w3.org/Graphics/SVG/1.1/DTD/svg11.dtd">
<!-- Generated by graphviz version 2.43.0 (0)
 -->
<!-- Title: System.Xml.Schema.DatatypeImplementation.SchemaDatatypeMap Pages: 1 -->
<svg width="249pt" height="328pt"
 viewBox="0.00 0.00 249.00 328.00" xmlns="http://www.w3.org/2000/svg" xmlns:xlink="http://www.w3.org/1999/xlink">

<svg id="main" version="1.1" xmlns="http://www.w3.org/2000/svg" xmlns:xlink="http://www.w3.org/1999/xlink" xml:space="preserve" onload="init(evt)">
<style type="text/css"><![CDATA[
.node, .edge {opacity: 0.7;}
.node.selected, .edge.selected {opacity: 1;}
.edge:hover path { stroke: red; }
.edge:hover polygon { stroke: red; fill: red; }
]]></style>
<script type="application/ecmascript" xlink:href="../../svg.min.js"/>
<svg id="graph" class="graph">
<g id="graph0" class="graph" transform="scale(1 1) rotate(0) translate(4 324)">
<title>System.Xml.Schema.DatatypeImplementation.SchemaDatatypeMap</title>
<!-- Node1 -->
<g id="Node000001" class="node">
<title>Node1</title>
<g id="a_Node000001"><a xlink:title=" ">
<polygon fill="#999999" stroke="transparent" points="241,-220 0,-220 0,0 241,0 241,-220"/>
<text text-anchor="start" x="27.5" y="-208" font-family="Helvetica,sans-Serif" font-size="10.00">System.Xml.Schema.Datatype</text>
<text text-anchor="start" x="27.5" y="-197" font-family="Helvetica,sans-Serif" font-size="10.00">Implementation.SchemaDatatypeMap</text>
<text text-anchor="start" x="4.5" y="-182" font-family="Helvetica,sans-Serif" font-size="10.00">+</text>
<text text-anchor="start" x="17.5" y="-182" font-family="Helvetica,sans-Serif" font-size="10.00">string Name</text>
<text text-anchor="start" x="4.5" y="-167" font-family="Helvetica,sans-Serif" font-size="10.00">+</text>
<text text-anchor="start" x="17.5" y="-167" font-family="Helvetica,sans-Serif" font-size="10.00">int ParentIndex</text>
<text text-anchor="start" x="7" y="-152" font-family="Helvetica,sans-Serif" font-size="10.00">&#45;</text>
<text text-anchor="start" x="17.5" y="-152" font-family="Helvetica,sans-Serif" font-size="10.00">string name</text>
<text text-anchor="start" x="7" y="-137" font-family="Helvetica,sans-Serif" font-size="10.00">&#45;</text>
<text text-anchor="start" x="17.5" y="-137" font-family="Helvetica,sans-Serif" font-size="10.00">DatatypeImplementation type</text>
<text text-anchor="start" x="7" y="-122" font-family="Helvetica,sans-Serif" font-size="10.00">&#45;</text>
<text text-anchor="start" x="17.5" y="-122" font-family="Helvetica,sans-Serif" font-size="10.00">int parentIndex</text>
<text text-anchor="start" x="4.5" y="-107" font-family="Helvetica,sans-Serif" font-size="10.00">+</text>
<text text-anchor="start" x="17.5" y="-107" font-family="Helvetica,sans-Serif" font-size="10.00">int CompareTo(object obj)</text>
<text text-anchor="start" x="4.5" y="-92" font-family="Helvetica,sans-Serif" font-size="10.00">+</text>
<text text-anchor="start" x="17.5" y="-92" font-family="Helvetica,sans-Serif" font-size="10.00">static operator Datatype</text>
<text text-anchor="start" x="17.5" y="-81" font-family="Helvetica,sans-Serif" font-size="10.00">Implementation(DatatypeImplementation.</text>
<text text-anchor="start" x="17.5" y="-70" font-family="Helvetica,sans-Serif" font-size="10.00">SchemaDatatypeMap sdm)</text>
<text text-anchor="start" x="4.5" y="-55" font-family="Helvetica,sans-Serif" font-size="10.00">~</text>
<text text-anchor="start" x="17.5" y="-55" font-family="Helvetica,sans-Serif" font-size="10.00">SchemaDatatypeMap</text>
<text text-anchor="start" x="17.5" y="-44" font-family="Helvetica,sans-Serif" font-size="10.00">(string name, DatatypeImplementation type)</text>
<text text-anchor="start" x="4.5" y="-29" font-family="Helvetica,sans-Serif" font-size="10.00">~</text>
<text text-anchor="start" x="17.5" y="-29" font-family="Helvetica,sans-Serif" font-size="10.00">SchemaDatatypeMap</text>
<text text-anchor="start" x="17.5" y="-18" font-family="Helvetica,sans-Serif" font-size="10.00">(string name, DatatypeImplementation</text>
<text text-anchor="start" x="17.5" y="-7" font-family="Helvetica,sans-Serif" font-size="10.00"> type, int parentIndex)</text>
<polygon fill="#666666" stroke="#666666" points="0.5,-192 0.5,-192 241.5,-192 241.5,-192 0.5,-192"/>
<polygon fill="#666666" stroke="#666666" points="0.5,-117 0.5,-117 15.5,-117 15.5,-117 0.5,-117"/>
<polygon fill="#666666" stroke="#666666" points="15.5,-117 15.5,-117 241.5,-117 241.5,-117 15.5,-117"/>
<polygon fill="none" stroke="#666666" points="0,0 0,-220 241,-220 241,0 0,0"/>
</a>
</g>
</g>
<!-- Node2 -->
<g id="Node000002" class="node">
<title>Node2</title>
<g id="a_Node000002"><a xlink:href="../../d3/ddf/interfaceSystem_1_1IComparable.html" target="_top" xlink:title=" ">
<polygon fill="white" stroke="transparent" points="194.5,-320 46.5,-320 46.5,-256 194.5,-256 194.5,-320"/>
<text text-anchor="start" x="89" y="-308" font-family="Helvetica,sans-Serif" font-size="10.00">IComparable</text>
<text text-anchor="start" x="118.5" y="-293" font-family="Helvetica,sans-Serif" font-size="10.00"> </text>
<text text-anchor="start" x="50.5" y="-278" font-family="Helvetica,sans-Serif" font-size="10.00">+</text>
<text text-anchor="start" x="63.5" y="-278" font-family="Helvetica,sans-Serif" font-size="10.00">int CompareTo(T other)</text>
<text text-anchor="start" x="50.5" y="-263" font-family="Helvetica,sans-Serif" font-size="10.00">+</text>
<text text-anchor="start" x="63.5" y="-263" font-family="Helvetica,sans-Serif" font-size="10.00">int CompareTo(object obj)</text>
<polygon fill="#666666" stroke="#666666" points="46.5,-303 46.5,-303 194.5,-303 194.5,-303 46.5,-303"/>
<polygon fill="#666666" stroke="#666666" points="46.5,-288 46.5,-288 194.5,-288 194.5,-288 46.5,-288"/>
<polygon fill="none" stroke="#666666" points="46.5,-256 46.5,-320 194.5,-320 194.5,-256 46.5,-256"/>
</a>
</g>
</g>
<!-- Node2&#45;&gt;Node1 -->
<g id="edge1_Node000001_Node000002" class="edge">
<title>Node2&#45;&gt;Node1</title>
<g id="a_edge1_Node000001_Node000002"><a xlink:title=" ">
<path fill="none" stroke="#63b8ff" d="M120.5,-245.89C120.5,-237.9 120.5,-229.18 120.5,-220.14"/>
<polygon fill="none" stroke="#63b8ff" points="117,-245.94 120.5,-255.94 124,-245.94 117,-245.94"/>
</a>
</g>
</g>
</g>
</svg>
</svg>

<style type='text/css'>
<![CDATA[
[data-mouse-over-selected='false'] { opacity: 0.7; }
[data-mouse-over-selected='true']  { opacity: 1.0; }
]]>
</style>
<script type="application/ecmascript"><![CDATA[
document.addEventListener('DOMContentLoaded', (event) => {
  highlightEdges();
  highlightAdjacentNodes();
});
]]></script>
</svg>
