<?xml version="1.0" encoding="UTF-8" standalone="no"?>
<!DOCTYPE svg PUBLIC "-//W3C//DTD SVG 1.1//EN"
 "http://www.w3.org/Graphics/SVG/1.1/DTD/svg11.dtd">
<!-- Generated by graphviz version 2.43.0 (0)
 -->
<!-- Title: SaveSynchronisationHost Pages: 1 -->
<!--zoomable 905 -->

<svg id="main" version="1.1" xmlns="http://www.w3.org/2000/svg" xmlns:xlink="http://www.w3.org/1999/xlink" xml:space="preserve" onload="init(evt)">
<style type="text/css"><![CDATA[
.node, .edge {opacity: 0.7;}
.node.selected, .edge.selected {opacity: 1;}
.edge:hover path { stroke: red; }
.edge:hover polygon { stroke: red; fill: red; }
]]></style>

<defs>
  <circle id="rim" cx="0" cy="0" r="7"/>
  <circle id="rim2" cx="0" cy="0" r="3.5"/>
  <g id="zoomPlus">
    <use xlink:href="#rim" fill="#404040"><set attributeName="fill" to="#808080" begin="zoomplus.mouseover" end="zoomplus.mouseout"/></use>
    <path d="M-4,0h8M0,-4v8" fill="none" stroke="white" stroke-width="1.5" pointer-events="none"/>
  </g>
  <g id="zoomMin">
    <use xlink:href="#rim" fill="#404040"><set attributeName="fill" to="#808080" begin="zoomminus.mouseover" end="zoomminus.mouseout"/></use>
    <path d="M-4,0h8" fill="none" stroke="white" stroke-width="1.5" pointer-events="none"/>
  </g>
  <g id="arrowUp" transform="translate(30 24)">
    <use xlink:href="#rim"/>
    <path pointer-events="none" fill="none" stroke="white" stroke-width="1.5" d="M0,-3.0v7 M-2.5,-0.5L0,-3.0L2.5,-0.5"/>
  </g>
  <g id="arrowRight" transform="rotate(90) translate(36 -43)">
    <use xlink:href="#rim"/>
    <path pointer-events="none" fill="none" stroke="white" stroke-width="1.5" d="M0,-3.0v7 M-2.5,-0.5L0,-3.0L2.5,-0.5"/>
  </g>
  <g id="arrowDown" transform="rotate(180) translate(-30 -48)">
    <use xlink:href="#rim"/>
    <path pointer-events="none" fill="none" stroke="white" stroke-width="1.5" d="M0,-3.0v7 M-2.5,-0.5L0,-3.0L2.5,-0.5"/>
  </g>
  <g id="arrowLeft" transform="rotate(270) translate(-36 17)">
    <use xlink:href="#rim"/>
    <path pointer-events="none" fill="none" stroke="white" stroke-width="1.5" d="M0,-3.0v7 M-2.5,-0.5L0,-3.0L2.5,-0.5"/>
  </g>
  <g id="resetDef">
    <use xlink:href="#rim2" fill="#404040"><set attributeName="fill" to="#808080" begin="reset.mouseover" end="reset.mouseout"/></use>
  </g>
</defs>
<script type="application/ecmascript">
var viewWidth = 1140;
var viewHeight = 905;
var sectionId = 'dynsection-0';
</script>
<script type="application/ecmascript" xlink:href="../../svg.min.js"/>
<svg id="graph" class="graph">
<g id="viewport">
<title>SaveSynchronisationHost</title>
<!-- Node1 -->
<g id="Node000001" class="node">
<title>Node1</title>
<g id="a_Node000001"><a xlink:title=" ">
<polygon fill="#999999" stroke="transparent" points="359.15,-183 205.15,-183 205.15,0 359.15,0 359.15,-183"/>
<text text-anchor="start" x="219.65" y="-170.5" font-family="Helvetica,sans-Serif" font-size="10.00">SaveSynchronisationHost</text>
<text text-anchor="start" x="280.15" y="-155.5" font-family="Helvetica,sans-Serif" font-size="10.00"> </text>
<text text-anchor="start" x="209.15" y="-140.5" font-family="Helvetica,sans-Serif" font-size="10.00">+</text>
<text text-anchor="start" x="222.15" y="-140.5" font-family="Helvetica,sans-Serif" font-size="10.00">void Start()</text>
<text text-anchor="start" x="209.15" y="-125.5" font-family="Helvetica,sans-Serif" font-size="10.00">+</text>
<text text-anchor="start" x="222.15" y="-125.5" font-family="Helvetica,sans-Serif" font-size="10.00">void Close()</text>
<text text-anchor="start" x="209.15" y="-110.5" font-family="Helvetica,sans-Serif" font-size="10.00">+</text>
<text text-anchor="start" x="222.15" y="-110.5" font-family="Helvetica,sans-Serif" font-size="10.00">void RequestFile(string</text>
<text text-anchor="start" x="222.15" y="-99.5" font-family="Helvetica,sans-Serif" font-size="10.00"> filename)</text>
<text text-anchor="start" x="209.15" y="-84.5" font-family="Helvetica,sans-Serif" font-size="10.00">+</text>
<text text-anchor="start" x="222.15" y="-84.5" font-family="Helvetica,sans-Serif" font-size="10.00">void SendFile(string</text>
<text text-anchor="start" x="222.15" y="-73.5" font-family="Helvetica,sans-Serif" font-size="10.00"> filename)</text>
<text text-anchor="start" x="209.15" y="-58.5" font-family="Helvetica,sans-Serif" font-size="10.00">+</text>
<text text-anchor="start" x="222.15" y="-58.5" font-family="Helvetica,sans-Serif" font-size="10.00">void Update()</text>
<text text-anchor="start" x="209.15" y="-43.5" font-family="Helvetica,sans-Serif" font-size="10.00">+</text>
<text text-anchor="start" x="222.15" y="-43.5" font-family="Helvetica,sans-Serif" font-size="10.00">SaveSynchronisationHost()</text>
<text text-anchor="start" x="211.65" y="-28.5" font-family="Helvetica,sans-Serif" font-size="10.00">&#45;</text>
<text text-anchor="start" x="222.15" y="-28.5" font-family="Helvetica,sans-Serif" font-size="10.00">void SendDataFunction</text>
<text text-anchor="start" x="222.15" y="-17.5" font-family="Helvetica,sans-Serif" font-size="10.00">(byte[] messageData,</text>
<text text-anchor="start" x="222.15" y="-6.5" font-family="Helvetica,sans-Serif" font-size="10.00"> int length)</text>
<polygon fill="#666666" stroke="#666666" points="205.15,-165.5 205.15,-165.5 359.15,-165.5 359.15,-165.5 205.15,-165.5"/>
<polygon fill="#666666" stroke="#666666" points="205.15,-150.5 205.15,-150.5 359.15,-150.5 359.15,-150.5 205.15,-150.5"/>
<polygon fill="none" stroke="#666666" points="205.15,0 205.15,-183 359.15,-183 359.15,0 205.15,0"/>
</a>
</g>
</g>
<!-- Node2 -->
<g id="Node000002" class="node">
<title>Node2</title>
<g id="a_Node000002"><a xlink:href="../../db/de6/classTelepathy_1_1Server.html" target="_top" xlink:title=" ">
<polygon fill="white" stroke="transparent" points="355.65,-443 208.65,-443 208.65,-230 355.65,-230 355.65,-443"/>
<text text-anchor="start" x="242.15" y="-430.5" font-family="Helvetica,sans-Serif" font-size="10.00">Telepathy.Server</text>
<text text-anchor="start" x="213.15" y="-415.5" font-family="Helvetica,sans-Serif" font-size="10.00">+</text>
<text text-anchor="start" x="226.15" y="-415.5" font-family="Helvetica,sans-Serif" font-size="10.00">bool Active</text>
<text text-anchor="start" x="213.15" y="-400.5" font-family="Helvetica,sans-Serif" font-size="10.00">+</text>
<text text-anchor="start" x="226.15" y="-400.5" font-family="Helvetica,sans-Serif" font-size="10.00">bool Start(int port)</text>
<text text-anchor="start" x="213.15" y="-385.5" font-family="Helvetica,sans-Serif" font-size="10.00">+</text>
<text text-anchor="start" x="226.15" y="-385.5" font-family="Helvetica,sans-Serif" font-size="10.00">void Stop()</text>
<text text-anchor="start" x="213.15" y="-370.5" font-family="Helvetica,sans-Serif" font-size="10.00">+</text>
<text text-anchor="start" x="226.15" y="-370.5" font-family="Helvetica,sans-Serif" font-size="10.00">bool Send(int connection</text>
<text text-anchor="start" x="226.15" y="-359.5" font-family="Helvetica,sans-Serif" font-size="10.00">Id, byte[] data, int length)</text>
<text text-anchor="start" x="213.15" y="-344.5" font-family="Helvetica,sans-Serif" font-size="10.00">+</text>
<text text-anchor="start" x="226.15" y="-344.5" font-family="Helvetica,sans-Serif" font-size="10.00">string GetClientAddress</text>
<text text-anchor="start" x="226.15" y="-333.5" font-family="Helvetica,sans-Serif" font-size="10.00">(int connectionId)</text>
<text text-anchor="start" x="213.15" y="-318.5" font-family="Helvetica,sans-Serif" font-size="10.00">+</text>
<text text-anchor="start" x="226.15" y="-318.5" font-family="Helvetica,sans-Serif" font-size="10.00">bool Disconnect(int</text>
<text text-anchor="start" x="226.15" y="-307.5" font-family="Helvetica,sans-Serif" font-size="10.00"> connectionId)</text>
<text text-anchor="start" x="213.15" y="-292.5" font-family="Helvetica,sans-Serif" font-size="10.00">+</text>
<text text-anchor="start" x="226.15" y="-292.5" font-family="Helvetica,sans-Serif" font-size="10.00">Server()</text>
<text text-anchor="start" x="215.65" y="-277.5" font-family="Helvetica,sans-Serif" font-size="10.00">&#45;</text>
<text text-anchor="start" x="226.15" y="-277.5" font-family="Helvetica,sans-Serif" font-size="10.00">int NextConnectionId</text>
<text text-anchor="start" x="226.15" y="-266.5" font-family="Helvetica,sans-Serif" font-size="10.00">(TcpClient newClient)</text>
<text text-anchor="start" x="215.65" y="-251.5" font-family="Helvetica,sans-Serif" font-size="10.00">&#45;</text>
<text text-anchor="start" x="226.15" y="-251.5" font-family="Helvetica,sans-Serif" font-size="10.00">void Listen(int port)</text>
<text text-anchor="start" x="215.65" y="-236.5" font-family="Helvetica,sans-Serif" font-size="10.00">&#45;</text>
<text text-anchor="start" x="226.15" y="-236.5" font-family="Helvetica,sans-Serif" font-size="10.00">void Cleanup()</text>
<polygon fill="#666666" stroke="#666666" points="209.15,-425.5 209.15,-425.5 356.15,-425.5 356.15,-425.5 209.15,-425.5"/>
<polygon fill="#666666" stroke="#666666" points="209.15,-410.5 209.15,-410.5 224.15,-410.5 224.15,-410.5 209.15,-410.5"/>
<polygon fill="#666666" stroke="#666666" points="224.15,-410.5 224.15,-410.5 356.15,-410.5 356.15,-410.5 224.15,-410.5"/>
<polygon fill="none" stroke="#666666" points="208.65,-230 208.65,-443 355.65,-443 355.65,-230 208.65,-230"/>
</a>
</g>
</g>
<!-- Node2&#45;&gt;Node1 -->
<g id="edge1_Node000001_Node000002" class="edge">
<title>Node2&#45;&gt;Node1</title>
<g id="a_edge1_Node000001_Node000002"><a xlink:title=" ">
<path fill="none" stroke="#63b8ff" d="M282.15,-229.98C282.15,-218.5 282.15,-206.83 282.15,-195.39"/>
<polygon fill="none" stroke="#63b8ff" points="282.15,-195.08 278.15,-189.08 282.15,-183.08 286.15,-189.08 282.15,-195.08"/>
</a>
</g>
<text text-anchor="middle" x="303.65" y="-204" font-family="Helvetica,sans-Serif" font-size="10.00" fill="grey"> +Server</text>
</g>
<!-- Node3 -->
<g id="Node000003" class="node">
<title>Node3</title>
<g id="a_Node000003"><a xlink:href="../../d9/d80/classTelepathy_1_1Common.html" target="_top" xlink:title=" ">
<polygon fill="white" stroke="transparent" points="688.15,-768 502.15,-768 502.15,-490 688.15,-490 688.15,-768"/>
<text text-anchor="start" x="572.65" y="-756" font-family="Helvetica,sans-Serif" font-size="10.00">Common</text>
<text text-anchor="start" x="506.15" y="-741" font-family="Helvetica,sans-Serif" font-size="10.00">+</text>
<text text-anchor="start" x="519.15" y="-741" font-family="Helvetica,sans-Serif" font-size="10.00">int ReceiveQueueCount</text>
<text text-anchor="start" x="506.15" y="-726" font-family="Helvetica,sans-Serif" font-size="10.00">+</text>
<text text-anchor="start" x="519.15" y="-726" font-family="Helvetica,sans-Serif" font-size="10.00">bool GetNextMessage</text>
<text text-anchor="start" x="519.15" y="-715" font-family="Helvetica,sans-Serif" font-size="10.00">(out Message message)</text>
<text text-anchor="start" x="506.15" y="-700" font-family="Helvetica,sans-Serif" font-size="10.00">#</text>
<text text-anchor="start" x="519.15" y="-700" font-family="Helvetica,sans-Serif" font-size="10.00">Common()</text>
<text text-anchor="start" x="506.15" y="-685" font-family="Helvetica,sans-Serif" font-size="10.00">#</text>
<text text-anchor="start" x="519.15" y="-685" font-family="Helvetica,sans-Serif" font-size="10.00">static bool SendMessages</text>
<text text-anchor="start" x="519.15" y="-674" font-family="Helvetica,sans-Serif" font-size="10.00">Blocking(NetworkStream</text>
<text text-anchor="start" x="519.15" y="-663" font-family="Helvetica,sans-Serif" font-size="10.00"> stream, byte[][] messages)</text>
<text text-anchor="start" x="506.15" y="-648" font-family="Helvetica,sans-Serif" font-size="10.00">#</text>
<text text-anchor="start" x="519.15" y="-648" font-family="Helvetica,sans-Serif" font-size="10.00">static bool ReadMessageBlocking</text>
<text text-anchor="start" x="519.15" y="-637" font-family="Helvetica,sans-Serif" font-size="10.00">(NetworkStream stream, int</text>
<text text-anchor="start" x="519.15" y="-626" font-family="Helvetica,sans-Serif" font-size="10.00"> MaxMessageSize, out byte[]</text>
<text text-anchor="start" x="519.15" y="-615" font-family="Helvetica,sans-Serif" font-size="10.00"> content)</text>
<text text-anchor="start" x="506.15" y="-600" font-family="Helvetica,sans-Serif" font-size="10.00">#</text>
<text text-anchor="start" x="519.15" y="-600" font-family="Helvetica,sans-Serif" font-size="10.00">static void ReceiveLoop</text>
<text text-anchor="start" x="519.15" y="-589" font-family="Helvetica,sans-Serif" font-size="10.00">(int connectionId, TcpClient</text>
<text text-anchor="start" x="519.15" y="-578" font-family="Helvetica,sans-Serif" font-size="10.00"> client, ConcurrentQueue&lt;</text>
<text text-anchor="start" x="519.15" y="-567" font-family="Helvetica,sans-Serif" font-size="10.00"> Message &gt; receiveQueue, int</text>
<text text-anchor="start" x="519.15" y="-556" font-family="Helvetica,sans-Serif" font-size="10.00"> MaxMessageSize)</text>
<text text-anchor="start" x="506.15" y="-541" font-family="Helvetica,sans-Serif" font-size="10.00">#</text>
<text text-anchor="start" x="519.15" y="-541" font-family="Helvetica,sans-Serif" font-size="10.00">static void SendLoop</text>
<text text-anchor="start" x="519.15" y="-530" font-family="Helvetica,sans-Serif" font-size="10.00">(int connectionId, TcpClient</text>
<text text-anchor="start" x="519.15" y="-519" font-family="Helvetica,sans-Serif" font-size="10.00"> client, SafeQueue&lt; byte[]</text>
<text text-anchor="start" x="519.15" y="-508" font-family="Helvetica,sans-Serif" font-size="10.00">&gt; sendQueue, ManualResetEvent</text>
<text text-anchor="start" x="519.15" y="-497" font-family="Helvetica,sans-Serif" font-size="10.00"> sendPending)</text>
<polygon fill="#666666" stroke="#666666" points="502.15,-751 502.15,-751 688.15,-751 688.15,-751 502.15,-751"/>
<polygon fill="#666666" stroke="#666666" points="502.15,-736 502.15,-736 517.15,-736 517.15,-736 502.15,-736"/>
<polygon fill="#666666" stroke="#666666" points="517.15,-736 517.15,-736 688.15,-736 688.15,-736 517.15,-736"/>
<polygon fill="none" stroke="#666666" points="502.15,-490 502.15,-768 688.15,-768 688.15,-490 502.15,-490"/>
</a>
</g>
</g>
<!-- Node3&#45;&gt;Node2 -->
<g id="edge2_Node000002_Node000003" class="edge">
<title>Node3&#45;&gt;Node2</title>
<g id="a_edge2_Node000002_Node000003"><a xlink:title=" ">
<path fill="none" stroke="#63b8ff" d="M494.62,-534.69C449.47,-492.79 397.16,-444.24 355.75,-405.8"/>
<polygon fill="none" stroke="#63b8ff" points="492.38,-537.39 502.09,-541.63 497.14,-532.26 492.38,-537.39"/>
</a>
</g>
</g>
<!-- Node4 -->
<g id="Node000004" class="node">
<title>Node4</title>
<g id="a_Node000004"><a xlink:title=" ">
<polygon fill="white" stroke="transparent" points="672.65,-897 517.65,-897 517.65,-837 672.65,-837 672.65,-897"/>
<text text-anchor="start" x="523.15" y="-885" font-family="Helvetica,sans-Serif" font-size="10.00">ConcurrentQueue&lt; Telepathy.</text>
<text text-anchor="start" x="568.15" y="-874" font-family="Helvetica,sans-Serif" font-size="10.00">Message &gt;</text>
<text text-anchor="start" x="593.65" y="-859" font-family="Helvetica,sans-Serif" font-size="10.00"> </text>
<text text-anchor="start" x="593.65" y="-844" font-family="Helvetica,sans-Serif" font-size="10.00"> </text>
<polygon fill="#666666" stroke="#666666" points="518.15,-869 518.15,-869 673.15,-869 673.15,-869 518.15,-869"/>
<polygon fill="#666666" stroke="#666666" points="518.15,-854 518.15,-854 673.15,-854 673.15,-854 518.15,-854"/>
<polygon fill="none" stroke="#666666" points="517.65,-837 517.65,-897 672.65,-897 672.65,-837 517.65,-837"/>
</a>
</g>
</g>
<!-- Node4&#45;&gt;Node3 -->
<g id="edge3_Node000003_Node000004" class="edge">
<title>Node4&#45;&gt;Node3</title>
<g id="a_edge3_Node000003_Node000004"><a xlink:title=" ">
<path fill="none" stroke="#63b8ff" d="M595.15,-836.59C595.15,-821.37 595.15,-801.51 595.15,-780.13"/>
<polygon fill="none" stroke="#63b8ff" points="595.15,-780.12 591.15,-774.12 595.15,-768.12 599.15,-774.12 595.15,-780.12"/>
</a>
</g>
<text text-anchor="middle" x="634.65" y="-800" font-family="Helvetica,sans-Serif" font-size="10.00" fill="grey"> #receiveQueue</text>
</g>
<!-- Node5 -->
<g id="Node000005" class="node">
<title>Node5</title>
<g id="a_Node000005"><a xlink:title=" ">
<polygon fill="white" stroke="transparent" points="405.65,-891.5 382.65,-891.5 382.65,-842.5 405.65,-842.5 405.65,-891.5"/>
<text text-anchor="start" x="388.15" y="-879" font-family="Helvetica,sans-Serif" font-size="10.00">int</text>
<text text-anchor="start" x="392.65" y="-864" font-family="Helvetica,sans-Serif" font-size="10.00"> </text>
<text text-anchor="start" x="392.65" y="-849" font-family="Helvetica,sans-Serif" font-size="10.00"> </text>
<polygon fill="#666666" stroke="#666666" points="383.15,-874 383.15,-874 406.15,-874 406.15,-874 383.15,-874"/>
<polygon fill="#666666" stroke="#666666" points="383.15,-859 383.15,-859 406.15,-859 406.15,-859 383.15,-859"/>
<polygon fill="none" stroke="#666666" points="382.65,-842.5 382.65,-891.5 405.65,-891.5 405.65,-842.5 382.65,-842.5"/>
</a>
</g>
</g>
<!-- Node5&#45;&gt;Node1 -->
<g id="edge15_Node000001_Node000005" class="edge">
<title>Node5&#45;&gt;Node1</title>
<g id="a_edge15_Node000001_Node000005"><a xlink:title=" ">
<path fill="none" stroke="#63b8ff" d="M382.53,-864.51C327.49,-857.19 93.95,-823.17 51.15,-768 -85.77,-591.49 84.61,-328.7 197.45,-188.6"/>
<polygon fill="none" stroke="#63b8ff" points="197.56,-188.46 198.24,-181.28 205.13,-179.14 204.45,-186.32 197.56,-188.46"/>
</a>
</g>
<text text-anchor="middle" x="77.65" y="-464" font-family="Helvetica,sans-Serif" font-size="10.00" fill="grey"> +connectedClient</text>
</g>
<!-- Node5&#45;&gt;Node2 -->
<g id="edge10_Node000002_Node000005" class="edge">
<title>Node5&#45;&gt;Node2</title>
<g id="a_edge10_Node000002_Node000005"><a xlink:title=" ">
<path fill="none" stroke="#63b8ff" d="M395.93,-842.48C399.76,-782.33 405.53,-618.56 367.15,-490 363.6,-478.11 359.02,-466.13 353.82,-454.39"/>
<polygon fill="none" stroke="#63b8ff" points="353.69,-454.11 347.54,-450.34 348.66,-443.21 354.8,-446.98 353.69,-454.11"/>
</a>
</g>
<text text-anchor="middle" x="420.15" y="-626.5" font-family="Helvetica,sans-Serif" font-size="10.00" fill="grey"> &#45;counter</text>
</g>
<!-- Node5&#45;&gt;Node3 -->
<g id="edge4_Node000003_Node000005" class="edge">
<title>Node5&#45;&gt;Node3</title>
<g id="a_edge4_Node000003_Node000005"><a xlink:title=" ">
<path fill="none" stroke="#63b8ff" d="M405.78,-845.9C415.73,-829.28 430.84,-805.36 446.15,-786 460.7,-767.62 477.04,-748.9 493.42,-731.11"/>
<polygon fill="none" stroke="#63b8ff" points="493.82,-730.68 494.97,-723.57 501.99,-721.89 500.83,-729.01 493.82,-730.68"/>
</a>
</g>
<text text-anchor="middle" x="518.65" y="-811" font-family="Helvetica,sans-Serif" font-size="10.00" fill="grey"> +MaxMessageSize</text>
<text text-anchor="middle" x="518.65" y="-800" font-family="Helvetica,sans-Serif" font-size="10.00" fill="grey">+SendTimeout</text>
<text text-anchor="middle" x="518.65" y="-789" font-family="Helvetica,sans-Serif" font-size="10.00" fill="grey">+messageQueueSizeWarning</text>
</g>
<!-- Node6 -->
<g id="Node000006" class="node">
<title>Node6</title>
<g id="a_Node000006"><a xlink:title=" ">
<polygon fill="white" stroke="transparent" points="938.15,-891.5 906.15,-891.5 906.15,-842.5 938.15,-842.5 938.15,-891.5"/>
<text text-anchor="start" x="911.15" y="-879" font-family="Helvetica,sans-Serif" font-size="10.00">bool</text>
<text text-anchor="start" x="920.15" y="-864" font-family="Helvetica,sans-Serif" font-size="10.00"> </text>
<text text-anchor="start" x="920.15" y="-849" font-family="Helvetica,sans-Serif" font-size="10.00"> </text>
<polygon fill="#666666" stroke="#666666" points="906.15,-874 906.15,-874 938.15,-874 938.15,-874 906.15,-874"/>
<polygon fill="#666666" stroke="#666666" points="906.15,-859 906.15,-859 938.15,-859 938.15,-859 906.15,-859"/>
<polygon fill="none" stroke="#666666" points="906.15,-842.5 906.15,-891.5 938.15,-891.5 938.15,-842.5 906.15,-842.5"/>
</a>
</g>
</g>
<!-- Node6&#45;&gt;Node3 -->
<g id="edge5_Node000003_Node000006" class="edge">
<title>Node6&#45;&gt;Node3</title>
<g id="a_edge5_Node000003_Node000006"><a xlink:title=" ">
<path fill="none" stroke="#63b8ff" d="M905.96,-843.81C900.47,-836.06 894.4,-827.24 889.15,-819 880.06,-804.73 883.89,-795.89 870.15,-786 837.4,-762.42 818.02,-784.42 781.15,-768 752.49,-755.24 724.02,-737.43 698.29,-718.85"/>
<polygon fill="none" stroke="#63b8ff" points="698.23,-718.81 691.03,-718.47 688.56,-711.69 695.77,-712.03 698.23,-718.81"/>
</a>
</g>
<text text-anchor="middle" x="916.15" y="-800" font-family="Helvetica,sans-Serif" font-size="10.00" fill="grey"> +NoDelay</text>
</g>
<!-- Node11 -->
<g id="Node000011" class="node">
<title>Node11</title>
<g id="a_Node000011"><a xlink:href="../../d9/de9/classSaveSynchronisationOperation.html" target="_top" xlink:title=" ">
<polygon fill="white" stroke="transparent" points="982.15,-757.5 790.15,-757.5 790.15,-500.5 982.15,-500.5 982.15,-757.5"/>
<text text-anchor="start" x="810.65" y="-745" font-family="Helvetica,sans-Serif" font-size="10.00">SaveSynchronisationOperation</text>
<text text-anchor="start" x="884.15" y="-730" font-family="Helvetica,sans-Serif" font-size="10.00"> </text>
<text text-anchor="start" x="794.15" y="-715" font-family="Helvetica,sans-Serif" font-size="10.00">+</text>
<text text-anchor="start" x="807.15" y="-715" font-family="Helvetica,sans-Serif" font-size="10.00">delegate void SendDataFunction</text>
<text text-anchor="start" x="807.15" y="-704" font-family="Helvetica,sans-Serif" font-size="10.00">(byte[] messageData, int length)</text>
<text text-anchor="start" x="794.15" y="-689" font-family="Helvetica,sans-Serif" font-size="10.00">+</text>
<text text-anchor="start" x="807.15" y="-689" font-family="Helvetica,sans-Serif" font-size="10.00">SaveSynchronisationOperation</text>
<text text-anchor="start" x="807.15" y="-678" font-family="Helvetica,sans-Serif" font-size="10.00">(SendDataFunction sendOperation)</text>
<text text-anchor="start" x="794.15" y="-663" font-family="Helvetica,sans-Serif" font-size="10.00">+</text>
<text text-anchor="start" x="807.15" y="-663" font-family="Helvetica,sans-Serif" font-size="10.00">virtual void Begin()</text>
<text text-anchor="start" x="794.15" y="-648" font-family="Helvetica,sans-Serif" font-size="10.00">+</text>
<text text-anchor="start" x="807.15" y="-648" font-family="Helvetica,sans-Serif" font-size="10.00">void SendEmptyMessage</text>
<text text-anchor="start" x="807.15" y="-637" font-family="Helvetica,sans-Serif" font-size="10.00">(MessageId id)</text>
<text text-anchor="start" x="794.15" y="-622" font-family="Helvetica,sans-Serif" font-size="10.00">+</text>
<text text-anchor="start" x="807.15" y="-622" font-family="Helvetica,sans-Serif" font-size="10.00">virtual void ProcessMessage</text>
<text text-anchor="start" x="807.15" y="-611" font-family="Helvetica,sans-Serif" font-size="10.00">(MessageId messageId, byte</text>
<text text-anchor="start" x="807.15" y="-600" font-family="Helvetica,sans-Serif" font-size="10.00">[] data)</text>
<text text-anchor="start" x="794.15" y="-585" font-family="Helvetica,sans-Serif" font-size="10.00">+</text>
<text text-anchor="start" x="807.15" y="-585" font-family="Helvetica,sans-Serif" font-size="10.00">virtual void Cancel()</text>
<text text-anchor="start" x="794.15" y="-570" font-family="Helvetica,sans-Serif" font-size="10.00">+</text>
<text text-anchor="start" x="807.15" y="-570" font-family="Helvetica,sans-Serif" font-size="10.00">virtual string GetStatus()</text>
<text text-anchor="start" x="794.15" y="-555" font-family="Helvetica,sans-Serif" font-size="10.00">+</text>
<text text-anchor="start" x="807.15" y="-555" font-family="Helvetica,sans-Serif" font-size="10.00">static void WriteMessage</text>
<text text-anchor="start" x="807.15" y="-544" font-family="Helvetica,sans-Serif" font-size="10.00">Header(BinaryWriter packet,</text>
<text text-anchor="start" x="807.15" y="-533" font-family="Helvetica,sans-Serif" font-size="10.00"> MessageId id)</text>
<text text-anchor="start" x="794.15" y="-518" font-family="Helvetica,sans-Serif" font-size="10.00">+</text>
<text text-anchor="start" x="807.15" y="-518" font-family="Helvetica,sans-Serif" font-size="10.00">static void WriteMessage</text>
<text text-anchor="start" x="807.15" y="-507" font-family="Helvetica,sans-Serif" font-size="10.00">Length(BinaryWriter packet)</text>
<polygon fill="#666666" stroke="#666666" points="790.15,-740 790.15,-740 982.15,-740 982.15,-740 790.15,-740"/>
<polygon fill="#666666" stroke="#666666" points="790.15,-725 790.15,-725 982.15,-725 982.15,-725 790.15,-725"/>
<polygon fill="none" stroke="#666666" points="790.15,-500.5 790.15,-757.5 982.15,-757.5 982.15,-500.5 790.15,-500.5"/>
</a>
</g>
</g>
<!-- Node6&#45;&gt;Node11 -->
<g id="edge14_Node000011_Node000006" class="edge">
<title>Node6&#45;&gt;Node11</title>
<g id="a_edge14_Node000011_Node000006"><a xlink:title=" ">
<path fill="none" stroke="#63b8ff" d="M937.78,-842.04C941.61,-834.91 945.18,-826.89 947.15,-819 950.7,-804.77 949.87,-800.41 947.15,-786 946.14,-780.63 944.95,-775.21 943.61,-769.77"/>
<polygon fill="none" stroke="#63b8ff" points="943.52,-769.46 938.12,-764.68 940.45,-757.86 945.85,-762.63 943.52,-769.46"/>
</a>
</g>
<text text-anchor="middle" x="982.65" y="-800" font-family="Helvetica,sans-Serif" font-size="10.00" fill="grey"> +IsComplete</text>
</g>
<!-- Node7 -->
<g id="Node000007" class="node">
<title>Node7</title>
<g id="a_Node000007"><a xlink:title=" ">
<polygon fill="white" stroke="transparent" points="751.15,-891.5 719.15,-891.5 719.15,-842.5 751.15,-842.5 751.15,-891.5"/>
<text text-anchor="start" x="724.15" y="-879" font-family="Helvetica,sans-Serif" font-size="10.00">byte</text>
<text text-anchor="start" x="733.15" y="-864" font-family="Helvetica,sans-Serif" font-size="10.00"> </text>
<text text-anchor="start" x="733.15" y="-849" font-family="Helvetica,sans-Serif" font-size="10.00"> </text>
<polygon fill="#666666" stroke="#666666" points="719.15,-874 719.15,-874 751.15,-874 751.15,-874 719.15,-874"/>
<polygon fill="#666666" stroke="#666666" points="719.15,-859 719.15,-859 751.15,-859 751.15,-859 719.15,-859"/>
<polygon fill="none" stroke="#666666" points="719.15,-842.5 719.15,-891.5 751.15,-891.5 751.15,-842.5 719.15,-842.5"/>
</a>
</g>
</g>
<!-- Node7&#45;&gt;Node3 -->
<g id="edge6_Node000003_Node000007" class="edge">
<title>Node7&#45;&gt;Node3</title>
<g id="a_edge6_Node000003_Node000007"><a xlink:title=" ">
<path fill="none" stroke="#63b8ff" d="M718.91,-846.88C712.16,-838.56 704.44,-828.54 698.15,-819 689.67,-806.13 681.25,-792.51 673.08,-778.7"/>
<polygon fill="none" stroke="#63b8ff" points="672.95,-778.48 666.47,-775.32 666.9,-768.12 673.38,-771.28 672.95,-778.48"/>
</a>
</g>
<text text-anchor="middle" x="719.65" y="-805.5" font-family="Helvetica,sans-Serif" font-size="10.00" fill="grey"> &#45;header</text>
<text text-anchor="middle" x="719.65" y="-794.5" font-family="Helvetica,sans-Serif" font-size="10.00" fill="grey">&#45;payload</text>
</g>
<!-- Node7&#45;&gt;Node11 -->
<g id="edge13_Node000011_Node000007" class="edge">
<title>Node7&#45;&gt;Node11</title>
<g id="a_edge13_Node000011_Node000007"><a xlink:title=" ">
<path fill="none" stroke="#63b8ff" d="M741.55,-842.4C746.51,-826.01 754.2,-803.96 764.15,-786 769.9,-775.62 776.31,-765.21 783.11,-754.96"/>
<polygon fill="none" stroke="#63b8ff" points="783.28,-754.7 783.34,-747.49 790.02,-744.77 789.96,-751.98 783.28,-754.7"/>
</a>
</g>
<text text-anchor="middle" x="817.15" y="-800" font-family="Helvetica,sans-Serif" font-size="10.00" fill="grey"> &#45;emptyMessageData</text>
</g>
<!-- Node8 -->
<g id="Node000008" class="node">
<title>Node8</title>
<g id="a_Node000008"><a xlink:title=" ">
<polygon fill="white" stroke="transparent" points="125.65,-653.5 60.65,-653.5 60.65,-604.5 125.65,-604.5 125.65,-653.5"/>
<text text-anchor="start" x="66.15" y="-641" font-family="Helvetica,sans-Serif" font-size="10.00">TcpListener</text>
<text text-anchor="start" x="91.65" y="-626" font-family="Helvetica,sans-Serif" font-size="10.00"> </text>
<text text-anchor="start" x="91.65" y="-611" font-family="Helvetica,sans-Serif" font-size="10.00"> </text>
<polygon fill="#666666" stroke="#666666" points="61.15,-636 61.15,-636 126.15,-636 126.15,-636 61.15,-636"/>
<polygon fill="#666666" stroke="#666666" points="61.15,-621 61.15,-621 126.15,-621 126.15,-621 61.15,-621"/>
<polygon fill="none" stroke="#666666" points="60.65,-604.5 60.65,-653.5 125.65,-653.5 125.65,-604.5 60.65,-604.5"/>
</a>
</g>
</g>
<!-- Node8&#45;&gt;Node2 -->
<g id="edge7_Node000002_Node000008" class="edge">
<title>Node8&#45;&gt;Node2</title>
<g id="a_edge7_Node000002_Node000008"><a xlink:title=" ">
<path fill="none" stroke="#63b8ff" d="M96.05,-604.45C101.11,-570.48 113.94,-506.81 143.15,-461 158.04,-437.65 178.57,-416.07 199.28,-397.71"/>
<polygon fill="none" stroke="#63b8ff" points="199.38,-397.62 201.31,-390.67 208.46,-389.78 206.54,-396.72 199.38,-397.62"/>
</a>
</g>
<text text-anchor="middle" x="167.65" y="-464" font-family="Helvetica,sans-Serif" font-size="10.00" fill="grey"> +listener</text>
</g>
<!-- Node9 -->
<g id="Node000009" class="node">
<title>Node9</title>
<g id="a_Node000009"><a xlink:title=" ">
<polygon fill="white" stroke="transparent" points="188.15,-653.5 144.15,-653.5 144.15,-604.5 188.15,-604.5 188.15,-653.5"/>
<text text-anchor="start" x="149.15" y="-641" font-family="Helvetica,sans-Serif" font-size="10.00">Thread</text>
<text text-anchor="start" x="164.15" y="-626" font-family="Helvetica,sans-Serif" font-size="10.00"> </text>
<text text-anchor="start" x="164.15" y="-611" font-family="Helvetica,sans-Serif" font-size="10.00"> </text>
<polygon fill="#666666" stroke="#666666" points="144.15,-636 144.15,-636 188.15,-636 188.15,-636 144.15,-636"/>
<polygon fill="#666666" stroke="#666666" points="144.15,-621 144.15,-621 188.15,-621 188.15,-621 144.15,-621"/>
<polygon fill="none" stroke="#666666" points="144.15,-604.5 144.15,-653.5 188.15,-653.5 188.15,-604.5 144.15,-604.5"/>
</a>
</g>
</g>
<!-- Node9&#45;&gt;Node2 -->
<g id="edge8_Node000002_Node000009" class="edge">
<title>Node9&#45;&gt;Node2</title>
<g id="a_edge8_Node000002_Node000009"><a xlink:title=" ">
<path fill="none" stroke="#63b8ff" d="M168.07,-604.48C171.41,-571.38 179.96,-509.64 200.15,-461 201.13,-458.63 202.17,-456.26 203.24,-453.89"/>
<polygon fill="none" stroke="#63b8ff" points="203.36,-453.64 202.35,-446.5 208.55,-442.83 209.56,-449.97 203.36,-453.64"/>
</a>
</g>
<text text-anchor="middle" x="239.15" y="-464" font-family="Helvetica,sans-Serif" font-size="10.00" fill="grey"> &#45;listenerThread</text>
</g>
<!-- Node10 -->
<g id="Node000010" class="node">
<title>Node10</title>
<g id="a_Node000010"><a xlink:title=" ">
<polygon fill="white" stroke="transparent" points="358.15,-664.5 206.15,-664.5 206.15,-593.5 358.15,-593.5 358.15,-664.5"/>
<text text-anchor="start" x="211.15" y="-652" font-family="Helvetica,sans-Serif" font-size="10.00">ConcurrentDictionary</text>
<text text-anchor="start" x="211.15" y="-641" font-family="Helvetica,sans-Serif" font-size="10.00">&lt; int, Telepathy.Server.Client</text>
<text text-anchor="start" x="262.15" y="-630" font-family="Helvetica,sans-Serif" font-size="10.00">Token &gt;</text>
<text text-anchor="start" x="280.15" y="-615" font-family="Helvetica,sans-Serif" font-size="10.00"> </text>
<text text-anchor="start" x="280.15" y="-600" font-family="Helvetica,sans-Serif" font-size="10.00"> </text>
<polygon fill="#666666" stroke="#666666" points="206.15,-625 206.15,-625 358.15,-625 358.15,-625 206.15,-625"/>
<polygon fill="#666666" stroke="#666666" points="206.15,-610 206.15,-610 358.15,-610 358.15,-610 206.15,-610"/>
<polygon fill="none" stroke="#666666" points="206.15,-593.5 206.15,-664.5 358.15,-664.5 358.15,-593.5 206.15,-593.5"/>
</a>
</g>
</g>
<!-- Node10&#45;&gt;Node2 -->
<g id="edge9_Node000002_Node000010" class="edge">
<title>Node10&#45;&gt;Node2</title>
<g id="a_edge9_Node000002_Node000010"><a xlink:title=" ">
<path fill="none" stroke="#63b8ff" d="M282.15,-593.25C282.15,-559.09 282.15,-505.01 282.15,-455.36"/>
<polygon fill="none" stroke="#63b8ff" points="282.15,-455.19 278.15,-449.19 282.15,-443.19 286.15,-449.19 282.15,-455.19"/>
</a>
</g>
<text text-anchor="middle" x="302.15" y="-464" font-family="Helvetica,sans-Serif" font-size="10.00" fill="grey"> &#45;clients</text>
</g>
<!-- Node11&#45;&gt;Node1 -->
<g id="edge11_Node000001_Node000011" class="edge">
<title>Node11&#45;&gt;Node1</title>
<g id="a_edge11_Node000001_Node000011"><a xlink:title=" ">
<path fill="none" stroke="#63b8ff" d="M790.11,-542.85C674.05,-439.95 480.47,-268.33 368.79,-169.31"/>
<polygon fill="none" stroke="#63b8ff" points="368.55,-169.1 361.41,-168.11 359.57,-161.14 366.71,-162.13 368.55,-169.1"/>
</a>
</g>
<text text-anchor="middle" x="721.15" y="-334" font-family="Helvetica,sans-Serif" font-size="10.00" fill="grey"> +CurrentOperation</text>
</g>
<!-- Node12 -->
<g id="Node000012" class="node">
<title>Node12</title>
<g id="a_Node000012"><a xlink:title=" ">
<polygon fill="white" stroke="transparent" points="1131.65,-891.5 986.65,-891.5 986.65,-842.5 1131.65,-842.5 1131.65,-891.5"/>
<text text-anchor="start" x="992.15" y="-879" font-family="Helvetica,sans-Serif" font-size="10.00">readonly SendDataFunction</text>
<text text-anchor="start" x="1057.65" y="-864" font-family="Helvetica,sans-Serif" font-size="10.00"> </text>
<text text-anchor="start" x="1057.65" y="-849" font-family="Helvetica,sans-Serif" font-size="10.00"> </text>
<polygon fill="#666666" stroke="#666666" points="987.15,-874 987.15,-874 1132.15,-874 1132.15,-874 987.15,-874"/>
<polygon fill="#666666" stroke="#666666" points="987.15,-859 987.15,-859 1132.15,-859 1132.15,-859 987.15,-859"/>
<polygon fill="none" stroke="#666666" points="986.65,-842.5 986.65,-891.5 1131.65,-891.5 1131.65,-842.5 986.65,-842.5"/>
</a>
</g>
</g>
<!-- Node12&#45;&gt;Node11 -->
<g id="edge12_Node000011_Node000012" class="edge">
<title>Node12&#45;&gt;Node11</title>
<g id="a_edge12_Node000011_Node000012"><a xlink:title=" ">
<path fill="none" stroke="#63b8ff" d="M1049.55,-842.39C1042.44,-825.99 1031.95,-803.95 1020.15,-786 1010.91,-771.94 1000.53,-757.77 989.74,-744.01"/>
<polygon fill="none" stroke="#63b8ff" points="989.69,-743.94 982.82,-741.74 982.22,-734.55 989.08,-736.76 989.69,-743.94"/>
</a>
</g>
<text text-anchor="middle" x="1067.65" y="-800" font-family="Helvetica,sans-Serif" font-size="10.00" fill="grey"> #SendData</text>
</g>
</g>
</svg>

<g id="navigator" transform="translate(0 0)" fill="#404254">
  <rect fill="#f2f5e9" fill-opacity="0.5" stroke="#606060" stroke-width=".5" x="0" y="0" width="60" height="60"/>
  <use id="zoomplus" xlink:href="#zoomPlus" x="17" y="9" onmousedown="handleZoom(evt,'in')"/>
  <use id="zoomminus" xlink:href="#zoomMin" x="42" y="9" onmousedown="handleZoom(evt,'out')"/>
  <use id="reset" xlink:href="#resetDef" x="30" y="36" onmousedown="handleReset()"/>
   <use id="arrowup" xlink:href="#arrowUp" x="0" y="0" onmousedown="handlePan(0,-1)"/>
  <use id="arrowright" xlink:href="#arrowRight" x="0" y="0" onmousedown="handlePan(1,0)"/>
  <use id="arrowdown" xlink:href="#arrowDown" x="0" y="0" onmousedown="handlePan(0,1)"/>
  <use id="arrowleft" xlink:href="#arrowLeft" x="0" y="0" onmousedown="handlePan(-1,0)"/>
</g>
<svg viewBox="0 0 15 15" width="100%" height="30px" preserveAspectRatio="xMaxYMin meet">
 <g id="arrow_out" transform="scale(0.3 0.3)">
  <a xlink:href="classSaveSynchronisationHost__coll__graph_org.svg" target="_base">
   <rect id="button" ry="5" rx="5" y="6" x="6" height="38" width="38"
        fill="#f2f5e9" fill-opacity="0.5" stroke="#606060" stroke-width="1.0"/>
   <path id="arrow"
     d="M 11.500037,31.436501 C 11.940474,20.09759 22.043105,11.32322 32.158766,21.979434 L 37.068811,17.246167 C 37.068811,17.246167 37.088388,32 37.088388,32 L 22.160133,31.978069 C 22.160133,31.978069 26.997745,27.140456 26.997745,27.140456 C 18.528582,18.264221 13.291696,25.230495 11.500037,31.436501 z"
     style="fill:#404040;"/>
  </a>
 </g>
</svg>

<style type='text/css'>
<![CDATA[
[data-mouse-over-selected='false'] { opacity: 0.7; }
[data-mouse-over-selected='true']  { opacity: 1.0; }
]]>
</style>
<script type="application/ecmascript"><![CDATA[
document.addEventListener('DOMContentLoaded', (event) => {
  highlightEdges();
  highlightAdjacentNodes();
});
]]></script>
</svg>
