<?xml version="1.0" encoding="UTF-8" standalone="no"?>
<!DOCTYPE svg PUBLIC "-//W3C//DTD SVG 1.1//EN"
 "http://www.w3.org/Graphics/SVG/1.1/DTD/svg11.dtd">
<!-- Generated by graphviz version 2.43.0 (0)
 -->
<!-- Title: EventArgs Pages: 1 -->
<svg width="822pt" height="190pt"
 viewBox="0.00 0.00 821.50 190.00" xmlns="http://www.w3.org/2000/svg" xmlns:xlink="http://www.w3.org/1999/xlink">
<g id="graph0" class="graph" transform="scale(1 1) rotate(0) translate(4 186)">
<title>EventArgs</title>
<!-- Node1 -->
<g id="Node000001" class="node">
<title>Node1</title>
<g id="a_Node000001"><a xlink:title=" ">
<polygon fill="#999999" stroke="transparent" points="432,-182 372,-182 372,-133 432,-133 432,-182"/>
<text text-anchor="start" x="377" y="-169.5" font-family="Helvetica,sans-Serif" font-size="10.00">EventArgs</text>
<text text-anchor="start" x="400" y="-154.5" font-family="Helvetica,sans-Serif" font-size="10.00"> </text>
<text text-anchor="start" x="400" y="-139.5" font-family="Helvetica,sans-Serif" font-size="10.00"> </text>
<polygon fill="#666666" stroke="#666666" points="372,-164.5 372,-164.5 432,-164.5 432,-164.5 372,-164.5"/>
<polygon fill="#666666" stroke="#666666" points="372,-149.5 372,-149.5 432,-149.5 432,-149.5 372,-149.5"/>
<polygon fill="none" stroke="#666666" points="372,-133 372,-182 432,-182 432,-133 372,-133"/>
</a>
</g>
</g>
<!-- Node2 -->
<g id="Node000002" class="node">
<title>Node2</title>
<g id="a_Node000002"><a xlink:href="../../d7/dbd/classMicrosoft_1_1Xna_1_1Framework_1_1GameComponentCollectionEventArgs.html" target="_top" xlink:title=" ">
<polygon fill="white" stroke="transparent" points="202,-97 0,-97 0,0 202,0 202,-97"/>
<text text-anchor="start" x="9" y="-84.5" font-family="Helvetica,sans-Serif" font-size="10.00">Microsoft.Xna.Framework.</text>
<text text-anchor="start" x="9" y="-73.5" font-family="Helvetica,sans-Serif" font-size="10.00">GameComponentCollectionEventArgs</text>
<text text-anchor="start" x="4" y="-58.5" font-family="Helvetica,sans-Serif" font-size="10.00">+</text>
<text text-anchor="start" x="17" y="-58.5" font-family="Helvetica,sans-Serif" font-size="10.00">IGameComponent GameComponent</text>
<text text-anchor="start" x="6.5" y="-43.5" font-family="Helvetica,sans-Serif" font-size="10.00">&#45;</text>
<text text-anchor="start" x="17" y="-43.5" font-family="Helvetica,sans-Serif" font-size="10.00">IGameComponent _gameComponent</text>
<text text-anchor="start" x="4" y="-28.5" font-family="Helvetica,sans-Serif" font-size="10.00">+</text>
<text text-anchor="start" x="17" y="-28.5" font-family="Helvetica,sans-Serif" font-size="10.00">GameComponentCollection</text>
<text text-anchor="start" x="17" y="-17.5" font-family="Helvetica,sans-Serif" font-size="10.00">EventArgs(IGameComponent</text>
<text text-anchor="start" x="17" y="-6.5" font-family="Helvetica,sans-Serif" font-size="10.00"> gameComponent)</text>
<polygon fill="#666666" stroke="#666666" points="0,-68.5 0,-68.5 202,-68.5 202,-68.5 0,-68.5"/>
<polygon fill="#666666" stroke="#666666" points="0,-38.5 0,-38.5 15,-38.5 15,-38.5 0,-38.5"/>
<polygon fill="#666666" stroke="#666666" points="15,-38.5 15,-38.5 202,-38.5 202,-38.5 15,-38.5"/>
<polygon fill="none" stroke="#666666" points="0,0 0,-97 202,-97 202,0 0,0"/>
</a>
</g>
</g>
<!-- Node1&#45;&gt;Node2 -->
<g id="edge1_Node000001_Node000002" class="edge">
<title>Node1&#45;&gt;Node2</title>
<g id="a_edge1_Node000001_Node000002"><a xlink:title=" ">
<path fill="none" stroke="#63b8ff" d="M362,-145.38C323.07,-134.24 262.42,-116.05 211,-97 208.07,-95.92 205.11,-94.8 202.13,-93.65"/>
<polygon fill="none" stroke="#63b8ff" points="361.32,-148.82 371.9,-148.19 363.23,-142.09 361.32,-148.82"/>
</a>
</g>
</g>
<!-- Node3 -->
<g id="Node000003" class="node">
<title>Node3</title>
<g id="a_Node000003"><a xlink:href="../../d8/dde/classMicrosoft_1_1Xna_1_1Framework_1_1Graphics_1_1PresentationEventArgs.html" target="_top" xlink:title=" ">
<polygon fill="white" stroke="transparent" points="387.5,-95 220.5,-95 220.5,-2 387.5,-2 387.5,-95"/>
<text text-anchor="start" x="226" y="-82.5" font-family="Helvetica,sans-Serif" font-size="10.00">Microsoft.Xna.Framework.</text>
<text text-anchor="start" x="226" y="-71.5" font-family="Helvetica,sans-Serif" font-size="10.00">Graphics.PresentationEventArgs</text>
<text text-anchor="start" x="230.5" y="-56.5" font-family="Helvetica,sans-Serif" font-size="10.00">+</text>
<text text-anchor="start" x="249" y="-56.5" font-family="Helvetica,sans-Serif" font-size="10.00">PresentationParameters</text>
<text text-anchor="start" x="249" y="-45.5" font-family="Helvetica,sans-Serif" font-size="10.00"> PresentationParameters</text>
<text text-anchor="start" x="230.5" y="-30.5" font-family="Helvetica,sans-Serif" font-size="10.00">+</text>
<text text-anchor="start" x="249" y="-30.5" font-family="Helvetica,sans-Serif" font-size="10.00">PresentationEventArgs</text>
<text text-anchor="start" x="249" y="-19.5" font-family="Helvetica,sans-Serif" font-size="10.00">(PresentationParameters</text>
<text text-anchor="start" x="249" y="-8.5" font-family="Helvetica,sans-Serif" font-size="10.00"> presentationParameters)</text>
<polygon fill="#666666" stroke="#666666" points="221,-66.5 221,-66.5 388,-66.5 388,-66.5 221,-66.5"/>
<polygon fill="#666666" stroke="#666666" points="221,-40.5 221,-40.5 247,-40.5 247,-40.5 221,-40.5"/>
<polygon fill="#666666" stroke="#666666" points="247,-40.5 247,-40.5 388,-40.5 388,-40.5 247,-40.5"/>
<polygon fill="none" stroke="#666666" points="220.5,-2 220.5,-95 387.5,-95 387.5,-2 220.5,-2"/>
</a>
</g>
</g>
<!-- Node1&#45;&gt;Node3 -->
<g id="edge2_Node000001_Node000003" class="edge">
<title>Node1&#45;&gt;Node3</title>
<g id="a_edge2_Node000001_Node000003"><a xlink:title=" ">
<path fill="none" stroke="#63b8ff" d="M373.29,-125.15C364.69,-115.76 355.07,-105.26 345.8,-95.14"/>
<polygon fill="none" stroke="#63b8ff" points="370.92,-127.74 380.25,-132.75 376.08,-123.01 370.92,-127.74"/>
</a>
</g>
</g>
<!-- Node4 -->
<g id="Node000004" class="node">
<title>Node4</title>
<g id="a_Node000004"><a xlink:href="../../d4/d09/classMicrosoft_1_1Xna_1_1Framework_1_1Graphics_1_1ResourceCreatedEventArgs.html" target="_top" xlink:title=" ">
<polygon fill="white" stroke="transparent" points="594.5,-78.5 405.5,-78.5 405.5,-18.5 594.5,-18.5 594.5,-78.5"/>
<text text-anchor="start" x="411" y="-66.5" font-family="Helvetica,sans-Serif" font-size="10.00">Microsoft.Xna.Framework.</text>
<text text-anchor="start" x="411" y="-55.5" font-family="Helvetica,sans-Serif" font-size="10.00">Graphics.ResourceCreatedEventArgs</text>
<text text-anchor="start" x="416.5" y="-40.5" font-family="Helvetica,sans-Serif" font-size="10.00">+</text>
<text text-anchor="start" x="436" y="-40.5" font-family="Helvetica,sans-Serif" font-size="10.00">object Resource</text>
<text text-anchor="start" x="416.5" y="-25.5" font-family="Helvetica,sans-Serif" font-size="10.00">+</text>
<text text-anchor="start" x="436" y="-25.5" font-family="Helvetica,sans-Serif" font-size="10.00">ResourceCreatedEventArgs()</text>
<polygon fill="#666666" stroke="#666666" points="406,-50.5 406,-50.5 595,-50.5 595,-50.5 406,-50.5"/>
<polygon fill="#666666" stroke="#666666" points="406,-35.5 406,-35.5 434,-35.5 434,-35.5 406,-35.5"/>
<polygon fill="#666666" stroke="#666666" points="434,-35.5 434,-35.5 595,-35.5 595,-35.5 434,-35.5"/>
<polygon fill="none" stroke="#666666" points="405.5,-18.5 405.5,-78.5 594.5,-78.5 594.5,-18.5 405.5,-18.5"/>
</a>
</g>
</g>
<!-- Node1&#45;&gt;Node4 -->
<g id="edge3_Node000001_Node000004" class="edge">
<title>Node1&#45;&gt;Node4</title>
<g id="a_edge3_Node000001_Node000004"><a xlink:title=" ">
<path fill="none" stroke="#63b8ff" d="M430.57,-125.31C444.1,-110.54 460.16,-93 473.42,-78.52"/>
<polygon fill="none" stroke="#63b8ff" points="427.92,-123.01 423.75,-132.75 433.08,-127.74 427.92,-123.01"/>
</a>
</g>
</g>
<!-- Node5 -->
<g id="Node000005" class="node">
<title>Node5</title>
<g id="a_Node000005"><a xlink:href="../../d1/d8b/classMicrosoft_1_1Xna_1_1Framework_1_1Graphics_1_1ResourceDestroyedEventArgs.html" target="_top" xlink:title=" ">
<polygon fill="white" stroke="transparent" points="813.5,-86 612.5,-86 612.5,-11 813.5,-11 813.5,-86"/>
<text text-anchor="start" x="618" y="-73.5" font-family="Helvetica,sans-Serif" font-size="10.00">Microsoft.Xna.Framework.</text>
<text text-anchor="start" x="618" y="-62.5" font-family="Helvetica,sans-Serif" font-size="10.00">Graphics.ResourceDestroyedEventArgs</text>
<text text-anchor="start" x="623.5" y="-47.5" font-family="Helvetica,sans-Serif" font-size="10.00">+</text>
<text text-anchor="start" x="643" y="-47.5" font-family="Helvetica,sans-Serif" font-size="10.00">string Name</text>
<text text-anchor="start" x="623.5" y="-32.5" font-family="Helvetica,sans-Serif" font-size="10.00">+</text>
<text text-anchor="start" x="643" y="-32.5" font-family="Helvetica,sans-Serif" font-size="10.00">object Tag</text>
<text text-anchor="start" x="623.5" y="-17.5" font-family="Helvetica,sans-Serif" font-size="10.00">+</text>
<text text-anchor="start" x="643" y="-17.5" font-family="Helvetica,sans-Serif" font-size="10.00">ResourceDestroyedEventArgs()</text>
<polygon fill="#666666" stroke="#666666" points="613,-57.5 613,-57.5 814,-57.5 814,-57.5 613,-57.5"/>
<polygon fill="#666666" stroke="#666666" points="613,-27.5 613,-27.5 641,-27.5 641,-27.5 613,-27.5"/>
<polygon fill="#666666" stroke="#666666" points="641,-27.5 641,-27.5 814,-27.5 814,-27.5 641,-27.5"/>
<polygon fill="none" stroke="#666666" points="612.5,-11 612.5,-86 813.5,-86 813.5,-11 612.5,-11"/>
</a>
</g>
</g>
<!-- Node1&#45;&gt;Node5 -->
<g id="edge4_Node000001_Node000005" class="edge">
<title>Node1&#45;&gt;Node5</title>
<g id="a_edge4_Node000001_Node000005"><a xlink:title=" ">
<path fill="none" stroke="#63b8ff" d="M442.06,-146.28C483.16,-135.43 548.73,-117.1 604,-97 613.22,-93.65 622.76,-89.91 632.2,-86.03"/>
<polygon fill="none" stroke="#63b8ff" points="440.94,-142.96 432.15,-148.88 442.71,-149.73 440.94,-142.96"/>
</a>
</g>
</g>
</g>
</svg>
