<?xml version="1.0" encoding="UTF-8" standalone="no"?>
<!DOCTYPE svg PUBLIC "-//W3C//DTD SVG 1.1//EN"
 "http://www.w3.org/Graphics/SVG/1.1/DTD/svg11.dtd">
<!-- Generated by graphviz version 2.43.0 (0)
 -->
<!-- Title: Terraria.Graphics.Renderers.ReturnGatePlayerRenderer Pages: 1 -->
<svg width="539pt" height="849pt"
 viewBox="0.00 0.00 538.50 849.00" xmlns="http://www.w3.org/2000/svg" xmlns:xlink="http://www.w3.org/1999/xlink">
<g id="graph0" class="graph" transform="scale(1 1) rotate(0) translate(4 845)">
<title>Terraria.Graphics.Renderers.ReturnGatePlayerRenderer</title>
<!-- Node1 -->
<g id="Node000001" class="node">
<title>Node1</title>
<g id="a_Node000001"><a xlink:title=" ">
<polygon fill="#999999" stroke="transparent" points="383,-315 173,-315 173,0 383,0 383,-315"/>
<text text-anchor="start" x="208.5" y="-302.5" font-family="Helvetica,sans-Serif" font-size="10.00">Terraria.Graphics.Renderers.</text>
<text text-anchor="start" x="212.5" y="-291.5" font-family="Helvetica,sans-Serif" font-size="10.00">ReturnGatePlayerRenderer</text>
<text text-anchor="start" x="276" y="-276.5" font-family="Helvetica,sans-Serif" font-size="10.00"> </text>
<text text-anchor="start" x="177" y="-261.5" font-family="Helvetica,sans-Serif" font-size="10.00">+</text>
<text text-anchor="start" x="190" y="-261.5" font-family="Helvetica,sans-Serif" font-size="10.00">void DrawPlayers(Camera</text>
<text text-anchor="start" x="190" y="-250.5" font-family="Helvetica,sans-Serif" font-size="10.00"> camera, IEnumerable&lt;</text>
<text text-anchor="start" x="190" y="-239.5" font-family="Helvetica,sans-Serif" font-size="10.00"> Player &gt; players)</text>
<text text-anchor="start" x="177" y="-224.5" font-family="Helvetica,sans-Serif" font-size="10.00">+</text>
<text text-anchor="start" x="190" y="-224.5" font-family="Helvetica,sans-Serif" font-size="10.00">void DrawPlayerHead</text>
<text text-anchor="start" x="190" y="-213.5" font-family="Helvetica,sans-Serif" font-size="10.00">(Camera camera, Player</text>
<text text-anchor="start" x="190" y="-202.5" font-family="Helvetica,sans-Serif" font-size="10.00"> drawPlayer, Vector2 position,</text>
<text text-anchor="start" x="190" y="-191.5" font-family="Helvetica,sans-Serif" font-size="10.00"> float alpha=1f, float scale</text>
<text text-anchor="start" x="190" y="-180.5" font-family="Helvetica,sans-Serif" font-size="10.00">=1f, [Optional] Color borderColor)</text>
<text text-anchor="start" x="177" y="-165.5" font-family="Helvetica,sans-Serif" font-size="10.00">+</text>
<text text-anchor="start" x="190" y="-165.5" font-family="Helvetica,sans-Serif" font-size="10.00">void DrawPlayer(Camera</text>
<text text-anchor="start" x="190" y="-154.5" font-family="Helvetica,sans-Serif" font-size="10.00"> camera, Player drawPlayer,</text>
<text text-anchor="start" x="190" y="-143.5" font-family="Helvetica,sans-Serif" font-size="10.00"> Vector2 position, float</text>
<text text-anchor="start" x="190" y="-132.5" font-family="Helvetica,sans-Serif" font-size="10.00"> rotation, Vector2 rotationOrigin,</text>
<text text-anchor="start" x="190" y="-121.5" font-family="Helvetica,sans-Serif" font-size="10.00"> float shadow=0f, float scale=1f,</text>
<text text-anchor="start" x="190" y="-110.5" font-family="Helvetica,sans-Serif" font-size="10.00"> [Optional] Vector2[] positionalOffsets)</text>
<text text-anchor="start" x="177" y="-95.5" font-family="Helvetica,sans-Serif" font-size="10.00">+</text>
<text text-anchor="start" x="190" y="-95.5" font-family="Helvetica,sans-Serif" font-size="10.00">void OverReturnGateInWorld</text>
<text text-anchor="start" x="190" y="-84.5" font-family="Helvetica,sans-Serif" font-size="10.00">(Player player)</text>
<text text-anchor="start" x="177" y="-69.5" font-family="Helvetica,sans-Serif" font-size="10.00">+</text>
<text text-anchor="start" x="190" y="-69.5" font-family="Helvetica,sans-Serif" font-size="10.00">ReturnGatePlayerRenderer()</text>
<text text-anchor="start" x="179.5" y="-54.5" font-family="Helvetica,sans-Serif" font-size="10.00">&#45;</text>
<text text-anchor="start" x="190" y="-54.5" font-family="Helvetica,sans-Serif" font-size="10.00">void DrawReturnGateInMap</text>
<text text-anchor="start" x="190" y="-43.5" font-family="Helvetica,sans-Serif" font-size="10.00">(Camera camera, Player</text>
<text text-anchor="start" x="190" y="-32.5" font-family="Helvetica,sans-Serif" font-size="10.00"> player)</text>
<text text-anchor="start" x="179.5" y="-17.5" font-family="Helvetica,sans-Serif" font-size="10.00">&#45;</text>
<text text-anchor="start" x="190" y="-17.5" font-family="Helvetica,sans-Serif" font-size="10.00">void DrawReturnGateInWorld</text>
<text text-anchor="start" x="190" y="-6.5" font-family="Helvetica,sans-Serif" font-size="10.00">(Camera camera, Player player)</text>
<polygon fill="#666666" stroke="#666666" points="173,-286.5 173,-286.5 383,-286.5 383,-286.5 173,-286.5"/>
<polygon fill="#666666" stroke="#666666" points="173,-271.5 173,-271.5 383,-271.5 383,-271.5 173,-271.5"/>
<polygon fill="none" stroke="#666666" points="173,0 173,-315 383,-315 383,0 173,0"/>
</a>
</g>
</g>
<!-- Node2 -->
<g id="Node000002" class="node">
<title>Node2</title>
<g id="a_Node000002"><a xlink:href="../../d9/dd0/interfaceTerraria_1_1Graphics_1_1Renderers_1_1IPlayerRenderer.html" target="_top" xlink:title=" ">
<polygon fill="white" stroke="transparent" points="210,-571.5 0,-571.5 0,-371.5 210,-371.5 210,-571.5"/>
<text text-anchor="start" x="65.5" y="-559.5" font-family="Helvetica,sans-Serif" font-size="10.00">IPlayerRenderer</text>
<text text-anchor="start" x="103" y="-544.5" font-family="Helvetica,sans-Serif" font-size="10.00"> </text>
<text text-anchor="start" x="4" y="-529.5" font-family="Helvetica,sans-Serif" font-size="10.00">+</text>
<text text-anchor="start" x="17" y="-529.5" font-family="Helvetica,sans-Serif" font-size="10.00">void DrawPlayers(Camera</text>
<text text-anchor="start" x="17" y="-518.5" font-family="Helvetica,sans-Serif" font-size="10.00"> camera, IEnumerable&lt;</text>
<text text-anchor="start" x="17" y="-507.5" font-family="Helvetica,sans-Serif" font-size="10.00"> Player &gt; players)</text>
<text text-anchor="start" x="4" y="-492.5" font-family="Helvetica,sans-Serif" font-size="10.00">+</text>
<text text-anchor="start" x="17" y="-492.5" font-family="Helvetica,sans-Serif" font-size="10.00">void DrawPlayerHead</text>
<text text-anchor="start" x="17" y="-481.5" font-family="Helvetica,sans-Serif" font-size="10.00">(Camera camera, Player</text>
<text text-anchor="start" x="17" y="-470.5" font-family="Helvetica,sans-Serif" font-size="10.00"> drawPlayer, Vector2 position,</text>
<text text-anchor="start" x="17" y="-459.5" font-family="Helvetica,sans-Serif" font-size="10.00"> float alpha=1f, float scale</text>
<text text-anchor="start" x="17" y="-448.5" font-family="Helvetica,sans-Serif" font-size="10.00">=1f, [Optional] Color borderColor)</text>
<text text-anchor="start" x="4" y="-433.5" font-family="Helvetica,sans-Serif" font-size="10.00">+</text>
<text text-anchor="start" x="17" y="-433.5" font-family="Helvetica,sans-Serif" font-size="10.00">void DrawPlayer(Camera</text>
<text text-anchor="start" x="17" y="-422.5" font-family="Helvetica,sans-Serif" font-size="10.00"> camera, Player drawPlayer,</text>
<text text-anchor="start" x="17" y="-411.5" font-family="Helvetica,sans-Serif" font-size="10.00"> Vector2 position, float</text>
<text text-anchor="start" x="17" y="-400.5" font-family="Helvetica,sans-Serif" font-size="10.00"> rotation, Vector2 rotationOrigin,</text>
<text text-anchor="start" x="17" y="-389.5" font-family="Helvetica,sans-Serif" font-size="10.00"> float shadow=0f, float scale=1f,</text>
<text text-anchor="start" x="17" y="-378.5" font-family="Helvetica,sans-Serif" font-size="10.00"> [Optional] Vector2[] positionalOffsets)</text>
<polygon fill="#666666" stroke="#666666" points="0,-554.5 0,-554.5 210,-554.5 210,-554.5 0,-554.5"/>
<polygon fill="#666666" stroke="#666666" points="0,-539.5 0,-539.5 210,-539.5 210,-539.5 0,-539.5"/>
<polygon fill="none" stroke="#666666" points="0,-371.5 0,-571.5 210,-571.5 210,-371.5 0,-371.5"/>
</a>
</g>
</g>
<!-- Node2&#45;&gt;Node1 -->
<g id="edge1_Node000001_Node000002" class="edge">
<title>Node2&#45;&gt;Node1</title>
<g id="a_edge1_Node000001_Node000002"><a xlink:title=" ">
<path fill="none" stroke="#63b8ff" d="M164.92,-362.44C173.39,-347.15 182.24,-331.19 191.1,-315.22"/>
<polygon fill="none" stroke="#63b8ff" points="161.76,-360.91 159.98,-371.35 167.89,-364.3 161.76,-360.91"/>
</a>
</g>
</g>
<!-- Node3 -->
<g id="Node000003" class="node">
<title>Node3</title>
<g id="a_Node000003"><a xlink:title=" ">
<polygon fill="white" stroke="transparent" points="327.5,-496 228.5,-496 228.5,-447 327.5,-447 327.5,-496"/>
<text text-anchor="start" x="234" y="-483.5" font-family="Helvetica,sans-Serif" font-size="10.00">List&lt; DrawData &gt;</text>
<text text-anchor="start" x="276.5" y="-468.5" font-family="Helvetica,sans-Serif" font-size="10.00"> </text>
<text text-anchor="start" x="276.5" y="-453.5" font-family="Helvetica,sans-Serif" font-size="10.00"> </text>
<polygon fill="#666666" stroke="#666666" points="229,-478.5 229,-478.5 328,-478.5 328,-478.5 229,-478.5"/>
<polygon fill="#666666" stroke="#666666" points="229,-463.5 229,-463.5 328,-463.5 328,-463.5 229,-463.5"/>
<polygon fill="none" stroke="#666666" points="228.5,-447 228.5,-496 327.5,-496 327.5,-447 228.5,-447"/>
</a>
</g>
</g>
<!-- Node3&#45;&gt;Node1 -->
<g id="edge2_Node000001_Node000003" class="edge">
<title>Node3&#45;&gt;Node1</title>
<g id="a_edge2_Node000001_Node000003"><a xlink:title=" ">
<path fill="none" stroke="#63b8ff" d="M278,-446.79C278,-420.18 278,-374.51 278,-327.26"/>
<polygon fill="none" stroke="#63b8ff" points="278,-327.23 274,-321.23 278,-315.23 282,-321.23 278,-327.23"/>
</a>
</g>
<text text-anchor="middle" x="317.5" y="-336" font-family="Helvetica,sans-Serif" font-size="10.00" fill="grey"> &#45;_voidLensData</text>
</g>
<!-- Node4 -->
<g id="Node000004" class="node">
<title>Node4</title>
<g id="a_Node000004"><a xlink:href="../../dc/d37/classTerraria_1_1GameContent_1_1ObjectInteractions_1_1PotionOfReturnGateInteractionChecker.html" target="_top" xlink:title=" ">
<polygon fill="white" stroke="transparent" points="530.5,-581 345.5,-581 345.5,-362 530.5,-362 530.5,-581"/>
<text text-anchor="start" x="359" y="-568.5" font-family="Helvetica,sans-Serif" font-size="10.00">Terraria.GameContent.Object</text>
<text text-anchor="start" x="359" y="-557.5" font-family="Helvetica,sans-Serif" font-size="10.00">Interactions.PotionOfReturnGate</text>
<text text-anchor="start" x="392.5" y="-546.5" font-family="Helvetica,sans-Serif" font-size="10.00">InteractionChecker</text>
<text text-anchor="start" x="436.5" y="-531.5" font-family="Helvetica,sans-Serif" font-size="10.00"> </text>
<text text-anchor="start" x="350" y="-516.5" font-family="Helvetica,sans-Serif" font-size="10.00">+</text>
<text text-anchor="start" x="363" y="-516.5" font-family="Helvetica,sans-Serif" font-size="10.00">PotionOfReturnGateInteraction</text>
<text text-anchor="start" x="363" y="-505.5" font-family="Helvetica,sans-Serif" font-size="10.00">Checker()</text>
<text text-anchor="start" x="350" y="-490.5" font-family="Helvetica,sans-Serif" font-size="10.00">~</text>
<text text-anchor="start" x="363" y="-490.5" font-family="Helvetica,sans-Serif" font-size="10.00">override? bool AttemptOverriding</text>
<text text-anchor="start" x="363" y="-479.5" font-family="Helvetica,sans-Serif" font-size="10.00">HoverStatus(Player player,</text>
<text text-anchor="start" x="363" y="-468.5" font-family="Helvetica,sans-Serif" font-size="10.00"> Rectangle rectangle)</text>
<text text-anchor="start" x="350" y="-453.5" font-family="Helvetica,sans-Serif" font-size="10.00">~</text>
<text text-anchor="start" x="363" y="-453.5" font-family="Helvetica,sans-Serif" font-size="10.00">override void DoHoverEffect</text>
<text text-anchor="start" x="363" y="-442.5" font-family="Helvetica,sans-Serif" font-size="10.00">(Player player, Rectangle</text>
<text text-anchor="start" x="363" y="-431.5" font-family="Helvetica,sans-Serif" font-size="10.00"> hitbox)</text>
<text text-anchor="start" x="350" y="-416.5" font-family="Helvetica,sans-Serif" font-size="10.00">~</text>
<text text-anchor="start" x="363" y="-416.5" font-family="Helvetica,sans-Serif" font-size="10.00">override bool ShouldBlock</text>
<text text-anchor="start" x="363" y="-405.5" font-family="Helvetica,sans-Serif" font-size="10.00">Interaction(Player player,</text>
<text text-anchor="start" x="363" y="-394.5" font-family="Helvetica,sans-Serif" font-size="10.00"> Rectangle hitbox)</text>
<text text-anchor="start" x="350" y="-379.5" font-family="Helvetica,sans-Serif" font-size="10.00">~</text>
<text text-anchor="start" x="363" y="-379.5" font-family="Helvetica,sans-Serif" font-size="10.00">override void PerformInteraction</text>
<text text-anchor="start" x="363" y="-368.5" font-family="Helvetica,sans-Serif" font-size="10.00">(Player player, Rectangle hitbox)</text>
<polygon fill="#666666" stroke="#666666" points="346,-541.5 346,-541.5 531,-541.5 531,-541.5 346,-541.5"/>
<polygon fill="#666666" stroke="#666666" points="346,-526.5 346,-526.5 531,-526.5 531,-526.5 346,-526.5"/>
<polygon fill="none" stroke="#666666" points="345.5,-362 345.5,-581 530.5,-581 530.5,-362 345.5,-362"/>
</a>
</g>
</g>
<!-- Node4&#45;&gt;Node1 -->
<g id="edge3_Node000001_Node000004" class="edge">
<title>Node4&#45;&gt;Node1</title>
<g id="a_edge3_Node000001_Node000004"><a xlink:title=" ">
<path fill="none" stroke="#63b8ff" d="M382.26,-361.82C376.27,-350.12 370.07,-338.03 363.82,-325.85"/>
<polygon fill="none" stroke="#63b8ff" points="363.8,-325.8 357.5,-322.29 358.32,-315.12 364.62,-318.64 363.8,-325.8"/>
</a>
</g>
<text text-anchor="middle" x="424" y="-336" font-family="Helvetica,sans-Serif" font-size="10.00" fill="grey"> &#45;_interactionChecker</text>
</g>
<!-- Node5 -->
<g id="Node000005" class="node">
<title>Node5</title>
<g id="a_Node000005"><a xlink:href="../../d1/d7d/classTerraria_1_1GameContent_1_1ObjectInteractions_1_1AHoverInteractionChecker.html" target="_top" xlink:title=" ">
<polygon fill="white" stroke="transparent" points="530,-841 346,-841 346,-618 530,-618 530,-841"/>
<text text-anchor="start" x="374" y="-828.5" font-family="Helvetica,sans-Serif" font-size="10.00">AHoverInteractionChecker</text>
<text text-anchor="start" x="436" y="-813.5" font-family="Helvetica,sans-Serif" font-size="10.00"> </text>
<text text-anchor="start" x="350" y="-798.5" font-family="Helvetica,sans-Serif" font-size="10.00">~</text>
<text text-anchor="start" x="363" y="-798.5" font-family="Helvetica,sans-Serif" font-size="10.00">HoverStatus AttemptInteraction</text>
<text text-anchor="start" x="363" y="-787.5" font-family="Helvetica,sans-Serif" font-size="10.00">(Player player, Rectangle Hitbox)</text>
<text text-anchor="start" x="350" y="-772.5" font-family="Helvetica,sans-Serif" font-size="10.00">~</text>
<text text-anchor="start" x="363" y="-772.5" font-family="Helvetica,sans-Serif" font-size="10.00">bool? AttemptOverridingHover</text>
<text text-anchor="start" x="363" y="-761.5" font-family="Helvetica,sans-Serif" font-size="10.00">Status(Player player, Rectangle</text>
<text text-anchor="start" x="363" y="-750.5" font-family="Helvetica,sans-Serif" font-size="10.00"> rectangle)</text>
<text text-anchor="start" x="350" y="-735.5" font-family="Helvetica,sans-Serif" font-size="10.00">~</text>
<text text-anchor="start" x="363" y="-735.5" font-family="Helvetica,sans-Serif" font-size="10.00">void DoHoverEffect</text>
<text text-anchor="start" x="363" y="-724.5" font-family="Helvetica,sans-Serif" font-size="10.00">(Player player, Rectangle</text>
<text text-anchor="start" x="363" y="-713.5" font-family="Helvetica,sans-Serif" font-size="10.00"> hitbox)</text>
<text text-anchor="start" x="350" y="-698.5" font-family="Helvetica,sans-Serif" font-size="10.00">~</text>
<text text-anchor="start" x="363" y="-698.5" font-family="Helvetica,sans-Serif" font-size="10.00">bool ShouldBlockInteraction</text>
<text text-anchor="start" x="363" y="-687.5" font-family="Helvetica,sans-Serif" font-size="10.00">(Player player, Rectangle</text>
<text text-anchor="start" x="363" y="-676.5" font-family="Helvetica,sans-Serif" font-size="10.00"> hitbox)</text>
<text text-anchor="start" x="350" y="-661.5" font-family="Helvetica,sans-Serif" font-size="10.00">~</text>
<text text-anchor="start" x="363" y="-661.5" font-family="Helvetica,sans-Serif" font-size="10.00">void PerformInteraction</text>
<text text-anchor="start" x="363" y="-650.5" font-family="Helvetica,sans-Serif" font-size="10.00">(Player player, Rectangle</text>
<text text-anchor="start" x="363" y="-639.5" font-family="Helvetica,sans-Serif" font-size="10.00"> hitbox)</text>
<text text-anchor="start" x="350" y="-624.5" font-family="Helvetica,sans-Serif" font-size="10.00">#</text>
<text text-anchor="start" x="363" y="-624.5" font-family="Helvetica,sans-Serif" font-size="10.00">AHoverInteractionChecker()</text>
<polygon fill="#666666" stroke="#666666" points="346,-823.5 346,-823.5 530,-823.5 530,-823.5 346,-823.5"/>
<polygon fill="#666666" stroke="#666666" points="346,-808.5 346,-808.5 530,-808.5 530,-808.5 346,-808.5"/>
<polygon fill="none" stroke="#666666" points="346,-618 346,-841 530,-841 530,-618 346,-618"/>
</a>
</g>
</g>
<!-- Node5&#45;&gt;Node4 -->
<g id="edge4_Node000004_Node000005" class="edge">
<title>Node5&#45;&gt;Node4</title>
<g id="a_edge4_Node000004_Node000005"><a xlink:title=" ">
<path fill="none" stroke="#63b8ff" d="M438,-607.69C438,-598.79 438,-589.85 438,-581.04"/>
<polygon fill="none" stroke="#63b8ff" points="434.5,-607.7 438,-617.7 441.5,-607.7 434.5,-607.7"/>
</a>
</g>
</g>
</g>
</svg>
