<?xml version="1.0" encoding="UTF-8" standalone="no"?>
<!DOCTYPE svg PUBLIC "-//W3C//DTD SVG 1.1//EN"
 "http://www.w3.org/Graphics/SVG/1.1/DTD/svg11.dtd">
<!-- Generated by graphviz version 2.43.0 (0)
 -->
<!-- Title: Terraria.GameContent.UI.Elements.UIBestiaryInfoLine&lt; T &gt; Pages: 1 -->
<!--zoomable 1316 -->

<svg id="main" version="1.1" xmlns="http://www.w3.org/2000/svg" xmlns:xlink="http://www.w3.org/1999/xlink" xml:space="preserve" onload="init(evt)">
<style type="text/css"><![CDATA[
.node, .edge {opacity: 0.7;}
.node.selected, .edge.selected {opacity: 1;}
.edge:hover path { stroke: red; }
.edge:hover polygon { stroke: red; fill: red; }
]]></style>

<defs>
  <circle id="rim" cx="0" cy="0" r="7"/>
  <circle id="rim2" cx="0" cy="0" r="3.5"/>
  <g id="zoomPlus">
    <use xlink:href="#rim" fill="#404040"><set attributeName="fill" to="#808080" begin="zoomplus.mouseover" end="zoomplus.mouseout"/></use>
    <path d="M-4,0h8M0,-4v8" fill="none" stroke="white" stroke-width="1.5" pointer-events="none"/>
  </g>
  <g id="zoomMin">
    <use xlink:href="#rim" fill="#404040"><set attributeName="fill" to="#808080" begin="zoomminus.mouseover" end="zoomminus.mouseout"/></use>
    <path d="M-4,0h8" fill="none" stroke="white" stroke-width="1.5" pointer-events="none"/>
  </g>
  <g id="arrowUp" transform="translate(30 24)">
    <use xlink:href="#rim"/>
    <path pointer-events="none" fill="none" stroke="white" stroke-width="1.5" d="M0,-3.0v7 M-2.5,-0.5L0,-3.0L2.5,-0.5"/>
  </g>
  <g id="arrowRight" transform="rotate(90) translate(36 -43)">
    <use xlink:href="#rim"/>
    <path pointer-events="none" fill="none" stroke="white" stroke-width="1.5" d="M0,-3.0v7 M-2.5,-0.5L0,-3.0L2.5,-0.5"/>
  </g>
  <g id="arrowDown" transform="rotate(180) translate(-30 -48)">
    <use xlink:href="#rim"/>
    <path pointer-events="none" fill="none" stroke="white" stroke-width="1.5" d="M0,-3.0v7 M-2.5,-0.5L0,-3.0L2.5,-0.5"/>
  </g>
  <g id="arrowLeft" transform="rotate(270) translate(-36 17)">
    <use xlink:href="#rim"/>
    <path pointer-events="none" fill="none" stroke="white" stroke-width="1.5" d="M0,-3.0v7 M-2.5,-0.5L0,-3.0L2.5,-0.5"/>
  </g>
  <g id="resetDef">
    <use xlink:href="#rim2" fill="#404040"><set attributeName="fill" to="#808080" begin="reset.mouseover" end="reset.mouseout"/></use>
  </g>
</defs>
<script type="application/ecmascript">
var viewWidth = 384;
var viewHeight = 1316;
var sectionId = 'dynsection-0';
</script>
<script type="application/ecmascript" xlink:href="../../svg.min.js"/>
<svg id="graph" class="graph">
<g id="viewport">
<title>Terraria.GameContent.UI.Elements.UIBestiaryInfoLine&lt; T &gt;</title>
<!-- Node1 -->
<g id="Node000001" class="node">
<title>Node1</title>
<g id="a_Node000001"><a xlink:title=" ">
<polygon fill="#999999" stroke="transparent" points="291.5,-299 113.5,-299 113.5,0 291.5,0 291.5,-299"/>
<text text-anchor="start" x="118.5" y="-286.5" font-family="Helvetica,sans-Serif" font-size="10.00">Terraria.GameContent.UI.</text>
<text text-anchor="start" x="118.5" y="-275.5" font-family="Helvetica,sans-Serif" font-size="10.00">Elements.UIBestiaryInfoLine&lt; T &gt;</text>
<text text-anchor="start" x="123.5" y="-260.5" font-family="Helvetica,sans-Serif" font-size="10.00">+</text>
<text text-anchor="start" x="142.5" y="-260.5" font-family="Helvetica,sans-Serif" font-size="10.00">int OrderInUIList</text>
<text text-anchor="start" x="123.5" y="-245.5" font-family="Helvetica,sans-Serif" font-size="10.00">+</text>
<text text-anchor="start" x="142.5" y="-245.5" font-family="Helvetica,sans-Serif" font-size="10.00">float TextScale</text>
<text text-anchor="start" x="123.5" y="-230.5" font-family="Helvetica,sans-Serif" font-size="10.00">+</text>
<text text-anchor="start" x="142.5" y="-230.5" font-family="Helvetica,sans-Serif" font-size="10.00">Vector2 TextSize</text>
<text text-anchor="start" x="123.5" y="-215.5" font-family="Helvetica,sans-Serif" font-size="10.00">+</text>
<text text-anchor="start" x="142.5" y="-215.5" font-family="Helvetica,sans-Serif" font-size="10.00">string Text</text>
<text text-anchor="start" x="123.5" y="-200.5" font-family="Helvetica,sans-Serif" font-size="10.00">+</text>
<text text-anchor="start" x="142.5" y="-200.5" font-family="Helvetica,sans-Serif" font-size="10.00">Color TextColor</text>
<text text-anchor="start" x="126" y="-185.5" font-family="Helvetica,sans-Serif" font-size="10.00">&#45;</text>
<text text-anchor="start" x="142.5" y="-185.5" font-family="Helvetica,sans-Serif" font-size="10.00">T _text</text>
<text text-anchor="start" x="126" y="-170.5" font-family="Helvetica,sans-Serif" font-size="10.00">&#45;</text>
<text text-anchor="start" x="142.5" y="-170.5" font-family="Helvetica,sans-Serif" font-size="10.00">float _textScale</text>
<text text-anchor="start" x="126" y="-155.5" font-family="Helvetica,sans-Serif" font-size="10.00">&#45;</text>
<text text-anchor="start" x="142.5" y="-155.5" font-family="Helvetica,sans-Serif" font-size="10.00">Vector2 _textSize</text>
<text text-anchor="start" x="126" y="-140.5" font-family="Helvetica,sans-Serif" font-size="10.00">&#45;</text>
<text text-anchor="start" x="142.5" y="-140.5" font-family="Helvetica,sans-Serif" font-size="10.00">Color _color</text>
<text text-anchor="start" x="123.5" y="-125.5" font-family="Helvetica,sans-Serif" font-size="10.00">+</text>
<text text-anchor="start" x="142.5" y="-125.5" font-family="Helvetica,sans-Serif" font-size="10.00">UIBestiaryInfoLine</text>
<text text-anchor="start" x="142.5" y="-114.5" font-family="Helvetica,sans-Serif" font-size="10.00">(T text, float textScale=1f)</text>
<text text-anchor="start" x="123.5" y="-99.5" font-family="Helvetica,sans-Serif" font-size="10.00">+</text>
<text text-anchor="start" x="142.5" y="-99.5" font-family="Helvetica,sans-Serif" font-size="10.00">override void Recalculate()</text>
<text text-anchor="start" x="123.5" y="-84.5" font-family="Helvetica,sans-Serif" font-size="10.00">+</text>
<text text-anchor="start" x="142.5" y="-84.5" font-family="Helvetica,sans-Serif" font-size="10.00">void SetText(T text)</text>
<text text-anchor="start" x="123.5" y="-69.5" font-family="Helvetica,sans-Serif" font-size="10.00">+</text>
<text text-anchor="start" x="142.5" y="-69.5" font-family="Helvetica,sans-Serif" font-size="10.00">virtual void SetText</text>
<text text-anchor="start" x="142.5" y="-58.5" font-family="Helvetica,sans-Serif" font-size="10.00">(T text, float textScale)</text>
<text text-anchor="start" x="123.5" y="-43.5" font-family="Helvetica,sans-Serif" font-size="10.00">+</text>
<text text-anchor="start" x="142.5" y="-43.5" font-family="Helvetica,sans-Serif" font-size="10.00">override int CompareTo</text>
<text text-anchor="start" x="142.5" y="-32.5" font-family="Helvetica,sans-Serif" font-size="10.00">(object obj)</text>
<text text-anchor="start" x="123.5" y="-17.5" font-family="Helvetica,sans-Serif" font-size="10.00">#</text>
<text text-anchor="start" x="142.5" y="-17.5" font-family="Helvetica,sans-Serif" font-size="10.00">override void DrawSelf</text>
<text text-anchor="start" x="142.5" y="-6.5" font-family="Helvetica,sans-Serif" font-size="10.00">(SpriteBatch spriteBatch)</text>
<polygon fill="#666666" stroke="#666666" points="113.5,-270.5 113.5,-270.5 291.5,-270.5 291.5,-270.5 113.5,-270.5"/>
<polygon fill="#666666" stroke="#666666" points="113.5,-135.5 113.5,-135.5 140.5,-135.5 140.5,-135.5 113.5,-135.5"/>
<polygon fill="#666666" stroke="#666666" points="140.5,-135.5 140.5,-135.5 291.5,-135.5 291.5,-135.5 140.5,-135.5"/>
<polygon fill="none" stroke="#666666" points="113.5,0 113.5,-299 291.5,-299 291.5,0 113.5,0"/>
</a>
</g>
</g>
<!-- Node2 -->
<g id="Node000002" class="node">
<title>Node2</title>
<g id="a_Node000002"><a xlink:href="../../d7/d72/classTerraria_1_1UI_1_1UIElement.html" target="_top" xlink:title=" ">
<polygon fill="white" stroke="transparent" points="209,-1223 0,-1223 0,-335 209,-335 209,-1223"/>
<text text-anchor="start" x="79" y="-1211" font-family="Helvetica,sans-Serif" font-size="10.00">UIElement</text>
<text text-anchor="start" x="4.5" y="-1196" font-family="Helvetica,sans-Serif" font-size="10.00">+</text>
<text text-anchor="start" x="17.5" y="-1196" font-family="Helvetica,sans-Serif" font-size="10.00">StyleDimension Top</text>
<text text-anchor="start" x="4.5" y="-1181" font-family="Helvetica,sans-Serif" font-size="10.00">+</text>
<text text-anchor="start" x="17.5" y="-1181" font-family="Helvetica,sans-Serif" font-size="10.00">StyleDimension Left</text>
<text text-anchor="start" x="4.5" y="-1166" font-family="Helvetica,sans-Serif" font-size="10.00">+</text>
<text text-anchor="start" x="17.5" y="-1166" font-family="Helvetica,sans-Serif" font-size="10.00">StyleDimension Width</text>
<text text-anchor="start" x="4.5" y="-1151" font-family="Helvetica,sans-Serif" font-size="10.00">+</text>
<text text-anchor="start" x="17.5" y="-1151" font-family="Helvetica,sans-Serif" font-size="10.00">StyleDimension Height</text>
<text text-anchor="start" x="4.5" y="-1136" font-family="Helvetica,sans-Serif" font-size="10.00">+</text>
<text text-anchor="start" x="17.5" y="-1136" font-family="Helvetica,sans-Serif" font-size="10.00">StyleDimension MaxWidth</text>
<text text-anchor="start" x="4.5" y="-1121" font-family="Helvetica,sans-Serif" font-size="10.00">+</text>
<text text-anchor="start" x="17.5" y="-1121" font-family="Helvetica,sans-Serif" font-size="10.00">StyleDimension MaxHeight</text>
<text text-anchor="start" x="4.5" y="-1106" font-family="Helvetica,sans-Serif" font-size="10.00">+</text>
<text text-anchor="start" x="17.5" y="-1106" font-family="Helvetica,sans-Serif" font-size="10.00">StyleDimension MinWidth</text>
<text text-anchor="start" x="4.5" y="-1091" font-family="Helvetica,sans-Serif" font-size="10.00">+</text>
<text text-anchor="start" x="17.5" y="-1091" font-family="Helvetica,sans-Serif" font-size="10.00">StyleDimension MinHeight</text>
<text text-anchor="start" x="4.5" y="-1076" font-family="Helvetica,sans-Serif" font-size="10.00">+</text>
<text text-anchor="start" x="17.5" y="-1076" font-family="Helvetica,sans-Serif" font-size="10.00">bool IgnoresMouseInteraction</text>
<text text-anchor="start" x="4.5" y="-1061" font-family="Helvetica,sans-Serif" font-size="10.00">+</text>
<text text-anchor="start" x="17.5" y="-1061" font-family="Helvetica,sans-Serif" font-size="10.00">bool OverflowHidden</text>
<text text-anchor="start" x="17.5" y="-1046" font-family="Helvetica,sans-Serif" font-size="10.00">and 12 more...</text>
<text text-anchor="start" x="4.5" y="-1031" font-family="Helvetica,sans-Serif" font-size="10.00">+</text>
<text text-anchor="start" x="17.5" y="-1031" font-family="Helvetica,sans-Serif" font-size="10.00">UIElement Parent</text>
<text text-anchor="start" x="4.5" y="-1016" font-family="Helvetica,sans-Serif" font-size="10.00">+</text>
<text text-anchor="start" x="17.5" y="-1016" font-family="Helvetica,sans-Serif" font-size="10.00">int UniqueId</text>
<text text-anchor="start" x="4.5" y="-1001" font-family="Helvetica,sans-Serif" font-size="10.00">+</text>
<text text-anchor="start" x="17.5" y="-1001" font-family="Helvetica,sans-Serif" font-size="10.00">IEnumerable&lt; UIElement</text>
<text text-anchor="start" x="17.5" y="-990" font-family="Helvetica,sans-Serif" font-size="10.00"> &gt; Children</text>
<text text-anchor="start" x="4.5" y="-975" font-family="Helvetica,sans-Serif" font-size="10.00">+</text>
<text text-anchor="start" x="17.5" y="-975" font-family="Helvetica,sans-Serif" font-size="10.00">bool IsMouseHovering</text>
<text text-anchor="start" x="4.5" y="-960" font-family="Helvetica,sans-Serif" font-size="10.00">+</text>
<text text-anchor="start" x="17.5" y="-960" font-family="Helvetica,sans-Serif" font-size="10.00">MouseEvent OnLeftMouseDown</text>
<text text-anchor="start" x="4.5" y="-945" font-family="Helvetica,sans-Serif" font-size="10.00">+</text>
<text text-anchor="start" x="17.5" y="-945" font-family="Helvetica,sans-Serif" font-size="10.00">MouseEvent OnLeftMouseUp</text>
<text text-anchor="start" x="4.5" y="-930" font-family="Helvetica,sans-Serif" font-size="10.00">+</text>
<text text-anchor="start" x="17.5" y="-930" font-family="Helvetica,sans-Serif" font-size="10.00">MouseEvent OnLeftClick</text>
<text text-anchor="start" x="4.5" y="-915" font-family="Helvetica,sans-Serif" font-size="10.00">+</text>
<text text-anchor="start" x="17.5" y="-915" font-family="Helvetica,sans-Serif" font-size="10.00">MouseEvent OnLeftDoubleClick</text>
<text text-anchor="start" x="4.5" y="-900" font-family="Helvetica,sans-Serif" font-size="10.00">+</text>
<text text-anchor="start" x="17.5" y="-900" font-family="Helvetica,sans-Serif" font-size="10.00">MouseEvent OnRightMouseDown</text>
<text text-anchor="start" x="4.5" y="-885" font-family="Helvetica,sans-Serif" font-size="10.00">+</text>
<text text-anchor="start" x="17.5" y="-885" font-family="Helvetica,sans-Serif" font-size="10.00">MouseEvent OnRightMouseUp</text>
<text text-anchor="start" x="17.5" y="-870" font-family="Helvetica,sans-Serif" font-size="10.00">and 6 more...</text>
<text text-anchor="start" x="4.5" y="-855" font-family="Helvetica,sans-Serif" font-size="10.00">#</text>
<text text-anchor="start" x="17.5" y="-855" font-family="Helvetica,sans-Serif" font-size="10.00">readonly List&lt; UIElement</text>
<text text-anchor="start" x="17.5" y="-844" font-family="Helvetica,sans-Serif" font-size="10.00"> &gt; Elements</text>
<text text-anchor="start" x="7" y="-829" font-family="Helvetica,sans-Serif" font-size="10.00">&#45;</text>
<text text-anchor="start" x="17.5" y="-829" font-family="Helvetica,sans-Serif" font-size="10.00">bool _isInitialized</text>
<text text-anchor="start" x="7" y="-814" font-family="Helvetica,sans-Serif" font-size="10.00">&#45;</text>
<text text-anchor="start" x="17.5" y="-814" font-family="Helvetica,sans-Serif" font-size="10.00">CalculatedStyle _innerDimensions</text>
<text text-anchor="start" x="7" y="-799" font-family="Helvetica,sans-Serif" font-size="10.00">&#45;</text>
<text text-anchor="start" x="17.5" y="-799" font-family="Helvetica,sans-Serif" font-size="10.00">CalculatedStyle _dimensions</text>
<text text-anchor="start" x="7" y="-784" font-family="Helvetica,sans-Serif" font-size="10.00">&#45;</text>
<text text-anchor="start" x="17.5" y="-784" font-family="Helvetica,sans-Serif" font-size="10.00">CalculatedStyle _outerDimensions</text>
<text text-anchor="start" x="7" y="-769" font-family="Helvetica,sans-Serif" font-size="10.00">&#45;</text>
<text text-anchor="start" x="17.5" y="-769" font-family="Helvetica,sans-Serif" font-size="10.00">SnapPoint _snapPoint</text>
<text text-anchor="start" x="7" y="-754" font-family="Helvetica,sans-Serif" font-size="10.00">&#45;</text>
<text text-anchor="start" x="17.5" y="-754" font-family="Helvetica,sans-Serif" font-size="10.00">static readonly Rasterizer</text>
<text text-anchor="start" x="17.5" y="-743" font-family="Helvetica,sans-Serif" font-size="10.00">State OverflowHiddenRasterizerState</text>
<text text-anchor="start" x="7" y="-728" font-family="Helvetica,sans-Serif" font-size="10.00">&#45;</text>
<text text-anchor="start" x="17.5" y="-728" font-family="Helvetica,sans-Serif" font-size="10.00">static int _idCounter</text>
<text text-anchor="start" x="4.5" y="-713" font-family="Helvetica,sans-Serif" font-size="10.00">+</text>
<text text-anchor="start" x="17.5" y="-713" font-family="Helvetica,sans-Serif" font-size="10.00">delegate void MouseEvent</text>
<text text-anchor="start" x="17.5" y="-702" font-family="Helvetica,sans-Serif" font-size="10.00">(UIMouseEvent evt, UIElement</text>
<text text-anchor="start" x="17.5" y="-691" font-family="Helvetica,sans-Serif" font-size="10.00"> listeningElement)</text>
<text text-anchor="start" x="4.5" y="-676" font-family="Helvetica,sans-Serif" font-size="10.00">+</text>
<text text-anchor="start" x="17.5" y="-676" font-family="Helvetica,sans-Serif" font-size="10.00">delegate void ScrollWheel</text>
<text text-anchor="start" x="17.5" y="-665" font-family="Helvetica,sans-Serif" font-size="10.00">Event(UIScrollWheelEvent</text>
<text text-anchor="start" x="17.5" y="-654" font-family="Helvetica,sans-Serif" font-size="10.00"> evt, UIElement listeningElement)</text>
<text text-anchor="start" x="4.5" y="-639" font-family="Helvetica,sans-Serif" font-size="10.00">+</text>
<text text-anchor="start" x="17.5" y="-639" font-family="Helvetica,sans-Serif" font-size="10.00">delegate void ElementEvent</text>
<text text-anchor="start" x="17.5" y="-628" font-family="Helvetica,sans-Serif" font-size="10.00">(UIElement affectedElement)</text>
<text text-anchor="start" x="4.5" y="-613" font-family="Helvetica,sans-Serif" font-size="10.00">+</text>
<text text-anchor="start" x="17.5" y="-613" font-family="Helvetica,sans-Serif" font-size="10.00">delegate void UIElementAction</text>
<text text-anchor="start" x="17.5" y="-602" font-family="Helvetica,sans-Serif" font-size="10.00">(UIElement element)</text>
<text text-anchor="start" x="4.5" y="-587" font-family="Helvetica,sans-Serif" font-size="10.00">+</text>
<text text-anchor="start" x="17.5" y="-587" font-family="Helvetica,sans-Serif" font-size="10.00">UIElement()</text>
<text text-anchor="start" x="4.5" y="-572" font-family="Helvetica,sans-Serif" font-size="10.00">+</text>
<text text-anchor="start" x="17.5" y="-572" font-family="Helvetica,sans-Serif" font-size="10.00">void SetSnapPoint(string</text>
<text text-anchor="start" x="17.5" y="-561" font-family="Helvetica,sans-Serif" font-size="10.00"> name, int id, [Optional]</text>
<text text-anchor="start" x="17.5" y="-550" font-family="Helvetica,sans-Serif" font-size="10.00"> Vector2? anchor, [Optional]</text>
<text text-anchor="start" x="17.5" y="-539" font-family="Helvetica,sans-Serif" font-size="10.00"> Vector2? offset)</text>
<text text-anchor="start" x="4.5" y="-524" font-family="Helvetica,sans-Serif" font-size="10.00">+</text>
<text text-anchor="start" x="17.5" y="-524" font-family="Helvetica,sans-Serif" font-size="10.00">bool GetSnapPoint(out</text>
<text text-anchor="start" x="17.5" y="-513" font-family="Helvetica,sans-Serif" font-size="10.00"> SnapPoint point)</text>
<text text-anchor="start" x="4.5" y="-498" font-family="Helvetica,sans-Serif" font-size="10.00">+</text>
<text text-anchor="start" x="17.5" y="-498" font-family="Helvetica,sans-Serif" font-size="10.00">virtual void ExecuteRecursively</text>
<text text-anchor="start" x="17.5" y="-487" font-family="Helvetica,sans-Serif" font-size="10.00">(UIElementAction action)</text>
<text text-anchor="start" x="4.5" y="-472" font-family="Helvetica,sans-Serif" font-size="10.00">+</text>
<text text-anchor="start" x="17.5" y="-472" font-family="Helvetica,sans-Serif" font-size="10.00">void Append(UIElement</text>
<text text-anchor="start" x="17.5" y="-461" font-family="Helvetica,sans-Serif" font-size="10.00"> element)</text>
<text text-anchor="start" x="4.5" y="-446" font-family="Helvetica,sans-Serif" font-size="10.00">+</text>
<text text-anchor="start" x="17.5" y="-446" font-family="Helvetica,sans-Serif" font-size="10.00">void Remove()</text>
<text text-anchor="start" x="17.5" y="-431" font-family="Helvetica,sans-Serif" font-size="10.00">and 35 more...</text>
<text text-anchor="start" x="4.5" y="-416" font-family="Helvetica,sans-Serif" font-size="10.00">#</text>
<text text-anchor="start" x="17.5" y="-416" font-family="Helvetica,sans-Serif" font-size="10.00">virtual void DrawSelf</text>
<text text-anchor="start" x="17.5" y="-405" font-family="Helvetica,sans-Serif" font-size="10.00">(SpriteBatch spriteBatch)</text>
<text text-anchor="start" x="4.5" y="-390" font-family="Helvetica,sans-Serif" font-size="10.00">#</text>
<text text-anchor="start" x="17.5" y="-390" font-family="Helvetica,sans-Serif" font-size="10.00">virtual void DrawChildren</text>
<text text-anchor="start" x="17.5" y="-379" font-family="Helvetica,sans-Serif" font-size="10.00">(SpriteBatch spriteBatch)</text>
<text text-anchor="start" x="7" y="-364" font-family="Helvetica,sans-Serif" font-size="10.00">&#45;</text>
<text text-anchor="start" x="17.5" y="-364" font-family="Helvetica,sans-Serif" font-size="10.00">CalculatedStyle GetDimensions</text>
<text text-anchor="start" x="17.5" y="-353" font-family="Helvetica,sans-Serif" font-size="10.00">BasedOnParentDimensions(Calculated</text>
<text text-anchor="start" x="17.5" y="-342" font-family="Helvetica,sans-Serif" font-size="10.00">Style parentDimensions)</text>
<polygon fill="#666666" stroke="#666666" points="0.5,-1206 0.5,-1206 209.5,-1206 209.5,-1206 0.5,-1206"/>
<polygon fill="#666666" stroke="#666666" points="0.5,-723 0.5,-723 15.5,-723 15.5,-723 0.5,-723"/>
<polygon fill="#666666" stroke="#666666" points="15.5,-723 15.5,-723 209.5,-723 209.5,-723 15.5,-723"/>
<polygon fill="none" stroke="#666666" points="0,-335 0,-1223 209,-1223 209,-335 0,-335"/>
</a>
</g>
</g>
<!-- Node2&#45;&gt;Node1 -->
<g id="edge1_Node000001_Node000002" class="edge">
<title>Node2&#45;&gt;Node1</title>
<g id="a_edge1_Node000001_Node000002"><a xlink:title=" ">
<path fill="none" stroke="#63b8ff" d="M175.25,-324.98C176.62,-316.22 177.96,-307.63 179.27,-299.27"/>
<polygon fill="none" stroke="#63b8ff" points="171.78,-324.53 173.69,-334.95 178.69,-325.61 171.78,-324.53"/>
</a>
</g>
</g>
<!-- Node3 -->
<g id="Node000003" class="node">
<title>Node3</title>
<g id="a_Node000003"><a xlink:href="../../d9/d6f/classIComparable.html" target="_top" xlink:title=" ">
<polygon fill="white" stroke="transparent" points="141,-1308 68,-1308 68,-1259 141,-1259 141,-1308"/>
<text text-anchor="start" x="73.5" y="-1295.5" font-family="Helvetica,sans-Serif" font-size="10.00">IComparable</text>
<text text-anchor="start" x="103" y="-1280.5" font-family="Helvetica,sans-Serif" font-size="10.00"> </text>
<text text-anchor="start" x="103" y="-1265.5" font-family="Helvetica,sans-Serif" font-size="10.00"> </text>
<polygon fill="#666666" stroke="#666666" points="68.5,-1290.5 68.5,-1290.5 141.5,-1290.5 141.5,-1290.5 68.5,-1290.5"/>
<polygon fill="#666666" stroke="#666666" points="68.5,-1275.5 68.5,-1275.5 141.5,-1275.5 141.5,-1275.5 68.5,-1275.5"/>
<polygon fill="none" stroke="#666666" points="68,-1259 68,-1308 141,-1308 141,-1259 68,-1259"/>
</a>
</g>
</g>
<!-- Node3&#45;&gt;Node2 -->
<g id="edge2_Node000002_Node000003" class="edge">
<title>Node3&#45;&gt;Node2</title>
<g id="a_edge2_Node000002_Node000003"><a xlink:title=" ">
<path fill="none" stroke="#63b8ff" d="M104.5,-1248.77C104.5,-1241.29 104.5,-1232.74 104.5,-1223.29"/>
<polygon fill="none" stroke="#63b8ff" points="101,-1248.94 104.5,-1258.94 108,-1248.94 101,-1248.94"/>
</a>
</g>
</g>
<!-- Node4 -->
<g id="Node000004" class="node">
<title>Node4</title>
<g id="a_Node000004"><a xlink:href="../../d0/d5f/interfaceTerraria_1_1GameContent_1_1UI_1_1Elements_1_1IManuallyOrderedUIElement.html" target="_top" xlink:title=" ">
<polygon fill="white" stroke="transparent" points="376,-803.5 227,-803.5 227,-754.5 376,-754.5 376,-803.5"/>
<text text-anchor="start" x="232.5" y="-791" font-family="Helvetica,sans-Serif" font-size="10.00">IManuallyOrderedUIElement</text>
<text text-anchor="start" x="243.5" y="-776" font-family="Helvetica,sans-Serif" font-size="10.00">+</text>
<text text-anchor="start" x="268.5" y="-776" font-family="Helvetica,sans-Serif" font-size="10.00">int OrderInUIList</text>
<text text-anchor="start" x="300" y="-761" font-family="Helvetica,sans-Serif" font-size="10.00"> </text>
<polygon fill="#666666" stroke="#666666" points="227.5,-786 227.5,-786 376.5,-786 376.5,-786 227.5,-786"/>
<polygon fill="#666666" stroke="#666666" points="227.5,-771 227.5,-771 266.5,-771 266.5,-771 227.5,-771"/>
<polygon fill="#666666" stroke="#666666" points="266.5,-771 266.5,-771 376.5,-771 376.5,-771 266.5,-771"/>
<polygon fill="none" stroke="#666666" points="227,-754.5 227,-803.5 376,-803.5 376,-754.5 227,-754.5"/>
</a>
</g>
</g>
<!-- Node4&#45;&gt;Node1 -->
<g id="edge3_Node000001_Node000004" class="edge">
<title>Node4&#45;&gt;Node1</title>
<g id="a_edge3_Node000001_Node000004"><a xlink:title=" ">
<path fill="none" stroke="#63b8ff" d="M296.15,-744.1C283.14,-661.64 249.2,-446.5 225.96,-299.2"/>
<polygon fill="none" stroke="#63b8ff" points="292.72,-744.84 297.74,-754.17 299.64,-743.74 292.72,-744.84"/>
</a>
</g>
</g>
</g>
</svg>

<g id="navigator" transform="translate(0 0)" fill="#404254">
  <rect fill="#f2f5e9" fill-opacity="0.5" stroke="#606060" stroke-width=".5" x="0" y="0" width="60" height="60"/>
  <use id="zoomplus" xlink:href="#zoomPlus" x="17" y="9" onmousedown="handleZoom(evt,'in')"/>
  <use id="zoomminus" xlink:href="#zoomMin" x="42" y="9" onmousedown="handleZoom(evt,'out')"/>
  <use id="reset" xlink:href="#resetDef" x="30" y="36" onmousedown="handleReset()"/>
   <use id="arrowup" xlink:href="#arrowUp" x="0" y="0" onmousedown="handlePan(0,-1)"/>
  <use id="arrowright" xlink:href="#arrowRight" x="0" y="0" onmousedown="handlePan(1,0)"/>
  <use id="arrowdown" xlink:href="#arrowDown" x="0" y="0" onmousedown="handlePan(0,1)"/>
  <use id="arrowleft" xlink:href="#arrowLeft" x="0" y="0" onmousedown="handlePan(-1,0)"/>
</g>
<svg viewBox="0 0 15 15" width="100%" height="30px" preserveAspectRatio="xMaxYMin meet">
 <g id="arrow_out" transform="scale(0.3 0.3)">
  <a xlink:href="classTerraria_1_1GameContent_1_1UI_1_1Elements_1_1UIBestiaryInfoLine__inherit__graph_org.svg" target="_base">
   <rect id="button" ry="5" rx="5" y="6" x="6" height="38" width="38"
        fill="#f2f5e9" fill-opacity="0.5" stroke="#606060" stroke-width="1.0"/>
   <path id="arrow"
     d="M 11.500037,31.436501 C 11.940474,20.09759 22.043105,11.32322 32.158766,21.979434 L 37.068811,17.246167 C 37.068811,17.246167 37.088388,32 37.088388,32 L 22.160133,31.978069 C 22.160133,31.978069 26.997745,27.140456 26.997745,27.140456 C 18.528582,18.264221 13.291696,25.230495 11.500037,31.436501 z"
     style="fill:#404040;"/>
  </a>
 </g>
</svg>

<style type='text/css'>
<![CDATA[
[data-mouse-over-selected='false'] { opacity: 0.7; }
[data-mouse-over-selected='true']  { opacity: 1.0; }
]]>
</style>
<script type="application/ecmascript"><![CDATA[
document.addEventListener('DOMContentLoaded', (event) => {
  highlightEdges();
  highlightAdjacentNodes();
});
]]></script>
</svg>
