<?xml version="1.0" encoding="UTF-8" standalone="no"?>
<!DOCTYPE svg PUBLIC "-//W3C//DTD SVG 1.1//EN"
 "http://www.w3.org/Graphics/SVG/1.1/DTD/svg11.dtd">
<!-- Generated by graphviz version 2.43.0 (0)
 -->
<!-- Title: System.Runtime.Remoting.TypeEntry Pages: 1 -->
<svg width="169pt" height="190pt"
 viewBox="0.00 0.00 168.50 190.00" xmlns="http://www.w3.org/2000/svg" xmlns:xlink="http://www.w3.org/1999/xlink">
<g id="graph0" class="graph" transform="scale(1 1) rotate(0) translate(4 186)">
<title>System.Runtime.Remoting.TypeEntry</title>
<!-- Node1 -->
<g id="Node000001" class="node">
<title>Node1</title>
<g id="a_Node000001"><a xlink:title=" ">
<polygon fill="#999999" stroke="transparent" points="145,-75 0,-75 0,0 145,0 145,-75"/>
<text text-anchor="start" x="5.5" y="-62.5" font-family="Helvetica,sans-Serif" font-size="10.00">System.Runtime.Remoting.</text>
<text text-anchor="start" x="48.5" y="-51.5" font-family="Helvetica,sans-Serif" font-size="10.00">TypeEntry</text>
<text text-anchor="start" x="8" y="-36.5" font-family="Helvetica,sans-Serif" font-size="10.00">+</text>
<text text-anchor="start" x="24.5" y="-36.5" font-family="Helvetica,sans-Serif" font-size="10.00">string AssemblyName</text>
<text text-anchor="start" x="8" y="-21.5" font-family="Helvetica,sans-Serif" font-size="10.00">+</text>
<text text-anchor="start" x="24.5" y="-21.5" font-family="Helvetica,sans-Serif" font-size="10.00">string TypeName</text>
<text text-anchor="start" x="8" y="-6.5" font-family="Helvetica,sans-Serif" font-size="10.00">#</text>
<text text-anchor="start" x="24.5" y="-6.5" font-family="Helvetica,sans-Serif" font-size="10.00">TypeEntry()</text>
<polygon fill="#666666" stroke="#666666" points="0.5,-46.5 0.5,-46.5 145.5,-46.5 145.5,-46.5 0.5,-46.5"/>
<polygon fill="#666666" stroke="#666666" points="0.5,-16.5 0.5,-16.5 22.5,-16.5 22.5,-16.5 0.5,-16.5"/>
<polygon fill="#666666" stroke="#666666" points="22.5,-16.5 22.5,-16.5 145.5,-16.5 145.5,-16.5 22.5,-16.5"/>
<polygon fill="none" stroke="#666666" points="0,0 0,-75 145,-75 145,0 0,0"/>
</a>
</g>
</g>
<!-- Node2 -->
<g id="Node000002" class="node">
<title>Node2</title>
<g id="a_Node000002"><a xlink:title=" ">
<polygon fill="white" stroke="transparent" points="91.5,-182 53.5,-182 53.5,-133 91.5,-133 91.5,-182"/>
<text text-anchor="start" x="58.5" y="-169.5" font-family="Helvetica,sans-Serif" font-size="10.00">string</text>
<text text-anchor="start" x="70.5" y="-154.5" font-family="Helvetica,sans-Serif" font-size="10.00"> </text>
<text text-anchor="start" x="70.5" y="-139.5" font-family="Helvetica,sans-Serif" font-size="10.00"> </text>
<polygon fill="#666666" stroke="#666666" points="53.5,-164.5 53.5,-164.5 91.5,-164.5 91.5,-164.5 53.5,-164.5"/>
<polygon fill="#666666" stroke="#666666" points="53.5,-149.5 53.5,-149.5 91.5,-149.5 91.5,-149.5 53.5,-149.5"/>
<polygon fill="none" stroke="#666666" points="53.5,-133 53.5,-182 91.5,-182 91.5,-133 53.5,-133"/>
</a>
</g>
</g>
<!-- Node2&#45;&gt;Node1 -->
<g id="edge1_Node000001_Node000002" class="edge">
<title>Node2&#45;&gt;Node1</title>
<g id="a_edge1_Node000001_Node000002"><a xlink:title=" ">
<path fill="none" stroke="#63b8ff" d="M72.5,-132.9C72.5,-119.85 72.5,-103.12 72.5,-87.39"/>
<polygon fill="none" stroke="#63b8ff" points="72.5,-87.07 68.5,-81.07 72.5,-75.07 76.5,-81.07 72.5,-87.07"/>
</a>
</g>
<text text-anchor="middle" x="116.5" y="-107" font-family="Helvetica,sans-Serif" font-size="10.00" fill="grey"> &#45;assembly_name</text>
<text text-anchor="middle" x="116.5" y="-96" font-family="Helvetica,sans-Serif" font-size="10.00" fill="grey">&#45;type_name</text>
</g>
</g>
</svg>
