<?xml version="1.0" encoding="UTF-8" standalone="no"?>
<!DOCTYPE svg PUBLIC "-//W3C//DTD SVG 1.1//EN"
 "http://www.w3.org/Graphics/SVG/1.1/DTD/svg11.dtd">
<!-- Generated by graphviz version 2.43.0 (0)
 -->
<!-- Title: Terraria.Social.Discord.DiscordJoinToServerRequest Pages: 1 -->
<svg width="326pt" height="380pt"
 viewBox="0.00 0.00 326.00 380.00" xmlns="http://www.w3.org/2000/svg" xmlns:xlink="http://www.w3.org/1999/xlink">

<svg id="main" version="1.1" xmlns="http://www.w3.org/2000/svg" xmlns:xlink="http://www.w3.org/1999/xlink" xml:space="preserve" onload="init(evt)">
<style type="text/css"><![CDATA[
.node, .edge {opacity: 0.7;}
.node.selected, .edge.selected {opacity: 1;}
.edge:hover path { stroke: red; }
.edge:hover polygon { stroke: red; fill: red; }
]]></style>
<script type="application/ecmascript" xlink:href="../../svg.min.js"/>
<svg id="graph" class="graph">
<g id="graph0" class="graph" transform="scale(1 1) rotate(0) translate(4 376)">
<title>Terraria.Social.Discord.DiscordJoinToServerRequest</title>
<!-- Node1 -->
<g id="Node000001" class="node">
<title>Node1</title>
<g id="a_Node000001"><a xlink:title=" ">
<polygon fill="#999999" stroke="transparent" points="253,-160 76,-160 76,0 253,0 253,-160"/>
<text text-anchor="start" x="96.5" y="-148" font-family="Helvetica,sans-Serif" font-size="10.00">Terraria.Social.Discord.</text>
<text text-anchor="start" x="96.5" y="-137" font-family="Helvetica,sans-Serif" font-size="10.00">DiscordJoinToServerRequest</text>
<text text-anchor="start" x="83" y="-122" font-family="Helvetica,sans-Serif" font-size="10.00">&#45;</text>
<text text-anchor="start" x="93.5" y="-122" font-family="Helvetica,sans-Serif" font-size="10.00">DateTime _expirationTime</text>
<text text-anchor="start" x="80.5" y="-107" font-family="Helvetica,sans-Serif" font-size="10.00">+</text>
<text text-anchor="start" x="93.5" y="-107" font-family="Helvetica,sans-Serif" font-size="10.00">DiscordJoinToServerRequest</text>
<text text-anchor="start" x="93.5" y="-96" font-family="Helvetica,sans-Serif" font-size="10.00">(string userDisplayName,</text>
<text text-anchor="start" x="93.5" y="-85" font-family="Helvetica,sans-Serif" font-size="10.00"> string fullIdentifier, int</text>
<text text-anchor="start" x="93.5" y="-74" font-family="Helvetica,sans-Serif" font-size="10.00"> durationInSeconds=30)</text>
<text text-anchor="start" x="80.5" y="-59" font-family="Helvetica,sans-Serif" font-size="10.00">+</text>
<text text-anchor="start" x="93.5" y="-59" font-family="Helvetica,sans-Serif" font-size="10.00">override bool IsValid()</text>
<text text-anchor="start" x="80.5" y="-44" font-family="Helvetica,sans-Serif" font-size="10.00">+</text>
<text text-anchor="start" x="93.5" y="-44" font-family="Helvetica,sans-Serif" font-size="10.00">override string GetUserWrapper</text>
<text text-anchor="start" x="93.5" y="-33" font-family="Helvetica,sans-Serif" font-size="10.00">Text()</text>
<text text-anchor="start" x="80.5" y="-18" font-family="Helvetica,sans-Serif" font-size="10.00">+</text>
<text text-anchor="start" x="93.5" y="-18" font-family="Helvetica,sans-Serif" font-size="10.00">bool Equals(DiscordJoinTo</text>
<text text-anchor="start" x="93.5" y="-7" font-family="Helvetica,sans-Serif" font-size="10.00">ServerRequest other)</text>
<polygon fill="#666666" stroke="#666666" points="76.5,-132 76.5,-132 253.5,-132 253.5,-132 76.5,-132"/>
<polygon fill="#666666" stroke="#666666" points="76.5,-117 76.5,-117 91.5,-117 91.5,-117 76.5,-117"/>
<polygon fill="#666666" stroke="#666666" points="91.5,-117 91.5,-117 253.5,-117 253.5,-117 91.5,-117"/>
<polygon fill="none" stroke="#666666" points="76,0 76,-160 253,-160 253,0 76,0"/>
</a>
</g>
</g>
<!-- Node2 -->
<g id="Node000002" class="node">
<title>Node2</title>
<g id="a_Node000002"><a xlink:href="../../d3/d97/classTerraria_1_1Social_1_1Base_1_1UserJoinToServerRequest.html" target="_top" xlink:title=" ">
<polygon fill="white" stroke="transparent" points="161,-372 0,-372 0,-196 161,-196 161,-372"/>
<text text-anchor="start" x="19.5" y="-360" font-family="Helvetica,sans-Serif" font-size="10.00">UserJoinToServerRequest</text>
<text text-anchor="start" x="4.5" y="-345" font-family="Helvetica,sans-Serif" font-size="10.00">+</text>
<text text-anchor="start" x="17.5" y="-345" font-family="Helvetica,sans-Serif" font-size="10.00">string UserDisplayName</text>
<text text-anchor="start" x="4.5" y="-330" font-family="Helvetica,sans-Serif" font-size="10.00">+</text>
<text text-anchor="start" x="17.5" y="-330" font-family="Helvetica,sans-Serif" font-size="10.00">string UserFullIdentifier</text>
<text text-anchor="start" x="4.5" y="-315" font-family="Helvetica,sans-Serif" font-size="10.00">+</text>
<text text-anchor="start" x="17.5" y="-315" font-family="Helvetica,sans-Serif" font-size="10.00">Action OnAccepted</text>
<text text-anchor="start" x="4.5" y="-300" font-family="Helvetica,sans-Serif" font-size="10.00">+</text>
<text text-anchor="start" x="17.5" y="-300" font-family="Helvetica,sans-Serif" font-size="10.00">Action OnRejected</text>
<text text-anchor="start" x="4.5" y="-285" font-family="Helvetica,sans-Serif" font-size="10.00">+</text>
<text text-anchor="start" x="17.5" y="-285" font-family="Helvetica,sans-Serif" font-size="10.00">UserJoinToServerRequest</text>
<text text-anchor="start" x="17.5" y="-274" font-family="Helvetica,sans-Serif" font-size="10.00">(string userDisplayName,</text>
<text text-anchor="start" x="17.5" y="-263" font-family="Helvetica,sans-Serif" font-size="10.00"> string fullIdentifier)</text>
<text text-anchor="start" x="4.5" y="-248" font-family="Helvetica,sans-Serif" font-size="10.00">+</text>
<text text-anchor="start" x="17.5" y="-248" font-family="Helvetica,sans-Serif" font-size="10.00">void Accept()</text>
<text text-anchor="start" x="4.5" y="-233" font-family="Helvetica,sans-Serif" font-size="10.00">+</text>
<text text-anchor="start" x="17.5" y="-233" font-family="Helvetica,sans-Serif" font-size="10.00">void Reject()</text>
<text text-anchor="start" x="4.5" y="-218" font-family="Helvetica,sans-Serif" font-size="10.00">+</text>
<text text-anchor="start" x="17.5" y="-218" font-family="Helvetica,sans-Serif" font-size="10.00">bool IsValid()</text>
<text text-anchor="start" x="4.5" y="-203" font-family="Helvetica,sans-Serif" font-size="10.00">+</text>
<text text-anchor="start" x="17.5" y="-203" font-family="Helvetica,sans-Serif" font-size="10.00">string GetUserWrapperText()</text>
<polygon fill="#666666" stroke="#666666" points="0.5,-355 0.5,-355 161.5,-355 161.5,-355 0.5,-355"/>
<polygon fill="#666666" stroke="#666666" points="0.5,-295 0.5,-295 15.5,-295 15.5,-295 0.5,-295"/>
<polygon fill="#666666" stroke="#666666" points="15.5,-295 15.5,-295 161.5,-295 161.5,-295 15.5,-295"/>
<polygon fill="none" stroke="#666666" points="0,-196 0,-372 161,-372 161,-196 0,-196"/>
</a>
</g>
</g>
<!-- Node2&#45;&gt;Node1 -->
<g id="edge1_Node000001_Node000002" class="edge">
<title>Node2&#45;&gt;Node1</title>
<g id="a_edge1_Node000001_Node000002"><a xlink:title=" ">
<path fill="none" stroke="#63b8ff" d="M120.68,-186.38C124.33,-177.61 127.99,-168.79 131.56,-160.2"/>
<polygon fill="none" stroke="#63b8ff" points="117.34,-185.29 116.73,-195.87 123.8,-187.98 117.34,-185.29"/>
</a>
</g>
</g>
<!-- Node3 -->
<g id="Node000003" class="node">
<title>Node3</title>
<g id="a_Node000003"><a xlink:href="../../d9/d1c/classIEquatable.html" target="_top" xlink:title=" ">
<polygon fill="white" stroke="transparent" points="318,-314 179,-314 179,-254 318,-254 318,-314"/>
<text text-anchor="start" x="184.5" y="-302" font-family="Helvetica,sans-Serif" font-size="10.00">IEquatable&lt; DiscordJoinTo</text>
<text text-anchor="start" x="207.5" y="-291" font-family="Helvetica,sans-Serif" font-size="10.00">ServerRequest &gt;</text>
<text text-anchor="start" x="247" y="-276" font-family="Helvetica,sans-Serif" font-size="10.00"> </text>
<text text-anchor="start" x="247" y="-261" font-family="Helvetica,sans-Serif" font-size="10.00"> </text>
<polygon fill="#666666" stroke="#666666" points="179.5,-286 179.5,-286 318.5,-286 318.5,-286 179.5,-286"/>
<polygon fill="#666666" stroke="#666666" points="179.5,-271 179.5,-271 318.5,-271 318.5,-271 179.5,-271"/>
<polygon fill="none" stroke="#666666" points="179,-254 179,-314 318,-314 318,-254 179,-254"/>
</a>
</g>
</g>
<!-- Node3&#45;&gt;Node1 -->
<g id="edge2_Node000001_Node000003" class="edge">
<title>Node3&#45;&gt;Node1</title>
<g id="a_edge2_Node000001_Node000003"><a xlink:title=" ">
<path fill="none" stroke="#63b8ff" d="M232.38,-244.24C222.48,-220.42 209.42,-189.03 197.41,-160.15"/>
<polygon fill="none" stroke="#63b8ff" points="229.21,-245.74 236.29,-253.63 235.68,-243.05 229.21,-245.74"/>
</a>
</g>
</g>
</g>
</svg>
</svg>

<style type='text/css'>
<![CDATA[
[data-mouse-over-selected='false'] { opacity: 0.7; }
[data-mouse-over-selected='true']  { opacity: 1.0; }
]]>
</style>
<script type="application/ecmascript"><![CDATA[
document.addEventListener('DOMContentLoaded', (event) => {
  highlightEdges();
  highlightAdjacentNodes();
});
]]></script>
</svg>
