<?xml version="1.0" encoding="UTF-8" standalone="no"?>
<!DOCTYPE svg PUBLIC "-//W3C//DTD SVG 1.1//EN"
 "http://www.w3.org/Graphics/SVG/1.1/DTD/svg11.dtd">
<!-- Generated by graphviz version 2.43.0 (0)
 -->
<!-- Title: Ionic.Zip.ZipProgressEventArgs Pages: 1 -->
<svg width="999pt" height="947pt"
 viewBox="0.00 0.00 998.50 947.00" xmlns="http://www.w3.org/2000/svg" xmlns:xlink="http://www.w3.org/1999/xlink">
<g id="graph0" class="graph" transform="scale(1 1) rotate(0) translate(4 943)">
<title>Ionic.Zip.ZipProgressEventArgs</title>
<!-- Node1 -->
<g id="Node000001" class="node">
<title>Node1</title>
<g id="a_Node000001"><a xlink:title=" ">
<polygon fill="#999999" stroke="transparent" points="598,-828 435,-828 435,-514 598,-514 598,-828"/>
<text text-anchor="start" x="440.5" y="-816" font-family="Helvetica,sans-Serif" font-size="10.00">Ionic.Zip.ZipProgressEventArgs</text>
<text text-anchor="start" x="442.5" y="-801" font-family="Helvetica,sans-Serif" font-size="10.00">+</text>
<text text-anchor="start" x="458.5" y="-801" font-family="Helvetica,sans-Serif" font-size="10.00">int EntriesTotal</text>
<text text-anchor="start" x="442.5" y="-786" font-family="Helvetica,sans-Serif" font-size="10.00">+</text>
<text text-anchor="start" x="458.5" y="-786" font-family="Helvetica,sans-Serif" font-size="10.00">ZipEntry CurrentEntry</text>
<text text-anchor="start" x="442.5" y="-771" font-family="Helvetica,sans-Serif" font-size="10.00">+</text>
<text text-anchor="start" x="458.5" y="-771" font-family="Helvetica,sans-Serif" font-size="10.00">bool Cancel</text>
<text text-anchor="start" x="442.5" y="-756" font-family="Helvetica,sans-Serif" font-size="10.00">+</text>
<text text-anchor="start" x="458.5" y="-756" font-family="Helvetica,sans-Serif" font-size="10.00">ZipProgressEventType</text>
<text text-anchor="start" x="458.5" y="-745" font-family="Helvetica,sans-Serif" font-size="10.00"> EventType</text>
<text text-anchor="start" x="442.5" y="-730" font-family="Helvetica,sans-Serif" font-size="10.00">+</text>
<text text-anchor="start" x="458.5" y="-730" font-family="Helvetica,sans-Serif" font-size="10.00">string ArchiveName</text>
<text text-anchor="start" x="442.5" y="-715" font-family="Helvetica,sans-Serif" font-size="10.00">+</text>
<text text-anchor="start" x="458.5" y="-715" font-family="Helvetica,sans-Serif" font-size="10.00">long BytesTransferred</text>
<text text-anchor="start" x="442.5" y="-700" font-family="Helvetica,sans-Serif" font-size="10.00">+</text>
<text text-anchor="start" x="458.5" y="-700" font-family="Helvetica,sans-Serif" font-size="10.00">long TotalBytesToTransfer</text>
<text text-anchor="start" x="445" y="-685" font-family="Helvetica,sans-Serif" font-size="10.00">&#45;</text>
<text text-anchor="start" x="458.5" y="-685" font-family="Helvetica,sans-Serif" font-size="10.00">int _entriesTotal</text>
<text text-anchor="start" x="445" y="-670" font-family="Helvetica,sans-Serif" font-size="10.00">&#45;</text>
<text text-anchor="start" x="458.5" y="-670" font-family="Helvetica,sans-Serif" font-size="10.00">bool _cancel</text>
<text text-anchor="start" x="445" y="-655" font-family="Helvetica,sans-Serif" font-size="10.00">&#45;</text>
<text text-anchor="start" x="458.5" y="-655" font-family="Helvetica,sans-Serif" font-size="10.00">ZipEntry _latestEntry</text>
<text text-anchor="start" x="445" y="-640" font-family="Helvetica,sans-Serif" font-size="10.00">&#45;</text>
<text text-anchor="start" x="458.5" y="-640" font-family="Helvetica,sans-Serif" font-size="10.00">ZipProgressEventType</text>
<text text-anchor="start" x="458.5" y="-629" font-family="Helvetica,sans-Serif" font-size="10.00"> _flavor</text>
<text text-anchor="start" x="445" y="-614" font-family="Helvetica,sans-Serif" font-size="10.00">&#45;</text>
<text text-anchor="start" x="458.5" y="-614" font-family="Helvetica,sans-Serif" font-size="10.00">string _archiveName</text>
<text text-anchor="start" x="445" y="-599" font-family="Helvetica,sans-Serif" font-size="10.00">&#45;</text>
<text text-anchor="start" x="458.5" y="-599" font-family="Helvetica,sans-Serif" font-size="10.00">long _bytesTransferred</text>
<text text-anchor="start" x="445" y="-584" font-family="Helvetica,sans-Serif" font-size="10.00">&#45;</text>
<text text-anchor="start" x="458.5" y="-584" font-family="Helvetica,sans-Serif" font-size="10.00">long _totalBytesToTransfer</text>
<text text-anchor="start" x="442.5" y="-569" font-family="Helvetica,sans-Serif" font-size="10.00">~</text>
<text text-anchor="start" x="458.5" y="-569" font-family="Helvetica,sans-Serif" font-size="10.00">ZipProgressEventArgs()</text>
<text text-anchor="start" x="442.5" y="-554" font-family="Helvetica,sans-Serif" font-size="10.00">~</text>
<text text-anchor="start" x="458.5" y="-554" font-family="Helvetica,sans-Serif" font-size="10.00">ZipProgressEventArgs</text>
<text text-anchor="start" x="458.5" y="-543" font-family="Helvetica,sans-Serif" font-size="10.00">(string archiveName,</text>
<text text-anchor="start" x="458.5" y="-532" font-family="Helvetica,sans-Serif" font-size="10.00"> ZipProgressEventType</text>
<text text-anchor="start" x="458.5" y="-521" font-family="Helvetica,sans-Serif" font-size="10.00"> flavor)</text>
<polygon fill="#666666" stroke="#666666" points="435.5,-811 435.5,-811 598.5,-811 598.5,-811 435.5,-811"/>
<polygon fill="#666666" stroke="#666666" points="435.5,-579 435.5,-579 456.5,-579 456.5,-579 435.5,-579"/>
<polygon fill="#666666" stroke="#666666" points="456.5,-579 456.5,-579 598.5,-579 598.5,-579 456.5,-579"/>
<polygon fill="none" stroke="#666666" points="435,-514 435,-828 598,-828 598,-514 435,-514"/>
</a>
</g>
</g>
<!-- Node3 -->
<g id="Node000003" class="node">
<title>Node3</title>
<g id="a_Node000003"><a xlink:href="../../de/d7e/classIonic_1_1Zip_1_1AddProgressEventArgs.html" target="_top" xlink:title=" ">
<polygon fill="white" stroke="transparent" points="181,-332 0,-332 0,-146 181,-146 181,-332"/>
<text text-anchor="start" x="13" y="-320" font-family="Helvetica,sans-Serif" font-size="10.00">Ionic.Zip.AddProgressEventArgs</text>
<text text-anchor="start" x="89" y="-305" font-family="Helvetica,sans-Serif" font-size="10.00"> </text>
<text text-anchor="start" x="4.5" y="-290" font-family="Helvetica,sans-Serif" font-size="10.00">~</text>
<text text-anchor="start" x="17.5" y="-290" font-family="Helvetica,sans-Serif" font-size="10.00">AddProgressEventArgs()</text>
<text text-anchor="start" x="4.5" y="-275" font-family="Helvetica,sans-Serif" font-size="10.00">~</text>
<text text-anchor="start" x="17.5" y="-275" font-family="Helvetica,sans-Serif" font-size="10.00">static AddProgressEventArgs</text>
<text text-anchor="start" x="17.5" y="-264" font-family="Helvetica,sans-Serif" font-size="10.00"> AfterEntry(string archiveName,</text>
<text text-anchor="start" x="17.5" y="-253" font-family="Helvetica,sans-Serif" font-size="10.00"> ZipEntry entry, int entriesTotal)</text>
<text text-anchor="start" x="4.5" y="-238" font-family="Helvetica,sans-Serif" font-size="10.00">~</text>
<text text-anchor="start" x="17.5" y="-238" font-family="Helvetica,sans-Serif" font-size="10.00">static AddProgressEventArgs</text>
<text text-anchor="start" x="17.5" y="-227" font-family="Helvetica,sans-Serif" font-size="10.00"> Started(string archiveName)</text>
<text text-anchor="start" x="4.5" y="-212" font-family="Helvetica,sans-Serif" font-size="10.00">~</text>
<text text-anchor="start" x="17.5" y="-212" font-family="Helvetica,sans-Serif" font-size="10.00">static AddProgressEventArgs</text>
<text text-anchor="start" x="17.5" y="-201" font-family="Helvetica,sans-Serif" font-size="10.00"> Completed(string archiveName)</text>
<text text-anchor="start" x="7" y="-186" font-family="Helvetica,sans-Serif" font-size="10.00">&#45;</text>
<text text-anchor="start" x="17.5" y="-186" font-family="Helvetica,sans-Serif" font-size="10.00">AddProgressEventArgs</text>
<text text-anchor="start" x="17.5" y="-175" font-family="Helvetica,sans-Serif" font-size="10.00">(string archiveName,</text>
<text text-anchor="start" x="17.5" y="-164" font-family="Helvetica,sans-Serif" font-size="10.00"> ZipProgressEventType</text>
<text text-anchor="start" x="17.5" y="-153" font-family="Helvetica,sans-Serif" font-size="10.00"> flavor)</text>
<polygon fill="#666666" stroke="#666666" points="0.5,-315 0.5,-315 181.5,-315 181.5,-315 0.5,-315"/>
<polygon fill="#666666" stroke="#666666" points="0.5,-300 0.5,-300 181.5,-300 181.5,-300 0.5,-300"/>
<polygon fill="none" stroke="#666666" points="0,-146 0,-332 181,-332 181,-146 0,-146"/>
</a>
</g>
</g>
<!-- Node1&#45;&gt;Node3 -->
<g id="edge2_Node000001_Node000003" class="edge">
<title>Node1&#45;&gt;Node3</title>
<g id="a_edge2_Node000001_Node000003"><a xlink:title=" ">
<path fill="none" stroke="#63b8ff" d="M425.34,-635.59C352.95,-604.21 253.57,-551.49 189.5,-478 153.25,-436.43 128.96,-379.72 113.51,-332.08"/>
<polygon fill="none" stroke="#63b8ff" points="424.35,-638.98 434.92,-639.69 427.11,-632.54 424.35,-638.98"/>
</a>
</g>
</g>
<!-- Node4 -->
<g id="Node000004" class="node">
<title>Node4</title>
<g id="a_Node000004"><a xlink:href="../../d4/d5f/classIonic_1_1Zip_1_1ExtractProgressEventArgs.html" target="_top" xlink:title=" ">
<polygon fill="white" stroke="transparent" points="406,-478 199,-478 199,0 406,0 406,-478"/>
<text text-anchor="start" x="242" y="-466" font-family="Helvetica,sans-Serif" font-size="10.00">Ionic.Zip.ExtractProgress</text>
<text text-anchor="start" x="278" y="-455" font-family="Helvetica,sans-Serif" font-size="10.00">EventArgs</text>
<text text-anchor="start" x="203.5" y="-440" font-family="Helvetica,sans-Serif" font-size="10.00">+</text>
<text text-anchor="start" x="216.5" y="-440" font-family="Helvetica,sans-Serif" font-size="10.00">int EntriesExtracted</text>
<text text-anchor="start" x="203.5" y="-425" font-family="Helvetica,sans-Serif" font-size="10.00">+</text>
<text text-anchor="start" x="216.5" y="-425" font-family="Helvetica,sans-Serif" font-size="10.00">string ExtractLocation</text>
<text text-anchor="start" x="206" y="-410" font-family="Helvetica,sans-Serif" font-size="10.00">&#45;</text>
<text text-anchor="start" x="216.5" y="-410" font-family="Helvetica,sans-Serif" font-size="10.00">int _entriesExtracted</text>
<text text-anchor="start" x="206" y="-395" font-family="Helvetica,sans-Serif" font-size="10.00">&#45;</text>
<text text-anchor="start" x="216.5" y="-395" font-family="Helvetica,sans-Serif" font-size="10.00">string _target</text>
<text text-anchor="start" x="203.5" y="-380" font-family="Helvetica,sans-Serif" font-size="10.00">~</text>
<text text-anchor="start" x="216.5" y="-380" font-family="Helvetica,sans-Serif" font-size="10.00">ExtractProgressEventArgs</text>
<text text-anchor="start" x="216.5" y="-369" font-family="Helvetica,sans-Serif" font-size="10.00">(string archiveName, bool</text>
<text text-anchor="start" x="216.5" y="-358" font-family="Helvetica,sans-Serif" font-size="10.00"> before, int entriesTotal,</text>
<text text-anchor="start" x="216.5" y="-347" font-family="Helvetica,sans-Serif" font-size="10.00"> int entriesExtracted, ZipEntry</text>
<text text-anchor="start" x="216.5" y="-336" font-family="Helvetica,sans-Serif" font-size="10.00"> entry, string extractLocation)</text>
<text text-anchor="start" x="203.5" y="-321" font-family="Helvetica,sans-Serif" font-size="10.00">~</text>
<text text-anchor="start" x="216.5" y="-321" font-family="Helvetica,sans-Serif" font-size="10.00">ExtractProgressEventArgs</text>
<text text-anchor="start" x="216.5" y="-310" font-family="Helvetica,sans-Serif" font-size="10.00">(string archiveName, ZipProgress</text>
<text text-anchor="start" x="216.5" y="-299" font-family="Helvetica,sans-Serif" font-size="10.00">EventType flavor)</text>
<text text-anchor="start" x="203.5" y="-284" font-family="Helvetica,sans-Serif" font-size="10.00">~</text>
<text text-anchor="start" x="216.5" y="-284" font-family="Helvetica,sans-Serif" font-size="10.00">ExtractProgressEventArgs()</text>
<text text-anchor="start" x="203.5" y="-269" font-family="Helvetica,sans-Serif" font-size="10.00">~</text>
<text text-anchor="start" x="216.5" y="-269" font-family="Helvetica,sans-Serif" font-size="10.00">static ExtractProgressEvent</text>
<text text-anchor="start" x="216.5" y="-258" font-family="Helvetica,sans-Serif" font-size="10.00">Args BeforeExtractEntry</text>
<text text-anchor="start" x="216.5" y="-247" font-family="Helvetica,sans-Serif" font-size="10.00">(string archiveName, ZipEntry</text>
<text text-anchor="start" x="216.5" y="-236" font-family="Helvetica,sans-Serif" font-size="10.00"> entry, string extractLocation)</text>
<text text-anchor="start" x="203.5" y="-221" font-family="Helvetica,sans-Serif" font-size="10.00">~</text>
<text text-anchor="start" x="216.5" y="-221" font-family="Helvetica,sans-Serif" font-size="10.00">static ExtractProgressEvent</text>
<text text-anchor="start" x="216.5" y="-210" font-family="Helvetica,sans-Serif" font-size="10.00">Args ExtractExisting(string</text>
<text text-anchor="start" x="216.5" y="-199" font-family="Helvetica,sans-Serif" font-size="10.00"> archiveName, ZipEntry entry,</text>
<text text-anchor="start" x="216.5" y="-188" font-family="Helvetica,sans-Serif" font-size="10.00"> string extractLocation)</text>
<text text-anchor="start" x="203.5" y="-173" font-family="Helvetica,sans-Serif" font-size="10.00">~</text>
<text text-anchor="start" x="216.5" y="-173" font-family="Helvetica,sans-Serif" font-size="10.00">static ExtractProgressEvent</text>
<text text-anchor="start" x="216.5" y="-162" font-family="Helvetica,sans-Serif" font-size="10.00">Args AfterExtractEntry(string</text>
<text text-anchor="start" x="216.5" y="-151" font-family="Helvetica,sans-Serif" font-size="10.00"> archiveName, ZipEntry entry,</text>
<text text-anchor="start" x="216.5" y="-140" font-family="Helvetica,sans-Serif" font-size="10.00"> string extractLocation)</text>
<text text-anchor="start" x="203.5" y="-125" font-family="Helvetica,sans-Serif" font-size="10.00">~</text>
<text text-anchor="start" x="216.5" y="-125" font-family="Helvetica,sans-Serif" font-size="10.00">static ExtractProgressEvent</text>
<text text-anchor="start" x="216.5" y="-114" font-family="Helvetica,sans-Serif" font-size="10.00">Args ExtractAllStarted(string</text>
<text text-anchor="start" x="216.5" y="-103" font-family="Helvetica,sans-Serif" font-size="10.00"> archiveName, string extractLocation)</text>
<text text-anchor="start" x="203.5" y="-88" font-family="Helvetica,sans-Serif" font-size="10.00">~</text>
<text text-anchor="start" x="216.5" y="-88" font-family="Helvetica,sans-Serif" font-size="10.00">static ExtractProgressEvent</text>
<text text-anchor="start" x="216.5" y="-77" font-family="Helvetica,sans-Serif" font-size="10.00">Args ExtractAllCompleted</text>
<text text-anchor="start" x="216.5" y="-66" font-family="Helvetica,sans-Serif" font-size="10.00">(string archiveName, string</text>
<text text-anchor="start" x="216.5" y="-55" font-family="Helvetica,sans-Serif" font-size="10.00"> extractLocation)</text>
<text text-anchor="start" x="203.5" y="-40" font-family="Helvetica,sans-Serif" font-size="10.00">~</text>
<text text-anchor="start" x="216.5" y="-40" font-family="Helvetica,sans-Serif" font-size="10.00">static ExtractProgressEvent</text>
<text text-anchor="start" x="216.5" y="-29" font-family="Helvetica,sans-Serif" font-size="10.00">Args ByteUpdate(string archiveName,</text>
<text text-anchor="start" x="216.5" y="-18" font-family="Helvetica,sans-Serif" font-size="10.00"> ZipEntry entry, long bytesWritten,</text>
<text text-anchor="start" x="216.5" y="-7" font-family="Helvetica,sans-Serif" font-size="10.00"> long totalBytes)</text>
<polygon fill="#666666" stroke="#666666" points="199.5,-450 199.5,-450 406.5,-450 406.5,-450 199.5,-450"/>
<polygon fill="#666666" stroke="#666666" points="199.5,-390 199.5,-390 214.5,-390 214.5,-390 199.5,-390"/>
<polygon fill="#666666" stroke="#666666" points="214.5,-390 214.5,-390 406.5,-390 406.5,-390 214.5,-390"/>
<polygon fill="none" stroke="#666666" points="199,0 199,-478 406,-478 406,0 199,0"/>
</a>
</g>
</g>
<!-- Node1&#45;&gt;Node4 -->
<g id="edge3_Node000001_Node000004" class="edge">
<title>Node1&#45;&gt;Node4</title>
<g id="a_edge3_Node000001_Node000004"><a xlink:title=" ">
<path fill="none" stroke="#63b8ff" d="M430.26,-507.18C425.23,-497.32 420.27,-487.54 415.5,-478 412.38,-471.76 409.23,-465.42 406.07,-459.01"/>
<polygon fill="none" stroke="#63b8ff" points="427.23,-508.93 434.91,-516.24 433.46,-505.74 427.23,-508.93"/>
</a>
</g>
</g>
<!-- Node5 -->
<g id="Node000005" class="node">
<title>Node5</title>
<g id="a_Node000005"><a xlink:href="../../d1/d24/classIonic_1_1Zip_1_1ReadProgressEventArgs.html" target="_top" xlink:title=" ">
<polygon fill="white" stroke="transparent" points="609,-380 424,-380 424,-98 609,-98 609,-380"/>
<text text-anchor="start" x="436" y="-368" font-family="Helvetica,sans-Serif" font-size="10.00">Ionic.Zip.ReadProgressEventArgs</text>
<text text-anchor="start" x="515" y="-353" font-family="Helvetica,sans-Serif" font-size="10.00"> </text>
<text text-anchor="start" x="428.5" y="-338" font-family="Helvetica,sans-Serif" font-size="10.00">~</text>
<text text-anchor="start" x="441.5" y="-338" font-family="Helvetica,sans-Serif" font-size="10.00">ReadProgressEventArgs()</text>
<text text-anchor="start" x="428.5" y="-323" font-family="Helvetica,sans-Serif" font-size="10.00">~</text>
<text text-anchor="start" x="441.5" y="-323" font-family="Helvetica,sans-Serif" font-size="10.00">static ReadProgressEvent</text>
<text text-anchor="start" x="441.5" y="-312" font-family="Helvetica,sans-Serif" font-size="10.00">Args Before(string archiveName,</text>
<text text-anchor="start" x="441.5" y="-301" font-family="Helvetica,sans-Serif" font-size="10.00"> int entriesTotal)</text>
<text text-anchor="start" x="428.5" y="-286" font-family="Helvetica,sans-Serif" font-size="10.00">~</text>
<text text-anchor="start" x="441.5" y="-286" font-family="Helvetica,sans-Serif" font-size="10.00">static ReadProgressEvent</text>
<text text-anchor="start" x="441.5" y="-275" font-family="Helvetica,sans-Serif" font-size="10.00">Args After(string archiveName,</text>
<text text-anchor="start" x="441.5" y="-264" font-family="Helvetica,sans-Serif" font-size="10.00"> ZipEntry entry, int entriesTotal)</text>
<text text-anchor="start" x="428.5" y="-249" font-family="Helvetica,sans-Serif" font-size="10.00">~</text>
<text text-anchor="start" x="441.5" y="-249" font-family="Helvetica,sans-Serif" font-size="10.00">static ReadProgressEvent</text>
<text text-anchor="start" x="441.5" y="-238" font-family="Helvetica,sans-Serif" font-size="10.00">Args Started(string archiveName)</text>
<text text-anchor="start" x="428.5" y="-223" font-family="Helvetica,sans-Serif" font-size="10.00">~</text>
<text text-anchor="start" x="441.5" y="-223" font-family="Helvetica,sans-Serif" font-size="10.00">static ReadProgressEvent</text>
<text text-anchor="start" x="441.5" y="-212" font-family="Helvetica,sans-Serif" font-size="10.00">Args ByteUpdate(string</text>
<text text-anchor="start" x="441.5" y="-201" font-family="Helvetica,sans-Serif" font-size="10.00"> archiveName, ZipEntry</text>
<text text-anchor="start" x="441.5" y="-190" font-family="Helvetica,sans-Serif" font-size="10.00"> entry, long bytesXferred,</text>
<text text-anchor="start" x="441.5" y="-179" font-family="Helvetica,sans-Serif" font-size="10.00"> long totalBytes)</text>
<text text-anchor="start" x="428.5" y="-164" font-family="Helvetica,sans-Serif" font-size="10.00">~</text>
<text text-anchor="start" x="441.5" y="-164" font-family="Helvetica,sans-Serif" font-size="10.00">static ReadProgressEvent</text>
<text text-anchor="start" x="441.5" y="-153" font-family="Helvetica,sans-Serif" font-size="10.00">Args Completed(string</text>
<text text-anchor="start" x="441.5" y="-142" font-family="Helvetica,sans-Serif" font-size="10.00"> archiveName)</text>
<text text-anchor="start" x="431" y="-127" font-family="Helvetica,sans-Serif" font-size="10.00">&#45;</text>
<text text-anchor="start" x="441.5" y="-127" font-family="Helvetica,sans-Serif" font-size="10.00">ReadProgressEventArgs</text>
<text text-anchor="start" x="441.5" y="-116" font-family="Helvetica,sans-Serif" font-size="10.00">(string archiveName, ZipProgress</text>
<text text-anchor="start" x="441.5" y="-105" font-family="Helvetica,sans-Serif" font-size="10.00">EventType flavor)</text>
<polygon fill="#666666" stroke="#666666" points="424.5,-363 424.5,-363 609.5,-363 609.5,-363 424.5,-363"/>
<polygon fill="#666666" stroke="#666666" points="424.5,-348 424.5,-348 609.5,-348 609.5,-348 424.5,-348"/>
<polygon fill="none" stroke="#666666" points="424,-98 424,-380 609,-380 609,-98 424,-98"/>
</a>
</g>
</g>
<!-- Node1&#45;&gt;Node5 -->
<g id="edge4_Node000001_Node000005" class="edge">
<title>Node1&#45;&gt;Node5</title>
<g id="a_edge4_Node000001_Node000005"><a xlink:title=" ">
<path fill="none" stroke="#63b8ff" d="M516.5,-503.8C516.5,-462.95 516.5,-419.63 516.5,-380.15"/>
<polygon fill="none" stroke="#63b8ff" points="513,-503.85 516.5,-513.85 520,-503.85 513,-503.85"/>
</a>
</g>
</g>
<!-- Node6 -->
<g id="Node000006" class="node">
<title>Node6</title>
<g id="a_Node000006"><a xlink:href="../../d5/d29/classIonic_1_1Zip_1_1SaveProgressEventArgs.html" target="_top" xlink:title=" ">
<polygon fill="white" stroke="transparent" points="812,-374.5 627,-374.5 627,-103.5 812,-103.5 812,-374.5"/>
<text text-anchor="start" x="639.5" y="-362" font-family="Helvetica,sans-Serif" font-size="10.00">Ionic.Zip.SaveProgressEventArgs</text>
<text text-anchor="start" x="631.5" y="-347" font-family="Helvetica,sans-Serif" font-size="10.00">+</text>
<text text-anchor="start" x="644.5" y="-347" font-family="Helvetica,sans-Serif" font-size="10.00">int EntriesSaved</text>
<text text-anchor="start" x="634" y="-332" font-family="Helvetica,sans-Serif" font-size="10.00">&#45;</text>
<text text-anchor="start" x="644.5" y="-332" font-family="Helvetica,sans-Serif" font-size="10.00">int _entriesSaved</text>
<text text-anchor="start" x="631.5" y="-317" font-family="Helvetica,sans-Serif" font-size="10.00">~</text>
<text text-anchor="start" x="644.5" y="-317" font-family="Helvetica,sans-Serif" font-size="10.00">SaveProgressEventArgs</text>
<text text-anchor="start" x="644.5" y="-306" font-family="Helvetica,sans-Serif" font-size="10.00">(string archiveName, bool</text>
<text text-anchor="start" x="644.5" y="-295" font-family="Helvetica,sans-Serif" font-size="10.00"> before, int entriesTotal,</text>
<text text-anchor="start" x="644.5" y="-284" font-family="Helvetica,sans-Serif" font-size="10.00"> int entriesSaved, ZipEntry entry)</text>
<text text-anchor="start" x="631.5" y="-269" font-family="Helvetica,sans-Serif" font-size="10.00">~</text>
<text text-anchor="start" x="644.5" y="-269" font-family="Helvetica,sans-Serif" font-size="10.00">SaveProgressEventArgs()</text>
<text text-anchor="start" x="631.5" y="-254" font-family="Helvetica,sans-Serif" font-size="10.00">~</text>
<text text-anchor="start" x="644.5" y="-254" font-family="Helvetica,sans-Serif" font-size="10.00">SaveProgressEventArgs</text>
<text text-anchor="start" x="644.5" y="-243" font-family="Helvetica,sans-Serif" font-size="10.00">(string archiveName, ZipProgress</text>
<text text-anchor="start" x="644.5" y="-232" font-family="Helvetica,sans-Serif" font-size="10.00">EventType flavor)</text>
<text text-anchor="start" x="631.5" y="-217" font-family="Helvetica,sans-Serif" font-size="10.00">~</text>
<text text-anchor="start" x="644.5" y="-217" font-family="Helvetica,sans-Serif" font-size="10.00">static SaveProgressEvent</text>
<text text-anchor="start" x="644.5" y="-206" font-family="Helvetica,sans-Serif" font-size="10.00">Args ByteUpdate(string</text>
<text text-anchor="start" x="644.5" y="-195" font-family="Helvetica,sans-Serif" font-size="10.00"> archiveName, ZipEntry</text>
<text text-anchor="start" x="644.5" y="-184" font-family="Helvetica,sans-Serif" font-size="10.00"> entry, long bytesXferred,</text>
<text text-anchor="start" x="644.5" y="-173" font-family="Helvetica,sans-Serif" font-size="10.00"> long totalBytes)</text>
<text text-anchor="start" x="631.5" y="-158" font-family="Helvetica,sans-Serif" font-size="10.00">~</text>
<text text-anchor="start" x="644.5" y="-158" font-family="Helvetica,sans-Serif" font-size="10.00">static SaveProgressEvent</text>
<text text-anchor="start" x="644.5" y="-147" font-family="Helvetica,sans-Serif" font-size="10.00">Args Started(string archiveName)</text>
<text text-anchor="start" x="631.5" y="-132" font-family="Helvetica,sans-Serif" font-size="10.00">~</text>
<text text-anchor="start" x="644.5" y="-132" font-family="Helvetica,sans-Serif" font-size="10.00">static SaveProgressEvent</text>
<text text-anchor="start" x="644.5" y="-121" font-family="Helvetica,sans-Serif" font-size="10.00">Args Completed(string</text>
<text text-anchor="start" x="644.5" y="-110" font-family="Helvetica,sans-Serif" font-size="10.00"> archiveName)</text>
<polygon fill="#666666" stroke="#666666" points="627.5,-357 627.5,-357 812.5,-357 812.5,-357 627.5,-357"/>
<polygon fill="#666666" stroke="#666666" points="627.5,-327 627.5,-327 642.5,-327 642.5,-327 627.5,-327"/>
<polygon fill="#666666" stroke="#666666" points="642.5,-327 642.5,-327 812.5,-327 812.5,-327 642.5,-327"/>
<polygon fill="none" stroke="#666666" points="627,-103.5 627,-374.5 812,-374.5 812,-103.5 627,-103.5"/>
</a>
</g>
</g>
<!-- Node1&#45;&gt;Node6 -->
<g id="edge5_Node000001_Node000006" class="edge">
<title>Node1&#45;&gt;Node6</title>
<g id="a_edge5_Node000001_Node000006"><a xlink:title=" ">
<path fill="none" stroke="#63b8ff" d="M602.62,-508.5C607.74,-498.22 612.74,-487.99 617.5,-478 633.31,-444.82 649.42,-408.56 664.03,-374.58"/>
<polygon fill="none" stroke="#63b8ff" points="599.44,-507.04 598.09,-517.54 605.7,-510.17 599.44,-507.04"/>
</a>
</g>
</g>
<!-- Node7 -->
<g id="Node000007" class="node">
<title>Node7</title>
<g id="a_Node000007"><a xlink:href="../../da/d6d/classIonic_1_1Zip_1_1ZipErrorEventArgs.html" target="_top" xlink:title=" ">
<polygon fill="white" stroke="transparent" points="990.5,-302.5 830.5,-302.5 830.5,-175.5 990.5,-175.5 990.5,-302.5"/>
<text text-anchor="start" x="843.5" y="-290" font-family="Helvetica,sans-Serif" font-size="10.00">Ionic.Zip.ZipErrorEventArgs</text>
<text text-anchor="start" x="834.5" y="-275" font-family="Helvetica,sans-Serif" font-size="10.00">+</text>
<text text-anchor="start" x="847.5" y="-275" font-family="Helvetica,sans-Serif" font-size="10.00">Exception Exception</text>
<text text-anchor="start" x="834.5" y="-260" font-family="Helvetica,sans-Serif" font-size="10.00">+</text>
<text text-anchor="start" x="847.5" y="-260" font-family="Helvetica,sans-Serif" font-size="10.00">string FileName</text>
<text text-anchor="start" x="837" y="-245" font-family="Helvetica,sans-Serif" font-size="10.00">&#45;</text>
<text text-anchor="start" x="847.5" y="-245" font-family="Helvetica,sans-Serif" font-size="10.00">Exception _exc</text>
<text text-anchor="start" x="834.5" y="-230" font-family="Helvetica,sans-Serif" font-size="10.00">~</text>
<text text-anchor="start" x="847.5" y="-230" font-family="Helvetica,sans-Serif" font-size="10.00">static ZipErrorEventArgs</text>
<text text-anchor="start" x="847.5" y="-219" font-family="Helvetica,sans-Serif" font-size="10.00"> Saving(string archiveName,</text>
<text text-anchor="start" x="847.5" y="-208" font-family="Helvetica,sans-Serif" font-size="10.00"> ZipEntry entry, Exception</text>
<text text-anchor="start" x="847.5" y="-197" font-family="Helvetica,sans-Serif" font-size="10.00"> exception)</text>
<text text-anchor="start" x="837" y="-182" font-family="Helvetica,sans-Serif" font-size="10.00">&#45;</text>
<text text-anchor="start" x="847.5" y="-182" font-family="Helvetica,sans-Serif" font-size="10.00">ZipErrorEventArgs()</text>
<polygon fill="#666666" stroke="#666666" points="830.5,-285 830.5,-285 990.5,-285 990.5,-285 830.5,-285"/>
<polygon fill="#666666" stroke="#666666" points="830.5,-240 830.5,-240 845.5,-240 845.5,-240 830.5,-240"/>
<polygon fill="#666666" stroke="#666666" points="845.5,-240 845.5,-240 990.5,-240 990.5,-240 845.5,-240"/>
<polygon fill="none" stroke="#666666" points="830.5,-175.5 830.5,-302.5 990.5,-302.5 990.5,-175.5 830.5,-175.5"/>
</a>
</g>
</g>
<!-- Node1&#45;&gt;Node7 -->
<g id="edge6_Node000001_Node000007" class="edge">
<title>Node1&#45;&gt;Node7</title>
<g id="a_edge6_Node000001_Node000007"><a xlink:title=" ">
<path fill="none" stroke="#63b8ff" d="M607.58,-632.17C674.95,-600.04 764.52,-547.97 821.5,-478 863.14,-426.86 886.5,-354.28 898.73,-302.75"/>
<polygon fill="none" stroke="#63b8ff" points="605.79,-629.15 598.23,-636.57 608.77,-635.48 605.79,-629.15"/>
</a>
</g>
</g>
<!-- Node2 -->
<g id="Node000002" class="node">
<title>Node2</title>
<g id="a_Node000002"><a xlink:href="../../d2/d76/classSystem_1_1EventArgs.html" target="_top" xlink:title=" ">
<polygon fill="white" stroke="transparent" points="592,-939 441,-939 441,-864 592,-864 592,-939"/>
<text text-anchor="start" x="492" y="-926.5" font-family="Helvetica,sans-Serif" font-size="10.00">EventArgs</text>
<text text-anchor="start" x="445.5" y="-911.5" font-family="Helvetica,sans-Serif" font-size="10.00">+</text>
<text text-anchor="start" x="458.5" y="-911.5" font-family="Helvetica,sans-Serif" font-size="10.00">static readonly global</text>
<text text-anchor="start" x="458.5" y="-900.5" font-family="Helvetica,sans-Serif" font-size="10.00">::System.EventArgs Empty</text>
<text text-anchor="start" x="445.5" y="-885.5" font-family="Helvetica,sans-Serif" font-size="10.00">+</text>
<text text-anchor="start" x="458.5" y="-885.5" font-family="Helvetica,sans-Serif" font-size="10.00">EventArgs()</text>
<text text-anchor="start" x="448" y="-870.5" font-family="Helvetica,sans-Serif" font-size="10.00">&#45;</text>
<text text-anchor="start" x="458.5" y="-870.5" font-family="Helvetica,sans-Serif" font-size="10.00">static EventArgs()</text>
<polygon fill="#666666" stroke="#666666" points="441.5,-921.5 441.5,-921.5 592.5,-921.5 592.5,-921.5 441.5,-921.5"/>
<polygon fill="#666666" stroke="#666666" points="441.5,-895.5 441.5,-895.5 456.5,-895.5 456.5,-895.5 441.5,-895.5"/>
<polygon fill="#666666" stroke="#666666" points="456.5,-895.5 456.5,-895.5 592.5,-895.5 592.5,-895.5 456.5,-895.5"/>
<polygon fill="none" stroke="#666666" points="441,-864 441,-939 592,-939 592,-864 441,-864"/>
</a>
</g>
</g>
<!-- Node2&#45;&gt;Node1 -->
<g id="edge1_Node000001_Node000002" class="edge">
<title>Node2&#45;&gt;Node1</title>
<g id="a_edge1_Node000001_Node000002"><a xlink:title=" ">
<path fill="none" stroke="#63b8ff" d="M516.5,-853.78C516.5,-845.86 516.5,-837.25 516.5,-828.25"/>
<polygon fill="none" stroke="#63b8ff" points="513,-853.79 516.5,-863.79 520,-853.79 513,-853.79"/>
</a>
</g>
</g>
</g>
</svg>
