<?xml version="1.0" encoding="UTF-8" standalone="no"?>
<!DOCTYPE svg PUBLIC "-//W3C//DTD SVG 1.1//EN"
 "http://www.w3.org/Graphics/SVG/1.1/DTD/svg11.dtd">
<!-- Generated by graphviz version 2.43.0 (0)
 -->
<!-- Title: Microsoft.Xna.Framework.Graphics.ResourceCreatedEventArgs Pages: 1 -->
<svg width="287pt" height="290pt"
 viewBox="0.00 0.00 286.50 290.00" xmlns="http://www.w3.org/2000/svg" xmlns:xlink="http://www.w3.org/1999/xlink">

<svg id="main" version="1.1" xmlns="http://www.w3.org/2000/svg" xmlns:xlink="http://www.w3.org/1999/xlink" xml:space="preserve" onload="init(evt)">
<style type="text/css"><![CDATA[
.node, .edge {opacity: 0.7;}
.node.selected, .edge.selected {opacity: 1;}
.edge:hover path { stroke: red; }
.edge:hover polygon { stroke: red; fill: red; }
]]></style>
<script type="application/ecmascript" xlink:href="../../svg.min.js"/>
<svg id="graph" class="graph">
<g id="graph0" class="graph" transform="scale(1 1) rotate(0) translate(4 286)">
<title>Microsoft.Xna.Framework.Graphics.ResourceCreatedEventArgs</title>
<!-- Node1 -->
<g id="Node000001" class="node">
<title>Node1</title>
<g id="a_Node000001"><a xlink:title=" ">
<polygon fill="#999999" stroke="transparent" points="229,-60 40,-60 40,0 229,0 229,-60"/>
<text text-anchor="start" x="45.5" y="-48" font-family="Helvetica,sans-Serif" font-size="10.00">Microsoft.Xna.Framework.</text>
<text text-anchor="start" x="45.5" y="-37" font-family="Helvetica,sans-Serif" font-size="10.00">Graphics.ResourceCreatedEventArgs</text>
<text text-anchor="start" x="51" y="-22" font-family="Helvetica,sans-Serif" font-size="10.00">+</text>
<text text-anchor="start" x="70.5" y="-22" font-family="Helvetica,sans-Serif" font-size="10.00">object Resource</text>
<text text-anchor="start" x="51" y="-7" font-family="Helvetica,sans-Serif" font-size="10.00">+</text>
<text text-anchor="start" x="70.5" y="-7" font-family="Helvetica,sans-Serif" font-size="10.00">ResourceCreatedEventArgs()</text>
<polygon fill="#666666" stroke="#666666" points="40.5,-32 40.5,-32 229.5,-32 229.5,-32 40.5,-32"/>
<polygon fill="#666666" stroke="#666666" points="40.5,-17 40.5,-17 68.5,-17 68.5,-17 40.5,-17"/>
<polygon fill="#666666" stroke="#666666" points="68.5,-17 68.5,-17 229.5,-17 229.5,-17 68.5,-17"/>
<polygon fill="none" stroke="#666666" points="40,0 40,-60 229,-60 229,0 40,0"/>
</a>
</g>
</g>
<!-- Node2 -->
<g id="Node000002" class="node">
<title>Node2</title>
<g id="a_Node000002"><a xlink:href="../../d2/d76/classSystem_1_1EventArgs.html" target="_top" xlink:title=" ">
<polygon fill="white" stroke="transparent" points="126,-171 17,-171 17,-107 126,-107 126,-171"/>
<text text-anchor="start" x="47" y="-159" font-family="Helvetica,sans-Serif" font-size="10.00">EventArgs</text>
<text text-anchor="start" x="70" y="-144" font-family="Helvetica,sans-Serif" font-size="10.00"> </text>
<text text-anchor="start" x="21.5" y="-129" font-family="Helvetica,sans-Serif" font-size="10.00">+</text>
<text text-anchor="start" x="34.5" y="-129" font-family="Helvetica,sans-Serif" font-size="10.00">EventArgs()</text>
<text text-anchor="start" x="24" y="-114" font-family="Helvetica,sans-Serif" font-size="10.00">&#45;</text>
<text text-anchor="start" x="34.5" y="-114" font-family="Helvetica,sans-Serif" font-size="10.00">static EventArgs()</text>
<polygon fill="#666666" stroke="#666666" points="17.5,-154 17.5,-154 126.5,-154 126.5,-154 17.5,-154"/>
<polygon fill="#666666" stroke="#666666" points="17.5,-139 17.5,-139 126.5,-139 126.5,-139 17.5,-139"/>
<polygon fill="none" stroke="#666666" points="17,-107 17,-171 126,-171 126,-107 17,-107"/>
</a>
</g>
</g>
<!-- Node2&#45;&gt;Node1 -->
<g id="edge1_Node000001_Node000002" class="edge">
<title>Node2&#45;&gt;Node1</title>
<g id="a_edge1_Node000001_Node000002"><a xlink:title=" ">
<path fill="none" stroke="#63b8ff" d="M95.11,-97.89C102.47,-85.4 110.44,-71.86 117.27,-60.26"/>
<polygon fill="none" stroke="#63b8ff" points="91.95,-96.37 89.89,-106.76 97.98,-99.92 91.95,-96.37"/>
</a>
</g>
</g>
<!-- Node3 -->
<g id="Node000003" class="node">
<title>Node3</title>
<g id="a_Node000003"><a xlink:href="../../d2/d76/classSystem_1_1EventArgs.html" target="_top" xlink:title=" ">
<polygon fill="white" stroke="transparent" points="109,-282 0,-282 0,-218 109,-218 109,-282"/>
<text text-anchor="start" x="10" y="-270" font-family="Helvetica,sans-Serif" font-size="10.00">System.EventArgs</text>
<text text-anchor="start" x="53" y="-255" font-family="Helvetica,sans-Serif" font-size="10.00"> </text>
<text text-anchor="start" x="4.5" y="-240" font-family="Helvetica,sans-Serif" font-size="10.00">+</text>
<text text-anchor="start" x="17.5" y="-240" font-family="Helvetica,sans-Serif" font-size="10.00">EventArgs()</text>
<text text-anchor="start" x="7" y="-225" font-family="Helvetica,sans-Serif" font-size="10.00">&#45;</text>
<text text-anchor="start" x="17.5" y="-225" font-family="Helvetica,sans-Serif" font-size="10.00">static EventArgs()</text>
<polygon fill="#666666" stroke="#666666" points="0.5,-265 0.5,-265 109.5,-265 109.5,-265 0.5,-265"/>
<polygon fill="#666666" stroke="#666666" points="0.5,-250 0.5,-250 109.5,-250 109.5,-250 0.5,-250"/>
<polygon fill="none" stroke="#666666" points="0,-218 0,-282 109,-282 109,-218 0,-218"/>
</a>
</g>
</g>
<!-- Node3&#45;&gt;Node2 -->
<g id="edge2_Node000002_Node000003" class="edge">
<title>Node3&#45;&gt;Node2</title>
<g id="a_edge2_Node000002_Node000003"><a xlink:title=" ">
<path fill="none" stroke="#63b8ff" d="M59.37,-217.76C61.04,-207.05 62.95,-194.85 64.74,-183.35"/>
<polygon fill="none" stroke="#63b8ff" points="64.78,-183.1 61.75,-176.55 66.63,-171.24 69.66,-177.78 64.78,-183.1"/>
</a>
</g>
<text text-anchor="middle" x="86" y="-192" font-family="Helvetica,sans-Serif" font-size="10.00" fill="grey"> +Empty</text>
</g>
<!-- Node3&#45;&gt;Node3 -->
<g id="edge3_Node000003_Node000003" class="edge">
<title>Node3&#45;&gt;Node3</title>
<g id="a_edge3_Node000003_Node000003"><a xlink:title=" ">
<path fill="none" stroke="#63b8ff" d="M109.2,-259.64C119.62,-258.49 127,-255.27 127,-250 127,-247.12 124.79,-244.85 121.09,-243.2"/>
<polygon fill="none" stroke="#63b8ff" points="120.87,-243.14 114.1,-245.64 109.2,-240.36 115.96,-237.86 120.87,-243.14"/>
</a>
</g>
<text text-anchor="middle" x="148.5" y="-247.5" font-family="Helvetica,sans-Serif" font-size="10.00" fill="grey"> +Empty</text>
</g>
<!-- Node4 -->
<g id="Node000004" class="node">
<title>Node4</title>
<g id="a_Node000004"><a xlink:title=" ">
<polygon fill="white" stroke="transparent" points="259.5,-163.5 151.5,-163.5 151.5,-114.5 259.5,-114.5 259.5,-163.5"/>
<text text-anchor="start" x="156.5" y="-151" font-family="Helvetica,sans-Serif" font-size="10.00">object&lt; Resource &gt;</text>
<text text-anchor="start" x="203.5" y="-136" font-family="Helvetica,sans-Serif" font-size="10.00"> </text>
<text text-anchor="start" x="203.5" y="-121" font-family="Helvetica,sans-Serif" font-size="10.00"> </text>
<polygon fill="#666666" stroke="#666666" points="151.5,-146 151.5,-146 259.5,-146 259.5,-146 151.5,-146"/>
<polygon fill="#666666" stroke="#666666" points="151.5,-131 151.5,-131 259.5,-131 259.5,-131 151.5,-131"/>
<polygon fill="none" stroke="#666666" points="151.5,-114.5 151.5,-163.5 259.5,-163.5 259.5,-114.5 151.5,-114.5"/>
</a>
</g>
</g>
<!-- Node4&#45;&gt;Node1 -->
<g id="edge4_Node000001_Node000004" class="edge">
<title>Node4&#45;&gt;Node1</title>
<g id="a_edge4_Node000001_Node000004"><a xlink:title=" ">
<path fill="none" stroke="#63b8ff" d="M189.74,-114.25C181.2,-101.37 170.41,-85.12 160.64,-70.4"/>
<polygon fill="none" stroke="#63b8ff" points="160.39,-70.02 153.74,-67.23 153.75,-60.02 160.41,-62.81 160.39,-70.02"/>
</a>
</g>
<text text-anchor="middle" x="215.5" y="-81" font-family="Helvetica,sans-Serif" font-size="10.00" fill="grey"> &#45;k__BackingField</text>
</g>
<!-- Node5 -->
<g id="Node000005" class="node">
<title>Node5</title>
<g id="a_Node000005"><a xlink:title=" ">
<polygon fill="white" stroke="transparent" points="229,-274.5 188,-274.5 188,-225.5 229,-225.5 229,-274.5"/>
<text text-anchor="start" x="193.5" y="-262" font-family="Helvetica,sans-Serif" font-size="10.00">object</text>
<text text-anchor="start" x="207" y="-247" font-family="Helvetica,sans-Serif" font-size="10.00"> </text>
<text text-anchor="start" x="207" y="-232" font-family="Helvetica,sans-Serif" font-size="10.00"> </text>
<polygon fill="#666666" stroke="#666666" points="188.5,-257 188.5,-257 229.5,-257 229.5,-257 188.5,-257"/>
<polygon fill="#666666" stroke="#666666" points="188.5,-242 188.5,-242 229.5,-242 229.5,-242 188.5,-242"/>
<polygon fill="none" stroke="#666666" points="188,-225.5 188,-274.5 229,-274.5 229,-225.5 188,-225.5"/>
</a>
</g>
</g>
<!-- Node5&#45;&gt;Node4 -->
<g id="edge5_Node000004_Node000005" class="edge">
<title>Node5&#45;&gt;Node4</title>
<g id="a_edge5_Node000004_Node000005"><a xlink:title=" ">
<path fill="none" stroke="orange" d="M207.56,-214.9C207.1,-198.24 206.56,-178.59 206.15,-163.61"/>
<polygon fill="orange" stroke="orange" points="204.08,-215.45 207.85,-225.35 211.07,-215.26 204.08,-215.45"/>
</a>
</g>
<text text-anchor="middle" x="243" y="-192" font-family="Helvetica,sans-Serif" font-size="10.00" fill="grey"> &lt; Resource &gt;</text>
</g>
</g>
</svg>
</svg>

<style type='text/css'>
<![CDATA[
[data-mouse-over-selected='false'] { opacity: 0.7; }
[data-mouse-over-selected='true']  { opacity: 1.0; }
]]>
</style>
<script type="application/ecmascript"><![CDATA[
document.addEventListener('DOMContentLoaded', (event) => {
  highlightEdges();
  highlightAdjacentNodes();
});
]]></script>
</svg>
