<?xml version="1.0" encoding="UTF-8" standalone="no"?>
<!DOCTYPE svg PUBLIC "-//W3C//DTD SVG 1.1//EN"
 "http://www.w3.org/Graphics/SVG/1.1/DTD/svg11.dtd">
<!-- Generated by graphviz version 2.43.0 (0)
 -->
<!-- Title: System.ComponentModel.ListSortDescriptionCollection Pages: 1 -->
<!--zoomable 1492 -->

<svg id="main" version="1.1" xmlns="http://www.w3.org/2000/svg" xmlns:xlink="http://www.w3.org/1999/xlink" xml:space="preserve" onload="init(evt)">
<style type="text/css"><![CDATA[
.node, .edge {opacity: 0.7;}
.node.selected, .edge.selected {opacity: 1;}
.edge:hover path { stroke: red; }
.edge:hover polygon { stroke: red; fill: red; }
]]></style>

<defs>
  <circle id="rim" cx="0" cy="0" r="7"/>
  <circle id="rim2" cx="0" cy="0" r="3.5"/>
  <g id="zoomPlus">
    <use xlink:href="#rim" fill="#404040"><set attributeName="fill" to="#808080" begin="zoomplus.mouseover" end="zoomplus.mouseout"/></use>
    <path d="M-4,0h8M0,-4v8" fill="none" stroke="white" stroke-width="1.5" pointer-events="none"/>
  </g>
  <g id="zoomMin">
    <use xlink:href="#rim" fill="#404040"><set attributeName="fill" to="#808080" begin="zoomminus.mouseover" end="zoomminus.mouseout"/></use>
    <path d="M-4,0h8" fill="none" stroke="white" stroke-width="1.5" pointer-events="none"/>
  </g>
  <g id="arrowUp" transform="translate(30 24)">
    <use xlink:href="#rim"/>
    <path pointer-events="none" fill="none" stroke="white" stroke-width="1.5" d="M0,-3.0v7 M-2.5,-0.5L0,-3.0L2.5,-0.5"/>
  </g>
  <g id="arrowRight" transform="rotate(90) translate(36 -43)">
    <use xlink:href="#rim"/>
    <path pointer-events="none" fill="none" stroke="white" stroke-width="1.5" d="M0,-3.0v7 M-2.5,-0.5L0,-3.0L2.5,-0.5"/>
  </g>
  <g id="arrowDown" transform="rotate(180) translate(-30 -48)">
    <use xlink:href="#rim"/>
    <path pointer-events="none" fill="none" stroke="white" stroke-width="1.5" d="M0,-3.0v7 M-2.5,-0.5L0,-3.0L2.5,-0.5"/>
  </g>
  <g id="arrowLeft" transform="rotate(270) translate(-36 17)">
    <use xlink:href="#rim"/>
    <path pointer-events="none" fill="none" stroke="white" stroke-width="1.5" d="M0,-3.0v7 M-2.5,-0.5L0,-3.0L2.5,-0.5"/>
  </g>
  <g id="resetDef">
    <use xlink:href="#rim2" fill="#404040"><set attributeName="fill" to="#808080" begin="reset.mouseover" end="reset.mouseout"/></use>
  </g>
</defs>
<script type="application/ecmascript">
var viewWidth = 576;
var viewHeight = 1492;
var sectionId = 'dynsection-1';
</script>
<script type="application/ecmascript" xlink:href="../../svg.min.js"/>
<svg id="graph" class="graph">
<g id="viewport">
<title>System.ComponentModel.ListSortDescriptionCollection</title>
<!-- Node1 -->
<g id="Node000001" class="node">
<title>Node1</title>
<g id="a_Node000001"><a xlink:title=" ">
<polygon fill="#999999" stroke="transparent" points="181,-487 0,-487 0,0 181,0 181,-487"/>
<text text-anchor="start" x="17.5" y="-474.5" font-family="Helvetica,sans-Serif" font-size="10.00">System.ComponentModel.List</text>
<text text-anchor="start" x="29" y="-463.5" font-family="Helvetica,sans-Serif" font-size="10.00">SortDescriptionCollection</text>
<text text-anchor="start" x="4.5" y="-448.5" font-family="Helvetica,sans-Serif" font-size="10.00">+</text>
<text text-anchor="start" x="17.5" y="-448.5" font-family="Helvetica,sans-Serif" font-size="10.00">ListSortDescription</text>
<text text-anchor="start" x="17.5" y="-437.5" font-family="Helvetica,sans-Serif" font-size="10.00"> this[int index]</text>
<text text-anchor="start" x="4.5" y="-422.5" font-family="Helvetica,sans-Serif" font-size="10.00">+</text>
<text text-anchor="start" x="17.5" y="-422.5" font-family="Helvetica,sans-Serif" font-size="10.00">bool System.Collections.</text>
<text text-anchor="start" x="17.5" y="-411.5" font-family="Helvetica,sans-Serif" font-size="10.00">IList. IsFixedSize</text>
<text text-anchor="start" x="4.5" y="-396.5" font-family="Helvetica,sans-Serif" font-size="10.00">+</text>
<text text-anchor="start" x="17.5" y="-396.5" font-family="Helvetica,sans-Serif" font-size="10.00">bool System.Collections.</text>
<text text-anchor="start" x="17.5" y="-385.5" font-family="Helvetica,sans-Serif" font-size="10.00">IList. IsReadOnly</text>
<text text-anchor="start" x="4.5" y="-370.5" font-family="Helvetica,sans-Serif" font-size="10.00">+</text>
<text text-anchor="start" x="17.5" y="-370.5" font-family="Helvetica,sans-Serif" font-size="10.00">object System.Collections.</text>
<text text-anchor="start" x="17.5" y="-359.5" font-family="Helvetica,sans-Serif" font-size="10.00">IList. Item</text>
<text text-anchor="start" x="4.5" y="-344.5" font-family="Helvetica,sans-Serif" font-size="10.00">+</text>
<text text-anchor="start" x="17.5" y="-344.5" font-family="Helvetica,sans-Serif" font-size="10.00">int Count</text>
<text text-anchor="start" x="4.5" y="-329.5" font-family="Helvetica,sans-Serif" font-size="10.00">+</text>
<text text-anchor="start" x="17.5" y="-329.5" font-family="Helvetica,sans-Serif" font-size="10.00">bool System.Collections.</text>
<text text-anchor="start" x="17.5" y="-318.5" font-family="Helvetica,sans-Serif" font-size="10.00">ICollection. IsSynchronized</text>
<text text-anchor="start" x="4.5" y="-303.5" font-family="Helvetica,sans-Serif" font-size="10.00">+</text>
<text text-anchor="start" x="17.5" y="-303.5" font-family="Helvetica,sans-Serif" font-size="10.00">object System.Collections.</text>
<text text-anchor="start" x="17.5" y="-292.5" font-family="Helvetica,sans-Serif" font-size="10.00">ICollection. SyncRoot</text>
<text text-anchor="start" x="4.5" y="-277.5" font-family="Helvetica,sans-Serif" font-size="10.00">+</text>
<text text-anchor="start" x="17.5" y="-277.5" font-family="Helvetica,sans-Serif" font-size="10.00">ListSortDescriptionCollection()</text>
<text text-anchor="start" x="4.5" y="-262.5" font-family="Helvetica,sans-Serif" font-size="10.00">+</text>
<text text-anchor="start" x="17.5" y="-262.5" font-family="Helvetica,sans-Serif" font-size="10.00">ListSortDescriptionCollection</text>
<text text-anchor="start" x="17.5" y="-251.5" font-family="Helvetica,sans-Serif" font-size="10.00">(ListSortDescription[] sorts)</text>
<text text-anchor="start" x="4.5" y="-236.5" font-family="Helvetica,sans-Serif" font-size="10.00">+</text>
<text text-anchor="start" x="17.5" y="-236.5" font-family="Helvetica,sans-Serif" font-size="10.00">bool Contains(object</text>
<text text-anchor="start" x="17.5" y="-225.5" font-family="Helvetica,sans-Serif" font-size="10.00"> value)</text>
<text text-anchor="start" x="4.5" y="-210.5" font-family="Helvetica,sans-Serif" font-size="10.00">+</text>
<text text-anchor="start" x="17.5" y="-210.5" font-family="Helvetica,sans-Serif" font-size="10.00">int IndexOf(object</text>
<text text-anchor="start" x="17.5" y="-199.5" font-family="Helvetica,sans-Serif" font-size="10.00"> value)</text>
<text text-anchor="start" x="4.5" y="-184.5" font-family="Helvetica,sans-Serif" font-size="10.00">+</text>
<text text-anchor="start" x="17.5" y="-184.5" font-family="Helvetica,sans-Serif" font-size="10.00">void CopyTo(Array array,</text>
<text text-anchor="start" x="17.5" y="-173.5" font-family="Helvetica,sans-Serif" font-size="10.00"> int index)</text>
<text text-anchor="start" x="7" y="-158.5" font-family="Helvetica,sans-Serif" font-size="10.00">&#45;</text>
<text text-anchor="start" x="17.5" y="-158.5" font-family="Helvetica,sans-Serif" font-size="10.00">int System.Collections.IList.</text>
<text text-anchor="start" x="17.5" y="-147.5" font-family="Helvetica,sans-Serif" font-size="10.00"> Add(object value)</text>
<text text-anchor="start" x="7" y="-132.5" font-family="Helvetica,sans-Serif" font-size="10.00">&#45;</text>
<text text-anchor="start" x="17.5" y="-132.5" font-family="Helvetica,sans-Serif" font-size="10.00">void System.Collections.</text>
<text text-anchor="start" x="17.5" y="-121.5" font-family="Helvetica,sans-Serif" font-size="10.00">IList. Clear()</text>
<text text-anchor="start" x="7" y="-106.5" font-family="Helvetica,sans-Serif" font-size="10.00">&#45;</text>
<text text-anchor="start" x="17.5" y="-106.5" font-family="Helvetica,sans-Serif" font-size="10.00">void System.Collections.</text>
<text text-anchor="start" x="17.5" y="-95.5" font-family="Helvetica,sans-Serif" font-size="10.00">IList. Insert(int index,</text>
<text text-anchor="start" x="17.5" y="-84.5" font-family="Helvetica,sans-Serif" font-size="10.00"> object value)</text>
<text text-anchor="start" x="7" y="-69.5" font-family="Helvetica,sans-Serif" font-size="10.00">&#45;</text>
<text text-anchor="start" x="17.5" y="-69.5" font-family="Helvetica,sans-Serif" font-size="10.00">void System.Collections.</text>
<text text-anchor="start" x="17.5" y="-58.5" font-family="Helvetica,sans-Serif" font-size="10.00">IList. Remove(object value)</text>
<text text-anchor="start" x="7" y="-43.5" font-family="Helvetica,sans-Serif" font-size="10.00">&#45;</text>
<text text-anchor="start" x="17.5" y="-43.5" font-family="Helvetica,sans-Serif" font-size="10.00">void System.Collections.</text>
<text text-anchor="start" x="17.5" y="-32.5" font-family="Helvetica,sans-Serif" font-size="10.00">IList. RemoveAt(int index)</text>
<text text-anchor="start" x="7" y="-17.5" font-family="Helvetica,sans-Serif" font-size="10.00">&#45;</text>
<text text-anchor="start" x="17.5" y="-17.5" font-family="Helvetica,sans-Serif" font-size="10.00">IEnumerator System.Collections.</text>
<text text-anchor="start" x="17.5" y="-6.5" font-family="Helvetica,sans-Serif" font-size="10.00">IEnumerable. GetEnumerator()</text>
<polygon fill="#666666" stroke="#666666" points="0.5,-458.5 0.5,-458.5 181.5,-458.5 181.5,-458.5 0.5,-458.5"/>
<polygon fill="#666666" stroke="#666666" points="0.5,-287.5 0.5,-287.5 15.5,-287.5 15.5,-287.5 0.5,-287.5"/>
<polygon fill="#666666" stroke="#666666" points="15.5,-287.5 15.5,-287.5 181.5,-287.5 181.5,-287.5 15.5,-287.5"/>
<polygon fill="none" stroke="#666666" points="0,0 0,-487 181,-487 181,0 0,0"/>
</a>
</g>
</g>
<!-- Node2 -->
<g id="Node000002" class="node">
<title>Node2</title>
<g id="a_Node000002"><a xlink:href="../../dd/d26/interfaceSystem_1_1Collections_1_1IList.html" target="_top" xlink:title=" ">
<polygon fill="white" stroke="transparent" points="238,-1260 91,-1260 91,-1047 238,-1047 238,-1260"/>
<text text-anchor="start" x="154.5" y="-1247.5" font-family="Helvetica,sans-Serif" font-size="10.00">IList</text>
<text text-anchor="start" x="95.5" y="-1232.5" font-family="Helvetica,sans-Serif" font-size="10.00">+</text>
<text text-anchor="start" x="108.5" y="-1232.5" font-family="Helvetica,sans-Serif" font-size="10.00">object this[int index]</text>
<text text-anchor="start" x="95.5" y="-1217.5" font-family="Helvetica,sans-Serif" font-size="10.00">+</text>
<text text-anchor="start" x="108.5" y="-1217.5" font-family="Helvetica,sans-Serif" font-size="10.00">bool IsReadOnly</text>
<text text-anchor="start" x="95.5" y="-1202.5" font-family="Helvetica,sans-Serif" font-size="10.00">+</text>
<text text-anchor="start" x="108.5" y="-1202.5" font-family="Helvetica,sans-Serif" font-size="10.00">bool IsFixedSize</text>
<text text-anchor="start" x="95.5" y="-1187.5" font-family="Helvetica,sans-Serif" font-size="10.00">+</text>
<text text-anchor="start" x="108.5" y="-1187.5" font-family="Helvetica,sans-Serif" font-size="10.00">int Add(object value)</text>
<text text-anchor="start" x="95.5" y="-1172.5" font-family="Helvetica,sans-Serif" font-size="10.00">+</text>
<text text-anchor="start" x="108.5" y="-1172.5" font-family="Helvetica,sans-Serif" font-size="10.00">bool Contains(object</text>
<text text-anchor="start" x="108.5" y="-1161.5" font-family="Helvetica,sans-Serif" font-size="10.00"> value)</text>
<text text-anchor="start" x="95.5" y="-1146.5" font-family="Helvetica,sans-Serif" font-size="10.00">+</text>
<text text-anchor="start" x="108.5" y="-1146.5" font-family="Helvetica,sans-Serif" font-size="10.00">void Clear()</text>
<text text-anchor="start" x="95.5" y="-1131.5" font-family="Helvetica,sans-Serif" font-size="10.00">+</text>
<text text-anchor="start" x="108.5" y="-1131.5" font-family="Helvetica,sans-Serif" font-size="10.00">int IndexOf(object</text>
<text text-anchor="start" x="108.5" y="-1120.5" font-family="Helvetica,sans-Serif" font-size="10.00"> value)</text>
<text text-anchor="start" x="95.5" y="-1105.5" font-family="Helvetica,sans-Serif" font-size="10.00">+</text>
<text text-anchor="start" x="108.5" y="-1105.5" font-family="Helvetica,sans-Serif" font-size="10.00">void Insert(int index,</text>
<text text-anchor="start" x="108.5" y="-1094.5" font-family="Helvetica,sans-Serif" font-size="10.00"> object value)</text>
<text text-anchor="start" x="95.5" y="-1079.5" font-family="Helvetica,sans-Serif" font-size="10.00">+</text>
<text text-anchor="start" x="108.5" y="-1079.5" font-family="Helvetica,sans-Serif" font-size="10.00">void Remove(object</text>
<text text-anchor="start" x="108.5" y="-1068.5" font-family="Helvetica,sans-Serif" font-size="10.00"> value)</text>
<text text-anchor="start" x="95.5" y="-1053.5" font-family="Helvetica,sans-Serif" font-size="10.00">+</text>
<text text-anchor="start" x="108.5" y="-1053.5" font-family="Helvetica,sans-Serif" font-size="10.00">void RemoveAt(int index)</text>
<polygon fill="#666666" stroke="#666666" points="91.5,-1242.5 91.5,-1242.5 238.5,-1242.5 238.5,-1242.5 91.5,-1242.5"/>
<polygon fill="#666666" stroke="#666666" points="91.5,-1197.5 91.5,-1197.5 106.5,-1197.5 106.5,-1197.5 91.5,-1197.5"/>
<polygon fill="#666666" stroke="#666666" points="106.5,-1197.5 106.5,-1197.5 238.5,-1197.5 238.5,-1197.5 106.5,-1197.5"/>
<polygon fill="none" stroke="#666666" points="91,-1047 91,-1260 238,-1260 238,-1047 91,-1047"/>
</a>
</g>
</g>
<!-- Node2&#45;&gt;Node1 -->
<g id="edge1_Node000001_Node000002" class="edge">
<title>Node2&#45;&gt;Node1</title>
<g id="a_edge1_Node000001_Node000002"><a xlink:title=" ">
<path fill="none" stroke="#63b8ff" d="M155.04,-1036.4C143.81,-898.59 124.78,-665.09 110.28,-487.24"/>
<polygon fill="none" stroke="#63b8ff" points="151.57,-1036.88 155.87,-1046.56 158.54,-1036.31 151.57,-1036.88"/>
</a>
</g>
</g>
<!-- Node5 -->
<g id="Node000005" class="node">
<title>Node5</title>
<g id="a_Node000005"><a xlink:href="../../df/d03/classSystem_1_1Collections_1_1ArrayList.html" target="_top" xlink:title=" ">
<polygon fill="white" stroke="transparent" points="384.5,-989 230.5,-989 230.5,-534 384.5,-534 384.5,-989"/>
<text text-anchor="start" x="237" y="-976.5" font-family="Helvetica,sans-Serif" font-size="10.00">System.Collections.ArrayList</text>
<text text-anchor="start" x="234.5" y="-961.5" font-family="Helvetica,sans-Serif" font-size="10.00">+</text>
<text text-anchor="start" x="247.5" y="-961.5" font-family="Helvetica,sans-Serif" font-size="10.00">virtual int Capacity</text>
<text text-anchor="start" x="234.5" y="-946.5" font-family="Helvetica,sans-Serif" font-size="10.00">+</text>
<text text-anchor="start" x="247.5" y="-946.5" font-family="Helvetica,sans-Serif" font-size="10.00">virtual int Count</text>
<text text-anchor="start" x="234.5" y="-931.5" font-family="Helvetica,sans-Serif" font-size="10.00">+</text>
<text text-anchor="start" x="247.5" y="-931.5" font-family="Helvetica,sans-Serif" font-size="10.00">virtual bool IsFixedSize</text>
<text text-anchor="start" x="234.5" y="-916.5" font-family="Helvetica,sans-Serif" font-size="10.00">+</text>
<text text-anchor="start" x="247.5" y="-916.5" font-family="Helvetica,sans-Serif" font-size="10.00">virtual bool IsReadOnly</text>
<text text-anchor="start" x="234.5" y="-901.5" font-family="Helvetica,sans-Serif" font-size="10.00">+</text>
<text text-anchor="start" x="247.5" y="-901.5" font-family="Helvetica,sans-Serif" font-size="10.00">virtual bool IsSynchronized</text>
<text text-anchor="start" x="234.5" y="-886.5" font-family="Helvetica,sans-Serif" font-size="10.00">+</text>
<text text-anchor="start" x="247.5" y="-886.5" font-family="Helvetica,sans-Serif" font-size="10.00">virtual object SyncRoot</text>
<text text-anchor="start" x="234.5" y="-871.5" font-family="Helvetica,sans-Serif" font-size="10.00">+</text>
<text text-anchor="start" x="247.5" y="-871.5" font-family="Helvetica,sans-Serif" font-size="10.00">virtual object this</text>
<text text-anchor="start" x="247.5" y="-860.5" font-family="Helvetica,sans-Serif" font-size="10.00">[int index]</text>
<text text-anchor="start" x="234.5" y="-845.5" font-family="Helvetica,sans-Serif" font-size="10.00">+</text>
<text text-anchor="start" x="247.5" y="-845.5" font-family="Helvetica,sans-Serif" font-size="10.00">ArrayList()</text>
<text text-anchor="start" x="234.5" y="-830.5" font-family="Helvetica,sans-Serif" font-size="10.00">+</text>
<text text-anchor="start" x="247.5" y="-830.5" font-family="Helvetica,sans-Serif" font-size="10.00">ArrayList(int capacity)</text>
<text text-anchor="start" x="234.5" y="-815.5" font-family="Helvetica,sans-Serif" font-size="10.00">+</text>
<text text-anchor="start" x="247.5" y="-815.5" font-family="Helvetica,sans-Serif" font-size="10.00">ArrayList(ICollection c)</text>
<text text-anchor="start" x="234.5" y="-800.5" font-family="Helvetica,sans-Serif" font-size="10.00">+</text>
<text text-anchor="start" x="247.5" y="-800.5" font-family="Helvetica,sans-Serif" font-size="10.00">virtual int Add(object</text>
<text text-anchor="start" x="247.5" y="-789.5" font-family="Helvetica,sans-Serif" font-size="10.00"> value)</text>
<text text-anchor="start" x="234.5" y="-774.5" font-family="Helvetica,sans-Serif" font-size="10.00">+</text>
<text text-anchor="start" x="247.5" y="-774.5" font-family="Helvetica,sans-Serif" font-size="10.00">virtual void AddRange</text>
<text text-anchor="start" x="247.5" y="-763.5" font-family="Helvetica,sans-Serif" font-size="10.00">(ICollection c)</text>
<text text-anchor="start" x="234.5" y="-748.5" font-family="Helvetica,sans-Serif" font-size="10.00">+</text>
<text text-anchor="start" x="247.5" y="-748.5" font-family="Helvetica,sans-Serif" font-size="10.00">virtual void Clear()</text>
<text text-anchor="start" x="234.5" y="-733.5" font-family="Helvetica,sans-Serif" font-size="10.00">+</text>
<text text-anchor="start" x="247.5" y="-733.5" font-family="Helvetica,sans-Serif" font-size="10.00">virtual object Clone()</text>
<text text-anchor="start" x="234.5" y="-718.5" font-family="Helvetica,sans-Serif" font-size="10.00">+</text>
<text text-anchor="start" x="247.5" y="-718.5" font-family="Helvetica,sans-Serif" font-size="10.00">virtual bool Contains</text>
<text text-anchor="start" x="247.5" y="-707.5" font-family="Helvetica,sans-Serif" font-size="10.00">(object item)</text>
<text text-anchor="start" x="234.5" y="-692.5" font-family="Helvetica,sans-Serif" font-size="10.00">+</text>
<text text-anchor="start" x="247.5" y="-692.5" font-family="Helvetica,sans-Serif" font-size="10.00">virtual void CopyTo</text>
<text text-anchor="start" x="247.5" y="-681.5" font-family="Helvetica,sans-Serif" font-size="10.00">(global::System.Array</text>
<text text-anchor="start" x="247.5" y="-670.5" font-family="Helvetica,sans-Serif" font-size="10.00"> array)</text>
<text text-anchor="start" x="234.5" y="-655.5" font-family="Helvetica,sans-Serif" font-size="10.00">+</text>
<text text-anchor="start" x="247.5" y="-655.5" font-family="Helvetica,sans-Serif" font-size="10.00">virtual void CopyTo</text>
<text text-anchor="start" x="247.5" y="-644.5" font-family="Helvetica,sans-Serif" font-size="10.00">(global::System.Array</text>
<text text-anchor="start" x="247.5" y="-633.5" font-family="Helvetica,sans-Serif" font-size="10.00"> array, int arrayIndex)</text>
<text text-anchor="start" x="247.5" y="-618.5" font-family="Helvetica,sans-Serif" font-size="10.00">and 12 more...</text>
<text text-anchor="start" x="234.5" y="-603.5" font-family="Helvetica,sans-Serif" font-size="10.00">+</text>
<text text-anchor="start" x="247.5" y="-603.5" font-family="Helvetica,sans-Serif" font-size="10.00">static ArrayList Adapter</text>
<text text-anchor="start" x="247.5" y="-592.5" font-family="Helvetica,sans-Serif" font-size="10.00">(IList list)</text>
<text text-anchor="start" x="234.5" y="-577.5" font-family="Helvetica,sans-Serif" font-size="10.00">+</text>
<text text-anchor="start" x="247.5" y="-577.5" font-family="Helvetica,sans-Serif" font-size="10.00">static ArrayList ReadOnly</text>
<text text-anchor="start" x="247.5" y="-566.5" font-family="Helvetica,sans-Serif" font-size="10.00">(ArrayList list)</text>
<text text-anchor="start" x="237" y="-551.5" font-family="Helvetica,sans-Serif" font-size="10.00">&#45;</text>
<text text-anchor="start" x="247.5" y="-551.5" font-family="Helvetica,sans-Serif" font-size="10.00">void EnsureCapacity</text>
<text text-anchor="start" x="247.5" y="-540.5" font-family="Helvetica,sans-Serif" font-size="10.00">(int min)</text>
<polygon fill="#666666" stroke="#666666" points="230.5,-971.5 230.5,-971.5 384.5,-971.5 384.5,-971.5 230.5,-971.5"/>
<polygon fill="#666666" stroke="#666666" points="230.5,-855.5 230.5,-855.5 245.5,-855.5 245.5,-855.5 230.5,-855.5"/>
<polygon fill="#666666" stroke="#666666" points="245.5,-855.5 245.5,-855.5 384.5,-855.5 384.5,-855.5 245.5,-855.5"/>
<polygon fill="none" stroke="#666666" points="230.5,-534 230.5,-989 384.5,-989 384.5,-534 230.5,-534"/>
</a>
</g>
</g>
<!-- Node2&#45;&gt;Node5 -->
<g id="edge8_Node000005_Node000002" class="edge">
<title>Node2&#45;&gt;Node5</title>
<g id="a_edge8_Node000005_Node000002"><a xlink:title=" ">
<path fill="none" stroke="#63b8ff" d="M206.74,-1037.31C214.27,-1016.77 222.32,-994.81 230.47,-972.57"/>
<polygon fill="none" stroke="#63b8ff" points="203.35,-1036.37 203.2,-1046.96 209.93,-1038.78 203.35,-1036.37"/>
</a>
</g>
</g>
<!-- Node3 -->
<g id="Node000003" class="node">
<title>Node3</title>
<g id="a_Node000003"><a xlink:href="../../d8/dc8/interfaceSystem_1_1Collections_1_1ICollection.html" target="_top" xlink:title=" ">
<polygon fill="white" stroke="transparent" points="219,-1398 94,-1398 94,-1297 219,-1297 219,-1398"/>
<text text-anchor="start" x="131" y="-1385.5" font-family="Helvetica,sans-Serif" font-size="10.00">ICollection</text>
<text text-anchor="start" x="98.5" y="-1370.5" font-family="Helvetica,sans-Serif" font-size="10.00">+</text>
<text text-anchor="start" x="111.5" y="-1370.5" font-family="Helvetica,sans-Serif" font-size="10.00">int Count</text>
<text text-anchor="start" x="98.5" y="-1355.5" font-family="Helvetica,sans-Serif" font-size="10.00">+</text>
<text text-anchor="start" x="111.5" y="-1355.5" font-family="Helvetica,sans-Serif" font-size="10.00">object SyncRoot</text>
<text text-anchor="start" x="98.5" y="-1340.5" font-family="Helvetica,sans-Serif" font-size="10.00">+</text>
<text text-anchor="start" x="111.5" y="-1340.5" font-family="Helvetica,sans-Serif" font-size="10.00">bool IsSynchronized</text>
<text text-anchor="start" x="98.5" y="-1325.5" font-family="Helvetica,sans-Serif" font-size="10.00">+</text>
<text text-anchor="start" x="111.5" y="-1325.5" font-family="Helvetica,sans-Serif" font-size="10.00">void CopyTo(global</text>
<text text-anchor="start" x="111.5" y="-1314.5" font-family="Helvetica,sans-Serif" font-size="10.00">::System.Array array,</text>
<text text-anchor="start" x="111.5" y="-1303.5" font-family="Helvetica,sans-Serif" font-size="10.00"> int index)</text>
<polygon fill="#666666" stroke="#666666" points="94.5,-1380.5 94.5,-1380.5 219.5,-1380.5 219.5,-1380.5 94.5,-1380.5"/>
<polygon fill="#666666" stroke="#666666" points="94.5,-1335.5 94.5,-1335.5 109.5,-1335.5 109.5,-1335.5 94.5,-1335.5"/>
<polygon fill="#666666" stroke="#666666" points="109.5,-1335.5 109.5,-1335.5 219.5,-1335.5 219.5,-1335.5 109.5,-1335.5"/>
<polygon fill="none" stroke="#666666" points="94,-1297 94,-1398 219,-1398 219,-1297 94,-1297"/>
</a>
</g>
</g>
<!-- Node3&#45;&gt;Node1 -->
<g id="edge5_Node000001_Node000003" class="edge">
<title>Node3&#45;&gt;Node1</title>
<g id="a_edge5_Node000001_Node000003"><a xlink:title=" ">
<path fill="none" stroke="#63b8ff" d="M97.24,-1288.88C90.83,-1279.85 85.28,-1270.12 81.5,-1260 48.4,-1171.31 80.97,-1141.67 81.5,-1047 82.55,-859.08 85,-646.42 87.07,-487.25"/>
<polygon fill="none" stroke="#63b8ff" points="94.53,-1291.1 103.34,-1296.98 100.12,-1286.89 94.53,-1291.1"/>
</a>
</g>
</g>
<!-- Node3&#45;&gt;Node2 -->
<g id="edge2_Node000002_Node000003" class="edge">
<title>Node3&#45;&gt;Node2</title>
<g id="a_edge2_Node000002_Node000003"><a xlink:title=" ">
<path fill="none" stroke="#63b8ff" d="M159,-1286.47C159.35,-1278 159.72,-1269.1 160.1,-1260.09"/>
<polygon fill="none" stroke="#63b8ff" points="155.5,-1286.42 158.58,-1296.56 162.49,-1286.71 155.5,-1286.42"/>
</a>
</g>
</g>
<!-- Node3&#45;&gt;Node5 -->
<g id="edge9_Node000005_Node000003" class="edge">
<title>Node3&#45;&gt;Node5</title>
<g id="a_edge9_Node000005_Node000003"><a xlink:title=" ">
<path fill="none" stroke="#63b8ff" d="M228.04,-1316.3C251.43,-1302.67 274.87,-1284.11 288.5,-1260 314.6,-1213.82 320.04,-1097.54 318.63,-989.01"/>
<polygon fill="none" stroke="#63b8ff" points="226.13,-1313.36 219.1,-1321.28 229.54,-1319.47 226.13,-1313.36"/>
</a>
</g>
</g>
<!-- Node4 -->
<g id="Node000004" class="node">
<title>Node4</title>
<g id="a_Node000004"><a xlink:href="../../d4/da3/interfaceSystem_1_1Collections_1_1IEnumerable.html" target="_top" xlink:title=" ">
<polygon fill="white" stroke="transparent" points="196.5,-1484 30.5,-1484 30.5,-1435 196.5,-1435 196.5,-1484"/>
<text text-anchor="start" x="82.5" y="-1471.5" font-family="Helvetica,sans-Serif" font-size="10.00">IEnumerable</text>
<text text-anchor="start" x="111.5" y="-1456.5" font-family="Helvetica,sans-Serif" font-size="10.00"> </text>
<text text-anchor="start" x="34.5" y="-1441.5" font-family="Helvetica,sans-Serif" font-size="10.00">+</text>
<text text-anchor="start" x="47.5" y="-1441.5" font-family="Helvetica,sans-Serif" font-size="10.00">IEnumerator GetEnumerator()</text>
<polygon fill="#666666" stroke="#666666" points="30.5,-1466.5 30.5,-1466.5 196.5,-1466.5 196.5,-1466.5 30.5,-1466.5"/>
<polygon fill="#666666" stroke="#666666" points="30.5,-1451.5 30.5,-1451.5 196.5,-1451.5 196.5,-1451.5 30.5,-1451.5"/>
<polygon fill="none" stroke="#666666" points="30.5,-1435 30.5,-1484 196.5,-1484 196.5,-1435 30.5,-1435"/>
</a>
</g>
</g>
<!-- Node4&#45;&gt;Node1 -->
<g id="edge6_Node000001_Node000004" class="edge">
<title>Node4&#45;&gt;Node1</title>
<g id="a_edge6_Node000001_Node000004"><a xlink:title=" ">
<path fill="none" stroke="#63b8ff" d="M70.36,-1428.27C47.66,-1408.56 24.5,-1380.58 24.5,-1348.5 24.5,-1348.5 24.5,-1348.5 24.5,-760.5 24.5,-670.86 34.42,-573.17 46.57,-487.14"/>
<polygon fill="none" stroke="#63b8ff" points="68.4,-1431.19 78.32,-1434.89 72.87,-1425.81 68.4,-1431.19"/>
</a>
</g>
</g>
<!-- Node4&#45;&gt;Node2 -->
<g id="edge4_Node000002_Node000004" class="edge">
<title>Node4&#45;&gt;Node2</title>
<g id="a_edge4_Node000002_Node000004"><a xlink:title=" ">
<path fill="none" stroke="#63b8ff" d="M94.6,-1425.87C90.44,-1417.1 86.64,-1407.43 84.5,-1398 74.55,-1354.23 73.14,-1340.43 84.5,-1297 87.73,-1284.65 92.3,-1272.24 97.63,-1260.17"/>
<polygon fill="none" stroke="#63b8ff" points="91.57,-1427.62 99.19,-1434.97 97.82,-1424.47 91.57,-1427.62"/>
</a>
</g>
</g>
<!-- Node4&#45;&gt;Node3 -->
<g id="edge3_Node000003_Node000004" class="edge">
<title>Node4&#45;&gt;Node3</title>
<g id="a_edge3_Node000003_Node000004"><a xlink:title=" ">
<path fill="none" stroke="#63b8ff" d="M126.46,-1425.34C129.8,-1416.81 133.45,-1407.45 137.04,-1398.29"/>
<polygon fill="none" stroke="#63b8ff" points="123.11,-1424.31 122.72,-1434.9 129.63,-1426.86 123.11,-1424.31"/>
</a>
</g>
</g>
<!-- Node4&#45;&gt;Node5 -->
<g id="edge10_Node000005_Node000004" class="edge">
<title>Node4&#45;&gt;Node5</title>
<g id="a_edge10_Node000005_Node000004"><a xlink:title=" ">
<path fill="none" stroke="#63b8ff" d="M180.45,-1430.18C196.92,-1421.34 213.75,-1410.56 227.5,-1398 281.55,-1348.6 294.52,-1329.52 317.5,-1260 345.8,-1174.39 349.36,-1075.88 343.65,-989.24"/>
<polygon fill="none" stroke="#63b8ff" points="178.63,-1427.18 171.36,-1434.88 181.85,-1433.39 178.63,-1427.18"/>
</a>
</g>
</g>
<!-- Node5&#45;&gt;Node1 -->
<g id="edge7_Node000001_Node000005" class="edge">
<title>Node5&#45;&gt;Node1</title>
<g id="a_edge7_Node000001_Node000005"><a xlink:title=" ">
<path fill="none" stroke="#63b8ff" d="M230.38,-577.12C215.98,-542.88 200.78,-506.72 185.9,-471.35"/>
<polygon fill="none" stroke="#63b8ff" points="185.74,-470.96 179.72,-466.98 181.09,-459.9 187.1,-463.88 185.74,-470.96"/>
</a>
</g>
<text text-anchor="middle" x="221" y="-508" font-family="Helvetica,sans-Serif" font-size="10.00" fill="grey"> &#45;_sorts</text>
</g>
<!-- Node6 -->
<g id="Node000006" class="node">
<title>Node6</title>
<g id="a_Node000006"><a xlink:title=" ">
<polygon fill="white" stroke="transparent" points="509,-1178 374,-1178 374,-1129 509,-1129 509,-1178"/>
<text text-anchor="start" x="379.5" y="-1165.5" font-family="Helvetica,sans-Serif" font-size="10.00">global::SystemICloneable</text>
<text text-anchor="start" x="440" y="-1150.5" font-family="Helvetica,sans-Serif" font-size="10.00"> </text>
<text text-anchor="start" x="440" y="-1135.5" font-family="Helvetica,sans-Serif" font-size="10.00"> </text>
<polygon fill="#666666" stroke="#666666" points="374.5,-1160.5 374.5,-1160.5 509.5,-1160.5 509.5,-1160.5 374.5,-1160.5"/>
<polygon fill="#666666" stroke="#666666" points="374.5,-1145.5 374.5,-1145.5 509.5,-1145.5 509.5,-1145.5 374.5,-1145.5"/>
<polygon fill="none" stroke="#666666" points="374,-1129 374,-1178 509,-1178 509,-1129 374,-1129"/>
</a>
</g>
</g>
<!-- Node6&#45;&gt;Node5 -->
<g id="edge11_Node000005_Node000006" class="edge">
<title>Node6&#45;&gt;Node5</title>
<g id="a_edge11_Node000005_Node000006"><a xlink:title=" ">
<path fill="none" stroke="#63b8ff" d="M430.05,-1119.19C419.4,-1088.19 402.52,-1039.06 384.66,-987.07"/>
<polygon fill="none" stroke="#63b8ff" points="426.86,-1120.66 433.42,-1128.98 433.48,-1118.39 426.86,-1120.66"/>
</a>
</g>
</g>
<!-- Node7 -->
<g id="Node000007" class="node">
<title>Node7</title>
<g id="a_Node000007"><a xlink:title=" ">
<polygon fill="white" stroke="transparent" points="568,-1178 527,-1178 527,-1129 568,-1129 568,-1178"/>
<text text-anchor="start" x="532.5" y="-1165.5" font-family="Helvetica,sans-Serif" font-size="10.00">object</text>
<text text-anchor="start" x="546" y="-1150.5" font-family="Helvetica,sans-Serif" font-size="10.00"> </text>
<text text-anchor="start" x="546" y="-1135.5" font-family="Helvetica,sans-Serif" font-size="10.00"> </text>
<polygon fill="#666666" stroke="#666666" points="527.5,-1160.5 527.5,-1160.5 568.5,-1160.5 568.5,-1160.5 527.5,-1160.5"/>
<polygon fill="#666666" stroke="#666666" points="527.5,-1145.5 527.5,-1145.5 568.5,-1145.5 568.5,-1145.5 527.5,-1145.5"/>
<polygon fill="none" stroke="#666666" points="527,-1129 527,-1178 568,-1178 568,-1129 527,-1129"/>
</a>
</g>
</g>
<!-- Node7&#45;&gt;Node5 -->
<g id="edge12_Node000005_Node000007" class="edge">
<title>Node7&#45;&gt;Node5</title>
<g id="a_edge12_Node000005_Node000007"><a xlink:title=" ">
<path fill="none" stroke="#63b8ff" d="M543.62,-1128.98C539.41,-1106.99 531.47,-1073.64 518.5,-1047 485.35,-978.94 435.29,-910.54 392.25,-857.88"/>
<polygon fill="none" stroke="#63b8ff" points="392.21,-857.83 385.3,-855.74 384.58,-848.56 391.48,-850.65 392.21,-857.83"/>
</a>
</g>
<text text-anchor="middle" x="532" y="-1021" font-family="Helvetica,sans-Serif" font-size="10.00" fill="grey"> &#45;_items</text>
<text text-anchor="middle" x="532" y="-1010" font-family="Helvetica,sans-Serif" font-size="10.00" fill="grey">&#45;_syncRoot</text>
</g>
<!-- Node8 -->
<g id="Node000008" class="node">
<title>Node8</title>
<g id="a_Node000008"><a xlink:title=" ">
<polygon fill="white" stroke="transparent" points="279,-1178 256,-1178 256,-1129 279,-1129 279,-1178"/>
<text text-anchor="start" x="261.5" y="-1165.5" font-family="Helvetica,sans-Serif" font-size="10.00">int</text>
<text text-anchor="start" x="266" y="-1150.5" font-family="Helvetica,sans-Serif" font-size="10.00"> </text>
<text text-anchor="start" x="266" y="-1135.5" font-family="Helvetica,sans-Serif" font-size="10.00"> </text>
<polygon fill="#666666" stroke="#666666" points="256.5,-1160.5 256.5,-1160.5 279.5,-1160.5 279.5,-1160.5 256.5,-1160.5"/>
<polygon fill="#666666" stroke="#666666" points="256.5,-1145.5 256.5,-1145.5 279.5,-1145.5 279.5,-1145.5 256.5,-1145.5"/>
<polygon fill="none" stroke="#666666" points="256,-1129 256,-1178 279,-1178 279,-1129 256,-1129"/>
</a>
</g>
</g>
<!-- Node8&#45;&gt;Node5 -->
<g id="edge13_Node000005_Node000008" class="edge">
<title>Node8&#45;&gt;Node5</title>
<g id="a_edge13_Node000005_Node000008"><a xlink:title=" ">
<path fill="none" stroke="#63b8ff" d="M262.53,-1128.96C257.58,-1104.21 250.32,-1064.07 247.5,-1029 246.77,-1019.96 246.49,-1010.79 246.59,-1001.54"/>
<polygon fill="none" stroke="#63b8ff" points="246.59,-1001.36 242.76,-995.25 246.93,-989.36 250.76,-995.47 246.59,-1001.36"/>
</a>
</g>
<text text-anchor="middle" x="270.5" y="-1021" font-family="Helvetica,sans-Serif" font-size="10.00" fill="grey"> &#45;_size</text>
<text text-anchor="middle" x="270.5" y="-1010" font-family="Helvetica,sans-Serif" font-size="10.00" fill="grey">&#45;_version</text>
</g>
</g>
</svg>

<g id="navigator" transform="translate(0 0)" fill="#404254">
  <rect fill="#f2f5e9" fill-opacity="0.5" stroke="#606060" stroke-width=".5" x="0" y="0" width="60" height="60"/>
  <use id="zoomplus" xlink:href="#zoomPlus" x="17" y="9" onmousedown="handleZoom(evt,'in')"/>
  <use id="zoomminus" xlink:href="#zoomMin" x="42" y="9" onmousedown="handleZoom(evt,'out')"/>
  <use id="reset" xlink:href="#resetDef" x="30" y="36" onmousedown="handleReset()"/>
   <use id="arrowup" xlink:href="#arrowUp" x="0" y="0" onmousedown="handlePan(0,-1)"/>
  <use id="arrowright" xlink:href="#arrowRight" x="0" y="0" onmousedown="handlePan(1,0)"/>
  <use id="arrowdown" xlink:href="#arrowDown" x="0" y="0" onmousedown="handlePan(0,1)"/>
  <use id="arrowleft" xlink:href="#arrowLeft" x="0" y="0" onmousedown="handlePan(-1,0)"/>
</g>
<svg viewBox="0 0 15 15" width="100%" height="30px" preserveAspectRatio="xMaxYMin meet">
 <g id="arrow_out" transform="scale(0.3 0.3)">
  <a xlink:href="classSystem_1_1ComponentModel_1_1ListSortDescriptionCollection__coll__graph_org.svg" target="_base">
   <rect id="button" ry="5" rx="5" y="6" x="6" height="38" width="38"
        fill="#f2f5e9" fill-opacity="0.5" stroke="#606060" stroke-width="1.0"/>
   <path id="arrow"
     d="M 11.500037,31.436501 C 11.940474,20.09759 22.043105,11.32322 32.158766,21.979434 L 37.068811,17.246167 C 37.068811,17.246167 37.088388,32 37.088388,32 L 22.160133,31.978069 C 22.160133,31.978069 26.997745,27.140456 26.997745,27.140456 C 18.528582,18.264221 13.291696,25.230495 11.500037,31.436501 z"
     style="fill:#404040;"/>
  </a>
 </g>
</svg>

<style type='text/css'>
<![CDATA[
[data-mouse-over-selected='false'] { opacity: 0.7; }
[data-mouse-over-selected='true']  { opacity: 1.0; }
]]>
</style>
<script type="application/ecmascript"><![CDATA[
document.addEventListener('DOMContentLoaded', (event) => {
  highlightEdges();
  highlightAdjacentNodes();
});
]]></script>
</svg>
