<?xml version="1.0" encoding="UTF-8" standalone="no"?>
<!DOCTYPE svg PUBLIC "-//W3C//DTD SVG 1.1//EN"
 "http://www.w3.org/Graphics/SVG/1.1/DTD/svg11.dtd">
<!-- Generated by graphviz version 2.43.0 (0)
 -->
<!-- Title: System.Collections.SortedList.SortedListEnumerator Pages: 1 -->
<!--zoomable 1270 -->

<svg id="main" version="1.1" xmlns="http://www.w3.org/2000/svg" xmlns:xlink="http://www.w3.org/1999/xlink" xml:space="preserve" onload="init(evt)">
<style type="text/css"><![CDATA[
.node, .edge {opacity: 0.7;}
.node.selected, .edge.selected {opacity: 1;}
.edge:hover path { stroke: red; }
.edge:hover polygon { stroke: red; fill: red; }
]]></style>

<defs>
  <circle id="rim" cx="0" cy="0" r="7"/>
  <circle id="rim2" cx="0" cy="0" r="3.5"/>
  <g id="zoomPlus">
    <use xlink:href="#rim" fill="#404040"><set attributeName="fill" to="#808080" begin="zoomplus.mouseover" end="zoomplus.mouseout"/></use>
    <path d="M-4,0h8M0,-4v8" fill="none" stroke="white" stroke-width="1.5" pointer-events="none"/>
  </g>
  <g id="zoomMin">
    <use xlink:href="#rim" fill="#404040"><set attributeName="fill" to="#808080" begin="zoomminus.mouseover" end="zoomminus.mouseout"/></use>
    <path d="M-4,0h8" fill="none" stroke="white" stroke-width="1.5" pointer-events="none"/>
  </g>
  <g id="arrowUp" transform="translate(30 24)">
    <use xlink:href="#rim"/>
    <path pointer-events="none" fill="none" stroke="white" stroke-width="1.5" d="M0,-3.0v7 M-2.5,-0.5L0,-3.0L2.5,-0.5"/>
  </g>
  <g id="arrowRight" transform="rotate(90) translate(36 -43)">
    <use xlink:href="#rim"/>
    <path pointer-events="none" fill="none" stroke="white" stroke-width="1.5" d="M0,-3.0v7 M-2.5,-0.5L0,-3.0L2.5,-0.5"/>
  </g>
  <g id="arrowDown" transform="rotate(180) translate(-30 -48)">
    <use xlink:href="#rim"/>
    <path pointer-events="none" fill="none" stroke="white" stroke-width="1.5" d="M0,-3.0v7 M-2.5,-0.5L0,-3.0L2.5,-0.5"/>
  </g>
  <g id="arrowLeft" transform="rotate(270) translate(-36 17)">
    <use xlink:href="#rim"/>
    <path pointer-events="none" fill="none" stroke="white" stroke-width="1.5" d="M0,-3.0v7 M-2.5,-0.5L0,-3.0L2.5,-0.5"/>
  </g>
  <g id="resetDef">
    <use xlink:href="#rim2" fill="#404040"><set attributeName="fill" to="#808080" begin="reset.mouseover" end="reset.mouseout"/></use>
  </g>
</defs>
<script type="application/ecmascript">
var viewWidth = 874;
var viewHeight = 1270;
var sectionId = 'dynsection-1';
</script>
<script type="application/ecmascript" xlink:href="../../svg.min.js"/>
<svg id="graph" class="graph">
<g id="viewport">
<title>System.Collections.SortedList.SortedListEnumerator</title>
<!-- Node1 -->
<g id="Node000001" class="node">
<title>Node1</title>
<g id="a_Node000001"><a xlink:title=" ">
<polygon fill="#999999" stroke="transparent" points="523,-194 384,-194 384,0 523,0 523,-194"/>
<text text-anchor="start" x="389.5" y="-182" font-family="Helvetica,sans-Serif" font-size="10.00">System.Collections.Sorted</text>
<text text-anchor="start" x="390.5" y="-171" font-family="Helvetica,sans-Serif" font-size="10.00">List.SortedListEnumerator</text>
<text text-anchor="start" x="388.5" y="-156" font-family="Helvetica,sans-Serif" font-size="10.00">+</text>
<text text-anchor="start" x="401.5" y="-156" font-family="Helvetica,sans-Serif" font-size="10.00">virtual object Key</text>
<text text-anchor="start" x="388.5" y="-141" font-family="Helvetica,sans-Serif" font-size="10.00">+</text>
<text text-anchor="start" x="401.5" y="-141" font-family="Helvetica,sans-Serif" font-size="10.00">virtual DictionaryEntry</text>
<text text-anchor="start" x="401.5" y="-130" font-family="Helvetica,sans-Serif" font-size="10.00"> Entry</text>
<text text-anchor="start" x="388.5" y="-115" font-family="Helvetica,sans-Serif" font-size="10.00">+</text>
<text text-anchor="start" x="401.5" y="-115" font-family="Helvetica,sans-Serif" font-size="10.00">virtual object Current</text>
<text text-anchor="start" x="388.5" y="-100" font-family="Helvetica,sans-Serif" font-size="10.00">+</text>
<text text-anchor="start" x="401.5" y="-100" font-family="Helvetica,sans-Serif" font-size="10.00">virtual object Value</text>
<text text-anchor="start" x="388.5" y="-85" font-family="Helvetica,sans-Serif" font-size="10.00">+</text>
<text text-anchor="start" x="401.5" y="-85" font-family="Helvetica,sans-Serif" font-size="10.00">object Clone()</text>
<text text-anchor="start" x="388.5" y="-70" font-family="Helvetica,sans-Serif" font-size="10.00">+</text>
<text text-anchor="start" x="401.5" y="-70" font-family="Helvetica,sans-Serif" font-size="10.00">virtual bool MoveNext()</text>
<text text-anchor="start" x="388.5" y="-55" font-family="Helvetica,sans-Serif" font-size="10.00">+</text>
<text text-anchor="start" x="401.5" y="-55" font-family="Helvetica,sans-Serif" font-size="10.00">virtual void Reset()</text>
<text text-anchor="start" x="388.5" y="-40" font-family="Helvetica,sans-Serif" font-size="10.00">~</text>
<text text-anchor="start" x="401.5" y="-40" font-family="Helvetica,sans-Serif" font-size="10.00">SortedListEnumerator</text>
<text text-anchor="start" x="401.5" y="-29" font-family="Helvetica,sans-Serif" font-size="10.00">(SortedList sortedList,</text>
<text text-anchor="start" x="401.5" y="-18" font-family="Helvetica,sans-Serif" font-size="10.00"> int index, int count,</text>
<text text-anchor="start" x="401.5" y="-7" font-family="Helvetica,sans-Serif" font-size="10.00"> int getObjRetType)</text>
<polygon fill="#666666" stroke="#666666" points="384.5,-166 384.5,-166 523.5,-166 523.5,-166 384.5,-166"/>
<polygon fill="#666666" stroke="#666666" points="384.5,-95 384.5,-95 399.5,-95 399.5,-95 384.5,-95"/>
<polygon fill="#666666" stroke="#666666" points="399.5,-95 399.5,-95 523.5,-95 523.5,-95 399.5,-95"/>
<polygon fill="none" stroke="#666666" points="384,0 384,-194 523,-194 523,0 384,0"/>
</a>
</g>
</g>
<!-- Node2 -->
<g id="Node000002" class="node">
<title>Node2</title>
<g id="a_Node000002"><a xlink:href="../../da/dd7/interfaceSystem_1_1Collections_1_1IDictionaryEnumerator.html" target="_top" xlink:title=" ">
<polygon fill="white" stroke="transparent" points="203.5,-549 77.5,-549 77.5,-470 203.5,-470 203.5,-549"/>
<text text-anchor="start" x="85" y="-536.5" font-family="Helvetica,sans-Serif" font-size="10.00">IDictionaryEnumerator</text>
<text text-anchor="start" x="81.5" y="-521.5" font-family="Helvetica,sans-Serif" font-size="10.00">+</text>
<text text-anchor="start" x="94.5" y="-521.5" font-family="Helvetica,sans-Serif" font-size="10.00">object Key</text>
<text text-anchor="start" x="81.5" y="-506.5" font-family="Helvetica,sans-Serif" font-size="10.00">+</text>
<text text-anchor="start" x="94.5" y="-506.5" font-family="Helvetica,sans-Serif" font-size="10.00">object Value</text>
<text text-anchor="start" x="81.5" y="-491.5" font-family="Helvetica,sans-Serif" font-size="10.00">+</text>
<text text-anchor="start" x="94.5" y="-491.5" font-family="Helvetica,sans-Serif" font-size="10.00">DictionaryEntry Entry</text>
<text text-anchor="start" x="138.5" y="-476.5" font-family="Helvetica,sans-Serif" font-size="10.00"> </text>
<polygon fill="#666666" stroke="#666666" points="77.5,-531.5 77.5,-531.5 203.5,-531.5 203.5,-531.5 77.5,-531.5"/>
<polygon fill="#666666" stroke="#666666" points="77.5,-486.5 77.5,-486.5 92.5,-486.5 92.5,-486.5 77.5,-486.5"/>
<polygon fill="#666666" stroke="#666666" points="92.5,-486.5 92.5,-486.5 203.5,-486.5 203.5,-486.5 92.5,-486.5"/>
<polygon fill="none" stroke="#666666" points="77.5,-470 77.5,-549 203.5,-549 203.5,-470 77.5,-470"/>
</a>
</g>
</g>
<!-- Node2&#45;&gt;Node1 -->
<g id="edge1_Node000001_Node000002" class="edge">
<title>Node2&#45;&gt;Node1</title>
<g id="a_edge1_Node000001_Node000002"><a xlink:title=" ">
<path fill="none" stroke="#63b8ff" d="M148.8,-459.47C161.72,-396.02 191.93,-284.97 254.5,-212 288.97,-171.8 341.34,-142.6 383.7,-123.82"/>
<polygon fill="none" stroke="#63b8ff" points="145.31,-459.12 146.81,-469.61 152.17,-460.48 145.31,-459.12"/>
</a>
</g>
</g>
<!-- Node3 -->
<g id="Node000003" class="node">
<title>Node3</title>
<g id="a_Node000003"><a xlink:href="../../dd/dfa/interfaceSystem_1_1Collections_1_1IEnumerator.html" target="_top" xlink:title=" ">
<polygon fill="white" stroke="transparent" points="103,-974.5 0,-974.5 0,-910.5 103,-910.5 103,-974.5"/>
<text text-anchor="start" x="21.5" y="-962.5" font-family="Helvetica,sans-Serif" font-size="10.00">IEnumerator</text>
<text text-anchor="start" x="4.5" y="-947.5" font-family="Helvetica,sans-Serif" font-size="10.00">+</text>
<text text-anchor="start" x="17.5" y="-947.5" font-family="Helvetica,sans-Serif" font-size="10.00">object Current</text>
<text text-anchor="start" x="4.5" y="-932.5" font-family="Helvetica,sans-Serif" font-size="10.00">+</text>
<text text-anchor="start" x="17.5" y="-932.5" font-family="Helvetica,sans-Serif" font-size="10.00">bool MoveNext()</text>
<text text-anchor="start" x="4.5" y="-917.5" font-family="Helvetica,sans-Serif" font-size="10.00">+</text>
<text text-anchor="start" x="17.5" y="-917.5" font-family="Helvetica,sans-Serif" font-size="10.00">void Reset()</text>
<polygon fill="#666666" stroke="#666666" points="0.5,-957.5 0.5,-957.5 103.5,-957.5 103.5,-957.5 0.5,-957.5"/>
<polygon fill="#666666" stroke="#666666" points="0.5,-942.5 0.5,-942.5 15.5,-942.5 15.5,-942.5 0.5,-942.5"/>
<polygon fill="#666666" stroke="#666666" points="15.5,-942.5 15.5,-942.5 103.5,-942.5 103.5,-942.5 15.5,-942.5"/>
<polygon fill="none" stroke="#666666" points="0,-910.5 0,-974.5 103,-974.5 103,-910.5 0,-910.5"/>
</a>
</g>
</g>
<!-- Node3&#45;&gt;Node1 -->
<g id="edge3_Node000001_Node000003" class="edge">
<title>Node3&#45;&gt;Node1</title>
<g id="a_edge3_Node000001_Node000003"><a xlink:title=" ">
<path fill="none" stroke="#63b8ff" d="M72.16,-901.28C82.49,-883.45 96.09,-862.94 111.5,-847 149.29,-807.92 183.3,-823.86 212.5,-778 342.39,-573.99 186.51,-454.3 300.5,-241 320.29,-203.96 353.37,-171.24 383.72,-146.47"/>
<polygon fill="none" stroke="#63b8ff" points="68.92,-899.9 67.06,-910.33 75.02,-903.33 68.92,-899.9"/>
</a>
</g>
</g>
<!-- Node3&#45;&gt;Node2 -->
<g id="edge2_Node000002_Node000003" class="edge">
<title>Node3&#45;&gt;Node2</title>
<g id="a_edge2_Node000002_Node000003"><a xlink:title=" ">
<path fill="none" stroke="#63b8ff" d="M60.01,-900.3C77.19,-817.07 115.83,-629.95 132.55,-549.01"/>
<polygon fill="none" stroke="#63b8ff" points="56.57,-899.66 57.97,-910.16 63.42,-901.07 56.57,-899.66"/>
</a>
</g>
</g>
<!-- Node4 -->
<g id="Node000004" class="node">
<title>Node4</title>
<g id="a_Node000004"><a xlink:title=" ">
<polygon fill="white" stroke="transparent" points="256,-967 121,-967 121,-918 256,-918 256,-967"/>
<text text-anchor="start" x="126.5" y="-954.5" font-family="Helvetica,sans-Serif" font-size="10.00">global::SystemICloneable</text>
<text text-anchor="start" x="187" y="-939.5" font-family="Helvetica,sans-Serif" font-size="10.00"> </text>
<text text-anchor="start" x="187" y="-924.5" font-family="Helvetica,sans-Serif" font-size="10.00"> </text>
<polygon fill="#666666" stroke="#666666" points="121.5,-949.5 121.5,-949.5 256.5,-949.5 256.5,-949.5 121.5,-949.5"/>
<polygon fill="#666666" stroke="#666666" points="121.5,-934.5 121.5,-934.5 256.5,-934.5 256.5,-934.5 121.5,-934.5"/>
<polygon fill="none" stroke="#666666" points="121,-918 121,-967 256,-967 256,-918 121,-918"/>
</a>
</g>
</g>
<!-- Node4&#45;&gt;Node1 -->
<g id="edge4_Node000001_Node000004" class="edge">
<title>Node4&#45;&gt;Node1</title>
<g id="a_edge4_Node000001_Node000004"><a xlink:title=" ">
<path fill="none" stroke="#63b8ff" d="M213.28,-909.92C228.11,-891.33 247.5,-867.51 265.5,-847 272.76,-838.73 277.83,-838.96 282.5,-829 394.26,-590.67 259.49,-486.87 353.5,-241 361.07,-221.19 371.98,-201.53 383.84,-183.4"/>
<polygon fill="none" stroke="#63b8ff" points="210.5,-907.8 207.02,-917.8 215.98,-912.15 210.5,-907.8"/>
</a>
</g>
</g>
<!-- Node5 -->
<g id="Node000005" class="node">
<title>Node5</title>
<g id="a_Node000005"><a xlink:href="../../d3/dab/classSystem_1_1Collections_1_1SortedList.html" target="_top" xlink:title=" ">
<polygon fill="white" stroke="transparent" points="544,-778 363,-778 363,-241 544,-241 544,-778"/>
<text text-anchor="start" x="381" y="-765.5" font-family="Helvetica,sans-Serif" font-size="10.00">System.Collections.SortedList</text>
<text text-anchor="start" x="367.5" y="-750.5" font-family="Helvetica,sans-Serif" font-size="10.00">+</text>
<text text-anchor="start" x="380.5" y="-750.5" font-family="Helvetica,sans-Serif" font-size="10.00">virtual int Capacity</text>
<text text-anchor="start" x="367.5" y="-735.5" font-family="Helvetica,sans-Serif" font-size="10.00">+</text>
<text text-anchor="start" x="380.5" y="-735.5" font-family="Helvetica,sans-Serif" font-size="10.00">virtual int Count</text>
<text text-anchor="start" x="367.5" y="-720.5" font-family="Helvetica,sans-Serif" font-size="10.00">+</text>
<text text-anchor="start" x="380.5" y="-720.5" font-family="Helvetica,sans-Serif" font-size="10.00">virtual ICollection Keys</text>
<text text-anchor="start" x="367.5" y="-705.5" font-family="Helvetica,sans-Serif" font-size="10.00">+</text>
<text text-anchor="start" x="380.5" y="-705.5" font-family="Helvetica,sans-Serif" font-size="10.00">virtual ICollection</text>
<text text-anchor="start" x="380.5" y="-694.5" font-family="Helvetica,sans-Serif" font-size="10.00"> Values</text>
<text text-anchor="start" x="367.5" y="-679.5" font-family="Helvetica,sans-Serif" font-size="10.00">+</text>
<text text-anchor="start" x="380.5" y="-679.5" font-family="Helvetica,sans-Serif" font-size="10.00">virtual bool IsReadOnly</text>
<text text-anchor="start" x="367.5" y="-664.5" font-family="Helvetica,sans-Serif" font-size="10.00">+</text>
<text text-anchor="start" x="380.5" y="-664.5" font-family="Helvetica,sans-Serif" font-size="10.00">virtual bool IsFixedSize</text>
<text text-anchor="start" x="367.5" y="-649.5" font-family="Helvetica,sans-Serif" font-size="10.00">+</text>
<text text-anchor="start" x="380.5" y="-649.5" font-family="Helvetica,sans-Serif" font-size="10.00">virtual bool IsSynchronized</text>
<text text-anchor="start" x="367.5" y="-634.5" font-family="Helvetica,sans-Serif" font-size="10.00">+</text>
<text text-anchor="start" x="380.5" y="-634.5" font-family="Helvetica,sans-Serif" font-size="10.00">virtual object SyncRoot</text>
<text text-anchor="start" x="367.5" y="-619.5" font-family="Helvetica,sans-Serif" font-size="10.00">+</text>
<text text-anchor="start" x="380.5" y="-619.5" font-family="Helvetica,sans-Serif" font-size="10.00">virtual object this</text>
<text text-anchor="start" x="380.5" y="-608.5" font-family="Helvetica,sans-Serif" font-size="10.00">[object key]</text>
<text text-anchor="start" x="367.5" y="-593.5" font-family="Helvetica,sans-Serif" font-size="10.00">+</text>
<text text-anchor="start" x="380.5" y="-593.5" font-family="Helvetica,sans-Serif" font-size="10.00">SortedList()</text>
<text text-anchor="start" x="367.5" y="-578.5" font-family="Helvetica,sans-Serif" font-size="10.00">+</text>
<text text-anchor="start" x="380.5" y="-578.5" font-family="Helvetica,sans-Serif" font-size="10.00">SortedList(int initialCapacity)</text>
<text text-anchor="start" x="367.5" y="-563.5" font-family="Helvetica,sans-Serif" font-size="10.00">+</text>
<text text-anchor="start" x="380.5" y="-563.5" font-family="Helvetica,sans-Serif" font-size="10.00">SortedList(IComparer</text>
<text text-anchor="start" x="380.5" y="-552.5" font-family="Helvetica,sans-Serif" font-size="10.00"> comparer)</text>
<text text-anchor="start" x="367.5" y="-537.5" font-family="Helvetica,sans-Serif" font-size="10.00">+</text>
<text text-anchor="start" x="380.5" y="-537.5" font-family="Helvetica,sans-Serif" font-size="10.00">virtual void Add(object</text>
<text text-anchor="start" x="380.5" y="-526.5" font-family="Helvetica,sans-Serif" font-size="10.00"> key, object value)</text>
<text text-anchor="start" x="367.5" y="-511.5" font-family="Helvetica,sans-Serif" font-size="10.00">+</text>
<text text-anchor="start" x="380.5" y="-511.5" font-family="Helvetica,sans-Serif" font-size="10.00">virtual void Clear()</text>
<text text-anchor="start" x="367.5" y="-496.5" font-family="Helvetica,sans-Serif" font-size="10.00">+</text>
<text text-anchor="start" x="380.5" y="-496.5" font-family="Helvetica,sans-Serif" font-size="10.00">virtual object Clone()</text>
<text text-anchor="start" x="367.5" y="-481.5" font-family="Helvetica,sans-Serif" font-size="10.00">+</text>
<text text-anchor="start" x="380.5" y="-481.5" font-family="Helvetica,sans-Serif" font-size="10.00">virtual bool Contains</text>
<text text-anchor="start" x="380.5" y="-470.5" font-family="Helvetica,sans-Serif" font-size="10.00">(object key)</text>
<text text-anchor="start" x="367.5" y="-455.5" font-family="Helvetica,sans-Serif" font-size="10.00">+</text>
<text text-anchor="start" x="380.5" y="-455.5" font-family="Helvetica,sans-Serif" font-size="10.00">virtual bool ContainsValue</text>
<text text-anchor="start" x="380.5" y="-444.5" font-family="Helvetica,sans-Serif" font-size="10.00">(object value)</text>
<text text-anchor="start" x="367.5" y="-429.5" font-family="Helvetica,sans-Serif" font-size="10.00">+</text>
<text text-anchor="start" x="380.5" y="-429.5" font-family="Helvetica,sans-Serif" font-size="10.00">virtual void CopyTo</text>
<text text-anchor="start" x="380.5" y="-418.5" font-family="Helvetica,sans-Serif" font-size="10.00">(global::System.Array</text>
<text text-anchor="start" x="380.5" y="-407.5" font-family="Helvetica,sans-Serif" font-size="10.00"> array, int arrayIndex)</text>
<text text-anchor="start" x="367.5" y="-392.5" font-family="Helvetica,sans-Serif" font-size="10.00">+</text>
<text text-anchor="start" x="380.5" y="-392.5" font-family="Helvetica,sans-Serif" font-size="10.00">virtual object GetByIndex</text>
<text text-anchor="start" x="380.5" y="-381.5" font-family="Helvetica,sans-Serif" font-size="10.00">(int index)</text>
<text text-anchor="start" x="380.5" y="-366.5" font-family="Helvetica,sans-Serif" font-size="10.00">and 8 more...</text>
<text text-anchor="start" x="367.5" y="-351.5" font-family="Helvetica,sans-Serif" font-size="10.00">+</text>
<text text-anchor="start" x="380.5" y="-351.5" font-family="Helvetica,sans-Serif" font-size="10.00">static SortedList Synchronized</text>
<text text-anchor="start" x="380.5" y="-340.5" font-family="Helvetica,sans-Serif" font-size="10.00">(SortedList list)</text>
<text text-anchor="start" x="370" y="-325.5" font-family="Helvetica,sans-Serif" font-size="10.00">&#45;</text>
<text text-anchor="start" x="380.5" y="-325.5" font-family="Helvetica,sans-Serif" font-size="10.00">void Init()</text>
<text text-anchor="start" x="370" y="-310.5" font-family="Helvetica,sans-Serif" font-size="10.00">&#45;</text>
<text text-anchor="start" x="380.5" y="-310.5" font-family="Helvetica,sans-Serif" font-size="10.00">void EnsureCapacity</text>
<text text-anchor="start" x="380.5" y="-299.5" font-family="Helvetica,sans-Serif" font-size="10.00">(int min)</text>
<text text-anchor="start" x="370" y="-284.5" font-family="Helvetica,sans-Serif" font-size="10.00">&#45;</text>
<text text-anchor="start" x="380.5" y="-284.5" font-family="Helvetica,sans-Serif" font-size="10.00">IEnumerator System.Collections.</text>
<text text-anchor="start" x="380.5" y="-273.5" font-family="Helvetica,sans-Serif" font-size="10.00">IEnumerable. GetEnumerator()</text>
<text text-anchor="start" x="370" y="-258.5" font-family="Helvetica,sans-Serif" font-size="10.00">&#45;</text>
<text text-anchor="start" x="380.5" y="-258.5" font-family="Helvetica,sans-Serif" font-size="10.00">void Insert(int index,</text>
<text text-anchor="start" x="380.5" y="-247.5" font-family="Helvetica,sans-Serif" font-size="10.00"> object key, object value)</text>
<polygon fill="#666666" stroke="#666666" points="363.5,-760.5 363.5,-760.5 544.5,-760.5 544.5,-760.5 363.5,-760.5"/>
<polygon fill="#666666" stroke="#666666" points="363.5,-603.5 363.5,-603.5 378.5,-603.5 378.5,-603.5 363.5,-603.5"/>
<polygon fill="#666666" stroke="#666666" points="378.5,-603.5 378.5,-603.5 544.5,-603.5 544.5,-603.5 378.5,-603.5"/>
<polygon fill="none" stroke="#666666" points="363,-241 363,-778 544,-778 544,-241 363,-241"/>
</a>
</g>
</g>
<!-- Node4&#45;&gt;Node5 -->
<g id="edge12_Node000005_Node000004" class="edge">
<title>Node4&#45;&gt;Node5</title>
<g id="a_edge12_Node000005_Node000004"><a xlink:title=" ">
<path fill="none" stroke="#63b8ff" d="M206.94,-909.42C220.54,-888.59 240.91,-862.51 265.5,-847 294.13,-828.94 314.34,-851.64 339.5,-829 355.87,-814.27 369.89,-797.01 381.9,-778.3"/>
<polygon fill="none" stroke="#63b8ff" points="203.91,-907.66 201.53,-917.99 209.83,-911.4 203.91,-907.66"/>
</a>
</g>
</g>
<!-- Node5&#45;&gt;Node1 -->
<g id="edge5_Node000001_Node000005" class="edge">
<title>Node5&#45;&gt;Node1</title>
<g id="a_edge5_Node000001_Node000005"><a xlink:title=" ">
<path fill="none" stroke="#63b8ff" d="M453.5,-241C453.5,-229.13 453.5,-217.57 453.5,-206.5"/>
<polygon fill="none" stroke="#63b8ff" points="453.5,-206.21 449.5,-200.21 453.5,-194.21 457.5,-200.21 453.5,-206.21"/>
</a>
</g>
<text text-anchor="middle" x="484" y="-215" font-family="Helvetica,sans-Serif" font-size="10.00" fill="grey"> &#45;_sortedList</text>
</g>
<!-- Node5&#45;&gt;Node5 -->
<g id="edge16_Node000005_Node000005" class="edge">
<title>Node5&#45;&gt;Node5</title>
<g id="a_edge16_Node000005_Node000005"><a xlink:title=" ">
<path fill="none" stroke="#63b8ff" d="M544.12,-556.55C554.94,-548 562,-532.31 562,-509.5 562,-493.1 558.35,-480.39 552.28,-471.36"/>
<polygon fill="none" stroke="#63b8ff" points="552.23,-471.3 545.22,-469.58 544.12,-462.45 551.12,-464.17 552.23,-471.3"/>
</a>
</g>
<text text-anchor="middle" x="586" y="-512.5" font-family="Helvetica,sans-Serif" font-size="10.00" fill="grey"> &#45;keyList</text>
<text text-anchor="middle" x="586" y="-501.5" font-family="Helvetica,sans-Serif" font-size="10.00" fill="grey">&#45;valueList</text>
</g>
<!-- Node6 -->
<g id="Node000006" class="node">
<title>Node6</title>
<g id="a_Node000006"><a xlink:href="../../d7/d23/interfaceSystem_1_1Collections_1_1IDictionary.html" target="_top" xlink:title=" ">
<polygon fill="white" stroke="transparent" points="420.5,-1038 274.5,-1038 274.5,-847 420.5,-847 420.5,-1038"/>
<text text-anchor="start" x="320.5" y="-1025.5" font-family="Helvetica,sans-Serif" font-size="10.00">IDictionary</text>
<text text-anchor="start" x="278.5" y="-1010.5" font-family="Helvetica,sans-Serif" font-size="10.00">+</text>
<text text-anchor="start" x="291.5" y="-1010.5" font-family="Helvetica,sans-Serif" font-size="10.00">object this[object key]</text>
<text text-anchor="start" x="278.5" y="-995.5" font-family="Helvetica,sans-Serif" font-size="10.00">+</text>
<text text-anchor="start" x="291.5" y="-995.5" font-family="Helvetica,sans-Serif" font-size="10.00">ICollection Keys</text>
<text text-anchor="start" x="278.5" y="-980.5" font-family="Helvetica,sans-Serif" font-size="10.00">+</text>
<text text-anchor="start" x="291.5" y="-980.5" font-family="Helvetica,sans-Serif" font-size="10.00">ICollection Values</text>
<text text-anchor="start" x="278.5" y="-965.5" font-family="Helvetica,sans-Serif" font-size="10.00">+</text>
<text text-anchor="start" x="291.5" y="-965.5" font-family="Helvetica,sans-Serif" font-size="10.00">bool IsReadOnly</text>
<text text-anchor="start" x="278.5" y="-950.5" font-family="Helvetica,sans-Serif" font-size="10.00">+</text>
<text text-anchor="start" x="291.5" y="-950.5" font-family="Helvetica,sans-Serif" font-size="10.00">bool IsFixedSize</text>
<text text-anchor="start" x="278.5" y="-935.5" font-family="Helvetica,sans-Serif" font-size="10.00">+</text>
<text text-anchor="start" x="291.5" y="-935.5" font-family="Helvetica,sans-Serif" font-size="10.00">bool Contains(object key)</text>
<text text-anchor="start" x="278.5" y="-920.5" font-family="Helvetica,sans-Serif" font-size="10.00">+</text>
<text text-anchor="start" x="291.5" y="-920.5" font-family="Helvetica,sans-Serif" font-size="10.00">void Add(object key,</text>
<text text-anchor="start" x="291.5" y="-909.5" font-family="Helvetica,sans-Serif" font-size="10.00"> object value)</text>
<text text-anchor="start" x="278.5" y="-894.5" font-family="Helvetica,sans-Serif" font-size="10.00">+</text>
<text text-anchor="start" x="291.5" y="-894.5" font-family="Helvetica,sans-Serif" font-size="10.00">void Clear()</text>
<text text-anchor="start" x="278.5" y="-879.5" font-family="Helvetica,sans-Serif" font-size="10.00">+</text>
<text text-anchor="start" x="291.5" y="-879.5" font-family="Helvetica,sans-Serif" font-size="10.00">IDictionaryEnumerator</text>
<text text-anchor="start" x="291.5" y="-868.5" font-family="Helvetica,sans-Serif" font-size="10.00"> GetEnumerator()</text>
<text text-anchor="start" x="278.5" y="-853.5" font-family="Helvetica,sans-Serif" font-size="10.00">+</text>
<text text-anchor="start" x="291.5" y="-853.5" font-family="Helvetica,sans-Serif" font-size="10.00">void Remove(object key)</text>
<polygon fill="#666666" stroke="#666666" points="274.5,-1020.5 274.5,-1020.5 420.5,-1020.5 420.5,-1020.5 274.5,-1020.5"/>
<polygon fill="#666666" stroke="#666666" points="274.5,-945.5 274.5,-945.5 289.5,-945.5 289.5,-945.5 274.5,-945.5"/>
<polygon fill="#666666" stroke="#666666" points="289.5,-945.5 289.5,-945.5 420.5,-945.5 420.5,-945.5 289.5,-945.5"/>
<polygon fill="none" stroke="#666666" points="274.5,-847 274.5,-1038 420.5,-1038 420.5,-847 274.5,-847"/>
</a>
</g>
</g>
<!-- Node6&#45;&gt;Node5 -->
<g id="edge6_Node000005_Node000006" class="edge">
<title>Node6&#45;&gt;Node5</title>
<g id="a_edge6_Node000005_Node000006"><a xlink:title=" ">
<path fill="none" stroke="#63b8ff" d="M377.42,-836.97C378.13,-834.29 378.82,-831.63 379.5,-829 383.76,-812.51 388.03,-795.51 392.27,-778.35"/>
<polygon fill="none" stroke="#63b8ff" points="374,-836.19 374.81,-846.76 380.77,-838 374,-836.19"/>
</a>
</g>
</g>
<!-- Node7 -->
<g id="Node000007" class="node">
<title>Node7</title>
<g id="a_Node000007"><a xlink:href="../../d8/dc8/interfaceSystem_1_1Collections_1_1ICollection.html" target="_top" xlink:title=" ">
<polygon fill="white" stroke="transparent" points="458,-1176 333,-1176 333,-1075 458,-1075 458,-1176"/>
<text text-anchor="start" x="370" y="-1163.5" font-family="Helvetica,sans-Serif" font-size="10.00">ICollection</text>
<text text-anchor="start" x="337.5" y="-1148.5" font-family="Helvetica,sans-Serif" font-size="10.00">+</text>
<text text-anchor="start" x="350.5" y="-1148.5" font-family="Helvetica,sans-Serif" font-size="10.00">int Count</text>
<text text-anchor="start" x="337.5" y="-1133.5" font-family="Helvetica,sans-Serif" font-size="10.00">+</text>
<text text-anchor="start" x="350.5" y="-1133.5" font-family="Helvetica,sans-Serif" font-size="10.00">object SyncRoot</text>
<text text-anchor="start" x="337.5" y="-1118.5" font-family="Helvetica,sans-Serif" font-size="10.00">+</text>
<text text-anchor="start" x="350.5" y="-1118.5" font-family="Helvetica,sans-Serif" font-size="10.00">bool IsSynchronized</text>
<text text-anchor="start" x="337.5" y="-1103.5" font-family="Helvetica,sans-Serif" font-size="10.00">+</text>
<text text-anchor="start" x="350.5" y="-1103.5" font-family="Helvetica,sans-Serif" font-size="10.00">void CopyTo(global</text>
<text text-anchor="start" x="350.5" y="-1092.5" font-family="Helvetica,sans-Serif" font-size="10.00">::System.Array array,</text>
<text text-anchor="start" x="350.5" y="-1081.5" font-family="Helvetica,sans-Serif" font-size="10.00"> int index)</text>
<polygon fill="#666666" stroke="#666666" points="333.5,-1158.5 333.5,-1158.5 458.5,-1158.5 458.5,-1158.5 333.5,-1158.5"/>
<polygon fill="#666666" stroke="#666666" points="333.5,-1113.5 333.5,-1113.5 348.5,-1113.5 348.5,-1113.5 333.5,-1113.5"/>
<polygon fill="#666666" stroke="#666666" points="348.5,-1113.5 348.5,-1113.5 458.5,-1113.5 458.5,-1113.5 348.5,-1113.5"/>
<polygon fill="none" stroke="#666666" points="333,-1075 333,-1176 458,-1176 458,-1075 333,-1075"/>
</a>
</g>
</g>
<!-- Node7&#45;&gt;Node5 -->
<g id="edge10_Node000005_Node000007" class="edge">
<title>Node7&#45;&gt;Node5</title>
<g id="a_edge10_Node000005_Node000007"><a xlink:title=" ">
<path fill="none" stroke="#63b8ff" d="M421.79,-1065.05C424.88,-1056.13 427.6,-1046.92 429.5,-1038 447.27,-954.62 455.3,-862.2 458.32,-778.32"/>
<polygon fill="none" stroke="#63b8ff" points="418.45,-1064 418.32,-1074.59 425.03,-1066.39 418.45,-1064"/>
</a>
</g>
</g>
<!-- Node7&#45;&gt;Node6 -->
<g id="edge7_Node000006_Node000007" class="edge">
<title>Node7&#45;&gt;Node6</title>
<g id="a_edge7_Node000006_Node000007"><a xlink:title=" ">
<path fill="none" stroke="#63b8ff" d="M379.64,-1064.7C377.37,-1056.12 374.98,-1047.12 372.58,-1038.07"/>
<polygon fill="none" stroke="#63b8ff" points="376.31,-1065.79 382.26,-1074.56 383.08,-1064 376.31,-1065.79"/>
</a>
</g>
</g>
<!-- Node8 -->
<g id="Node000008" class="node">
<title>Node8</title>
<g id="a_Node000008"><a xlink:href="../../d4/da3/interfaceSystem_1_1Collections_1_1IEnumerable.html" target="_top" xlink:title=" ">
<polygon fill="white" stroke="transparent" points="478.5,-1262 312.5,-1262 312.5,-1213 478.5,-1213 478.5,-1262"/>
<text text-anchor="start" x="364.5" y="-1249.5" font-family="Helvetica,sans-Serif" font-size="10.00">IEnumerable</text>
<text text-anchor="start" x="393.5" y="-1234.5" font-family="Helvetica,sans-Serif" font-size="10.00"> </text>
<text text-anchor="start" x="316.5" y="-1219.5" font-family="Helvetica,sans-Serif" font-size="10.00">+</text>
<text text-anchor="start" x="329.5" y="-1219.5" font-family="Helvetica,sans-Serif" font-size="10.00">IEnumerator GetEnumerator()</text>
<polygon fill="#666666" stroke="#666666" points="312.5,-1244.5 312.5,-1244.5 478.5,-1244.5 478.5,-1244.5 312.5,-1244.5"/>
<polygon fill="#666666" stroke="#666666" points="312.5,-1229.5 312.5,-1229.5 478.5,-1229.5 478.5,-1229.5 312.5,-1229.5"/>
<polygon fill="none" stroke="#666666" points="312.5,-1213 312.5,-1262 478.5,-1262 478.5,-1213 312.5,-1213"/>
</a>
</g>
</g>
<!-- Node8&#45;&gt;Node5 -->
<g id="edge11_Node000005_Node000008" class="edge">
<title>Node8&#45;&gt;Node5</title>
<g id="a_edge11_Node000005_Node000008"><a xlink:title=" ">
<path fill="none" stroke="#63b8ff" d="M442.71,-1206.34C452.32,-1197.79 461.13,-1187.59 466.5,-1176 498.63,-1106.67 494.09,-931.36 482.2,-778.08"/>
<polygon fill="none" stroke="#63b8ff" points="440.33,-1203.77 434.88,-1212.85 444.81,-1209.15 440.33,-1203.77"/>
</a>
</g>
</g>
<!-- Node8&#45;&gt;Node6 -->
<g id="edge9_Node000006_Node000008" class="edge">
<title>Node8&#45;&gt;Node6</title>
<g id="a_edge9_Node000006_Node000008"><a xlink:title=" ">
<path fill="none" stroke="#63b8ff" d="M347.61,-1206.47C337.87,-1197.9 328.94,-1187.68 323.5,-1176 303.66,-1133.42 306.67,-1081.82 315.92,-1038.05"/>
<polygon fill="none" stroke="#63b8ff" points="345.6,-1209.34 355.56,-1212.97 350.04,-1203.93 345.6,-1209.34"/>
</a>
</g>
</g>
<!-- Node8&#45;&gt;Node7 -->
<g id="edge8_Node000007_Node000008" class="edge">
<title>Node8&#45;&gt;Node7</title>
<g id="a_edge8_Node000007_Node000008"><a xlink:title=" ">
<path fill="none" stroke="#63b8ff" d="M395.5,-1202.78C395.5,-1194.41 395.5,-1185.25 395.5,-1176.29"/>
<polygon fill="none" stroke="#63b8ff" points="392,-1202.9 395.5,-1212.9 399,-1202.9 392,-1202.9"/>
</a>
</g>
</g>
<!-- Node9 -->
<g id="Node000009" class="node">
<title>Node9</title>
<g id="a_Node000009"><a xlink:title=" ">
<polygon fill="white" stroke="transparent" points="783,-967 742,-967 742,-918 783,-918 783,-967"/>
<text text-anchor="start" x="747.5" y="-954.5" font-family="Helvetica,sans-Serif" font-size="10.00">object</text>
<text text-anchor="start" x="761" y="-939.5" font-family="Helvetica,sans-Serif" font-size="10.00"> </text>
<text text-anchor="start" x="761" y="-924.5" font-family="Helvetica,sans-Serif" font-size="10.00"> </text>
<polygon fill="#666666" stroke="#666666" points="742.5,-949.5 742.5,-949.5 783.5,-949.5 783.5,-949.5 742.5,-949.5"/>
<polygon fill="#666666" stroke="#666666" points="742.5,-934.5 742.5,-934.5 783.5,-934.5 783.5,-934.5 742.5,-934.5"/>
<polygon fill="none" stroke="#666666" points="742,-918 742,-967 783,-967 783,-918 742,-918"/>
</a>
</g>
</g>
<!-- Node9&#45;&gt;Node1 -->
<g id="edge17_Node000001_Node000009" class="edge">
<title>Node9&#45;&gt;Node1</title>
<g id="a_edge17_Node000001_Node000009"><a xlink:title=" ">
<path fill="none" stroke="#63b8ff" d="M763.78,-917.66C769.84,-801.59 793.74,-298.84 756.5,-241 707.65,-165.14 606.76,-128.71 534.82,-111.78"/>
<polygon fill="none" stroke="#63b8ff" points="534.8,-111.77 528.06,-114.35 523.09,-109.13 529.82,-106.55 534.8,-111.77"/>
</a>
</g>
<text text-anchor="middle" x="795" y="-512.5" font-family="Helvetica,sans-Serif" font-size="10.00" fill="grey"> &#45;_key</text>
<text text-anchor="middle" x="795" y="-501.5" font-family="Helvetica,sans-Serif" font-size="10.00" fill="grey">&#45;_value</text>
</g>
<!-- Node9&#45;&gt;Node5 -->
<g id="edge13_Node000005_Node000009" class="edge">
<title>Node9&#45;&gt;Node5</title>
<g id="a_edge13_Node000005_Node000009"><a xlink:title=" ">
<path fill="none" stroke="#63b8ff" d="M756.48,-917.82C750.42,-897.44 739.5,-868.08 722.5,-847 689.05,-805.54 661.32,-816.5 624.5,-778 597.83,-750.11 572.96,-717.47 550.9,-684.76"/>
<polygon fill="none" stroke="#63b8ff" points="550.79,-684.61 544.14,-681.83 544.14,-674.62 550.8,-677.39 550.79,-684.61"/>
</a>
</g>
<text text-anchor="middle" x="731.5" y="-821" font-family="Helvetica,sans-Serif" font-size="10.00" fill="grey"> &#45;_syncRoot</text>
<text text-anchor="middle" x="731.5" y="-810" font-family="Helvetica,sans-Serif" font-size="10.00" fill="grey">&#45;keys</text>
<text text-anchor="middle" x="731.5" y="-799" font-family="Helvetica,sans-Serif" font-size="10.00" fill="grey">&#45;values</text>
</g>
<!-- Node10 -->
<g id="Node000010" class="node">
<title>Node10</title>
<g id="a_Node000010"><a xlink:title=" ">
<polygon fill="white" stroke="transparent" points="538,-967 515,-967 515,-918 538,-918 538,-967"/>
<text text-anchor="start" x="520.5" y="-954.5" font-family="Helvetica,sans-Serif" font-size="10.00">int</text>
<text text-anchor="start" x="525" y="-939.5" font-family="Helvetica,sans-Serif" font-size="10.00"> </text>
<text text-anchor="start" x="525" y="-924.5" font-family="Helvetica,sans-Serif" font-size="10.00"> </text>
<polygon fill="#666666" stroke="#666666" points="515.5,-949.5 515.5,-949.5 538.5,-949.5 538.5,-949.5 515.5,-949.5"/>
<polygon fill="#666666" stroke="#666666" points="515.5,-934.5 515.5,-934.5 538.5,-934.5 538.5,-934.5 515.5,-934.5"/>
<polygon fill="none" stroke="#666666" points="515,-918 515,-967 538,-967 538,-918 515,-918"/>
</a>
</g>
</g>
<!-- Node10&#45;&gt;Node1 -->
<g id="edge18_Node000001_Node000010" class="edge">
<title>Node10&#45;&gt;Node1</title>
<g id="a_edge18_Node000001_Node000010"><a xlink:title=" ">
<path fill="none" stroke="#63b8ff" d="M524.79,-917.97C524.61,-896.53 527.98,-865.48 546.5,-847 574.14,-819.42 607.88,-859.31 632.5,-829 637.13,-823.3 695.24,-403.61 618.5,-241 600.17,-202.17 565.76,-169.7 533.08,-145.57"/>
<polygon fill="none" stroke="#63b8ff" points="532.76,-145.34 525.56,-145.1 523.01,-138.35 530.22,-138.6 532.76,-145.34"/>
</a>
</g>
<text text-anchor="middle" x="705.5" y="-529" font-family="Helvetica,sans-Serif" font-size="10.00" fill="grey"> &#45;_endIndex</text>
<text text-anchor="middle" x="705.5" y="-518" font-family="Helvetica,sans-Serif" font-size="10.00" fill="grey">&#45;_getObjectRetType</text>
<text text-anchor="middle" x="705.5" y="-507" font-family="Helvetica,sans-Serif" font-size="10.00" fill="grey">&#45;_index</text>
<text text-anchor="middle" x="705.5" y="-496" font-family="Helvetica,sans-Serif" font-size="10.00" fill="grey">&#45;_startIndex</text>
<text text-anchor="middle" x="705.5" y="-485" font-family="Helvetica,sans-Serif" font-size="10.00" fill="grey">&#45;_version</text>
</g>
<!-- Node10&#45;&gt;Node5 -->
<g id="edge14_Node000005_Node000010" class="edge">
<title>Node10&#45;&gt;Node5</title>
<g id="a_edge14_Node000005_Node000010"><a xlink:title=" ">
<path fill="none" stroke="#63b8ff" d="M522.47,-917.71C517.89,-890.68 509.88,-843.38 500.9,-790.36"/>
<polygon fill="none" stroke="#63b8ff" points="500.85,-790.07 495.91,-784.82 498.85,-778.24 503.79,-783.49 500.85,-790.07"/>
</a>
</g>
<text text-anchor="middle" x="527.5" y="-815.5" font-family="Helvetica,sans-Serif" font-size="10.00" fill="grey"> &#45;_size</text>
<text text-anchor="middle" x="527.5" y="-804.5" font-family="Helvetica,sans-Serif" font-size="10.00" fill="grey">&#45;version</text>
</g>
<!-- Node11 -->
<g id="Node000011" class="node">
<title>Node11</title>
<g id="a_Node000011"><a xlink:href="../../da/dff/interfaceSystem_1_1Collections_1_1IComparer.html" target="_top" xlink:title=" ">
<polygon fill="white" stroke="transparent" points="713.5,-972.5 555.5,-972.5 555.5,-912.5 713.5,-912.5 713.5,-972.5"/>
<text text-anchor="start" x="560.5" y="-960.5" font-family="Helvetica,sans-Serif" font-size="10.00">System.Collections.IComparer</text>
<text text-anchor="start" x="632.5" y="-945.5" font-family="Helvetica,sans-Serif" font-size="10.00"> </text>
<text text-anchor="start" x="570" y="-930.5" font-family="Helvetica,sans-Serif" font-size="10.00">+</text>
<text text-anchor="start" x="593.5" y="-930.5" font-family="Helvetica,sans-Serif" font-size="10.00">int Compare(object</text>
<text text-anchor="start" x="593.5" y="-919.5" font-family="Helvetica,sans-Serif" font-size="10.00"> x, object y)</text>
<polygon fill="#666666" stroke="#666666" points="555.5,-955.5 555.5,-955.5 713.5,-955.5 713.5,-955.5 555.5,-955.5"/>
<polygon fill="#666666" stroke="#666666" points="555.5,-940.5 555.5,-940.5 713.5,-940.5 713.5,-940.5 555.5,-940.5"/>
<polygon fill="none" stroke="#666666" points="555.5,-912.5 555.5,-972.5 713.5,-972.5 713.5,-912.5 555.5,-912.5"/>
</a>
</g>
</g>
<!-- Node11&#45;&gt;Node5 -->
<g id="edge15_Node000005_Node000011" class="edge">
<title>Node11&#45;&gt;Node5</title>
<g id="a_edge15_Node000005_Node000011"><a xlink:title=" ">
<path fill="none" stroke="#63b8ff" d="M622.2,-912.21C606.53,-874.9 577.95,-806.84 548.71,-737.22"/>
<polygon fill="none" stroke="#63b8ff" points="548.66,-737.1 542.65,-733.12 544.02,-726.04 550.03,-730.02 548.66,-737.1"/>
</a>
</g>
<text text-anchor="middle" x="613.5" y="-810" font-family="Helvetica,sans-Serif" font-size="10.00" fill="grey"> &#45;comparer</text>
</g>
<!-- Node12 -->
<g id="Node000012" class="node">
<title>Node12</title>
<g id="a_Node000012"><a xlink:title=" ">
<polygon fill="white" stroke="transparent" points="865.5,-534 833.5,-534 833.5,-485 865.5,-485 865.5,-534"/>
<text text-anchor="start" x="838.5" y="-521.5" font-family="Helvetica,sans-Serif" font-size="10.00">bool</text>
<text text-anchor="start" x="847.5" y="-506.5" font-family="Helvetica,sans-Serif" font-size="10.00"> </text>
<text text-anchor="start" x="847.5" y="-491.5" font-family="Helvetica,sans-Serif" font-size="10.00"> </text>
<polygon fill="#666666" stroke="#666666" points="833.5,-516.5 833.5,-516.5 865.5,-516.5 865.5,-516.5 833.5,-516.5"/>
<polygon fill="#666666" stroke="#666666" points="833.5,-501.5 833.5,-501.5 865.5,-501.5 865.5,-501.5 833.5,-501.5"/>
<polygon fill="none" stroke="#666666" points="833.5,-485 833.5,-534 865.5,-534 865.5,-485 833.5,-485"/>
</a>
</g>
</g>
<!-- Node12&#45;&gt;Node1 -->
<g id="edge19_Node000001_Node000012" class="edge">
<title>Node12&#45;&gt;Node1</title>
<g id="a_edge19_Node000001_Node000012"><a xlink:title=" ">
<path fill="none" stroke="#63b8ff" d="M854.37,-484.82C865.03,-425.33 882.81,-270.24 792.5,-212 712.71,-160.55 607.3,-129.89 535.33,-113.54"/>
<polygon fill="none" stroke="#63b8ff" points="534.91,-113.45 528.18,-116.05 523.19,-110.85 529.92,-108.24 534.91,-113.45"/>
</a>
</g>
<text text-anchor="middle" x="828" y="-215" font-family="Helvetica,sans-Serif" font-size="10.00" fill="grey"> &#45;_current</text>
</g>
</g>
</svg>

<g id="navigator" transform="translate(0 0)" fill="#404254">
  <rect fill="#f2f5e9" fill-opacity="0.5" stroke="#606060" stroke-width=".5" x="0" y="0" width="60" height="60"/>
  <use id="zoomplus" xlink:href="#zoomPlus" x="17" y="9" onmousedown="handleZoom(evt,'in')"/>
  <use id="zoomminus" xlink:href="#zoomMin" x="42" y="9" onmousedown="handleZoom(evt,'out')"/>
  <use id="reset" xlink:href="#resetDef" x="30" y="36" onmousedown="handleReset()"/>
   <use id="arrowup" xlink:href="#arrowUp" x="0" y="0" onmousedown="handlePan(0,-1)"/>
  <use id="arrowright" xlink:href="#arrowRight" x="0" y="0" onmousedown="handlePan(1,0)"/>
  <use id="arrowdown" xlink:href="#arrowDown" x="0" y="0" onmousedown="handlePan(0,1)"/>
  <use id="arrowleft" xlink:href="#arrowLeft" x="0" y="0" onmousedown="handlePan(-1,0)"/>
</g>
<svg viewBox="0 0 15 15" width="100%" height="30px" preserveAspectRatio="xMaxYMin meet">
 <g id="arrow_out" transform="scale(0.3 0.3)">
  <a xlink:href="classSystem_1_1Collections_1_1SortedList_1_1SortedListEnumerator__coll__graph_org.svg" target="_base">
   <rect id="button" ry="5" rx="5" y="6" x="6" height="38" width="38"
        fill="#f2f5e9" fill-opacity="0.5" stroke="#606060" stroke-width="1.0"/>
   <path id="arrow"
     d="M 11.500037,31.436501 C 11.940474,20.09759 22.043105,11.32322 32.158766,21.979434 L 37.068811,17.246167 C 37.068811,17.246167 37.088388,32 37.088388,32 L 22.160133,31.978069 C 22.160133,31.978069 26.997745,27.140456 26.997745,27.140456 C 18.528582,18.264221 13.291696,25.230495 11.500037,31.436501 z"
     style="fill:#404040;"/>
  </a>
 </g>
</svg>

<style type='text/css'>
<![CDATA[
[data-mouse-over-selected='false'] { opacity: 0.7; }
[data-mouse-over-selected='true']  { opacity: 1.0; }
]]>
</style>
<script type="application/ecmascript"><![CDATA[
document.addEventListener('DOMContentLoaded', (event) => {
  highlightEdges();
  highlightAdjacentNodes();
});
]]></script>
</svg>
