<?xml version="1.0" encoding="UTF-8" standalone="no"?>
<!DOCTYPE svg PUBLIC "-//W3C//DTD SVG 1.1//EN"
 "http://www.w3.org/Graphics/SVG/1.1/DTD/svg11.dtd">
<!-- Generated by graphviz version 2.43.0 (0)
 -->
<!-- Title: System.Net.ServicePointScheduler.d__46 Pages: 1 -->
<svg width="218pt" height="317pt"
 viewBox="0.00 0.00 218.00 317.00" xmlns="http://www.w3.org/2000/svg" xmlns:xlink="http://www.w3.org/1999/xlink">

<svg id="main" version="1.1" xmlns="http://www.w3.org/2000/svg" xmlns:xlink="http://www.w3.org/1999/xlink" xml:space="preserve" onload="init(evt)">
<style type="text/css"><![CDATA[
.node, .edge {opacity: 0.7;}
.node.selected, .edge.selected {opacity: 1;}
.edge:hover path { stroke: red; }
.edge:hover polygon { stroke: red; fill: red; }
]]></style>
<script type="application/ecmascript" xlink:href="../../svg.min.js"/>
<svg id="graph" class="graph">
<g id="graph0" class="graph" transform="scale(1 1) rotate(0) translate(4 313)">
<title>System.Net.ServicePointScheduler.d__46</title>
<!-- Node1 -->
<g id="Node000001" class="node">
<title>Node1</title>
<g id="a_Node000001"><a xlink:title=" ">
<polygon fill="#999999" stroke="transparent" points="210,-198 0,-198 0,0 210,0 210,-198"/>
<text text-anchor="start" x="5" y="-186" font-family="Helvetica,sans-Serif" font-size="10.00">System.Net.ServicePointScheduler.d__46</text>
<text text-anchor="start" x="5" y="-171" font-family="Helvetica,sans-Serif" font-size="10.00">+</text>
<text text-anchor="start" x="19" y="-171" font-family="Helvetica,sans-Serif" font-size="10.00">int</text>
<text text-anchor="start" x="5" y="-156" font-family="Helvetica,sans-Serif" font-size="10.00">+</text>
<text text-anchor="start" x="19" y="-156" font-family="Helvetica,sans-Serif" font-size="10.00">AsyncTaskMethodBuilder</text>
<text text-anchor="start" x="19" y="-145" font-family="Helvetica,sans-Serif" font-size="10.00">&lt; bool &gt;&lt;&gt; t__builder</text>
<text text-anchor="start" x="5" y="-130" font-family="Helvetica,sans-Serif" font-size="10.00">+</text>
<text text-anchor="start" x="19" y="-130" font-family="Helvetica,sans-Serif" font-size="10.00">int millisecondTimeout</text>
<text text-anchor="start" x="5" y="-115" font-family="Helvetica,sans-Serif" font-size="10.00">+</text>
<text text-anchor="start" x="19" y="-115" font-family="Helvetica,sans-Serif" font-size="10.00">Task workerTask</text>
<text text-anchor="start" x="7.5" y="-100" font-family="Helvetica,sans-Serif" font-size="10.00">&#45;</text>
<text text-anchor="start" x="19" y="-100" font-family="Helvetica,sans-Serif" font-size="10.00">CancellationTokenSource</text>
<text text-anchor="start" x="19" y="-89" font-family="Helvetica,sans-Serif" font-size="10.00">&lt; cts &gt;</text>
<text text-anchor="start" x="7.5" y="-74" font-family="Helvetica,sans-Serif" font-size="10.00">&#45;</text>
<text text-anchor="start" x="19" y="-74" font-family="Helvetica,sans-Serif" font-size="10.00">Task&lt; timeoutTask &gt;</text>
<text text-anchor="start" x="7.5" y="-59" font-family="Helvetica,sans-Serif" font-size="10.00">&#45;</text>
<text text-anchor="start" x="19" y="-59" font-family="Helvetica,sans-Serif" font-size="10.00">ConfiguredTaskAwaitable</text>
<text text-anchor="start" x="19" y="-48" font-family="Helvetica,sans-Serif" font-size="10.00">&lt; Task &gt;.ConfiguredTaskAwaiter u__1</text>
<text text-anchor="start" x="7.5" y="-33" font-family="Helvetica,sans-Serif" font-size="10.00">&#45;</text>
<text text-anchor="start" x="19" y="-33" font-family="Helvetica,sans-Serif" font-size="10.00">void MoveNext()</text>
<text text-anchor="start" x="7.5" y="-18" font-family="Helvetica,sans-Serif" font-size="10.00">&#45;</text>
<text text-anchor="start" x="19" y="-18" font-family="Helvetica,sans-Serif" font-size="10.00">void SetStateMachine</text>
<text text-anchor="start" x="19" y="-7" font-family="Helvetica,sans-Serif" font-size="10.00">(IAsyncStateMachine stateMachine)</text>
<polygon fill="#666666" stroke="#666666" points="0,-181 0,-181 210,-181 210,-181 0,-181"/>
<polygon fill="#666666" stroke="#666666" points="0,-43 0,-43 17,-43 17,-43 0,-43"/>
<polygon fill="#666666" stroke="#666666" points="17,-43 17,-43 210,-43 210,-43 17,-43"/>
<polygon fill="none" stroke="#666666" points="0,0 0,-198 210,-198 210,0 0,0"/>
</a>
</g>
</g>
<!-- Node2 -->
<g id="Node000002" class="node">
<title>Node2</title>
<g id="a_Node000002"><a xlink:href="../../d9/d46/interfaceSystem_1_1Runtime_1_1CompilerServices_1_1IAsyncStateMachine.html" target="_top" xlink:title=" ">
<polygon fill="white" stroke="transparent" points="203.5,-309 6.5,-309 6.5,-234 203.5,-234 203.5,-309"/>
<text text-anchor="start" x="55.5" y="-296.5" font-family="Helvetica,sans-Serif" font-size="10.00">IAsyncStateMachine</text>
<text text-anchor="start" x="103.5" y="-281.5" font-family="Helvetica,sans-Serif" font-size="10.00"> </text>
<text text-anchor="start" x="11" y="-266.5" font-family="Helvetica,sans-Serif" font-size="10.00">+</text>
<text text-anchor="start" x="24" y="-266.5" font-family="Helvetica,sans-Serif" font-size="10.00">void MoveNext()</text>
<text text-anchor="start" x="11" y="-251.5" font-family="Helvetica,sans-Serif" font-size="10.00">+</text>
<text text-anchor="start" x="24" y="-251.5" font-family="Helvetica,sans-Serif" font-size="10.00">void SetStateMachine</text>
<text text-anchor="start" x="24" y="-240.5" font-family="Helvetica,sans-Serif" font-size="10.00">(IAsyncStateMachine stateMachine)</text>
<polygon fill="#666666" stroke="#666666" points="7,-291.5 7,-291.5 204,-291.5 204,-291.5 7,-291.5"/>
<polygon fill="#666666" stroke="#666666" points="7,-276.5 7,-276.5 204,-276.5 204,-276.5 7,-276.5"/>
<polygon fill="none" stroke="#666666" points="6.5,-234 6.5,-309 203.5,-309 203.5,-234 6.5,-234"/>
</a>
</g>
</g>
<!-- Node2&#45;&gt;Node1 -->
<g id="edge1_Node000001_Node000002" class="edge">
<title>Node2&#45;&gt;Node1</title>
<g id="a_edge1_Node000001_Node000002"><a xlink:title=" ">
<path fill="none" stroke="#63b8ff" d="M105,-223.68C105,-215.62 105,-206.97 105,-198.13"/>
<polygon fill="none" stroke="#63b8ff" points="101.5,-223.92 105,-233.92 108.5,-223.92 101.5,-223.92"/>
</a>
</g>
</g>
</g>
</svg>
</svg>

<style type='text/css'>
<![CDATA[
[data-mouse-over-selected='false'] { opacity: 0.7; }
[data-mouse-over-selected='true']  { opacity: 1.0; }
]]>
</style>
<script type="application/ecmascript"><![CDATA[
document.addEventListener('DOMContentLoaded', (event) => {
  highlightEdges();
  highlightAdjacentNodes();
});
]]></script>
</svg>
