<?xml version="1.0" encoding="UTF-8" standalone="no"?>
<!DOCTYPE svg PUBLIC "-//W3C//DTD SVG 1.1//EN"
 "http://www.w3.org/Graphics/SVG/1.1/DTD/svg11.dtd">
<!-- Generated by graphviz version 2.43.0 (0)
 -->
<!-- Title: Terraria.GameContent.Animations.Actions.NPCs.PartyHard Pages: 1 -->
<!--zoomable 562 -->

<svg id="main" version="1.1" xmlns="http://www.w3.org/2000/svg" xmlns:xlink="http://www.w3.org/1999/xlink" xml:space="preserve" onload="init(evt)">
<style type="text/css"><![CDATA[
.node, .edge {opacity: 0.7;}
.node.selected, .edge.selected {opacity: 1;}
.edge:hover path { stroke: red; }
.edge:hover polygon { stroke: red; fill: red; }
]]></style>

<defs>
  <circle id="rim" cx="0" cy="0" r="7"/>
  <circle id="rim2" cx="0" cy="0" r="3.5"/>
  <g id="zoomPlus">
    <use xlink:href="#rim" fill="#404040"><set attributeName="fill" to="#808080" begin="zoomplus.mouseover" end="zoomplus.mouseout"/></use>
    <path d="M-4,0h8M0,-4v8" fill="none" stroke="white" stroke-width="1.5" pointer-events="none"/>
  </g>
  <g id="zoomMin">
    <use xlink:href="#rim" fill="#404040"><set attributeName="fill" to="#808080" begin="zoomminus.mouseover" end="zoomminus.mouseout"/></use>
    <path d="M-4,0h8" fill="none" stroke="white" stroke-width="1.5" pointer-events="none"/>
  </g>
  <g id="arrowUp" transform="translate(30 24)">
    <use xlink:href="#rim"/>
    <path pointer-events="none" fill="none" stroke="white" stroke-width="1.5" d="M0,-3.0v7 M-2.5,-0.5L0,-3.0L2.5,-0.5"/>
  </g>
  <g id="arrowRight" transform="rotate(90) translate(36 -43)">
    <use xlink:href="#rim"/>
    <path pointer-events="none" fill="none" stroke="white" stroke-width="1.5" d="M0,-3.0v7 M-2.5,-0.5L0,-3.0L2.5,-0.5"/>
  </g>
  <g id="arrowDown" transform="rotate(180) translate(-30 -48)">
    <use xlink:href="#rim"/>
    <path pointer-events="none" fill="none" stroke="white" stroke-width="1.5" d="M0,-3.0v7 M-2.5,-0.5L0,-3.0L2.5,-0.5"/>
  </g>
  <g id="arrowLeft" transform="rotate(270) translate(-36 17)">
    <use xlink:href="#rim"/>
    <path pointer-events="none" fill="none" stroke="white" stroke-width="1.5" d="M0,-3.0v7 M-2.5,-0.5L0,-3.0L2.5,-0.5"/>
  </g>
  <g id="resetDef">
    <use xlink:href="#rim2" fill="#404040"><set attributeName="fill" to="#808080" begin="reset.mouseover" end="reset.mouseout"/></use>
  </g>
</defs>
<script type="application/ecmascript">
var viewWidth = 252;
var viewHeight = 562;
var sectionId = 'dynsection-1';
</script>
<script type="application/ecmascript" xlink:href="../../svg.min.js"/>
<svg id="graph" class="graph">
<g id="viewport">
<title>Terraria.GameContent.Animations.Actions.NPCs.PartyHard</title>
<!-- Node1 -->
<g id="Node000001" class="node">
<title>Node1</title>
<g id="a_Node000001"><a xlink:title=" ">
<polygon fill="#999999" stroke="transparent" points="179,-138 0,-138 0,0 179,0 179,-138"/>
<text text-anchor="start" x="5.5" y="-126" font-family="Helvetica,sans-Serif" font-size="10.00">Terraria.GameContent.Animations.</text>
<text text-anchor="start" x="32" y="-115" font-family="Helvetica,sans-Serif" font-size="10.00">Actions.NPCs.PartyHard</text>
<text text-anchor="start" x="10" y="-100" font-family="Helvetica,sans-Serif" font-size="10.00">+</text>
<text text-anchor="start" x="28.5" y="-100" font-family="Helvetica,sans-Serif" font-size="10.00">int ExpectedLengthOfAction</text>
<text text-anchor="start" x="28.5" y="-89" font-family="Helvetica,sans-Serif" font-size="10.00">InFrames</text>
<text text-anchor="start" x="10" y="-74" font-family="Helvetica,sans-Serif" font-size="10.00">+</text>
<text text-anchor="start" x="28.5" y="-74" font-family="Helvetica,sans-Serif" font-size="10.00">PartyHard()</text>
<text text-anchor="start" x="10" y="-59" font-family="Helvetica,sans-Serif" font-size="10.00">+</text>
<text text-anchor="start" x="28.5" y="-59" font-family="Helvetica,sans-Serif" font-size="10.00">void BindTo(NPC obj)</text>
<text text-anchor="start" x="10" y="-44" font-family="Helvetica,sans-Serif" font-size="10.00">+</text>
<text text-anchor="start" x="28.5" y="-44" font-family="Helvetica,sans-Serif" font-size="10.00">void ApplyTo(NPC obj,</text>
<text text-anchor="start" x="28.5" y="-33" font-family="Helvetica,sans-Serif" font-size="10.00"> float localTimeForObj)</text>
<text text-anchor="start" x="10" y="-18" font-family="Helvetica,sans-Serif" font-size="10.00">+</text>
<text text-anchor="start" x="28.5" y="-18" font-family="Helvetica,sans-Serif" font-size="10.00">void SetDelay(float</text>
<text text-anchor="start" x="28.5" y="-7" font-family="Helvetica,sans-Serif" font-size="10.00"> delay)</text>
<polygon fill="#666666" stroke="#666666" points="0.5,-110 0.5,-110 179.5,-110 179.5,-110 0.5,-110"/>
<polygon fill="#666666" stroke="#666666" points="0.5,-84 0.5,-84 26.5,-84 26.5,-84 0.5,-84"/>
<polygon fill="#666666" stroke="#666666" points="26.5,-84 26.5,-84 179.5,-84 179.5,-84 26.5,-84"/>
<polygon fill="none" stroke="#666666" points="0,0 0,-138 179,-138 179,0 0,0"/>
</a>
</g>
</g>
<!-- Node2 -->
<g id="Node000002" class="node">
<title>Node2</title>
<g id="a_Node000002"><a xlink:href="../../de/d2f/interfaceTerraria_1_1GameContent_1_1Animations_1_1Actions_1_1NPCs_1_1INPCAction.html" target="_top" xlink:title=" ">
<polygon fill="white" stroke="transparent" points="243.5,-224 105.5,-224 105.5,-175 243.5,-175 243.5,-224"/>
<text text-anchor="start" x="110.5" y="-211.5" font-family="Helvetica,sans-Serif" font-size="10.00">Actions::NPCs::INPCAction</text>
<text text-anchor="start" x="172.5" y="-196.5" font-family="Helvetica,sans-Serif" font-size="10.00"> </text>
<text text-anchor="start" x="172.5" y="-181.5" font-family="Helvetica,sans-Serif" font-size="10.00"> </text>
<polygon fill="#666666" stroke="#666666" points="105.5,-206.5 105.5,-206.5 243.5,-206.5 243.5,-206.5 105.5,-206.5"/>
<polygon fill="#666666" stroke="#666666" points="105.5,-191.5 105.5,-191.5 243.5,-191.5 243.5,-191.5 105.5,-191.5"/>
<polygon fill="none" stroke="#666666" points="105.5,-175 105.5,-224 243.5,-224 243.5,-175 105.5,-175"/>
</a>
</g>
</g>
<!-- Node2&#45;&gt;Node1 -->
<g id="edge1_Node000001_Node000002" class="edge">
<title>Node2&#45;&gt;Node1</title>
<g id="a_edge1_Node000001_Node000002"><a xlink:title=" ">
<path fill="none" stroke="#63b8ff" d="M153.23,-166.35C147.53,-157.72 141.13,-148.05 134.65,-138.26"/>
<polygon fill="none" stroke="#63b8ff" points="150.47,-168.52 158.91,-174.93 156.31,-164.66 150.47,-168.52"/>
</a>
</g>
</g>
<!-- Node3 -->
<g id="Node000003" class="node">
<title>Node3</title>
<g id="a_Node000003"><a xlink:href="../../d1/d86/interfaceTerraria_1_1GameContent_1_1Animations_1_1IAnimationSegmentAction.html" target="_top" xlink:title=" ">
<polygon fill="white" stroke="transparent" points="168,-384 11,-384 11,-261 168,-261 168,-384"/>
<text text-anchor="start" x="26" y="-371.5" font-family="Helvetica,sans-Serif" font-size="10.00">IAnimationSegmentAction</text>
<text text-anchor="start" x="68.5" y="-360.5" font-family="Helvetica,sans-Serif" font-size="10.00">&lt; NPC &gt;</text>
<text text-anchor="start" x="15.5" y="-345.5" font-family="Helvetica,sans-Serif" font-size="10.00">+</text>
<text text-anchor="start" x="28.5" y="-345.5" font-family="Helvetica,sans-Serif" font-size="10.00">int ExpectedLengthOfAction</text>
<text text-anchor="start" x="28.5" y="-334.5" font-family="Helvetica,sans-Serif" font-size="10.00">InFrames</text>
<text text-anchor="start" x="15.5" y="-319.5" font-family="Helvetica,sans-Serif" font-size="10.00">+</text>
<text text-anchor="start" x="28.5" y="-319.5" font-family="Helvetica,sans-Serif" font-size="10.00">void BindTo(T obj)</text>
<text text-anchor="start" x="15.5" y="-304.5" font-family="Helvetica,sans-Serif" font-size="10.00">+</text>
<text text-anchor="start" x="28.5" y="-304.5" font-family="Helvetica,sans-Serif" font-size="10.00">void ApplyTo(T obj,</text>
<text text-anchor="start" x="28.5" y="-293.5" font-family="Helvetica,sans-Serif" font-size="10.00"> float localTimeForObj)</text>
<text text-anchor="start" x="15.5" y="-278.5" font-family="Helvetica,sans-Serif" font-size="10.00">+</text>
<text text-anchor="start" x="28.5" y="-278.5" font-family="Helvetica,sans-Serif" font-size="10.00">void SetDelay(float</text>
<text text-anchor="start" x="28.5" y="-267.5" font-family="Helvetica,sans-Serif" font-size="10.00"> delay)</text>
<polygon fill="#666666" stroke="#666666" points="11.5,-355.5 11.5,-355.5 168.5,-355.5 168.5,-355.5 11.5,-355.5"/>
<polygon fill="#666666" stroke="#666666" points="11.5,-329.5 11.5,-329.5 26.5,-329.5 26.5,-329.5 11.5,-329.5"/>
<polygon fill="#666666" stroke="#666666" points="26.5,-329.5 26.5,-329.5 168.5,-329.5 168.5,-329.5 26.5,-329.5"/>
<polygon fill="none" stroke="#666666" points="11,-261 11,-384 168,-384 168,-261 11,-261"/>
</a>
</g>
</g>
<!-- Node3&#45;&gt;Node1 -->
<g id="edge4_Node000001_Node000003" class="edge">
<title>Node3&#45;&gt;Node1</title>
<g id="a_edge4_Node000001_Node000003"><a xlink:title=" ">
<path fill="none" stroke="#63b8ff" d="M89.5,-250.71C89.5,-215.41 89.5,-172.92 89.5,-138.01"/>
<polygon fill="none" stroke="#63b8ff" points="86,-250.94 89.5,-260.94 93,-250.94 86,-250.94"/>
</a>
</g>
</g>
<!-- Node3&#45;&gt;Node2 -->
<g id="edge2_Node000002_Node000003" class="edge">
<title>Node3&#45;&gt;Node2</title>
<g id="a_edge2_Node000002_Node000003"><a xlink:title=" ">
<path fill="none" stroke="#63b8ff" d="M138.2,-252.18C145.24,-242.16 152.04,-232.47 157.82,-224.24"/>
<polygon fill="none" stroke="#63b8ff" points="135.13,-250.45 132.25,-260.65 140.86,-254.47 135.13,-250.45"/>
</a>
</g>
</g>
<!-- Node4 -->
<g id="Node000004" class="node">
<title>Node4</title>
<g id="a_Node000004"><a xlink:href="../../d1/d86/interfaceTerraria_1_1GameContent_1_1Animations_1_1IAnimationSegmentAction.html" target="_top" xlink:title=" ">
<polygon fill="white" stroke="transparent" points="179,-554 0,-554 0,-431 179,-431 179,-554"/>
<text text-anchor="start" x="5.5" y="-541.5" font-family="Helvetica,sans-Serif" font-size="10.00">Terraria.GameContent.Animations.</text>
<text text-anchor="start" x="11.5" y="-530.5" font-family="Helvetica,sans-Serif" font-size="10.00">IAnimationSegmentAction&lt; T &gt;</text>
<text text-anchor="start" x="10" y="-515.5" font-family="Helvetica,sans-Serif" font-size="10.00">+</text>
<text text-anchor="start" x="28.5" y="-515.5" font-family="Helvetica,sans-Serif" font-size="10.00">int ExpectedLengthOfAction</text>
<text text-anchor="start" x="28.5" y="-504.5" font-family="Helvetica,sans-Serif" font-size="10.00">InFrames</text>
<text text-anchor="start" x="10" y="-489.5" font-family="Helvetica,sans-Serif" font-size="10.00">+</text>
<text text-anchor="start" x="28.5" y="-489.5" font-family="Helvetica,sans-Serif" font-size="10.00">void BindTo(T obj)</text>
<text text-anchor="start" x="10" y="-474.5" font-family="Helvetica,sans-Serif" font-size="10.00">+</text>
<text text-anchor="start" x="28.5" y="-474.5" font-family="Helvetica,sans-Serif" font-size="10.00">void ApplyTo(T obj,</text>
<text text-anchor="start" x="28.5" y="-463.5" font-family="Helvetica,sans-Serif" font-size="10.00"> float localTimeForObj)</text>
<text text-anchor="start" x="10" y="-448.5" font-family="Helvetica,sans-Serif" font-size="10.00">+</text>
<text text-anchor="start" x="28.5" y="-448.5" font-family="Helvetica,sans-Serif" font-size="10.00">void SetDelay(float</text>
<text text-anchor="start" x="28.5" y="-437.5" font-family="Helvetica,sans-Serif" font-size="10.00"> delay)</text>
<polygon fill="#666666" stroke="#666666" points="0.5,-525.5 0.5,-525.5 179.5,-525.5 179.5,-525.5 0.5,-525.5"/>
<polygon fill="#666666" stroke="#666666" points="0.5,-499.5 0.5,-499.5 26.5,-499.5 26.5,-499.5 0.5,-499.5"/>
<polygon fill="#666666" stroke="#666666" points="26.5,-499.5 26.5,-499.5 179.5,-499.5 179.5,-499.5 26.5,-499.5"/>
<polygon fill="none" stroke="#666666" points="0,-431 0,-554 179,-554 179,-431 0,-431"/>
</a>
</g>
</g>
<!-- Node4&#45;&gt;Node3 -->
<g id="edge3_Node000003_Node000004" class="edge">
<title>Node4&#45;&gt;Node3</title>
<g id="a_edge3_Node000003_Node000004"><a xlink:title=" ">
<path fill="none" stroke="orange" d="M89.5,-420.72C89.5,-408.53 89.5,-395.95 89.5,-384.06"/>
<polygon fill="orange" stroke="orange" points="86,-420.85 89.5,-430.85 93,-420.85 86,-420.85"/>
</a>
</g>
<text text-anchor="middle" x="112.5" y="-405" font-family="Helvetica,sans-Serif" font-size="10.00" fill="grey"> &lt; NPC &gt;</text>
</g>
</g>
</svg>

<g id="navigator" transform="translate(0 0)" fill="#404254">
  <rect fill="#f2f5e9" fill-opacity="0.5" stroke="#606060" stroke-width=".5" x="0" y="0" width="60" height="60"/>
  <use id="zoomplus" xlink:href="#zoomPlus" x="17" y="9" onmousedown="handleZoom(evt,'in')"/>
  <use id="zoomminus" xlink:href="#zoomMin" x="42" y="9" onmousedown="handleZoom(evt,'out')"/>
  <use id="reset" xlink:href="#resetDef" x="30" y="36" onmousedown="handleReset()"/>
   <use id="arrowup" xlink:href="#arrowUp" x="0" y="0" onmousedown="handlePan(0,-1)"/>
  <use id="arrowright" xlink:href="#arrowRight" x="0" y="0" onmousedown="handlePan(1,0)"/>
  <use id="arrowdown" xlink:href="#arrowDown" x="0" y="0" onmousedown="handlePan(0,1)"/>
  <use id="arrowleft" xlink:href="#arrowLeft" x="0" y="0" onmousedown="handlePan(-1,0)"/>
</g>
<svg viewBox="0 0 15 15" width="100%" height="30px" preserveAspectRatio="xMaxYMin meet">
 <g id="arrow_out" transform="scale(0.3 0.3)">
  <a xlink:href="classTerraria_1_1GameContent_1_1Animations_1_1Actions_1_1NPCs_1_1PartyHard__coll__graph_org.svg" target="_base">
   <rect id="button" ry="5" rx="5" y="6" x="6" height="38" width="38"
        fill="#f2f5e9" fill-opacity="0.5" stroke="#606060" stroke-width="1.0"/>
   <path id="arrow"
     d="M 11.500037,31.436501 C 11.940474,20.09759 22.043105,11.32322 32.158766,21.979434 L 37.068811,17.246167 C 37.068811,17.246167 37.088388,32 37.088388,32 L 22.160133,31.978069 C 22.160133,31.978069 26.997745,27.140456 26.997745,27.140456 C 18.528582,18.264221 13.291696,25.230495 11.500037,31.436501 z"
     style="fill:#404040;"/>
  </a>
 </g>
</svg>

<style type='text/css'>
<![CDATA[
[data-mouse-over-selected='false'] { opacity: 0.7; }
[data-mouse-over-selected='true']  { opacity: 1.0; }
]]>
</style>
<script type="application/ecmascript"><![CDATA[
document.addEventListener('DOMContentLoaded', (event) => {
  highlightEdges();
  highlightAdjacentNodes();
});
]]></script>
</svg>
