<?xml version="1.0" encoding="UTF-8" standalone="no"?>
<!DOCTYPE svg PUBLIC "-//W3C//DTD SVG 1.1//EN"
 "http://www.w3.org/Graphics/SVG/1.1/DTD/svg11.dtd">
<!-- Generated by graphviz version 2.43.0 (0)
 -->
<!-- Title: Terraria.ID.ArmorIDs.Shoe Pages: 1 -->
<svg width="195pt" height="450pt"
 viewBox="0.00 0.00 195.00 450.00" xmlns="http://www.w3.org/2000/svg" xmlns:xlink="http://www.w3.org/1999/xlink">
<g id="graph0" class="graph" transform="scale(1 1) rotate(0) translate(4 446)">
<title>Terraria.ID.ArmorIDs.Shoe</title>
<!-- Node1 -->
<g id="Node000001" class="node">
<title>Node1</title>
<g id="a_Node000001"><a xlink:title=" ">
<polygon fill="#999999" stroke="transparent" points="172,-236 0,-236 0,0 172,0 172,-236"/>
<text text-anchor="start" x="22.5" y="-224" font-family="Helvetica,sans-Serif" font-size="10.00">Terraria.ID.ArmorIDs.Shoe</text>
<text text-anchor="start" x="4" y="-209" font-family="Helvetica,sans-Serif" font-size="10.00">+</text>
<text text-anchor="start" x="17" y="-209" font-family="Helvetica,sans-Serif" font-size="10.00">const sbyte WaterWalking</text>
<text text-anchor="start" x="17" y="-198" font-family="Helvetica,sans-Serif" font-size="10.00">Boots</text>
<text text-anchor="start" x="4" y="-183" font-family="Helvetica,sans-Serif" font-size="10.00">+</text>
<text text-anchor="start" x="17" y="-183" font-family="Helvetica,sans-Serif" font-size="10.00">const sbyte Tabi</text>
<text text-anchor="start" x="4" y="-168" font-family="Helvetica,sans-Serif" font-size="10.00">+</text>
<text text-anchor="start" x="17" y="-168" font-family="Helvetica,sans-Serif" font-size="10.00">const sbyte TigerClimbingGear</text>
<text text-anchor="start" x="4" y="-153" font-family="Helvetica,sans-Serif" font-size="10.00">+</text>
<text text-anchor="start" x="17" y="-153" font-family="Helvetica,sans-Serif" font-size="10.00">const sbyte ShoeSpikes</text>
<text text-anchor="start" x="4" y="-138" font-family="Helvetica,sans-Serif" font-size="10.00">+</text>
<text text-anchor="start" x="17" y="-138" font-family="Helvetica,sans-Serif" font-size="10.00">const sbyte HermesBoots</text>
<text text-anchor="start" x="4" y="-123" font-family="Helvetica,sans-Serif" font-size="10.00">+</text>
<text text-anchor="start" x="17" y="-123" font-family="Helvetica,sans-Serif" font-size="10.00">const sbyte IceSkates</text>
<text text-anchor="start" x="4" y="-108" font-family="Helvetica,sans-Serif" font-size="10.00">+</text>
<text text-anchor="start" x="17" y="-108" font-family="Helvetica,sans-Serif" font-size="10.00">const sbyte LavaWaders</text>
<text text-anchor="start" x="4" y="-93" font-family="Helvetica,sans-Serif" font-size="10.00">+</text>
<text text-anchor="start" x="17" y="-93" font-family="Helvetica,sans-Serif" font-size="10.00">const sbyte LightningBoots</text>
<text text-anchor="start" x="4" y="-78" font-family="Helvetica,sans-Serif" font-size="10.00">+</text>
<text text-anchor="start" x="17" y="-78" font-family="Helvetica,sans-Serif" font-size="10.00">const sbyte ObsidianWater</text>
<text text-anchor="start" x="17" y="-67" font-family="Helvetica,sans-Serif" font-size="10.00">WalkingBoots</text>
<text text-anchor="start" x="4" y="-52" font-family="Helvetica,sans-Serif" font-size="10.00">+</text>
<text text-anchor="start" x="17" y="-52" font-family="Helvetica,sans-Serif" font-size="10.00">const sbyte RocketBoots</text>
<text text-anchor="start" x="17" y="-37" font-family="Helvetica,sans-Serif" font-size="10.00">and 7 more...</text>
<text text-anchor="start" x="4" y="-22" font-family="Helvetica,sans-Serif" font-size="10.00">+</text>
<text text-anchor="start" x="17" y="-22" font-family="Helvetica,sans-Serif" font-size="10.00">Shoe()</text>
<text text-anchor="start" x="6.5" y="-7" font-family="Helvetica,sans-Serif" font-size="10.00">&#45;</text>
<text text-anchor="start" x="17" y="-7" font-family="Helvetica,sans-Serif" font-size="10.00">static Shoe()</text>
<polygon fill="#666666" stroke="#666666" points="0,-219 0,-219 172,-219 172,-219 0,-219"/>
<polygon fill="#666666" stroke="#666666" points="0,-32 0,-32 15,-32 15,-32 0,-32"/>
<polygon fill="#666666" stroke="#666666" points="15,-32 15,-32 172,-32 172,-32 15,-32"/>
<polygon fill="none" stroke="#666666" points="0,0 0,-236 172,-236 172,0 0,0"/>
</a>
</g>
</g>
<!-- Node2 -->
<g id="Node000002" class="node">
<title>Node2</title>
<g id="a_Node000002"><a xlink:title=" ">
<polygon fill="white" stroke="transparent" points="41,-442 3,-442 3,-393 41,-393 41,-442"/>
<text text-anchor="start" x="8" y="-429.5" font-family="Helvetica,sans-Serif" font-size="10.00">sbyte</text>
<text text-anchor="start" x="20" y="-414.5" font-family="Helvetica,sans-Serif" font-size="10.00"> </text>
<text text-anchor="start" x="20" y="-399.5" font-family="Helvetica,sans-Serif" font-size="10.00"> </text>
<polygon fill="#666666" stroke="#666666" points="3,-424.5 3,-424.5 41,-424.5 41,-424.5 3,-424.5"/>
<polygon fill="#666666" stroke="#666666" points="3,-409.5 3,-409.5 41,-409.5 41,-409.5 3,-409.5"/>
<polygon fill="none" stroke="#666666" points="3,-393 3,-442 41,-442 41,-393 3,-393"/>
</a>
</g>
</g>
<!-- Node2&#45;&gt;Node1 -->
<g id="edge1_Node000001_Node000002" class="edge">
<title>Node2&#45;&gt;Node1</title>
<g id="a_edge1_Node000001_Node000002"><a xlink:title=" ">
<path fill="none" stroke="#63b8ff" d="M19.01,-392.73C15.69,-360.75 12.13,-302.3 23,-254 23.46,-251.96 23.95,-249.92 24.48,-247.87"/>
<polygon fill="none" stroke="#63b8ff" points="24.53,-247.67 22.32,-240.81 27.8,-236.12 30.01,-242.99 24.53,-247.67"/>
</a>
</g>
<text text-anchor="middle" x="76" y="-367" font-family="Helvetica,sans-Serif" font-size="10.00" fill="grey"> +AmphibianBoots</text>
<text text-anchor="middle" x="76" y="-356" font-family="Helvetica,sans-Serif" font-size="10.00" fill="grey">+FairyBoots</text>
<text text-anchor="middle" x="76" y="-345" font-family="Helvetica,sans-Serif" font-size="10.00" fill="grey">+FlameWakerBoots</text>
<text text-anchor="middle" x="76" y="-334" font-family="Helvetica,sans-Serif" font-size="10.00" fill="grey">+Flipper</text>
<text text-anchor="middle" x="76" y="-323" font-family="Helvetica,sans-Serif" font-size="10.00" fill="grey">+FlowerBoots</text>
<text text-anchor="middle" x="76" y="-312" font-family="Helvetica,sans-Serif" font-size="10.00" fill="grey">+FlurryBoots</text>
<text text-anchor="middle" x="76" y="-301" font-family="Helvetica,sans-Serif" font-size="10.00" fill="grey">+FrogFlipper</text>
<text text-anchor="middle" x="76" y="-290" font-family="Helvetica,sans-Serif" font-size="10.00" fill="grey">+FrogLeg</text>
<text text-anchor="middle" x="76" y="-279" font-family="Helvetica,sans-Serif" font-size="10.00" fill="grey">+FrostsparkBoots</text>
<text text-anchor="middle" x="76" y="-268" font-family="Helvetica,sans-Serif" font-size="10.00" fill="grey">+GlassSlipperFemale</text>
<text text-anchor="middle" x="76" y="-257" font-family="Helvetica,sans-Serif" font-size="10.00" fill="grey">...</text>
</g>
<!-- Node3 -->
<g id="Node000003" class="node">
<title>Node3</title>
<g id="a_Node000003"><a xlink:title=" ">
<polygon fill="white" stroke="transparent" points="162.5,-442 139.5,-442 139.5,-393 162.5,-393 162.5,-442"/>
<text text-anchor="start" x="145" y="-429.5" font-family="Helvetica,sans-Serif" font-size="10.00">int</text>
<text text-anchor="start" x="149.5" y="-414.5" font-family="Helvetica,sans-Serif" font-size="10.00"> </text>
<text text-anchor="start" x="149.5" y="-399.5" font-family="Helvetica,sans-Serif" font-size="10.00"> </text>
<polygon fill="#666666" stroke="#666666" points="140,-424.5 140,-424.5 163,-424.5 163,-424.5 140,-424.5"/>
<polygon fill="#666666" stroke="#666666" points="140,-409.5 140,-409.5 163,-409.5 163,-409.5 140,-409.5"/>
<polygon fill="none" stroke="#666666" points="139.5,-393 139.5,-442 162.5,-442 162.5,-393 139.5,-393"/>
</a>
</g>
</g>
<!-- Node3&#45;&gt;Node1 -->
<g id="edge2_Node000001_Node000003" class="edge">
<title>Node3&#45;&gt;Node1</title>
<g id="a_edge2_Node000001_Node000003"><a xlink:title=" ">
<path fill="none" stroke="#63b8ff" d="M149.1,-392.86C146.24,-361.03 139.97,-302.74 129,-254 128.54,-251.98 128.07,-249.94 127.59,-247.9"/>
<polygon fill="none" stroke="#63b8ff" points="127.55,-247.75 122.22,-242.89 124.65,-236.1 129.98,-240.96 127.55,-247.75"/>
</a>
</g>
<text text-anchor="middle" x="167" y="-312" font-family="Helvetica,sans-Serif" font-size="10.00" fill="grey"> +Count</text>
</g>
</g>
</svg>
