<?xml version="1.0" encoding="UTF-8" standalone="no"?>
<!DOCTYPE svg PUBLIC "-//W3C//DTD SVG 1.1//EN"
 "http://www.w3.org/Graphics/SVG/1.1/DTD/svg11.dtd">
<!-- Generated by graphviz version 2.43.0 (0)
 -->
<!-- Title: System.Net.TimerThread.Queue Pages: 1 -->
<svg width="418pt" height="320pt"
 viewBox="0.00 0.00 418.00 320.00" xmlns="http://www.w3.org/2000/svg" xmlns:xlink="http://www.w3.org/1999/xlink">

<svg id="main" version="1.1" xmlns="http://www.w3.org/2000/svg" xmlns:xlink="http://www.w3.org/1999/xlink" xml:space="preserve" onload="init(evt)">
<style type="text/css"><![CDATA[
.node, .edge {opacity: 0.7;}
.node.selected, .edge.selected {opacity: 1;}
.edge:hover path { stroke: red; }
.edge:hover polygon { stroke: red; fill: red; }
]]></style>
<script type="application/ecmascript" xlink:href="../../svg.min.js"/>
<svg id="graph" class="graph">
<g id="graph0" class="graph" transform="scale(1 1) rotate(0) translate(4 316)">
<title>System.Net.TimerThread.Queue</title>
<!-- Node1 -->
<g id="Node000001" class="node">
<title>Node1</title>
<g id="a_Node000001"><a xlink:title=" ">
<polygon fill="#999999" stroke="transparent" points="305.5,-312 104.5,-312 104.5,-185 305.5,-185 305.5,-312"/>
<text text-anchor="start" x="127" y="-299.5" font-family="Helvetica,sans-Serif" font-size="10.00">System.Net.TimerThread.Queue</text>
<text text-anchor="start" x="109" y="-284.5" font-family="Helvetica,sans-Serif" font-size="10.00">+</text>
<text text-anchor="start" x="122" y="-284.5" font-family="Helvetica,sans-Serif" font-size="10.00">int Duration</text>
<text text-anchor="start" x="111.5" y="-269.5" font-family="Helvetica,sans-Serif" font-size="10.00">&#45;</text>
<text text-anchor="start" x="122" y="-269.5" font-family="Helvetica,sans-Serif" font-size="10.00">readonly int m_DurationMilliseconds</text>
<text text-anchor="start" x="109" y="-254.5" font-family="Helvetica,sans-Serif" font-size="10.00">~</text>
<text text-anchor="start" x="122" y="-254.5" font-family="Helvetica,sans-Serif" font-size="10.00">Queue(int durationMilliseconds)</text>
<text text-anchor="start" x="109" y="-239.5" font-family="Helvetica,sans-Serif" font-size="10.00">~</text>
<text text-anchor="start" x="122" y="-239.5" font-family="Helvetica,sans-Serif" font-size="10.00">TimerThread.Timer Create</text>
<text text-anchor="start" x="122" y="-228.5" font-family="Helvetica,sans-Serif" font-size="10.00">Timer()</text>
<text text-anchor="start" x="109" y="-213.5" font-family="Helvetica,sans-Serif" font-size="10.00">~</text>
<text text-anchor="start" x="122" y="-213.5" font-family="Helvetica,sans-Serif" font-size="10.00">TimerThread.Timer Create</text>
<text text-anchor="start" x="122" y="-202.5" font-family="Helvetica,sans-Serif" font-size="10.00">Timer(TimerThread.Callback</text>
<text text-anchor="start" x="122" y="-191.5" font-family="Helvetica,sans-Serif" font-size="10.00"> callback, object context)</text>
<polygon fill="#666666" stroke="#666666" points="105,-294.5 105,-294.5 306,-294.5 306,-294.5 105,-294.5"/>
<polygon fill="#666666" stroke="#666666" points="105,-264.5 105,-264.5 120,-264.5 120,-264.5 105,-264.5"/>
<polygon fill="#666666" stroke="#666666" points="120,-264.5 120,-264.5 306,-264.5 306,-264.5 120,-264.5"/>
<polygon fill="none" stroke="#666666" points="104.5,-185 104.5,-312 305.5,-312 305.5,-185 104.5,-185"/>
</a>
</g>
</g>
<!-- Node2 -->
<g id="Node000002" class="node">
<title>Node2</title>
<g id="a_Node000002"><a xlink:href="../../d4/dd6/classSystem_1_1Net_1_1TimerThread_1_1InfiniteTimerQueue.html" target="_top" xlink:title=" ">
<polygon fill="white" stroke="transparent" points="196,-123 0,-123 0,-26 196,-26 196,-123"/>
<text text-anchor="start" x="18" y="-110.5" font-family="Helvetica,sans-Serif" font-size="10.00">System.Net.TimerThread.Infinite</text>
<text text-anchor="start" x="67.5" y="-99.5" font-family="Helvetica,sans-Serif" font-size="10.00">TimerQueue</text>
<text text-anchor="start" x="96" y="-84.5" font-family="Helvetica,sans-Serif" font-size="10.00"> </text>
<text text-anchor="start" x="4" y="-69.5" font-family="Helvetica,sans-Serif" font-size="10.00">~</text>
<text text-anchor="start" x="17" y="-69.5" font-family="Helvetica,sans-Serif" font-size="10.00">InfiniteTimerQueue()</text>
<text text-anchor="start" x="4" y="-54.5" font-family="Helvetica,sans-Serif" font-size="10.00">~</text>
<text text-anchor="start" x="17" y="-54.5" font-family="Helvetica,sans-Serif" font-size="10.00">override TimerThread.Timer</text>
<text text-anchor="start" x="17" y="-43.5" font-family="Helvetica,sans-Serif" font-size="10.00"> CreateTimer(TimerThread.Callback</text>
<text text-anchor="start" x="17" y="-32.5" font-family="Helvetica,sans-Serif" font-size="10.00"> callback, object context)</text>
<polygon fill="#666666" stroke="#666666" points="0,-94.5 0,-94.5 196,-94.5 196,-94.5 0,-94.5"/>
<polygon fill="#666666" stroke="#666666" points="0,-79.5 0,-79.5 196,-79.5 196,-79.5 0,-79.5"/>
<polygon fill="none" stroke="#666666" points="0,-26 0,-123 196,-123 196,-26 0,-26"/>
</a>
</g>
</g>
<!-- Node1&#45;&gt;Node2 -->
<g id="edge1_Node000001_Node000002" class="edge">
<title>Node1&#45;&gt;Node2</title>
<g id="a_edge1_Node000001_Node000002"><a xlink:title=" ">
<path fill="none" stroke="#63b8ff" d="M160.66,-176.23C149.54,-158.36 137.88,-139.61 127.67,-123.2"/>
<polygon fill="none" stroke="#63b8ff" points="157.81,-178.28 166.07,-184.92 163.76,-174.58 157.81,-178.28"/>
</a>
</g>
</g>
<!-- Node3 -->
<g id="Node000003" class="node">
<title>Node3</title>
<g id="a_Node000003"><a xlink:href="../../d5/d4d/classSystem_1_1Net_1_1TimerThread_1_1TimerQueue.html" target="_top" xlink:title=" ">
<polygon fill="white" stroke="transparent" points="410,-149 214,-149 214,0 410,0 410,-149"/>
<text text-anchor="start" x="235" y="-136.5" font-family="Helvetica,sans-Serif" font-size="10.00">System.Net.TimerThread.Timer</text>
<text text-anchor="start" x="296" y="-125.5" font-family="Helvetica,sans-Serif" font-size="10.00">Queue</text>
<text text-anchor="start" x="220.5" y="-110.5" font-family="Helvetica,sans-Serif" font-size="10.00">&#45;</text>
<text text-anchor="start" x="231" y="-110.5" font-family="Helvetica,sans-Serif" font-size="10.00">IntPtr m_ThisHandle</text>
<text text-anchor="start" x="220.5" y="-95.5" font-family="Helvetica,sans-Serif" font-size="10.00">&#45;</text>
<text text-anchor="start" x="231" y="-95.5" font-family="Helvetica,sans-Serif" font-size="10.00">readonly TimerThread.Timer</text>
<text text-anchor="start" x="231" y="-84.5" font-family="Helvetica,sans-Serif" font-size="10.00">Node m_Timers</text>
<text text-anchor="start" x="218" y="-69.5" font-family="Helvetica,sans-Serif" font-size="10.00">~</text>
<text text-anchor="start" x="231" y="-69.5" font-family="Helvetica,sans-Serif" font-size="10.00">TimerQueue(int duration</text>
<text text-anchor="start" x="231" y="-58.5" font-family="Helvetica,sans-Serif" font-size="10.00">Milliseconds)</text>
<text text-anchor="start" x="218" y="-43.5" font-family="Helvetica,sans-Serif" font-size="10.00">~</text>
<text text-anchor="start" x="231" y="-43.5" font-family="Helvetica,sans-Serif" font-size="10.00">override TimerThread.Timer</text>
<text text-anchor="start" x="231" y="-32.5" font-family="Helvetica,sans-Serif" font-size="10.00"> CreateTimer(TimerThread.Callback</text>
<text text-anchor="start" x="231" y="-21.5" font-family="Helvetica,sans-Serif" font-size="10.00"> callback, object context)</text>
<text text-anchor="start" x="218" y="-6.5" font-family="Helvetica,sans-Serif" font-size="10.00">~</text>
<text text-anchor="start" x="231" y="-6.5" font-family="Helvetica,sans-Serif" font-size="10.00">bool Fire(out int nextExpiration)</text>
<polygon fill="#666666" stroke="#666666" points="214,-120.5 214,-120.5 410,-120.5 410,-120.5 214,-120.5"/>
<polygon fill="#666666" stroke="#666666" points="214,-79.5 214,-79.5 229,-79.5 229,-79.5 214,-79.5"/>
<polygon fill="#666666" stroke="#666666" points="229,-79.5 229,-79.5 410,-79.5 410,-79.5 229,-79.5"/>
<polygon fill="none" stroke="#666666" points="214,0 214,-149 410,-149 410,0 214,0"/>
</a>
</g>
</g>
<!-- Node1&#45;&gt;Node3 -->
<g id="edge2_Node000001_Node000003" class="edge">
<title>Node1&#45;&gt;Node3</title>
<g id="a_edge2_Node000001_Node000003"><a xlink:title=" ">
<path fill="none" stroke="#63b8ff" d="M249.24,-176.38C254.84,-167.39 260.57,-158.17 266.19,-149.14"/>
<polygon fill="none" stroke="#63b8ff" points="246.24,-174.58 243.93,-184.92 252.19,-178.28 246.24,-174.58"/>
</a>
</g>
</g>
</g>
</svg>
</svg>

<style type='text/css'>
<![CDATA[
[data-mouse-over-selected='false'] { opacity: 0.7; }
[data-mouse-over-selected='true']  { opacity: 1.0; }
]]>
</style>
<script type="application/ecmascript"><![CDATA[
document.addEventListener('DOMContentLoaded', (event) => {
  highlightEdges();
  highlightAdjacentNodes();
});
]]></script>
</svg>
