<?xml version="1.0" encoding="UTF-8" standalone="no"?>
<!DOCTYPE svg PUBLIC "-//W3C//DTD SVG 1.1//EN"
 "http://www.w3.org/Graphics/SVG/1.1/DTD/svg11.dtd">
<!-- Generated by graphviz version 2.43.0 (0)
 -->
<!-- Title: Terraria.Map.PingMapLayer Pages: 1 -->
<svg width="189pt" height="268pt"
 viewBox="0.00 0.00 189.00 268.00" xmlns="http://www.w3.org/2000/svg" xmlns:xlink="http://www.w3.org/1999/xlink">
<g id="graph0" class="graph" transform="scale(1 1) rotate(0) translate(4 264)">
<title>Terraria.Map.PingMapLayer</title>
<!-- Node1 -->
<g id="Node000001" class="node">
<title>Node1</title>
<g id="a_Node000001"><a xlink:title=" ">
<polygon fill="#999999" stroke="transparent" points="181,-153 0,-153 0,0 181,0 181,-153"/>
<text text-anchor="start" x="24.5" y="-140.5" font-family="Helvetica,sans-Serif" font-size="10.00">Terraria.Map.PingMapLayer</text>
<text text-anchor="start" x="7" y="-125.5" font-family="Helvetica,sans-Serif" font-size="10.00">&#45;</text>
<text text-anchor="start" x="17.5" y="-125.5" font-family="Helvetica,sans-Serif" font-size="10.00">readonly SlotVector</text>
<text text-anchor="start" x="17.5" y="-114.5" font-family="Helvetica,sans-Serif" font-size="10.00">&lt; Ping &gt; _pings</text>
<text text-anchor="start" x="7" y="-99.5" font-family="Helvetica,sans-Serif" font-size="10.00">&#45;</text>
<text text-anchor="start" x="17.5" y="-99.5" font-family="Helvetica,sans-Serif" font-size="10.00">const double PING_DURATION</text>
<text text-anchor="start" x="17.5" y="-88.5" font-family="Helvetica,sans-Serif" font-size="10.00">_IN_SECONDS</text>
<text text-anchor="start" x="7" y="-73.5" font-family="Helvetica,sans-Serif" font-size="10.00">&#45;</text>
<text text-anchor="start" x="17.5" y="-73.5" font-family="Helvetica,sans-Serif" font-size="10.00">const double PING_FRAME_RATE</text>
<text text-anchor="start" x="4.5" y="-58.5" font-family="Helvetica,sans-Serif" font-size="10.00">+</text>
<text text-anchor="start" x="17.5" y="-58.5" font-family="Helvetica,sans-Serif" font-size="10.00">void Draw(ref MapOverlay</text>
<text text-anchor="start" x="17.5" y="-47.5" font-family="Helvetica,sans-Serif" font-size="10.00">DrawContext context, ref</text>
<text text-anchor="start" x="17.5" y="-36.5" font-family="Helvetica,sans-Serif" font-size="10.00"> string text)</text>
<text text-anchor="start" x="4.5" y="-21.5" font-family="Helvetica,sans-Serif" font-size="10.00">+</text>
<text text-anchor="start" x="17.5" y="-21.5" font-family="Helvetica,sans-Serif" font-size="10.00">void Add(Vector2 position)</text>
<text text-anchor="start" x="4.5" y="-6.5" font-family="Helvetica,sans-Serif" font-size="10.00">+</text>
<text text-anchor="start" x="17.5" y="-6.5" font-family="Helvetica,sans-Serif" font-size="10.00">PingMapLayer()</text>
<polygon fill="#666666" stroke="#666666" points="0.5,-135.5 0.5,-135.5 181.5,-135.5 181.5,-135.5 0.5,-135.5"/>
<polygon fill="#666666" stroke="#666666" points="0.5,-68.5 0.5,-68.5 15.5,-68.5 15.5,-68.5 0.5,-68.5"/>
<polygon fill="#666666" stroke="#666666" points="15.5,-68.5 15.5,-68.5 181.5,-68.5 181.5,-68.5 15.5,-68.5"/>
<polygon fill="none" stroke="#666666" points="0,0 0,-153 181,-153 181,0 0,0"/>
</a>
</g>
</g>
<!-- Node2 -->
<g id="Node000002" class="node">
<title>Node2</title>
<g id="a_Node000002"><a xlink:href="../../db/d4f/interfaceTerraria_1_1Map_1_1IMapLayer.html" target="_top" xlink:title=" ">
<polygon fill="white" stroke="transparent" points="166,-260 15,-260 15,-189 166,-189 166,-260"/>
<text text-anchor="start" x="65" y="-247.5" font-family="Helvetica,sans-Serif" font-size="10.00">IMapLayer</text>
<text text-anchor="start" x="89" y="-232.5" font-family="Helvetica,sans-Serif" font-size="10.00"> </text>
<text text-anchor="start" x="19.5" y="-217.5" font-family="Helvetica,sans-Serif" font-size="10.00">+</text>
<text text-anchor="start" x="32.5" y="-217.5" font-family="Helvetica,sans-Serif" font-size="10.00">void Draw(ref MapOverlay</text>
<text text-anchor="start" x="32.5" y="-206.5" font-family="Helvetica,sans-Serif" font-size="10.00">DrawContext context, ref</text>
<text text-anchor="start" x="32.5" y="-195.5" font-family="Helvetica,sans-Serif" font-size="10.00"> string text)</text>
<polygon fill="#666666" stroke="#666666" points="15.5,-242.5 15.5,-242.5 166.5,-242.5 166.5,-242.5 15.5,-242.5"/>
<polygon fill="#666666" stroke="#666666" points="15.5,-227.5 15.5,-227.5 166.5,-227.5 166.5,-227.5 15.5,-227.5"/>
<polygon fill="none" stroke="#666666" points="15,-189 15,-260 166,-260 166,-189 15,-189"/>
</a>
</g>
</g>
<!-- Node2&#45;&gt;Node1 -->
<g id="edge1_Node000001_Node000002" class="edge">
<title>Node2&#45;&gt;Node1</title>
<g id="a_edge1_Node000001_Node000002"><a xlink:title=" ">
<path fill="none" stroke="#63b8ff" d="M90.5,-178.64C90.5,-170.57 90.5,-161.95 90.5,-153.28"/>
<polygon fill="none" stroke="#63b8ff" points="87,-178.9 90.5,-188.9 94,-178.9 87,-178.9"/>
</a>
</g>
</g>
</g>
</svg>
