<?xml version="1.0" encoding="UTF-8" standalone="no"?>
<!DOCTYPE svg PUBLIC "-//W3C//DTD SVG 1.1//EN"
 "http://www.w3.org/Graphics/SVG/1.1/DTD/svg11.dtd">
<!-- Generated by graphviz version 2.43.0 (0)
 -->
<!-- Title: iOS_UserManager Pages: 1 -->
<!--zoomable 842 -->

<svg id="main" version="1.1" xmlns="http://www.w3.org/2000/svg" xmlns:xlink="http://www.w3.org/1999/xlink" xml:space="preserve" onload="init(evt)">
<style type="text/css"><![CDATA[
.node, .edge {opacity: 0.7;}
.node.selected, .edge.selected {opacity: 1;}
.edge:hover path { stroke: red; }
.edge:hover polygon { stroke: red; fill: red; }
]]></style>

<defs>
  <circle id="rim" cx="0" cy="0" r="7"/>
  <circle id="rim2" cx="0" cy="0" r="3.5"/>
  <g id="zoomPlus">
    <use xlink:href="#rim" fill="#404040"><set attributeName="fill" to="#808080" begin="zoomplus.mouseover" end="zoomplus.mouseout"/></use>
    <path d="M-4,0h8M0,-4v8" fill="none" stroke="white" stroke-width="1.5" pointer-events="none"/>
  </g>
  <g id="zoomMin">
    <use xlink:href="#rim" fill="#404040"><set attributeName="fill" to="#808080" begin="zoomminus.mouseover" end="zoomminus.mouseout"/></use>
    <path d="M-4,0h8" fill="none" stroke="white" stroke-width="1.5" pointer-events="none"/>
  </g>
  <g id="arrowUp" transform="translate(30 24)">
    <use xlink:href="#rim"/>
    <path pointer-events="none" fill="none" stroke="white" stroke-width="1.5" d="M0,-3.0v7 M-2.5,-0.5L0,-3.0L2.5,-0.5"/>
  </g>
  <g id="arrowRight" transform="rotate(90) translate(36 -43)">
    <use xlink:href="#rim"/>
    <path pointer-events="none" fill="none" stroke="white" stroke-width="1.5" d="M0,-3.0v7 M-2.5,-0.5L0,-3.0L2.5,-0.5"/>
  </g>
  <g id="arrowDown" transform="rotate(180) translate(-30 -48)">
    <use xlink:href="#rim"/>
    <path pointer-events="none" fill="none" stroke="white" stroke-width="1.5" d="M0,-3.0v7 M-2.5,-0.5L0,-3.0L2.5,-0.5"/>
  </g>
  <g id="arrowLeft" transform="rotate(270) translate(-36 17)">
    <use xlink:href="#rim"/>
    <path pointer-events="none" fill="none" stroke="white" stroke-width="1.5" d="M0,-3.0v7 M-2.5,-0.5L0,-3.0L2.5,-0.5"/>
  </g>
  <g id="resetDef">
    <use xlink:href="#rim2" fill="#404040"><set attributeName="fill" to="#808080" begin="reset.mouseover" end="reset.mouseout"/></use>
  </g>
</defs>
<script type="application/ecmascript">
var viewWidth = 668;
var viewHeight = 842;
var sectionId = 'dynsection-0';
</script>
<script type="application/ecmascript" xlink:href="../../svg.min.js"/>
<svg id="graph" class="graph">
<g id="viewport">
<title>iOS_UserManager</title>
<!-- Node1 -->
<g id="Node000001" class="node">
<title>Node1</title>
<g id="a_Node000001"><a xlink:title=" ">
<polygon fill="#999999" stroke="transparent" points="494.95,-303 319.95,-303 319.95,0 494.95,0 494.95,-303"/>
<text text-anchor="start" x="363.95" y="-290.5" font-family="Helvetica,sans-Serif" font-size="10.00">iOS_UserManager</text>
<text text-anchor="start" x="324.45" y="-275.5" font-family="Helvetica,sans-Serif" font-size="10.00">+</text>
<text text-anchor="start" x="337.45" y="-275.5" font-family="Helvetica,sans-Serif" font-size="10.00">static string UserId</text>
<text text-anchor="start" x="324.45" y="-260.5" font-family="Helvetica,sans-Serif" font-size="10.00">+</text>
<text text-anchor="start" x="337.45" y="-260.5" font-family="Helvetica,sans-Serif" font-size="10.00">static string UserAlias</text>
<text text-anchor="start" x="324.45" y="-245.5" font-family="Helvetica,sans-Serif" font-size="10.00">+</text>
<text text-anchor="start" x="337.45" y="-245.5" font-family="Helvetica,sans-Serif" font-size="10.00">static bool AttemptingSignIn</text>
<text text-anchor="start" x="324.45" y="-230.5" font-family="Helvetica,sans-Serif" font-size="10.00">+</text>
<text text-anchor="start" x="337.45" y="-230.5" font-family="Helvetica,sans-Serif" font-size="10.00">static DrPlatform.IOS.User.</text>
<text text-anchor="start" x="337.45" y="-219.5" font-family="Helvetica,sans-Serif" font-size="10.00">UserState LoginState</text>
<text text-anchor="start" x="324.45" y="-204.5" font-family="Helvetica,sans-Serif" font-size="10.00">+</text>
<text text-anchor="start" x="337.45" y="-204.5" font-family="Helvetica,sans-Serif" font-size="10.00">static bool EditorSignedIn</text>
<text text-anchor="start" x="324.45" y="-189.5" font-family="Helvetica,sans-Serif" font-size="10.00">+</text>
<text text-anchor="start" x="337.45" y="-189.5" font-family="Helvetica,sans-Serif" font-size="10.00">static string EditorUserId</text>
<text text-anchor="start" x="324.45" y="-174.5" font-family="Helvetica,sans-Serif" font-size="10.00">+</text>
<text text-anchor="start" x="337.45" y="-174.5" font-family="Helvetica,sans-Serif" font-size="10.00">static string EditorUser</text>
<text text-anchor="start" x="337.45" y="-163.5" font-family="Helvetica,sans-Serif" font-size="10.00">Alias</text>
<text text-anchor="start" x="324.45" y="-148.5" font-family="Helvetica,sans-Serif" font-size="10.00">+</text>
<text text-anchor="start" x="337.45" y="-148.5" font-family="Helvetica,sans-Serif" font-size="10.00">static float EditorSignIn</text>
<text text-anchor="start" x="337.45" y="-137.5" font-family="Helvetica,sans-Serif" font-size="10.00">ProcessTimeout</text>
<text text-anchor="start" x="324.45" y="-122.5" font-family="Helvetica,sans-Serif" font-size="10.00">+</text>
<text text-anchor="start" x="337.45" y="-122.5" font-family="Helvetica,sans-Serif" font-size="10.00">iOS_UserManager()</text>
<text text-anchor="start" x="324.45" y="-107.5" font-family="Helvetica,sans-Serif" font-size="10.00">+</text>
<text text-anchor="start" x="337.45" y="-107.5" font-family="Helvetica,sans-Serif" font-size="10.00">static void Setup()</text>
<text text-anchor="start" x="324.45" y="-92.5" font-family="Helvetica,sans-Serif" font-size="10.00">+</text>
<text text-anchor="start" x="337.45" y="-92.5" font-family="Helvetica,sans-Serif" font-size="10.00">static void ClearCache()</text>
<text text-anchor="start" x="324.45" y="-77.5" font-family="Helvetica,sans-Serif" font-size="10.00">+</text>
<text text-anchor="start" x="337.45" y="-77.5" font-family="Helvetica,sans-Serif" font-size="10.00">static void RequestSignIn()</text>
<text text-anchor="start" x="324.45" y="-62.5" font-family="Helvetica,sans-Serif" font-size="10.00">+</text>
<text text-anchor="start" x="337.45" y="-62.5" font-family="Helvetica,sans-Serif" font-size="10.00">static void Update()</text>
<text text-anchor="start" x="326.95" y="-47.5" font-family="Helvetica,sans-Serif" font-size="10.00">&#45;</text>
<text text-anchor="start" x="337.45" y="-47.5" font-family="Helvetica,sans-Serif" font-size="10.00">static void UpdateUser()</text>
<text text-anchor="start" x="326.95" y="-32.5" font-family="Helvetica,sans-Serif" font-size="10.00">&#45;</text>
<text text-anchor="start" x="337.45" y="-32.5" font-family="Helvetica,sans-Serif" font-size="10.00">static void AttemptSignIn()</text>
<text text-anchor="start" x="326.95" y="-17.5" font-family="Helvetica,sans-Serif" font-size="10.00">&#45;</text>
<text text-anchor="start" x="337.45" y="-17.5" font-family="Helvetica,sans-Serif" font-size="10.00">static void PlayerAuthenticated</text>
<text text-anchor="start" x="337.45" y="-6.5" font-family="Helvetica,sans-Serif" font-size="10.00">(bool success)</text>
<polygon fill="#666666" stroke="#666666" points="320.45,-285.5 320.45,-285.5 495.45,-285.5 495.45,-285.5 320.45,-285.5"/>
<polygon fill="#666666" stroke="#666666" points="320.45,-132.5 320.45,-132.5 335.45,-132.5 335.45,-132.5 320.45,-132.5"/>
<polygon fill="#666666" stroke="#666666" points="335.45,-132.5 335.45,-132.5 495.45,-132.5 495.45,-132.5 335.45,-132.5"/>
<polygon fill="none" stroke="#666666" points="319.95,0 319.95,-303 494.95,-303 494.95,0 319.95,0"/>
</a>
</g>
</g>
<!-- Node2 -->
<g id="Node000002" class="node">
<title>Node2</title>
<g id="a_Node000002"><a xlink:title=" ">
<polygon fill="white" stroke="transparent" points="68.45,-834 36.45,-834 36.45,-785 68.45,-785 68.45,-834"/>
<text text-anchor="start" x="41.45" y="-821.5" font-family="Helvetica,sans-Serif" font-size="10.00">bool</text>
<text text-anchor="start" x="50.45" y="-806.5" font-family="Helvetica,sans-Serif" font-size="10.00"> </text>
<text text-anchor="start" x="50.45" y="-791.5" font-family="Helvetica,sans-Serif" font-size="10.00"> </text>
<polygon fill="#666666" stroke="#666666" points="36.45,-816.5 36.45,-816.5 68.45,-816.5 68.45,-816.5 36.45,-816.5"/>
<polygon fill="#666666" stroke="#666666" points="36.45,-801.5 36.45,-801.5 68.45,-801.5 68.45,-801.5 36.45,-801.5"/>
<polygon fill="none" stroke="#666666" points="36.45,-785 36.45,-834 68.45,-834 68.45,-785 36.45,-785"/>
</a>
</g>
</g>
<!-- Node2&#45;&gt;Node1 -->
<g id="edge1_Node000001_Node000002" class="edge">
<title>Node2&#45;&gt;Node1</title>
<g id="a_edge1_Node000001_Node000002"><a xlink:title=" ">
<path fill="none" stroke="#63b8ff" d="M44.01,-784.88C20,-713.28 -41.58,-494.75 44.45,-350 101.04,-254.77 221.42,-202.57 308.05,-176.13"/>
<polygon fill="none" stroke="#63b8ff" points="308.27,-176.07 312.88,-170.53 319.77,-172.65 315.16,-178.19 308.27,-176.07"/>
</a>
</g>
<text text-anchor="middle" x="106.95" y="-552.5" font-family="Helvetica,sans-Serif" font-size="10.00" fill="grey"> +EditorAttemptingSignIn</text>
<text text-anchor="middle" x="106.95" y="-541.5" font-family="Helvetica,sans-Serif" font-size="10.00" fill="grey">&#45;_attemptedPassiveLogin</text>
<text text-anchor="middle" x="106.95" y="-530.5" font-family="Helvetica,sans-Serif" font-size="10.00" fill="grey">&#45;_attemptingSignIn</text>
<text text-anchor="middle" x="106.95" y="-519.5" font-family="Helvetica,sans-Serif" font-size="10.00" fill="grey">&#45;_requestedLogin</text>
</g>
<!-- Node5 -->
<g id="Node000005" class="node">
<title>Node5</title>
<g id="a_Node000005"><a xlink:href="../../d0/dac/classDrPlatform.html" target="_top" xlink:title=" ">
<polygon fill="white" stroke="transparent" points="377.95,-727 178.95,-727 178.95,-350 377.95,-350 377.95,-727"/>
<text text-anchor="start" x="251.95" y="-714.5" font-family="Helvetica,sans-Serif" font-size="10.00">DrPlatform</text>
<text text-anchor="start" x="183.45" y="-699.5" font-family="Helvetica,sans-Serif" font-size="10.00">+</text>
<text text-anchor="start" x="196.45" y="-699.5" font-family="Helvetica,sans-Serif" font-size="10.00">static bool IsChromebook</text>
<text text-anchor="start" x="183.45" y="-684.5" font-family="Helvetica,sans-Serif" font-size="10.00">+</text>
<text text-anchor="start" x="196.45" y="-684.5" font-family="Helvetica,sans-Serif" font-size="10.00">static DrPlatformType</text>
<text text-anchor="start" x="196.45" y="-673.5" font-family="Helvetica,sans-Serif" font-size="10.00"> CurrentPlatform</text>
<text text-anchor="start" x="183.45" y="-658.5" font-family="Helvetica,sans-Serif" font-size="10.00">+</text>
<text text-anchor="start" x="196.45" y="-658.5" font-family="Helvetica,sans-Serif" font-size="10.00">static DrSKUType CurrentSKU</text>
<text text-anchor="start" x="183.45" y="-643.5" font-family="Helvetica,sans-Serif" font-size="10.00">+</text>
<text text-anchor="start" x="196.45" y="-643.5" font-family="Helvetica,sans-Serif" font-size="10.00">static bool IsMainThread</text>
<text text-anchor="start" x="183.45" y="-628.5" font-family="Helvetica,sans-Serif" font-size="10.00">+</text>
<text text-anchor="start" x="196.45" y="-628.5" font-family="Helvetica,sans-Serif" font-size="10.00">static bool IsUIHighlight</text>
<text text-anchor="start" x="196.45" y="-617.5" font-family="Helvetica,sans-Serif" font-size="10.00">Enabled</text>
<text text-anchor="start" x="183.45" y="-602.5" font-family="Helvetica,sans-Serif" font-size="10.00">+</text>
<text text-anchor="start" x="196.45" y="-602.5" font-family="Helvetica,sans-Serif" font-size="10.00">static string InstallSource</text>
<text text-anchor="start" x="183.45" y="-587.5" font-family="Helvetica,sans-Serif" font-size="10.00">+</text>
<text text-anchor="start" x="196.45" y="-587.5" font-family="Helvetica,sans-Serif" font-size="10.00">DrPlatform()</text>
<text text-anchor="start" x="183.45" y="-572.5" font-family="Helvetica,sans-Serif" font-size="10.00">+</text>
<text text-anchor="start" x="196.45" y="-572.5" font-family="Helvetica,sans-Serif" font-size="10.00">static void OpenStoreURL()</text>
<text text-anchor="start" x="183.45" y="-557.5" font-family="Helvetica,sans-Serif" font-size="10.00">+</text>
<text text-anchor="start" x="196.45" y="-557.5" font-family="Helvetica,sans-Serif" font-size="10.00">static bool IsCurrentPlatform</text>
<text text-anchor="start" x="196.45" y="-546.5" font-family="Helvetica,sans-Serif" font-size="10.00">(DrPlatformType platform)</text>
<text text-anchor="start" x="183.45" y="-531.5" font-family="Helvetica,sans-Serif" font-size="10.00">+</text>
<text text-anchor="start" x="196.45" y="-531.5" font-family="Helvetica,sans-Serif" font-size="10.00">static bool IsCachedSignIn()</text>
<text text-anchor="start" x="183.45" y="-516.5" font-family="Helvetica,sans-Serif" font-size="10.00">+</text>
<text text-anchor="start" x="196.45" y="-516.5" font-family="Helvetica,sans-Serif" font-size="10.00">static bool IsSignedInTo</text>
<text text-anchor="start" x="196.45" y="-505.5" font-family="Helvetica,sans-Serif" font-size="10.00">CurrentPlatform()</text>
<text text-anchor="start" x="183.45" y="-490.5" font-family="Helvetica,sans-Serif" font-size="10.00">+</text>
<text text-anchor="start" x="196.45" y="-490.5" font-family="Helvetica,sans-Serif" font-size="10.00">static bool PlatformMatches</text>
<text text-anchor="start" x="196.45" y="-479.5" font-family="Helvetica,sans-Serif" font-size="10.00">(DrPlatformType platformCompare1,</text>
<text text-anchor="start" x="196.45" y="-468.5" font-family="Helvetica,sans-Serif" font-size="10.00"> DrPlatformType platformCompare2)</text>
<text text-anchor="start" x="183.45" y="-453.5" font-family="Helvetica,sans-Serif" font-size="10.00">+</text>
<text text-anchor="start" x="196.45" y="-453.5" font-family="Helvetica,sans-Serif" font-size="10.00">static void Update</text>
<text text-anchor="start" x="196.45" y="-442.5" font-family="Helvetica,sans-Serif" font-size="10.00">(float elapsedTime)</text>
<text text-anchor="start" x="183.45" y="-427.5" font-family="Helvetica,sans-Serif" font-size="10.00">+</text>
<text text-anchor="start" x="196.45" y="-427.5" font-family="Helvetica,sans-Serif" font-size="10.00">static void Setup()</text>
<text text-anchor="start" x="183.45" y="-412.5" font-family="Helvetica,sans-Serif" font-size="10.00">+</text>
<text text-anchor="start" x="196.45" y="-412.5" font-family="Helvetica,sans-Serif" font-size="10.00">static void Start()</text>
<text text-anchor="start" x="183.45" y="-397.5" font-family="Helvetica,sans-Serif" font-size="10.00">+</text>
<text text-anchor="start" x="196.45" y="-397.5" font-family="Helvetica,sans-Serif" font-size="10.00">static void StartSession()</text>
<text text-anchor="start" x="185.95" y="-382.5" font-family="Helvetica,sans-Serif" font-size="10.00">&#45;</text>
<text text-anchor="start" x="196.45" y="-382.5" font-family="Helvetica,sans-Serif" font-size="10.00">static void SetConnection</text>
<text text-anchor="start" x="196.45" y="-371.5" font-family="Helvetica,sans-Serif" font-size="10.00">Down(bool connectionDown)</text>
<text text-anchor="start" x="185.95" y="-356.5" font-family="Helvetica,sans-Serif" font-size="10.00">&#45;</text>
<text text-anchor="start" x="196.45" y="-356.5" font-family="Helvetica,sans-Serif" font-size="10.00">static void SetVSyncCount()</text>
<polygon fill="#666666" stroke="#666666" points="179.45,-709.5 179.45,-709.5 378.45,-709.5 378.45,-709.5 179.45,-709.5"/>
<polygon fill="#666666" stroke="#666666" points="179.45,-597.5 179.45,-597.5 194.45,-597.5 194.45,-597.5 179.45,-597.5"/>
<polygon fill="#666666" stroke="#666666" points="194.45,-597.5 194.45,-597.5 378.45,-597.5 378.45,-597.5 194.45,-597.5"/>
<polygon fill="none" stroke="#666666" points="178.95,-350 178.95,-727 377.95,-727 377.95,-350 178.95,-350"/>
</a>
</g>
</g>
<!-- Node2&#45;&gt;Node5 -->
<g id="edge5_Node000005_Node000002" class="edge">
<title>Node2&#45;&gt;Node5</title>
<g id="a_edge5_Node000005_Node000002"><a xlink:title=" ">
<path fill="none" stroke="#63b8ff" d="M65.1,-784.85C73.46,-771.34 85.61,-755.13 100.45,-745 124.85,-728.34 140.91,-744.87 164.45,-727 166.11,-725.73 167.76,-724.43 169.4,-723.1"/>
<polygon fill="none" stroke="#63b8ff" points="169.47,-723.04 171.37,-716.09 178.53,-715.18 176.62,-722.13 169.47,-723.04"/>
</a>
</g>
<text text-anchor="middle" x="147.45" y="-759" font-family="Helvetica,sans-Serif" font-size="10.00" fill="grey"> +ConnectionDown</text>
<text text-anchor="middle" x="147.45" y="-748" font-family="Helvetica,sans-Serif" font-size="10.00" fill="grey">&#45;isChromebook</text>
</g>
<!-- Node3 -->
<g id="Node000003" class="node">
<title>Node3</title>
<g id="a_Node000003"><a xlink:title=" ">
<polygon fill="white" stroke="transparent" points="650.95,-563 591.95,-563 591.95,-514 650.95,-514 650.95,-563"/>
<text text-anchor="start" x="597.45" y="-550.5" font-family="Helvetica,sans-Serif" font-size="10.00">DateTime</text>
<text text-anchor="start" x="619.95" y="-535.5" font-family="Helvetica,sans-Serif" font-size="10.00"> </text>
<text text-anchor="start" x="619.95" y="-520.5" font-family="Helvetica,sans-Serif" font-size="10.00"> </text>
<polygon fill="#666666" stroke="#666666" points="592.45,-545.5 592.45,-545.5 651.45,-545.5 651.45,-545.5 592.45,-545.5"/>
<polygon fill="#666666" stroke="#666666" points="592.45,-530.5 592.45,-530.5 651.45,-530.5 651.45,-530.5 592.45,-530.5"/>
<polygon fill="none" stroke="#666666" points="591.95,-514 591.95,-563 650.95,-563 650.95,-514 591.95,-514"/>
</a>
</g>
</g>
<!-- Node3&#45;&gt;Node1 -->
<g id="edge2_Node000001_Node000003" class="edge">
<title>Node3&#45;&gt;Node1</title>
<g id="a_edge2_Node000001_Node000003"><a xlink:title=" ">
<path fill="none" stroke="#63b8ff" d="M619.52,-513.76C615.75,-476.92 605.19,-404.54 577.45,-350 558.4,-312.57 530.81,-276.31 503.38,-245.3"/>
<polygon fill="none" stroke="#63b8ff" points="503.29,-245.2 496.31,-243.41 495.27,-236.27 502.26,-238.06 503.29,-245.2"/>
</a>
</g>
<text text-anchor="middle" x="613.45" y="-324" font-family="Helvetica,sans-Serif" font-size="10.00" fill="grey"> +EditorSignInStart</text>
</g>
<!-- Node4 -->
<g id="Node000004" class="node">
<title>Node4</title>
<g id="a_Node000004"><a xlink:title=" ">
<polygon fill="white" stroke="transparent" points="423.45,-834 385.45,-834 385.45,-785 423.45,-785 423.45,-834"/>
<text text-anchor="start" x="390.45" y="-821.5" font-family="Helvetica,sans-Serif" font-size="10.00">string</text>
<text text-anchor="start" x="402.45" y="-806.5" font-family="Helvetica,sans-Serif" font-size="10.00"> </text>
<text text-anchor="start" x="402.45" y="-791.5" font-family="Helvetica,sans-Serif" font-size="10.00"> </text>
<polygon fill="#666666" stroke="#666666" points="385.45,-816.5 385.45,-816.5 423.45,-816.5 423.45,-816.5 385.45,-816.5"/>
<polygon fill="#666666" stroke="#666666" points="385.45,-801.5 385.45,-801.5 423.45,-801.5 423.45,-801.5 385.45,-801.5"/>
<polygon fill="none" stroke="#666666" points="385.45,-785 385.45,-834 423.45,-834 423.45,-785 385.45,-785"/>
</a>
</g>
</g>
<!-- Node4&#45;&gt;Node1 -->
<g id="edge3_Node000001_Node000004" class="edge">
<title>Node4&#45;&gt;Node1</title>
<g id="a_edge3_Node000001_Node000004"><a xlink:title=" ">
<path fill="none" stroke="#63b8ff" d="M423.69,-788.98C428.85,-782.51 433.75,-774.92 436.45,-767 439.6,-757.74 436.66,-754.78 436.45,-745 432.22,-556.41 427.26,-509.38 417.45,-321 417.35,-319.08 417.24,-317.15 417.14,-315.2"/>
<polygon fill="none" stroke="#63b8ff" points="417.14,-315.14 412.82,-309.36 416.5,-303.15 420.81,-308.93 417.14,-315.14"/>
</a>
</g>
<text text-anchor="middle" x="497.95" y="-558" font-family="Helvetica,sans-Serif" font-size="10.00" fill="grey"> &#45;_userAlias</text>
<text text-anchor="middle" x="497.95" y="-547" font-family="Helvetica,sans-Serif" font-size="10.00" fill="grey">&#45;_userId</text>
<text text-anchor="start" x="436.45" y="-536" font-family="Helvetica,sans-Serif" font-size="10.00" fill="grey">&#45;c_accountIdLastUser</text>
<text text-anchor="middle" x="497.95" y="-525" font-family="Helvetica,sans-Serif" font-size="10.00" fill="grey">GameTag</text>
<text text-anchor="middle" x="497.95" y="-514" font-family="Helvetica,sans-Serif" font-size="10.00" fill="grey">&#45;c_accountIdLastUserKey</text>
</g>
<!-- Node4&#45;&gt;Node5 -->
<g id="edge7_Node000005_Node000004" class="edge">
<title>Node4&#45;&gt;Node5</title>
<g id="a_edge7_Node000005_Node000004"><a xlink:title=" ">
<path fill="none" stroke="#63b8ff" d="M385.35,-793.98C376.78,-786.66 367.12,-777.19 360.45,-767 354.4,-757.78 348.74,-748.06 343.43,-738.04"/>
<polygon fill="none" stroke="#63b8ff" points="343.28,-737.74 336.99,-734.22 337.82,-727.06 344.11,-730.58 343.28,-737.74"/>
</a>
</g>
<text text-anchor="middle" x="398.45" y="-753.5" font-family="Helvetica,sans-Serif" font-size="10.00" fill="grey"> +DeviceModel</text>
</g>
<!-- Node5&#45;&gt;Node1 -->
<g id="edge4_Node000001_Node000005" class="edge">
<title>Node5&#45;&gt;Node1</title>
<g id="a_edge4_Node000001_Node000005"><a xlink:title=" ">
<path fill="none" stroke="#63b8ff" d="M341.34,-349.79C345.28,-338.04 349.22,-326.27 353.12,-314.65"/>
<polygon fill="none" stroke="#63b8ff" points="353.18,-314.46 351.29,-307.5 356.99,-303.08 358.88,-310.04 353.18,-314.46"/>
</a>
</g>
<text text-anchor="middle" x="382.45" y="-324" font-family="Helvetica,sans-Serif" font-size="10.00" fill="grey"> &#45;_loginState</text>
</g>
<!-- Node6 -->
<g id="Node000006" class="node">
<title>Node6</title>
<g id="a_Node000006"><a xlink:title=" ">
<polygon fill="white" stroke="transparent" points="222.45,-834 148.45,-834 148.45,-785 222.45,-785 222.45,-834"/>
<text text-anchor="start" x="153.45" y="-821.5" font-family="Helvetica,sans-Serif" font-size="10.00">static Thread</text>
<text text-anchor="start" x="183.45" y="-806.5" font-family="Helvetica,sans-Serif" font-size="10.00"> </text>
<text text-anchor="start" x="183.45" y="-791.5" font-family="Helvetica,sans-Serif" font-size="10.00"> </text>
<polygon fill="#666666" stroke="#666666" points="148.45,-816.5 148.45,-816.5 222.45,-816.5 222.45,-816.5 148.45,-816.5"/>
<polygon fill="#666666" stroke="#666666" points="148.45,-801.5 148.45,-801.5 222.45,-801.5 222.45,-801.5 148.45,-801.5"/>
<polygon fill="none" stroke="#666666" points="148.45,-785 148.45,-834 222.45,-834 222.45,-785 148.45,-785"/>
</a>
</g>
</g>
<!-- Node6&#45;&gt;Node5 -->
<g id="edge6_Node000005_Node000006" class="edge">
<title>Node6&#45;&gt;Node5</title>
<g id="a_edge6_Node000005_Node000006"><a xlink:title=" ">
<path fill="none" stroke="#63b8ff" d="M192.18,-784.88C195.68,-772.89 200.13,-758.12 204.45,-745 205.14,-742.9 205.84,-740.78 206.54,-738.66"/>
<polygon fill="none" stroke="#63b8ff" points="206.56,-738.6 204.68,-731.64 210.37,-727.22 212.26,-734.18 206.56,-738.6"/>
</a>
</g>
<text text-anchor="middle" x="239.45" y="-753.5" font-family="Helvetica,sans-Serif" font-size="10.00" fill="grey"> +MainThread</text>
</g>
<!-- Node7 -->
<g id="Node000007" class="node">
<title>Node7</title>
<g id="a_Node000007"><a xlink:title=" ">
<polygon fill="white" stroke="transparent" points="309.95,-834 246.95,-834 246.95,-785 309.95,-785 309.95,-834"/>
<text text-anchor="start" x="252.45" y="-821.5" font-family="Helvetica,sans-Serif" font-size="10.00">static Guid</text>
<text text-anchor="start" x="276.95" y="-806.5" font-family="Helvetica,sans-Serif" font-size="10.00"> </text>
<text text-anchor="start" x="276.95" y="-791.5" font-family="Helvetica,sans-Serif" font-size="10.00"> </text>
<polygon fill="#666666" stroke="#666666" points="247.45,-816.5 247.45,-816.5 310.45,-816.5 310.45,-816.5 247.45,-816.5"/>
<polygon fill="#666666" stroke="#666666" points="247.45,-801.5 247.45,-801.5 310.45,-801.5 310.45,-801.5 247.45,-801.5"/>
<polygon fill="none" stroke="#666666" points="246.95,-785 246.95,-834 309.95,-834 309.95,-785 246.95,-785"/>
</a>
</g>
</g>
<!-- Node7&#45;&gt;Node5 -->
<g id="edge8_Node000005_Node000007" class="edge">
<title>Node7&#45;&gt;Node5</title>
<g id="a_edge8_Node000005_Node000007"><a xlink:title=" ">
<path fill="none" stroke="#63b8ff" d="M278.45,-784.63C278.45,-772.66 278.45,-756.94 278.45,-739.24"/>
<polygon fill="none" stroke="#63b8ff" points="278.45,-739.01 274.45,-733.01 278.45,-727.01 282.45,-733.01 278.45,-739.01"/>
</a>
</g>
<text text-anchor="middle" x="307.45" y="-753.5" font-family="Helvetica,sans-Serif" font-size="10.00" fill="grey"> +SessionId</text>
</g>
</g>
</svg>

<g id="navigator" transform="translate(0 0)" fill="#404254">
  <rect fill="#f2f5e9" fill-opacity="0.5" stroke="#606060" stroke-width=".5" x="0" y="0" width="60" height="60"/>
  <use id="zoomplus" xlink:href="#zoomPlus" x="17" y="9" onmousedown="handleZoom(evt,'in')"/>
  <use id="zoomminus" xlink:href="#zoomMin" x="42" y="9" onmousedown="handleZoom(evt,'out')"/>
  <use id="reset" xlink:href="#resetDef" x="30" y="36" onmousedown="handleReset()"/>
   <use id="arrowup" xlink:href="#arrowUp" x="0" y="0" onmousedown="handlePan(0,-1)"/>
  <use id="arrowright" xlink:href="#arrowRight" x="0" y="0" onmousedown="handlePan(1,0)"/>
  <use id="arrowdown" xlink:href="#arrowDown" x="0" y="0" onmousedown="handlePan(0,1)"/>
  <use id="arrowleft" xlink:href="#arrowLeft" x="0" y="0" onmousedown="handlePan(-1,0)"/>
</g>
<svg viewBox="0 0 15 15" width="100%" height="30px" preserveAspectRatio="xMaxYMin meet">
 <g id="arrow_out" transform="scale(0.3 0.3)">
  <a xlink:href="classiOS__UserManager__coll__graph_org.svg" target="_base">
   <rect id="button" ry="5" rx="5" y="6" x="6" height="38" width="38"
        fill="#f2f5e9" fill-opacity="0.5" stroke="#606060" stroke-width="1.0"/>
   <path id="arrow"
     d="M 11.500037,31.436501 C 11.940474,20.09759 22.043105,11.32322 32.158766,21.979434 L 37.068811,17.246167 C 37.068811,17.246167 37.088388,32 37.088388,32 L 22.160133,31.978069 C 22.160133,31.978069 26.997745,27.140456 26.997745,27.140456 C 18.528582,18.264221 13.291696,25.230495 11.500037,31.436501 z"
     style="fill:#404040;"/>
  </a>
 </g>
</svg>

<style type='text/css'>
<![CDATA[
[data-mouse-over-selected='false'] { opacity: 0.7; }
[data-mouse-over-selected='true']  { opacity: 1.0; }
]]>
</style>
<script type="application/ecmascript"><![CDATA[
document.addEventListener('DOMContentLoaded', (event) => {
  highlightEdges();
  highlightAdjacentNodes();
});
]]></script>
</svg>
